<?xml version="1.0" encoding="UTF-8" standalone="no"?>
<!DOCTYPE svg PUBLIC "-//W3C//DTD SVG 1.1//EN"
 "http://www.w3.org/Graphics/SVG/1.1/DTD/svg11.dtd">
<!-- Generated by graphviz version 2.43.0 (0)
 -->
<!-- Title: Base.hpp Pages: 1 -->
<svg width="2023pt" height="487pt"
 viewBox="0.00 0.00 2023.00 487.00" xmlns="http://www.w3.org/2000/svg" xmlns:xlink="http://www.w3.org/1999/xlink">
<g id="graph0" class="graph" transform="scale(1 1) rotate(0) translate(4 483)">
<title>Base.hpp</title>
<polygon fill="white" stroke="transparent" points="-4,4 -4,-483 2019,-483 2019,4 -4,4"/>
<!-- Node1 -->
<g id="node1" class="node">
<title>Node1</title>
<g id="a_node1"><a xlink:title="Definitions of MContainerBase and MContainer class templates.">
<polygon fill="#bfbfbf" stroke="black" points="378.5,-459.5 378.5,-478.5 436.5,-478.5 436.5,-459.5 378.5,-459.5"/>
<text text-anchor="middle" x="407.5" y="-466.5" font-family="Helvetica,sans-Serif" font-size="10.00">Base.hpp</text>
</a>
</g>
</g>
<!-- Node2 -->
<g id="node2" class="node">
<title>Node2</title>
<g id="a_node2"><a xlink:title=" ">
<polygon fill="white" stroke="#bfbfbf" points="625.5,-56.5 625.5,-75.5 687.5,-75.5 687.5,-56.5 625.5,-56.5"/>
<text text-anchor="middle" x="656.5" y="-63.5" font-family="Helvetica,sans-Serif" font-size="10.00">type_traits</text>
</a>
</g>
</g>
<!-- Node1&#45;&gt;Node2 -->
<g id="edge1" class="edge">
<title>Node1&#45;&gt;Node2</title>
<path fill="none" stroke="midnightblue" d="M411.06,-459.17C426.26,-421.91 488.5,-274.58 563.5,-168 586.77,-134.93 620.03,-101.34 639.83,-82.44"/>
<polygon fill="midnightblue" stroke="midnightblue" points="642.31,-84.91 647.19,-75.5 637.51,-79.82 642.31,-84.91"/>
</g>
<!-- Node3 -->
<g id="node3" class="node">
<title>Node3</title>
<g id="a_node3"><a xlink:href="ErrorManager_8h.html" target="_top" xlink:title="Definition of the ErrorManager class responsible for error registration and throwing.">
<polygon fill="white" stroke="black" points="599,-403.5 599,-422.5 742,-422.5 742,-403.5 599,-403.5"/>
<text text-anchor="middle" x="670.5" y="-410.5" font-family="Helvetica,sans-Serif" font-size="10.00">LLU/ErrorLog/ErrorManager.h</text>
</a>
</g>
</g>
<!-- Node1&#45;&gt;Node3 -->
<g id="edge2" class="edge">
<title>Node1&#45;&gt;Node3</title>
<path fill="none" stroke="midnightblue" d="M436.65,-462.01C480.59,-452.99 564.43,-435.78 618.87,-424.6"/>
<polygon fill="midnightblue" stroke="midnightblue" points="619.59,-428.03 628.68,-422.59 618.18,-421.17 619.59,-428.03"/>
</g>
<!-- Node18 -->
<g id="node18" class="node">
<title>Node18</title>
<g id="a_node18"><a xlink:href="Utilities_8hpp.html" target="_top" xlink:title="Short but generally useful functions.">
<polygon fill="white" stroke="black" points="744,-112.5 744,-131.5 833,-131.5 833,-112.5 744,-112.5"/>
<text text-anchor="middle" x="788.5" y="-119.5" font-family="Helvetica,sans-Serif" font-size="10.00">LLU/Utilities.hpp</text>
</a>
</g>
</g>
<!-- Node1&#45;&gt;Node18 -->
<g id="edge86" class="edge">
<title>Node1&#45;&gt;Node18</title>
<path fill="none" stroke="midnightblue" d="M413.94,-459.49C430.55,-437.77 476.71,-378.98 521.5,-336 579.24,-280.58 593.44,-264.44 662.5,-224 698.96,-202.64 718.59,-215.71 750.5,-188 765.11,-175.31 775.53,-155.56 781.72,-141.15"/>
<polygon fill="midnightblue" stroke="midnightblue" points="785.01,-142.37 785.48,-131.79 778.51,-139.77 785.01,-142.37"/>
</g>
<!-- Node22 -->
<g id="node22" class="node">
<title>Node22</title>
<g id="a_node22"><a xlink:href="LibraryData_8h.html" target="_top" xlink:title=" ">
<polygon fill="white" stroke="black" points="334.5,-56.5 334.5,-75.5 430.5,-75.5 430.5,-56.5 334.5,-56.5"/>
<text text-anchor="middle" x="382.5" y="-63.5" font-family="Helvetica,sans-Serif" font-size="10.00">LLU/LibraryData.h</text>
</a>
</g>
</g>
<!-- Node1&#45;&gt;Node22 -->
<g id="edge80" class="edge">
<title>Node1&#45;&gt;Node22</title>
<path fill="none" stroke="midnightblue" d="M378.36,-464.98C329.76,-459.36 235.14,-445.77 211.5,-423 188.13,-400.49 192.5,-384.95 192.5,-352.5 192.5,-352.5 192.5,-352.5 192.5,-177 192.5,-115.33 268.39,-87.68 324.24,-75.67"/>
<polygon fill="midnightblue" stroke="midnightblue" points="324.96,-79.1 334.06,-73.68 323.57,-72.24 324.96,-79.1"/>
</g>
<!-- Node39 -->
<g id="node39" class="node">
<title>Node39</title>
<g id="a_node39"><a xlink:href="MArgument_8h.html" target="_top" xlink:title="Template class and utilities to work with MArgument in type&#45;safe manner.">
<polygon fill="white" stroke="black" points="353.5,-168.5 353.5,-187.5 449.5,-187.5 449.5,-168.5 353.5,-168.5"/>
<text text-anchor="middle" x="401.5" y="-175.5" font-family="Helvetica,sans-Serif" font-size="10.00">LLU/MArgument.h</text>
</a>
</g>
</g>
<!-- Node1&#45;&gt;Node39 -->
<g id="edge81" class="edge">
<title>Node1&#45;&gt;Node39</title>
<path fill="none" stroke="midnightblue" d="M405.09,-459.39C399.98,-440.3 388.5,-392.94 388.5,-352.5 388.5,-352.5 388.5,-352.5 388.5,-289 388.5,-256.58 394.14,-219.15 397.99,-197.37"/>
<polygon fill="midnightblue" stroke="midnightblue" points="401.43,-197.99 399.8,-187.52 394.55,-196.72 401.43,-197.99"/>
</g>
<!-- Node40 -->
<g id="node40" class="node">
<title>Node40</title>
<g id="a_node40"><a xlink:href="Interfaces_8h.html" target="_top" xlink:title=" ">
<polygon fill="white" stroke="black" points="220.5,-403.5 220.5,-422.5 360.5,-422.5 360.5,-403.5 220.5,-403.5"/>
<text text-anchor="middle" x="290.5" y="-410.5" font-family="Helvetica,sans-Serif" font-size="10.00">LLU/Containers/Interfaces.h</text>
</a>
</g>
</g>
<!-- Node1&#45;&gt;Node40 -->
<g id="edge87" class="edge">
<title>Node1&#45;&gt;Node40</title>
<path fill="none" stroke="midnightblue" d="M388.96,-459.44C369.88,-450.64 339.93,-436.81 318.06,-426.72"/>
<polygon fill="midnightblue" stroke="midnightblue" points="319.5,-423.53 308.95,-422.52 316.57,-429.88 319.5,-423.53"/>
</g>
<!-- Node4 -->
<g id="node4" class="node">
<title>Node4</title>
<g id="a_node4"><a xlink:title=" ">
<polygon fill="white" stroke="#bfbfbf" points="835.5,-168.5 835.5,-187.5 891.5,-187.5 891.5,-168.5 835.5,-168.5"/>
<text text-anchor="middle" x="863.5" y="-175.5" font-family="Helvetica,sans-Serif" font-size="10.00">algorithm</text>
</a>
</g>
</g>
<!-- Node3&#45;&gt;Node4 -->
<g id="edge3" class="edge">
<title>Node3&#45;&gt;Node4</title>
<path fill="none" stroke="midnightblue" d="M667.56,-403.26C658.33,-374.02 633.05,-278.37 677.5,-224 695.91,-201.47 776.2,-188.71 825.07,-182.89"/>
<polygon fill="midnightblue" stroke="midnightblue" points="825.75,-186.34 835.29,-181.72 824.95,-179.38 825.75,-186.34"/>
</g>
<!-- Node5 -->
<g id="node5" class="node">
<title>Node5</title>
<g id="a_node5"><a xlink:title=" ">
<polygon fill="white" stroke="#bfbfbf" points="531,-342 531,-361 604,-361 604,-342 531,-342"/>
<text text-anchor="middle" x="567.5" y="-349" font-family="Helvetica,sans-Serif" font-size="10.00">initializer_list</text>
</a>
</g>
</g>
<!-- Node3&#45;&gt;Node5 -->
<g id="edge4" class="edge">
<title>Node3&#45;&gt;Node5</title>
<path fill="none" stroke="midnightblue" d="M655.74,-403.48C638.84,-393.71 610.92,-377.58 591.01,-366.08"/>
<polygon fill="midnightblue" stroke="midnightblue" points="592.64,-362.98 582.23,-361.01 589.14,-369.04 592.64,-362.98"/>
</g>
<!-- Node6 -->
<g id="node6" class="node">
<title>Node6</title>
<g id="a_node6"><a xlink:title=" ">
<polygon fill="white" stroke="#bfbfbf" points="1340,-56.5 1340,-75.5 1381,-75.5 1381,-56.5 1340,-56.5"/>
<text text-anchor="middle" x="1360.5" y="-63.5" font-family="Helvetica,sans-Serif" font-size="10.00">string</text>
</a>
</g>
</g>
<!-- Node3&#45;&gt;Node6 -->
<g id="edge5" class="edge">
<title>Node3&#45;&gt;Node6</title>
<path fill="none" stroke="midnightblue" d="M742.12,-412.53C1005.27,-413.57 1903.5,-408.49 1903.5,-291 1903.5,-291 1903.5,-291 1903.5,-177 1903.5,-71.71 1506.34,-66.06 1391.35,-66.63"/>
<polygon fill="midnightblue" stroke="midnightblue" points="1391.1,-63.13 1381.12,-66.7 1391.15,-70.13 1391.1,-63.13"/>
</g>
<!-- Node7 -->
<g id="node7" class="node">
<title>Node7</title>
<g id="a_node7"><a xlink:title=" ">
<polygon fill="white" stroke="#bfbfbf" points="1932,-342 1932,-361 2015,-361 2015,-342 1932,-342"/>
<text text-anchor="middle" x="1973.5" y="-349" font-family="Helvetica,sans-Serif" font-size="10.00">unordered_map</text>
</a>
</g>
</g>
<!-- Node3&#45;&gt;Node7 -->
<g id="edge6" class="edge">
<title>Node3&#45;&gt;Node7</title>
<path fill="none" stroke="midnightblue" d="M742.06,-411.46C971.68,-409.4 1688.26,-400.41 1917.5,-367 1923.42,-366.14 1929.62,-364.89 1935.64,-363.49"/>
<polygon fill="midnightblue" stroke="midnightblue" points="1936.69,-366.83 1945.54,-361.01 1934.99,-360.04 1936.69,-366.83"/>
</g>
<!-- Node8 -->
<g id="node8" class="node">
<title>Node8</title>
<g id="a_node8"><a xlink:title=" ">
<polygon fill="white" stroke="#bfbfbf" points="837.5,-56.5 837.5,-75.5 877.5,-75.5 877.5,-56.5 837.5,-56.5"/>
<text text-anchor="middle" x="857.5" y="-63.5" font-family="Helvetica,sans-Serif" font-size="10.00">utility</text>
</a>
</g>
</g>
<!-- Node3&#45;&gt;Node8 -->
<g id="edge7" class="edge">
<title>Node3&#45;&gt;Node8</title>
<path fill="none" stroke="midnightblue" d="M664.91,-403.47C640.16,-365.25 543,-209.76 572.5,-168 587.84,-146.29 757.4,-95.68 827.47,-75.52"/>
<polygon fill="midnightblue" stroke="midnightblue" points="828.79,-78.78 837.44,-72.66 826.87,-72.05 828.79,-78.78"/>
</g>
<!-- Node9 -->
<g id="node9" class="node">
<title>Node9</title>
<g id="a_node9"><a xlink:title=" ">
<polygon fill="white" stroke="#bfbfbf" points="686.5,-224.5 686.5,-243.5 730.5,-243.5 730.5,-224.5 686.5,-224.5"/>
<text text-anchor="middle" x="708.5" y="-231.5" font-family="Helvetica,sans-Serif" font-size="10.00">vector</text>
</a>
</g>
</g>
<!-- Node3&#45;&gt;Node9 -->
<g id="edge8" class="edge">
<title>Node3&#45;&gt;Node9</title>
<path fill="none" stroke="midnightblue" d="M673.5,-403.46C676.57,-394.47 681.34,-379.87 684.5,-367 694.28,-327.18 701.96,-279.71 705.8,-253.93"/>
<polygon fill="midnightblue" stroke="midnightblue" points="709.31,-254.13 707.29,-243.73 702.38,-253.12 709.31,-254.13"/>
</g>
<!-- Node10 -->
<g id="node10" class="node">
<title>Node10</title>
<g id="a_node10"><a xlink:href="LibraryLinkError_8h.html" target="_top" xlink:title="Error class and error codes used by LibraryLink Utilities classes.">
<polygon fill="white" stroke="black" points="1489,-336.5 1489,-366.5 1614,-366.5 1614,-336.5 1489,-336.5"/>
<text text-anchor="start" x="1497" y="-354.5" font-family="Helvetica,sans-Serif" font-size="10.00">LLU/ErrorLog/LibraryLink</text>
<text text-anchor="middle" x="1551.5" y="-343.5" font-family="Helvetica,sans-Serif" font-size="10.00">Error.h</text>
</a>
</g>
</g>
<!-- Node3&#45;&gt;Node10 -->
<g id="edge9" class="edge">
<title>Node3&#45;&gt;Node10</title>
<path fill="none" stroke="midnightblue" d="M742.22,-407.16C907.3,-396.01 1312.65,-368.63 1478.73,-357.41"/>
<polygon fill="midnightblue" stroke="midnightblue" points="1479.1,-360.9 1488.84,-356.73 1478.63,-353.91 1479.1,-360.9"/>
</g>
<!-- Node3&#45;&gt;Node22 -->
<g id="edge79" class="edge">
<title>Node3&#45;&gt;Node22</title>
<path fill="none" stroke="midnightblue" d="M620.65,-403.43C590.42,-396.71 551.94,-385.34 521.5,-367 425.66,-309.27 387.02,-291.49 344.5,-188 329.65,-151.86 353.64,-107.69 369.77,-83.98"/>
<polygon fill="midnightblue" stroke="midnightblue" points="372.72,-85.87 375.66,-75.69 367.02,-81.81 372.72,-85.87"/>
</g>
<!-- Node10&#45;&gt;Node6 -->
<g id="edge11" class="edge">
<title>Node10&#45;&gt;Node6</title>
<path fill="none" stroke="midnightblue" d="M1614.22,-341.71C1687.47,-328.04 1795.65,-295.44 1770.5,-224 1748.34,-161.05 1730.02,-142.18 1670.5,-112 1645.82,-99.49 1464.5,-78.43 1391.16,-70.32"/>
<polygon fill="midnightblue" stroke="midnightblue" points="1391.48,-66.84 1381.15,-69.22 1390.71,-73.8 1391.48,-66.84"/>
</g>
<!-- Node11 -->
<g id="node11" class="node">
<title>Node11</title>
<g id="a_node11"><a xlink:title=" ">
<polygon fill="white" stroke="#bfbfbf" points="1816,-280.5 1816,-299.5 1875,-299.5 1875,-280.5 1816,-280.5"/>
<text text-anchor="middle" x="1845.5" y="-287.5" font-family="Helvetica,sans-Serif" font-size="10.00">stdexcept</text>
</a>
</g>
</g>
<!-- Node10&#45;&gt;Node11 -->
<g id="edge10" class="edge">
<title>Node10&#45;&gt;Node11</title>
<path fill="none" stroke="midnightblue" d="M1614.18,-337.88C1664.75,-327.69 1737.71,-312.97 1801.5,-300 1802.93,-299.71 1804.39,-299.41 1805.86,-299.11"/>
<polygon fill="midnightblue" stroke="midnightblue" points="1806.58,-302.54 1815.68,-297.11 1805.18,-295.68 1806.58,-302.54"/>
</g>
<!-- Node12 -->
<g id="node12" class="node">
<title>Node12</title>
<g id="a_node12"><a xlink:href="WSStream_8hpp.html" target="_top" xlink:title="Header file for WSStream class.">
<polygon fill="white" stroke="black" points="1186,-280.5 1186,-299.5 1323,-299.5 1323,-280.5 1186,-280.5"/>
<text text-anchor="middle" x="1254.5" y="-287.5" font-family="Helvetica,sans-Serif" font-size="10.00">LLU/WSTP/WSStream.hpp</text>
</a>
</g>
</g>
<!-- Node10&#45;&gt;Node12 -->
<g id="edge12" class="edge">
<title>Node10&#45;&gt;Node12</title>
<path fill="none" stroke="midnightblue" d="M1488.88,-337.95C1434.9,-327.14 1357.86,-311.71 1307.05,-301.53"/>
<polygon fill="midnightblue" stroke="midnightblue" points="1307.43,-298.03 1296.93,-299.5 1306.05,-304.9 1307.43,-298.03"/>
</g>
<!-- Node12&#45;&gt;Node2 -->
<g id="edge17" class="edge">
<title>Node12&#45;&gt;Node2</title>
<path fill="none" stroke="midnightblue" d="M1185.96,-286.39C1071.7,-281.4 847.42,-268.74 772.5,-244 756.22,-238.62 755.44,-230.34 739.5,-224 668.95,-195.94 620.2,-247.08 572.5,-188 542.71,-151.11 600.15,-104.17 634.08,-81.1"/>
<polygon fill="midnightblue" stroke="midnightblue" points="636.12,-83.95 642.53,-75.52 632.26,-78.11 636.12,-83.95"/>
</g>
<!-- Node12&#45;&gt;Node4 -->
<g id="edge13" class="edge">
<title>Node12&#45;&gt;Node4</title>
<path fill="none" stroke="midnightblue" d="M1185.75,-286.92C1097.62,-283.1 950.78,-272.56 905.5,-244 888.33,-233.17 876.79,-212.47 870.22,-197.33"/>
<polygon fill="midnightblue" stroke="midnightblue" points="873.43,-195.92 866.46,-187.93 866.93,-198.52 873.43,-195.92"/>
</g>
<!-- Node12&#45;&gt;Node8 -->
<g id="edge18" class="edge">
<title>Node12&#45;&gt;Node8</title>
<path fill="none" stroke="midnightblue" d="M1186,-280.88C1144.44,-274.33 1091.02,-262.99 1046.5,-244 964.64,-209.07 934.97,-202.38 880.5,-132 869.98,-118.41 864.02,-99.61 860.82,-85.72"/>
<polygon fill="midnightblue" stroke="midnightblue" points="864.23,-84.94 858.81,-75.84 857.37,-86.33 864.23,-84.94"/>
</g>
<!-- Node12&#45;&gt;Node9 -->
<g id="edge19" class="edge">
<title>Node12&#45;&gt;Node9</title>
<path fill="none" stroke="midnightblue" d="M1185.6,-286.35C1087.19,-281.8 900.97,-270.29 744.5,-244 743.25,-243.79 741.98,-243.56 740.7,-243.31"/>
<polygon fill="midnightblue" stroke="midnightblue" points="741.37,-239.88 730.85,-241.17 739.88,-246.72 741.37,-239.88"/>
</g>
<!-- Node13 -->
<g id="node13" class="node">
<title>Node13</title>
<g id="a_node13"><a xlink:title=" ">
<polygon fill="white" stroke="#bfbfbf" points="1602,-224.5 1602,-243.5 1649,-243.5 1649,-224.5 1602,-224.5"/>
<text text-anchor="middle" x="1625.5" y="-231.5" font-family="Helvetica,sans-Serif" font-size="10.00">iterator</text>
</a>
</g>
</g>
<!-- Node12&#45;&gt;Node13 -->
<g id="edge14" class="edge">
<title>Node12&#45;&gt;Node13</title>
<path fill="none" stroke="midnightblue" d="M1323.05,-281.73C1390.6,-274.1 1496.59,-260.87 1587.5,-244 1588.96,-243.73 1590.44,-243.44 1591.94,-243.14"/>
<polygon fill="midnightblue" stroke="midnightblue" points="1592.83,-246.52 1601.86,-240.98 1591.34,-239.68 1592.83,-246.52"/>
</g>
<!-- Node14 -->
<g id="node14" class="node">
<title>Node14</title>
<g id="a_node14"><a xlink:title=" ">
<polygon fill="white" stroke="#bfbfbf" points="1667,-224.5 1667,-243.5 1702,-243.5 1702,-224.5 1667,-224.5"/>
<text text-anchor="middle" x="1684.5" y="-231.5" font-family="Helvetica,sans-Serif" font-size="10.00">map</text>
</a>
</g>
</g>
<!-- Node12&#45;&gt;Node14 -->
<g id="edge15" class="edge">
<title>Node12&#45;&gt;Node14</title>
<path fill="none" stroke="midnightblue" d="M1323.18,-286C1402.05,-281.52 1535.25,-270.78 1656.89,-243.94"/>
<polygon fill="midnightblue" stroke="midnightblue" points="1657.76,-247.34 1666.75,-241.73 1656.22,-240.51 1657.76,-247.34"/>
</g>
<!-- Node15 -->
<g id="node15" class="node">
<title>Node15</title>
<g id="a_node15"><a xlink:title=" ">
<polygon fill="white" stroke="#bfbfbf" points="1720,-224.5 1720,-243.5 1761,-243.5 1761,-224.5 1720,-224.5"/>
<text text-anchor="middle" x="1740.5" y="-231.5" font-family="Helvetica,sans-Serif" font-size="10.00">stack</text>
</a>
</g>
</g>
<!-- Node12&#45;&gt;Node15 -->
<g id="edge16" class="edge">
<title>Node12&#45;&gt;Node15</title>
<path fill="none" stroke="midnightblue" d="M1323.28,-286.57C1411.16,-282.5 1567.97,-272 1709.56,-244.05"/>
<polygon fill="midnightblue" stroke="midnightblue" points="1710.61,-247.4 1719.72,-242 1709.23,-240.54 1710.61,-247.4"/>
</g>
<!-- Node16 -->
<g id="node16" class="node">
<title>Node16</title>
<g id="a_node16"><a xlink:title=" ">
<polygon fill="white" stroke="#bfbfbf" points="1307.5,-0.5 1307.5,-19.5 1353.5,-19.5 1353.5,-0.5 1307.5,-0.5"/>
<text text-anchor="middle" x="1330.5" y="-7.5" font-family="Helvetica,sans-Serif" font-size="10.00">wstp.h</text>
</a>
</g>
</g>
<!-- Node12&#45;&gt;Node16 -->
<g id="edge20" class="edge">
<title>Node12&#45;&gt;Node16</title>
<path fill="none" stroke="midnightblue" d="M1323.26,-285.05C1385.02,-280.01 1477.55,-268.77 1554.5,-244 1573.04,-238.03 1574.91,-229.82 1593.5,-224 1708.61,-187.96 1767.56,-262.41 1862.5,-188 1883.55,-171.5 1879.52,-158.27 1884.5,-132 1891.04,-97.45 1890.7,-77.01 1862.5,-56 1822.53,-26.22 1474.18,-14.71 1363.86,-11.8"/>
<polygon fill="midnightblue" stroke="midnightblue" points="1363.74,-8.29 1353.65,-11.54 1363.55,-15.29 1363.74,-8.29"/>
</g>
<!-- Node17 -->
<g id="node17" class="node">
<title>Node17</title>
<g id="a_node17"><a xlink:href="Errors_8h.html" target="_top" xlink:title="Definitions of error names and error codes used across LLU.">
<polygon fill="white" stroke="black" points="1304.5,-112.5 1304.5,-131.5 1416.5,-131.5 1416.5,-112.5 1304.5,-112.5"/>
<text text-anchor="middle" x="1360.5" y="-119.5" font-family="Helvetica,sans-Serif" font-size="10.00">LLU/ErrorLog/Errors.h</text>
</a>
</g>
</g>
<!-- Node12&#45;&gt;Node17 -->
<g id="edge21" class="edge">
<title>Node12&#45;&gt;Node17</title>
<path fill="none" stroke="midnightblue" d="M1292.48,-280.41C1312.43,-273.86 1335.41,-262.67 1348.5,-244 1369.94,-213.42 1367.48,-167.32 1363.91,-141.76"/>
<polygon fill="midnightblue" stroke="midnightblue" points="1367.32,-140.9 1362.28,-131.58 1360.41,-142.01 1367.32,-140.9"/>
</g>
<!-- Node12&#45;&gt;Node18 -->
<g id="edge23" class="edge">
<title>Node12&#45;&gt;Node18</title>
<path fill="none" stroke="midnightblue" d="M1185.84,-286.13C1093.12,-281.34 933.52,-269.59 881.5,-244 837.65,-222.43 808.71,-169.13 795.96,-141.02"/>
<polygon fill="midnightblue" stroke="midnightblue" points="799.06,-139.38 791.87,-131.6 792.64,-142.17 799.06,-139.38"/>
</g>
<!-- Node30 -->
<g id="node30" class="node">
<title>Node30</title>
<g id="a_node30"><a xlink:href="Get_8h.html" target="_top" xlink:title="Header file with classes related to reading data from WSTP.">
<polygon fill="white" stroke="black" points="1451.5,-224.5 1451.5,-243.5 1545.5,-243.5 1545.5,-224.5 1451.5,-224.5"/>
<text text-anchor="middle" x="1498.5" y="-231.5" font-family="Helvetica,sans-Serif" font-size="10.00">LLU/WSTP/Get.h</text>
</a>
</g>
</g>
<!-- Node12&#45;&gt;Node30 -->
<g id="edge38" class="edge">
<title>Node12&#45;&gt;Node30</title>
<path fill="none" stroke="midnightblue" d="M1293.16,-280.44C1335.64,-271.04 1403.93,-255.93 1449.97,-245.74"/>
<polygon fill="midnightblue" stroke="midnightblue" points="1451.01,-249.09 1460.02,-243.52 1449.5,-242.26 1451.01,-249.09"/>
</g>
<!-- Node33 -->
<g id="node33" class="node">
<title>Node33</title>
<g id="a_node33"><a xlink:href="WSTP_2Utilities_8h.html" target="_top" xlink:title="Header file with miscellaneous utilities used throughout the WSTP&#45;related part of LibraryLinkUtilitie...">
<polygon fill="white" stroke="black" points="1138,-168.5 1138,-187.5 1249,-187.5 1249,-168.5 1138,-168.5"/>
<text text-anchor="middle" x="1193.5" y="-175.5" font-family="Helvetica,sans-Serif" font-size="10.00">LLU/WSTP/Utilities.h</text>
</a>
</g>
</g>
<!-- Node12&#45;&gt;Node33 -->
<g id="edge74" class="edge">
<title>Node12&#45;&gt;Node33</title>
<path fill="none" stroke="midnightblue" d="M1249.71,-280.37C1239.74,-262.38 1216.54,-220.55 1203.27,-196.63"/>
<polygon fill="midnightblue" stroke="midnightblue" points="1206.17,-194.64 1198.26,-187.59 1200.05,-198.03 1206.17,-194.64"/>
</g>
<!-- Node36 -->
<g id="node36" class="node">
<title>Node36</title>
<g id="a_node36"><a xlink:href="Put_8h.html" target="_top" xlink:title="Header file with classes related to sending data through WSTP.">
<polygon fill="white" stroke="black" points="1246,-224.5 1246,-243.5 1339,-243.5 1339,-224.5 1246,-224.5"/>
<text text-anchor="middle" x="1292.5" y="-231.5" font-family="Helvetica,sans-Serif" font-size="10.00">LLU/WSTP/Put.h</text>
</a>
</g>
</g>
<!-- Node12&#45;&gt;Node36 -->
<g id="edge59" class="edge">
<title>Node12&#45;&gt;Node36</title>
<path fill="none" stroke="midnightblue" d="M1260.77,-280.08C1266.14,-272.46 1274.02,-261.26 1280.58,-251.94"/>
<polygon fill="midnightblue" stroke="midnightblue" points="1283.45,-253.94 1286.34,-243.75 1277.72,-249.91 1283.45,-253.94"/>
</g>
<!-- Node37 -->
<g id="node37" class="node">
<title>Node37</title>
<g id="a_node37"><a xlink:href="Strings_8h.html" target="_top" xlink:title="Definitions of multiple structures and type aliases related to string handling in WSTP.">
<polygon fill="white" stroke="black" points="1055,-224.5 1055,-243.5 1164,-243.5 1164,-224.5 1055,-224.5"/>
<text text-anchor="middle" x="1109.5" y="-231.5" font-family="Helvetica,sans-Serif" font-size="10.00">LLU/WSTP/Strings.h</text>
</a>
</g>
</g>
<!-- Node12&#45;&gt;Node37 -->
<g id="edge65" class="edge">
<title>Node12&#45;&gt;Node37</title>
<path fill="none" stroke="midnightblue" d="M1231.52,-280.44C1207.34,-271.44 1169.08,-257.19 1141.85,-247.05"/>
<polygon fill="midnightblue" stroke="midnightblue" points="1142.96,-243.73 1132.37,-243.52 1140.52,-250.29 1142.96,-243.73"/>
</g>
<!-- Node38 -->
<g id="node38" class="node">
<title>Node38</title>
<g id="a_node38"><a xlink:href="UtilityTypeTraits_8hpp.html" target="_top" xlink:title="Type traits used by WSStream to identify types supported by WSTP.">
<polygon fill="white" stroke="black" points="581.5,-168.5 581.5,-187.5 741.5,-187.5 741.5,-168.5 581.5,-168.5"/>
<text text-anchor="middle" x="661.5" y="-175.5" font-family="Helvetica,sans-Serif" font-size="10.00">LLU/WSTP/UtilityTypeTraits.hpp</text>
</a>
</g>
</g>
<!-- Node12&#45;&gt;Node38 -->
<g id="edge75" class="edge">
<title>Node12&#45;&gt;Node38</title>
<path fill="none" stroke="midnightblue" d="M1185.77,-288.02C1099.28,-285.39 946.77,-276.12 820.5,-244 798.1,-238.3 793.88,-232.79 772.5,-224 745.36,-212.84 714.41,-200.31 692.1,-191.31"/>
<polygon fill="midnightblue" stroke="midnightblue" points="693.39,-188.06 682.8,-187.57 690.77,-194.55 693.39,-188.06"/>
</g>
<!-- Node17&#45;&gt;Node6 -->
<g id="edge22" class="edge">
<title>Node17&#45;&gt;Node6</title>
<path fill="none" stroke="midnightblue" d="M1360.5,-112.08C1360.5,-105.01 1360.5,-94.86 1360.5,-85.99"/>
<polygon fill="midnightblue" stroke="midnightblue" points="1364,-85.75 1360.5,-75.75 1357,-85.75 1364,-85.75"/>
</g>
<!-- Node18&#45;&gt;Node2 -->
<g id="edge26" class="edge">
<title>Node18&#45;&gt;Node2</title>
<path fill="none" stroke="midnightblue" d="M767.58,-112.44C745.76,-103.52 711.35,-89.44 686.61,-79.32"/>
<polygon fill="midnightblue" stroke="midnightblue" points="687.9,-76.06 677.32,-75.52 685.25,-82.54 687.9,-76.06"/>
</g>
<!-- Node18&#45;&gt;Node8 -->
<g id="edge27" class="edge">
<title>Node18&#45;&gt;Node8</title>
<path fill="none" stroke="midnightblue" d="M799.59,-112.32C809.99,-104.18 825.76,-91.84 838.22,-82.09"/>
<polygon fill="midnightblue" stroke="midnightblue" points="840.49,-84.75 846.21,-75.83 836.18,-79.24 840.49,-84.75"/>
</g>
<!-- Node19 -->
<g id="node19" class="node">
<title>Node19</title>
<g id="a_node19"><a xlink:title=" ">
<polygon fill="white" stroke="#bfbfbf" points="762,-56.5 762,-75.5 815,-75.5 815,-56.5 762,-56.5"/>
<text text-anchor="middle" x="788.5" y="-63.5" font-family="Helvetica,sans-Serif" font-size="10.00">complex</text>
</a>
</g>
</g>
<!-- Node18&#45;&gt;Node19 -->
<g id="edge24" class="edge">
<title>Node18&#45;&gt;Node19</title>
<path fill="none" stroke="midnightblue" d="M788.5,-112.08C788.5,-105.01 788.5,-94.86 788.5,-85.99"/>
<polygon fill="midnightblue" stroke="midnightblue" points="792,-85.75 788.5,-75.75 785,-85.75 792,-85.75"/>
</g>
<!-- Node20 -->
<g id="node20" class="node">
<title>Node20</title>
<g id="a_node20"><a xlink:title=" ">
<polygon fill="white" stroke="#bfbfbf" points="919.5,-56.5 919.5,-75.5 965.5,-75.5 965.5,-56.5 919.5,-56.5"/>
<text text-anchor="middle" x="942.5" y="-63.5" font-family="Helvetica,sans-Serif" font-size="10.00">cstdint</text>
</a>
</g>
</g>
<!-- Node18&#45;&gt;Node20 -->
<g id="edge25" class="edge">
<title>Node18&#45;&gt;Node20</title>
<path fill="none" stroke="midnightblue" d="M812.9,-112.44C839,-103.29 880.54,-88.73 909.53,-78.56"/>
<polygon fill="midnightblue" stroke="midnightblue" points="910.94,-81.77 919.22,-75.16 908.63,-75.17 910.94,-81.77"/>
</g>
<!-- Node21 -->
<g id="node21" class="node">
<title>Node21</title>
<g id="a_node21"><a xlink:title=" ">
<polygon fill="white" stroke="#bfbfbf" points="514.5,-56.5 514.5,-75.5 560.5,-75.5 560.5,-56.5 514.5,-56.5"/>
<text text-anchor="middle" x="537.5" y="-63.5" font-family="Helvetica,sans-Serif" font-size="10.00">variant</text>
</a>
</g>
</g>
<!-- Node18&#45;&gt;Node21 -->
<g id="edge28" class="edge">
<title>Node18&#45;&gt;Node21</title>
<path fill="none" stroke="midnightblue" d="M748.73,-112.44C699.48,-101.85 616.5,-84 570.58,-74.12"/>
<polygon fill="midnightblue" stroke="midnightblue" points="571.06,-70.64 560.55,-71.96 569.59,-77.48 571.06,-70.64"/>
</g>
<!-- Node18&#45;&gt;Node22 -->
<g id="edge29" class="edge">
<title>Node18&#45;&gt;Node22</title>
<path fill="none" stroke="midnightblue" d="M743.89,-115.07C670.11,-105.25 522.69,-85.65 440.78,-74.75"/>
<polygon fill="midnightblue" stroke="midnightblue" points="441.01,-71.25 430.64,-73.4 440.09,-78.19 441.01,-71.25"/>
</g>
<!-- Node22&#45;&gt;Node16 -->
<g id="edge32" class="edge">
<title>Node22&#45;&gt;Node16</title>
<path fill="none" stroke="midnightblue" d="M430.68,-61.27C453.37,-59.56 480.82,-57.58 505.5,-56 813.02,-36.36 1185.36,-18 1297.2,-12.59"/>
<polygon fill="midnightblue" stroke="midnightblue" points="1297.38,-16.09 1307.2,-12.11 1297.04,-9.1 1297.38,-16.09"/>
</g>
<!-- Node23 -->
<g id="node23" class="node">
<title>Node23</title>
<g id="a_node23"><a xlink:title=" ">
<polygon fill="white" stroke="#bfbfbf" points="1045.5,-0.5 1045.5,-19.5 1097.5,-19.5 1097.5,-0.5 1045.5,-0.5"/>
<text text-anchor="middle" x="1071.5" y="-7.5" font-family="Helvetica,sans-Serif" font-size="10.00">memory</text>
</a>
</g>
</g>
<!-- Node22&#45;&gt;Node23 -->
<g id="edge30" class="edge">
<title>Node22&#45;&gt;Node23</title>
<path fill="none" stroke="midnightblue" d="M430.68,-61.22C561.28,-50.99 920.01,-22.87 1035.31,-13.84"/>
<polygon fill="midnightblue" stroke="midnightblue" points="1035.68,-17.32 1045.38,-13.05 1035.14,-10.34 1035.68,-17.32"/>
</g>
<!-- Node24 -->
<g id="node24" class="node">
<title>Node24</title>
<g id="a_node24"><a xlink:title=" ">
<polygon fill="white" stroke="#bfbfbf" points="304.5,-0.5 304.5,-19.5 366.5,-19.5 366.5,-0.5 304.5,-0.5"/>
<text text-anchor="middle" x="335.5" y="-7.5" font-family="Helvetica,sans-Serif" font-size="10.00">dllexport.h</text>
</a>
</g>
</g>
<!-- Node22&#45;&gt;Node24 -->
<g id="edge31" class="edge">
<title>Node22&#45;&gt;Node24</title>
<path fill="none" stroke="midnightblue" d="M374.74,-56.08C367.96,-48.3 357.96,-36.8 349.74,-27.37"/>
<polygon fill="midnightblue" stroke="midnightblue" points="352.32,-25 343.12,-19.75 347.04,-29.59 352.32,-25"/>
</g>
<!-- Node25 -->
<g id="node25" class="node">
<title>Node25</title>
<g id="a_node25"><a xlink:title=" ">
<polygon fill="white" stroke="#bfbfbf" points="385,-0.5 385,-19.5 474,-19.5 474,-0.5 385,-0.5"/>
<text text-anchor="middle" x="429.5" y="-7.5" font-family="Helvetica,sans-Serif" font-size="10.00">WolframLibrary.h</text>
</a>
</g>
</g>
<!-- Node22&#45;&gt;Node25 -->
<g id="edge33" class="edge">
<title>Node22&#45;&gt;Node25</title>
<path fill="none" stroke="midnightblue" d="M390.26,-56.08C397.04,-48.3 407.04,-36.8 415.26,-27.37"/>
<polygon fill="midnightblue" stroke="midnightblue" points="417.96,-29.59 421.88,-19.75 412.68,-25 417.96,-29.59"/>
</g>
<!-- Node26 -->
<g id="node26" class="node">
<title>Node26</title>
<g id="a_node26"><a xlink:title=" ">
<polygon fill="white" stroke="#bfbfbf" points="492,-0.5 492,-19.5 635,-19.5 635,-0.5 492,-0.5"/>
<text text-anchor="middle" x="563.5" y="-7.5" font-family="Helvetica,sans-Serif" font-size="10.00">WolframIOLibraryFunctions.h</text>
</a>
</g>
</g>
<!-- Node22&#45;&gt;Node26 -->
<g id="edge34" class="edge">
<title>Node22&#45;&gt;Node26</title>
<path fill="none" stroke="midnightblue" d="M411.18,-56.44C442.03,-47.24 491.23,-32.56 525.33,-22.39"/>
<polygon fill="midnightblue" stroke="midnightblue" points="526.37,-25.73 534.95,-19.52 524.37,-19.02 526.37,-25.73"/>
</g>
<!-- Node27 -->
<g id="node27" class="node">
<title>Node27</title>
<g id="a_node27"><a xlink:title=" ">
<polygon fill="white" stroke="#bfbfbf" points="653.5,-0.5 653.5,-19.5 769.5,-19.5 769.5,-0.5 653.5,-0.5"/>
<text text-anchor="middle" x="711.5" y="-7.5" font-family="Helvetica,sans-Serif" font-size="10.00">WolframImageLibrary.h</text>
</a>
</g>
</g>
<!-- Node22&#45;&gt;Node27 -->
<g id="edge35" class="edge">
<title>Node22&#45;&gt;Node27</title>
<path fill="none" stroke="midnightblue" d="M430.69,-57.09C488.72,-47.57 586.27,-31.55 649.76,-21.13"/>
<polygon fill="midnightblue" stroke="midnightblue" points="650.35,-24.58 659.65,-19.51 649.21,-17.68 650.35,-24.58"/>
</g>
<!-- Node28 -->
<g id="node28" class="node">
<title>Node28</title>
<g id="a_node28"><a xlink:title=" ">
<polygon fill="white" stroke="#bfbfbf" points="0,-0.5 0,-19.5 149,-19.5 149,-0.5 0,-0.5"/>
<text text-anchor="middle" x="74.5" y="-7.5" font-family="Helvetica,sans-Serif" font-size="10.00">WolframNumericArrayLibrary.h</text>
</a>
</g>
</g>
<!-- Node22&#45;&gt;Node28 -->
<g id="edge36" class="edge">
<title>Node22&#45;&gt;Node28</title>
<path fill="none" stroke="midnightblue" d="M334.38,-56.56C280.03,-47.03 191.59,-31.53 133.22,-21.3"/>
<polygon fill="midnightblue" stroke="midnightblue" points="133.5,-17.79 123.05,-19.51 132.29,-24.69 133.5,-17.79"/>
</g>
<!-- Node29 -->
<g id="node29" class="node">
<title>Node29</title>
<g id="a_node29"><a xlink:title=" ">
<polygon fill="white" stroke="#bfbfbf" points="167,-0.5 167,-19.5 286,-19.5 286,-0.5 167,-0.5"/>
<text text-anchor="middle" x="226.5" y="-7.5" font-family="Helvetica,sans-Serif" font-size="10.00">WolframSparseLibrary.h</text>
</a>
</g>
</g>
<!-- Node22&#45;&gt;Node29 -->
<g id="edge37" class="edge">
<title>Node22&#45;&gt;Node29</title>
<path fill="none" stroke="midnightblue" d="M357.78,-56.44C331.65,-47.4 290.24,-33.06 260.92,-22.92"/>
<polygon fill="midnightblue" stroke="midnightblue" points="261.7,-19.48 251.1,-19.52 259.41,-26.1 261.7,-19.48"/>
</g>
<!-- Node30&#45;&gt;Node6 -->
<g id="edge41" class="edge">
<title>Node30&#45;&gt;Node6</title>
<path fill="none" stroke="midnightblue" d="M1545.63,-224.54C1606.48,-213.4 1705.28,-194.45 1710.5,-188 1716.09,-181.09 1714.48,-175.95 1710.5,-168 1691.86,-130.81 1673.79,-128.27 1635.5,-112 1552.15,-76.59 1443.67,-68.9 1391.36,-67.33"/>
<polygon fill="midnightblue" stroke="midnightblue" points="1391.17,-63.82 1381.08,-67.08 1391,-70.82 1391.17,-63.82"/>
</g>
<!-- Node30&#45;&gt;Node16 -->
<g id="edge42" class="edge">
<title>Node30&#45;&gt;Node16</title>
<path fill="none" stroke="midnightblue" d="M1545.78,-225.93C1550.41,-225.27 1555.05,-224.61 1559.5,-224 1622.09,-215.39 1799.75,-235.42 1841.5,-188 1880.27,-143.97 1881.12,-99.26 1841.5,-56 1809.23,-20.76 1471.96,-12.98 1363.73,-11.39"/>
<polygon fill="midnightblue" stroke="midnightblue" points="1363.75,-7.89 1353.7,-11.25 1363.65,-14.88 1363.75,-7.89"/>
</g>
<!-- Node30&#45;&gt;Node17 -->
<g id="edge43" class="edge">
<title>Node30&#45;&gt;Node17</title>
<path fill="none" stroke="midnightblue" d="M1487.67,-224.37C1464.19,-205.65 1408.36,-161.15 1379.11,-137.83"/>
<polygon fill="midnightblue" stroke="midnightblue" points="1381.28,-135.09 1371.28,-131.59 1376.92,-140.56 1381.28,-135.09"/>
</g>
<!-- Node30&#45;&gt;Node18 -->
<g id="edge44" class="edge">
<title>Node30&#45;&gt;Node18</title>
<path fill="none" stroke="midnightblue" d="M1472.55,-224.41C1428.89,-210.31 1337.71,-182.39 1258.5,-168 1092.46,-137.83 1048.48,-148.22 880.5,-132 868.52,-130.84 855.66,-129.59 843.47,-128.4"/>
<polygon fill="midnightblue" stroke="midnightblue" points="843.71,-124.91 833.42,-127.42 843.03,-131.87 843.71,-124.91"/>
</g>
<!-- Node30&#45;&gt;Node23 -->
<g id="edge40" class="edge">
<title>Node30&#45;&gt;Node23</title>
<path fill="none" stroke="midnightblue" d="M1545.66,-225.21C1610.48,-214.29 1719.78,-194.97 1725.5,-188 1731.14,-181.13 1728.86,-176.23 1725.5,-168 1712.3,-135.71 1701.18,-128.6 1670.5,-112 1571.56,-58.47 1221.53,-24.02 1107.61,-14.02"/>
<polygon fill="midnightblue" stroke="midnightblue" points="1107.92,-10.53 1097.65,-13.16 1107.31,-17.51 1107.92,-10.53"/>
</g>
<!-- Node31 -->
<g id="node31" class="node">
<title>Node31</title>
<g id="a_node31"><a xlink:title=" ">
<polygon fill="white" stroke="#bfbfbf" points="1567,-112.5 1567,-131.5 1626,-131.5 1626,-112.5 1567,-112.5"/>
<text text-anchor="middle" x="1596.5" y="-119.5" font-family="Helvetica,sans-Serif" font-size="10.00">functional</text>
</a>
</g>
</g>
<!-- Node30&#45;&gt;Node31 -->
<g id="edge39" class="edge">
<title>Node30&#45;&gt;Node31</title>
<path fill="none" stroke="midnightblue" d="M1545.9,-225.27C1600.87,-215.83 1685.2,-199.68 1694.5,-188 1714.9,-162.38 1671.25,-143.35 1635.82,-132.7"/>
<polygon fill="midnightblue" stroke="midnightblue" points="1636.68,-129.31 1626.1,-129.93 1634.75,-136.04 1636.68,-129.31"/>
</g>
<!-- Node32 -->
<g id="node32" class="node">
<title>Node32</title>
<g id="a_node32"><a xlink:href="Release_8h.html" target="_top" xlink:title="Header file with classes responsible for releasing memory allocated by WSTP when receiving data.">
<polygon fill="white" stroke="black" points="1571.5,-168.5 1571.5,-187.5 1685.5,-187.5 1685.5,-168.5 1571.5,-168.5"/>
<text text-anchor="middle" x="1628.5" y="-175.5" font-family="Helvetica,sans-Serif" font-size="10.00">LLU/WSTP/Release.h</text>
</a>
</g>
</g>
<!-- Node30&#45;&gt;Node32 -->
<g id="edge45" class="edge">
<title>Node30&#45;&gt;Node32</title>
<path fill="none" stroke="midnightblue" d="M1519.1,-224.44C1540.49,-215.56 1574.18,-201.56 1598.52,-191.45"/>
<polygon fill="midnightblue" stroke="midnightblue" points="1600.11,-194.58 1608,-187.52 1597.42,-188.12 1600.11,-194.58"/>
</g>
<!-- Node30&#45;&gt;Node33 -->
<g id="edge49" class="edge">
<title>Node30&#45;&gt;Node33</title>
<path fill="none" stroke="midnightblue" d="M1451.18,-224.62C1397.43,-215.11 1309.7,-199.57 1251.78,-189.32"/>
<polygon fill="midnightblue" stroke="midnightblue" points="1252.15,-185.83 1241.69,-187.53 1250.93,-192.72 1252.15,-185.83"/>
</g>
<!-- Node32&#45;&gt;Node16 -->
<g id="edge47" class="edge">
<title>Node32&#45;&gt;Node16</title>
<path fill="none" stroke="midnightblue" d="M1632.67,-168.23C1638.31,-154.97 1646.48,-129.5 1635.5,-112 1605.89,-64.83 1436.91,-29.8 1363.99,-16.67"/>
<polygon fill="midnightblue" stroke="midnightblue" points="1364.42,-13.19 1353.96,-14.89 1363.19,-20.08 1364.42,-13.19"/>
</g>
<!-- Node32&#45;&gt;Node18 -->
<g id="edge48" class="edge">
<title>Node32&#45;&gt;Node18</title>
<path fill="none" stroke="midnightblue" d="M1571.21,-174.29C1445.87,-168.19 1137.94,-152.33 880.5,-132 868.5,-131.05 855.64,-129.89 843.44,-128.71"/>
<polygon fill="midnightblue" stroke="midnightblue" points="843.69,-125.22 833.39,-127.73 843,-132.19 843.69,-125.22"/>
</g>
<!-- Node32&#45;&gt;Node31 -->
<g id="edge46" class="edge">
<title>Node32&#45;&gt;Node31</title>
<path fill="none" stroke="midnightblue" d="M1623.22,-168.08C1618.79,-160.61 1612.34,-149.72 1606.88,-140.52"/>
<polygon fill="midnightblue" stroke="midnightblue" points="1609.79,-138.57 1601.69,-131.75 1603.77,-142.14 1609.79,-138.57"/>
</g>
<!-- Node33&#45;&gt;Node6 -->
<g id="edge51" class="edge">
<title>Node33&#45;&gt;Node6</title>
<path fill="none" stroke="midnightblue" d="M1196.42,-168.09C1201.42,-154.18 1212.93,-127.29 1231.5,-112 1259.92,-88.61 1301.28,-77.04 1329.46,-71.56"/>
<polygon fill="midnightblue" stroke="midnightblue" points="1330.33,-74.96 1339.55,-69.74 1329.09,-68.07 1330.33,-74.96"/>
</g>
<!-- Node33&#45;&gt;Node16 -->
<g id="edge52" class="edge">
<title>Node33&#45;&gt;Node16</title>
<path fill="none" stroke="midnightblue" d="M1193.93,-168.34C1194.94,-155.22 1198.3,-129.94 1209.5,-112 1233.85,-73.01 1278.36,-41.69 1306.07,-24.77"/>
<polygon fill="midnightblue" stroke="midnightblue" points="1307.97,-27.72 1314.78,-19.6 1304.39,-21.7 1307.97,-27.72"/>
</g>
<!-- Node33&#45;&gt;Node17 -->
<g id="edge53" class="edge">
<title>Node33&#45;&gt;Node17</title>
<path fill="none" stroke="midnightblue" d="M1219.96,-168.44C1248.18,-159.32 1293.04,-144.81 1324.47,-134.65"/>
<polygon fill="midnightblue" stroke="midnightblue" points="1325.72,-137.92 1334.16,-131.52 1323.57,-131.26 1325.72,-137.92"/>
</g>
<!-- Node34 -->
<g id="node34" class="node">
<title>Node34</title>
<g id="a_node34"><a xlink:title=" ">
<polygon fill="white" stroke="#bfbfbf" points="1240.5,-112.5 1240.5,-131.5 1286.5,-131.5 1286.5,-112.5 1240.5,-112.5"/>
<text text-anchor="middle" x="1263.5" y="-119.5" font-family="Helvetica,sans-Serif" font-size="10.00">cstring</text>
</a>
</g>
</g>
<!-- Node33&#45;&gt;Node34 -->
<g id="edge50" class="edge">
<title>Node33&#45;&gt;Node34</title>
<path fill="none" stroke="midnightblue" d="M1204.75,-168.32C1215.3,-160.18 1231.3,-147.84 1243.94,-138.09"/>
<polygon fill="midnightblue" stroke="midnightblue" points="1246.27,-140.71 1252.05,-131.83 1241.99,-135.17 1246.27,-140.71"/>
</g>
<!-- Node35 -->
<g id="node35" class="node">
<title>Node35</title>
<g id="a_node35"><a xlink:href="EncodingTraits_8hpp.html" target="_top" xlink:title="Defines possible encodings together with their properties and related types.">
<polygon fill="white" stroke="black" points="889.5,-112.5 889.5,-131.5 1043.5,-131.5 1043.5,-112.5 889.5,-112.5"/>
<text text-anchor="middle" x="966.5" y="-119.5" font-family="Helvetica,sans-Serif" font-size="10.00">LLU/WSTP/EncodingTraits.hpp</text>
</a>
</g>
</g>
<!-- Node33&#45;&gt;Node35 -->
<g id="edge54" class="edge">
<title>Node33&#45;&gt;Node35</title>
<path fill="none" stroke="midnightblue" d="M1157.53,-168.44C1118.18,-159.08 1055.01,-144.06 1012.19,-133.87"/>
<polygon fill="midnightblue" stroke="midnightblue" points="1012.84,-130.43 1002.3,-131.52 1011.22,-137.24 1012.84,-130.43"/>
</g>
<!-- Node35&#45;&gt;Node2 -->
<g id="edge57" class="edge">
<title>Node35&#45;&gt;Node2</title>
<path fill="none" stroke="midnightblue" d="M917.38,-112.44C856.79,-101.89 754.84,-84.13 697.99,-74.23"/>
<polygon fill="midnightblue" stroke="midnightblue" points="698.37,-70.74 687.92,-72.47 697.17,-77.64 698.37,-70.74"/>
</g>
<!-- Node35&#45;&gt;Node6 -->
<g id="edge56" class="edge">
<title>Node35&#45;&gt;Node6</title>
<path fill="none" stroke="midnightblue" d="M1028.93,-112.44C1114.64,-100.7 1265.46,-80.03 1329.9,-71.19"/>
<polygon fill="midnightblue" stroke="midnightblue" points="1330.4,-74.66 1339.84,-69.83 1329.45,-67.72 1330.4,-74.66"/>
</g>
<!-- Node35&#45;&gt;Node8 -->
<g id="edge58" class="edge">
<title>Node35&#45;&gt;Node8</title>
<path fill="none" stroke="midnightblue" d="M948.99,-112.32C931.43,-103.62 904.17,-90.12 883.97,-80.11"/>
<polygon fill="midnightblue" stroke="midnightblue" points="885.48,-76.96 874.97,-75.65 882.38,-83.23 885.48,-76.96"/>
</g>
<!-- Node35&#45;&gt;Node20 -->
<g id="edge55" class="edge">
<title>Node35&#45;&gt;Node20</title>
<path fill="none" stroke="midnightblue" d="M962.54,-112.08C959.29,-104.77 954.58,-94.18 950.55,-85.1"/>
<polygon fill="midnightblue" stroke="midnightblue" points="953.65,-83.47 946.39,-75.75 947.25,-86.31 953.65,-83.47"/>
</g>
<!-- Node36&#45;&gt;Node16 -->
<g id="edge61" class="edge">
<title>Node36&#45;&gt;Node16</title>
<path fill="none" stroke="midnightblue" d="M1313.53,-224.41C1344.72,-210.38 1402.04,-179.27 1425.5,-132 1447.08,-88.52 1390.13,-45.78 1355.28,-24.66"/>
<polygon fill="midnightblue" stroke="midnightblue" points="1356.94,-21.57 1346.54,-19.52 1353.39,-27.61 1356.94,-21.57"/>
</g>
<!-- Node36&#45;&gt;Node17 -->
<g id="edge62" class="edge">
<title>Node36&#45;&gt;Node17</title>
<path fill="none" stroke="midnightblue" d="M1297.84,-224.37C1309.01,-206.3 1335.05,-164.18 1349.8,-140.31"/>
<polygon fill="midnightblue" stroke="midnightblue" points="1352.91,-141.94 1355.19,-131.59 1346.95,-138.26 1352.91,-141.94"/>
</g>
<!-- Node36&#45;&gt;Node18 -->
<g id="edge63" class="edge">
<title>Node36&#45;&gt;Node18</title>
<path fill="none" stroke="midnightblue" d="M1253.37,-224.46C1162.48,-204.62 937.23,-155.46 837.43,-133.68"/>
<polygon fill="midnightblue" stroke="midnightblue" points="838.12,-130.25 827.6,-131.53 836.63,-137.09 838.12,-130.25"/>
</g>
<!-- Node36&#45;&gt;Node31 -->
<g id="edge60" class="edge">
<title>Node36&#45;&gt;Node31</title>
<path fill="none" stroke="midnightblue" d="M1339.44,-230.56C1386.92,-226.55 1461.39,-215.95 1519.5,-188 1544.24,-176.1 1567.59,-154.36 1581.95,-139.32"/>
<polygon fill="midnightblue" stroke="midnightblue" points="1584.72,-141.47 1588.95,-131.76 1579.59,-136.71 1584.72,-141.47"/>
</g>
<!-- Node36&#45;&gt;Node33 -->
<g id="edge64" class="edge">
<title>Node36&#45;&gt;Node33</title>
<path fill="none" stroke="midnightblue" d="M1276.59,-224.32C1260.86,-215.74 1236.56,-202.49 1218.29,-192.52"/>
<polygon fill="midnightblue" stroke="midnightblue" points="1219.82,-189.37 1209.37,-187.65 1216.47,-195.52 1219.82,-189.37"/>
</g>
<!-- Node37&#45;&gt;Node4 -->
<g id="edge66" class="edge">
<title>Node37&#45;&gt;Node4</title>
<path fill="none" stroke="midnightblue" d="M1070.52,-224.44C1024.17,-214.27 947.33,-197.4 901.44,-187.33"/>
<polygon fill="midnightblue" stroke="midnightblue" points="902.1,-183.89 891.58,-185.16 900.6,-190.73 902.1,-183.89"/>
</g>
<!-- Node37&#45;&gt;Node16 -->
<g id="edge69" class="edge">
<title>Node37&#45;&gt;Node16</title>
<path fill="none" stroke="midnightblue" d="M1110.82,-224.49C1113.11,-211.57 1118.63,-186.53 1129.5,-168 1164.33,-108.62 1180.77,-96.41 1236.5,-56 1255.34,-42.34 1278.96,-31.05 1297.82,-23.2"/>
<polygon fill="midnightblue" stroke="midnightblue" points="1299.23,-26.4 1307.19,-19.41 1296.61,-19.91 1299.23,-26.4"/>
</g>
<!-- Node37&#45;&gt;Node17 -->
<g id="edge70" class="edge">
<title>Node37&#45;&gt;Node17</title>
<path fill="none" stroke="midnightblue" d="M1147.9,-224.49C1178.63,-216.95 1222.4,-204.57 1258.5,-188 1288.95,-174.02 1321.07,-152.22 1340.94,-137.77"/>
<polygon fill="midnightblue" stroke="midnightblue" points="1343.2,-140.46 1349.17,-131.71 1339.04,-134.83 1343.2,-140.46"/>
</g>
<!-- Node37&#45;&gt;Node18 -->
<g id="edge71" class="edge">
<title>Node37&#45;&gt;Node18</title>
<path fill="none" stroke="midnightblue" d="M1084.58,-224.46C1027.81,-205.01 888.75,-157.36 823.45,-134.98"/>
<polygon fill="midnightblue" stroke="midnightblue" points="824.22,-131.54 813.63,-131.61 821.95,-138.16 824.22,-131.54"/>
</g>
<!-- Node37&#45;&gt;Node23 -->
<g id="edge68" class="edge">
<title>Node37&#45;&gt;Node23</title>
<path fill="none" stroke="midnightblue" d="M1106.38,-224.49C1103.21,-215.52 1098.37,-200.94 1095.5,-188 1082.89,-131.11 1075.86,-62.36 1073.01,-29.82"/>
<polygon fill="midnightblue" stroke="midnightblue" points="1076.48,-29.24 1072.15,-19.56 1069.5,-29.82 1076.48,-29.24"/>
</g>
<!-- Node37&#45;&gt;Node31 -->
<g id="edge67" class="edge">
<title>Node37&#45;&gt;Node31</title>
<path fill="none" stroke="midnightblue" d="M1147.31,-224.46C1237.58,-204.07 1465,-152.7 1556.98,-131.93"/>
<polygon fill="midnightblue" stroke="midnightblue" points="1558.01,-135.28 1566.99,-129.66 1556.47,-128.45 1558.01,-135.28"/>
</g>
<!-- Node37&#45;&gt;Node33 -->
<g id="edge73" class="edge">
<title>Node37&#45;&gt;Node33</title>
<path fill="none" stroke="midnightblue" d="M1123,-224.32C1136.1,-215.9 1156.21,-202.97 1171.61,-193.07"/>
<polygon fill="midnightblue" stroke="midnightblue" points="1173.52,-196.01 1180.04,-187.65 1169.73,-190.12 1173.52,-196.01"/>
</g>
<!-- Node37&#45;&gt;Node35 -->
<g id="edge72" class="edge">
<title>Node37&#45;&gt;Node35</title>
<path fill="none" stroke="midnightblue" d="M1098.28,-224.37C1073.95,-205.65 1016.1,-161.15 985.78,-137.83"/>
<polygon fill="midnightblue" stroke="midnightblue" points="987.73,-134.91 977.67,-131.59 983.46,-140.46 987.73,-134.91"/>
</g>
<!-- Node38&#45;&gt;Node2 -->
<g id="edge76" class="edge">
<title>Node38&#45;&gt;Node2</title>
<path fill="none" stroke="midnightblue" d="M661.11,-168.37C660.3,-150.62 658.44,-109.67 657.35,-85.6"/>
<polygon fill="midnightblue" stroke="midnightblue" points="660.84,-85.42 656.89,-75.59 653.85,-85.74 660.84,-85.42"/>
</g>
<!-- Node38&#45;&gt;Node16 -->
<g id="edge77" class="edge">
<title>Node38&#45;&gt;Node16</title>
<path fill="none" stroke="midnightblue" d="M665.05,-168.27C674.99,-145.12 705.54,-82.15 753.5,-56 777.5,-42.91 1177.88,-19.54 1297.2,-12.84"/>
<polygon fill="midnightblue" stroke="midnightblue" points="1297.43,-16.34 1307.22,-12.28 1297.04,-9.35 1297.43,-16.34"/>
</g>
<!-- Node38&#45;&gt;Node18 -->
<g id="edge78" class="edge">
<title>Node38&#45;&gt;Node18</title>
<path fill="none" stroke="midnightblue" d="M681.62,-168.44C702.52,-159.56 735.43,-145.56 759.22,-135.45"/>
<polygon fill="midnightblue" stroke="midnightblue" points="760.64,-138.65 768.47,-131.52 757.9,-132.21 760.64,-138.65"/>
</g>
<!-- Node39&#45;&gt;Node6 -->
<g id="edge82" class="edge">
<title>Node39&#45;&gt;Node6</title>
<path fill="none" stroke="midnightblue" d="M437.84,-168.44C498.93,-154.37 626.29,-126.51 735.5,-112 962.45,-81.86 1238.63,-70.86 1329.73,-67.9"/>
<polygon fill="midnightblue" stroke="midnightblue" points="1330.02,-71.4 1339.91,-67.58 1329.8,-64.4 1330.02,-71.4"/>
</g>
<!-- Node39&#45;&gt;Node18 -->
<g id="edge85" class="edge">
<title>Node39&#45;&gt;Node18</title>
<path fill="none" stroke="midnightblue" d="M449.73,-170.27C521.91,-160.2 657.65,-141.26 733.56,-130.67"/>
<polygon fill="midnightblue" stroke="midnightblue" points="734.44,-134.08 743.86,-129.23 733.47,-127.14 734.44,-134.08"/>
</g>
<!-- Node39&#45;&gt;Node21 -->
<g id="edge83" class="edge">
<title>Node39&#45;&gt;Node21</title>
<path fill="none" stroke="midnightblue" d="M405.34,-168.36C411.74,-154.8 425.76,-128.39 444.5,-112 462.09,-96.62 485.87,-85.24 504.97,-77.77"/>
<polygon fill="midnightblue" stroke="midnightblue" points="506.34,-80.99 514.48,-74.22 503.89,-74.44 506.34,-80.99"/>
</g>
<!-- Node39&#45;&gt;Node22 -->
<g id="edge84" class="edge">
<title>Node39&#45;&gt;Node22</title>
<path fill="none" stroke="midnightblue" d="M400.01,-168.37C396.94,-150.62 389.87,-109.67 385.71,-85.6"/>
<polygon fill="midnightblue" stroke="midnightblue" points="389.14,-84.85 383.98,-75.59 382.24,-86.04 389.14,-84.85"/>
</g>
<!-- Node40&#45;&gt;Node22 -->
<g id="edge88" class="edge">
<title>Node40&#45;&gt;Node22</title>
<path fill="none" stroke="midnightblue" d="M290.14,-403.49C289.35,-383.74 287.5,-333.24 287.5,-291 287.5,-291 287.5,-291 287.5,-177 287.5,-146.2 292.14,-135.95 311.5,-112 322.49,-98.41 338.73,-87.68 352.91,-80.12"/>
<polygon fill="midnightblue" stroke="midnightblue" points="354.51,-83.24 361.86,-75.61 351.35,-76.99 354.51,-83.24"/>
</g>
</g>
</svg>
