<?xml version="1.0" encoding="UTF-8" standalone="no"?>
<!DOCTYPE svg PUBLIC "-//W3C//DTD SVG 1.1//EN"
 "http://www.w3.org/Graphics/SVG/1.1/DTD/svg11.dtd">
<!-- Generated by graphviz version 2.43.0 (0)
 -->
<!-- Title: Base.hpp Pages: 1 -->
<!--zoomable 588 -->
<svg id="main" version="1.1" xmlns="http://www.w3.org/2000/svg" xmlns:xlink="http://www.w3.org/1999/xlink" xml:space="preserve" onload="init(evt)">
<style type="text/css"><![CDATA[
.edge:hover path { stroke: red; }
.edge:hover polygon { stroke: red; fill: red; }
]]></style>
<script type="text/javascript"><![CDATA[
var edges = document.getElementsByTagName('g');
if (edges && edges.length) {
  for (var i=0;i<edges.length;i++) {
    if (edges[i].id.substr(0,4)=='edge') {
      edges[i].setAttribute('class','edge');
    }
  }
}
]]></script>
        <defs>
                <circle id="rim" cx="0" cy="0" r="7"/>
                <circle id="rim2" cx="0" cy="0" r="3.5"/>
                <g id="zoomPlus">
                        <use xlink:href="#rim" fill="#404040">
                                <set attributeName="fill" to="#808080" begin="zoomplus.mouseover" end="zoomplus.mouseout"/>
                        </use>
                        <path d="M-4,0h8M0,-4v8" fill="none" stroke="white" stroke-width="1.5" pointer-events="none"/>
                </g>
                <g id="zoomMin">
                        <use xlink:href="#rim" fill="#404040">
                                <set attributeName="fill" to="#808080" begin="zoomminus.mouseover" end="zoomminus.mouseout"/>
                        </use>
                        <path d="M-4,0h8" fill="none" stroke="white" stroke-width="1.5" pointer-events="none"/>
                </g>
                <g id="dirArrow">
                        <path fill="none" stroke="white" stroke-width="1.5" d="M0,-3.0v7 M-2.5,-0.5L0,-3.0L2.5,-0.5"/>
                </g>
               <g id="resetDef">
                       <use xlink:href="#rim2" fill="#404040">
                               <set attributeName="fill" to="#808080" begin="reset.mouseover" end="reset.mouseout"/>
                       </use>
               </g>
        </defs>

<script type="text/javascript">
var viewWidth = 969;
var viewHeight = 588;
var sectionId = 'dynsection-1';
</script>
<script xlink:href="svgpan.js"/>
<svg id="graph" class="graph">
<g id="viewport">
<title>Base.hpp</title>
<polygon fill="white" stroke="transparent" points="-4,4 -4,-584 965,-584 965,4 -4,4"/>
<!-- Node1 -->
<g id="node1" class="node">
<title>Node1</title>
<g id="a_node1"><a xlink:title="Definitions of MContainerBase and MContainer class templates.">
<polygon fill="#bfbfbf" stroke="black" points="545,-560.5 545,-579.5 603,-579.5 603,-560.5 545,-560.5"/>
<text text-anchor="middle" x="574" y="-567.5" font-family="Helvetica,sans-Serif" font-size="10.00">Base.hpp</text>
</a>
</g>
</g>
<!-- Node2 -->
<g id="node2" class="node">
<title>Node2</title>
<g id="a_node2"><a xlink:href="Generic_2DataStore_8hpp.html" target="_top" xlink:title="Definition and implementation of generic DataStore wrapper.">
<polygon fill="white" stroke="black" points="576,-280.5 576,-299.5 656,-299.5 656,-280.5 576,-280.5"/>
<text text-anchor="middle" x="616" y="-287.5" font-family="Helvetica,sans-Serif" font-size="10.00">DataStore.hpp</text>
</a>
</g>
</g>
<!-- Node1&#45;&gt;Node2 -->
<g id="edge1" class="edge">
<title>Node1&#45;&gt;Node2</title>
<path fill="none" stroke="midnightblue" d="M602.53,-555.84C635.12,-538.61 684,-505.09 684,-459 684,-459 684,-459 684,-401 684,-370.9 680.89,-361.56 665,-336 655.61,-320.89 639.79,-307.68 628.67,-299.54"/>
<polygon fill="midnightblue" stroke="midnightblue" points="600.75,-552.82 593.41,-560.46 603.91,-559.06 600.75,-552.82"/>
</g>
<!-- Node13 -->
<g id="node13" class="node">
<title>Node13</title>
<g id="a_node13"><a xlink:href="Generic_2Image_8hpp.html" target="_top" xlink:title="GenericImage definition and implementation.">
<polygon fill="white" stroke="black" points="205,-448.5 205,-467.5 267,-467.5 267,-448.5 205,-448.5"/>
<text text-anchor="middle" x="236" y="-455.5" font-family="Helvetica,sans-Serif" font-size="10.00">Image.hpp</text>
</a>
</g>
</g>
<!-- Node1&#45;&gt;Node13 -->
<g id="edge14" class="edge">
<title>Node1&#45;&gt;Node13</title>
<path fill="none" stroke="midnightblue" d="M537.87,-557.24C469.47,-534.98 322.56,-487.17 262.46,-467.61"/>
<polygon fill="midnightblue" stroke="midnightblue" points="537.17,-560.69 547.76,-560.46 539.33,-554.04 537.17,-560.69"/>
</g>
<!-- Node19 -->
<g id="node19" class="node">
<title>Node19</title>
<g id="a_node19"><a xlink:href="Generic_2NumericArray_8hpp.html" target="_top" xlink:title="GenericNumericArray definition and implementation.">
<polygon fill="white" stroke="black" points="393,-448.5 393,-467.5 487,-467.5 487,-448.5 393,-448.5"/>
<text text-anchor="middle" x="440" y="-455.5" font-family="Helvetica,sans-Serif" font-size="10.00">NumericArray.hpp</text>
</a>
</g>
</g>
<!-- Node1&#45;&gt;Node19 -->
<g id="edge31" class="edge">
<title>Node1&#45;&gt;Node19</title>
<path fill="none" stroke="midnightblue" d="M555.5,-553.82C526.96,-530.39 473.12,-486.19 450.47,-467.59"/>
<polygon fill="midnightblue" stroke="midnightblue" points="553.54,-556.73 563.49,-560.37 557.98,-551.32 553.54,-556.73"/>
</g>
<!-- Node23 -->
<g id="node23" class="node">
<title>Node23</title>
<g id="a_node23"><a xlink:href="SparseArray_8hpp.html" target="_top" xlink:title="GenericSparseArray definition and implementation.">
<polygon fill="white" stroke="black" points="530,-448.5 530,-467.5 618,-467.5 618,-448.5 530,-448.5"/>
<text text-anchor="middle" x="574" y="-455.5" font-family="Helvetica,sans-Serif" font-size="10.00">SparseArray.hpp</text>
</a>
</g>
</g>
<!-- Node1&#45;&gt;Node23 -->
<g id="edge40" class="edge">
<title>Node1&#45;&gt;Node23</title>
<path fill="none" stroke="midnightblue" d="M574,-550.35C574,-526.25 574,-485.31 574,-467.59"/>
<polygon fill="midnightblue" stroke="midnightblue" points="570.5,-550.37 574,-560.37 577.5,-550.37 570.5,-550.37"/>
</g>
<!-- Node26 -->
<g id="node26" class="node">
<title>Node26</title>
<g id="a_node26"><a xlink:href="Generic_2Tensor_8hpp.html" target="_top" xlink:title="GenericTensor definition and implementation.">
<polygon fill="white" stroke="black" points="720,-504.5 720,-523.5 784,-523.5 784,-504.5 720,-504.5"/>
<text text-anchor="middle" x="752" y="-511.5" font-family="Helvetica,sans-Serif" font-size="10.00">Tensor.hpp</text>
</a>
</g>
</g>
<!-- Node1&#45;&gt;Node26 -->
<g id="edge46" class="edge">
<title>Node1&#45;&gt;Node26</title>
<path fill="none" stroke="midnightblue" d="M612.12,-557.44C645.68,-547.26 693.77,-532.66 723.93,-523.52"/>
<polygon fill="midnightblue" stroke="midnightblue" points="610.76,-554.19 602.2,-560.44 612.79,-560.89 610.76,-554.19"/>
</g>
<!-- Node3 -->
<g id="node3" class="node">
<title>Node3</title>
<g id="a_node3"><a xlink:href="DataList_8h.html" target="_top" xlink:title="Definition of templated DataStore wrapper called DataList.">
<polygon fill="white" stroke="black" points="491,-112.5 491,-131.5 553,-131.5 553,-112.5 491,-112.5"/>
<text text-anchor="middle" x="522" y="-119.5" font-family="Helvetica,sans-Serif" font-size="10.00">DataList.h</text>
</a>
</g>
</g>
<!-- Node2&#45;&gt;Node3 -->
<g id="edge2" class="edge">
<title>Node2&#45;&gt;Node3</title>
<path fill="none" stroke="midnightblue" d="M624.38,-270.72C629.28,-257.33 633.37,-238.96 627,-224 608.48,-180.48 560.99,-146.65 536.73,-131.57"/>
<polygon fill="midnightblue" stroke="midnightblue" points="621.04,-269.65 620.47,-280.23 627.51,-272.31 621.04,-269.65"/>
</g>
<!-- Node9 -->
<g id="node9" class="node">
<title>Node9</title>
<g id="a_node9"><a xlink:href="DataNode_8hpp.html" target="_top" xlink:title=" ">
<polygon fill="white" stroke="black" points="674,-224.5 674,-243.5 754,-243.5 754,-224.5 674,-224.5"/>
<text text-anchor="middle" x="714" y="-231.5" font-family="Helvetica,sans-Serif" font-size="10.00">DataNode.hpp</text>
</a>
</g>
</g>
<!-- Node2&#45;&gt;Node9 -->
<g id="edge9" class="edge">
<title>Node2&#45;&gt;Node9</title>
<path fill="none" stroke="midnightblue" d="M640.59,-275.45C658.68,-265.48 682.73,-252.23 698.29,-243.65"/>
<polygon fill="midnightblue" stroke="midnightblue" points="638.81,-272.43 631.75,-280.32 642.19,-278.56 638.81,-272.43"/>
</g>
<!-- Node11 -->
<g id="node11" class="node">
<title>Node11</title>
<g id="a_node11"><a xlink:href="DataStore_8cpp.html" target="_top" xlink:title=" ">
<polygon fill="white" stroke="black" points="538,-224.5 538,-243.5 618,-243.5 618,-224.5 538,-224.5"/>
<text text-anchor="middle" x="578" y="-231.5" font-family="Helvetica,sans-Serif" font-size="10.00">DataStore.cpp</text>
</a>
</g>
</g>
<!-- Node2&#45;&gt;Node11 -->
<g id="edge12" class="edge">
<title>Node2&#45;&gt;Node11</title>
<path fill="none" stroke="midnightblue" d="M603.94,-271.86C597.36,-262.5 589.49,-251.33 584.16,-243.75"/>
<polygon fill="midnightblue" stroke="midnightblue" points="601.11,-273.92 609.73,-280.08 606.83,-269.89 601.11,-273.92"/>
</g>
<!-- Node12 -->
<g id="node12" class="node">
<title>Node12</title>
<g id="a_node12"><a xlink:href="TypedMArgument_8cpp.html" target="_top" xlink:title=" ">
<polygon fill="white" stroke="black" points="370,-224.5 370,-243.5 482,-243.5 482,-224.5 370,-224.5"/>
<text text-anchor="middle" x="426" y="-231.5" font-family="Helvetica,sans-Serif" font-size="10.00">TypedMArgument.cpp</text>
</a>
</g>
</g>
<!-- Node2&#45;&gt;Node12 -->
<g id="edge13" class="edge">
<title>Node2&#45;&gt;Node12</title>
<path fill="none" stroke="midnightblue" d="M576.24,-277.7C540.38,-267.51 488.43,-252.74 455.97,-243.52"/>
<polygon fill="midnightblue" stroke="midnightblue" points="575.32,-281.08 585.89,-280.44 577.23,-274.34 575.32,-281.08"/>
</g>
<!-- Node4 -->
<g id="node4" class="node">
<title>Node4</title>
<g id="a_node4"><a xlink:href="LLU_8h.html" target="_top" xlink:title="Header file which includes all major parts of LLU.">
<polygon fill="white" stroke="black" points="320.5,-0.5 320.5,-19.5 363.5,-19.5 363.5,-0.5 320.5,-0.5"/>
<text text-anchor="middle" x="342" y="-7.5" font-family="Helvetica,sans-Serif" font-size="10.00">LLU.h</text>
</a>
</g>
</g>
<!-- Node3&#45;&gt;Node4 -->
<g id="edge3" class="edge">
<title>Node3&#45;&gt;Node4</title>
<path fill="none" stroke="midnightblue" d="M488.4,-108.68C468.19,-100.63 442.33,-89.19 421,-76 393.51,-59 365.18,-33.32 351.1,-19.89"/>
<polygon fill="midnightblue" stroke="midnightblue" points="487.24,-111.98 497.82,-112.35 489.78,-105.46 487.24,-111.98"/>
</g>
<!-- Node5 -->
<g id="node5" class="node">
<title>Node5</title>
<g id="a_node5"><a xlink:href="MArgumentManager_8h.html" target="_top" xlink:title="Definition of MArgumentManager class.">
<polygon fill="white" stroke="black" points="466,-56.5 466,-75.5 578,-75.5 578,-56.5 466,-56.5"/>
<text text-anchor="middle" x="522" y="-63.5" font-family="Helvetica,sans-Serif" font-size="10.00">MArgumentManager.h</text>
</a>
</g>
</g>
<!-- Node3&#45;&gt;Node5 -->
<g id="edge4" class="edge">
<title>Node3&#45;&gt;Node5</title>
<path fill="none" stroke="midnightblue" d="M522,-101.8C522,-92.91 522,-82.78 522,-75.75"/>
<polygon fill="midnightblue" stroke="midnightblue" points="518.5,-102.08 522,-112.08 525.5,-102.08 518.5,-102.08"/>
</g>
<!-- Node5&#45;&gt;Node4 -->
<g id="edge5" class="edge">
<title>Node5&#45;&gt;Node4</title>
<path fill="none" stroke="midnightblue" d="M483.65,-53.5C447.07,-42.52 393.27,-26.38 363.61,-17.48"/>
<polygon fill="midnightblue" stroke="midnightblue" points="482.89,-56.92 493.48,-56.44 484.91,-50.22 482.89,-56.92"/>
</g>
<!-- Node6 -->
<g id="node6" class="node">
<title>Node6</title>
<g id="a_node6"><a xlink:href="LibraryLinkError_8cpp.html" target="_top" xlink:title="Contains definitions of ErrorManager members and implementation of interface function sendRegisteredE...">
<polygon fill="white" stroke="black" points="604.5,-0.5 604.5,-19.5 707.5,-19.5 707.5,-0.5 604.5,-0.5"/>
<text text-anchor="middle" x="656" y="-7.5" font-family="Helvetica,sans-Serif" font-size="10.00">LibraryLinkError.cpp</text>
</a>
</g>
</g>
<!-- Node5&#45;&gt;Node6 -->
<g id="edge6" class="edge">
<title>Node5&#45;&gt;Node6</title>
<path fill="none" stroke="midnightblue" d="M552.68,-52.64C577.82,-42.5 612.75,-28.43 634.87,-19.52"/>
<polygon fill="midnightblue" stroke="midnightblue" points="551.2,-49.46 543.23,-56.44 553.82,-55.95 551.2,-49.46"/>
</g>
<!-- Node7 -->
<g id="node7" class="node">
<title>Node7</title>
<g id="a_node7"><a xlink:href="Logger_8cpp.html" target="_top" xlink:title="Implementation of functions defined in Logger.h.">
<polygon fill="white" stroke="black" points="382,-0.5 382,-19.5 446,-19.5 446,-0.5 382,-0.5"/>
<text text-anchor="middle" x="414" y="-7.5" font-family="Helvetica,sans-Serif" font-size="10.00">Logger.cpp</text>
</a>
</g>
</g>
<!-- Node5&#45;&gt;Node7 -->
<g id="edge7" class="edge">
<title>Node5&#45;&gt;Node7</title>
<path fill="none" stroke="midnightblue" d="M495.45,-51.73C475.45,-41.73 448.61,-28.31 431.31,-19.65"/>
<polygon fill="midnightblue" stroke="midnightblue" points="494.14,-54.98 504.65,-56.32 497.27,-48.72 494.14,-54.98"/>
</g>
<!-- Node8 -->
<g id="node8" class="node">
<title>Node8</title>
<g id="a_node8"><a xlink:href="MArgumentManager_8cpp.html" target="_top" xlink:title="Definitions of non&#45;template member functions and static data members from MArgumentManager class.">
<polygon fill="white" stroke="black" points="464,-0.5 464,-19.5 586,-19.5 586,-0.5 464,-0.5"/>
<text text-anchor="middle" x="525" y="-7.5" font-family="Helvetica,sans-Serif" font-size="10.00">MArgumentManager.cpp</text>
</a>
</g>
</g>
<!-- Node5&#45;&gt;Node8 -->
<g id="edge8" class="edge">
<title>Node5&#45;&gt;Node8</title>
<path fill="none" stroke="midnightblue" d="M523.07,-45.8C523.56,-36.91 524.12,-26.78 524.51,-19.75"/>
<polygon fill="midnightblue" stroke="midnightblue" points="519.56,-45.9 522.5,-56.08 526.54,-46.29 519.56,-45.9"/>
</g>
<!-- Node10 -->
<g id="node10" class="node">
<title>Node10</title>
<g id="a_node10"><a xlink:href="DataList_8hpp.html" target="_top" xlink:title="Special iterators for DataLists. Iteration over keys, values, reversed iteration.">
<polygon fill="white" stroke="black" points="678,-168.5 678,-187.5 750,-187.5 750,-168.5 678,-168.5"/>
<text text-anchor="middle" x="714" y="-175.5" font-family="Helvetica,sans-Serif" font-size="10.00">DataList.hpp</text>
</a>
</g>
</g>
<!-- Node9&#45;&gt;Node10 -->
<g id="edge10" class="edge">
<title>Node9&#45;&gt;Node10</title>
<path fill="none" stroke="midnightblue" d="M714,-213.8C714,-204.91 714,-194.78 714,-187.75"/>
<polygon fill="midnightblue" stroke="midnightblue" points="710.5,-214.08 714,-224.08 717.5,-214.08 710.5,-214.08"/>
</g>
<!-- Node10&#45;&gt;Node3 -->
<g id="edge11" class="edge">
<title>Node10&#45;&gt;Node3</title>
<path fill="none" stroke="midnightblue" d="M673.82,-165.7C637.58,-155.51 585.09,-140.74 552.28,-131.52"/>
<polygon fill="midnightblue" stroke="midnightblue" points="673,-169.11 683.58,-168.44 674.9,-162.37 673,-169.11"/>
</g>
<!-- Node13&#45;&gt;Node12 -->
<g id="edge30" class="edge">
<title>Node13&#45;&gt;Node12</title>
<path fill="none" stroke="midnightblue" d="M250.07,-440.56C287.7,-396.59 389.7,-277.41 418.4,-243.88"/>
<polygon fill="midnightblue" stroke="midnightblue" points="247.29,-438.42 243.45,-448.3 252.61,-442.98 247.29,-438.42"/>
</g>
<!-- Node14 -->
<g id="node14" class="node">
<title>Node14</title>
<g id="a_node14"><a xlink:href="Image_8h.html" target="_top" xlink:title="Templated C++ wrapper for MImage.">
<polygon fill="white" stroke="black" points="163,-392.5 163,-411.5 215,-411.5 215,-392.5 163,-392.5"/>
<text text-anchor="middle" x="189" y="-399.5" font-family="Helvetica,sans-Serif" font-size="10.00">Image.h</text>
</a>
</g>
</g>
<!-- Node13&#45;&gt;Node14 -->
<g id="edge15" class="edge">
<title>Node13&#45;&gt;Node14</title>
<path fill="none" stroke="midnightblue" d="M221.58,-440.43C213.34,-430.97 203.35,-419.48 196.62,-411.75"/>
<polygon fill="midnightblue" stroke="midnightblue" points="219.03,-442.84 228.24,-448.08 224.31,-438.24 219.03,-442.84"/>
</g>
<!-- Node15 -->
<g id="node15" class="node">
<title>Node15</title>
<g id="a_node15"><a xlink:href="Image_8cpp.html" target="_top" xlink:title="Template specializations of Image::type attribute for all data types that we want to support.">
<polygon fill="white" stroke="black" points="80,-336.5 80,-355.5 142,-355.5 142,-336.5 80,-336.5"/>
<text text-anchor="middle" x="111" y="-343.5" font-family="Helvetica,sans-Serif" font-size="10.00">Image.cpp</text>
</a>
</g>
</g>
<!-- Node13&#45;&gt;Node15 -->
<g id="edge29" class="edge">
<title>Node13&#45;&gt;Node15</title>
<path fill="none" stroke="midnightblue" d="M204.78,-444.27C188.43,-436.57 168.78,-425.61 154,-412 135.68,-395.14 121.48,-368.94 114.94,-355.53"/>
<polygon fill="midnightblue" stroke="midnightblue" points="203.42,-447.5 213.97,-448.42 206.3,-441.12 203.42,-447.5"/>
</g>
<!-- Node16 -->
<g id="node16" class="node">
<title>Node16</title>
<g id="a_node16"><a xlink:href="Views_2Image_8hpp.html" target="_top" xlink:title="Definition and implementation of ImageView and ImageTypedView.">
<polygon fill="white" stroke="black" points="0,-336.5 0,-355.5 62,-355.5 62,-336.5 0,-336.5"/>
<text text-anchor="middle" x="31" y="-343.5" font-family="Helvetica,sans-Serif" font-size="10.00">Image.hpp</text>
</a>
</g>
</g>
<!-- Node13&#45;&gt;Node16 -->
<g id="edge19" class="edge">
<title>Node13&#45;&gt;Node16</title>
<path fill="none" stroke="midnightblue" d="M204.6,-444.56C184.14,-436.11 157.05,-424.27 134,-412 100.03,-393.91 62.3,-368.69 43.33,-355.62"/>
<polygon fill="midnightblue" stroke="midnightblue" points="203.49,-447.88 214.07,-448.42 206.13,-441.4 203.49,-447.88"/>
</g>
<!-- Node17 -->
<g id="node17" class="node">
<title>Node17</title>
<g id="a_node17"><a xlink:href="TypedMArgument_8h.html" target="_top" xlink:title=" ">
<polygon fill="white" stroke="black" points="554.5,-392.5 554.5,-411.5 655.5,-411.5 655.5,-392.5 554.5,-392.5"/>
<text text-anchor="middle" x="605" y="-399.5" font-family="Helvetica,sans-Serif" font-size="10.00">TypedMArgument.h</text>
</a>
</g>
</g>
<!-- Node13&#45;&gt;Node17 -->
<g id="edge21" class="edge">
<title>Node13&#45;&gt;Node17</title>
<path fill="none" stroke="midnightblue" d="M277.23,-451.05C336.47,-442.49 449.13,-426.17 545,-412 548.02,-411.55 551.13,-411.09 554.26,-410.63"/>
<polygon fill="midnightblue" stroke="midnightblue" points="276.54,-447.62 267.15,-452.51 277.54,-454.54 276.54,-447.62"/>
</g>
<!-- Node14&#45;&gt;Node4 -->
<g id="edge16" class="edge">
<title>Node14&#45;&gt;Node4</title>
<path fill="none" stroke="midnightblue" d="M183.78,-382.39C178.16,-360.65 170,-323.51 170,-291 170,-291 170,-291 170,-121 170,-50.46 273.93,-23.12 320.22,-14.44"/>
<polygon fill="midnightblue" stroke="midnightblue" points="180.46,-383.5 186.44,-392.25 187.22,-381.68 180.46,-383.5"/>
</g>
<!-- Node14&#45;&gt;Node5 -->
<g id="edge17" class="edge">
<title>Node14&#45;&gt;Node5</title>
<path fill="none" stroke="midnightblue" d="M191.17,-382.16C194.87,-356.86 204.33,-311.44 227,-280 303.68,-173.69 449.87,-99.78 502.5,-75.59"/>
<polygon fill="midnightblue" stroke="midnightblue" points="187.68,-381.88 189.85,-392.25 194.62,-382.79 187.68,-381.88"/>
</g>
<!-- Node14&#45;&gt;Node15 -->
<g id="edge18" class="edge">
<title>Node14&#45;&gt;Node15</title>
<path fill="none" stroke="midnightblue" d="M168.23,-386.62C153.98,-376.76 135.54,-363.99 123.5,-355.65"/>
<polygon fill="midnightblue" stroke="midnightblue" points="166.25,-389.51 176.47,-392.32 170.24,-383.75 166.25,-389.51"/>
</g>
<!-- Node16&#45;&gt;Node4 -->
<g id="edge20" class="edge">
<title>Node16&#45;&gt;Node4</title>
<path fill="none" stroke="midnightblue" d="M44.44,-328.16C59.55,-307.49 82,-270.76 82,-235 82,-235 82,-235 82,-121 82,-17.83 257.79,-9.95 320.28,-10.41"/>
<polygon fill="midnightblue" stroke="midnightblue" points="41.57,-326.15 38.31,-336.23 47.14,-330.39 41.57,-326.15"/>
</g>
<!-- Node17&#45;&gt;Node2 -->
<g id="edge23" class="edge">
<title>Node17&#45;&gt;Node2</title>
<path fill="none" stroke="midnightblue" d="M586.03,-385.28C572.97,-372.45 559.26,-353.61 567,-336 573.97,-320.14 589.59,-307.42 601.34,-299.6"/>
<polygon fill="midnightblue" stroke="midnightblue" points="583.73,-387.93 593.48,-392.1 588.46,-382.76 583.73,-387.93"/>
</g>
<!-- Node17&#45;&gt;Node3 -->
<g id="edge22" class="edge">
<title>Node17&#45;&gt;Node3</title>
<path fill="none" stroke="midnightblue" d="M580.75,-387.09C552.61,-368.91 510,-334.26 510,-291 510,-291 510,-291 510,-233 510,-194.96 517.18,-149.96 520.43,-131.52"/>
<polygon fill="midnightblue" stroke="midnightblue" points="578.97,-390.1 589.31,-392.4 582.66,-384.15 578.97,-390.1"/>
</g>
<!-- Node17&#45;&gt;Node9 -->
<g id="edge24" class="edge">
<title>Node17&#45;&gt;Node9</title>
<path fill="none" stroke="midnightblue" d="M629.64,-386.94C641.61,-379.1 655.44,-368.42 665,-356 693.06,-319.54 707.43,-264.82 712.18,-243.72"/>
<polygon fill="midnightblue" stroke="midnightblue" points="627.58,-384.1 620.95,-392.36 631.29,-390.04 627.58,-384.1"/>
</g>
<!-- Node17&#45;&gt;Node12 -->
<g id="edge28" class="edge">
<title>Node17&#45;&gt;Node12</title>
<path fill="none" stroke="midnightblue" d="M558.95,-389.4C537.97,-382.37 513.89,-371.66 496,-356 476.82,-339.22 442,-268.55 430.11,-243.69"/>
<polygon fill="midnightblue" stroke="midnightblue" points="558.06,-392.79 568.65,-392.47 560.17,-386.11 558.06,-392.79"/>
</g>
<!-- Node18 -->
<g id="node18" class="node">
<title>Node18</title>
<g id="a_node18"><a xlink:href="Iterators_2DataStore_8hpp.html" target="_top" xlink:title=" ">
<polygon fill="white" stroke="black" points="576,-336.5 576,-355.5 656,-355.5 656,-336.5 576,-336.5"/>
<text text-anchor="middle" x="616" y="-343.5" font-family="Helvetica,sans-Serif" font-size="10.00">DataStore.hpp</text>
</a>
</g>
</g>
<!-- Node17&#45;&gt;Node18 -->
<g id="edge25" class="edge">
<title>Node17&#45;&gt;Node18</title>
<path fill="none" stroke="midnightblue" d="M608.85,-382.1C610.68,-373.14 612.77,-362.86 614.22,-355.75"/>
<polygon fill="midnightblue" stroke="midnightblue" points="605.38,-381.59 606.82,-392.08 612.24,-382.98 605.38,-381.59"/>
</g>
<!-- Node18&#45;&gt;Node2 -->
<g id="edge26" class="edge">
<title>Node18&#45;&gt;Node2</title>
<path fill="none" stroke="midnightblue" d="M616,-325.8C616,-316.91 616,-306.78 616,-299.75"/>
<polygon fill="midnightblue" stroke="midnightblue" points="612.5,-326.08 616,-336.08 619.5,-326.08 612.5,-326.08"/>
</g>
<!-- Node18&#45;&gt;Node10 -->
<g id="edge27" class="edge">
<title>Node18&#45;&gt;Node10</title>
<path fill="none" stroke="midnightblue" d="M650.4,-332.55C685.92,-317.62 739.41,-288.83 763,-244 774.58,-221.99 747.08,-199.52 728.76,-187.63"/>
<polygon fill="midnightblue" stroke="midnightblue" points="648.85,-329.4 640.89,-336.4 651.47,-335.89 648.85,-329.4"/>
</g>
<!-- Node19&#45;&gt;Node12 -->
<g id="edge39" class="edge">
<title>Node19&#45;&gt;Node12</title>
<path fill="none" stroke="midnightblue" d="M436.64,-438.53C435.29,-430.42 433.85,-420.76 433,-412 426.75,-347.72 426.04,-269.79 425.99,-243.86"/>
<polygon fill="midnightblue" stroke="midnightblue" points="433.19,-439.16 438.36,-448.41 440.09,-437.96 433.19,-439.16"/>
</g>
<!-- Node19&#45;&gt;Node17 -->
<g id="edge37" class="edge">
<title>Node19&#45;&gt;Node17</title>
<path fill="none" stroke="midnightblue" d="M475.74,-445.3C506.83,-435.13 551.15,-420.62 578.98,-411.52"/>
<polygon fill="midnightblue" stroke="midnightblue" points="474.56,-442.01 466.14,-448.44 476.74,-448.66 474.56,-442.01"/>
</g>
<!-- Node20 -->
<g id="node20" class="node">
<title>Node20</title>
<g id="a_node20"><a xlink:href="NumericArray_8h.html" target="_top" xlink:title="Templated C++ wrapper for MNumericArray.">
<polygon fill="white" stroke="black" points="300.5,-112.5 300.5,-131.5 383.5,-131.5 383.5,-112.5 300.5,-112.5"/>
<text text-anchor="middle" x="342" y="-119.5" font-family="Helvetica,sans-Serif" font-size="10.00">NumericArray.h</text>
</a>
</g>
</g>
<!-- Node19&#45;&gt;Node20 -->
<g id="edge32" class="edge">
<title>Node19&#45;&gt;Node20</title>
<path fill="none" stroke="midnightblue" d="M431.94,-439.03C416.02,-402.85 380.41,-318.33 361,-244 350.2,-202.65 344.65,-151.64 342.76,-131.63"/>
<polygon fill="midnightblue" stroke="midnightblue" points="428.78,-440.56 436.04,-448.28 435.18,-437.72 428.78,-440.56"/>
</g>
<!-- Node21 -->
<g id="node21" class="node">
<title>Node21</title>
<g id="a_node21"><a xlink:href="Views_2NumericArray_8hpp.html" target="_top" xlink:title="Definition and implementation of NumericArrayView and NumericArrayTypedView.">
<polygon fill="white" stroke="black" points="236,-280.5 236,-299.5 330,-299.5 330,-280.5 236,-280.5"/>
<text text-anchor="middle" x="283" y="-287.5" font-family="Helvetica,sans-Serif" font-size="10.00">NumericArray.hpp</text>
</a>
</g>
</g>
<!-- Node19&#45;&gt;Node21 -->
<g id="edge35" class="edge">
<title>Node19&#45;&gt;Node21</title>
<path fill="none" stroke="midnightblue" d="M399.73,-444.98C381.01,-437.79 359.51,-427.08 344,-412 309.58,-378.55 291.28,-321.58 285.27,-299.81"/>
<polygon fill="midnightblue" stroke="midnightblue" points="398.63,-448.3 409.22,-448.41 401.02,-441.72 398.63,-448.3"/>
</g>
<!-- Node22 -->
<g id="node22" class="node">
<title>Node22</title>
<g id="a_node22"><a xlink:href="NumericArray_8cpp.html" target="_top" xlink:title="Definitions of MContainer&lt;MArgumentType::NumericArray&gt; (GenericNumericArray) methods.">
<polygon fill="white" stroke="black" points="442,-392.5 442,-411.5 536,-411.5 536,-392.5 442,-392.5"/>
<text text-anchor="middle" x="489" y="-399.5" font-family="Helvetica,sans-Serif" font-size="10.00">NumericArray.cpp</text>
</a>
</g>
</g>
<!-- Node19&#45;&gt;Node22 -->
<g id="edge38" class="edge">
<title>Node19&#45;&gt;Node22</title>
<path fill="none" stroke="midnightblue" d="M455.03,-440.43C463.62,-430.97 474.04,-419.48 481.06,-411.75"/>
<polygon fill="midnightblue" stroke="midnightblue" points="452.22,-438.33 448.09,-448.08 457.4,-443.03 452.22,-438.33"/>
</g>
<!-- Node20&#45;&gt;Node4 -->
<g id="edge33" class="edge">
<title>Node20&#45;&gt;Node4</title>
<path fill="none" stroke="midnightblue" d="M342,-102.35C342,-78.25 342,-37.31 342,-19.59"/>
<polygon fill="midnightblue" stroke="midnightblue" points="338.5,-102.37 342,-112.37 345.5,-102.37 338.5,-102.37"/>
</g>
<!-- Node20&#45;&gt;Node5 -->
<g id="edge34" class="edge">
<title>Node20&#45;&gt;Node5</title>
<path fill="none" stroke="midnightblue" d="M380.11,-109.57C414.06,-99.38 462.99,-84.7 493.61,-75.52"/>
<polygon fill="midnightblue" stroke="midnightblue" points="379.09,-106.22 370.52,-112.44 381.11,-112.92 379.09,-106.22"/>
</g>
<!-- Node21&#45;&gt;Node4 -->
<g id="edge36" class="edge">
<title>Node21&#45;&gt;Node4</title>
<path fill="none" stroke="midnightblue" d="M279.98,-270.31C276.73,-248.47 272,-211.21 272,-179 272,-179 272,-179 272,-121 272,-77.09 312.2,-36.56 331.67,-19.5"/>
<polygon fill="midnightblue" stroke="midnightblue" points="276.57,-271.13 281.56,-280.47 283.49,-270.05 276.57,-271.13"/>
</g>
<!-- Node23&#45;&gt;Node17 -->
<g id="edge45" class="edge">
<title>Node23&#45;&gt;Node17</title>
<path fill="none" stroke="midnightblue" d="M584.18,-439.27C589.47,-430.05 595.72,-419.17 599.98,-411.75"/>
<polygon fill="midnightblue" stroke="midnightblue" points="581.06,-437.67 579.12,-448.08 587.13,-441.15 581.06,-437.67"/>
</g>
<!-- Node24 -->
<g id="node24" class="node">
<title>Node24</title>
<g id="a_node24"><a xlink:href="SparseArray_8h.html" target="_top" xlink:title="Templated C++ wrapper for MSparseArray.">
<polygon fill="white" stroke="black" points="601.5,-112.5 601.5,-131.5 678.5,-131.5 678.5,-112.5 601.5,-112.5"/>
<text text-anchor="middle" x="640" y="-119.5" font-family="Helvetica,sans-Serif" font-size="10.00">SparseArray.h</text>
</a>
</g>
</g>
<!-- Node23&#45;&gt;Node24 -->
<g id="edge41" class="edge">
<title>Node23&#45;&gt;Node24</title>
<path fill="none" stroke="midnightblue" d="M609.25,-444.62C627.27,-437.11 648.77,-426.2 665,-412 732.71,-352.74 751.75,-330.07 778,-244 788.16,-210.7 783.19,-193.04 759,-168 737.74,-146 704.66,-134.63 678.76,-128.83"/>
<polygon fill="midnightblue" stroke="midnightblue" points="607.64,-441.5 599.64,-448.45 610.23,-448 607.64,-441.5"/>
</g>
<!-- Node24&#45;&gt;Node4 -->
<g id="edge42" class="edge">
<title>Node24&#45;&gt;Node4</title>
<path fill="none" stroke="midnightblue" d="M591.04,-112.74C553.53,-105.51 500.92,-93.43 457,-76 454.38,-74.96 387.69,-37.03 357.09,-19.6"/>
<polygon fill="midnightblue" stroke="midnightblue" points="590.73,-116.24 601.2,-114.65 592.02,-109.36 590.73,-116.24"/>
</g>
<!-- Node24&#45;&gt;Node5 -->
<g id="edge43" class="edge">
<title>Node24&#45;&gt;Node5</title>
<path fill="none" stroke="midnightblue" d="M612.1,-108.23C590.03,-98.13 559.82,-84.31 540.61,-75.52"/>
<polygon fill="midnightblue" stroke="midnightblue" points="610.75,-111.46 621.3,-112.44 613.67,-105.1 610.75,-111.46"/>
</g>
<!-- Node25 -->
<g id="node25" class="node">
<title>Node25</title>
<g id="a_node25"><a xlink:href="SparseArray_8cpp.html" target="_top" xlink:title="Implementation of GenericSparseArray and SparseArray&lt;T&gt;">
<polygon fill="white" stroke="black" points="596,-56.5 596,-75.5 684,-75.5 684,-56.5 596,-56.5"/>
<text text-anchor="middle" x="640" y="-63.5" font-family="Helvetica,sans-Serif" font-size="10.00">SparseArray.cpp</text>
</a>
</g>
</g>
<!-- Node24&#45;&gt;Node25 -->
<g id="edge44" class="edge">
<title>Node24&#45;&gt;Node25</title>
<path fill="none" stroke="midnightblue" d="M640,-101.8C640,-92.91 640,-82.78 640,-75.75"/>
<polygon fill="midnightblue" stroke="midnightblue" points="636.5,-102.08 640,-112.08 643.5,-102.08 636.5,-102.08"/>
</g>
<!-- Node26&#45;&gt;Node12 -->
<g id="edge58" class="edge">
<title>Node26&#45;&gt;Node12</title>
<path fill="none" stroke="midnightblue" d="M750.95,-494.03C747.38,-449.2 731.85,-336.28 665,-280 637.95,-257.23 543.98,-244.99 482.24,-239.25"/>
<polygon fill="midnightblue" stroke="midnightblue" points="747.46,-494.36 751.63,-504.1 754.45,-493.89 747.46,-494.36"/>
</g>
<!-- Node26&#45;&gt;Node17 -->
<g id="edge57" class="edge">
<title>Node26&#45;&gt;Node17</title>
<path fill="none" stroke="midnightblue" d="M732.11,-498.12C700.91,-474.77 641.44,-430.27 616.48,-411.59"/>
<polygon fill="midnightblue" stroke="midnightblue" points="730.36,-501.18 740.47,-504.37 734.56,-495.57 730.36,-501.18"/>
</g>
<!-- Node26&#45;&gt;Node23 -->
<g id="edge47" class="edge">
<title>Node26&#45;&gt;Node23</title>
<path fill="none" stroke="midnightblue" d="M713.88,-501.44C680.32,-491.26 632.23,-476.66 602.07,-467.52"/>
<polygon fill="midnightblue" stroke="midnightblue" points="713.21,-504.89 723.8,-504.44 715.24,-498.19 713.21,-504.89"/>
</g>
<!-- Node27 -->
<g id="node27" class="node">
<title>Node27</title>
<g id="a_node27"><a xlink:href="Tensor_8h.html" target="_top" xlink:title="Templated C++ wrapper for MTensor.">
<polygon fill="white" stroke="black" points="831.5,-168.5 831.5,-187.5 884.5,-187.5 884.5,-168.5 831.5,-168.5"/>
<text text-anchor="middle" x="858" y="-175.5" font-family="Helvetica,sans-Serif" font-size="10.00">Tensor.h</text>
</a>
</g>
</g>
<!-- Node26&#45;&gt;Node27 -->
<g id="edge48" class="edge">
<title>Node26&#45;&gt;Node27</title>
<path fill="none" stroke="midnightblue" d="M779.64,-499.48C811.05,-481.95 858,-448.19 858,-403 858,-403 858,-403 858,-289 858,-251.19 858,-206.06 858,-187.56"/>
<polygon fill="midnightblue" stroke="midnightblue" points="777.63,-496.59 770.46,-504.39 780.93,-502.76 777.63,-496.59"/>
</g>
<!-- Node31 -->
<g id="node31" class="node">
<title>Node31</title>
<g id="a_node31"><a xlink:href="Views_2Tensor_8hpp.html" target="_top" xlink:title="Definition and implementation of TensorView and TensorTypedView.">
<polygon fill="white" stroke="black" points="886,-448.5 886,-467.5 950,-467.5 950,-448.5 886,-448.5"/>
<text text-anchor="middle" x="918" y="-455.5" font-family="Helvetica,sans-Serif" font-size="10.00">Tensor.hpp</text>
</a>
</g>
</g>
<!-- Node26&#45;&gt;Node31 -->
<g id="edge56" class="edge">
<title>Node26&#45;&gt;Node31</title>
<path fill="none" stroke="midnightblue" d="M787.95,-501.3C819.23,-491.13 863.82,-476.62 891.82,-467.52"/>
<polygon fill="midnightblue" stroke="midnightblue" points="786.73,-498.02 778.3,-504.44 788.9,-504.68 786.73,-498.02"/>
</g>
<!-- Node27&#45;&gt;Node4 -->
<g id="edge50" class="edge">
<title>Node27&#45;&gt;Node4</title>
<path fill="none" stroke="midnightblue" d="M821.75,-167.43C789.28,-158.29 744.74,-144.14 731,-132 702.7,-106.99 723.96,-77.62 693,-56 634.33,-15.03 443.17,-34.03 373,-20 369.92,-19.38 366.71,-18.61 363.56,-17.77"/>
<polygon fill="midnightblue" stroke="midnightblue" points="820.82,-170.81 831.39,-170.1 822.68,-164.06 820.82,-170.81"/>
</g>
<!-- Node27&#45;&gt;Node5 -->
<g id="edge51" class="edge">
<title>Node27&#45;&gt;Node5</title>
<path fill="none" stroke="midnightblue" d="M850.38,-158.75C843.09,-143.67 830.58,-123.01 813,-112 808.04,-108.9 661.47,-87.24 578.28,-75.13"/>
<polygon fill="midnightblue" stroke="midnightblue" points="847.3,-160.44 854.6,-168.12 853.68,-157.56 847.3,-160.44"/>
</g>
<!-- Node27&#45;&gt;Node24 -->
<g id="edge49" class="edge">
<title>Node27&#45;&gt;Node24</title>
<path fill="none" stroke="midnightblue" d="M821.42,-167.94C780.47,-157.79 714.59,-141.48 674.5,-131.55"/>
<polygon fill="midnightblue" stroke="midnightblue" points="820.72,-171.37 831.27,-170.38 822.4,-164.58 820.72,-171.37"/>
</g>
<!-- Node28 -->
<g id="node28" class="node">
<title>Node28</title>
<g id="a_node28"><a xlink:href="ProgressMonitor_8h.html" target="_top" xlink:title="Definition of ProgressMonitor class.">
<polygon fill="white" stroke="black" points="860.5,-112.5 860.5,-131.5 955.5,-131.5 955.5,-112.5 860.5,-112.5"/>
<text text-anchor="middle" x="908" y="-119.5" font-family="Helvetica,sans-Serif" font-size="10.00">ProgressMonitor.h</text>
</a>
</g>
</g>
<!-- Node27&#45;&gt;Node28 -->
<g id="edge52" class="edge">
<title>Node27&#45;&gt;Node28</title>
<path fill="none" stroke="midnightblue" d="M873.08,-160.72C881.89,-151.2 892.67,-139.56 899.9,-131.75"/>
<polygon fill="midnightblue" stroke="midnightblue" points="870.48,-158.37 866.26,-168.08 875.62,-163.12 870.48,-158.37"/>
</g>
<!-- Node30 -->
<g id="node30" class="node">
<title>Node30</title>
<g id="a_node30"><a xlink:href="Tensor_8cpp.html" target="_top" xlink:title="Template specialization of certain methods from TypedTensor class for all underlying data types that ...">
<polygon fill="white" stroke="black" points="740,-112.5 740,-131.5 804,-131.5 804,-112.5 740,-112.5"/>
<text text-anchor="middle" x="772" y="-119.5" font-family="Helvetica,sans-Serif" font-size="10.00">Tensor.cpp</text>
</a>
</g>
</g>
<!-- Node27&#45;&gt;Node30 -->
<g id="edge55" class="edge">
<title>Node27&#45;&gt;Node30</title>
<path fill="none" stroke="midnightblue" d="M835.55,-162.9C819.78,-153 799.19,-140.07 785.78,-131.65"/>
<polygon fill="midnightblue" stroke="midnightblue" points="833.85,-165.97 844.18,-168.32 837.57,-160.04 833.85,-165.97"/>
</g>
<!-- Node28&#45;&gt;Node5 -->
<g id="edge53" class="edge">
<title>Node28&#45;&gt;Node5</title>
<path fill="none" stroke="midnightblue" d="M849.95,-112.56C848.62,-112.37 847.3,-112.18 846,-112 820.14,-108.33 664.07,-86.69 578.33,-74.8"/>
<polygon fill="midnightblue" stroke="midnightblue" points="849.88,-116.09 860.28,-114.04 850.87,-109.16 849.88,-116.09"/>
</g>
<!-- Node29 -->
<g id="node29" class="node">
<title>Node29</title>
<g id="a_node29"><a xlink:href="ProgressMonitor_8cpp.html" target="_top" xlink:title="Implementation file for ProgressMonitor class.">
<polygon fill="white" stroke="black" points="855,-56.5 855,-75.5 961,-75.5 961,-56.5 855,-56.5"/>
<text text-anchor="middle" x="908" y="-63.5" font-family="Helvetica,sans-Serif" font-size="10.00">ProgressMonitor.cpp</text>
</a>
</g>
</g>
<!-- Node28&#45;&gt;Node29 -->
<g id="edge54" class="edge">
<title>Node28&#45;&gt;Node29</title>
<path fill="none" stroke="midnightblue" d="M908,-101.8C908,-92.91 908,-82.78 908,-75.75"/>
<polygon fill="midnightblue" stroke="midnightblue" points="904.5,-102.08 908,-112.08 911.5,-102.08 904.5,-102.08"/>
</g>
</g>
</svg>
        <g id="navigator" transform="translate(0 0)" fill="#404254">
                <rect fill="#f2f5e9" fill-opacity="0.5" stroke="#606060" stroke-width=".5" x="0" y="0" width="60" height="60"/>
                <use id="zoomplus" xlink:href="#zoomPlus" x="17" y="9" onmousedown="handleZoom(evt,'in')"/>
                <use id="zoomminus" xlink:href="#zoomMin" x="42" y="9" onmousedown="handleZoom(evt,'out')"/>
                <use id="reset" xlink:href="#resetDef" x="30" y="36" onmousedown="handleReset()"/>
                <g id="arrowUp" xlink:href="#dirArrow" transform="translate(30 24)" onmousedown="handlePan(0,-1)">
                  <use xlink:href="#rim" fill="#404040">
                        <set attributeName="fill" to="#808080" begin="arrowUp.mouseover" end="arrowUp.mouseout"/>
                  </use>
                  <path fill="none" stroke="white" stroke-width="1.5" d="M0,-3.0v7 M-2.5,-0.5L0,-3.0L2.5,-0.5"/>
                </g>
                <g id="arrowRight" xlink:href="#dirArrow" transform="rotate(90) translate(36 -43)" onmousedown="handlePan(1,0)">
                  <use xlink:href="#rim" fill="#404040">
                        <set attributeName="fill" to="#808080" begin="arrowRight.mouseover" end="arrowRight.mouseout"/>
                  </use>
                  <path fill="none" stroke="white" stroke-width="1.5" d="M0,-3.0v7 M-2.5,-0.5L0,-3.0L2.5,-0.5"/>
                </g>
                <g id="arrowDown" xlink:href="#dirArrow" transform="rotate(180) translate(-30 -48)" onmousedown="handlePan(0,1)">
                  <use xlink:href="#rim" fill="#404040">
                        <set attributeName="fill" to="#808080" begin="arrowDown.mouseover" end="arrowDown.mouseout"/>
                  </use>
                  <path fill="none" stroke="white" stroke-width="1.5" d="M0,-3.0v7 M-2.5,-0.5L0,-3.0L2.5,-0.5"/>
                </g>
                <g id="arrowLeft" xlink:href="#dirArrow" transform="rotate(270) translate(-36 17)" onmousedown="handlePan(-1,0)">
                  <use xlink:href="#rim" fill="#404040">
                        <set attributeName="fill" to="#808080" begin="arrowLeft.mouseover" end="arrowLeft.mouseout"/>
                  </use>
                  <path fill="none" stroke="white" stroke-width="1.5" d="M0,-3.0v7 M-2.5,-0.5L0,-3.0L2.5,-0.5"/>
                </g>
        </g>
        <svg viewBox="0 0 15 15" width="100%" height="30px" preserveAspectRatio="xMaxYMin meet">
         <g id="arrow_out" transform="scale(0.3 0.3)">
          <a xlink:href="Base_8hpp__dep__incl_org.svg" target="_base">
           <rect id="button" ry="5" rx="5" y="6" x="6" height="38" width="38"
                fill="#f2f5e9" fill-opacity="0.5" stroke="#606060" stroke-width="1.0"/>
           <path id="arrow"
             d="M 11.500037,31.436501 C 11.940474,20.09759 22.043105,11.32322 32.158766,21.979434 L 37.068811,17.246167 C 37.068811,17.246167 37.088388,32 37.088388,32 L 22.160133,31.978069 C 22.160133,31.978069 26.997745,27.140456 26.997745,27.140456 C 18.528582,18.264221 13.291696,25.230495 11.500037,31.436501 z"
             style="fill:#404040;"/>
          </a>
         </g>
        </svg>
</svg>
