<?xml version="1.0" encoding="UTF-8" standalone="no"?>
<!DOCTYPE svg PUBLIC "-//W3C//DTD SVG 1.1//EN"
 "http://www.w3.org/Graphics/SVG/1.1/DTD/svg11.dtd">
<!-- Generated by graphviz version 2.43.0 (0)
 -->
<!-- Title: LLU::MContainer&lt; MArgumentType::Image &gt; Pages: 1 -->
<svg width="272pt" height="106pt"
 viewBox="0.00 0.00 271.50 106.00" xmlns="http://www.w3.org/2000/svg" xmlns:xlink="http://www.w3.org/1999/xlink">
<g id="graph0" class="graph" transform="scale(1 1) rotate(0) translate(4 102)">
<title>LLU::MContainer&lt; MArgumentType::Image &gt;</title>
<polygon fill="white" stroke="transparent" points="-4,4 -4,-102 267.5,-102 267.5,4 -4,4"/>
<!-- Node1 -->
<g id="node1" class="node">
<title>Node1</title>
<g id="a_node1"><a xlink:title="MContainer specialization for MImage.">
<polygon fill="#bfbfbf" stroke="black" points="48,-0.5 48,-30.5 198,-30.5 198,-0.5 48,-0.5"/>
<text text-anchor="start" x="56" y="-18.5" font-family="Helvetica,sans-Serif" font-size="10.00">LLU::MContainer&lt; MArgument</text>
<text text-anchor="middle" x="123" y="-7.5" font-family="Helvetica,sans-Serif" font-size="10.00">Type::Image &gt;</text>
</a>
</g>
</g>
<!-- Node2 -->
<g id="node2" class="node">
<title>Node2</title>
<g id="a_node2"><a xlink:href="structLLU_1_1ImageInterface.html" target="_top" xlink:title="Abstract class that defines a basic set of operations on an image.">
<polygon fill="white" stroke="black" points="0,-73 0,-92 106,-92 106,-73 0,-73"/>
<text text-anchor="middle" x="53" y="-80" font-family="Helvetica,sans-Serif" font-size="10.00">LLU::ImageInterface</text>
</a>
</g>
</g>
<!-- Node2&#45;&gt;Node1 -->
<g id="edge1" class="edge">
<title>Node2&#45;&gt;Node1</title>
<path fill="none" stroke="midnightblue" d="M69.77,-65.93C81.35,-55.18 96.61,-41 107.83,-30.59"/>
<polygon fill="midnightblue" stroke="midnightblue" points="67.39,-63.36 62.44,-72.73 72.15,-68.49 67.39,-63.36"/>
</g>
<!-- Node3 -->
<g id="node3" class="node">
<title>Node3</title>
<g id="a_node3"><a xlink:href="classLLU_1_1MContainerBase.html" target="_top" xlink:title=" ">
<polygon fill="white" stroke="black" points="124.5,-67.5 124.5,-97.5 263.5,-97.5 263.5,-67.5 124.5,-67.5"/>
<text text-anchor="start" x="132.5" y="-85.5" font-family="Helvetica,sans-Serif" font-size="10.00">LLU::MContainerBase</text>
<text text-anchor="middle" x="194" y="-74.5" font-family="Helvetica,sans-Serif" font-size="10.00">&lt; MArgumentType::Image &gt;</text>
</a>
</g>
</g>
<!-- Node3&#45;&gt;Node1 -->
<g id="edge2" class="edge">
<title>Node3&#45;&gt;Node1</title>
<path fill="none" stroke="midnightblue" d="M171.17,-60.6C160.45,-50.78 147.95,-39.34 138.38,-30.58"/>
<polygon fill="midnightblue" stroke="midnightblue" points="168.85,-63.22 178.59,-67.4 173.58,-58.06 168.85,-63.22"/>
</g>
</g>
</svg>
