<?xml version="1.0" encoding="UTF-8" standalone="no"?>
<!DOCTYPE svg PUBLIC "-//W3C//DTD SVG 1.1//EN"
 "http://www.w3.org/Graphics/SVG/1.1/DTD/svg11.dtd">
<!-- Generated by graphviz version 2.43.0 (0)
 -->
<!-- Title: LLU::MContainer&lt; MArgumentType::NumericArray &gt; Pages: 1 -->
<svg width="338pt" height="106pt"
 viewBox="0.00 0.00 337.50 106.00" xmlns="http://www.w3.org/2000/svg" xmlns:xlink="http://www.w3.org/1999/xlink">
<g id="graph0" class="graph" transform="scale(1 1) rotate(0) translate(4 102)">
<title>LLU::MContainer&lt; MArgumentType::NumericArray &gt;</title>
<polygon fill="white" stroke="transparent" points="-4,4 -4,-102 333.5,-102 333.5,4 -4,4"/>
<!-- Node1 -->
<g id="node1" class="node">
<title>Node1</title>
<g id="a_node1"><a xlink:title="MContainer specialization for MNumericArray.">
<polygon fill="#bfbfbf" stroke="black" points="81.5,-0.5 81.5,-30.5 231.5,-30.5 231.5,-0.5 81.5,-0.5"/>
<text text-anchor="start" x="89.5" y="-18.5" font-family="Helvetica,sans-Serif" font-size="10.00">LLU::MContainer&lt; MArgument</text>
<text text-anchor="middle" x="156.5" y="-7.5" font-family="Helvetica,sans-Serif" font-size="10.00">Type::NumericArray &gt;</text>
</a>
</g>
</g>
<!-- Node2 -->
<g id="node2" class="node">
<title>Node2</title>
<g id="a_node2"><a xlink:href="structLLU_1_1NumericArrayInterface.html" target="_top" xlink:title="Abstract class that defines a basic set of operations on a numeric array.">
<polygon fill="white" stroke="black" points="0,-73 0,-92 139,-92 139,-73 0,-73"/>
<text text-anchor="middle" x="69.5" y="-80" font-family="Helvetica,sans-Serif" font-size="10.00">LLU::NumericArrayInterface</text>
</a>
</g>
</g>
<!-- Node2&#45;&gt;Node1 -->
<g id="edge1" class="edge">
<title>Node2&#45;&gt;Node1</title>
<path fill="none" stroke="midnightblue" d="M89.52,-66.54C104,-55.73 123.44,-41.2 137.64,-30.59"/>
<polygon fill="midnightblue" stroke="midnightblue" points="87.15,-63.94 81.23,-72.73 91.34,-69.55 87.15,-63.94"/>
</g>
<!-- Node3 -->
<g id="node3" class="node">
<title>Node3</title>
<g id="a_node3"><a xlink:href="classLLU_1_1MContainerBase.html" target="_top" xlink:title=" ">
<polygon fill="white" stroke="black" points="157.5,-67.5 157.5,-97.5 329.5,-97.5 329.5,-67.5 157.5,-67.5"/>
<text text-anchor="start" x="165.5" y="-85.5" font-family="Helvetica,sans-Serif" font-size="10.00">LLU::MContainerBase</text>
<text text-anchor="middle" x="243.5" y="-74.5" font-family="Helvetica,sans-Serif" font-size="10.00">&lt; MArgumentType::NumericArray &gt;</text>
</a>
</g>
</g>
<!-- Node3&#45;&gt;Node1 -->
<g id="edge2" class="edge">
<title>Node3&#45;&gt;Node1</title>
<path fill="none" stroke="midnightblue" d="M216.29,-61.17C202.98,-51.23 187.3,-39.51 175.34,-30.58"/>
<polygon fill="midnightblue" stroke="midnightblue" points="214.52,-64.21 224.62,-67.4 218.71,-58.61 214.52,-64.21"/>
</g>
</g>
</svg>
