<?xml version="1.0" encoding="UTF-8" standalone="no"?>
<!DOCTYPE svg PUBLIC "-//W3C//DTD SVG 1.1//EN"
 "http://www.w3.org/Graphics/SVG/1.1/DTD/svg11.dtd">
<!-- Generated by graphviz version 2.43.0 (0)
 -->
<!-- Title: LLU::Tensor&lt; T &gt; Pages: 1 -->
<svg width="411pt" height="207pt"
 viewBox="0.00 0.00 411.00 207.00" xmlns="http://www.w3.org/2000/svg" xmlns:xlink="http://www.w3.org/1999/xlink">
<g id="graph0" class="graph" transform="scale(1 1) rotate(0) translate(4 203)">
<title>LLU::Tensor&lt; T &gt;</title>
<polygon fill="white" stroke="transparent" points="-4,4 -4,-203 407,-203 407,4 -4,4"/>
<!-- Node1 -->
<g id="node1" class="node">
<title>Node1</title>
<g id="a_node1"><a xlink:title="This is a class template, where template parameter T is the type of data elements....">
<polygon fill="#bfbfbf" stroke="black" points="82.5,-0.5 82.5,-19.5 176.5,-19.5 176.5,-0.5 82.5,-0.5"/>
<text text-anchor="middle" x="129.5" y="-7.5" font-family="Helvetica,sans-Serif" font-size="10.00">LLU::Tensor&lt; T &gt;</text>
</a>
</g>
</g>
<!-- Node2 -->
<g id="node2" class="node">
<title>Node2</title>
<g id="a_node2"><a xlink:href="classLLU_1_1TypedTensor.html" target="_top" xlink:title="Typed interface for Tensor.">
<polygon fill="white" stroke="black" points="10.5,-56.5 10.5,-75.5 130.5,-75.5 130.5,-56.5 10.5,-56.5"/>
<text text-anchor="middle" x="70.5" y="-63.5" font-family="Helvetica,sans-Serif" font-size="10.00">LLU::TypedTensor&lt; T &gt;</text>
</a>
</g>
</g>
<!-- Node2&#45;&gt;Node1 -->
<g id="edge1" class="edge">
<title>Node2&#45;&gt;Node1</title>
<path fill="none" stroke="midnightblue" d="M87.39,-49.54C97.91,-39.91 111.07,-27.87 119.85,-19.83"/>
<polygon fill="midnightblue" stroke="midnightblue" points="84.99,-46.99 79.98,-56.32 89.72,-52.15 84.99,-46.99"/>
</g>
<!-- Node3 -->
<g id="node3" class="node">
<title>Node3</title>
<g id="a_node3"><a xlink:href="classLLU_1_1MArray.html" target="_top" xlink:title="This is a class template, where template parameter T is the type of data elements....">
<polygon fill="white" stroke="black" points="21.5,-118 21.5,-137 117.5,-137 117.5,-118 21.5,-118"/>
<text text-anchor="middle" x="69.5" y="-125" font-family="Helvetica,sans-Serif" font-size="10.00">LLU::MArray&lt; T &gt;</text>
</a>
</g>
</g>
<!-- Node3&#45;&gt;Node2 -->
<g id="edge2" class="edge">
<title>Node3&#45;&gt;Node2</title>
<path fill="none" stroke="midnightblue" d="M69.81,-107.82C70,-97 70.22,-83.9 70.36,-75.51"/>
<polygon fill="midnightblue" stroke="midnightblue" points="66.31,-107.92 69.64,-117.98 73.31,-108.04 66.31,-107.92"/>
</g>
<!-- Node4 -->
<g id="node4" class="node">
<title>Node4</title>
<g id="a_node4"><a xlink:href="classLLU_1_1IterableContainer.html" target="_top" xlink:title="Abstract class that provides iterators (c/r/begin and c/r/end methods) and subscript operator for any...">
<polygon fill="white" stroke="black" points="0,-179.5 0,-198.5 139,-198.5 139,-179.5 0,-179.5"/>
<text text-anchor="middle" x="69.5" y="-186.5" font-family="Helvetica,sans-Serif" font-size="10.00">LLU::IterableContainer&lt; T &gt;</text>
</a>
</g>
</g>
<!-- Node4&#45;&gt;Node3 -->
<g id="edge3" class="edge">
<title>Node4&#45;&gt;Node3</title>
<path fill="none" stroke="midnightblue" d="M69.5,-169.32C69.5,-158.5 69.5,-145.4 69.5,-137.01"/>
<polygon fill="midnightblue" stroke="midnightblue" points="66,-169.48 69.5,-179.48 73,-169.48 66,-169.48"/>
</g>
<!-- Node5 -->
<g id="node5" class="node">
<title>Node5</title>
<g id="a_node5"><a xlink:href="classLLU_1_1MContainer_3_01MArgumentType_1_1Tensor_01_4.html" target="_top" xlink:title="MContainer specialization for MTensor.">
<polygon fill="white" stroke="black" points="149.5,-56.5 149.5,-75.5 229.5,-75.5 229.5,-56.5 149.5,-56.5"/>
<text text-anchor="middle" x="189.5" y="-63.5" font-family="Helvetica,sans-Serif" font-size="10.00">GenericTensor</text>
</a>
</g>
</g>
<!-- Node5&#45;&gt;Node1 -->
<g id="edge4" class="edge">
<title>Node5&#45;&gt;Node1</title>
<path fill="none" stroke="midnightblue" d="M172.32,-49.54C161.62,-39.91 148.24,-27.87 139.32,-19.83"/>
<polygon fill="midnightblue" stroke="midnightblue" points="170.09,-52.24 179.86,-56.32 174.77,-47.03 170.09,-52.24"/>
</g>
<!-- Node6 -->
<g id="node6" class="node">
<title>Node6</title>
<g id="a_node6"><a xlink:href="structLLU_1_1TensorInterface.html" target="_top" xlink:title="Abstract class that defines a basic set of operations on a tensor.">
<polygon fill="white" stroke="black" points="135.5,-118 135.5,-137 243.5,-137 243.5,-118 135.5,-118"/>
<text text-anchor="middle" x="189.5" y="-125" font-family="Helvetica,sans-Serif" font-size="10.00">LLU::TensorInterface</text>
</a>
</g>
</g>
<!-- Node6&#45;&gt;Node5 -->
<g id="edge5" class="edge">
<title>Node6&#45;&gt;Node5</title>
<path fill="none" stroke="midnightblue" d="M189.5,-107.82C189.5,-97 189.5,-83.9 189.5,-75.51"/>
<polygon fill="midnightblue" stroke="midnightblue" points="186,-107.98 189.5,-117.98 193,-107.98 186,-107.98"/>
</g>
<!-- Node7 -->
<g id="node7" class="node">
<title>Node7</title>
<g id="a_node7"><a xlink:href="classLLU_1_1MContainerBase.html" target="_top" xlink:title=" ">
<polygon fill="white" stroke="black" points="262,-112.5 262,-142.5 403,-142.5 403,-112.5 262,-112.5"/>
<text text-anchor="start" x="270" y="-130.5" font-family="Helvetica,sans-Serif" font-size="10.00">LLU::MContainerBase</text>
<text text-anchor="middle" x="332.5" y="-119.5" font-family="Helvetica,sans-Serif" font-size="10.00">&lt; MArgumentType::Tensor &gt;</text>
</a>
</g>
</g>
<!-- Node7&#45;&gt;Node5 -->
<g id="edge6" class="edge">
<title>Node7&#45;&gt;Node5</title>
<path fill="none" stroke="midnightblue" d="M289.28,-108.52C263.11,-97.63 230.92,-84.23 210.31,-75.66"/>
<polygon fill="midnightblue" stroke="midnightblue" points="288.03,-111.79 298.61,-112.4 290.72,-105.33 288.03,-111.79"/>
</g>
</g>
</svg>
