<?xml version="1.0" encoding="UTF-8" standalone="no"?>
<!DOCTYPE svg PUBLIC "-//W3C//DTD SVG 1.1//EN"
 "http://www.w3.org/Graphics/SVG/1.1/DTD/svg11.dtd">
<!-- Generated by graphviz version 2.43.0 (0)
 -->
<!-- Title: LLU::MContainer&lt; MArgumentType::Tensor &gt; Pages: 1 -->
<svg width="276pt" height="162pt"
 viewBox="0.00 0.00 275.50 162.00" xmlns="http://www.w3.org/2000/svg" xmlns:xlink="http://www.w3.org/1999/xlink">
<g id="graph0" class="graph" transform="scale(1 1) rotate(0) translate(4 158)">
<title>LLU::MContainer&lt; MArgumentType::Tensor &gt;</title>
<polygon fill="white" stroke="transparent" points="-4,4 -4,-158 271.5,-158 271.5,4 -4,4"/>
<!-- Node1 -->
<g id="node1" class="node">
<title>Node1</title>
<g id="a_node1"><a xlink:title="MContainer specialization for MTensor.">
<polygon fill="#bfbfbf" stroke="black" points="50,-56.5 50,-86.5 200,-86.5 200,-56.5 50,-56.5"/>
<text text-anchor="start" x="58" y="-74.5" font-family="Helvetica,sans-Serif" font-size="10.00">LLU::MContainer&lt; MArgument</text>
<text text-anchor="middle" x="125" y="-63.5" font-family="Helvetica,sans-Serif" font-size="10.00">Type::Tensor &gt;</text>
</a>
</g>
</g>
<!-- Node4 -->
<g id="node4" class="node">
<title>Node4</title>
<g id="a_node4"><a xlink:href="classLLU_1_1Tensor.html" target="_top" xlink:title="This is a class template, where template parameter T is the type of data elements....">
<polygon fill="white" stroke="black" points="17,-0.5 17,-19.5 111,-19.5 111,-0.5 17,-0.5"/>
<text text-anchor="middle" x="64" y="-7.5" font-family="Helvetica,sans-Serif" font-size="10.00">LLU::Tensor&lt; T &gt;</text>
</a>
</g>
</g>
<!-- Node1&#45;&gt;Node4 -->
<g id="edge3" class="edge">
<title>Node1&#45;&gt;Node4</title>
<path fill="none" stroke="midnightblue" d="M103.27,-49.3C92.8,-39.09 80.82,-27.41 72.88,-19.66"/>
<polygon fill="midnightblue" stroke="midnightblue" points="100.94,-51.92 110.54,-56.4 105.83,-46.91 100.94,-51.92"/>
</g>
<!-- Node5 -->
<g id="node5" class="node">
<title>Node5</title>
<g id="a_node5"><a xlink:href="classLLU_1_1Tensor.html" target="_top" xlink:title=" ">
<polygon fill="white" stroke="black" points="129,-0.5 129,-19.5 245,-19.5 245,-0.5 129,-0.5"/>
<text text-anchor="middle" x="187" y="-7.5" font-family="Helvetica,sans-Serif" font-size="10.00">LLU::Tensor&lt; double &gt;</text>
</a>
</g>
</g>
<!-- Node1&#45;&gt;Node5 -->
<g id="edge4" class="edge">
<title>Node1&#45;&gt;Node5</title>
<path fill="none" stroke="midnightblue" d="M147.09,-49.3C157.73,-39.09 169.9,-27.41 177.98,-19.66"/>
<polygon fill="midnightblue" stroke="midnightblue" points="144.48,-46.95 139.69,-56.4 149.33,-52 144.48,-46.95"/>
</g>
<!-- Node2 -->
<g id="node2" class="node">
<title>Node2</title>
<g id="a_node2"><a xlink:href="structLLU_1_1TensorInterface.html" target="_top" xlink:title="Abstract class that defines a basic set of operations on a tensor.">
<polygon fill="white" stroke="black" points="0,-129 0,-148 108,-148 108,-129 0,-129"/>
<text text-anchor="middle" x="54" y="-136" font-family="Helvetica,sans-Serif" font-size="10.00">LLU::TensorInterface</text>
</a>
</g>
</g>
<!-- Node2&#45;&gt;Node1 -->
<g id="edge1" class="edge">
<title>Node2&#45;&gt;Node1</title>
<path fill="none" stroke="midnightblue" d="M71.01,-121.93C82.75,-111.18 98.24,-97 109.61,-86.59"/>
<polygon fill="midnightblue" stroke="midnightblue" points="68.59,-119.4 63.58,-128.73 73.31,-124.56 68.59,-119.4"/>
</g>
<!-- Node3 -->
<g id="node3" class="node">
<title>Node3</title>
<g id="a_node3"><a xlink:href="classLLU_1_1MContainerBase.html" target="_top" xlink:title=" ">
<polygon fill="white" stroke="black" points="126.5,-123.5 126.5,-153.5 267.5,-153.5 267.5,-123.5 126.5,-123.5"/>
<text text-anchor="start" x="134.5" y="-141.5" font-family="Helvetica,sans-Serif" font-size="10.00">LLU::MContainerBase</text>
<text text-anchor="middle" x="197" y="-130.5" font-family="Helvetica,sans-Serif" font-size="10.00">&lt; MArgumentType::Tensor &gt;</text>
</a>
</g>
</g>
<!-- Node3&#45;&gt;Node1 -->
<g id="edge2" class="edge">
<title>Node3&#45;&gt;Node1</title>
<path fill="none" stroke="midnightblue" d="M173.85,-116.6C162.98,-106.78 150.3,-95.34 140.59,-86.58"/>
<polygon fill="midnightblue" stroke="midnightblue" points="171.61,-119.29 181.38,-123.4 176.3,-114.1 171.61,-119.29"/>
</g>
</g>
</svg>
