<?xml version="1.0" encoding="UTF-8" standalone="no"?>
<!DOCTYPE svg PUBLIC "-//W3C//DTD SVG 1.1//EN"
 "http://www.w3.org/Graphics/SVG/1.1/DTD/svg11.dtd">
<!-- Generated by graphviz version 2.43.0 (0)
 -->
<!-- Title: LLU::IterableContainer&lt; T &gt; Pages: 1 -->
<svg width="460pt" height="196pt"
 viewBox="0.00 0.00 459.50 196.00" xmlns="http://www.w3.org/2000/svg" xmlns:xlink="http://www.w3.org/1999/xlink">
<g id="graph0" class="graph" transform="scale(1 1) rotate(0) translate(4 192)">
<title>LLU::IterableContainer&lt; T &gt;</title>
<polygon fill="white" stroke="transparent" points="-4,4 -4,-192 455.5,-192 455.5,4 -4,4"/>
<!-- Node1 -->
<g id="node1" class="node">
<title>Node1</title>
<g id="a_node1"><a xlink:title="Abstract class that provides iterators (c/r/begin and c/r/end methods) and subscript operator for any...">
<polygon fill="#bfbfbf" stroke="black" points="218.5,-168.5 218.5,-187.5 357.5,-187.5 357.5,-168.5 218.5,-168.5"/>
<text text-anchor="middle" x="288" y="-175.5" font-family="Helvetica,sans-Serif" font-size="10.00">LLU::IterableContainer&lt; T &gt;</text>
</a>
</g>
</g>
<!-- Node2 -->
<g id="node2" class="node">
<title>Node2</title>
<g id="a_node2"><a xlink:href="classLLU_1_1MArray.html" target="_top" xlink:title="This is a class template, where template parameter T is the type of data elements....">
<polygon fill="white" stroke="black" points="164,-112.5 164,-131.5 260,-131.5 260,-112.5 164,-112.5"/>
<text text-anchor="middle" x="212" y="-119.5" font-family="Helvetica,sans-Serif" font-size="10.00">LLU::MArray&lt; T &gt;</text>
</a>
</g>
</g>
<!-- Node1&#45;&gt;Node2 -->
<g id="edge1" class="edge">
<title>Node1&#45;&gt;Node2</title>
<path fill="none" stroke="midnightblue" d="M267.42,-162.38C253.69,-152.62 236.07,-140.11 224.43,-131.83"/>
<polygon fill="midnightblue" stroke="midnightblue" points="265.61,-165.38 275.79,-168.32 269.66,-159.68 265.61,-165.38"/>
</g>
<!-- Node9 -->
<g id="node9" class="node">
<title>Node9</title>
<g id="a_node9"><a xlink:href="classLLU_1_1NumericArrayTypedView.html" target="_top" xlink:title="Simple, light&#45;weight, non&#45;owning wrappper over MNumericArray.">
<polygon fill="white" stroke="black" points="278.5,-112.5 278.5,-131.5 451.5,-131.5 451.5,-112.5 278.5,-112.5"/>
<text text-anchor="middle" x="365" y="-119.5" font-family="Helvetica,sans-Serif" font-size="10.00">LLU::NumericArrayTypedView&lt; T &gt;</text>
</a>
</g>
</g>
<!-- Node1&#45;&gt;Node9 -->
<g id="edge8" class="edge">
<title>Node1&#45;&gt;Node9</title>
<path fill="none" stroke="midnightblue" d="M308.9,-162.34C322.91,-152.52 340.88,-139.91 352.66,-131.65"/>
<polygon fill="midnightblue" stroke="midnightblue" points="306.55,-159.72 300.37,-168.32 310.57,-165.45 306.55,-159.72"/>
</g>
<!-- Node3 -->
<g id="node3" class="node">
<title>Node3</title>
<g id="a_node3"><a xlink:href="classLLU_1_1TypedImage.html" target="_top" xlink:title="Typed interface for Image.">
<polygon fill="white" stroke="black" points="0,-56.5 0,-75.5 118,-75.5 118,-56.5 0,-56.5"/>
<text text-anchor="middle" x="59" y="-63.5" font-family="Helvetica,sans-Serif" font-size="10.00">LLU::TypedImage&lt; T &gt;</text>
</a>
</g>
</g>
<!-- Node2&#45;&gt;Node3 -->
<g id="edge2" class="edge">
<title>Node2&#45;&gt;Node3</title>
<path fill="none" stroke="midnightblue" d="M178.11,-109.04C149.32,-98.88 108.71,-84.55 83.13,-75.52"/>
<polygon fill="midnightblue" stroke="midnightblue" points="177.16,-112.42 187.76,-112.44 179.49,-105.81 177.16,-112.42"/>
</g>
<!-- Node5 -->
<g id="node5" class="node">
<title>Node5</title>
<g id="a_node5"><a xlink:href="classLLU_1_1TypedNumericArray.html" target="_top" xlink:title="Typed interface for NumericArray.">
<polygon fill="white" stroke="black" points="136.5,-56.5 136.5,-75.5 287.5,-75.5 287.5,-56.5 136.5,-56.5"/>
<text text-anchor="middle" x="212" y="-63.5" font-family="Helvetica,sans-Serif" font-size="10.00">LLU::TypedNumericArray&lt; T &gt;</text>
</a>
</g>
</g>
<!-- Node2&#45;&gt;Node5 -->
<g id="edge4" class="edge">
<title>Node2&#45;&gt;Node5</title>
<path fill="none" stroke="midnightblue" d="M212,-101.8C212,-92.91 212,-82.78 212,-75.75"/>
<polygon fill="midnightblue" stroke="midnightblue" points="208.5,-102.08 212,-112.08 215.5,-102.08 208.5,-102.08"/>
</g>
<!-- Node7 -->
<g id="node7" class="node">
<title>Node7</title>
<g id="a_node7"><a xlink:href="classLLU_1_1TypedTensor.html" target="_top" xlink:title="Typed interface for Tensor.">
<polygon fill="white" stroke="black" points="306,-56.5 306,-75.5 426,-75.5 426,-56.5 306,-56.5"/>
<text text-anchor="middle" x="366" y="-63.5" font-family="Helvetica,sans-Serif" font-size="10.00">LLU::TypedTensor&lt; T &gt;</text>
</a>
</g>
</g>
<!-- Node2&#45;&gt;Node7 -->
<g id="edge6" class="edge">
<title>Node2&#45;&gt;Node7</title>
<path fill="none" stroke="midnightblue" d="M246.11,-109.04C275.09,-98.88 315.96,-84.55 341.71,-75.52"/>
<polygon fill="midnightblue" stroke="midnightblue" points="244.68,-105.83 236.4,-112.44 247,-112.44 244.68,-105.83"/>
</g>
<!-- Node4 -->
<g id="node4" class="node">
<title>Node4</title>
<g id="a_node4"><a xlink:href="classLLU_1_1Image.html" target="_top" xlink:title="This is a class template, where template parameter T is the type of data elements....">
<polygon fill="white" stroke="black" points="13,-0.5 13,-19.5 105,-19.5 105,-0.5 13,-0.5"/>
<text text-anchor="middle" x="59" y="-7.5" font-family="Helvetica,sans-Serif" font-size="10.00">LLU::Image&lt; T &gt;</text>
</a>
</g>
</g>
<!-- Node3&#45;&gt;Node4 -->
<g id="edge3" class="edge">
<title>Node3&#45;&gt;Node4</title>
<path fill="none" stroke="midnightblue" d="M59,-45.8C59,-36.91 59,-26.78 59,-19.75"/>
<polygon fill="midnightblue" stroke="midnightblue" points="55.5,-46.08 59,-56.08 62.5,-46.08 55.5,-46.08"/>
</g>
<!-- Node6 -->
<g id="node6" class="node">
<title>Node6</title>
<g id="a_node6"><a xlink:href="classLLU_1_1NumericArray.html" target="_top" xlink:title="This is a class template, where template parameter T is the type of data elements....">
<polygon fill="white" stroke="black" points="149.5,-0.5 149.5,-19.5 274.5,-19.5 274.5,-0.5 149.5,-0.5"/>
<text text-anchor="middle" x="212" y="-7.5" font-family="Helvetica,sans-Serif" font-size="10.00">LLU::NumericArray&lt; T &gt;</text>
</a>
</g>
</g>
<!-- Node5&#45;&gt;Node6 -->
<g id="edge5" class="edge">
<title>Node5&#45;&gt;Node6</title>
<path fill="none" stroke="midnightblue" d="M212,-45.8C212,-36.91 212,-26.78 212,-19.75"/>
<polygon fill="midnightblue" stroke="midnightblue" points="208.5,-46.08 212,-56.08 215.5,-46.08 208.5,-46.08"/>
</g>
<!-- Node8 -->
<g id="node8" class="node">
<title>Node8</title>
<g id="a_node8"><a xlink:href="classLLU_1_1Tensor.html" target="_top" xlink:title="This is a class template, where template parameter T is the type of data elements....">
<polygon fill="white" stroke="black" points="319,-0.5 319,-19.5 413,-19.5 413,-0.5 319,-0.5"/>
<text text-anchor="middle" x="366" y="-7.5" font-family="Helvetica,sans-Serif" font-size="10.00">LLU::Tensor&lt; T &gt;</text>
</a>
</g>
</g>
<!-- Node7&#45;&gt;Node8 -->
<g id="edge7" class="edge">
<title>Node7&#45;&gt;Node8</title>
<path fill="none" stroke="midnightblue" d="M366,-45.8C366,-36.91 366,-26.78 366,-19.75"/>
<polygon fill="midnightblue" stroke="midnightblue" points="362.5,-46.08 366,-56.08 369.5,-46.08 362.5,-46.08"/>
</g>
</g>
</svg>
