<?xml version="1.0" encoding="UTF-8" standalone="no"?>
<!DOCTYPE svg PUBLIC "-//W3C//DTD SVG 1.1//EN"
 "http://www.w3.org/Graphics/SVG/1.1/DTD/svg11.dtd">
<!-- Generated by graphviz version 2.43.0 (0)
 -->
<!-- Title: LLU::NumericArray&lt; T &gt; Pages: 1 -->
<svg width="703pt" height="116pt"
 viewBox="0.00 0.00 703.00 115.50" xmlns="http://www.w3.org/2000/svg" xmlns:xlink="http://www.w3.org/1999/xlink">
<g id="graph0" class="graph" transform="scale(1 1) rotate(0) translate(4 111.5)">
<title>LLU::NumericArray&lt; T &gt;</title>
<polygon fill="white" stroke="transparent" points="-4,4 -4,-111.5 699,-111.5 699,4 -4,4"/>
<!-- Node1 -->
<g id="node1" class="node">
<title>Node1</title>
<g id="a_node1"><a xlink:title="This is a class template, where template parameter T is the type of data elements....">
<polygon fill="#bfbfbf" stroke="black" points="570,-69 570,-88 695,-88 695,-69 570,-69"/>
<text text-anchor="middle" x="632.5" y="-76" font-family="Helvetica,sans-Serif" font-size="10.00">LLU::NumericArray&lt; T &gt;</text>
</a>
</g>
</g>
<!-- Node2 -->
<g id="node2" class="node">
<title>Node2</title>
<g id="a_node2"><a xlink:href="classLLU_1_1TypedNumericArray.html" target="_top" xlink:title="Typed interface for NumericArray.">
<polygon fill="white" stroke="black" points="383,-88 383,-107 534,-107 534,-88 383,-88"/>
<text text-anchor="middle" x="458.5" y="-95" font-family="Helvetica,sans-Serif" font-size="10.00">LLU::TypedNumericArray&lt; T &gt;</text>
</a>
</g>
</g>
<!-- Node2&#45;&gt;Node1 -->
<g id="edge1" class="edge">
<title>Node2&#45;&gt;Node1</title>
<path fill="none" stroke="midnightblue" d="M544.26,-88.14C552.86,-87.19 561.48,-86.23 569.77,-85.32"/>
<polygon fill="midnightblue" stroke="midnightblue" points="543.75,-84.67 534.19,-89.25 544.52,-91.63 543.75,-84.67"/>
</g>
<!-- Node3 -->
<g id="node3" class="node">
<title>Node3</title>
<g id="a_node3"><a xlink:href="classLLU_1_1MArray.html" target="_top" xlink:title="This is a class template, where template parameter T is the type of data elements....">
<polygon fill="white" stroke="black" points="213,-88 213,-107 309,-107 309,-88 213,-88"/>
<text text-anchor="middle" x="261" y="-95" font-family="Helvetica,sans-Serif" font-size="10.00">LLU::MArray&lt; T &gt;</text>
</a>
</g>
</g>
<!-- Node3&#45;&gt;Node2 -->
<g id="edge2" class="edge">
<title>Node3&#45;&gt;Node2</title>
<path fill="none" stroke="midnightblue" d="M319.43,-97.5C339.26,-97.5 361.77,-97.5 382.77,-97.5"/>
<polygon fill="midnightblue" stroke="midnightblue" points="319.33,-94 309.33,-97.5 319.33,-101 319.33,-94"/>
</g>
<!-- Node4 -->
<g id="node4" class="node">
<title>Node4</title>
<g id="a_node4"><a xlink:href="classLLU_1_1IterableContainer.html" target="_top" xlink:title="Abstract class that provides iterators (c/r/begin and c/r/end methods) and subscript operator for any...">
<polygon fill="white" stroke="black" points="0,-88 0,-107 139,-107 139,-88 0,-88"/>
<text text-anchor="middle" x="69.5" y="-95" font-family="Helvetica,sans-Serif" font-size="10.00">LLU::IterableContainer&lt; T &gt;</text>
</a>
</g>
</g>
<!-- Node4&#45;&gt;Node3 -->
<g id="edge3" class="edge">
<title>Node4&#45;&gt;Node3</title>
<path fill="none" stroke="midnightblue" d="M149.34,-97.5C170.94,-97.5 193.67,-97.5 212.88,-97.5"/>
<polygon fill="midnightblue" stroke="midnightblue" points="149.18,-94 139.18,-97.5 149.18,-101 149.18,-94"/>
</g>
<!-- Node5 -->
<g id="node5" class="node">
<title>Node5</title>
<g id="a_node5"><a xlink:href="classLLU_1_1MContainer_3_01MArgumentType_1_1NumericArray_01_4.html" target="_top" xlink:title="MContainer specialization for MNumericArray.">
<polygon fill="white" stroke="black" points="403.5,-50 403.5,-69 513.5,-69 513.5,-50 403.5,-50"/>
<text text-anchor="middle" x="458.5" y="-57" font-family="Helvetica,sans-Serif" font-size="10.00">GenericNumericArray</text>
</a>
</g>
</g>
<!-- Node5&#45;&gt;Node1 -->
<g id="edge4" class="edge">
<title>Node5&#45;&gt;Node1</title>
<path fill="none" stroke="midnightblue" d="M524.14,-66.64C539.15,-68.3 555.08,-70.06 569.95,-71.7"/>
<polygon fill="midnightblue" stroke="midnightblue" points="524.25,-63.13 513.92,-65.51 523.48,-70.09 524.25,-63.13"/>
</g>
<!-- Node6 -->
<g id="node6" class="node">
<title>Node6</title>
<g id="a_node6"><a xlink:href="structLLU_1_1NumericArrayInterface.html" target="_top" xlink:title="Abstract class that defines a basic set of operations on a numeric array.">
<polygon fill="white" stroke="black" points="191.5,-50 191.5,-69 330.5,-69 330.5,-50 191.5,-50"/>
<text text-anchor="middle" x="261" y="-57" font-family="Helvetica,sans-Serif" font-size="10.00">LLU::NumericArrayInterface</text>
</a>
</g>
</g>
<!-- Node6&#45;&gt;Node5 -->
<g id="edge5" class="edge">
<title>Node6&#45;&gt;Node5</title>
<path fill="none" stroke="midnightblue" d="M340.86,-59.5C361.88,-59.5 384.12,-59.5 403.47,-59.5"/>
<polygon fill="midnightblue" stroke="midnightblue" points="340.65,-56 330.65,-59.5 340.65,-63 340.65,-56"/>
</g>
<!-- Node7 -->
<g id="node7" class="node">
<title>Node7</title>
<g id="a_node7"><a xlink:href="classLLU_1_1MContainerBase.html" target="_top" xlink:title=" ">
<polygon fill="white" stroke="black" points="175,-0.5 175,-30.5 347,-30.5 347,-0.5 175,-0.5"/>
<text text-anchor="start" x="183" y="-18.5" font-family="Helvetica,sans-Serif" font-size="10.00">LLU::MContainerBase</text>
<text text-anchor="middle" x="261" y="-7.5" font-family="Helvetica,sans-Serif" font-size="10.00">&lt; MArgumentType::NumericArray &gt;</text>
</a>
</g>
</g>
<!-- Node7&#45;&gt;Node5 -->
<g id="edge6" class="edge">
<title>Node7&#45;&gt;Node5</title>
<path fill="none" stroke="midnightblue" d="M338.61,-32.74C364.68,-38.61 392.86,-44.95 415.23,-49.99"/>
<polygon fill="midnightblue" stroke="midnightblue" points="339.26,-29.3 328.73,-30.52 337.72,-36.13 339.26,-29.3"/>
</g>
</g>
</svg>
