<?xml version="1.0" encoding="UTF-8" standalone="no"?>
<!DOCTYPE svg PUBLIC "-//W3C//DTD SVG 1.1//EN"
 "http://www.w3.org/Graphics/SVG/1.1/DTD/svg11.dtd">
<!-- Generated by graphviz version 2.43.0 (0)
 -->
<!-- Title: LLU::MContainer&lt; MArgumentType::Tensor &gt; Pages: 1 -->
<svg width="276pt" height="106pt"
 viewBox="0.00 0.00 275.50 106.00" xmlns="http://www.w3.org/2000/svg" xmlns:xlink="http://www.w3.org/1999/xlink">
<g id="graph0" class="graph" transform="scale(1 1) rotate(0) translate(4 102)">
<title>LLU::MContainer&lt; MArgumentType::Tensor &gt;</title>
<polygon fill="white" stroke="transparent" points="-4,4 -4,-102 271.5,-102 271.5,4 -4,4"/>
<!-- Node1 -->
<g id="node1" class="node">
<title>Node1</title>
<g id="a_node1"><a xlink:title="MContainer specialization for MTensor.">
<polygon fill="#bfbfbf" stroke="black" points="50,-0.5 50,-30.5 200,-30.5 200,-0.5 50,-0.5"/>
<text text-anchor="start" x="58" y="-18.5" font-family="Helvetica,sans-Serif" font-size="10.00">LLU::MContainer&lt; MArgument</text>
<text text-anchor="middle" x="125" y="-7.5" font-family="Helvetica,sans-Serif" font-size="10.00">Type::Tensor &gt;</text>
</a>
</g>
</g>
<!-- Node2 -->
<g id="node2" class="node">
<title>Node2</title>
<g id="a_node2"><a xlink:href="structLLU_1_1TensorInterface.html" target="_top" xlink:title="Abstract class that defines a basic set of operations on a tensor.">
<polygon fill="white" stroke="black" points="0,-73 0,-92 108,-92 108,-73 0,-73"/>
<text text-anchor="middle" x="54" y="-80" font-family="Helvetica,sans-Serif" font-size="10.00">LLU::TensorInterface</text>
</a>
</g>
</g>
<!-- Node2&#45;&gt;Node1 -->
<g id="edge1" class="edge">
<title>Node2&#45;&gt;Node1</title>
<path fill="none" stroke="midnightblue" d="M71.01,-65.93C82.75,-55.18 98.24,-41 109.61,-30.59"/>
<polygon fill="midnightblue" stroke="midnightblue" points="68.59,-63.4 63.58,-72.73 73.31,-68.56 68.59,-63.4"/>
</g>
<!-- Node3 -->
<g id="node3" class="node">
<title>Node3</title>
<g id="a_node3"><a xlink:href="classLLU_1_1MContainerBase.html" target="_top" xlink:title=" ">
<polygon fill="white" stroke="black" points="126.5,-67.5 126.5,-97.5 267.5,-97.5 267.5,-67.5 126.5,-67.5"/>
<text text-anchor="start" x="134.5" y="-85.5" font-family="Helvetica,sans-Serif" font-size="10.00">LLU::MContainerBase</text>
<text text-anchor="middle" x="197" y="-74.5" font-family="Helvetica,sans-Serif" font-size="10.00">&lt; MArgumentType::Tensor &gt;</text>
</a>
</g>
</g>
<!-- Node3&#45;&gt;Node1 -->
<g id="edge2" class="edge">
<title>Node3&#45;&gt;Node1</title>
<path fill="none" stroke="midnightblue" d="M173.85,-60.6C162.98,-50.78 150.3,-39.34 140.59,-30.58"/>
<polygon fill="midnightblue" stroke="midnightblue" points="171.61,-63.29 181.38,-67.4 176.3,-58.1 171.61,-63.29"/>
</g>
</g>
</svg>
