<?xml version="1.0" encoding="UTF-8" standalone="no"?>
<!DOCTYPE svg PUBLIC "-//W3C//DTD SVG 1.1//EN"
 "http://www.w3.org/Graphics/SVG/1.1/DTD/svg11.dtd">
<!-- Generated by graphviz version 2.43.0 (0)
 -->
<!-- Title: LLU::SparseArray&lt; T &gt; Pages: 1 -->
<svg width="174pt" height="151pt"
 viewBox="0.00 0.00 174.00 151.00" xmlns="http://www.w3.org/2000/svg" xmlns:xlink="http://www.w3.org/1999/xlink">
<g id="graph0" class="graph" transform="scale(1 1) rotate(0) translate(4 147)">
<title>LLU::SparseArray&lt; T &gt;</title>
<polygon fill="white" stroke="transparent" points="-4,4 -4,-147 170,-147 170,4 -4,4"/>
<!-- Node1 -->
<g id="node1" class="node">
<title>Node1</title>
<g id="a_node1"><a xlink:title="Strongly typed wrapper for MSparseArray.">
<polygon fill="#bfbfbf" stroke="black" points="23.5,-0.5 23.5,-19.5 142.5,-19.5 142.5,-0.5 23.5,-0.5"/>
<text text-anchor="middle" x="83" y="-7.5" font-family="Helvetica,sans-Serif" font-size="10.00">LLU::SparseArray&lt; T &gt;</text>
</a>
</g>
</g>
<!-- Node2 -->
<g id="node2" class="node">
<title>Node2</title>
<g id="a_node2"><a xlink:href="classLLU_1_1MContainer_3_01MArgumentType_1_1SparseArray_01_4.html" target="_top" xlink:title="MContainer specialization for MSparseArray.">
<polygon fill="white" stroke="black" points="31,-56.5 31,-75.5 135,-75.5 135,-56.5 31,-56.5"/>
<text text-anchor="middle" x="83" y="-63.5" font-family="Helvetica,sans-Serif" font-size="10.00">GenericSparseArray</text>
</a>
</g>
</g>
<!-- Node2&#45;&gt;Node1 -->
<g id="edge1" class="edge">
<title>Node2&#45;&gt;Node1</title>
<path fill="none" stroke="midnightblue" d="M83,-45.8C83,-36.91 83,-26.78 83,-19.75"/>
<polygon fill="midnightblue" stroke="midnightblue" points="79.5,-46.08 83,-56.08 86.5,-46.08 79.5,-46.08"/>
</g>
<!-- Node3 -->
<g id="node3" class="node">
<title>Node3</title>
<g id="a_node3"><a xlink:href="classLLU_1_1MContainerBase.html" target="_top" xlink:title=" ">
<polygon fill="white" stroke="black" points="0,-112.5 0,-142.5 166,-142.5 166,-112.5 0,-112.5"/>
<text text-anchor="start" x="8" y="-130.5" font-family="Helvetica,sans-Serif" font-size="10.00">LLU::MContainerBase</text>
<text text-anchor="middle" x="83" y="-119.5" font-family="Helvetica,sans-Serif" font-size="10.00">&lt; MArgumentType::SparseArray &gt;</text>
</a>
</g>
</g>
<!-- Node3&#45;&gt;Node2 -->
<g id="edge2" class="edge">
<title>Node3&#45;&gt;Node2</title>
<path fill="none" stroke="midnightblue" d="M83,-102.29C83,-92.86 83,-82.65 83,-75.66"/>
<polygon fill="midnightblue" stroke="midnightblue" points="79.5,-102.4 83,-112.4 86.5,-102.4 79.5,-102.4"/>
</g>
</g>
</svg>
