<?xml version="1.0" encoding="UTF-8" standalone="no"?>
<!DOCTYPE svg PUBLIC "-//W3C//DTD SVG 1.1//EN"
 "http://www.w3.org/Graphics/SVG/1.1/DTD/svg11.dtd">
<!-- Generated by graphviz version 2.43.0 (0)
 -->
<!-- Title: LLU::Image&lt; T &gt; Pages: 1 -->
<svg width="407pt" height="207pt"
 viewBox="0.00 0.00 407.00 207.00" xmlns="http://www.w3.org/2000/svg" xmlns:xlink="http://www.w3.org/1999/xlink">
<g id="graph0" class="graph" transform="scale(1 1) rotate(0) translate(4 203)">
<title>LLU::Image&lt; T &gt;</title>
<polygon fill="white" stroke="transparent" points="-4,4 -4,-203 403,-203 403,4 -4,4"/>
<!-- Node1 -->
<g id="node1" class="node">
<title>Node1</title>
<g id="a_node1"><a xlink:title="This is a class template, where template parameter T is the type of data elements....">
<polygon fill="#bfbfbf" stroke="black" points="83.5,-0.5 83.5,-19.5 175.5,-19.5 175.5,-0.5 83.5,-0.5"/>
<text text-anchor="middle" x="129.5" y="-7.5" font-family="Helvetica,sans-Serif" font-size="10.00">LLU::Image&lt; T &gt;</text>
</a>
</g>
</g>
<!-- Node2 -->
<g id="node2" class="node">
<title>Node2</title>
<g id="a_node2"><a xlink:href="classLLU_1_1TypedImage.html" target="_top" xlink:title="Typed interface for Image.">
<polygon fill="white" stroke="black" points="12.5,-56.5 12.5,-75.5 130.5,-75.5 130.5,-56.5 12.5,-56.5"/>
<text text-anchor="middle" x="71.5" y="-63.5" font-family="Helvetica,sans-Serif" font-size="10.00">LLU::TypedImage&lt; T &gt;</text>
</a>
</g>
</g>
<!-- Node2&#45;&gt;Node1 -->
<g id="edge1" class="edge">
<title>Node2&#45;&gt;Node1</title>
<path fill="none" stroke="midnightblue" d="M88.41,-49.25C98.7,-39.67 111.47,-27.79 120.01,-19.83"/>
<polygon fill="midnightblue" stroke="midnightblue" points="85.75,-46.95 80.82,-56.32 90.52,-52.07 85.75,-46.95"/>
</g>
<!-- Node3 -->
<g id="node3" class="node">
<title>Node3</title>
<g id="a_node3"><a xlink:href="classLLU_1_1MArray.html" target="_top" xlink:title="This is a class template, where template parameter T is the type of data elements....">
<polygon fill="white" stroke="black" points="21.5,-118 21.5,-137 117.5,-137 117.5,-118 21.5,-118"/>
<text text-anchor="middle" x="69.5" y="-125" font-family="Helvetica,sans-Serif" font-size="10.00">LLU::MArray&lt; T &gt;</text>
</a>
</g>
</g>
<!-- Node3&#45;&gt;Node2 -->
<g id="edge2" class="edge">
<title>Node3&#45;&gt;Node2</title>
<path fill="none" stroke="midnightblue" d="M70.13,-107.82C70.49,-97 70.93,-83.9 71.21,-75.51"/>
<polygon fill="midnightblue" stroke="midnightblue" points="66.62,-107.86 69.79,-117.98 73.62,-108.1 66.62,-107.86"/>
</g>
<!-- Node4 -->
<g id="node4" class="node">
<title>Node4</title>
<g id="a_node4"><a xlink:href="classLLU_1_1IterableContainer.html" target="_top" xlink:title="Abstract class that provides iterators (c/r/begin and c/r/end methods) and subscript operator for any...">
<polygon fill="white" stroke="black" points="0,-179.5 0,-198.5 139,-198.5 139,-179.5 0,-179.5"/>
<text text-anchor="middle" x="69.5" y="-186.5" font-family="Helvetica,sans-Serif" font-size="10.00">LLU::IterableContainer&lt; T &gt;</text>
</a>
</g>
</g>
<!-- Node4&#45;&gt;Node3 -->
<g id="edge3" class="edge">
<title>Node4&#45;&gt;Node3</title>
<path fill="none" stroke="midnightblue" d="M69.5,-169.32C69.5,-158.5 69.5,-145.4 69.5,-137.01"/>
<polygon fill="midnightblue" stroke="midnightblue" points="66,-169.48 69.5,-179.48 73,-169.48 66,-169.48"/>
</g>
<!-- Node5 -->
<g id="node5" class="node">
<title>Node5</title>
<g id="a_node5"><a xlink:href="classLLU_1_1MContainer_3_01MArgumentType_1_1Image_01_4.html" target="_top" xlink:title="MContainer specialization for MImage.">
<polygon fill="white" stroke="black" points="150,-56.5 150,-75.5 227,-75.5 227,-56.5 150,-56.5"/>
<text text-anchor="middle" x="188.5" y="-63.5" font-family="Helvetica,sans-Serif" font-size="10.00">GenericImage</text>
</a>
</g>
</g>
<!-- Node5&#45;&gt;Node1 -->
<g id="edge4" class="edge">
<title>Node5&#45;&gt;Node1</title>
<path fill="none" stroke="midnightblue" d="M171.61,-49.54C161.09,-39.91 147.93,-27.87 139.15,-19.83"/>
<polygon fill="midnightblue" stroke="midnightblue" points="169.28,-52.15 179.02,-56.32 174.01,-46.99 169.28,-52.15"/>
</g>
<!-- Node6 -->
<g id="node6" class="node">
<title>Node6</title>
<g id="a_node6"><a xlink:href="structLLU_1_1ImageInterface.html" target="_top" xlink:title="Abstract class that defines a basic set of operations on an image.">
<polygon fill="white" stroke="black" points="135.5,-118 135.5,-137 241.5,-137 241.5,-118 135.5,-118"/>
<text text-anchor="middle" x="188.5" y="-125" font-family="Helvetica,sans-Serif" font-size="10.00">LLU::ImageInterface</text>
</a>
</g>
</g>
<!-- Node6&#45;&gt;Node5 -->
<g id="edge5" class="edge">
<title>Node6&#45;&gt;Node5</title>
<path fill="none" stroke="midnightblue" d="M188.5,-107.82C188.5,-97 188.5,-83.9 188.5,-75.51"/>
<polygon fill="midnightblue" stroke="midnightblue" points="185,-107.98 188.5,-117.98 192,-107.98 185,-107.98"/>
</g>
<!-- Node7 -->
<g id="node7" class="node">
<title>Node7</title>
<g id="a_node7"><a xlink:href="classLLU_1_1MContainerBase.html" target="_top" xlink:title=" ">
<polygon fill="white" stroke="black" points="260,-112.5 260,-142.5 399,-142.5 399,-112.5 260,-112.5"/>
<text text-anchor="start" x="268" y="-130.5" font-family="Helvetica,sans-Serif" font-size="10.00">LLU::MContainerBase</text>
<text text-anchor="middle" x="329.5" y="-119.5" font-family="Helvetica,sans-Serif" font-size="10.00">&lt; MArgumentType::Image &gt;</text>
</a>
</g>
</g>
<!-- Node7&#45;&gt;Node5 -->
<g id="edge6" class="edge">
<title>Node7&#45;&gt;Node5</title>
<path fill="none" stroke="midnightblue" d="M286.54,-108.37C260.8,-97.51 229.25,-84.2 209.02,-75.66"/>
<polygon fill="midnightblue" stroke="midnightblue" points="285.51,-111.74 296.08,-112.4 288.23,-105.29 285.51,-111.74"/>
</g>
</g>
</svg>
