<?xml version="1.0" encoding="UTF-8" standalone="no"?>
<!DOCTYPE svg PUBLIC "-//W3C//DTD SVG 1.1//EN"
 "http://www.w3.org/Graphics/SVG/1.1/DTD/svg11.dtd">
<!-- Generated by graphviz version 2.43.0 (0)
 -->
<!-- Title: LLU::MContainer&lt; MArgumentType::DataStore &gt; Pages: 1 -->
<svg width="164pt" height="162pt"
 viewBox="0.00 0.00 164.00 162.00" xmlns="http://www.w3.org/2000/svg" xmlns:xlink="http://www.w3.org/1999/xlink">
<g id="graph0" class="graph" transform="scale(1 1) rotate(0) translate(4 158)">
<title>LLU::MContainer&lt; MArgumentType::DataStore &gt;</title>
<polygon fill="white" stroke="transparent" points="-4,4 -4,-158 160,-158 160,4 -4,4"/>
<!-- Node1 -->
<g id="node1" class="node">
<title>Node1</title>
<g id="a_node1"><a xlink:title="MContainer specialization for DataStore, provides basic list interface for the underlying raw DataSto...">
<polygon fill="#bfbfbf" stroke="black" points="3,-56.5 3,-86.5 153,-86.5 153,-56.5 3,-56.5"/>
<text text-anchor="start" x="11" y="-74.5" font-family="Helvetica,sans-Serif" font-size="10.00">LLU::MContainer&lt; MArgument</text>
<text text-anchor="middle" x="78" y="-63.5" font-family="Helvetica,sans-Serif" font-size="10.00">Type::DataStore &gt;</text>
</a>
</g>
</g>
<!-- Node3 -->
<g id="node3" class="node">
<title>Node3</title>
<g id="a_node3"><a xlink:href="classLLU_1_1DataList.html" target="_top" xlink:title="Top&#45;level wrapper over LibraryLink&#39;s DataStore.">
<polygon fill="white" stroke="black" points="27.5,-0.5 27.5,-19.5 128.5,-19.5 128.5,-0.5 27.5,-0.5"/>
<text text-anchor="middle" x="78" y="-7.5" font-family="Helvetica,sans-Serif" font-size="10.00">LLU::DataList&lt; T &gt;</text>
</a>
</g>
</g>
<!-- Node1&#45;&gt;Node3 -->
<g id="edge2" class="edge">
<title>Node1&#45;&gt;Node3</title>
<path fill="none" stroke="midnightblue" d="M78,-46.29C78,-36.86 78,-26.65 78,-19.66"/>
<polygon fill="midnightblue" stroke="midnightblue" points="74.5,-46.4 78,-56.4 81.5,-46.4 74.5,-46.4"/>
</g>
<!-- Node2 -->
<g id="node2" class="node">
<title>Node2</title>
<g id="a_node2"><a xlink:href="classLLU_1_1MContainerBase.html" target="_top" xlink:title=" ">
<polygon fill="white" stroke="black" points="0,-123.5 0,-153.5 156,-153.5 156,-123.5 0,-123.5"/>
<text text-anchor="start" x="8" y="-141.5" font-family="Helvetica,sans-Serif" font-size="10.00">LLU::MContainerBase</text>
<text text-anchor="middle" x="78" y="-130.5" font-family="Helvetica,sans-Serif" font-size="10.00">&lt; MArgumentType::DataStore &gt;</text>
</a>
</g>
</g>
<!-- Node2&#45;&gt;Node1 -->
<g id="edge1" class="edge">
<title>Node2&#45;&gt;Node1</title>
<path fill="none" stroke="midnightblue" d="M78,-113.11C78,-104.15 78,-94.32 78,-86.58"/>
<polygon fill="midnightblue" stroke="midnightblue" points="74.5,-113.4 78,-123.4 81.5,-113.4 74.5,-113.4"/>
</g>
</g>
</svg>
