<?xml version="1.0" encoding="UTF-8" standalone="no"?>
<!DOCTYPE svg PUBLIC "-//W3C//DTD SVG 1.1//EN"
 "http://www.w3.org/Graphics/SVG/1.1/DTD/svg11.dtd">
<!-- Generated by graphviz version 2.43.0 (0)
 -->
<!-- Title: LLU::TypedNumericArray&lt; T &gt; Pages: 1 -->
<svg width="159pt" height="196pt"
 viewBox="0.00 0.00 159.00 196.00" xmlns="http://www.w3.org/2000/svg" xmlns:xlink="http://www.w3.org/1999/xlink">
<g id="graph0" class="graph" transform="scale(1 1) rotate(0) translate(4 192)">
<title>LLU::TypedNumericArray&lt; T &gt;</title>
<polygon fill="white" stroke="transparent" points="-4,4 -4,-192 155,-192 155,4 -4,4"/>
<!-- Node1 -->
<g id="node1" class="node">
<title>Node1</title>
<g id="a_node1"><a xlink:title="Typed interface for NumericArray.">
<polygon fill="#bfbfbf" stroke="black" points="0,-56.5 0,-75.5 151,-75.5 151,-56.5 0,-56.5"/>
<text text-anchor="middle" x="75.5" y="-63.5" font-family="Helvetica,sans-Serif" font-size="10.00">LLU::TypedNumericArray&lt; T &gt;</text>
</a>
</g>
</g>
<!-- Node4 -->
<g id="node4" class="node">
<title>Node4</title>
<g id="a_node4"><a xlink:href="classLLU_1_1NumericArray.html" target="_top" xlink:title="This is a class template, where template parameter T is the type of data elements....">
<polygon fill="white" stroke="black" points="13,-0.5 13,-19.5 138,-19.5 138,-0.5 13,-0.5"/>
<text text-anchor="middle" x="75.5" y="-7.5" font-family="Helvetica,sans-Serif" font-size="10.00">LLU::NumericArray&lt; T &gt;</text>
</a>
</g>
</g>
<!-- Node1&#45;&gt;Node4 -->
<g id="edge3" class="edge">
<title>Node1&#45;&gt;Node4</title>
<path fill="none" stroke="midnightblue" d="M75.5,-45.8C75.5,-36.91 75.5,-26.78 75.5,-19.75"/>
<polygon fill="midnightblue" stroke="midnightblue" points="72,-46.08 75.5,-56.08 79,-46.08 72,-46.08"/>
</g>
<!-- Node2 -->
<g id="node2" class="node">
<title>Node2</title>
<g id="a_node2"><a xlink:href="classLLU_1_1MArray.html" target="_top" xlink:title="This is a class template, where template parameter T is the type of data elements....">
<polygon fill="white" stroke="black" points="27.5,-112.5 27.5,-131.5 123.5,-131.5 123.5,-112.5 27.5,-112.5"/>
<text text-anchor="middle" x="75.5" y="-119.5" font-family="Helvetica,sans-Serif" font-size="10.00">LLU::MArray&lt; T &gt;</text>
</a>
</g>
</g>
<!-- Node2&#45;&gt;Node1 -->
<g id="edge1" class="edge">
<title>Node2&#45;&gt;Node1</title>
<path fill="none" stroke="midnightblue" d="M75.5,-101.8C75.5,-92.91 75.5,-82.78 75.5,-75.75"/>
<polygon fill="midnightblue" stroke="midnightblue" points="72,-102.08 75.5,-112.08 79,-102.08 72,-102.08"/>
</g>
<!-- Node3 -->
<g id="node3" class="node">
<title>Node3</title>
<g id="a_node3"><a xlink:href="classLLU_1_1IterableContainer.html" target="_top" xlink:title="Abstract class that provides iterators (c/r/begin and c/r/end methods) and subscript operator for any...">
<polygon fill="white" stroke="black" points="6,-168.5 6,-187.5 145,-187.5 145,-168.5 6,-168.5"/>
<text text-anchor="middle" x="75.5" y="-175.5" font-family="Helvetica,sans-Serif" font-size="10.00">LLU::IterableContainer&lt; T &gt;</text>
</a>
</g>
</g>
<!-- Node3&#45;&gt;Node2 -->
<g id="edge2" class="edge">
<title>Node3&#45;&gt;Node2</title>
<path fill="none" stroke="midnightblue" d="M75.5,-157.8C75.5,-148.91 75.5,-138.78 75.5,-131.75"/>
<polygon fill="midnightblue" stroke="midnightblue" points="72,-158.08 75.5,-168.08 79,-158.08 72,-158.08"/>
</g>
</g>
</svg>
