<?xml version="1.0" encoding="UTF-8" standalone="no"?>
<!DOCTYPE svg PUBLIC "-//W3C//DTD SVG 1.1//EN"
 "http://www.w3.org/Graphics/SVG/1.1/DTD/svg11.dtd">
<!-- Generated by graphviz version 2.43.0 (0)
 -->
<!-- Title: Containers Pages: 1 -->
<svg width="246pt" height="255pt"
 viewBox="0.00 0.00 246.00 255.00" xmlns="http://www.w3.org/2000/svg" xmlns:xlink="http://www.w3.org/1999/xlink">
<g id="graph0" class="graph" transform="scale(1 1) rotate(0) translate(4 251)">
<title>Containers</title>
<polygon fill="white" stroke="transparent" points="-4,4 -4,-251 242,-251 242,4 -4,4"/>
<g id="clust1" class="cluster">
<title>clusterdir_bc5807a946fff986543f686f28e6d10f</title>
<g id="a_clust1"><a xlink:href="dir_bc5807a946fff986543f686f28e6d10f.html" target="_top" xlink:title="LLU">
<polygon fill="#ddddee" stroke="black" points="8,-8 8,-239 176,-239 176,-8 8,-8"/>
<text text-anchor="middle" x="92" y="-227" font-family="Helvetica,sans-Serif" font-size="10.00">LLU</text>
</a>
</g>
</g>
<g id="clust2" class="cluster">
<title>clusterdir_dee3f738df87362dedf9ac7c6f24aa7e</title>
<g id="a_clust2"><a xlink:href="dir_dee3f738df87362dedf9ac7c6f24aa7e.html" target="_top">
<polygon fill="#eeeeff" stroke="black" points="16,-16 16,-212 168,-212 168,-16 16,-16"/>
</a>
</g>
</g>
<!-- dir_dee3f738df87362dedf9ac7c6f24aa7e -->
<g id="node1" class="node">
<title>dir_dee3f738df87362dedf9ac7c6f24aa7e</title>
<text text-anchor="middle" x="56" y="-183.5" font-family="Helvetica,sans-Serif" font-size="10.00">Containers</text>
</g>
<!-- dir_90e1d5272fab08062538f61116ed9329 -->
<g id="node2" class="node">
<title>dir_90e1d5272fab08062538f61116ed9329</title>
<g id="a_node2"><a xlink:href="dir_90e1d5272fab08062538f61116ed9329.html" target="_top" xlink:title="Generic">
<polygon fill="white" stroke="black" points="125,-132 71,-132 71,-96 125,-96 125,-132"/>
<text text-anchor="middle" x="98" y="-111.5" font-family="Helvetica,sans-Serif" font-size="10.00">Generic</text>
</a>
</g>
</g>
<!-- dir_dee3f738df87362dedf9ac7c6f24aa7e&#45;&gt;dir_90e1d5272fab08062538f61116ed9329 -->
<g id="edge6" class="edge">
<title>dir_dee3f738df87362dedf9ac7c6f24aa7e&#45;&gt;dir_90e1d5272fab08062538f61116ed9329</title>
<path fill="none" stroke="black" d="M66.38,-167.7C71.26,-159.56 77.19,-149.69 82.58,-140.7"/>
<polygon fill="black" stroke="black" points="85.59,-142.48 87.74,-132.1 79.59,-138.88 85.59,-142.48"/>
<g id="a_edge6&#45;headlabel"><a xlink:href="dir_000002_000003.html" target="_top" xlink:title="8">
<text text-anchor="middle" x="86.18" y="-144.52" font-family="Helvetica,sans-Serif" font-size="10.00">8</text>
</a>
</g>
</g>
<!-- dir_0d978a9800fb2fc24fc10a828de6613e -->
<g id="node3" class="node">
<title>dir_0d978a9800fb2fc24fc10a828de6613e</title>
<g id="a_node3"><a xlink:href="dir_0d978a9800fb2fc24fc10a828de6613e.html" target="_top" xlink:title="Iterators">
<polygon fill="white" stroke="black" points="125,-60 71,-60 71,-24 125,-24 125,-60"/>
<text text-anchor="middle" x="98" y="-39.5" font-family="Helvetica,sans-Serif" font-size="10.00">Iterators</text>
</a>
</g>
</g>
<!-- dir_dee3f738df87362dedf9ac7c6f24aa7e&#45;&gt;dir_0d978a9800fb2fc24fc10a828de6613e -->
<g id="edge7" class="edge">
<title>dir_dee3f738df87362dedf9ac7c6f24aa7e&#45;&gt;dir_0d978a9800fb2fc24fc10a828de6613e</title>
<path fill="none" stroke="black" d="M54.54,-167.75C53.59,-149.42 53.77,-119.86 62,-96 65.34,-86.32 70.93,-76.75 76.72,-68.47"/>
<polygon fill="black" stroke="black" points="79.6,-70.46 82.74,-60.34 73.97,-66.29 79.6,-70.46"/>
<g id="a_edge7&#45;headlabel"><a xlink:href="dir_000002_000004.html" target="_top" xlink:title="6">
<text text-anchor="middle" x="79.74" y="-72.54" font-family="Helvetica,sans-Serif" font-size="10.00">6</text>
</a>
</g>
</g>
<!-- dir_c6f217e94bf31060ef21562991f0348e -->
<g id="node5" class="node">
<title>dir_c6f217e94bf31060ef21562991f0348e</title>
<g id="a_node5"><a xlink:href="dir_c6f217e94bf31060ef21562991f0348e.html" target="_top" xlink:title="ErrorLog">
<polygon fill="none" stroke="black" points="238,-60 184,-60 184,-24 238,-24 238,-60"/>
<text text-anchor="middle" x="211" y="-39.5" font-family="Helvetica,sans-Serif" font-size="10.00">ErrorLog</text>
</a>
</g>
</g>
<!-- dir_dee3f738df87362dedf9ac7c6f24aa7e&#45;&gt;dir_c6f217e94bf31060ef21562991f0348e -->
<g id="edge8" class="edge">
<title>dir_dee3f738df87362dedf9ac7c6f24aa7e&#45;&gt;dir_c6f217e94bf31060ef21562991f0348e</title>
<path fill="none" stroke="black" d="M85.1,-167.79C100.36,-158.14 118.96,-145.39 134,-132 155.84,-112.57 177.32,-87.05 192.02,-68.33"/>
<polygon fill="black" stroke="black" points="194.92,-70.3 198.28,-60.25 189.39,-66.01 194.92,-70.3"/>
<g id="a_edge8&#45;headlabel"><a xlink:href="dir_000002_000009.html" target="_top" xlink:title="4">
<text text-anchor="middle" x="194.97" y="-72.38" font-family="Helvetica,sans-Serif" font-size="10.00">4</text>
</a>
</g>
</g>
<!-- dir_90e1d5272fab08062538f61116ed9329&#45;&gt;dir_0d978a9800fb2fc24fc10a828de6613e -->
<g id="edge1" class="edge">
<title>dir_90e1d5272fab08062538f61116ed9329&#45;&gt;dir_0d978a9800fb2fc24fc10a828de6613e</title>
<path fill="none" stroke="black" d="M92.08,-95.7C91.29,-87.98 91.06,-78.71 91.4,-70.11"/>
<polygon fill="black" stroke="black" points="94.9,-70.32 92.1,-60.1 87.92,-69.84 94.9,-70.32"/>
<g id="a_edge1&#45;headlabel"><a xlink:href="dir_000003_000004.html" target="_top" xlink:title="1">
<text text-anchor="middle" x="97.48" y="-71.61" font-family="Helvetica,sans-Serif" font-size="10.00">1</text>
</a>
</g>
</g>
<!-- dir_90e1d5272fab08062538f61116ed9329&#45;&gt;dir_c6f217e94bf31060ef21562991f0348e -->
<g id="edge2" class="edge">
<title>dir_90e1d5272fab08062538f61116ed9329&#45;&gt;dir_c6f217e94bf31060ef21562991f0348e</title>
<path fill="none" stroke="black" d="M125.07,-96.23C140.05,-86.95 158.87,-75.29 175.07,-65.26"/>
<polygon fill="black" stroke="black" points="177.1,-68.11 183.76,-59.87 173.42,-62.16 177.1,-68.11"/>
<g id="a_edge2&#45;headlabel"><a xlink:href="dir_000003_000009.html" target="_top" xlink:title="1">
<text text-anchor="middle" x="175.54" y="-69.92" font-family="Helvetica,sans-Serif" font-size="10.00">1</text>
</a>
</g>
</g>
<!-- dir_0d978a9800fb2fc24fc10a828de6613e&#45;&gt;dir_90e1d5272fab08062538f61116ed9329 -->
<g id="edge9" class="edge">
<title>dir_0d978a9800fb2fc24fc10a828de6613e&#45;&gt;dir_90e1d5272fab08062538f61116ed9329</title>
<path fill="none" stroke="black" d="M103.9,-60.1C104.7,-67.79 104.94,-77.05 104.6,-85.67"/>
<polygon fill="black" stroke="black" points="101.11,-85.48 103.92,-95.7 108.09,-85.96 101.11,-85.48"/>
<g id="a_edge9&#45;headlabel"><a xlink:href="dir_000004_000003.html" target="_top" xlink:title="1">
<text text-anchor="middle" x="98.52" y="-79.2" font-family="Helvetica,sans-Serif" font-size="10.00">1</text>
</a>
</g>
</g>
<!-- dir_86e8a13349b00c7c670381dcafde0a24 -->
<g id="node4" class="node">
<title>dir_86e8a13349b00c7c670381dcafde0a24</title>
<g id="a_node4"><a xlink:href="dir_86e8a13349b00c7c670381dcafde0a24.html" target="_top" xlink:title="Views">
<polygon fill="white" stroke="black" points="160,-204 106,-204 106,-168 160,-168 160,-204"/>
<text text-anchor="middle" x="133" y="-183.5" font-family="Helvetica,sans-Serif" font-size="10.00">Views</text>
</a>
</g>
</g>
<!-- dir_86e8a13349b00c7c670381dcafde0a24&#45;&gt;dir_90e1d5272fab08062538f61116ed9329 -->
<g id="edge3" class="edge">
<title>dir_86e8a13349b00c7c670381dcafde0a24&#45;&gt;dir_90e1d5272fab08062538f61116ed9329</title>
<path fill="none" stroke="black" d="M124.35,-167.7C120.36,-159.73 115.55,-150.1 111.13,-141.26"/>
<polygon fill="black" stroke="black" points="114.15,-139.48 106.55,-132.1 107.89,-142.61 114.15,-139.48"/>
<g id="a_edge3&#45;headlabel"><a xlink:href="dir_000011_000003.html" target="_top" xlink:title="3">
<text text-anchor="middle" x="118.3" y="-138.93" font-family="Helvetica,sans-Serif" font-size="10.00">3</text>
</a>
</g>
</g>
<!-- dir_86e8a13349b00c7c670381dcafde0a24&#45;&gt;dir_0d978a9800fb2fc24fc10a828de6613e -->
<g id="edge4" class="edge">
<title>dir_86e8a13349b00c7c670381dcafde0a24&#45;&gt;dir_0d978a9800fb2fc24fc10a828de6613e</title>
<path fill="none" stroke="black" d="M136.23,-167.83C138.97,-149.57 141.4,-120.07 134,-96 130.99,-86.22 125.49,-76.62 119.68,-68.33"/>
<polygon fill="black" stroke="black" points="122.41,-66.13 113.61,-60.23 116.81,-70.33 122.41,-66.13"/>
<g id="a_edge4&#45;headlabel"><a xlink:href="dir_000011_000004.html" target="_top" xlink:title="3">
<text text-anchor="middle" x="126.83" y="-64.8" font-family="Helvetica,sans-Serif" font-size="10.00">3</text>
</a>
</g>
</g>
<!-- dir_86e8a13349b00c7c670381dcafde0a24&#45;&gt;dir_c6f217e94bf31060ef21562991f0348e -->
<g id="edge5" class="edge">
<title>dir_86e8a13349b00c7c670381dcafde0a24&#45;&gt;dir_c6f217e94bf31060ef21562991f0348e</title>
<path fill="none" stroke="black" d="M155.52,-167.78C166.47,-158.31 178.98,-145.72 187,-132 198.14,-112.94 204.24,-88.59 207.5,-70.17"/>
<polygon fill="black" stroke="black" points="210.99,-70.53 209.11,-60.1 204.08,-69.42 210.99,-70.53"/>
<g id="a_edge5&#45;headlabel"><a xlink:href="dir_000011_000009.html" target="_top" xlink:title="1">
<text text-anchor="middle" x="213.23" y="-72.03" font-family="Helvetica,sans-Serif" font-size="10.00">1</text>
</a>
</g>
</g>
</g>
</svg>
