<?xml version="1.0" encoding="UTF-8" standalone="no"?>
<!DOCTYPE svg PUBLIC "-//W3C//DTD SVG 1.1//EN"
 "http://www.w3.org/Graphics/SVG/1.1/DTD/svg11.dtd">
<!-- Generated by graphviz version 2.43.0 (0)
 -->
<!-- Title: WSTP Pages: 1 -->
<svg width="94pt" height="151pt"
 viewBox="0.00 0.00 94.00 151.00" xmlns="http://www.w3.org/2000/svg" xmlns:xlink="http://www.w3.org/1999/xlink">
<g id="graph0" class="graph" transform="scale(1 1) rotate(0) translate(4 147)">
<title>WSTP</title>
<polygon fill="white" stroke="transparent" points="-4,4 -4,-147 90,-147 90,4 -4,4"/>
<g id="clust1" class="cluster">
<title>clusterdir_bc5807a946fff986543f686f28e6d10f</title>
<g id="a_clust1"><a xlink:href="dir_bc5807a946fff986543f686f28e6d10f.html" target="_top" xlink:title="LLU">
<polygon fill="#ddddee" stroke="black" points="8,-64 8,-135 78,-135 78,-64 8,-64"/>
<text text-anchor="middle" x="43" y="-123" font-family="Helvetica,sans-Serif" font-size="10.00">LLU</text>
</a>
</g>
</g>
<!-- dir_7d8e8b0b47b75f38311675eda904048e -->
<g id="node1" class="node">
<title>dir_7d8e8b0b47b75f38311675eda904048e</title>
<g id="a_node1"><a xlink:href="dir_7d8e8b0b47b75f38311675eda904048e.html" target="_top" xlink:title="WSTP">
<polygon fill="#eeeeff" stroke="black" points="70,-108 16,-108 16,-72 70,-72 70,-108"/>
<text text-anchor="middle" x="43" y="-87.5" font-family="Helvetica,sans-Serif" font-size="10.00">WSTP</text>
</a>
</g>
</g>
<!-- dir_c6f217e94bf31060ef21562991f0348e -->
<g id="node2" class="node">
<title>dir_c6f217e94bf31060ef21562991f0348e</title>
<g id="a_node2"><a xlink:href="dir_c6f217e94bf31060ef21562991f0348e.html" target="_top" xlink:title="ErrorLog">
<polygon fill="none" stroke="black" points="70,-36 16,-36 16,0 70,0 70,-36"/>
<text text-anchor="middle" x="43" y="-15.5" font-family="Helvetica,sans-Serif" font-size="10.00">ErrorLog</text>
</a>
</g>
</g>
<!-- dir_7d8e8b0b47b75f38311675eda904048e&#45;&gt;dir_c6f217e94bf31060ef21562991f0348e -->
<g id="edge1" class="edge">
<title>dir_7d8e8b0b47b75f38311675eda904048e&#45;&gt;dir_c6f217e94bf31060ef21562991f0348e</title>
<path fill="none" stroke="black" d="M37.08,-71.7C36.29,-63.98 36.06,-54.71 36.4,-46.11"/>
<polygon fill="black" stroke="black" points="39.9,-46.32 37.1,-36.1 32.92,-45.84 39.9,-46.32"/>
<g id="a_edge1&#45;headlabel"><a xlink:href="dir_000007_000009.html" target="_top" xlink:title="5">
<text text-anchor="middle" x="42.48" y="-47.61" font-family="Helvetica,sans-Serif" font-size="10.00">5</text>
</a>
</g>
</g>
<!-- dir_c6f217e94bf31060ef21562991f0348e&#45;&gt;dir_7d8e8b0b47b75f38311675eda904048e -->
<g id="edge2" class="edge">
<title>dir_c6f217e94bf31060ef21562991f0348e&#45;&gt;dir_7d8e8b0b47b75f38311675eda904048e</title>
<path fill="none" stroke="black" d="M48.9,-36.1C49.7,-43.79 49.94,-53.05 49.6,-61.67"/>
<polygon fill="black" stroke="black" points="46.11,-61.48 48.92,-71.7 53.09,-61.96 46.11,-61.48"/>
<g id="a_edge2&#45;headlabel"><a xlink:href="dir_000009_000007.html" target="_top" xlink:title="2">
<text text-anchor="middle" x="43.52" y="-55.2" font-family="Helvetica,sans-Serif" font-size="10.00">2</text>
</a>
</g>
</g>
</g>
</svg>
