<?xml version="1.0" encoding="UTF-8" standalone="no"?>
<!DOCTYPE svg PUBLIC "-//W3C//DTD SVG 1.1//EN"
 "http://www.w3.org/Graphics/SVG/1.1/DTD/svg11.dtd">
<!-- Generated by graphviz version 2.43.0 (0)
 -->
<!-- Title: LLU Pages: 1 -->
<svg width="264pt" height="255pt"
 viewBox="0.00 0.00 264.00 255.00" xmlns="http://www.w3.org/2000/svg" xmlns:xlink="http://www.w3.org/1999/xlink">
<g id="graph0" class="graph" transform="scale(1 1) rotate(0) translate(4 251)">
<title>LLU</title>
<polygon fill="white" stroke="transparent" points="-4,4 -4,-251 260,-251 260,4 -4,4"/>
<g id="clust1" class="cluster">
<title>clusterdir_d44c64559bbebec7f509842c48db8b23</title>
<g id="a_clust1"><a xlink:href="dir_d44c64559bbebec7f509842c48db8b23.html" target="_top" xlink:title="include">
<polygon fill="#ddddee" stroke="black" points="8,-8 8,-239 248,-239 248,-8 8,-8"/>
<text text-anchor="middle" x="128" y="-227" font-family="Helvetica,sans-Serif" font-size="10.00">include</text>
</a>
</g>
</g>
<g id="clust2" class="cluster">
<title>clusterdir_bc5807a946fff986543f686f28e6d10f</title>
<g id="a_clust2"><a xlink:href="dir_bc5807a946fff986543f686f28e6d10f.html" target="_top">
<polygon fill="#eeeeff" stroke="black" points="16,-16 16,-212 240,-212 240,-16 16,-16"/>
</a>
</g>
</g>
<!-- dir_bc5807a946fff986543f686f28e6d10f -->
<g id="node1" class="node">
<title>dir_bc5807a946fff986543f686f28e6d10f</title>
<text text-anchor="middle" x="205" y="-183.5" font-family="Helvetica,sans-Serif" font-size="10.00">LLU</text>
</g>
<!-- dir_b7d858afd7ec3ea325674d7072f74728 -->
<g id="node2" class="node">
<title>dir_b7d858afd7ec3ea325674d7072f74728</title>
<g id="a_node2"><a xlink:href="dir_b7d858afd7ec3ea325674d7072f74728.html" target="_top" xlink:title="Async">
<polygon fill="white" stroke="black" points="160,-204 106,-204 106,-168 160,-168 160,-204"/>
<text text-anchor="middle" x="133" y="-183.5" font-family="Helvetica,sans-Serif" font-size="10.00">Async</text>
</a>
</g>
</g>
<!-- dir_dee3f738df87362dedf9ac7c6f24aa7e -->
<g id="node3" class="node">
<title>dir_dee3f738df87362dedf9ac7c6f24aa7e</title>
<g id="a_node3"><a xlink:href="dir_dee3f738df87362dedf9ac7c6f24aa7e.html" target="_top" xlink:title="Containers">
<polygon fill="white" stroke="red" points="88,-204 24,-204 24,-168 88,-168 88,-204"/>
<text text-anchor="middle" x="56" y="-183.5" font-family="Helvetica,sans-Serif" font-size="10.00">Containers</text>
</a>
</g>
</g>
<!-- dir_c6f217e94bf31060ef21562991f0348e -->
<g id="node4" class="node">
<title>dir_c6f217e94bf31060ef21562991f0348e</title>
<g id="a_node4"><a xlink:href="dir_c6f217e94bf31060ef21562991f0348e.html" target="_top" xlink:title="ErrorLog">
<polygon fill="white" stroke="black" points="83,-132 29,-132 29,-96 83,-96 83,-132"/>
<text text-anchor="middle" x="56" y="-111.5" font-family="Helvetica,sans-Serif" font-size="10.00">ErrorLog</text>
</a>
</g>
</g>
<!-- dir_dee3f738df87362dedf9ac7c6f24aa7e&#45;&gt;dir_c6f217e94bf31060ef21562991f0348e -->
<g id="edge1" class="edge">
<title>dir_dee3f738df87362dedf9ac7c6f24aa7e&#45;&gt;dir_c6f217e94bf31060ef21562991f0348e</title>
<path fill="none" stroke="black" d="M56,-167.7C56,-159.98 56,-150.71 56,-142.11"/>
<polygon fill="black" stroke="black" points="59.5,-142.1 56,-132.1 52.5,-142.1 59.5,-142.1"/>
<g id="a_edge1&#45;headlabel"><a xlink:href="dir_000002_000009.html" target="_top" xlink:title="4">
<text text-anchor="middle" x="62.34" y="-143.2" font-family="Helvetica,sans-Serif" font-size="10.00">4</text>
</a>
</g>
</g>
<!-- dir_7d8e8b0b47b75f38311675eda904048e -->
<g id="node5" class="node">
<title>dir_7d8e8b0b47b75f38311675eda904048e</title>
<g id="a_node5"><a xlink:href="dir_7d8e8b0b47b75f38311675eda904048e.html" target="_top" xlink:title="WSTP">
<polygon fill="white" stroke="black" points="83,-60 29,-60 29,-24 83,-24 83,-60"/>
<text text-anchor="middle" x="56" y="-39.5" font-family="Helvetica,sans-Serif" font-size="10.00">WSTP</text>
</a>
</g>
</g>
<!-- dir_c6f217e94bf31060ef21562991f0348e&#45;&gt;dir_7d8e8b0b47b75f38311675eda904048e -->
<g id="edge3" class="edge">
<title>dir_c6f217e94bf31060ef21562991f0348e&#45;&gt;dir_7d8e8b0b47b75f38311675eda904048e</title>
<path fill="none" stroke="black" d="M50.08,-95.7C49.29,-87.98 49.06,-78.71 49.4,-70.11"/>
<polygon fill="black" stroke="black" points="52.9,-70.32 50.1,-60.1 45.92,-69.84 52.9,-70.32"/>
<g id="a_edge3&#45;headlabel"><a xlink:href="dir_000009_000007.html" target="_top" xlink:title="2">
<text text-anchor="middle" x="55.48" y="-71.61" font-family="Helvetica,sans-Serif" font-size="10.00">2</text>
</a>
</g>
</g>
<!-- dir_7d8e8b0b47b75f38311675eda904048e&#45;&gt;dir_c6f217e94bf31060ef21562991f0348e -->
<g id="edge2" class="edge">
<title>dir_7d8e8b0b47b75f38311675eda904048e&#45;&gt;dir_c6f217e94bf31060ef21562991f0348e</title>
<path fill="none" stroke="black" d="M61.9,-60.1C62.7,-67.79 62.94,-77.05 62.6,-85.67"/>
<polygon fill="black" stroke="black" points="59.11,-85.48 61.92,-95.7 66.09,-85.96 59.11,-85.48"/>
<g id="a_edge2&#45;headlabel"><a xlink:href="dir_000007_000009.html" target="_top" xlink:title="5">
<text text-anchor="middle" x="56.52" y="-79.2" font-family="Helvetica,sans-Serif" font-size="10.00">5</text>
</a>
</g>
</g>
</g>
</svg>
