<?xml version="1.0" encoding="UTF-8" standalone="no"?>
<!DOCTYPE svg PUBLIC "-//W3C//DTD SVG 1.1//EN"
 "http://www.w3.org/Graphics/SVG/1.1/DTD/svg11.dtd">
<!-- Generated by graphviz version 2.43.0 (0)
 -->
<!-- Title: Generic Pages: 1 -->
<svg width="134pt" height="151pt"
 viewBox="0.00 0.00 134.00 151.00" xmlns="http://www.w3.org/2000/svg" xmlns:xlink="http://www.w3.org/1999/xlink">
<g id="graph0" class="graph" transform="scale(1 1) rotate(0) translate(4 147)">
<title>Generic</title>
<polygon fill="white" stroke="transparent" points="-4,4 -4,-147 130,-147 130,4 -4,4"/>
<g id="clust1" class="cluster">
<title>clusterdir_dee3f738df87362dedf9ac7c6f24aa7e</title>
<g id="a_clust1"><a xlink:href="dir_dee3f738df87362dedf9ac7c6f24aa7e.html" target="_top" xlink:title="Containers">
<polygon fill="#ddddee" stroke="black" points="28,-64 28,-135 98,-135 98,-64 28,-64"/>
<text text-anchor="middle" x="63" y="-123" font-family="Helvetica,sans-Serif" font-size="10.00">Containers</text>
</a>
</g>
</g>
<!-- dir_90e1d5272fab08062538f61116ed9329 -->
<g id="node1" class="node">
<title>dir_90e1d5272fab08062538f61116ed9329</title>
<g id="a_node1"><a xlink:href="dir_90e1d5272fab08062538f61116ed9329.html" target="_top" xlink:title="Generic">
<polygon fill="#eeeeff" stroke="black" points="90,-108 36,-108 36,-72 90,-72 90,-108"/>
<text text-anchor="middle" x="63" y="-87.5" font-family="Helvetica,sans-Serif" font-size="10.00">Generic</text>
</a>
</g>
</g>
<!-- dir_0d978a9800fb2fc24fc10a828de6613e -->
<g id="node2" class="node">
<title>dir_0d978a9800fb2fc24fc10a828de6613e</title>
<g id="a_node2"><a xlink:href="dir_0d978a9800fb2fc24fc10a828de6613e.html" target="_top" xlink:title="Iterators">
<polygon fill="none" stroke="black" points="54,-36 0,-36 0,0 54,0 54,-36"/>
<text text-anchor="middle" x="27" y="-15.5" font-family="Helvetica,sans-Serif" font-size="10.00">Iterators</text>
</a>
</g>
</g>
<!-- dir_90e1d5272fab08062538f61116ed9329&#45;&gt;dir_0d978a9800fb2fc24fc10a828de6613e -->
<g id="edge1" class="edge">
<title>dir_90e1d5272fab08062538f61116ed9329&#45;&gt;dir_0d978a9800fb2fc24fc10a828de6613e</title>
<path fill="none" stroke="black" d="M48.19,-71.7C43.27,-63.73 38.1,-54.1 33.95,-45.26"/>
<polygon fill="black" stroke="black" points="37.14,-43.84 29.9,-36.1 30.74,-46.67 37.14,-43.84"/>
<g id="a_edge1&#45;headlabel"><a xlink:href="dir_000003_000004.html" target="_top" xlink:title="1">
<text text-anchor="middle" x="41.19" y="-43.48" font-family="Helvetica,sans-Serif" font-size="10.00">1</text>
</a>
</g>
</g>
<!-- dir_c6f217e94bf31060ef21562991f0348e -->
<g id="node3" class="node">
<title>dir_c6f217e94bf31060ef21562991f0348e</title>
<g id="a_node3"><a xlink:href="dir_c6f217e94bf31060ef21562991f0348e.html" target="_top" xlink:title="ErrorLog">
<polygon fill="none" stroke="black" points="126,-36 72,-36 72,0 126,0 126,-36"/>
<text text-anchor="middle" x="99" y="-15.5" font-family="Helvetica,sans-Serif" font-size="10.00">ErrorLog</text>
</a>
</g>
</g>
<!-- dir_90e1d5272fab08062538f61116ed9329&#45;&gt;dir_c6f217e94bf31060ef21562991f0348e -->
<g id="edge2" class="edge">
<title>dir_90e1d5272fab08062538f61116ed9329&#45;&gt;dir_c6f217e94bf31060ef21562991f0348e</title>
<path fill="none" stroke="black" d="M71.9,-71.7C76,-63.73 80.95,-54.1 85.49,-45.26"/>
<polygon fill="black" stroke="black" points="88.74,-46.6 90.2,-36.1 82.52,-43.4 88.74,-46.6"/>
<g id="a_edge2&#45;headlabel"><a xlink:href="dir_000003_000009.html" target="_top" xlink:title="1">
<text text-anchor="middle" x="89.62" y="-48.59" font-family="Helvetica,sans-Serif" font-size="10.00">1</text>
</a>
</g>
</g>
<!-- dir_0d978a9800fb2fc24fc10a828de6613e&#45;&gt;dir_90e1d5272fab08062538f61116ed9329 -->
<g id="edge3" class="edge">
<title>dir_0d978a9800fb2fc24fc10a828de6613e&#45;&gt;dir_90e1d5272fab08062538f61116ed9329</title>
<path fill="none" stroke="black" d="M41.69,-36.1C46.61,-44.04 51.78,-53.67 55.95,-62.51"/>
<polygon fill="black" stroke="black" points="52.77,-63.97 60.02,-71.7 59.17,-61.14 52.77,-63.97"/>
<g id="a_edge3&#45;headlabel"><a xlink:href="dir_000004_000003.html" target="_top" xlink:title="1">
<text text-anchor="middle" x="48.71" y="-59.34" font-family="Helvetica,sans-Serif" font-size="10.00">1</text>
</a>
</g>
</g>
</g>
</svg>
