<?xml version="1.0" encoding="UTF-8" standalone="no"?>
<!DOCTYPE svg PUBLIC "-//W3C//DTD SVG 1.1//EN"
 "http://www.w3.org/Graphics/SVG/1.1/DTD/svg11.dtd">
<!-- Generated by graphviz version 2.43.0 (0)
 -->
<!-- Title: Views Pages: 1 -->
<svg width="134pt" height="223pt"
 viewBox="0.00 0.00 134.00 223.00" xmlns="http://www.w3.org/2000/svg" xmlns:xlink="http://www.w3.org/1999/xlink">
<g id="graph0" class="graph" transform="scale(1 1) rotate(0) translate(4 219)">
<title>Views</title>
<polygon fill="white" stroke="transparent" points="-4,4 -4,-219 130,-219 130,4 -4,4"/>
<g id="clust1" class="cluster">
<title>clusterdir_dee3f738df87362dedf9ac7c6f24aa7e</title>
<g id="a_clust1"><a xlink:href="dir_dee3f738df87362dedf9ac7c6f24aa7e.html" target="_top" xlink:title="Containers">
<polygon fill="#ddddee" stroke="black" points="9,-136 9,-207 79,-207 79,-136 9,-136"/>
<text text-anchor="middle" x="44" y="-195" font-family="Helvetica,sans-Serif" font-size="10.00">Containers</text>
</a>
</g>
</g>
<!-- dir_86e8a13349b00c7c670381dcafde0a24 -->
<g id="node1" class="node">
<title>dir_86e8a13349b00c7c670381dcafde0a24</title>
<g id="a_node1"><a xlink:href="dir_86e8a13349b00c7c670381dcafde0a24.html" target="_top" xlink:title="Views">
<polygon fill="#eeeeff" stroke="black" points="71,-180 17,-180 17,-144 71,-144 71,-180"/>
<text text-anchor="middle" x="44" y="-159.5" font-family="Helvetica,sans-Serif" font-size="10.00">Views</text>
</a>
</g>
</g>
<!-- dir_90e1d5272fab08062538f61116ed9329 -->
<g id="node2" class="node">
<title>dir_90e1d5272fab08062538f61116ed9329</title>
<g id="a_node2"><a xlink:href="dir_90e1d5272fab08062538f61116ed9329.html" target="_top" xlink:title="Generic">
<polygon fill="none" stroke="black" points="71,-108 17,-108 17,-72 71,-72 71,-108"/>
<text text-anchor="middle" x="44" y="-87.5" font-family="Helvetica,sans-Serif" font-size="10.00">Generic</text>
</a>
</g>
</g>
<!-- dir_86e8a13349b00c7c670381dcafde0a24&#45;&gt;dir_90e1d5272fab08062538f61116ed9329 -->
<g id="edge3" class="edge">
<title>dir_86e8a13349b00c7c670381dcafde0a24&#45;&gt;dir_90e1d5272fab08062538f61116ed9329</title>
<path fill="none" stroke="black" d="M44,-143.7C44,-135.98 44,-126.71 44,-118.11"/>
<polygon fill="black" stroke="black" points="47.5,-118.1 44,-108.1 40.5,-118.1 47.5,-118.1"/>
<g id="a_edge3&#45;headlabel"><a xlink:href="dir_000011_000003.html" target="_top" xlink:title="3">
<text text-anchor="middle" x="50.34" y="-119.2" font-family="Helvetica,sans-Serif" font-size="10.00">3</text>
</a>
</g>
</g>
<!-- dir_0d978a9800fb2fc24fc10a828de6613e -->
<g id="node3" class="node">
<title>dir_0d978a9800fb2fc24fc10a828de6613e</title>
<g id="a_node3"><a xlink:href="dir_0d978a9800fb2fc24fc10a828de6613e.html" target="_top" xlink:title="Iterators">
<polygon fill="none" stroke="black" points="54,-36 0,-36 0,0 54,0 54,-36"/>
<text text-anchor="middle" x="27" y="-15.5" font-family="Helvetica,sans-Serif" font-size="10.00">Iterators</text>
</a>
</g>
</g>
<!-- dir_86e8a13349b00c7c670381dcafde0a24&#45;&gt;dir_0d978a9800fb2fc24fc10a828de6613e -->
<g id="edge4" class="edge">
<title>dir_86e8a13349b00c7c670381dcafde0a24&#45;&gt;dir_0d978a9800fb2fc24fc10a828de6613e</title>
<path fill="none" stroke="black" d="M28.39,-143.77C20.63,-134.03 12.05,-121.18 8,-108 1.68,-87.45 7.45,-63.61 14.23,-45.77"/>
<polygon fill="black" stroke="black" points="17.57,-46.87 18.15,-36.29 11.1,-44.2 17.57,-46.87"/>
<g id="a_edge4&#45;headlabel"><a xlink:href="dir_000011_000004.html" target="_top" xlink:title="3">
<text text-anchor="middle" x="18.82" y="-48.78" font-family="Helvetica,sans-Serif" font-size="10.00">3</text>
</a>
</g>
</g>
<!-- dir_c6f217e94bf31060ef21562991f0348e -->
<g id="node4" class="node">
<title>dir_c6f217e94bf31060ef21562991f0348e</title>
<g id="a_node4"><a xlink:href="dir_c6f217e94bf31060ef21562991f0348e.html" target="_top" xlink:title="ErrorLog">
<polygon fill="none" stroke="black" points="126,-36 72,-36 72,0 126,0 126,-36"/>
<text text-anchor="middle" x="99" y="-15.5" font-family="Helvetica,sans-Serif" font-size="10.00">ErrorLog</text>
</a>
</g>
</g>
<!-- dir_86e8a13349b00c7c670381dcafde0a24&#45;&gt;dir_c6f217e94bf31060ef21562991f0348e -->
<g id="edge5" class="edge">
<title>dir_86e8a13349b00c7c670381dcafde0a24&#45;&gt;dir_c6f217e94bf31060ef21562991f0348e</title>
<path fill="none" stroke="black" d="M58.16,-143.85C65.69,-133.93 74.5,-120.89 80,-108 88.41,-88.29 93.24,-64.49 95.93,-46.46"/>
<polygon fill="black" stroke="black" points="99.43,-46.71 97.3,-36.33 92.49,-45.76 99.43,-46.71"/>
<g id="a_edge5&#45;headlabel"><a xlink:href="dir_000011_000009.html" target="_top" xlink:title="1">
<text text-anchor="middle" x="101.76" y="-48.15" font-family="Helvetica,sans-Serif" font-size="10.00">1</text>
</a>
</g>
</g>
<!-- dir_90e1d5272fab08062538f61116ed9329&#45;&gt;dir_0d978a9800fb2fc24fc10a828de6613e -->
<g id="edge1" class="edge">
<title>dir_90e1d5272fab08062538f61116ed9329&#45;&gt;dir_0d978a9800fb2fc24fc10a828de6613e</title>
<path fill="none" stroke="black" d="M33.88,-71.7C31.21,-63.98 28.74,-54.71 26.99,-46.11"/>
<polygon fill="black" stroke="black" points="30.41,-45.36 25.26,-36.1 23.51,-46.55 30.41,-45.36"/>
<g id="a_edge1&#45;headlabel"><a xlink:href="dir_000003_000004.html" target="_top" xlink:title="1">
<text text-anchor="middle" x="33.82" y="-45.92" font-family="Helvetica,sans-Serif" font-size="10.00">1</text>
</a>
</g>
</g>
<!-- dir_90e1d5272fab08062538f61116ed9329&#45;&gt;dir_c6f217e94bf31060ef21562991f0348e -->
<g id="edge2" class="edge">
<title>dir_90e1d5272fab08062538f61116ed9329&#45;&gt;dir_c6f217e94bf31060ef21562991f0348e</title>
<path fill="none" stroke="black" d="M57.6,-71.7C64.12,-63.39 72.07,-53.28 79.25,-44.14"/>
<polygon fill="black" stroke="black" points="82.13,-46.13 85.56,-36.1 76.63,-41.81 82.13,-46.13"/>
<g id="a_edge2&#45;headlabel"><a xlink:href="dir_000003_000009.html" target="_top" xlink:title="1">
<text text-anchor="middle" x="82.15" y="-48.21" font-family="Helvetica,sans-Serif" font-size="10.00">1</text>
</a>
</g>
</g>
<!-- dir_0d978a9800fb2fc24fc10a828de6613e&#45;&gt;dir_90e1d5272fab08062538f61116ed9329 -->
<g id="edge6" class="edge">
<title>dir_0d978a9800fb2fc24fc10a828de6613e&#45;&gt;dir_90e1d5272fab08062538f61116ed9329</title>
<path fill="none" stroke="black" d="M37.05,-36.1C39.72,-43.79 42.21,-53.05 43.97,-61.67"/>
<polygon fill="black" stroke="black" points="40.55,-62.45 45.71,-71.7 47.44,-61.24 40.55,-62.45"/>
<g id="a_edge6&#45;headlabel"><a xlink:href="dir_000004_000003.html" target="_top" xlink:title="1">
<text text-anchor="middle" x="37.13" y="-56.89" font-family="Helvetica,sans-Serif" font-size="10.00">1</text>
</a>
</g>
</g>
</g>
</svg>
