<?xml version="1.0" encoding="UTF-8" standalone="no"?>
<!DOCTYPE svg PUBLIC "-//W3C//DTD SVG 1.1//EN"
 "http://www.w3.org/Graphics/SVG/1.1/DTD/svg11.dtd">
<!-- Generated by graphviz version 2.43.0 (0)
 -->
<!-- Title: ErrorManager.h Pages: 1 -->
<!--zoomable 644 -->
<svg id="main" version="1.1" xmlns="http://www.w3.org/2000/svg" xmlns:xlink="http://www.w3.org/1999/xlink" xml:space="preserve" onload="init(evt)">
<style type="text/css"><![CDATA[
.edge:hover path { stroke: red; }
.edge:hover polygon { stroke: red; fill: red; }
]]></style>
<script type="text/javascript"><![CDATA[
var edges = document.getElementsByTagName('g');
if (edges && edges.length) {
  for (var i=0;i<edges.length;i++) {
    if (edges[i].id.substr(0,4)=='edge') {
      edges[i].setAttribute('class','edge');
    }
  }
}
]]></script>
        <defs>
                <circle id="rim" cx="0" cy="0" r="7"/>
                <circle id="rim2" cx="0" cy="0" r="3.5"/>
                <g id="zoomPlus">
                        <use xlink:href="#rim" fill="#404040">
                                <set attributeName="fill" to="#808080" begin="zoomplus.mouseover" end="zoomplus.mouseout"/>
                        </use>
                        <path d="M-4,0h8M0,-4v8" fill="none" stroke="white" stroke-width="1.5" pointer-events="none"/>
                </g>
                <g id="zoomMin">
                        <use xlink:href="#rim" fill="#404040">
                                <set attributeName="fill" to="#808080" begin="zoomminus.mouseover" end="zoomminus.mouseout"/>
                        </use>
                        <path d="M-4,0h8" fill="none" stroke="white" stroke-width="1.5" pointer-events="none"/>
                </g>
                <g id="dirArrow">
                        <path fill="none" stroke="white" stroke-width="1.5" d="M0,-3.0v7 M-2.5,-0.5L0,-3.0L2.5,-0.5"/>
                </g>
               <g id="resetDef">
                       <use xlink:href="#rim2" fill="#404040">
                               <set attributeName="fill" to="#808080" begin="reset.mouseover" end="reset.mouseout"/>
                       </use>
               </g>
        </defs>

<script type="text/javascript">
var viewWidth = 1655;
var viewHeight = 644;
var sectionId = 'dynsection-1';
</script>
<script xlink:href="svgpan.js"/>
<svg id="graph" class="graph">
<g id="viewport">
<title>ErrorManager.h</title>
<polygon fill="white" stroke="transparent" points="-4,4 -4,-640 1651,-640 1651,4 -4,4"/>
<!-- Node1 -->
<g id="node1" class="node">
<title>Node1</title>
<g id="a_node1"><a xlink:title="Definition of the ErrorManager class responsible for error registration and throwing.">
<polygon fill="#bfbfbf" stroke="black" points="1068.5,-616.5 1068.5,-635.5 1151.5,-635.5 1151.5,-616.5 1068.5,-616.5"/>
<text text-anchor="middle" x="1110" y="-623.5" font-family="Helvetica,sans-Serif" font-size="10.00">ErrorManager.h</text>
</a>
</g>
</g>
<!-- Node2 -->
<g id="node2" class="node">
<title>Node2</title>
<g id="a_node2"><a xlink:href="DataList_8h.html" target="_top" xlink:title="Definition of templated DataStore wrapper called DataList.">
<polygon fill="white" stroke="black" points="513,-112.5 513,-131.5 575,-131.5 575,-112.5 513,-112.5"/>
<text text-anchor="middle" x="544" y="-119.5" font-family="Helvetica,sans-Serif" font-size="10.00">DataList.h</text>
</a>
</g>
</g>
<!-- Node1&#45;&gt;Node2 -->
<g id="edge1" class="edge">
<title>Node1&#45;&gt;Node2</title>
<path fill="none" stroke="midnightblue" d="M1058.43,-623.44C987.9,-618.23 870,-597.24 870,-515 870,-515 870,-515 870,-457 870,-292.84 768.83,-269.74 640,-168 618.91,-151.34 590.65,-139.05 570.26,-131.56"/>
<polygon fill="midnightblue" stroke="midnightblue" points="1058.26,-626.93 1068.47,-624.09 1058.72,-619.95 1058.26,-626.93"/>
</g>
<!-- Node3 -->
<g id="node3" class="node">
<title>Node3</title>
<g id="a_node3"><a xlink:href="LLU_8h.html" target="_top" xlink:title="Header file which includes all major parts of LLU.">
<polygon fill="white" stroke="black" points="522.5,-0.5 522.5,-19.5 565.5,-19.5 565.5,-0.5 522.5,-0.5"/>
<text text-anchor="middle" x="544" y="-7.5" font-family="Helvetica,sans-Serif" font-size="10.00">LLU.h</text>
</a>
</g>
</g>
<!-- Node1&#45;&gt;Node3 -->
<g id="edge69" class="edge">
<title>Node1&#45;&gt;Node3</title>
<path fill="none" stroke="midnightblue" d="M1058.41,-624.91C851.13,-623.9 90,-613.47 90,-515 90,-515 90,-515 90,-121 90,-30.88 432.18,-14.33 522.41,-11.53"/>
<polygon fill="midnightblue" stroke="midnightblue" points="1058.42,-628.41 1068.43,-624.96 1058.45,-621.41 1058.42,-628.41"/>
</g>
<!-- Node4 -->
<g id="node4" class="node">
<title>Node4</title>
<g id="a_node4"><a xlink:href="MArgumentManager_8h.html" target="_top" xlink:title="Definition of MArgumentManager class.">
<polygon fill="white" stroke="black" points="812,-56.5 812,-75.5 924,-75.5 924,-56.5 812,-56.5"/>
<text text-anchor="middle" x="868" y="-63.5" font-family="Helvetica,sans-Serif" font-size="10.00">MArgumentManager.h</text>
</a>
</g>
</g>
<!-- Node1&#45;&gt;Node4 -->
<g id="edge70" class="edge">
<title>Node1&#45;&gt;Node4</title>
<path fill="none" stroke="midnightblue" d="M1104.78,-606.39C1099.16,-584.65 1091,-547.51 1091,-515 1091,-515 1091,-515 1091,-289 1091,-265.1 1052.79,-128.11 1036,-112 1019.55,-96.22 964.06,-83.4 921.3,-75.53"/>
<polygon fill="midnightblue" stroke="midnightblue" points="1101.46,-607.5 1107.44,-616.25 1108.22,-605.68 1101.46,-607.5"/>
</g>
<!-- Node8 -->
<g id="node8" class="node">
<title>Node8</title>
<g id="a_node8"><a xlink:href="Base_8hpp.html" target="_top" xlink:title="Definitions of MContainerBase and MContainer class templates.">
<polygon fill="white" stroke="black" points="621,-560.5 621,-579.5 679,-579.5 679,-560.5 621,-560.5"/>
<text text-anchor="middle" x="650" y="-567.5" font-family="Helvetica,sans-Serif" font-size="10.00">Base.hpp</text>
</a>
</g>
</g>
<!-- Node1&#45;&gt;Node8 -->
<g id="edge8" class="edge">
<title>Node1&#45;&gt;Node8</title>
<path fill="none" stroke="midnightblue" d="M1058.22,-618.92C961.3,-607.54 755.43,-583.38 679.19,-574.43"/>
<polygon fill="midnightblue" stroke="midnightblue" points="1058.03,-622.42 1068.37,-620.11 1058.84,-615.47 1058.03,-622.42"/>
</g>
<!-- Node17 -->
<g id="node17" class="node">
<title>Node17</title>
<g id="a_node17"><a xlink:href="Views_2Image_8hpp.html" target="_top" xlink:title="Definition and implementation of ImageView and ImageTypedView.">
<polygon fill="white" stroke="black" points="0,-392.5 0,-411.5 62,-411.5 62,-392.5 0,-392.5"/>
<text text-anchor="middle" x="31" y="-399.5" font-family="Helvetica,sans-Serif" font-size="10.00">Image.hpp</text>
</a>
</g>
</g>
<!-- Node1&#45;&gt;Node17 -->
<g id="edge68" class="edge">
<title>Node1&#45;&gt;Node17</title>
<path fill="none" stroke="midnightblue" d="M1058.19,-624.45C854.04,-622.05 114.43,-611.25 76,-580 23.11,-536.99 27.32,-441.38 30.02,-411.86"/>
<polygon fill="midnightblue" stroke="midnightblue" points="1058.31,-627.95 1068.35,-624.57 1058.39,-620.95 1058.31,-627.95"/>
</g>
<!-- Node30 -->
<g id="node30" class="node">
<title>Node30</title>
<g id="a_node30"><a xlink:href="ProgressMonitor_8cpp.html" target="_top" xlink:title="Implementation file for ProgressMonitor class.">
<polygon fill="white" stroke="black" points="970,-56.5 970,-75.5 1076,-75.5 1076,-56.5 970,-56.5"/>
<text text-anchor="middle" x="1023" y="-63.5" font-family="Helvetica,sans-Serif" font-size="10.00">ProgressMonitor.cpp</text>
</a>
</g>
</g>
<!-- Node1&#45;&gt;Node30 -->
<g id="edge75" class="edge">
<title>Node1&#45;&gt;Node30</title>
<path fill="none" stroke="midnightblue" d="M1115.22,-606.39C1120.84,-584.65 1129,-547.51 1129,-515 1129,-515 1129,-515 1129,-457 1129,-301.44 1151.97,-244.21 1070,-112 1060.83,-97.21 1045.69,-83.93 1035.07,-75.7"/>
<polygon fill="midnightblue" stroke="midnightblue" points="1111.78,-605.68 1112.56,-616.25 1118.54,-607.5 1111.78,-605.68"/>
</g>
<!-- Node33 -->
<g id="node33" class="node">
<title>Node33</title>
<g id="a_node33"><a xlink:href="MArrayDimensions_8h.html" target="_top" xlink:title=" ">
<polygon fill="white" stroke="black" points="949,-280.5 949,-299.5 1057,-299.5 1057,-280.5 949,-280.5"/>
<text text-anchor="middle" x="1003" y="-287.5" font-family="Helvetica,sans-Serif" font-size="10.00">MArrayDimensions.h</text>
</a>
</g>
</g>
<!-- Node1&#45;&gt;Node33 -->
<g id="edge61" class="edge">
<title>Node1&#45;&gt;Node33</title>
<path fill="none" stroke="midnightblue" d="M1088.88,-610.14C1064.59,-591.13 1028,-555.73 1028,-515 1028,-515 1028,-515 1028,-401 1028,-362.42 1013.2,-318.08 1006.37,-299.69"/>
<polygon fill="midnightblue" stroke="midnightblue" points="1087.09,-613.18 1097.19,-616.39 1091.3,-607.58 1087.09,-613.18"/>
</g>
<!-- Node36 -->
<g id="node36" class="node">
<title>Node36</title>
<g id="a_node36"><a xlink:href="ErrorManager_8cpp.html" target="_top" xlink:title=" ">
<polygon fill="white" stroke="black" points="1157.5,-560.5 1157.5,-579.5 1250.5,-579.5 1250.5,-560.5 1157.5,-560.5"/>
<text text-anchor="middle" x="1204" y="-567.5" font-family="Helvetica,sans-Serif" font-size="10.00">ErrorManager.cpp</text>
</a>
</g>
</g>
<!-- Node1&#45;&gt;Node36 -->
<g id="edge71" class="edge">
<title>Node1&#45;&gt;Node36</title>
<path fill="none" stroke="midnightblue" d="M1134.06,-611.18C1151.36,-601.24 1174.15,-588.15 1188.93,-579.65"/>
<polygon fill="midnightblue" stroke="midnightblue" points="1132.03,-608.31 1125.1,-616.32 1135.52,-614.38 1132.03,-608.31"/>
</g>
<!-- Node37 -->
<g id="node37" class="node">
<title>Node37</title>
<g id="a_node37"><a xlink:href="FileUtilities_8cpp.html" target="_top" xlink:title=" ">
<polygon fill="white" stroke="black" points="1269,-560.5 1269,-579.5 1353,-579.5 1353,-560.5 1269,-560.5"/>
<text text-anchor="middle" x="1311" y="-567.5" font-family="Helvetica,sans-Serif" font-size="10.00">FileUtilities.cpp</text>
</a>
</g>
</g>
<!-- Node1&#45;&gt;Node37 -->
<g id="edge72" class="edge">
<title>Node1&#45;&gt;Node37</title>
<path fill="none" stroke="midnightblue" d="M1151.58,-613.83C1189.53,-603.63 1244.81,-588.78 1279.3,-579.52"/>
<polygon fill="midnightblue" stroke="midnightblue" points="1150.6,-610.47 1141.85,-616.44 1152.41,-617.23 1150.6,-610.47"/>
</g>
<!-- Node38 -->
<g id="node38" class="node">
<title>Node38</title>
<g id="a_node38"><a xlink:href="LibraryData_8cpp.html" target="_top" xlink:title=" ">
<polygon fill="white" stroke="black" points="1371,-560.5 1371,-579.5 1457,-579.5 1457,-560.5 1371,-560.5"/>
<text text-anchor="middle" x="1414" y="-567.5" font-family="Helvetica,sans-Serif" font-size="10.00">LibraryData.cpp</text>
</a>
</g>
</g>
<!-- Node1&#45;&gt;Node38 -->
<g id="edge73" class="edge">
<title>Node1&#45;&gt;Node38</title>
<path fill="none" stroke="midnightblue" d="M1161.84,-615.79C1220.76,-605.32 1315.89,-588.43 1370.91,-578.65"/>
<polygon fill="midnightblue" stroke="midnightblue" points="1160.87,-612.41 1151.63,-617.6 1162.09,-619.3 1160.87,-612.41"/>
</g>
<!-- Node39 -->
<g id="node39" class="node">
<title>Node39</title>
<g id="a_node39"><a xlink:href="MArgument_8cpp.html" target="_top" xlink:title="Specializations of PrimitiveWrapper class template members.">
<polygon fill="white" stroke="black" points="1475,-560.5 1475,-579.5 1561,-579.5 1561,-560.5 1475,-560.5"/>
<text text-anchor="middle" x="1518" y="-567.5" font-family="Helvetica,sans-Serif" font-size="10.00">MArgument.cpp</text>
</a>
</g>
</g>
<!-- Node1&#45;&gt;Node39 -->
<g id="edge74" class="edge">
<title>Node1&#45;&gt;Node39</title>
<path fill="none" stroke="midnightblue" d="M1161.97,-619.18C1231.39,-611.24 1358.17,-596.14 1466,-580 1468.9,-579.57 1471.89,-579.1 1474.89,-578.62"/>
<polygon fill="midnightblue" stroke="midnightblue" points="1161.28,-615.74 1151.74,-620.35 1162.07,-622.69 1161.28,-615.74"/>
</g>
<!-- Node40 -->
<g id="node40" class="node">
<title>Node40</title>
<g id="a_node40"><a xlink:href="Utilities_8cpp.html" target="_top" xlink:title="Implementation file with miscellaneous definitions used throughout the WSTP&#45;related part of LibraryLi...">
<polygon fill="white" stroke="black" points="1579,-560.5 1579,-579.5 1647,-579.5 1647,-560.5 1579,-560.5"/>
<text text-anchor="middle" x="1613" y="-567.5" font-family="Helvetica,sans-Serif" font-size="10.00">Utilities.cpp</text>
</a>
</g>
</g>
<!-- Node1&#45;&gt;Node40 -->
<g id="edge76" class="edge">
<title>Node1&#45;&gt;Node40</title>
<path fill="none" stroke="midnightblue" d="M1161.95,-621.77C1247.41,-616.04 1422.85,-602.53 1570,-580 1572.86,-579.56 1575.83,-579.05 1578.79,-578.51"/>
<polygon fill="midnightblue" stroke="midnightblue" points="1161.48,-618.29 1151.74,-622.44 1161.95,-625.28 1161.48,-618.29"/>
</g>
<!-- Node2&#45;&gt;Node3 -->
<g id="edge2" class="edge">
<title>Node2&#45;&gt;Node3</title>
<path fill="none" stroke="midnightblue" d="M544,-102.35C544,-78.25 544,-37.31 544,-19.59"/>
<polygon fill="midnightblue" stroke="midnightblue" points="540.5,-102.37 544,-112.37 547.5,-102.37 540.5,-102.37"/>
</g>
<!-- Node2&#45;&gt;Node4 -->
<g id="edge3" class="edge">
<title>Node2&#45;&gt;Node4</title>
<path fill="none" stroke="midnightblue" d="M585.14,-114.14C644.19,-104.3 752.88,-86.19 816.97,-75.5"/>
<polygon fill="midnightblue" stroke="midnightblue" points="584.35,-110.73 575.07,-115.82 585.51,-117.63 584.35,-110.73"/>
</g>
<!-- Node4&#45;&gt;Node3 -->
<g id="edge4" class="edge">
<title>Node4&#45;&gt;Node3</title>
<path fill="none" stroke="midnightblue" d="M806.62,-54.77C733.22,-42.54 614.2,-22.7 565.66,-14.61"/>
<polygon fill="midnightblue" stroke="midnightblue" points="806.22,-58.25 816.66,-56.44 807.37,-51.35 806.22,-58.25"/>
</g>
<!-- Node5 -->
<g id="node5" class="node">
<title>Node5</title>
<g id="a_node5"><a xlink:href="LibraryLinkError_8cpp.html" target="_top" xlink:title="Contains definitions of ErrorManager members and implementation of interface function sendRegisteredE...">
<polygon fill="white" stroke="black" points="752.5,-0.5 752.5,-19.5 855.5,-19.5 855.5,-0.5 752.5,-0.5"/>
<text text-anchor="middle" x="804" y="-7.5" font-family="Helvetica,sans-Serif" font-size="10.00">LibraryLinkError.cpp</text>
</a>
</g>
</g>
<!-- Node4&#45;&gt;Node5 -->
<g id="edge5" class="edge">
<title>Node4&#45;&gt;Node5</title>
<path fill="none" stroke="midnightblue" d="M850.01,-49.82C838.54,-40.15 824.09,-27.95 814.47,-19.83"/>
<polygon fill="midnightblue" stroke="midnightblue" points="847.82,-52.55 857.72,-56.32 852.33,-47.2 847.82,-52.55"/>
</g>
<!-- Node6 -->
<g id="node6" class="node">
<title>Node6</title>
<g id="a_node6"><a xlink:href="Logger_8cpp.html" target="_top" xlink:title="Implementation of functions defined in Logger.h.">
<polygon fill="white" stroke="black" points="874,-0.5 874,-19.5 938,-19.5 938,-0.5 874,-0.5"/>
<text text-anchor="middle" x="906" y="-7.5" font-family="Helvetica,sans-Serif" font-size="10.00">Logger.cpp</text>
</a>
</g>
</g>
<!-- Node4&#45;&gt;Node6 -->
<g id="edge6" class="edge">
<title>Node4&#45;&gt;Node6</title>
<path fill="none" stroke="midnightblue" d="M880.06,-47.86C886.64,-38.5 894.51,-27.33 899.84,-19.75"/>
<polygon fill="midnightblue" stroke="midnightblue" points="877.17,-45.89 874.27,-56.08 882.89,-49.92 877.17,-45.89"/>
</g>
<!-- Node7 -->
<g id="node7" class="node">
<title>Node7</title>
<g id="a_node7"><a xlink:href="MArgumentManager_8cpp.html" target="_top" xlink:title="Definitions of non&#45;template member functions and static data members from MArgumentManager class.">
<polygon fill="white" stroke="black" points="1032,-0.5 1032,-19.5 1154,-19.5 1154,-0.5 1032,-0.5"/>
<text text-anchor="middle" x="1093" y="-7.5" font-family="Helvetica,sans-Serif" font-size="10.00">MArgumentManager.cpp</text>
</a>
</g>
</g>
<!-- Node4&#45;&gt;Node7 -->
<g id="edge7" class="edge">
<title>Node4&#45;&gt;Node7</title>
<path fill="none" stroke="midnightblue" d="M913.47,-54.09C955.97,-43.89 1018.58,-28.86 1057.51,-19.52"/>
<polygon fill="midnightblue" stroke="midnightblue" points="912.56,-50.71 903.65,-56.44 914.19,-57.51 912.56,-50.71"/>
</g>
<!-- Node9 -->
<g id="node9" class="node">
<title>Node9</title>
<g id="a_node9"><a xlink:href="Generic_2DataStore_8hpp.html" target="_top" xlink:title="Definition and implementation of generic DataStore wrapper.">
<polygon fill="white" stroke="black" points="534,-280.5 534,-299.5 614,-299.5 614,-280.5 534,-280.5"/>
<text text-anchor="middle" x="574" y="-287.5" font-family="Helvetica,sans-Serif" font-size="10.00">DataStore.hpp</text>
</a>
</g>
</g>
<!-- Node8&#45;&gt;Node9 -->
<g id="edge9" class="edge">
<title>Node8&#45;&gt;Node9</title>
<path fill="none" stroke="midnightblue" d="M675.66,-555.43C710.8,-534.85 767.53,-493.32 749,-448 718.18,-372.63 629.12,-319.38 591.31,-299.55"/>
<polygon fill="midnightblue" stroke="midnightblue" points="673.81,-552.46 666.83,-560.43 677.26,-558.55 673.81,-552.46"/>
</g>
<!-- Node14 -->
<g id="node14" class="node">
<title>Node14</title>
<g id="a_node14"><a xlink:href="Generic_2Image_8hpp.html" target="_top" xlink:title="GenericImage definition and implementation.">
<polygon fill="white" stroke="black" points="210,-448.5 210,-467.5 272,-467.5 272,-448.5 210,-448.5"/>
<text text-anchor="middle" x="241" y="-455.5" font-family="Helvetica,sans-Serif" font-size="10.00">Image.hpp</text>
</a>
</g>
</g>
<!-- Node8&#45;&gt;Node14 -->
<g id="edge16" class="edge">
<title>Node8&#45;&gt;Node14</title>
<path fill="none" stroke="midnightblue" d="M611.14,-558.55C530.37,-536.83 345.78,-487.18 272.16,-467.38"/>
<polygon fill="midnightblue" stroke="midnightblue" points="610.35,-561.96 620.91,-561.18 612.17,-555.2 610.35,-561.96"/>
</g>
<!-- Node20 -->
<g id="node20" class="node">
<title>Node20</title>
<g id="a_node20"><a xlink:href="Generic_2NumericArray_8hpp.html" target="_top" xlink:title="GenericNumericArray definition and implementation.">
<polygon fill="white" stroke="black" points="382,-448.5 382,-467.5 476,-467.5 476,-448.5 382,-448.5"/>
<text text-anchor="middle" x="429" y="-455.5" font-family="Helvetica,sans-Serif" font-size="10.00">NumericArray.hpp</text>
</a>
</g>
</g>
<!-- Node8&#45;&gt;Node20 -->
<g id="edge33" class="edge">
<title>Node8&#45;&gt;Node20</title>
<path fill="none" stroke="midnightblue" d="M623.64,-555.88C577.83,-533.08 484.75,-486.75 446.26,-467.59"/>
<polygon fill="midnightblue" stroke="midnightblue" points="622.15,-559.05 632.66,-560.37 625.27,-552.78 622.15,-559.05"/>
</g>
<!-- Node24 -->
<g id="node24" class="node">
<title>Node24</title>
<g id="a_node24"><a xlink:href="SparseArray_8hpp.html" target="_top" xlink:title="GenericSparseArray definition and implementation.">
<polygon fill="white" stroke="black" points="652,-448.5 652,-467.5 740,-467.5 740,-448.5 652,-448.5"/>
<text text-anchor="middle" x="696" y="-455.5" font-family="Helvetica,sans-Serif" font-size="10.00">SparseArray.hpp</text>
</a>
</g>
</g>
<!-- Node8&#45;&gt;Node24 -->
<g id="edge42" class="edge">
<title>Node8&#45;&gt;Node24</title>
<path fill="none" stroke="midnightblue" d="M657.53,-551C667.56,-527 684.93,-485.47 692.41,-467.59"/>
<polygon fill="midnightblue" stroke="midnightblue" points="654.24,-549.79 653.61,-560.37 660.7,-552.49 654.24,-549.79"/>
</g>
<!-- Node27 -->
<g id="node27" class="node">
<title>Node27</title>
<g id="a_node27"><a xlink:href="Generic_2Tensor_8hpp.html" target="_top" xlink:title="GenericTensor definition and implementation.">
<polygon fill="white" stroke="black" points="579,-504.5 579,-523.5 643,-523.5 643,-504.5 579,-504.5"/>
<text text-anchor="middle" x="611" y="-511.5" font-family="Helvetica,sans-Serif" font-size="10.00">Tensor.hpp</text>
</a>
</g>
</g>
<!-- Node8&#45;&gt;Node27 -->
<g id="edge48" class="edge">
<title>Node8&#45;&gt;Node27</title>
<path fill="none" stroke="midnightblue" d="M637.62,-551.86C630.86,-542.5 622.79,-531.33 617.32,-523.75"/>
<polygon fill="midnightblue" stroke="midnightblue" points="634.87,-554.03 643.56,-560.08 640.54,-549.93 634.87,-554.03"/>
</g>
<!-- Node9&#45;&gt;Node2 -->
<g id="edge10" class="edge">
<title>Node9&#45;&gt;Node2</title>
<path fill="none" stroke="midnightblue" d="M569.12,-270.55C567.07,-262.44 564.76,-252.78 563,-244 554.6,-202.09 547.68,-151.4 545.09,-131.55"/>
<polygon fill="midnightblue" stroke="midnightblue" points="565.78,-271.62 571.68,-280.42 572.56,-269.86 565.78,-271.62"/>
</g>
<!-- Node10 -->
<g id="node10" class="node">
<title>Node10</title>
<g id="a_node10"><a xlink:href="DataNode_8hpp.html" target="_top" xlink:title=" ">
<polygon fill="white" stroke="black" points="436,-224.5 436,-243.5 516,-243.5 516,-224.5 436,-224.5"/>
<text text-anchor="middle" x="476" y="-231.5" font-family="Helvetica,sans-Serif" font-size="10.00">DataNode.hpp</text>
</a>
</g>
</g>
<!-- Node9&#45;&gt;Node10 -->
<g id="edge11" class="edge">
<title>Node9&#45;&gt;Node10</title>
<path fill="none" stroke="midnightblue" d="M549.41,-275.45C531.32,-265.48 507.27,-252.23 491.71,-243.65"/>
<polygon fill="midnightblue" stroke="midnightblue" points="547.81,-278.56 558.25,-280.32 551.19,-272.43 547.81,-278.56"/>
</g>
<!-- Node12 -->
<g id="node12" class="node">
<title>Node12</title>
<g id="a_node12"><a xlink:href="DataStore_8cpp.html" target="_top" xlink:title=" ">
<polygon fill="white" stroke="black" points="572,-224.5 572,-243.5 652,-243.5 652,-224.5 572,-224.5"/>
<text text-anchor="middle" x="612" y="-231.5" font-family="Helvetica,sans-Serif" font-size="10.00">DataStore.cpp</text>
</a>
</g>
</g>
<!-- Node9&#45;&gt;Node12 -->
<g id="edge14" class="edge">
<title>Node9&#45;&gt;Node12</title>
<path fill="none" stroke="midnightblue" d="M586.06,-271.86C592.64,-262.5 600.51,-251.33 605.84,-243.75"/>
<polygon fill="midnightblue" stroke="midnightblue" points="583.17,-269.89 580.27,-280.08 588.89,-273.92 583.17,-269.89"/>
</g>
<!-- Node13 -->
<g id="node13" class="node">
<title>Node13</title>
<g id="a_node13"><a xlink:href="TypedMArgument_8cpp.html" target="_top" xlink:title=" ">
<polygon fill="white" stroke="black" points="268,-224.5 268,-243.5 380,-243.5 380,-224.5 268,-224.5"/>
<text text-anchor="middle" x="324" y="-231.5" font-family="Helvetica,sans-Serif" font-size="10.00">TypedMArgument.cpp</text>
</a>
</g>
</g>
<!-- Node9&#45;&gt;Node13 -->
<g id="edge15" class="edge">
<title>Node9&#45;&gt;Node13</title>
<path fill="none" stroke="midnightblue" d="M524.38,-278.28C477.13,-268.08 406.96,-252.92 363.43,-243.52"/>
<polygon fill="midnightblue" stroke="midnightblue" points="523.87,-281.75 534.39,-280.44 525.35,-274.91 523.87,-281.75"/>
</g>
<!-- Node11 -->
<g id="node11" class="node">
<title>Node11</title>
<g id="a_node11"><a xlink:href="DataList_8hpp.html" target="_top" xlink:title="Special iterators for DataLists. Iteration over keys, values, reversed iteration.">
<polygon fill="white" stroke="black" points="442,-168.5 442,-187.5 514,-187.5 514,-168.5 442,-168.5"/>
<text text-anchor="middle" x="478" y="-175.5" font-family="Helvetica,sans-Serif" font-size="10.00">DataList.hpp</text>
</a>
</g>
</g>
<!-- Node10&#45;&gt;Node11 -->
<g id="edge12" class="edge">
<title>Node10&#45;&gt;Node11</title>
<path fill="none" stroke="midnightblue" d="M476.71,-213.8C477.04,-204.91 477.42,-194.78 477.68,-187.75"/>
<polygon fill="midnightblue" stroke="midnightblue" points="473.2,-213.96 476.33,-224.08 480.2,-214.22 473.2,-213.96"/>
</g>
<!-- Node11&#45;&gt;Node2 -->
<g id="edge13" class="edge">
<title>Node11&#45;&gt;Node2</title>
<path fill="none" stroke="midnightblue" d="M496.55,-161.82C508.38,-152.15 523.29,-139.95 533.2,-131.83"/>
<polygon fill="midnightblue" stroke="midnightblue" points="494.13,-159.28 488.6,-168.32 498.56,-164.7 494.13,-159.28"/>
</g>
<!-- Node14&#45;&gt;Node13 -->
<g id="edge32" class="edge">
<title>Node14&#45;&gt;Node13</title>
<path fill="none" stroke="midnightblue" d="M252.35,-440.12C264.97,-420.63 285.13,-387.25 297,-356 312.36,-315.56 320.24,-264.03 322.92,-243.75"/>
<polygon fill="midnightblue" stroke="midnightblue" points="249.41,-438.22 246.83,-448.5 255.26,-442.07 249.41,-438.22"/>
</g>
<!-- Node15 -->
<g id="node15" class="node">
<title>Node15</title>
<g id="a_node15"><a xlink:href="Image_8h.html" target="_top" xlink:title="Templated C++ wrapper for MImage.">
<polygon fill="white" stroke="black" points="372,-168.5 372,-187.5 424,-187.5 424,-168.5 372,-168.5"/>
<text text-anchor="middle" x="398" y="-175.5" font-family="Helvetica,sans-Serif" font-size="10.00">Image.h</text>
</a>
</g>
</g>
<!-- Node14&#45;&gt;Node15 -->
<g id="edge17" class="edge">
<title>Node14&#45;&gt;Node15</title>
<path fill="none" stroke="midnightblue" d="M225.01,-440.84C204.58,-418.17 173.19,-375.29 185,-336 202.17,-278.86 211.5,-260.11 259,-224 292.82,-198.29 341.89,-186.96 371.78,-182.2"/>
<polygon fill="midnightblue" stroke="midnightblue" points="222.54,-443.33 231.94,-448.24 227.65,-438.55 222.54,-443.33"/>
</g>
<!-- Node16 -->
<g id="node16" class="node">
<title>Node16</title>
<g id="a_node16"><a xlink:href="Image_8cpp.html" target="_top" xlink:title="Template specializations of Image::type attribute for all data types that we want to support.">
<polygon fill="white" stroke="black" points="265,-112.5 265,-131.5 327,-131.5 327,-112.5 265,-112.5"/>
<text text-anchor="middle" x="296" y="-119.5" font-family="Helvetica,sans-Serif" font-size="10.00">Image.cpp</text>
</a>
</g>
</g>
<!-- Node14&#45;&gt;Node16 -->
<g id="edge31" class="edge">
<title>Node14&#45;&gt;Node16</title>
<path fill="none" stroke="midnightblue" d="M211.43,-443.92C177.95,-426.86 128,-393.6 128,-347 128,-347 128,-347 128,-289 128,-206.99 230.54,-151.8 275.4,-131.58"/>
<polygon fill="midnightblue" stroke="midnightblue" points="210.28,-447.25 220.8,-448.49 213.35,-440.96 210.28,-447.25"/>
</g>
<!-- Node14&#45;&gt;Node17 -->
<g id="edge21" class="edge">
<title>Node14&#45;&gt;Node17</title>
<path fill="none" stroke="midnightblue" d="M199.77,-446.4C159.42,-436.02 98.86,-420.45 62.31,-411.05"/>
<polygon fill="midnightblue" stroke="midnightblue" points="199,-449.81 209.56,-448.92 200.75,-443.04 199,-449.81"/>
</g>
<!-- Node18 -->
<g id="node18" class="node">
<title>Node18</title>
<g id="a_node18"><a xlink:href="TypedMArgument_8h.html" target="_top" xlink:title=" ">
<polygon fill="white" stroke="black" points="532.5,-392.5 532.5,-411.5 633.5,-411.5 633.5,-392.5 532.5,-392.5"/>
<text text-anchor="middle" x="583" y="-399.5" font-family="Helvetica,sans-Serif" font-size="10.00">TypedMArgument.h</text>
</a>
</g>
</g>
<!-- Node14&#45;&gt;Node18 -->
<g id="edge23" class="edge">
<title>Node14&#45;&gt;Node18</title>
<path fill="none" stroke="midnightblue" d="M282.2,-450.49C345.01,-440.58 464.55,-421.7 532.5,-410.97"/>
<polygon fill="midnightblue" stroke="midnightblue" points="281.59,-447.05 272.26,-452.06 282.68,-453.96 281.59,-447.05"/>
</g>
<!-- Node15&#45;&gt;Node3 -->
<g id="edge18" class="edge">
<title>Node15&#45;&gt;Node3</title>
<path fill="none" stroke="midnightblue" d="M412.77,-160.21C443.5,-125.26 513.4,-45.79 536.46,-19.57"/>
<polygon fill="midnightblue" stroke="midnightblue" points="409.83,-158.25 405.85,-168.08 415.08,-162.88 409.83,-158.25"/>
</g>
<!-- Node15&#45;&gt;Node4 -->
<g id="edge19" class="edge">
<title>Node15&#45;&gt;Node4</title>
<path fill="none" stroke="midnightblue" d="M416.69,-162.07C436.94,-146.76 470.81,-123.61 504,-112 559.45,-92.6 724.04,-77.79 811.65,-71.03"/>
<polygon fill="midnightblue" stroke="midnightblue" points="414.42,-159.4 408.65,-168.28 418.7,-164.94 414.42,-159.4"/>
</g>
<!-- Node15&#45;&gt;Node16 -->
<g id="edge20" class="edge">
<title>Node15&#45;&gt;Node16</title>
<path fill="none" stroke="midnightblue" d="M372.67,-163.59C353.81,-153.61 328.62,-140.27 312.35,-131.65"/>
<polygon fill="midnightblue" stroke="midnightblue" points="371.14,-166.74 381.61,-168.32 374.41,-160.55 371.14,-166.74"/>
</g>
<!-- Node17&#45;&gt;Node3 -->
<g id="edge22" class="edge">
<title>Node17&#45;&gt;Node3</title>
<path fill="none" stroke="midnightblue" d="M33.74,-382.3C36.7,-360.45 41,-323.18 41,-291 41,-291 41,-291 41,-121 41,-88.19 48.67,-74.16 76,-56 113.56,-31.05 435.05,-15.64 522.25,-11.89"/>
<polygon fill="midnightblue" stroke="midnightblue" points="30.24,-382.08 32.31,-392.47 37.17,-383.05 30.24,-382.08"/>
</g>
<!-- Node18&#45;&gt;Node2 -->
<g id="edge24" class="edge">
<title>Node18&#45;&gt;Node2</title>
<path fill="none" stroke="midnightblue" d="M607.53,-386.92C618.81,-379.2 631.36,-368.63 639,-356 669.78,-305.11 685.76,-278.08 661,-224 640.34,-178.86 588.44,-146.22 561.24,-131.58"/>
<polygon fill="midnightblue" stroke="midnightblue" points="605.4,-384.13 598.87,-392.48 609.18,-390.02 605.4,-384.13"/>
</g>
<!-- Node18&#45;&gt;Node9 -->
<g id="edge25" class="edge">
<title>Node18&#45;&gt;Node9</title>
<path fill="none" stroke="midnightblue" d="M602.81,-385.41C616.46,-372.65 630.84,-353.85 623,-336 616.03,-320.14 600.41,-307.42 588.66,-299.6"/>
<polygon fill="midnightblue" stroke="midnightblue" points="600.28,-382.98 595.03,-392.18 604.87,-388.26 600.28,-382.98"/>
</g>
<!-- Node18&#45;&gt;Node10 -->
<g id="edge26" class="edge">
<title>Node18&#45;&gt;Node10</title>
<path fill="none" stroke="midnightblue" d="M559.42,-386.94C547.8,-379.04 534.32,-368.31 525,-356 497.23,-319.31 482.69,-264.73 477.86,-243.69"/>
<polygon fill="midnightblue" stroke="midnightblue" points="557.55,-389.9 567.85,-392.4 561.36,-384.02 557.55,-389.9"/>
</g>
<!-- Node18&#45;&gt;Node13 -->
<g id="edge30" class="edge">
<title>Node18&#45;&gt;Node13</title>
<path fill="none" stroke="midnightblue" d="M559.08,-387.19C544.42,-378.55 525.39,-367 509,-356 461.76,-324.3 453.93,-310.64 406,-280 384.38,-266.18 358.21,-252.28 341.35,-243.66"/>
<polygon fill="midnightblue" stroke="midnightblue" points="557.62,-390.39 568.01,-392.42 561.15,-384.35 557.62,-390.39"/>
</g>
<!-- Node19 -->
<g id="node19" class="node">
<title>Node19</title>
<g id="a_node19"><a xlink:href="Iterators_2DataStore_8hpp.html" target="_top" xlink:title=" ">
<polygon fill="white" stroke="black" points="534,-336.5 534,-355.5 614,-355.5 614,-336.5 534,-336.5"/>
<text text-anchor="middle" x="574" y="-343.5" font-family="Helvetica,sans-Serif" font-size="10.00">DataStore.hpp</text>
</a>
</g>
</g>
<!-- Node18&#45;&gt;Node19 -->
<g id="edge27" class="edge">
<title>Node18&#45;&gt;Node19</title>
<path fill="none" stroke="midnightblue" d="M579.85,-382.1C578.36,-373.14 576.64,-362.86 575.46,-355.75"/>
<polygon fill="midnightblue" stroke="midnightblue" points="576.42,-382.79 581.51,-392.08 583.32,-381.64 576.42,-382.79"/>
</g>
<!-- Node19&#45;&gt;Node9 -->
<g id="edge28" class="edge">
<title>Node19&#45;&gt;Node9</title>
<path fill="none" stroke="midnightblue" d="M574,-325.8C574,-316.91 574,-306.78 574,-299.75"/>
<polygon fill="midnightblue" stroke="midnightblue" points="570.5,-326.08 574,-336.08 577.5,-326.08 570.5,-326.08"/>
</g>
<!-- Node19&#45;&gt;Node11 -->
<g id="edge29" class="edge">
<title>Node19&#45;&gt;Node11</title>
<path fill="none" stroke="midnightblue" d="M539.6,-332.55C504.08,-317.62 450.59,-288.83 427,-244 415.24,-221.66 443.76,-199.31 462.73,-187.53"/>
<polygon fill="midnightblue" stroke="midnightblue" points="538.53,-335.89 549.11,-336.4 541.15,-329.4 538.53,-335.89"/>
</g>
<!-- Node20&#45;&gt;Node13 -->
<g id="edge41" class="edge">
<title>Node20&#45;&gt;Node13</title>
<path fill="none" stroke="midnightblue" d="M405.1,-442.81C393.86,-435.02 381.17,-424.41 373,-412 353.9,-382.97 331.8,-275.03 325.66,-243.62"/>
<polygon fill="midnightblue" stroke="midnightblue" points="403.41,-445.89 413.69,-448.44 407.24,-440.03 403.41,-445.89"/>
</g>
<!-- Node20&#45;&gt;Node18 -->
<g id="edge39" class="edge">
<title>Node20&#45;&gt;Node18</title>
<path fill="none" stroke="midnightblue" d="M463.11,-445.04C492.09,-434.88 532.96,-420.55 558.71,-411.52"/>
<polygon fill="midnightblue" stroke="midnightblue" points="461.68,-441.83 453.4,-448.44 464,-448.44 461.68,-441.83"/>
</g>
<!-- Node21 -->
<g id="node21" class="node">
<title>Node21</title>
<g id="a_node21"><a xlink:href="NumericArray_8h.html" target="_top" xlink:title="Templated C++ wrapper for MNumericArray.">
<polygon fill="white" stroke="black" points="749.5,-168.5 749.5,-187.5 832.5,-187.5 832.5,-168.5 749.5,-168.5"/>
<text text-anchor="middle" x="791" y="-175.5" font-family="Helvetica,sans-Serif" font-size="10.00">NumericArray.h</text>
</a>
</g>
</g>
<!-- Node20&#45;&gt;Node21 -->
<g id="edge34" class="edge">
<title>Node20&#45;&gt;Node21</title>
<path fill="none" stroke="midnightblue" d="M486.34,-456.71C532.15,-453.86 596.05,-443.78 642,-412 728.88,-351.92 776.48,-223.03 788.14,-187.96"/>
<polygon fill="midnightblue" stroke="midnightblue" points="486.08,-453.22 476.28,-457.24 486.45,-460.21 486.08,-453.22"/>
</g>
<!-- Node22 -->
<g id="node22" class="node">
<title>Node22</title>
<g id="a_node22"><a xlink:href="Views_2NumericArray_8hpp.html" target="_top" xlink:title="Definition and implementation of NumericArrayView and NumericArrayTypedView.">
<polygon fill="white" stroke="black" points="194,-336.5 194,-355.5 288,-355.5 288,-336.5 194,-336.5"/>
<text text-anchor="middle" x="241" y="-343.5" font-family="Helvetica,sans-Serif" font-size="10.00">NumericArray.hpp</text>
</a>
</g>
</g>
<!-- Node20&#45;&gt;Node22 -->
<g id="edge37" class="edge">
<title>Node20&#45;&gt;Node22</title>
<path fill="none" stroke="midnightblue" d="M401.37,-444.03C383.58,-435.43 360.1,-423.63 340,-412 307.79,-393.36 271.64,-368.59 253.22,-355.67"/>
<polygon fill="midnightblue" stroke="midnightblue" points="400.08,-447.29 410.61,-448.45 403.1,-440.98 400.08,-447.29"/>
</g>
<!-- Node23 -->
<g id="node23" class="node">
<title>Node23</title>
<g id="a_node23"><a xlink:href="NumericArray_8cpp.html" target="_top" xlink:title="Definitions of MContainer&lt;MArgumentType::NumericArray&gt; (GenericNumericArray) methods.">
<polygon fill="white" stroke="black" points="382,-392.5 382,-411.5 476,-411.5 476,-392.5 382,-392.5"/>
<text text-anchor="middle" x="429" y="-399.5" font-family="Helvetica,sans-Serif" font-size="10.00">NumericArray.cpp</text>
</a>
</g>
</g>
<!-- Node20&#45;&gt;Node23 -->
<g id="edge40" class="edge">
<title>Node20&#45;&gt;Node23</title>
<path fill="none" stroke="midnightblue" d="M429,-437.8C429,-428.91 429,-418.78 429,-411.75"/>
<polygon fill="midnightblue" stroke="midnightblue" points="425.5,-438.08 429,-448.08 432.5,-438.08 425.5,-438.08"/>
</g>
<!-- Node21&#45;&gt;Node3 -->
<g id="edge35" class="edge">
<title>Node21&#45;&gt;Node3</title>
<path fill="none" stroke="midnightblue" d="M739.3,-171.38C705.97,-165.71 663.03,-154.42 631,-132 587.34,-101.43 557.61,-41.71 547.66,-19.55"/>
<polygon fill="midnightblue" stroke="midnightblue" points="738.89,-174.86 749.31,-172.96 739.98,-167.94 738.89,-174.86"/>
</g>
<!-- Node21&#45;&gt;Node4 -->
<g id="edge36" class="edge">
<title>Node21&#45;&gt;Node4</title>
<path fill="none" stroke="midnightblue" d="M802.93,-159.64C811.96,-146.53 824.71,-128.09 836,-112 844.92,-99.29 855.37,-84.64 861.83,-75.6"/>
<polygon fill="midnightblue" stroke="midnightblue" points="799.86,-157.92 797.08,-168.14 805.63,-161.89 799.86,-157.92"/>
</g>
<!-- Node22&#45;&gt;Node3 -->
<g id="edge38" class="edge">
<title>Node22&#45;&gt;Node3</title>
<path fill="none" stroke="midnightblue" d="M221.74,-329.79C199.52,-310.38 166,-274.56 166,-235 166,-235 166,-235 166,-121 166,-46.25 442,-18.93 522.32,-12.56"/>
<polygon fill="midnightblue" stroke="midnightblue" points="219.7,-332.65 229.61,-336.4 224.2,-327.29 219.7,-332.65"/>
</g>
<!-- Node24&#45;&gt;Node18 -->
<g id="edge47" class="edge">
<title>Node24&#45;&gt;Node18</title>
<path fill="none" stroke="midnightblue" d="M669,-444.1C647.89,-434.01 619.14,-420.27 600.82,-411.52"/>
<polygon fill="midnightblue" stroke="midnightblue" points="667.56,-447.29 678.09,-448.44 670.58,-440.97 667.56,-447.29"/>
</g>
<!-- Node25 -->
<g id="node25" class="node">
<title>Node25</title>
<g id="a_node25"><a xlink:href="SparseArray_8h.html" target="_top" xlink:title="Templated C++ wrapper for MSparseArray.">
<polygon fill="white" stroke="black" points="640.5,-112.5 640.5,-131.5 717.5,-131.5 717.5,-112.5 640.5,-112.5"/>
<text text-anchor="middle" x="679" y="-119.5" font-family="Helvetica,sans-Serif" font-size="10.00">SparseArray.h</text>
</a>
</g>
</g>
<!-- Node24&#45;&gt;Node25 -->
<g id="edge43" class="edge">
<title>Node24&#45;&gt;Node25</title>
<path fill="none" stroke="midnightblue" d="M702.04,-438.45C708.55,-416.76 718,-379.67 718,-347 718,-347 718,-347 718,-289 718,-227.42 692.25,-156.32 682.6,-131.82"/>
<polygon fill="midnightblue" stroke="midnightblue" points="698.61,-437.69 698.97,-448.28 705.29,-439.78 698.61,-437.69"/>
</g>
<!-- Node25&#45;&gt;Node3 -->
<g id="edge44" class="edge">
<title>Node25&#45;&gt;Node3</title>
<path fill="none" stroke="midnightblue" d="M701.89,-106.54C720.07,-93.25 740.39,-73.08 727,-56 707.12,-30.64 609.47,-17.66 565.51,-13.03"/>
<polygon fill="midnightblue" stroke="midnightblue" points="699.54,-103.91 693.3,-112.47 703.52,-109.67 699.54,-103.91"/>
</g>
<!-- Node25&#45;&gt;Node4 -->
<g id="edge45" class="edge">
<title>Node25&#45;&gt;Node4</title>
<path fill="none" stroke="midnightblue" d="M719.01,-109.57C754.67,-99.38 806.04,-84.7 838.19,-75.52"/>
<polygon fill="midnightblue" stroke="midnightblue" points="717.6,-106.33 708.95,-112.44 719.52,-113.06 717.6,-106.33"/>
</g>
<!-- Node26 -->
<g id="node26" class="node">
<title>Node26</title>
<g id="a_node26"><a xlink:href="SparseArray_8cpp.html" target="_top" xlink:title="Implementation of GenericSparseArray and SparseArray&lt;T&gt;">
<polygon fill="white" stroke="black" points="630,-56.5 630,-75.5 718,-75.5 718,-56.5 630,-56.5"/>
<text text-anchor="middle" x="674" y="-63.5" font-family="Helvetica,sans-Serif" font-size="10.00">SparseArray.cpp</text>
</a>
</g>
</g>
<!-- Node25&#45;&gt;Node26 -->
<g id="edge46" class="edge">
<title>Node25&#45;&gt;Node26</title>
<path fill="none" stroke="midnightblue" d="M677.25,-102.1C676.42,-93.14 675.47,-82.86 674.81,-75.75"/>
<polygon fill="midnightblue" stroke="midnightblue" points="673.77,-102.45 678.17,-112.08 680.74,-101.8 673.77,-102.45"/>
</g>
<!-- Node27&#45;&gt;Node13 -->
<g id="edge60" class="edge">
<title>Node27&#45;&gt;Node13</title>
<path fill="none" stroke="midnightblue" d="M590.88,-498.01C579.94,-489.57 566.36,-478.62 555,-468 521.45,-436.64 517.01,-424.93 485,-392 428.67,-334.05 358.17,-267.16 333.25,-243.68"/>
<polygon fill="midnightblue" stroke="midnightblue" points="588.91,-500.91 598.99,-504.18 593.15,-495.34 588.91,-500.91"/>
</g>
<!-- Node27&#45;&gt;Node18 -->
<g id="edge59" class="edge">
<title>Node27&#45;&gt;Node18</title>
<path fill="none" stroke="midnightblue" d="M587.75,-498.68C577.52,-490.99 566.57,-480.5 561,-468 552.28,-448.41 566.7,-424.23 576.03,-411.61"/>
<polygon fill="midnightblue" stroke="midnightblue" points="585.84,-501.62 596.05,-504.47 589.85,-495.88 585.84,-501.62"/>
</g>
<!-- Node27&#45;&gt;Node24 -->
<g id="edge49" class="edge">
<title>Node27&#45;&gt;Node24</title>
<path fill="none" stroke="midnightblue" d="M633.19,-498.9C648.78,-489 669.13,-476.07 682.38,-467.65"/>
<polygon fill="midnightblue" stroke="midnightblue" points="631.22,-496.01 624.66,-504.32 634.97,-501.92 631.22,-496.01"/>
</g>
<!-- Node28 -->
<g id="node28" class="node">
<title>Node28</title>
<g id="a_node28"><a xlink:href="Tensor_8h.html" target="_top" xlink:title="Templated C++ wrapper for MTensor.">
<polygon fill="white" stroke="black" points="850.5,-168.5 850.5,-187.5 903.5,-187.5 903.5,-168.5 850.5,-168.5"/>
<text text-anchor="middle" x="877" y="-175.5" font-family="Helvetica,sans-Serif" font-size="10.00">Tensor.h</text>
</a>
</g>
</g>
<!-- Node27&#45;&gt;Node28 -->
<g id="edge50" class="edge">
<title>Node27&#45;&gt;Node28</title>
<path fill="none" stroke="midnightblue" d="M653.21,-508.59C683.23,-503.42 722.74,-492.22 749,-468 835.4,-388.31 798.83,-329.32 851,-224 857.41,-211.06 865.96,-196.72 871.48,-187.78"/>
<polygon fill="midnightblue" stroke="midnightblue" points="652.37,-505.18 643.03,-510.17 653.45,-512.09 652.37,-505.18"/>
</g>
<!-- Node32 -->
<g id="node32" class="node">
<title>Node32</title>
<g id="a_node32"><a xlink:href="Views_2Tensor_8hpp.html" target="_top" xlink:title="Definition and implementation of TensorView and TensorTypedView.">
<polygon fill="white" stroke="black" points="570,-448.5 570,-467.5 634,-467.5 634,-448.5 570,-448.5"/>
<text text-anchor="middle" x="602" y="-455.5" font-family="Helvetica,sans-Serif" font-size="10.00">Tensor.hpp</text>
</a>
</g>
</g>
<!-- Node27&#45;&gt;Node32 -->
<g id="edge58" class="edge">
<title>Node27&#45;&gt;Node32</title>
<path fill="none" stroke="midnightblue" d="M607.85,-494.1C606.36,-485.14 604.64,-474.86 603.46,-467.75"/>
<polygon fill="midnightblue" stroke="midnightblue" points="604.42,-494.79 609.51,-504.08 611.32,-493.64 604.42,-494.79"/>
</g>
<!-- Node28&#45;&gt;Node3 -->
<g id="edge52" class="edge">
<title>Node28&#45;&gt;Node3</title>
<path fill="none" stroke="midnightblue" d="M861.18,-160.67C832.07,-130.95 770.58,-69.83 744,-56 684.33,-24.95 603.75,-15.22 565.67,-12.25"/>
<polygon fill="midnightblue" stroke="midnightblue" points="858.99,-163.43 868.48,-168.15 864,-158.55 858.99,-163.43"/>
</g>
<!-- Node28&#45;&gt;Node4 -->
<g id="edge53" class="edge">
<title>Node28&#45;&gt;Node4</title>
<path fill="none" stroke="midnightblue" d="M859.6,-160.82C852.37,-152.92 844.79,-142.79 841,-132 833.8,-111.48 849.67,-88.07 860,-75.71"/>
<polygon fill="midnightblue" stroke="midnightblue" points="857.33,-163.51 866.84,-168.19 862.33,-158.6 857.33,-163.51"/>
</g>
<!-- Node28&#45;&gt;Node25 -->
<g id="edge51" class="edge">
<title>Node28&#45;&gt;Node25</title>
<path fill="none" stroke="midnightblue" d="M840.34,-167C803.03,-156.83 745.82,-141.22 710.5,-131.59"/>
<polygon fill="midnightblue" stroke="midnightblue" points="839.73,-170.46 850.3,-169.72 841.57,-163.71 839.73,-170.46"/>
</g>
<!-- Node29 -->
<g id="node29" class="node">
<title>Node29</title>
<g id="a_node29"><a xlink:href="ProgressMonitor_8h.html" target="_top" xlink:title="Definition of ProgressMonitor class.">
<polygon fill="white" stroke="black" points="932.5,-112.5 932.5,-131.5 1027.5,-131.5 1027.5,-112.5 932.5,-112.5"/>
<text text-anchor="middle" x="980" y="-119.5" font-family="Helvetica,sans-Serif" font-size="10.00">ProgressMonitor.h</text>
</a>
</g>
</g>
<!-- Node28&#45;&gt;Node29 -->
<g id="edge54" class="edge">
<title>Node28&#45;&gt;Node29</title>
<path fill="none" stroke="midnightblue" d="M902.58,-163.59C921.62,-153.61 947.06,-140.27 963.49,-131.65"/>
<polygon fill="midnightblue" stroke="midnightblue" points="900.78,-160.58 893.55,-168.32 904.03,-166.78 900.78,-160.58"/>
</g>
<!-- Node31 -->
<g id="node31" class="node">
<title>Node31</title>
<g id="a_node31"><a xlink:href="Tensor_8cpp.html" target="_top" xlink:title="Template specialization of certain methods from TypedTensor class for all underlying data types that ...">
<polygon fill="white" stroke="black" points="850,-112.5 850,-131.5 914,-131.5 914,-112.5 850,-112.5"/>
<text text-anchor="middle" x="882" y="-119.5" font-family="Helvetica,sans-Serif" font-size="10.00">Tensor.cpp</text>
</a>
</g>
</g>
<!-- Node28&#45;&gt;Node31 -->
<g id="edge57" class="edge">
<title>Node28&#45;&gt;Node31</title>
<path fill="none" stroke="midnightblue" d="M878.75,-158.1C879.58,-149.14 880.53,-138.86 881.19,-131.75"/>
<polygon fill="midnightblue" stroke="midnightblue" points="875.26,-157.8 877.83,-168.08 882.23,-158.45 875.26,-157.8"/>
</g>
<!-- Node29&#45;&gt;Node4 -->
<g id="edge55" class="edge">
<title>Node29&#45;&gt;Node4</title>
<path fill="none" stroke="midnightblue" d="M952.75,-107.86C931.98,-97.85 903.98,-84.35 885.95,-75.65"/>
<polygon fill="midnightblue" stroke="midnightblue" points="951.48,-111.13 962.01,-112.32 954.52,-104.83 951.48,-111.13"/>
</g>
<!-- Node29&#45;&gt;Node30 -->
<g id="edge56" class="edge">
<title>Node29&#45;&gt;Node30</title>
<path fill="none" stroke="midnightblue" d="M993.42,-104.14C1000.91,-94.74 1009.94,-83.4 1016.03,-75.75"/>
<polygon fill="midnightblue" stroke="midnightblue" points="990.59,-102.08 987.1,-112.08 996.07,-106.44 990.59,-102.08"/>
</g>
<!-- Node34 -->
<g id="node34" class="node">
<title>Node34</title>
<g id="a_node34"><a xlink:href="MArray_8hpp.html" target="_top" xlink:title="Template base class for C++ wrappers of LibraryLink containers.">
<polygon fill="white" stroke="black" points="860.5,-224.5 860.5,-243.5 925.5,-243.5 925.5,-224.5 860.5,-224.5"/>
<text text-anchor="middle" x="893" y="-231.5" font-family="Helvetica,sans-Serif" font-size="10.00">MArray.hpp</text>
</a>
</g>
</g>
<!-- Node33&#45;&gt;Node34 -->
<g id="edge62" class="edge">
<title>Node33&#45;&gt;Node34</title>
<path fill="none" stroke="midnightblue" d="M976.24,-275.86C955.84,-265.85 928.33,-252.35 910.63,-243.65"/>
<polygon fill="midnightblue" stroke="midnightblue" points="974.81,-279.06 985.33,-280.32 977.89,-272.78 974.81,-279.06"/>
</g>
<!-- Node35 -->
<g id="node35" class="node">
<title>Node35</title>
<g id="a_node35"><a xlink:href="MArrayDimensions_8cpp.html" target="_top" xlink:title=" ">
<polygon fill="white" stroke="black" points="943.5,-224.5 943.5,-243.5 1062.5,-243.5 1062.5,-224.5 943.5,-224.5"/>
<text text-anchor="middle" x="1003" y="-231.5" font-family="Helvetica,sans-Serif" font-size="10.00">MArrayDimensions.cpp</text>
</a>
</g>
</g>
<!-- Node33&#45;&gt;Node35 -->
<g id="edge67" class="edge">
<title>Node33&#45;&gt;Node35</title>
<path fill="none" stroke="midnightblue" d="M1003,-269.8C1003,-260.91 1003,-250.78 1003,-243.75"/>
<polygon fill="midnightblue" stroke="midnightblue" points="999.5,-270.08 1003,-280.08 1006.5,-270.08 999.5,-270.08"/>
</g>
<!-- Node34&#45;&gt;Node7 -->
<g id="edge66" class="edge">
<title>Node34&#45;&gt;Node7</title>
<path fill="none" stroke="midnightblue" d="M922,-220.06C967.18,-198.04 1052.57,-148.5 1085,-76 1093.36,-57.32 1093.92,-32.77 1093.51,-19.85"/>
<polygon fill="midnightblue" stroke="midnightblue" points="920.27,-217.01 912.74,-224.46 923.27,-223.33 920.27,-217.01"/>
</g>
<!-- Node34&#45;&gt;Node15 -->
<g id="edge63" class="edge">
<title>Node34&#45;&gt;Node15</title>
<path fill="none" stroke="midnightblue" d="M850.04,-231.01C768.3,-226.74 585.01,-214.81 433,-188 430.16,-187.5 427.21,-186.89 424.28,-186.22"/>
<polygon fill="midnightblue" stroke="midnightblue" points="850.25,-234.53 860.42,-231.54 850.61,-227.54 850.25,-234.53"/>
</g>
<!-- Node34&#45;&gt;Node21 -->
<g id="edge64" class="edge">
<title>Node34&#45;&gt;Node21</title>
<path fill="none" stroke="midnightblue" d="M867.67,-219.59C848.81,-209.61 823.62,-196.27 807.35,-187.65"/>
<polygon fill="midnightblue" stroke="midnightblue" points="866.14,-222.74 876.61,-224.32 869.41,-216.55 866.14,-222.74"/>
</g>
<!-- Node34&#45;&gt;Node28 -->
<g id="edge65" class="edge">
<title>Node34&#45;&gt;Node28</title>
<path fill="none" stroke="midnightblue" d="M887.49,-214.4C884.81,-205.36 881.72,-194.94 879.59,-187.75"/>
<polygon fill="midnightblue" stroke="midnightblue" points="884.16,-215.49 890.36,-224.08 890.87,-213.5 884.16,-215.49"/>
</g>
</g>
</svg>
        <g id="navigator" transform="translate(0 0)" fill="#404254">
                <rect fill="#f2f5e9" fill-opacity="0.5" stroke="#606060" stroke-width=".5" x="0" y="0" width="60" height="60"/>
                <use id="zoomplus" xlink:href="#zoomPlus" x="17" y="9" onmousedown="handleZoom(evt,'in')"/>
                <use id="zoomminus" xlink:href="#zoomMin" x="42" y="9" onmousedown="handleZoom(evt,'out')"/>
                <use id="reset" xlink:href="#resetDef" x="30" y="36" onmousedown="handleReset()"/>
                <g id="arrowUp" xlink:href="#dirArrow" transform="translate(30 24)" onmousedown="handlePan(0,-1)">
                  <use xlink:href="#rim" fill="#404040">
                        <set attributeName="fill" to="#808080" begin="arrowUp.mouseover" end="arrowUp.mouseout"/>
                  </use>
                  <path fill="none" stroke="white" stroke-width="1.5" d="M0,-3.0v7 M-2.5,-0.5L0,-3.0L2.5,-0.5"/>
                </g>
                <g id="arrowRight" xlink:href="#dirArrow" transform="rotate(90) translate(36 -43)" onmousedown="handlePan(1,0)">
                  <use xlink:href="#rim" fill="#404040">
                        <set attributeName="fill" to="#808080" begin="arrowRight.mouseover" end="arrowRight.mouseout"/>
                  </use>
                  <path fill="none" stroke="white" stroke-width="1.5" d="M0,-3.0v7 M-2.5,-0.5L0,-3.0L2.5,-0.5"/>
                </g>
                <g id="arrowDown" xlink:href="#dirArrow" transform="rotate(180) translate(-30 -48)" onmousedown="handlePan(0,1)">
                  <use xlink:href="#rim" fill="#404040">
                        <set attributeName="fill" to="#808080" begin="arrowDown.mouseover" end="arrowDown.mouseout"/>
                  </use>
                  <path fill="none" stroke="white" stroke-width="1.5" d="M0,-3.0v7 M-2.5,-0.5L0,-3.0L2.5,-0.5"/>
                </g>
                <g id="arrowLeft" xlink:href="#dirArrow" transform="rotate(270) translate(-36 17)" onmousedown="handlePan(-1,0)">
                  <use xlink:href="#rim" fill="#404040">
                        <set attributeName="fill" to="#808080" begin="arrowLeft.mouseover" end="arrowLeft.mouseout"/>
                  </use>
                  <path fill="none" stroke="white" stroke-width="1.5" d="M0,-3.0v7 M-2.5,-0.5L0,-3.0L2.5,-0.5"/>
                </g>
        </g>
        <svg viewBox="0 0 15 15" width="100%" height="30px" preserveAspectRatio="xMaxYMin meet">
         <g id="arrow_out" transform="scale(0.3 0.3)">
          <a xlink:href="ErrorManager_8h__dep__incl_org.svg" target="_base">
           <rect id="button" ry="5" rx="5" y="6" x="6" height="38" width="38"
                fill="#f2f5e9" fill-opacity="0.5" stroke="#606060" stroke-width="1.0"/>
           <path id="arrow"
             d="M 11.500037,31.436501 C 11.940474,20.09759 22.043105,11.32322 32.158766,21.979434 L 37.068811,17.246167 C 37.068811,17.246167 37.088388,32 37.088388,32 L 22.160133,31.978069 C 22.160133,31.978069 26.997745,27.140456 26.997745,27.140456 C 18.528582,18.264221 13.291696,25.230495 11.500037,31.436501 z"
             style="fill:#404040;"/>
          </a>
         </g>
        </svg>
</svg>
