<?xml version="1.0" encoding="UTF-8" standalone="no"?>
<!DOCTYPE svg PUBLIC "-//W3C//DTD SVG 1.1//EN"
 "http://www.w3.org/Graphics/SVG/1.1/DTD/svg11.dtd">
<!-- Generated by graphviz version 2.43.0 (0)
 -->
<!-- Title: ErrorManager.cpp Pages: 1 -->
<svg width="2000pt" height="487pt"
 viewBox="0.00 0.00 2000.37 487.00" xmlns="http://www.w3.org/2000/svg" xmlns:xlink="http://www.w3.org/1999/xlink">
<g id="graph0" class="graph" transform="scale(1 1) rotate(0) translate(4 483)">
<title>ErrorManager.cpp</title>
<polygon fill="white" stroke="transparent" points="-4,4 -4,-483 1996.37,-483 1996.37,4 -4,4"/>
<!-- Node1 -->
<g id="node1" class="node">
<title>Node1</title>
<g id="a_node1"><a xlink:title=" ">
<polygon fill="#bfbfbf" stroke="black" points="1331,-459.5 1331,-478.5 1424,-478.5 1424,-459.5 1331,-459.5"/>
<text text-anchor="middle" x="1377.5" y="-466.5" font-family="Helvetica,sans-Serif" font-size="10.00">ErrorManager.cpp</text>
</a>
</g>
</g>
<!-- Node2 -->
<g id="node2" class="node">
<title>Node2</title>
<g id="a_node2"><a xlink:href="ErrorManager_8h.html" target="_top" xlink:title="Definition of the ErrorManager class responsible for error registration and throwing.">
<polygon fill="white" stroke="black" points="1215,-403.5 1215,-422.5 1358,-422.5 1358,-403.5 1215,-403.5"/>
<text text-anchor="middle" x="1286.5" y="-410.5" font-family="Helvetica,sans-Serif" font-size="10.00">LLU/ErrorLog/ErrorManager.h</text>
</a>
</g>
</g>
<!-- Node1&#45;&gt;Node2 -->
<g id="edge1" class="edge">
<title>Node1&#45;&gt;Node2</title>
<path fill="none" stroke="midnightblue" d="M1362.88,-459.32C1348.55,-450.82 1326.49,-437.73 1309.75,-427.8"/>
<polygon fill="midnightblue" stroke="midnightblue" points="1311.47,-424.75 1301.08,-422.65 1307.9,-430.77 1311.47,-424.75"/>
</g>
<!-- Node11 -->
<g id="node11" class="node">
<title>Node11</title>
<g id="a_node11"><a xlink:href="WSStream_8hpp.html" target="_top" xlink:title="Header file for WSStream class.">
<polygon fill="white" stroke="black" points="1367,-280.5 1367,-299.5 1504,-299.5 1504,-280.5 1367,-280.5"/>
<text text-anchor="middle" x="1435.5" y="-287.5" font-family="Helvetica,sans-Serif" font-size="10.00">LLU/WSTP/WSStream.hpp</text>
</a>
</g>
</g>
<!-- Node1&#45;&gt;Node11 -->
<g id="edge81" class="edge">
<title>Node1&#45;&gt;Node11</title>
<path fill="none" stroke="midnightblue" d="M1386.52,-459.32C1402.71,-443.04 1436.15,-406.03 1448.5,-367 1454.6,-347.71 1448.97,-324.71 1443.33,-309.1"/>
<polygon fill="midnightblue" stroke="midnightblue" points="1446.51,-307.62 1439.57,-299.61 1440,-310.2 1446.51,-307.62"/>
</g>
<!-- Node22 -->
<g id="node22" class="node">
<title>Node22</title>
<g id="a_node22"><a xlink:href="LibraryData_8h.html" target="_top" xlink:title=" ">
<polygon fill="white" stroke="black" points="515.5,-56.5 515.5,-75.5 611.5,-75.5 611.5,-56.5 515.5,-56.5"/>
<text text-anchor="middle" x="563.5" y="-63.5" font-family="Helvetica,sans-Serif" font-size="10.00">LLU/LibraryData.h</text>
</a>
</g>
</g>
<!-- Node1&#45;&gt;Node22 -->
<g id="edge79" class="edge">
<title>Node1&#45;&gt;Node22</title>
<path fill="none" stroke="midnightblue" d="M1330.93,-466.49C1155.5,-460.2 544.5,-432.53 544.5,-352.5 544.5,-352.5 544.5,-352.5 544.5,-177 544.5,-144.49 552.66,-107.35 558.28,-85.61"/>
<polygon fill="midnightblue" stroke="midnightblue" points="561.72,-86.32 560.94,-75.75 554.96,-84.5 561.72,-86.32"/>
</g>
<!-- Node33 -->
<g id="node33" class="node">
<title>Node33</title>
<g id="a_node33"><a xlink:href="WSTP_2Utilities_8h.html" target="_top" xlink:title="Header file with miscellaneous utilities used throughout the WSTP&#45;related part of LibraryLinkUtilitie...">
<polygon fill="white" stroke="black" points="1587,-168.5 1587,-187.5 1698,-187.5 1698,-168.5 1587,-168.5"/>
<text text-anchor="middle" x="1642.5" y="-175.5" font-family="Helvetica,sans-Serif" font-size="10.00">LLU/WSTP/Utilities.h</text>
</a>
</g>
</g>
<!-- Node1&#45;&gt;Node33 -->
<g id="edge80" class="edge">
<title>Node1&#45;&gt;Node33</title>
<path fill="none" stroke="midnightblue" d="M1424.22,-467.84C1554.86,-466.14 1914.5,-452.39 1914.5,-352.5 1914.5,-352.5 1914.5,-352.5 1914.5,-289 1914.5,-250.58 1890.68,-243.38 1857.5,-224 1811.98,-197.41 1752.93,-186.42 1708.24,-181.93"/>
<polygon fill="midnightblue" stroke="midnightblue" points="1708.35,-178.42 1698.07,-180.99 1707.7,-185.39 1708.35,-178.42"/>
</g>
<!-- Node3 -->
<g id="node3" class="node">
<title>Node3</title>
<g id="a_node3"><a xlink:title=" ">
<polygon fill="white" stroke="#bfbfbf" points="1906.5,-168.5 1906.5,-187.5 1962.5,-187.5 1962.5,-168.5 1906.5,-168.5"/>
<text text-anchor="middle" x="1934.5" y="-175.5" font-family="Helvetica,sans-Serif" font-size="10.00">algorithm</text>
</a>
</g>
</g>
<!-- Node2&#45;&gt;Node3 -->
<g id="edge2" class="edge">
<title>Node2&#45;&gt;Node3</title>
<path fill="none" stroke="midnightblue" d="M1358.21,-403.54C1509.72,-384.11 1854.58,-331.15 1928.5,-244 1939.14,-231.45 1939.64,-212.23 1938.08,-197.94"/>
<polygon fill="midnightblue" stroke="midnightblue" points="1941.5,-197.12 1936.54,-187.76 1934.58,-198.17 1941.5,-197.12"/>
</g>
<!-- Node4 -->
<g id="node4" class="node">
<title>Node4</title>
<g id="a_node4"><a xlink:title=" ">
<polygon fill="white" stroke="#bfbfbf" points="1367,-342 1367,-361 1440,-361 1440,-342 1367,-342"/>
<text text-anchor="middle" x="1403.5" y="-349" font-family="Helvetica,sans-Serif" font-size="10.00">initializer_list</text>
</a>
</g>
</g>
<!-- Node2&#45;&gt;Node4 -->
<g id="edge3" class="edge">
<title>Node2&#45;&gt;Node4</title>
<path fill="none" stroke="midnightblue" d="M1303.26,-403.48C1322.72,-393.58 1355.05,-377.14 1377.71,-365.62"/>
<polygon fill="midnightblue" stroke="midnightblue" points="1379.44,-368.66 1386.77,-361.01 1376.27,-362.42 1379.44,-368.66"/>
</g>
<!-- Node5 -->
<g id="node5" class="node">
<title>Node5</title>
<g id="a_node5"><a xlink:title=" ">
<polygon fill="white" stroke="#bfbfbf" points="1744,-56.5 1744,-75.5 1785,-75.5 1785,-56.5 1744,-56.5"/>
<text text-anchor="middle" x="1764.5" y="-63.5" font-family="Helvetica,sans-Serif" font-size="10.00">string</text>
</a>
</g>
</g>
<!-- Node2&#45;&gt;Node5 -->
<g id="edge4" class="edge">
<title>Node2&#45;&gt;Node5</title>
<path fill="none" stroke="midnightblue" d="M1358.18,-412.06C1477.04,-409.36 1719.54,-391.9 1898.5,-300 1930.37,-283.63 1934.5,-272.28 1956.5,-244 1974.1,-221.37 1981.14,-215.71 1988.5,-188 1997.66,-153.5 1990.26,-134.44 1962.5,-112 1937.02,-91.41 1844.17,-77 1795.21,-70.65"/>
<polygon fill="midnightblue" stroke="midnightblue" points="1795.54,-67.16 1785.18,-69.38 1794.66,-74.1 1795.54,-67.16"/>
</g>
<!-- Node6 -->
<g id="node6" class="node">
<title>Node6</title>
<g id="a_node6"><a xlink:title=" ">
<polygon fill="white" stroke="#bfbfbf" points="1084,-342 1084,-361 1167,-361 1167,-342 1084,-342"/>
<text text-anchor="middle" x="1125.5" y="-349" font-family="Helvetica,sans-Serif" font-size="10.00">unordered_map</text>
</a>
</g>
</g>
<!-- Node2&#45;&gt;Node6 -->
<g id="edge5" class="edge">
<title>Node2&#45;&gt;Node6</title>
<path fill="none" stroke="midnightblue" d="M1263.43,-403.48C1235.82,-393.27 1189.38,-376.11 1158.1,-364.55"/>
<polygon fill="midnightblue" stroke="midnightblue" points="1159.12,-361.19 1148.52,-361.01 1156.69,-367.76 1159.12,-361.19"/>
</g>
<!-- Node7 -->
<g id="node7" class="node">
<title>Node7</title>
<g id="a_node7"><a xlink:title=" ">
<polygon fill="white" stroke="#bfbfbf" points="896.5,-56.5 896.5,-75.5 936.5,-75.5 936.5,-56.5 896.5,-56.5"/>
<text text-anchor="middle" x="916.5" y="-63.5" font-family="Helvetica,sans-Serif" font-size="10.00">utility</text>
</a>
</g>
</g>
<!-- Node2&#45;&gt;Node7 -->
<g id="edge6" class="edge">
<title>Node2&#45;&gt;Node7</title>
<path fill="none" stroke="midnightblue" d="M1214.91,-406.44C1042.9,-392.13 620.5,-350.9 620.5,-291 620.5,-291 620.5,-291 620.5,-177 620.5,-120.83 810.17,-84.1 885.85,-71.68"/>
<polygon fill="midnightblue" stroke="midnightblue" points="886.84,-75.07 896.15,-70.03 885.73,-68.16 886.84,-75.07"/>
</g>
<!-- Node8 -->
<g id="node8" class="node">
<title>Node8</title>
<g id="a_node8"><a xlink:title=" ">
<polygon fill="white" stroke="#bfbfbf" points="648.5,-224.5 648.5,-243.5 692.5,-243.5 692.5,-224.5 648.5,-224.5"/>
<text text-anchor="middle" x="670.5" y="-231.5" font-family="Helvetica,sans-Serif" font-size="10.00">vector</text>
</a>
</g>
</g>
<!-- Node2&#45;&gt;Node8 -->
<g id="edge7" class="edge">
<title>Node2&#45;&gt;Node8</title>
<path fill="none" stroke="midnightblue" d="M1271.57,-403.34C1256.78,-394.61 1233.64,-380.52 1214.5,-367 1196.42,-354.22 1195.6,-345.28 1175.5,-336 982.66,-246.94 913.83,-290.22 706.5,-244 705.23,-243.72 703.93,-243.42 702.62,-243.12"/>
<polygon fill="midnightblue" stroke="midnightblue" points="703.08,-239.63 692.54,-240.7 701.45,-246.44 703.08,-239.63"/>
</g>
<!-- Node9 -->
<g id="node9" class="node">
<title>Node9</title>
<g id="a_node9"><a xlink:href="LibraryLinkError_8h.html" target="_top" xlink:title="Error class and error codes used by LibraryLink Utilities classes.">
<polygon fill="white" stroke="black" points="1224,-336.5 1224,-366.5 1349,-366.5 1349,-336.5 1224,-336.5"/>
<text text-anchor="start" x="1232" y="-354.5" font-family="Helvetica,sans-Serif" font-size="10.00">LLU/ErrorLog/LibraryLink</text>
<text text-anchor="middle" x="1286.5" y="-343.5" font-family="Helvetica,sans-Serif" font-size="10.00">Error.h</text>
</a>
</g>
</g>
<!-- Node2&#45;&gt;Node9 -->
<g id="edge8" class="edge">
<title>Node2&#45;&gt;Node9</title>
<path fill="none" stroke="midnightblue" d="M1286.5,-403.48C1286.5,-396.47 1286.5,-386.19 1286.5,-376.7"/>
<polygon fill="midnightblue" stroke="midnightblue" points="1290,-376.52 1286.5,-366.52 1283,-376.52 1290,-376.52"/>
</g>
<!-- Node2&#45;&gt;Node22 -->
<g id="edge78" class="edge">
<title>Node2&#45;&gt;Node22</title>
<path fill="none" stroke="midnightblue" d="M1214.85,-410.92C1079.86,-408.16 793.05,-398.66 699.5,-367 640.76,-347.12 582.5,-353.01 582.5,-291 582.5,-291 582.5,-291 582.5,-177 582.5,-144.49 574.34,-107.35 568.72,-85.61"/>
<polygon fill="midnightblue" stroke="midnightblue" points="572.04,-84.5 566.06,-75.75 565.28,-86.32 572.04,-84.5"/>
</g>
<!-- Node9&#45;&gt;Node5 -->
<g id="edge10" class="edge">
<title>Node9&#45;&gt;Node5</title>
<path fill="none" stroke="midnightblue" d="M1349.2,-337.59C1352,-337.05 1354.78,-336.51 1357.5,-336 1633.32,-283.86 1838.37,-435.13 1971.5,-188 2011.04,-114.6 1862.01,-81.99 1795.26,-71.27"/>
<polygon fill="midnightblue" stroke="midnightblue" points="1795.72,-67.8 1785.3,-69.73 1794.65,-74.72 1795.72,-67.8"/>
</g>
<!-- Node10 -->
<g id="node10" class="node">
<title>Node10</title>
<g id="a_node10"><a xlink:title=" ">
<polygon fill="white" stroke="#bfbfbf" points="1257,-280.5 1257,-299.5 1316,-299.5 1316,-280.5 1257,-280.5"/>
<text text-anchor="middle" x="1286.5" y="-287.5" font-family="Helvetica,sans-Serif" font-size="10.00">stdexcept</text>
</a>
</g>
</g>
<!-- Node9&#45;&gt;Node10 -->
<g id="edge9" class="edge">
<title>Node9&#45;&gt;Node10</title>
<path fill="none" stroke="midnightblue" d="M1286.5,-336.4C1286.5,-328.47 1286.5,-318.46 1286.5,-309.86"/>
<polygon fill="midnightblue" stroke="midnightblue" points="1290,-309.66 1286.5,-299.66 1283,-309.66 1290,-309.66"/>
</g>
<!-- Node9&#45;&gt;Node11 -->
<g id="edge11" class="edge">
<title>Node9&#45;&gt;Node11</title>
<path fill="none" stroke="midnightblue" d="M1321.81,-336.4C1346.92,-326.37 1380.34,-313.03 1404.44,-303.4"/>
<polygon fill="midnightblue" stroke="midnightblue" points="1405.83,-306.62 1413.82,-299.66 1403.23,-300.12 1405.83,-306.62"/>
</g>
<!-- Node11&#45;&gt;Node3 -->
<g id="edge12" class="edge">
<title>Node11&#45;&gt;Node3</title>
<path fill="none" stroke="midnightblue" d="M1504.17,-286.55C1607.02,-282.07 1795.59,-270.44 1857.5,-244 1883.02,-233.1 1906.48,-210.75 1920.63,-195.33"/>
<polygon fill="midnightblue" stroke="midnightblue" points="1923.48,-197.39 1927.49,-187.59 1918.24,-192.75 1923.48,-197.39"/>
</g>
<!-- Node11&#45;&gt;Node7 -->
<g id="edge17" class="edge">
<title>Node11&#45;&gt;Node7</title>
<path fill="none" stroke="midnightblue" d="M1366.52,-283.06C1238.26,-271.94 974.21,-248.68 954.5,-244 888.09,-228.22 849.97,-244.38 811.5,-188 782.62,-145.67 849.69,-101.6 889.56,-80.22"/>
<polygon fill="midnightblue" stroke="midnightblue" points="891.31,-83.25 898.56,-75.52 888.08,-77.04 891.31,-83.25"/>
</g>
<!-- Node11&#45;&gt;Node8 -->
<g id="edge18" class="edge">
<title>Node11&#45;&gt;Node8</title>
<path fill="none" stroke="midnightblue" d="M1366.83,-283.19C1352.83,-282.07 1338.19,-280.95 1324.5,-280 1050.03,-260.88 978.48,-285.55 706.5,-244 705.25,-243.81 703.97,-243.59 702.69,-243.36"/>
<polygon fill="midnightblue" stroke="midnightblue" points="703.35,-239.92 692.84,-241.27 701.89,-246.77 703.35,-239.92"/>
</g>
<!-- Node12 -->
<g id="node12" class="node">
<title>Node12</title>
<g id="a_node12"><a xlink:title=" ">
<polygon fill="white" stroke="#bfbfbf" points="1689,-224.5 1689,-243.5 1736,-243.5 1736,-224.5 1689,-224.5"/>
<text text-anchor="middle" x="1712.5" y="-231.5" font-family="Helvetica,sans-Serif" font-size="10.00">iterator</text>
</a>
</g>
</g>
<!-- Node11&#45;&gt;Node12 -->
<g id="edge13" class="edge">
<title>Node11&#45;&gt;Node12</title>
<path fill="none" stroke="midnightblue" d="M1484.61,-280.44C1533.02,-271.84 1609.04,-257.91 1674.5,-244 1675.95,-243.69 1677.43,-243.37 1678.93,-243.04"/>
<polygon fill="midnightblue" stroke="midnightblue" points="1679.85,-246.42 1688.82,-240.79 1678.29,-239.59 1679.85,-246.42"/>
</g>
<!-- Node13 -->
<g id="node13" class="node">
<title>Node13</title>
<g id="a_node13"><a xlink:title=" ">
<polygon fill="white" stroke="#bfbfbf" points="1754,-224.5 1754,-243.5 1789,-243.5 1789,-224.5 1754,-224.5"/>
<text text-anchor="middle" x="1771.5" y="-231.5" font-family="Helvetica,sans-Serif" font-size="10.00">map</text>
</a>
</g>
</g>
<!-- Node11&#45;&gt;Node13 -->
<g id="edge14" class="edge">
<title>Node11&#45;&gt;Node13</title>
<path fill="none" stroke="midnightblue" d="M1504.24,-282.79C1565.25,-276.42 1656.82,-264.78 1743.95,-244.02"/>
<polygon fill="midnightblue" stroke="midnightblue" points="1744.84,-247.41 1753.73,-241.65 1743.19,-240.61 1744.84,-247.41"/>
</g>
<!-- Node14 -->
<g id="node14" class="node">
<title>Node14</title>
<g id="a_node14"><a xlink:title=" ">
<polygon fill="white" stroke="#bfbfbf" points="1807,-224.5 1807,-243.5 1848,-243.5 1848,-224.5 1807,-224.5"/>
<text text-anchor="middle" x="1827.5" y="-231.5" font-family="Helvetica,sans-Serif" font-size="10.00">stack</text>
</a>
</g>
</g>
<!-- Node11&#45;&gt;Node14 -->
<g id="edge15" class="edge">
<title>Node11&#45;&gt;Node14</title>
<path fill="none" stroke="midnightblue" d="M1504.01,-284.15C1575.23,-278.3 1689.95,-266.56 1796.73,-244.08"/>
<polygon fill="midnightblue" stroke="midnightblue" points="1797.66,-247.46 1806.71,-241.94 1796.2,-240.61 1797.66,-247.46"/>
</g>
<!-- Node15 -->
<g id="node15" class="node">
<title>Node15</title>
<g id="a_node15"><a xlink:title=" ">
<polygon fill="white" stroke="#bfbfbf" points="954.5,-56.5 954.5,-75.5 1016.5,-75.5 1016.5,-56.5 954.5,-56.5"/>
<text text-anchor="middle" x="985.5" y="-63.5" font-family="Helvetica,sans-Serif" font-size="10.00">type_traits</text>
</a>
</g>
</g>
<!-- Node11&#45;&gt;Node15 -->
<g id="edge16" class="edge">
<title>Node11&#45;&gt;Node15</title>
<path fill="none" stroke="midnightblue" d="M1366.72,-281.03C1296.69,-272.37 1193.21,-257.9 1155.5,-244 1075.41,-214.49 1042.8,-205.55 999.5,-132 991.17,-117.86 987.78,-99.37 986.4,-85.73"/>
<polygon fill="midnightblue" stroke="midnightblue" points="989.88,-85.33 985.66,-75.62 982.9,-85.84 989.88,-85.33"/>
</g>
<!-- Node16 -->
<g id="node16" class="node">
<title>Node16</title>
<g id="a_node16"><a xlink:title=" ">
<polygon fill="white" stroke="#bfbfbf" points="1294.5,-0.5 1294.5,-19.5 1340.5,-19.5 1340.5,-0.5 1294.5,-0.5"/>
<text text-anchor="middle" x="1317.5" y="-7.5" font-family="Helvetica,sans-Serif" font-size="10.00">wstp.h</text>
</a>
</g>
</g>
<!-- Node11&#45;&gt;Node16 -->
<g id="edge19" class="edge">
<title>Node11&#45;&gt;Node16</title>
<path fill="none" stroke="midnightblue" d="M1366.52,-283.06C1238.26,-271.94 974.21,-248.68 954.5,-244 888.09,-228.22 849.97,-244.38 811.5,-188 779.51,-141.12 755.72,-133.69 873.5,-56 940.92,-11.53 1193.03,-9.65 1284.27,-10.48"/>
<polygon fill="midnightblue" stroke="midnightblue" points="1284.29,-13.98 1294.33,-10.59 1284.37,-6.98 1284.29,-13.98"/>
</g>
<!-- Node17 -->
<g id="node17" class="node">
<title>Node17</title>
<g id="a_node17"><a xlink:href="Errors_8h.html" target="_top" xlink:title="Definitions of error names and error codes used across LLU.">
<polygon fill="white" stroke="black" points="1666.5,-112.5 1666.5,-131.5 1778.5,-131.5 1778.5,-112.5 1666.5,-112.5"/>
<text text-anchor="middle" x="1722.5" y="-119.5" font-family="Helvetica,sans-Serif" font-size="10.00">LLU/ErrorLog/Errors.h</text>
</a>
</g>
</g>
<!-- Node11&#45;&gt;Node17 -->
<g id="edge20" class="edge">
<title>Node11&#45;&gt;Node17</title>
<path fill="none" stroke="midnightblue" d="M1481.66,-280.49C1520.74,-272.72 1577.98,-260.03 1626.5,-244 1633.97,-241.53 1752.18,-194.57 1756.5,-188 1767.03,-171.99 1753.44,-152.35 1740.44,-138.87"/>
<polygon fill="midnightblue" stroke="midnightblue" points="1742.67,-136.15 1733.04,-131.72 1737.8,-141.19 1742.67,-136.15"/>
</g>
<!-- Node18 -->
<g id="node18" class="node">
<title>Node18</title>
<g id="a_node18"><a xlink:href="Utilities_8hpp.html" target="_top" xlink:title="Short but generally useful functions.">
<polygon fill="white" stroke="black" points="1009,-112.5 1009,-131.5 1098,-131.5 1098,-112.5 1009,-112.5"/>
<text text-anchor="middle" x="1053.5" y="-119.5" font-family="Helvetica,sans-Serif" font-size="10.00">LLU/Utilities.hpp</text>
</a>
</g>
</g>
<!-- Node11&#45;&gt;Node18 -->
<g id="edge22" class="edge">
<title>Node11&#45;&gt;Node18</title>
<path fill="none" stroke="midnightblue" d="M1385.98,-280.49C1299.61,-264.75 1126.33,-228.95 1081.5,-188 1068.2,-175.85 1060.95,-156.29 1057.18,-141.8"/>
<polygon fill="midnightblue" stroke="midnightblue" points="1060.56,-140.89 1054.94,-131.91 1053.74,-142.44 1060.56,-140.89"/>
</g>
<!-- Node30 -->
<g id="node30" class="node">
<title>Node30</title>
<g id="a_node30"><a xlink:href="Get_8h.html" target="_top" xlink:title="Header file with classes related to reading data from WSTP.">
<polygon fill="white" stroke="black" points="1500.5,-224.5 1500.5,-243.5 1594.5,-243.5 1594.5,-224.5 1500.5,-224.5"/>
<text text-anchor="middle" x="1547.5" y="-231.5" font-family="Helvetica,sans-Serif" font-size="10.00">LLU/WSTP/Get.h</text>
</a>
</g>
</g>
<!-- Node11&#45;&gt;Node30 -->
<g id="edge37" class="edge">
<title>Node11&#45;&gt;Node30</title>
<path fill="none" stroke="midnightblue" d="M1453.49,-280.32C1471.54,-271.62 1499.55,-258.12 1520.3,-248.11"/>
<polygon fill="midnightblue" stroke="midnightblue" points="1522.06,-251.15 1529.55,-243.65 1519.02,-244.84 1522.06,-251.15"/>
</g>
<!-- Node11&#45;&gt;Node33 -->
<g id="edge73" class="edge">
<title>Node11&#45;&gt;Node33</title>
<path fill="none" stroke="midnightblue" d="M1504.11,-282.64C1536.81,-276.78 1574.93,-265.54 1603.5,-244 1619.23,-232.14 1629.9,-211.93 1636.04,-197.19"/>
<polygon fill="midnightblue" stroke="midnightblue" points="1639.4,-198.21 1639.73,-187.62 1632.87,-195.69 1639.4,-198.21"/>
</g>
<!-- Node36 -->
<g id="node36" class="node">
<title>Node36</title>
<g id="a_node36"><a xlink:href="Put_8h.html" target="_top" xlink:title="Header file with classes related to sending data through WSTP.">
<polygon fill="white" stroke="black" points="1389,-224.5 1389,-243.5 1482,-243.5 1482,-224.5 1389,-224.5"/>
<text text-anchor="middle" x="1435.5" y="-231.5" font-family="Helvetica,sans-Serif" font-size="10.00">LLU/WSTP/Put.h</text>
</a>
</g>
</g>
<!-- Node11&#45;&gt;Node36 -->
<g id="edge58" class="edge">
<title>Node11&#45;&gt;Node36</title>
<path fill="none" stroke="midnightblue" d="M1435.5,-280.08C1435.5,-273.01 1435.5,-262.86 1435.5,-253.99"/>
<polygon fill="midnightblue" stroke="midnightblue" points="1439,-253.75 1435.5,-243.75 1432,-253.75 1439,-253.75"/>
</g>
<!-- Node37 -->
<g id="node37" class="node">
<title>Node37</title>
<g id="a_node37"><a xlink:href="Strings_8h.html" target="_top" xlink:title="Definitions of multiple structures and type aliases related to string handling in WSTP.">
<polygon fill="white" stroke="black" points="1262,-224.5 1262,-243.5 1371,-243.5 1371,-224.5 1262,-224.5"/>
<text text-anchor="middle" x="1316.5" y="-231.5" font-family="Helvetica,sans-Serif" font-size="10.00">LLU/WSTP/Strings.h</text>
</a>
</g>
</g>
<!-- Node11&#45;&gt;Node37 -->
<g id="edge64" class="edge">
<title>Node11&#45;&gt;Node37</title>
<path fill="none" stroke="midnightblue" d="M1416.64,-280.44C1397.23,-271.64 1366.77,-257.81 1344.54,-247.72"/>
<polygon fill="midnightblue" stroke="midnightblue" points="1345.82,-244.46 1335.27,-243.52 1342.93,-250.84 1345.82,-244.46"/>
</g>
<!-- Node38 -->
<g id="node38" class="node">
<title>Node38</title>
<g id="a_node38"><a xlink:href="UtilityTypeTraits_8hpp.html" target="_top" xlink:title="Type traits used by WSStream to identify types supported by WSTP.">
<polygon fill="white" stroke="black" points="820.5,-168.5 820.5,-187.5 980.5,-187.5 980.5,-168.5 820.5,-168.5"/>
<text text-anchor="middle" x="900.5" y="-175.5" font-family="Helvetica,sans-Serif" font-size="10.00">LLU/WSTP/UtilityTypeTraits.hpp</text>
</a>
</g>
</g>
<!-- Node11&#45;&gt;Node38 -->
<g id="edge74" class="edge">
<title>Node11&#45;&gt;Node38</title>
<path fill="none" stroke="midnightblue" d="M1366.57,-282.87C1246.88,-272.11 1011.67,-250.33 994.5,-244 964.42,-232.91 934.87,-209.93 917.16,-194.48"/>
<polygon fill="midnightblue" stroke="midnightblue" points="919.25,-191.66 909.47,-187.59 914.58,-196.87 919.25,-191.66"/>
</g>
<!-- Node17&#45;&gt;Node5 -->
<g id="edge21" class="edge">
<title>Node17&#45;&gt;Node5</title>
<path fill="none" stroke="midnightblue" d="M1729.44,-112.08C1735.43,-104.38 1744.25,-93.03 1751.55,-83.65"/>
<polygon fill="midnightblue" stroke="midnightblue" points="1754.32,-85.79 1757.69,-75.75 1748.79,-81.5 1754.32,-85.79"/>
</g>
<!-- Node18&#45;&gt;Node7 -->
<g id="edge26" class="edge">
<title>Node18&#45;&gt;Node7</title>
<path fill="none" stroke="midnightblue" d="M1031.79,-112.44C1008.75,-103.36 972.16,-88.94 946.4,-78.78"/>
<polygon fill="midnightblue" stroke="midnightblue" points="947.35,-75.4 936.77,-74.99 944.79,-81.91 947.35,-75.4"/>
</g>
<!-- Node18&#45;&gt;Node15 -->
<g id="edge25" class="edge">
<title>Node18&#45;&gt;Node15</title>
<path fill="none" stroke="midnightblue" d="M1042.57,-112.32C1032.33,-104.18 1016.78,-91.84 1004.5,-82.09"/>
<polygon fill="midnightblue" stroke="midnightblue" points="1006.63,-79.31 996.62,-75.83 1002.28,-84.79 1006.63,-79.31"/>
</g>
<!-- Node19 -->
<g id="node19" class="node">
<title>Node19</title>
<g id="a_node19"><a xlink:title=" ">
<polygon fill="white" stroke="#bfbfbf" points="1035,-56.5 1035,-75.5 1088,-75.5 1088,-56.5 1035,-56.5"/>
<text text-anchor="middle" x="1061.5" y="-63.5" font-family="Helvetica,sans-Serif" font-size="10.00">complex</text>
</a>
</g>
</g>
<!-- Node18&#45;&gt;Node19 -->
<g id="edge23" class="edge">
<title>Node18&#45;&gt;Node19</title>
<path fill="none" stroke="midnightblue" d="M1054.82,-112.08C1055.88,-104.93 1057.41,-94.64 1058.73,-85.69"/>
<polygon fill="midnightblue" stroke="midnightblue" points="1062.2,-86.16 1060.2,-75.75 1055.28,-85.13 1062.2,-86.16"/>
</g>
<!-- Node20 -->
<g id="node20" class="node">
<title>Node20</title>
<g id="a_node20"><a xlink:title=" ">
<polygon fill="white" stroke="#bfbfbf" points="1170.5,-56.5 1170.5,-75.5 1216.5,-75.5 1216.5,-56.5 1170.5,-56.5"/>
<text text-anchor="middle" x="1193.5" y="-63.5" font-family="Helvetica,sans-Serif" font-size="10.00">cstdint</text>
</a>
</g>
</g>
<!-- Node18&#45;&gt;Node20 -->
<g id="edge24" class="edge">
<title>Node18&#45;&gt;Node20</title>
<path fill="none" stroke="midnightblue" d="M1075.68,-112.44C1098.93,-103.48 1135.65,-89.31 1161.92,-79.18"/>
<polygon fill="midnightblue" stroke="midnightblue" points="1163.35,-82.38 1171.42,-75.52 1160.83,-75.85 1163.35,-82.38"/>
</g>
<!-- Node21 -->
<g id="node21" class="node">
<title>Node21</title>
<g id="a_node21"><a xlink:title=" ">
<polygon fill="white" stroke="#bfbfbf" points="1106.5,-56.5 1106.5,-75.5 1152.5,-75.5 1152.5,-56.5 1106.5,-56.5"/>
<text text-anchor="middle" x="1129.5" y="-63.5" font-family="Helvetica,sans-Serif" font-size="10.00">variant</text>
</a>
</g>
</g>
<!-- Node18&#45;&gt;Node21 -->
<g id="edge27" class="edge">
<title>Node18&#45;&gt;Node21</title>
<path fill="none" stroke="midnightblue" d="M1065.71,-112.32C1077.28,-104.11 1094.88,-91.6 1108.66,-81.81"/>
<polygon fill="midnightblue" stroke="midnightblue" points="1110.94,-84.48 1117.07,-75.83 1106.89,-78.77 1110.94,-84.48"/>
</g>
<!-- Node18&#45;&gt;Node22 -->
<g id="edge28" class="edge">
<title>Node18&#45;&gt;Node22</title>
<path fill="none" stroke="midnightblue" d="M1008.72,-116.06C919.73,-106.26 720.71,-84.33 621.72,-73.42"/>
<polygon fill="midnightblue" stroke="midnightblue" points="621.92,-69.92 611.59,-72.3 621.15,-76.87 621.92,-69.92"/>
</g>
<!-- Node22&#45;&gt;Node16 -->
<g id="edge31" class="edge">
<title>Node22&#45;&gt;Node16</title>
<path fill="none" stroke="midnightblue" d="M611.53,-61.56C752.75,-51.45 1164.25,-21.98 1284.27,-13.38"/>
<polygon fill="midnightblue" stroke="midnightblue" points="1284.61,-16.86 1294.33,-12.66 1284.1,-9.88 1284.61,-16.86"/>
</g>
<!-- Node23 -->
<g id="node23" class="node">
<title>Node23</title>
<g id="a_node23"><a xlink:title=" ">
<polygon fill="white" stroke="#bfbfbf" points="787.5,-0.5 787.5,-19.5 839.5,-19.5 839.5,-0.5 787.5,-0.5"/>
<text text-anchor="middle" x="813.5" y="-7.5" font-family="Helvetica,sans-Serif" font-size="10.00">memory</text>
</a>
</g>
</g>
<!-- Node22&#45;&gt;Node23 -->
<g id="edge29" class="edge">
<title>Node22&#45;&gt;Node23</title>
<path fill="none" stroke="midnightblue" d="M607.28,-56.44C648.69,-48.21 712.81,-35.12 777.24,-20.22"/>
<polygon fill="midnightblue" stroke="midnightblue" points="778.21,-23.59 787.16,-17.91 776.63,-16.77 778.21,-23.59"/>
</g>
<!-- Node24 -->
<g id="node24" class="node">
<title>Node24</title>
<g id="a_node24"><a xlink:title=" ">
<polygon fill="white" stroke="#bfbfbf" points="304.5,-0.5 304.5,-19.5 366.5,-19.5 366.5,-0.5 304.5,-0.5"/>
<text text-anchor="middle" x="335.5" y="-7.5" font-family="Helvetica,sans-Serif" font-size="10.00">dllexport.h</text>
</a>
</g>
</g>
<!-- Node22&#45;&gt;Node24 -->
<g id="edge30" class="edge">
<title>Node22&#45;&gt;Node24</title>
<path fill="none" stroke="midnightblue" d="M527.37,-56.44C486.34,-46.72 419.52,-30.9 376.55,-20.72"/>
<polygon fill="midnightblue" stroke="midnightblue" points="377.23,-17.29 366.7,-18.39 375.62,-24.1 377.23,-17.29"/>
</g>
<!-- Node25 -->
<g id="node25" class="node">
<title>Node25</title>
<g id="a_node25"><a xlink:title=" ">
<polygon fill="white" stroke="#bfbfbf" points="385,-0.5 385,-19.5 474,-19.5 474,-0.5 385,-0.5"/>
<text text-anchor="middle" x="429.5" y="-7.5" font-family="Helvetica,sans-Serif" font-size="10.00">WolframLibrary.h</text>
</a>
</g>
</g>
<!-- Node22&#45;&gt;Node25 -->
<g id="edge32" class="edge">
<title>Node22&#45;&gt;Node25</title>
<path fill="none" stroke="midnightblue" d="M542.27,-56.44C520.12,-47.52 485.18,-33.44 460.06,-23.32"/>
<polygon fill="midnightblue" stroke="midnightblue" points="461.22,-20.01 450.63,-19.52 458.6,-26.5 461.22,-20.01"/>
</g>
<!-- Node26 -->
<g id="node26" class="node">
<title>Node26</title>
<g id="a_node26"><a xlink:title=" ">
<polygon fill="white" stroke="#bfbfbf" points="492,-0.5 492,-19.5 635,-19.5 635,-0.5 492,-0.5"/>
<text text-anchor="middle" x="563.5" y="-7.5" font-family="Helvetica,sans-Serif" font-size="10.00">WolframIOLibraryFunctions.h</text>
</a>
</g>
</g>
<!-- Node22&#45;&gt;Node26 -->
<g id="edge33" class="edge">
<title>Node22&#45;&gt;Node26</title>
<path fill="none" stroke="midnightblue" d="M563.5,-56.08C563.5,-49.01 563.5,-38.86 563.5,-29.99"/>
<polygon fill="midnightblue" stroke="midnightblue" points="567,-29.75 563.5,-19.75 560,-29.75 567,-29.75"/>
</g>
<!-- Node27 -->
<g id="node27" class="node">
<title>Node27</title>
<g id="a_node27"><a xlink:title=" ">
<polygon fill="white" stroke="#bfbfbf" points="653.5,-0.5 653.5,-19.5 769.5,-19.5 769.5,-0.5 653.5,-0.5"/>
<text text-anchor="middle" x="711.5" y="-7.5" font-family="Helvetica,sans-Serif" font-size="10.00">WolframImageLibrary.h</text>
</a>
</g>
</g>
<!-- Node22&#45;&gt;Node27 -->
<g id="edge34" class="edge">
<title>Node22&#45;&gt;Node27</title>
<path fill="none" stroke="midnightblue" d="M586.95,-56.44C611.63,-47.44 650.69,-33.19 678.48,-23.05"/>
<polygon fill="midnightblue" stroke="midnightblue" points="679.96,-26.23 688.16,-19.52 677.56,-19.66 679.96,-26.23"/>
</g>
<!-- Node28 -->
<g id="node28" class="node">
<title>Node28</title>
<g id="a_node28"><a xlink:title=" ">
<polygon fill="white" stroke="#bfbfbf" points="0,-0.5 0,-19.5 149,-19.5 149,-0.5 0,-0.5"/>
<text text-anchor="middle" x="74.5" y="-7.5" font-family="Helvetica,sans-Serif" font-size="10.00">WolframNumericArrayLibrary.h</text>
</a>
</g>
</g>
<!-- Node22&#45;&gt;Node28 -->
<g id="edge35" class="edge">
<title>Node22&#45;&gt;Node28</title>
<path fill="none" stroke="midnightblue" d="M515.27,-59.67C432.49,-50.53 262.34,-31.74 159.35,-20.37"/>
<polygon fill="midnightblue" stroke="midnightblue" points="159.61,-16.88 149.29,-19.26 158.84,-23.84 159.61,-16.88"/>
</g>
<!-- Node29 -->
<g id="node29" class="node">
<title>Node29</title>
<g id="a_node29"><a xlink:title=" ">
<polygon fill="white" stroke="#bfbfbf" points="167,-0.5 167,-19.5 286,-19.5 286,-0.5 167,-0.5"/>
<text text-anchor="middle" x="226.5" y="-7.5" font-family="Helvetica,sans-Serif" font-size="10.00">WolframSparseLibrary.h</text>
</a>
</g>
</g>
<!-- Node22&#45;&gt;Node29 -->
<g id="edge36" class="edge">
<title>Node22&#45;&gt;Node29</title>
<path fill="none" stroke="midnightblue" d="M515.22,-57.26C455.96,-47.77 355.32,-31.64 289.89,-21.16"/>
<polygon fill="midnightblue" stroke="midnightblue" points="290.13,-17.65 279.7,-19.52 289.02,-24.56 290.13,-17.65"/>
</g>
<!-- Node30&#45;&gt;Node5 -->
<g id="edge40" class="edge">
<title>Node30&#45;&gt;Node5</title>
<path fill="none" stroke="midnightblue" d="M1594.8,-233.65C1640.4,-231.96 1709.27,-223.07 1756.5,-188 1785.79,-166.25 1796.04,-147.47 1787.5,-112 1785.19,-102.42 1780.48,-92.58 1775.92,-84.56"/>
<polygon fill="midnightblue" stroke="midnightblue" points="1778.79,-82.54 1770.6,-75.81 1772.81,-86.17 1778.79,-82.54"/>
</g>
<!-- Node30&#45;&gt;Node16 -->
<g id="edge41" class="edge">
<title>Node30&#45;&gt;Node16</title>
<path fill="none" stroke="midnightblue" d="M1594.65,-229.23C1654.36,-223.58 1752.82,-211.01 1780.5,-188 1825.86,-150.28 1837.2,-96.71 1794.5,-56 1762.45,-25.44 1453.62,-14.58 1350.69,-11.8"/>
<polygon fill="midnightblue" stroke="midnightblue" points="1350.65,-8.29 1340.56,-11.53 1350.46,-15.29 1350.65,-8.29"/>
</g>
<!-- Node30&#45;&gt;Node17 -->
<g id="edge42" class="edge">
<title>Node30&#45;&gt;Node17</title>
<path fill="none" stroke="midnightblue" d="M1594.79,-228.62C1645.95,-222.8 1722.64,-210.5 1740.5,-188 1751.38,-174.29 1743.42,-154.42 1734.9,-140.27"/>
<polygon fill="midnightblue" stroke="midnightblue" points="1737.57,-137.96 1729.15,-131.53 1731.72,-141.8 1737.57,-137.96"/>
</g>
<!-- Node30&#45;&gt;Node18 -->
<g id="edge43" class="edge">
<title>Node30&#45;&gt;Node18</title>
<path fill="none" stroke="midnightblue" d="M1500.39,-225.17C1438.19,-214.75 1332.07,-196.62 1293.5,-188 1221.48,-171.9 1138.62,-148.32 1091.52,-134.42"/>
<polygon fill="midnightblue" stroke="midnightblue" points="1092.33,-131.01 1081.74,-131.53 1090.34,-137.73 1092.33,-131.01"/>
</g>
<!-- Node30&#45;&gt;Node23 -->
<g id="edge39" class="edge">
<title>Node30&#45;&gt;Node23</title>
<path fill="none" stroke="midnightblue" d="M1500.27,-225.16C1496.97,-224.73 1493.69,-224.34 1490.5,-224 1415.36,-216.1 863.49,-242.82 811.5,-188 770.49,-144.76 792.76,-65.45 805.97,-29.54"/>
<polygon fill="midnightblue" stroke="midnightblue" points="809.37,-30.47 809.7,-19.88 802.84,-27.95 809.37,-30.47"/>
</g>
<!-- Node31 -->
<g id="node31" class="node">
<title>Node31</title>
<g id="a_node31"><a xlink:title=" ">
<polygon fill="white" stroke="#bfbfbf" points="1432,-112.5 1432,-131.5 1491,-131.5 1491,-112.5 1432,-112.5"/>
<text text-anchor="middle" x="1461.5" y="-119.5" font-family="Helvetica,sans-Serif" font-size="10.00">functional</text>
</a>
</g>
</g>
<!-- Node30&#45;&gt;Node31 -->
<g id="edge38" class="edge">
<title>Node30&#45;&gt;Node31</title>
<path fill="none" stroke="midnightblue" d="M1540.75,-224.37C1526.5,-206.14 1493.11,-163.43 1474.54,-139.68"/>
<polygon fill="midnightblue" stroke="midnightblue" points="1477.13,-137.31 1468.22,-131.59 1471.62,-141.63 1477.13,-137.31"/>
</g>
<!-- Node32 -->
<g id="node32" class="node">
<title>Node32</title>
<g id="a_node32"><a xlink:href="Release_8h.html" target="_top" xlink:title="Header file with classes responsible for releasing memory allocated by WSTP when receiving data.">
<polygon fill="white" stroke="black" points="1302.5,-168.5 1302.5,-187.5 1416.5,-187.5 1416.5,-168.5 1302.5,-168.5"/>
<text text-anchor="middle" x="1359.5" y="-175.5" font-family="Helvetica,sans-Serif" font-size="10.00">LLU/WSTP/Release.h</text>
</a>
</g>
</g>
<!-- Node30&#45;&gt;Node32 -->
<g id="edge44" class="edge">
<title>Node30&#45;&gt;Node32</title>
<path fill="none" stroke="midnightblue" d="M1517.71,-224.44C1485.67,-215.24 1434.57,-200.56 1399.15,-190.39"/>
<polygon fill="midnightblue" stroke="midnightblue" points="1399.73,-186.91 1389.15,-187.52 1397.79,-193.64 1399.73,-186.91"/>
</g>
<!-- Node30&#45;&gt;Node33 -->
<g id="edge48" class="edge">
<title>Node30&#45;&gt;Node33</title>
<path fill="none" stroke="midnightblue" d="M1562.76,-224.32C1577.72,-215.82 1600.75,-202.73 1618.23,-192.8"/>
<polygon fill="midnightblue" stroke="midnightblue" points="1620.31,-195.64 1627.27,-187.65 1616.85,-189.55 1620.31,-195.64"/>
</g>
<!-- Node32&#45;&gt;Node16 -->
<g id="edge46" class="edge">
<title>Node32&#45;&gt;Node16</title>
<path fill="none" stroke="midnightblue" d="M1360.43,-168.45C1362.32,-148.18 1365.23,-95.92 1350.5,-56 1346.66,-45.59 1339.65,-35.48 1333.07,-27.49"/>
<polygon fill="midnightblue" stroke="midnightblue" points="1335.5,-24.96 1326.28,-19.74 1330.24,-29.57 1335.5,-24.96"/>
</g>
<!-- Node32&#45;&gt;Node18 -->
<g id="edge47" class="edge">
<title>Node32&#45;&gt;Node18</title>
<path fill="none" stroke="midnightblue" d="M1311.01,-168.44C1255.85,-158.71 1165.96,-142.85 1108.3,-132.67"/>
<polygon fill="midnightblue" stroke="midnightblue" points="1108.73,-129.19 1098.28,-130.9 1107.51,-136.09 1108.73,-129.19"/>
</g>
<!-- Node32&#45;&gt;Node31 -->
<g id="edge45" class="edge">
<title>Node32&#45;&gt;Node31</title>
<path fill="none" stroke="midnightblue" d="M1375.89,-168.32C1392.17,-159.7 1417.37,-146.36 1436.22,-136.39"/>
<polygon fill="midnightblue" stroke="midnightblue" points="1437.95,-139.43 1445.15,-131.65 1434.68,-133.24 1437.95,-139.43"/>
</g>
<!-- Node33&#45;&gt;Node5 -->
<g id="edge50" class="edge">
<title>Node33&#45;&gt;Node5</title>
<path fill="none" stroke="midnightblue" d="M1627.68,-168.33C1608.17,-155.83 1578.06,-132.03 1593.5,-112 1610.5,-89.94 1689.31,-76.55 1733.77,-70.61"/>
<polygon fill="midnightblue" stroke="midnightblue" points="1734.28,-74.08 1743.75,-69.33 1733.39,-67.13 1734.28,-74.08"/>
</g>
<!-- Node33&#45;&gt;Node16 -->
<g id="edge51" class="edge">
<title>Node33&#45;&gt;Node16</title>
<path fill="none" stroke="midnightblue" d="M1625.48,-168.31C1572.07,-141.02 1407.46,-56.95 1343.39,-24.22"/>
<polygon fill="midnightblue" stroke="midnightblue" points="1344.85,-21.04 1334.35,-19.61 1341.66,-27.27 1344.85,-21.04"/>
</g>
<!-- Node33&#45;&gt;Node17 -->
<g id="edge52" class="edge">
<title>Node33&#45;&gt;Node17</title>
<path fill="none" stroke="midnightblue" d="M1655.35,-168.32C1667.72,-159.98 1686.63,-147.21 1701.24,-137.35"/>
<polygon fill="midnightblue" stroke="midnightblue" points="1703.35,-140.15 1709.68,-131.65 1699.43,-134.35 1703.35,-140.15"/>
</g>
<!-- Node34 -->
<g id="node34" class="node">
<title>Node34</title>
<g id="a_node34"><a xlink:title=" ">
<polygon fill="white" stroke="#bfbfbf" points="1602.5,-112.5 1602.5,-131.5 1648.5,-131.5 1648.5,-112.5 1602.5,-112.5"/>
<text text-anchor="middle" x="1625.5" y="-119.5" font-family="Helvetica,sans-Serif" font-size="10.00">cstring</text>
</a>
</g>
</g>
<!-- Node33&#45;&gt;Node34 -->
<g id="edge49" class="edge">
<title>Node33&#45;&gt;Node34</title>
<path fill="none" stroke="midnightblue" d="M1639.69,-168.08C1637.42,-160.85 1634.13,-150.41 1631.29,-141.4"/>
<polygon fill="midnightblue" stroke="midnightblue" points="1634.6,-140.24 1628.25,-131.75 1627.92,-142.34 1634.6,-140.24"/>
</g>
<!-- Node35 -->
<g id="node35" class="node">
<title>Node35</title>
<g id="a_node35"><a xlink:href="EncodingTraits_8hpp.html" target="_top" xlink:title="Defines possible encodings together with their properties and related types.">
<polygon fill="white" stroke="black" points="1116.5,-112.5 1116.5,-131.5 1270.5,-131.5 1270.5,-112.5 1116.5,-112.5"/>
<text text-anchor="middle" x="1193.5" y="-119.5" font-family="Helvetica,sans-Serif" font-size="10.00">LLU/WSTP/EncodingTraits.hpp</text>
</a>
</g>
</g>
<!-- Node33&#45;&gt;Node35 -->
<g id="edge53" class="edge">
<title>Node33&#45;&gt;Node35</title>
<path fill="none" stroke="midnightblue" d="M1586.99,-170.32C1508.6,-160.9 1364.95,-143.62 1274.59,-132.75"/>
<polygon fill="midnightblue" stroke="midnightblue" points="1274.74,-129.25 1264.39,-131.53 1273.9,-136.2 1274.74,-129.25"/>
</g>
<!-- Node35&#45;&gt;Node5 -->
<g id="edge55" class="edge">
<title>Node35&#45;&gt;Node5</title>
<path fill="none" stroke="midnightblue" d="M1270.51,-113.72C1397.92,-101.67 1647.13,-78.1 1733.87,-69.9"/>
<polygon fill="midnightblue" stroke="midnightblue" points="1734.23,-73.38 1743.85,-68.95 1733.57,-66.41 1734.23,-73.38"/>
</g>
<!-- Node35&#45;&gt;Node7 -->
<g id="edge57" class="edge">
<title>Node35&#45;&gt;Node7</title>
<path fill="none" stroke="midnightblue" d="M1135.2,-112.47C1086.95,-104.95 1016.46,-92.89 946.55,-76.02"/>
<polygon fill="midnightblue" stroke="midnightblue" points="947.24,-72.59 936.69,-73.61 945.58,-79.39 947.24,-72.59"/>
</g>
<!-- Node35&#45;&gt;Node15 -->
<g id="edge56" class="edge">
<title>Node35&#45;&gt;Node15</title>
<path fill="none" stroke="midnightblue" d="M1160.54,-112.44C1124.19,-103.01 1065.64,-87.81 1026.39,-77.62"/>
<polygon fill="midnightblue" stroke="midnightblue" points="1027.16,-74.2 1016.61,-75.08 1025.41,-80.98 1027.16,-74.2"/>
</g>
<!-- Node35&#45;&gt;Node20 -->
<g id="edge54" class="edge">
<title>Node35&#45;&gt;Node20</title>
<path fill="none" stroke="midnightblue" d="M1193.5,-112.08C1193.5,-105.01 1193.5,-94.86 1193.5,-85.99"/>
<polygon fill="midnightblue" stroke="midnightblue" points="1197,-85.75 1193.5,-75.75 1190,-85.75 1197,-85.75"/>
</g>
<!-- Node36&#45;&gt;Node16 -->
<g id="edge60" class="edge">
<title>Node36&#45;&gt;Node16</title>
<path fill="none" stroke="midnightblue" d="M1389.25,-224.45C1352.37,-216.58 1305.03,-203.75 1293.5,-188 1288.25,-180.83 1292.41,-176.82 1293.5,-168 1298.65,-126.17 1311.03,-117.79 1316.5,-76 1318.52,-60.59 1318.65,-42.96 1318.35,-29.95"/>
<polygon fill="midnightblue" stroke="midnightblue" points="1321.84,-29.75 1318,-19.88 1314.85,-29.99 1321.84,-29.75"/>
</g>
<!-- Node36&#45;&gt;Node17 -->
<g id="edge61" class="edge">
<title>Node36&#45;&gt;Node17</title>
<path fill="none" stroke="midnightblue" d="M1482.04,-225.47C1559.49,-212.91 1706.47,-188.97 1707.5,-188 1720.01,-176.25 1723.06,-156.32 1723.42,-141.61"/>
<polygon fill="midnightblue" stroke="midnightblue" points="1726.92,-141.56 1723.27,-131.61 1719.92,-141.66 1726.92,-141.56"/>
</g>
<!-- Node36&#45;&gt;Node18 -->
<g id="edge62" class="edge">
<title>Node36&#45;&gt;Node18</title>
<path fill="none" stroke="midnightblue" d="M1388.75,-225.47C1385.62,-224.97 1382.52,-224.48 1379.5,-224 1275.99,-207.69 1243.75,-227.03 1146.5,-188 1117.12,-176.21 1087.98,-153.61 1070.35,-138.41"/>
<polygon fill="midnightblue" stroke="midnightblue" points="1072.49,-135.63 1062.68,-131.63 1067.85,-140.87 1072.49,-135.63"/>
</g>
<!-- Node36&#45;&gt;Node31 -->
<g id="edge59" class="edge">
<title>Node36&#45;&gt;Node31</title>
<path fill="none" stroke="midnightblue" d="M1441.26,-224.49C1446.82,-215.75 1454.9,-201.57 1458.5,-188 1462.53,-172.8 1463.07,-154.91 1462.71,-141.75"/>
<polygon fill="midnightblue" stroke="midnightblue" points="1466.2,-141.41 1462.24,-131.59 1459.21,-141.74 1466.2,-141.41"/>
</g>
<!-- Node36&#45;&gt;Node33 -->
<g id="edge63" class="edge">
<title>Node36&#45;&gt;Node33</title>
<path fill="none" stroke="midnightblue" d="M1468.3,-224.44C1503.88,-215.16 1560.81,-200.31 1599.85,-190.13"/>
<polygon fill="midnightblue" stroke="midnightblue" points="1601.06,-193.43 1609.85,-187.52 1599.29,-186.65 1601.06,-193.43"/>
</g>
<!-- Node37&#45;&gt;Node3 -->
<g id="edge65" class="edge">
<title>Node37&#45;&gt;Node3</title>
<path fill="none" stroke="midnightblue" d="M1371.11,-224.99C1373.95,-224.64 1376.75,-224.31 1379.5,-224 1573.33,-202.32 1806.37,-186.86 1896.42,-181.28"/>
<polygon fill="midnightblue" stroke="midnightblue" points="1896.67,-184.78 1906.43,-180.67 1896.24,-177.79 1896.67,-184.78"/>
</g>
<!-- Node37&#45;&gt;Node16 -->
<g id="edge68" class="edge">
<title>Node37&#45;&gt;Node16</title>
<path fill="none" stroke="midnightblue" d="M1299,-224.46C1285.71,-216.92 1268.42,-204.53 1260.5,-188 1256.66,-179.98 1258.36,-176.63 1260.5,-168 1264.85,-150.44 1272.54,-148.7 1279.5,-132 1294.2,-96.73 1306.43,-53.69 1312.79,-29.61"/>
<polygon fill="midnightblue" stroke="midnightblue" points="1316.23,-30.26 1315.35,-19.7 1309.46,-28.5 1316.23,-30.26"/>
</g>
<!-- Node37&#45;&gt;Node17 -->
<g id="edge69" class="edge">
<title>Node37&#45;&gt;Node17</title>
<path fill="none" stroke="midnightblue" d="M1348.02,-224.46C1420.65,-204.78 1599.77,-156.25 1681.11,-134.21"/>
<polygon fill="midnightblue" stroke="midnightblue" points="1682.26,-137.53 1691,-131.53 1680.43,-130.77 1682.26,-137.53"/>
</g>
<!-- Node37&#45;&gt;Node18 -->
<g id="edge70" class="edge">
<title>Node37&#45;&gt;Node18</title>
<path fill="none" stroke="midnightblue" d="M1261.71,-230.76C1217.57,-226.79 1155.38,-216.15 1108.5,-188 1089.16,-176.39 1073.34,-155.53 1063.71,-140.57"/>
<polygon fill="midnightblue" stroke="midnightblue" points="1066.51,-138.44 1058.3,-131.75 1060.54,-142.1 1066.51,-138.44"/>
</g>
<!-- Node37&#45;&gt;Node23 -->
<g id="edge67" class="edge">
<title>Node37&#45;&gt;Node23</title>
<path fill="none" stroke="midnightblue" d="M1261.97,-232.53C1131.7,-230.83 810.78,-223.1 778.5,-188 738.78,-144.82 759.46,-111.49 778.5,-56 782.22,-45.16 789.73,-34.92 796.85,-26.96"/>
<polygon fill="midnightblue" stroke="midnightblue" points="799.55,-29.19 803.94,-19.55 794.5,-24.35 799.55,-29.19"/>
</g>
<!-- Node37&#45;&gt;Node31 -->
<g id="edge66" class="edge">
<title>Node37&#45;&gt;Node31</title>
<path fill="none" stroke="midnightblue" d="M1353.48,-224.45C1376.34,-217.65 1405.1,-206.19 1425.5,-188 1439.62,-175.41 1449.37,-155.92 1455.13,-141.56"/>
<polygon fill="midnightblue" stroke="midnightblue" points="1458.56,-142.38 1458.76,-131.78 1452,-139.94 1458.56,-142.38"/>
</g>
<!-- Node37&#45;&gt;Node33 -->
<g id="edge72" class="edge">
<title>Node37&#45;&gt;Node33</title>
<path fill="none" stroke="midnightblue" d="M1368.16,-224.44C1425.98,-214.87 1519.61,-199.36 1581.12,-189.17"/>
<polygon fill="midnightblue" stroke="midnightblue" points="1581.79,-192.6 1591.09,-187.52 1580.65,-185.7 1581.79,-192.6"/>
</g>
<!-- Node37&#45;&gt;Node35 -->
<g id="edge71" class="edge">
<title>Node37&#45;&gt;Node35</title>
<path fill="none" stroke="midnightblue" d="M1285.66,-224.38C1265.5,-217.4 1239.79,-205.76 1222.5,-188 1209.86,-175.02 1202.19,-155.58 1197.94,-141.35"/>
<polygon fill="midnightblue" stroke="midnightblue" points="1201.31,-140.41 1195.33,-131.67 1194.55,-142.23 1201.31,-140.41"/>
</g>
<!-- Node38&#45;&gt;Node15 -->
<g id="edge75" class="edge">
<title>Node38&#45;&gt;Node15</title>
<path fill="none" stroke="midnightblue" d="M907.17,-168.37C921.26,-150.14 954.26,-107.43 972.61,-83.68"/>
<polygon fill="midnightblue" stroke="midnightblue" points="975.52,-85.64 978.86,-75.59 969.98,-81.36 975.52,-85.64"/>
</g>
<!-- Node38&#45;&gt;Node16 -->
<g id="edge76" class="edge">
<title>Node38&#45;&gt;Node16</title>
<path fill="none" stroke="midnightblue" d="M895.71,-168.34C884.29,-146.41 858.51,-88.18 887.5,-56 913.95,-26.64 1187.9,-15.13 1284.23,-11.97"/>
<polygon fill="midnightblue" stroke="midnightblue" points="1284.41,-15.47 1294.29,-11.65 1284.18,-8.47 1284.41,-15.47"/>
</g>
<!-- Node38&#45;&gt;Node18 -->
<g id="edge77" class="edge">
<title>Node38&#45;&gt;Node18</title>
<path fill="none" stroke="midnightblue" d="M924.74,-168.44C950.37,-159.4 990.99,-145.06 1019.74,-134.92"/>
<polygon fill="midnightblue" stroke="midnightblue" points="1021.11,-138.15 1029.37,-131.52 1018.78,-131.54 1021.11,-138.15"/>
</g>
</g>
</svg>
