<?xml version="1.0" encoding="UTF-8" standalone="no"?>
<!DOCTYPE svg PUBLIC "-//W3C//DTD SVG 1.1//EN"
 "http://www.w3.org/Graphics/SVG/1.1/DTD/svg11.dtd">
<!-- Generated by graphviz version 2.43.0 (0)
 -->
<!-- Title: ErrorManager.h Pages: 1 -->
<svg width="1498pt" height="588pt"
 viewBox="0.00 0.00 1498.00 588.00" xmlns="http://www.w3.org/2000/svg" xmlns:xlink="http://www.w3.org/1999/xlink">
<g id="graph0" class="graph" transform="scale(1 1) rotate(0) translate(4 584)">
<title>ErrorManager.h</title>
<polygon fill="white" stroke="transparent" points="-4,4 -4,-584 1494,-584 1494,4 -4,4"/>
<!-- Node1 -->
<g id="node1" class="node">
<title>Node1</title>
<g id="a_node1"><a xlink:title="Definition of the ErrorManager class responsible for error registration and throwing.">
<polygon fill="#bfbfbf" stroke="black" points="911.5,-560.5 911.5,-579.5 994.5,-579.5 994.5,-560.5 911.5,-560.5"/>
<text text-anchor="middle" x="953" y="-567.5" font-family="Helvetica,sans-Serif" font-size="10.00">ErrorManager.h</text>
</a>
</g>
</g>
<!-- Node2 -->
<g id="node2" class="node">
<title>Node2</title>
<g id="a_node2"><a xlink:href="DataList_8h.html" target="_top" xlink:title="Definition of templated DataStore wrapper called DataList.">
<polygon fill="white" stroke="black" points="446,-112.5 446,-131.5 508,-131.5 508,-112.5 446,-112.5"/>
<text text-anchor="middle" x="477" y="-119.5" font-family="Helvetica,sans-Serif" font-size="10.00">DataList.h</text>
</a>
</g>
</g>
<!-- Node1&#45;&gt;Node2 -->
<g id="edge1" class="edge">
<title>Node1&#45;&gt;Node2</title>
<path fill="none" stroke="midnightblue" d="M944.33,-551.15C913.12,-487.45 805.23,-272.57 747,-224 674.56,-163.57 562.41,-137.37 508.31,-127.76"/>
<polygon fill="midnightblue" stroke="midnightblue" points="941.28,-552.87 948.81,-560.32 947.57,-549.8 941.28,-552.87"/>
</g>
<!-- Node3 -->
<g id="node3" class="node">
<title>Node3</title>
<g id="a_node3"><a xlink:href="LLU_8h.html" target="_top" xlink:title="Header file which includes all major parts of LLU.">
<polygon fill="white" stroke="black" points="369.5,-0.5 369.5,-19.5 412.5,-19.5 412.5,-0.5 369.5,-0.5"/>
<text text-anchor="middle" x="391" y="-7.5" font-family="Helvetica,sans-Serif" font-size="10.00">LLU.h</text>
</a>
</g>
</g>
<!-- Node1&#45;&gt;Node3 -->
<g id="edge61" class="edge">
<title>Node1&#45;&gt;Node3</title>
<path fill="none" stroke="midnightblue" d="M901.19,-568.77C754.77,-567.65 340.14,-561.2 210,-524 151.68,-507.33 90,-519.65 90,-459 90,-459 90,-459 90,-121 90,-84.82 108.17,-74.93 139,-56 177.72,-32.22 315.39,-17.72 369.21,-12.84"/>
<polygon fill="midnightblue" stroke="midnightblue" points="901.24,-572.27 911.26,-568.84 901.28,-565.27 901.24,-572.27"/>
</g>
<!-- Node4 -->
<g id="node4" class="node">
<title>Node4</title>
<g id="a_node4"><a xlink:href="MArgumentManager_8h.html" target="_top" xlink:title="Definition of MArgumentManager class.">
<polygon fill="white" stroke="black" points="810,-56.5 810,-75.5 922,-75.5 922,-56.5 810,-56.5"/>
<text text-anchor="middle" x="866" y="-63.5" font-family="Helvetica,sans-Serif" font-size="10.00">MArgumentManager.h</text>
</a>
</g>
</g>
<!-- Node1&#45;&gt;Node4 -->
<g id="edge62" class="edge">
<title>Node1&#45;&gt;Node4</title>
<path fill="none" stroke="midnightblue" d="M963.23,-551.66C998.67,-490.58 1112.38,-285.78 1081,-224 1039.97,-143.23 935.74,-94.11 889.13,-75.52"/>
<polygon fill="midnightblue" stroke="midnightblue" points="960.1,-550.07 958.08,-560.47 966.15,-553.61 960.1,-550.07"/>
</g>
<!-- Node8 -->
<g id="node8" class="node">
<title>Node8</title>
<g id="a_node8"><a xlink:href="Base_8hpp.html" target="_top" xlink:title="Definitions of MContainerBase and MContainer class templates.">
<polygon fill="white" stroke="black" points="633,-504.5 633,-523.5 691,-523.5 691,-504.5 633,-504.5"/>
<text text-anchor="middle" x="662" y="-511.5" font-family="Helvetica,sans-Serif" font-size="10.00">Base.hpp</text>
</a>
</g>
</g>
<!-- Node1&#45;&gt;Node8 -->
<g id="edge8" class="edge">
<title>Node1&#45;&gt;Node8</title>
<path fill="none" stroke="midnightblue" d="M901.47,-559.44C840.31,-548.09 740.45,-529.56 691.26,-520.43"/>
<polygon fill="midnightblue" stroke="midnightblue" points="900.84,-562.88 911.31,-561.26 902.11,-556 900.84,-562.88"/>
</g>
<!-- Node17 -->
<g id="node17" class="node">
<title>Node17</title>
<g id="a_node17"><a xlink:href="Views_2Image_8hpp.html" target="_top" xlink:title="Definition and implementation of ImageView and ImageTypedView.">
<polygon fill="white" stroke="black" points="0,-392.5 0,-411.5 62,-411.5 62,-392.5 0,-392.5"/>
<text text-anchor="middle" x="31" y="-399.5" font-family="Helvetica,sans-Serif" font-size="10.00">Image.hpp</text>
</a>
</g>
</g>
<!-- Node1&#45;&gt;Node17 -->
<g id="edge60" class="edge">
<title>Node1&#45;&gt;Node17</title>
<path fill="none" stroke="midnightblue" d="M901.18,-567.9C717.88,-563.83 109.39,-548.5 76,-524 38.59,-496.55 32.26,-434.38 31.2,-411.59"/>
<polygon fill="midnightblue" stroke="midnightblue" points="901.29,-571.41 911.36,-568.13 901.44,-564.41 901.29,-571.41"/>
</g>
<!-- Node27 -->
<g id="node27" class="node">
<title>Node27</title>
<g id="a_node27"><a xlink:href="ProgressMonitor_8cpp.html" target="_top" xlink:title="Implementation file for ProgressMonitor class.">
<polygon fill="white" stroke="black" points="185,-56.5 185,-75.5 291,-75.5 291,-56.5 185,-56.5"/>
<text text-anchor="middle" x="238" y="-63.5" font-family="Helvetica,sans-Serif" font-size="10.00">ProgressMonitor.cpp</text>
</a>
</g>
</g>
<!-- Node1&#45;&gt;Node27 -->
<g id="edge67" class="edge">
<title>Node1&#45;&gt;Node27</title>
<path fill="none" stroke="midnightblue" d="M901.18,-567.57C720.31,-561.9 128,-537.36 128,-459 128,-459 128,-459 128,-345 128,-231.33 208.5,-108.69 231.77,-75.62"/>
<polygon fill="midnightblue" stroke="midnightblue" points="901.14,-571.07 911.24,-567.88 901.35,-564.07 901.14,-571.07"/>
</g>
<!-- Node30 -->
<g id="node30" class="node">
<title>Node30</title>
<g id="a_node30"><a xlink:href="MArrayDimensions_8h.html" target="_top" xlink:title=" ">
<polygon fill="white" stroke="black" points="880,-280.5 880,-299.5 988,-299.5 988,-280.5 880,-280.5"/>
<text text-anchor="middle" x="934" y="-287.5" font-family="Helvetica,sans-Serif" font-size="10.00">MArrayDimensions.h</text>
</a>
</g>
</g>
<!-- Node1&#45;&gt;Node30 -->
<g id="edge53" class="edge">
<title>Node1&#45;&gt;Node30</title>
<path fill="none" stroke="midnightblue" d="M947.78,-550.39C942.16,-528.65 934,-491.51 934,-459 934,-459 934,-459 934,-401 934,-363.19 934,-318.06 934,-299.56"/>
<polygon fill="midnightblue" stroke="midnightblue" points="944.46,-551.5 950.44,-560.25 951.22,-549.68 944.46,-551.5"/>
</g>
<!-- Node33 -->
<g id="node33" class="node">
<title>Node33</title>
<g id="a_node33"><a xlink:href="ErrorManager_8cpp.html" target="_top" xlink:title=" ">
<polygon fill="white" stroke="black" points="1000.5,-504.5 1000.5,-523.5 1093.5,-523.5 1093.5,-504.5 1000.5,-504.5"/>
<text text-anchor="middle" x="1047" y="-511.5" font-family="Helvetica,sans-Serif" font-size="10.00">ErrorManager.cpp</text>
</a>
</g>
</g>
<!-- Node1&#45;&gt;Node33 -->
<g id="edge63" class="edge">
<title>Node1&#45;&gt;Node33</title>
<path fill="none" stroke="midnightblue" d="M977.06,-555.18C994.36,-545.24 1017.15,-532.15 1031.93,-523.65"/>
<polygon fill="midnightblue" stroke="midnightblue" points="975.03,-552.31 968.1,-560.32 978.52,-558.38 975.03,-552.31"/>
</g>
<!-- Node34 -->
<g id="node34" class="node">
<title>Node34</title>
<g id="a_node34"><a xlink:href="FileUtilities_8cpp.html" target="_top" xlink:title=" ">
<polygon fill="white" stroke="black" points="1112,-504.5 1112,-523.5 1196,-523.5 1196,-504.5 1112,-504.5"/>
<text text-anchor="middle" x="1154" y="-511.5" font-family="Helvetica,sans-Serif" font-size="10.00">FileUtilities.cpp</text>
</a>
</g>
</g>
<!-- Node1&#45;&gt;Node34 -->
<g id="edge64" class="edge">
<title>Node1&#45;&gt;Node34</title>
<path fill="none" stroke="midnightblue" d="M994.58,-557.83C1032.53,-547.63 1087.81,-532.78 1122.3,-523.52"/>
<polygon fill="midnightblue" stroke="midnightblue" points="993.6,-554.47 984.85,-560.44 995.41,-561.23 993.6,-554.47"/>
</g>
<!-- Node35 -->
<g id="node35" class="node">
<title>Node35</title>
<g id="a_node35"><a xlink:href="LibraryData_8cpp.html" target="_top" xlink:title=" ">
<polygon fill="white" stroke="black" points="1214,-504.5 1214,-523.5 1300,-523.5 1300,-504.5 1214,-504.5"/>
<text text-anchor="middle" x="1257" y="-511.5" font-family="Helvetica,sans-Serif" font-size="10.00">LibraryData.cpp</text>
</a>
</g>
</g>
<!-- Node1&#45;&gt;Node35 -->
<g id="edge65" class="edge">
<title>Node1&#45;&gt;Node35</title>
<path fill="none" stroke="midnightblue" d="M1004.84,-559.79C1063.76,-549.32 1158.89,-532.43 1213.91,-522.65"/>
<polygon fill="midnightblue" stroke="midnightblue" points="1003.87,-556.41 994.63,-561.6 1005.09,-563.3 1003.87,-556.41"/>
</g>
<!-- Node36 -->
<g id="node36" class="node">
<title>Node36</title>
<g id="a_node36"><a xlink:href="MArgument_8cpp.html" target="_top" xlink:title="Specializations of PrimitiveWrapper class template members.">
<polygon fill="white" stroke="black" points="1318,-504.5 1318,-523.5 1404,-523.5 1404,-504.5 1318,-504.5"/>
<text text-anchor="middle" x="1361" y="-511.5" font-family="Helvetica,sans-Serif" font-size="10.00">MArgument.cpp</text>
</a>
</g>
</g>
<!-- Node1&#45;&gt;Node36 -->
<g id="edge66" class="edge">
<title>Node1&#45;&gt;Node36</title>
<path fill="none" stroke="midnightblue" d="M1004.97,-563.18C1074.39,-555.24 1201.17,-540.14 1309,-524 1311.9,-523.57 1314.89,-523.1 1317.89,-522.62"/>
<polygon fill="midnightblue" stroke="midnightblue" points="1004.28,-559.74 994.74,-564.35 1005.07,-566.69 1004.28,-559.74"/>
</g>
<!-- Node37 -->
<g id="node37" class="node">
<title>Node37</title>
<g id="a_node37"><a xlink:href="Utilities_8cpp.html" target="_top" xlink:title="Implementation file with miscellaneous definitions used throughout the WSTP&#45;related part of LibraryLi...">
<polygon fill="white" stroke="black" points="1422,-504.5 1422,-523.5 1490,-523.5 1490,-504.5 1422,-504.5"/>
<text text-anchor="middle" x="1456" y="-511.5" font-family="Helvetica,sans-Serif" font-size="10.00">Utilities.cpp</text>
</a>
</g>
</g>
<!-- Node1&#45;&gt;Node37 -->
<g id="edge68" class="edge">
<title>Node1&#45;&gt;Node37</title>
<path fill="none" stroke="midnightblue" d="M1004.95,-565.77C1090.41,-560.04 1265.85,-546.53 1413,-524 1415.86,-523.56 1418.83,-523.05 1421.79,-522.51"/>
<polygon fill="midnightblue" stroke="midnightblue" points="1004.48,-562.29 994.74,-566.44 1004.95,-569.28 1004.48,-562.29"/>
</g>
<!-- Node2&#45;&gt;Node3 -->
<g id="edge2" class="edge">
<title>Node2&#45;&gt;Node3</title>
<path fill="none" stroke="midnightblue" d="M463.92,-104.27C445.33,-80.49 411.94,-37.79 397.72,-19.59"/>
<polygon fill="midnightblue" stroke="midnightblue" points="461.34,-106.65 470.25,-112.37 466.85,-102.33 461.34,-106.65"/>
</g>
<!-- Node2&#45;&gt;Node4 -->
<g id="edge3" class="edge">
<title>Node2&#45;&gt;Node4</title>
<path fill="none" stroke="midnightblue" d="M518.38,-115.26C588.47,-105.53 730.61,-85.79 809.7,-74.82"/>
<polygon fill="midnightblue" stroke="midnightblue" points="517.6,-111.83 508.18,-116.67 518.56,-118.76 517.6,-111.83"/>
</g>
<!-- Node4&#45;&gt;Node3 -->
<g id="edge4" class="edge">
<title>Node4&#45;&gt;Node3</title>
<path fill="none" stroke="midnightblue" d="M799.83,-56.46C798.54,-56.31 797.27,-56.15 796,-56 649.54,-38.45 473,-19.64 412.53,-13.26"/>
<polygon fill="midnightblue" stroke="midnightblue" points="799.49,-59.95 809.85,-57.69 800.35,-53 799.49,-59.95"/>
</g>
<!-- Node5 -->
<g id="node5" class="node">
<title>Node5</title>
<g id="a_node5"><a xlink:href="LibraryLinkError_8cpp.html" target="_top" xlink:title="Contains definitions of ErrorManager members and implementation of interface function sendRegisteredE...">
<polygon fill="white" stroke="black" points="736.5,-0.5 736.5,-19.5 839.5,-19.5 839.5,-0.5 736.5,-0.5"/>
<text text-anchor="middle" x="788" y="-7.5" font-family="Helvetica,sans-Serif" font-size="10.00">LibraryLinkError.cpp</text>
</a>
</g>
</g>
<!-- Node4&#45;&gt;Node5 -->
<g id="edge5" class="edge">
<title>Node4&#45;&gt;Node5</title>
<path fill="none" stroke="midnightblue" d="M845.23,-50.62C830.98,-40.76 812.54,-27.99 800.5,-19.65"/>
<polygon fill="midnightblue" stroke="midnightblue" points="843.25,-53.51 853.47,-56.32 847.24,-47.75 843.25,-53.51"/>
</g>
<!-- Node6 -->
<g id="node6" class="node">
<title>Node6</title>
<g id="a_node6"><a xlink:href="Logger_8cpp.html" target="_top" xlink:title="Implementation of functions defined in Logger.h.">
<polygon fill="white" stroke="black" points="858,-0.5 858,-19.5 922,-19.5 922,-0.5 858,-0.5"/>
<text text-anchor="middle" x="890" y="-7.5" font-family="Helvetica,sans-Serif" font-size="10.00">Logger.cpp</text>
</a>
</g>
</g>
<!-- Node4&#45;&gt;Node6 -->
<g id="edge6" class="edge">
<title>Node4&#45;&gt;Node6</title>
<path fill="none" stroke="midnightblue" d="M874.14,-46.69C878.18,-37.59 882.88,-27.01 886.11,-19.75"/>
<polygon fill="midnightblue" stroke="midnightblue" points="870.83,-45.52 869.96,-56.08 877.22,-48.37 870.83,-45.52"/>
</g>
<!-- Node7 -->
<g id="node7" class="node">
<title>Node7</title>
<g id="a_node7"><a xlink:href="MArgumentManager_8cpp.html" target="_top" xlink:title="Definitions of non&#45;template member functions and static data members from MArgumentManager class.">
<polygon fill="white" stroke="black" points="989,-0.5 989,-19.5 1111,-19.5 1111,-0.5 989,-0.5"/>
<text text-anchor="middle" x="1050" y="-7.5" font-family="Helvetica,sans-Serif" font-size="10.00">MArgumentManager.cpp</text>
</a>
</g>
</g>
<!-- Node4&#45;&gt;Node7 -->
<g id="edge7" class="edge">
<title>Node4&#45;&gt;Node7</title>
<path fill="none" stroke="midnightblue" d="M904.95,-53.57C939.66,-43.38 989.68,-28.7 1020.98,-19.52"/>
<polygon fill="midnightblue" stroke="midnightblue" points="903.77,-50.27 895.16,-56.44 905.74,-56.99 903.77,-50.27"/>
</g>
<!-- Node9 -->
<g id="node9" class="node">
<title>Node9</title>
<g id="a_node9"><a xlink:href="Generic_2DataStore_8hpp.html" target="_top" xlink:title="Definition and implementation of generic DataStore wrapper.">
<polygon fill="white" stroke="black" points="464,-280.5 464,-299.5 544,-299.5 544,-280.5 464,-280.5"/>
<text text-anchor="middle" x="504" y="-287.5" font-family="Helvetica,sans-Serif" font-size="10.00">DataStore.hpp</text>
</a>
</g>
</g>
<!-- Node8&#45;&gt;Node9 -->
<g id="edge9" class="edge">
<title>Node8&#45;&gt;Node9</title>
<path fill="none" stroke="midnightblue" d="M655.66,-494.71C646.63,-470.07 628.5,-425.42 605,-392 577.76,-353.25 534.94,-316.1 514.96,-299.73"/>
<polygon fill="midnightblue" stroke="midnightblue" points="652.4,-496 659.06,-504.24 659,-493.65 652.4,-496"/>
</g>
<!-- Node14 -->
<g id="node14" class="node">
<title>Node14</title>
<g id="a_node14"><a xlink:href="Generic_2Image_8hpp.html" target="_top" xlink:title="GenericImage definition and implementation.">
<polygon fill="white" stroke="black" points="325,-448.5 325,-467.5 387,-467.5 387,-448.5 325,-448.5"/>
<text text-anchor="middle" x="356" y="-455.5" font-family="Helvetica,sans-Serif" font-size="10.00">Image.hpp</text>
</a>
</g>
</g>
<!-- Node8&#45;&gt;Node14 -->
<g id="edge16" class="edge">
<title>Node8&#45;&gt;Node14</title>
<path fill="none" stroke="midnightblue" d="M622.85,-506.09C561.34,-495.24 443.28,-474.4 387.14,-464.49"/>
<polygon fill="midnightblue" stroke="midnightblue" points="622.48,-509.58 632.94,-507.87 623.7,-502.69 622.48,-509.58"/>
</g>
<!-- Node20 -->
<g id="node20" class="node">
<title>Node20</title>
<g id="a_node20"><a xlink:href="Generic_2NumericArray_8hpp.html" target="_top" xlink:title="GenericNumericArray definition and implementation.">
<polygon fill="white" stroke="black" points="521,-448.5 521,-467.5 615,-467.5 615,-448.5 521,-448.5"/>
<text text-anchor="middle" x="568" y="-455.5" font-family="Helvetica,sans-Serif" font-size="10.00">NumericArray.hpp</text>
</a>
</g>
</g>
<!-- Node8&#45;&gt;Node20 -->
<g id="edge33" class="edge">
<title>Node8&#45;&gt;Node20</title>
<path fill="none" stroke="midnightblue" d="M637.94,-499.18C620.64,-489.24 597.85,-476.15 583.07,-467.65"/>
<polygon fill="midnightblue" stroke="midnightblue" points="636.48,-502.38 646.9,-504.32 639.97,-496.31 636.48,-502.38"/>
</g>
<!-- Node24 -->
<g id="node24" class="node">
<title>Node24</title>
<g id="a_node24"><a xlink:href="Generic_2Tensor_8hpp.html" target="_top" xlink:title="GenericTensor definition and implementation.">
<polygon fill="white" stroke="black" points="706,-448.5 706,-467.5 770,-467.5 770,-448.5 706,-448.5"/>
<text text-anchor="middle" x="738" y="-455.5" font-family="Helvetica,sans-Serif" font-size="10.00">Tensor.hpp</text>
</a>
</g>
</g>
<!-- Node8&#45;&gt;Node24 -->
<g id="edge42" class="edge">
<title>Node8&#45;&gt;Node24</title>
<path fill="none" stroke="midnightblue" d="M682.58,-498.38C696.31,-488.62 713.93,-476.11 725.57,-467.83"/>
<polygon fill="midnightblue" stroke="midnightblue" points="680.34,-495.68 674.21,-504.32 684.39,-501.38 680.34,-495.68"/>
</g>
<!-- Node9&#45;&gt;Node2 -->
<g id="edge10" class="edge">
<title>Node9&#45;&gt;Node2</title>
<path fill="none" stroke="midnightblue" d="M492.9,-271.71C488.31,-263.62 483.5,-253.66 481,-244 470.43,-203.1 473.99,-151.83 476.01,-131.69"/>
<polygon fill="midnightblue" stroke="midnightblue" points="490.04,-273.74 498.2,-280.5 496.03,-270.13 490.04,-273.74"/>
</g>
<!-- Node10 -->
<g id="node10" class="node">
<title>Node10</title>
<g id="a_node10"><a xlink:href="DataNode_8hpp.html" target="_top" xlink:title=" ">
<polygon fill="white" stroke="black" points="354,-224.5 354,-243.5 434,-243.5 434,-224.5 354,-224.5"/>
<text text-anchor="middle" x="394" y="-231.5" font-family="Helvetica,sans-Serif" font-size="10.00">DataNode.hpp</text>
</a>
</g>
</g>
<!-- Node9&#45;&gt;Node10 -->
<g id="edge11" class="edge">
<title>Node9&#45;&gt;Node10</title>
<path fill="none" stroke="midnightblue" d="M477.24,-275.86C456.84,-265.85 429.33,-252.35 411.63,-243.65"/>
<polygon fill="midnightblue" stroke="midnightblue" points="475.81,-279.06 486.33,-280.32 478.89,-272.78 475.81,-279.06"/>
</g>
<!-- Node12 -->
<g id="node12" class="node">
<title>Node12</title>
<g id="a_node12"><a xlink:href="DataStore_8cpp.html" target="_top" xlink:title=" ">
<polygon fill="white" stroke="black" points="490,-224.5 490,-243.5 570,-243.5 570,-224.5 490,-224.5"/>
<text text-anchor="middle" x="530" y="-231.5" font-family="Helvetica,sans-Serif" font-size="10.00">DataStore.cpp</text>
</a>
</g>
</g>
<!-- Node9&#45;&gt;Node12 -->
<g id="edge14" class="edge">
<title>Node9&#45;&gt;Node12</title>
<path fill="none" stroke="midnightblue" d="M512.67,-270.98C517.09,-261.82 522.25,-251.09 525.79,-243.75"/>
<polygon fill="midnightblue" stroke="midnightblue" points="509.48,-269.55 508.29,-280.08 515.79,-272.59 509.48,-269.55"/>
</g>
<!-- Node13 -->
<g id="node13" class="node">
<title>Node13</title>
<g id="a_node13"><a xlink:href="TypedMArgument_8cpp.html" target="_top" xlink:title=" ">
<polygon fill="white" stroke="black" points="626,-224.5 626,-243.5 738,-243.5 738,-224.5 626,-224.5"/>
<text text-anchor="middle" x="682" y="-231.5" font-family="Helvetica,sans-Serif" font-size="10.00">TypedMArgument.cpp</text>
</a>
</g>
</g>
<!-- Node9&#45;&gt;Node13 -->
<g id="edge15" class="edge">
<title>Node9&#45;&gt;Node13</title>
<path fill="none" stroke="midnightblue" d="M542.12,-277.44C575.68,-267.26 623.77,-252.66 653.93,-243.52"/>
<polygon fill="midnightblue" stroke="midnightblue" points="540.76,-274.19 532.2,-280.44 542.79,-280.89 540.76,-274.19"/>
</g>
<!-- Node11 -->
<g id="node11" class="node">
<title>Node11</title>
<g id="a_node11"><a xlink:href="DataList_8hpp.html" target="_top" xlink:title="Special iterators for DataLists. Iteration over keys, values, reversed iteration.">
<polygon fill="white" stroke="black" points="360,-168.5 360,-187.5 432,-187.5 432,-168.5 360,-168.5"/>
<text text-anchor="middle" x="396" y="-175.5" font-family="Helvetica,sans-Serif" font-size="10.00">DataList.hpp</text>
</a>
</g>
</g>
<!-- Node10&#45;&gt;Node11 -->
<g id="edge12" class="edge">
<title>Node10&#45;&gt;Node11</title>
<path fill="none" stroke="midnightblue" d="M394.71,-213.8C395.04,-204.91 395.42,-194.78 395.68,-187.75"/>
<polygon fill="midnightblue" stroke="midnightblue" points="391.2,-213.96 394.33,-224.08 398.2,-214.22 391.2,-213.96"/>
</g>
<!-- Node11&#45;&gt;Node2 -->
<g id="edge13" class="edge">
<title>Node11&#45;&gt;Node2</title>
<path fill="none" stroke="midnightblue" d="M417.57,-162.62C432.36,-152.76 451.51,-139.99 464.02,-131.65"/>
<polygon fill="midnightblue" stroke="midnightblue" points="415.39,-159.86 409.01,-168.32 419.28,-165.69 415.39,-159.86"/>
</g>
<!-- Node14&#45;&gt;Node13 -->
<g id="edge32" class="edge">
<title>Node14&#45;&gt;Node13</title>
<path fill="none" stroke="midnightblue" d="M384.57,-444.27C404.2,-435.43 430.81,-423.27 454,-412 471.52,-403.49 474.95,-399.34 493,-392 543.4,-371.51 567.23,-389.63 610,-356 649.39,-325.03 671.87,-266.07 679.26,-243.81"/>
<polygon fill="midnightblue" stroke="midnightblue" points="382.96,-441.16 375.27,-448.45 385.83,-447.55 382.96,-441.16"/>
</g>
<!-- Node15 -->
<g id="node15" class="node">
<title>Node15</title>
<g id="a_node15"><a xlink:href="Image_8h.html" target="_top" xlink:title="Templated C++ wrapper for MImage.">
<polygon fill="white" stroke="black" points="290,-168.5 290,-187.5 342,-187.5 342,-168.5 290,-168.5"/>
<text text-anchor="middle" x="316" y="-175.5" font-family="Helvetica,sans-Serif" font-size="10.00">Image.h</text>
</a>
</g>
</g>
<!-- Node14&#45;&gt;Node15 -->
<g id="edge17" class="edge">
<title>Node14&#45;&gt;Node15</title>
<path fill="none" stroke="midnightblue" d="M346.08,-439.54C341.94,-431.42 337.51,-421.48 335,-412 312.44,-326.87 314.48,-218.65 315.62,-187.65"/>
<polygon fill="midnightblue" stroke="midnightblue" points="343.02,-441.24 350.85,-448.39 349.19,-437.92 343.02,-441.24"/>
</g>
<!-- Node16 -->
<g id="node16" class="node">
<title>Node16</title>
<g id="a_node16"><a xlink:href="Image_8cpp.html" target="_top" xlink:title="Template specializations of Image::type attribute for all data types that we want to support.">
<polygon fill="white" stroke="black" points="226,-112.5 226,-131.5 288,-131.5 288,-112.5 226,-112.5"/>
<text text-anchor="middle" x="257" y="-119.5" font-family="Helvetica,sans-Serif" font-size="10.00">Image.cpp</text>
</a>
</g>
</g>
<!-- Node14&#45;&gt;Node16 -->
<g id="edge31" class="edge">
<title>Node14&#45;&gt;Node16</title>
<path fill="none" stroke="midnightblue" d="M315.06,-445.8C273.91,-432.12 212.71,-404.55 185,-356 139.25,-275.84 223.63,-163.24 249.69,-131.58"/>
<polygon fill="midnightblue" stroke="midnightblue" points="314.22,-449.21 324.81,-448.91 316.34,-442.54 314.22,-449.21"/>
</g>
<!-- Node14&#45;&gt;Node17 -->
<g id="edge21" class="edge">
<title>Node14&#45;&gt;Node17</title>
<path fill="none" stroke="midnightblue" d="M314.8,-450.15C248.84,-439.19 120.96,-417.95 62.07,-408.16"/>
<polygon fill="midnightblue" stroke="midnightblue" points="314.4,-453.64 324.84,-451.82 315.55,-446.73 314.4,-453.64"/>
</g>
<!-- Node18 -->
<g id="node18" class="node">
<title>Node18</title>
<g id="a_node18"><a xlink:href="TypedMArgument_8h.html" target="_top" xlink:title=" ">
<polygon fill="white" stroke="black" points="344.5,-392.5 344.5,-411.5 445.5,-411.5 445.5,-392.5 344.5,-392.5"/>
<text text-anchor="middle" x="395" y="-399.5" font-family="Helvetica,sans-Serif" font-size="10.00">TypedMArgument.h</text>
</a>
</g>
</g>
<!-- Node14&#45;&gt;Node18 -->
<g id="edge23" class="edge">
<title>Node14&#45;&gt;Node18</title>
<path fill="none" stroke="midnightblue" d="M368.38,-439.86C375.14,-430.5 383.21,-419.33 388.68,-411.75"/>
<polygon fill="midnightblue" stroke="midnightblue" points="365.46,-437.93 362.44,-448.08 371.13,-442.03 365.46,-437.93"/>
</g>
<!-- Node15&#45;&gt;Node3 -->
<g id="edge18" class="edge">
<title>Node15&#45;&gt;Node3</title>
<path fill="none" stroke="midnightblue" d="M324.2,-158.86C340.28,-123.25 375.43,-45.45 387.13,-19.57"/>
<polygon fill="midnightblue" stroke="midnightblue" points="320.96,-157.52 320.03,-168.08 327.34,-160.4 320.96,-157.52"/>
</g>
<!-- Node15&#45;&gt;Node4 -->
<g id="edge19" class="edge">
<title>Node15&#45;&gt;Node4</title>
<path fill="none" stroke="midnightblue" d="M336.34,-162.86C359.54,-147.51 399.18,-123.65 437,-112 566.19,-72.22 726.47,-66.16 809.78,-66.05"/>
<polygon fill="midnightblue" stroke="midnightblue" points="334.34,-159.98 328.01,-168.47 338.26,-165.78 334.34,-159.98"/>
</g>
<!-- Node15&#45;&gt;Node16 -->
<g id="edge20" class="edge">
<title>Node15&#45;&gt;Node16</title>
<path fill="none" stroke="midnightblue" d="M299.11,-161.54C288.59,-151.91 275.43,-139.87 266.65,-131.83"/>
<polygon fill="midnightblue" stroke="midnightblue" points="296.78,-164.15 306.52,-168.32 301.51,-158.99 296.78,-164.15"/>
</g>
<!-- Node17&#45;&gt;Node3 -->
<g id="edge22" class="edge">
<title>Node17&#45;&gt;Node3</title>
<path fill="none" stroke="midnightblue" d="M34.02,-382.31C37.27,-360.47 42,-323.21 42,-291 42,-291 42,-291 42,-121 42,-88.4 49.38,-74.82 76,-56 123.48,-22.44 305.85,-13.64 369.18,-11.58"/>
<polygon fill="midnightblue" stroke="midnightblue" points="30.51,-382.05 32.44,-392.47 37.43,-383.13 30.51,-382.05"/>
</g>
<!-- Node18&#45;&gt;Node2 -->
<g id="edge24" class="edge">
<title>Node18&#45;&gt;Node2</title>
<path fill="none" stroke="midnightblue" d="M425.76,-388.54C444.41,-380.4 468.34,-368.91 488,-356 541.62,-320.8 565.17,-306.63 579,-244 590.49,-191.95 525.99,-149.3 494.07,-131.7"/>
<polygon fill="midnightblue" stroke="midnightblue" points="424.35,-385.33 416.53,-392.48 427.1,-391.77 424.35,-385.33"/>
</g>
<!-- Node18&#45;&gt;Node9 -->
<g id="edge25" class="edge">
<title>Node18&#45;&gt;Node9</title>
<path fill="none" stroke="midnightblue" d="M422.47,-387.65C436.65,-379.82 453.53,-368.92 466,-356 482.52,-338.88 494.76,-313.25 500.45,-299.86"/>
<polygon fill="midnightblue" stroke="midnightblue" points="420.81,-384.57 413.62,-392.35 424.09,-390.75 420.81,-384.57"/>
</g>
<!-- Node18&#45;&gt;Node10 -->
<g id="edge26" class="edge">
<title>Node18&#45;&gt;Node10</title>
<path fill="none" stroke="midnightblue" d="M413.11,-385.24C420.81,-377.33 428.94,-367.09 433,-356 448.24,-314.34 415.51,-263.5 400.74,-243.59"/>
<polygon fill="midnightblue" stroke="midnightblue" points="410.53,-382.86 405.71,-392.3 415.36,-387.93 410.53,-382.86"/>
</g>
<!-- Node18&#45;&gt;Node13 -->
<g id="edge30" class="edge">
<title>Node18&#45;&gt;Node13</title>
<path fill="none" stroke="midnightblue" d="M455.57,-391.85C503.33,-383.71 565.22,-370.82 586,-356 618.53,-332.81 608.56,-310.8 634,-280 645.49,-266.09 661.08,-252.21 671.34,-243.62"/>
<polygon fill="midnightblue" stroke="midnightblue" points="454.9,-388.41 445.62,-393.51 456.06,-395.32 454.9,-388.41"/>
</g>
<!-- Node19 -->
<g id="node19" class="node">
<title>Node19</title>
<g id="a_node19"><a xlink:href="Iterators_2DataStore_8hpp.html" target="_top" xlink:title=" ">
<polygon fill="white" stroke="black" points="344,-336.5 344,-355.5 424,-355.5 424,-336.5 344,-336.5"/>
<text text-anchor="middle" x="384" y="-343.5" font-family="Helvetica,sans-Serif" font-size="10.00">DataStore.hpp</text>
</a>
</g>
</g>
<!-- Node18&#45;&gt;Node19 -->
<g id="edge27" class="edge">
<title>Node18&#45;&gt;Node19</title>
<path fill="none" stroke="midnightblue" d="M391.15,-382.1C389.32,-373.14 387.23,-362.86 385.78,-355.75"/>
<polygon fill="midnightblue" stroke="midnightblue" points="387.76,-382.98 393.18,-392.08 394.62,-381.59 387.76,-382.98"/>
</g>
<!-- Node19&#45;&gt;Node9 -->
<g id="edge28" class="edge">
<title>Node19&#45;&gt;Node9</title>
<path fill="none" stroke="midnightblue" d="M412.37,-332.23C434.82,-322.13 465.54,-308.31 485.07,-299.52"/>
<polygon fill="midnightblue" stroke="midnightblue" points="410.7,-329.15 403.01,-336.44 413.57,-335.53 410.7,-329.15"/>
</g>
<!-- Node19&#45;&gt;Node11 -->
<g id="edge29" class="edge">
<title>Node19&#45;&gt;Node11</title>
<path fill="none" stroke="midnightblue" d="M370.69,-327.9C353.85,-304.04 328.89,-259.7 345,-224 352.19,-208.07 368.11,-195.52 380.27,-187.76"/>
<polygon fill="midnightblue" stroke="midnightblue" points="368.09,-330.28 376.85,-336.24 373.73,-326.12 368.09,-330.28"/>
</g>
<!-- Node20&#45;&gt;Node13 -->
<g id="edge41" class="edge">
<title>Node20&#45;&gt;Node13</title>
<path fill="none" stroke="midnightblue" d="M587.5,-442.12C609.43,-424.23 644.28,-392.06 662,-356 680.97,-317.4 682.45,-264.38 682.24,-243.73"/>
<polygon fill="midnightblue" stroke="midnightblue" points="585.17,-439.5 579.52,-448.47 589.53,-444.98 585.17,-439.5"/>
</g>
<!-- Node20&#45;&gt;Node18 -->
<g id="edge39" class="edge">
<title>Node20&#45;&gt;Node18</title>
<path fill="none" stroke="midnightblue" d="M530.95,-445.44C498.34,-435.26 451.59,-420.66 422.28,-411.52"/>
<polygon fill="midnightblue" stroke="midnightblue" points="530,-448.8 540.59,-448.44 532.08,-442.12 530,-448.8"/>
</g>
<!-- Node21 -->
<g id="node21" class="node">
<title>Node21</title>
<g id="a_node21"><a xlink:href="NumericArray_8h.html" target="_top" xlink:title="Templated C++ wrapper for MNumericArray.">
<polygon fill="white" stroke="black" points="762.5,-168.5 762.5,-187.5 845.5,-187.5 845.5,-168.5 762.5,-168.5"/>
<text text-anchor="middle" x="804" y="-175.5" font-family="Helvetica,sans-Serif" font-size="10.00">NumericArray.h</text>
</a>
</g>
</g>
<!-- Node20&#45;&gt;Node21 -->
<g id="edge34" class="edge">
<title>Node20&#45;&gt;Node21</title>
<path fill="none" stroke="midnightblue" d="M595.33,-443.88C610.53,-435.85 629.3,-424.7 644,-412 716.7,-349.2 732.51,-327.51 780,-244 790.7,-225.18 798.22,-200.69 801.74,-187.81"/>
<polygon fill="midnightblue" stroke="midnightblue" points="593.69,-440.78 586.39,-448.46 596.88,-447.01 593.69,-440.78"/>
</g>
<!-- Node22 -->
<g id="node22" class="node">
<title>Node22</title>
<g id="a_node22"><a xlink:href="Views_2NumericArray_8hpp.html" target="_top" xlink:title="Definition and implementation of NumericArrayView and NumericArrayTypedView.">
<polygon fill="white" stroke="black" points="194,-336.5 194,-355.5 288,-355.5 288,-336.5 194,-336.5"/>
<text text-anchor="middle" x="241" y="-343.5" font-family="Helvetica,sans-Serif" font-size="10.00">NumericArray.hpp</text>
</a>
</g>
</g>
<!-- Node20&#45;&gt;Node22 -->
<g id="edge37" class="edge">
<title>Node20&#45;&gt;Node22</title>
<path fill="none" stroke="midnightblue" d="M510.84,-452.59C462.46,-447.33 392.09,-435.99 335,-412 300.98,-397.7 266.77,-369.87 250.61,-355.71"/>
<polygon fill="midnightblue" stroke="midnightblue" points="510.51,-456.08 520.82,-453.63 511.23,-449.11 510.51,-456.08"/>
</g>
<!-- Node23 -->
<g id="node23" class="node">
<title>Node23</title>
<g id="a_node23"><a xlink:href="NumericArray_8cpp.html" target="_top" xlink:title="Definitions of MContainer&lt;MArgumentType::NumericArray&gt; (GenericNumericArray) methods.">
<polygon fill="white" stroke="black" points="502,-392.5 502,-411.5 596,-411.5 596,-392.5 502,-392.5"/>
<text text-anchor="middle" x="549" y="-399.5" font-family="Helvetica,sans-Serif" font-size="10.00">NumericArray.cpp</text>
</a>
</g>
</g>
<!-- Node20&#45;&gt;Node23 -->
<g id="edge40" class="edge">
<title>Node20&#45;&gt;Node23</title>
<path fill="none" stroke="midnightblue" d="M561.45,-438.4C558.28,-429.36 554.61,-418.94 552.08,-411.75"/>
<polygon fill="midnightblue" stroke="midnightblue" points="558.24,-439.81 564.86,-448.08 564.85,-437.49 558.24,-439.81"/>
</g>
<!-- Node21&#45;&gt;Node3 -->
<g id="edge35" class="edge">
<title>Node21&#45;&gt;Node3</title>
<path fill="none" stroke="midnightblue" d="M755.69,-166.11C722.87,-158.11 678.72,-146.2 641,-132 548.72,-97.26 444.34,-40.81 406.08,-19.5"/>
<polygon fill="midnightblue" stroke="midnightblue" points="754.96,-169.53 765.5,-168.46 756.59,-162.72 754.96,-169.53"/>
</g>
<!-- Node21&#45;&gt;Node4 -->
<g id="edge36" class="edge">
<title>Node21&#45;&gt;Node4</title>
<path fill="none" stroke="midnightblue" d="M752.25,-168.79C712.22,-161.26 661.56,-148.73 649,-132 643.66,-124.89 643.39,-118.89 649,-112 668.92,-87.53 752.37,-75.94 809.78,-70.78"/>
<polygon fill="midnightblue" stroke="midnightblue" points="751.7,-172.25 762.17,-170.59 752.95,-165.36 751.7,-172.25"/>
</g>
<!-- Node22&#45;&gt;Node3 -->
<g id="edge38" class="edge">
<title>Node22&#45;&gt;Node3</title>
<path fill="none" stroke="midnightblue" d="M221.41,-330.04C189.06,-303.46 128,-244.61 128,-179 128,-179 128,-179 128,-121 128,-16.57 306.67,-9.56 369.48,-10.32"/>
<polygon fill="midnightblue" stroke="midnightblue" points="219.34,-332.86 229.33,-336.37 223.71,-327.39 219.34,-332.86"/>
</g>
<!-- Node24&#45;&gt;Node13 -->
<g id="edge52" class="edge">
<title>Node24&#45;&gt;Node13</title>
<path fill="none" stroke="midnightblue" d="M735.09,-438.52C729.75,-406.03 717.3,-336.74 700,-280 696.07,-267.12 690.02,-252.76 686.04,-243.81"/>
<polygon fill="midnightblue" stroke="midnightblue" points="731.64,-439.08 736.68,-448.4 738.55,-437.97 731.64,-439.08"/>
</g>
<!-- Node24&#45;&gt;Node18 -->
<g id="edge51" class="edge">
<title>Node24&#45;&gt;Node18</title>
<path fill="none" stroke="midnightblue" d="M695.7,-450.34C632.45,-440.38 513.41,-421.64 445.62,-410.97"/>
<polygon fill="midnightblue" stroke="midnightblue" points="695.31,-453.82 705.73,-451.92 696.4,-446.91 695.31,-453.82"/>
</g>
<!-- Node25 -->
<g id="node25" class="node">
<title>Node25</title>
<g id="a_node25"><a xlink:href="Tensor_8h.html" target="_top" xlink:title="Templated C++ wrapper for MTensor.">
<polygon fill="white" stroke="black" points="863.5,-168.5 863.5,-187.5 916.5,-187.5 916.5,-168.5 863.5,-168.5"/>
<text text-anchor="middle" x="890" y="-175.5" font-family="Helvetica,sans-Serif" font-size="10.00">Tensor.h</text>
</a>
</g>
</g>
<!-- Node24&#45;&gt;Node25 -->
<g id="edge43" class="edge">
<title>Node24&#45;&gt;Node25</title>
<path fill="none" stroke="midnightblue" d="M779.9,-448.66C800.98,-442.23 824.96,-431.09 839,-412 888.84,-344.23 832.59,-303.18 861,-224 865.96,-210.18 875.84,-196.28 882.68,-187.66"/>
<polygon fill="midnightblue" stroke="midnightblue" points="778.86,-445.31 770.16,-451.36 780.73,-452.06 778.86,-445.31"/>
</g>
<!-- Node29 -->
<g id="node29" class="node">
<title>Node29</title>
<g id="a_node29"><a xlink:href="Views_2Tensor_8hpp.html" target="_top" xlink:title="Definition and implementation of TensorView and TensorTypedView.">
<polygon fill="white" stroke="black" points="766,-392.5 766,-411.5 830,-411.5 830,-392.5 766,-392.5"/>
<text text-anchor="middle" x="798" y="-399.5" font-family="Helvetica,sans-Serif" font-size="10.00">Tensor.hpp</text>
</a>
</g>
</g>
<!-- Node24&#45;&gt;Node29 -->
<g id="edge50" class="edge">
<title>Node24&#45;&gt;Node29</title>
<path fill="none" stroke="midnightblue" d="M755.18,-441.54C765.88,-431.91 779.26,-419.87 788.18,-411.83"/>
<polygon fill="midnightblue" stroke="midnightblue" points="752.73,-439.03 747.64,-448.32 757.41,-444.24 752.73,-439.03"/>
</g>
<!-- Node25&#45;&gt;Node3 -->
<g id="edge44" class="edge">
<title>Node25&#45;&gt;Node3</title>
<path fill="none" stroke="midnightblue" d="M863.77,-163.79C846.03,-154.84 822.09,-142.74 801,-132 783.64,-123.16 780.16,-119.04 762,-112 633.47,-62.18 470.9,-27.01 412.83,-15.28"/>
<polygon fill="midnightblue" stroke="midnightblue" points="862.42,-167.03 872.92,-168.4 865.57,-160.77 862.42,-167.03"/>
</g>
<!-- Node25&#45;&gt;Node4 -->
<g id="edge45" class="edge">
<title>Node25&#45;&gt;Node4</title>
<path fill="none" stroke="midnightblue" d="M889.25,-158.36C888.42,-145.25 886.67,-127.37 883,-112 879.9,-99 874.03,-84.67 870.07,-75.76"/>
<polygon fill="midnightblue" stroke="midnightblue" points="885.76,-158.66 889.77,-168.47 892.75,-158.3 885.76,-158.66"/>
</g>
<!-- Node26 -->
<g id="node26" class="node">
<title>Node26</title>
<g id="a_node26"><a xlink:href="ProgressMonitor_8h.html" target="_top" xlink:title="Definition of ProgressMonitor class.">
<polygon fill="white" stroke="black" points="658.5,-112.5 658.5,-131.5 753.5,-131.5 753.5,-112.5 658.5,-112.5"/>
<text text-anchor="middle" x="706" y="-119.5" font-family="Helvetica,sans-Serif" font-size="10.00">ProgressMonitor.h</text>
</a>
</g>
</g>
<!-- Node25&#45;&gt;Node26 -->
<g id="edge46" class="edge">
<title>Node25&#45;&gt;Node26</title>
<path fill="none" stroke="midnightblue" d="M853.5,-166.29C818.8,-156.1 767.28,-140.99 735.22,-131.58"/>
<polygon fill="midnightblue" stroke="midnightblue" points="852.66,-169.69 863.24,-169.15 854.64,-162.97 852.66,-169.69"/>
</g>
<!-- Node28 -->
<g id="node28" class="node">
<title>Node28</title>
<g id="a_node28"><a xlink:href="Tensor_8cpp.html" target="_top" xlink:title="Template specialization of certain methods from TypedTensor class for all underlying data types that ...">
<polygon fill="white" stroke="black" points="810,-112.5 810,-131.5 874,-131.5 874,-112.5 810,-112.5"/>
<text text-anchor="middle" x="842" y="-119.5" font-family="Helvetica,sans-Serif" font-size="10.00">Tensor.cpp</text>
</a>
</g>
</g>
<!-- Node25&#45;&gt;Node28 -->
<g id="edge49" class="edge">
<title>Node25&#45;&gt;Node28</title>
<path fill="none" stroke="midnightblue" d="M875.27,-160.43C866.86,-150.97 856.65,-139.48 849.78,-131.75"/>
<polygon fill="midnightblue" stroke="midnightblue" points="872.81,-162.93 882.07,-168.08 878.05,-158.28 872.81,-162.93"/>
</g>
<!-- Node26&#45;&gt;Node4 -->
<g id="edge47" class="edge">
<title>Node26&#45;&gt;Node4</title>
<path fill="none" stroke="midnightblue" d="M741.05,-109.17C771.17,-99 813.9,-84.59 840.77,-75.52"/>
<polygon fill="midnightblue" stroke="midnightblue" points="739.71,-105.93 731.35,-112.44 741.95,-112.56 739.71,-105.93"/>
</g>
<!-- Node26&#45;&gt;Node27 -->
<g id="edge48" class="edge">
<title>Node26&#45;&gt;Node27</title>
<path fill="none" stroke="midnightblue" d="M647.91,-114.3C556.31,-103.73 379.62,-83.34 291.17,-73.14"/>
<polygon fill="midnightblue" stroke="midnightblue" points="647.78,-117.81 658.12,-115.47 648.58,-110.85 647.78,-117.81"/>
</g>
<!-- Node31 -->
<g id="node31" class="node">
<title>Node31</title>
<g id="a_node31"><a xlink:href="MArray_8hpp.html" target="_top" xlink:title="Template base class for C++ wrappers of LibraryLink containers.">
<polygon fill="white" stroke="black" points="870.5,-224.5 870.5,-243.5 935.5,-243.5 935.5,-224.5 870.5,-224.5"/>
<text text-anchor="middle" x="903" y="-231.5" font-family="Helvetica,sans-Serif" font-size="10.00">MArray.hpp</text>
</a>
</g>
</g>
<!-- Node30&#45;&gt;Node31 -->
<g id="edge54" class="edge">
<title>Node30&#45;&gt;Node31</title>
<path fill="none" stroke="midnightblue" d="M923.82,-271.27C918.53,-262.05 912.28,-251.17 908.02,-243.75"/>
<polygon fill="midnightblue" stroke="midnightblue" points="920.87,-273.15 928.88,-280.08 926.94,-269.67 920.87,-273.15"/>
</g>
<!-- Node32 -->
<g id="node32" class="node">
<title>Node32</title>
<g id="a_node32"><a xlink:href="MArrayDimensions_8cpp.html" target="_top" xlink:title=" ">
<polygon fill="white" stroke="black" points="953.5,-224.5 953.5,-243.5 1072.5,-243.5 1072.5,-224.5 953.5,-224.5"/>
<text text-anchor="middle" x="1013" y="-231.5" font-family="Helvetica,sans-Serif" font-size="10.00">MArrayDimensions.cpp</text>
</a>
</g>
</g>
<!-- Node30&#45;&gt;Node32 -->
<g id="edge59" class="edge">
<title>Node30&#45;&gt;Node32</title>
<path fill="none" stroke="midnightblue" d="M955.03,-274.62C969.47,-264.76 988.14,-251.99 1000.34,-243.65"/>
<polygon fill="midnightblue" stroke="midnightblue" points="952.97,-271.79 946.69,-280.32 956.92,-277.57 952.97,-271.79"/>
</g>
<!-- Node31&#45;&gt;Node7 -->
<g id="edge58" class="edge">
<title>Node31&#45;&gt;Node7</title>
<path fill="none" stroke="midnightblue" d="M914.44,-215.72C943.98,-171.11 1022.05,-53.2 1044.12,-19.88"/>
<polygon fill="midnightblue" stroke="midnightblue" points="911.37,-214.03 908.76,-224.3 917.2,-217.89 911.37,-214.03"/>
</g>
<!-- Node31&#45;&gt;Node15 -->
<g id="edge55" class="edge">
<title>Node31&#45;&gt;Node15</title>
<path fill="none" stroke="midnightblue" d="M860.19,-230.46C748.28,-223.66 448.94,-204.46 351,-188 348.15,-187.52 345.2,-186.92 342.27,-186.27"/>
<polygon fill="midnightblue" stroke="midnightblue" points="860.23,-233.97 870.42,-231.08 860.65,-226.98 860.23,-233.97"/>
</g>
<!-- Node31&#45;&gt;Node21 -->
<g id="edge56" class="edge">
<title>Node31&#45;&gt;Node21</title>
<path fill="none" stroke="midnightblue" d="M878.16,-219.45C859.89,-209.48 835.58,-196.23 819.87,-187.65"/>
<polygon fill="midnightblue" stroke="midnightblue" points="876.64,-222.61 887.09,-224.32 879.99,-216.46 876.64,-222.61"/>
</g>
<!-- Node31&#45;&gt;Node25 -->
<g id="edge57" class="edge">
<title>Node31&#45;&gt;Node25</title>
<path fill="none" stroke="midnightblue" d="M898.45,-214.1C896.29,-205.14 893.82,-194.86 892.11,-187.75"/>
<polygon fill="midnightblue" stroke="midnightblue" points="895.11,-215.18 900.85,-224.08 901.92,-213.54 895.11,-215.18"/>
</g>
</g>
</svg>
