<?xml version="1.0" encoding="UTF-8" standalone="no"?>
<!DOCTYPE svg PUBLIC "-//W3C//DTD SVG 1.1//EN"
 "http://www.w3.org/Graphics/SVG/1.1/DTD/svg11.dtd">
<!-- Generated by graphviz version 2.43.0 (0)
 -->
<!-- Title: ErrorManager.h Pages: 1 -->
<svg width="1758pt" height="431pt"
 viewBox="0.00 0.00 1757.50 431.00" xmlns="http://www.w3.org/2000/svg" xmlns:xlink="http://www.w3.org/1999/xlink">
<g id="graph0" class="graph" transform="scale(1 1) rotate(0) translate(4 427)">
<title>ErrorManager.h</title>
<polygon fill="white" stroke="transparent" points="-4,4 -4,-427 1753.5,-427 1753.5,4 -4,4"/>
<!-- Node1 -->
<g id="node1" class="node">
<title>Node1</title>
<g id="a_node1"><a xlink:title="Definition of the ErrorManager class responsible for error registration and throwing.">
<polygon fill="#bfbfbf" stroke="black" points="1327.5,-403.5 1327.5,-422.5 1410.5,-422.5 1410.5,-403.5 1327.5,-403.5"/>
<text text-anchor="middle" x="1369" y="-410.5" font-family="Helvetica,sans-Serif" font-size="10.00">ErrorManager.h</text>
</a>
</g>
</g>
<!-- Node2 -->
<g id="node2" class="node">
<title>Node2</title>
<g id="a_node2"><a xlink:title=" ">
<polygon fill="white" stroke="#bfbfbf" points="66,-168.5 66,-187.5 122,-187.5 122,-168.5 66,-168.5"/>
<text text-anchor="middle" x="94" y="-175.5" font-family="Helvetica,sans-Serif" font-size="10.00">algorithm</text>
</a>
</g>
</g>
<!-- Node1&#45;&gt;Node2 -->
<g id="edge1" class="edge">
<title>Node1&#45;&gt;Node2</title>
<path fill="none" stroke="midnightblue" d="M1327.36,-410.24C1231.85,-405.87 989.82,-392.99 789,-367 486.15,-327.8 339.91,-448.37 113,-244 100.05,-232.34 95.73,-212.39 94.38,-197.66"/>
<polygon fill="midnightblue" stroke="midnightblue" points="97.88,-197.44 93.84,-187.64 90.89,-197.81 97.88,-197.44"/>
</g>
<!-- Node3 -->
<g id="node3" class="node">
<title>Node3</title>
<g id="a_node3"><a xlink:title=" ">
<polygon fill="white" stroke="#bfbfbf" points="1454.5,-342 1454.5,-361 1527.5,-361 1527.5,-342 1454.5,-342"/>
<text text-anchor="middle" x="1491" y="-349" font-family="Helvetica,sans-Serif" font-size="10.00">initializer_list</text>
</a>
</g>
</g>
<!-- Node1&#45;&gt;Node3 -->
<g id="edge2" class="edge">
<title>Node1&#45;&gt;Node3</title>
<path fill="none" stroke="midnightblue" d="M1386.48,-403.48C1406.86,-393.53 1440.78,-376.99 1464.42,-365.46"/>
<polygon fill="midnightblue" stroke="midnightblue" points="1466.1,-368.54 1473.55,-361.01 1463.03,-362.25 1466.1,-368.54"/>
</g>
<!-- Node4 -->
<g id="node4" class="node">
<title>Node4</title>
<g id="a_node4"><a xlink:title=" ">
<polygon fill="white" stroke="#bfbfbf" points="245.5,-56.5 245.5,-75.5 286.5,-75.5 286.5,-56.5 245.5,-56.5"/>
<text text-anchor="middle" x="266" y="-63.5" font-family="Helvetica,sans-Serif" font-size="10.00">string</text>
</a>
</g>
</g>
<!-- Node1&#45;&gt;Node4 -->
<g id="edge3" class="edge">
<title>Node1&#45;&gt;Node4</title>
<path fill="none" stroke="midnightblue" d="M1327.23,-411.73C1150.54,-410.39 463.98,-402.93 251,-367 136.07,-347.61 0,-407.56 0,-291 0,-291 0,-291 0,-233 0,-167.02 31.51,-149.2 86,-112 131.72,-80.79 197.17,-71.21 235.26,-68.27"/>
<polygon fill="midnightblue" stroke="midnightblue" points="235.49,-71.77 245.23,-67.61 235.02,-64.78 235.49,-71.77"/>
</g>
<!-- Node5 -->
<g id="node5" class="node">
<title>Node5</title>
<g id="a_node5"><a xlink:title=" ">
<polygon fill="white" stroke="#bfbfbf" points="1545.5,-342 1545.5,-361 1628.5,-361 1628.5,-342 1545.5,-342"/>
<text text-anchor="middle" x="1587" y="-349" font-family="Helvetica,sans-Serif" font-size="10.00">unordered_map</text>
</a>
</g>
</g>
<!-- Node1&#45;&gt;Node5 -->
<g id="edge4" class="edge">
<title>Node1&#45;&gt;Node5</title>
<path fill="none" stroke="midnightblue" d="M1401.57,-403.49C1435.46,-394.58 1490.03,-380.1 1537,-367 1540.61,-365.99 1544.36,-364.93 1548.11,-363.86"/>
<polygon fill="midnightblue" stroke="midnightblue" points="1549.3,-367.16 1557.95,-361.04 1547.37,-360.43 1549.3,-367.16"/>
</g>
<!-- Node6 -->
<g id="node6" class="node">
<title>Node6</title>
<g id="a_node6"><a xlink:title=" ">
<polygon fill="white" stroke="#bfbfbf" points="1103,-56.5 1103,-75.5 1143,-75.5 1143,-56.5 1103,-56.5"/>
<text text-anchor="middle" x="1123" y="-63.5" font-family="Helvetica,sans-Serif" font-size="10.00">utility</text>
</a>
</g>
</g>
<!-- Node1&#45;&gt;Node6 -->
<g id="edge5" class="edge">
<title>Node1&#45;&gt;Node6</title>
<path fill="none" stroke="midnightblue" d="M1371.44,-403.22C1378.69,-375.4 1397.84,-287.26 1369,-224 1328.44,-135.03 1209.23,-90.98 1153,-74.68"/>
<polygon fill="midnightblue" stroke="midnightblue" points="1153.84,-71.28 1143.27,-71.96 1151.96,-78.02 1153.84,-71.28"/>
</g>
<!-- Node7 -->
<g id="node7" class="node">
<title>Node7</title>
<g id="a_node7"><a xlink:title=" ">
<polygon fill="white" stroke="#bfbfbf" points="1316,-224.5 1316,-243.5 1360,-243.5 1360,-224.5 1316,-224.5"/>
<text text-anchor="middle" x="1338" y="-231.5" font-family="Helvetica,sans-Serif" font-size="10.00">vector</text>
</a>
</g>
</g>
<!-- Node1&#45;&gt;Node7 -->
<g id="edge6" class="edge">
<title>Node1&#45;&gt;Node7</title>
<path fill="none" stroke="midnightblue" d="M1367.5,-403.46C1362.77,-376.43 1348.02,-292.24 1341.35,-254.11"/>
<polygon fill="midnightblue" stroke="midnightblue" points="1344.73,-253.11 1339.55,-243.87 1337.83,-254.32 1344.73,-253.11"/>
</g>
<!-- Node8 -->
<g id="node8" class="node">
<title>Node8</title>
<g id="a_node8"><a xlink:href="LibraryLinkError_8h.html" target="_top" xlink:title="Error class and error codes used by LibraryLink Utilities classes.">
<polygon fill="white" stroke="black" points="798.5,-336.5 798.5,-366.5 923.5,-366.5 923.5,-336.5 798.5,-336.5"/>
<text text-anchor="start" x="806.5" y="-354.5" font-family="Helvetica,sans-Serif" font-size="10.00">LLU/ErrorLog/LibraryLink</text>
<text text-anchor="middle" x="861" y="-343.5" font-family="Helvetica,sans-Serif" font-size="10.00">Error.h</text>
</a>
</g>
</g>
<!-- Node1&#45;&gt;Node8 -->
<g id="edge7" class="edge">
<title>Node1&#45;&gt;Node8</title>
<path fill="none" stroke="midnightblue" d="M1327.43,-407.13C1241.23,-397.03 1042.07,-373.71 933.98,-361.05"/>
<polygon fill="midnightblue" stroke="midnightblue" points="934.15,-357.54 923.81,-359.86 933.33,-364.5 934.15,-357.54"/>
</g>
<!-- Node21 -->
<g id="node21" class="node">
<title>Node21</title>
<g id="a_node21"><a xlink:href="LibraryData_8h.html" target="_top" xlink:title=" ">
<polygon fill="white" stroke="black" points="1378,-56.5 1378,-75.5 1474,-75.5 1474,-56.5 1378,-56.5"/>
<text text-anchor="middle" x="1426" y="-63.5" font-family="Helvetica,sans-Serif" font-size="10.00">LLU/LibraryData.h</text>
</a>
</g>
</g>
<!-- Node1&#45;&gt;Node21 -->
<g id="edge77" class="edge">
<title>Node1&#45;&gt;Node21</title>
<path fill="none" stroke="midnightblue" d="M1376.76,-403.27C1384.13,-394.59 1395.08,-380.65 1402,-367 1418.02,-335.41 1426,-326.42 1426,-291 1426,-291 1426,-291 1426,-177 1426,-144.95 1426,-107.64 1426,-85.75"/>
<polygon fill="midnightblue" stroke="midnightblue" points="1429.5,-85.56 1426,-75.56 1422.5,-85.56 1429.5,-85.56"/>
</g>
<!-- Node8&#45;&gt;Node4 -->
<g id="edge9" class="edge">
<title>Node8&#45;&gt;Node4</title>
<path fill="none" stroke="midnightblue" d="M798.38,-346.68C641.07,-336.28 233.34,-304.14 113,-244 75.47,-225.25 35.63,-204.11 57,-168 94.95,-103.86 187.14,-79.68 235.4,-71.2"/>
<polygon fill="midnightblue" stroke="midnightblue" points="235.97,-74.65 245.27,-69.58 234.84,-67.75 235.97,-74.65"/>
</g>
<!-- Node9 -->
<g id="node9" class="node">
<title>Node9</title>
<g id="a_node9"><a xlink:title=" ">
<polygon fill="white" stroke="#bfbfbf" points="773.5,-280.5 773.5,-299.5 832.5,-299.5 832.5,-280.5 773.5,-280.5"/>
<text text-anchor="middle" x="803" y="-287.5" font-family="Helvetica,sans-Serif" font-size="10.00">stdexcept</text>
</a>
</g>
</g>
<!-- Node8&#45;&gt;Node9 -->
<g id="edge8" class="edge">
<title>Node8&#45;&gt;Node9</title>
<path fill="none" stroke="midnightblue" d="M847.25,-336.4C838.65,-327.58 827.55,-316.18 818.61,-307.02"/>
<polygon fill="midnightblue" stroke="midnightblue" points="820.93,-304.38 811.44,-299.66 815.91,-309.26 820.93,-304.38"/>
</g>
<!-- Node10 -->
<g id="node10" class="node">
<title>Node10</title>
<g id="a_node10"><a xlink:href="WSStream_8hpp.html" target="_top" xlink:title="Header file for WSStream class.">
<polygon fill="white" stroke="black" points="850.5,-280.5 850.5,-299.5 987.5,-299.5 987.5,-280.5 850.5,-280.5"/>
<text text-anchor="middle" x="919" y="-287.5" font-family="Helvetica,sans-Serif" font-size="10.00">LLU/WSTP/WSStream.hpp</text>
</a>
</g>
</g>
<!-- Node8&#45;&gt;Node10 -->
<g id="edge10" class="edge">
<title>Node8&#45;&gt;Node10</title>
<path fill="none" stroke="midnightblue" d="M874.75,-336.4C883.35,-327.58 894.45,-316.18 903.39,-307.02"/>
<polygon fill="midnightblue" stroke="midnightblue" points="906.09,-309.26 910.56,-299.66 901.07,-304.38 906.09,-309.26"/>
</g>
<!-- Node10&#45;&gt;Node2 -->
<g id="edge11" class="edge">
<title>Node10&#45;&gt;Node2</title>
<path fill="none" stroke="midnightblue" d="M850.12,-280.81C847.04,-280.52 843.99,-280.25 841,-280 763.06,-273.51 206.13,-282.42 138,-244 119.87,-233.78 107.71,-212.61 100.85,-197.2"/>
<polygon fill="midnightblue" stroke="midnightblue" points="103.97,-195.59 96.94,-187.66 97.49,-198.24 103.97,-195.59"/>
</g>
<!-- Node10&#45;&gt;Node6 -->
<g id="edge16" class="edge">
<title>Node10&#45;&gt;Node6</title>
<path fill="none" stroke="midnightblue" d="M952.19,-280.45C974.02,-273.5 1002.12,-261.87 1022,-244 1072.82,-198.33 1104.44,-120.85 1116.91,-85.53"/>
<polygon fill="midnightblue" stroke="midnightblue" points="1120.37,-86.24 1120.28,-75.64 1113.74,-83.98 1120.37,-86.24"/>
</g>
<!-- Node10&#45;&gt;Node7 -->
<g id="edge17" class="edge">
<title>Node10&#45;&gt;Node7</title>
<path fill="none" stroke="midnightblue" d="M987.54,-283.61C1064.48,-276.95 1192.84,-263.97 1302,-244 1303.25,-243.77 1304.52,-243.53 1305.8,-243.26"/>
<polygon fill="midnightblue" stroke="midnightblue" points="1306.63,-246.66 1315.63,-241.06 1305.11,-239.83 1306.63,-246.66"/>
</g>
<!-- Node11 -->
<g id="node11" class="node">
<title>Node11</title>
<g id="a_node11"><a xlink:title=" ">
<polygon fill="white" stroke="#bfbfbf" points="836.5,-224.5 836.5,-243.5 883.5,-243.5 883.5,-224.5 836.5,-224.5"/>
<text text-anchor="middle" x="860" y="-231.5" font-family="Helvetica,sans-Serif" font-size="10.00">iterator</text>
</a>
</g>
</g>
<!-- Node10&#45;&gt;Node11 -->
<g id="edge12" class="edge">
<title>Node10&#45;&gt;Node11</title>
<path fill="none" stroke="midnightblue" d="M909.52,-280.32C900.8,-272.34 887.66,-260.31 877.1,-250.65"/>
<polygon fill="midnightblue" stroke="midnightblue" points="879.39,-248 869.65,-243.83 874.67,-253.17 879.39,-248"/>
</g>
<!-- Node12 -->
<g id="node12" class="node">
<title>Node12</title>
<g id="a_node12"><a xlink:title=" ">
<polygon fill="white" stroke="#bfbfbf" points="901.5,-224.5 901.5,-243.5 936.5,-243.5 936.5,-224.5 901.5,-224.5"/>
<text text-anchor="middle" x="919" y="-231.5" font-family="Helvetica,sans-Serif" font-size="10.00">map</text>
</a>
</g>
</g>
<!-- Node10&#45;&gt;Node12 -->
<g id="edge13" class="edge">
<title>Node10&#45;&gt;Node12</title>
<path fill="none" stroke="midnightblue" d="M919,-280.08C919,-273.01 919,-262.86 919,-253.99"/>
<polygon fill="midnightblue" stroke="midnightblue" points="922.5,-253.75 919,-243.75 915.5,-253.75 922.5,-253.75"/>
</g>
<!-- Node13 -->
<g id="node13" class="node">
<title>Node13</title>
<g id="a_node13"><a xlink:title=" ">
<polygon fill="white" stroke="#bfbfbf" points="954.5,-224.5 954.5,-243.5 995.5,-243.5 995.5,-224.5 954.5,-224.5"/>
<text text-anchor="middle" x="975" y="-231.5" font-family="Helvetica,sans-Serif" font-size="10.00">stack</text>
</a>
</g>
</g>
<!-- Node10&#45;&gt;Node13 -->
<g id="edge14" class="edge">
<title>Node10&#45;&gt;Node13</title>
<path fill="none" stroke="midnightblue" d="M928,-280.32C936.19,-272.42 948.51,-260.55 958.47,-250.94"/>
<polygon fill="midnightblue" stroke="midnightblue" points="961.07,-253.29 965.84,-243.83 956.21,-248.26 961.07,-253.29"/>
</g>
<!-- Node14 -->
<g id="node14" class="node">
<title>Node14</title>
<g id="a_node14"><a xlink:title=" ">
<polygon fill="white" stroke="#bfbfbf" points="1023,-56.5 1023,-75.5 1085,-75.5 1085,-56.5 1023,-56.5"/>
<text text-anchor="middle" x="1054" y="-63.5" font-family="Helvetica,sans-Serif" font-size="10.00">type_traits</text>
</a>
</g>
</g>
<!-- Node10&#45;&gt;Node14 -->
<g id="edge15" class="edge">
<title>Node10&#45;&gt;Node14</title>
<path fill="none" stroke="midnightblue" d="M987.54,-280.94C1085.67,-267.77 1258.24,-237.97 1293,-188 1298.08,-180.7 1297.91,-175.41 1293,-168 1270.13,-133.5 1156.93,-96.49 1094.88,-78.35"/>
<polygon fill="midnightblue" stroke="midnightblue" points="1095.6,-74.91 1085.02,-75.49 1093.65,-81.63 1095.6,-74.91"/>
</g>
<!-- Node15 -->
<g id="node15" class="node">
<title>Node15</title>
<g id="a_node15"><a xlink:title=" ">
<polygon fill="white" stroke="#bfbfbf" points="914,-0.5 914,-19.5 960,-19.5 960,-0.5 914,-0.5"/>
<text text-anchor="middle" x="937" y="-7.5" font-family="Helvetica,sans-Serif" font-size="10.00">wstp.h</text>
</a>
</g>
</g>
<!-- Node10&#45;&gt;Node15 -->
<g id="edge18" class="edge">
<title>Node10&#45;&gt;Node15</title>
<path fill="none" stroke="midnightblue" d="M987.72,-287.48C1051.21,-284.09 1147.19,-273.91 1225,-244 1266.88,-227.9 1287.83,-227.56 1309,-188 1336.36,-136.88 1330,-113.31 1244,-56 1144.48,10.31 1093.16,-41.33 970.47,-19.71"/>
<polygon fill="midnightblue" stroke="midnightblue" points="970.82,-16.21 960.34,-17.79 969.51,-23.09 970.82,-16.21"/>
</g>
<!-- Node16 -->
<g id="node16" class="node">
<title>Node16</title>
<g id="a_node16"><a xlink:href="Errors_8h.html" target="_top" xlink:title="Definitions of error names and error codes used across LLU.">
<polygon fill="white" stroke="black" points="168,-112.5 168,-131.5 280,-131.5 280,-112.5 168,-112.5"/>
<text text-anchor="middle" x="224" y="-119.5" font-family="Helvetica,sans-Serif" font-size="10.00">LLU/ErrorLog/Errors.h</text>
</a>
</g>
</g>
<!-- Node10&#45;&gt;Node16 -->
<g id="edge19" class="edge">
<title>Node10&#45;&gt;Node16</title>
<path fill="none" stroke="midnightblue" d="M850.12,-280.84C847.04,-280.54 843.99,-280.26 841,-280 774.14,-274.15 286.76,-290.12 238,-244 210.31,-217.81 214.67,-168.51 219.68,-141.63"/>
<polygon fill="midnightblue" stroke="midnightblue" points="223.15,-142.12 221.77,-131.62 216.3,-140.69 223.15,-142.12"/>
</g>
<!-- Node17 -->
<g id="node17" class="node">
<title>Node17</title>
<g id="a_node17"><a xlink:href="Utilities_8hpp.html" target="_top" xlink:title="Short but generally useful functions.">
<polygon fill="white" stroke="black" points="937.5,-112.5 937.5,-131.5 1026.5,-131.5 1026.5,-112.5 937.5,-112.5"/>
<text text-anchor="middle" x="982" y="-119.5" font-family="Helvetica,sans-Serif" font-size="10.00">LLU/Utilities.hpp</text>
</a>
</g>
</g>
<!-- Node10&#45;&gt;Node17 -->
<g id="edge21" class="edge">
<title>Node10&#45;&gt;Node17</title>
<path fill="none" stroke="midnightblue" d="M952.8,-280.39C971.39,-273.74 992.89,-262.45 1004,-244 1023.65,-211.36 1005.22,-165.45 992.25,-140.61"/>
<polygon fill="midnightblue" stroke="midnightblue" points="995.2,-138.71 987.31,-131.64 989.07,-142.09 995.2,-138.71"/>
</g>
<!-- Node29 -->
<g id="node29" class="node">
<title>Node29</title>
<g id="a_node29"><a xlink:href="Get_8h.html" target="_top" xlink:title="Header file with classes related to reading data from WSTP.">
<polygon fill="white" stroke="black" points="689,-224.5 689,-243.5 783,-243.5 783,-224.5 689,-224.5"/>
<text text-anchor="middle" x="736" y="-231.5" font-family="Helvetica,sans-Serif" font-size="10.00">LLU/WSTP/Get.h</text>
</a>
</g>
</g>
<!-- Node10&#45;&gt;Node29 -->
<g id="edge36" class="edge">
<title>Node10&#45;&gt;Node29</title>
<path fill="none" stroke="midnightblue" d="M890,-280.44C858.82,-271.24 809.07,-256.56 774.59,-246.39"/>
<polygon fill="midnightblue" stroke="midnightblue" points="775.44,-242.99 764.86,-243.52 773.46,-249.7 775.44,-242.99"/>
</g>
<!-- Node32 -->
<g id="node32" class="node">
<title>Node32</title>
<g id="a_node32"><a xlink:href="WSTP_2Utilities_8h.html" target="_top" xlink:title="Header file with miscellaneous utilities used throughout the WSTP&#45;related part of LibraryLinkUtilitie...">
<polygon fill="white" stroke="black" points="368.5,-168.5 368.5,-187.5 479.5,-187.5 479.5,-168.5 368.5,-168.5"/>
<text text-anchor="middle" x="424" y="-175.5" font-family="Helvetica,sans-Serif" font-size="10.00">LLU/WSTP/Utilities.h</text>
</a>
</g>
</g>
<!-- Node10&#45;&gt;Node32 -->
<g id="edge72" class="edge">
<title>Node10&#45;&gt;Node32</title>
<path fill="none" stroke="midnightblue" d="M850.1,-281.02C847.02,-280.67 843.98,-280.33 841,-280 692.62,-263.44 645.33,-300.19 507,-244 479.85,-232.97 454.2,-210.32 438.79,-194.89"/>
<polygon fill="midnightblue" stroke="midnightblue" points="441.18,-192.33 431.71,-187.58 436.15,-197.2 441.18,-192.33"/>
</g>
<!-- Node35 -->
<g id="node35" class="node">
<title>Node35</title>
<g id="a_node35"><a xlink:href="Put_8h.html" target="_top" xlink:title="Header file with classes related to sending data through WSTP.">
<polygon fill="white" stroke="black" points="516.5,-224.5 516.5,-243.5 609.5,-243.5 609.5,-224.5 516.5,-224.5"/>
<text text-anchor="middle" x="563" y="-231.5" font-family="Helvetica,sans-Serif" font-size="10.00">LLU/WSTP/Put.h</text>
</a>
</g>
</g>
<!-- Node10&#45;&gt;Node35 -->
<g id="edge57" class="edge">
<title>Node10&#45;&gt;Node35</title>
<path fill="none" stroke="midnightblue" d="M862.59,-280.44C796.02,-270.35 685.97,-253.65 619.4,-243.55"/>
<polygon fill="midnightblue" stroke="midnightblue" points="619.91,-240.09 609.5,-242.05 618.86,-247.01 619.91,-240.09"/>
</g>
<!-- Node36 -->
<g id="node36" class="node">
<title>Node36</title>
<g id="a_node36"><a xlink:href="Strings_8h.html" target="_top" xlink:title="Definitions of multiple structures and type aliases related to string handling in WSTP.">
<polygon fill="white" stroke="black" points="247.5,-224.5 247.5,-243.5 356.5,-243.5 356.5,-224.5 247.5,-224.5"/>
<text text-anchor="middle" x="302" y="-231.5" font-family="Helvetica,sans-Serif" font-size="10.00">LLU/WSTP/Strings.h</text>
</a>
</g>
</g>
<!-- Node10&#45;&gt;Node36 -->
<g id="edge63" class="edge">
<title>Node10&#45;&gt;Node36</title>
<path fill="none" stroke="midnightblue" d="M850.11,-280.93C847.03,-280.61 843.98,-280.3 841,-280 670.03,-263 468.12,-247.32 366.83,-239.75"/>
<polygon fill="midnightblue" stroke="midnightblue" points="366.99,-236.25 356.76,-239 366.47,-243.23 366.99,-236.25"/>
</g>
<!-- Node37 -->
<g id="node37" class="node">
<title>Node37</title>
<g id="a_node37"><a xlink:href="UtilityTypeTraits_8hpp.html" target="_top" xlink:title="Type traits used by WSStream to identify types supported by WSTP.">
<polygon fill="white" stroke="black" points="1124,-168.5 1124,-187.5 1284,-187.5 1284,-168.5 1124,-168.5"/>
<text text-anchor="middle" x="1204" y="-175.5" font-family="Helvetica,sans-Serif" font-size="10.00">LLU/WSTP/UtilityTypeTraits.hpp</text>
</a>
</g>
</g>
<!-- Node10&#45;&gt;Node37 -->
<g id="edge73" class="edge">
<title>Node10&#45;&gt;Node37</title>
<path fill="none" stroke="midnightblue" d="M980.67,-280.48C1019.03,-273.74 1068.75,-262.33 1110,-244 1138.98,-231.12 1168.42,-208.98 1186.44,-194.17"/>
<polygon fill="midnightblue" stroke="midnightblue" points="1188.91,-196.67 1194.32,-187.56 1184.41,-191.31 1188.91,-196.67"/>
</g>
<!-- Node16&#45;&gt;Node4 -->
<g id="edge20" class="edge">
<title>Node16&#45;&gt;Node4</title>
<path fill="none" stroke="midnightblue" d="M230.94,-112.08C236.93,-104.38 245.75,-93.03 253.05,-83.65"/>
<polygon fill="midnightblue" stroke="midnightblue" points="255.82,-85.79 259.19,-75.75 250.29,-81.5 255.82,-85.79"/>
</g>
<!-- Node17&#45;&gt;Node6 -->
<g id="edge25" class="edge">
<title>Node17&#45;&gt;Node6</title>
<path fill="none" stroke="midnightblue" d="M1004.34,-112.44C1028.3,-103.27 1066.48,-88.64 1093.04,-78.47"/>
<polygon fill="midnightblue" stroke="midnightblue" points="1094.51,-81.66 1102.59,-74.82 1092,-75.12 1094.51,-81.66"/>
</g>
<!-- Node17&#45;&gt;Node14 -->
<g id="edge24" class="edge">
<title>Node17&#45;&gt;Node14</title>
<path fill="none" stroke="midnightblue" d="M993.57,-112.32C1004.42,-104.18 1020.88,-91.84 1033.88,-82.09"/>
<polygon fill="midnightblue" stroke="midnightblue" points="1036.32,-84.63 1042.22,-75.83 1032.12,-79.03 1036.32,-84.63"/>
</g>
<!-- Node18 -->
<g id="node18" class="node">
<title>Node18</title>
<g id="a_node18"><a xlink:title=" ">
<polygon fill="white" stroke="#bfbfbf" points="887.5,-56.5 887.5,-75.5 940.5,-75.5 940.5,-56.5 887.5,-56.5"/>
<text text-anchor="middle" x="914" y="-63.5" font-family="Helvetica,sans-Serif" font-size="10.00">complex</text>
</a>
</g>
</g>
<!-- Node17&#45;&gt;Node18 -->
<g id="edge22" class="edge">
<title>Node17&#45;&gt;Node18</title>
<path fill="none" stroke="midnightblue" d="M971.07,-112.32C960.83,-104.18 945.28,-91.84 933,-82.09"/>
<polygon fill="midnightblue" stroke="midnightblue" points="935.13,-79.31 925.12,-75.83 930.78,-84.79 935.13,-79.31"/>
</g>
<!-- Node19 -->
<g id="node19" class="node">
<title>Node19</title>
<g id="a_node19"><a xlink:title=" ">
<polygon fill="white" stroke="#bfbfbf" points="747,-56.5 747,-75.5 793,-75.5 793,-56.5 747,-56.5"/>
<text text-anchor="middle" x="770" y="-63.5" font-family="Helvetica,sans-Serif" font-size="10.00">cstdint</text>
</a>
</g>
</g>
<!-- Node17&#45;&gt;Node19 -->
<g id="edge23" class="edge">
<title>Node17&#45;&gt;Node19</title>
<path fill="none" stroke="midnightblue" d="M948.41,-112.44C908.56,-102.29 842.56,-85.48 802.98,-75.4"/>
<polygon fill="midnightblue" stroke="midnightblue" points="803.84,-72.01 793.28,-72.93 802.11,-78.79 803.84,-72.01"/>
</g>
<!-- Node20 -->
<g id="node20" class="node">
<title>Node20</title>
<g id="a_node20"><a xlink:title=" ">
<polygon fill="white" stroke="#bfbfbf" points="959,-56.5 959,-75.5 1005,-75.5 1005,-56.5 959,-56.5"/>
<text text-anchor="middle" x="982" y="-63.5" font-family="Helvetica,sans-Serif" font-size="10.00">variant</text>
</a>
</g>
</g>
<!-- Node17&#45;&gt;Node20 -->
<g id="edge26" class="edge">
<title>Node17&#45;&gt;Node20</title>
<path fill="none" stroke="midnightblue" d="M982,-112.08C982,-105.01 982,-94.86 982,-85.99"/>
<polygon fill="midnightblue" stroke="midnightblue" points="985.5,-85.75 982,-75.75 978.5,-85.75 985.5,-85.75"/>
</g>
<!-- Node17&#45;&gt;Node21 -->
<g id="edge27" class="edge">
<title>Node17&#45;&gt;Node21</title>
<path fill="none" stroke="midnightblue" d="M1026.61,-115.58C1107.39,-105.75 1277.84,-85.02 1367.72,-74.09"/>
<polygon fill="midnightblue" stroke="midnightblue" points="1368.23,-77.55 1377.74,-72.87 1367.39,-70.6 1368.23,-77.55"/>
</g>
<!-- Node21&#45;&gt;Node15 -->
<g id="edge30" class="edge">
<title>Node21&#45;&gt;Node15</title>
<path fill="none" stroke="midnightblue" d="M1377.97,-57.77C1373.25,-57.14 1368.54,-56.54 1364,-56 1192.61,-35.75 1144.8,-50.68 970.35,-19.71"/>
<polygon fill="midnightblue" stroke="midnightblue" points="970.78,-16.23 960.32,-17.9 969.54,-23.12 970.78,-16.23"/>
</g>
<!-- Node22 -->
<g id="node22" class="node">
<title>Node22</title>
<g id="a_node22"><a xlink:title=" ">
<polygon fill="white" stroke="#bfbfbf" points="693,-0.5 693,-19.5 745,-19.5 745,-0.5 693,-0.5"/>
<text text-anchor="middle" x="719" y="-7.5" font-family="Helvetica,sans-Serif" font-size="10.00">memory</text>
</a>
</g>
</g>
<!-- Node21&#45;&gt;Node22 -->
<g id="edge28" class="edge">
<title>Node21&#45;&gt;Node22</title>
<path fill="none" stroke="midnightblue" d="M1377.96,-61.33C1244.9,-51.17 873.6,-22.81 755.54,-13.79"/>
<polygon fill="midnightblue" stroke="midnightblue" points="755.47,-10.28 745.24,-13 754.94,-17.26 755.47,-10.28"/>
</g>
<!-- Node23 -->
<g id="node23" class="node">
<title>Node23</title>
<g id="a_node23"><a xlink:title=" ">
<polygon fill="white" stroke="#bfbfbf" points="1580,-0.5 1580,-19.5 1642,-19.5 1642,-0.5 1580,-0.5"/>
<text text-anchor="middle" x="1611" y="-7.5" font-family="Helvetica,sans-Serif" font-size="10.00">dllexport.h</text>
</a>
</g>
</g>
<!-- Node21&#45;&gt;Node23 -->
<g id="edge29" class="edge">
<title>Node21&#45;&gt;Node23</title>
<path fill="none" stroke="midnightblue" d="M1455.31,-56.44C1486.84,-47.24 1537.13,-32.56 1571.99,-22.39"/>
<polygon fill="midnightblue" stroke="midnightblue" points="1573.2,-25.68 1581.82,-19.52 1571.24,-18.96 1573.2,-25.68"/>
</g>
<!-- Node24 -->
<g id="node24" class="node">
<title>Node24</title>
<g id="a_node24"><a xlink:title=" ">
<polygon fill="white" stroke="#bfbfbf" points="1660.5,-0.5 1660.5,-19.5 1749.5,-19.5 1749.5,-0.5 1660.5,-0.5"/>
<text text-anchor="middle" x="1705" y="-7.5" font-family="Helvetica,sans-Serif" font-size="10.00">WolframLibrary.h</text>
</a>
</g>
</g>
<!-- Node21&#45;&gt;Node24 -->
<g id="edge31" class="edge">
<title>Node21&#45;&gt;Node24</title>
<path fill="none" stroke="midnightblue" d="M1470.21,-56.44C1519.29,-46.94 1598.51,-31.61 1651.16,-21.42"/>
<polygon fill="midnightblue" stroke="midnightblue" points="1651.85,-24.85 1661,-19.52 1650.52,-17.98 1651.85,-24.85"/>
</g>
<!-- Node25 -->
<g id="node25" class="node">
<title>Node25</title>
<g id="a_node25"><a xlink:title=" ">
<polygon fill="white" stroke="#bfbfbf" points="979.5,-0.5 979.5,-19.5 1122.5,-19.5 1122.5,-0.5 979.5,-0.5"/>
<text text-anchor="middle" x="1051" y="-7.5" font-family="Helvetica,sans-Serif" font-size="10.00">WolframIOLibraryFunctions.h</text>
</a>
</g>
</g>
<!-- Node21&#45;&gt;Node25 -->
<g id="edge32" class="edge">
<title>Node21&#45;&gt;Node25</title>
<path fill="none" stroke="midnightblue" d="M1377.94,-58.02C1373.23,-57.33 1368.52,-56.65 1364,-56 1280.36,-43.92 1184.14,-30.1 1120.71,-20.99"/>
<polygon fill="midnightblue" stroke="midnightblue" points="1120.82,-17.47 1110.43,-19.52 1119.83,-24.4 1120.82,-17.47"/>
</g>
<!-- Node26 -->
<g id="node26" class="node">
<title>Node26</title>
<g id="a_node26"><a xlink:title=" ">
<polygon fill="white" stroke="#bfbfbf" points="1141,-0.5 1141,-19.5 1257,-19.5 1257,-0.5 1141,-0.5"/>
<text text-anchor="middle" x="1199" y="-7.5" font-family="Helvetica,sans-Serif" font-size="10.00">WolframImageLibrary.h</text>
</a>
</g>
</g>
<!-- Node21&#45;&gt;Node26 -->
<g id="edge33" class="edge">
<title>Node21&#45;&gt;Node26</title>
<path fill="none" stroke="midnightblue" d="M1390.03,-56.44C1350.68,-47.08 1287.51,-32.06 1244.69,-21.87"/>
<polygon fill="midnightblue" stroke="midnightblue" points="1245.34,-18.43 1234.8,-19.52 1243.72,-25.24 1245.34,-18.43"/>
</g>
<!-- Node27 -->
<g id="node27" class="node">
<title>Node27</title>
<g id="a_node27"><a xlink:title=" ">
<polygon fill="white" stroke="#bfbfbf" points="1275.5,-0.5 1275.5,-19.5 1424.5,-19.5 1424.5,-0.5 1275.5,-0.5"/>
<text text-anchor="middle" x="1350" y="-7.5" font-family="Helvetica,sans-Serif" font-size="10.00">WolframNumericArrayLibrary.h</text>
</a>
</g>
</g>
<!-- Node21&#45;&gt;Node27 -->
<g id="edge34" class="edge">
<title>Node21&#45;&gt;Node27</title>
<path fill="none" stroke="midnightblue" d="M1413.79,-56.32C1402.22,-48.11 1384.62,-35.6 1370.84,-25.81"/>
<polygon fill="midnightblue" stroke="midnightblue" points="1372.61,-22.77 1362.43,-19.83 1368.56,-28.48 1372.61,-22.77"/>
</g>
<!-- Node28 -->
<g id="node28" class="node">
<title>Node28</title>
<g id="a_node28"><a xlink:title=" ">
<polygon fill="white" stroke="#bfbfbf" points="1442.5,-0.5 1442.5,-19.5 1561.5,-19.5 1561.5,-0.5 1442.5,-0.5"/>
<text text-anchor="middle" x="1502" y="-7.5" font-family="Helvetica,sans-Serif" font-size="10.00">WolframSparseLibrary.h</text>
</a>
</g>
</g>
<!-- Node21&#45;&gt;Node28 -->
<g id="edge35" class="edge">
<title>Node21&#45;&gt;Node28</title>
<path fill="none" stroke="midnightblue" d="M1438.21,-56.32C1449.78,-48.11 1467.38,-35.6 1481.16,-25.81"/>
<polygon fill="midnightblue" stroke="midnightblue" points="1483.44,-28.48 1489.57,-19.83 1479.39,-22.77 1483.44,-28.48"/>
</g>
<!-- Node29&#45;&gt;Node4 -->
<g id="edge39" class="edge">
<title>Node29&#45;&gt;Node4</title>
<path fill="none" stroke="midnightblue" d="M733.11,-224.41C724.45,-199.19 698.06,-126.21 678,-112 616.7,-68.58 381.27,-66.05 296.58,-66.6"/>
<polygon fill="midnightblue" stroke="midnightblue" points="296.53,-63.1 286.56,-66.68 296.59,-70.1 296.53,-63.1"/>
</g>
<!-- Node29&#45;&gt;Node15 -->
<g id="edge40" class="edge">
<title>Node29&#45;&gt;Node15</title>
<path fill="none" stroke="midnightblue" d="M783.05,-226.57C843.54,-217.92 944.94,-201.99 980,-188 1064.72,-154.18 1108.52,-156.19 1152,-76 1204.96,21.69 1209.9,-76.36 970,-20 969.9,-19.98 969.8,-19.95 969.7,-19.93"/>
<polygon fill="midnightblue" stroke="midnightblue" points="970.58,-16.54 960.03,-17.5 968.87,-23.33 970.58,-16.54"/>
</g>
<!-- Node29&#45;&gt;Node16 -->
<g id="edge41" class="edge">
<title>Node29&#45;&gt;Node16</title>
<path fill="none" stroke="midnightblue" d="M706.8,-224.46C660.64,-211.16 567.84,-185.23 488,-168 421.07,-153.55 343.79,-140.84 290.21,-132.64"/>
<polygon fill="midnightblue" stroke="midnightblue" points="290.56,-129.16 280.15,-131.11 289.51,-136.08 290.56,-129.16"/>
</g>
<!-- Node29&#45;&gt;Node17 -->
<g id="edge42" class="edge">
<title>Node29&#45;&gt;Node17</title>
<path fill="none" stroke="midnightblue" d="M783.23,-228.81C840.4,-222.83 932.25,-210.07 958,-188 971.54,-176.4 977.45,-156.44 980.02,-141.69"/>
<polygon fill="midnightblue" stroke="midnightblue" points="983.5,-142.04 981.41,-131.66 976.57,-141.08 983.5,-142.04"/>
</g>
<!-- Node29&#45;&gt;Node22 -->
<g id="edge38" class="edge">
<title>Node29&#45;&gt;Node22</title>
<path fill="none" stroke="midnightblue" d="M735.33,-224.3C732.83,-191.63 723.97,-75.87 720.45,-29.96"/>
<polygon fill="midnightblue" stroke="midnightblue" points="723.93,-29.59 719.68,-19.88 716.95,-30.12 723.93,-29.59"/>
</g>
<!-- Node30 -->
<g id="node30" class="node">
<title>Node30</title>
<g id="a_node30"><a xlink:title=" ">
<polygon fill="white" stroke="#bfbfbf" points="610.5,-112.5 610.5,-131.5 669.5,-131.5 669.5,-112.5 610.5,-112.5"/>
<text text-anchor="middle" x="640" y="-119.5" font-family="Helvetica,sans-Serif" font-size="10.00">functional</text>
</a>
</g>
</g>
<!-- Node29&#45;&gt;Node30 -->
<g id="edge37" class="edge">
<title>Node29&#45;&gt;Node30</title>
<path fill="none" stroke="midnightblue" d="M724.48,-224.47C713.4,-215.94 696.53,-202.1 684,-188 670.75,-173.08 658.26,-153.96 650,-140.32"/>
<polygon fill="midnightblue" stroke="midnightblue" points="652.88,-138.33 644.78,-131.51 646.86,-141.89 652.88,-138.33"/>
</g>
<!-- Node31 -->
<g id="node31" class="node">
<title>Node31</title>
<g id="a_node31"><a xlink:href="Release_8h.html" target="_top" xlink:title="Header file with classes responsible for releasing memory allocated by WSTP when receiving data.">
<polygon fill="white" stroke="black" points="764,-168.5 764,-187.5 878,-187.5 878,-168.5 764,-168.5"/>
<text text-anchor="middle" x="821" y="-175.5" font-family="Helvetica,sans-Serif" font-size="10.00">LLU/WSTP/Release.h</text>
</a>
</g>
</g>
<!-- Node29&#45;&gt;Node31 -->
<g id="edge43" class="edge">
<title>Node29&#45;&gt;Node31</title>
<path fill="none" stroke="midnightblue" d="M749.66,-224.32C762.92,-215.9 783.27,-202.97 798.85,-193.07"/>
<polygon fill="midnightblue" stroke="midnightblue" points="800.81,-195.97 807.38,-187.65 797.06,-190.06 800.81,-195.97"/>
</g>
<!-- Node29&#45;&gt;Node32 -->
<g id="edge47" class="edge">
<title>Node29&#45;&gt;Node32</title>
<path fill="none" stroke="midnightblue" d="M688.95,-224.86C634,-215.35 543.01,-199.6 483.28,-189.26"/>
<polygon fill="midnightblue" stroke="midnightblue" points="483.69,-185.78 473.24,-187.52 482.49,-192.68 483.69,-185.78"/>
</g>
<!-- Node31&#45;&gt;Node15 -->
<g id="edge45" class="edge">
<title>Node31&#45;&gt;Node15</title>
<path fill="none" stroke="midnightblue" d="M823.51,-168.3C829.89,-147.27 848.37,-92.66 878,-56 887.87,-43.78 901.72,-33 913.52,-25.05"/>
<polygon fill="midnightblue" stroke="midnightblue" points="915.55,-27.91 922.05,-19.55 911.75,-22.03 915.55,-27.91"/>
</g>
<!-- Node31&#45;&gt;Node17 -->
<g id="edge46" class="edge">
<title>Node31&#45;&gt;Node17</title>
<path fill="none" stroke="midnightblue" d="M846.51,-168.44C873.6,-159.36 916.59,-144.94 946.87,-134.78"/>
<polygon fill="midnightblue" stroke="midnightblue" points="948.24,-138.01 956.61,-131.52 946.01,-131.38 948.24,-138.01"/>
</g>
<!-- Node31&#45;&gt;Node30 -->
<g id="edge44" class="edge">
<title>Node31&#45;&gt;Node30</title>
<path fill="none" stroke="midnightblue" d="M792.32,-168.44C761.47,-159.24 712.27,-144.56 678.17,-134.39"/>
<polygon fill="midnightblue" stroke="midnightblue" points="679.13,-131.02 668.55,-131.52 677.13,-137.73 679.13,-131.02"/>
</g>
<!-- Node32&#45;&gt;Node4 -->
<g id="edge49" class="edge">
<title>Node32&#45;&gt;Node4</title>
<path fill="none" stroke="midnightblue" d="M399.08,-168.48C378.6,-160.79 349.42,-148.2 327,-132 307.89,-118.19 289.92,-97.79 278.5,-83.54"/>
<polygon fill="midnightblue" stroke="midnightblue" points="281.2,-81.31 272.28,-75.57 275.68,-85.61 281.2,-81.31"/>
</g>
<!-- Node32&#45;&gt;Node15 -->
<g id="edge50" class="edge">
<title>Node32&#45;&gt;Node15</title>
<path fill="none" stroke="midnightblue" d="M368.21,-175.67C298.53,-172.69 185.23,-163.06 159,-132 153.26,-125.21 154.97,-119.92 159,-112 178.2,-74.29 196.2,-70.37 236,-56 267.72,-44.55 768.25,-19.28 903.53,-12.63"/>
<polygon fill="midnightblue" stroke="midnightblue" points="903.88,-16.12 913.69,-12.13 903.54,-9.12 903.88,-16.12"/>
</g>
<!-- Node32&#45;&gt;Node16 -->
<g id="edge51" class="edge">
<title>Node32&#45;&gt;Node16</title>
<path fill="none" stroke="midnightblue" d="M392.31,-168.44C357.93,-159.16 302.92,-144.31 265.21,-134.13"/>
<polygon fill="midnightblue" stroke="midnightblue" points="266.11,-130.74 255.54,-131.52 264.28,-137.5 266.11,-130.74"/>
</g>
<!-- Node33 -->
<g id="node33" class="node">
<title>Node33</title>
<g id="a_node33"><a xlink:title=" ">
<polygon fill="white" stroke="#bfbfbf" points="508,-112.5 508,-131.5 554,-131.5 554,-112.5 508,-112.5"/>
<text text-anchor="middle" x="531" y="-119.5" font-family="Helvetica,sans-Serif" font-size="10.00">cstring</text>
</a>
</g>
</g>
<!-- Node32&#45;&gt;Node33 -->
<g id="edge48" class="edge">
<title>Node32&#45;&gt;Node33</title>
<path fill="none" stroke="midnightblue" d="M441.19,-168.32C458.35,-159.66 484.95,-146.24 504.75,-136.25"/>
<polygon fill="midnightblue" stroke="midnightblue" points="506.5,-139.28 513.85,-131.65 503.35,-133.04 506.5,-139.28"/>
</g>
<!-- Node34 -->
<g id="node34" class="node">
<title>Node34</title>
<g id="a_node34"><a xlink:href="EncodingTraits_8hpp.html" target="_top" xlink:title="Defines possible encodings together with their properties and related types.">
<polygon fill="white" stroke="black" points="336,-112.5 336,-131.5 490,-131.5 490,-112.5 336,-112.5"/>
<text text-anchor="middle" x="413" y="-119.5" font-family="Helvetica,sans-Serif" font-size="10.00">LLU/WSTP/EncodingTraits.hpp</text>
</a>
</g>
</g>
<!-- Node32&#45;&gt;Node34 -->
<g id="edge52" class="edge">
<title>Node32&#45;&gt;Node34</title>
<path fill="none" stroke="midnightblue" d="M422.18,-168.08C420.73,-160.93 418.63,-150.64 416.81,-141.69"/>
<polygon fill="midnightblue" stroke="midnightblue" points="420.21,-140.85 414.78,-131.75 413.35,-142.25 420.21,-140.85"/>
</g>
<!-- Node34&#45;&gt;Node4 -->
<g id="edge54" class="edge">
<title>Node34&#45;&gt;Node4</title>
<path fill="none" stroke="midnightblue" d="M389.71,-112.44C364.47,-103.17 324.11,-88.35 296.39,-78.17"/>
<polygon fill="midnightblue" stroke="midnightblue" points="297.4,-74.81 286.81,-74.64 294.99,-81.38 297.4,-74.81"/>
</g>
<!-- Node34&#45;&gt;Node6 -->
<g id="edge56" class="edge">
<title>Node34&#45;&gt;Node6</title>
<path fill="none" stroke="midnightblue" d="M490.34,-112.74C493.26,-112.48 496.16,-112.23 499,-112 759.68,-90.48 831.57,-122.77 1092.71,-75.78"/>
<polygon fill="midnightblue" stroke="midnightblue" points="1093.66,-79.16 1102.87,-73.93 1092.41,-72.27 1093.66,-79.16"/>
</g>
<!-- Node34&#45;&gt;Node14 -->
<g id="edge55" class="edge">
<title>Node34&#45;&gt;Node14</title>
<path fill="none" stroke="midnightblue" d="M490.34,-112.78C493.27,-112.51 496.16,-112.25 499,-112 724.34,-92.34 785.26,-108.8 1012.74,-75.97"/>
<polygon fill="midnightblue" stroke="midnightblue" points="1013.25,-79.43 1022.64,-74.53 1012.24,-72.51 1013.25,-79.43"/>
</g>
<!-- Node34&#45;&gt;Node19 -->
<g id="edge53" class="edge">
<title>Node34&#45;&gt;Node19</title>
<path fill="none" stroke="midnightblue" d="M469.57,-112.44C544.87,-101.05 675.63,-81.27 736.74,-72.03"/>
<polygon fill="midnightblue" stroke="midnightblue" points="737.6,-75.44 746.96,-70.48 736.55,-68.52 737.6,-75.44"/>
</g>
<!-- Node35&#45;&gt;Node15 -->
<g id="edge59" class="edge">
<title>Node35&#45;&gt;Node15</title>
<path fill="none" stroke="midnightblue" d="M562.89,-224.39C563.1,-202.06 566.96,-141.97 601,-112 669.12,-52.03 715.65,-103.94 802,-76 843,-62.73 887.47,-39.42 913.75,-24.61"/>
<polygon fill="midnightblue" stroke="midnightblue" points="915.61,-27.58 922.56,-19.58 912.14,-21.5 915.61,-27.58"/>
</g>
<!-- Node35&#45;&gt;Node16 -->
<g id="edge60" class="edge">
<title>Node35&#45;&gt;Node16</title>
<path fill="none" stroke="midnightblue" d="M516.38,-225.88C474.48,-218.75 411.61,-206.19 359,-188 318.49,-173.99 274.21,-151.09 247.78,-136.55"/>
<polygon fill="midnightblue" stroke="midnightblue" points="249.34,-133.4 238.9,-131.6 245.93,-139.52 249.34,-133.4"/>
</g>
<!-- Node35&#45;&gt;Node17 -->
<g id="edge61" class="edge">
<title>Node35&#45;&gt;Node17</title>
<path fill="none" stroke="midnightblue" d="M609.52,-228.89C699.91,-220.65 892.81,-201.72 920,-188 941.68,-177.06 959.92,-155.39 970.89,-140.08"/>
<polygon fill="midnightblue" stroke="midnightblue" points="973.98,-141.76 976.74,-131.53 968.21,-137.8 973.98,-141.76"/>
</g>
<!-- Node35&#45;&gt;Node30 -->
<g id="edge58" class="edge">
<title>Node35&#45;&gt;Node30</title>
<path fill="none" stroke="midnightblue" d="M569.04,-224.37C581.75,-206.22 611.44,-163.8 628.11,-139.99"/>
<polygon fill="midnightblue" stroke="midnightblue" points="631.12,-141.79 633.99,-131.59 625.38,-137.78 631.12,-141.79"/>
</g>
<!-- Node35&#45;&gt;Node32 -->
<g id="edge62" class="edge">
<title>Node35&#45;&gt;Node32</title>
<path fill="none" stroke="midnightblue" d="M540.98,-224.44C517.9,-215.48 481.44,-201.31 455.36,-191.18"/>
<polygon fill="midnightblue" stroke="midnightblue" points="456.51,-187.88 445.92,-187.52 453.98,-194.4 456.51,-187.88"/>
</g>
<!-- Node36&#45;&gt;Node2 -->
<g id="edge64" class="edge">
<title>Node36&#45;&gt;Node2</title>
<path fill="none" stroke="midnightblue" d="M269.04,-224.44C231.74,-214.76 171.07,-199.01 131.86,-188.83"/>
<polygon fill="midnightblue" stroke="midnightblue" points="132.69,-185.43 122.13,-186.3 130.93,-192.2 132.69,-185.43"/>
</g>
<!-- Node36&#45;&gt;Node15 -->
<g id="edge67" class="edge">
<title>Node36&#45;&gt;Node15</title>
<path fill="none" stroke="midnightblue" d="M276.32,-224.44C240.87,-211.06 178.33,-181.47 152,-132 136.2,-102.31 182.16,-57.74 185,-56 192.79,-51.23 759.7,-20.52 903.92,-12.77"/>
<polygon fill="midnightblue" stroke="midnightblue" points="904.14,-16.26 913.94,-12.23 903.76,-9.27 904.14,-16.26"/>
</g>
<!-- Node36&#45;&gt;Node16 -->
<g id="edge68" class="edge">
<title>Node36&#45;&gt;Node16</title>
<path fill="none" stroke="midnightblue" d="M295.88,-224.37C283.01,-206.22 252.93,-163.8 236.05,-139.99"/>
<polygon fill="midnightblue" stroke="midnightblue" points="238.73,-137.72 230.09,-131.59 233.02,-141.77 238.73,-137.72"/>
</g>
<!-- Node36&#45;&gt;Node17 -->
<g id="edge69" class="edge">
<title>Node36&#45;&gt;Node17</title>
<path fill="none" stroke="midnightblue" d="M356.54,-230.42C492.25,-223.76 837.76,-205.33 887,-188 895.26,-185.09 936.77,-155.68 962.11,-137.43"/>
<polygon fill="midnightblue" stroke="midnightblue" points="964.26,-140.19 970.31,-131.5 960.16,-134.52 964.26,-140.19"/>
</g>
<!-- Node36&#45;&gt;Node22 -->
<g id="edge66" class="edge">
<title>Node36&#45;&gt;Node22</title>
<path fill="none" stroke="midnightblue" d="M279.55,-224.38C218.44,-200.88 53.44,-137.09 50,-132 31.07,-104.02 26.93,-80.67 50,-56 93.4,-9.59 549.4,-9.61 682.64,-10.62"/>
<polygon fill="midnightblue" stroke="midnightblue" points="682.71,-14.12 692.74,-10.71 682.77,-7.12 682.71,-14.12"/>
</g>
<!-- Node36&#45;&gt;Node30 -->
<g id="edge65" class="edge">
<title>Node36&#45;&gt;Node30</title>
<path fill="none" stroke="midnightblue" d="M346.18,-224.48C384.23,-216.63 440.39,-203.82 488,-188 533.03,-173.04 583.28,-150.3 613.24,-136.06"/>
<polygon fill="midnightblue" stroke="midnightblue" points="615.08,-139.06 622.59,-131.58 612.06,-132.75 615.08,-139.06"/>
</g>
<!-- Node36&#45;&gt;Node32 -->
<g id="edge71" class="edge">
<title>Node36&#45;&gt;Node32</title>
<path fill="none" stroke="midnightblue" d="M321.33,-224.44C341.32,-215.6 372.74,-201.69 395.56,-191.59"/>
<polygon fill="midnightblue" stroke="midnightblue" points="397.03,-194.76 404.76,-187.52 394.2,-188.36 397.03,-194.76"/>
</g>
<!-- Node36&#45;&gt;Node34 -->
<g id="edge70" class="edge">
<title>Node36&#45;&gt;Node34</title>
<path fill="none" stroke="midnightblue" d="M308.97,-224.2C319.34,-211.33 339.66,-186.86 359,-168 369.78,-157.48 382.72,-146.65 393.23,-138.24"/>
<polygon fill="midnightblue" stroke="midnightblue" points="395.7,-140.76 401.39,-131.82 391.37,-135.26 395.7,-140.76"/>
</g>
<!-- Node37&#45;&gt;Node14 -->
<g id="edge74" class="edge">
<title>Node37&#45;&gt;Node14</title>
<path fill="none" stroke="midnightblue" d="M1192.23,-168.37C1166.6,-149.57 1105.5,-104.77 1073.82,-81.53"/>
<polygon fill="midnightblue" stroke="midnightblue" points="1075.85,-78.68 1065.72,-75.59 1071.71,-84.33 1075.85,-78.68"/>
</g>
<!-- Node37&#45;&gt;Node15 -->
<g id="edge75" class="edge">
<title>Node37&#45;&gt;Node15</title>
<path fill="none" stroke="midnightblue" d="M1209.47,-168.43C1222.58,-146.72 1252.62,-88.96 1224,-56 1188.45,-15.06 1041.24,-29.86 970.6,-19.55"/>
<polygon fill="midnightblue" stroke="midnightblue" points="970.8,-16.04 960.35,-17.76 969.59,-22.93 970.8,-16.04"/>
</g>
<!-- Node37&#45;&gt;Node17 -->
<g id="edge76" class="edge">
<title>Node37&#45;&gt;Node17</title>
<path fill="none" stroke="midnightblue" d="M1168.82,-168.44C1130.42,-159.1 1068.82,-144.12 1026.94,-133.93"/>
<polygon fill="midnightblue" stroke="midnightblue" points="1027.56,-130.48 1017.01,-131.52 1025.9,-137.28 1027.56,-130.48"/>
</g>
</g>
</svg>
