<?xml version="1.0" encoding="UTF-8" standalone="no"?>
<!DOCTYPE svg PUBLIC "-//W3C//DTD SVG 1.1//EN"
 "http://www.w3.org/Graphics/SVG/1.1/DTD/svg11.dtd">
<!-- Generated by graphviz version 2.43.0 (0)
 -->
<!-- Title: FileUtilities.h Pages: 1 -->
<svg width="426pt" height="84pt"
 viewBox="0.00 0.00 426.00 84.00" xmlns="http://www.w3.org/2000/svg" xmlns:xlink="http://www.w3.org/1999/xlink">
<g id="graph0" class="graph" transform="scale(1 1) rotate(0) translate(4 80)">
<title>FileUtilities.h</title>
<polygon fill="white" stroke="transparent" points="-4,4 -4,-80 422,-80 422,4 -4,4"/>
<!-- Node1 -->
<g id="node1" class="node">
<title>Node1</title>
<g id="a_node1"><a xlink:title=" ">
<polygon fill="#bfbfbf" stroke="black" points="176.5,-56.5 176.5,-75.5 250.5,-75.5 250.5,-56.5 176.5,-56.5"/>
<text text-anchor="middle" x="213.5" y="-63.5" font-family="Helvetica,sans-Serif" font-size="10.00">FileUtilities.h</text>
</a>
</g>
</g>
<!-- Node2 -->
<g id="node2" class="node">
<title>Node2</title>
<g id="a_node2"><a xlink:title=" ">
<polygon fill="white" stroke="#bfbfbf" points="0,-0.5 0,-19.5 51,-19.5 51,-0.5 0,-0.5"/>
<text text-anchor="middle" x="25.5" y="-7.5" font-family="Helvetica,sans-Serif" font-size="10.00">codecvt</text>
</a>
</g>
</g>
<!-- Node1&#45;&gt;Node2 -->
<g id="edge1" class="edge">
<title>Node1&#45;&gt;Node2</title>
<path fill="none" stroke="midnightblue" d="M183.71,-56.44C150.45,-46.89 96.63,-31.43 61.15,-21.24"/>
<polygon fill="midnightblue" stroke="midnightblue" points="61.8,-17.79 51.22,-18.39 59.87,-24.51 61.8,-17.79"/>
</g>
<!-- Node3 -->
<g id="node3" class="node">
<title>Node3</title>
<g id="a_node3"><a xlink:title=" ">
<polygon fill="white" stroke="#bfbfbf" points="69,-0.5 69,-19.5 112,-19.5 112,-0.5 69,-0.5"/>
<text text-anchor="middle" x="90.5" y="-7.5" font-family="Helvetica,sans-Serif" font-size="10.00">cstdio</text>
</a>
</g>
</g>
<!-- Node1&#45;&gt;Node3 -->
<g id="edge2" class="edge">
<title>Node1&#45;&gt;Node3</title>
<path fill="none" stroke="midnightblue" d="M194.01,-56.44C173.86,-47.6 142.18,-33.69 119.17,-23.59"/>
<polygon fill="midnightblue" stroke="midnightblue" points="120.46,-20.33 109.9,-19.52 117.65,-26.74 120.46,-20.33"/>
</g>
<!-- Node4 -->
<g id="node4" class="node">
<title>Node4</title>
<g id="a_node4"><a xlink:title=" ">
<polygon fill="white" stroke="#bfbfbf" points="130.5,-0.5 130.5,-19.5 180.5,-19.5 180.5,-0.5 130.5,-0.5"/>
<text text-anchor="middle" x="155.5" y="-7.5" font-family="Helvetica,sans-Serif" font-size="10.00">fstream</text>
</a>
</g>
</g>
<!-- Node1&#45;&gt;Node4 -->
<g id="edge3" class="edge">
<title>Node1&#45;&gt;Node4</title>
<path fill="none" stroke="midnightblue" d="M204.18,-56.32C195.61,-48.34 182.69,-36.31 172.31,-26.65"/>
<polygon fill="midnightblue" stroke="midnightblue" points="174.69,-24.09 164.99,-19.83 169.92,-29.21 174.69,-24.09"/>
</g>
<!-- Node5 -->
<g id="node5" class="node">
<title>Node5</title>
<g id="a_node5"><a xlink:title=" ">
<polygon fill="white" stroke="#bfbfbf" points="199,-0.5 199,-19.5 228,-19.5 228,-0.5 199,-0.5"/>
<text text-anchor="middle" x="213.5" y="-7.5" font-family="Helvetica,sans-Serif" font-size="10.00">ios</text>
</a>
</g>
</g>
<!-- Node1&#45;&gt;Node5 -->
<g id="edge4" class="edge">
<title>Node1&#45;&gt;Node5</title>
<path fill="none" stroke="midnightblue" d="M213.5,-56.08C213.5,-49.01 213.5,-38.86 213.5,-29.99"/>
<polygon fill="midnightblue" stroke="midnightblue" points="217,-29.75 213.5,-19.75 210,-29.75 217,-29.75"/>
</g>
<!-- Node6 -->
<g id="node6" class="node">
<title>Node6</title>
<g id="a_node6"><a xlink:title=" ">
<polygon fill="white" stroke="#bfbfbf" points="246.5,-0.5 246.5,-19.5 288.5,-19.5 288.5,-0.5 246.5,-0.5"/>
<text text-anchor="middle" x="267.5" y="-7.5" font-family="Helvetica,sans-Serif" font-size="10.00">locale</text>
</a>
</g>
</g>
<!-- Node1&#45;&gt;Node6 -->
<g id="edge5" class="edge">
<title>Node1&#45;&gt;Node6</title>
<path fill="none" stroke="midnightblue" d="M222.42,-56.08C230.28,-48.22 241.93,-36.57 251.42,-27.08"/>
<polygon fill="midnightblue" stroke="midnightblue" points="254.15,-29.3 258.75,-19.75 249.2,-24.35 254.15,-29.3"/>
</g>
<!-- Node7 -->
<g id="node7" class="node">
<title>Node7</title>
<g id="a_node7"><a xlink:title=" ">
<polygon fill="white" stroke="#bfbfbf" points="306.5,-0.5 306.5,-19.5 358.5,-19.5 358.5,-0.5 306.5,-0.5"/>
<text text-anchor="middle" x="332.5" y="-7.5" font-family="Helvetica,sans-Serif" font-size="10.00">memory</text>
</a>
</g>
</g>
<!-- Node1&#45;&gt;Node7 -->
<g id="edge6" class="edge">
<title>Node1&#45;&gt;Node7</title>
<path fill="none" stroke="midnightblue" d="M232.36,-56.44C251.77,-47.64 282.23,-33.81 304.46,-23.72"/>
<polygon fill="midnightblue" stroke="midnightblue" points="306.07,-26.84 313.73,-19.52 303.18,-20.46 306.07,-26.84"/>
</g>
<!-- Node8 -->
<g id="node8" class="node">
<title>Node8</title>
<g id="a_node8"><a xlink:title=" ">
<polygon fill="white" stroke="#bfbfbf" points="377,-0.5 377,-19.5 418,-19.5 418,-0.5 377,-0.5"/>
<text text-anchor="middle" x="397.5" y="-7.5" font-family="Helvetica,sans-Serif" font-size="10.00">string</text>
</a>
</g>
</g>
<!-- Node1&#45;&gt;Node8 -->
<g id="edge7" class="edge">
<title>Node1&#45;&gt;Node8</title>
<path fill="none" stroke="midnightblue" d="M243.04,-56.44C272.12,-47.99 318.04,-34.62 367.02,-20.13"/>
<polygon fill="midnightblue" stroke="midnightblue" points="368.25,-23.41 376.85,-17.22 366.27,-16.7 368.25,-23.41"/>
</g>
</g>
</svg>
