<?xml version="1.0" encoding="UTF-8" standalone="no"?>
<!DOCTYPE svg PUBLIC "-//W3C//DTD SVG 1.1//EN"
 "http://www.w3.org/Graphics/SVG/1.1/DTD/svg11.dtd">
<!-- Generated by graphviz version 2.43.0 (0)
 -->
<!-- Title: FileUtilities.cpp Pages: 1 -->
<svg width="2124pt" height="487pt"
 viewBox="0.00 0.00 2123.50 487.00" xmlns="http://www.w3.org/2000/svg" xmlns:xlink="http://www.w3.org/1999/xlink">
<g id="graph0" class="graph" transform="scale(1 1) rotate(0) translate(4 483)">
<title>FileUtilities.cpp</title>
<polygon fill="white" stroke="transparent" points="-4,4 -4,-483 2119.5,-483 2119.5,4 -4,4"/>
<!-- Node1 -->
<g id="node1" class="node">
<title>Node1</title>
<g id="a_node1"><a xlink:title=" ">
<polygon fill="#bfbfbf" stroke="black" points="1328,-459.5 1328,-478.5 1412,-478.5 1412,-459.5 1328,-459.5"/>
<text text-anchor="middle" x="1370" y="-466.5" font-family="Helvetica,sans-Serif" font-size="10.00">FileUtilities.cpp</text>
</a>
</g>
</g>
<!-- Node2 -->
<g id="node2" class="node">
<title>Node2</title>
<g id="a_node2"><a xlink:href="NoMinMaxWindows_8h.html" target="_top" xlink:title="Include windows.h without min and max macros.">
<polygon fill="white" stroke="black" points="64,-403.5 64,-422.5 198,-422.5 198,-403.5 64,-403.5"/>
<text text-anchor="middle" x="131" y="-410.5" font-family="Helvetica,sans-Serif" font-size="10.00">LLU/NoMinMaxWindows.h</text>
</a>
</g>
</g>
<!-- Node1&#45;&gt;Node2 -->
<g id="edge1" class="edge">
<title>Node1&#45;&gt;Node2</title>
<path fill="none" stroke="midnightblue" d="M1327.87,-467.46C1176.7,-465.27 647.37,-455.6 212,-423 210.73,-422.9 209.45,-422.81 208.16,-422.7"/>
<polygon fill="midnightblue" stroke="midnightblue" points="208.41,-419.21 198.15,-421.84 207.81,-426.18 208.41,-419.21"/>
</g>
<!-- Node3 -->
<g id="node3" class="node">
<title>Node3</title>
<g id="a_node3"><a xlink:href="FileUtilities_8h.html" target="_top" xlink:title=" ">
<polygon fill="white" stroke="black" points="146.5,-112.5 146.5,-131.5 241.5,-131.5 241.5,-112.5 146.5,-112.5"/>
<text text-anchor="middle" x="194" y="-119.5" font-family="Helvetica,sans-Serif" font-size="10.00">LLU/FileUtilities.h</text>
</a>
</g>
</g>
<!-- Node1&#45;&gt;Node3 -->
<g id="edge2" class="edge">
<title>Node1&#45;&gt;Node3</title>
<path fill="none" stroke="midnightblue" d="M1327.93,-468.26C1121.53,-468.97 226,-465.54 226,-352.5 226,-352.5 226,-352.5 226,-233 226,-199.33 212.01,-162.08 202.53,-140.72"/>
<polygon fill="midnightblue" stroke="midnightblue" points="205.68,-139.21 198.32,-131.59 199.33,-142.14 205.68,-139.21"/>
</g>
<!-- Node11 -->
<g id="node11" class="node">
<title>Node11</title>
<g id="a_node11"><a xlink:href="ErrorManager_8h.html" target="_top" xlink:title="Definition of the ErrorManager class responsible for error registration and throwing.">
<polygon fill="white" stroke="black" points="1298.5,-403.5 1298.5,-422.5 1441.5,-422.5 1441.5,-403.5 1298.5,-403.5"/>
<text text-anchor="middle" x="1370" y="-410.5" font-family="Helvetica,sans-Serif" font-size="10.00">LLU/ErrorLog/ErrorManager.h</text>
</a>
</g>
</g>
<!-- Node1&#45;&gt;Node11 -->
<g id="edge10" class="edge">
<title>Node1&#45;&gt;Node11</title>
<path fill="none" stroke="midnightblue" d="M1370,-459.08C1370,-452.01 1370,-441.86 1370,-432.99"/>
<polygon fill="midnightblue" stroke="midnightblue" points="1373.5,-432.75 1370,-422.75 1366.5,-432.75 1373.5,-432.75"/>
</g>
<!-- Node26 -->
<g id="node26" class="node">
<title>Node26</title>
<g id="a_node26"><a xlink:href="Utilities_8hpp.html" target="_top" xlink:title="Short but generally useful functions.">
<polygon fill="white" stroke="black" points="1229.5,-112.5 1229.5,-131.5 1318.5,-131.5 1318.5,-112.5 1229.5,-112.5"/>
<text text-anchor="middle" x="1274" y="-119.5" font-family="Helvetica,sans-Serif" font-size="10.00">LLU/Utilities.hpp</text>
</a>
</g>
</g>
<!-- Node1&#45;&gt;Node26 -->
<g id="edge89" class="edge">
<title>Node1&#45;&gt;Node26</title>
<path fill="none" stroke="midnightblue" d="M1412.26,-466.39C1505.7,-460.96 1717.72,-437.44 1667,-336 1639.17,-280.35 1498.98,-195.17 1443,-168 1406.86,-150.46 1362.93,-139.03 1328.92,-132.08"/>
<polygon fill="midnightblue" stroke="midnightblue" points="1329.19,-128.56 1318.7,-130.06 1327.84,-135.43 1329.19,-128.56"/>
</g>
<!-- Node30 -->
<g id="node30" class="node">
<title>Node30</title>
<g id="a_node30"><a xlink:href="LibraryData_8h.html" target="_top" xlink:title=" ">
<polygon fill="white" stroke="black" points="1744,-56.5 1744,-75.5 1840,-75.5 1840,-56.5 1744,-56.5"/>
<text text-anchor="middle" x="1792" y="-63.5" font-family="Helvetica,sans-Serif" font-size="10.00">LLU/LibraryData.h</text>
</a>
</g>
</g>
<!-- Node1&#45;&gt;Node30 -->
<g id="edge88" class="edge">
<title>Node1&#45;&gt;Node30</title>
<path fill="none" stroke="midnightblue" d="M1412.04,-466.39C1525.6,-460.92 1830,-438.24 1830,-352.5 1830,-352.5 1830,-352.5 1830,-177 1830,-142.81 1813.4,-105.76 1802.14,-84.57"/>
<polygon fill="midnightblue" stroke="midnightblue" points="1805.18,-82.83 1797.28,-75.77 1799.05,-86.22 1805.18,-82.83"/>
</g>
<!-- Node4 -->
<g id="node4" class="node">
<title>Node4</title>
<g id="a_node4"><a xlink:title=" ">
<polygon fill="white" stroke="#bfbfbf" points="98.5,-56.5 98.5,-75.5 149.5,-75.5 149.5,-56.5 98.5,-56.5"/>
<text text-anchor="middle" x="124" y="-63.5" font-family="Helvetica,sans-Serif" font-size="10.00">codecvt</text>
</a>
</g>
</g>
<!-- Node3&#45;&gt;Node4 -->
<g id="edge3" class="edge">
<title>Node3&#45;&gt;Node4</title>
<path fill="none" stroke="midnightblue" d="M182.75,-112.32C172.2,-104.18 156.2,-91.84 143.56,-82.09"/>
<polygon fill="midnightblue" stroke="midnightblue" points="145.51,-79.17 135.45,-75.83 141.23,-84.71 145.51,-79.17"/>
</g>
<!-- Node5 -->
<g id="node5" class="node">
<title>Node5</title>
<g id="a_node5"><a xlink:title=" ">
<polygon fill="white" stroke="#bfbfbf" points="167.5,-56.5 167.5,-75.5 210.5,-75.5 210.5,-56.5 167.5,-56.5"/>
<text text-anchor="middle" x="189" y="-63.5" font-family="Helvetica,sans-Serif" font-size="10.00">cstdio</text>
</a>
</g>
</g>
<!-- Node3&#45;&gt;Node5 -->
<g id="edge4" class="edge">
<title>Node3&#45;&gt;Node5</title>
<path fill="none" stroke="midnightblue" d="M193.17,-112.08C192.52,-105.01 191.58,-94.86 190.76,-85.99"/>
<polygon fill="midnightblue" stroke="midnightblue" points="194.22,-85.39 189.81,-75.75 187.25,-86.03 194.22,-85.39"/>
</g>
<!-- Node6 -->
<g id="node6" class="node">
<title>Node6</title>
<g id="a_node6"><a xlink:title=" ">
<polygon fill="white" stroke="#bfbfbf" points="229,-56.5 229,-75.5 279,-75.5 279,-56.5 229,-56.5"/>
<text text-anchor="middle" x="254" y="-63.5" font-family="Helvetica,sans-Serif" font-size="10.00">fstream</text>
</a>
</g>
</g>
<!-- Node3&#45;&gt;Node6 -->
<g id="edge5" class="edge">
<title>Node3&#45;&gt;Node6</title>
<path fill="none" stroke="midnightblue" d="M203.64,-112.32C212.51,-104.34 225.87,-92.31 236.61,-82.65"/>
<polygon fill="midnightblue" stroke="midnightblue" points="239.09,-85.13 244.18,-75.83 234.41,-79.92 239.09,-85.13"/>
</g>
<!-- Node7 -->
<g id="node7" class="node">
<title>Node7</title>
<g id="a_node7"><a xlink:title=" ">
<polygon fill="white" stroke="#bfbfbf" points="297.5,-56.5 297.5,-75.5 326.5,-75.5 326.5,-56.5 297.5,-56.5"/>
<text text-anchor="middle" x="312" y="-63.5" font-family="Helvetica,sans-Serif" font-size="10.00">ios</text>
</a>
</g>
</g>
<!-- Node3&#45;&gt;Node7 -->
<g id="edge6" class="edge">
<title>Node3&#45;&gt;Node7</title>
<path fill="none" stroke="midnightblue" d="M212.7,-112.44C233.19,-103.07 266.11,-88 288.37,-77.81"/>
<polygon fill="midnightblue" stroke="midnightblue" points="289.85,-80.99 297.48,-73.64 286.93,-74.62 289.85,-80.99"/>
</g>
<!-- Node8 -->
<g id="node8" class="node">
<title>Node8</title>
<g id="a_node8"><a xlink:title=" ">
<polygon fill="white" stroke="#bfbfbf" points="0,-56.5 0,-75.5 42,-75.5 42,-56.5 0,-56.5"/>
<text text-anchor="middle" x="21" y="-63.5" font-family="Helvetica,sans-Serif" font-size="10.00">locale</text>
</a>
</g>
</g>
<!-- Node3&#45;&gt;Node8 -->
<g id="edge7" class="edge">
<title>Node3&#45;&gt;Node8</title>
<path fill="none" stroke="midnightblue" d="M166.59,-112.44C135.38,-102.7 84.52,-86.83 51.92,-76.65"/>
<polygon fill="midnightblue" stroke="midnightblue" points="52.61,-73.2 42.03,-73.56 50.53,-79.88 52.61,-73.2"/>
</g>
<!-- Node9 -->
<g id="node9" class="node">
<title>Node9</title>
<g id="a_node9"><a xlink:title=" ">
<polygon fill="white" stroke="#bfbfbf" points="577,-0.5 577,-19.5 629,-19.5 629,-0.5 577,-0.5"/>
<text text-anchor="middle" x="603" y="-7.5" font-family="Helvetica,sans-Serif" font-size="10.00">memory</text>
</a>
</g>
</g>
<!-- Node3&#45;&gt;Node9 -->
<g id="edge8" class="edge">
<title>Node3&#45;&gt;Node9</title>
<path fill="none" stroke="midnightblue" d="M155.98,-112.47C116.86,-102.02 64.81,-82.4 89,-56 121.21,-20.85 455.29,-13.04 566.91,-11.41"/>
<polygon fill="midnightblue" stroke="midnightblue" points="567.05,-14.91 577,-11.27 566.95,-7.91 567.05,-14.91"/>
</g>
<!-- Node10 -->
<g id="node10" class="node">
<title>Node10</title>
<g id="a_node10"><a xlink:title=" ">
<polygon fill="white" stroke="#bfbfbf" points="410.5,-56.5 410.5,-75.5 451.5,-75.5 451.5,-56.5 410.5,-56.5"/>
<text text-anchor="middle" x="431" y="-63.5" font-family="Helvetica,sans-Serif" font-size="10.00">string</text>
</a>
</g>
</g>
<!-- Node3&#45;&gt;Node10 -->
<g id="edge9" class="edge">
<title>Node3&#45;&gt;Node10</title>
<path fill="none" stroke="midnightblue" d="M231.55,-112.44C278.34,-101.78 357.37,-83.78 400.57,-73.93"/>
<polygon fill="midnightblue" stroke="midnightblue" points="401.51,-77.31 410.48,-71.67 399.95,-70.48 401.51,-77.31"/>
</g>
<!-- Node11&#45;&gt;Node10 -->
<g id="edge13" class="edge">
<title>Node11&#45;&gt;Node10</title>
<path fill="none" stroke="midnightblue" d="M1298.2,-410.89C1068.41,-406.4 366,-384.98 366,-291 366,-291 366,-291 366,-177 366,-139.18 394.84,-102.94 414.09,-82.96"/>
<polygon fill="midnightblue" stroke="midnightblue" points="416.8,-85.2 421.41,-75.66 411.86,-80.24 416.8,-85.2"/>
</g>
<!-- Node12 -->
<g id="node12" class="node">
<title>Node12</title>
<g id="a_node12"><a xlink:title=" ">
<polygon fill="white" stroke="#bfbfbf" points="1378,-168.5 1378,-187.5 1434,-187.5 1434,-168.5 1378,-168.5"/>
<text text-anchor="middle" x="1406" y="-175.5" font-family="Helvetica,sans-Serif" font-size="10.00">algorithm</text>
</a>
</g>
</g>
<!-- Node11&#45;&gt;Node12 -->
<g id="edge11" class="edge">
<title>Node11&#45;&gt;Node12</title>
<path fill="none" stroke="midnightblue" d="M1379.52,-403.36C1404.04,-380.37 1469.06,-314.62 1492,-244 1494.75,-235.55 1496.6,-231.6 1492,-224 1481.47,-206.61 1461.76,-195.61 1443.87,-188.85"/>
<polygon fill="midnightblue" stroke="midnightblue" points="1444.78,-185.46 1434.18,-185.51 1442.5,-192.08 1444.78,-185.46"/>
</g>
<!-- Node13 -->
<g id="node13" class="node">
<title>Node13</title>
<g id="a_node13"><a xlink:title=" ">
<polygon fill="white" stroke="#bfbfbf" points="1585.5,-342 1585.5,-361 1658.5,-361 1658.5,-342 1585.5,-342"/>
<text text-anchor="middle" x="1622" y="-349" font-family="Helvetica,sans-Serif" font-size="10.00">initializer_list</text>
</a>
</g>
</g>
<!-- Node11&#45;&gt;Node13 -->
<g id="edge12" class="edge">
<title>Node11&#45;&gt;Node13</title>
<path fill="none" stroke="midnightblue" d="M1411.35,-403.46C1452.1,-394.87 1516.06,-380.95 1571,-367 1574.9,-366.01 1578.96,-364.93 1583.01,-363.83"/>
<polygon fill="midnightblue" stroke="midnightblue" points="1584.25,-367.12 1592.95,-361.07 1582.38,-360.37 1584.25,-367.12"/>
</g>
<!-- Node14 -->
<g id="node14" class="node">
<title>Node14</title>
<g id="a_node14"><a xlink:title=" ">
<polygon fill="white" stroke="#bfbfbf" points="254.5,-342 254.5,-361 337.5,-361 337.5,-342 254.5,-342"/>
<text text-anchor="middle" x="296" y="-349" font-family="Helvetica,sans-Serif" font-size="10.00">unordered_map</text>
</a>
</g>
</g>
<!-- Node11&#45;&gt;Node14 -->
<g id="edge14" class="edge">
<title>Node11&#45;&gt;Node14</title>
<path fill="none" stroke="midnightblue" d="M1298.15,-410.78C1097.65,-407.05 534.83,-394.4 352,-367 346.15,-366.12 340.02,-364.88 334.06,-363.49"/>
<polygon fill="midnightblue" stroke="midnightblue" points="334.8,-360.07 324.25,-361.04 333.11,-366.86 334.8,-360.07"/>
</g>
<!-- Node15 -->
<g id="node15" class="node">
<title>Node15</title>
<g id="a_node15"><a xlink:title=" ">
<polygon fill="white" stroke="#bfbfbf" points="1313,-56.5 1313,-75.5 1353,-75.5 1353,-56.5 1313,-56.5"/>
<text text-anchor="middle" x="1333" y="-63.5" font-family="Helvetica,sans-Serif" font-size="10.00">utility</text>
</a>
</g>
</g>
<!-- Node11&#45;&gt;Node15 -->
<g id="edge15" class="edge">
<title>Node11&#45;&gt;Node15</title>
<path fill="none" stroke="midnightblue" d="M1397.82,-403.49C1485.01,-375.4 1742.28,-280.98 1659,-168 1578.93,-59.37 1497.88,-114.2 1363.08,-76.2"/>
<polygon fill="midnightblue" stroke="midnightblue" points="1363.86,-72.78 1353.28,-73.3 1361.88,-79.49 1363.86,-72.78"/>
</g>
<!-- Node16 -->
<g id="node16" class="node">
<title>Node16</title>
<g id="a_node16"><a xlink:title=" ">
<polygon fill="white" stroke="#bfbfbf" points="446,-224.5 446,-243.5 490,-243.5 490,-224.5 446,-224.5"/>
<text text-anchor="middle" x="468" y="-231.5" font-family="Helvetica,sans-Serif" font-size="10.00">vector</text>
</a>
</g>
</g>
<!-- Node11&#45;&gt;Node16 -->
<g id="edge16" class="edge">
<title>Node11&#45;&gt;Node16</title>
<path fill="none" stroke="midnightblue" d="M1326.49,-403.46C1169.76,-372.71 636.05,-267.98 499.85,-241.25"/>
<polygon fill="midnightblue" stroke="midnightblue" points="500.51,-237.81 490.02,-239.32 499.16,-244.68 500.51,-237.81"/>
</g>
<!-- Node17 -->
<g id="node17" class="node">
<title>Node17</title>
<g id="a_node17"><a xlink:href="LibraryLinkError_8h.html" target="_top" xlink:title="Error class and error codes used by LibraryLink Utilities classes.">
<polygon fill="white" stroke="black" points="1158.5,-336.5 1158.5,-366.5 1283.5,-366.5 1283.5,-336.5 1158.5,-336.5"/>
<text text-anchor="start" x="1166.5" y="-354.5" font-family="Helvetica,sans-Serif" font-size="10.00">LLU/ErrorLog/LibraryLink</text>
<text text-anchor="middle" x="1221" y="-343.5" font-family="Helvetica,sans-Serif" font-size="10.00">Error.h</text>
</a>
</g>
</g>
<!-- Node11&#45;&gt;Node17 -->
<g id="edge17" class="edge">
<title>Node11&#45;&gt;Node17</title>
<path fill="none" stroke="midnightblue" d="M1348.65,-403.48C1327.06,-394.85 1293.03,-381.26 1265.54,-370.29"/>
<polygon fill="midnightblue" stroke="midnightblue" points="1266.7,-366.98 1256.12,-366.52 1264.11,-373.48 1266.7,-366.98"/>
</g>
<!-- Node11&#45;&gt;Node30 -->
<g id="edge87" class="edge">
<title>Node11&#45;&gt;Node30</title>
<path fill="none" stroke="midnightblue" d="M1441.59,-406.27C1561.99,-394.65 1792,-363.02 1792,-291 1792,-291 1792,-291 1792,-177 1792,-144.95 1792,-107.64 1792,-85.75"/>
<polygon fill="midnightblue" stroke="midnightblue" points="1795.5,-85.56 1792,-75.56 1788.5,-85.56 1795.5,-85.56"/>
</g>
<!-- Node17&#45;&gt;Node10 -->
<g id="edge19" class="edge">
<title>Node17&#45;&gt;Node10</title>
<path fill="none" stroke="midnightblue" d="M1158.25,-348.22C966.94,-340.45 404,-311.1 404,-235 404,-235 404,-235 404,-177 404,-143.86 415.7,-106.68 423.7,-85.14"/>
<polygon fill="midnightblue" stroke="midnightblue" points="427.02,-86.25 427.36,-75.66 420.49,-83.73 427.02,-86.25"/>
</g>
<!-- Node18 -->
<g id="node18" class="node">
<title>Node18</title>
<g id="a_node18"><a xlink:title=" ">
<polygon fill="white" stroke="#bfbfbf" points="1133.5,-280.5 1133.5,-299.5 1192.5,-299.5 1192.5,-280.5 1133.5,-280.5"/>
<text text-anchor="middle" x="1163" y="-287.5" font-family="Helvetica,sans-Serif" font-size="10.00">stdexcept</text>
</a>
</g>
</g>
<!-- Node17&#45;&gt;Node18 -->
<g id="edge18" class="edge">
<title>Node17&#45;&gt;Node18</title>
<path fill="none" stroke="midnightblue" d="M1207.25,-336.4C1198.65,-327.58 1187.55,-316.18 1178.61,-307.02"/>
<polygon fill="midnightblue" stroke="midnightblue" points="1180.93,-304.38 1171.44,-299.66 1175.91,-309.26 1180.93,-304.38"/>
</g>
<!-- Node19 -->
<g id="node19" class="node">
<title>Node19</title>
<g id="a_node19"><a xlink:href="WSStream_8hpp.html" target="_top" xlink:title="Header file for WSStream class.">
<polygon fill="white" stroke="black" points="1210.5,-280.5 1210.5,-299.5 1347.5,-299.5 1347.5,-280.5 1210.5,-280.5"/>
<text text-anchor="middle" x="1279" y="-287.5" font-family="Helvetica,sans-Serif" font-size="10.00">LLU/WSTP/WSStream.hpp</text>
</a>
</g>
</g>
<!-- Node17&#45;&gt;Node19 -->
<g id="edge20" class="edge">
<title>Node17&#45;&gt;Node19</title>
<path fill="none" stroke="midnightblue" d="M1234.75,-336.4C1243.35,-327.58 1254.45,-316.18 1263.39,-307.02"/>
<polygon fill="midnightblue" stroke="midnightblue" points="1266.09,-309.26 1270.56,-299.66 1261.07,-304.38 1266.09,-309.26"/>
</g>
<!-- Node19&#45;&gt;Node12 -->
<g id="edge21" class="edge">
<title>Node19&#45;&gt;Node12</title>
<path fill="none" stroke="midnightblue" d="M1347.67,-282.26C1397.6,-275.77 1459.12,-263.94 1475,-244 1490.91,-224.02 1462.18,-204.38 1437.08,-192.01"/>
<polygon fill="midnightblue" stroke="midnightblue" points="1438.28,-188.71 1427.74,-187.64 1435.31,-195.05 1438.28,-188.71"/>
</g>
<!-- Node19&#45;&gt;Node15 -->
<g id="edge26" class="edge">
<title>Node19&#45;&gt;Node15</title>
<path fill="none" stroke="midnightblue" d="M1281.52,-280.15C1285.11,-267.63 1291.92,-244.02 1298,-224 1310.46,-182.98 1318.54,-174.03 1327,-132 1330.08,-116.71 1331.58,-99.06 1332.31,-86.02"/>
<polygon fill="midnightblue" stroke="midnightblue" points="1335.81,-86.07 1332.78,-75.92 1328.82,-85.75 1335.81,-86.07"/>
</g>
<!-- Node19&#45;&gt;Node16 -->
<g id="edge27" class="edge">
<title>Node19&#45;&gt;Node16</title>
<path fill="none" stroke="midnightblue" d="M1210.12,-280.81C1207.04,-280.52 1203.99,-280.25 1201,-280 891.88,-254.21 810.79,-289.83 504,-244 502.75,-243.81 501.47,-243.6 500.19,-243.37"/>
<polygon fill="midnightblue" stroke="midnightblue" points="500.84,-239.93 490.33,-241.29 499.4,-246.78 500.84,-239.93"/>
</g>
<!-- Node20 -->
<g id="node20" class="node">
<title>Node20</title>
<g id="a_node20"><a xlink:title=" ">
<polygon fill="white" stroke="#bfbfbf" points="1307.5,-224.5 1307.5,-243.5 1354.5,-243.5 1354.5,-224.5 1307.5,-224.5"/>
<text text-anchor="middle" x="1331" y="-231.5" font-family="Helvetica,sans-Serif" font-size="10.00">iterator</text>
</a>
</g>
</g>
<!-- Node19&#45;&gt;Node20 -->
<g id="edge22" class="edge">
<title>Node19&#45;&gt;Node20</title>
<path fill="none" stroke="midnightblue" d="M1287.59,-280.08C1295.16,-272.22 1306.38,-260.57 1315.51,-251.08"/>
<polygon fill="midnightblue" stroke="midnightblue" points="1318.16,-253.38 1322.57,-243.75 1313.12,-248.53 1318.16,-253.38"/>
</g>
<!-- Node21 -->
<g id="node21" class="node">
<title>Node21</title>
<g id="a_node21"><a xlink:title=" ">
<polygon fill="white" stroke="#bfbfbf" points="1372.5,-224.5 1372.5,-243.5 1407.5,-243.5 1407.5,-224.5 1372.5,-224.5"/>
<text text-anchor="middle" x="1390" y="-231.5" font-family="Helvetica,sans-Serif" font-size="10.00">map</text>
</a>
</g>
</g>
<!-- Node19&#45;&gt;Node21 -->
<g id="edge23" class="edge">
<title>Node19&#45;&gt;Node21</title>
<path fill="none" stroke="midnightblue" d="M1296.83,-280.32C1314.72,-271.62 1342.48,-258.12 1363.05,-248.11"/>
<polygon fill="midnightblue" stroke="midnightblue" points="1364.75,-251.18 1372.21,-243.65 1361.69,-244.88 1364.75,-251.18"/>
</g>
<!-- Node22 -->
<g id="node22" class="node">
<title>Node22</title>
<g id="a_node22"><a xlink:title=" ">
<polygon fill="white" stroke="#bfbfbf" points="1425.5,-224.5 1425.5,-243.5 1466.5,-243.5 1466.5,-224.5 1425.5,-224.5"/>
<text text-anchor="middle" x="1446" y="-231.5" font-family="Helvetica,sans-Serif" font-size="10.00">stack</text>
</a>
</g>
</g>
<!-- Node19&#45;&gt;Node22 -->
<g id="edge24" class="edge">
<title>Node19&#45;&gt;Node22</title>
<path fill="none" stroke="midnightblue" d="M1305.46,-280.44C1335.5,-270.73 1384.42,-254.91 1415.89,-244.74"/>
<polygon fill="midnightblue" stroke="midnightblue" points="1417.02,-248.05 1425.45,-241.64 1414.86,-241.39 1417.02,-248.05"/>
</g>
<!-- Node23 -->
<g id="node23" class="node">
<title>Node23</title>
<g id="a_node23"><a xlink:title=" ">
<polygon fill="white" stroke="#bfbfbf" points="1371,-56.5 1371,-75.5 1433,-75.5 1433,-56.5 1371,-56.5"/>
<text text-anchor="middle" x="1402" y="-63.5" font-family="Helvetica,sans-Serif" font-size="10.00">type_traits</text>
</a>
</g>
</g>
<!-- Node19&#45;&gt;Node23 -->
<g id="edge25" class="edge">
<title>Node19&#45;&gt;Node23</title>
<path fill="none" stroke="midnightblue" d="M1347.63,-281.44C1447.4,-268.78 1624.42,-239.5 1659,-188 1713.57,-106.74 1529.05,-78.75 1443.37,-70.27"/>
<polygon fill="midnightblue" stroke="midnightblue" points="1443.47,-66.77 1433.19,-69.31 1442.81,-73.74 1443.47,-66.77"/>
</g>
<!-- Node24 -->
<g id="node24" class="node">
<title>Node24</title>
<g id="a_node24"><a xlink:title=" ">
<polygon fill="white" stroke="#bfbfbf" points="1092,-0.5 1092,-19.5 1138,-19.5 1138,-0.5 1092,-0.5"/>
<text text-anchor="middle" x="1115" y="-7.5" font-family="Helvetica,sans-Serif" font-size="10.00">wstp.h</text>
</a>
</g>
</g>
<!-- Node19&#45;&gt;Node24 -->
<g id="edge28" class="edge">
<title>Node19&#45;&gt;Node24</title>
<path fill="none" stroke="midnightblue" d="M1347.76,-285.87C1470.83,-278.36 1716,-254.01 1716,-179 1716,-179 1716,-179 1716,-121 1716,-62.83 1274.74,-23.58 1148.42,-13.54"/>
<polygon fill="midnightblue" stroke="midnightblue" points="1148.44,-10.03 1138.19,-12.74 1147.89,-17.01 1148.44,-10.03"/>
</g>
<!-- Node25 -->
<g id="node25" class="node">
<title>Node25</title>
<g id="a_node25"><a xlink:href="Errors_8h.html" target="_top" xlink:title="Definitions of error names and error codes used across LLU.">
<polygon fill="white" stroke="black" points="523,-112.5 523,-131.5 635,-131.5 635,-112.5 523,-112.5"/>
<text text-anchor="middle" x="579" y="-119.5" font-family="Helvetica,sans-Serif" font-size="10.00">LLU/ErrorLog/Errors.h</text>
</a>
</g>
</g>
<!-- Node19&#45;&gt;Node25 -->
<g id="edge29" class="edge">
<title>Node19&#45;&gt;Node25</title>
<path fill="none" stroke="midnightblue" d="M1210.12,-280.87C1207.04,-280.56 1203.99,-280.27 1201,-280 1081.23,-269.1 775.65,-280.31 661,-244 615.37,-229.55 592.45,-229.73 569,-188 560.89,-173.56 565.18,-154.62 570.42,-140.91"/>
<polygon fill="midnightblue" stroke="midnightblue" points="573.68,-142.18 574.42,-131.61 567.25,-139.41 573.68,-142.18"/>
</g>
<!-- Node19&#45;&gt;Node26 -->
<g id="edge31" class="edge">
<title>Node19&#45;&gt;Node26</title>
<path fill="none" stroke="midnightblue" d="M1275.4,-280.22C1271.94,-271.28 1266.97,-256.94 1265,-244 1259.53,-208.03 1265.54,-165.51 1270.03,-141.66"/>
<polygon fill="midnightblue" stroke="midnightblue" points="1273.52,-142.05 1272.05,-131.56 1266.66,-140.68 1273.52,-142.05"/>
</g>
<!-- Node37 -->
<g id="node37" class="node">
<title>Node37</title>
<g id="a_node37"><a xlink:href="Get_8h.html" target="_top" xlink:title="Header file with classes related to reading data from WSTP.">
<polygon fill="white" stroke="black" points="670,-224.5 670,-243.5 764,-243.5 764,-224.5 670,-224.5"/>
<text text-anchor="middle" x="717" y="-231.5" font-family="Helvetica,sans-Serif" font-size="10.00">LLU/WSTP/Get.h</text>
</a>
</g>
</g>
<!-- Node19&#45;&gt;Node37 -->
<g id="edge46" class="edge">
<title>Node19&#45;&gt;Node37</title>
<path fill="none" stroke="midnightblue" d="M1210.11,-280.97C1207.03,-280.63 1203.98,-280.31 1201,-280 1046.83,-263.94 864.74,-247.76 774.16,-239.9"/>
<polygon fill="midnightblue" stroke="midnightblue" points="774.36,-236.41 764.1,-239.03 773.76,-243.38 774.36,-236.41"/>
</g>
<!-- Node40 -->
<g id="node40" class="node">
<title>Node40</title>
<g id="a_node40"><a xlink:href="WSTP_2Utilities_8h.html" target="_top" xlink:title="Header file with miscellaneous utilities used throughout the WSTP&#45;related part of LibraryLinkUtilitie...">
<polygon fill="white" stroke="black" points="944.5,-168.5 944.5,-187.5 1055.5,-187.5 1055.5,-168.5 944.5,-168.5"/>
<text text-anchor="middle" x="1000" y="-175.5" font-family="Helvetica,sans-Serif" font-size="10.00">LLU/WSTP/Utilities.h</text>
</a>
</g>
</g>
<!-- Node19&#45;&gt;Node40 -->
<g id="edge82" class="edge">
<title>Node19&#45;&gt;Node40</title>
<path fill="none" stroke="midnightblue" d="M1220.53,-280.44C1183.2,-273.61 1134.41,-262.13 1094,-244 1065.06,-231.02 1035.62,-208.9 1017.58,-194.13"/>
<polygon fill="midnightblue" stroke="midnightblue" points="1019.61,-191.26 1009.69,-187.53 1015.12,-196.63 1019.61,-191.26"/>
</g>
<!-- Node43 -->
<g id="node43" class="node">
<title>Node43</title>
<g id="a_node43"><a xlink:href="Put_8h.html" target="_top" xlink:title="Header file with classes related to sending data through WSTP.">
<polygon fill="white" stroke="black" points="873.5,-224.5 873.5,-243.5 966.5,-243.5 966.5,-224.5 873.5,-224.5"/>
<text text-anchor="middle" x="920" y="-231.5" font-family="Helvetica,sans-Serif" font-size="10.00">LLU/WSTP/Put.h</text>
</a>
</g>
</g>
<!-- Node19&#45;&gt;Node43 -->
<g id="edge67" class="edge">
<title>Node19&#45;&gt;Node43</title>
<path fill="none" stroke="midnightblue" d="M1222.12,-280.44C1154.88,-270.33 1043.7,-253.61 976.59,-243.51"/>
<polygon fill="midnightblue" stroke="midnightblue" points="977.03,-240.04 966.62,-242.01 975.99,-246.96 977.03,-240.04"/>
</g>
<!-- Node44 -->
<g id="node44" class="node">
<title>Node44</title>
<g id="a_node44"><a xlink:href="Strings_8h.html" target="_top" xlink:title="Definitions of multiple structures and type aliases related to string handling in WSTP.">
<polygon fill="white" stroke="black" points="1103.5,-224.5 1103.5,-243.5 1212.5,-243.5 1212.5,-224.5 1103.5,-224.5"/>
<text text-anchor="middle" x="1158" y="-231.5" font-family="Helvetica,sans-Serif" font-size="10.00">LLU/WSTP/Strings.h</text>
</a>
</g>
</g>
<!-- Node19&#45;&gt;Node44 -->
<g id="edge73" class="edge">
<title>Node19&#45;&gt;Node44</title>
<path fill="none" stroke="midnightblue" d="M1259.83,-280.44C1240.09,-271.64 1209.11,-257.81 1186.51,-247.72"/>
<polygon fill="midnightblue" stroke="midnightblue" points="1187.64,-244.4 1177.08,-243.52 1184.79,-250.79 1187.64,-244.4"/>
</g>
<!-- Node45 -->
<g id="node45" class="node">
<title>Node45</title>
<g id="a_node45"><a xlink:href="UtilityTypeTraits_8hpp.html" target="_top" xlink:title="Type traits used by WSStream to identify types supported by WSTP.">
<polygon fill="white" stroke="black" points="1490,-168.5 1490,-187.5 1650,-187.5 1650,-168.5 1490,-168.5"/>
<text text-anchor="middle" x="1570" y="-175.5" font-family="Helvetica,sans-Serif" font-size="10.00">LLU/WSTP/UtilityTypeTraits.hpp</text>
</a>
</g>
</g>
<!-- Node19&#45;&gt;Node45 -->
<g id="edge83" class="edge">
<title>Node19&#45;&gt;Node45</title>
<path fill="none" stroke="midnightblue" d="M1347.94,-283.01C1391.04,-277.22 1446.77,-265.93 1492,-244 1516.89,-231.93 1540.58,-210.23 1555.18,-195.24"/>
<polygon fill="midnightblue" stroke="midnightblue" points="1557.98,-197.38 1562.31,-187.71 1552.89,-192.57 1557.98,-197.38"/>
</g>
<!-- Node25&#45;&gt;Node10 -->
<g id="edge30" class="edge">
<title>Node25&#45;&gt;Node10</title>
<path fill="none" stroke="midnightblue" d="M555.55,-112.44C530.14,-103.17 489.51,-88.35 461.6,-78.17"/>
<polygon fill="midnightblue" stroke="midnightblue" points="462.54,-74.78 451.95,-74.64 460.14,-81.36 462.54,-74.78"/>
</g>
<!-- Node26&#45;&gt;Node15 -->
<g id="edge35" class="edge">
<title>Node26&#45;&gt;Node15</title>
<path fill="none" stroke="midnightblue" d="M1283.48,-112.32C1292.2,-104.34 1305.34,-92.31 1315.9,-82.65"/>
<polygon fill="midnightblue" stroke="midnightblue" points="1318.33,-85.17 1323.35,-75.83 1313.61,-80 1318.33,-85.17"/>
</g>
<!-- Node26&#45;&gt;Node23 -->
<g id="edge34" class="edge">
<title>Node26&#45;&gt;Node23</title>
<path fill="none" stroke="midnightblue" d="M1294.28,-112.44C1315.35,-103.56 1348.52,-89.56 1372.49,-79.45"/>
<polygon fill="midnightblue" stroke="midnightblue" points="1373.96,-82.63 1381.81,-75.52 1371.24,-76.18 1373.96,-82.63"/>
</g>
<!-- Node27 -->
<g id="node27" class="node">
<title>Node27</title>
<g id="a_node27"><a xlink:title=" ">
<polygon fill="white" stroke="#bfbfbf" points="1177.5,-56.5 1177.5,-75.5 1230.5,-75.5 1230.5,-56.5 1177.5,-56.5"/>
<text text-anchor="middle" x="1204" y="-63.5" font-family="Helvetica,sans-Serif" font-size="10.00">complex</text>
</a>
</g>
</g>
<!-- Node26&#45;&gt;Node27 -->
<g id="edge32" class="edge">
<title>Node26&#45;&gt;Node27</title>
<path fill="none" stroke="midnightblue" d="M1262.75,-112.32C1252.2,-104.18 1236.2,-91.84 1223.56,-82.09"/>
<polygon fill="midnightblue" stroke="midnightblue" points="1225.51,-79.17 1215.45,-75.83 1221.23,-84.71 1225.51,-79.17"/>
</g>
<!-- Node28 -->
<g id="node28" class="node">
<title>Node28</title>
<g id="a_node28"><a xlink:title=" ">
<polygon fill="white" stroke="#bfbfbf" points="1112,-56.5 1112,-75.5 1158,-75.5 1158,-56.5 1112,-56.5"/>
<text text-anchor="middle" x="1135" y="-63.5" font-family="Helvetica,sans-Serif" font-size="10.00">cstdint</text>
</a>
</g>
</g>
<!-- Node26&#45;&gt;Node28 -->
<g id="edge33" class="edge">
<title>Node26&#45;&gt;Node28</title>
<path fill="none" stroke="midnightblue" d="M1251.98,-112.44C1228.9,-103.48 1192.44,-89.31 1166.36,-79.18"/>
<polygon fill="midnightblue" stroke="midnightblue" points="1167.51,-75.88 1156.92,-75.52 1164.98,-82.4 1167.51,-75.88"/>
</g>
<!-- Node29 -->
<g id="node29" class="node">
<title>Node29</title>
<g id="a_node29"><a xlink:title=" ">
<polygon fill="white" stroke="#bfbfbf" points="1249,-56.5 1249,-75.5 1295,-75.5 1295,-56.5 1249,-56.5"/>
<text text-anchor="middle" x="1272" y="-63.5" font-family="Helvetica,sans-Serif" font-size="10.00">variant</text>
</a>
</g>
</g>
<!-- Node26&#45;&gt;Node29 -->
<g id="edge36" class="edge">
<title>Node26&#45;&gt;Node29</title>
<path fill="none" stroke="midnightblue" d="M1273.67,-112.08C1273.41,-105.01 1273.03,-94.86 1272.7,-85.99"/>
<polygon fill="midnightblue" stroke="midnightblue" points="1276.19,-85.61 1272.32,-75.75 1269.2,-85.87 1276.19,-85.61"/>
</g>
<!-- Node26&#45;&gt;Node30 -->
<g id="edge37" class="edge">
<title>Node26&#45;&gt;Node30</title>
<path fill="none" stroke="midnightblue" d="M1318.61,-116.35C1412.31,-106.58 1629.49,-83.94 1733.9,-73.06"/>
<polygon fill="midnightblue" stroke="midnightblue" points="1734.36,-76.53 1743.94,-72.01 1733.64,-69.57 1734.36,-76.53"/>
</g>
<!-- Node30&#45;&gt;Node9 -->
<g id="edge38" class="edge">
<title>Node30&#45;&gt;Node9</title>
<path fill="none" stroke="midnightblue" d="M1743.92,-62.82C1547.95,-53.92 811.79,-20.48 639.32,-12.65"/>
<polygon fill="midnightblue" stroke="midnightblue" points="639.38,-9.15 629.24,-12.19 639.07,-16.14 639.38,-9.15"/>
</g>
<!-- Node30&#45;&gt;Node24 -->
<g id="edge40" class="edge">
<title>Node30&#45;&gt;Node24</title>
<path fill="none" stroke="midnightblue" d="M1743.98,-57.69C1739.26,-57.07 1734.54,-56.5 1730,-56 1508.62,-31.86 1240.96,-17.24 1148.39,-12.61"/>
<polygon fill="midnightblue" stroke="midnightblue" points="1148.39,-9.1 1138.23,-12.1 1148.05,-16.09 1148.39,-9.1"/>
</g>
<!-- Node31 -->
<g id="node31" class="node">
<title>Node31</title>
<g id="a_node31"><a xlink:title=" ">
<polygon fill="white" stroke="#bfbfbf" points="1946,-0.5 1946,-19.5 2008,-19.5 2008,-0.5 1946,-0.5"/>
<text text-anchor="middle" x="1977" y="-7.5" font-family="Helvetica,sans-Serif" font-size="10.00">dllexport.h</text>
</a>
</g>
</g>
<!-- Node30&#45;&gt;Node31 -->
<g id="edge39" class="edge">
<title>Node30&#45;&gt;Node31</title>
<path fill="none" stroke="midnightblue" d="M1821.31,-56.44C1852.84,-47.24 1903.13,-32.56 1937.99,-22.39"/>
<polygon fill="midnightblue" stroke="midnightblue" points="1939.2,-25.68 1947.82,-19.52 1937.24,-18.96 1939.2,-25.68"/>
</g>
<!-- Node32 -->
<g id="node32" class="node">
<title>Node32</title>
<g id="a_node32"><a xlink:title=" ">
<polygon fill="white" stroke="#bfbfbf" points="2026.5,-0.5 2026.5,-19.5 2115.5,-19.5 2115.5,-0.5 2026.5,-0.5"/>
<text text-anchor="middle" x="2071" y="-7.5" font-family="Helvetica,sans-Serif" font-size="10.00">WolframLibrary.h</text>
</a>
</g>
</g>
<!-- Node30&#45;&gt;Node32 -->
<g id="edge41" class="edge">
<title>Node30&#45;&gt;Node32</title>
<path fill="none" stroke="midnightblue" d="M1836.21,-56.44C1885.29,-46.94 1964.51,-31.61 2017.16,-21.42"/>
<polygon fill="midnightblue" stroke="midnightblue" points="2017.85,-24.85 2027,-19.52 2016.52,-17.98 2017.85,-24.85"/>
</g>
<!-- Node33 -->
<g id="node33" class="node">
<title>Node33</title>
<g id="a_node33"><a xlink:title=" ">
<polygon fill="white" stroke="#bfbfbf" points="1345.5,-0.5 1345.5,-19.5 1488.5,-19.5 1488.5,-0.5 1345.5,-0.5"/>
<text text-anchor="middle" x="1417" y="-7.5" font-family="Helvetica,sans-Serif" font-size="10.00">WolframIOLibraryFunctions.h</text>
</a>
</g>
</g>
<!-- Node30&#45;&gt;Node33 -->
<g id="edge42" class="edge">
<title>Node30&#45;&gt;Node33</title>
<path fill="none" stroke="midnightblue" d="M1743.94,-58.02C1739.23,-57.33 1734.52,-56.65 1730,-56 1646.36,-43.92 1550.14,-30.1 1486.71,-20.99"/>
<polygon fill="midnightblue" stroke="midnightblue" points="1486.82,-17.47 1476.43,-19.52 1485.83,-24.4 1486.82,-17.47"/>
</g>
<!-- Node34 -->
<g id="node34" class="node">
<title>Node34</title>
<g id="a_node34"><a xlink:title=" ">
<polygon fill="white" stroke="#bfbfbf" points="1507,-0.5 1507,-19.5 1623,-19.5 1623,-0.5 1507,-0.5"/>
<text text-anchor="middle" x="1565" y="-7.5" font-family="Helvetica,sans-Serif" font-size="10.00">WolframImageLibrary.h</text>
</a>
</g>
</g>
<!-- Node30&#45;&gt;Node34 -->
<g id="edge43" class="edge">
<title>Node30&#45;&gt;Node34</title>
<path fill="none" stroke="midnightblue" d="M1756.03,-56.44C1716.68,-47.08 1653.51,-32.06 1610.69,-21.87"/>
<polygon fill="midnightblue" stroke="midnightblue" points="1611.34,-18.43 1600.8,-19.52 1609.72,-25.24 1611.34,-18.43"/>
</g>
<!-- Node35 -->
<g id="node35" class="node">
<title>Node35</title>
<g id="a_node35"><a xlink:title=" ">
<polygon fill="white" stroke="#bfbfbf" points="1641.5,-0.5 1641.5,-19.5 1790.5,-19.5 1790.5,-0.5 1641.5,-0.5"/>
<text text-anchor="middle" x="1716" y="-7.5" font-family="Helvetica,sans-Serif" font-size="10.00">WolframNumericArrayLibrary.h</text>
</a>
</g>
</g>
<!-- Node30&#45;&gt;Node35 -->
<g id="edge44" class="edge">
<title>Node30&#45;&gt;Node35</title>
<path fill="none" stroke="midnightblue" d="M1779.79,-56.32C1768.22,-48.11 1750.62,-35.6 1736.84,-25.81"/>
<polygon fill="midnightblue" stroke="midnightblue" points="1738.61,-22.77 1728.43,-19.83 1734.56,-28.48 1738.61,-22.77"/>
</g>
<!-- Node36 -->
<g id="node36" class="node">
<title>Node36</title>
<g id="a_node36"><a xlink:title=" ">
<polygon fill="white" stroke="#bfbfbf" points="1808.5,-0.5 1808.5,-19.5 1927.5,-19.5 1927.5,-0.5 1808.5,-0.5"/>
<text text-anchor="middle" x="1868" y="-7.5" font-family="Helvetica,sans-Serif" font-size="10.00">WolframSparseLibrary.h</text>
</a>
</g>
</g>
<!-- Node30&#45;&gt;Node36 -->
<g id="edge45" class="edge">
<title>Node30&#45;&gt;Node36</title>
<path fill="none" stroke="midnightblue" d="M1804.21,-56.32C1815.78,-48.11 1833.38,-35.6 1847.16,-25.81"/>
<polygon fill="midnightblue" stroke="midnightblue" points="1849.44,-28.48 1855.57,-19.83 1845.39,-22.77 1849.44,-28.48"/>
</g>
<!-- Node37&#45;&gt;Node9 -->
<g id="edge48" class="edge">
<title>Node37&#45;&gt;Node9</title>
<path fill="none" stroke="midnightblue" d="M670,-230.6C602.01,-226.24 480.67,-214.85 447,-188 404.92,-154.45 411.42,-128.79 401,-76 399.28,-67.28 395.44,-62.94 401,-56 421.34,-30.63 513.93,-18.64 566.41,-13.79"/>
<polygon fill="midnightblue" stroke="midnightblue" points="566.99,-17.25 576.65,-12.89 566.38,-10.28 566.99,-17.25"/>
</g>
<!-- Node37&#45;&gt;Node10 -->
<g id="edge49" class="edge">
<title>Node37&#45;&gt;Node10</title>
<path fill="none" stroke="midnightblue" d="M669.99,-230.4C605.81,-225.89 495.36,-214.45 466,-188 436.85,-161.73 431.37,-112.84 430.7,-85.94"/>
<polygon fill="midnightblue" stroke="midnightblue" points="434.19,-85.58 430.65,-75.59 427.19,-85.61 434.19,-85.58"/>
</g>
<!-- Node37&#45;&gt;Node24 -->
<g id="edge50" class="edge">
<title>Node37&#45;&gt;Node24</title>
<path fill="none" stroke="midnightblue" d="M670.96,-224.46C597.05,-208.77 464.98,-171.43 514,-112 586.87,-23.65 966.3,-12.5 1081.68,-11.16"/>
<polygon fill="midnightblue" stroke="midnightblue" points="1081.73,-14.66 1091.7,-11.06 1081.66,-7.66 1081.73,-14.66"/>
</g>
<!-- Node37&#45;&gt;Node25 -->
<g id="edge51" class="edge">
<title>Node37&#45;&gt;Node25</title>
<path fill="none" stroke="midnightblue" d="M669.9,-230.91C638.96,-226.81 600.55,-215.93 580,-188 570.29,-174.8 571.27,-155.67 573.94,-141.57"/>
<polygon fill="midnightblue" stroke="midnightblue" points="577.41,-142.1 576.27,-131.56 570.6,-140.51 577.41,-142.1"/>
</g>
<!-- Node37&#45;&gt;Node26 -->
<g id="edge52" class="edge">
<title>Node37&#45;&gt;Node26</title>
<path fill="none" stroke="midnightblue" d="M764.06,-229.25C845.58,-222.36 1009.55,-206.67 1064,-188 1080.58,-182.31 1081.79,-174.68 1098,-168 1137.28,-151.81 1183.95,-140.2 1219.36,-132.83"/>
<polygon fill="midnightblue" stroke="midnightblue" points="1220.39,-136.19 1229.5,-130.77 1219,-129.33 1220.39,-136.19"/>
</g>
<!-- Node38 -->
<g id="node38" class="node">
<title>Node38</title>
<g id="a_node38"><a xlink:title=" ">
<polygon fill="white" stroke="#bfbfbf" points="763.5,-112.5 763.5,-131.5 822.5,-131.5 822.5,-112.5 763.5,-112.5"/>
<text text-anchor="middle" x="793" y="-119.5" font-family="Helvetica,sans-Serif" font-size="10.00">functional</text>
</a>
</g>
</g>
<!-- Node37&#45;&gt;Node38 -->
<g id="edge47" class="edge">
<title>Node37&#45;&gt;Node38</title>
<path fill="none" stroke="midnightblue" d="M737.73,-224.4C752.8,-217.02 772.35,-204.89 783,-188 791.66,-174.27 793.78,-155.74 793.96,-141.98"/>
<polygon fill="midnightblue" stroke="midnightblue" points="797.46,-141.67 793.75,-131.75 790.46,-141.82 797.46,-141.67"/>
</g>
<!-- Node39 -->
<g id="node39" class="node">
<title>Node39</title>
<g id="a_node39"><a xlink:href="Release_8h.html" target="_top" xlink:title="Header file with classes responsible for releasing memory allocated by WSTP when receiving data.">
<polygon fill="white" stroke="black" points="660,-168.5 660,-187.5 774,-187.5 774,-168.5 660,-168.5"/>
<text text-anchor="middle" x="717" y="-175.5" font-family="Helvetica,sans-Serif" font-size="10.00">LLU/WSTP/Release.h</text>
</a>
</g>
</g>
<!-- Node37&#45;&gt;Node39 -->
<g id="edge53" class="edge">
<title>Node37&#45;&gt;Node39</title>
<path fill="none" stroke="midnightblue" d="M717,-224.08C717,-217.01 717,-206.86 717,-197.99"/>
<polygon fill="midnightblue" stroke="midnightblue" points="720.5,-197.75 717,-187.75 713.5,-197.75 720.5,-197.75"/>
</g>
<!-- Node37&#45;&gt;Node40 -->
<g id="edge57" class="edge">
<title>Node37&#45;&gt;Node40</title>
<path fill="none" stroke="midnightblue" d="M761.84,-224.44C811.62,-214.94 891.98,-199.61 945.39,-189.42"/>
<polygon fill="midnightblue" stroke="midnightblue" points="946.2,-192.83 955.37,-187.52 944.89,-185.95 946.2,-192.83"/>
</g>
<!-- Node39&#45;&gt;Node24 -->
<g id="edge55" class="edge">
<title>Node39&#45;&gt;Node24</title>
<path fill="none" stroke="midnightblue" d="M719.96,-168.3C724.99,-154.67 736.41,-128.17 754,-112 848.37,-25.25 1011.22,-12.2 1081.31,-10.8"/>
<polygon fill="midnightblue" stroke="midnightblue" points="1081.79,-14.29 1091.74,-10.66 1081.7,-7.29 1081.79,-14.29"/>
</g>
<!-- Node39&#45;&gt;Node26 -->
<g id="edge56" class="edge">
<title>Node39&#45;&gt;Node26</title>
<path fill="none" stroke="midnightblue" d="M774.11,-173.31C865.73,-167.08 1051.46,-153.16 1219.24,-132"/>
<polygon fill="midnightblue" stroke="midnightblue" points="1219.77,-135.46 1229.25,-130.73 1218.89,-128.52 1219.77,-135.46"/>
</g>
<!-- Node39&#45;&gt;Node38 -->
<g id="edge54" class="edge">
<title>Node39&#45;&gt;Node38</title>
<path fill="none" stroke="midnightblue" d="M729.21,-168.32C740.78,-160.11 758.38,-147.6 772.16,-137.81"/>
<polygon fill="midnightblue" stroke="midnightblue" points="774.44,-140.48 780.57,-131.83 770.39,-134.77 774.44,-140.48"/>
</g>
<!-- Node40&#45;&gt;Node10 -->
<g id="edge59" class="edge">
<title>Node40&#45;&gt;Node10</title>
<path fill="none" stroke="midnightblue" d="M982.23,-168.42C951.96,-154.2 888.11,-125.95 831,-112 696.28,-79.09 530.05,-70.16 462.13,-67.81"/>
<polygon fill="midnightblue" stroke="midnightblue" points="461.83,-64.3 451.72,-67.48 461.6,-71.3 461.83,-64.3"/>
</g>
<!-- Node40&#45;&gt;Node24 -->
<g id="edge60" class="edge">
<title>Node40&#45;&gt;Node24</title>
<path fill="none" stroke="midnightblue" d="M983.4,-168.3C963.22,-156.51 933.33,-134.33 946,-112 975.15,-60.61 1041.99,-32.57 1082.32,-19.78"/>
<polygon fill="midnightblue" stroke="midnightblue" points="1083.42,-23.11 1091.97,-16.85 1081.38,-16.41 1083.42,-23.11"/>
</g>
<!-- Node40&#45;&gt;Node25 -->
<g id="edge61" class="edge">
<title>Node40&#45;&gt;Node25</title>
<path fill="none" stroke="midnightblue" d="M944.09,-169.83C866.8,-159.91 727.51,-142.05 645.14,-131.48"/>
<polygon fill="midnightblue" stroke="midnightblue" points="645.5,-128 635.14,-130.2 644.61,-134.94 645.5,-128"/>
</g>
<!-- Node41 -->
<g id="node41" class="node">
<title>Node41</title>
<g id="a_node41"><a xlink:title=" ">
<polygon fill="white" stroke="#bfbfbf" points="955,-112.5 955,-131.5 1001,-131.5 1001,-112.5 955,-112.5"/>
<text text-anchor="middle" x="978" y="-119.5" font-family="Helvetica,sans-Serif" font-size="10.00">cstring</text>
</a>
</g>
</g>
<!-- Node40&#45;&gt;Node41 -->
<g id="edge58" class="edge">
<title>Node40&#45;&gt;Node41</title>
<path fill="none" stroke="midnightblue" d="M996.37,-168.08C993.39,-160.77 989.07,-150.18 985.38,-141.1"/>
<polygon fill="midnightblue" stroke="midnightblue" points="988.58,-139.69 981.57,-131.75 982.1,-142.33 988.58,-139.69"/>
</g>
<!-- Node42 -->
<g id="node42" class="node">
<title>Node42</title>
<g id="a_node42"><a xlink:href="EncodingTraits_8hpp.html" target="_top" xlink:title="Defines possible encodings together with their properties and related types.">
<polygon fill="white" stroke="black" points="1057,-112.5 1057,-131.5 1211,-131.5 1211,-112.5 1057,-112.5"/>
<text text-anchor="middle" x="1134" y="-119.5" font-family="Helvetica,sans-Serif" font-size="10.00">LLU/WSTP/EncodingTraits.hpp</text>
</a>
</g>
</g>
<!-- Node40&#45;&gt;Node42 -->
<g id="edge62" class="edge">
<title>Node40&#45;&gt;Node42</title>
<path fill="none" stroke="midnightblue" d="M1021.23,-168.44C1043.38,-159.52 1078.32,-145.44 1103.44,-135.32"/>
<polygon fill="midnightblue" stroke="midnightblue" points="1104.9,-138.5 1112.87,-131.52 1102.28,-132.01 1104.9,-138.5"/>
</g>
<!-- Node42&#45;&gt;Node10 -->
<g id="edge64" class="edge">
<title>Node42&#45;&gt;Node10</title>
<path fill="none" stroke="midnightblue" d="M1056.76,-115.07C903.11,-103.26 565.07,-77.3 461.66,-69.36"/>
<polygon fill="midnightblue" stroke="midnightblue" points="461.82,-65.86 451.58,-68.58 461.29,-72.84 461.82,-65.86"/>
</g>
<!-- Node42&#45;&gt;Node15 -->
<g id="edge66" class="edge">
<title>Node42&#45;&gt;Node15</title>
<path fill="none" stroke="midnightblue" d="M1167.98,-112.45C1200.37,-104.21 1250.71,-91.14 1302.97,-76.21"/>
<polygon fill="midnightblue" stroke="midnightblue" points="1304.11,-79.53 1312.75,-73.4 1302.17,-72.8 1304.11,-79.53"/>
</g>
<!-- Node42&#45;&gt;Node23 -->
<g id="edge65" class="edge">
<title>Node42&#45;&gt;Node23</title>
<path fill="none" stroke="midnightblue" d="M1179.06,-112.47C1222.95,-104.08 1291.81,-90.71 1360.45,-76.29"/>
<polygon fill="midnightblue" stroke="midnightblue" points="1361.51,-79.64 1370.57,-74.15 1360.07,-72.79 1361.51,-79.64"/>
</g>
<!-- Node42&#45;&gt;Node28 -->
<g id="edge63" class="edge">
<title>Node42&#45;&gt;Node28</title>
<path fill="none" stroke="midnightblue" d="M1134.17,-112.08C1134.3,-105.01 1134.48,-94.86 1134.65,-85.99"/>
<polygon fill="midnightblue" stroke="midnightblue" points="1138.15,-85.81 1134.84,-75.75 1131.15,-85.68 1138.15,-85.81"/>
</g>
<!-- Node43&#45;&gt;Node24 -->
<g id="edge69" class="edge">
<title>Node43&#45;&gt;Node24</title>
<path fill="none" stroke="midnightblue" d="M919.51,-224.1C918.44,-194.42 919.46,-98.38 974,-56 1005.67,-31.39 1051.14,-20.06 1081.81,-14.97"/>
<polygon fill="midnightblue" stroke="midnightblue" points="1082.63,-18.38 1091.99,-13.41 1081.58,-11.46 1082.63,-18.38"/>
</g>
<!-- Node43&#45;&gt;Node25 -->
<g id="edge70" class="edge">
<title>Node43&#45;&gt;Node25</title>
<path fill="none" stroke="midnightblue" d="M873.2,-230.86C799.08,-226.67 658.88,-215.32 618,-188 601.62,-177.06 591.07,-156.69 585.12,-141.66"/>
<polygon fill="midnightblue" stroke="midnightblue" points="588.27,-140.09 581.59,-131.87 581.69,-142.47 588.27,-140.09"/>
</g>
<!-- Node43&#45;&gt;Node26 -->
<g id="edge71" class="edge">
<title>Node43&#45;&gt;Node26</title>
<path fill="none" stroke="midnightblue" d="M958.87,-224.43C995.15,-216.13 1050.66,-202.68 1098,-188 1149.82,-171.93 1208.71,-149.26 1243.54,-135.37"/>
<polygon fill="midnightblue" stroke="midnightblue" points="1245.14,-138.5 1253.12,-131.54 1242.53,-132.01 1245.14,-138.5"/>
</g>
<!-- Node43&#45;&gt;Node38 -->
<g id="edge68" class="edge">
<title>Node43&#45;&gt;Node38</title>
<path fill="none" stroke="midnightblue" d="M908.67,-224.24C897.23,-215.32 879.15,-200.99 864,-188 844.92,-171.63 823.74,-152.04 809.52,-138.68"/>
<polygon fill="midnightblue" stroke="midnightblue" points="811.7,-135.92 802.02,-131.61 806.89,-141.01 811.7,-135.92"/>
</g>
<!-- Node43&#45;&gt;Node40 -->
<g id="edge72" class="edge">
<title>Node43&#45;&gt;Node40</title>
<path fill="none" stroke="midnightblue" d="M932.85,-224.32C945.22,-215.98 964.13,-203.21 978.74,-193.35"/>
<polygon fill="midnightblue" stroke="midnightblue" points="980.85,-196.15 987.18,-187.65 976.93,-190.35 980.85,-196.15"/>
</g>
<!-- Node44&#45;&gt;Node9 -->
<g id="edge76" class="edge">
<title>Node44&#45;&gt;Node9</title>
<path fill="none" stroke="midnightblue" d="M1150.26,-224.46C1129.71,-202.31 1071.13,-142.62 1010,-112 882.81,-48.3 712.68,-23 639.25,-14.59"/>
<polygon fill="midnightblue" stroke="midnightblue" points="639.46,-11.09 629.13,-13.47 638.69,-18.05 639.46,-11.09"/>
</g>
<!-- Node44&#45;&gt;Node12 -->
<g id="edge74" class="edge">
<title>Node44&#45;&gt;Node12</title>
<path fill="none" stroke="midnightblue" d="M1197.3,-224.44C1244.02,-214.27 1321.49,-197.4 1367.75,-187.33"/>
<polygon fill="midnightblue" stroke="midnightblue" points="1368.66,-190.71 1377.69,-185.16 1367.17,-183.87 1368.66,-190.71"/>
</g>
<!-- Node44&#45;&gt;Node24 -->
<g id="edge77" class="edge">
<title>Node44&#45;&gt;Node24</title>
<path fill="none" stroke="midnightblue" d="M1180.68,-224.46C1254.83,-195.92 1483.04,-103.08 1442,-56 1422.87,-34.06 1228.1,-18.6 1148.56,-13.15"/>
<polygon fill="midnightblue" stroke="midnightblue" points="1148.34,-9.63 1138.13,-12.45 1147.87,-16.62 1148.34,-9.63"/>
</g>
<!-- Node44&#45;&gt;Node25 -->
<g id="edge78" class="edge">
<title>Node44&#45;&gt;Node25</title>
<path fill="none" stroke="midnightblue" d="M1103.49,-230.12C981.04,-223.37 691.7,-205.76 651,-188 626.52,-177.32 604.73,-154.92 591.7,-139.42"/>
<polygon fill="midnightblue" stroke="midnightblue" points="594.41,-137.21 585.4,-131.64 588.97,-141.62 594.41,-137.21"/>
</g>
<!-- Node44&#45;&gt;Node26 -->
<g id="edge79" class="edge">
<title>Node44&#45;&gt;Node26</title>
<path fill="none" stroke="midnightblue" d="M1167.1,-224.37C1186.58,-205.89 1232.56,-162.29 1257.4,-138.74"/>
<polygon fill="midnightblue" stroke="midnightblue" points="1260.09,-141.01 1264.94,-131.59 1255.28,-135.93 1260.09,-141.01"/>
</g>
<!-- Node44&#45;&gt;Node38 -->
<g id="edge75" class="edge">
<title>Node44&#45;&gt;Node38</title>
<path fill="none" stroke="midnightblue" d="M1103.48,-225.59C1057.77,-218.53 991.16,-206.25 935,-188 892.33,-174.13 845.49,-151.03 817.7,-136.43"/>
<polygon fill="midnightblue" stroke="midnightblue" points="819.17,-133.25 808.7,-131.65 815.89,-139.43 819.17,-133.25"/>
</g>
<!-- Node44&#45;&gt;Node40 -->
<g id="edge81" class="edge">
<title>Node44&#45;&gt;Node40</title>
<path fill="none" stroke="midnightblue" d="M1132.96,-224.44C1106.38,-215.36 1064.19,-200.94 1034.48,-190.78"/>
<polygon fill="midnightblue" stroke="midnightblue" points="1035.51,-187.44 1024.92,-187.52 1033.25,-194.06 1035.51,-187.44"/>
</g>
<!-- Node44&#45;&gt;Node42 -->
<g id="edge80" class="edge">
<title>Node44&#45;&gt;Node42</title>
<path fill="none" stroke="midnightblue" d="M1163.36,-224.39C1170.5,-211.74 1181.43,-187.55 1174,-168 1169.66,-156.6 1160.97,-146.24 1152.79,-138.34"/>
<polygon fill="midnightblue" stroke="midnightblue" points="1155.04,-135.66 1145.27,-131.57 1150.36,-140.86 1155.04,-135.66"/>
</g>
<!-- Node45&#45;&gt;Node23 -->
<g id="edge84" class="edge">
<title>Node45&#45;&gt;Node23</title>
<path fill="none" stroke="midnightblue" d="M1489.84,-169.22C1463.81,-162.9 1436.81,-151.71 1418,-132 1406.35,-119.79 1402.77,-100.53 1401.85,-86.13"/>
<polygon fill="midnightblue" stroke="midnightblue" points="1405.34,-85.77 1401.58,-75.86 1398.34,-85.95 1405.34,-85.77"/>
</g>
<!-- Node45&#45;&gt;Node24 -->
<g id="edge85" class="edge">
<title>Node45&#45;&gt;Node24</title>
<path fill="none" stroke="midnightblue" d="M1566.79,-168.4C1557.78,-145.56 1529.84,-83.3 1484,-56 1427.73,-22.49 1228.76,-13.83 1148.72,-11.68"/>
<polygon fill="midnightblue" stroke="midnightblue" points="1148.32,-8.17 1138.24,-11.42 1148.15,-15.17 1148.32,-8.17"/>
</g>
<!-- Node45&#45;&gt;Node26 -->
<g id="edge86" class="edge">
<title>Node45&#45;&gt;Node26</title>
<path fill="none" stroke="midnightblue" d="M1523.1,-168.44C1470.31,-158.81 1384.64,-143.18 1328.81,-133"/>
<polygon fill="midnightblue" stroke="midnightblue" points="1329.21,-129.51 1318.75,-131.16 1327.95,-136.4 1329.21,-129.51"/>
</g>
</g>
</svg>
