<?xml version="1.0" encoding="UTF-8" standalone="no"?>
<!DOCTYPE svg PUBLIC "-//W3C//DTD SVG 1.1//EN"
 "http://www.w3.org/Graphics/SVG/1.1/DTD/svg11.dtd">
<!-- Generated by graphviz version 2.43.0 (0)
 -->
<!-- Title: Tensor.hpp Pages: 1 -->
<svg width="614pt" height="532pt"
 viewBox="0.00 0.00 614.00 532.00" xmlns="http://www.w3.org/2000/svg" xmlns:xlink="http://www.w3.org/1999/xlink">
<g id="graph0" class="graph" transform="scale(1 1) rotate(0) translate(4 528)">
<title>Tensor.hpp</title>
<polygon fill="white" stroke="transparent" points="-4,4 -4,-528 610,-528 610,4 -4,4"/>
<!-- Node1 -->
<g id="node1" class="node">
<title>Node1</title>
<g id="a_node1"><a xlink:title="GenericTensor definition and implementation.">
<polygon fill="#bfbfbf" stroke="black" points="403,-504.5 403,-523.5 467,-523.5 467,-504.5 403,-504.5"/>
<text text-anchor="middle" x="435" y="-511.5" font-family="Helvetica,sans-Serif" font-size="10.00">Tensor.hpp</text>
</a>
</g>
</g>
<!-- Node2 -->
<g id="node2" class="node">
<title>Node2</title>
<g id="a_node2"><a xlink:href="SparseArray_8hpp.html" target="_top" xlink:title="GenericSparseArray definition and implementation.">
<polygon fill="white" stroke="black" points="233,-448.5 233,-467.5 321,-467.5 321,-448.5 233,-448.5"/>
<text text-anchor="middle" x="277" y="-455.5" font-family="Helvetica,sans-Serif" font-size="10.00">SparseArray.hpp</text>
</a>
</g>
</g>
<!-- Node1&#45;&gt;Node2 -->
<g id="edge1" class="edge">
<title>Node1&#45;&gt;Node2</title>
<path fill="none" stroke="midnightblue" d="M400.39,-501.17C370.64,-491 328.45,-476.59 301.92,-467.52"/>
<polygon fill="midnightblue" stroke="midnightblue" points="399.37,-504.52 409.96,-504.44 401.63,-497.9 399.37,-504.52"/>
</g>
<!-- Node10 -->
<g id="node10" class="node">
<title>Node10</title>
<g id="a_node10"><a xlink:href="TypedMArgument_8h.html" target="_top" xlink:title=" ">
<polygon fill="white" stroke="black" points="226.5,-392.5 226.5,-411.5 327.5,-411.5 327.5,-392.5 226.5,-392.5"/>
<text text-anchor="middle" x="277" y="-399.5" font-family="Helvetica,sans-Serif" font-size="10.00">TypedMArgument.h</text>
</a>
</g>
</g>
<!-- Node1&#45;&gt;Node10 -->
<g id="edge35" class="edge">
<title>Node1&#45;&gt;Node10</title>
<path fill="none" stroke="midnightblue" d="M414.05,-498.42C380.64,-475.15 316.28,-430.35 289.34,-411.59"/>
<polygon fill="midnightblue" stroke="midnightblue" points="412.4,-501.53 422.6,-504.37 416.39,-495.78 412.4,-501.53"/>
</g>
<!-- Node16 -->
<g id="node16" class="node">
<title>Node16</title>
<g id="a_node16"><a xlink:href="TypedMArgument_8cpp.html" target="_top" xlink:title=" ">
<polygon fill="white" stroke="black" points="374,-224.5 374,-243.5 486,-243.5 486,-224.5 374,-224.5"/>
<text text-anchor="middle" x="430" y="-231.5" font-family="Helvetica,sans-Serif" font-size="10.00">TypedMArgument.cpp</text>
</a>
</g>
</g>
<!-- Node1&#45;&gt;Node16 -->
<g id="edge36" class="edge">
<title>Node1&#45;&gt;Node16</title>
<path fill="none" stroke="midnightblue" d="M435,-494.25C435,-472.36 435,-435.05 435,-403 435,-403 435,-403 435,-345 435,-307.15 432.01,-262.05 430.65,-243.55"/>
<polygon fill="midnightblue" stroke="midnightblue" points="431.5,-494.44 435,-504.44 438.5,-494.44 431.5,-494.44"/>
</g>
<!-- Node18 -->
<g id="node18" class="node">
<title>Node18</title>
<g id="a_node18"><a xlink:href="Tensor_8h.html" target="_top" xlink:title="Templated C++ wrapper for MTensor.">
<polygon fill="white" stroke="black" points="255.5,-168.5 255.5,-187.5 308.5,-187.5 308.5,-168.5 255.5,-168.5"/>
<text text-anchor="middle" x="282" y="-175.5" font-family="Helvetica,sans-Serif" font-size="10.00">Tensor.h</text>
</a>
</g>
</g>
<!-- Node1&#45;&gt;Node18 -->
<g id="edge26" class="edge">
<title>Node1&#45;&gt;Node18</title>
<path fill="none" stroke="midnightblue" d="M455.34,-497.97C478.75,-478.78 514,-443.21 514,-403 514,-403 514,-403 514,-289 514,-258.9 517.08,-244.46 495,-224 468.11,-199.08 359.65,-186.09 308.7,-181.26"/>
<polygon fill="midnightblue" stroke="midnightblue" points="453.03,-495.34 447.34,-504.28 457.36,-500.83 453.03,-495.34"/>
</g>
<!-- Node22 -->
<g id="node22" class="node">
<title>Node22</title>
<g id="a_node22"><a xlink:href="Views_2Tensor_8hpp.html" target="_top" xlink:title="Definition and implementation of TensorView and TensorTypedView.">
<polygon fill="white" stroke="black" points="542,-448.5 542,-467.5 606,-467.5 606,-448.5 542,-448.5"/>
<text text-anchor="middle" x="574" y="-455.5" font-family="Helvetica,sans-Serif" font-size="10.00">Tensor.hpp</text>
</a>
</g>
</g>
<!-- Node1&#45;&gt;Node22 -->
<g id="edge34" class="edge">
<title>Node1&#45;&gt;Node22</title>
<path fill="none" stroke="midnightblue" d="M466.48,-500.77C492.59,-490.63 529.04,-476.47 552.08,-467.52"/>
<polygon fill="midnightblue" stroke="midnightblue" points="465.08,-497.56 457.02,-504.44 467.61,-504.08 465.08,-497.56"/>
</g>
<!-- Node3 -->
<g id="node3" class="node">
<title>Node3</title>
<g id="a_node3"><a xlink:href="SparseArray_8h.html" target="_top" xlink:title="Templated C++ wrapper for MSparseArray.">
<polygon fill="white" stroke="black" points="17.5,-112.5 17.5,-131.5 94.5,-131.5 94.5,-112.5 17.5,-112.5"/>
<text text-anchor="middle" x="56" y="-119.5" font-family="Helvetica,sans-Serif" font-size="10.00">SparseArray.h</text>
</a>
</g>
</g>
<!-- Node2&#45;&gt;Node3 -->
<g id="edge2" class="edge">
<title>Node2&#45;&gt;Node3</title>
<path fill="none" stroke="midnightblue" d="M222.65,-455.32C151.57,-449.9 36,-428.54 36,-347 36,-347 36,-347 36,-233 36,-194.76 47.84,-150.23 53.3,-131.74"/>
<polygon fill="midnightblue" stroke="midnightblue" points="222.58,-458.83 232.8,-456.01 223.06,-451.84 222.58,-458.83"/>
</g>
<!-- Node2&#45;&gt;Node10 -->
<g id="edge10" class="edge">
<title>Node2&#45;&gt;Node10</title>
<path fill="none" stroke="midnightblue" d="M277,-437.8C277,-428.91 277,-418.78 277,-411.75"/>
<polygon fill="midnightblue" stroke="midnightblue" points="273.5,-438.08 277,-448.08 280.5,-438.08 273.5,-438.08"/>
</g>
<!-- Node4 -->
<g id="node4" class="node">
<title>Node4</title>
<g id="a_node4"><a xlink:href="LLU_8h.html" target="_top" xlink:title="Header file which includes all major parts of LLU.">
<polygon fill="white" stroke="black" points="132.5,-0.5 132.5,-19.5 175.5,-19.5 175.5,-0.5 132.5,-0.5"/>
<text text-anchor="middle" x="154" y="-7.5" font-family="Helvetica,sans-Serif" font-size="10.00">LLU.h</text>
</a>
</g>
</g>
<!-- Node3&#45;&gt;Node4 -->
<g id="edge3" class="edge">
<title>Node3&#45;&gt;Node4</title>
<path fill="none" stroke="midnightblue" d="M70.73,-104.98C78.57,-96.42 88.35,-85.67 97,-76 114.8,-56.08 135.41,-32.44 146.31,-19.88"/>
<polygon fill="midnightblue" stroke="midnightblue" points="68.09,-102.68 63.91,-112.42 73.25,-107.41 68.09,-102.68"/>
</g>
<!-- Node5 -->
<g id="node5" class="node">
<title>Node5</title>
<g id="a_node5"><a xlink:href="MArgumentManager_8h.html" target="_top" xlink:title="Definition of MArgumentManager class.">
<polygon fill="white" stroke="black" points="227,-56.5 227,-75.5 339,-75.5 339,-56.5 227,-56.5"/>
<text text-anchor="middle" x="283" y="-63.5" font-family="Helvetica,sans-Serif" font-size="10.00">MArgumentManager.h</text>
</a>
</g>
</g>
<!-- Node3&#45;&gt;Node5 -->
<g id="edge4" class="edge">
<title>Node3&#45;&gt;Node5</title>
<path fill="none" stroke="midnightblue" d="M101.87,-110.09C144.75,-99.89 207.92,-84.86 247.2,-75.52"/>
<polygon fill="midnightblue" stroke="midnightblue" points="100.89,-106.72 91.97,-112.44 102.51,-113.53 100.89,-106.72"/>
</g>
<!-- Node9 -->
<g id="node9" class="node">
<title>Node9</title>
<g id="a_node9"><a xlink:href="SparseArray_8cpp.html" target="_top" xlink:title="Implementation of GenericSparseArray and SparseArray&lt;T&gt;">
<polygon fill="white" stroke="black" points="0,-56.5 0,-75.5 88,-75.5 88,-56.5 0,-56.5"/>
<text text-anchor="middle" x="44" y="-63.5" font-family="Helvetica,sans-Serif" font-size="10.00">SparseArray.cpp</text>
</a>
</g>
</g>
<!-- Node3&#45;&gt;Node9 -->
<g id="edge9" class="edge">
<title>Node3&#45;&gt;Node9</title>
<path fill="none" stroke="midnightblue" d="M51.8,-102.1C49.81,-93.14 47.52,-82.86 45.94,-75.75"/>
<polygon fill="midnightblue" stroke="midnightblue" points="48.43,-103.08 54.02,-112.08 55.27,-101.56 48.43,-103.08"/>
</g>
<!-- Node5&#45;&gt;Node4 -->
<g id="edge5" class="edge">
<title>Node5&#45;&gt;Node4</title>
<path fill="none" stroke="midnightblue" d="M253.15,-52.5C228.96,-42.38 195.54,-28.39 174.34,-19.52"/>
<polygon fill="midnightblue" stroke="midnightblue" points="251.98,-55.81 262.56,-56.44 254.69,-49.35 251.98,-55.81"/>
</g>
<!-- Node6 -->
<g id="node6" class="node">
<title>Node6</title>
<g id="a_node6"><a xlink:href="LibraryLinkError_8cpp.html" target="_top" xlink:title="Contains definitions of ErrorManager members and implementation of interface function sendRegisteredE...">
<polygon fill="white" stroke="black" points="193.5,-0.5 193.5,-19.5 296.5,-19.5 296.5,-0.5 193.5,-0.5"/>
<text text-anchor="middle" x="245" y="-7.5" font-family="Helvetica,sans-Serif" font-size="10.00">LibraryLinkError.cpp</text>
</a>
</g>
</g>
<!-- Node5&#45;&gt;Node6 -->
<g id="edge6" class="edge">
<title>Node5&#45;&gt;Node6</title>
<path fill="none" stroke="midnightblue" d="M270.94,-47.86C264.36,-38.5 256.49,-27.33 251.16,-19.75"/>
<polygon fill="midnightblue" stroke="midnightblue" points="268.11,-49.92 276.73,-56.08 273.83,-45.89 268.11,-49.92"/>
</g>
<!-- Node7 -->
<g id="node7" class="node">
<title>Node7</title>
<g id="a_node7"><a xlink:href="Logger_8cpp.html" target="_top" xlink:title="Implementation of functions defined in Logger.h.">
<polygon fill="white" stroke="black" points="315,-0.5 315,-19.5 379,-19.5 379,-0.5 315,-0.5"/>
<text text-anchor="middle" x="347" y="-7.5" font-family="Helvetica,sans-Serif" font-size="10.00">Logger.cpp</text>
</a>
</g>
</g>
<!-- Node5&#45;&gt;Node7 -->
<g id="edge7" class="edge">
<title>Node5&#45;&gt;Node7</title>
<path fill="none" stroke="midnightblue" d="M300.99,-49.82C312.46,-40.15 326.91,-27.95 336.53,-19.83"/>
<polygon fill="midnightblue" stroke="midnightblue" points="298.67,-47.2 293.28,-56.32 303.18,-52.55 298.67,-47.2"/>
</g>
<!-- Node8 -->
<g id="node8" class="node">
<title>Node8</title>
<g id="a_node8"><a xlink:href="MArgumentManager_8cpp.html" target="_top" xlink:title="Definitions of non&#45;template member functions and static data members from MArgumentManager class.">
<polygon fill="white" stroke="black" points="397,-0.5 397,-19.5 519,-19.5 519,-0.5 397,-0.5"/>
<text text-anchor="middle" x="458" y="-7.5" font-family="Helvetica,sans-Serif" font-size="10.00">MArgumentManager.cpp</text>
</a>
</g>
</g>
<!-- Node5&#45;&gt;Node8 -->
<g id="edge8" class="edge">
<title>Node5&#45;&gt;Node8</title>
<path fill="none" stroke="midnightblue" d="M320.47,-53.44C353.47,-43.26 400.76,-28.66 430.4,-19.52"/>
<polygon fill="midnightblue" stroke="midnightblue" points="319.25,-50.15 310.73,-56.44 321.32,-56.84 319.25,-50.15"/>
</g>
<!-- Node11 -->
<g id="node11" class="node">
<title>Node11</title>
<g id="a_node11"><a xlink:href="DataList_8h.html" target="_top" xlink:title="Definition of templated DataStore wrapper called DataList.">
<polygon fill="white" stroke="black" points="113,-112.5 113,-131.5 175,-131.5 175,-112.5 113,-112.5"/>
<text text-anchor="middle" x="144" y="-119.5" font-family="Helvetica,sans-Serif" font-size="10.00">DataList.h</text>
</a>
</g>
</g>
<!-- Node10&#45;&gt;Node11 -->
<g id="edge11" class="edge">
<title>Node10&#45;&gt;Node11</title>
<path fill="none" stroke="midnightblue" d="M216.17,-393.88C156.37,-383.09 74,-356.36 74,-291 74,-291 74,-291 74,-233 74,-202.05 82.13,-193.95 99,-168 108.39,-153.55 123.05,-140 133.06,-131.62"/>
<polygon fill="midnightblue" stroke="midnightblue" points="215.85,-397.38 226.3,-395.6 217.02,-390.47 215.85,-397.38"/>
</g>
<!-- Node12 -->
<g id="node12" class="node">
<title>Node12</title>
<g id="a_node12"><a xlink:href="Generic_2DataStore_8hpp.html" target="_top" xlink:title="Definition and implementation of generic DataStore wrapper.">
<polygon fill="white" stroke="black" points="232,-280.5 232,-299.5 312,-299.5 312,-280.5 232,-280.5"/>
<text text-anchor="middle" x="272" y="-287.5" font-family="Helvetica,sans-Serif" font-size="10.00">DataStore.hpp</text>
</a>
</g>
</g>
<!-- Node10&#45;&gt;Node12 -->
<g id="edge14" class="edge">
<title>Node10&#45;&gt;Node12</title>
<path fill="none" stroke="midnightblue" d="M276.15,-382.35C275.06,-358.25 273.2,-317.31 272.39,-299.59"/>
<polygon fill="midnightblue" stroke="midnightblue" points="272.66,-382.54 276.61,-392.37 279.65,-382.22 272.66,-382.54"/>
</g>
<!-- Node13 -->
<g id="node13" class="node">
<title>Node13</title>
<g id="a_node13"><a xlink:href="DataNode_8hpp.html" target="_top" xlink:title=" ">
<polygon fill="white" stroke="black" points="102,-224.5 102,-243.5 182,-243.5 182,-224.5 102,-224.5"/>
<text text-anchor="middle" x="142" y="-231.5" font-family="Helvetica,sans-Serif" font-size="10.00">DataNode.hpp</text>
</a>
</g>
</g>
<!-- Node10&#45;&gt;Node13 -->
<g id="edge21" class="edge">
<title>Node10&#45;&gt;Node13</title>
<path fill="none" stroke="midnightblue" d="M263.35,-384.21C234.93,-349.26 170.29,-269.79 148.97,-243.57"/>
<polygon fill="midnightblue" stroke="midnightblue" points="260.72,-386.53 269.74,-392.08 266.15,-382.11 260.72,-386.53"/>
</g>
<!-- Node10&#45;&gt;Node16 -->
<g id="edge25" class="edge">
<title>Node10&#45;&gt;Node16</title>
<path fill="none" stroke="midnightblue" d="M321.68,-389.16C341,-382.16 362.66,-371.55 378,-356 410.92,-322.64 424.46,-265.12 428.55,-243.52"/>
<polygon fill="midnightblue" stroke="midnightblue" points="320.47,-385.87 312.12,-392.4 322.72,-392.5 320.47,-385.87"/>
</g>
<!-- Node17 -->
<g id="node17" class="node">
<title>Node17</title>
<g id="a_node17"><a xlink:href="Iterators_2DataStore_8hpp.html" target="_top" xlink:title=" ">
<polygon fill="white" stroke="black" points="289,-336.5 289,-355.5 369,-355.5 369,-336.5 289,-336.5"/>
<text text-anchor="middle" x="329" y="-343.5" font-family="Helvetica,sans-Serif" font-size="10.00">DataStore.hpp</text>
</a>
</g>
</g>
<!-- Node10&#45;&gt;Node17 -->
<g id="edge22" class="edge">
<title>Node10&#45;&gt;Node17</title>
<path fill="none" stroke="midnightblue" d="M292.68,-384.72C301.84,-375.2 313.05,-363.56 320.57,-355.75"/>
<polygon fill="midnightblue" stroke="midnightblue" points="290,-382.45 285.59,-392.08 295.04,-387.31 290,-382.45"/>
</g>
<!-- Node11&#45;&gt;Node4 -->
<g id="edge12" class="edge">
<title>Node11&#45;&gt;Node4</title>
<path fill="none" stroke="midnightblue" d="M145.7,-102.35C147.89,-78.25 151.61,-37.31 153.22,-19.59"/>
<polygon fill="midnightblue" stroke="midnightblue" points="142.2,-102.09 144.78,-112.37 149.18,-102.73 142.2,-102.09"/>
</g>
<!-- Node11&#45;&gt;Node5 -->
<g id="edge13" class="edge">
<title>Node11&#45;&gt;Node5</title>
<path fill="none" stroke="midnightblue" d="M175.48,-108.77C201.59,-98.63 238.04,-84.47 261.08,-75.52"/>
<polygon fill="midnightblue" stroke="midnightblue" points="174.08,-105.56 166.02,-112.44 176.61,-112.08 174.08,-105.56"/>
</g>
<!-- Node12&#45;&gt;Node11 -->
<g id="edge15" class="edge">
<title>Node12&#45;&gt;Node11</title>
<path fill="none" stroke="midnightblue" d="M254.84,-273.25C246.45,-265.03 236.56,-254.5 229,-244 206.71,-213.01 211.64,-198.73 189,-168 178.65,-153.95 163.93,-140.1 154.18,-131.56"/>
<polygon fill="midnightblue" stroke="midnightblue" points="252.65,-276 262.3,-280.36 257.48,-270.93 252.65,-276"/>
</g>
<!-- Node12&#45;&gt;Node13 -->
<g id="edge16" class="edge">
<title>Node12&#45;&gt;Node13</title>
<path fill="none" stroke="midnightblue" d="M241.91,-276.5C217.54,-266.38 183.86,-252.39 162.5,-243.52"/>
<polygon fill="midnightblue" stroke="midnightblue" points="240.82,-279.84 251.4,-280.44 243.51,-273.38 240.82,-279.84"/>
</g>
<!-- Node15 -->
<g id="node15" class="node">
<title>Node15</title>
<g id="a_node15"><a xlink:href="DataStore_8cpp.html" target="_top" xlink:title=" ">
<polygon fill="white" stroke="black" points="238,-224.5 238,-243.5 318,-243.5 318,-224.5 238,-224.5"/>
<text text-anchor="middle" x="278" y="-231.5" font-family="Helvetica,sans-Serif" font-size="10.00">DataStore.cpp</text>
</a>
</g>
</g>
<!-- Node12&#45;&gt;Node15 -->
<g id="edge19" class="edge">
<title>Node12&#45;&gt;Node15</title>
<path fill="none" stroke="midnightblue" d="M274.1,-270.1C275.1,-261.14 276.24,-250.86 277.03,-243.75"/>
<polygon fill="midnightblue" stroke="midnightblue" points="270.62,-269.76 272.99,-280.08 277.57,-270.53 270.62,-269.76"/>
</g>
<!-- Node12&#45;&gt;Node16 -->
<g id="edge20" class="edge">
<title>Node12&#45;&gt;Node16</title>
<path fill="none" stroke="midnightblue" d="M306.61,-277.17C336.36,-267 378.55,-252.59 405.08,-243.52"/>
<polygon fill="midnightblue" stroke="midnightblue" points="305.37,-273.9 297.04,-280.44 307.63,-280.52 305.37,-273.9"/>
</g>
<!-- Node14 -->
<g id="node14" class="node">
<title>Node14</title>
<g id="a_node14"><a xlink:href="DataList_8hpp.html" target="_top" xlink:title="Special iterators for DataLists. Iteration over keys, values, reversed iteration.">
<polygon fill="white" stroke="black" points="108,-168.5 108,-187.5 180,-187.5 180,-168.5 108,-168.5"/>
<text text-anchor="middle" x="144" y="-175.5" font-family="Helvetica,sans-Serif" font-size="10.00">DataList.hpp</text>
</a>
</g>
</g>
<!-- Node13&#45;&gt;Node14 -->
<g id="edge17" class="edge">
<title>Node13&#45;&gt;Node14</title>
<path fill="none" stroke="midnightblue" d="M142.71,-213.8C143.04,-204.91 143.42,-194.78 143.68,-187.75"/>
<polygon fill="midnightblue" stroke="midnightblue" points="139.2,-213.96 142.33,-224.08 146.2,-214.22 139.2,-213.96"/>
</g>
<!-- Node14&#45;&gt;Node11 -->
<g id="edge18" class="edge">
<title>Node14&#45;&gt;Node11</title>
<path fill="none" stroke="midnightblue" d="M144,-157.8C144,-148.91 144,-138.78 144,-131.75"/>
<polygon fill="midnightblue" stroke="midnightblue" points="140.5,-158.08 144,-168.08 147.5,-158.08 140.5,-158.08"/>
</g>
<!-- Node17&#45;&gt;Node12 -->
<g id="edge23" class="edge">
<title>Node17&#45;&gt;Node12</title>
<path fill="none" stroke="midnightblue" d="M312.38,-329.25C302.27,-319.67 289.72,-307.79 281.32,-299.83"/>
<polygon fill="midnightblue" stroke="midnightblue" points="310.18,-331.99 319.84,-336.32 314.99,-326.91 310.18,-331.99"/>
</g>
<!-- Node17&#45;&gt;Node14 -->
<g id="edge24" class="edge">
<title>Node17&#45;&gt;Node14</title>
<path fill="none" stroke="midnightblue" d="M334.99,-326.51C342.13,-300.58 350.38,-253.32 327,-224 308.95,-201.36 228.38,-188.52 180.37,-182.74"/>
<polygon fill="midnightblue" stroke="midnightblue" points="331.6,-325.62 332.09,-336.2 338.31,-327.62 331.6,-325.62"/>
</g>
<!-- Node18&#45;&gt;Node3 -->
<g id="edge27" class="edge">
<title>Node18&#45;&gt;Node3</title>
<path fill="none" stroke="midnightblue" d="M245.28,-168.23C202.89,-158.1 133.64,-141.55 91.69,-131.53"/>
<polygon fill="midnightblue" stroke="midnightblue" points="244.65,-171.67 255.19,-170.59 246.27,-164.87 244.65,-171.67"/>
</g>
<!-- Node18&#45;&gt;Node4 -->
<g id="edge28" class="edge">
<title>Node18&#45;&gt;Node4</title>
<path fill="none" stroke="midnightblue" d="M268.71,-159.76C241.59,-124.59 180.74,-45.68 160.61,-19.57"/>
<polygon fill="midnightblue" stroke="midnightblue" points="266.24,-162.29 275.12,-168.08 271.78,-158.02 266.24,-162.29"/>
</g>
<!-- Node18&#45;&gt;Node5 -->
<g id="edge29" class="edge">
<title>Node18&#45;&gt;Node5</title>
<path fill="none" stroke="midnightblue" d="M273.76,-158.64C268.93,-145.68 264.26,-127.87 267,-112 269.26,-98.93 274.94,-84.62 278.89,-75.72"/>
<polygon fill="midnightblue" stroke="midnightblue" points="270.66,-160.31 277.7,-168.23 277.14,-157.65 270.66,-160.31"/>
</g>
<!-- Node19 -->
<g id="node19" class="node">
<title>Node19</title>
<g id="a_node19"><a xlink:href="ProgressMonitor_8h.html" target="_top" xlink:title="Definition of ProgressMonitor class.">
<polygon fill="white" stroke="black" points="358.5,-112.5 358.5,-131.5 453.5,-131.5 453.5,-112.5 358.5,-112.5"/>
<text text-anchor="middle" x="406" y="-119.5" font-family="Helvetica,sans-Serif" font-size="10.00">ProgressMonitor.h</text>
</a>
</g>
</g>
<!-- Node18&#45;&gt;Node19 -->
<g id="edge30" class="edge">
<title>Node18&#45;&gt;Node19</title>
<path fill="none" stroke="midnightblue" d="M311.01,-164.37C334.23,-154.26 366.16,-140.35 386.44,-131.52"/>
<polygon fill="midnightblue" stroke="midnightblue" points="309.42,-161.24 301.65,-168.44 312.21,-167.66 309.42,-161.24"/>
</g>
<!-- Node21 -->
<g id="node21" class="node">
<title>Node21</title>
<g id="a_node21"><a xlink:href="Tensor_8cpp.html" target="_top" xlink:title="Template specialization of certain methods from TypedTensor class for all underlying data types that ...">
<polygon fill="white" stroke="black" points="276,-112.5 276,-131.5 340,-131.5 340,-112.5 276,-112.5"/>
<text text-anchor="middle" x="308" y="-119.5" font-family="Helvetica,sans-Serif" font-size="10.00">Tensor.cpp</text>
</a>
</g>
</g>
<!-- Node18&#45;&gt;Node21 -->
<g id="edge33" class="edge">
<title>Node18&#45;&gt;Node21</title>
<path fill="none" stroke="midnightblue" d="M290.67,-158.98C295.09,-149.82 300.25,-139.09 303.79,-131.75"/>
<polygon fill="midnightblue" stroke="midnightblue" points="287.48,-157.55 286.29,-168.08 293.79,-160.59 287.48,-157.55"/>
</g>
<!-- Node19&#45;&gt;Node5 -->
<g id="edge31" class="edge">
<title>Node19&#45;&gt;Node5</title>
<path fill="none" stroke="midnightblue" d="M377.23,-108.37C354.19,-98.26 322.52,-84.35 302.4,-75.52"/>
<polygon fill="midnightblue" stroke="midnightblue" points="375.95,-111.63 386.51,-112.44 378.76,-105.22 375.95,-111.63"/>
</g>
<!-- Node20 -->
<g id="node20" class="node">
<title>Node20</title>
<g id="a_node20"><a xlink:href="ProgressMonitor_8cpp.html" target="_top" xlink:title="Implementation file for ProgressMonitor class.">
<polygon fill="white" stroke="black" points="357,-56.5 357,-75.5 463,-75.5 463,-56.5 357,-56.5"/>
<text text-anchor="middle" x="410" y="-63.5" font-family="Helvetica,sans-Serif" font-size="10.00">ProgressMonitor.cpp</text>
</a>
</g>
</g>
<!-- Node19&#45;&gt;Node20 -->
<g id="edge32" class="edge">
<title>Node19&#45;&gt;Node20</title>
<path fill="none" stroke="midnightblue" d="M407.4,-102.1C408.06,-93.14 408.83,-82.86 409.35,-75.75"/>
<polygon fill="midnightblue" stroke="midnightblue" points="403.91,-101.85 406.66,-112.08 410.89,-102.37 403.91,-101.85"/>
</g>
</g>
</svg>
