<?xml version="1.0" encoding="UTF-8" standalone="no"?>
<!DOCTYPE svg PUBLIC "-//W3C//DTD SVG 1.1//EN"
 "http://www.w3.org/Graphics/SVG/1.1/DTD/svg11.dtd">
<!-- Generated by graphviz version 2.43.0 (0)
 -->
<!-- Title: Image.hpp Pages: 1 -->
<svg width="808pt" height="476pt"
 viewBox="0.00 0.00 808.00 476.00" xmlns="http://www.w3.org/2000/svg" xmlns:xlink="http://www.w3.org/1999/xlink">
<g id="graph0" class="graph" transform="scale(1 1) rotate(0) translate(4 472)">
<title>Image.hpp</title>
<polygon fill="white" stroke="transparent" points="-4,4 -4,-472 804,-472 804,4 -4,4"/>
<!-- Node1 -->
<g id="node1" class="node">
<title>Node1</title>
<g id="a_node1"><a xlink:title="GenericImage definition and implementation.">
<polygon fill="#bfbfbf" stroke="black" points="474,-448.5 474,-467.5 536,-467.5 536,-448.5 474,-448.5"/>
<text text-anchor="middle" x="505" y="-455.5" font-family="Helvetica,sans-Serif" font-size="10.00">Image.hpp</text>
</a>
</g>
</g>
<!-- Node2 -->
<g id="node2" class="node">
<title>Node2</title>
<g id="a_node2"><a xlink:href="Image_8h.html" target="_top" xlink:title="Templated C++ wrapper for MImage.">
<polygon fill="white" stroke="black" points="254,-392.5 254,-411.5 306,-411.5 306,-392.5 254,-392.5"/>
<text text-anchor="middle" x="280" y="-399.5" font-family="Helvetica,sans-Serif" font-size="10.00">Image.h</text>
</a>
</g>
</g>
<!-- Node1&#45;&gt;Node2 -->
<g id="edge1" class="edge">
<title>Node1&#45;&gt;Node2</title>
<path fill="none" stroke="midnightblue" d="M463.77,-447.11C417.8,-436.07 344.84,-418.56 306.13,-409.27"/>
<polygon fill="midnightblue" stroke="midnightblue" points="463.17,-450.56 473.71,-449.49 464.81,-443.75 463.17,-450.56"/>
</g>
<!-- Node8 -->
<g id="node8" class="node">
<title>Node8</title>
<g id="a_node8"><a xlink:href="Image_8cpp.html" target="_top" xlink:title="Template specializations of Image::type attribute for all data types that we want to support.">
<polygon fill="white" stroke="black" points="163,-336.5 163,-355.5 225,-355.5 225,-336.5 163,-336.5"/>
<text text-anchor="middle" x="194" y="-343.5" font-family="Helvetica,sans-Serif" font-size="10.00">Image.cpp</text>
</a>
</g>
</g>
<!-- Node1&#45;&gt;Node8 -->
<g id="edge27" class="edge">
<title>Node1&#45;&gt;Node8</title>
<path fill="none" stroke="midnightblue" d="M463.71,-453.48C399.98,-447.44 281.23,-433.64 245,-412 222.1,-398.32 205.55,-370.21 198.22,-355.85"/>
<polygon fill="midnightblue" stroke="midnightblue" points="463.54,-456.98 473.82,-454.41 464.18,-450 463.54,-456.98"/>
</g>
<!-- Node9 -->
<g id="node9" class="node">
<title>Node9</title>
<g id="a_node9"><a xlink:href="Views_2Image_8hpp.html" target="_top" xlink:title="Definition and implementation of ImageView and ImageTypedView.">
<polygon fill="white" stroke="black" points="738,-280.5 738,-299.5 800,-299.5 800,-280.5 738,-280.5"/>
<text text-anchor="middle" x="769" y="-287.5" font-family="Helvetica,sans-Serif" font-size="10.00">Image.hpp</text>
</a>
</g>
</g>
<!-- Node1&#45;&gt;Node9 -->
<g id="edge9" class="edge">
<title>Node1&#45;&gt;Node9</title>
<path fill="none" stroke="midnightblue" d="M546.19,-457.72C590.32,-456.41 660.29,-448.12 707,-412 745.47,-382.26 762.17,-322.03 767.23,-299.64"/>
<polygon fill="midnightblue" stroke="midnightblue" points="546.03,-454.22 536.1,-457.91 546.17,-461.22 546.03,-454.22"/>
</g>
<!-- Node10 -->
<g id="node10" class="node">
<title>Node10</title>
<g id="a_node10"><a xlink:href="TypedMArgument_8h.html" target="_top" xlink:title=" ">
<polygon fill="white" stroke="black" points="454.5,-392.5 454.5,-411.5 555.5,-411.5 555.5,-392.5 454.5,-392.5"/>
<text text-anchor="middle" x="505" y="-399.5" font-family="Helvetica,sans-Serif" font-size="10.00">TypedMArgument.h</text>
</a>
</g>
</g>
<!-- Node1&#45;&gt;Node10 -->
<g id="edge11" class="edge">
<title>Node1&#45;&gt;Node10</title>
<path fill="none" stroke="midnightblue" d="M505,-437.8C505,-428.91 505,-418.78 505,-411.75"/>
<polygon fill="midnightblue" stroke="midnightblue" points="501.5,-438.08 505,-448.08 508.5,-438.08 501.5,-438.08"/>
</g>
<!-- Node16 -->
<g id="node16" class="node">
<title>Node16</title>
<g id="a_node16"><a xlink:href="TypedMArgument_8cpp.html" target="_top" xlink:title=" ">
<polygon fill="white" stroke="black" points="642,-224.5 642,-243.5 754,-243.5 754,-224.5 642,-224.5"/>
<text text-anchor="middle" x="698" y="-231.5" font-family="Helvetica,sans-Serif" font-size="10.00">TypedMArgument.cpp</text>
</a>
</g>
</g>
<!-- Node1&#45;&gt;Node16 -->
<g id="edge28" class="edge">
<title>Node1&#45;&gt;Node16</title>
<path fill="none" stroke="midnightblue" d="M527.21,-442.61C539.07,-434.38 553.55,-423.44 565,-412 622.65,-354.41 676.03,-270.82 692.67,-243.78"/>
<polygon fill="midnightblue" stroke="midnightblue" points="525.06,-439.84 518.74,-448.34 528.98,-445.64 525.06,-439.84"/>
</g>
<!-- Node3 -->
<g id="node3" class="node">
<title>Node3</title>
<g id="a_node3"><a xlink:href="LLU_8h.html" target="_top" xlink:title="Header file which includes all major parts of LLU.">
<polygon fill="white" stroke="black" points="344.5,-0.5 344.5,-19.5 387.5,-19.5 387.5,-0.5 344.5,-0.5"/>
<text text-anchor="middle" x="366" y="-7.5" font-family="Helvetica,sans-Serif" font-size="10.00">LLU.h</text>
</a>
</g>
</g>
<!-- Node2&#45;&gt;Node3 -->
<g id="edge2" class="edge">
<title>Node2&#45;&gt;Node3</title>
<path fill="none" stroke="midnightblue" d="M283.02,-382.31C286.27,-360.47 291,-323.21 291,-291 291,-291 291,-291 291,-121 291,-76.39 333.63,-36.52 354.61,-19.6"/>
<polygon fill="midnightblue" stroke="midnightblue" points="279.51,-382.05 281.44,-392.47 286.43,-383.13 279.51,-382.05"/>
</g>
<!-- Node4 -->
<g id="node4" class="node">
<title>Node4</title>
<g id="a_node4"><a xlink:href="MArgumentManager_8h.html" target="_top" xlink:title="Definition of MArgumentManager class.">
<polygon fill="white" stroke="black" points="151,-56.5 151,-75.5 263,-75.5 263,-56.5 151,-56.5"/>
<text text-anchor="middle" x="207" y="-63.5" font-family="Helvetica,sans-Serif" font-size="10.00">MArgumentManager.h</text>
</a>
</g>
</g>
<!-- Node2&#45;&gt;Node4 -->
<g id="edge3" class="edge">
<title>Node2&#45;&gt;Node4</title>
<path fill="none" stroke="midnightblue" d="M272.7,-382.86C264.7,-361.32 253,-324.14 253,-291 253,-291 253,-291 253,-177 253,-136.43 226.04,-93.5 213.4,-75.61"/>
<polygon fill="midnightblue" stroke="midnightblue" points="269.49,-384.27 276.36,-392.34 276.02,-381.75 269.49,-384.27"/>
</g>
<!-- Node2&#45;&gt;Node8 -->
<g id="edge8" class="edge">
<title>Node2&#45;&gt;Node8</title>
<path fill="none" stroke="midnightblue" d="M257.55,-386.9C241.78,-377 221.19,-364.07 207.78,-355.65"/>
<polygon fill="midnightblue" stroke="midnightblue" points="255.85,-389.97 266.18,-392.32 259.57,-384.04 255.85,-389.97"/>
</g>
<!-- Node4&#45;&gt;Node3 -->
<g id="edge4" class="edge">
<title>Node4&#45;&gt;Node3</title>
<path fill="none" stroke="midnightblue" d="M241.84,-53.17C273.15,-42.53 318.14,-27.25 344.49,-18.3"/>
<polygon fill="midnightblue" stroke="midnightblue" points="240.54,-49.91 232.19,-56.44 242.79,-56.54 240.54,-49.91"/>
</g>
<!-- Node5 -->
<g id="node5" class="node">
<title>Node5</title>
<g id="a_node5"><a xlink:href="LibraryLinkError_8cpp.html" target="_top" xlink:title="Contains definitions of ErrorManager members and implementation of interface function sendRegisteredE...">
<polygon fill="white" stroke="black" points="140.5,-0.5 140.5,-19.5 243.5,-19.5 243.5,-0.5 140.5,-0.5"/>
<text text-anchor="middle" x="192" y="-7.5" font-family="Helvetica,sans-Serif" font-size="10.00">LibraryLinkError.cpp</text>
</a>
</g>
</g>
<!-- Node4&#45;&gt;Node5 -->
<g id="edge5" class="edge">
<title>Node4&#45;&gt;Node5</title>
<path fill="none" stroke="midnightblue" d="M201.83,-46.4C199.32,-37.36 196.43,-26.94 194.43,-19.75"/>
<polygon fill="midnightblue" stroke="midnightblue" points="198.47,-47.38 204.52,-56.08 205.22,-45.51 198.47,-47.38"/>
</g>
<!-- Node6 -->
<g id="node6" class="node">
<title>Node6</title>
<g id="a_node6"><a xlink:href="Logger_8cpp.html" target="_top" xlink:title="Implementation of functions defined in Logger.h.">
<polygon fill="white" stroke="black" points="262,-0.5 262,-19.5 326,-19.5 326,-0.5 262,-0.5"/>
<text text-anchor="middle" x="294" y="-7.5" font-family="Helvetica,sans-Serif" font-size="10.00">Logger.cpp</text>
</a>
</g>
</g>
<!-- Node4&#45;&gt;Node6 -->
<g id="edge6" class="edge">
<title>Node4&#45;&gt;Node6</title>
<path fill="none" stroke="midnightblue" d="M229.72,-50.9C245.67,-41 266.5,-28.07 280.06,-19.65"/>
<polygon fill="midnightblue" stroke="midnightblue" points="227.63,-48.08 220.98,-56.32 231.32,-54.02 227.63,-48.08"/>
</g>
<!-- Node7 -->
<g id="node7" class="node">
<title>Node7</title>
<g id="a_node7"><a xlink:href="MArgumentManager_8cpp.html" target="_top" xlink:title="Definitions of non&#45;template member functions and static data members from MArgumentManager class.">
<polygon fill="white" stroke="black" points="0,-0.5 0,-19.5 122,-19.5 122,-0.5 0,-0.5"/>
<text text-anchor="middle" x="61" y="-7.5" font-family="Helvetica,sans-Serif" font-size="10.00">MArgumentManager.cpp</text>
</a>
</g>
</g>
<!-- Node4&#45;&gt;Node7 -->
<g id="edge7" class="edge">
<title>Node4&#45;&gt;Node7</title>
<path fill="none" stroke="midnightblue" d="M174.3,-52.91C146.85,-42.75 108.33,-28.51 84.03,-19.52"/>
<polygon fill="midnightblue" stroke="midnightblue" points="173.27,-56.26 183.87,-56.44 175.7,-49.69 173.27,-56.26"/>
</g>
<!-- Node9&#45;&gt;Node3 -->
<g id="edge10" class="edge">
<title>Node9&#45;&gt;Node3</title>
<path fill="none" stroke="midnightblue" d="M772.51,-270.63C776.36,-248.85 782,-211.42 782,-179 782,-179 782,-179 782,-121 782,-38.64 473.38,-16.55 387.78,-12.01"/>
<polygon fill="midnightblue" stroke="midnightblue" points="769.07,-270.01 770.7,-280.48 775.95,-271.28 769.07,-270.01"/>
</g>
<!-- Node11 -->
<g id="node11" class="node">
<title>Node11</title>
<g id="a_node11"><a xlink:href="DataList_8h.html" target="_top" xlink:title="Definition of templated DataStore wrapper called DataList.">
<polygon fill="white" stroke="black" points="335,-112.5 335,-131.5 397,-131.5 397,-112.5 335,-112.5"/>
<text text-anchor="middle" x="366" y="-119.5" font-family="Helvetica,sans-Serif" font-size="10.00">DataList.h</text>
</a>
</g>
</g>
<!-- Node10&#45;&gt;Node11 -->
<g id="edge12" class="edge">
<title>Node10&#45;&gt;Node11</title>
<path fill="none" stroke="midnightblue" d="M447.2,-389.97C395.9,-376.43 329,-347.87 329,-291 329,-291 329,-291 329,-233 329,-193.31 350.91,-149.56 361.01,-131.51"/>
<polygon fill="midnightblue" stroke="midnightblue" points="446.36,-393.36 456.91,-392.4 448.06,-386.57 446.36,-393.36"/>
</g>
<!-- Node12 -->
<g id="node12" class="node">
<title>Node12</title>
<g id="a_node12"><a xlink:href="Generic_2DataStore_8hpp.html" target="_top" xlink:title="Definition and implementation of generic DataStore wrapper.">
<polygon fill="white" stroke="black" points="450,-280.5 450,-299.5 530,-299.5 530,-280.5 450,-280.5"/>
<text text-anchor="middle" x="490" y="-287.5" font-family="Helvetica,sans-Serif" font-size="10.00">DataStore.hpp</text>
</a>
</g>
</g>
<!-- Node10&#45;&gt;Node12 -->
<g id="edge15" class="edge">
<title>Node10&#45;&gt;Node12</title>
<path fill="none" stroke="midnightblue" d="M502.46,-382.35C499.17,-358.25 493.59,-317.31 491.17,-299.59"/>
<polygon fill="midnightblue" stroke="midnightblue" points="499,-382.93 503.82,-392.37 505.94,-381.99 499,-382.93"/>
</g>
<!-- Node13 -->
<g id="node13" class="node">
<title>Node13</title>
<g id="a_node13"><a xlink:href="DataNode_8hpp.html" target="_top" xlink:title=" ">
<polygon fill="white" stroke="black" points="544,-224.5 544,-243.5 624,-243.5 624,-224.5 544,-224.5"/>
<text text-anchor="middle" x="584" y="-231.5" font-family="Helvetica,sans-Serif" font-size="10.00">DataNode.hpp</text>
</a>
</g>
</g>
<!-- Node10&#45;&gt;Node13 -->
<g id="edge22" class="edge">
<title>Node10&#45;&gt;Node13</title>
<path fill="none" stroke="midnightblue" d="M513.63,-382.86C530.58,-347.25 567.6,-269.45 579.92,-243.57"/>
<polygon fill="midnightblue" stroke="midnightblue" points="510.38,-381.54 509.25,-392.08 516.71,-384.55 510.38,-381.54"/>
</g>
<!-- Node10&#45;&gt;Node16 -->
<g id="edge26" class="edge">
<title>Node10&#45;&gt;Node16</title>
<path fill="none" stroke="midnightblue" d="M523.17,-385.37C563.05,-351.07 657.13,-270.16 688,-243.61"/>
<polygon fill="midnightblue" stroke="midnightblue" points="520.4,-383.13 515.1,-392.31 524.97,-388.44 520.4,-383.13"/>
</g>
<!-- Node17 -->
<g id="node17" class="node">
<title>Node17</title>
<g id="a_node17"><a xlink:href="Iterators_2DataStore_8hpp.html" target="_top" xlink:title=" ">
<polygon fill="white" stroke="black" points="397,-336.5 397,-355.5 477,-355.5 477,-336.5 397,-336.5"/>
<text text-anchor="middle" x="437" y="-343.5" font-family="Helvetica,sans-Serif" font-size="10.00">DataStore.hpp</text>
</a>
</g>
</g>
<!-- Node10&#45;&gt;Node17 -->
<g id="edge23" class="edge">
<title>Node10&#45;&gt;Node17</title>
<path fill="none" stroke="midnightblue" d="M486.24,-386.1C474,-376.38 458.44,-364.03 448.12,-355.83"/>
<polygon fill="midnightblue" stroke="midnightblue" points="484.07,-388.85 494.07,-392.32 488.42,-383.36 484.07,-388.85"/>
</g>
<!-- Node11&#45;&gt;Node3 -->
<g id="edge13" class="edge">
<title>Node11&#45;&gt;Node3</title>
<path fill="none" stroke="midnightblue" d="M366,-102.35C366,-78.25 366,-37.31 366,-19.59"/>
<polygon fill="midnightblue" stroke="midnightblue" points="362.5,-102.37 366,-112.37 369.5,-102.37 362.5,-102.37"/>
</g>
<!-- Node11&#45;&gt;Node4 -->
<g id="edge14" class="edge">
<title>Node11&#45;&gt;Node4</title>
<path fill="none" stroke="midnightblue" d="M331.17,-109.17C301.23,-99 258.78,-84.59 232.08,-75.52"/>
<polygon fill="midnightblue" stroke="midnightblue" points="330.21,-112.54 340.81,-112.44 332.46,-105.91 330.21,-112.54"/>
</g>
<!-- Node12&#45;&gt;Node11 -->
<g id="edge16" class="edge">
<title>Node12&#45;&gt;Node11</title>
<path fill="none" stroke="midnightblue" d="M465.28,-274.9C454.47,-267.28 442.92,-256.79 437,-244 422.81,-213.34 454.38,-197.55 438,-168 428.14,-150.21 407.99,-138.52 391.5,-131.53"/>
<polygon fill="midnightblue" stroke="midnightblue" points="463.38,-277.84 473.67,-280.39 467.21,-271.98 463.38,-277.84"/>
</g>
<!-- Node12&#45;&gt;Node13 -->
<g id="edge17" class="edge">
<title>Node12&#45;&gt;Node13</title>
<path fill="none" stroke="midnightblue" d="M514.06,-275.18C531.36,-265.24 554.15,-252.15 568.93,-243.65"/>
<polygon fill="midnightblue" stroke="midnightblue" points="512.03,-272.31 505.1,-280.32 515.52,-278.38 512.03,-272.31"/>
</g>
<!-- Node15 -->
<g id="node15" class="node">
<title>Node15</title>
<g id="a_node15"><a xlink:href="DataStore_8cpp.html" target="_top" xlink:title=" ">
<polygon fill="white" stroke="black" points="446,-224.5 446,-243.5 526,-243.5 526,-224.5 446,-224.5"/>
<text text-anchor="middle" x="486" y="-231.5" font-family="Helvetica,sans-Serif" font-size="10.00">DataStore.cpp</text>
</a>
</g>
</g>
<!-- Node12&#45;&gt;Node15 -->
<g id="edge20" class="edge">
<title>Node12&#45;&gt;Node15</title>
<path fill="none" stroke="midnightblue" d="M488.6,-270.1C487.94,-261.14 487.17,-250.86 486.65,-243.75"/>
<polygon fill="midnightblue" stroke="midnightblue" points="485.11,-270.37 489.34,-280.08 492.09,-269.85 485.11,-270.37"/>
</g>
<!-- Node12&#45;&gt;Node16 -->
<g id="edge21" class="edge">
<title>Node12&#45;&gt;Node16</title>
<path fill="none" stroke="midnightblue" d="M532.78,-277.89C572.06,-267.7 629.43,-252.8 665.2,-243.52"/>
<polygon fill="midnightblue" stroke="midnightblue" points="531.76,-274.54 522.96,-280.44 533.52,-281.32 531.76,-274.54"/>
</g>
<!-- Node14 -->
<g id="node14" class="node">
<title>Node14</title>
<g id="a_node14"><a xlink:href="DataList_8hpp.html" target="_top" xlink:title="Special iterators for DataLists. Iteration over keys, values, reversed iteration.">
<polygon fill="white" stroke="black" points="357,-168.5 357,-187.5 429,-187.5 429,-168.5 357,-168.5"/>
<text text-anchor="middle" x="393" y="-175.5" font-family="Helvetica,sans-Serif" font-size="10.00">DataList.hpp</text>
</a>
</g>
</g>
<!-- Node13&#45;&gt;Node14 -->
<g id="edge18" class="edge">
<title>Node13&#45;&gt;Node14</title>
<path fill="none" stroke="midnightblue" d="M544.03,-221.7C507.98,-211.51 455.76,-196.74 423.12,-187.52"/>
<polygon fill="midnightblue" stroke="midnightblue" points="543.16,-225.09 553.74,-224.44 545.06,-218.35 543.16,-225.09"/>
</g>
<!-- Node14&#45;&gt;Node11 -->
<g id="edge19" class="edge">
<title>Node14&#45;&gt;Node11</title>
<path fill="none" stroke="midnightblue" d="M383.99,-158.98C379.41,-149.82 374.05,-139.09 370.38,-131.75"/>
<polygon fill="midnightblue" stroke="midnightblue" points="380.94,-160.7 388.54,-168.08 387.2,-157.57 380.94,-160.7"/>
</g>
<!-- Node17&#45;&gt;Node12 -->
<g id="edge24" class="edge">
<title>Node17&#45;&gt;Node12</title>
<path fill="none" stroke="midnightblue" d="M452.98,-328.72C462.32,-319.2 473.75,-307.56 481.41,-299.75"/>
<polygon fill="midnightblue" stroke="midnightblue" points="450.26,-326.49 445.75,-336.08 455.25,-331.4 450.26,-326.49"/>
</g>
<!-- Node17&#45;&gt;Node14 -->
<g id="edge25" class="edge">
<title>Node17&#45;&gt;Node14</title>
<path fill="none" stroke="midnightblue" d="M430.26,-327.1C422.93,-307.09 411.3,-273.61 404,-244 399.12,-224.22 395.71,-200.52 394.08,-187.92"/>
<polygon fill="midnightblue" stroke="midnightblue" points="426.98,-328.32 433.74,-336.48 433.54,-325.89 426.98,-328.32"/>
</g>
</g>
</svg>
