<?xml version="1.0" encoding="UTF-8" standalone="no"?>
<!DOCTYPE svg PUBLIC "-//W3C//DTD SVG 1.1//EN"
 "http://www.w3.org/Graphics/SVG/1.1/DTD/svg11.dtd">
<!-- Generated by graphviz version 2.43.0 (0)
 -->
<!-- Title: NumericArray.hpp Pages: 1 -->
<svg width="608pt" height="476pt"
 viewBox="0.00 0.00 608.00 476.00" xmlns="http://www.w3.org/2000/svg" xmlns:xlink="http://www.w3.org/1999/xlink">
<g id="graph0" class="graph" transform="scale(1 1) rotate(0) translate(4 472)">
<title>NumericArray.hpp</title>
<polygon fill="white" stroke="transparent" points="-4,4 -4,-472 604,-472 604,4 -4,4"/>
<!-- Node1 -->
<g id="node1" class="node">
<title>Node1</title>
<g id="a_node1"><a xlink:title="GenericNumericArray definition and implementation.">
<polygon fill="#bfbfbf" stroke="black" points="393,-448.5 393,-467.5 487,-467.5 487,-448.5 393,-448.5"/>
<text text-anchor="middle" x="440" y="-455.5" font-family="Helvetica,sans-Serif" font-size="10.00">NumericArray.hpp</text>
</a>
</g>
</g>
<!-- Node2 -->
<g id="node2" class="node">
<title>Node2</title>
<g id="a_node2"><a xlink:href="NumericArray_8h.html" target="_top" xlink:title="Templated C++ wrapper for MNumericArray.">
<polygon fill="white" stroke="black" points="398.5,-112.5 398.5,-131.5 481.5,-131.5 481.5,-112.5 398.5,-112.5"/>
<text text-anchor="middle" x="440" y="-119.5" font-family="Helvetica,sans-Serif" font-size="10.00">NumericArray.h</text>
</a>
</g>
</g>
<!-- Node1&#45;&gt;Node2 -->
<g id="edge1" class="edge">
<title>Node1&#45;&gt;Node2</title>
<path fill="none" stroke="midnightblue" d="M440,-438.25C440,-416.36 440,-379.05 440,-347 440,-347 440,-347 440,-233 440,-195.19 440,-150.06 440,-131.56"/>
<polygon fill="midnightblue" stroke="midnightblue" points="436.5,-438.44 440,-448.44 443.5,-438.44 436.5,-438.44"/>
</g>
<!-- Node8 -->
<g id="node8" class="node">
<title>Node8</title>
<g id="a_node8"><a xlink:href="Views_2NumericArray_8hpp.html" target="_top" xlink:title="Definition and implementation of NumericArrayView and NumericArrayTypedView.">
<polygon fill="white" stroke="black" points="468,-336.5 468,-355.5 562,-355.5 562,-336.5 468,-336.5"/>
<text text-anchor="middle" x="515" y="-343.5" font-family="Helvetica,sans-Serif" font-size="10.00">NumericArray.hpp</text>
</a>
</g>
</g>
<!-- Node1&#45;&gt;Node8 -->
<g id="edge8" class="edge">
<title>Node1&#45;&gt;Node8</title>
<path fill="none" stroke="midnightblue" d="M451.62,-439.96C467.87,-416.12 496.79,-373.71 509.14,-355.59"/>
<polygon fill="midnightblue" stroke="midnightblue" points="448.63,-438.13 445.89,-448.37 454.41,-442.08 448.63,-438.13"/>
</g>
<!-- Node9 -->
<g id="node9" class="node">
<title>Node9</title>
<g id="a_node9"><a xlink:href="TypedMArgument_8h.html" target="_top" xlink:title=" ">
<polygon fill="white" stroke="black" points="219.5,-392.5 219.5,-411.5 320.5,-411.5 320.5,-392.5 219.5,-392.5"/>
<text text-anchor="middle" x="270" y="-399.5" font-family="Helvetica,sans-Serif" font-size="10.00">TypedMArgument.h</text>
</a>
</g>
</g>
<!-- Node1&#45;&gt;Node9 -->
<g id="edge10" class="edge">
<title>Node1&#45;&gt;Node9</title>
<path fill="none" stroke="midnightblue" d="M403.18,-445.3C371.15,-435.13 325.48,-420.62 296.81,-411.52"/>
<polygon fill="midnightblue" stroke="midnightblue" points="402.47,-448.75 413.06,-448.44 404.59,-442.08 402.47,-448.75"/>
</g>
<!-- Node15 -->
<g id="node15" class="node">
<title>Node15</title>
<g id="a_node15"><a xlink:href="TypedMArgument_8cpp.html" target="_top" xlink:title=" ">
<polygon fill="white" stroke="black" points="28,-224.5 28,-243.5 140,-243.5 140,-224.5 28,-224.5"/>
<text text-anchor="middle" x="84" y="-231.5" font-family="Helvetica,sans-Serif" font-size="10.00">TypedMArgument.cpp</text>
</a>
</g>
</g>
<!-- Node1&#45;&gt;Node15 -->
<g id="edge27" class="edge">
<title>Node1&#45;&gt;Node15</title>
<path fill="none" stroke="midnightblue" d="M382.42,-457.33C333.04,-455.06 261.88,-445.45 210,-412 141.84,-368.05 99.3,-273.08 87.42,-243.78"/>
<polygon fill="midnightblue" stroke="midnightblue" points="382.48,-460.84 392.61,-457.71 382.74,-453.84 382.48,-460.84"/>
</g>
<!-- Node17 -->
<g id="node17" class="node">
<title>Node17</title>
<g id="a_node17"><a xlink:href="NumericArray_8cpp.html" target="_top" xlink:title="Definitions of MContainer&lt;MArgumentType::NumericArray&gt; (GenericNumericArray) methods.">
<polygon fill="white" stroke="black" points="506,-392.5 506,-411.5 600,-411.5 600,-392.5 506,-392.5"/>
<text text-anchor="middle" x="553" y="-399.5" font-family="Helvetica,sans-Serif" font-size="10.00">NumericArray.cpp</text>
</a>
</g>
</g>
<!-- Node1&#45;&gt;Node17 -->
<g id="edge26" class="edge">
<title>Node1&#45;&gt;Node17</title>
<path fill="none" stroke="midnightblue" d="M467,-444.1C488.11,-434.01 516.86,-420.27 535.18,-411.52"/>
<polygon fill="midnightblue" stroke="midnightblue" points="465.42,-440.97 457.91,-448.44 468.44,-447.29 465.42,-440.97"/>
</g>
<!-- Node3 -->
<g id="node3" class="node">
<title>Node3</title>
<g id="a_node3"><a xlink:href="LLU_8h.html" target="_top" xlink:title="Header file which includes all major parts of LLU.">
<polygon fill="white" stroke="black" points="426.5,-0.5 426.5,-19.5 469.5,-19.5 469.5,-0.5 426.5,-0.5"/>
<text text-anchor="middle" x="448" y="-7.5" font-family="Helvetica,sans-Serif" font-size="10.00">LLU.h</text>
</a>
</g>
</g>
<!-- Node2&#45;&gt;Node3 -->
<g id="edge2" class="edge">
<title>Node2&#45;&gt;Node3</title>
<path fill="none" stroke="midnightblue" d="M441.36,-102.35C443.11,-78.25 446.09,-37.31 447.38,-19.59"/>
<polygon fill="midnightblue" stroke="midnightblue" points="437.86,-102.14 440.63,-112.37 444.84,-102.65 437.86,-102.14"/>
</g>
<!-- Node4 -->
<g id="node4" class="node">
<title>Node4</title>
<g id="a_node4"><a xlink:href="MArgumentManager_8h.html" target="_top" xlink:title="Definition of MArgumentManager class.">
<polygon fill="white" stroke="black" points="270,-56.5 270,-75.5 382,-75.5 382,-56.5 270,-56.5"/>
<text text-anchor="middle" x="326" y="-63.5" font-family="Helvetica,sans-Serif" font-size="10.00">MArgumentManager.h</text>
</a>
</g>
</g>
<!-- Node2&#45;&gt;Node4 -->
<g id="edge3" class="edge">
<title>Node2&#45;&gt;Node4</title>
<path fill="none" stroke="midnightblue" d="M412.76,-108.1C391.46,-98.01 362.46,-84.27 343.98,-75.52"/>
<polygon fill="midnightblue" stroke="midnightblue" points="411.4,-111.33 421.94,-112.44 414.4,-105 411.4,-111.33"/>
</g>
<!-- Node4&#45;&gt;Node3 -->
<g id="edge4" class="edge">
<title>Node4&#45;&gt;Node3</title>
<path fill="none" stroke="midnightblue" d="M354.54,-52.37C377.39,-42.26 408.81,-28.35 428.76,-19.52"/>
<polygon fill="midnightblue" stroke="midnightblue" points="353.06,-49.2 345.33,-56.44 355.89,-55.6 353.06,-49.2"/>
</g>
<!-- Node5 -->
<g id="node5" class="node">
<title>Node5</title>
<g id="a_node5"><a xlink:href="LibraryLinkError_8cpp.html" target="_top" xlink:title="Contains definitions of ErrorManager members and implementation of interface function sendRegisteredE...">
<polygon fill="white" stroke="black" points="222.5,-0.5 222.5,-19.5 325.5,-19.5 325.5,-0.5 222.5,-0.5"/>
<text text-anchor="middle" x="274" y="-7.5" font-family="Helvetica,sans-Serif" font-size="10.00">LibraryLinkError.cpp</text>
</a>
</g>
</g>
<!-- Node4&#45;&gt;Node5 -->
<g id="edge5" class="edge">
<title>Node4&#45;&gt;Node5</title>
<path fill="none" stroke="midnightblue" d="M310.32,-48.72C301.16,-39.2 289.95,-27.56 282.43,-19.75"/>
<polygon fill="midnightblue" stroke="midnightblue" points="307.96,-51.31 317.41,-56.08 313,-46.45 307.96,-51.31"/>
</g>
<!-- Node6 -->
<g id="node6" class="node">
<title>Node6</title>
<g id="a_node6"><a xlink:href="Logger_8cpp.html" target="_top" xlink:title="Implementation of functions defined in Logger.h.">
<polygon fill="white" stroke="black" points="344,-0.5 344,-19.5 408,-19.5 408,-0.5 344,-0.5"/>
<text text-anchor="middle" x="376" y="-7.5" font-family="Helvetica,sans-Serif" font-size="10.00">Logger.cpp</text>
</a>
</g>
</g>
<!-- Node4&#45;&gt;Node6 -->
<g id="edge6" class="edge">
<title>Node4&#45;&gt;Node6</title>
<path fill="none" stroke="midnightblue" d="M341.08,-48.72C349.89,-39.2 360.67,-27.56 367.9,-19.75"/>
<polygon fill="midnightblue" stroke="midnightblue" points="338.48,-46.37 334.26,-56.08 343.62,-51.12 338.48,-46.37"/>
</g>
<!-- Node7 -->
<g id="node7" class="node">
<title>Node7</title>
<g id="a_node7"><a xlink:href="MArgumentManager_8cpp.html" target="_top" xlink:title="Definitions of non&#45;template member functions and static data members from MArgumentManager class.">
<polygon fill="white" stroke="black" points="82,-0.5 82,-19.5 204,-19.5 204,-0.5 82,-0.5"/>
<text text-anchor="middle" x="143" y="-7.5" font-family="Helvetica,sans-Serif" font-size="10.00">MArgumentManager.cpp</text>
</a>
</g>
</g>
<!-- Node4&#45;&gt;Node7 -->
<g id="edge7" class="edge">
<title>Node4&#45;&gt;Node7</title>
<path fill="none" stroke="midnightblue" d="M287.26,-53.57C252.74,-43.38 202.99,-28.7 171.86,-19.52"/>
<polygon fill="midnightblue" stroke="midnightblue" points="286.42,-56.97 297,-56.44 288.4,-50.26 286.42,-56.97"/>
</g>
<!-- Node8&#45;&gt;Node3 -->
<g id="edge9" class="edge">
<title>Node8&#45;&gt;Node3</title>
<path fill="none" stroke="midnightblue" d="M514.18,-326.26C513.29,-304.37 512,-267.06 512,-235 512,-235 512,-235 512,-121 512,-78.14 475.25,-37.07 457.44,-19.69"/>
<polygon fill="midnightblue" stroke="midnightblue" points="510.69,-326.6 514.61,-336.44 517.68,-326.31 510.69,-326.6"/>
</g>
<!-- Node10 -->
<g id="node10" class="node">
<title>Node10</title>
<g id="a_node10"><a xlink:href="DataList_8h.html" target="_top" xlink:title="Definition of templated DataStore wrapper called DataList.">
<polygon fill="white" stroke="black" points="295,-112.5 295,-131.5 357,-131.5 357,-112.5 295,-112.5"/>
<text text-anchor="middle" x="326" y="-119.5" font-family="Helvetica,sans-Serif" font-size="10.00">DataList.h</text>
</a>
</g>
</g>
<!-- Node9&#45;&gt;Node10 -->
<g id="edge11" class="edge">
<title>Node9&#45;&gt;Node10</title>
<path fill="none" stroke="midnightblue" d="M215.46,-390.31C136.58,-373.26 0,-337.08 0,-291 0,-291 0,-291 0,-233 0,-171.18 213.15,-137.41 294.74,-126.75"/>
<polygon fill="midnightblue" stroke="midnightblue" points="215.21,-393.83 225.72,-392.49 216.66,-386.98 215.21,-393.83"/>
</g>
<!-- Node11 -->
<g id="node11" class="node">
<title>Node11</title>
<g id="a_node11"><a xlink:href="Generic_2DataStore_8hpp.html" target="_top" xlink:title="Definition and implementation of generic DataStore wrapper.">
<polygon fill="white" stroke="black" points="196,-280.5 196,-299.5 276,-299.5 276,-280.5 196,-280.5"/>
<text text-anchor="middle" x="236" y="-287.5" font-family="Helvetica,sans-Serif" font-size="10.00">DataStore.hpp</text>
</a>
</g>
</g>
<!-- Node9&#45;&gt;Node11 -->
<g id="edge14" class="edge">
<title>Node9&#45;&gt;Node11</title>
<path fill="none" stroke="midnightblue" d="M264.34,-382.67C256.9,-358.62 244.16,-317.39 238.66,-299.59"/>
<polygon fill="midnightblue" stroke="midnightblue" points="261.04,-383.85 267.33,-392.37 267.72,-381.78 261.04,-383.85"/>
</g>
<!-- Node12 -->
<g id="node12" class="node">
<title>Node12</title>
<g id="a_node12"><a xlink:href="DataNode_8hpp.html" target="_top" xlink:title=" ">
<polygon fill="white" stroke="black" points="294,-224.5 294,-243.5 374,-243.5 374,-224.5 294,-224.5"/>
<text text-anchor="middle" x="334" y="-231.5" font-family="Helvetica,sans-Serif" font-size="10.00">DataNode.hpp</text>
</a>
</g>
</g>
<!-- Node9&#45;&gt;Node12 -->
<g id="edge21" class="edge">
<title>Node9&#45;&gt;Node12</title>
<path fill="none" stroke="midnightblue" d="M277.17,-382.39C290.98,-346.59 320.76,-269.34 330.7,-243.57"/>
<polygon fill="midnightblue" stroke="midnightblue" points="273.77,-381.49 273.44,-392.08 280.3,-384 273.77,-381.49"/>
</g>
<!-- Node9&#45;&gt;Node15 -->
<g id="edge25" class="edge">
<title>Node9&#45;&gt;Node15</title>
<path fill="none" stroke="midnightblue" d="M252.49,-385.37C214.06,-351.07 123.39,-270.16 93.64,-243.61"/>
<polygon fill="midnightblue" stroke="midnightblue" points="250.47,-388.26 260.26,-392.31 255.13,-383.04 250.47,-388.26"/>
</g>
<!-- Node16 -->
<g id="node16" class="node">
<title>Node16</title>
<g id="a_node16"><a xlink:href="Iterators_2DataStore_8hpp.html" target="_top" xlink:title=" ">
<polygon fill="white" stroke="black" points="332,-336.5 332,-355.5 412,-355.5 412,-336.5 332,-336.5"/>
<text text-anchor="middle" x="372" y="-343.5" font-family="Helvetica,sans-Serif" font-size="10.00">DataStore.hpp</text>
</a>
</g>
</g>
<!-- Node9&#45;&gt;Node16 -->
<g id="edge22" class="edge">
<title>Node9&#45;&gt;Node16</title>
<path fill="none" stroke="midnightblue" d="M295.33,-387.59C314.19,-377.61 339.38,-364.27 355.65,-355.65"/>
<polygon fill="midnightblue" stroke="midnightblue" points="293.59,-384.55 286.39,-392.32 296.86,-390.74 293.59,-384.55"/>
</g>
<!-- Node10&#45;&gt;Node3 -->
<g id="edge12" class="edge">
<title>Node10&#45;&gt;Node3</title>
<path fill="none" stroke="midnightblue" d="M349.17,-106.94C362.06,-98.65 378.06,-87.54 391,-76 411.39,-57.82 431.6,-32.64 441.58,-19.6"/>
<polygon fill="midnightblue" stroke="midnightblue" points="347.03,-104.16 340.43,-112.45 350.76,-110.08 347.03,-104.16"/>
</g>
<!-- Node10&#45;&gt;Node4 -->
<g id="edge13" class="edge">
<title>Node10&#45;&gt;Node4</title>
<path fill="none" stroke="midnightblue" d="M326,-101.8C326,-92.91 326,-82.78 326,-75.75"/>
<polygon fill="midnightblue" stroke="midnightblue" points="322.5,-102.08 326,-112.08 329.5,-102.08 322.5,-102.08"/>
</g>
<!-- Node11&#45;&gt;Node10 -->
<g id="edge15" class="edge">
<title>Node11&#45;&gt;Node10</title>
<path fill="none" stroke="midnightblue" d="M212.76,-274.48C195.82,-261.93 177.38,-242.87 187,-224 211.51,-175.89 270.85,-145.32 303.51,-131.54"/>
<polygon fill="midnightblue" stroke="midnightblue" points="211.11,-277.6 221.33,-280.42 215.1,-271.84 211.11,-277.6"/>
</g>
<!-- Node11&#45;&gt;Node12 -->
<g id="edge16" class="edge">
<title>Node11&#45;&gt;Node12</title>
<path fill="none" stroke="midnightblue" d="M260.59,-275.45C278.68,-265.48 302.73,-252.23 318.29,-243.65"/>
<polygon fill="midnightblue" stroke="midnightblue" points="258.81,-272.43 251.75,-280.32 262.19,-278.56 258.81,-272.43"/>
</g>
<!-- Node14 -->
<g id="node14" class="node">
<title>Node14</title>
<g id="a_node14"><a xlink:href="DataStore_8cpp.html" target="_top" xlink:title=" ">
<polygon fill="white" stroke="black" points="196,-224.5 196,-243.5 276,-243.5 276,-224.5 196,-224.5"/>
<text text-anchor="middle" x="236" y="-231.5" font-family="Helvetica,sans-Serif" font-size="10.00">DataStore.cpp</text>
</a>
</g>
</g>
<!-- Node11&#45;&gt;Node14 -->
<g id="edge19" class="edge">
<title>Node11&#45;&gt;Node14</title>
<path fill="none" stroke="midnightblue" d="M236,-269.8C236,-260.91 236,-250.78 236,-243.75"/>
<polygon fill="midnightblue" stroke="midnightblue" points="232.5,-270.08 236,-280.08 239.5,-270.08 232.5,-270.08"/>
</g>
<!-- Node11&#45;&gt;Node15 -->
<g id="edge20" class="edge">
<title>Node11&#45;&gt;Node15</title>
<path fill="none" stroke="midnightblue" d="M202.33,-277.04C173.73,-266.88 133.39,-252.55 107.97,-243.52"/>
<polygon fill="midnightblue" stroke="midnightblue" points="201.32,-280.39 211.92,-280.44 203.66,-273.8 201.32,-280.39"/>
</g>
<!-- Node13 -->
<g id="node13" class="node">
<title>Node13</title>
<g id="a_node13"><a xlink:href="DataList_8hpp.html" target="_top" xlink:title="Special iterators for DataLists. Iteration over keys, values, reversed iteration.">
<polygon fill="white" stroke="black" points="298,-168.5 298,-187.5 370,-187.5 370,-168.5 298,-168.5"/>
<text text-anchor="middle" x="334" y="-175.5" font-family="Helvetica,sans-Serif" font-size="10.00">DataList.hpp</text>
</a>
</g>
</g>
<!-- Node12&#45;&gt;Node13 -->
<g id="edge17" class="edge">
<title>Node12&#45;&gt;Node13</title>
<path fill="none" stroke="midnightblue" d="M334,-213.8C334,-204.91 334,-194.78 334,-187.75"/>
<polygon fill="midnightblue" stroke="midnightblue" points="330.5,-214.08 334,-224.08 337.5,-214.08 330.5,-214.08"/>
</g>
<!-- Node13&#45;&gt;Node10 -->
<g id="edge18" class="edge">
<title>Node13&#45;&gt;Node10</title>
<path fill="none" stroke="midnightblue" d="M331.2,-158.1C329.87,-149.14 328.35,-138.86 327.3,-131.75"/>
<polygon fill="midnightblue" stroke="midnightblue" points="327.75,-158.7 332.68,-168.08 334.68,-157.68 327.75,-158.7"/>
</g>
<!-- Node16&#45;&gt;Node11 -->
<g id="edge23" class="edge">
<title>Node16&#45;&gt;Node11</title>
<path fill="none" stroke="midnightblue" d="M340.87,-332.64C315.34,-322.5 279.89,-308.43 257.45,-299.52"/>
<polygon fill="midnightblue" stroke="midnightblue" points="339.86,-336.01 350.45,-336.44 342.45,-329.5 339.86,-336.01"/>
</g>
<!-- Node16&#45;&gt;Node13 -->
<g id="edge24" class="edge">
<title>Node16&#45;&gt;Node13</title>
<path fill="none" stroke="midnightblue" d="M378.93,-326.88C387.14,-302.41 397.93,-257.98 383,-224 376.03,-208.14 360.41,-195.42 348.66,-187.6"/>
<polygon fill="midnightblue" stroke="midnightblue" points="375.62,-325.73 375.55,-336.33 382.21,-328.09 375.62,-325.73"/>
</g>
</g>
</svg>
