<?xml version="1.0" encoding="UTF-8" standalone="no"?>
<!DOCTYPE svg PUBLIC "-//W3C//DTD SVG 1.1//EN"
 "http://www.w3.org/Graphics/SVG/1.1/DTD/svg11.dtd">
<!-- Generated by graphviz version 2.43.0 (0)
 -->
<!-- Title: Tensor.hpp Pages: 1 -->
<svg width="1919pt" height="554pt"
 viewBox="0.00 0.00 1918.50 554.00" xmlns="http://www.w3.org/2000/svg" xmlns:xlink="http://www.w3.org/1999/xlink">
<g id="graph0" class="graph" transform="scale(1 1) rotate(0) translate(4 550)">
<title>Tensor.hpp</title>
<polygon fill="white" stroke="transparent" points="-4,4 -4,-550 1914.5,-550 1914.5,4 -4,4"/>
<!-- Node1 -->
<g id="node1" class="node">
<title>Node1</title>
<g id="a_node1"><a xlink:title="GenericTensor definition and implementation.">
<polygon fill="#bfbfbf" stroke="black" points="308.5,-526.5 308.5,-545.5 372.5,-545.5 372.5,-526.5 308.5,-526.5"/>
<text text-anchor="middle" x="340.5" y="-533.5" font-family="Helvetica,sans-Serif" font-size="10.00">Tensor.hpp</text>
</a>
</g>
</g>
<!-- Node2 -->
<g id="node2" class="node">
<title>Node2</title>
<g id="a_node2"><a xlink:href="Base_8hpp.html" target="_top" xlink:title="Definitions of MContainerBase and MContainer class templates.">
<polygon fill="white" stroke="black" points="347.5,-459.5 347.5,-489.5 469.5,-489.5 469.5,-459.5 347.5,-459.5"/>
<text text-anchor="start" x="355.5" y="-477.5" font-family="Helvetica,sans-Serif" font-size="10.00">LLU/Containers/Generic</text>
<text text-anchor="middle" x="408.5" y="-466.5" font-family="Helvetica,sans-Serif" font-size="10.00">/Base.hpp</text>
</a>
</g>
</g>
<!-- Node1&#45;&gt;Node2 -->
<g id="edge1" class="edge">
<title>Node1&#45;&gt;Node2</title>
<path fill="none" stroke="midnightblue" d="M350.24,-526.48C359.19,-518.64 372.83,-506.71 384.65,-496.37"/>
<polygon fill="midnightblue" stroke="midnightblue" points="387.25,-498.74 392.47,-489.52 382.64,-493.47 387.25,-498.74"/>
</g>
<!-- Node41 -->
<g id="node41" class="node">
<title>Node41</title>
<g id="a_node41"><a xlink:href="Interfaces_8h.html" target="_top" xlink:title=" ">
<polygon fill="white" stroke="black" points="183.5,-403.5 183.5,-422.5 323.5,-422.5 323.5,-403.5 183.5,-403.5"/>
<text text-anchor="middle" x="253.5" y="-410.5" font-family="Helvetica,sans-Serif" font-size="10.00">LLU/Containers/Interfaces.h</text>
</a>
</g>
</g>
<!-- Node1&#45;&gt;Node41 -->
<g id="edge90" class="edge">
<title>Node1&#45;&gt;Node41</title>
<path fill="none" stroke="midnightblue" d="M334.24,-526.3C319.88,-506.33 284.36,-456.92 265.58,-430.8"/>
<polygon fill="midnightblue" stroke="midnightblue" points="268.38,-428.7 259.7,-422.62 262.7,-432.79 268.38,-428.7"/>
</g>
<!-- Node3 -->
<g id="node3" class="node">
<title>Node3</title>
<g id="a_node3"><a xlink:title=" ">
<polygon fill="white" stroke="#bfbfbf" points="711.5,-56.5 711.5,-75.5 773.5,-75.5 773.5,-56.5 711.5,-56.5"/>
<text text-anchor="middle" x="742.5" y="-63.5" font-family="Helvetica,sans-Serif" font-size="10.00">type_traits</text>
</a>
</g>
</g>
<!-- Node2&#45;&gt;Node3 -->
<g id="edge2" class="edge">
<title>Node2&#45;&gt;Node3</title>
<path fill="none" stroke="midnightblue" d="M436.68,-459.34C470.44,-440.14 522.5,-402.43 522.5,-352.5 522.5,-352.5 522.5,-352.5 522.5,-177 522.5,-97.92 637.63,-75.69 701.32,-69.44"/>
<polygon fill="midnightblue" stroke="midnightblue" points="701.8,-72.91 711.45,-68.54 701.17,-65.94 701.8,-72.91"/>
</g>
<!-- Node4 -->
<g id="node4" class="node">
<title>Node4</title>
<g id="a_node4"><a xlink:href="ErrorManager_8h.html" target="_top" xlink:title="Definition of the ErrorManager class responsible for error registration and throwing.">
<polygon fill="white" stroke="black" points="646,-403.5 646,-422.5 789,-422.5 789,-403.5 646,-403.5"/>
<text text-anchor="middle" x="717.5" y="-410.5" font-family="Helvetica,sans-Serif" font-size="10.00">LLU/ErrorLog/ErrorManager.h</text>
</a>
</g>
</g>
<!-- Node2&#45;&gt;Node4 -->
<g id="edge3" class="edge">
<title>Node2&#45;&gt;Node4</title>
<path fill="none" stroke="midnightblue" d="M469.55,-461.74C525.89,-450.9 608.8,-434.93 662.97,-424.5"/>
<polygon fill="midnightblue" stroke="midnightblue" points="663.91,-427.88 673.07,-422.56 662.59,-421.01 663.91,-427.88"/>
</g>
<!-- Node19 -->
<g id="node19" class="node">
<title>Node19</title>
<g id="a_node19"><a xlink:href="Utilities_8hpp.html" target="_top" xlink:title="Short but generally useful functions.">
<polygon fill="white" stroke="black" points="844,-112.5 844,-131.5 933,-131.5 933,-112.5 844,-112.5"/>
<text text-anchor="middle" x="888.5" y="-119.5" font-family="Helvetica,sans-Serif" font-size="10.00">LLU/Utilities.hpp</text>
</a>
</g>
</g>
<!-- Node2&#45;&gt;Node19 -->
<g id="edge87" class="edge">
<title>Node2&#45;&gt;Node19</title>
<path fill="none" stroke="midnightblue" d="M469.56,-473.64C620.38,-472.54 1003.82,-460.41 1080.5,-367 1089.24,-356.35 1085.96,-348.65 1080.5,-336 1061.5,-291.98 952.69,-226.04 923.5,-188 912.19,-173.25 902.46,-154.35 896.15,-140.74"/>
<polygon fill="midnightblue" stroke="midnightblue" points="899.3,-139.21 892.02,-131.51 892.91,-142.07 899.3,-139.21"/>
</g>
<!-- Node23 -->
<g id="node23" class="node">
<title>Node23</title>
<g id="a_node23"><a xlink:href="LibraryData_8h.html" target="_top" xlink:title=" ">
<polygon fill="white" stroke="black" points="398.5,-56.5 398.5,-75.5 494.5,-75.5 494.5,-56.5 398.5,-56.5"/>
<text text-anchor="middle" x="446.5" y="-63.5" font-family="Helvetica,sans-Serif" font-size="10.00">LLU/LibraryData.h</text>
</a>
</g>
</g>
<!-- Node2&#45;&gt;Node23 -->
<g id="edge81" class="edge">
<title>Node2&#45;&gt;Node23</title>
<path fill="none" stroke="midnightblue" d="M400.65,-459.48C381.24,-423.43 332.5,-324.09 332.5,-235 332.5,-235 332.5,-235 332.5,-177 332.5,-130.11 383.05,-96.89 416.83,-79.93"/>
<polygon fill="midnightblue" stroke="midnightblue" points="418.37,-83.07 425.86,-75.58 415.33,-76.77 418.37,-83.07"/>
</g>
<!-- Node40 -->
<g id="node40" class="node">
<title>Node40</title>
<g id="a_node40"><a xlink:href="MArgument_8h.html" target="_top" xlink:title="Template class and utilities to work with MArgument in type&#45;safe manner.">
<polygon fill="white" stroke="black" points="398.5,-168.5 398.5,-187.5 494.5,-187.5 494.5,-168.5 398.5,-168.5"/>
<text text-anchor="middle" x="446.5" y="-175.5" font-family="Helvetica,sans-Serif" font-size="10.00">LLU/MArgument.h</text>
</a>
</g>
</g>
<!-- Node2&#45;&gt;Node40 -->
<g id="edge82" class="edge">
<title>Node2&#45;&gt;Node40</title>
<path fill="none" stroke="midnightblue" d="M408.5,-459.34C408.5,-436.75 408.5,-391.15 408.5,-352.5 408.5,-352.5 408.5,-352.5 408.5,-289 408.5,-254.81 425.1,-217.76 436.36,-196.57"/>
<polygon fill="midnightblue" stroke="midnightblue" points="439.45,-198.22 441.22,-187.77 433.32,-194.83 439.45,-198.22"/>
</g>
<!-- Node2&#45;&gt;Node41 -->
<g id="edge88" class="edge">
<title>Node2&#45;&gt;Node41</title>
<path fill="none" stroke="midnightblue" d="M371.77,-459.4C345.53,-449.33 310.57,-435.91 285.48,-426.28"/>
<polygon fill="midnightblue" stroke="midnightblue" points="286.64,-422.97 276.05,-422.66 284.14,-429.51 286.64,-422.97"/>
</g>
<!-- Node5 -->
<g id="node5" class="node">
<title>Node5</title>
<g id="a_node5"><a xlink:title=" ">
<polygon fill="white" stroke="#bfbfbf" points="588.5,-168.5 588.5,-187.5 644.5,-187.5 644.5,-168.5 588.5,-168.5"/>
<text text-anchor="middle" x="616.5" y="-175.5" font-family="Helvetica,sans-Serif" font-size="10.00">algorithm</text>
</a>
</g>
</g>
<!-- Node4&#45;&gt;Node5 -->
<g id="edge4" class="edge">
<title>Node4&#45;&gt;Node5</title>
<path fill="none" stroke="midnightblue" d="M716.03,-403.36C713.44,-389.05 707.49,-359.65 698.5,-336 678.27,-282.77 644.41,-224.41 627.21,-196.18"/>
<polygon fill="midnightblue" stroke="midnightblue" points="630.1,-194.19 621.88,-187.51 624.14,-197.86 630.1,-194.19"/>
</g>
<!-- Node6 -->
<g id="node6" class="node">
<title>Node6</title>
<g id="a_node6"><a xlink:title=" ">
<polygon fill="white" stroke="#bfbfbf" points="998,-342 998,-361 1071,-361 1071,-342 998,-342"/>
<text text-anchor="middle" x="1034.5" y="-349" font-family="Helvetica,sans-Serif" font-size="10.00">initializer_list</text>
</a>
</g>
</g>
<!-- Node4&#45;&gt;Node6 -->
<g id="edge5" class="edge">
<title>Node4&#45;&gt;Node6</title>
<path fill="none" stroke="midnightblue" d="M786.25,-403.49C841.58,-395.95 921.12,-383.58 989.5,-367 992.96,-366.16 996.53,-365.19 1000.08,-364.16"/>
<polygon fill="midnightblue" stroke="midnightblue" points="1001.4,-367.42 1009.93,-361.14 999.34,-360.73 1001.4,-367.42"/>
</g>
<!-- Node7 -->
<g id="node7" class="node">
<title>Node7</title>
<g id="a_node7"><a xlink:title=" ">
<polygon fill="white" stroke="#bfbfbf" points="1654,-56.5 1654,-75.5 1695,-75.5 1695,-56.5 1654,-56.5"/>
<text text-anchor="middle" x="1674.5" y="-63.5" font-family="Helvetica,sans-Serif" font-size="10.00">string</text>
</a>
</g>
</g>
<!-- Node4&#45;&gt;Node7 -->
<g id="edge6" class="edge">
<title>Node4&#45;&gt;Node7</title>
<path fill="none" stroke="midnightblue" d="M789.31,-405.91C986.63,-388.19 1532.72,-332.26 1687.5,-244 1747.5,-209.79 1806.43,-170.36 1769.5,-112 1755.43,-89.77 1727.08,-78.3 1704.99,-72.53"/>
<polygon fill="midnightblue" stroke="midnightblue" points="1705.59,-69.08 1695.05,-70.2 1703.99,-75.89 1705.59,-69.08"/>
</g>
<!-- Node8 -->
<g id="node8" class="node">
<title>Node8</title>
<g id="a_node8"><a xlink:title=" ">
<polygon fill="white" stroke="#bfbfbf" points="606,-342 606,-361 689,-361 689,-342 606,-342"/>
<text text-anchor="middle" x="647.5" y="-349" font-family="Helvetica,sans-Serif" font-size="10.00">unordered_map</text>
</a>
</g>
</g>
<!-- Node4&#45;&gt;Node8 -->
<g id="edge7" class="edge">
<title>Node4&#45;&gt;Node8</title>
<path fill="none" stroke="midnightblue" d="M707.47,-403.48C696.45,-394.11 678.54,-378.88 665.16,-367.51"/>
<polygon fill="midnightblue" stroke="midnightblue" points="667.4,-364.82 657.51,-361.01 662.86,-370.15 667.4,-364.82"/>
</g>
<!-- Node9 -->
<g id="node9" class="node">
<title>Node9</title>
<g id="a_node9"><a xlink:title=" ">
<polygon fill="white" stroke="#bfbfbf" points="1354.5,-56.5 1354.5,-75.5 1394.5,-75.5 1394.5,-56.5 1354.5,-56.5"/>
<text text-anchor="middle" x="1374.5" y="-63.5" font-family="Helvetica,sans-Serif" font-size="10.00">utility</text>
</a>
</g>
</g>
<!-- Node4&#45;&gt;Node9 -->
<g id="edge8" class="edge">
<title>Node4&#45;&gt;Node9</title>
<path fill="none" stroke="midnightblue" d="M789.44,-412.29C1047.37,-412.41 1910.5,-404.33 1910.5,-291 1910.5,-291 1910.5,-291 1910.5,-177 1910.5,-72.9 1517.6,-66.42 1404.57,-66.71"/>
<polygon fill="midnightblue" stroke="midnightblue" points="1404.52,-63.21 1394.53,-66.76 1404.55,-70.21 1404.52,-63.21"/>
</g>
<!-- Node10 -->
<g id="node10" class="node">
<title>Node10</title>
<g id="a_node10"><a xlink:title=" ">
<polygon fill="white" stroke="#bfbfbf" points="550.5,-224.5 550.5,-243.5 594.5,-243.5 594.5,-224.5 550.5,-224.5"/>
<text text-anchor="middle" x="572.5" y="-231.5" font-family="Helvetica,sans-Serif" font-size="10.00">vector</text>
</a>
</g>
</g>
<!-- Node4&#45;&gt;Node10 -->
<g id="edge9" class="edge">
<title>Node4&#45;&gt;Node10</title>
<path fill="none" stroke="midnightblue" d="M661.85,-403.49C638.74,-397.16 613.62,-386.15 597.5,-367 570.18,-334.53 569.06,-281.55 570.71,-253.6"/>
<polygon fill="midnightblue" stroke="midnightblue" points="574.2,-253.84 571.48,-243.6 567.22,-253.3 574.2,-253.84"/>
</g>
<!-- Node11 -->
<g id="node11" class="node">
<title>Node11</title>
<g id="a_node11"><a xlink:href="LibraryLinkError_8h.html" target="_top" xlink:title="Error class and error codes used by LibraryLink Utilities classes.">
<polygon fill="white" stroke="black" points="855,-336.5 855,-366.5 980,-366.5 980,-336.5 855,-336.5"/>
<text text-anchor="start" x="863" y="-354.5" font-family="Helvetica,sans-Serif" font-size="10.00">LLU/ErrorLog/LibraryLink</text>
<text text-anchor="middle" x="917.5" y="-343.5" font-family="Helvetica,sans-Serif" font-size="10.00">Error.h</text>
</a>
</g>
</g>
<!-- Node4&#45;&gt;Node11 -->
<g id="edge10" class="edge">
<title>Node4&#45;&gt;Node11</title>
<path fill="none" stroke="midnightblue" d="M746.16,-403.48C775.9,-394.63 823.22,-380.55 860.6,-369.43"/>
<polygon fill="midnightblue" stroke="midnightblue" points="861.78,-372.73 870.36,-366.52 859.78,-366.02 861.78,-372.73"/>
</g>
<!-- Node4&#45;&gt;Node23 -->
<g id="edge80" class="edge">
<title>Node4&#45;&gt;Node23</title>
<path fill="none" stroke="midnightblue" d="M645.6,-406.84C543.96,-395.2 370.5,-357.41 370.5,-235 370.5,-235 370.5,-235 370.5,-177 370.5,-137.28 404.46,-101.5 426.98,-82.15"/>
<polygon fill="midnightblue" stroke="midnightblue" points="429.48,-84.63 434.96,-75.57 425.02,-79.24 429.48,-84.63"/>
</g>
<!-- Node11&#45;&gt;Node7 -->
<g id="edge12" class="edge">
<title>Node11&#45;&gt;Node7</title>
<path fill="none" stroke="midnightblue" d="M980.29,-337.62C983.4,-337.06 986.48,-336.51 989.5,-336 1283.23,-286.12 1377.18,-355.4 1653.5,-244 1715.67,-218.94 1741.02,-197.66 1754.5,-132 1756.29,-123.29 1758.99,-119.67 1754.5,-112 1743.78,-93.66 1722.53,-82.22 1704.62,-75.46"/>
<polygon fill="midnightblue" stroke="midnightblue" points="1705.7,-72.13 1695.11,-72.18 1703.42,-78.75 1705.7,-72.13"/>
</g>
<!-- Node12 -->
<g id="node12" class="node">
<title>Node12</title>
<g id="a_node12"><a xlink:title=" ">
<polygon fill="white" stroke="#bfbfbf" points="888,-280.5 888,-299.5 947,-299.5 947,-280.5 888,-280.5"/>
<text text-anchor="middle" x="917.5" y="-287.5" font-family="Helvetica,sans-Serif" font-size="10.00">stdexcept</text>
</a>
</g>
</g>
<!-- Node11&#45;&gt;Node12 -->
<g id="edge11" class="edge">
<title>Node11&#45;&gt;Node12</title>
<path fill="none" stroke="midnightblue" d="M917.5,-336.4C917.5,-328.47 917.5,-318.46 917.5,-309.86"/>
<polygon fill="midnightblue" stroke="midnightblue" points="921,-309.66 917.5,-299.66 914,-309.66 921,-309.66"/>
</g>
<!-- Node13 -->
<g id="node13" class="node">
<title>Node13</title>
<g id="a_node13"><a xlink:href="WSStream_8hpp.html" target="_top" xlink:title="Header file for WSStream class.">
<polygon fill="white" stroke="black" points="1068,-280.5 1068,-299.5 1205,-299.5 1205,-280.5 1068,-280.5"/>
<text text-anchor="middle" x="1136.5" y="-287.5" font-family="Helvetica,sans-Serif" font-size="10.00">LLU/WSTP/WSStream.hpp</text>
</a>
</g>
</g>
<!-- Node11&#45;&gt;Node13 -->
<g id="edge13" class="edge">
<title>Node11&#45;&gt;Node13</title>
<path fill="none" stroke="midnightblue" d="M969.12,-336.47C1007.56,-326.03 1059.36,-311.96 1095.1,-302.25"/>
<polygon fill="midnightblue" stroke="midnightblue" points="1096.46,-305.51 1105.19,-299.51 1094.62,-298.75 1096.46,-305.51"/>
</g>
<!-- Node13&#45;&gt;Node3 -->
<g id="edge18" class="edge">
<title>Node13&#45;&gt;Node3</title>
<path fill="none" stroke="midnightblue" d="M1067.74,-286.22C987.03,-281.83 849.57,-270.83 734.5,-244 663.17,-227.37 621.58,-247.95 579.5,-188 542.46,-135.24 641.57,-96.1 701.18,-78.05"/>
<polygon fill="midnightblue" stroke="midnightblue" points="702.49,-81.32 711.09,-75.13 700.51,-74.6 702.49,-81.32"/>
</g>
<!-- Node13&#45;&gt;Node5 -->
<g id="edge14" class="edge">
<title>Node13&#45;&gt;Node5</title>
<path fill="none" stroke="midnightblue" d="M1067.97,-284.28C998.73,-278.5 889.06,-266.56 796.5,-244 767.68,-236.97 691.47,-208.12 648.02,-191.31"/>
<polygon fill="midnightblue" stroke="midnightblue" points="649.08,-187.97 638.5,-187.62 646.55,-194.5 649.08,-187.97"/>
</g>
<!-- Node13&#45;&gt;Node9 -->
<g id="edge19" class="edge">
<title>Node13&#45;&gt;Node9</title>
<path fill="none" stroke="midnightblue" d="M1205.42,-286.97C1319.68,-282.86 1543.01,-271.5 1616.5,-244 1685.74,-218.09 1714.95,-201.74 1739.5,-132 1742.45,-123.62 1745.39,-118.66 1739.5,-112 1717.42,-87.03 1488.44,-72.85 1404.84,-68.48"/>
<polygon fill="midnightblue" stroke="midnightblue" points="1404.88,-64.97 1394.72,-67.96 1404.52,-71.96 1404.88,-64.97"/>
</g>
<!-- Node13&#45;&gt;Node10 -->
<g id="edge20" class="edge">
<title>Node13&#45;&gt;Node10</title>
<path fill="none" stroke="midnightblue" d="M1067.95,-284.53C945.77,-276.33 695.05,-258.41 608.5,-244 607.25,-243.79 605.98,-243.56 604.7,-243.32"/>
<polygon fill="midnightblue" stroke="midnightblue" points="605.37,-239.88 594.85,-241.18 603.88,-246.72 605.37,-239.88"/>
</g>
<!-- Node14 -->
<g id="node14" class="node">
<title>Node14</title>
<g id="a_node14"><a xlink:title=" ">
<polygon fill="white" stroke="#bfbfbf" points="1382,-224.5 1382,-243.5 1429,-243.5 1429,-224.5 1382,-224.5"/>
<text text-anchor="middle" x="1405.5" y="-231.5" font-family="Helvetica,sans-Serif" font-size="10.00">iterator</text>
</a>
</g>
</g>
<!-- Node13&#45;&gt;Node14 -->
<g id="edge15" class="edge">
<title>Node13&#45;&gt;Node14</title>
<path fill="none" stroke="midnightblue" d="M1187.38,-280.48C1233.18,-272.54 1302.53,-259.87 1371.97,-243.97"/>
<polygon fill="midnightblue" stroke="midnightblue" points="1372.81,-247.37 1381.76,-241.71 1371.23,-240.55 1372.81,-247.37"/>
</g>
<!-- Node15 -->
<g id="node15" class="node">
<title>Node15</title>
<g id="a_node15"><a xlink:title=" ">
<polygon fill="white" stroke="#bfbfbf" points="1447,-224.5 1447,-243.5 1482,-243.5 1482,-224.5 1447,-224.5"/>
<text text-anchor="middle" x="1464.5" y="-231.5" font-family="Helvetica,sans-Serif" font-size="10.00">map</text>
</a>
</g>
</g>
<!-- Node13&#45;&gt;Node15 -->
<g id="edge16" class="edge">
<title>Node13&#45;&gt;Node15</title>
<path fill="none" stroke="midnightblue" d="M1205.27,-282.43C1264.65,-275.91 1352.77,-264.26 1437.01,-244.02"/>
<polygon fill="midnightblue" stroke="midnightblue" points="1437.85,-247.42 1446.73,-241.64 1436.18,-240.62 1437.85,-247.42"/>
</g>
<!-- Node16 -->
<g id="node16" class="node">
<title>Node16</title>
<g id="a_node16"><a xlink:title=" ">
<polygon fill="white" stroke="#bfbfbf" points="1500,-224.5 1500,-243.5 1541,-243.5 1541,-224.5 1500,-224.5"/>
<text text-anchor="middle" x="1520.5" y="-231.5" font-family="Helvetica,sans-Serif" font-size="10.00">stack</text>
</a>
</g>
</g>
<!-- Node13&#45;&gt;Node16 -->
<g id="edge17" class="edge">
<title>Node13&#45;&gt;Node16</title>
<path fill="none" stroke="midnightblue" d="M1205.16,-283.88C1274.86,-277.87 1385.93,-266.09 1489.69,-244.09"/>
<polygon fill="midnightblue" stroke="midnightblue" points="1490.67,-247.46 1499.71,-241.93 1489.19,-240.62 1490.67,-247.46"/>
</g>
<!-- Node17 -->
<g id="node17" class="node">
<title>Node17</title>
<g id="a_node17"><a xlink:title=" ">
<polygon fill="white" stroke="#bfbfbf" points="1040.5,-0.5 1040.5,-19.5 1086.5,-19.5 1086.5,-0.5 1040.5,-0.5"/>
<text text-anchor="middle" x="1063.5" y="-7.5" font-family="Helvetica,sans-Serif" font-size="10.00">wstp.h</text>
</a>
</g>
</g>
<!-- Node13&#45;&gt;Node17 -->
<g id="edge21" class="edge">
<title>Node13&#45;&gt;Node17</title>
<path fill="none" stroke="midnightblue" d="M1089.42,-280.42C1066.41,-273.98 1039.99,-262.9 1022.5,-244 1001.97,-221.82 1002.5,-209.23 1002.5,-179 1002.5,-179 1002.5,-179 1002.5,-121 1002.5,-83.57 1029.84,-46.96 1047.91,-26.84"/>
<polygon fill="midnightblue" stroke="midnightblue" points="1050.49,-29.21 1054.76,-19.51 1045.38,-24.43 1050.49,-29.21"/>
</g>
<!-- Node18 -->
<g id="node18" class="node">
<title>Node18</title>
<g id="a_node18"><a xlink:href="Errors_8h.html" target="_top" xlink:title="Definitions of error names and error codes used across LLU.">
<polygon fill="white" stroke="black" points="1618.5,-112.5 1618.5,-131.5 1730.5,-131.5 1730.5,-112.5 1618.5,-112.5"/>
<text text-anchor="middle" x="1674.5" y="-119.5" font-family="Helvetica,sans-Serif" font-size="10.00">LLU/ErrorLog/Errors.h</text>
</a>
</g>
</g>
<!-- Node13&#45;&gt;Node18 -->
<g id="edge22" class="edge">
<title>Node13&#45;&gt;Node18</title>
<path fill="none" stroke="midnightblue" d="M1205.35,-289.32C1291.5,-288.03 1442.75,-280.12 1566.5,-244 1619.92,-228.41 1649.24,-235.34 1678.5,-188 1687.04,-174.19 1684.74,-155.42 1681.07,-141.6"/>
<polygon fill="midnightblue" stroke="midnightblue" points="1684.33,-140.28 1678.02,-131.77 1677.64,-142.35 1684.33,-140.28"/>
</g>
<!-- Node13&#45;&gt;Node19 -->
<g id="edge24" class="edge">
<title>Node13&#45;&gt;Node19</title>
<path fill="none" stroke="midnightblue" d="M1091.52,-280.45C1061.15,-273.47 1020.85,-261.81 988.5,-244 955.09,-225.61 947.38,-217.73 923.5,-188 911.86,-173.51 902.17,-154.58 895.97,-140.88"/>
<polygon fill="midnightblue" stroke="midnightblue" points="899.12,-139.37 891.92,-131.6 892.7,-142.16 899.12,-139.37"/>
</g>
<!-- Node31 -->
<g id="node31" class="node">
<title>Node31</title>
<g id="a_node31"><a xlink:href="Get_8h.html" target="_top" xlink:title="Header file with classes related to reading data from WSTP.">
<polygon fill="white" stroke="black" points="1269.5,-224.5 1269.5,-243.5 1363.5,-243.5 1363.5,-224.5 1269.5,-224.5"/>
<text text-anchor="middle" x="1316.5" y="-231.5" font-family="Helvetica,sans-Serif" font-size="10.00">LLU/WSTP/Get.h</text>
</a>
</g>
</g>
<!-- Node13&#45;&gt;Node31 -->
<g id="edge39" class="edge">
<title>Node13&#45;&gt;Node31</title>
<path fill="none" stroke="midnightblue" d="M1165.02,-280.44C1195.57,-271.28 1244.21,-256.69 1278.1,-246.52"/>
<polygon fill="midnightblue" stroke="midnightblue" points="1279.54,-249.74 1288.11,-243.52 1277.53,-243.04 1279.54,-249.74"/>
</g>
<!-- Node34 -->
<g id="node34" class="node">
<title>Node34</title>
<g id="a_node34"><a xlink:href="WSTP_2Utilities_8h.html" target="_top" xlink:title="Header file with miscellaneous utilities used throughout the WSTP&#45;related part of LibraryLinkUtilitie...">
<polygon fill="white" stroke="black" points="1467,-168.5 1467,-187.5 1578,-187.5 1578,-168.5 1467,-168.5"/>
<text text-anchor="middle" x="1522.5" y="-175.5" font-family="Helvetica,sans-Serif" font-size="10.00">LLU/WSTP/Utilities.h</text>
</a>
</g>
</g>
<!-- Node13&#45;&gt;Node34 -->
<g id="edge75" class="edge">
<title>Node13&#45;&gt;Node34</title>
<path fill="none" stroke="midnightblue" d="M1205.15,-286.46C1316.87,-281.61 1527.9,-269.19 1550.5,-244 1563.12,-229.93 1550.47,-209.3 1538.36,-195.08"/>
<polygon fill="midnightblue" stroke="midnightblue" points="1540.81,-192.57 1531.48,-187.54 1535.63,-197.29 1540.81,-192.57"/>
</g>
<!-- Node37 -->
<g id="node37" class="node">
<title>Node37</title>
<g id="a_node37"><a xlink:href="Put_8h.html" target="_top" xlink:title="Header file with classes related to sending data through WSTP.">
<polygon fill="white" stroke="black" points="1031,-224.5 1031,-243.5 1124,-243.5 1124,-224.5 1031,-224.5"/>
<text text-anchor="middle" x="1077.5" y="-231.5" font-family="Helvetica,sans-Serif" font-size="10.00">LLU/WSTP/Put.h</text>
</a>
</g>
</g>
<!-- Node13&#45;&gt;Node37 -->
<g id="edge60" class="edge">
<title>Node13&#45;&gt;Node37</title>
<path fill="none" stroke="midnightblue" d="M1127.02,-280.32C1118.3,-272.34 1105.16,-260.31 1094.6,-250.65"/>
<polygon fill="midnightblue" stroke="midnightblue" points="1096.89,-248 1087.15,-243.83 1092.17,-253.17 1096.89,-248"/>
</g>
<!-- Node38 -->
<g id="node38" class="node">
<title>Node38</title>
<g id="a_node38"><a xlink:href="Strings_8h.html" target="_top" xlink:title="Definitions of multiple structures and type aliases related to string handling in WSTP.">
<polygon fill="white" stroke="black" points="1142,-224.5 1142,-243.5 1251,-243.5 1251,-224.5 1142,-224.5"/>
<text text-anchor="middle" x="1196.5" y="-231.5" font-family="Helvetica,sans-Serif" font-size="10.00">LLU/WSTP/Strings.h</text>
</a>
</g>
</g>
<!-- Node13&#45;&gt;Node38 -->
<g id="edge66" class="edge">
<title>Node13&#45;&gt;Node38</title>
<path fill="none" stroke="midnightblue" d="M1146.14,-280.32C1155.01,-272.34 1168.37,-260.31 1179.11,-250.65"/>
<polygon fill="midnightblue" stroke="midnightblue" points="1181.59,-253.13 1186.68,-243.83 1176.91,-247.92 1181.59,-253.13"/>
</g>
<!-- Node39 -->
<g id="node39" class="node">
<title>Node39</title>
<g id="a_node39"><a xlink:href="UtilityTypeTraits_8hpp.html" target="_top" xlink:title="Type traits used by WSStream to identify types supported by WSTP.">
<polygon fill="white" stroke="black" points="662.5,-168.5 662.5,-187.5 822.5,-187.5 822.5,-168.5 662.5,-168.5"/>
<text text-anchor="middle" x="742.5" y="-175.5" font-family="Helvetica,sans-Serif" font-size="10.00">LLU/WSTP/UtilityTypeTraits.hpp</text>
</a>
</g>
</g>
<!-- Node13&#45;&gt;Node39 -->
<g id="edge76" class="edge">
<title>Node13&#45;&gt;Node39</title>
<path fill="none" stroke="midnightblue" d="M1067.79,-287.5C1005.46,-284.11 912.03,-273.9 836.5,-244 806.85,-232.26 777.39,-209.65 759.55,-194.44"/>
<polygon fill="midnightblue" stroke="midnightblue" points="761.62,-191.59 751.79,-187.64 757.01,-196.86 761.62,-191.59"/>
</g>
<!-- Node18&#45;&gt;Node7 -->
<g id="edge23" class="edge">
<title>Node18&#45;&gt;Node7</title>
<path fill="none" stroke="midnightblue" d="M1674.5,-112.08C1674.5,-105.01 1674.5,-94.86 1674.5,-85.99"/>
<polygon fill="midnightblue" stroke="midnightblue" points="1678,-85.75 1674.5,-75.75 1671,-85.75 1678,-85.75"/>
</g>
<!-- Node19&#45;&gt;Node3 -->
<g id="edge27" class="edge">
<title>Node19&#45;&gt;Node3</title>
<path fill="none" stroke="midnightblue" d="M865.37,-112.44C841.02,-103.44 802.49,-89.19 775.08,-79.05"/>
<polygon fill="midnightblue" stroke="midnightblue" points="776.12,-75.7 765.53,-75.52 773.69,-82.27 776.12,-75.7"/>
</g>
<!-- Node19&#45;&gt;Node9 -->
<g id="edge28" class="edge">
<title>Node19&#45;&gt;Node9</title>
<path fill="none" stroke="midnightblue" d="M933.35,-116.02C1031.05,-105.16 1260.99,-79.61 1343.96,-70.39"/>
<polygon fill="midnightblue" stroke="midnightblue" points="1344.45,-73.86 1354,-69.28 1343.68,-66.9 1344.45,-73.86"/>
</g>
<!-- Node20 -->
<g id="node20" class="node">
<title>Node20</title>
<g id="a_node20"><a xlink:title=" ">
<polygon fill="white" stroke="#bfbfbf" points="862,-56.5 862,-75.5 915,-75.5 915,-56.5 862,-56.5"/>
<text text-anchor="middle" x="888.5" y="-63.5" font-family="Helvetica,sans-Serif" font-size="10.00">complex</text>
</a>
</g>
</g>
<!-- Node19&#45;&gt;Node20 -->
<g id="edge25" class="edge">
<title>Node19&#45;&gt;Node20</title>
<path fill="none" stroke="midnightblue" d="M888.5,-112.08C888.5,-105.01 888.5,-94.86 888.5,-85.99"/>
<polygon fill="midnightblue" stroke="midnightblue" points="892,-85.75 888.5,-75.75 885,-85.75 892,-85.75"/>
</g>
<!-- Node21 -->
<g id="node21" class="node">
<title>Node21</title>
<g id="a_node21"><a xlink:title=" ">
<polygon fill="white" stroke="#bfbfbf" points="1226.5,-56.5 1226.5,-75.5 1272.5,-75.5 1272.5,-56.5 1226.5,-56.5"/>
<text text-anchor="middle" x="1249.5" y="-63.5" font-family="Helvetica,sans-Serif" font-size="10.00">cstdint</text>
</a>
</g>
</g>
<!-- Node19&#45;&gt;Node21 -->
<g id="edge26" class="edge">
<title>Node19&#45;&gt;Node21</title>
<path fill="none" stroke="midnightblue" d="M933.13,-114.32C1006.57,-103.34 1151.25,-81.7 1216.37,-71.96"/>
<polygon fill="midnightblue" stroke="midnightblue" points="1217.1,-75.39 1226.47,-70.44 1216.07,-68.46 1217.1,-75.39"/>
</g>
<!-- Node22 -->
<g id="node22" class="node">
<title>Node22</title>
<g id="a_node22"><a xlink:title=" ">
<polygon fill="white" stroke="#bfbfbf" points="579.5,-56.5 579.5,-75.5 625.5,-75.5 625.5,-56.5 579.5,-56.5"/>
<text text-anchor="middle" x="602.5" y="-63.5" font-family="Helvetica,sans-Serif" font-size="10.00">variant</text>
</a>
</g>
</g>
<!-- Node19&#45;&gt;Node22 -->
<g id="edge29" class="edge">
<title>Node19&#45;&gt;Node22</title>
<path fill="none" stroke="midnightblue" d="M843.81,-112.56C786.05,-101.66 686.81,-82.92 635.45,-73.22"/>
<polygon fill="midnightblue" stroke="midnightblue" points="636.02,-69.77 625.54,-71.35 634.72,-76.65 636.02,-69.77"/>
</g>
<!-- Node19&#45;&gt;Node23 -->
<g id="edge30" class="edge">
<title>Node19&#45;&gt;Node23</title>
<path fill="none" stroke="midnightblue" d="M843.69,-115.53C763.17,-105.69 594.12,-85.03 504.75,-74.12"/>
<polygon fill="midnightblue" stroke="midnightblue" points="505.13,-70.64 494.78,-72.9 504.28,-77.59 505.13,-70.64"/>
</g>
<!-- Node23&#45;&gt;Node17 -->
<g id="edge33" class="edge">
<title>Node23&#45;&gt;Node17</title>
<path fill="none" stroke="midnightblue" d="M494.66,-60.79C615.18,-50.24 927.51,-22.9 1030.22,-13.91"/>
<polygon fill="midnightblue" stroke="midnightblue" points="1030.66,-17.39 1040.32,-13.03 1030.05,-10.41 1030.66,-17.39"/>
</g>
<!-- Node24 -->
<g id="node24" class="node">
<title>Node24</title>
<g id="a_node24"><a xlink:title=" ">
<polygon fill="white" stroke="#bfbfbf" points="1770.5,-0.5 1770.5,-19.5 1822.5,-19.5 1822.5,-0.5 1770.5,-0.5"/>
<text text-anchor="middle" x="1796.5" y="-7.5" font-family="Helvetica,sans-Serif" font-size="10.00">memory</text>
</a>
</g>
</g>
<!-- Node23&#45;&gt;Node24 -->
<g id="edge31" class="edge">
<title>Node23&#45;&gt;Node24</title>
<path fill="none" stroke="midnightblue" d="M494.76,-61.09C517.7,-59.34 545.5,-57.37 570.5,-56 1039.93,-30.36 1611.28,-15.48 1759.82,-11.87"/>
<polygon fill="midnightblue" stroke="midnightblue" points="1760.26,-15.36 1770.17,-11.62 1760.09,-8.36 1760.26,-15.36"/>
</g>
<!-- Node25 -->
<g id="node25" class="node">
<title>Node25</title>
<g id="a_node25"><a xlink:title=" ">
<polygon fill="white" stroke="#bfbfbf" points="600.5,-0.5 600.5,-19.5 662.5,-19.5 662.5,-0.5 600.5,-0.5"/>
<text text-anchor="middle" x="631.5" y="-7.5" font-family="Helvetica,sans-Serif" font-size="10.00">dllexport.h</text>
</a>
</g>
</g>
<!-- Node23&#45;&gt;Node25 -->
<g id="edge32" class="edge">
<title>Node23&#45;&gt;Node25</title>
<path fill="none" stroke="midnightblue" d="M475.81,-56.44C507.34,-47.24 557.63,-32.56 592.49,-22.39"/>
<polygon fill="midnightblue" stroke="midnightblue" points="593.7,-25.68 602.32,-19.52 591.74,-18.96 593.7,-25.68"/>
</g>
<!-- Node26 -->
<g id="node26" class="node">
<title>Node26</title>
<g id="a_node26"><a xlink:title=" ">
<polygon fill="white" stroke="#bfbfbf" points="681,-0.5 681,-19.5 770,-19.5 770,-0.5 681,-0.5"/>
<text text-anchor="middle" x="725.5" y="-7.5" font-family="Helvetica,sans-Serif" font-size="10.00">WolframLibrary.h</text>
</a>
</g>
</g>
<!-- Node23&#45;&gt;Node26 -->
<g id="edge34" class="edge">
<title>Node23&#45;&gt;Node26</title>
<path fill="none" stroke="midnightblue" d="M490.71,-56.44C539.79,-46.94 619.01,-31.61 671.66,-21.42"/>
<polygon fill="midnightblue" stroke="midnightblue" points="672.35,-24.85 681.5,-19.52 671.02,-17.98 672.35,-24.85"/>
</g>
<!-- Node27 -->
<g id="node27" class="node">
<title>Node27</title>
<g id="a_node27"><a xlink:title=" ">
<polygon fill="white" stroke="#bfbfbf" points="0,-0.5 0,-19.5 143,-19.5 143,-0.5 0,-0.5"/>
<text text-anchor="middle" x="71.5" y="-7.5" font-family="Helvetica,sans-Serif" font-size="10.00">WolframIOLibraryFunctions.h</text>
</a>
</g>
</g>
<!-- Node23&#45;&gt;Node27 -->
<g id="edge35" class="edge">
<title>Node23&#45;&gt;Node27</title>
<path fill="none" stroke="midnightblue" d="M398.24,-58.05C332.87,-48.64 215.77,-31.78 140.95,-21"/>
<polygon fill="midnightblue" stroke="midnightblue" points="141.08,-17.48 130.68,-19.52 140.08,-24.41 141.08,-17.48"/>
</g>
<!-- Node28 -->
<g id="node28" class="node">
<title>Node28</title>
<g id="a_node28"><a xlink:title=" ">
<polygon fill="white" stroke="#bfbfbf" points="161.5,-0.5 161.5,-19.5 277.5,-19.5 277.5,-0.5 161.5,-0.5"/>
<text text-anchor="middle" x="219.5" y="-7.5" font-family="Helvetica,sans-Serif" font-size="10.00">WolframImageLibrary.h</text>
</a>
</g>
</g>
<!-- Node23&#45;&gt;Node28 -->
<g id="edge36" class="edge">
<title>Node23&#45;&gt;Node28</title>
<path fill="none" stroke="midnightblue" d="M410.53,-56.44C371.18,-47.08 308.01,-32.06 265.19,-21.87"/>
<polygon fill="midnightblue" stroke="midnightblue" points="265.84,-18.43 255.3,-19.52 264.22,-25.24 265.84,-18.43"/>
</g>
<!-- Node29 -->
<g id="node29" class="node">
<title>Node29</title>
<g id="a_node29"><a xlink:title=" ">
<polygon fill="white" stroke="#bfbfbf" points="296,-0.5 296,-19.5 445,-19.5 445,-0.5 296,-0.5"/>
<text text-anchor="middle" x="370.5" y="-7.5" font-family="Helvetica,sans-Serif" font-size="10.00">WolframNumericArrayLibrary.h</text>
</a>
</g>
</g>
<!-- Node23&#45;&gt;Node29 -->
<g id="edge37" class="edge">
<title>Node23&#45;&gt;Node29</title>
<path fill="none" stroke="midnightblue" d="M434.29,-56.32C422.72,-48.11 405.12,-35.6 391.34,-25.81"/>
<polygon fill="midnightblue" stroke="midnightblue" points="393.11,-22.77 382.93,-19.83 389.06,-28.48 393.11,-22.77"/>
</g>
<!-- Node30 -->
<g id="node30" class="node">
<title>Node30</title>
<g id="a_node30"><a xlink:title=" ">
<polygon fill="white" stroke="#bfbfbf" points="463,-0.5 463,-19.5 582,-19.5 582,-0.5 463,-0.5"/>
<text text-anchor="middle" x="522.5" y="-7.5" font-family="Helvetica,sans-Serif" font-size="10.00">WolframSparseLibrary.h</text>
</a>
</g>
</g>
<!-- Node23&#45;&gt;Node30 -->
<g id="edge38" class="edge">
<title>Node23&#45;&gt;Node30</title>
<path fill="none" stroke="midnightblue" d="M458.71,-56.32C470.28,-48.11 487.88,-35.6 501.66,-25.81"/>
<polygon fill="midnightblue" stroke="midnightblue" points="503.94,-28.48 510.07,-19.83 499.89,-22.77 503.94,-28.48"/>
</g>
<!-- Node31&#45;&gt;Node7 -->
<g id="edge42" class="edge">
<title>Node31&#45;&gt;Node7</title>
<path fill="none" stroke="midnightblue" d="M1363.76,-225.39C1367.05,-224.91 1370.32,-224.44 1373.5,-224 1508.72,-205.35 1554.43,-244.91 1678.5,-188 1717.87,-169.94 1759.6,-150.37 1739.5,-112 1731.94,-97.58 1717.43,-86.86 1704.04,-79.51"/>
<polygon fill="midnightblue" stroke="midnightblue" points="1705.54,-76.35 1695.04,-74.95 1702.38,-82.59 1705.54,-76.35"/>
</g>
<!-- Node31&#45;&gt;Node17 -->
<g id="edge43" class="edge">
<title>Node31&#45;&gt;Node17</title>
<path fill="none" stroke="midnightblue" d="M1279.56,-224.48C1243,-215.51 1190.16,-200.92 1173.5,-188 1118.93,-145.66 1127.97,-114.65 1091.5,-56 1085.78,-46.8 1079.4,-36.55 1074.18,-28.16"/>
<polygon fill="midnightblue" stroke="midnightblue" points="1077.13,-26.27 1068.87,-19.63 1071.18,-29.97 1077.13,-26.27"/>
</g>
<!-- Node31&#45;&gt;Node18 -->
<g id="edge44" class="edge">
<title>Node31&#45;&gt;Node18</title>
<path fill="none" stroke="midnightblue" d="M1363.76,-225.42C1367.05,-224.93 1370.33,-224.45 1373.5,-224 1436.7,-215.02 1610.83,-230.45 1658.5,-188 1671.36,-176.54 1674.7,-156.56 1675.22,-141.77"/>
<polygon fill="midnightblue" stroke="midnightblue" points="1678.72,-141.69 1675.19,-131.7 1671.72,-141.71 1678.72,-141.69"/>
</g>
<!-- Node31&#45;&gt;Node19 -->
<g id="edge45" class="edge">
<title>Node31&#45;&gt;Node19</title>
<path fill="none" stroke="midnightblue" d="M1283.08,-224.48C1247.68,-215.44 1190.14,-200.75 1140.5,-188 1067.01,-169.13 981.5,-147.04 931.36,-134.08"/>
<polygon fill="midnightblue" stroke="midnightblue" points="932.07,-130.65 921.52,-131.54 930.32,-137.43 932.07,-130.65"/>
</g>
<!-- Node31&#45;&gt;Node24 -->
<g id="edge41" class="edge">
<title>Node31&#45;&gt;Node24</title>
<path fill="none" stroke="midnightblue" d="M1363.75,-225.35C1367.05,-224.88 1370.32,-224.42 1373.5,-224 1448.39,-214.11 1645.41,-224.58 1711.5,-188 1770.15,-155.54 1788.85,-68.5 1794.37,-29.89"/>
<polygon fill="midnightblue" stroke="midnightblue" points="1797.89,-29.94 1795.69,-19.58 1790.95,-29.05 1797.89,-29.94"/>
</g>
<!-- Node32 -->
<g id="node32" class="node">
<title>Node32</title>
<g id="a_node32"><a xlink:title=" ">
<polygon fill="white" stroke="#bfbfbf" points="1191,-112.5 1191,-131.5 1250,-131.5 1250,-112.5 1191,-112.5"/>
<text text-anchor="middle" x="1220.5" y="-119.5" font-family="Helvetica,sans-Serif" font-size="10.00">functional</text>
</a>
</g>
</g>
<!-- Node31&#45;&gt;Node32 -->
<g id="edge40" class="edge">
<title>Node31&#45;&gt;Node32</title>
<path fill="none" stroke="midnightblue" d="M1327.69,-224.45C1343.03,-211.68 1367.2,-187.1 1353.5,-168 1347.82,-160.08 1297.31,-144.49 1260.21,-133.9"/>
<polygon fill="midnightblue" stroke="midnightblue" points="1260.73,-130.41 1250.15,-131.06 1258.82,-137.15 1260.73,-130.41"/>
</g>
<!-- Node33 -->
<g id="node33" class="node">
<title>Node33</title>
<g id="a_node33"><a xlink:href="Release_8h.html" target="_top" xlink:title="Header file with classes responsible for releasing memory allocated by WSTP when receiving data.">
<polygon fill="white" stroke="black" points="1182.5,-168.5 1182.5,-187.5 1296.5,-187.5 1296.5,-168.5 1182.5,-168.5"/>
<text text-anchor="middle" x="1239.5" y="-175.5" font-family="Helvetica,sans-Serif" font-size="10.00">LLU/WSTP/Release.h</text>
</a>
</g>
</g>
<!-- Node31&#45;&gt;Node33 -->
<g id="edge46" class="edge">
<title>Node31&#45;&gt;Node33</title>
<path fill="none" stroke="midnightblue" d="M1304.13,-224.32C1292.34,-216.06 1274.37,-203.45 1260.36,-193.63"/>
<polygon fill="midnightblue" stroke="midnightblue" points="1262.04,-190.53 1251.84,-187.65 1258.02,-196.26 1262.04,-190.53"/>
</g>
<!-- Node31&#45;&gt;Node34 -->
<g id="edge50" class="edge">
<title>Node31&#45;&gt;Node34</title>
<path fill="none" stroke="midnightblue" d="M1349.14,-224.44C1384.55,-215.16 1441.21,-200.31 1480.05,-190.13"/>
<polygon fill="midnightblue" stroke="midnightblue" points="1481.23,-193.44 1490.01,-187.52 1479.45,-186.67 1481.23,-193.44"/>
</g>
<!-- Node33&#45;&gt;Node17 -->
<g id="edge48" class="edge">
<title>Node33&#45;&gt;Node17</title>
<path fill="none" stroke="midnightblue" d="M1225.62,-168.25C1213.26,-159.98 1195.21,-146.68 1182.5,-132 1156.95,-102.49 1165.88,-83.81 1138.5,-56 1125.48,-42.77 1107.8,-31.92 1092.87,-24.19"/>
<polygon fill="midnightblue" stroke="midnightblue" points="1094.05,-20.87 1083.54,-19.56 1090.94,-27.14 1094.05,-20.87"/>
</g>
<!-- Node33&#45;&gt;Node19 -->
<g id="edge49" class="edge">
<title>Node33&#45;&gt;Node19</title>
<path fill="none" stroke="midnightblue" d="M1183.88,-168.44C1117.92,-158.3 1008.67,-141.49 943.14,-131.41"/>
<polygon fill="midnightblue" stroke="midnightblue" points="943.43,-127.91 933.01,-129.85 942.36,-134.83 943.43,-127.91"/>
</g>
<!-- Node33&#45;&gt;Node32 -->
<g id="edge47" class="edge">
<title>Node33&#45;&gt;Node32</title>
<path fill="none" stroke="midnightblue" d="M1236.36,-168.08C1233.82,-160.85 1230.14,-150.41 1226.97,-141.4"/>
<polygon fill="midnightblue" stroke="midnightblue" points="1230.2,-140.02 1223.58,-131.75 1223.6,-142.35 1230.2,-140.02"/>
</g>
<!-- Node34&#45;&gt;Node7 -->
<g id="edge52" class="edge">
<title>Node34&#45;&gt;Node7</title>
<path fill="none" stroke="midnightblue" d="M1533.67,-168.46C1550.13,-155.9 1581.95,-131.82 1609.5,-112 1623.85,-101.68 1640.2,-90.36 1652.92,-81.65"/>
<polygon fill="midnightblue" stroke="midnightblue" points="1655.17,-84.36 1661.45,-75.83 1651.22,-78.57 1655.17,-84.36"/>
</g>
<!-- Node34&#45;&gt;Node17 -->
<g id="edge53" class="edge">
<title>Node34&#45;&gt;Node17</title>
<path fill="none" stroke="midnightblue" d="M1517.09,-168.39C1502.2,-145.53 1458.08,-83.22 1403.5,-56 1350.05,-29.34 1171.54,-16.83 1096.83,-12.66"/>
<polygon fill="midnightblue" stroke="midnightblue" points="1096.76,-9.15 1086.59,-12.11 1096.38,-16.14 1096.76,-9.15"/>
</g>
<!-- Node34&#45;&gt;Node18 -->
<g id="edge54" class="edge">
<title>Node34&#45;&gt;Node18</title>
<path fill="none" stroke="midnightblue" d="M1546.58,-168.44C1572.04,-159.4 1612.39,-145.06 1640.96,-134.92"/>
<polygon fill="midnightblue" stroke="midnightblue" points="1642.28,-138.16 1650.53,-131.52 1639.93,-131.57 1642.28,-138.16"/>
</g>
<!-- Node35 -->
<g id="node35" class="node">
<title>Node35</title>
<g id="a_node35"><a xlink:title=" ">
<polygon fill="white" stroke="#bfbfbf" points="1516.5,-112.5 1516.5,-131.5 1562.5,-131.5 1562.5,-112.5 1516.5,-112.5"/>
<text text-anchor="middle" x="1539.5" y="-119.5" font-family="Helvetica,sans-Serif" font-size="10.00">cstring</text>
</a>
</g>
</g>
<!-- Node34&#45;&gt;Node35 -->
<g id="edge51" class="edge">
<title>Node34&#45;&gt;Node35</title>
<path fill="none" stroke="midnightblue" d="M1525.31,-168.08C1527.58,-160.85 1530.87,-150.41 1533.71,-141.4"/>
<polygon fill="midnightblue" stroke="midnightblue" points="1537.08,-142.34 1536.75,-131.75 1530.4,-140.24 1537.08,-142.34"/>
</g>
<!-- Node36 -->
<g id="node36" class="node">
<title>Node36</title>
<g id="a_node36"><a xlink:href="EncodingTraits_8hpp.html" target="_top" xlink:title="Defines possible encodings together with their properties and related types.">
<polygon fill="white" stroke="black" points="1268.5,-112.5 1268.5,-131.5 1422.5,-131.5 1422.5,-112.5 1268.5,-112.5"/>
<text text-anchor="middle" x="1345.5" y="-119.5" font-family="Helvetica,sans-Serif" font-size="10.00">LLU/WSTP/EncodingTraits.hpp</text>
</a>
</g>
</g>
<!-- Node34&#45;&gt;Node36 -->
<g id="edge55" class="edge">
<title>Node34&#45;&gt;Node36</title>
<path fill="none" stroke="midnightblue" d="M1494.45,-168.44C1464.42,-159.28 1416.59,-144.69 1383.26,-134.52"/>
<polygon fill="midnightblue" stroke="midnightblue" points="1384,-131.09 1373.41,-131.52 1381.96,-137.78 1384,-131.09"/>
</g>
<!-- Node36&#45;&gt;Node3 -->
<g id="edge58" class="edge">
<title>Node36&#45;&gt;Node3</title>
<path fill="none" stroke="midnightblue" d="M1268.15,-112.84C1265.23,-112.55 1262.34,-112.27 1259.5,-112 1082.61,-95.05 871.41,-77.51 783.76,-70.35"/>
<polygon fill="midnightblue" stroke="midnightblue" points="783.95,-66.85 773.7,-69.52 783.38,-73.83 783.95,-66.85"/>
</g>
<!-- Node36&#45;&gt;Node7 -->
<g id="edge57" class="edge">
<title>Node36&#45;&gt;Node7</title>
<path fill="none" stroke="midnightblue" d="M1397.63,-112.44C1466.91,-101.07 1587.12,-81.34 1643.56,-72.08"/>
<polygon fill="midnightblue" stroke="midnightblue" points="1644.35,-75.5 1653.65,-70.42 1643.21,-68.59 1644.35,-75.5"/>
</g>
<!-- Node36&#45;&gt;Node9 -->
<g id="edge59" class="edge">
<title>Node36&#45;&gt;Node9</title>
<path fill="none" stroke="midnightblue" d="M1350.29,-112.08C1354.26,-104.69 1360.03,-93.95 1364.93,-84.81"/>
<polygon fill="midnightblue" stroke="midnightblue" points="1368.15,-86.22 1369.8,-75.75 1361.99,-82.91 1368.15,-86.22"/>
</g>
<!-- Node36&#45;&gt;Node21 -->
<g id="edge56" class="edge">
<title>Node36&#45;&gt;Node21</title>
<path fill="none" stroke="midnightblue" d="M1330.08,-112.32C1314.96,-103.82 1291.68,-90.73 1274.03,-80.8"/>
<polygon fill="midnightblue" stroke="midnightblue" points="1275.32,-77.51 1264.89,-75.65 1271.89,-83.61 1275.32,-77.51"/>
</g>
<!-- Node37&#45;&gt;Node17 -->
<g id="edge62" class="edge">
<title>Node37&#45;&gt;Node17</title>
<path fill="none" stroke="midnightblue" d="M1076.95,-224.3C1074.89,-191.63 1067.59,-75.87 1064.7,-29.96"/>
<polygon fill="midnightblue" stroke="midnightblue" points="1068.18,-29.64 1064.06,-19.88 1061.2,-30.08 1068.18,-29.64"/>
</g>
<!-- Node37&#45;&gt;Node18 -->
<g id="edge63" class="edge">
<title>Node37&#45;&gt;Node18</title>
<path fill="none" stroke="midnightblue" d="M1124.21,-225.21C1127.35,-224.77 1130.47,-224.36 1133.5,-224 1233.99,-211.96 1492.8,-223.69 1587.5,-188 1602.46,-182.36 1635.8,-155.66 1656.58,-138.28"/>
<polygon fill="midnightblue" stroke="midnightblue" points="1658.99,-140.83 1664.38,-131.71 1654.48,-135.48 1658.99,-140.83"/>
</g>
<!-- Node37&#45;&gt;Node19 -->
<g id="edge64" class="edge">
<title>Node37&#45;&gt;Node19</title>
<path fill="none" stroke="midnightblue" d="M1039.27,-224.47C1012.89,-217.42 977.79,-205.68 950.5,-188 930.56,-175.08 912.39,-154.51 900.95,-139.98"/>
<polygon fill="midnightblue" stroke="midnightblue" points="903.58,-137.66 894.74,-131.83 898.02,-141.91 903.58,-137.66"/>
</g>
<!-- Node37&#45;&gt;Node32 -->
<g id="edge61" class="edge">
<title>Node37&#45;&gt;Node32</title>
<path fill="none" stroke="midnightblue" d="M1124.06,-225.36C1189.05,-214.47 1299.73,-195.02 1305.5,-188 1323.75,-165.79 1288.88,-146.68 1258.44,-135.04"/>
<polygon fill="midnightblue" stroke="midnightblue" points="1259.38,-131.65 1248.78,-131.53 1256.98,-138.23 1259.38,-131.65"/>
</g>
<!-- Node37&#45;&gt;Node34 -->
<g id="edge65" class="edge">
<title>Node37&#45;&gt;Node34</title>
<path fill="none" stroke="midnightblue" d="M1124.23,-225.33C1127.36,-224.87 1130.48,-224.42 1133.5,-224 1246.77,-208.35 1379.12,-193.84 1456.59,-185.73"/>
<polygon fill="midnightblue" stroke="midnightblue" points="1457.1,-189.19 1466.68,-184.67 1456.37,-182.23 1457.1,-189.19"/>
</g>
<!-- Node38&#45;&gt;Node5 -->
<g id="edge67" class="edge">
<title>Node38&#45;&gt;Node5</title>
<path fill="none" stroke="midnightblue" d="M1141.89,-224.97C1139.06,-224.63 1136.25,-224.3 1133.5,-224 924.04,-201.21 866.54,-220.78 654.57,-187.91"/>
<polygon fill="midnightblue" stroke="midnightblue" points="655.11,-184.45 644.69,-186.36 654.02,-191.37 655.11,-184.45"/>
</g>
<!-- Node38&#45;&gt;Node17 -->
<g id="edge70" class="edge">
<title>Node38&#45;&gt;Node17</title>
<path fill="none" stroke="midnightblue" d="M1182.76,-224.3C1170.54,-216.06 1152.77,-202.78 1140.5,-188 1099.54,-138.66 1076.79,-64.18 1067.91,-29.71"/>
<polygon fill="midnightblue" stroke="midnightblue" points="1071.22,-28.52 1065.43,-19.66 1064.43,-30.2 1071.22,-28.52"/>
</g>
<!-- Node38&#45;&gt;Node18 -->
<g id="edge71" class="edge">
<title>Node38&#45;&gt;Node18</title>
<path fill="none" stroke="midnightblue" d="M1251.29,-225.15C1254.41,-224.75 1257.49,-224.36 1260.5,-224 1340.32,-214.4 1549.51,-225.74 1620.5,-188 1640.48,-177.38 1655.98,-155.97 1665.15,-140.62"/>
<polygon fill="midnightblue" stroke="midnightblue" points="1668.39,-142.01 1670.25,-131.58 1662.29,-138.57 1668.39,-142.01"/>
</g>
<!-- Node38&#45;&gt;Node19 -->
<g id="edge72" class="edge">
<title>Node38&#45;&gt;Node19</title>
<path fill="none" stroke="midnightblue" d="M1170.63,-224.4C1143.97,-215.48 1101.23,-201.04 1064.5,-188 1014.21,-170.15 956.21,-148.52 920.96,-135.27"/>
<polygon fill="midnightblue" stroke="midnightblue" points="921.81,-131.85 911.22,-131.6 919.34,-138.4 921.81,-131.85"/>
</g>
<!-- Node38&#45;&gt;Node24 -->
<g id="edge69" class="edge">
<title>Node38&#45;&gt;Node24</title>
<path fill="none" stroke="midnightblue" d="M1251.29,-225.12C1254.4,-224.73 1257.49,-224.35 1260.5,-224 1431.19,-204.03 1482.11,-241.29 1645.5,-188 1726.3,-161.65 1766.31,-153.81 1800.5,-76 1806.9,-61.44 1805.06,-43.27 1802.1,-29.84"/>
<polygon fill="midnightblue" stroke="midnightblue" points="1805.41,-28.66 1799.51,-19.86 1798.64,-30.42 1805.41,-28.66"/>
</g>
<!-- Node38&#45;&gt;Node32 -->
<g id="edge68" class="edge">
<title>Node38&#45;&gt;Node32</title>
<path fill="none" stroke="midnightblue" d="M1242.75,-224.45C1279.63,-216.58 1326.97,-203.75 1338.5,-188 1343.75,-180.83 1343.54,-175.32 1338.5,-168 1329.22,-154.54 1290.71,-141.49 1260.17,-132.94"/>
<polygon fill="midnightblue" stroke="midnightblue" points="1260.74,-129.47 1250.17,-130.22 1258.9,-136.22 1260.74,-129.47"/>
</g>
<!-- Node38&#45;&gt;Node34 -->
<g id="edge74" class="edge">
<title>Node38&#45;&gt;Node34</title>
<path fill="none" stroke="midnightblue" d="M1248.16,-224.44C1305.98,-214.87 1399.61,-199.36 1461.12,-189.17"/>
<polygon fill="midnightblue" stroke="midnightblue" points="1461.79,-192.6 1471.09,-187.52 1460.65,-185.7 1461.79,-192.6"/>
</g>
<!-- Node38&#45;&gt;Node36 -->
<g id="edge73" class="edge">
<title>Node38&#45;&gt;Node36</title>
<path fill="none" stroke="midnightblue" d="M1251.24,-224.45C1291.39,-216.93 1341,-204.59 1353.5,-188 1363.53,-174.69 1359.45,-155.3 1354.13,-141.17"/>
<polygon fill="midnightblue" stroke="midnightblue" points="1357.18,-139.39 1350.03,-131.57 1350.74,-142.14 1357.18,-139.39"/>
</g>
<!-- Node39&#45;&gt;Node3 -->
<g id="edge77" class="edge">
<title>Node39&#45;&gt;Node3</title>
<path fill="none" stroke="midnightblue" d="M742.5,-168.37C742.5,-150.62 742.5,-109.67 742.5,-85.6"/>
<polygon fill="midnightblue" stroke="midnightblue" points="746,-85.59 742.5,-75.59 739,-85.59 746,-85.59"/>
</g>
<!-- Node39&#45;&gt;Node17 -->
<g id="edge78" class="edge">
<title>Node39&#45;&gt;Node17</title>
<path fill="none" stroke="midnightblue" d="M747.72,-168.29C761.72,-145.74 802.53,-85.17 853.5,-56 910,-23.66 987.12,-14.5 1030.45,-11.95"/>
<polygon fill="midnightblue" stroke="midnightblue" points="1030.63,-15.44 1040.44,-11.44 1030.28,-8.45 1030.63,-15.44"/>
</g>
<!-- Node39&#45;&gt;Node19 -->
<g id="edge79" class="edge">
<title>Node39&#45;&gt;Node19</title>
<path fill="none" stroke="midnightblue" d="M765.63,-168.44C789.98,-159.44 828.51,-145.19 855.92,-135.05"/>
<polygon fill="midnightblue" stroke="midnightblue" points="857.31,-138.27 865.47,-131.52 854.88,-131.7 857.31,-138.27"/>
</g>
<!-- Node40&#45;&gt;Node7 -->
<g id="edge83" class="edge">
<title>Node40&#45;&gt;Node7</title>
<path fill="none" stroke="midnightblue" d="M494.81,-173.44C520.04,-171.65 551.42,-169.54 579.5,-168 957.93,-147.2 1056.85,-189.31 1431.5,-132 1434.18,-131.59 1578.73,-92.75 1643.59,-75.32"/>
<polygon fill="midnightblue" stroke="midnightblue" points="1644.89,-78.59 1653.64,-72.61 1643.07,-71.83 1644.89,-78.59"/>
</g>
<!-- Node40&#45;&gt;Node19 -->
<g id="edge86" class="edge">
<title>Node40&#45;&gt;Node19</title>
<path fill="none" stroke="midnightblue" d="M494.64,-171.12C577.5,-161 746.56,-140.34 833.76,-129.69"/>
<polygon fill="midnightblue" stroke="midnightblue" points="834.22,-133.16 843.72,-128.47 833.37,-126.21 834.22,-133.16"/>
</g>
<!-- Node40&#45;&gt;Node22 -->
<g id="edge84" class="edge">
<title>Node40&#45;&gt;Node22</title>
<path fill="none" stroke="midnightblue" d="M452.94,-168.47C463.41,-155.06 485.28,-128.85 508.5,-112 527.33,-98.34 550.96,-87.05 569.82,-79.19"/>
<polygon fill="midnightblue" stroke="midnightblue" points="571.23,-82.39 579.19,-75.4 568.61,-75.9 571.23,-82.39"/>
</g>
<!-- Node40&#45;&gt;Node23 -->
<g id="edge85" class="edge">
<title>Node40&#45;&gt;Node23</title>
<path fill="none" stroke="midnightblue" d="M446.5,-168.37C446.5,-150.62 446.5,-109.67 446.5,-85.6"/>
<polygon fill="midnightblue" stroke="midnightblue" points="450,-85.59 446.5,-75.59 443,-85.59 450,-85.59"/>
</g>
<!-- Node41&#45;&gt;Node23 -->
<g id="edge89" class="edge">
<title>Node41&#45;&gt;Node23</title>
<path fill="none" stroke="midnightblue" d="M254.85,-403.22C257.79,-383.31 264.5,-333.19 264.5,-291 264.5,-291 264.5,-291 264.5,-177 264.5,-118.21 334.92,-90 388.15,-77.07"/>
<polygon fill="midnightblue" stroke="midnightblue" points="389.24,-80.41 398.21,-74.76 387.67,-73.59 389.24,-80.41"/>
</g>
</g>
</svg>
