<?xml version="1.0" encoding="UTF-8" standalone="no"?>
<!DOCTYPE svg PUBLIC "-//W3C//DTD SVG 1.1//EN"
 "http://www.w3.org/Graphics/SVG/1.1/DTD/svg11.dtd">
<!-- Generated by graphviz version 2.43.0 (0)
 -->
<!-- Title: Get.h Pages: 1 -->
<!--zoomable 252 -->
<svg id="main" version="1.1" xmlns="http://www.w3.org/2000/svg" xmlns:xlink="http://www.w3.org/1999/xlink" xml:space="preserve" onload="init(evt)">
<style type="text/css"><![CDATA[
.edge:hover path { stroke: red; }
.edge:hover polygon { stroke: red; fill: red; }
]]></style>
<script type="text/javascript"><![CDATA[
var edges = document.getElementsByTagName('g');
if (edges && edges.length) {
  for (var i=0;i<edges.length;i++) {
    if (edges[i].id.substr(0,4)=='edge') {
      edges[i].setAttribute('class','edge');
    }
  }
}
]]></script>
        <defs>
                <circle id="rim" cx="0" cy="0" r="7"/>
                <circle id="rim2" cx="0" cy="0" r="3.5"/>
                <g id="zoomPlus">
                        <use xlink:href="#rim" fill="#404040">
                                <set attributeName="fill" to="#808080" begin="zoomplus.mouseover" end="zoomplus.mouseout"/>
                        </use>
                        <path d="M-4,0h8M0,-4v8" fill="none" stroke="white" stroke-width="1.5" pointer-events="none"/>
                </g>
                <g id="zoomMin">
                        <use xlink:href="#rim" fill="#404040">
                                <set attributeName="fill" to="#808080" begin="zoomminus.mouseover" end="zoomminus.mouseout"/>
                        </use>
                        <path d="M-4,0h8" fill="none" stroke="white" stroke-width="1.5" pointer-events="none"/>
                </g>
                <g id="dirArrow">
                        <path fill="none" stroke="white" stroke-width="1.5" d="M0,-3.0v7 M-2.5,-0.5L0,-3.0L2.5,-0.5"/>
                </g>
               <g id="resetDef">
                       <use xlink:href="#rim2" fill="#404040">
                               <set attributeName="fill" to="#808080" begin="reset.mouseover" end="reset.mouseout"/>
                       </use>
               </g>
        </defs>

<script type="text/javascript">
var viewWidth = 950;
var viewHeight = 252;
var sectionId = 'dynsection-0';
</script>
<script xlink:href="svgpan.js"/>
<svg id="graph" class="graph">
<g id="viewport">
<title>Get.h</title>
<polygon fill="white" stroke="transparent" points="-4,4 -4,-248 945.93,-248 945.93,4 -4,4"/>
<!-- Node1 -->
<g id="node1" class="node">
<title>Node1</title>
<g id="a_node1"><a xlink:title="Header file with classes related to reading data from WSTP.">
<polygon fill="#bfbfbf" stroke="black" points="223.43,-224.5 223.43,-243.5 264.43,-243.5 264.43,-224.5 223.43,-224.5"/>
<text text-anchor="middle" x="243.93" y="-231.5" font-family="Helvetica,sans-Serif" font-size="10.00">Get.h</text>
</a>
</g>
</g>
<!-- Node2 -->
<g id="node2" class="node">
<title>Node2</title>
<g id="a_node2"><a xlink:title=" ">
<polygon fill="white" stroke="#bfbfbf" points="13.43,-112.5 13.43,-131.5 72.43,-131.5 72.43,-112.5 13.43,-112.5"/>
<text text-anchor="middle" x="42.93" y="-119.5" font-family="Helvetica,sans-Serif" font-size="10.00">functional</text>
</a>
</g>
</g>
<!-- Node1&#45;&gt;Node2 -->
<g id="edge1" class="edge">
<title>Node1&#45;&gt;Node2</title>
<path fill="none" stroke="midnightblue" d="M223.09,-231.56C176.16,-227.85 64.51,-216.17 41.93,-188 31.57,-175.09 33.41,-155.64 36.87,-141.39"/>
<polygon fill="midnightblue" stroke="midnightblue" points="40.25,-142.27 39.65,-131.69 33.53,-140.33 40.25,-142.27"/>
</g>
<!-- Node3 -->
<g id="node3" class="node">
<title>Node3</title>
<g id="a_node3"><a xlink:title=" ">
<polygon fill="white" stroke="#bfbfbf" points="102.93,-0.5 102.93,-19.5 154.93,-19.5 154.93,-0.5 102.93,-0.5"/>
<text text-anchor="middle" x="128.93" y="-7.5" font-family="Helvetica,sans-Serif" font-size="10.00">memory</text>
</a>
</g>
</g>
<!-- Node1&#45;&gt;Node3 -->
<g id="edge2" class="edge">
<title>Node1&#45;&gt;Node3</title>
<path fill="none" stroke="midnightblue" d="M239.42,-224.3C222.35,-191.36 161.51,-73.9 138.15,-28.81"/>
<polygon fill="midnightblue" stroke="midnightblue" points="141.23,-27.15 133.53,-19.88 135.02,-30.37 141.23,-27.15"/>
</g>
<!-- Node4 -->
<g id="node4" class="node">
<title>Node4</title>
<g id="a_node4"><a xlink:title=" ">
<polygon fill="white" stroke="#bfbfbf" points="662.43,-56.5 662.43,-75.5 703.43,-75.5 703.43,-56.5 662.43,-56.5"/>
<text text-anchor="middle" x="682.93" y="-63.5" font-family="Helvetica,sans-Serif" font-size="10.00">string</text>
</a>
</g>
</g>
<!-- Node1&#45;&gt;Node4 -->
<g id="edge3" class="edge">
<title>Node1&#45;&gt;Node4</title>
<path fill="none" stroke="midnightblue" d="M264.52,-232.45C352.48,-229.61 694.93,-213.4 753.93,-132 769.47,-110.55 738.54,-90.74 712.73,-78.76"/>
<polygon fill="midnightblue" stroke="midnightblue" points="714.11,-75.55 703.54,-74.72 711.28,-81.95 714.11,-75.55"/>
</g>
<!-- Node5 -->
<g id="node5" class="node">
<title>Node5</title>
<g id="a_node5"><a xlink:title=" ">
<polygon fill="white" stroke="#bfbfbf" points="38.93,-0.5 38.93,-19.5 84.93,-19.5 84.93,-0.5 38.93,-0.5"/>
<text text-anchor="middle" x="61.93" y="-7.5" font-family="Helvetica,sans-Serif" font-size="10.00">wstp.h</text>
</a>
</g>
</g>
<!-- Node1&#45;&gt;Node5 -->
<g id="edge4" class="edge">
<title>Node1&#45;&gt;Node5</title>
<path fill="none" stroke="midnightblue" d="M223.38,-231.02C175.83,-226.08 59.94,-211.86 29.93,-188 1.98,-165.78 -5.27,-146.49 3.93,-112 12.56,-79.62 34.33,-46.83 48.6,-27.73"/>
<polygon fill="midnightblue" stroke="midnightblue" points="51.42,-29.81 54.74,-19.75 45.87,-25.54 51.42,-29.81"/>
</g>
<!-- Node6 -->
<g id="node6" class="node">
<title>Node6</title>
<g id="a_node6"><a xlink:href="Errors_8h.html" target="_top" xlink:title="Definitions of error names and error codes used across LLU.">
<polygon fill="white" stroke="black" points="632.93,-112.5 632.93,-131.5 744.93,-131.5 744.93,-112.5 632.93,-112.5"/>
<text text-anchor="middle" x="688.93" y="-119.5" font-family="Helvetica,sans-Serif" font-size="10.00">LLU/ErrorLog/Errors.h</text>
</a>
</g>
</g>
<!-- Node1&#45;&gt;Node6 -->
<g id="edge5" class="edge">
<title>Node1&#45;&gt;Node6</title>
<path fill="none" stroke="midnightblue" d="M264.64,-231.81C313.82,-228.56 441.14,-217.72 542.93,-188 587.24,-175.06 635.62,-151.48 664.07,-136.56"/>
<polygon fill="midnightblue" stroke="midnightblue" points="666.07,-139.46 673.26,-131.68 662.79,-133.28 666.07,-139.46"/>
</g>
<!-- Node7 -->
<g id="node7" class="node">
<title>Node7</title>
<g id="a_node7"><a xlink:href="Utilities_8hpp.html" target="_top" xlink:title="Short but generally useful functions.">
<polygon fill="white" stroke="black" points="251.43,-112.5 251.43,-131.5 340.43,-131.5 340.43,-112.5 251.43,-112.5"/>
<text text-anchor="middle" x="295.93" y="-119.5" font-family="Helvetica,sans-Serif" font-size="10.00">LLU/Utilities.hpp</text>
</a>
</g>
</g>
<!-- Node1&#45;&gt;Node7 -->
<g id="edge7" class="edge">
<title>Node1&#45;&gt;Node7</title>
<path fill="none" stroke="midnightblue" d="M248.01,-224.37C256.47,-206.46 276.11,-164.92 287.44,-140.95"/>
<polygon fill="midnightblue" stroke="midnightblue" points="290.75,-142.13 291.86,-131.59 284.43,-139.14 290.75,-142.13"/>
</g>
<!-- Node20 -->
<g id="node20" class="node">
<title>Node20</title>
<g id="a_node20"><a xlink:href="Release_8h.html" target="_top" xlink:title="Header file with classes responsible for releasing memory allocated by WSTP when receiving data.">
<polygon fill="white" stroke="black" points="50.93,-168.5 50.93,-187.5 164.93,-187.5 164.93,-168.5 50.93,-168.5"/>
<text text-anchor="middle" x="107.93" y="-175.5" font-family="Helvetica,sans-Serif" font-size="10.00">LLU/WSTP/Release.h</text>
</a>
</g>
</g>
<!-- Node1&#45;&gt;Node20 -->
<g id="edge22" class="edge">
<title>Node1&#45;&gt;Node20</title>
<path fill="none" stroke="midnightblue" d="M223.27,-224.8C200.87,-215.9 164.85,-201.6 139.03,-191.35"/>
<polygon fill="midnightblue" stroke="midnightblue" points="140.26,-188.07 129.68,-187.64 137.68,-194.58 140.26,-188.07"/>
</g>
<!-- Node21 -->
<g id="node21" class="node">
<title>Node21</title>
<g id="a_node21"><a xlink:href="WSTP_2Utilities_8h.html" target="_top" xlink:title="Header file with miscellaneous utilities used throughout the WSTP&#45;related part of LibraryLinkUtilitie...">
<polygon fill="white" stroke="black" points="422.43,-168.5 422.43,-187.5 533.43,-187.5 533.43,-168.5 422.43,-168.5"/>
<text text-anchor="middle" x="477.93" y="-175.5" font-family="Helvetica,sans-Serif" font-size="10.00">LLU/WSTP/Utilities.h</text>
</a>
</g>
</g>
<!-- Node1&#45;&gt;Node21 -->
<g id="edge26" class="edge">
<title>Node1&#45;&gt;Node21</title>
<path fill="none" stroke="midnightblue" d="M264.69,-228.21C301.81,-219.64 380.4,-201.51 431.1,-189.81"/>
<polygon fill="midnightblue" stroke="midnightblue" points="431.89,-193.21 440.85,-187.56 430.32,-186.39 431.89,-193.21"/>
</g>
<!-- Node6&#45;&gt;Node4 -->
<g id="edge6" class="edge">
<title>Node6&#45;&gt;Node4</title>
<path fill="none" stroke="midnightblue" d="M687.93,-112.08C687.14,-104.93 686,-94.64 685,-85.69"/>
<polygon fill="midnightblue" stroke="midnightblue" points="688.48,-85.3 683.9,-75.75 681.52,-86.08 688.48,-85.3"/>
</g>
<!-- Node8 -->
<g id="node8" class="node">
<title>Node8</title>
<g id="a_node8"><a xlink:title=" ">
<polygon fill="white" stroke="#bfbfbf" points="269.43,-56.5 269.43,-75.5 322.43,-75.5 322.43,-56.5 269.43,-56.5"/>
<text text-anchor="middle" x="295.93" y="-63.5" font-family="Helvetica,sans-Serif" font-size="10.00">complex</text>
</a>
</g>
</g>
<!-- Node7&#45;&gt;Node8 -->
<g id="edge8" class="edge">
<title>Node7&#45;&gt;Node8</title>
<path fill="none" stroke="midnightblue" d="M295.93,-112.08C295.93,-105.01 295.93,-94.86 295.93,-85.99"/>
<polygon fill="midnightblue" stroke="midnightblue" points="299.43,-85.75 295.93,-75.75 292.43,-85.75 299.43,-85.75"/>
</g>
<!-- Node9 -->
<g id="node9" class="node">
<title>Node9</title>
<g id="a_node9"><a xlink:title=" ">
<polygon fill="white" stroke="#bfbfbf" points="592.93,-56.5 592.93,-75.5 638.93,-75.5 638.93,-56.5 592.93,-56.5"/>
<text text-anchor="middle" x="615.93" y="-63.5" font-family="Helvetica,sans-Serif" font-size="10.00">cstdint</text>
</a>
</g>
</g>
<!-- Node7&#45;&gt;Node9 -->
<g id="edge9" class="edge">
<title>Node7&#45;&gt;Node9</title>
<path fill="none" stroke="midnightblue" d="M340.71,-113.49C343.83,-112.98 346.92,-112.48 349.93,-112 450.68,-95.85 479.37,-98.13 582.69,-76.06"/>
<polygon fill="midnightblue" stroke="midnightblue" points="583.55,-79.45 592.59,-73.92 582.08,-72.61 583.55,-79.45"/>
</g>
<!-- Node10 -->
<g id="node10" class="node">
<title>Node10</title>
<g id="a_node10"><a xlink:title=" ">
<polygon fill="white" stroke="#bfbfbf" points="454.93,-56.5 454.93,-75.5 516.93,-75.5 516.93,-56.5 454.93,-56.5"/>
<text text-anchor="middle" x="485.93" y="-63.5" font-family="Helvetica,sans-Serif" font-size="10.00">type_traits</text>
</a>
</g>
</g>
<!-- Node7&#45;&gt;Node10 -->
<g id="edge10" class="edge">
<title>Node7&#45;&gt;Node10</title>
<path fill="none" stroke="midnightblue" d="M326.03,-112.44C358.55,-103.2 410.5,-88.44 446.32,-78.26"/>
<polygon fill="midnightblue" stroke="midnightblue" points="447.3,-81.62 455.96,-75.52 445.38,-74.88 447.3,-81.62"/>
</g>
<!-- Node11 -->
<g id="node11" class="node">
<title>Node11</title>
<g id="a_node11"><a xlink:title=" ">
<polygon fill="white" stroke="#bfbfbf" points="534.93,-56.5 534.93,-75.5 574.93,-75.5 574.93,-56.5 534.93,-56.5"/>
<text text-anchor="middle" x="554.93" y="-63.5" font-family="Helvetica,sans-Serif" font-size="10.00">utility</text>
</a>
</g>
</g>
<!-- Node7&#45;&gt;Node11 -->
<g id="edge11" class="edge">
<title>Node7&#45;&gt;Node11</title>
<path fill="none" stroke="midnightblue" d="M340.55,-112.86C393.16,-103.17 478.42,-87.14 524.88,-76.01"/>
<polygon fill="midnightblue" stroke="midnightblue" points="525.86,-79.37 534.72,-73.57 524.17,-72.58 525.86,-79.37"/>
</g>
<!-- Node12 -->
<g id="node12" class="node">
<title>Node12</title>
<g id="a_node12"><a xlink:title=" ">
<polygon fill="white" stroke="#bfbfbf" points="204.93,-56.5 204.93,-75.5 250.93,-75.5 250.93,-56.5 204.93,-56.5"/>
<text text-anchor="middle" x="227.93" y="-63.5" font-family="Helvetica,sans-Serif" font-size="10.00">variant</text>
</a>
</g>
</g>
<!-- Node7&#45;&gt;Node12 -->
<g id="edge12" class="edge">
<title>Node7&#45;&gt;Node12</title>
<path fill="none" stroke="midnightblue" d="M285,-112.32C274.75,-104.18 259.2,-91.84 246.92,-82.09"/>
<polygon fill="midnightblue" stroke="midnightblue" points="249.06,-79.31 239.05,-75.83 244.7,-84.79 249.06,-79.31"/>
</g>
<!-- Node13 -->
<g id="node13" class="node">
<title>Node13</title>
<g id="a_node13"><a xlink:href="LibraryData_8h.html" target="_top" xlink:title=" ">
<polygon fill="white" stroke="black" points="340.93,-56.5 340.93,-75.5 436.93,-75.5 436.93,-56.5 340.93,-56.5"/>
<text text-anchor="middle" x="388.93" y="-63.5" font-family="Helvetica,sans-Serif" font-size="10.00">LLU/LibraryData.h</text>
</a>
</g>
</g>
<!-- Node7&#45;&gt;Node13 -->
<g id="edge13" class="edge">
<title>Node7&#45;&gt;Node13</title>
<path fill="none" stroke="midnightblue" d="M310.87,-112.32C325.51,-103.82 348.06,-90.73 365.16,-80.8"/>
<polygon fill="midnightblue" stroke="midnightblue" points="367.13,-83.7 374.02,-75.65 363.61,-77.65 367.13,-83.7"/>
</g>
<!-- Node13&#45;&gt;Node3 -->
<g id="edge14" class="edge">
<title>Node13&#45;&gt;Node3</title>
<path fill="none" stroke="midnightblue" d="M342.23,-56.43C298.75,-48.27 231.92,-35.3 165.11,-20.18"/>
<polygon fill="midnightblue" stroke="midnightblue" points="165.79,-16.75 155.26,-17.94 164.23,-23.57 165.79,-16.75"/>
</g>
<!-- Node13&#45;&gt;Node5 -->
<g id="edge16" class="edge">
<title>Node13&#45;&gt;Node5</title>
<path fill="none" stroke="midnightblue" d="M340.73,-57.37C337.75,-56.9 334.8,-56.44 331.93,-56 229.4,-40.15 200.26,-42.37 95.31,-20.08"/>
<polygon fill="midnightblue" stroke="midnightblue" points="95.77,-16.6 85.26,-17.92 94.3,-23.45 95.77,-16.6"/>
</g>
<!-- Node14 -->
<g id="node14" class="node">
<title>Node14</title>
<g id="a_node14"><a xlink:title=" ">
<polygon fill="white" stroke="#bfbfbf" points="476.93,-0.5 476.93,-19.5 538.93,-19.5 538.93,-0.5 476.93,-0.5"/>
<text text-anchor="middle" x="507.93" y="-7.5" font-family="Helvetica,sans-Serif" font-size="10.00">dllexport.h</text>
</a>
</g>
</g>
<!-- Node13&#45;&gt;Node14 -->
<g id="edge15" class="edge">
<title>Node13&#45;&gt;Node14</title>
<path fill="none" stroke="midnightblue" d="M407.78,-56.44C427.19,-47.64 457.66,-33.81 479.89,-23.72"/>
<polygon fill="midnightblue" stroke="midnightblue" points="481.5,-26.84 489.16,-19.52 478.6,-20.46 481.5,-26.84"/>
</g>
<!-- Node15 -->
<g id="node15" class="node">
<title>Node15</title>
<g id="a_node15"><a xlink:title=" ">
<polygon fill="white" stroke="#bfbfbf" points="557.43,-0.5 557.43,-19.5 646.43,-19.5 646.43,-0.5 557.43,-0.5"/>
<text text-anchor="middle" x="601.93" y="-7.5" font-family="Helvetica,sans-Serif" font-size="10.00">WolframLibrary.h</text>
</a>
</g>
</g>
<!-- Node13&#45;&gt;Node15 -->
<g id="edge17" class="edge">
<title>Node13&#45;&gt;Node15</title>
<path fill="none" stroke="midnightblue" d="M422.68,-56.44C459.44,-47.12 518.37,-32.18 558.55,-22"/>
<polygon fill="midnightblue" stroke="midnightblue" points="559.5,-25.37 568.33,-19.52 557.78,-18.58 559.5,-25.37"/>
</g>
<!-- Node16 -->
<g id="node16" class="node">
<title>Node16</title>
<g id="a_node16"><a xlink:title=" ">
<polygon fill="white" stroke="#bfbfbf" points="664.43,-0.5 664.43,-19.5 807.43,-19.5 807.43,-0.5 664.43,-0.5"/>
<text text-anchor="middle" x="735.93" y="-7.5" font-family="Helvetica,sans-Serif" font-size="10.00">WolframIOLibraryFunctions.h</text>
</a>
</g>
</g>
<!-- Node13&#45;&gt;Node16 -->
<g id="edge18" class="edge">
<title>Node13&#45;&gt;Node16</title>
<path fill="none" stroke="midnightblue" d="M437.13,-57.38C440.1,-56.91 443.05,-56.45 445.93,-56 523.13,-43.91 611.92,-30.16 670.7,-21.07"/>
<polygon fill="midnightblue" stroke="midnightblue" points="671.25,-24.53 680.59,-19.54 670.18,-17.61 671.25,-24.53"/>
</g>
<!-- Node17 -->
<g id="node17" class="node">
<title>Node17</title>
<g id="a_node17"><a xlink:title=" ">
<polygon fill="white" stroke="#bfbfbf" points="825.93,-0.5 825.93,-19.5 941.93,-19.5 941.93,-0.5 825.93,-0.5"/>
<text text-anchor="middle" x="883.93" y="-7.5" font-family="Helvetica,sans-Serif" font-size="10.00">WolframImageLibrary.h</text>
</a>
</g>
</g>
<!-- Node13&#45;&gt;Node17 -->
<g id="edge19" class="edge">
<title>Node13&#45;&gt;Node17</title>
<path fill="none" stroke="midnightblue" d="M437.1,-57.19C440.08,-56.77 443.04,-56.37 445.93,-56 607.05,-35.48 650.67,-38.89 815.82,-20.09"/>
<polygon fill="midnightblue" stroke="midnightblue" points="816.3,-23.55 825.84,-18.94 815.5,-16.6 816.3,-23.55"/>
</g>
<!-- Node18 -->
<g id="node18" class="node">
<title>Node18</title>
<g id="a_node18"><a xlink:title=" ">
<polygon fill="white" stroke="#bfbfbf" points="172.43,-0.5 172.43,-19.5 321.43,-19.5 321.43,-0.5 172.43,-0.5"/>
<text text-anchor="middle" x="246.93" y="-7.5" font-family="Helvetica,sans-Serif" font-size="10.00">WolframNumericArrayLibrary.h</text>
</a>
</g>
</g>
<!-- Node13&#45;&gt;Node18 -->
<g id="edge20" class="edge">
<title>Node13&#45;&gt;Node18</title>
<path fill="none" stroke="midnightblue" d="M366.42,-56.44C342.85,-47.48 305.6,-33.31 278.96,-23.18"/>
<polygon fill="midnightblue" stroke="midnightblue" points="279.91,-19.8 269.32,-19.52 277.42,-26.34 279.91,-19.8"/>
</g>
<!-- Node19 -->
<g id="node19" class="node">
<title>Node19</title>
<g id="a_node19"><a xlink:title=" ">
<polygon fill="white" stroke="#bfbfbf" points="339.43,-0.5 339.43,-19.5 458.43,-19.5 458.43,-0.5 339.43,-0.5"/>
<text text-anchor="middle" x="398.93" y="-7.5" font-family="Helvetica,sans-Serif" font-size="10.00">WolframSparseLibrary.h</text>
</a>
</g>
</g>
<!-- Node13&#45;&gt;Node19 -->
<g id="edge21" class="edge">
<title>Node13&#45;&gt;Node19</title>
<path fill="none" stroke="midnightblue" d="M390.58,-56.08C391.9,-48.93 393.81,-38.64 395.46,-29.69"/>
<polygon fill="midnightblue" stroke="midnightblue" points="398.93,-30.22 397.3,-19.75 392.04,-28.95 398.93,-30.22"/>
</g>
<!-- Node20&#45;&gt;Node2 -->
<g id="edge23" class="edge">
<title>Node20&#45;&gt;Node2</title>
<path fill="none" stroke="midnightblue" d="M97.48,-168.32C87.78,-160.26 73.11,-148.08 61.43,-138.37"/>
<polygon fill="midnightblue" stroke="midnightblue" points="63.49,-135.53 53.56,-131.83 59.01,-140.92 63.49,-135.53"/>
</g>
<!-- Node20&#45;&gt;Node5 -->
<g id="edge24" class="edge">
<title>Node20&#45;&gt;Node5</title>
<path fill="none" stroke="midnightblue" d="M105.45,-168.08C98.21,-141.95 76.95,-65.21 67.07,-29.58"/>
<polygon fill="midnightblue" stroke="midnightblue" points="70.34,-28.27 64.3,-19.57 63.6,-30.14 70.34,-28.27"/>
</g>
<!-- Node20&#45;&gt;Node7 -->
<g id="edge25" class="edge">
<title>Node20&#45;&gt;Node7</title>
<path fill="none" stroke="midnightblue" d="M137.71,-168.44C169.75,-159.24 220.86,-144.56 256.28,-134.39"/>
<polygon fill="midnightblue" stroke="midnightblue" points="257.63,-137.64 266.28,-131.52 255.7,-130.91 257.63,-137.64"/>
</g>
<!-- Node21&#45;&gt;Node4 -->
<g id="edge28" class="edge">
<title>Node21&#45;&gt;Node4</title>
<path fill="none" stroke="midnightblue" d="M502.14,-168.47C524.44,-160.25 558.18,-146.89 585.93,-132 614.14,-116.86 644.47,-95.65 663.56,-81.63"/>
<polygon fill="midnightblue" stroke="midnightblue" points="665.79,-84.33 671.73,-75.56 661.62,-78.71 665.79,-84.33"/>
</g>
<!-- Node21&#45;&gt;Node5 -->
<g id="edge29" class="edge">
<title>Node21&#45;&gt;Node5</title>
<path fill="none" stroke="midnightblue" d="M422.01,-172.62C373.24,-167.33 301.34,-155.96 242.93,-132 177.08,-104.99 110.17,-52.25 79.39,-26.25"/>
<polygon fill="midnightblue" stroke="midnightblue" points="81.57,-23.5 71.7,-19.66 77.02,-28.82 81.57,-23.5"/>
</g>
<!-- Node21&#45;&gt;Node6 -->
<g id="edge30" class="edge">
<title>Node21&#45;&gt;Node6</title>
<path fill="none" stroke="midnightblue" d="M511.36,-168.44C547.78,-159.12 606.16,-144.18 645.95,-134"/>
<polygon fill="midnightblue" stroke="midnightblue" points="646.83,-137.39 655.65,-131.52 645.09,-130.61 646.83,-137.39"/>
</g>
<!-- Node22 -->
<g id="node22" class="node">
<title>Node22</title>
<g id="a_node22"><a xlink:title=" ">
<polygon fill="white" stroke="#bfbfbf" points="530.93,-112.5 530.93,-131.5 576.93,-131.5 576.93,-112.5 530.93,-112.5"/>
<text text-anchor="middle" x="553.93" y="-119.5" font-family="Helvetica,sans-Serif" font-size="10.00">cstring</text>
</a>
</g>
</g>
<!-- Node21&#45;&gt;Node22 -->
<g id="edge27" class="edge">
<title>Node21&#45;&gt;Node22</title>
<path fill="none" stroke="midnightblue" d="M490.14,-168.32C501.7,-160.11 519.3,-147.6 533.09,-137.81"/>
<polygon fill="midnightblue" stroke="midnightblue" points="535.37,-140.48 541.49,-131.83 531.31,-134.77 535.37,-140.48"/>
</g>
<!-- Node23 -->
<g id="node23" class="node">
<title>Node23</title>
<g id="a_node23"><a xlink:href="EncodingTraits_8hpp.html" target="_top" xlink:title="Defines possible encodings together with their properties and related types.">
<polygon fill="white" stroke="black" points="358.93,-112.5 358.93,-131.5 512.93,-131.5 512.93,-112.5 358.93,-112.5"/>
<text text-anchor="middle" x="435.93" y="-119.5" font-family="Helvetica,sans-Serif" font-size="10.00">LLU/WSTP/EncodingTraits.hpp</text>
</a>
</g>
</g>
<!-- Node21&#45;&gt;Node23 -->
<g id="edge31" class="edge">
<title>Node21&#45;&gt;Node23</title>
<path fill="none" stroke="midnightblue" d="M470.99,-168.08C465,-160.38 456.17,-149.03 448.88,-139.65"/>
<polygon fill="midnightblue" stroke="midnightblue" points="451.63,-137.5 442.73,-131.75 446.11,-141.79 451.63,-137.5"/>
</g>
<!-- Node23&#45;&gt;Node4 -->
<g id="edge33" class="edge">
<title>Node23&#45;&gt;Node4</title>
<path fill="none" stroke="midnightblue" d="M478.68,-112.48C521.58,-103.8 589.5,-89.71 647.93,-76 649.38,-75.66 650.86,-75.31 652.36,-74.94"/>
<polygon fill="midnightblue" stroke="midnightblue" points="653.38,-78.29 662.23,-72.48 651.68,-71.5 653.38,-78.29"/>
</g>
<!-- Node23&#45;&gt;Node9 -->
<g id="edge32" class="edge">
<title>Node23&#45;&gt;Node9</title>
<path fill="none" stroke="midnightblue" d="M464.45,-112.44C496.61,-102.79 548.83,-87.13 582.78,-76.94"/>
<polygon fill="midnightblue" stroke="midnightblue" points="584.12,-80.2 592.69,-73.97 582.1,-73.49 584.12,-80.2"/>
</g>
<!-- Node23&#45;&gt;Node10 -->
<g id="edge34" class="edge">
<title>Node23&#45;&gt;Node10</title>
<path fill="none" stroke="midnightblue" d="M444.18,-112.08C451.39,-104.3 462.04,-92.8 470.77,-83.37"/>
<polygon fill="midnightblue" stroke="midnightblue" points="473.6,-85.47 477.82,-75.75 468.46,-80.71 473.6,-85.47"/>
</g>
<!-- Node23&#45;&gt;Node11 -->
<g id="edge35" class="edge">
<title>Node23&#45;&gt;Node11</title>
<path fill="none" stroke="midnightblue" d="M454.78,-112.44C474.19,-103.64 504.66,-89.81 526.89,-79.72"/>
<polygon fill="midnightblue" stroke="midnightblue" points="528.5,-82.84 536.16,-75.52 525.6,-76.46 528.5,-82.84"/>
</g>
</g>
</svg>
        <g id="navigator" transform="translate(0 0)" fill="#404254">
                <rect fill="#f2f5e9" fill-opacity="0.5" stroke="#606060" stroke-width=".5" x="0" y="0" width="60" height="60"/>
                <use id="zoomplus" xlink:href="#zoomPlus" x="17" y="9" onmousedown="handleZoom(evt,'in')"/>
                <use id="zoomminus" xlink:href="#zoomMin" x="42" y="9" onmousedown="handleZoom(evt,'out')"/>
                <use id="reset" xlink:href="#resetDef" x="30" y="36" onmousedown="handleReset()"/>
                <g id="arrowUp" xlink:href="#dirArrow" transform="translate(30 24)" onmousedown="handlePan(0,-1)">
                  <use xlink:href="#rim" fill="#404040">
                        <set attributeName="fill" to="#808080" begin="arrowUp.mouseover" end="arrowUp.mouseout"/>
                  </use>
                  <path fill="none" stroke="white" stroke-width="1.5" d="M0,-3.0v7 M-2.5,-0.5L0,-3.0L2.5,-0.5"/>
                </g>
                <g id="arrowRight" xlink:href="#dirArrow" transform="rotate(90) translate(36 -43)" onmousedown="handlePan(1,0)">
                  <use xlink:href="#rim" fill="#404040">
                        <set attributeName="fill" to="#808080" begin="arrowRight.mouseover" end="arrowRight.mouseout"/>
                  </use>
                  <path fill="none" stroke="white" stroke-width="1.5" d="M0,-3.0v7 M-2.5,-0.5L0,-3.0L2.5,-0.5"/>
                </g>
                <g id="arrowDown" xlink:href="#dirArrow" transform="rotate(180) translate(-30 -48)" onmousedown="handlePan(0,1)">
                  <use xlink:href="#rim" fill="#404040">
                        <set attributeName="fill" to="#808080" begin="arrowDown.mouseover" end="arrowDown.mouseout"/>
                  </use>
                  <path fill="none" stroke="white" stroke-width="1.5" d="M0,-3.0v7 M-2.5,-0.5L0,-3.0L2.5,-0.5"/>
                </g>
                <g id="arrowLeft" xlink:href="#dirArrow" transform="rotate(270) translate(-36 17)" onmousedown="handlePan(-1,0)">
                  <use xlink:href="#rim" fill="#404040">
                        <set attributeName="fill" to="#808080" begin="arrowLeft.mouseover" end="arrowLeft.mouseout"/>
                  </use>
                  <path fill="none" stroke="white" stroke-width="1.5" d="M0,-3.0v7 M-2.5,-0.5L0,-3.0L2.5,-0.5"/>
                </g>
        </g>
        <svg viewBox="0 0 15 15" width="100%" height="30px" preserveAspectRatio="xMaxYMin meet">
         <g id="arrow_out" transform="scale(0.3 0.3)">
          <a xlink:href="Get_8h__incl_org.svg" target="_base">
           <rect id="button" ry="5" rx="5" y="6" x="6" height="38" width="38"
                fill="#f2f5e9" fill-opacity="0.5" stroke="#606060" stroke-width="1.0"/>
           <path id="arrow"
             d="M 11.500037,31.436501 C 11.940474,20.09759 22.043105,11.32322 32.158766,21.979434 L 37.068811,17.246167 C 37.068811,17.246167 37.088388,32 37.088388,32 L 22.160133,31.978069 C 22.160133,31.978069 26.997745,27.140456 26.997745,27.140456 C 18.528582,18.264221 13.291696,25.230495 11.500037,31.436501 z"
             style="fill:#404040;"/>
          </a>
         </g>
        </svg>
</svg>
