<?xml version="1.0" encoding="UTF-8" standalone="no"?>
<!DOCTYPE svg PUBLIC "-//W3C//DTD SVG 1.1//EN"
 "http://www.w3.org/Graphics/SVG/1.1/DTD/svg11.dtd">
<!-- Generated by graphviz version 2.43.0 (0)
 -->
<!-- Title: Get.cpp Pages: 1 -->
<svg width="1155pt" height="308pt"
 viewBox="0.00 0.00 1155.25 308.00" xmlns="http://www.w3.org/2000/svg" xmlns:xlink="http://www.w3.org/1999/xlink">
<g id="graph0" class="graph" transform="scale(1 1) rotate(0) translate(4 304)">
<title>Get.cpp</title>
<polygon fill="white" stroke="transparent" points="-4,4 -4,-304 1151.25,-304 1151.25,4 -4,4"/>
<!-- Node1 -->
<g id="node1" class="node">
<title>Node1</title>
<g id="a_node1"><a xlink:title="Implementation file with classes related to reading data from WSTP.">
<polygon fill="#bfbfbf" stroke="black" points="508.5,-280.5 508.5,-299.5 559.5,-299.5 559.5,-280.5 508.5,-280.5"/>
<text text-anchor="middle" x="534" y="-287.5" font-family="Helvetica,sans-Serif" font-size="10.00">Get.cpp</text>
</a>
</g>
</g>
<!-- Node2 -->
<g id="node2" class="node">
<title>Node2</title>
<g id="a_node2"><a xlink:href="Get_8h.html" target="_top" xlink:title="Header file with classes related to reading data from WSTP.">
<polygon fill="white" stroke="black" points="620,-224.5 620,-243.5 714,-243.5 714,-224.5 620,-224.5"/>
<text text-anchor="middle" x="667" y="-231.5" font-family="Helvetica,sans-Serif" font-size="10.00">LLU/WSTP/Get.h</text>
</a>
</g>
</g>
<!-- Node1&#45;&gt;Node2 -->
<g id="edge1" class="edge">
<title>Node1&#45;&gt;Node2</title>
<path fill="none" stroke="midnightblue" d="M555.07,-280.44C577.06,-271.52 611.73,-257.44 636.66,-247.32"/>
<polygon fill="midnightblue" stroke="midnightblue" points="638.08,-250.52 646.02,-243.52 635.44,-244.04 638.08,-250.52"/>
</g>
<!-- Node6 -->
<g id="node6" class="node">
<title>Node6</title>
<g id="a_node6"><a xlink:title=" ">
<polygon fill="white" stroke="#bfbfbf" points="859,-0.5 859,-19.5 905,-19.5 905,-0.5 859,-0.5"/>
<text text-anchor="middle" x="882" y="-7.5" font-family="Helvetica,sans-Serif" font-size="10.00">wstp.h</text>
</a>
</g>
</g>
<!-- Node1&#45;&gt;Node6 -->
<g id="edge37" class="edge">
<title>Node1&#45;&gt;Node6</title>
<path fill="none" stroke="midnightblue" d="M524.45,-280.14C497,-253.59 422.06,-172.73 458,-112 471.17,-89.75 535.4,-63.96 560,-56 680.14,-17.12 720.07,-43.72 848.83,-19.71"/>
<polygon fill="midnightblue" stroke="midnightblue" points="849.51,-23.14 858.66,-17.81 848.18,-16.27 849.51,-23.14"/>
</g>
<!-- Node3 -->
<g id="node3" class="node">
<title>Node3</title>
<g id="a_node3"><a xlink:title=" ">
<polygon fill="white" stroke="#bfbfbf" points="467.5,-112.5 467.5,-131.5 526.5,-131.5 526.5,-112.5 467.5,-112.5"/>
<text text-anchor="middle" x="497" y="-119.5" font-family="Helvetica,sans-Serif" font-size="10.00">functional</text>
</a>
</g>
</g>
<!-- Node2&#45;&gt;Node3 -->
<g id="edge2" class="edge">
<title>Node2&#45;&gt;Node3</title>
<path fill="none" stroke="midnightblue" d="M619.78,-230.52C586.55,-226.3 543.3,-215.44 516,-188 503.96,-175.9 499.47,-156.62 497.83,-142.19"/>
<polygon fill="midnightblue" stroke="midnightblue" points="501.3,-141.6 497.04,-131.89 494.32,-142.13 501.3,-141.6"/>
</g>
<!-- Node4 -->
<g id="node4" class="node">
<title>Node4</title>
<g id="a_node4"><a xlink:title=" ">
<polygon fill="white" stroke="#bfbfbf" points="0,-0.5 0,-19.5 52,-19.5 52,-0.5 0,-0.5"/>
<text text-anchor="middle" x="26" y="-7.5" font-family="Helvetica,sans-Serif" font-size="10.00">memory</text>
</a>
</g>
</g>
<!-- Node2&#45;&gt;Node4 -->
<g id="edge3" class="edge">
<title>Node2&#45;&gt;Node4</title>
<path fill="none" stroke="midnightblue" d="M631.75,-224.45C597.96,-216.01 545.63,-202.33 501,-188 330.6,-133.28 131.17,-53.8 56.37,-23.43"/>
<polygon fill="midnightblue" stroke="midnightblue" points="57.64,-20.17 47.06,-19.64 55,-26.65 57.64,-20.17"/>
</g>
<!-- Node5 -->
<g id="node5" class="node">
<title>Node5</title>
<g id="a_node5"><a xlink:title=" ">
<polygon fill="white" stroke="#bfbfbf" points="1002.5,-56.5 1002.5,-75.5 1043.5,-75.5 1043.5,-56.5 1002.5,-56.5"/>
<text text-anchor="middle" x="1023" y="-63.5" font-family="Helvetica,sans-Serif" font-size="10.00">string</text>
</a>
</g>
</g>
<!-- Node2&#45;&gt;Node5 -->
<g id="edge4" class="edge">
<title>Node2&#45;&gt;Node5</title>
<path fill="none" stroke="midnightblue" d="M714.31,-230.59C822.05,-223.91 1079.81,-200.91 1124,-132 1143.52,-101.57 1090.27,-82.54 1053.86,-73.43"/>
<polygon fill="midnightblue" stroke="midnightblue" points="1054.2,-69.91 1043.66,-71.02 1052.59,-76.73 1054.2,-69.91"/>
</g>
<!-- Node2&#45;&gt;Node6 -->
<g id="edge5" class="edge">
<title>Node2&#45;&gt;Node6</title>
<path fill="none" stroke="midnightblue" d="M714.07,-230.66C804.78,-225.66 1000.37,-212.36 1063,-188 1102.44,-172.66 1120.8,-169.71 1140,-132 1185.82,-42.03 994.61,-18.61 915.18,-12.81"/>
<polygon fill="midnightblue" stroke="midnightblue" points="915.4,-9.32 905.19,-12.13 914.93,-16.3 915.4,-9.32"/>
</g>
<!-- Node7 -->
<g id="node7" class="node">
<title>Node7</title>
<g id="a_node7"><a xlink:href="Errors_8h.html" target="_top" xlink:title="Definitions of error names and error codes used across LLU.">
<polygon fill="white" stroke="black" points="1003,-112.5 1003,-131.5 1115,-131.5 1115,-112.5 1003,-112.5"/>
<text text-anchor="middle" x="1059" y="-119.5" font-family="Helvetica,sans-Serif" font-size="10.00">LLU/ErrorLog/Errors.h</text>
</a>
</g>
</g>
<!-- Node2&#45;&gt;Node7 -->
<g id="edge6" class="edge">
<title>Node2&#45;&gt;Node7</title>
<path fill="none" stroke="midnightblue" d="M714.1,-233.12C775.69,-231.72 885.88,-223.81 972,-188 999.57,-176.53 1026.33,-154.37 1042.73,-139.14"/>
<polygon fill="midnightblue" stroke="midnightblue" points="1045.49,-141.34 1050.31,-131.9 1040.66,-136.28 1045.49,-141.34"/>
</g>
<!-- Node8 -->
<g id="node8" class="node">
<title>Node8</title>
<g id="a_node8"><a xlink:href="Utilities_8hpp.html" target="_top" xlink:title="Short but generally useful functions.">
<polygon fill="white" stroke="black" points="583.5,-112.5 583.5,-131.5 672.5,-131.5 672.5,-112.5 583.5,-112.5"/>
<text text-anchor="middle" x="628" y="-119.5" font-family="Helvetica,sans-Serif" font-size="10.00">LLU/Utilities.hpp</text>
</a>
</g>
</g>
<!-- Node2&#45;&gt;Node8 -->
<g id="edge8" class="edge">
<title>Node2&#45;&gt;Node8</title>
<path fill="none" stroke="midnightblue" d="M664.9,-224.47C661.72,-211.93 655.28,-187.87 648,-168 644.69,-158.97 640.43,-149.19 636.69,-141.05"/>
<polygon fill="midnightblue" stroke="midnightblue" points="639.77,-139.38 632.34,-131.82 633.43,-142.36 639.77,-139.38"/>
</g>
<!-- Node21 -->
<g id="node21" class="node">
<title>Node21</title>
<g id="a_node21"><a xlink:href="Release_8h.html" target="_top" xlink:title="Header file with classes responsible for releasing memory allocated by WSTP when receiving data.">
<polygon fill="white" stroke="black" points="525,-168.5 525,-187.5 639,-187.5 639,-168.5 525,-168.5"/>
<text text-anchor="middle" x="582" y="-175.5" font-family="Helvetica,sans-Serif" font-size="10.00">LLU/WSTP/Release.h</text>
</a>
</g>
</g>
<!-- Node2&#45;&gt;Node21 -->
<g id="edge23" class="edge">
<title>Node2&#45;&gt;Node21</title>
<path fill="none" stroke="midnightblue" d="M653.34,-224.32C640.08,-215.9 619.73,-202.97 604.15,-193.07"/>
<polygon fill="midnightblue" stroke="midnightblue" points="605.94,-190.06 595.62,-187.65 602.19,-195.97 605.94,-190.06"/>
</g>
<!-- Node22 -->
<g id="node22" class="node">
<title>Node22</title>
<g id="a_node22"><a xlink:href="WSTP_2Utilities_8h.html" target="_top" xlink:title="Header file with miscellaneous utilities used throughout the WSTP&#45;related part of LibraryLinkUtilitie...">
<polygon fill="white" stroke="black" points="852.5,-168.5 852.5,-187.5 963.5,-187.5 963.5,-168.5 852.5,-168.5"/>
<text text-anchor="middle" x="908" y="-175.5" font-family="Helvetica,sans-Serif" font-size="10.00">LLU/WSTP/Utilities.h</text>
</a>
</g>
</g>
<!-- Node2&#45;&gt;Node22 -->
<g id="edge27" class="edge">
<title>Node2&#45;&gt;Node22</title>
<path fill="none" stroke="midnightblue" d="M705.19,-224.44C747.14,-215.04 814.59,-199.93 860.07,-189.74"/>
<polygon fill="midnightblue" stroke="midnightblue" points="861,-193.12 869.99,-187.52 859.47,-186.29 861,-193.12"/>
</g>
<!-- Node7&#45;&gt;Node5 -->
<g id="edge7" class="edge">
<title>Node7&#45;&gt;Node5</title>
<path fill="none" stroke="midnightblue" d="M1053.06,-112.08C1048.02,-104.53 1040.66,-93.49 1034.49,-84.23"/>
<polygon fill="midnightblue" stroke="midnightblue" points="1037.29,-82.13 1028.83,-75.75 1031.47,-86.01 1037.29,-82.13"/>
</g>
<!-- Node9 -->
<g id="node9" class="node">
<title>Node9</title>
<g id="a_node9"><a xlink:title=" ">
<polygon fill="white" stroke="#bfbfbf" points="583.5,-56.5 583.5,-75.5 636.5,-75.5 636.5,-56.5 583.5,-56.5"/>
<text text-anchor="middle" x="610" y="-63.5" font-family="Helvetica,sans-Serif" font-size="10.00">complex</text>
</a>
</g>
</g>
<!-- Node8&#45;&gt;Node9 -->
<g id="edge9" class="edge">
<title>Node8&#45;&gt;Node9</title>
<path fill="none" stroke="midnightblue" d="M625.03,-112.08C622.62,-104.85 619.14,-94.41 616.13,-85.4"/>
<polygon fill="midnightblue" stroke="midnightblue" points="619.4,-84.13 612.92,-75.75 612.76,-86.34 619.4,-84.13"/>
</g>
<!-- Node10 -->
<g id="node10" class="node">
<title>Node10</title>
<g id="a_node10"><a xlink:title=" ">
<polygon fill="white" stroke="#bfbfbf" points="799,-56.5 799,-75.5 845,-75.5 845,-56.5 799,-56.5"/>
<text text-anchor="middle" x="822" y="-63.5" font-family="Helvetica,sans-Serif" font-size="10.00">cstdint</text>
</a>
</g>
</g>
<!-- Node8&#45;&gt;Node10 -->
<g id="edge10" class="edge">
<title>Node8&#45;&gt;Node10</title>
<path fill="none" stroke="midnightblue" d="M658.76,-112.49C689.38,-104.01 737.98,-90.53 789.03,-76.26"/>
<polygon fill="midnightblue" stroke="midnightblue" points="790.24,-79.56 798.93,-73.5 788.36,-72.82 790.24,-79.56"/>
</g>
<!-- Node11 -->
<g id="node11" class="node">
<title>Node11</title>
<g id="a_node11"><a xlink:title=" ">
<polygon fill="white" stroke="#bfbfbf" points="719,-56.5 719,-75.5 781,-75.5 781,-56.5 719,-56.5"/>
<text text-anchor="middle" x="750" y="-63.5" font-family="Helvetica,sans-Serif" font-size="10.00">type_traits</text>
</a>
</g>
</g>
<!-- Node8&#45;&gt;Node11 -->
<g id="edge11" class="edge">
<title>Node8&#45;&gt;Node11</title>
<path fill="none" stroke="midnightblue" d="M647.33,-112.44C667.32,-103.6 698.74,-89.69 721.56,-79.59"/>
<polygon fill="midnightblue" stroke="midnightblue" points="723.03,-82.76 730.76,-75.52 720.2,-76.36 723.03,-82.76"/>
</g>
<!-- Node12 -->
<g id="node12" class="node">
<title>Node12</title>
<g id="a_node12"><a xlink:title=" ">
<polygon fill="white" stroke="#bfbfbf" points="863,-56.5 863,-75.5 903,-75.5 903,-56.5 863,-56.5"/>
<text text-anchor="middle" x="883" y="-63.5" font-family="Helvetica,sans-Serif" font-size="10.00">utility</text>
</a>
</g>
</g>
<!-- Node8&#45;&gt;Node12 -->
<g id="edge12" class="edge">
<title>Node8&#45;&gt;Node12</title>
<path fill="none" stroke="midnightblue" d="M672.91,-113.48C716.59,-105.86 784.98,-93.08 852.8,-76.1"/>
<polygon fill="midnightblue" stroke="midnightblue" points="853.96,-79.42 862.8,-73.57 852.24,-72.63 853.96,-79.42"/>
</g>
<!-- Node13 -->
<g id="node13" class="node">
<title>Node13</title>
<g id="a_node13"><a xlink:title=" ">
<polygon fill="white" stroke="#bfbfbf" points="655,-56.5 655,-75.5 701,-75.5 701,-56.5 655,-56.5"/>
<text text-anchor="middle" x="678" y="-63.5" font-family="Helvetica,sans-Serif" font-size="10.00">variant</text>
</a>
</g>
</g>
<!-- Node8&#45;&gt;Node13 -->
<g id="edge13" class="edge">
<title>Node8&#45;&gt;Node13</title>
<path fill="none" stroke="midnightblue" d="M636.26,-112.08C643.46,-104.3 654.11,-92.8 662.85,-83.37"/>
<polygon fill="midnightblue" stroke="midnightblue" points="665.67,-85.47 669.9,-75.75 660.53,-80.71 665.67,-85.47"/>
</g>
<!-- Node14 -->
<g id="node14" class="node">
<title>Node14</title>
<g id="a_node14"><a xlink:href="LibraryData_8h.html" target="_top" xlink:title=" ">
<polygon fill="white" stroke="black" points="393,-56.5 393,-75.5 489,-75.5 489,-56.5 393,-56.5"/>
<text text-anchor="middle" x="441" y="-63.5" font-family="Helvetica,sans-Serif" font-size="10.00">LLU/LibraryData.h</text>
</a>
</g>
</g>
<!-- Node8&#45;&gt;Node14 -->
<g id="edge14" class="edge">
<title>Node8&#45;&gt;Node14</title>
<path fill="none" stroke="midnightblue" d="M598.37,-112.44C566.5,-103.24 515.67,-88.56 480.44,-78.39"/>
<polygon fill="midnightblue" stroke="midnightblue" points="481.07,-74.93 470.49,-75.52 479.13,-81.65 481.07,-74.93"/>
</g>
<!-- Node14&#45;&gt;Node4 -->
<g id="edge15" class="edge">
<title>Node14&#45;&gt;Node4</title>
<path fill="none" stroke="midnightblue" d="M392.96,-57.87C388.24,-57.22 383.53,-56.59 379,-56 241.1,-38.19 202.6,-45.43 62.13,-19.98"/>
<polygon fill="midnightblue" stroke="midnightblue" points="62.75,-16.54 52.29,-18.18 61.49,-23.42 62.75,-16.54"/>
</g>
<!-- Node14&#45;&gt;Node6 -->
<g id="edge17" class="edge">
<title>Node14&#45;&gt;Node6</title>
<path fill="none" stroke="midnightblue" d="M489.04,-57.83C493.75,-57.19 498.47,-56.56 503,-56 653.13,-37.3 695.23,-47.95 848.42,-19.78"/>
<polygon fill="midnightblue" stroke="midnightblue" points="849.48,-23.14 858.67,-17.87 848.2,-16.26 849.48,-23.14"/>
</g>
<!-- Node15 -->
<g id="node15" class="node">
<title>Node15</title>
<g id="a_node15"><a xlink:title=" ">
<polygon fill="white" stroke="#bfbfbf" points="671,-0.5 671,-19.5 733,-19.5 733,-0.5 671,-0.5"/>
<text text-anchor="middle" x="702" y="-7.5" font-family="Helvetica,sans-Serif" font-size="10.00">dllexport.h</text>
</a>
</g>
</g>
<!-- Node14&#45;&gt;Node15 -->
<g id="edge16" class="edge">
<title>Node14&#45;&gt;Node15</title>
<path fill="none" stroke="midnightblue" d="M483.62,-56.47C525.89,-47.97 592.77,-34.4 660.65,-20.05"/>
<polygon fill="midnightblue" stroke="midnightblue" points="661.61,-23.42 670.67,-17.93 660.16,-16.57 661.61,-23.42"/>
</g>
<!-- Node16 -->
<g id="node16" class="node">
<title>Node16</title>
<g id="a_node16"><a xlink:title=" ">
<polygon fill="white" stroke="#bfbfbf" points="751.5,-0.5 751.5,-19.5 840.5,-19.5 840.5,-0.5 751.5,-0.5"/>
<text text-anchor="middle" x="796" y="-7.5" font-family="Helvetica,sans-Serif" font-size="10.00">WolframLibrary.h</text>
</a>
</g>
</g>
<!-- Node14&#45;&gt;Node16 -->
<g id="edge18" class="edge">
<title>Node14&#45;&gt;Node16</title>
<path fill="none" stroke="midnightblue" d="M489.11,-57.91C557.37,-47.83 679.95,-29.67 741.22,-20.09"/>
<polygon fill="midnightblue" stroke="midnightblue" points="741.89,-23.53 751.22,-18.52 740.8,-16.62 741.89,-23.53"/>
</g>
<!-- Node17 -->
<g id="node17" class="node">
<title>Node17</title>
<g id="a_node17"><a xlink:title=" ">
<polygon fill="white" stroke="#bfbfbf" points="70.5,-0.5 70.5,-19.5 213.5,-19.5 213.5,-0.5 70.5,-0.5"/>
<text text-anchor="middle" x="142" y="-7.5" font-family="Helvetica,sans-Serif" font-size="10.00">WolframIOLibraryFunctions.h</text>
</a>
</g>
</g>
<!-- Node14&#45;&gt;Node17 -->
<g id="edge19" class="edge">
<title>Node14&#45;&gt;Node17</title>
<path fill="none" stroke="midnightblue" d="M393.62,-56.44C340.92,-46.92 255.77,-31.55 199.34,-21.36"/>
<polygon fill="midnightblue" stroke="midnightblue" points="199.62,-17.85 189.16,-19.52 198.37,-24.74 199.62,-17.85"/>
</g>
<!-- Node18 -->
<g id="node18" class="node">
<title>Node18</title>
<g id="a_node18"><a xlink:title=" ">
<polygon fill="white" stroke="#bfbfbf" points="232,-0.5 232,-19.5 348,-19.5 348,-0.5 232,-0.5"/>
<text text-anchor="middle" x="290" y="-7.5" font-family="Helvetica,sans-Serif" font-size="10.00">WolframImageLibrary.h</text>
</a>
</g>
</g>
<!-- Node14&#45;&gt;Node18 -->
<g id="edge20" class="edge">
<title>Node14&#45;&gt;Node18</title>
<path fill="none" stroke="midnightblue" d="M417.07,-56.44C391.78,-47.4 351.7,-33.06 323.32,-22.92"/>
<polygon fill="midnightblue" stroke="midnightblue" points="324.41,-19.59 313.81,-19.52 322.05,-26.18 324.41,-19.59"/>
</g>
<!-- Node19 -->
<g id="node19" class="node">
<title>Node19</title>
<g id="a_node19"><a xlink:title=" ">
<polygon fill="white" stroke="#bfbfbf" points="366.5,-0.5 366.5,-19.5 515.5,-19.5 515.5,-0.5 366.5,-0.5"/>
<text text-anchor="middle" x="441" y="-7.5" font-family="Helvetica,sans-Serif" font-size="10.00">WolframNumericArrayLibrary.h</text>
</a>
</g>
</g>
<!-- Node14&#45;&gt;Node19 -->
<g id="edge21" class="edge">
<title>Node14&#45;&gt;Node19</title>
<path fill="none" stroke="midnightblue" d="M441,-56.08C441,-49.01 441,-38.86 441,-29.99"/>
<polygon fill="midnightblue" stroke="midnightblue" points="444.5,-29.75 441,-19.75 437.5,-29.75 444.5,-29.75"/>
</g>
<!-- Node20 -->
<g id="node20" class="node">
<title>Node20</title>
<g id="a_node20"><a xlink:title=" ">
<polygon fill="white" stroke="#bfbfbf" points="533.5,-0.5 533.5,-19.5 652.5,-19.5 652.5,-0.5 533.5,-0.5"/>
<text text-anchor="middle" x="593" y="-7.5" font-family="Helvetica,sans-Serif" font-size="10.00">WolframSparseLibrary.h</text>
</a>
</g>
</g>
<!-- Node14&#45;&gt;Node20 -->
<g id="edge22" class="edge">
<title>Node14&#45;&gt;Node20</title>
<path fill="none" stroke="midnightblue" d="M465.08,-56.44C490.54,-47.4 530.89,-33.06 559.46,-22.92"/>
<polygon fill="midnightblue" stroke="midnightblue" points="560.78,-26.16 569.03,-19.52 558.43,-19.57 560.78,-26.16"/>
</g>
<!-- Node21&#45;&gt;Node3 -->
<g id="edge24" class="edge">
<title>Node21&#45;&gt;Node3</title>
<path fill="none" stroke="midnightblue" d="M568.34,-168.32C555.08,-159.9 534.73,-146.97 519.15,-137.07"/>
<polygon fill="midnightblue" stroke="midnightblue" points="520.94,-134.06 510.62,-131.65 517.19,-139.97 520.94,-134.06"/>
</g>
<!-- Node21&#45;&gt;Node6 -->
<g id="edge25" class="edge">
<title>Node21&#45;&gt;Node6</title>
<path fill="none" stroke="midnightblue" d="M577.78,-168.37C567.79,-146.52 545.53,-88.44 574,-56 612.83,-11.76 773.22,-30.26 848.61,-19.51"/>
<polygon fill="midnightblue" stroke="midnightblue" points="849.39,-22.92 858.66,-17.79 848.21,-16.03 849.39,-22.92"/>
</g>
<!-- Node21&#45;&gt;Node8 -->
<g id="edge26" class="edge">
<title>Node21&#45;&gt;Node8</title>
<path fill="none" stroke="midnightblue" d="M589.6,-168.08C596.23,-160.3 606.02,-148.8 614.06,-139.37"/>
<polygon fill="midnightblue" stroke="midnightblue" points="616.73,-141.63 620.55,-131.75 611.4,-137.09 616.73,-141.63"/>
</g>
<!-- Node22&#45;&gt;Node5 -->
<g id="edge29" class="edge">
<title>Node22&#45;&gt;Node5</title>
<path fill="none" stroke="midnightblue" d="M917.02,-168.37C936.34,-149.89 981.92,-106.29 1006.54,-82.74"/>
<polygon fill="midnightblue" stroke="midnightblue" points="1009.21,-85.03 1014.02,-75.59 1004.37,-79.97 1009.21,-85.03"/>
</g>
<!-- Node22&#45;&gt;Node6 -->
<g id="edge30" class="edge">
<title>Node22&#45;&gt;Node6</title>
<path fill="none" stroke="midnightblue" d="M910.48,-168.47C912.96,-159.48 916.59,-144.89 918,-132 921.7,-98.32 923.53,-87.86 912,-56 908.33,-45.86 901.92,-35.77 895.96,-27.72"/>
<polygon fill="midnightblue" stroke="midnightblue" points="898.53,-25.31 889.6,-19.6 893.02,-29.63 898.53,-25.31"/>
</g>
<!-- Node22&#45;&gt;Node7 -->
<g id="edge31" class="edge">
<title>Node22&#45;&gt;Node7</title>
<path fill="none" stroke="midnightblue" d="M931.93,-168.44C957.22,-159.4 997.3,-145.06 1025.68,-134.92"/>
<polygon fill="midnightblue" stroke="midnightblue" points="1026.95,-138.18 1035.19,-131.52 1024.59,-131.59 1026.95,-138.18"/>
</g>
<!-- Node23 -->
<g id="node23" class="node">
<title>Node23</title>
<g id="a_node23"><a xlink:title=" ">
<polygon fill="white" stroke="#bfbfbf" points="863,-112.5 863,-131.5 909,-131.5 909,-112.5 863,-112.5"/>
<text text-anchor="middle" x="886" y="-119.5" font-family="Helvetica,sans-Serif" font-size="10.00">cstring</text>
</a>
</g>
</g>
<!-- Node22&#45;&gt;Node23 -->
<g id="edge28" class="edge">
<title>Node22&#45;&gt;Node23</title>
<path fill="none" stroke="midnightblue" d="M904.37,-168.08C901.39,-160.77 897.07,-150.18 893.38,-141.1"/>
<polygon fill="midnightblue" stroke="midnightblue" points="896.58,-139.69 889.57,-131.75 890.1,-142.33 896.58,-139.69"/>
</g>
<!-- Node24 -->
<g id="node24" class="node">
<title>Node24</title>
<g id="a_node24"><a xlink:href="EncodingTraits_8hpp.html" target="_top" xlink:title="Defines possible encodings together with their properties and related types.">
<polygon fill="white" stroke="black" points="691,-112.5 691,-131.5 845,-131.5 845,-112.5 691,-112.5"/>
<text text-anchor="middle" x="768" y="-119.5" font-family="Helvetica,sans-Serif" font-size="10.00">LLU/WSTP/EncodingTraits.hpp</text>
</a>
</g>
</g>
<!-- Node22&#45;&gt;Node24 -->
<g id="edge32" class="edge">
<title>Node22&#45;&gt;Node24</title>
<path fill="none" stroke="midnightblue" d="M885.82,-168.44C862.57,-159.48 825.85,-145.31 799.58,-135.18"/>
<polygon fill="midnightblue" stroke="midnightblue" points="800.67,-131.85 790.08,-131.52 798.15,-138.38 800.67,-131.85"/>
</g>
<!-- Node24&#45;&gt;Node5 -->
<g id="edge34" class="edge">
<title>Node24&#45;&gt;Node5</title>
<path fill="none" stroke="midnightblue" d="M808.41,-112.44C859.48,-101.63 946.26,-83.25 992.26,-73.51"/>
<polygon fill="midnightblue" stroke="midnightblue" points="993.18,-76.89 1002.23,-71.4 991.73,-70.05 993.18,-76.89"/>
</g>
<!-- Node24&#45;&gt;Node10 -->
<g id="edge33" class="edge">
<title>Node24&#45;&gt;Node10</title>
<path fill="none" stroke="midnightblue" d="M776.92,-112.08C784.78,-104.22 796.43,-92.57 805.92,-83.08"/>
<polygon fill="midnightblue" stroke="midnightblue" points="808.65,-85.3 813.25,-75.75 803.7,-80.35 808.65,-85.3"/>
</g>
<!-- Node24&#45;&gt;Node11 -->
<g id="edge35" class="edge">
<title>Node24&#45;&gt;Node11</title>
<path fill="none" stroke="midnightblue" d="M765.03,-112.08C762.62,-104.85 759.14,-94.41 756.13,-85.4"/>
<polygon fill="midnightblue" stroke="midnightblue" points="759.4,-84.13 752.92,-75.75 752.76,-86.34 759.4,-84.13"/>
</g>
<!-- Node24&#45;&gt;Node12 -->
<g id="edge36" class="edge">
<title>Node24&#45;&gt;Node12</title>
<path fill="none" stroke="midnightblue" d="M786.22,-112.44C804.9,-103.68 834.16,-89.94 855.62,-79.86"/>
<polygon fill="midnightblue" stroke="midnightblue" points="857.3,-82.93 864.86,-75.52 854.32,-76.6 857.3,-82.93"/>
</g>
</g>
</svg>
