<?xml version="1.0" encoding="UTF-8" standalone="no"?>
<!DOCTYPE svg PUBLIC "-//W3C//DTD SVG 1.1//EN"
 "http://www.w3.org/Graphics/SVG/1.1/DTD/svg11.dtd">
<!-- Generated by graphviz version 2.43.0 (0)
 -->
<!-- Title: Graphical Class Hierarchy Pages: 1 -->
<svg width="487pt" height="39pt"
 viewBox="0.00 0.00 487.00 39.00" xmlns="http://www.w3.org/2000/svg" xmlns:xlink="http://www.w3.org/1999/xlink">
<g id="graph0" class="graph" transform="scale(1 1) rotate(0) translate(4 35)">
<title>Graphical Class Hierarchy</title>
<polygon fill="white" stroke="transparent" points="-4,4 -4,-35 483,-35 483,4 -4,4"/>
<!-- Node0 -->
<g id="node1" class="node">
<title>Node0</title>
<g id="a_node1"><a xlink:href="classLLU_1_1MContainerBase.html" target="_top" xlink:title=" ">
<polygon fill="white" stroke="black" points="0,-0.5 0,-30.5 156,-30.5 156,-0.5 0,-0.5"/>
<text text-anchor="start" x="8" y="-18.5" font-family="Helvetica,sans-Serif" font-size="10.00">LLU::MContainerBase</text>
<text text-anchor="middle" x="78" y="-7.5" font-family="Helvetica,sans-Serif" font-size="10.00">&lt; MArgumentType::DataStore &gt;</text>
</a>
</g>
</g>
<!-- Node1 -->
<g id="node2" class="node">
<title>Node1</title>
<g id="a_node2"><a xlink:href="classLLU_1_1MContainer_3_01MArgumentType_1_1DataStore_01_4.html" target="_top" xlink:title="MContainer specialization for DataStore, provides basic list interface for the underlying raw DataSto...">
<polygon fill="white" stroke="black" points="192,-0.5 192,-30.5 342,-30.5 342,-0.5 192,-0.5"/>
<text text-anchor="start" x="200" y="-18.5" font-family="Helvetica,sans-Serif" font-size="10.00">LLU::MContainer&lt; MArgument</text>
<text text-anchor="middle" x="267" y="-7.5" font-family="Helvetica,sans-Serif" font-size="10.00">Type::DataStore &gt;</text>
</a>
</g>
</g>
<!-- Node0&#45;&gt;Node1 -->
<g id="edge1" class="edge">
<title>Node0&#45;&gt;Node1</title>
<path fill="none" stroke="midnightblue" d="M166.42,-15.5C174.89,-15.5 183.42,-15.5 191.75,-15.5"/>
<polygon fill="midnightblue" stroke="midnightblue" points="166.14,-12 156.14,-15.5 166.14,-19 166.14,-12"/>
</g>
<!-- Node2 -->
<g id="node3" class="node">
<title>Node2</title>
<g id="a_node3"><a xlink:href="classLLU_1_1DataList.html" target="_top" xlink:title="Top&#45;level wrapper over LibraryLink&#39;s DataStore.">
<polygon fill="white" stroke="black" points="378,-6 378,-25 479,-25 479,-6 378,-6"/>
<text text-anchor="middle" x="428.5" y="-13" font-family="Helvetica,sans-Serif" font-size="10.00">LLU::DataList&lt; T &gt;</text>
</a>
</g>
</g>
<!-- Node1&#45;&gt;Node2 -->
<g id="edge2" class="edge">
<title>Node1&#45;&gt;Node2</title>
<path fill="none" stroke="midnightblue" d="M352.32,-15.5C360.98,-15.5 369.57,-15.5 377.68,-15.5"/>
<polygon fill="midnightblue" stroke="midnightblue" points="352.15,-12 342.15,-15.5 352.15,-19 352.15,-12"/>
</g>
</g>
</svg>
