<?xml version="1.0" encoding="UTF-8" standalone="no"?>
<!DOCTYPE svg PUBLIC "-//W3C//DTD SVG 1.1//EN"
 "http://www.w3.org/Graphics/SVG/1.1/DTD/svg11.dtd">
<!-- Generated by graphviz version 2.43.0 (0)
 -->
<!-- Title: Graphical Class Hierarchy Pages: 1 -->
<svg width="398pt" height="104pt"
 viewBox="0.00 0.00 398.00 104.00" xmlns="http://www.w3.org/2000/svg" xmlns:xlink="http://www.w3.org/1999/xlink">
<g id="graph0" class="graph" transform="scale(1 1) rotate(0) translate(4 100)">
<title>Graphical Class Hierarchy</title>
<polygon fill="white" stroke="transparent" points="-4,4 -4,-100 394,-100 394,4 -4,4"/>
<!-- Node0 -->
<g id="node1" class="node">
<title>Node0</title>
<g id="a_node1"><a xlink:href="structLLU_1_1WS_1_1Symbol.html" target="_top" xlink:title="Structure representing any symbol in Wolfram Language.">
<polygon fill="white" stroke="black" points="0,-57.5 0,-76.5 96,-76.5 96,-57.5 0,-57.5"/>
<text text-anchor="middle" x="48" y="-64.5" font-family="Helvetica,sans-Serif" font-size="10.00">LLU::WS::Symbol</text>
</a>
</g>
</g>
<!-- Node1 -->
<g id="node2" class="node">
<title>Node1</title>
<g id="a_node2"><a xlink:href="structLLU_1_1WS_1_1BeginExpr.html" target="_top" xlink:title=" ">
<polygon fill="white" stroke="black" points="132,-76.5 132,-95.5 240,-95.5 240,-76.5 132,-76.5"/>
<text text-anchor="middle" x="186" y="-83.5" font-family="Helvetica,sans-Serif" font-size="10.00">LLU::WS::BeginExpr</text>
</a>
</g>
</g>
<!-- Node0&#45;&gt;Node1 -->
<g id="edge1" class="edge">
<title>Node0&#45;&gt;Node1</title>
<path fill="none" stroke="midnightblue" d="M106.35,-75.01C114.8,-76.19 123.48,-77.41 131.85,-78.57"/>
<polygon fill="midnightblue" stroke="midnightblue" points="106.57,-71.51 96.18,-73.59 105.6,-78.44 106.57,-71.51"/>
</g>
<!-- Node2 -->
<g id="node3" class="node">
<title>Node2</title>
<g id="a_node3"><a xlink:href="structLLU_1_1WS_1_1Function.html" target="_top" xlink:title="Structure representing any function in Wolfram Language, i.e. a head plus number of arguments.">
<polygon fill="white" stroke="black" points="135.5,-38.5 135.5,-57.5 236.5,-57.5 236.5,-38.5 135.5,-38.5"/>
<text text-anchor="middle" x="186" y="-45.5" font-family="Helvetica,sans-Serif" font-size="10.00">LLU::WS::Function</text>
</a>
</g>
</g>
<!-- Node0&#45;&gt;Node2 -->
<g id="edge2" class="edge">
<title>Node0&#45;&gt;Node2</title>
<path fill="none" stroke="midnightblue" d="M106.09,-59.02C115.74,-57.68 125.68,-56.29 135.12,-54.97"/>
<polygon fill="midnightblue" stroke="midnightblue" points="105.6,-55.56 96.18,-60.41 106.57,-62.49 105.6,-55.56"/>
</g>
<!-- Node3 -->
<g id="node4" class="node">
<title>Node3</title>
<g id="a_node4"><a xlink:href="structLLU_1_1WS_1_1Association.html" target="_top" xlink:title="Special type of a Function which corresponds to the Association expression when exchanged with the Ke...">
<polygon fill="white" stroke="black" points="276,-76.5 276,-95.5 390,-95.5 390,-76.5 276,-76.5"/>
<text text-anchor="middle" x="333" y="-83.5" font-family="Helvetica,sans-Serif" font-size="10.00">LLU::WS::Association</text>
</a>
</g>
</g>
<!-- Node2&#45;&gt;Node3 -->
<g id="edge3" class="edge">
<title>Node2&#45;&gt;Node3</title>
<path fill="none" stroke="midnightblue" d="M233.49,-60.18C253.62,-65.46 276.84,-71.54 295.67,-76.48"/>
<polygon fill="midnightblue" stroke="midnightblue" points="234.15,-56.74 223.59,-57.59 232.38,-63.51 234.15,-56.74"/>
</g>
<!-- Node4 -->
<g id="node5" class="node">
<title>Node4</title>
<g id="a_node5"><a xlink:href="structLLU_1_1WS_1_1List.html" target="_top" xlink:title="Special type of a Function which corresponds to the List expression when exchanged with the Kernel vi...">
<polygon fill="white" stroke="black" points="293.5,-38.5 293.5,-57.5 372.5,-57.5 372.5,-38.5 293.5,-38.5"/>
<text text-anchor="middle" x="333" y="-45.5" font-family="Helvetica,sans-Serif" font-size="10.00">LLU::WS::List</text>
</a>
</g>
</g>
<!-- Node2&#45;&gt;Node4 -->
<g id="edge4" class="edge">
<title>Node2&#45;&gt;Node4</title>
<path fill="none" stroke="midnightblue" d="M247.06,-48C262.75,-48 279.23,-48 293.46,-48"/>
<polygon fill="midnightblue" stroke="midnightblue" points="246.9,-44.5 236.9,-48 246.9,-51.5 246.9,-44.5"/>
</g>
<!-- Node5 -->
<g id="node6" class="node">
<title>Node5</title>
<g id="a_node6"><a xlink:href="structLLU_1_1WS_1_1Missing.html" target="_top" xlink:title="Special type of a Function which corresponds to the Missing expression when exchanged with the Kernel...">
<polygon fill="white" stroke="black" points="284.5,-0.5 284.5,-19.5 381.5,-19.5 381.5,-0.5 284.5,-0.5"/>
<text text-anchor="middle" x="333" y="-7.5" font-family="Helvetica,sans-Serif" font-size="10.00">LLU::WS::Missing</text>
</a>
</g>
</g>
<!-- Node2&#45;&gt;Node5 -->
<g id="edge5" class="edge">
<title>Node2&#45;&gt;Node5</title>
<path fill="none" stroke="midnightblue" d="M233.49,-35.82C253.62,-30.54 276.84,-24.46 295.67,-19.52"/>
<polygon fill="midnightblue" stroke="midnightblue" points="232.38,-32.49 223.59,-38.41 234.15,-39.26 232.38,-32.49"/>
</g>
</g>
</svg>
