<?xml version="1.0" encoding="UTF-8" standalone="no"?>
<!DOCTYPE svg PUBLIC "-//W3C//DTD SVG 1.1//EN"
 "http://www.w3.org/Graphics/SVG/1.1/DTD/svg11.dtd">
<!-- Generated by graphviz version 2.43.0 (0)
 -->
<!-- Title: Graphical Class Hierarchy Pages: 1 -->
<svg width="751pt" height="456pt"
 viewBox="0.00 0.00 751.00 455.64" xmlns="http://www.w3.org/2000/svg" xmlns:xlink="http://www.w3.org/1999/xlink">
<g id="graph0" class="graph" transform="scale(1 1) rotate(0) translate(4 451.64)">
<title>Graphical Class Hierarchy</title>
<polygon fill="white" stroke="transparent" points="-4,4 -4,-451.64 747,-451.64 747,4 -4,4"/>
<!-- Node64 -->
<g id="node1" class="node">
<title>Node64</title>
<g id="a_node1"><a xlink:href="structLLU_1_1ImageInterface.html" target="_top" xlink:title="Abstract class that defines a basic set of operations on an image.">
<polygon fill="white" stroke="black" points="208,-296 208,-315 314,-315 314,-296 208,-296"/>
<text text-anchor="middle" x="261" y="-303" font-family="Helvetica,sans-Serif" font-size="10.00">LLU::ImageInterface</text>
</a>
</g>
</g>
<!-- Node65 -->
<g id="node2" class="node">
<title>Node65</title>
<g id="a_node2"><a xlink:href="classLLU_1_1ImageView.html" target="_top" xlink:title="Simple, light&#45;weight, non&#45;owning wrappper over MImage.">
<polygon fill="white" stroke="black" points="414,-296 414,-315 503,-315 503,-296 414,-296"/>
<text text-anchor="middle" x="458.5" y="-303" font-family="Helvetica,sans-Serif" font-size="10.00">LLU::ImageView</text>
</a>
</g>
</g>
<!-- Node64&#45;&gt;Node65 -->
<g id="edge1" class="edge">
<title>Node64&#45;&gt;Node65</title>
<path fill="none" stroke="midnightblue" d="M324.22,-305.5C353.37,-305.5 387.4,-305.5 413.78,-305.5"/>
<polygon fill="midnightblue" stroke="midnightblue" points="324.13,-302 314.13,-305.5 324.13,-309 324.13,-302"/>
</g>
<!-- Node42 -->
<g id="node3" class="node">
<title>Node42</title>
<g id="a_node3"><a xlink:href="classLLU_1_1MContainer_3_01MArgumentType_1_1Image_01_4.html" target="_top" xlink:title="MContainer specialization for MImage.">
<polygon fill="white" stroke="black" points="383.5,-246.5 383.5,-276.5 533.5,-276.5 533.5,-246.5 383.5,-246.5"/>
<text text-anchor="start" x="391.5" y="-264.5" font-family="Helvetica,sans-Serif" font-size="10.00">LLU::MContainer&lt; MArgument</text>
<text text-anchor="middle" x="458.5" y="-253.5" font-family="Helvetica,sans-Serif" font-size="10.00">Type::Image &gt;</text>
</a>
</g>
</g>
<!-- Node64&#45;&gt;Node42 -->
<g id="edge2" class="edge">
<title>Node64&#45;&gt;Node42</title>
<path fill="none" stroke="midnightblue" d="M314.84,-293.71C325.49,-291.33 336.6,-288.84 347,-286.5 361.3,-283.28 376.63,-279.82 391.19,-276.53"/>
<polygon fill="midnightblue" stroke="midnightblue" points="313.81,-290.36 304.81,-295.95 315.33,-297.19 313.81,-290.36"/>
</g>
<!-- Node43 -->
<g id="node4" class="node">
<title>Node43</title>
<g id="a_node4"><a xlink:href="classLLU_1_1Image.html" target="_top" xlink:title="This is a class template, where template parameter T is the type of data elements....">
<polygon fill="white" stroke="black" points="610.5,-203 610.5,-222 702.5,-222 702.5,-203 610.5,-203"/>
<text text-anchor="middle" x="656.5" y="-210" font-family="Helvetica,sans-Serif" font-size="10.00">LLU::Image&lt; T &gt;</text>
</a>
</g>
</g>
<!-- Node42&#45;&gt;Node43 -->
<g id="edge3" class="edge">
<title>Node42&#45;&gt;Node43</title>
<path fill="none" stroke="midnightblue" d="M529.52,-244C559.13,-236.59 592.45,-228.26 617.39,-222.03"/>
<polygon fill="midnightblue" stroke="midnightblue" points="528.49,-240.64 519.64,-246.47 530.19,-247.44 528.49,-240.64"/>
</g>
<!-- Node59 -->
<g id="node5" class="node">
<title>Node59</title>
<g id="a_node5"><a xlink:href="classLLU_1_1IterableContainer.html" target="_top" xlink:title="Abstract class that provides iterators (c/r/begin and c/r/end methods) and subscript operator for any...">
<polygon fill="white" stroke="black" points="0,-305 0,-324 139,-324 139,-305 0,-305"/>
<text text-anchor="middle" x="69.5" y="-312" font-family="Helvetica,sans-Serif" font-size="10.00">LLU::IterableContainer&lt; T &gt;</text>
</a>
</g>
</g>
<!-- Node60 -->
<g id="node6" class="node">
<title>Node60</title>
<g id="a_node6"><a xlink:href="classLLU_1_1MArray.html" target="_top" xlink:title="This is a class template, where template parameter T is the type of data elements....">
<polygon fill="white" stroke="black" points="213,-189 213,-208 309,-208 309,-189 213,-189"/>
<text text-anchor="middle" x="261" y="-196" font-family="Helvetica,sans-Serif" font-size="10.00">LLU::MArray&lt; T &gt;</text>
</a>
</g>
</g>
<!-- Node59&#45;&gt;Node60 -->
<g id="edge4" class="edge">
<title>Node59&#45;&gt;Node60</title>
<path fill="none" stroke="midnightblue" d="M89.75,-298.44C110.11,-281.91 143.57,-256.02 175,-237.5 194.72,-225.88 218.5,-215.23 235.89,-208"/>
<polygon fill="midnightblue" stroke="midnightblue" points="87.38,-295.85 81.87,-304.9 91.82,-301.27 87.38,-295.85"/>
</g>
<!-- Node30 -->
<g id="node12" class="node">
<title>Node30</title>
<g id="a_node12"><a xlink:href="classLLU_1_1NumericArrayTypedView.html" target="_top" xlink:title="Simple, light&#45;weight, non&#45;owning wrappper over MNumericArray.">
<polygon fill="white" stroke="black" points="570,-403 570,-422 743,-422 743,-403 570,-403"/>
<text text-anchor="middle" x="656.5" y="-410" font-family="Helvetica,sans-Serif" font-size="10.00">LLU::NumericArrayTypedView&lt; T &gt;</text>
</a>
</g>
</g>
<!-- Node59&#45;&gt;Node30 -->
<g id="edge11" class="edge">
<title>Node59&#45;&gt;Node30</title>
<path fill="none" stroke="midnightblue" d="M82.91,-332.64C100.29,-356.26 134.37,-396.43 175,-412.5 328.01,-473.02 530.49,-440.28 615.37,-422.06"/>
<polygon fill="midnightblue" stroke="midnightblue" points="85.55,-330.31 76.89,-324.2 79.85,-334.38 85.55,-330.31"/>
</g>
<!-- Node61 -->
<g id="node7" class="node">
<title>Node61</title>
<g id="a_node7"><a xlink:href="classLLU_1_1TypedImage.html" target="_top" xlink:title="Typed interface for Image.">
<polygon fill="white" stroke="black" points="399.5,-170 399.5,-189 517.5,-189 517.5,-170 399.5,-170"/>
<text text-anchor="middle" x="458.5" y="-177" font-family="Helvetica,sans-Serif" font-size="10.00">LLU::TypedImage&lt; T &gt;</text>
</a>
</g>
</g>
<!-- Node60&#45;&gt;Node61 -->
<g id="edge5" class="edge">
<title>Node60&#45;&gt;Node61</title>
<path fill="none" stroke="midnightblue" d="M319.47,-192.91C344.66,-190.47 374.18,-187.6 399.44,-185.14"/>
<polygon fill="midnightblue" stroke="midnightblue" points="318.94,-189.45 309.33,-193.9 319.62,-196.42 318.94,-189.45"/>
</g>
<!-- Node62 -->
<g id="node8" class="node">
<title>Node62</title>
<g id="a_node8"><a xlink:href="classLLU_1_1TypedNumericArray.html" target="_top" xlink:title="Typed interface for NumericArray.">
<polygon fill="white" stroke="black" points="383,-208 383,-227 534,-227 534,-208 383,-208"/>
<text text-anchor="middle" x="458.5" y="-215" font-family="Helvetica,sans-Serif" font-size="10.00">LLU::TypedNumericArray&lt; T &gt;</text>
</a>
</g>
</g>
<!-- Node60&#45;&gt;Node62 -->
<g id="edge7" class="edge">
<title>Node60&#45;&gt;Node62</title>
<path fill="none" stroke="midnightblue" d="M319.43,-204.08C339.26,-206.01 361.77,-208.2 382.77,-210.24"/>
<polygon fill="midnightblue" stroke="midnightblue" points="319.62,-200.58 309.33,-203.1 318.94,-207.55 319.62,-200.58"/>
</g>
<!-- Node63 -->
<g id="node10" class="node">
<title>Node63</title>
<g id="a_node10"><a xlink:href="classLLU_1_1TypedTensor.html" target="_top" xlink:title="Typed interface for Tensor.">
<polygon fill="white" stroke="black" points="398.5,-132 398.5,-151 518.5,-151 518.5,-132 398.5,-132"/>
<text text-anchor="middle" x="458.5" y="-139" font-family="Helvetica,sans-Serif" font-size="10.00">LLU::TypedTensor&lt; T &gt;</text>
</a>
</g>
</g>
<!-- Node60&#45;&gt;Node63 -->
<g id="edge9" class="edge">
<title>Node60&#45;&gt;Node63</title>
<path fill="none" stroke="midnightblue" d="M300.39,-185.85C324.1,-178.19 355.2,-168.4 383,-160.5 394.43,-157.25 406.91,-153.96 418.34,-151.06"/>
<polygon fill="midnightblue" stroke="midnightblue" points="299.15,-182.58 290.72,-189 301.31,-189.24 299.15,-182.58"/>
</g>
<!-- Node61&#45;&gt;Node43 -->
<g id="edge6" class="edge">
<title>Node61&#45;&gt;Node43</title>
<path fill="none" stroke="midnightblue" d="M525.97,-190.69C553.75,-195.37 585.3,-200.68 610.32,-204.89"/>
<polygon fill="midnightblue" stroke="midnightblue" points="526.37,-187.21 515.93,-189 525.21,-194.11 526.37,-187.21"/>
</g>
<!-- Node28 -->
<g id="node9" class="node">
<title>Node28</title>
<g id="a_node9"><a xlink:href="classLLU_1_1NumericArray.html" target="_top" xlink:title="This is a class template, where template parameter T is the type of data elements....">
<polygon fill="white" stroke="black" points="594,-274 594,-293 719,-293 719,-274 594,-274"/>
<text text-anchor="middle" x="656.5" y="-281" font-family="Helvetica,sans-Serif" font-size="10.00">LLU::NumericArray&lt; T &gt;</text>
</a>
</g>
</g>
<!-- Node62&#45;&gt;Node28 -->
<g id="edge8" class="edge">
<title>Node62&#45;&gt;Node28</title>
<path fill="none" stroke="midnightblue" d="M507.75,-229.7C516.53,-232.13 525.57,-234.78 534,-237.5 568.77,-248.72 608.19,-264.16 632.45,-273.99"/>
<polygon fill="midnightblue" stroke="midnightblue" points="508.57,-226.29 498,-227.05 506.73,-233.05 508.57,-226.29"/>
</g>
<!-- Node2 -->
<g id="node11" class="node">
<title>Node2</title>
<g id="a_node11"><a xlink:href="classLLU_1_1Tensor.html" target="_top" xlink:title="This is a class template, where template parameter T is the type of data elements....">
<polygon fill="white" stroke="black" points="609.5,-110 609.5,-129 703.5,-129 703.5,-110 609.5,-110"/>
<text text-anchor="middle" x="656.5" y="-117" font-family="Helvetica,sans-Serif" font-size="10.00">LLU::Tensor&lt; T &gt;</text>
</a>
</g>
</g>
<!-- Node63&#45;&gt;Node2 -->
<g id="edge10" class="edge">
<title>Node63&#45;&gt;Node2</title>
<path fill="none" stroke="midnightblue" d="M528.65,-133.74C555.38,-130.74 585.27,-127.38 609.31,-124.68"/>
<polygon fill="midnightblue" stroke="midnightblue" points="528.12,-130.28 518.57,-134.87 528.9,-137.23 528.12,-130.28"/>
</g>
<!-- Node56 -->
<g id="node13" class="node">
<title>Node56</title>
<g id="a_node13"><a xlink:href="classLLU_1_1IterableContainer.html" target="_top" xlink:title=" ">
<polygon fill="white" stroke="black" points="12,-0.5 12,-30.5 127,-30.5 127,-0.5 12,-0.5"/>
<text text-anchor="start" x="20" y="-18.5" font-family="Helvetica,sans-Serif" font-size="10.00">LLU::IterableContainer</text>
<text text-anchor="middle" x="69.5" y="-7.5" font-family="Helvetica,sans-Serif" font-size="10.00">&lt; double &gt;</text>
</a>
</g>
</g>
<!-- Node57 -->
<g id="node14" class="node">
<title>Node57</title>
<g id="a_node14"><a xlink:href="classLLU_1_1MArray.html" target="_top" xlink:title=" ">
<polygon fill="white" stroke="black" points="201.5,-6 201.5,-25 320.5,-25 320.5,-6 201.5,-6"/>
<text text-anchor="middle" x="261" y="-13" font-family="Helvetica,sans-Serif" font-size="10.00">LLU::MArray&lt; double &gt;</text>
</a>
</g>
</g>
<!-- Node56&#45;&gt;Node57 -->
<g id="edge12" class="edge">
<title>Node56&#45;&gt;Node57</title>
<path fill="none" stroke="midnightblue" d="M137.19,-15.5C158.13,-15.5 181.06,-15.5 201.39,-15.5"/>
<polygon fill="midnightblue" stroke="midnightblue" points="137.1,-12 127.1,-15.5 137.1,-19 137.1,-12"/>
</g>
<!-- Node58 -->
<g id="node15" class="node">
<title>Node58</title>
<g id="a_node15"><a xlink:href="classLLU_1_1TypedTensor.html" target="_top" xlink:title=" ">
<polygon fill="white" stroke="black" points="387,-6 387,-25 530,-25 530,-6 387,-6"/>
<text text-anchor="middle" x="458.5" y="-13" font-family="Helvetica,sans-Serif" font-size="10.00">LLU::TypedTensor&lt; double &gt;</text>
</a>
</g>
</g>
<!-- Node57&#45;&gt;Node58 -->
<g id="edge13" class="edge">
<title>Node57&#45;&gt;Node58</title>
<path fill="none" stroke="midnightblue" d="M330.85,-15.5C348.99,-15.5 368.58,-15.5 386.81,-15.5"/>
<polygon fill="midnightblue" stroke="midnightblue" points="330.66,-12 320.66,-15.5 330.66,-19 330.66,-12"/>
</g>
<!-- Node3 -->
<g id="node16" class="node">
<title>Node3</title>
<g id="a_node16"><a xlink:href="classLLU_1_1Tensor.html" target="_top" xlink:title=" ">
<polygon fill="white" stroke="black" points="598.5,-50 598.5,-69 714.5,-69 714.5,-50 598.5,-50"/>
<text text-anchor="middle" x="656.5" y="-57" font-family="Helvetica,sans-Serif" font-size="10.00">LLU::Tensor&lt; double &gt;</text>
</a>
</g>
</g>
<!-- Node58&#45;&gt;Node3 -->
<g id="edge14" class="edge">
<title>Node58&#45;&gt;Node3</title>
<path fill="none" stroke="midnightblue" d="M511.99,-27.28C543.63,-34.39 583.41,-43.32 613.05,-49.97"/>
<polygon fill="midnightblue" stroke="midnightblue" points="512.55,-23.82 502.03,-25.05 511.02,-30.65 512.55,-23.82"/>
</g>
<!-- Node41 -->
<g id="node17" class="node">
<title>Node41</title>
<g id="a_node17"><a xlink:href="classLLU_1_1MContainerBase.html" target="_top" xlink:title=" ">
<polygon fill="white" stroke="black" points="191.5,-246.5 191.5,-276.5 330.5,-276.5 330.5,-246.5 191.5,-246.5"/>
<text text-anchor="start" x="199.5" y="-264.5" font-family="Helvetica,sans-Serif" font-size="10.00">LLU::MContainerBase</text>
<text text-anchor="middle" x="261" y="-253.5" font-family="Helvetica,sans-Serif" font-size="10.00">&lt; MArgumentType::Image &gt;</text>
</a>
</g>
</g>
<!-- Node41&#45;&gt;Node42 -->
<g id="edge15" class="edge">
<title>Node41&#45;&gt;Node42</title>
<path fill="none" stroke="midnightblue" d="M340.77,-261.5C354.83,-261.5 369.44,-261.5 383.36,-261.5"/>
<polygon fill="midnightblue" stroke="midnightblue" points="340.65,-258 330.65,-261.5 340.65,-265 340.65,-258"/>
</g>
<!-- Node40 -->
<g id="node18" class="node">
<title>Node40</title>
<g id="a_node18"><a xlink:href="classLLU_1_1MContainerBase.html" target="_top" xlink:title=" ">
<polygon fill="white" stroke="black" points="175,-334.5 175,-364.5 347,-364.5 347,-334.5 175,-334.5"/>
<text text-anchor="start" x="183" y="-352.5" font-family="Helvetica,sans-Serif" font-size="10.00">LLU::MContainerBase</text>
<text text-anchor="middle" x="261" y="-341.5" font-family="Helvetica,sans-Serif" font-size="10.00">&lt; MArgumentType::NumericArray &gt;</text>
</a>
</g>
</g>
<!-- Node27 -->
<g id="node19" class="node">
<title>Node27</title>
<g id="a_node19"><a xlink:href="classLLU_1_1MContainer_3_01MArgumentType_1_1NumericArray_01_4.html" target="_top" xlink:title="MContainer specialization for MNumericArray.">
<polygon fill="white" stroke="black" points="383.5,-334.5 383.5,-364.5 533.5,-364.5 533.5,-334.5 383.5,-334.5"/>
<text text-anchor="start" x="391.5" y="-352.5" font-family="Helvetica,sans-Serif" font-size="10.00">LLU::MContainer&lt; MArgument</text>
<text text-anchor="middle" x="458.5" y="-341.5" font-family="Helvetica,sans-Serif" font-size="10.00">Type::NumericArray &gt;</text>
</a>
</g>
</g>
<!-- Node40&#45;&gt;Node27 -->
<g id="edge16" class="edge">
<title>Node40&#45;&gt;Node27</title>
<path fill="none" stroke="midnightblue" d="M357.38,-349.5C366.1,-349.5 374.84,-349.5 383.33,-349.5"/>
<polygon fill="midnightblue" stroke="midnightblue" points="357.18,-346 347.18,-349.5 357.18,-353 357.18,-346"/>
</g>
<!-- Node27&#45;&gt;Node28 -->
<g id="edge17" class="edge">
<title>Node27&#45;&gt;Node28</title>
<path fill="none" stroke="midnightblue" d="M514.14,-331.18C520.83,-328.93 527.57,-326.66 534,-324.5 565.86,-313.78 602.41,-301.44 627.03,-293.12"/>
<polygon fill="midnightblue" stroke="midnightblue" points="512.78,-327.94 504.42,-334.44 515.01,-334.58 512.78,-327.94"/>
</g>
<!-- Node36 -->
<g id="node20" class="node">
<title>Node36</title>
<g id="a_node20"><a xlink:href="classLLU_1_1MContainerBase.html" target="_top" xlink:title=" ">
<polygon fill="white" stroke="black" points="190.5,-82.5 190.5,-112.5 331.5,-112.5 331.5,-82.5 190.5,-82.5"/>
<text text-anchor="start" x="198.5" y="-100.5" font-family="Helvetica,sans-Serif" font-size="10.00">LLU::MContainerBase</text>
<text text-anchor="middle" x="261" y="-89.5" font-family="Helvetica,sans-Serif" font-size="10.00">&lt; MArgumentType::Tensor &gt;</text>
</a>
</g>
</g>
<!-- Node1 -->
<g id="node21" class="node">
<title>Node1</title>
<g id="a_node21"><a xlink:href="classLLU_1_1MContainer_3_01MArgumentType_1_1Tensor_01_4.html" target="_top" xlink:title="MContainer specialization for MTensor.">
<polygon fill="white" stroke="black" points="383.5,-82.5 383.5,-112.5 533.5,-112.5 533.5,-82.5 383.5,-82.5"/>
<text text-anchor="start" x="391.5" y="-100.5" font-family="Helvetica,sans-Serif" font-size="10.00">LLU::MContainer&lt; MArgument</text>
<text text-anchor="middle" x="458.5" y="-89.5" font-family="Helvetica,sans-Serif" font-size="10.00">Type::Tensor &gt;</text>
</a>
</g>
</g>
<!-- Node36&#45;&gt;Node1 -->
<g id="edge18" class="edge">
<title>Node36&#45;&gt;Node1</title>
<path fill="none" stroke="midnightblue" d="M342.11,-97.5C355.79,-97.5 369.96,-97.5 383.47,-97.5"/>
<polygon fill="midnightblue" stroke="midnightblue" points="341.75,-94 331.75,-97.5 341.75,-101 341.75,-94"/>
</g>
<!-- Node1&#45;&gt;Node2 -->
<g id="edge19" class="edge">
<title>Node1&#45;&gt;Node2</title>
<path fill="none" stroke="midnightblue" d="M543.55,-106.93C566.15,-109.47 589.76,-112.12 609.44,-114.33"/>
<polygon fill="midnightblue" stroke="midnightblue" points="543.93,-103.45 533.6,-105.82 543.15,-110.41 543.93,-103.45"/>
</g>
<!-- Node1&#45;&gt;Node3 -->
<g id="edge20" class="edge">
<title>Node1&#45;&gt;Node3</title>
<path fill="none" stroke="midnightblue" d="M543.66,-81.18C565.01,-77.04 587.26,-72.73 606.23,-69.05"/>
<polygon fill="midnightblue" stroke="midnightblue" points="542.75,-77.79 533.6,-83.13 544.08,-84.67 542.75,-77.79"/>
</g>
<!-- Node26 -->
<g id="node22" class="node">
<title>Node26</title>
<g id="a_node22"><a xlink:href="structLLU_1_1NumericArrayInterface.html" target="_top" xlink:title="Abstract class that defines a basic set of operations on a numeric array.">
<polygon fill="white" stroke="black" points="191.5,-384 191.5,-403 330.5,-403 330.5,-384 191.5,-384"/>
<text text-anchor="middle" x="261" y="-391" font-family="Helvetica,sans-Serif" font-size="10.00">LLU::NumericArrayInterface</text>
</a>
</g>
</g>
<!-- Node26&#45;&gt;Node27 -->
<g id="edge21" class="edge">
<title>Node26&#45;&gt;Node27</title>
<path fill="none" stroke="midnightblue" d="M314.84,-381.71C325.49,-379.33 336.6,-376.84 347,-374.5 361.3,-371.28 376.63,-367.82 391.19,-364.53"/>
<polygon fill="midnightblue" stroke="midnightblue" points="313.81,-378.36 304.81,-383.95 315.33,-385.19 313.81,-378.36"/>
</g>
<!-- Node29 -->
<g id="node23" class="node">
<title>Node29</title>
<g id="a_node23"><a xlink:href="classLLU_1_1NumericArrayView.html" target="_top" xlink:title="Simple, light&#45;weight, non&#45;owning, data&#45;type&#45;agnostic wrappper over MNumericArray.">
<polygon fill="white" stroke="black" points="397.5,-384 397.5,-403 519.5,-403 519.5,-384 397.5,-384"/>
<text text-anchor="middle" x="458.5" y="-391" font-family="Helvetica,sans-Serif" font-size="10.00">LLU::NumericArrayView</text>
</a>
</g>
</g>
<!-- Node26&#45;&gt;Node29 -->
<g id="edge22" class="edge">
<title>Node26&#45;&gt;Node29</title>
<path fill="none" stroke="midnightblue" d="M340.74,-393.5C359.65,-393.5 379.56,-393.5 397.47,-393.5"/>
<polygon fill="midnightblue" stroke="midnightblue" points="340.65,-390 330.65,-393.5 340.65,-397 340.65,-390"/>
</g>
<!-- Node29&#45;&gt;Node30 -->
<g id="edge23" class="edge">
<title>Node29&#45;&gt;Node30</title>
<path fill="none" stroke="midnightblue" d="M529.87,-400.32C542.84,-401.58 556.51,-402.9 569.87,-404.2"/>
<polygon fill="midnightblue" stroke="midnightblue" points="529.93,-396.81 519.64,-399.33 529.25,-403.78 529.93,-396.81"/>
</g>
<!-- Node0 -->
<g id="node24" class="node">
<title>Node0</title>
<g id="a_node24"><a xlink:href="structLLU_1_1TensorInterface.html" target="_top" xlink:title="Abstract class that defines a basic set of operations on a tensor.">
<polygon fill="white" stroke="black" points="207,-44 207,-63 315,-63 315,-44 207,-44"/>
<text text-anchor="middle" x="261" y="-51" font-family="Helvetica,sans-Serif" font-size="10.00">LLU::TensorInterface</text>
</a>
</g>
</g>
<!-- Node0&#45;&gt;Node1 -->
<g id="edge24" class="edge">
<title>Node0&#45;&gt;Node1</title>
<path fill="none" stroke="midnightblue" d="M314.84,-65.29C325.49,-67.67 336.6,-70.16 347,-72.5 361.3,-75.72 376.63,-79.18 391.19,-82.47"/>
<polygon fill="midnightblue" stroke="midnightblue" points="315.33,-61.81 304.81,-63.05 313.81,-68.64 315.33,-61.81"/>
</g>
<!-- Node4 -->
<g id="node25" class="node">
<title>Node4</title>
<g id="a_node25"><a xlink:href="classLLU_1_1TensorView.html" target="_top" xlink:title="Simple, light&#45;weight, non&#45;owning wrappper over MTensor.">
<polygon fill="white" stroke="black" points="412.5,-44 412.5,-63 504.5,-63 504.5,-44 412.5,-44"/>
<text text-anchor="middle" x="458.5" y="-51" font-family="Helvetica,sans-Serif" font-size="10.00">LLU::TensorView</text>
</a>
</g>
</g>
<!-- Node0&#45;&gt;Node4 -->
<g id="edge25" class="edge">
<title>Node0&#45;&gt;Node4</title>
<path fill="none" stroke="midnightblue" d="M325.39,-53.5C353.73,-53.5 386.49,-53.5 412.3,-53.5"/>
<polygon fill="midnightblue" stroke="midnightblue" points="325.16,-50 315.16,-53.5 325.16,-57 325.16,-50"/>
</g>
</g>
</svg>
