<?xml version="1.0" encoding="UTF-8" standalone="no"?>
<!DOCTYPE svg PUBLIC "-//W3C//DTD SVG 1.1//EN"
 "http://www.w3.org/Graphics/SVG/1.1/DTD/svg11.dtd">
<!-- Generated by graphviz version 2.43.0 (0)
 -->
<!-- Title: Interfaces.h Pages: 1 -->
<!--zoomable 644 -->
<svg id="main" version="1.1" xmlns="http://www.w3.org/2000/svg" xmlns:xlink="http://www.w3.org/1999/xlink" xml:space="preserve" onload="init(evt)">
<style type="text/css"><![CDATA[
.edge:hover path { stroke: red; }
.edge:hover polygon { stroke: red; fill: red; }
]]></style>
<script type="text/javascript"><![CDATA[
var edges = document.getElementsByTagName('g');
if (edges && edges.length) {
  for (var i=0;i<edges.length;i++) {
    if (edges[i].id.substr(0,4)=='edge') {
      edges[i].setAttribute('class','edge');
    }
  }
}
]]></script>
        <defs>
                <circle id="rim" cx="0" cy="0" r="7"/>
                <circle id="rim2" cx="0" cy="0" r="3.5"/>
                <g id="zoomPlus">
                        <use xlink:href="#rim" fill="#404040">
                                <set attributeName="fill" to="#808080" begin="zoomplus.mouseover" end="zoomplus.mouseout"/>
                        </use>
                        <path d="M-4,0h8M0,-4v8" fill="none" stroke="white" stroke-width="1.5" pointer-events="none"/>
                </g>
                <g id="zoomMin">
                        <use xlink:href="#rim" fill="#404040">
                                <set attributeName="fill" to="#808080" begin="zoomminus.mouseover" end="zoomminus.mouseout"/>
                        </use>
                        <path d="M-4,0h8" fill="none" stroke="white" stroke-width="1.5" pointer-events="none"/>
                </g>
                <g id="dirArrow">
                        <path fill="none" stroke="white" stroke-width="1.5" d="M0,-3.0v7 M-2.5,-0.5L0,-3.0L2.5,-0.5"/>
                </g>
               <g id="resetDef">
                       <use xlink:href="#rim2" fill="#404040">
                               <set attributeName="fill" to="#808080" begin="reset.mouseover" end="reset.mouseout"/>
                       </use>
               </g>
        </defs>

<script type="text/javascript">
var viewWidth = 963;
var viewHeight = 644;
var sectionId = 'dynsection-1';
</script>
<script xlink:href="svgpan.js"/>
<svg id="graph" class="graph">
<g id="viewport">
<title>Interfaces.h</title>
<polygon fill="white" stroke="transparent" points="-4,4 -4,-640 959.04,-640 959.04,4 -4,4"/>
<!-- Node1 -->
<g id="node1" class="node">
<title>Node1</title>
<g id="a_node1"><a xlink:title=" ">
<polygon fill="#bfbfbf" stroke="black" points="525.04,-616.5 525.04,-635.5 593.04,-635.5 593.04,-616.5 525.04,-616.5"/>
<text text-anchor="middle" x="559.04" y="-623.5" font-family="Helvetica,sans-Serif" font-size="10.00">Interfaces.h</text>
</a>
</g>
</g>
<!-- Node2 -->
<g id="node2" class="node">
<title>Node2</title>
<g id="a_node2"><a xlink:href="Base_8hpp.html" target="_top" xlink:title="Definitions of MContainerBase and MContainer class templates.">
<polygon fill="white" stroke="black" points="530.04,-560.5 530.04,-579.5 588.04,-579.5 588.04,-560.5 530.04,-560.5"/>
<text text-anchor="middle" x="559.04" y="-567.5" font-family="Helvetica,sans-Serif" font-size="10.00">Base.hpp</text>
</a>
</g>
</g>
<!-- Node1&#45;&gt;Node2 -->
<g id="edge1" class="edge">
<title>Node1&#45;&gt;Node2</title>
<path fill="none" stroke="midnightblue" d="M559.04,-605.8C559.04,-596.91 559.04,-586.78 559.04,-579.75"/>
<polygon fill="midnightblue" stroke="midnightblue" points="555.54,-606.08 559.04,-616.08 562.54,-606.08 555.54,-606.08"/>
</g>
<!-- Node14 -->
<g id="node14" class="node">
<title>Node14</title>
<g id="a_node14"><a xlink:href="Generic_2Image_8hpp.html" target="_top" xlink:title="GenericImage definition and implementation.">
<polygon fill="white" stroke="black" points="268.04,-448.5 268.04,-467.5 330.04,-467.5 330.04,-448.5 268.04,-448.5"/>
<text text-anchor="middle" x="299.04" y="-455.5" font-family="Helvetica,sans-Serif" font-size="10.00">Image.hpp</text>
</a>
</g>
</g>
<!-- Node1&#45;&gt;Node14 -->
<g id="edge60" class="edge">
<title>Node1&#45;&gt;Node14</title>
<path fill="none" stroke="midnightblue" d="M536.88,-610.85C484.58,-577.46 354.71,-494.55 312.52,-467.61"/>
<polygon fill="midnightblue" stroke="midnightblue" points="535.11,-613.88 545.42,-616.31 538.88,-607.98 535.11,-613.88"/>
</g>
<!-- Node17 -->
<g id="node17" class="node">
<title>Node17</title>
<g id="a_node17"><a xlink:href="Views_2Image_8hpp.html" target="_top" xlink:title="Definition and implementation of ImageView and ImageTypedView.">
<polygon fill="white" stroke="black" points="122.04,-392.5 122.04,-411.5 184.04,-411.5 184.04,-392.5 122.04,-392.5"/>
<text text-anchor="middle" x="153.04" y="-399.5" font-family="Helvetica,sans-Serif" font-size="10.00">Image.hpp</text>
</a>
</g>
</g>
<!-- Node1&#45;&gt;Node17 -->
<g id="edge63" class="edge">
<title>Node1&#45;&gt;Node17</title>
<path fill="none" stroke="midnightblue" d="M528.93,-612.46C508.66,-603.81 481.47,-591.78 458.04,-580 341.81,-521.56 208.38,-438.18 166.4,-411.53"/>
<polygon fill="midnightblue" stroke="midnightblue" points="527.7,-615.74 538.27,-616.42 530.43,-609.29 527.7,-615.74"/>
</g>
<!-- Node20 -->
<g id="node20" class="node">
<title>Node20</title>
<g id="a_node20"><a xlink:href="Generic_2NumericArray_8hpp.html" target="_top" xlink:title="GenericNumericArray definition and implementation.">
<polygon fill="white" stroke="black" points="711.04,-448.5 711.04,-467.5 805.04,-467.5 805.04,-448.5 711.04,-448.5"/>
<text text-anchor="middle" x="758.04" y="-455.5" font-family="Helvetica,sans-Serif" font-size="10.00">NumericArray.hpp</text>
</a>
</g>
</g>
<!-- Node1&#45;&gt;Node20 -->
<g id="edge61" class="edge">
<title>Node1&#45;&gt;Node20</title>
<path fill="none" stroke="midnightblue" d="M577.84,-610.08C588.76,-601.38 602.74,-590.14 615.04,-580 665.47,-538.41 724.86,-487.54 748.06,-467.6"/>
<polygon fill="midnightblue" stroke="midnightblue" points="575.48,-607.49 569.84,-616.45 579.84,-612.97 575.48,-607.49"/>
</g>
<!-- Node22 -->
<g id="node22" class="node">
<title>Node22</title>
<g id="a_node22"><a xlink:href="Views_2NumericArray_8hpp.html" target="_top" xlink:title="Definition and implementation of NumericArrayView and NumericArrayTypedView.">
<polygon fill="white" stroke="black" points="861.04,-392.5 861.04,-411.5 955.04,-411.5 955.04,-392.5 861.04,-392.5"/>
<text text-anchor="middle" x="908.04" y="-399.5" font-family="Helvetica,sans-Serif" font-size="10.00">NumericArray.hpp</text>
</a>
</g>
</g>
<!-- Node1&#45;&gt;Node22 -->
<g id="edge64" class="edge">
<title>Node1&#45;&gt;Node22</title>
<path fill="none" stroke="midnightblue" d="M584.18,-611.58C600.3,-602.84 621.58,-591.05 640.04,-580 741.46,-519.27 858.69,-437.74 896,-411.51"/>
<polygon fill="midnightblue" stroke="midnightblue" points="582.49,-608.51 575.35,-616.34 585.81,-614.67 582.49,-608.51"/>
</g>
<!-- Node27 -->
<g id="node27" class="node">
<title>Node27</title>
<g id="a_node27"><a xlink:href="Generic_2Tensor_8hpp.html" target="_top" xlink:title="GenericTensor definition and implementation.">
<polygon fill="white" stroke="black" points="467.04,-504.5 467.04,-523.5 531.04,-523.5 531.04,-504.5 467.04,-504.5"/>
<text text-anchor="middle" x="499.04" y="-511.5" font-family="Helvetica,sans-Serif" font-size="10.00">Tensor.hpp</text>
</a>
</g>
</g>
<!-- Node1&#45;&gt;Node27 -->
<g id="edge62" class="edge">
<title>Node1&#45;&gt;Node27</title>
<path fill="none" stroke="midnightblue" d="M543.08,-609.13C535.58,-600.98 526.99,-590.55 521.04,-580 510.5,-561.32 503.9,-536.78 500.92,-523.85"/>
<polygon fill="midnightblue" stroke="midnightblue" points="540.64,-611.65 550.09,-616.45 545.7,-606.81 540.64,-611.65"/>
</g>
<!-- Node32 -->
<g id="node32" class="node">
<title>Node32</title>
<g id="a_node32"><a xlink:href="Views_2Tensor_8hpp.html" target="_top" xlink:title="Definition and implementation of TensorView and TensorTypedView.">
<polygon fill="white" stroke="black" points="591.04,-448.5 591.04,-467.5 655.04,-467.5 655.04,-448.5 591.04,-448.5"/>
<text text-anchor="middle" x="623.04" y="-455.5" font-family="Helvetica,sans-Serif" font-size="10.00">Tensor.hpp</text>
</a>
</g>
</g>
<!-- Node1&#45;&gt;Node32 -->
<g id="edge65" class="edge">
<title>Node1&#45;&gt;Node32</title>
<path fill="none" stroke="midnightblue" d="M575.82,-609.1C583.37,-601.06 591.76,-590.74 597.04,-580 616.17,-541.04 621.3,-488.23 622.61,-467.68"/>
<polygon fill="midnightblue" stroke="midnightblue" points="573.23,-606.75 568.68,-616.32 578.2,-611.67 573.23,-606.75"/>
</g>
<!-- Node3 -->
<g id="node3" class="node">
<title>Node3</title>
<g id="a_node3"><a xlink:href="Generic_2DataStore_8hpp.html" target="_top" xlink:title="Definition and implementation of generic DataStore wrapper.">
<polygon fill="white" stroke="black" points="611.04,-280.5 611.04,-299.5 691.04,-299.5 691.04,-280.5 611.04,-280.5"/>
<text text-anchor="middle" x="651.04" y="-287.5" font-family="Helvetica,sans-Serif" font-size="10.00">DataStore.hpp</text>
</a>
</g>
</g>
<!-- Node2&#45;&gt;Node3 -->
<g id="edge2" class="edge">
<title>Node2&#45;&gt;Node3</title>
<path fill="none" stroke="midnightblue" d="M582.5,-554.82C608.07,-537.84 647.54,-506.76 664.04,-468 689.62,-407.9 663.92,-325.95 654.32,-299.56"/>
<polygon fill="midnightblue" stroke="midnightblue" points="580.29,-552.08 573.77,-560.43 584.08,-557.96 580.29,-552.08"/>
</g>
<!-- Node2&#45;&gt;Node14 -->
<g id="edge15" class="edge">
<title>Node2&#45;&gt;Node14</title>
<path fill="none" stroke="midnightblue" d="M529.36,-556.45C475.97,-533.86 365.01,-486.91 319.34,-467.59"/>
<polygon fill="midnightblue" stroke="midnightblue" points="528.06,-559.7 538.64,-560.37 530.79,-553.25 528.06,-559.7"/>
</g>
<!-- Node2&#45;&gt;Node20 -->
<g id="edge32" class="edge">
<title>Node2&#45;&gt;Node20</title>
<path fill="none" stroke="midnightblue" d="M589.81,-556.43C609.65,-547.98 635.8,-536.19 658.04,-524 691.08,-505.88 727.68,-480.67 746.08,-467.61"/>
<polygon fill="midnightblue" stroke="midnightblue" points="588.2,-553.3 580.34,-560.41 590.92,-559.76 588.2,-553.3"/>
</g>
<!-- Node24 -->
<g id="node24" class="node">
<title>Node24</title>
<g id="a_node24"><a xlink:href="SparseArray_8hpp.html" target="_top" xlink:title="GenericSparseArray definition and implementation.">
<polygon fill="white" stroke="black" points="485.04,-448.5 485.04,-467.5 573.04,-467.5 573.04,-448.5 485.04,-448.5"/>
<text text-anchor="middle" x="529.04" y="-455.5" font-family="Helvetica,sans-Serif" font-size="10.00">SparseArray.hpp</text>
</a>
</g>
</g>
<!-- Node2&#45;&gt;Node24 -->
<g id="edge41" class="edge">
<title>Node2&#45;&gt;Node24</title>
<path fill="none" stroke="midnightblue" d="M554.04,-550.67C547.48,-526.62 536.23,-485.39 531.38,-467.59"/>
<polygon fill="midnightblue" stroke="midnightblue" points="550.68,-551.64 556.68,-560.37 557.43,-549.8 550.68,-551.64"/>
</g>
<!-- Node2&#45;&gt;Node27 -->
<g id="edge47" class="edge">
<title>Node2&#45;&gt;Node27</title>
<path fill="none" stroke="midnightblue" d="M541.86,-553.54C531.16,-543.91 517.78,-531.87 508.85,-523.83"/>
<polygon fill="midnightblue" stroke="midnightblue" points="539.62,-556.24 549.4,-560.32 544.31,-551.03 539.62,-556.24"/>
</g>
<!-- Node4 -->
<g id="node4" class="node">
<title>Node4</title>
<g id="a_node4"><a xlink:href="DataList_8h.html" target="_top" xlink:title="Definition of templated DataStore wrapper called DataList.">
<polygon fill="white" stroke="black" points="388.04,-112.5 388.04,-131.5 450.04,-131.5 450.04,-112.5 388.04,-112.5"/>
<text text-anchor="middle" x="419.04" y="-119.5" font-family="Helvetica,sans-Serif" font-size="10.00">DataList.h</text>
</a>
</g>
</g>
<!-- Node3&#45;&gt;Node4 -->
<g id="edge3" class="edge">
<title>Node3&#45;&gt;Node4</title>
<path fill="none" stroke="midnightblue" d="M674.11,-274.71C691.62,-261.96 710.98,-242.5 700.04,-224 673.7,-179.49 646.17,-186.9 598.04,-168 571.27,-157.49 494.03,-139.59 450.27,-129.84"/>
<polygon fill="midnightblue" stroke="midnightblue" points="672.07,-271.86 665.8,-280.4 676.02,-277.64 672.07,-271.86"/>
</g>
<!-- Node10 -->
<g id="node10" class="node">
<title>Node10</title>
<g id="a_node10"><a xlink:href="DataNode_8hpp.html" target="_top" xlink:title=" ">
<polygon fill="white" stroke="black" points="513.04,-224.5 513.04,-243.5 593.04,-243.5 593.04,-224.5 513.04,-224.5"/>
<text text-anchor="middle" x="553.04" y="-231.5" font-family="Helvetica,sans-Serif" font-size="10.00">DataNode.hpp</text>
</a>
</g>
</g>
<!-- Node3&#45;&gt;Node10 -->
<g id="edge10" class="edge">
<title>Node3&#45;&gt;Node10</title>
<path fill="none" stroke="midnightblue" d="M626.45,-275.45C608.36,-265.48 584.3,-252.23 568.74,-243.65"/>
<polygon fill="midnightblue" stroke="midnightblue" points="624.84,-278.56 635.29,-280.32 628.22,-272.43 624.84,-278.56"/>
</g>
<!-- Node12 -->
<g id="node12" class="node">
<title>Node12</title>
<g id="a_node12"><a xlink:href="DataStore_8cpp.html" target="_top" xlink:title=" ">
<polygon fill="white" stroke="black" points="611.04,-224.5 611.04,-243.5 691.04,-243.5 691.04,-224.5 611.04,-224.5"/>
<text text-anchor="middle" x="651.04" y="-231.5" font-family="Helvetica,sans-Serif" font-size="10.00">DataStore.cpp</text>
</a>
</g>
</g>
<!-- Node3&#45;&gt;Node12 -->
<g id="edge13" class="edge">
<title>Node3&#45;&gt;Node12</title>
<path fill="none" stroke="midnightblue" d="M651.04,-269.8C651.04,-260.91 651.04,-250.78 651.04,-243.75"/>
<polygon fill="midnightblue" stroke="midnightblue" points="647.54,-270.08 651.04,-280.08 654.54,-270.08 647.54,-270.08"/>
</g>
<!-- Node13 -->
<g id="node13" class="node">
<title>Node13</title>
<g id="a_node13"><a xlink:href="TypedMArgument_8cpp.html" target="_top" xlink:title=" ">
<polygon fill="white" stroke="black" points="383.04,-224.5 383.04,-243.5 495.04,-243.5 495.04,-224.5 383.04,-224.5"/>
<text text-anchor="middle" x="439.04" y="-231.5" font-family="Helvetica,sans-Serif" font-size="10.00">TypedMArgument.cpp</text>
</a>
</g>
</g>
<!-- Node3&#45;&gt;Node13 -->
<g id="edge14" class="edge">
<title>Node3&#45;&gt;Node13</title>
<path fill="none" stroke="midnightblue" d="M607.69,-277.96C567.65,-267.76 509,-252.82 472.47,-243.52"/>
<polygon fill="midnightblue" stroke="midnightblue" points="606.89,-281.37 617.45,-280.44 608.62,-274.58 606.89,-281.37"/>
</g>
<!-- Node5 -->
<g id="node5" class="node">
<title>Node5</title>
<g id="a_node5"><a xlink:href="LLU_8h.html" target="_top" xlink:title="Header file which includes all major parts of LLU.">
<polygon fill="white" stroke="black" points="387.54,-0.5 387.54,-19.5 430.54,-19.5 430.54,-0.5 387.54,-0.5"/>
<text text-anchor="middle" x="409.04" y="-7.5" font-family="Helvetica,sans-Serif" font-size="10.00">LLU.h</text>
</a>
</g>
</g>
<!-- Node4&#45;&gt;Node5 -->
<g id="edge4" class="edge">
<title>Node4&#45;&gt;Node5</title>
<path fill="none" stroke="midnightblue" d="M417.34,-102.35C415.15,-78.25 411.43,-37.31 409.82,-19.59"/>
<polygon fill="midnightblue" stroke="midnightblue" points="413.86,-102.73 418.25,-112.37 420.83,-102.09 413.86,-102.73"/>
</g>
<!-- Node6 -->
<g id="node6" class="node">
<title>Node6</title>
<g id="a_node6"><a xlink:href="MArgumentManager_8h.html" target="_top" xlink:title="Definition of MArgumentManager class.">
<polygon fill="white" stroke="black" points="153.04,-56.5 153.04,-75.5 265.04,-75.5 265.04,-56.5 153.04,-56.5"/>
<text text-anchor="middle" x="209.04" y="-63.5" font-family="Helvetica,sans-Serif" font-size="10.00">MArgumentManager.h</text>
</a>
</g>
</g>
<!-- Node4&#45;&gt;Node6 -->
<g id="edge5" class="edge">
<title>Node4&#45;&gt;Node6</title>
<path fill="none" stroke="midnightblue" d="M377.73,-110.38C338.14,-100.2 279.14,-85.03 242.43,-75.59"/>
<polygon fill="midnightblue" stroke="midnightblue" points="377.04,-113.81 387.6,-112.92 378.78,-107.04 377.04,-113.81"/>
</g>
<!-- Node6&#45;&gt;Node5 -->
<g id="edge6" class="edge">
<title>Node6&#45;&gt;Node5</title>
<path fill="none" stroke="midnightblue" d="M252.24,-53.78C286.43,-44.83 335.36,-31.88 378.04,-20 381.06,-19.16 384.24,-18.25 387.37,-17.36"/>
<polygon fill="midnightblue" stroke="midnightblue" points="250.92,-50.51 242.13,-56.42 252.69,-57.28 250.92,-50.51"/>
</g>
<!-- Node7 -->
<g id="node7" class="node">
<title>Node7</title>
<g id="a_node7"><a xlink:href="LibraryLinkError_8cpp.html" target="_top" xlink:title="Contains definitions of ErrorManager members and implementation of interface function sendRegisteredE...">
<polygon fill="white" stroke="black" points="43.54,-0.5 43.54,-19.5 146.54,-19.5 146.54,-0.5 43.54,-0.5"/>
<text text-anchor="middle" x="95.04" y="-7.5" font-family="Helvetica,sans-Serif" font-size="10.00">LibraryLinkError.cpp</text>
</a>
</g>
</g>
<!-- Node6&#45;&gt;Node7 -->
<g id="edge7" class="edge">
<title>Node6&#45;&gt;Node7</title>
<path fill="none" stroke="midnightblue" d="M181.8,-52.1C160.5,-42.01 131.5,-28.27 113.02,-19.52"/>
<polygon fill="midnightblue" stroke="midnightblue" points="180.44,-55.33 190.97,-56.44 183.43,-49 180.44,-55.33"/>
</g>
<!-- Node8 -->
<g id="node8" class="node">
<title>Node8</title>
<g id="a_node8"><a xlink:href="Logger_8cpp.html" target="_top" xlink:title="Implementation of functions defined in Logger.h.">
<polygon fill="white" stroke="black" points="165.04,-0.5 165.04,-19.5 229.04,-19.5 229.04,-0.5 165.04,-0.5"/>
<text text-anchor="middle" x="197.04" y="-7.5" font-family="Helvetica,sans-Serif" font-size="10.00">Logger.cpp</text>
</a>
</g>
</g>
<!-- Node6&#45;&gt;Node8 -->
<g id="edge8" class="edge">
<title>Node6&#45;&gt;Node8</title>
<path fill="none" stroke="midnightblue" d="M204.84,-46.1C202.85,-37.14 200.56,-26.86 198.98,-19.75"/>
<polygon fill="midnightblue" stroke="midnightblue" points="201.47,-47.08 207.06,-56.08 208.3,-45.56 201.47,-47.08"/>
</g>
<!-- Node9 -->
<g id="node9" class="node">
<title>Node9</title>
<g id="a_node9"><a xlink:href="MArgumentManager_8cpp.html" target="_top" xlink:title="Definitions of non&#45;template member functions and static data members from MArgumentManager class.">
<polygon fill="white" stroke="black" points="247.04,-0.5 247.04,-19.5 369.04,-19.5 369.04,-0.5 247.04,-0.5"/>
<text text-anchor="middle" x="308.04" y="-7.5" font-family="Helvetica,sans-Serif" font-size="10.00">MArgumentManager.cpp</text>
</a>
</g>
</g>
<!-- Node6&#45;&gt;Node9 -->
<g id="edge9" class="edge">
<title>Node6&#45;&gt;Node9</title>
<path fill="none" stroke="midnightblue" d="M233.87,-51.45C252.15,-41.48 276.45,-28.23 292.17,-19.65"/>
<polygon fill="midnightblue" stroke="midnightblue" points="232.05,-48.46 224.94,-56.32 235.4,-54.61 232.05,-48.46"/>
</g>
<!-- Node11 -->
<g id="node11" class="node">
<title>Node11</title>
<g id="a_node11"><a xlink:href="DataList_8hpp.html" target="_top" xlink:title="Special iterators for DataLists. Iteration over keys, values, reversed iteration.">
<polygon fill="white" stroke="black" points="517.04,-168.5 517.04,-187.5 589.04,-187.5 589.04,-168.5 517.04,-168.5"/>
<text text-anchor="middle" x="553.04" y="-175.5" font-family="Helvetica,sans-Serif" font-size="10.00">DataList.hpp</text>
</a>
</g>
</g>
<!-- Node10&#45;&gt;Node11 -->
<g id="edge11" class="edge">
<title>Node10&#45;&gt;Node11</title>
<path fill="none" stroke="midnightblue" d="M553.04,-213.8C553.04,-204.91 553.04,-194.78 553.04,-187.75"/>
<polygon fill="midnightblue" stroke="midnightblue" points="549.54,-214.08 553.04,-224.08 556.54,-214.08 549.54,-214.08"/>
</g>
<!-- Node11&#45;&gt;Node4 -->
<g id="edge12" class="edge">
<title>Node11&#45;&gt;Node4</title>
<path fill="none" stroke="midnightblue" d="M522.36,-164.64C497.21,-154.5 462.28,-140.43 440.17,-131.52"/>
<polygon fill="midnightblue" stroke="midnightblue" points="521.22,-167.95 531.8,-168.44 523.84,-161.46 521.22,-167.95"/>
</g>
<!-- Node14&#45;&gt;Node13 -->
<g id="edge31" class="edge">
<title>Node14&#45;&gt;Node13</title>
<path fill="none" stroke="midnightblue" d="M309.93,-439.72C338.07,-395.11 412.42,-277.2 433.43,-243.88"/>
<polygon fill="midnightblue" stroke="midnightblue" points="306.9,-437.97 304.53,-448.3 312.82,-441.71 306.9,-437.97"/>
</g>
<!-- Node15 -->
<g id="node15" class="node">
<title>Node15</title>
<g id="a_node15"><a xlink:href="Image_8h.html" target="_top" xlink:title="Templated C++ wrapper for MImage.">
<polygon fill="white" stroke="black" points="202.04,-392.5 202.04,-411.5 254.04,-411.5 254.04,-392.5 202.04,-392.5"/>
<text text-anchor="middle" x="228.04" y="-399.5" font-family="Helvetica,sans-Serif" font-size="10.00">Image.h</text>
</a>
</g>
</g>
<!-- Node14&#45;&gt;Node15 -->
<g id="edge16" class="edge">
<title>Node14&#45;&gt;Node15</title>
<path fill="none" stroke="midnightblue" d="M279.45,-442.1C266.67,-432.38 250.42,-420.03 239.65,-411.83"/>
<polygon fill="midnightblue" stroke="midnightblue" points="277.55,-445.06 287.63,-448.32 281.79,-439.48 277.55,-445.06"/>
</g>
<!-- Node16 -->
<g id="node16" class="node">
<title>Node16</title>
<g id="a_node16"><a xlink:href="Image_8cpp.html" target="_top" xlink:title="Template specializations of Image::type attribute for all data types that we want to support.">
<polygon fill="white" stroke="black" points="230.04,-336.5 230.04,-355.5 292.04,-355.5 292.04,-336.5 230.04,-336.5"/>
<text text-anchor="middle" x="261.04" y="-343.5" font-family="Helvetica,sans-Serif" font-size="10.00">Image.cpp</text>
</a>
</g>
</g>
<!-- Node14&#45;&gt;Node16 -->
<g id="edge30" class="edge">
<title>Node14&#45;&gt;Node16</title>
<path fill="none" stroke="midnightblue" d="M292.71,-438.67C284.4,-414.62 270.15,-373.39 264.01,-355.59"/>
<polygon fill="midnightblue" stroke="midnightblue" points="289.48,-440.06 296.06,-448.37 296.1,-437.77 289.48,-440.06"/>
</g>
<!-- Node14&#45;&gt;Node17 -->
<g id="edge20" class="edge">
<title>Node14&#45;&gt;Node17</title>
<path fill="none" stroke="midnightblue" d="M266.34,-444.91C238.89,-434.75 200.37,-420.51 176.06,-411.52"/>
<polygon fill="midnightblue" stroke="midnightblue" points="265.31,-448.26 275.9,-448.44 267.74,-441.69 265.31,-448.26"/>
</g>
<!-- Node18 -->
<g id="node18" class="node">
<title>Node18</title>
<g id="a_node18"><a xlink:href="TypedMArgument_8h.html" target="_top" xlink:title=" ">
<polygon fill="white" stroke="black" points="453.54,-392.5 453.54,-411.5 554.54,-411.5 554.54,-392.5 453.54,-392.5"/>
<text text-anchor="middle" x="504.04" y="-399.5" font-family="Helvetica,sans-Serif" font-size="10.00">TypedMArgument.h</text>
</a>
</g>
</g>
<!-- Node14&#45;&gt;Node18 -->
<g id="edge22" class="edge">
<title>Node14&#45;&gt;Node18</title>
<path fill="none" stroke="midnightblue" d="M340.07,-446.19C378.77,-436 435.99,-420.92 471.59,-411.55"/>
<polygon fill="midnightblue" stroke="midnightblue" points="338.95,-442.87 330.17,-448.8 340.73,-449.64 338.95,-442.87"/>
</g>
<!-- Node15&#45;&gt;Node5 -->
<g id="edge17" class="edge">
<title>Node15&#45;&gt;Node5</title>
<path fill="none" stroke="midnightblue" d="M224.09,-382.16C221.85,-369.19 219.73,-351.57 221.04,-336 229.51,-235.38 204.28,-196.84 259.04,-112 290.28,-63.6 353.8,-32.69 387.28,-19.07"/>
<polygon fill="midnightblue" stroke="midnightblue" points="220.69,-383.02 226.01,-392.18 227.57,-381.7 220.69,-383.02"/>
</g>
<!-- Node15&#45;&gt;Node6 -->
<g id="edge18" class="edge">
<title>Node15&#45;&gt;Node6</title>
<path fill="none" stroke="midnightblue" d="M211.39,-384.99C192.43,-364.96 164.04,-328.67 164.04,-291 164.04,-291 164.04,-291 164.04,-177 164.04,-136.56 190.42,-93.56 202.78,-75.63"/>
<polygon fill="midnightblue" stroke="midnightblue" points="209.08,-387.64 218.59,-392.31 214.07,-382.73 209.08,-387.64"/>
</g>
<!-- Node15&#45;&gt;Node16 -->
<g id="edge19" class="edge">
<title>Node15&#45;&gt;Node16</title>
<path fill="none" stroke="midnightblue" d="M238.87,-383.27C244.51,-374.05 251.16,-363.17 255.69,-355.75"/>
<polygon fill="midnightblue" stroke="midnightblue" points="235.71,-381.73 233.49,-392.08 241.69,-385.38 235.71,-381.73"/>
</g>
<!-- Node17&#45;&gt;Node5 -->
<g id="edge21" class="edge">
<title>Node17&#45;&gt;Node5</title>
<path fill="none" stroke="midnightblue" d="M112.09,-390.53C67.07,-376.26 1.04,-345.97 1.04,-291 1.04,-291 1.04,-291 1.04,-121 1.04,-90.9 -3.11,-75.24 20.04,-56 81.53,-4.9 299.54,-35.21 378.04,-20 381.12,-19.4 384.33,-18.64 387.48,-17.8"/>
<polygon fill="midnightblue" stroke="midnightblue" points="111.33,-393.95 121.91,-393.5 113.35,-387.25 111.33,-393.95"/>
</g>
<!-- Node18&#45;&gt;Node3 -->
<g id="edge24" class="edge">
<title>Node18&#45;&gt;Node3</title>
<path fill="none" stroke="midnightblue" d="M523.93,-386.12C555.13,-362.77 614.59,-318.27 639.56,-299.59"/>
<polygon fill="midnightblue" stroke="midnightblue" points="521.48,-383.57 515.57,-392.37 525.68,-389.18 521.48,-383.57"/>
</g>
<!-- Node18&#45;&gt;Node4 -->
<g id="edge23" class="edge">
<title>Node18&#45;&gt;Node4</title>
<path fill="none" stroke="midnightblue" d="M484.98,-385.91C454.58,-360.48 396.29,-305.78 374.04,-244 358.84,-201.83 394.86,-151.7 411.34,-131.78"/>
<polygon fill="midnightblue" stroke="midnightblue" points="482.81,-388.66 492.76,-392.29 487.24,-383.24 482.81,-388.66"/>
</g>
<!-- Node18&#45;&gt;Node10 -->
<g id="edge25" class="edge">
<title>Node18&#45;&gt;Node10</title>
<path fill="none" stroke="midnightblue" d="M509.53,-382.39C520.1,-346.59 542.9,-269.34 550.51,-243.57"/>
<polygon fill="midnightblue" stroke="midnightblue" points="506.15,-381.49 506.67,-392.08 512.86,-383.48 506.15,-381.49"/>
</g>
<!-- Node18&#45;&gt;Node13 -->
<g id="edge29" class="edge">
<title>Node18&#45;&gt;Node13</title>
<path fill="none" stroke="midnightblue" d="M496.75,-382.39C482.73,-346.59 452.48,-269.34 442.39,-243.57"/>
<polygon fill="midnightblue" stroke="midnightblue" points="493.64,-384.04 500.54,-392.08 500.16,-381.49 493.64,-384.04"/>
</g>
<!-- Node19 -->
<g id="node19" class="node">
<title>Node19</title>
<g id="a_node19"><a xlink:href="Iterators_2DataStore_8hpp.html" target="_top" xlink:title=" ">
<polygon fill="white" stroke="black" points="687.04,-336.5 687.04,-355.5 767.04,-355.5 767.04,-336.5 687.04,-336.5"/>
<text text-anchor="middle" x="727.04" y="-343.5" font-family="Helvetica,sans-Serif" font-size="10.00">DataStore.hpp</text>
</a>
</g>
</g>
<!-- Node18&#45;&gt;Node19 -->
<g id="edge26" class="edge">
<title>Node18&#45;&gt;Node19</title>
<path fill="none" stroke="midnightblue" d="M549.1,-390.09C591.23,-379.89 653.28,-364.86 691.87,-355.52"/>
<polygon fill="midnightblue" stroke="midnightblue" points="548.27,-386.69 539.37,-392.44 549.92,-393.49 548.27,-386.69"/>
</g>
<!-- Node19&#45;&gt;Node3 -->
<g id="edge27" class="edge">
<title>Node19&#45;&gt;Node3</title>
<path fill="none" stroke="midnightblue" d="M706.46,-330.38C692.73,-320.62 675.11,-308.11 663.47,-299.83"/>
<polygon fill="midnightblue" stroke="midnightblue" points="704.65,-333.38 714.83,-336.32 708.7,-327.68 704.65,-333.38"/>
</g>
<!-- Node19&#45;&gt;Node11 -->
<g id="edge28" class="edge">
<title>Node19&#45;&gt;Node11</title>
<path fill="none" stroke="midnightblue" d="M728.29,-326.23C728.97,-299.94 726.14,-252.21 700.04,-224 671.58,-193.24 622.74,-183.29 589.22,-180.19"/>
<polygon fill="midnightblue" stroke="midnightblue" points="724.78,-326.21 727.82,-336.36 731.78,-326.53 724.78,-326.21"/>
</g>
<!-- Node20&#45;&gt;Node13 -->
<g id="edge40" class="edge">
<title>Node20&#45;&gt;Node13</title>
<path fill="none" stroke="midnightblue" d="M737.08,-442.42C676.07,-399.96 499.84,-277.32 451.46,-243.64"/>
<polygon fill="midnightblue" stroke="midnightblue" points="735.32,-445.46 745.53,-448.3 739.32,-439.71 735.32,-445.46"/>
</g>
<!-- Node20&#45;&gt;Node18 -->
<g id="edge38" class="edge">
<title>Node20&#45;&gt;Node18</title>
<path fill="none" stroke="midnightblue" d="M707.92,-446.35C659.92,-436.14 588.42,-420.94 544.1,-411.52"/>
<polygon fill="midnightblue" stroke="midnightblue" points="707.28,-449.79 717.79,-448.44 708.74,-442.94 707.28,-449.79"/>
</g>
<!-- Node21 -->
<g id="node21" class="node">
<title>Node21</title>
<g id="a_node21"><a xlink:href="NumericArray_8h.html" target="_top" xlink:title="Templated C++ wrapper for MNumericArray.">
<polygon fill="white" stroke="black" points="563.54,-112.5 563.54,-131.5 646.54,-131.5 646.54,-112.5 563.54,-112.5"/>
<text text-anchor="middle" x="605.04" y="-119.5" font-family="Helvetica,sans-Serif" font-size="10.00">NumericArray.h</text>
</a>
</g>
</g>
<!-- Node20&#45;&gt;Node21 -->
<g id="edge33" class="edge">
<title>Node20&#45;&gt;Node21</title>
<path fill="none" stroke="midnightblue" d="M781.86,-442.76C793.08,-434.96 805.78,-424.36 814.04,-412 830.76,-386.98 833.04,-377.1 833.04,-347 833.04,-347 833.04,-347 833.04,-233 833.04,-151.14 712.35,-130.17 646.59,-124.82"/>
<polygon fill="midnightblue" stroke="midnightblue" points="779.72,-439.98 773.29,-448.4 783.57,-445.83 779.72,-439.98"/>
</g>
<!-- Node20&#45;&gt;Node22 -->
<g id="edge36" class="edge">
<title>Node20&#45;&gt;Node22</title>
<path fill="none" stroke="midnightblue" d="M791.26,-445.04C819.49,-434.88 859.3,-420.55 884.38,-411.52"/>
<polygon fill="midnightblue" stroke="midnightblue" points="790.03,-441.76 781.81,-448.44 792.4,-448.35 790.03,-441.76"/>
</g>
<!-- Node23 -->
<g id="node23" class="node">
<title>Node23</title>
<g id="a_node23"><a xlink:href="NumericArray_8cpp.html" target="_top" xlink:title="Definitions of MContainer&lt;MArgumentType::NumericArray&gt; (GenericNumericArray) methods.">
<polygon fill="white" stroke="black" points="711.04,-392.5 711.04,-411.5 805.04,-411.5 805.04,-392.5 711.04,-392.5"/>
<text text-anchor="middle" x="758.04" y="-399.5" font-family="Helvetica,sans-Serif" font-size="10.00">NumericArray.cpp</text>
</a>
</g>
</g>
<!-- Node20&#45;&gt;Node23 -->
<g id="edge39" class="edge">
<title>Node20&#45;&gt;Node23</title>
<path fill="none" stroke="midnightblue" d="M758.04,-437.8C758.04,-428.91 758.04,-418.78 758.04,-411.75"/>
<polygon fill="midnightblue" stroke="midnightblue" points="754.54,-438.08 758.04,-448.08 761.54,-438.08 754.54,-438.08"/>
</g>
<!-- Node21&#45;&gt;Node5 -->
<g id="edge34" class="edge">
<title>Node21&#45;&gt;Node5</title>
<path fill="none" stroke="midnightblue" d="M594.23,-103.4C584.39,-88.77 568.59,-68.39 550.04,-56 512.43,-30.89 459.89,-19.03 430.72,-14.08"/>
<polygon fill="midnightblue" stroke="midnightblue" points="591.44,-105.54 599.8,-112.05 597.32,-101.75 591.44,-105.54"/>
</g>
<!-- Node21&#45;&gt;Node6 -->
<g id="edge35" class="edge">
<title>Node21&#45;&gt;Node6</title>
<path fill="none" stroke="midnightblue" d="M553.29,-111.79C445.94,-95.33 331.66,-81.28 265.19,-73.45"/>
<polygon fill="midnightblue" stroke="midnightblue" points="552.9,-115.27 563.32,-113.33 553.97,-108.35 552.9,-115.27"/>
</g>
<!-- Node22&#45;&gt;Node5 -->
<g id="edge37" class="edge">
<title>Node22&#45;&gt;Node5</title>
<path fill="none" stroke="midnightblue" d="M902.82,-382.39C897.2,-360.65 889.04,-323.51 889.04,-291 889.04,-291 889.04,-291 889.04,-121 889.04,-25.57 523.99,-12.93 430.59,-11.25"/>
<polygon fill="midnightblue" stroke="midnightblue" points="899.5,-383.5 905.47,-392.25 906.26,-381.68 899.5,-383.5"/>
</g>
<!-- Node24&#45;&gt;Node18 -->
<g id="edge46" class="edge">
<title>Node24&#45;&gt;Node18</title>
<path fill="none" stroke="midnightblue" d="M520.7,-438.98C516.45,-429.82 511.49,-419.09 508.09,-411.75"/>
<polygon fill="midnightblue" stroke="midnightblue" points="517.53,-440.48 524.91,-448.08 523.88,-437.54 517.53,-440.48"/>
</g>
<!-- Node25 -->
<g id="node25" class="node">
<title>Node25</title>
<g id="a_node25"><a xlink:href="SparseArray_8h.html" target="_top" xlink:title="Templated C++ wrapper for MSparseArray.">
<polygon fill="white" stroke="black" points="468.54,-112.5 468.54,-131.5 545.54,-131.5 545.54,-112.5 468.54,-112.5"/>
<text text-anchor="middle" x="507.04" y="-119.5" font-family="Helvetica,sans-Serif" font-size="10.00">SparseArray.h</text>
</a>
</g>
</g>
<!-- Node24&#45;&gt;Node25 -->
<g id="edge42" class="edge">
<title>Node24&#45;&gt;Node25</title>
<path fill="none" stroke="midnightblue" d="M560.77,-444.87C625.72,-419.92 768.39,-364.49 776.04,-356 796.19,-333.64 795.04,-321.1 795.04,-291 795.04,-291 795.04,-291 795.04,-233 795.04,-205.77 613.05,-152.32 538.41,-131.55"/>
<polygon fill="midnightblue" stroke="midnightblue" points="559.49,-441.61 551.41,-448.46 562,-448.15 559.49,-441.61"/>
</g>
<!-- Node25&#45;&gt;Node5 -->
<g id="edge43" class="edge">
<title>Node25&#45;&gt;Node5</title>
<path fill="none" stroke="midnightblue" d="M522.35,-104.71C533.39,-90.92 544.63,-71.07 534.04,-56 510.56,-22.6 459.79,-13.87 430.7,-11.67"/>
<polygon fill="midnightblue" stroke="midnightblue" points="519.59,-102.55 515.71,-112.41 524.89,-107.12 519.59,-102.55"/>
</g>
<!-- Node25&#45;&gt;Node6 -->
<g id="edge44" class="edge">
<title>Node25&#45;&gt;Node6</title>
<path fill="none" stroke="midnightblue" d="M458.24,-111.86C381.83,-97.85 305.16,-84.11 256.98,-75.52"/>
<polygon fill="midnightblue" stroke="midnightblue" points="458.06,-115.39 468.53,-113.75 459.33,-108.51 458.06,-115.39"/>
</g>
<!-- Node26 -->
<g id="node26" class="node">
<title>Node26</title>
<g id="a_node26"><a xlink:href="SparseArray_8cpp.html" target="_top" xlink:title="Implementation of GenericSparseArray and SparseArray&lt;T&gt;">
<polygon fill="white" stroke="black" points="437.04,-56.5 437.04,-75.5 525.04,-75.5 525.04,-56.5 437.04,-56.5"/>
<text text-anchor="middle" x="481.04" y="-63.5" font-family="Helvetica,sans-Serif" font-size="10.00">SparseArray.cpp</text>
</a>
</g>
</g>
<!-- Node25&#45;&gt;Node26 -->
<g id="edge45" class="edge">
<title>Node25&#45;&gt;Node26</title>
<path fill="none" stroke="midnightblue" d="M498.36,-102.98C493.95,-93.82 488.79,-83.09 485.25,-75.75"/>
<polygon fill="midnightblue" stroke="midnightblue" points="495.25,-104.59 502.74,-112.08 501.56,-101.55 495.25,-104.59"/>
</g>
<!-- Node27&#45;&gt;Node13 -->
<g id="edge59" class="edge">
<title>Node27&#45;&gt;Node13</title>
<path fill="none" stroke="midnightblue" d="M486.43,-496.2C472.93,-477.02 452.46,-444.13 445.04,-412 430.44,-348.79 435.83,-269.53 438.18,-243.62"/>
<polygon fill="midnightblue" stroke="midnightblue" points="483.7,-498.41 492.4,-504.45 489.37,-494.3 483.7,-498.41"/>
</g>
<!-- Node27&#45;&gt;Node18 -->
<g id="edge58" class="edge">
<title>Node27&#45;&gt;Node18</title>
<path fill="none" stroke="midnightblue" d="M486.84,-495.87C479.09,-482.87 471.33,-464.49 476.04,-448 480.03,-434.02 489.76,-420.16 496.62,-411.59"/>
<polygon fill="midnightblue" stroke="midnightblue" points="483.92,-497.8 492.3,-504.28 489.79,-493.99 483.92,-497.8"/>
</g>
<!-- Node27&#45;&gt;Node24 -->
<g id="edge48" class="edge">
<title>Node27&#45;&gt;Node24</title>
<path fill="none" stroke="midnightblue" d="M508.88,-495.27C514.01,-486.05 520.05,-475.17 524.18,-467.75"/>
<polygon fill="midnightblue" stroke="midnightblue" points="505.79,-493.64 503.99,-504.08 511.91,-497.04 505.79,-493.64"/>
</g>
<!-- Node28 -->
<g id="node28" class="node">
<title>Node28</title>
<g id="a_node28"><a xlink:href="Tensor_8h.html" target="_top" xlink:title="Templated C++ wrapper for MTensor.">
<polygon fill="white" stroke="black" points="273.54,-168.5 273.54,-187.5 326.54,-187.5 326.54,-168.5 273.54,-168.5"/>
<text text-anchor="middle" x="300.04" y="-175.5" font-family="Helvetica,sans-Serif" font-size="10.00">Tensor.h</text>
</a>
</g>
</g>
<!-- Node27&#45;&gt;Node28 -->
<g id="edge49" class="edge">
<title>Node27&#45;&gt;Node28</title>
<path fill="none" stroke="midnightblue" d="M459.49,-501.06C417.78,-485.73 358.04,-454.74 358.04,-403 358.04,-403 358.04,-403 358.04,-345 358.04,-281.5 319.75,-211.6 305.39,-187.62"/>
<polygon fill="midnightblue" stroke="midnightblue" points="458.54,-504.44 469.13,-504.45 460.86,-497.83 458.54,-504.44"/>
</g>
<!-- Node27&#45;&gt;Node32 -->
<g id="edge57" class="edge">
<title>Node27&#45;&gt;Node32</title>
<path fill="none" stroke="midnightblue" d="M528.04,-500.37C551.27,-490.26 583.2,-476.35 603.48,-467.52"/>
<polygon fill="midnightblue" stroke="midnightblue" points="526.46,-497.24 518.69,-504.44 529.25,-503.66 526.46,-497.24"/>
</g>
<!-- Node28&#45;&gt;Node5 -->
<g id="edge51" class="edge">
<title>Node28&#45;&gt;Node5</title>
<path fill="none" stroke="midnightblue" d="M316.22,-161.04C324.18,-152.77 333.63,-142.26 341.04,-132 369.54,-92.54 395.4,-40.02 405.04,-19.61"/>
<polygon fill="midnightblue" stroke="midnightblue" points="313.68,-158.63 309.16,-168.22 318.67,-163.54 313.68,-158.63"/>
</g>
<!-- Node28&#45;&gt;Node6 -->
<g id="edge52" class="edge">
<title>Node28&#45;&gt;Node6</title>
<path fill="none" stroke="midnightblue" d="M284.76,-160.89C276.9,-152.44 267.27,-141.82 259.04,-132 242.58,-112.36 224.55,-88.2 215.29,-75.59"/>
<polygon fill="midnightblue" stroke="midnightblue" points="282.25,-163.33 291.65,-168.23 287.36,-158.54 282.25,-163.33"/>
</g>
<!-- Node28&#45;&gt;Node25 -->
<g id="edge50" class="edge">
<title>Node28&#45;&gt;Node25</title>
<path fill="none" stroke="midnightblue" d="M336.57,-167.47C375.6,-157.29 436.89,-141.3 474.37,-131.52"/>
<polygon fill="midnightblue" stroke="midnightblue" points="335.47,-164.14 326.68,-170.05 337.23,-170.91 335.47,-164.14"/>
</g>
<!-- Node29 -->
<g id="node29" class="node">
<title>Node29</title>
<g id="a_node29"><a xlink:href="ProgressMonitor_8h.html" target="_top" xlink:title="Definition of ProgressMonitor class.">
<polygon fill="white" stroke="black" points="40.54,-112.5 40.54,-131.5 135.54,-131.5 135.54,-112.5 40.54,-112.5"/>
<text text-anchor="middle" x="88.04" y="-119.5" font-family="Helvetica,sans-Serif" font-size="10.00">ProgressMonitor.h</text>
</a>
</g>
</g>
<!-- Node28&#45;&gt;Node29 -->
<g id="edge53" class="edge">
<title>Node28&#45;&gt;Node29</title>
<path fill="none" stroke="midnightblue" d="M263.33,-167.65C223.45,-157.49 160.27,-141.4 121.65,-131.56"/>
<polygon fill="midnightblue" stroke="midnightblue" points="262.63,-171.08 273.19,-170.16 264.36,-164.3 262.63,-171.08"/>
</g>
<!-- Node31 -->
<g id="node31" class="node">
<title>Node31</title>
<g id="a_node31"><a xlink:href="Tensor_8cpp.html" target="_top" xlink:title="Template specialization of certain methods from TypedTensor class for all underlying data types that ...">
<polygon fill="white" stroke="black" points="268.04,-112.5 268.04,-131.5 332.04,-131.5 332.04,-112.5 268.04,-112.5"/>
<text text-anchor="middle" x="300.04" y="-119.5" font-family="Helvetica,sans-Serif" font-size="10.00">Tensor.cpp</text>
</a>
</g>
</g>
<!-- Node28&#45;&gt;Node31 -->
<g id="edge56" class="edge">
<title>Node28&#45;&gt;Node31</title>
<path fill="none" stroke="midnightblue" d="M300.04,-157.8C300.04,-148.91 300.04,-138.78 300.04,-131.75"/>
<polygon fill="midnightblue" stroke="midnightblue" points="296.54,-158.08 300.04,-168.08 303.54,-158.08 296.54,-158.08"/>
</g>
<!-- Node29&#45;&gt;Node6 -->
<g id="edge54" class="edge">
<title>Node29&#45;&gt;Node6</title>
<path fill="none" stroke="midnightblue" d="M116.34,-108.37C139,-98.26 170.16,-84.35 189.95,-75.52"/>
<polygon fill="midnightblue" stroke="midnightblue" points="114.92,-105.17 107.21,-112.44 117.77,-111.56 114.92,-105.17"/>
</g>
<!-- Node30 -->
<g id="node30" class="node">
<title>Node30</title>
<g id="a_node30"><a xlink:href="ProgressMonitor_8cpp.html" target="_top" xlink:title="Implementation file for ProgressMonitor class.">
<polygon fill="white" stroke="black" points="29.04,-56.5 29.04,-75.5 135.04,-75.5 135.04,-56.5 29.04,-56.5"/>
<text text-anchor="middle" x="82.04" y="-63.5" font-family="Helvetica,sans-Serif" font-size="10.00">ProgressMonitor.cpp</text>
</a>
</g>
</g>
<!-- Node29&#45;&gt;Node30 -->
<g id="edge55" class="edge">
<title>Node29&#45;&gt;Node30</title>
<path fill="none" stroke="midnightblue" d="M85.94,-102.1C84.94,-93.14 83.8,-82.86 83.01,-75.75"/>
<polygon fill="midnightblue" stroke="midnightblue" points="82.46,-102.53 87.05,-112.08 89.42,-101.76 82.46,-102.53"/>
</g>
</g>
</svg>
        <g id="navigator" transform="translate(0 0)" fill="#404254">
                <rect fill="#f2f5e9" fill-opacity="0.5" stroke="#606060" stroke-width=".5" x="0" y="0" width="60" height="60"/>
                <use id="zoomplus" xlink:href="#zoomPlus" x="17" y="9" onmousedown="handleZoom(evt,'in')"/>
                <use id="zoomminus" xlink:href="#zoomMin" x="42" y="9" onmousedown="handleZoom(evt,'out')"/>
                <use id="reset" xlink:href="#resetDef" x="30" y="36" onmousedown="handleReset()"/>
                <g id="arrowUp" xlink:href="#dirArrow" transform="translate(30 24)" onmousedown="handlePan(0,-1)">
                  <use xlink:href="#rim" fill="#404040">
                        <set attributeName="fill" to="#808080" begin="arrowUp.mouseover" end="arrowUp.mouseout"/>
                  </use>
                  <path fill="none" stroke="white" stroke-width="1.5" d="M0,-3.0v7 M-2.5,-0.5L0,-3.0L2.5,-0.5"/>
                </g>
                <g id="arrowRight" xlink:href="#dirArrow" transform="rotate(90) translate(36 -43)" onmousedown="handlePan(1,0)">
                  <use xlink:href="#rim" fill="#404040">
                        <set attributeName="fill" to="#808080" begin="arrowRight.mouseover" end="arrowRight.mouseout"/>
                  </use>
                  <path fill="none" stroke="white" stroke-width="1.5" d="M0,-3.0v7 M-2.5,-0.5L0,-3.0L2.5,-0.5"/>
                </g>
                <g id="arrowDown" xlink:href="#dirArrow" transform="rotate(180) translate(-30 -48)" onmousedown="handlePan(0,1)">
                  <use xlink:href="#rim" fill="#404040">
                        <set attributeName="fill" to="#808080" begin="arrowDown.mouseover" end="arrowDown.mouseout"/>
                  </use>
                  <path fill="none" stroke="white" stroke-width="1.5" d="M0,-3.0v7 M-2.5,-0.5L0,-3.0L2.5,-0.5"/>
                </g>
                <g id="arrowLeft" xlink:href="#dirArrow" transform="rotate(270) translate(-36 17)" onmousedown="handlePan(-1,0)">
                  <use xlink:href="#rim" fill="#404040">
                        <set attributeName="fill" to="#808080" begin="arrowLeft.mouseover" end="arrowLeft.mouseout"/>
                  </use>
                  <path fill="none" stroke="white" stroke-width="1.5" d="M0,-3.0v7 M-2.5,-0.5L0,-3.0L2.5,-0.5"/>
                </g>
        </g>
        <svg viewBox="0 0 15 15" width="100%" height="30px" preserveAspectRatio="xMaxYMin meet">
         <g id="arrow_out" transform="scale(0.3 0.3)">
          <a xlink:href="Interfaces_8h__dep__incl_org.svg" target="_base">
           <rect id="button" ry="5" rx="5" y="6" x="6" height="38" width="38"
                fill="#f2f5e9" fill-opacity="0.5" stroke="#606060" stroke-width="1.0"/>
           <path id="arrow"
             d="M 11.500037,31.436501 C 11.940474,20.09759 22.043105,11.32322 32.158766,21.979434 L 37.068811,17.246167 C 37.068811,17.246167 37.088388,32 37.088388,32 L 22.160133,31.978069 C 22.160133,31.978069 26.997745,27.140456 26.997745,27.140456 C 18.528582,18.264221 13.291696,25.230495 11.500037,31.436501 z"
             style="fill:#404040;"/>
          </a>
         </g>
        </svg>
</svg>
