<?xml version="1.0" encoding="UTF-8" standalone="no"?>
<!DOCTYPE svg PUBLIC "-//W3C//DTD SVG 1.1//EN"
 "http://www.w3.org/Graphics/SVG/1.1/DTD/svg11.dtd">
<!-- Generated by graphviz version 2.43.0 (0)
 -->
<!-- Title: Interfaces.h Pages: 1 -->
<!--zoomable 588 -->
<svg id="main" version="1.1" xmlns="http://www.w3.org/2000/svg" xmlns:xlink="http://www.w3.org/1999/xlink" xml:space="preserve" onload="init(evt)">
<style type="text/css"><![CDATA[
.edge:hover path { stroke: red; }
.edge:hover polygon { stroke: red; fill: red; }
]]></style>
<script type="text/javascript"><![CDATA[
var edges = document.getElementsByTagName('g');
if (edges && edges.length) {
  for (var i=0;i<edges.length;i++) {
    if (edges[i].id.substr(0,4)=='edge') {
      edges[i].setAttribute('class','edge');
    }
  }
}
]]></script>
        <defs>
                <circle id="rim" cx="0" cy="0" r="7"/>
                <circle id="rim2" cx="0" cy="0" r="3.5"/>
                <g id="zoomPlus">
                        <use xlink:href="#rim" fill="#404040">
                                <set attributeName="fill" to="#808080" begin="zoomplus.mouseover" end="zoomplus.mouseout"/>
                        </use>
                        <path d="M-4,0h8M0,-4v8" fill="none" stroke="white" stroke-width="1.5" pointer-events="none"/>
                </g>
                <g id="zoomMin">
                        <use xlink:href="#rim" fill="#404040">
                                <set attributeName="fill" to="#808080" begin="zoomminus.mouseover" end="zoomminus.mouseout"/>
                        </use>
                        <path d="M-4,0h8" fill="none" stroke="white" stroke-width="1.5" pointer-events="none"/>
                </g>
                <g id="dirArrow">
                        <path fill="none" stroke="white" stroke-width="1.5" d="M0,-3.0v7 M-2.5,-0.5L0,-3.0L2.5,-0.5"/>
                </g>
               <g id="resetDef">
                       <use xlink:href="#rim2" fill="#404040">
                               <set attributeName="fill" to="#808080" begin="reset.mouseover" end="reset.mouseout"/>
                       </use>
               </g>
        </defs>

<script type="text/javascript">
var viewWidth = 948;
var viewHeight = 588;
var sectionId = 'dynsection-1';
</script>
<script xlink:href="svgpan.js"/>
<svg id="graph" class="graph">
<g id="viewport">
<title>Interfaces.h</title>
<polygon fill="white" stroke="transparent" points="-4,4 -4,-584 944,-584 944,4 -4,4"/>
<!-- Node1 -->
<g id="node1" class="node">
<title>Node1</title>
<g id="a_node1"><a xlink:title=" ">
<polygon fill="#bfbfbf" stroke="black" points="341,-560.5 341,-579.5 409,-579.5 409,-560.5 341,-560.5"/>
<text text-anchor="middle" x="375" y="-567.5" font-family="Helvetica,sans-Serif" font-size="10.00">Interfaces.h</text>
</a>
</g>
</g>
<!-- Node2 -->
<g id="node2" class="node">
<title>Node2</title>
<g id="a_node2"><a xlink:href="Base_8hpp.html" target="_top" xlink:title="Definitions of MContainerBase and MContainer class templates.">
<polygon fill="white" stroke="black" points="346,-504.5 346,-523.5 404,-523.5 404,-504.5 346,-504.5"/>
<text text-anchor="middle" x="375" y="-511.5" font-family="Helvetica,sans-Serif" font-size="10.00">Base.hpp</text>
</a>
</g>
</g>
<!-- Node1&#45;&gt;Node2 -->
<g id="edge1" class="edge">
<title>Node1&#45;&gt;Node2</title>
<path fill="none" stroke="midnightblue" d="M375,-549.8C375,-540.91 375,-530.78 375,-523.75"/>
<polygon fill="midnightblue" stroke="midnightblue" points="371.5,-550.08 375,-560.08 378.5,-550.08 371.5,-550.08"/>
</g>
<!-- Node14 -->
<g id="node14" class="node">
<title>Node14</title>
<g id="a_node14"><a xlink:href="Generic_2Image_8hpp.html" target="_top" xlink:title="GenericImage definition and implementation.">
<polygon fill="white" stroke="black" points="416,-448.5 416,-467.5 478,-467.5 478,-448.5 416,-448.5"/>
<text text-anchor="middle" x="447" y="-455.5" font-family="Helvetica,sans-Serif" font-size="10.00">Image.hpp</text>
</a>
</g>
</g>
<!-- Node1&#45;&gt;Node14 -->
<g id="edge52" class="edge">
<title>Node1&#45;&gt;Node14</title>
<path fill="none" stroke="midnightblue" d="M389.99,-553.02C397.38,-544.71 406.16,-534.19 413,-524 425.78,-504.97 437.4,-480.57 443.17,-467.75"/>
<polygon fill="midnightblue" stroke="midnightblue" points="387.32,-550.74 383.17,-560.49 392.5,-555.46 387.32,-550.74"/>
</g>
<!-- Node17 -->
<g id="node17" class="node">
<title>Node17</title>
<g id="a_node17"><a xlink:href="Views_2Image_8hpp.html" target="_top" xlink:title="Definition and implementation of ImageView and ImageTypedView.">
<polygon fill="white" stroke="black" points="112,-392.5 112,-411.5 174,-411.5 174,-392.5 112,-392.5"/>
<text text-anchor="middle" x="143" y="-399.5" font-family="Helvetica,sans-Serif" font-size="10.00">Image.hpp</text>
</a>
</g>
</g>
<!-- Node1&#45;&gt;Node17 -->
<g id="edge55" class="edge">
<title>Node1&#45;&gt;Node17</title>
<path fill="none" stroke="midnightblue" d="M354.65,-554.44C307.61,-520.78 192.52,-438.44 155.03,-411.61"/>
<polygon fill="midnightblue" stroke="midnightblue" points="352.68,-557.34 362.85,-560.31 356.76,-551.64 352.68,-557.34"/>
</g>
<!-- Node20 -->
<g id="node20" class="node">
<title>Node20</title>
<g id="a_node20"><a xlink:href="Generic_2NumericArray_8hpp.html" target="_top" xlink:title="GenericNumericArray definition and implementation.">
<polygon fill="white" stroke="black" points="245,-448.5 245,-467.5 339,-467.5 339,-448.5 245,-448.5"/>
<text text-anchor="middle" x="292" y="-455.5" font-family="Helvetica,sans-Serif" font-size="10.00">NumericArray.hpp</text>
</a>
</g>
</g>
<!-- Node1&#45;&gt;Node20 -->
<g id="edge53" class="edge">
<title>Node1&#45;&gt;Node20</title>
<path fill="none" stroke="midnightblue" d="M360.54,-552.64C353.27,-544.24 344.46,-533.74 337,-524 321.98,-504.38 305.84,-480.22 297.57,-467.6"/>
<polygon fill="midnightblue" stroke="midnightblue" points="357.96,-555.01 367.17,-560.24 363.23,-550.41 357.96,-555.01"/>
</g>
<!-- Node22 -->
<g id="node22" class="node">
<title>Node22</title>
<g id="a_node22"><a xlink:href="Views_2NumericArray_8hpp.html" target="_top" xlink:title="Definition and implementation of NumericArrayView and NumericArrayTypedView.">
<polygon fill="white" stroke="black" points="0,-392.5 0,-411.5 94,-411.5 94,-392.5 0,-392.5"/>
<text text-anchor="middle" x="47" y="-399.5" font-family="Helvetica,sans-Serif" font-size="10.00">NumericArray.hpp</text>
</a>
</g>
</g>
<!-- Node1&#45;&gt;Node22 -->
<g id="edge56" class="edge">
<title>Node1&#45;&gt;Node22</title>
<path fill="none" stroke="midnightblue" d="M348.15,-555.84C330.01,-546.91 305.53,-534.82 284,-524 201.03,-482.31 102.24,-431.49 63.63,-411.58"/>
<polygon fill="midnightblue" stroke="midnightblue" points="347,-559.17 357.52,-560.44 350.09,-552.89 347,-559.17"/>
</g>
<!-- Node24 -->
<g id="node24" class="node">
<title>Node24</title>
<g id="a_node24"><a xlink:href="Generic_2Tensor_8hpp.html" target="_top" xlink:title="GenericTensor definition and implementation.">
<polygon fill="white" stroke="black" points="628,-448.5 628,-467.5 692,-467.5 692,-448.5 628,-448.5"/>
<text text-anchor="middle" x="660" y="-455.5" font-family="Helvetica,sans-Serif" font-size="10.00">Tensor.hpp</text>
</a>
</g>
</g>
<!-- Node1&#45;&gt;Node24 -->
<g id="edge54" class="edge">
<title>Node1&#45;&gt;Node24</title>
<path fill="none" stroke="midnightblue" d="M406.8,-556.73C465.05,-534.25 587.48,-486.99 637.74,-467.59"/>
<polygon fill="midnightblue" stroke="midnightblue" points="405.43,-553.5 397.36,-560.37 407.95,-560.03 405.43,-553.5"/>
</g>
<!-- Node29 -->
<g id="node29" class="node">
<title>Node29</title>
<g id="a_node29"><a xlink:href="Views_2Tensor_8hpp.html" target="_top" xlink:title="Definition and implementation of TensorView and TensorTypedView.">
<polygon fill="white" stroke="black" points="859,-392.5 859,-411.5 923,-411.5 923,-392.5 859,-392.5"/>
<text text-anchor="middle" x="891" y="-399.5" font-family="Helvetica,sans-Serif" font-size="10.00">Tensor.hpp</text>
</a>
</g>
</g>
<!-- Node1&#45;&gt;Node29 -->
<g id="edge57" class="edge">
<title>Node1&#45;&gt;Node29</title>
<path fill="none" stroke="midnightblue" d="M415.64,-557.73C447.19,-548.86 491.99,-536.05 531,-524 658.26,-484.7 808.83,-432.08 866.69,-411.63"/>
<polygon fill="midnightblue" stroke="midnightblue" points="414.57,-554.39 405.88,-560.46 416.46,-561.13 414.57,-554.39"/>
</g>
<!-- Node3 -->
<g id="node3" class="node">
<title>Node3</title>
<g id="a_node3"><a xlink:href="Generic_2DataStore_8hpp.html" target="_top" xlink:title="Definition and implementation of generic DataStore wrapper.">
<polygon fill="white" stroke="black" points="377,-280.5 377,-299.5 457,-299.5 457,-280.5 377,-280.5"/>
<text text-anchor="middle" x="417" y="-287.5" font-family="Helvetica,sans-Serif" font-size="10.00">DataStore.hpp</text>
</a>
</g>
</g>
<!-- Node2&#45;&gt;Node3 -->
<g id="edge2" class="edge">
<title>Node2&#45;&gt;Node3</title>
<path fill="none" stroke="midnightblue" d="M370.35,-494.32C363.62,-469.53 349.57,-425.07 328,-392 311.84,-367.22 274.99,-360.21 292,-336 311.03,-308.92 348,-298.06 376.82,-293.74"/>
<polygon fill="midnightblue" stroke="midnightblue" points="367.02,-495.41 372.93,-504.21 373.79,-493.65 367.02,-495.41"/>
</g>
<!-- Node2&#45;&gt;Node14 -->
<g id="edge15" class="edge">
<title>Node2&#45;&gt;Node14</title>
<path fill="none" stroke="midnightblue" d="M394.87,-498.1C407.82,-488.38 424.3,-476.03 435.22,-467.83"/>
<polygon fill="midnightblue" stroke="midnightblue" points="392.47,-495.52 386.57,-504.32 396.67,-501.12 392.47,-495.52"/>
</g>
<!-- Node2&#45;&gt;Node20 -->
<g id="edge32" class="edge">
<title>Node2&#45;&gt;Node20</title>
<path fill="none" stroke="midnightblue" d="M352.9,-498.62C337.74,-488.76 318.12,-475.99 305.3,-467.65"/>
<polygon fill="midnightblue" stroke="midnightblue" points="351.37,-501.8 361.66,-504.32 355.19,-495.94 351.37,-501.8"/>
</g>
<!-- Node2&#45;&gt;Node24 -->
<g id="edge41" class="edge">
<title>Node2&#45;&gt;Node24</title>
<path fill="none" stroke="midnightblue" d="M414.18,-505.58C470.93,-494.82 574.96,-475.11 627.62,-465.14"/>
<polygon fill="midnightblue" stroke="midnightblue" points="413.33,-502.17 404.16,-507.47 414.64,-509.05 413.33,-502.17"/>
</g>
<!-- Node4 -->
<g id="node4" class="node">
<title>Node4</title>
<g id="a_node4"><a xlink:href="DataList_8h.html" target="_top" xlink:title="Definition of templated DataStore wrapper called DataList.">
<polygon fill="white" stroke="black" points="454,-112.5 454,-131.5 516,-131.5 516,-112.5 454,-112.5"/>
<text text-anchor="middle" x="485" y="-119.5" font-family="Helvetica,sans-Serif" font-size="10.00">DataList.h</text>
</a>
</g>
</g>
<!-- Node3&#45;&gt;Node4 -->
<g id="edge3" class="edge">
<title>Node3&#45;&gt;Node4</title>
<path fill="none" stroke="midnightblue" d="M393.89,-274.47C377.28,-262.03 359.23,-243.15 368,-224 388.66,-178.86 440.56,-146.22 467.76,-131.58"/>
<polygon fill="midnightblue" stroke="midnightblue" points="392.1,-277.48 402.3,-280.35 396.11,-271.75 392.1,-277.48"/>
</g>
<!-- Node10 -->
<g id="node10" class="node">
<title>Node10</title>
<g id="a_node10"><a xlink:href="DataNode_8hpp.html" target="_top" xlink:title=" ">
<polygon fill="white" stroke="black" points="241,-224.5 241,-243.5 321,-243.5 321,-224.5 241,-224.5"/>
<text text-anchor="middle" x="281" y="-231.5" font-family="Helvetica,sans-Serif" font-size="10.00">DataNode.hpp</text>
</a>
</g>
</g>
<!-- Node3&#45;&gt;Node10 -->
<g id="edge10" class="edge">
<title>Node3&#45;&gt;Node10</title>
<path fill="none" stroke="midnightblue" d="M385.87,-276.64C360.34,-266.5 324.89,-252.43 302.45,-243.52"/>
<polygon fill="midnightblue" stroke="midnightblue" points="384.86,-280.01 395.45,-280.44 387.45,-273.5 384.86,-280.01"/>
</g>
<!-- Node12 -->
<g id="node12" class="node">
<title>Node12</title>
<g id="a_node12"><a xlink:href="DataStore_8cpp.html" target="_top" xlink:title=" ">
<polygon fill="white" stroke="black" points="377,-224.5 377,-243.5 457,-243.5 457,-224.5 377,-224.5"/>
<text text-anchor="middle" x="417" y="-231.5" font-family="Helvetica,sans-Serif" font-size="10.00">DataStore.cpp</text>
</a>
</g>
</g>
<!-- Node3&#45;&gt;Node12 -->
<g id="edge13" class="edge">
<title>Node3&#45;&gt;Node12</title>
<path fill="none" stroke="midnightblue" d="M417,-269.8C417,-260.91 417,-250.78 417,-243.75"/>
<polygon fill="midnightblue" stroke="midnightblue" points="413.5,-270.08 417,-280.08 420.5,-270.08 413.5,-270.08"/>
</g>
<!-- Node13 -->
<g id="node13" class="node">
<title>Node13</title>
<g id="a_node13"><a xlink:href="TypedMArgument_8cpp.html" target="_top" xlink:title=" ">
<polygon fill="white" stroke="black" points="513,-224.5 513,-243.5 625,-243.5 625,-224.5 513,-224.5"/>
<text text-anchor="middle" x="569" y="-231.5" font-family="Helvetica,sans-Serif" font-size="10.00">TypedMArgument.cpp</text>
</a>
</g>
</g>
<!-- Node3&#45;&gt;Node13 -->
<g id="edge14" class="edge">
<title>Node3&#45;&gt;Node13</title>
<path fill="none" stroke="midnightblue" d="M450.67,-277.04C479.27,-266.88 519.61,-252.55 545.03,-243.52"/>
<polygon fill="midnightblue" stroke="midnightblue" points="449.34,-273.8 441.08,-280.44 451.68,-280.39 449.34,-273.8"/>
</g>
<!-- Node5 -->
<g id="node5" class="node">
<title>Node5</title>
<g id="a_node5"><a xlink:href="LLU_8h.html" target="_top" xlink:title="Header file which includes all major parts of LLU.">
<polygon fill="white" stroke="black" points="463.5,-0.5 463.5,-19.5 506.5,-19.5 506.5,-0.5 463.5,-0.5"/>
<text text-anchor="middle" x="485" y="-7.5" font-family="Helvetica,sans-Serif" font-size="10.00">LLU.h</text>
</a>
</g>
</g>
<!-- Node4&#45;&gt;Node5 -->
<g id="edge4" class="edge">
<title>Node4&#45;&gt;Node5</title>
<path fill="none" stroke="midnightblue" d="M485,-102.35C485,-78.25 485,-37.31 485,-19.59"/>
<polygon fill="midnightblue" stroke="midnightblue" points="481.5,-102.37 485,-112.37 488.5,-102.37 481.5,-102.37"/>
</g>
<!-- Node6 -->
<g id="node6" class="node">
<title>Node6</title>
<g id="a_node6"><a xlink:href="MArgumentManager_8h.html" target="_top" xlink:title="Definition of MArgumentManager class.">
<polygon fill="white" stroke="black" points="681,-56.5 681,-75.5 793,-75.5 793,-56.5 681,-56.5"/>
<text text-anchor="middle" x="737" y="-63.5" font-family="Helvetica,sans-Serif" font-size="10.00">MArgumentManager.h</text>
</a>
</g>
</g>
<!-- Node4&#45;&gt;Node6 -->
<g id="edge5" class="edge">
<title>Node4&#45;&gt;Node6</title>
<path fill="none" stroke="midnightblue" d="M526.05,-112.2C573.33,-102.07 650.47,-85.54 697.21,-75.53"/>
<polygon fill="midnightblue" stroke="midnightblue" points="525.2,-108.81 516.15,-114.32 526.66,-115.65 525.2,-108.81"/>
</g>
<!-- Node6&#45;&gt;Node5 -->
<g id="edge6" class="edge">
<title>Node6&#45;&gt;Node5</title>
<path fill="none" stroke="midnightblue" d="M687.21,-54.33C632.38,-42.58 546.72,-24.22 506.82,-15.67"/>
<polygon fill="midnightblue" stroke="midnightblue" points="686.56,-57.77 697.07,-56.44 688.03,-50.93 686.56,-57.77"/>
</g>
<!-- Node7 -->
<g id="node7" class="node">
<title>Node7</title>
<g id="a_node7"><a xlink:href="LibraryLinkError_8cpp.html" target="_top" xlink:title="Contains definitions of ErrorManager members and implementation of interface function sendRegisteredE...">
<polygon fill="white" stroke="black" points="685.5,-0.5 685.5,-19.5 788.5,-19.5 788.5,-0.5 685.5,-0.5"/>
<text text-anchor="middle" x="737" y="-7.5" font-family="Helvetica,sans-Serif" font-size="10.00">LibraryLinkError.cpp</text>
</a>
</g>
</g>
<!-- Node6&#45;&gt;Node7 -->
<g id="edge7" class="edge">
<title>Node6&#45;&gt;Node7</title>
<path fill="none" stroke="midnightblue" d="M737,-45.8C737,-36.91 737,-26.78 737,-19.75"/>
<polygon fill="midnightblue" stroke="midnightblue" points="733.5,-46.08 737,-56.08 740.5,-46.08 733.5,-46.08"/>
</g>
<!-- Node8 -->
<g id="node8" class="node">
<title>Node8</title>
<g id="a_node8"><a xlink:href="Logger_8cpp.html" target="_top" xlink:title="Implementation of functions defined in Logger.h.">
<polygon fill="white" stroke="black" points="807,-0.5 807,-19.5 871,-19.5 871,-0.5 807,-0.5"/>
<text text-anchor="middle" x="839" y="-7.5" font-family="Helvetica,sans-Serif" font-size="10.00">Logger.cpp</text>
</a>
</g>
</g>
<!-- Node6&#45;&gt;Node8 -->
<g id="edge8" class="edge">
<title>Node6&#45;&gt;Node8</title>
<path fill="none" stroke="midnightblue" d="M762.33,-51.59C781.19,-41.61 806.38,-28.27 822.65,-19.65"/>
<polygon fill="midnightblue" stroke="midnightblue" points="760.59,-48.55 753.39,-56.32 763.86,-54.74 760.59,-48.55"/>
</g>
<!-- Node9 -->
<g id="node9" class="node">
<title>Node9</title>
<g id="a_node9"><a xlink:href="MArgumentManager_8cpp.html" target="_top" xlink:title="Definitions of non&#45;template member functions and static data members from MArgumentManager class.">
<polygon fill="white" stroke="black" points="545,-0.5 545,-19.5 667,-19.5 667,-0.5 545,-0.5"/>
<text text-anchor="middle" x="606" y="-7.5" font-family="Helvetica,sans-Serif" font-size="10.00">MArgumentManager.cpp</text>
</a>
</g>
</g>
<!-- Node6&#45;&gt;Node9 -->
<g id="edge9" class="edge">
<title>Node6&#45;&gt;Node9</title>
<path fill="none" stroke="midnightblue" d="M706.68,-52.5C682.12,-42.38 648.18,-28.39 626.66,-19.52"/>
<polygon fill="midnightblue" stroke="midnightblue" points="705.66,-55.87 716.24,-56.44 708.33,-49.4 705.66,-55.87"/>
</g>
<!-- Node11 -->
<g id="node11" class="node">
<title>Node11</title>
<g id="a_node11"><a xlink:href="DataList_8hpp.html" target="_top" xlink:title="Special iterators for DataLists. Iteration over keys, values, reversed iteration.">
<polygon fill="white" stroke="black" points="245,-168.5 245,-187.5 317,-187.5 317,-168.5 245,-168.5"/>
<text text-anchor="middle" x="281" y="-175.5" font-family="Helvetica,sans-Serif" font-size="10.00">DataList.hpp</text>
</a>
</g>
</g>
<!-- Node10&#45;&gt;Node11 -->
<g id="edge11" class="edge">
<title>Node10&#45;&gt;Node11</title>
<path fill="none" stroke="midnightblue" d="M281,-213.8C281,-204.91 281,-194.78 281,-187.75"/>
<polygon fill="midnightblue" stroke="midnightblue" points="277.5,-214.08 281,-224.08 284.5,-214.08 277.5,-214.08"/>
</g>
<!-- Node11&#45;&gt;Node4 -->
<g id="edge12" class="edge">
<title>Node11&#45;&gt;Node4</title>
<path fill="none" stroke="midnightblue" d="M323.29,-165.8C362.18,-155.51 418.93,-140.49 453.83,-131.25"/>
<polygon fill="midnightblue" stroke="midnightblue" points="322.1,-162.5 313.32,-168.44 323.89,-169.27 322.1,-162.5"/>
</g>
<!-- Node14&#45;&gt;Node13 -->
<g id="edge31" class="edge">
<title>Node14&#45;&gt;Node13</title>
<path fill="none" stroke="midnightblue" d="M488.33,-456.68C537.57,-454.67 620.96,-445.95 683,-412 713.06,-395.55 723.32,-387.84 736,-356 760.5,-294.46 662.38,-258.68 606.07,-243.56"/>
<polygon fill="midnightblue" stroke="midnightblue" points="487.94,-453.2 478.06,-457.03 488.18,-460.19 487.94,-453.2"/>
</g>
<!-- Node15 -->
<g id="node15" class="node">
<title>Node15</title>
<g id="a_node15"><a xlink:href="Image_8h.html" target="_top" xlink:title="Templated C++ wrapper for MImage.">
<polygon fill="white" stroke="black" points="600,-392.5 600,-411.5 652,-411.5 652,-392.5 600,-392.5"/>
<text text-anchor="middle" x="626" y="-399.5" font-family="Helvetica,sans-Serif" font-size="10.00">Image.h</text>
</a>
</g>
</g>
<!-- Node14&#45;&gt;Node15 -->
<g id="edge16" class="edge">
<title>Node14&#45;&gt;Node15</title>
<path fill="none" stroke="midnightblue" d="M485.1,-445.51C519.63,-435.09 569.59,-420.02 599.81,-410.9"/>
<polygon fill="midnightblue" stroke="midnightblue" points="483.93,-442.2 475.36,-448.44 485.95,-448.91 483.93,-442.2"/>
</g>
<!-- Node16 -->
<g id="node16" class="node">
<title>Node16</title>
<g id="a_node16"><a xlink:href="Image_8cpp.html" target="_top" xlink:title="Template specializations of Image::type attribute for all data types that we want to support.">
<polygon fill="white" stroke="black" points="665,-336.5 665,-355.5 727,-355.5 727,-336.5 665,-336.5"/>
<text text-anchor="middle" x="696" y="-343.5" font-family="Helvetica,sans-Serif" font-size="10.00">Image.cpp</text>
</a>
</g>
</g>
<!-- Node14&#45;&gt;Node16 -->
<g id="edge30" class="edge">
<title>Node14&#45;&gt;Node16</title>
<path fill="none" stroke="midnightblue" d="M488.22,-452.49C542.49,-445.87 634.15,-432.08 661,-412 680.09,-397.72 689.92,-369.88 693.86,-355.72"/>
<polygon fill="midnightblue" stroke="midnightblue" points="487.74,-449.03 478.23,-453.69 488.57,-455.98 487.74,-449.03"/>
</g>
<!-- Node14&#45;&gt;Node17 -->
<g id="edge20" class="edge">
<title>Node14&#45;&gt;Node17</title>
<path fill="none" stroke="midnightblue" d="M405.42,-450.6C353.31,-442.43 261.3,-427.47 183,-412 180.21,-411.45 177.31,-410.85 174.41,-410.23"/>
<polygon fill="midnightblue" stroke="midnightblue" points="405.19,-454.11 415.61,-452.2 406.27,-447.19 405.19,-454.11"/>
</g>
<!-- Node18 -->
<g id="node18" class="node">
<title>Node18</title>
<g id="a_node18"><a xlink:href="TypedMArgument_8h.html" target="_top" xlink:title=" ">
<polygon fill="white" stroke="black" points="396.5,-392.5 396.5,-411.5 497.5,-411.5 497.5,-392.5 396.5,-392.5"/>
<text text-anchor="middle" x="447" y="-399.5" font-family="Helvetica,sans-Serif" font-size="10.00">TypedMArgument.h</text>
</a>
</g>
</g>
<!-- Node14&#45;&gt;Node18 -->
<g id="edge22" class="edge">
<title>Node14&#45;&gt;Node18</title>
<path fill="none" stroke="midnightblue" d="M447,-437.8C447,-428.91 447,-418.78 447,-411.75"/>
<polygon fill="midnightblue" stroke="midnightblue" points="443.5,-438.08 447,-448.08 450.5,-438.08 443.5,-438.08"/>
</g>
<!-- Node15&#45;&gt;Node5 -->
<g id="edge17" class="edge">
<title>Node15&#45;&gt;Node5</title>
<path fill="none" stroke="midnightblue" d="M627.57,-382.37C631.02,-339.98 638.66,-238.78 634,-224 605.25,-132.75 521.93,-46.56 494.14,-19.63"/>
<polygon fill="midnightblue" stroke="midnightblue" points="624.07,-382.19 626.73,-392.44 631.05,-382.76 624.07,-382.19"/>
</g>
<!-- Node15&#45;&gt;Node6 -->
<g id="edge18" class="edge">
<title>Node15&#45;&gt;Node6</title>
<path fill="none" stroke="midnightblue" d="M630.74,-382.38C645.01,-326.76 687.9,-162.62 710,-112 715.83,-98.64 724.92,-84.4 730.92,-75.6"/>
<polygon fill="midnightblue" stroke="midnightblue" points="627.3,-381.7 628.22,-392.25 634.08,-383.43 627.3,-381.7"/>
</g>
<!-- Node15&#45;&gt;Node16 -->
<g id="edge19" class="edge">
<title>Node15&#45;&gt;Node16</title>
<path fill="none" stroke="midnightblue" d="M645.31,-386.1C657.91,-376.38 673.93,-364.03 684.55,-355.83"/>
<polygon fill="midnightblue" stroke="midnightblue" points="643.03,-383.44 637.25,-392.32 647.3,-388.99 643.03,-383.44"/>
</g>
<!-- Node17&#45;&gt;Node5 -->
<g id="edge21" class="edge">
<title>Node17&#45;&gt;Node5</title>
<path fill="none" stroke="midnightblue" d="M141.36,-382.27C139.58,-360.39 137,-323.1 137,-291 137,-291 137,-291 137,-121 137,-52.17 387.62,-20.94 463.49,-13.07"/>
<polygon fill="midnightblue" stroke="midnightblue" points="137.89,-382.78 142.22,-392.45 144.86,-382.19 137.89,-382.78"/>
</g>
<!-- Node18&#45;&gt;Node3 -->
<g id="edge24" class="edge">
<title>Node18&#45;&gt;Node3</title>
<path fill="none" stroke="midnightblue" d="M442,-382.67C435.44,-358.62 424.2,-317.39 419.34,-299.59"/>
<polygon fill="midnightblue" stroke="midnightblue" points="438.64,-383.64 444.65,-392.37 445.39,-381.8 438.64,-383.64"/>
</g>
<!-- Node18&#45;&gt;Node4 -->
<g id="edge23" class="edge">
<title>Node18&#45;&gt;Node4</title>
<path fill="none" stroke="midnightblue" d="M457.14,-383.43C468.4,-362.24 485,-325.19 485,-291 485,-291 485,-291 485,-233 485,-195.19 485,-150.06 485,-131.56"/>
<polygon fill="midnightblue" stroke="midnightblue" points="454.05,-381.78 452.28,-392.23 460.18,-385.17 454.05,-381.78"/>
</g>
<!-- Node18&#45;&gt;Node10 -->
<g id="edge25" class="edge">
<title>Node18&#45;&gt;Node10</title>
<path fill="none" stroke="midnightblue" d="M433.32,-384.46C422.04,-371.07 405.45,-351.88 390,-336 355.1,-300.13 310.5,-260.62 290.94,-243.59"/>
<polygon fill="midnightblue" stroke="midnightblue" points="430.8,-386.9 439.89,-392.33 436.17,-382.42 430.8,-386.9"/>
</g>
<!-- Node18&#45;&gt;Node13 -->
<g id="edge29" class="edge">
<title>Node18&#45;&gt;Node13</title>
<path fill="none" stroke="midnightblue" d="M467.23,-386.12C477.5,-377.95 489.73,-367.21 499,-356 515.16,-336.46 551.59,-268.17 564.42,-243.76"/>
<polygon fill="midnightblue" stroke="midnightblue" points="464.95,-383.46 459.17,-392.34 469.23,-389 464.95,-383.46"/>
</g>
<!-- Node19 -->
<g id="node19" class="node">
<title>Node19</title>
<g id="a_node19"><a xlink:href="Iterators_2DataStore_8hpp.html" target="_top" xlink:title=" ">
<polygon fill="white" stroke="black" points="301,-336.5 301,-355.5 381,-355.5 381,-336.5 301,-336.5"/>
<text text-anchor="middle" x="341" y="-343.5" font-family="Helvetica,sans-Serif" font-size="10.00">DataStore.hpp</text>
</a>
</g>
</g>
<!-- Node18&#45;&gt;Node19 -->
<g id="edge26" class="edge">
<title>Node18&#45;&gt;Node19</title>
<path fill="none" stroke="midnightblue" d="M420.94,-387.73C401.32,-377.73 374.97,-364.31 357.99,-355.65"/>
<polygon fill="midnightblue" stroke="midnightblue" points="419.47,-390.9 429.97,-392.32 422.65,-384.67 419.47,-390.9"/>
</g>
<!-- Node19&#45;&gt;Node3 -->
<g id="edge27" class="edge">
<title>Node19&#45;&gt;Node3</title>
<path fill="none" stroke="midnightblue" d="M361.58,-330.38C375.31,-320.62 392.93,-308.11 404.57,-299.83"/>
<polygon fill="midnightblue" stroke="midnightblue" points="359.34,-327.68 353.21,-336.32 363.39,-333.38 359.34,-327.68"/>
</g>
<!-- Node19&#45;&gt;Node11 -->
<g id="edge28" class="edge">
<title>Node19&#45;&gt;Node11</title>
<path fill="none" stroke="midnightblue" d="M316.59,-331C290.07,-314.2 249.18,-283.34 232,-244 222.1,-221.34 248.63,-199.28 266.42,-187.6"/>
<polygon fill="midnightblue" stroke="midnightblue" points="314.96,-334.1 325.32,-336.34 318.62,-328.13 314.96,-334.1"/>
</g>
<!-- Node20&#45;&gt;Node13 -->
<g id="edge40" class="edge">
<title>Node20&#45;&gt;Node13</title>
<path fill="none" stroke="midnightblue" d="M349.31,-451.34C404.81,-444.77 483.86,-432.17 507,-412 559.77,-366 567.63,-272.42 568.8,-243.63"/>
<polygon fill="midnightblue" stroke="midnightblue" points="348.77,-447.88 339.24,-452.5 349.57,-454.83 348.77,-447.88"/>
</g>
<!-- Node20&#45;&gt;Node18 -->
<g id="edge38" class="edge">
<title>Node20&#45;&gt;Node18</title>
<path fill="none" stroke="midnightblue" d="M326.33,-445.04C355.5,-434.88 396.64,-420.55 422.55,-411.52"/>
<polygon fill="midnightblue" stroke="midnightblue" points="324.85,-441.85 316.56,-448.44 327.16,-448.46 324.85,-441.85"/>
</g>
<!-- Node21 -->
<g id="node21" class="node">
<title>Node21</title>
<g id="a_node21"><a xlink:href="NumericArray_8h.html" target="_top" xlink:title="Templated C++ wrapper for MNumericArray.">
<polygon fill="white" stroke="black" points="352.5,-112.5 352.5,-131.5 435.5,-131.5 435.5,-112.5 352.5,-112.5"/>
<text text-anchor="middle" x="394" y="-119.5" font-family="Helvetica,sans-Serif" font-size="10.00">NumericArray.h</text>
</a>
</g>
</g>
<!-- Node20&#45;&gt;Node21 -->
<g id="edge33" class="edge">
<title>Node20&#45;&gt;Node21</title>
<path fill="none" stroke="midnightblue" d="M295.43,-438.35C297.22,-425.23 298.4,-407.35 295,-392 272.72,-291.49 166.96,-244.37 236,-168 265.36,-135.52 316.32,-125.81 352.42,-123.25"/>
<polygon fill="midnightblue" stroke="midnightblue" points="291.93,-438.04 293.8,-448.46 298.84,-439.15 291.93,-438.04"/>
</g>
<!-- Node20&#45;&gt;Node22 -->
<g id="edge36" class="edge">
<title>Node20&#45;&gt;Node22</title>
<path fill="none" stroke="midnightblue" d="M243.37,-446.28C197.07,-436.08 128.31,-420.92 85.64,-411.52"/>
<polygon fill="midnightblue" stroke="midnightblue" points="242.66,-449.71 253.18,-448.44 244.17,-442.87 242.66,-449.71"/>
</g>
<!-- Node23 -->
<g id="node23" class="node">
<title>Node23</title>
<g id="a_node23"><a xlink:href="NumericArray_8cpp.html" target="_top" xlink:title="Definitions of MContainer&lt;MArgumentType::NumericArray&gt; (GenericNumericArray) methods.">
<polygon fill="white" stroke="black" points="192,-392.5 192,-411.5 286,-411.5 286,-392.5 192,-392.5"/>
<text text-anchor="middle" x="239" y="-399.5" font-family="Helvetica,sans-Serif" font-size="10.00">NumericArray.cpp</text>
</a>
</g>
</g>
<!-- Node20&#45;&gt;Node23 -->
<g id="edge39" class="edge">
<title>Node20&#45;&gt;Node23</title>
<path fill="none" stroke="midnightblue" d="M276.02,-440.72C266.68,-431.2 255.25,-419.56 247.59,-411.75"/>
<polygon fill="midnightblue" stroke="midnightblue" points="273.75,-443.4 283.25,-448.08 278.74,-438.49 273.75,-443.4"/>
</g>
<!-- Node21&#45;&gt;Node5 -->
<g id="edge34" class="edge">
<title>Node21&#45;&gt;Node5</title>
<path fill="none" stroke="midnightblue" d="M407.58,-104.59C427.2,-80.87 462.77,-37.87 477.89,-19.59"/>
<polygon fill="midnightblue" stroke="midnightblue" points="404.82,-102.43 401.14,-112.37 410.21,-106.89 404.82,-102.43"/>
</g>
<!-- Node21&#45;&gt;Node6 -->
<g id="edge35" class="edge">
<title>Node21&#45;&gt;Node6</title>
<path fill="none" stroke="midnightblue" d="M445.64,-111.92C533.81,-97.42 624.26,-83.71 680.96,-75.27"/>
<polygon fill="midnightblue" stroke="midnightblue" points="445.03,-108.48 435.74,-113.56 446.17,-115.38 445.03,-108.48"/>
</g>
<!-- Node22&#45;&gt;Node5 -->
<g id="edge37" class="edge">
<title>Node22&#45;&gt;Node5</title>
<path fill="none" stroke="midnightblue" d="M54.03,-382.83C61.73,-361.27 73,-324.07 73,-291 73,-291 73,-291 73,-121 73,-39.38 378.66,-16.76 463.43,-12.05"/>
<polygon fill="midnightblue" stroke="midnightblue" points="50.71,-381.73 50.51,-392.32 57.27,-384.17 50.71,-381.73"/>
</g>
<!-- Node24&#45;&gt;Node13 -->
<g id="edge51" class="edge">
<title>Node24&#45;&gt;Node13</title>
<path fill="none" stroke="midnightblue" d="M700.75,-445.37C728.24,-436.62 760.91,-424.09 769,-412 801.62,-363.24 805.65,-325.81 769,-280 751.27,-257.84 678,-245.82 625.27,-239.91"/>
<polygon fill="midnightblue" stroke="midnightblue" points="699.43,-442.12 690.92,-448.42 701.51,-448.81 699.43,-442.12"/>
</g>
<!-- Node24&#45;&gt;Node18 -->
<g id="edge50" class="edge">
<title>Node24&#45;&gt;Node18</title>
<path fill="none" stroke="midnightblue" d="M617.88,-446.32C577.67,-436.13 517.86,-420.96 480.71,-411.55"/>
<polygon fill="midnightblue" stroke="midnightblue" points="617.1,-449.73 627.65,-448.8 618.82,-442.95 617.1,-449.73"/>
</g>
<!-- Node25 -->
<g id="node25" class="node">
<title>Node25</title>
<g id="a_node25"><a xlink:href="Tensor_8h.html" target="_top" xlink:title="Templated C++ wrapper for MTensor.">
<polygon fill="white" stroke="black" points="784.5,-168.5 784.5,-187.5 837.5,-187.5 837.5,-168.5 784.5,-168.5"/>
<text text-anchor="middle" x="811" y="-175.5" font-family="Helvetica,sans-Serif" font-size="10.00">Tensor.h</text>
</a>
</g>
</g>
<!-- Node24&#45;&gt;Node25 -->
<g id="edge42" class="edge">
<title>Node24&#45;&gt;Node25</title>
<path fill="none" stroke="midnightblue" d="M701.5,-445.54C733.38,-436.16 774.21,-422.75 788,-412 815.32,-390.7 831,-381.64 831,-347 831,-347 831,-347 831,-289 831,-250.76 819.16,-206.23 813.7,-187.74"/>
<polygon fill="midnightblue" stroke="midnightblue" points="700.14,-442.29 691.51,-448.43 702.09,-449.01 700.14,-442.29"/>
</g>
<!-- Node24&#45;&gt;Node29 -->
<g id="edge49" class="edge">
<title>Node24&#45;&gt;Node29</title>
<path fill="none" stroke="midnightblue" d="M701.89,-447.21C747.01,-436.66 817.82,-420.11 858.78,-410.53"/>
<polygon fill="midnightblue" stroke="midnightblue" points="701.06,-443.81 692.12,-449.49 702.65,-450.62 701.06,-443.81"/>
</g>
<!-- Node25&#45;&gt;Node5 -->
<g id="edge43" class="edge">
<title>Node25&#45;&gt;Node5</title>
<path fill="none" stroke="midnightblue" d="M776.28,-164.86C756.07,-157.01 730.61,-145.69 710,-132 668.88,-104.68 671.64,-80.88 629,-56 589.18,-32.77 536.05,-20.21 506.73,-14.63"/>
<polygon fill="midnightblue" stroke="midnightblue" points="775.14,-168.17 785.73,-168.44 777.61,-161.63 775.14,-168.17"/>
</g>
<!-- Node25&#45;&gt;Node6 -->
<g id="edge44" class="edge">
<title>Node25&#45;&gt;Node6</title>
<path fill="none" stroke="midnightblue" d="M808.54,-158.15C806.07,-144.45 801.23,-125.94 792,-112 781.65,-96.36 764.2,-83.43 751.73,-75.5"/>
<polygon fill="midnightblue" stroke="midnightblue" points="805.13,-158.97 810.12,-168.32 812.05,-157.9 805.13,-158.97"/>
</g>
<!-- Node26 -->
<g id="node26" class="node">
<title>Node26</title>
<g id="a_node26"><a xlink:href="ProgressMonitor_8h.html" target="_top" xlink:title="Definition of ProgressMonitor class.">
<polygon fill="white" stroke="black" points="839.5,-112.5 839.5,-131.5 934.5,-131.5 934.5,-112.5 839.5,-112.5"/>
<text text-anchor="middle" x="887" y="-119.5" font-family="Helvetica,sans-Serif" font-size="10.00">ProgressMonitor.h</text>
</a>
</g>
</g>
<!-- Node25&#45;&gt;Node26 -->
<g id="edge45" class="edge">
<title>Node25&#45;&gt;Node26</title>
<path fill="none" stroke="midnightblue" d="M831.58,-162.38C845.31,-152.62 862.93,-140.11 874.57,-131.83"/>
<polygon fill="midnightblue" stroke="midnightblue" points="829.34,-159.68 823.21,-168.32 833.39,-165.38 829.34,-159.68"/>
</g>
<!-- Node28 -->
<g id="node28" class="node">
<title>Node28</title>
<g id="a_node28"><a xlink:href="Tensor_8cpp.html" target="_top" xlink:title="Template specialization of certain methods from TypedTensor class for all underlying data types that ...">
<polygon fill="white" stroke="black" points="719,-112.5 719,-131.5 783,-131.5 783,-112.5 719,-112.5"/>
<text text-anchor="middle" x="751" y="-119.5" font-family="Helvetica,sans-Serif" font-size="10.00">Tensor.cpp</text>
</a>
</g>
</g>
<!-- Node25&#45;&gt;Node28 -->
<g id="edge48" class="edge">
<title>Node25&#45;&gt;Node28</title>
<path fill="none" stroke="midnightblue" d="M793.82,-161.54C783.12,-151.91 769.74,-139.87 760.82,-131.83"/>
<polygon fill="midnightblue" stroke="midnightblue" points="791.59,-164.24 801.36,-168.32 796.27,-159.03 791.59,-164.24"/>
</g>
<!-- Node26&#45;&gt;Node6 -->
<g id="edge46" class="edge">
<title>Node26&#45;&gt;Node6</title>
<path fill="none" stroke="midnightblue" d="M853.78,-109.04C825.55,-98.88 785.74,-84.55 760.66,-75.52"/>
<polygon fill="midnightblue" stroke="midnightblue" points="852.64,-112.35 863.23,-112.44 855.01,-105.76 852.64,-112.35"/>
</g>
<!-- Node27 -->
<g id="node27" class="node">
<title>Node27</title>
<g id="a_node27"><a xlink:href="ProgressMonitor_8cpp.html" target="_top" xlink:title="Implementation file for ProgressMonitor class.">
<polygon fill="white" stroke="black" points="834,-56.5 834,-75.5 940,-75.5 940,-56.5 834,-56.5"/>
<text text-anchor="middle" x="887" y="-63.5" font-family="Helvetica,sans-Serif" font-size="10.00">ProgressMonitor.cpp</text>
</a>
</g>
</g>
<!-- Node26&#45;&gt;Node27 -->
<g id="edge47" class="edge">
<title>Node26&#45;&gt;Node27</title>
<path fill="none" stroke="midnightblue" d="M887,-101.8C887,-92.91 887,-82.78 887,-75.75"/>
<polygon fill="midnightblue" stroke="midnightblue" points="883.5,-102.08 887,-112.08 890.5,-102.08 883.5,-102.08"/>
</g>
</g>
</svg>
        <g id="navigator" transform="translate(0 0)" fill="#404254">
                <rect fill="#f2f5e9" fill-opacity="0.5" stroke="#606060" stroke-width=".5" x="0" y="0" width="60" height="60"/>
                <use id="zoomplus" xlink:href="#zoomPlus" x="17" y="9" onmousedown="handleZoom(evt,'in')"/>
                <use id="zoomminus" xlink:href="#zoomMin" x="42" y="9" onmousedown="handleZoom(evt,'out')"/>
                <use id="reset" xlink:href="#resetDef" x="30" y="36" onmousedown="handleReset()"/>
                <g id="arrowUp" xlink:href="#dirArrow" transform="translate(30 24)" onmousedown="handlePan(0,-1)">
                  <use xlink:href="#rim" fill="#404040">
                        <set attributeName="fill" to="#808080" begin="arrowUp.mouseover" end="arrowUp.mouseout"/>
                  </use>
                  <path fill="none" stroke="white" stroke-width="1.5" d="M0,-3.0v7 M-2.5,-0.5L0,-3.0L2.5,-0.5"/>
                </g>
                <g id="arrowRight" xlink:href="#dirArrow" transform="rotate(90) translate(36 -43)" onmousedown="handlePan(1,0)">
                  <use xlink:href="#rim" fill="#404040">
                        <set attributeName="fill" to="#808080" begin="arrowRight.mouseover" end="arrowRight.mouseout"/>
                  </use>
                  <path fill="none" stroke="white" stroke-width="1.5" d="M0,-3.0v7 M-2.5,-0.5L0,-3.0L2.5,-0.5"/>
                </g>
                <g id="arrowDown" xlink:href="#dirArrow" transform="rotate(180) translate(-30 -48)" onmousedown="handlePan(0,1)">
                  <use xlink:href="#rim" fill="#404040">
                        <set attributeName="fill" to="#808080" begin="arrowDown.mouseover" end="arrowDown.mouseout"/>
                  </use>
                  <path fill="none" stroke="white" stroke-width="1.5" d="M0,-3.0v7 M-2.5,-0.5L0,-3.0L2.5,-0.5"/>
                </g>
                <g id="arrowLeft" xlink:href="#dirArrow" transform="rotate(270) translate(-36 17)" onmousedown="handlePan(-1,0)">
                  <use xlink:href="#rim" fill="#404040">
                        <set attributeName="fill" to="#808080" begin="arrowLeft.mouseover" end="arrowLeft.mouseout"/>
                  </use>
                  <path fill="none" stroke="white" stroke-width="1.5" d="M0,-3.0v7 M-2.5,-0.5L0,-3.0L2.5,-0.5"/>
                </g>
        </g>
        <svg viewBox="0 0 15 15" width="100%" height="30px" preserveAspectRatio="xMaxYMin meet">
         <g id="arrow_out" transform="scale(0.3 0.3)">
          <a xlink:href="Interfaces_8h__dep__incl_org.svg" target="_base">
           <rect id="button" ry="5" rx="5" y="6" x="6" height="38" width="38"
                fill="#f2f5e9" fill-opacity="0.5" stroke="#606060" stroke-width="1.0"/>
           <path id="arrow"
             d="M 11.500037,31.436501 C 11.940474,20.09759 22.043105,11.32322 32.158766,21.979434 L 37.068811,17.246167 C 37.068811,17.246167 37.088388,32 37.088388,32 L 22.160133,31.978069 C 22.160133,31.978069 26.997745,27.140456 26.997745,27.140456 C 18.528582,18.264221 13.291696,25.230495 11.500037,31.436501 z"
             style="fill:#404040;"/>
          </a>
         </g>
        </svg>
</svg>
