<?xml version="1.0" encoding="UTF-8" standalone="no"?>
<!DOCTYPE svg PUBLIC "-//W3C//DTD SVG 1.1//EN"
 "http://www.w3.org/Graphics/SVG/1.1/DTD/svg11.dtd">
<!-- Generated by graphviz version 2.43.0 (0)
 -->
<!-- Title: IterableContainer.hpp Pages: 1 -->
<svg width="640pt" height="308pt"
 viewBox="0.00 0.00 640.00 308.00" xmlns="http://www.w3.org/2000/svg" xmlns:xlink="http://www.w3.org/1999/xlink">
<g id="graph0" class="graph" transform="scale(1 1) rotate(0) translate(4 304)">
<title>IterableContainer.hpp</title>
<polygon fill="white" stroke="transparent" points="-4,4 -4,-304 636,-304 636,4 -4,4"/>
<!-- Node1 -->
<g id="node1" class="node">
<title>Node1</title>
<g id="a_node1"><a xlink:title="Implementation of the IterableContainer class.">
<polygon fill="#bfbfbf" stroke="black" points="127.5,-280.5 127.5,-299.5 236.5,-299.5 236.5,-280.5 127.5,-280.5"/>
<text text-anchor="middle" x="182" y="-287.5" font-family="Helvetica,sans-Serif" font-size="10.00">IterableContainer.hpp</text>
</a>
</g>
</g>
<!-- Node2 -->
<g id="node2" class="node">
<title>Node2</title>
<g id="a_node2"><a xlink:href="MArray_8hpp.html" target="_top" xlink:title="Template base class for C++ wrappers of LibraryLink containers.">
<polygon fill="white" stroke="black" points="198.5,-224.5 198.5,-243.5 263.5,-243.5 263.5,-224.5 198.5,-224.5"/>
<text text-anchor="middle" x="231" y="-231.5" font-family="Helvetica,sans-Serif" font-size="10.00">MArray.hpp</text>
</a>
</g>
</g>
<!-- Node1&#45;&gt;Node2 -->
<g id="edge1" class="edge">
<title>Node1&#45;&gt;Node2</title>
<path fill="none" stroke="midnightblue" d="M197.03,-272.43C205.62,-262.97 216.04,-251.48 223.06,-243.75"/>
<polygon fill="midnightblue" stroke="midnightblue" points="194.22,-270.33 190.09,-280.08 199.4,-275.03 194.22,-270.33"/>
</g>
<!-- Node15 -->
<g id="node15" class="node">
<title>Node15</title>
<g id="a_node15"><a xlink:href="Views_2Image_8hpp.html" target="_top" xlink:title="Definition and implementation of ImageView and ImageTypedView.">
<polygon fill="white" stroke="black" points="112,-168.5 112,-187.5 174,-187.5 174,-168.5 112,-168.5"/>
<text text-anchor="middle" x="143" y="-175.5" font-family="Helvetica,sans-Serif" font-size="10.00">Image.hpp</text>
</a>
</g>
</g>
<!-- Node1&#45;&gt;Node15 -->
<g id="edge21" class="edge">
<title>Node1&#45;&gt;Node15</title>
<path fill="none" stroke="midnightblue" d="M175.5,-270.67C166.98,-246.62 152.36,-205.39 146.05,-187.59"/>
<polygon fill="midnightblue" stroke="midnightblue" points="172.3,-272.11 178.94,-280.37 178.9,-269.77 172.3,-272.11"/>
</g>
<!-- Node16 -->
<g id="node16" class="node">
<title>Node16</title>
<g id="a_node16"><a xlink:href="Views_2NumericArray_8hpp.html" target="_top" xlink:title="Definition and implementation of NumericArrayView and NumericArrayTypedView.">
<polygon fill="white" stroke="black" points="0,-168.5 0,-187.5 94,-187.5 94,-168.5 0,-168.5"/>
<text text-anchor="middle" x="47" y="-175.5" font-family="Helvetica,sans-Serif" font-size="10.00">NumericArray.hpp</text>
</a>
</g>
</g>
<!-- Node1&#45;&gt;Node16 -->
<g id="edge23" class="edge">
<title>Node1&#45;&gt;Node16</title>
<path fill="none" stroke="midnightblue" d="M163.36,-273.82C134.61,-250.39 80.37,-206.19 57.54,-187.59"/>
<polygon fill="midnightblue" stroke="midnightblue" points="161.44,-276.77 171.41,-280.37 165.87,-271.34 161.44,-276.77"/>
</g>
<!-- Node17 -->
<g id="node17" class="node">
<title>Node17</title>
<g id="a_node17"><a xlink:href="Views_2Tensor_8hpp.html" target="_top" xlink:title="Definition and implementation of TensorView and TensorTypedView.">
<polygon fill="white" stroke="black" points="282,-224.5 282,-243.5 346,-243.5 346,-224.5 282,-224.5"/>
<text text-anchor="middle" x="314" y="-231.5" font-family="Helvetica,sans-Serif" font-size="10.00">Tensor.hpp</text>
</a>
</g>
</g>
<!-- Node1&#45;&gt;Node17 -->
<g id="edge25" class="edge">
<title>Node1&#45;&gt;Node17</title>
<path fill="none" stroke="midnightblue" d="M212.22,-276.64C236.99,-266.5 271.4,-252.43 293.18,-243.52"/>
<polygon fill="midnightblue" stroke="midnightblue" points="210.85,-273.42 202.92,-280.44 213.5,-279.9 210.85,-273.42"/>
</g>
<!-- Node3 -->
<g id="node3" class="node">
<title>Node3</title>
<g id="a_node3"><a xlink:href="Image_8h.html" target="_top" xlink:title="Templated C++ wrapper for MImage.">
<polygon fill="white" stroke="black" points="125,-112.5 125,-131.5 177,-131.5 177,-112.5 125,-112.5"/>
<text text-anchor="middle" x="151" y="-119.5" font-family="Helvetica,sans-Serif" font-size="10.00">Image.h</text>
</a>
</g>
</g>
<!-- Node2&#45;&gt;Node3 -->
<g id="edge2" class="edge">
<title>Node2&#45;&gt;Node3</title>
<path fill="none" stroke="midnightblue" d="M218.83,-216.27C201.54,-192.49 170.48,-149.79 157.25,-131.59"/>
<polygon fill="midnightblue" stroke="midnightblue" points="216.01,-218.34 224.72,-224.37 221.67,-214.22 216.01,-218.34"/>
</g>
<!-- Node8 -->
<g id="node8" class="node">
<title>Node8</title>
<g id="a_node8"><a xlink:href="MArgumentManager_8cpp.html" target="_top" xlink:title="Definitions of non&#45;template member functions and static data members from MArgumentManager class.">
<polygon fill="white" stroke="black" points="510,-0.5 510,-19.5 632,-19.5 632,-0.5 510,-0.5"/>
<text text-anchor="middle" x="571" y="-7.5" font-family="Helvetica,sans-Serif" font-size="10.00">MArgumentManager.cpp</text>
</a>
</g>
</g>
<!-- Node2&#45;&gt;Node8 -->
<g id="edge20" class="edge">
<title>Node2&#45;&gt;Node8</title>
<path fill="none" stroke="midnightblue" d="M273.53,-222.59C358.04,-201.54 540.7,-154.02 560,-132 588.5,-99.48 578.41,-41.45 573.26,-19.62"/>
<polygon fill="midnightblue" stroke="midnightblue" points="272.59,-219.22 263.72,-225.03 274.27,-226.02 272.59,-219.22"/>
</g>
<!-- Node10 -->
<g id="node10" class="node">
<title>Node10</title>
<g id="a_node10"><a xlink:href="NumericArray_8h.html" target="_top" xlink:title="Templated C++ wrapper for MNumericArray.">
<polygon fill="white" stroke="black" points="195.5,-112.5 195.5,-131.5 278.5,-131.5 278.5,-112.5 195.5,-112.5"/>
<text text-anchor="middle" x="237" y="-119.5" font-family="Helvetica,sans-Serif" font-size="10.00">NumericArray.h</text>
</a>
</g>
</g>
<!-- Node2&#45;&gt;Node10 -->
<g id="edge10" class="edge">
<title>Node2&#45;&gt;Node10</title>
<path fill="none" stroke="midnightblue" d="M232.02,-214.35C233.33,-190.25 235.57,-149.31 236.53,-131.59"/>
<polygon fill="midnightblue" stroke="midnightblue" points="228.52,-214.19 231.47,-224.37 235.51,-214.57 228.52,-214.19"/>
</g>
<!-- Node11 -->
<g id="node11" class="node">
<title>Node11</title>
<g id="a_node11"><a xlink:href="Tensor_8h.html" target="_top" xlink:title="Templated C++ wrapper for MTensor.">
<polygon fill="white" stroke="black" points="340.5,-168.5 340.5,-187.5 393.5,-187.5 393.5,-168.5 340.5,-168.5"/>
<text text-anchor="middle" x="367" y="-175.5" font-family="Helvetica,sans-Serif" font-size="10.00">Tensor.h</text>
</a>
</g>
</g>
<!-- Node2&#45;&gt;Node11 -->
<g id="edge13" class="edge">
<title>Node2&#45;&gt;Node11</title>
<path fill="none" stroke="midnightblue" d="M262.13,-220.64C287.66,-210.5 323.11,-196.43 345.55,-187.52"/>
<polygon fill="midnightblue" stroke="midnightblue" points="260.55,-217.5 252.55,-224.44 263.14,-224.01 260.55,-217.5"/>
</g>
<!-- Node4 -->
<g id="node4" class="node">
<title>Node4</title>
<g id="a_node4"><a xlink:href="LLU_8h.html" target="_top" xlink:title="Header file which includes all major parts of LLU.">
<polygon fill="white" stroke="black" points="207.5,-0.5 207.5,-19.5 250.5,-19.5 250.5,-0.5 207.5,-0.5"/>
<text text-anchor="middle" x="229" y="-7.5" font-family="Helvetica,sans-Serif" font-size="10.00">LLU.h</text>
</a>
</g>
</g>
<!-- Node3&#45;&gt;Node4 -->
<g id="edge3" class="edge">
<title>Node3&#45;&gt;Node4</title>
<path fill="none" stroke="midnightblue" d="M166.63,-104.99C174.38,-96.67 183.63,-86.15 191,-76 204.82,-56.96 217.99,-32.56 224.6,-19.75"/>
<polygon fill="midnightblue" stroke="midnightblue" points="163.87,-102.82 159.51,-112.47 168.94,-107.64 163.87,-102.82"/>
</g>
<!-- Node5 -->
<g id="node5" class="node">
<title>Node5</title>
<g id="a_node5"><a xlink:href="MArgumentManager_8h.html" target="_top" xlink:title="Definition of MArgumentManager class.">
<polygon fill="white" stroke="black" points="327,-56.5 327,-75.5 439,-75.5 439,-56.5 327,-56.5"/>
<text text-anchor="middle" x="383" y="-63.5" font-family="Helvetica,sans-Serif" font-size="10.00">MArgumentManager.h</text>
</a>
</g>
</g>
<!-- Node3&#45;&gt;Node5 -->
<g id="edge4" class="edge">
<title>Node3&#45;&gt;Node5</title>
<path fill="none" stroke="midnightblue" d="M187.12,-112.01C248.04,-97.44 307.1,-84.02 344.64,-75.58"/>
<polygon fill="midnightblue" stroke="midnightblue" points="186.24,-108.62 177.33,-114.35 187.87,-115.43 186.24,-108.62"/>
</g>
<!-- Node9 -->
<g id="node9" class="node">
<title>Node9</title>
<g id="a_node9"><a xlink:href="Image_8cpp.html" target="_top" xlink:title="Template specializations of Image::type attribute for all data types that we want to support.">
<polygon fill="white" stroke="black" points="120,-56.5 120,-75.5 182,-75.5 182,-56.5 120,-56.5"/>
<text text-anchor="middle" x="151" y="-63.5" font-family="Helvetica,sans-Serif" font-size="10.00">Image.cpp</text>
</a>
</g>
</g>
<!-- Node3&#45;&gt;Node9 -->
<g id="edge9" class="edge">
<title>Node3&#45;&gt;Node9</title>
<path fill="none" stroke="midnightblue" d="M151,-101.8C151,-92.91 151,-82.78 151,-75.75"/>
<polygon fill="midnightblue" stroke="midnightblue" points="147.5,-102.08 151,-112.08 154.5,-102.08 147.5,-102.08"/>
</g>
<!-- Node5&#45;&gt;Node4 -->
<g id="edge5" class="edge">
<title>Node5&#45;&gt;Node4</title>
<path fill="none" stroke="midnightblue" d="M348.98,-53.07C319.05,-42.57 276.36,-27.61 250.8,-18.64"/>
<polygon fill="midnightblue" stroke="midnightblue" points="348,-56.44 358.6,-56.44 350.32,-49.83 348,-56.44"/>
</g>
<!-- Node6 -->
<g id="node6" class="node">
<title>Node6</title>
<g id="a_node6"><a xlink:href="LibraryLinkError_8cpp.html" target="_top" xlink:title="Contains definitions of ErrorManager members and implementation of interface function sendRegisteredE...">
<polygon fill="white" stroke="black" points="376.5,-0.5 376.5,-19.5 479.5,-19.5 479.5,-0.5 376.5,-0.5"/>
<text text-anchor="middle" x="428" y="-7.5" font-family="Helvetica,sans-Serif" font-size="10.00">LibraryLinkError.cpp</text>
</a>
</g>
</g>
<!-- Node5&#45;&gt;Node6 -->
<g id="edge6" class="edge">
<title>Node5&#45;&gt;Node6</title>
<path fill="none" stroke="midnightblue" d="M397.05,-48.14C404.89,-38.74 414.33,-27.4 420.71,-19.75"/>
<polygon fill="midnightblue" stroke="midnightblue" points="394.14,-46.16 390.43,-56.08 399.52,-50.64 394.14,-46.16"/>
</g>
<!-- Node7 -->
<g id="node7" class="node">
<title>Node7</title>
<g id="a_node7"><a xlink:href="Logger_8cpp.html" target="_top" xlink:title="Implementation of functions defined in Logger.h.">
<polygon fill="white" stroke="black" points="294,-0.5 294,-19.5 358,-19.5 358,-0.5 294,-0.5"/>
<text text-anchor="middle" x="326" y="-7.5" font-family="Helvetica,sans-Serif" font-size="10.00">Logger.cpp</text>
</a>
</g>
</g>
<!-- Node5&#45;&gt;Node7 -->
<g id="edge7" class="edge">
<title>Node5&#45;&gt;Node7</title>
<path fill="none" stroke="midnightblue" d="M366.38,-49.25C356.27,-39.67 343.72,-27.79 335.32,-19.83"/>
<polygon fill="midnightblue" stroke="midnightblue" points="364.18,-51.99 373.84,-56.32 368.99,-46.91 364.18,-51.99"/>
</g>
<!-- Node5&#45;&gt;Node8 -->
<g id="edge8" class="edge">
<title>Node5&#45;&gt;Node8</title>
<path fill="none" stroke="midnightblue" d="M422.8,-53.57C458.27,-43.38 509.37,-28.7 541.35,-19.52"/>
<polygon fill="midnightblue" stroke="midnightblue" points="421.43,-50.32 412.79,-56.44 423.37,-57.05 421.43,-50.32"/>
</g>
<!-- Node10&#45;&gt;Node4 -->
<g id="edge11" class="edge">
<title>Node10&#45;&gt;Node4</title>
<path fill="none" stroke="midnightblue" d="M235.64,-102.35C233.89,-78.25 230.91,-37.31 229.62,-19.59"/>
<polygon fill="midnightblue" stroke="midnightblue" points="232.16,-102.65 236.37,-112.37 239.14,-102.14 232.16,-102.65"/>
</g>
<!-- Node10&#45;&gt;Node5 -->
<g id="edge12" class="edge">
<title>Node10&#45;&gt;Node5</title>
<path fill="none" stroke="midnightblue" d="M269.7,-108.91C297.15,-98.75 335.67,-84.51 359.97,-75.52"/>
<polygon fill="midnightblue" stroke="midnightblue" points="268.3,-105.69 260.13,-112.44 270.73,-112.26 268.3,-105.69"/>
</g>
<!-- Node11&#45;&gt;Node4 -->
<g id="edge14" class="edge">
<title>Node11&#45;&gt;Node4</title>
<path fill="none" stroke="midnightblue" d="M351.8,-160.82C343.96,-152.35 334.33,-141.74 326,-132 290.83,-90.87 251.09,-39.73 235.64,-19.66"/>
<polygon fill="midnightblue" stroke="midnightblue" points="349.29,-163.25 358.66,-168.18 354.41,-158.48 349.29,-163.25"/>
</g>
<!-- Node11&#45;&gt;Node5 -->
<g id="edge15" class="edge">
<title>Node11&#45;&gt;Node5</title>
<path fill="none" stroke="midnightblue" d="M386.25,-161.75C394.63,-153.87 403.55,-143.5 408,-132 415.77,-111.93 400.65,-88.35 390.71,-75.84"/>
<polygon fill="midnightblue" stroke="midnightblue" points="383.76,-159.27 378.54,-168.49 388.37,-164.54 383.76,-159.27"/>
</g>
<!-- Node12 -->
<g id="node12" class="node">
<title>Node12</title>
<g id="a_node12"><a xlink:href="ProgressMonitor_8h.html" target="_top" xlink:title="Definition of ProgressMonitor class.">
<polygon fill="white" stroke="black" points="455.5,-112.5 455.5,-131.5 550.5,-131.5 550.5,-112.5 455.5,-112.5"/>
<text text-anchor="middle" x="503" y="-119.5" font-family="Helvetica,sans-Serif" font-size="10.00">ProgressMonitor.h</text>
</a>
</g>
</g>
<!-- Node11&#45;&gt;Node12 -->
<g id="edge16" class="edge">
<title>Node11&#45;&gt;Node12</title>
<path fill="none" stroke="midnightblue" d="M398.13,-164.64C423.66,-154.5 459.11,-140.43 481.55,-131.52"/>
<polygon fill="midnightblue" stroke="midnightblue" points="396.55,-161.5 388.55,-168.44 399.14,-168.01 396.55,-161.5"/>
</g>
<!-- Node14 -->
<g id="node14" class="node">
<title>Node14</title>
<g id="a_node14"><a xlink:href="Tensor_8cpp.html" target="_top" xlink:title="Template specialization of certain methods from TypedTensor class for all underlying data types that ...">
<polygon fill="white" stroke="black" points="335,-112.5 335,-131.5 399,-131.5 399,-112.5 335,-112.5"/>
<text text-anchor="middle" x="367" y="-119.5" font-family="Helvetica,sans-Serif" font-size="10.00">Tensor.cpp</text>
</a>
</g>
</g>
<!-- Node11&#45;&gt;Node14 -->
<g id="edge19" class="edge">
<title>Node11&#45;&gt;Node14</title>
<path fill="none" stroke="midnightblue" d="M367,-157.8C367,-148.91 367,-138.78 367,-131.75"/>
<polygon fill="midnightblue" stroke="midnightblue" points="363.5,-158.08 367,-168.08 370.5,-158.08 363.5,-158.08"/>
</g>
<!-- Node12&#45;&gt;Node5 -->
<g id="edge17" class="edge">
<title>Node12&#45;&gt;Node5</title>
<path fill="none" stroke="midnightblue" d="M474.63,-108.23C452.18,-98.13 421.46,-84.31 401.93,-75.52"/>
<polygon fill="midnightblue" stroke="midnightblue" points="473.43,-111.53 483.99,-112.44 476.3,-105.15 473.43,-111.53"/>
</g>
<!-- Node13 -->
<g id="node13" class="node">
<title>Node13</title>
<g id="a_node13"><a xlink:href="ProgressMonitor_8cpp.html" target="_top" xlink:title="Implementation file for ProgressMonitor class.">
<polygon fill="white" stroke="black" points="457,-56.5 457,-75.5 563,-75.5 563,-56.5 457,-56.5"/>
<text text-anchor="middle" x="510" y="-63.5" font-family="Helvetica,sans-Serif" font-size="10.00">ProgressMonitor.cpp</text>
</a>
</g>
</g>
<!-- Node12&#45;&gt;Node13 -->
<g id="edge18" class="edge">
<title>Node12&#45;&gt;Node13</title>
<path fill="none" stroke="midnightblue" d="M505.45,-102.1C506.61,-93.14 507.94,-82.86 508.87,-75.75"/>
<polygon fill="midnightblue" stroke="midnightblue" points="501.97,-101.72 504.16,-112.08 508.91,-102.62 501.97,-101.72"/>
</g>
<!-- Node15&#45;&gt;Node4 -->
<g id="edge22" class="edge">
<title>Node15&#45;&gt;Node4</title>
<path fill="none" stroke="midnightblue" d="M130.35,-159.86C113.65,-134.95 88.81,-88.21 111,-56 132.64,-24.58 179.38,-15.08 207.1,-12.22"/>
<polygon fill="midnightblue" stroke="midnightblue" points="127.63,-162.08 136.24,-168.26 133.36,-158.06 127.63,-162.08"/>
</g>
<!-- Node16&#45;&gt;Node4 -->
<g id="edge24" class="edge">
<title>Node16&#45;&gt;Node4</title>
<path fill="none" stroke="midnightblue" d="M50.11,-158.47C55.49,-132.12 68.97,-83.93 99,-56 129.61,-27.54 179.12,-16.96 207.38,-13.12"/>
<polygon fill="midnightblue" stroke="midnightblue" points="46.67,-157.83 48.28,-168.31 53.56,-159.12 46.67,-157.83"/>
</g>
</g>
</svg>
