<?xml version="1.0" encoding="UTF-8" standalone="no"?>
<!DOCTYPE svg PUBLIC "-//W3C//DTD SVG 1.1//EN"
 "http://www.w3.org/Graphics/SVG/1.1/DTD/svg11.dtd">
<!-- Generated by graphviz version 2.43.0 (0)
 -->
<!-- Title: IterableContainer.hpp Pages: 1 -->
<svg width="912pt" height="140pt"
 viewBox="0.00 0.00 911.50 140.00" xmlns="http://www.w3.org/2000/svg" xmlns:xlink="http://www.w3.org/1999/xlink">
<g id="graph0" class="graph" transform="scale(1 1) rotate(0) translate(4 136)">
<title>IterableContainer.hpp</title>
<polygon fill="white" stroke="transparent" points="-4,4 -4,-136 907.5,-136 907.5,4 -4,4"/>
<!-- Node1 -->
<g id="node1" class="node">
<title>Node1</title>
<g id="a_node1"><a xlink:title="Implementation of the IterableContainer class.">
<polygon fill="#bfbfbf" stroke="black" points="183.5,-112.5 183.5,-131.5 292.5,-131.5 292.5,-112.5 183.5,-112.5"/>
<text text-anchor="middle" x="238" y="-119.5" font-family="Helvetica,sans-Serif" font-size="10.00">IterableContainer.hpp</text>
</a>
</g>
</g>
<!-- Node2 -->
<g id="node2" class="node">
<title>Node2</title>
<g id="a_node2"><a xlink:title=" ">
<polygon fill="white" stroke="#bfbfbf" points="150.5,-56.5 150.5,-75.5 197.5,-75.5 197.5,-56.5 150.5,-56.5"/>
<text text-anchor="middle" x="174" y="-63.5" font-family="Helvetica,sans-Serif" font-size="10.00">iterator</text>
</a>
</g>
</g>
<!-- Node1&#45;&gt;Node2 -->
<g id="edge1" class="edge">
<title>Node1&#45;&gt;Node2</title>
<path fill="none" stroke="midnightblue" d="M227.72,-112.32C218.16,-104.26 203.72,-92.08 192.22,-82.37"/>
<polygon fill="midnightblue" stroke="midnightblue" points="194.37,-79.61 184.47,-75.83 189.86,-84.96 194.37,-79.61"/>
</g>
<!-- Node3 -->
<g id="node3" class="node">
<title>Node3</title>
<g id="a_node3"><a xlink:title=" ">
<polygon fill="white" stroke="#bfbfbf" points="216,-56.5 216,-75.5 260,-75.5 260,-56.5 216,-56.5"/>
<text text-anchor="middle" x="238" y="-63.5" font-family="Helvetica,sans-Serif" font-size="10.00">vector</text>
</a>
</g>
</g>
<!-- Node1&#45;&gt;Node3 -->
<g id="edge2" class="edge">
<title>Node1&#45;&gt;Node3</title>
<path fill="none" stroke="midnightblue" d="M238,-112.08C238,-105.01 238,-94.86 238,-85.99"/>
<polygon fill="midnightblue" stroke="midnightblue" points="241.5,-85.75 238,-75.75 234.5,-85.75 241.5,-85.75"/>
</g>
<!-- Node4 -->
<g id="node4" class="node">
<title>Node4</title>
<g id="a_node4"><a xlink:href="LibraryData_8h.html" target="_top" xlink:title=" ">
<polygon fill="white" stroke="black" points="278,-56.5 278,-75.5 374,-75.5 374,-56.5 278,-56.5"/>
<text text-anchor="middle" x="326" y="-63.5" font-family="Helvetica,sans-Serif" font-size="10.00">LLU/LibraryData.h</text>
</a>
</g>
</g>
<!-- Node1&#45;&gt;Node4 -->
<g id="edge3" class="edge">
<title>Node1&#45;&gt;Node4</title>
<path fill="none" stroke="midnightblue" d="M252.14,-112.32C265.87,-103.9 286.94,-90.97 303.06,-81.07"/>
<polygon fill="midnightblue" stroke="midnightblue" points="305.2,-83.87 311.9,-75.65 301.54,-77.9 305.2,-83.87"/>
</g>
<!-- Node5 -->
<g id="node5" class="node">
<title>Node5</title>
<g id="a_node5"><a xlink:title=" ">
<polygon fill="white" stroke="#bfbfbf" points="0,-0.5 0,-19.5 52,-19.5 52,-0.5 0,-0.5"/>
<text text-anchor="middle" x="26" y="-7.5" font-family="Helvetica,sans-Serif" font-size="10.00">memory</text>
</a>
</g>
</g>
<!-- Node4&#45;&gt;Node5 -->
<g id="edge4" class="edge">
<title>Node4&#45;&gt;Node5</title>
<path fill="none" stroke="midnightblue" d="M277.96,-57.34C217.28,-47.58 115.29,-30.89 62.25,-20.09"/>
<polygon fill="midnightblue" stroke="midnightblue" points="62.82,-16.64 52.32,-18.02 61.39,-23.49 62.82,-16.64"/>
</g>
<!-- Node6 -->
<g id="node6" class="node">
<title>Node6</title>
<g id="a_node6"><a xlink:title=" ">
<polygon fill="white" stroke="#bfbfbf" points="70,-0.5 70,-19.5 132,-19.5 132,-0.5 70,-0.5"/>
<text text-anchor="middle" x="101" y="-7.5" font-family="Helvetica,sans-Serif" font-size="10.00">dllexport.h</text>
</a>
</g>
</g>
<!-- Node4&#45;&gt;Node6 -->
<g id="edge5" class="edge">
<title>Node4&#45;&gt;Node6</title>
<path fill="none" stroke="midnightblue" d="M290.35,-56.44C249.97,-46.75 184.28,-30.99 141.87,-20.81"/>
<polygon fill="midnightblue" stroke="midnightblue" points="142.68,-17.4 132.14,-18.47 141.04,-24.21 142.68,-17.4"/>
</g>
<!-- Node7 -->
<g id="node7" class="node">
<title>Node7</title>
<g id="a_node7"><a xlink:title=" ">
<polygon fill="white" stroke="#bfbfbf" points="150,-0.5 150,-19.5 196,-19.5 196,-0.5 150,-0.5"/>
<text text-anchor="middle" x="173" y="-7.5" font-family="Helvetica,sans-Serif" font-size="10.00">wstp.h</text>
</a>
</g>
</g>
<!-- Node4&#45;&gt;Node7 -->
<g id="edge6" class="edge">
<title>Node4&#45;&gt;Node7</title>
<path fill="none" stroke="midnightblue" d="M301.76,-56.44C275.83,-47.29 234.56,-32.73 205.75,-22.56"/>
<polygon fill="midnightblue" stroke="midnightblue" points="206.72,-19.19 196.13,-19.16 204.39,-25.79 206.72,-19.19"/>
</g>
<!-- Node8 -->
<g id="node8" class="node">
<title>Node8</title>
<g id="a_node8"><a xlink:title=" ">
<polygon fill="white" stroke="#bfbfbf" points="214.5,-0.5 214.5,-19.5 303.5,-19.5 303.5,-0.5 214.5,-0.5"/>
<text text-anchor="middle" x="259" y="-7.5" font-family="Helvetica,sans-Serif" font-size="10.00">WolframLibrary.h</text>
</a>
</g>
</g>
<!-- Node4&#45;&gt;Node8 -->
<g id="edge7" class="edge">
<title>Node4&#45;&gt;Node8</title>
<path fill="none" stroke="midnightblue" d="M315.24,-56.32C305.23,-48.26 290.11,-36.08 278.07,-26.37"/>
<polygon fill="midnightblue" stroke="midnightblue" points="279.94,-23.38 269.96,-19.83 275.55,-28.83 279.94,-23.38"/>
</g>
<!-- Node9 -->
<g id="node9" class="node">
<title>Node9</title>
<g id="a_node9"><a xlink:title=" ">
<polygon fill="white" stroke="#bfbfbf" points="321.5,-0.5 321.5,-19.5 464.5,-19.5 464.5,-0.5 321.5,-0.5"/>
<text text-anchor="middle" x="393" y="-7.5" font-family="Helvetica,sans-Serif" font-size="10.00">WolframIOLibraryFunctions.h</text>
</a>
</g>
</g>
<!-- Node4&#45;&gt;Node9 -->
<g id="edge8" class="edge">
<title>Node4&#45;&gt;Node9</title>
<path fill="none" stroke="midnightblue" d="M336.76,-56.32C346.77,-48.26 361.89,-36.08 373.93,-26.37"/>
<polygon fill="midnightblue" stroke="midnightblue" points="376.45,-28.83 382.04,-19.83 372.06,-23.38 376.45,-28.83"/>
</g>
<!-- Node10 -->
<g id="node10" class="node">
<title>Node10</title>
<g id="a_node10"><a xlink:title=" ">
<polygon fill="white" stroke="#bfbfbf" points="483,-0.5 483,-19.5 599,-19.5 599,-0.5 483,-0.5"/>
<text text-anchor="middle" x="541" y="-7.5" font-family="Helvetica,sans-Serif" font-size="10.00">WolframImageLibrary.h</text>
</a>
</g>
</g>
<!-- Node4&#45;&gt;Node10 -->
<g id="edge9" class="edge">
<title>Node4&#45;&gt;Node10</title>
<path fill="none" stroke="midnightblue" d="M360.07,-56.44C397.18,-47.12 456.66,-32.18 497.21,-22"/>
<polygon fill="midnightblue" stroke="midnightblue" points="498.25,-25.35 507.09,-19.52 496.54,-18.56 498.25,-25.35"/>
</g>
<!-- Node11 -->
<g id="node11" class="node">
<title>Node11</title>
<g id="a_node11"><a xlink:title=" ">
<polygon fill="white" stroke="#bfbfbf" points="617.5,-0.5 617.5,-19.5 766.5,-19.5 766.5,-0.5 617.5,-0.5"/>
<text text-anchor="middle" x="692" y="-7.5" font-family="Helvetica,sans-Serif" font-size="10.00">WolframNumericArrayLibrary.h</text>
</a>
</g>
</g>
<!-- Node4&#45;&gt;Node11 -->
<g id="edge10" class="edge">
<title>Node4&#45;&gt;Node11</title>
<path fill="none" stroke="midnightblue" d="M374.22,-57.88C438.28,-48.43 551.76,-31.69 624.35,-20.98"/>
<polygon fill="midnightblue" stroke="midnightblue" points="624.94,-24.43 634.32,-19.51 623.91,-17.51 624.94,-24.43"/>
</g>
<!-- Node12 -->
<g id="node12" class="node">
<title>Node12</title>
<g id="a_node12"><a xlink:title=" ">
<polygon fill="white" stroke="#bfbfbf" points="784.5,-0.5 784.5,-19.5 903.5,-19.5 903.5,-0.5 784.5,-0.5"/>
<text text-anchor="middle" x="844" y="-7.5" font-family="Helvetica,sans-Serif" font-size="10.00">WolframSparseLibrary.h</text>
</a>
</g>
</g>
<!-- Node4&#45;&gt;Node12 -->
<g id="edge11" class="edge">
<title>Node4&#45;&gt;Node12</title>
<path fill="none" stroke="midnightblue" d="M374.01,-60.71C454.58,-53.39 622.36,-37.68 774.32,-20.17"/>
<polygon fill="midnightblue" stroke="midnightblue" points="774.78,-23.64 784.31,-19.01 773.97,-16.68 774.78,-23.64"/>
</g>
</g>
</svg>
