<?xml version="1.0" encoding="UTF-8" standalone="no"?>
<!DOCTYPE svg PUBLIC "-//W3C//DTD SVG 1.1//EN"
 "http://www.w3.org/Graphics/SVG/1.1/DTD/svg11.dtd">
<!-- Generated by graphviz version 2.43.0 (0)
 -->
<!-- Title: DataStore.hpp Pages: 1 -->
<svg width="396pt" height="364pt"
 viewBox="0.00 0.00 395.53 364.00" xmlns="http://www.w3.org/2000/svg" xmlns:xlink="http://www.w3.org/1999/xlink">
<g id="graph0" class="graph" transform="scale(1 1) rotate(0) translate(4 360)">
<title>DataStore.hpp</title>
<polygon fill="white" stroke="transparent" points="-4,4 -4,-360 391.53,-360 391.53,4 -4,4"/>
<!-- Node1 -->
<g id="node1" class="node">
<title>Node1</title>
<g id="a_node1"><a xlink:title=" ">
<polygon fill="#bfbfbf" stroke="black" points="258.5,-336.5 258.5,-355.5 338.5,-355.5 338.5,-336.5 258.5,-336.5"/>
<text text-anchor="middle" x="298.5" y="-343.5" font-family="Helvetica,sans-Serif" font-size="10.00">DataStore.hpp</text>
</a>
</g>
</g>
<!-- Node2 -->
<g id="node2" class="node">
<title>Node2</title>
<g id="a_node2"><a xlink:href="Generic_2DataStore_8hpp.html" target="_top" xlink:title="Definition and implementation of generic DataStore wrapper.">
<polygon fill="white" stroke="black" points="159.5,-280.5 159.5,-299.5 239.5,-299.5 239.5,-280.5 159.5,-280.5"/>
<text text-anchor="middle" x="199.5" y="-287.5" font-family="Helvetica,sans-Serif" font-size="10.00">DataStore.hpp</text>
</a>
</g>
</g>
<!-- Node1&#45;&gt;Node2 -->
<g id="edge1" class="edge">
<title>Node1&#45;&gt;Node2</title>
<path fill="none" stroke="midnightblue" d="M273.66,-331.45C255.39,-321.48 231.08,-308.23 215.37,-299.65"/>
<polygon fill="midnightblue" stroke="midnightblue" points="272.14,-334.61 282.59,-336.32 275.49,-328.46 272.14,-334.61"/>
</g>
<!-- Node10 -->
<g id="node10" class="node">
<title>Node10</title>
<g id="a_node10"><a xlink:href="DataList_8hpp.html" target="_top" xlink:title="Special iterators for DataLists. Iteration over keys, values, reversed iteration.">
<polygon fill="white" stroke="black" points="65.5,-168.5 65.5,-187.5 137.5,-187.5 137.5,-168.5 65.5,-168.5"/>
<text text-anchor="middle" x="101.5" y="-175.5" font-family="Helvetica,sans-Serif" font-size="10.00">DataList.hpp</text>
</a>
</g>
</g>
<!-- Node1&#45;&gt;Node10 -->
<g id="edge14" class="edge">
<title>Node1&#45;&gt;Node10</title>
<path fill="none" stroke="midnightblue" d="M320.71,-330.29C353.68,-306.69 408.63,-259.42 378.5,-224 347.96,-188.1 205.33,-180.76 137.51,-179.32"/>
<polygon fill="midnightblue" stroke="midnightblue" points="318.29,-327.71 312.08,-336.29 322.29,-333.46 318.29,-327.71"/>
</g>
<!-- Node3 -->
<g id="node3" class="node">
<title>Node3</title>
<g id="a_node3"><a xlink:href="DataList_8h.html" target="_top" xlink:title="Definition of templated DataStore wrapper called DataList.">
<polygon fill="white" stroke="black" points="36.5,-112.5 36.5,-131.5 98.5,-131.5 98.5,-112.5 36.5,-112.5"/>
<text text-anchor="middle" x="67.5" y="-119.5" font-family="Helvetica,sans-Serif" font-size="10.00">DataList.h</text>
</a>
</g>
</g>
<!-- Node2&#45;&gt;Node3 -->
<g id="edge2" class="edge">
<title>Node2&#45;&gt;Node3</title>
<path fill="none" stroke="midnightblue" d="M149.35,-288.09C116.07,-284.55 74.58,-273.85 52.5,-244 26.82,-209.28 51.59,-153.06 62.72,-131.65"/>
<polygon fill="midnightblue" stroke="midnightblue" points="149.12,-291.58 159.39,-288.98 149.74,-284.61 149.12,-291.58"/>
</g>
<!-- Node9 -->
<g id="node9" class="node">
<title>Node9</title>
<g id="a_node9"><a xlink:href="DataNode_8hpp.html" target="_top" xlink:title=" ">
<polygon fill="white" stroke="black" points="61.5,-224.5 61.5,-243.5 141.5,-243.5 141.5,-224.5 61.5,-224.5"/>
<text text-anchor="middle" x="101.5" y="-231.5" font-family="Helvetica,sans-Serif" font-size="10.00">DataNode.hpp</text>
</a>
</g>
</g>
<!-- Node2&#45;&gt;Node9 -->
<g id="edge9" class="edge">
<title>Node2&#45;&gt;Node9</title>
<path fill="none" stroke="midnightblue" d="M174.91,-275.45C156.82,-265.48 132.77,-252.23 117.21,-243.65"/>
<polygon fill="midnightblue" stroke="midnightblue" points="173.31,-278.56 183.75,-280.32 176.69,-272.43 173.31,-278.56"/>
</g>
<!-- Node11 -->
<g id="node11" class="node">
<title>Node11</title>
<g id="a_node11"><a xlink:href="DataStore_8cpp.html" target="_top" xlink:title=" ">
<polygon fill="white" stroke="black" points="159.5,-224.5 159.5,-243.5 239.5,-243.5 239.5,-224.5 159.5,-224.5"/>
<text text-anchor="middle" x="199.5" y="-231.5" font-family="Helvetica,sans-Serif" font-size="10.00">DataStore.cpp</text>
</a>
</g>
</g>
<!-- Node2&#45;&gt;Node11 -->
<g id="edge12" class="edge">
<title>Node2&#45;&gt;Node11</title>
<path fill="none" stroke="midnightblue" d="M199.5,-269.8C199.5,-260.91 199.5,-250.78 199.5,-243.75"/>
<polygon fill="midnightblue" stroke="midnightblue" points="196,-270.08 199.5,-280.08 203,-270.08 196,-270.08"/>
</g>
<!-- Node12 -->
<g id="node12" class="node">
<title>Node12</title>
<g id="a_node12"><a xlink:href="TypedMArgument_8cpp.html" target="_top" xlink:title=" ">
<polygon fill="white" stroke="black" points="257.5,-224.5 257.5,-243.5 369.5,-243.5 369.5,-224.5 257.5,-224.5"/>
<text text-anchor="middle" x="313.5" y="-231.5" font-family="Helvetica,sans-Serif" font-size="10.00">TypedMArgument.cpp</text>
</a>
</g>
</g>
<!-- Node2&#45;&gt;Node12 -->
<g id="edge13" class="edge">
<title>Node2&#45;&gt;Node12</title>
<path fill="none" stroke="midnightblue" d="M226.74,-276.1C248.04,-266.01 277.04,-252.27 295.52,-243.52"/>
<polygon fill="midnightblue" stroke="midnightblue" points="225.1,-273 217.56,-280.44 228.1,-279.33 225.1,-273"/>
</g>
<!-- Node4 -->
<g id="node4" class="node">
<title>Node4</title>
<g id="a_node4"><a xlink:href="LLU_8h.html" target="_top" xlink:title="Header file which includes all major parts of LLU.">
<polygon fill="white" stroke="black" points="0,-0.5 0,-19.5 43,-19.5 43,-0.5 0,-0.5"/>
<text text-anchor="middle" x="21.5" y="-7.5" font-family="Helvetica,sans-Serif" font-size="10.00">LLU.h</text>
</a>
</g>
</g>
<!-- Node3&#45;&gt;Node4 -->
<g id="edge3" class="edge">
<title>Node3&#45;&gt;Node4</title>
<path fill="none" stroke="midnightblue" d="M59.35,-103.09C55.66,-94.87 51.29,-84.97 47.5,-76 39.09,-56.07 29.8,-32.43 24.93,-19.87"/>
<polygon fill="midnightblue" stroke="midnightblue" points="56.26,-104.74 63.57,-112.42 62.64,-101.86 56.26,-104.74"/>
</g>
<!-- Node5 -->
<g id="node5" class="node">
<title>Node5</title>
<g id="a_node5"><a xlink:href="MArgumentManager_8h.html" target="_top" xlink:title="Definition of MArgumentManager class.">
<polygon fill="white" stroke="black" points="56.5,-56.5 56.5,-75.5 168.5,-75.5 168.5,-56.5 56.5,-56.5"/>
<text text-anchor="middle" x="112.5" y="-63.5" font-family="Helvetica,sans-Serif" font-size="10.00">MArgumentManager.h</text>
</a>
</g>
</g>
<!-- Node3&#45;&gt;Node5 -->
<g id="edge4" class="edge">
<title>Node3&#45;&gt;Node5</title>
<path fill="none" stroke="midnightblue" d="M81.55,-104.14C89.39,-94.74 98.83,-83.4 105.21,-75.75"/>
<polygon fill="midnightblue" stroke="midnightblue" points="78.64,-102.16 74.93,-112.08 84.02,-106.64 78.64,-102.16"/>
</g>
<!-- Node5&#45;&gt;Node4 -->
<g id="edge5" class="edge">
<title>Node5&#45;&gt;Node4</title>
<path fill="none" stroke="midnightblue" d="M89.21,-51.18C72.46,-41.24 50.4,-28.15 36.08,-19.65"/>
<polygon fill="midnightblue" stroke="midnightblue" points="87.49,-54.23 97.88,-56.32 91.07,-48.21 87.49,-54.23"/>
</g>
<!-- Node6 -->
<g id="node6" class="node">
<title>Node6</title>
<g id="a_node6"><a xlink:href="LibraryLinkError_8cpp.html" target="_top" xlink:title="Contains definitions of ErrorManager members and implementation of interface function sendRegisteredE...">
<polygon fill="white" stroke="black" points="61,-0.5 61,-19.5 164,-19.5 164,-0.5 61,-0.5"/>
<text text-anchor="middle" x="112.5" y="-7.5" font-family="Helvetica,sans-Serif" font-size="10.00">LibraryLinkError.cpp</text>
</a>
</g>
</g>
<!-- Node5&#45;&gt;Node6 -->
<g id="edge6" class="edge">
<title>Node5&#45;&gt;Node6</title>
<path fill="none" stroke="midnightblue" d="M112.5,-45.8C112.5,-36.91 112.5,-26.78 112.5,-19.75"/>
<polygon fill="midnightblue" stroke="midnightblue" points="109,-46.08 112.5,-56.08 116,-46.08 109,-46.08"/>
</g>
<!-- Node7 -->
<g id="node7" class="node">
<title>Node7</title>
<g id="a_node7"><a xlink:href="Logger_8cpp.html" target="_top" xlink:title="Implementation of functions defined in Logger.h.">
<polygon fill="white" stroke="black" points="182.5,-0.5 182.5,-19.5 246.5,-19.5 246.5,-0.5 182.5,-0.5"/>
<text text-anchor="middle" x="214.5" y="-7.5" font-family="Helvetica,sans-Serif" font-size="10.00">Logger.cpp</text>
</a>
</g>
</g>
<!-- Node5&#45;&gt;Node7 -->
<g id="edge7" class="edge">
<title>Node5&#45;&gt;Node7</title>
<path fill="none" stroke="midnightblue" d="M137.83,-51.59C156.69,-41.61 181.88,-28.27 198.15,-19.65"/>
<polygon fill="midnightblue" stroke="midnightblue" points="136.09,-48.55 128.89,-56.32 139.36,-54.74 136.09,-48.55"/>
</g>
<!-- Node8 -->
<g id="node8" class="node">
<title>Node8</title>
<g id="a_node8"><a xlink:href="MArgumentManager_8cpp.html" target="_top" xlink:title="Definitions of non&#45;template member functions and static data members from MArgumentManager class.">
<polygon fill="white" stroke="black" points="264.5,-0.5 264.5,-19.5 386.5,-19.5 386.5,-0.5 264.5,-0.5"/>
<text text-anchor="middle" x="325.5" y="-7.5" font-family="Helvetica,sans-Serif" font-size="10.00">MArgumentManager.cpp</text>
</a>
</g>
</g>
<!-- Node5&#45;&gt;Node8 -->
<g id="edge8" class="edge">
<title>Node5&#45;&gt;Node8</title>
<path fill="none" stroke="midnightblue" d="M156.05,-53.96C196.28,-43.76 255.2,-28.82 291.91,-19.52"/>
<polygon fill="midnightblue" stroke="midnightblue" points="155.08,-50.59 146.25,-56.44 156.8,-57.38 155.08,-50.59"/>
</g>
<!-- Node9&#45;&gt;Node10 -->
<g id="edge10" class="edge">
<title>Node9&#45;&gt;Node10</title>
<path fill="none" stroke="midnightblue" d="M101.5,-213.8C101.5,-204.91 101.5,-194.78 101.5,-187.75"/>
<polygon fill="midnightblue" stroke="midnightblue" points="98,-214.08 101.5,-224.08 105,-214.08 98,-214.08"/>
</g>
<!-- Node10&#45;&gt;Node3 -->
<g id="edge11" class="edge">
<title>Node10&#45;&gt;Node3</title>
<path fill="none" stroke="midnightblue" d="M90.52,-159.57C84.67,-150.27 77.73,-139.25 73.01,-131.75"/>
<polygon fill="midnightblue" stroke="midnightblue" points="87.6,-161.49 95.89,-168.08 93.52,-157.76 87.6,-161.49"/>
</g>
</g>
</svg>
