<?xml version="1.0" encoding="UTF-8" standalone="no"?>
<!DOCTYPE svg PUBLIC "-//W3C//DTD SVG 1.1//EN"
 "http://www.w3.org/Graphics/SVG/1.1/DTD/svg11.dtd">
<!-- Generated by graphviz version 2.43.0 (0)
 -->
<!-- Title: LibraryData.h Pages: 1 -->
<svg width="912pt" height="84pt"
 viewBox="0.00 0.00 911.50 84.00" xmlns="http://www.w3.org/2000/svg" xmlns:xlink="http://www.w3.org/1999/xlink">
<g id="graph0" class="graph" transform="scale(1 1) rotate(0) translate(4 80)">
<title>LibraryData.h</title>
<polygon fill="white" stroke="transparent" points="-4,4 -4,-80 907.5,-80 907.5,4 -4,4"/>
<!-- Node1 -->
<g id="node1" class="node">
<title>Node1</title>
<g id="a_node1"><a xlink:title=" ">
<polygon fill="#bfbfbf" stroke="black" points="288.5,-56.5 288.5,-75.5 363.5,-75.5 363.5,-56.5 288.5,-56.5"/>
<text text-anchor="middle" x="326" y="-63.5" font-family="Helvetica,sans-Serif" font-size="10.00">LibraryData.h</text>
</a>
</g>
</g>
<!-- Node2 -->
<g id="node2" class="node">
<title>Node2</title>
<g id="a_node2"><a xlink:title=" ">
<polygon fill="white" stroke="#bfbfbf" points="0,-0.5 0,-19.5 52,-19.5 52,-0.5 0,-0.5"/>
<text text-anchor="middle" x="26" y="-7.5" font-family="Helvetica,sans-Serif" font-size="10.00">memory</text>
</a>
</g>
</g>
<!-- Node1&#45;&gt;Node2 -->
<g id="edge1" class="edge">
<title>Node1&#45;&gt;Node2</title>
<path fill="none" stroke="midnightblue" d="M288.07,-59.58C238.37,-52.25 148.33,-38.21 62.25,-20.13"/>
<polygon fill="midnightblue" stroke="midnightblue" points="62.83,-16.67 52.32,-18.02 61.37,-23.52 62.83,-16.67"/>
</g>
<!-- Node3 -->
<g id="node3" class="node">
<title>Node3</title>
<g id="a_node3"><a xlink:title=" ">
<polygon fill="white" stroke="#bfbfbf" points="70,-0.5 70,-19.5 132,-19.5 132,-0.5 70,-0.5"/>
<text text-anchor="middle" x="101" y="-7.5" font-family="Helvetica,sans-Serif" font-size="10.00">dllexport.h</text>
</a>
</g>
</g>
<!-- Node1&#45;&gt;Node3 -->
<g id="edge2" class="edge">
<title>Node1&#45;&gt;Node3</title>
<path fill="none" stroke="midnightblue" d="M290.35,-56.44C249.97,-46.75 184.28,-30.99 141.87,-20.81"/>
<polygon fill="midnightblue" stroke="midnightblue" points="142.68,-17.4 132.14,-18.47 141.04,-24.21 142.68,-17.4"/>
</g>
<!-- Node4 -->
<g id="node4" class="node">
<title>Node4</title>
<g id="a_node4"><a xlink:title=" ">
<polygon fill="white" stroke="#bfbfbf" points="150,-0.5 150,-19.5 196,-19.5 196,-0.5 150,-0.5"/>
<text text-anchor="middle" x="173" y="-7.5" font-family="Helvetica,sans-Serif" font-size="10.00">wstp.h</text>
</a>
</g>
</g>
<!-- Node1&#45;&gt;Node4 -->
<g id="edge3" class="edge">
<title>Node1&#45;&gt;Node4</title>
<path fill="none" stroke="midnightblue" d="M301.76,-56.44C275.83,-47.29 234.56,-32.73 205.75,-22.56"/>
<polygon fill="midnightblue" stroke="midnightblue" points="206.72,-19.19 196.13,-19.16 204.39,-25.79 206.72,-19.19"/>
</g>
<!-- Node5 -->
<g id="node5" class="node">
<title>Node5</title>
<g id="a_node5"><a xlink:title=" ">
<polygon fill="white" stroke="#bfbfbf" points="214.5,-0.5 214.5,-19.5 303.5,-19.5 303.5,-0.5 214.5,-0.5"/>
<text text-anchor="middle" x="259" y="-7.5" font-family="Helvetica,sans-Serif" font-size="10.00">WolframLibrary.h</text>
</a>
</g>
</g>
<!-- Node1&#45;&gt;Node5 -->
<g id="edge4" class="edge">
<title>Node1&#45;&gt;Node5</title>
<path fill="none" stroke="midnightblue" d="M315.24,-56.32C305.23,-48.26 290.11,-36.08 278.07,-26.37"/>
<polygon fill="midnightblue" stroke="midnightblue" points="279.94,-23.38 269.96,-19.83 275.55,-28.83 279.94,-23.38"/>
</g>
<!-- Node6 -->
<g id="node6" class="node">
<title>Node6</title>
<g id="a_node6"><a xlink:title=" ">
<polygon fill="white" stroke="#bfbfbf" points="321.5,-0.5 321.5,-19.5 464.5,-19.5 464.5,-0.5 321.5,-0.5"/>
<text text-anchor="middle" x="393" y="-7.5" font-family="Helvetica,sans-Serif" font-size="10.00">WolframIOLibraryFunctions.h</text>
</a>
</g>
</g>
<!-- Node1&#45;&gt;Node6 -->
<g id="edge5" class="edge">
<title>Node1&#45;&gt;Node6</title>
<path fill="none" stroke="midnightblue" d="M336.76,-56.32C346.77,-48.26 361.89,-36.08 373.93,-26.37"/>
<polygon fill="midnightblue" stroke="midnightblue" points="376.45,-28.83 382.04,-19.83 372.06,-23.38 376.45,-28.83"/>
</g>
<!-- Node7 -->
<g id="node7" class="node">
<title>Node7</title>
<g id="a_node7"><a xlink:title=" ">
<polygon fill="white" stroke="#bfbfbf" points="483,-0.5 483,-19.5 599,-19.5 599,-0.5 483,-0.5"/>
<text text-anchor="middle" x="541" y="-7.5" font-family="Helvetica,sans-Serif" font-size="10.00">WolframImageLibrary.h</text>
</a>
</g>
</g>
<!-- Node1&#45;&gt;Node7 -->
<g id="edge6" class="edge">
<title>Node1&#45;&gt;Node7</title>
<path fill="none" stroke="midnightblue" d="M360.07,-56.44C397.18,-47.12 456.66,-32.18 497.21,-22"/>
<polygon fill="midnightblue" stroke="midnightblue" points="498.25,-25.35 507.09,-19.52 496.54,-18.56 498.25,-25.35"/>
</g>
<!-- Node8 -->
<g id="node8" class="node">
<title>Node8</title>
<g id="a_node8"><a xlink:title=" ">
<polygon fill="white" stroke="#bfbfbf" points="617.5,-0.5 617.5,-19.5 766.5,-19.5 766.5,-0.5 617.5,-0.5"/>
<text text-anchor="middle" x="692" y="-7.5" font-family="Helvetica,sans-Serif" font-size="10.00">WolframNumericArrayLibrary.h</text>
</a>
</g>
</g>
<!-- Node1&#45;&gt;Node8 -->
<g id="edge7" class="edge">
<title>Node1&#45;&gt;Node8</title>
<path fill="none" stroke="midnightblue" d="M363.79,-59.42C425.14,-50.37 547.27,-32.35 624.01,-21.03"/>
<polygon fill="midnightblue" stroke="midnightblue" points="624.68,-24.47 634.07,-19.55 623.66,-17.54 624.68,-24.47"/>
</g>
<!-- Node9 -->
<g id="node9" class="node">
<title>Node9</title>
<g id="a_node9"><a xlink:title=" ">
<polygon fill="white" stroke="#bfbfbf" points="784.5,-0.5 784.5,-19.5 903.5,-19.5 903.5,-0.5 784.5,-0.5"/>
<text text-anchor="middle" x="844" y="-7.5" font-family="Helvetica,sans-Serif" font-size="10.00">WolframSparseLibrary.h</text>
</a>
</g>
</g>
<!-- Node1&#45;&gt;Node9 -->
<g id="edge8" class="edge">
<title>Node1&#45;&gt;Node9</title>
<path fill="none" stroke="midnightblue" d="M363.68,-61.64C439.37,-54.81 615.55,-38.45 773.91,-20.21"/>
<polygon fill="midnightblue" stroke="midnightblue" points="774.78,-23.64 784.31,-19.01 773.97,-16.68 774.78,-23.64"/>
</g>
</g>
</svg>
