<?xml version="1.0" encoding="UTF-8" standalone="no"?>
<!DOCTYPE svg PUBLIC "-//W3C//DTD SVG 1.1//EN"
 "http://www.w3.org/Graphics/SVG/1.1/DTD/svg11.dtd">
<!-- Generated by graphviz version 2.43.0 (0)
 -->
<!-- Title: LibraryData.cpp Pages: 1 -->
<!--zoomable 487 -->
<svg id="main" version="1.1" xmlns="http://www.w3.org/2000/svg" xmlns:xlink="http://www.w3.org/1999/xlink" xml:space="preserve" onload="init(evt)">
<style type="text/css"><![CDATA[
.edge:hover path { stroke: red; }
.edge:hover polygon { stroke: red; fill: red; }
]]></style>
<script type="text/javascript"><![CDATA[
var edges = document.getElementsByTagName('g');
if (edges && edges.length) {
  for (var i=0;i<edges.length;i++) {
    if (edges[i].id.substr(0,4)=='edge') {
      edges[i].setAttribute('class','edge');
    }
  }
}
]]></script>
        <defs>
                <circle id="rim" cx="0" cy="0" r="7"/>
                <circle id="rim2" cx="0" cy="0" r="3.5"/>
                <g id="zoomPlus">
                        <use xlink:href="#rim" fill="#404040">
                                <set attributeName="fill" to="#808080" begin="zoomplus.mouseover" end="zoomplus.mouseout"/>
                        </use>
                        <path d="M-4,0h8M0,-4v8" fill="none" stroke="white" stroke-width="1.5" pointer-events="none"/>
                </g>
                <g id="zoomMin">
                        <use xlink:href="#rim" fill="#404040">
                                <set attributeName="fill" to="#808080" begin="zoomminus.mouseover" end="zoomminus.mouseout"/>
                        </use>
                        <path d="M-4,0h8" fill="none" stroke="white" stroke-width="1.5" pointer-events="none"/>
                </g>
                <g id="dirArrow">
                        <path fill="none" stroke="white" stroke-width="1.5" d="M0,-3.0v7 M-2.5,-0.5L0,-3.0L2.5,-0.5"/>
                </g>
               <g id="resetDef">
                       <use xlink:href="#rim2" fill="#404040">
                               <set attributeName="fill" to="#808080" begin="reset.mouseover" end="reset.mouseout"/>
                       </use>
               </g>
        </defs>

<script type="text/javascript">
var viewWidth = 1823;
var viewHeight = 487;
var sectionId = 'dynsection-0';
</script>
<script xlink:href="svgpan.js"/>
<svg id="graph" class="graph">
<g id="viewport">
<title>LibraryData.cpp</title>
<polygon fill="white" stroke="transparent" points="-4,4 -4,-483 1819,-483 1819,4 -4,4"/>
<!-- Node1 -->
<g id="node1" class="node">
<title>Node1</title>
<g id="a_node1"><a xlink:title=" ">
<polygon fill="#bfbfbf" stroke="black" points="430,-459.5 430,-478.5 516,-478.5 516,-459.5 430,-459.5"/>
<text text-anchor="middle" x="473" y="-466.5" font-family="Helvetica,sans-Serif" font-size="10.00">LibraryData.cpp</text>
</a>
</g>
</g>
<!-- Node2 -->
<g id="node2" class="node">
<title>Node2</title>
<g id="a_node2"><a xlink:href="LibraryData_8h.html" target="_top" xlink:title=" ">
<polygon fill="white" stroke="black" points="359,-56.5 359,-75.5 455,-75.5 455,-56.5 359,-56.5"/>
<text text-anchor="middle" x="407" y="-63.5" font-family="Helvetica,sans-Serif" font-size="10.00">LLU/LibraryData.h</text>
</a>
</g>
</g>
<!-- Node1&#45;&gt;Node2 -->
<g id="edge1" class="edge">
<title>Node1&#45;&gt;Node2</title>
<path fill="none" stroke="midnightblue" d="M451.75,-459.49C416.8,-443.92 351,-407.33 351,-352.5 351,-352.5 351,-352.5 351,-177 351,-140.44 375.88,-103.75 392.47,-83.34"/>
<polygon fill="midnightblue" stroke="midnightblue" points="395.2,-85.54 398.98,-75.64 389.85,-81.02 395.2,-85.54"/>
</g>
<!-- Node11 -->
<g id="node11" class="node">
<title>Node11</title>
<g id="a_node11"><a xlink:href="ErrorManager_8h.html" target="_top" xlink:title="Definition of the ErrorManager class responsible for error registration and throwing.">
<polygon fill="white" stroke="black" points="523.5,-403.5 523.5,-422.5 666.5,-422.5 666.5,-403.5 523.5,-403.5"/>
<text text-anchor="middle" x="595" y="-410.5" font-family="Helvetica,sans-Serif" font-size="10.00">LLU/ErrorLog/ErrorManager.h</text>
</a>
</g>
</g>
<!-- Node1&#45;&gt;Node11 -->
<g id="edge10" class="edge">
<title>Node1&#45;&gt;Node11</title>
<path fill="none" stroke="midnightblue" d="M492.33,-459.44C512.32,-450.6 543.74,-436.69 566.56,-426.59"/>
<polygon fill="midnightblue" stroke="midnightblue" points="568.03,-429.76 575.76,-422.52 565.2,-423.36 568.03,-429.76"/>
</g>
<!-- Node3 -->
<g id="node3" class="node">
<title>Node3</title>
<g id="a_node3"><a xlink:title=" ">
<polygon fill="white" stroke="#bfbfbf" points="788,-0.5 788,-19.5 840,-19.5 840,-0.5 788,-0.5"/>
<text text-anchor="middle" x="814" y="-7.5" font-family="Helvetica,sans-Serif" font-size="10.00">memory</text>
</a>
</g>
</g>
<!-- Node2&#45;&gt;Node3 -->
<g id="edge2" class="edge">
<title>Node2&#45;&gt;Node3</title>
<path fill="none" stroke="midnightblue" d="M455.22,-59.49C542.24,-49.5 721.04,-28.75 777.6,-19.71"/>
<polygon fill="midnightblue" stroke="midnightblue" points="778.47,-23.11 787.74,-17.97 777.29,-16.21 778.47,-23.11"/>
</g>
<!-- Node4 -->
<g id="node4" class="node">
<title>Node4</title>
<g id="a_node4"><a xlink:title=" ">
<polygon fill="white" stroke="#bfbfbf" points="0,-0.5 0,-19.5 62,-19.5 62,-0.5 0,-0.5"/>
<text text-anchor="middle" x="31" y="-7.5" font-family="Helvetica,sans-Serif" font-size="10.00">dllexport.h</text>
</a>
</g>
</g>
<!-- Node2&#45;&gt;Node4 -->
<g id="edge3" class="edge">
<title>Node2&#45;&gt;Node4</title>
<path fill="none" stroke="midnightblue" d="M358.94,-59.91C295.52,-52.9 180.21,-39.13 72.46,-20.13"/>
<polygon fill="midnightblue" stroke="midnightblue" points="72.85,-16.65 62.39,-18.34 71.62,-23.54 72.85,-16.65"/>
</g>
<!-- Node5 -->
<g id="node5" class="node">
<title>Node5</title>
<g id="a_node5"><a xlink:title=" ">
<polygon fill="white" stroke="#bfbfbf" points="1081,-0.5 1081,-19.5 1127,-19.5 1127,-0.5 1081,-0.5"/>
<text text-anchor="middle" x="1104" y="-7.5" font-family="Helvetica,sans-Serif" font-size="10.00">wstp.h</text>
</a>
</g>
</g>
<!-- Node2&#45;&gt;Node5 -->
<g id="edge4" class="edge">
<title>Node2&#45;&gt;Node5</title>
<path fill="none" stroke="midnightblue" d="M455.2,-59.27C465.67,-58.11 476.7,-56.95 487,-56 709.46,-35.38 977.77,-18.56 1070.54,-12.98"/>
<polygon fill="midnightblue" stroke="midnightblue" points="1070.95,-16.46 1080.72,-12.37 1070.53,-9.47 1070.95,-16.46"/>
</g>
<!-- Node6 -->
<g id="node6" class="node">
<title>Node6</title>
<g id="a_node6"><a xlink:title=" ">
<polygon fill="white" stroke="#bfbfbf" points="80.5,-0.5 80.5,-19.5 169.5,-19.5 169.5,-0.5 80.5,-0.5"/>
<text text-anchor="middle" x="125" y="-7.5" font-family="Helvetica,sans-Serif" font-size="10.00">WolframLibrary.h</text>
</a>
</g>
</g>
<!-- Node2&#45;&gt;Node6 -->
<g id="edge5" class="edge">
<title>Node2&#45;&gt;Node6</title>
<path fill="none" stroke="midnightblue" d="M362.32,-56.44C312.71,-46.94 232.64,-31.61 179.41,-21.42"/>
<polygon fill="midnightblue" stroke="midnightblue" points="179.95,-17.96 169.47,-19.52 178.64,-24.83 179.95,-17.96"/>
</g>
<!-- Node7 -->
<g id="node7" class="node">
<title>Node7</title>
<g id="a_node7"><a xlink:title=" ">
<polygon fill="white" stroke="#bfbfbf" points="187.5,-0.5 187.5,-19.5 330.5,-19.5 330.5,-0.5 187.5,-0.5"/>
<text text-anchor="middle" x="259" y="-7.5" font-family="Helvetica,sans-Serif" font-size="10.00">WolframIOLibraryFunctions.h</text>
</a>
</g>
</g>
<!-- Node2&#45;&gt;Node7 -->
<g id="edge6" class="edge">
<title>Node2&#45;&gt;Node7</title>
<path fill="none" stroke="midnightblue" d="M383.55,-56.44C358.87,-47.44 319.81,-33.19 292.02,-23.05"/>
<polygon fill="midnightblue" stroke="midnightblue" points="292.94,-19.66 282.34,-19.52 290.54,-26.23 292.94,-19.66"/>
</g>
<!-- Node8 -->
<g id="node8" class="node">
<title>Node8</title>
<g id="a_node8"><a xlink:title=" ">
<polygon fill="white" stroke="#bfbfbf" points="349,-0.5 349,-19.5 465,-19.5 465,-0.5 349,-0.5"/>
<text text-anchor="middle" x="407" y="-7.5" font-family="Helvetica,sans-Serif" font-size="10.00">WolframImageLibrary.h</text>
</a>
</g>
</g>
<!-- Node2&#45;&gt;Node8 -->
<g id="edge7" class="edge">
<title>Node2&#45;&gt;Node8</title>
<path fill="none" stroke="midnightblue" d="M407,-56.08C407,-49.01 407,-38.86 407,-29.99"/>
<polygon fill="midnightblue" stroke="midnightblue" points="410.5,-29.75 407,-19.75 403.5,-29.75 410.5,-29.75"/>
</g>
<!-- Node9 -->
<g id="node9" class="node">
<title>Node9</title>
<g id="a_node9"><a xlink:title=" ">
<polygon fill="white" stroke="#bfbfbf" points="483.5,-0.5 483.5,-19.5 632.5,-19.5 632.5,-0.5 483.5,-0.5"/>
<text text-anchor="middle" x="558" y="-7.5" font-family="Helvetica,sans-Serif" font-size="10.00">WolframNumericArrayLibrary.h</text>
</a>
</g>
</g>
<!-- Node2&#45;&gt;Node9 -->
<g id="edge8" class="edge">
<title>Node2&#45;&gt;Node9</title>
<path fill="none" stroke="midnightblue" d="M430.93,-56.44C456.22,-47.4 496.3,-33.06 524.68,-22.92"/>
<polygon fill="midnightblue" stroke="midnightblue" points="525.95,-26.18 534.19,-19.52 523.59,-19.59 525.95,-26.18"/>
</g>
<!-- Node10 -->
<g id="node10" class="node">
<title>Node10</title>
<g id="a_node10"><a xlink:title=" ">
<polygon fill="white" stroke="#bfbfbf" points="650.5,-0.5 650.5,-19.5 769.5,-19.5 769.5,-0.5 650.5,-0.5"/>
<text text-anchor="middle" x="710" y="-7.5" font-family="Helvetica,sans-Serif" font-size="10.00">WolframSparseLibrary.h</text>
</a>
</g>
</g>
<!-- Node2&#45;&gt;Node10 -->
<g id="edge9" class="edge">
<title>Node2&#45;&gt;Node10</title>
<path fill="none" stroke="midnightblue" d="M455.01,-56.44C508.53,-46.9 595.07,-31.48 652.24,-21.29"/>
<polygon fill="midnightblue" stroke="midnightblue" points="652.98,-24.72 662.21,-19.52 651.75,-17.83 652.98,-24.72"/>
</g>
<!-- Node11&#45;&gt;Node2 -->
<g id="edge79" class="edge">
<title>Node11&#45;&gt;Node2</title>
<path fill="none" stroke="midnightblue" d="M537.89,-403.47C476.93,-390.74 389,-360.37 389,-291 389,-291 389,-291 389,-177 389,-144.54 396.73,-107.38 402.06,-85.63"/>
<polygon fill="midnightblue" stroke="midnightblue" points="405.49,-86.32 404.57,-75.76 398.71,-84.59 405.49,-86.32"/>
</g>
<!-- Node12 -->
<g id="node12" class="node">
<title>Node12</title>
<g id="a_node12"><a xlink:title=" ">
<polygon fill="white" stroke="#bfbfbf" points="455,-168.5 455,-187.5 511,-187.5 511,-168.5 455,-168.5"/>
<text text-anchor="middle" x="483" y="-175.5" font-family="Helvetica,sans-Serif" font-size="10.00">algorithm</text>
</a>
</g>
</g>
<!-- Node11&#45;&gt;Node12 -->
<g id="edge11" class="edge">
<title>Node11&#45;&gt;Node12</title>
<path fill="none" stroke="midnightblue" d="M540.97,-403.44C519.53,-397.11 496.95,-386.11 484,-367 448.49,-314.6 466.21,-233.7 476.89,-197.55"/>
<polygon fill="midnightblue" stroke="midnightblue" points="480.28,-198.44 479.91,-187.85 473.59,-196.36 480.28,-198.44"/>
</g>
<!-- Node13 -->
<g id="node13" class="node">
<title>Node13</title>
<g id="a_node13"><a xlink:title=" ">
<polygon fill="white" stroke="#bfbfbf" points="493.5,-342 493.5,-361 566.5,-361 566.5,-342 493.5,-342"/>
<text text-anchor="middle" x="530" y="-349" font-family="Helvetica,sans-Serif" font-size="10.00">initializer_list</text>
</a>
</g>
</g>
<!-- Node11&#45;&gt;Node13 -->
<g id="edge12" class="edge">
<title>Node11&#45;&gt;Node13</title>
<path fill="none" stroke="midnightblue" d="M585.69,-403.48C575.55,-394.2 559.14,-379.17 546.75,-367.83"/>
<polygon fill="midnightblue" stroke="midnightblue" points="549.04,-365.18 539.3,-361.01 544.31,-370.34 549.04,-365.18"/>
</g>
<!-- Node14 -->
<g id="node14" class="node">
<title>Node14</title>
<g id="a_node14"><a xlink:title=" ">
<polygon fill="white" stroke="#bfbfbf" points="1424.5,-56.5 1424.5,-75.5 1465.5,-75.5 1465.5,-56.5 1424.5,-56.5"/>
<text text-anchor="middle" x="1445" y="-63.5" font-family="Helvetica,sans-Serif" font-size="10.00">string</text>
</a>
</g>
</g>
<!-- Node11&#45;&gt;Node14 -->
<g id="edge13" class="edge">
<title>Node11&#45;&gt;Node14</title>
<path fill="none" stroke="midnightblue" d="M666.76,-412.46C928.28,-413.2 1815,-407.13 1815,-291 1815,-291 1815,-291 1815,-177 1815,-106.4 1564.39,-77.5 1475.67,-69.48"/>
<polygon fill="midnightblue" stroke="midnightblue" points="1475.95,-65.99 1465.69,-68.61 1475.34,-72.97 1475.95,-65.99"/>
</g>
<!-- Node15 -->
<g id="node15" class="node">
<title>Node15</title>
<g id="a_node15"><a xlink:title=" ">
<polygon fill="white" stroke="#bfbfbf" points="825.5,-342 825.5,-361 908.5,-361 908.5,-342 825.5,-342"/>
<text text-anchor="middle" x="867" y="-349" font-family="Helvetica,sans-Serif" font-size="10.00">unordered_map</text>
</a>
</g>
</g>
<!-- Node11&#45;&gt;Node15 -->
<g id="edge14" class="edge">
<title>Node11&#45;&gt;Node15</title>
<path fill="none" stroke="midnightblue" d="M642.22,-403.46C687.13,-395.09 756.46,-381.5 816,-367 820.13,-366 824.42,-364.88 828.69,-363.73"/>
<polygon fill="midnightblue" stroke="midnightblue" points="829.8,-367.05 838.51,-361.01 827.94,-360.31 829.8,-367.05"/>
</g>
<!-- Node16 -->
<g id="node16" class="node">
<title>Node16</title>
<g id="a_node16"><a xlink:title=" ">
<polygon fill="white" stroke="#bfbfbf" points="699,-56.5 699,-75.5 739,-75.5 739,-56.5 699,-56.5"/>
<text text-anchor="middle" x="719" y="-63.5" font-family="Helvetica,sans-Serif" font-size="10.00">utility</text>
</a>
</g>
</g>
<!-- Node11&#45;&gt;Node16 -->
<g id="edge15" class="edge">
<title>Node11&#45;&gt;Node16</title>
<path fill="none" stroke="midnightblue" d="M594,-403.09C592.05,-388.38 586.88,-358.43 575,-336 530.94,-252.81 392.21,-245.26 446,-168 502,-87.57 629.82,-71.04 688.51,-67.75"/>
<polygon fill="midnightblue" stroke="midnightblue" points="688.81,-71.24 698.63,-67.28 688.48,-64.25 688.81,-71.24"/>
</g>
<!-- Node17 -->
<g id="node17" class="node">
<title>Node17</title>
<g id="a_node17"><a xlink:title=" ">
<polygon fill="white" stroke="#bfbfbf" points="1705,-224.5 1705,-243.5 1749,-243.5 1749,-224.5 1705,-224.5"/>
<text text-anchor="middle" x="1727" y="-231.5" font-family="Helvetica,sans-Serif" font-size="10.00">vector</text>
</a>
</g>
</g>
<!-- Node11&#45;&gt;Node17 -->
<g id="edge16" class="edge">
<title>Node11&#45;&gt;Node17</title>
<path fill="none" stroke="midnightblue" d="M659.21,-403.46C724.25,-394.71 827.7,-380.51 917,-367 1220.01,-321.14 1585.64,-259.16 1694.77,-240.52"/>
<polygon fill="midnightblue" stroke="midnightblue" points="1695.54,-243.94 1704.8,-238.81 1694.36,-237.04 1695.54,-243.94"/>
</g>
<!-- Node18 -->
<g id="node18" class="node">
<title>Node18</title>
<g id="a_node18"><a xlink:href="LibraryLinkError_8h.html" target="_top" xlink:title="Error class and error codes used by LibraryLink Utilities classes.">
<polygon fill="white" stroke="black" points="682.5,-336.5 682.5,-366.5 807.5,-366.5 807.5,-336.5 682.5,-336.5"/>
<text text-anchor="start" x="690.5" y="-354.5" font-family="Helvetica,sans-Serif" font-size="10.00">LLU/ErrorLog/LibraryLink</text>
<text text-anchor="middle" x="745" y="-343.5" font-family="Helvetica,sans-Serif" font-size="10.00">Error.h</text>
</a>
</g>
</g>
<!-- Node11&#45;&gt;Node18 -->
<g id="edge17" class="edge">
<title>Node11&#45;&gt;Node18</title>
<path fill="none" stroke="midnightblue" d="M616.49,-403.48C638.23,-394.85 672.49,-381.26 700.16,-370.29"/>
<polygon fill="midnightblue" stroke="midnightblue" points="701.64,-373.46 709.65,-366.52 699.06,-366.96 701.64,-373.46"/>
</g>
<!-- Node18&#45;&gt;Node14 -->
<g id="edge19" class="edge">
<title>Node18&#45;&gt;Node14</title>
<path fill="none" stroke="midnightblue" d="M807.66,-337.34C810.47,-336.86 813.26,-336.41 816,-336 922.17,-320.02 1777,-342.37 1777,-235 1777,-235 1777,-235 1777,-177 1777,-113.89 1558.06,-80.74 1475.77,-70.51"/>
<polygon fill="midnightblue" stroke="midnightblue" points="1476.12,-67.02 1465.77,-69.29 1475.27,-73.97 1476.12,-67.02"/>
</g>
<!-- Node19 -->
<g id="node19" class="node">
<title>Node19</title>
<g id="a_node19"><a xlink:title=" ">
<polygon fill="white" stroke="#bfbfbf" points="715.5,-280.5 715.5,-299.5 774.5,-299.5 774.5,-280.5 715.5,-280.5"/>
<text text-anchor="middle" x="745" y="-287.5" font-family="Helvetica,sans-Serif" font-size="10.00">stdexcept</text>
</a>
</g>
</g>
<!-- Node18&#45;&gt;Node19 -->
<g id="edge18" class="edge">
<title>Node18&#45;&gt;Node19</title>
<path fill="none" stroke="midnightblue" d="M745,-336.4C745,-328.47 745,-318.46 745,-309.86"/>
<polygon fill="midnightblue" stroke="midnightblue" points="748.5,-309.66 745,-299.66 741.5,-309.66 748.5,-309.66"/>
</g>
<!-- Node20 -->
<g id="node20" class="node">
<title>Node20</title>
<g id="a_node20"><a xlink:href="WSStream_8hpp.html" target="_top" xlink:title="Header file for WSStream class.">
<polygon fill="white" stroke="black" points="851.5,-280.5 851.5,-299.5 988.5,-299.5 988.5,-280.5 851.5,-280.5"/>
<text text-anchor="middle" x="920" y="-287.5" font-family="Helvetica,sans-Serif" font-size="10.00">LLU/WSTP/WSStream.hpp</text>
</a>
</g>
</g>
<!-- Node18&#45;&gt;Node20 -->
<g id="edge20" class="edge">
<title>Node18&#45;&gt;Node20</title>
<path fill="none" stroke="midnightblue" d="M786.47,-336.4C816.58,-326.16 856.85,-312.47 885.27,-302.81"/>
<polygon fill="midnightblue" stroke="midnightblue" points="886.45,-306.1 894.79,-299.57 884.2,-299.48 886.45,-306.1"/>
</g>
<!-- Node20&#45;&gt;Node5 -->
<g id="edge28" class="edge">
<title>Node20&#45;&gt;Node5</title>
<path fill="none" stroke="midnightblue" d="M851.3,-284.36C787.86,-278.7 699.67,-266.91 674,-244 611.64,-188.36 615.86,-111.89 678,-56 707.05,-29.87 975.48,-16.32 1070.7,-12.3"/>
<polygon fill="midnightblue" stroke="midnightblue" points="1071.06,-15.79 1080.91,-11.88 1070.77,-8.79 1071.06,-15.79"/>
</g>
<!-- Node20&#45;&gt;Node12 -->
<g id="edge21" class="edge">
<title>Node20&#45;&gt;Node12</title>
<path fill="none" stroke="midnightblue" d="M851.49,-284.27C746.26,-276.54 554.09,-260.42 527,-244 509.2,-233.21 496.98,-212.16 490.01,-196.93"/>
<polygon fill="midnightblue" stroke="midnightblue" points="493.15,-195.36 486.03,-187.51 486.7,-198.08 493.15,-195.36"/>
</g>
<!-- Node20&#45;&gt;Node16 -->
<g id="edge26" class="edge">
<title>Node20&#45;&gt;Node16</title>
<path fill="none" stroke="midnightblue" d="M851.16,-287.31C805.93,-283.32 747.17,-272.41 703,-244 670.72,-223.24 656.36,-205.96 662,-168 665.82,-142.27 666.29,-134.69 679,-112 684.98,-101.33 693.85,-91.01 701.72,-82.96"/>
<polygon fill="midnightblue" stroke="midnightblue" points="704.41,-85.22 709.11,-75.72 699.51,-80.22 704.41,-85.22"/>
</g>
<!-- Node20&#45;&gt;Node17 -->
<g id="edge27" class="edge">
<title>Node20&#45;&gt;Node17</title>
<path fill="none" stroke="midnightblue" d="M988.52,-289.27C1123.68,-288.88 1433.87,-283.29 1691,-244 1692.25,-243.81 1693.53,-243.59 1694.81,-243.36"/>
<polygon fill="midnightblue" stroke="midnightblue" points="1695.61,-246.77 1704.66,-241.27 1694.15,-239.92 1695.61,-246.77"/>
</g>
<!-- Node21 -->
<g id="node21" class="node">
<title>Node21</title>
<g id="a_node21"><a xlink:title=" ">
<polygon fill="white" stroke="#bfbfbf" points="867.5,-224.5 867.5,-243.5 914.5,-243.5 914.5,-224.5 867.5,-224.5"/>
<text text-anchor="middle" x="891" y="-231.5" font-family="Helvetica,sans-Serif" font-size="10.00">iterator</text>
</a>
</g>
</g>
<!-- Node20&#45;&gt;Node21 -->
<g id="edge22" class="edge">
<title>Node20&#45;&gt;Node21</title>
<path fill="none" stroke="midnightblue" d="M915.21,-280.08C911.24,-272.69 905.47,-261.95 900.57,-252.81"/>
<polygon fill="midnightblue" stroke="midnightblue" points="903.51,-250.91 895.7,-243.75 897.35,-254.22 903.51,-250.91"/>
</g>
<!-- Node22 -->
<g id="node22" class="node">
<title>Node22</title>
<g id="a_node22"><a xlink:title=" ">
<polygon fill="white" stroke="#bfbfbf" points="932.5,-224.5 932.5,-243.5 967.5,-243.5 967.5,-224.5 932.5,-224.5"/>
<text text-anchor="middle" x="950" y="-231.5" font-family="Helvetica,sans-Serif" font-size="10.00">map</text>
</a>
</g>
</g>
<!-- Node20&#45;&gt;Node22 -->
<g id="edge23" class="edge">
<title>Node20&#45;&gt;Node22</title>
<path fill="none" stroke="midnightblue" d="M924.95,-280.08C929.1,-272.61 935.15,-261.72 940.27,-252.52"/>
<polygon fill="midnightblue" stroke="midnightblue" points="943.34,-254.19 945.14,-243.75 937.22,-250.79 943.34,-254.19"/>
</g>
<!-- Node23 -->
<g id="node23" class="node">
<title>Node23</title>
<g id="a_node23"><a xlink:title=" ">
<polygon fill="white" stroke="#bfbfbf" points="985.5,-224.5 985.5,-243.5 1026.5,-243.5 1026.5,-224.5 985.5,-224.5"/>
<text text-anchor="middle" x="1006" y="-231.5" font-family="Helvetica,sans-Serif" font-size="10.00">stack</text>
</a>
</g>
</g>
<!-- Node20&#45;&gt;Node23 -->
<g id="edge24" class="edge">
<title>Node20&#45;&gt;Node23</title>
<path fill="none" stroke="midnightblue" d="M933.82,-280.32C947.23,-271.9 967.82,-258.97 983.59,-249.07"/>
<polygon fill="midnightblue" stroke="midnightblue" points="985.61,-251.94 992.22,-243.65 981.89,-246.01 985.61,-251.94"/>
</g>
<!-- Node24 -->
<g id="node24" class="node">
<title>Node24</title>
<g id="a_node24"><a xlink:title=" ">
<polygon fill="white" stroke="#bfbfbf" points="757,-56.5 757,-75.5 819,-75.5 819,-56.5 757,-56.5"/>
<text text-anchor="middle" x="788" y="-63.5" font-family="Helvetica,sans-Serif" font-size="10.00">type_traits</text>
</a>
</g>
</g>
<!-- Node20&#45;&gt;Node24 -->
<g id="edge25" class="edge">
<title>Node20&#45;&gt;Node24</title>
<path fill="none" stroke="midnightblue" d="M851.27,-282.17C792.3,-272.23 710.89,-247.84 672,-188 642.88,-143.2 715.21,-100.42 758.44,-79.81"/>
<polygon fill="midnightblue" stroke="midnightblue" points="760.09,-82.9 767.69,-75.52 757.14,-76.55 760.09,-82.9"/>
</g>
<!-- Node25 -->
<g id="node25" class="node">
<title>Node25</title>
<g id="a_node25"><a xlink:href="Errors_8h.html" target="_top" xlink:title="Definitions of error names and error codes used across LLU.">
<polygon fill="white" stroke="black" points="1549,-112.5 1549,-131.5 1661,-131.5 1661,-112.5 1549,-112.5"/>
<text text-anchor="middle" x="1605" y="-119.5" font-family="Helvetica,sans-Serif" font-size="10.00">LLU/ErrorLog/Errors.h</text>
</a>
</g>
</g>
<!-- Node20&#45;&gt;Node25 -->
<g id="edge29" class="edge">
<title>Node20&#45;&gt;Node25</title>
<path fill="none" stroke="midnightblue" d="M988.61,-288.53C1155.88,-286.83 1574.9,-279.07 1627,-244 1656.73,-223.98 1668.42,-200.82 1654,-168 1648.61,-155.73 1638.04,-145.34 1628.1,-137.65"/>
<polygon fill="midnightblue" stroke="midnightblue" points="1629.83,-134.58 1619.66,-131.6 1625.75,-140.27 1629.83,-134.58"/>
</g>
<!-- Node26 -->
<g id="node26" class="node">
<title>Node26</title>
<g id="a_node26"><a xlink:href="Utilities_8hpp.html" target="_top" xlink:title="Short but generally useful functions.">
<polygon fill="white" stroke="black" points="757.5,-112.5 757.5,-131.5 846.5,-131.5 846.5,-112.5 757.5,-112.5"/>
<text text-anchor="middle" x="802" y="-119.5" font-family="Helvetica,sans-Serif" font-size="10.00">LLU/Utilities.hpp</text>
</a>
</g>
</g>
<!-- Node20&#45;&gt;Node26 -->
<g id="edge31" class="edge">
<title>Node20&#45;&gt;Node26</title>
<path fill="none" stroke="midnightblue" d="M900.58,-280.37C886.26,-272.92 867.65,-260.7 858,-244 841.01,-214.59 865.12,-198.41 850,-168 844.02,-155.97 833.41,-145.5 823.69,-137.7"/>
<polygon fill="midnightblue" stroke="midnightblue" points="825.6,-134.76 815.5,-131.55 821.4,-140.35 825.6,-134.76"/>
</g>
<!-- Node30 -->
<g id="node30" class="node">
<title>Node30</title>
<g id="a_node30"><a xlink:href="Get_8h.html" target="_top" xlink:title="Header file with classes related to reading data from WSTP.">
<polygon fill="white" stroke="black" points="1172,-224.5 1172,-243.5 1266,-243.5 1266,-224.5 1172,-224.5"/>
<text text-anchor="middle" x="1219" y="-231.5" font-family="Helvetica,sans-Serif" font-size="10.00">LLU/WSTP/Get.h</text>
</a>
</g>
</g>
<!-- Node20&#45;&gt;Node30 -->
<g id="edge38" class="edge">
<title>Node20&#45;&gt;Node30</title>
<path fill="none" stroke="midnightblue" d="M967.38,-280.44C1020.08,-270.92 1105.23,-255.55 1161.66,-245.36"/>
<polygon fill="midnightblue" stroke="midnightblue" points="1162.63,-248.74 1171.84,-243.52 1161.38,-241.85 1162.63,-248.74"/>
</g>
<!-- Node33 -->
<g id="node33" class="node">
<title>Node33</title>
<g id="a_node33"><a xlink:href="WSTP_2Utilities_8h.html" target="_top" xlink:title="Header file with miscellaneous utilities used throughout the WSTP&#45;related part of LibraryLinkUtilitie...">
<polygon fill="white" stroke="black" points="1409.5,-168.5 1409.5,-187.5 1520.5,-187.5 1520.5,-168.5 1409.5,-168.5"/>
<text text-anchor="middle" x="1465" y="-175.5" font-family="Helvetica,sans-Serif" font-size="10.00">LLU/WSTP/Utilities.h</text>
</a>
</g>
</g>
<!-- Node20&#45;&gt;Node33 -->
<g id="edge74" class="edge">
<title>Node20&#45;&gt;Node33</title>
<path fill="none" stroke="midnightblue" d="M988.78,-284.45C1060.84,-278.72 1176.96,-266.73 1275,-244 1332.9,-230.57 1397.94,-206.21 1434.94,-191.42"/>
<polygon fill="midnightblue" stroke="midnightblue" points="1436.63,-194.51 1444.6,-187.52 1434.01,-188.02 1436.63,-194.51"/>
</g>
<!-- Node36 -->
<g id="node36" class="node">
<title>Node36</title>
<g id="a_node36"><a xlink:href="Put_8h.html" target="_top" xlink:title="Header file with classes related to sending data through WSTP.">
<polygon fill="white" stroke="black" points="1524.5,-224.5 1524.5,-243.5 1617.5,-243.5 1617.5,-224.5 1524.5,-224.5"/>
<text text-anchor="middle" x="1571" y="-231.5" font-family="Helvetica,sans-Serif" font-size="10.00">LLU/WSTP/Put.h</text>
</a>
</g>
</g>
<!-- Node20&#45;&gt;Node36 -->
<g id="edge59" class="edge">
<title>Node20&#45;&gt;Node36</title>
<path fill="none" stroke="midnightblue" d="M988.74,-283.3C1118,-272.58 1394.96,-249.6 1514.34,-239.7"/>
<polygon fill="midnightblue" stroke="midnightblue" points="1514.69,-243.18 1524.36,-238.87 1514.11,-236.21 1514.69,-243.18"/>
</g>
<!-- Node37 -->
<g id="node37" class="node">
<title>Node37</title>
<g id="a_node37"><a xlink:href="Strings_8h.html" target="_top" xlink:title="Definitions of multiple structures and type aliases related to string handling in WSTP.">
<polygon fill="white" stroke="black" points="1044.5,-224.5 1044.5,-243.5 1153.5,-243.5 1153.5,-224.5 1044.5,-224.5"/>
<text text-anchor="middle" x="1099" y="-231.5" font-family="Helvetica,sans-Serif" font-size="10.00">LLU/WSTP/Strings.h</text>
</a>
</g>
</g>
<!-- Node20&#45;&gt;Node37 -->
<g id="edge65" class="edge">
<title>Node20&#45;&gt;Node37</title>
<path fill="none" stroke="midnightblue" d="M948.36,-280.44C978.74,-271.28 1027.11,-256.69 1060.82,-246.52"/>
<polygon fill="midnightblue" stroke="midnightblue" points="1062.21,-249.76 1070.77,-243.52 1060.18,-243.05 1062.21,-249.76"/>
</g>
<!-- Node38 -->
<g id="node38" class="node">
<title>Node38</title>
<g id="a_node38"><a xlink:href="UtilityTypeTraits_8hpp.html" target="_top" xlink:title="Type traits used by WSStream to identify types supported by WSTP.">
<polygon fill="white" stroke="black" points="681,-168.5 681,-187.5 841,-187.5 841,-168.5 681,-168.5"/>
<text text-anchor="middle" x="761" y="-175.5" font-family="Helvetica,sans-Serif" font-size="10.00">LLU/WSTP/UtilityTypeTraits.hpp</text>
</a>
</g>
</g>
<!-- Node20&#45;&gt;Node38 -->
<g id="edge75" class="edge">
<title>Node20&#45;&gt;Node38</title>
<path fill="none" stroke="midnightblue" d="M896.1,-280.4C876.1,-272.58 847.32,-259.86 825,-244 805.33,-230.02 786.4,-209.66 774.3,-195.46"/>
<polygon fill="midnightblue" stroke="midnightblue" points="776.79,-192.98 767.7,-187.53 771.41,-197.45 776.79,-192.98"/>
</g>
<!-- Node25&#45;&gt;Node14 -->
<g id="edge30" class="edge">
<title>Node25&#45;&gt;Node14</title>
<path fill="none" stroke="midnightblue" d="M1579.65,-112.44C1551.31,-102.88 1505.44,-87.4 1475.24,-77.21"/>
<polygon fill="midnightblue" stroke="midnightblue" points="1476.25,-73.85 1465.65,-73.97 1474.01,-80.49 1476.25,-73.85"/>
</g>
<!-- Node26&#45;&gt;Node2 -->
<g id="edge37" class="edge">
<title>Node26&#45;&gt;Node2</title>
<path fill="none" stroke="midnightblue" d="M757.46,-114.91C685.82,-105.12 545,-85.87 465.41,-74.98"/>
<polygon fill="midnightblue" stroke="midnightblue" points="465.45,-71.46 455.07,-73.57 464.5,-78.39 465.45,-71.46"/>
</g>
<!-- Node26&#45;&gt;Node16 -->
<g id="edge35" class="edge">
<title>Node26&#45;&gt;Node16</title>
<path fill="none" stroke="midnightblue" d="M788.66,-112.32C775.84,-103.98 756.22,-91.21 741.06,-81.35"/>
<polygon fill="midnightblue" stroke="midnightblue" points="742.59,-78.17 732.3,-75.65 738.78,-84.04 742.59,-78.17"/>
</g>
<!-- Node26&#45;&gt;Node24 -->
<g id="edge34" class="edge">
<title>Node26&#45;&gt;Node24</title>
<path fill="none" stroke="midnightblue" d="M799.69,-112.08C797.83,-104.93 795.16,-94.64 792.85,-85.69"/>
<polygon fill="midnightblue" stroke="midnightblue" points="796.17,-84.55 790.27,-75.75 789.39,-86.31 796.17,-84.55"/>
</g>
<!-- Node27 -->
<g id="node27" class="node">
<title>Node27</title>
<g id="a_node27"><a xlink:title=" ">
<polygon fill="white" stroke="#bfbfbf" points="901.5,-56.5 901.5,-75.5 954.5,-75.5 954.5,-56.5 901.5,-56.5"/>
<text text-anchor="middle" x="928" y="-63.5" font-family="Helvetica,sans-Serif" font-size="10.00">complex</text>
</a>
</g>
</g>
<!-- Node26&#45;&gt;Node27 -->
<g id="edge32" class="edge">
<title>Node26&#45;&gt;Node27</title>
<path fill="none" stroke="midnightblue" d="M821.97,-112.44C842.61,-103.6 875.06,-89.69 898.63,-79.59"/>
<polygon fill="midnightblue" stroke="midnightblue" points="900.32,-82.67 908.13,-75.52 897.56,-76.24 900.32,-82.67"/>
</g>
<!-- Node28 -->
<g id="node28" class="node">
<title>Node28</title>
<g id="a_node28"><a xlink:title=" ">
<polygon fill="white" stroke="#bfbfbf" points="973,-56.5 973,-75.5 1019,-75.5 1019,-56.5 973,-56.5"/>
<text text-anchor="middle" x="996" y="-63.5" font-family="Helvetica,sans-Serif" font-size="10.00">cstdint</text>
</a>
</g>
</g>
<!-- Node26&#45;&gt;Node28 -->
<g id="edge33" class="edge">
<title>Node26&#45;&gt;Node28</title>
<path fill="none" stroke="midnightblue" d="M832.74,-112.44C868.39,-102.52 926.9,-86.23 963.34,-76.09"/>
<polygon fill="midnightblue" stroke="midnightblue" points="964.3,-79.46 973,-73.4 962.43,-72.71 964.3,-79.46"/>
</g>
<!-- Node29 -->
<g id="node29" class="node">
<title>Node29</title>
<g id="a_node29"><a xlink:title=" ">
<polygon fill="white" stroke="#bfbfbf" points="837,-56.5 837,-75.5 883,-75.5 883,-56.5 837,-56.5"/>
<text text-anchor="middle" x="860" y="-63.5" font-family="Helvetica,sans-Serif" font-size="10.00">variant</text>
</a>
</g>
</g>
<!-- Node26&#45;&gt;Node29 -->
<g id="edge36" class="edge">
<title>Node26&#45;&gt;Node29</title>
<path fill="none" stroke="midnightblue" d="M811.32,-112.32C819.89,-104.34 832.81,-92.31 843.19,-82.65"/>
<polygon fill="midnightblue" stroke="midnightblue" points="845.58,-85.21 850.51,-75.83 840.81,-80.09 845.58,-85.21"/>
</g>
<!-- Node30&#45;&gt;Node3 -->
<g id="edge40" class="edge">
<title>Node30&#45;&gt;Node3</title>
<path fill="none" stroke="midnightblue" d="M1182.11,-224.47C1158.85,-217.64 1129.29,-206.14 1108,-188 1055.78,-143.52 1083.97,-95.67 1028,-56 974.55,-18.12 895.93,-10.86 850.35,-10.15"/>
<polygon fill="midnightblue" stroke="midnightblue" points="850.35,-6.65 840.33,-10.09 850.31,-13.65 850.35,-6.65"/>
</g>
<!-- Node30&#45;&gt;Node5 -->
<g id="edge42" class="edge">
<title>Node30&#45;&gt;Node5</title>
<path fill="none" stroke="midnightblue" d="M1173.56,-224.45C1152.56,-218.05 1129.37,-206.99 1116,-188 1107.07,-175.31 1104.76,-72.92 1104.19,-29.91"/>
<polygon fill="midnightblue" stroke="midnightblue" points="1107.68,-29.65 1104.07,-19.69 1100.68,-29.73 1107.68,-29.65"/>
</g>
<!-- Node30&#45;&gt;Node14 -->
<g id="edge41" class="edge">
<title>Node30&#45;&gt;Node14</title>
<path fill="none" stroke="midnightblue" d="M1236.63,-224.43C1253.43,-215.98 1279.17,-202.29 1300,-188 1349.53,-154.03 1402.41,-106.72 1428.5,-82.56"/>
<polygon fill="midnightblue" stroke="midnightblue" points="1431.06,-84.95 1435.99,-75.57 1426.29,-79.83 1431.06,-84.95"/>
</g>
<!-- Node30&#45;&gt;Node25 -->
<g id="edge43" class="edge">
<title>Node30&#45;&gt;Node25</title>
<path fill="none" stroke="midnightblue" d="M1266.16,-231.66C1348.57,-228.55 1514.63,-218.57 1563,-188 1580.16,-177.15 1591.7,-156.46 1598.27,-141.33"/>
<polygon fill="midnightblue" stroke="midnightblue" points="1601.57,-142.51 1602.03,-131.93 1595.07,-139.91 1601.57,-142.51"/>
</g>
<!-- Node30&#45;&gt;Node26 -->
<g id="edge44" class="edge">
<title>Node30&#45;&gt;Node26</title>
<path fill="none" stroke="midnightblue" d="M1185.62,-224.46C1150.58,-215.46 1093.88,-200.86 1045,-188 974.22,-169.38 891.98,-147.29 843.61,-134.24"/>
<polygon fill="midnightblue" stroke="midnightblue" points="844.39,-130.83 833.82,-131.6 842.56,-137.59 844.39,-130.83"/>
</g>
<!-- Node31 -->
<g id="node31" class="node">
<title>Node31</title>
<g id="a_node31"><a xlink:title=" ">
<polygon fill="white" stroke="#bfbfbf" points="1265.5,-112.5 1265.5,-131.5 1324.5,-131.5 1324.5,-112.5 1265.5,-112.5"/>
<text text-anchor="middle" x="1295" y="-119.5" font-family="Helvetica,sans-Serif" font-size="10.00">functional</text>
</a>
</g>
</g>
<!-- Node30&#45;&gt;Node31 -->
<g id="edge39" class="edge">
<title>Node30&#45;&gt;Node31</title>
<path fill="none" stroke="midnightblue" d="M1237.34,-224.38C1251.47,-216.79 1270.33,-204.38 1281,-188 1289.96,-174.25 1293.29,-155.72 1294.47,-141.96"/>
<polygon fill="midnightblue" stroke="midnightblue" points="1297.98,-141.92 1295.04,-131.74 1290.99,-141.53 1297.98,-141.92"/>
</g>
<!-- Node32 -->
<g id="node32" class="node">
<title>Node32</title>
<g id="a_node32"><a xlink:href="Release_8h.html" target="_top" xlink:title="Header file with classes responsible for releasing memory allocated by WSTP when receiving data.">
<polygon fill="white" stroke="black" points="1125,-168.5 1125,-187.5 1239,-187.5 1239,-168.5 1125,-168.5"/>
<text text-anchor="middle" x="1182" y="-175.5" font-family="Helvetica,sans-Serif" font-size="10.00">LLU/WSTP/Release.h</text>
</a>
</g>
</g>
<!-- Node30&#45;&gt;Node32 -->
<g id="edge45" class="edge">
<title>Node30&#45;&gt;Node32</title>
<path fill="none" stroke="midnightblue" d="M1212.89,-224.08C1207.72,-216.53 1200.15,-205.49 1193.81,-196.23"/>
<polygon fill="midnightblue" stroke="midnightblue" points="1196.54,-194.02 1188,-187.75 1190.76,-197.98 1196.54,-194.02"/>
</g>
<!-- Node30&#45;&gt;Node33 -->
<g id="edge49" class="edge">
<title>Node30&#45;&gt;Node33</title>
<path fill="none" stroke="midnightblue" d="M1257.98,-224.44C1300.89,-215.02 1369.95,-199.87 1416.37,-189.68"/>
<polygon fill="midnightblue" stroke="midnightblue" points="1417.19,-193.08 1426.2,-187.52 1415.69,-186.24 1417.19,-193.08"/>
</g>
<!-- Node32&#45;&gt;Node5 -->
<g id="edge47" class="edge">
<title>Node32&#45;&gt;Node5</title>
<path fill="none" stroke="midnightblue" d="M1179.71,-168.44C1174.08,-148.15 1158.48,-95.85 1137,-56 1131.67,-46.1 1124.39,-35.94 1118.02,-27.77"/>
<polygon fill="midnightblue" stroke="midnightblue" points="1120.61,-25.4 1111.61,-19.81 1115.16,-29.79 1120.61,-25.4"/>
</g>
<!-- Node32&#45;&gt;Node26 -->
<g id="edge48" class="edge">
<title>Node32&#45;&gt;Node26</title>
<path fill="none" stroke="midnightblue" d="M1124.81,-169.6C1061.76,-161.33 957.06,-147.27 856.78,-132.08"/>
<polygon fill="midnightblue" stroke="midnightblue" points="857.19,-128.6 846.77,-130.56 856.13,-135.52 857.19,-128.6"/>
</g>
<!-- Node32&#45;&gt;Node31 -->
<g id="edge46" class="edge">
<title>Node32&#45;&gt;Node31</title>
<path fill="none" stroke="midnightblue" d="M1199.91,-168.44C1218.25,-159.68 1247.01,-145.94 1268.09,-135.86"/>
<polygon fill="midnightblue" stroke="midnightblue" points="1269.67,-138.99 1277.18,-131.52 1266.65,-132.67 1269.67,-138.99"/>
</g>
<!-- Node33&#45;&gt;Node5 -->
<g id="edge52" class="edge">
<title>Node33&#45;&gt;Node5</title>
<path fill="none" stroke="midnightblue" d="M1475.44,-168.24C1484.42,-159.97 1496.75,-146.66 1502,-132 1514.09,-98.25 1504.15,-76.86 1475,-56 1421.22,-17.52 1217.85,-11.79 1137.22,-11.05"/>
<polygon fill="midnightblue" stroke="midnightblue" points="1137.15,-7.55 1127.13,-10.98 1137.1,-14.55 1137.15,-7.55"/>
</g>
<!-- Node33&#45;&gt;Node14 -->
<g id="edge51" class="edge">
<title>Node33&#45;&gt;Node14</title>
<path fill="none" stroke="midnightblue" d="M1457.85,-168.36C1451.23,-159.76 1441.84,-145.87 1438,-132 1433.74,-116.62 1436.27,-98.52 1439.42,-85.33"/>
<polygon fill="midnightblue" stroke="midnightblue" points="1442.83,-86.15 1442.07,-75.58 1436.07,-84.31 1442.83,-86.15"/>
</g>
<!-- Node33&#45;&gt;Node25 -->
<g id="edge53" class="edge">
<title>Node33&#45;&gt;Node25</title>
<path fill="none" stroke="midnightblue" d="M1487.18,-168.44C1510.43,-159.48 1547.15,-145.31 1573.42,-135.18"/>
<polygon fill="midnightblue" stroke="midnightblue" points="1574.85,-138.38 1582.92,-131.52 1572.33,-131.85 1574.85,-138.38"/>
</g>
<!-- Node34 -->
<g id="node34" class="node">
<title>Node34</title>
<g id="a_node34"><a xlink:title=" ">
<polygon fill="white" stroke="#bfbfbf" points="1447,-112.5 1447,-131.5 1493,-131.5 1493,-112.5 1447,-112.5"/>
<text text-anchor="middle" x="1470" y="-119.5" font-family="Helvetica,sans-Serif" font-size="10.00">cstring</text>
</a>
</g>
</g>
<!-- Node33&#45;&gt;Node34 -->
<g id="edge50" class="edge">
<title>Node33&#45;&gt;Node34</title>
<path fill="none" stroke="midnightblue" d="M1465.83,-168.08C1466.48,-161.01 1467.42,-150.86 1468.24,-141.99"/>
<polygon fill="midnightblue" stroke="midnightblue" points="1471.75,-142.03 1469.19,-131.75 1464.78,-141.39 1471.75,-142.03"/>
</g>
<!-- Node35 -->
<g id="node35" class="node">
<title>Node35</title>
<g id="a_node35"><a xlink:href="EncodingTraits_8hpp.html" target="_top" xlink:title="Defines possible encodings together with their properties and related types.">
<polygon fill="white" stroke="black" points="865,-112.5 865,-131.5 1019,-131.5 1019,-112.5 865,-112.5"/>
<text text-anchor="middle" x="942" y="-119.5" font-family="Helvetica,sans-Serif" font-size="10.00">LLU/WSTP/EncodingTraits.hpp</text>
</a>
</g>
</g>
<!-- Node33&#45;&gt;Node35 -->
<g id="edge54" class="edge">
<title>Node33&#45;&gt;Node35</title>
<path fill="none" stroke="midnightblue" d="M1409.03,-171.22C1318.02,-161.82 1137.3,-143.16 1029.29,-132.01"/>
<polygon fill="midnightblue" stroke="midnightblue" points="1029.38,-128.5 1019.07,-130.96 1028.66,-135.47 1029.38,-128.5"/>
</g>
<!-- Node35&#45;&gt;Node14 -->
<g id="edge56" class="edge">
<title>Node35&#45;&gt;Node14</title>
<path fill="none" stroke="midnightblue" d="M1019.22,-112.71C1132.05,-100.6 1336.97,-78.6 1414.33,-70.29"/>
<polygon fill="midnightblue" stroke="midnightblue" points="1414.8,-73.76 1424.37,-69.21 1414.06,-66.8 1414.8,-73.76"/>
</g>
<!-- Node35&#45;&gt;Node16 -->
<g id="edge58" class="edge">
<title>Node35&#45;&gt;Node16</title>
<path fill="none" stroke="midnightblue" d="M901.28,-112.46C863.96,-104.43 806.97,-91.67 748.93,-76.11"/>
<polygon fill="midnightblue" stroke="midnightblue" points="749.79,-72.72 739.23,-73.48 747.97,-79.47 749.79,-72.72"/>
</g>
<!-- Node35&#45;&gt;Node24 -->
<g id="edge57" class="edge">
<title>Node35&#45;&gt;Node24</title>
<path fill="none" stroke="midnightblue" d="M917.6,-112.44C891.8,-103.4 850.92,-89.06 821.98,-78.92"/>
<polygon fill="midnightblue" stroke="midnightblue" points="822.88,-75.52 812.29,-75.52 820.57,-82.13 822.88,-75.52"/>
</g>
<!-- Node35&#45;&gt;Node28 -->
<g id="edge55" class="edge">
<title>Node35&#45;&gt;Node28</title>
<path fill="none" stroke="midnightblue" d="M950.92,-112.08C958.78,-104.22 970.43,-92.57 979.92,-83.08"/>
<polygon fill="midnightblue" stroke="midnightblue" points="982.65,-85.3 987.25,-75.75 977.7,-80.35 982.65,-85.3"/>
</g>
<!-- Node36&#45;&gt;Node5 -->
<g id="edge61" class="edge">
<title>Node36&#45;&gt;Node5</title>
<path fill="none" stroke="midnightblue" d="M1598.62,-224.38C1616.83,-217.34 1639.84,-205.64 1654,-188 1675.6,-161.08 1690.26,-139.95 1670,-112 1606.87,-24.9 1248.79,-12.87 1137.2,-11.24"/>
<polygon fill="midnightblue" stroke="midnightblue" points="1137.24,-7.74 1127.19,-11.12 1137.15,-14.74 1137.24,-7.74"/>
</g>
<!-- Node36&#45;&gt;Node25 -->
<g id="edge62" class="edge">
<title>Node36&#45;&gt;Node25</title>
<path fill="none" stroke="midnightblue" d="M1594.45,-224.41C1610.16,-217.28 1629.62,-205.46 1639,-188 1647.89,-171.46 1635.27,-152.42 1622.96,-139.24"/>
<polygon fill="midnightblue" stroke="midnightblue" points="1625.1,-136.43 1615.53,-131.86 1620.16,-141.39 1625.1,-136.43"/>
</g>
<!-- Node36&#45;&gt;Node26 -->
<g id="edge63" class="edge">
<title>Node36&#45;&gt;Node26</title>
<path fill="none" stroke="midnightblue" d="M1534.89,-224.42C1475.42,-210.58 1352.99,-183.34 1248,-168 1078.09,-143.18 1031.24,-153.98 856.78,-132"/>
<polygon fill="midnightblue" stroke="midnightblue" points="857.11,-128.51 846.75,-130.72 856.23,-135.46 857.11,-128.51"/>
</g>
<!-- Node36&#45;&gt;Node31 -->
<g id="edge60" class="edge">
<title>Node36&#45;&gt;Node31</title>
<path fill="none" stroke="midnightblue" d="M1568.08,-224.21C1562.86,-209.96 1550.5,-181.98 1530,-168 1498.76,-146.69 1393.09,-132.93 1334.66,-126.76"/>
<polygon fill="midnightblue" stroke="midnightblue" points="1334.98,-123.27 1324.67,-125.73 1334.26,-130.24 1334.98,-123.27"/>
</g>
<!-- Node36&#45;&gt;Node33 -->
<g id="edge64" class="edge">
<title>Node36&#45;&gt;Node33</title>
<path fill="none" stroke="midnightblue" d="M1553.97,-224.32C1536.97,-215.66 1510.62,-202.24 1491.01,-192.25"/>
<polygon fill="midnightblue" stroke="midnightblue" points="1492.49,-189.08 1481.99,-187.65 1489.31,-195.31 1492.49,-189.08"/>
</g>
<!-- Node37&#45;&gt;Node3 -->
<g id="edge68" class="edge">
<title>Node37&#45;&gt;Node3</title>
<path fill="none" stroke="midnightblue" d="M1044.21,-225.14C1041.09,-224.75 1038.01,-224.36 1035,-224 994.76,-219.18 699.21,-218.04 672,-188 651.16,-164.99 569.61,-197.87 678,-56 684.29,-47.77 740,-31.19 778.14,-20.62"/>
<polygon fill="midnightblue" stroke="midnightblue" points="779.18,-23.96 787.89,-17.94 777.32,-17.21 779.18,-23.96"/>
</g>
<!-- Node37&#45;&gt;Node5 -->
<g id="edge69" class="edge">
<title>Node37&#45;&gt;Node5</title>
<path fill="none" stroke="midnightblue" d="M1094.89,-224.28C1090.94,-215.38 1085.26,-201.07 1083,-188 1073.07,-130.44 1089.2,-61.54 1098.36,-29.31"/>
<polygon fill="midnightblue" stroke="midnightblue" points="1101.77,-30.1 1101.25,-19.52 1095.06,-28.12 1101.77,-30.1"/>
</g>
<!-- Node37&#45;&gt;Node12 -->
<g id="edge66" class="edge">
<title>Node37&#45;&gt;Node12</title>
<path fill="none" stroke="midnightblue" d="M1044.21,-225.08C1041.1,-224.7 1038.01,-224.33 1035,-224 984.32,-218.38 638.62,-191.17 521.61,-182.02"/>
<polygon fill="midnightblue" stroke="midnightblue" points="521.58,-178.5 511.34,-181.21 521.04,-185.48 521.58,-178.5"/>
</g>
<!-- Node37&#45;&gt;Node25 -->
<g id="edge70" class="edge">
<title>Node37&#45;&gt;Node25</title>
<path fill="none" stroke="midnightblue" d="M1153.79,-225.14C1156.91,-224.74 1159.99,-224.36 1163,-224 1325.74,-204.58 1379.43,-252.72 1530,-188 1555.11,-177.21 1577.9,-154.83 1591.6,-139.37"/>
<polygon fill="midnightblue" stroke="midnightblue" points="1594.4,-141.49 1598.24,-131.61 1589.08,-136.94 1594.4,-141.49"/>
</g>
<!-- Node37&#45;&gt;Node26 -->
<g id="edge71" class="edge">
<title>Node37&#45;&gt;Node26</title>
<path fill="none" stroke="midnightblue" d="M1057.87,-224.46C1023.39,-216.73 973.18,-204.08 931,-188 892.77,-173.42 850.87,-151.03 825.51,-136.7"/>
<polygon fill="midnightblue" stroke="midnightblue" points="827.06,-133.55 816.64,-131.63 823.59,-139.63 827.06,-133.55"/>
</g>
<!-- Node37&#45;&gt;Node31 -->
<g id="edge67" class="edge">
<title>Node37&#45;&gt;Node31</title>
<path fill="none" stroke="midnightblue" d="M1153.79,-225.26C1183.74,-218.97 1220.27,-207.76 1248,-188 1265.14,-175.79 1278.42,-155.34 1286.43,-140.64"/>
<polygon fill="midnightblue" stroke="midnightblue" points="1289.64,-142.04 1291.11,-131.55 1283.42,-138.84 1289.64,-142.04"/>
</g>
<!-- Node37&#45;&gt;Node33 -->
<g id="edge73" class="edge">
<title>Node37&#45;&gt;Node33</title>
<path fill="none" stroke="midnightblue" d="M1153.79,-224.92C1219.37,-215.24 1329.08,-199.05 1399.18,-188.71"/>
<polygon fill="midnightblue" stroke="midnightblue" points="1399.85,-192.15 1409.23,-187.23 1398.83,-185.23 1399.85,-192.15"/>
</g>
<!-- Node37&#45;&gt;Node35 -->
<g id="edge72" class="edge">
<title>Node37&#45;&gt;Node35</title>
<path fill="none" stroke="midnightblue" d="M1076.29,-224.37C1056.93,-216.46 1028.85,-203.6 1007,-188 987.43,-174.02 968.37,-153.97 956.01,-139.85"/>
<polygon fill="midnightblue" stroke="midnightblue" points="958.39,-137.25 949.23,-131.92 953.07,-141.8 958.39,-137.25"/>
</g>
<!-- Node38&#45;&gt;Node5 -->
<g id="edge77" class="edge">
<title>Node38&#45;&gt;Node5</title>
<path fill="none" stroke="midnightblue" d="M748.88,-168.32C720.97,-147.32 656.98,-92.8 690,-56 715.31,-27.79 976.87,-15.6 1070.72,-12.12"/>
<polygon fill="midnightblue" stroke="midnightblue" points="1070.93,-15.61 1080.8,-11.75 1070.67,-8.62 1070.93,-15.61"/>
</g>
<!-- Node38&#45;&gt;Node24 -->
<g id="edge76" class="edge">
<title>Node38&#45;&gt;Node24</title>
<path fill="none" stroke="midnightblue" d="M756.3,-168.33C750.06,-155.63 740.64,-131.36 748,-112 752.34,-100.6 761.03,-90.24 769.21,-82.34"/>
<polygon fill="midnightblue" stroke="midnightblue" points="771.64,-84.86 776.73,-75.57 766.96,-79.66 771.64,-84.86"/>
</g>
<!-- Node38&#45;&gt;Node26 -->
<g id="edge78" class="edge">
<title>Node38&#45;&gt;Node26</title>
<path fill="none" stroke="midnightblue" d="M767.77,-168.08C773.56,-160.46 782.06,-149.26 789.14,-139.94"/>
<polygon fill="midnightblue" stroke="midnightblue" points="792.1,-141.83 795.36,-131.75 786.52,-137.6 792.1,-141.83"/>
</g>
</g>
</svg>
        <g id="navigator" transform="translate(0 0)" fill="#404254">
                <rect fill="#f2f5e9" fill-opacity="0.5" stroke="#606060" stroke-width=".5" x="0" y="0" width="60" height="60"/>
                <use id="zoomplus" xlink:href="#zoomPlus" x="17" y="9" onmousedown="handleZoom(evt,'in')"/>
                <use id="zoomminus" xlink:href="#zoomMin" x="42" y="9" onmousedown="handleZoom(evt,'out')"/>
                <use id="reset" xlink:href="#resetDef" x="30" y="36" onmousedown="handleReset()"/>
                <g id="arrowUp" xlink:href="#dirArrow" transform="translate(30 24)" onmousedown="handlePan(0,-1)">
                  <use xlink:href="#rim" fill="#404040">
                        <set attributeName="fill" to="#808080" begin="arrowUp.mouseover" end="arrowUp.mouseout"/>
                  </use>
                  <path fill="none" stroke="white" stroke-width="1.5" d="M0,-3.0v7 M-2.5,-0.5L0,-3.0L2.5,-0.5"/>
                </g>
                <g id="arrowRight" xlink:href="#dirArrow" transform="rotate(90) translate(36 -43)" onmousedown="handlePan(1,0)">
                  <use xlink:href="#rim" fill="#404040">
                        <set attributeName="fill" to="#808080" begin="arrowRight.mouseover" end="arrowRight.mouseout"/>
                  </use>
                  <path fill="none" stroke="white" stroke-width="1.5" d="M0,-3.0v7 M-2.5,-0.5L0,-3.0L2.5,-0.5"/>
                </g>
                <g id="arrowDown" xlink:href="#dirArrow" transform="rotate(180) translate(-30 -48)" onmousedown="handlePan(0,1)">
                  <use xlink:href="#rim" fill="#404040">
                        <set attributeName="fill" to="#808080" begin="arrowDown.mouseover" end="arrowDown.mouseout"/>
                  </use>
                  <path fill="none" stroke="white" stroke-width="1.5" d="M0,-3.0v7 M-2.5,-0.5L0,-3.0L2.5,-0.5"/>
                </g>
                <g id="arrowLeft" xlink:href="#dirArrow" transform="rotate(270) translate(-36 17)" onmousedown="handlePan(-1,0)">
                  <use xlink:href="#rim" fill="#404040">
                        <set attributeName="fill" to="#808080" begin="arrowLeft.mouseover" end="arrowLeft.mouseout"/>
                  </use>
                  <path fill="none" stroke="white" stroke-width="1.5" d="M0,-3.0v7 M-2.5,-0.5L0,-3.0L2.5,-0.5"/>
                </g>
        </g>
        <svg viewBox="0 0 15 15" width="100%" height="30px" preserveAspectRatio="xMaxYMin meet">
         <g id="arrow_out" transform="scale(0.3 0.3)">
          <a xlink:href="LibraryData_8cpp__incl_org.svg" target="_base">
           <rect id="button" ry="5" rx="5" y="6" x="6" height="38" width="38"
                fill="#f2f5e9" fill-opacity="0.5" stroke="#606060" stroke-width="1.0"/>
           <path id="arrow"
             d="M 11.500037,31.436501 C 11.940474,20.09759 22.043105,11.32322 32.158766,21.979434 L 37.068811,17.246167 C 37.068811,17.246167 37.088388,32 37.088388,32 L 22.160133,31.978069 C 22.160133,31.978069 26.997745,27.140456 26.997745,27.140456 C 18.528582,18.264221 13.291696,25.230495 11.500037,31.436501 z"
             style="fill:#404040;"/>
          </a>
         </g>
        </svg>
</svg>
