<?xml version="1.0" encoding="UTF-8" standalone="no"?>
<!DOCTYPE svg PUBLIC "-//W3C//DTD SVG 1.1//EN"
 "http://www.w3.org/Graphics/SVG/1.1/DTD/svg11.dtd">
<!-- Generated by graphviz version 2.43.0 (0)
 -->
<!-- Title: LibraryLinkError.h Pages: 1 -->
<!--zoomable 364 -->
<svg id="main" version="1.1" xmlns="http://www.w3.org/2000/svg" xmlns:xlink="http://www.w3.org/1999/xlink" xml:space="preserve" onload="init(evt)">
<style type="text/css"><![CDATA[
.edge:hover path { stroke: red; }
.edge:hover polygon { stroke: red; fill: red; }
]]></style>
<script type="text/javascript"><![CDATA[
var edges = document.getElementsByTagName('g');
if (edges && edges.length) {
  for (var i=0;i<edges.length;i++) {
    if (edges[i].id.substr(0,4)=='edge') {
      edges[i].setAttribute('class','edge');
    }
  }
}
]]></script>
        <defs>
                <circle id="rim" cx="0" cy="0" r="7"/>
                <circle id="rim2" cx="0" cy="0" r="3.5"/>
                <g id="zoomPlus">
                        <use xlink:href="#rim" fill="#404040">
                                <set attributeName="fill" to="#808080" begin="zoomplus.mouseover" end="zoomplus.mouseout"/>
                        </use>
                        <path d="M-4,0h8M0,-4v8" fill="none" stroke="white" stroke-width="1.5" pointer-events="none"/>
                </g>
                <g id="zoomMin">
                        <use xlink:href="#rim" fill="#404040">
                                <set attributeName="fill" to="#808080" begin="zoomminus.mouseover" end="zoomminus.mouseout"/>
                        </use>
                        <path d="M-4,0h8" fill="none" stroke="white" stroke-width="1.5" pointer-events="none"/>
                </g>
                <g id="dirArrow">
                        <path fill="none" stroke="white" stroke-width="1.5" d="M0,-3.0v7 M-2.5,-0.5L0,-3.0L2.5,-0.5"/>
                </g>
               <g id="resetDef">
                       <use xlink:href="#rim2" fill="#404040">
                               <set attributeName="fill" to="#808080" begin="reset.mouseover" end="reset.mouseout"/>
                       </use>
               </g>
        </defs>

<script type="text/javascript">
var viewWidth = 1592;
var viewHeight = 364;
var sectionId = 'dynsection-0';
</script>
<script xlink:href="svgpan.js"/>
<svg id="graph" class="graph">
<g id="viewport">
<title>LibraryLinkError.h</title>
<polygon fill="white" stroke="transparent" points="-4,4 -4,-360 1588,-360 1588,4 -4,4"/>
<!-- Node1 -->
<g id="node1" class="node">
<title>Node1</title>
<g id="a_node1"><a xlink:title="Error class and error codes used by LibraryLink Utilities classes.">
<polygon fill="#bfbfbf" stroke="black" points="41.5,-336.5 41.5,-355.5 133.5,-355.5 133.5,-336.5 41.5,-336.5"/>
<text text-anchor="middle" x="87.5" y="-343.5" font-family="Helvetica,sans-Serif" font-size="10.00">LibraryLinkError.h</text>
</a>
</g>
</g>
<!-- Node2 -->
<g id="node2" class="node">
<title>Node2</title>
<g id="a_node2"><a xlink:title=" ">
<polygon fill="white" stroke="#bfbfbf" points="0,-280.5 0,-299.5 59,-299.5 59,-280.5 0,-280.5"/>
<text text-anchor="middle" x="29.5" y="-287.5" font-family="Helvetica,sans-Serif" font-size="10.00">stdexcept</text>
</a>
</g>
</g>
<!-- Node1&#45;&gt;Node2 -->
<g id="edge1" class="edge">
<title>Node1&#45;&gt;Node2</title>
<path fill="none" stroke="midnightblue" d="M78.18,-336.32C69.61,-328.34 56.69,-316.31 46.31,-306.65"/>
<polygon fill="midnightblue" stroke="midnightblue" points="48.69,-304.09 38.99,-299.83 43.92,-309.21 48.69,-304.09"/>
</g>
<!-- Node3 -->
<g id="node3" class="node">
<title>Node3</title>
<g id="a_node3"><a xlink:title=" ">
<polygon fill="white" stroke="#bfbfbf" points="347,-56.5 347,-75.5 388,-75.5 388,-56.5 347,-56.5"/>
<text text-anchor="middle" x="367.5" y="-63.5" font-family="Helvetica,sans-Serif" font-size="10.00">string</text>
</a>
</g>
</g>
<!-- Node1&#45;&gt;Node3 -->
<g id="edge2" class="edge">
<title>Node1&#45;&gt;Node3</title>
<path fill="none" stroke="midnightblue" d="M87.5,-336.44C87.5,-317.94 87.5,-272.81 87.5,-235 87.5,-235 87.5,-235 87.5,-177 87.5,-123.86 264.42,-85.7 336.99,-72.28"/>
<polygon fill="midnightblue" stroke="midnightblue" points="337.7,-75.71 346.91,-70.48 336.45,-68.82 337.7,-75.71"/>
</g>
<!-- Node4 -->
<g id="node4" class="node">
<title>Node4</title>
<g id="a_node4"><a xlink:href="WSStream_8hpp.html" target="_top" xlink:title="Header file for WSStream class.">
<polygon fill="white" stroke="black" points="888,-280.5 888,-299.5 1025,-299.5 1025,-280.5 888,-280.5"/>
<text text-anchor="middle" x="956.5" y="-287.5" font-family="Helvetica,sans-Serif" font-size="10.00">LLU/WSTP/WSStream.hpp</text>
</a>
</g>
</g>
<!-- Node1&#45;&gt;Node4 -->
<g id="edge3" class="edge">
<title>Node1&#45;&gt;Node4</title>
<path fill="none" stroke="midnightblue" d="M133.61,-342.13C274.47,-333.38 700.35,-306.92 877.69,-295.9"/>
<polygon fill="midnightblue" stroke="midnightblue" points="877.96,-299.39 887.73,-295.27 877.53,-292.4 877.96,-299.39"/>
</g>
<!-- Node5 -->
<g id="node5" class="node">
<title>Node5</title>
<g id="a_node5"><a xlink:title=" ">
<polygon fill="white" stroke="#bfbfbf" points="1061.5,-168.5 1061.5,-187.5 1117.5,-187.5 1117.5,-168.5 1061.5,-168.5"/>
<text text-anchor="middle" x="1089.5" y="-175.5" font-family="Helvetica,sans-Serif" font-size="10.00">algorithm</text>
</a>
</g>
</g>
<!-- Node4&#45;&gt;Node5 -->
<g id="edge4" class="edge">
<title>Node4&#45;&gt;Node5</title>
<path fill="none" stroke="midnightblue" d="M954.45,-280.39C951.78,-266.87 948.82,-240.52 961.5,-224 972.71,-209.4 1017.96,-195.85 1051.5,-187.51"/>
<polygon fill="midnightblue" stroke="midnightblue" points="1052.58,-190.85 1061.48,-185.1 1050.94,-184.05 1052.58,-190.85"/>
</g>
<!-- Node6 -->
<g id="node6" class="node">
<title>Node6</title>
<g id="a_node6"><a xlink:title=" ">
<polygon fill="white" stroke="#bfbfbf" points="1004,-224.5 1004,-243.5 1051,-243.5 1051,-224.5 1004,-224.5"/>
<text text-anchor="middle" x="1027.5" y="-231.5" font-family="Helvetica,sans-Serif" font-size="10.00">iterator</text>
</a>
</g>
</g>
<!-- Node4&#45;&gt;Node6 -->
<g id="edge5" class="edge">
<title>Node4&#45;&gt;Node6</title>
<path fill="none" stroke="midnightblue" d="M967.91,-280.32C978.61,-272.18 994.84,-259.84 1007.66,-250.09"/>
<polygon fill="midnightblue" stroke="midnightblue" points="1010.04,-252.67 1015.89,-243.83 1005.81,-247.1 1010.04,-252.67"/>
</g>
<!-- Node7 -->
<g id="node7" class="node">
<title>Node7</title>
<g id="a_node7"><a xlink:title=" ">
<polygon fill="white" stroke="#bfbfbf" points="1069,-224.5 1069,-243.5 1104,-243.5 1104,-224.5 1069,-224.5"/>
<text text-anchor="middle" x="1086.5" y="-231.5" font-family="Helvetica,sans-Serif" font-size="10.00">map</text>
</a>
</g>
</g>
<!-- Node4&#45;&gt;Node7 -->
<g id="edge6" class="edge">
<title>Node4&#45;&gt;Node7</title>
<path fill="none" stroke="midnightblue" d="M977.1,-280.44C999.37,-271.19 1034.98,-256.4 1059.48,-246.22"/>
<polygon fill="midnightblue" stroke="midnightblue" points="1061.02,-249.37 1068.92,-242.3 1058.34,-242.91 1061.02,-249.37"/>
</g>
<!-- Node8 -->
<g id="node8" class="node">
<title>Node8</title>
<g id="a_node8"><a xlink:title=" ">
<polygon fill="white" stroke="#bfbfbf" points="1122,-224.5 1122,-243.5 1163,-243.5 1163,-224.5 1122,-224.5"/>
<text text-anchor="middle" x="1142.5" y="-231.5" font-family="Helvetica,sans-Serif" font-size="10.00">stack</text>
</a>
</g>
</g>
<!-- Node4&#45;&gt;Node8 -->
<g id="edge7" class="edge">
<title>Node4&#45;&gt;Node8</title>
<path fill="none" stroke="midnightblue" d="M986.95,-280.48C1016.64,-272.13 1063.32,-258.88 1112.13,-244.37"/>
<polygon fill="midnightblue" stroke="midnightblue" points="1113.34,-247.66 1121.92,-241.45 1111.34,-240.95 1113.34,-247.66"/>
</g>
<!-- Node9 -->
<g id="node9" class="node">
<title>Node9</title>
<g id="a_node9"><a xlink:title=" ">
<polygon fill="white" stroke="#bfbfbf" points="1253.5,-56.5 1253.5,-75.5 1315.5,-75.5 1315.5,-56.5 1253.5,-56.5"/>
<text text-anchor="middle" x="1284.5" y="-63.5" font-family="Helvetica,sans-Serif" font-size="10.00">type_traits</text>
</a>
</g>
</g>
<!-- Node4&#45;&gt;Node9 -->
<g id="edge8" class="edge">
<title>Node4&#45;&gt;Node9</title>
<path fill="none" stroke="midnightblue" d="M1025.19,-287.85C1093.7,-284.84 1201.06,-275.01 1288.5,-244 1333.62,-228 1357.05,-229.73 1380.5,-188 1404.44,-145.4 1345.66,-102.14 1309.79,-80.74"/>
<polygon fill="midnightblue" stroke="midnightblue" points="1311.21,-77.52 1300.8,-75.55 1307.71,-83.58 1311.21,-77.52"/>
</g>
<!-- Node10 -->
<g id="node10" class="node">
<title>Node10</title>
<g id="a_node10"><a xlink:title=" ">
<polygon fill="white" stroke="#bfbfbf" points="976.5,-56.5 976.5,-75.5 1016.5,-75.5 1016.5,-56.5 976.5,-56.5"/>
<text text-anchor="middle" x="996.5" y="-63.5" font-family="Helvetica,sans-Serif" font-size="10.00">utility</text>
</a>
</g>
</g>
<!-- Node4&#45;&gt;Node10 -->
<g id="edge9" class="edge">
<title>Node4&#45;&gt;Node10</title>
<path fill="none" stroke="midnightblue" d="M959.14,-280.4C963.89,-266.4 975.2,-238.79 994.5,-224 1042.76,-187.01 1089.59,-236.33 1126.5,-188 1161.78,-141.81 1074.61,-98.03 1026.2,-78.16"/>
<polygon fill="midnightblue" stroke="midnightblue" points="1027.38,-74.87 1016.79,-74.4 1024.78,-81.37 1027.38,-74.87"/>
</g>
<!-- Node11 -->
<g id="node11" class="node">
<title>Node11</title>
<g id="a_node11"><a xlink:title=" ">
<polygon fill="white" stroke="#bfbfbf" points="1181.5,-224.5 1181.5,-243.5 1225.5,-243.5 1225.5,-224.5 1181.5,-224.5"/>
<text text-anchor="middle" x="1203.5" y="-231.5" font-family="Helvetica,sans-Serif" font-size="10.00">vector</text>
</a>
</g>
</g>
<!-- Node4&#45;&gt;Node11 -->
<g id="edge10" class="edge">
<title>Node4&#45;&gt;Node11</title>
<path fill="none" stroke="midnightblue" d="M1002.66,-280.45C1044.41,-272.48 1107.77,-259.8 1171.4,-244.13"/>
<polygon fill="midnightblue" stroke="midnightblue" points="1172.34,-247.5 1181.2,-241.7 1170.66,-240.71 1172.34,-247.5"/>
</g>
<!-- Node12 -->
<g id="node12" class="node">
<title>Node12</title>
<g id="a_node12"><a xlink:title=" ">
<polygon fill="white" stroke="#bfbfbf" points="646.5,-0.5 646.5,-19.5 692.5,-19.5 692.5,-0.5 646.5,-0.5"/>
<text text-anchor="middle" x="669.5" y="-7.5" font-family="Helvetica,sans-Serif" font-size="10.00">wstp.h</text>
</a>
</g>
</g>
<!-- Node4&#45;&gt;Node12 -->
<g id="edge11" class="edge">
<title>Node4&#45;&gt;Node12</title>
<path fill="none" stroke="midnightblue" d="M887.79,-287.09C688.69,-280.66 125.5,-255.68 125.5,-179 125.5,-179 125.5,-179 125.5,-121 125.5,-16.23 518.04,-10.08 636.23,-10.61"/>
<polygon fill="midnightblue" stroke="midnightblue" points="636.45,-14.11 646.47,-10.67 636.5,-7.11 636.45,-14.11"/>
</g>
<!-- Node13 -->
<g id="node13" class="node">
<title>Node13</title>
<g id="a_node13"><a xlink:href="Errors_8h.html" target="_top" xlink:title="Definitions of error names and error codes used across LLU.">
<polygon fill="white" stroke="black" points="311.5,-112.5 311.5,-131.5 423.5,-131.5 423.5,-112.5 311.5,-112.5"/>
<text text-anchor="middle" x="367.5" y="-119.5" font-family="Helvetica,sans-Serif" font-size="10.00">LLU/ErrorLog/Errors.h</text>
</a>
</g>
</g>
<!-- Node4&#45;&gt;Node13 -->
<g id="edge12" class="edge">
<title>Node4&#45;&gt;Node13</title>
<path fill="none" stroke="midnightblue" d="M887.58,-287.32C762.77,-283.6 504.39,-272.62 419.5,-244 375.57,-229.19 353.81,-228.64 331.5,-188 322.26,-171.17 335.93,-151.95 348.99,-138.8"/>
<polygon fill="midnightblue" stroke="midnightblue" points="351.53,-141.21 356.43,-131.82 346.74,-136.1 351.53,-141.21"/>
</g>
<!-- Node14 -->
<g id="node14" class="node">
<title>Node14</title>
<g id="a_node14"><a xlink:href="Utilities_8hpp.html" target="_top" xlink:title="Short but generally useful functions.">
<polygon fill="white" stroke="black" points="991,-112.5 991,-131.5 1080,-131.5 1080,-112.5 991,-112.5"/>
<text text-anchor="middle" x="1035.5" y="-119.5" font-family="Helvetica,sans-Serif" font-size="10.00">LLU/Utilities.hpp</text>
</a>
</g>
</g>
<!-- Node4&#45;&gt;Node14 -->
<g id="edge14" class="edge">
<title>Node4&#45;&gt;Node14</title>
<path fill="none" stroke="midnightblue" d="M1025,-287.71C1098.46,-284.71 1208.12,-275 1234.5,-244 1240.26,-237.23 1239.12,-231.6 1234.5,-224 1215.92,-193.44 1120.66,-154.44 1068.97,-135.06"/>
<polygon fill="midnightblue" stroke="midnightblue" points="1070.14,-131.76 1059.55,-131.56 1067.71,-138.32 1070.14,-131.76"/>
</g>
<!-- Node26 -->
<g id="node26" class="node">
<title>Node26</title>
<g id="a_node26"><a xlink:href="Get_8h.html" target="_top" xlink:title="Header file with classes related to reading data from WSTP.">
<polygon fill="white" stroke="black" points="428.5,-224.5 428.5,-243.5 522.5,-243.5 522.5,-224.5 428.5,-224.5"/>
<text text-anchor="middle" x="475.5" y="-231.5" font-family="Helvetica,sans-Serif" font-size="10.00">LLU/WSTP/Get.h</text>
</a>
</g>
</g>
<!-- Node4&#45;&gt;Node26 -->
<g id="edge29" class="edge">
<title>Node4&#45;&gt;Node26</title>
<path fill="none" stroke="midnightblue" d="M887.84,-281.29C792.46,-270.58 621.6,-251.4 532.73,-241.43"/>
<polygon fill="midnightblue" stroke="midnightblue" points="532.9,-237.92 522.57,-240.28 532.12,-244.88 532.9,-237.92"/>
</g>
<!-- Node29 -->
<g id="node29" class="node">
<title>Node29</title>
<g id="a_node29"><a xlink:href="WSTP_2Utilities_8h.html" target="_top" xlink:title="Header file with miscellaneous utilities used throughout the WSTP&#45;related part of LibraryLinkUtilitie...">
<polygon fill="white" stroke="black" points="420,-168.5 420,-187.5 531,-187.5 531,-168.5 420,-168.5"/>
<text text-anchor="middle" x="475.5" y="-175.5" font-family="Helvetica,sans-Serif" font-size="10.00">LLU/WSTP/Utilities.h</text>
</a>
</g>
</g>
<!-- Node4&#45;&gt;Node29 -->
<g id="edge65" class="edge">
<title>Node4&#45;&gt;Node29</title>
<path fill="none" stroke="midnightblue" d="M887.93,-280.72C831.53,-273.23 749.75,-260.8 679.5,-244 617.84,-229.25 547.8,-205.31 507.91,-190.96"/>
<polygon fill="midnightblue" stroke="midnightblue" points="509.03,-187.65 498.44,-187.53 506.65,-194.23 509.03,-187.65"/>
</g>
<!-- Node32 -->
<g id="node32" class="node">
<title>Node32</title>
<g id="a_node32"><a xlink:href="Put_8h.html" target="_top" xlink:title="Header file with classes related to sending data through WSTP.">
<polygon fill="white" stroke="black" points="689,-224.5 689,-243.5 782,-243.5 782,-224.5 689,-224.5"/>
<text text-anchor="middle" x="735.5" y="-231.5" font-family="Helvetica,sans-Serif" font-size="10.00">LLU/WSTP/Put.h</text>
</a>
</g>
</g>
<!-- Node4&#45;&gt;Node32 -->
<g id="edge50" class="edge">
<title>Node4&#45;&gt;Node32</title>
<path fill="none" stroke="midnightblue" d="M921.48,-280.44C883.25,-271.1 821.93,-256.12 780.24,-245.93"/>
<polygon fill="midnightblue" stroke="midnightblue" points="780.9,-242.49 770.35,-243.52 779.24,-249.29 780.9,-242.49"/>
</g>
<!-- Node33 -->
<g id="node33" class="node">
<title>Node33</title>
<g id="a_node33"><a xlink:href="Strings_8h.html" target="_top" xlink:title="Definitions of multiple structures and type aliases related to string handling in WSTP.">
<polygon fill="white" stroke="black" points="800,-224.5 800,-243.5 909,-243.5 909,-224.5 800,-224.5"/>
<text text-anchor="middle" x="854.5" y="-231.5" font-family="Helvetica,sans-Serif" font-size="10.00">LLU/WSTP/Strings.h</text>
</a>
</g>
</g>
<!-- Node4&#45;&gt;Node33 -->
<g id="edge56" class="edge">
<title>Node4&#45;&gt;Node33</title>
<path fill="none" stroke="midnightblue" d="M940.11,-280.32C923.83,-271.7 898.63,-258.36 879.78,-248.39"/>
<polygon fill="midnightblue" stroke="midnightblue" points="881.32,-245.24 870.85,-243.65 878.05,-251.43 881.32,-245.24"/>
</g>
<!-- Node34 -->
<g id="node34" class="node">
<title>Node34</title>
<g id="a_node34"><a xlink:href="UtilityTypeTraits_8hpp.html" target="_top" xlink:title="Type traits used by WSStream to identify types supported by WSTP.">
<polygon fill="white" stroke="black" points="1211.5,-168.5 1211.5,-187.5 1371.5,-187.5 1371.5,-168.5 1211.5,-168.5"/>
<text text-anchor="middle" x="1291.5" y="-175.5" font-family="Helvetica,sans-Serif" font-size="10.00">LLU/WSTP/UtilityTypeTraits.hpp</text>
</a>
</g>
</g>
<!-- Node4&#45;&gt;Node34 -->
<g id="edge66" class="edge">
<title>Node4&#45;&gt;Node34</title>
<path fill="none" stroke="midnightblue" d="M1025.3,-287.09C1105.4,-283.5 1231.35,-273.26 1267.5,-244 1281.36,-232.78 1287.22,-212.77 1289.69,-197.9"/>
<polygon fill="midnightblue" stroke="midnightblue" points="1293.19,-198.13 1291,-187.76 1286.25,-197.23 1293.19,-198.13"/>
</g>
<!-- Node13&#45;&gt;Node3 -->
<g id="edge13" class="edge">
<title>Node13&#45;&gt;Node3</title>
<path fill="none" stroke="midnightblue" d="M367.5,-112.08C367.5,-105.01 367.5,-94.86 367.5,-85.99"/>
<polygon fill="midnightblue" stroke="midnightblue" points="371,-85.75 367.5,-75.75 364,-85.75 371,-85.75"/>
</g>
<!-- Node14&#45;&gt;Node9 -->
<g id="edge17" class="edge">
<title>Node14&#45;&gt;Node9</title>
<path fill="none" stroke="midnightblue" d="M1074.95,-112.44C1121.08,-102.44 1197.02,-85.97 1243.71,-75.85"/>
<polygon fill="midnightblue" stroke="midnightblue" points="1244.46,-79.27 1253.49,-73.73 1242.98,-72.42 1244.46,-79.27"/>
</g>
<!-- Node14&#45;&gt;Node10 -->
<g id="edge18" class="edge">
<title>Node14&#45;&gt;Node10</title>
<path fill="none" stroke="midnightblue" d="M1029.06,-112.08C1023.55,-104.46 1015.47,-93.26 1008.74,-83.94"/>
<polygon fill="midnightblue" stroke="midnightblue" points="1011.51,-81.81 1002.82,-75.75 1005.84,-85.91 1011.51,-81.81"/>
</g>
<!-- Node15 -->
<g id="node15" class="node">
<title>Node15</title>
<g id="a_node15"><a xlink:title=" ">
<polygon fill="white" stroke="#bfbfbf" points="905,-56.5 905,-75.5 958,-75.5 958,-56.5 905,-56.5"/>
<text text-anchor="middle" x="931.5" y="-63.5" font-family="Helvetica,sans-Serif" font-size="10.00">complex</text>
</a>
</g>
</g>
<!-- Node14&#45;&gt;Node15 -->
<g id="edge15" class="edge">
<title>Node14&#45;&gt;Node15</title>
<path fill="none" stroke="midnightblue" d="M1018.79,-112.32C1002.19,-103.7 976.5,-90.36 957.28,-80.39"/>
<polygon fill="midnightblue" stroke="midnightblue" points="958.66,-77.16 948.17,-75.65 955.43,-83.37 958.66,-77.16"/>
</g>
<!-- Node16 -->
<g id="node16" class="node">
<title>Node16</title>
<g id="a_node16"><a xlink:title=" ">
<polygon fill="white" stroke="#bfbfbf" points="840.5,-56.5 840.5,-75.5 886.5,-75.5 886.5,-56.5 840.5,-56.5"/>
<text text-anchor="middle" x="863.5" y="-63.5" font-family="Helvetica,sans-Serif" font-size="10.00">cstdint</text>
</a>
</g>
</g>
<!-- Node14&#45;&gt;Node16 -->
<g id="edge16" class="edge">
<title>Node14&#45;&gt;Node16</title>
<path fill="none" stroke="midnightblue" d="M1008.25,-112.44C977.99,-102.94 929.15,-87.61 896.68,-77.42"/>
<polygon fill="midnightblue" stroke="midnightblue" points="897.35,-73.96 886.77,-74.3 895.26,-80.64 897.35,-73.96"/>
</g>
<!-- Node17 -->
<g id="node17" class="node">
<title>Node17</title>
<g id="a_node17"><a xlink:title=" ">
<polygon fill="white" stroke="#bfbfbf" points="1034.5,-56.5 1034.5,-75.5 1080.5,-75.5 1080.5,-56.5 1034.5,-56.5"/>
<text text-anchor="middle" x="1057.5" y="-63.5" font-family="Helvetica,sans-Serif" font-size="10.00">variant</text>
</a>
</g>
</g>
<!-- Node14&#45;&gt;Node17 -->
<g id="edge19" class="edge">
<title>Node14&#45;&gt;Node17</title>
<path fill="none" stroke="midnightblue" d="M1039.13,-112.08C1042.11,-104.77 1046.43,-94.18 1050.12,-85.1"/>
<polygon fill="midnightblue" stroke="midnightblue" points="1053.4,-86.33 1053.93,-75.75 1046.92,-83.69 1053.4,-86.33"/>
</g>
<!-- Node18 -->
<g id="node18" class="node">
<title>Node18</title>
<g id="a_node18"><a xlink:href="LibraryData_8h.html" target="_top" xlink:title=" ">
<polygon fill="white" stroke="black" points="1136.5,-56.5 1136.5,-75.5 1232.5,-75.5 1232.5,-56.5 1136.5,-56.5"/>
<text text-anchor="middle" x="1184.5" y="-63.5" font-family="Helvetica,sans-Serif" font-size="10.00">LLU/LibraryData.h</text>
</a>
</g>
</g>
<!-- Node14&#45;&gt;Node18 -->
<g id="edge20" class="edge">
<title>Node14&#45;&gt;Node18</title>
<path fill="none" stroke="midnightblue" d="M1059.11,-112.44C1083.96,-103.44 1123.27,-89.19 1151.25,-79.05"/>
<polygon fill="midnightblue" stroke="midnightblue" points="1152.79,-82.21 1161,-75.52 1150.41,-75.63 1152.79,-82.21"/>
</g>
<!-- Node18&#45;&gt;Node12 -->
<g id="edge23" class="edge">
<title>Node18&#45;&gt;Node12</title>
<path fill="none" stroke="midnightblue" d="M1136.43,-60.43C1036.95,-50.92 811.39,-29.16 734.5,-20 724.17,-18.77 712.95,-17.27 702.77,-15.85"/>
<polygon fill="midnightblue" stroke="midnightblue" points="703.03,-12.36 692.64,-14.42 702.05,-19.29 703.03,-12.36"/>
</g>
<!-- Node19 -->
<g id="node19" class="node">
<title>Node19</title>
<g id="a_node19"><a xlink:title=" ">
<polygon fill="white" stroke="#bfbfbf" points="743.5,-0.5 743.5,-19.5 795.5,-19.5 795.5,-0.5 743.5,-0.5"/>
<text text-anchor="middle" x="769.5" y="-7.5" font-family="Helvetica,sans-Serif" font-size="10.00">memory</text>
</a>
</g>
</g>
<!-- Node18&#45;&gt;Node19 -->
<g id="edge21" class="edge">
<title>Node18&#45;&gt;Node19</title>
<path fill="none" stroke="midnightblue" d="M1136.46,-57.87C1131.74,-57.22 1127.03,-56.59 1122.5,-56 984.6,-38.19 946.1,-45.43 805.63,-19.98"/>
<polygon fill="midnightblue" stroke="midnightblue" points="806.25,-16.54 795.79,-18.18 804.99,-23.42 806.25,-16.54"/>
</g>
<!-- Node20 -->
<g id="node20" class="node">
<title>Node20</title>
<g id="a_node20"><a xlink:title=" ">
<polygon fill="white" stroke="#bfbfbf" points="1414.5,-0.5 1414.5,-19.5 1476.5,-19.5 1476.5,-0.5 1414.5,-0.5"/>
<text text-anchor="middle" x="1445.5" y="-7.5" font-family="Helvetica,sans-Serif" font-size="10.00">dllexport.h</text>
</a>
</g>
</g>
<!-- Node18&#45;&gt;Node20 -->
<g id="edge22" class="edge">
<title>Node18&#45;&gt;Node20</title>
<path fill="none" stroke="midnightblue" d="M1227.75,-56.47C1270.25,-48.02 1337.21,-34.55 1404.19,-20.25"/>
<polygon fill="midnightblue" stroke="midnightblue" points="1405.02,-23.65 1414.07,-18.14 1403.56,-16.81 1405.02,-23.65"/>
</g>
<!-- Node21 -->
<g id="node21" class="node">
<title>Node21</title>
<g id="a_node21"><a xlink:title=" ">
<polygon fill="white" stroke="#bfbfbf" points="1495,-0.5 1495,-19.5 1584,-19.5 1584,-0.5 1495,-0.5"/>
<text text-anchor="middle" x="1539.5" y="-7.5" font-family="Helvetica,sans-Serif" font-size="10.00">WolframLibrary.h</text>
</a>
</g>
</g>
<!-- Node18&#45;&gt;Node21 -->
<g id="edge24" class="edge">
<title>Node18&#45;&gt;Node21</title>
<path fill="none" stroke="midnightblue" d="M1232.64,-57.78C1236.65,-57.18 1240.65,-56.58 1244.5,-56 1348.47,-40.44 1376.88,-37.09 1484.73,-20.1"/>
<polygon fill="midnightblue" stroke="midnightblue" points="1485.39,-23.54 1494.72,-18.52 1484.3,-16.63 1485.39,-23.54"/>
</g>
<!-- Node22 -->
<g id="node22" class="node">
<title>Node22</title>
<g id="a_node22"><a xlink:title=" ">
<polygon fill="white" stroke="#bfbfbf" points="814,-0.5 814,-19.5 957,-19.5 957,-0.5 814,-0.5"/>
<text text-anchor="middle" x="885.5" y="-7.5" font-family="Helvetica,sans-Serif" font-size="10.00">WolframIOLibraryFunctions.h</text>
</a>
</g>
</g>
<!-- Node18&#45;&gt;Node22 -->
<g id="edge25" class="edge">
<title>Node18&#45;&gt;Node22</title>
<path fill="none" stroke="midnightblue" d="M1137.12,-56.44C1084.42,-46.92 999.27,-31.55 942.84,-21.36"/>
<polygon fill="midnightblue" stroke="midnightblue" points="943.12,-17.85 932.66,-19.52 941.87,-24.74 943.12,-17.85"/>
</g>
<!-- Node23 -->
<g id="node23" class="node">
<title>Node23</title>
<g id="a_node23"><a xlink:title=" ">
<polygon fill="white" stroke="#bfbfbf" points="975.5,-0.5 975.5,-19.5 1091.5,-19.5 1091.5,-0.5 975.5,-0.5"/>
<text text-anchor="middle" x="1033.5" y="-7.5" font-family="Helvetica,sans-Serif" font-size="10.00">WolframImageLibrary.h</text>
</a>
</g>
</g>
<!-- Node18&#45;&gt;Node23 -->
<g id="edge26" class="edge">
<title>Node18&#45;&gt;Node23</title>
<path fill="none" stroke="midnightblue" d="M1160.57,-56.44C1135.28,-47.4 1095.2,-33.06 1066.82,-22.92"/>
<polygon fill="midnightblue" stroke="midnightblue" points="1067.91,-19.59 1057.31,-19.52 1065.55,-26.18 1067.91,-19.59"/>
</g>
<!-- Node24 -->
<g id="node24" class="node">
<title>Node24</title>
<g id="a_node24"><a xlink:title=" ">
<polygon fill="white" stroke="#bfbfbf" points="1110,-0.5 1110,-19.5 1259,-19.5 1259,-0.5 1110,-0.5"/>
<text text-anchor="middle" x="1184.5" y="-7.5" font-family="Helvetica,sans-Serif" font-size="10.00">WolframNumericArrayLibrary.h</text>
</a>
</g>
</g>
<!-- Node18&#45;&gt;Node24 -->
<g id="edge27" class="edge">
<title>Node18&#45;&gt;Node24</title>
<path fill="none" stroke="midnightblue" d="M1184.5,-56.08C1184.5,-49.01 1184.5,-38.86 1184.5,-29.99"/>
<polygon fill="midnightblue" stroke="midnightblue" points="1188,-29.75 1184.5,-19.75 1181,-29.75 1188,-29.75"/>
</g>
<!-- Node25 -->
<g id="node25" class="node">
<title>Node25</title>
<g id="a_node25"><a xlink:title=" ">
<polygon fill="white" stroke="#bfbfbf" points="1277,-0.5 1277,-19.5 1396,-19.5 1396,-0.5 1277,-0.5"/>
<text text-anchor="middle" x="1336.5" y="-7.5" font-family="Helvetica,sans-Serif" font-size="10.00">WolframSparseLibrary.h</text>
</a>
</g>
</g>
<!-- Node18&#45;&gt;Node25 -->
<g id="edge28" class="edge">
<title>Node18&#45;&gt;Node25</title>
<path fill="none" stroke="midnightblue" d="M1208.58,-56.44C1234.04,-47.4 1274.39,-33.06 1302.96,-22.92"/>
<polygon fill="midnightblue" stroke="midnightblue" points="1304.28,-26.16 1312.53,-19.52 1301.93,-19.57 1304.28,-26.16"/>
</g>
<!-- Node26&#45;&gt;Node3 -->
<g id="edge32" class="edge">
<title>Node26&#45;&gt;Node3</title>
<path fill="none" stroke="midnightblue" d="M428.23,-227.7C397.73,-222.16 358.79,-210.89 331.5,-188 303.8,-164.77 285.72,-144.02 302.5,-112 310.06,-97.58 324.57,-86.86 337.96,-79.51"/>
<polygon fill="midnightblue" stroke="midnightblue" points="339.62,-82.59 346.96,-74.95 336.46,-76.35 339.62,-82.59"/>
</g>
<!-- Node26&#45;&gt;Node12 -->
<g id="edge33" class="edge">
<title>Node26&#45;&gt;Node12</title>
<path fill="none" stroke="midnightblue" d="M428.21,-225.23C393.6,-218.4 346.14,-206.59 307.5,-188 246.5,-158.65 186.14,-106.25 231.5,-56 258.53,-26.05 538.78,-14.9 636.28,-11.9"/>
<polygon fill="midnightblue" stroke="midnightblue" points="636.56,-15.4 646.45,-11.6 636.35,-8.4 636.56,-15.4"/>
</g>
<!-- Node26&#45;&gt;Node13 -->
<g id="edge34" class="edge">
<title>Node26&#45;&gt;Node13</title>
<path fill="none" stroke="midnightblue" d="M428.26,-230.86C397.55,-226.72 359.6,-215.82 339.5,-188 328.66,-172.99 340.29,-153.12 351.69,-139.32"/>
<polygon fill="midnightblue" stroke="midnightblue" points="354.52,-141.41 358.55,-131.61 349.29,-136.75 354.52,-141.41"/>
</g>
<!-- Node26&#45;&gt;Node14 -->
<g id="edge35" class="edge">
<title>Node26&#45;&gt;Node14</title>
<path fill="none" stroke="midnightblue" d="M518.98,-224.46C620.28,-204.56 871.77,-155.16 982.14,-133.48"/>
<polygon fill="midnightblue" stroke="midnightblue" points="982.91,-136.9 992.05,-131.53 981.56,-130.03 982.91,-136.9"/>
</g>
<!-- Node26&#45;&gt;Node19 -->
<g id="edge31" class="edge">
<title>Node26&#45;&gt;Node19</title>
<path fill="none" stroke="midnightblue" d="M428.23,-227.7C397.73,-222.16 358.79,-210.89 331.5,-188 286.5,-150.26 287.6,-86.97 337.5,-56 406.57,-13.14 620.75,-29.33 701.5,-20 711.88,-18.8 723.13,-17.37 733.44,-16"/>
<polygon fill="midnightblue" stroke="midnightblue" points="733.92,-19.46 743.37,-14.66 732.99,-12.53 733.92,-19.46"/>
</g>
<!-- Node27 -->
<g id="node27" class="node">
<title>Node27</title>
<g id="a_node27"><a xlink:title=" ">
<polygon fill="white" stroke="#bfbfbf" points="663,-112.5 663,-131.5 722,-131.5 722,-112.5 663,-112.5"/>
<text text-anchor="middle" x="692.5" y="-119.5" font-family="Helvetica,sans-Serif" font-size="10.00">functional</text>
</a>
</g>
</g>
<!-- Node26&#45;&gt;Node27 -->
<g id="edge30" class="edge">
<title>Node26&#45;&gt;Node27</title>
<path fill="none" stroke="midnightblue" d="M522.59,-227.69C573.74,-221.01 651.03,-207.93 672.5,-188 685.2,-176.21 689.91,-156.57 691.62,-141.96"/>
<polygon fill="midnightblue" stroke="midnightblue" points="695.14,-141.81 692.44,-131.57 688.16,-141.26 695.14,-141.81"/>
</g>
<!-- Node28 -->
<g id="node28" class="node">
<title>Node28</title>
<g id="a_node28"><a xlink:href="Release_8h.html" target="_top" xlink:title="Header file with classes responsible for releasing memory allocated by WSTP when receiving data.">
<polygon fill="white" stroke="black" points="549.5,-168.5 549.5,-187.5 663.5,-187.5 663.5,-168.5 549.5,-168.5"/>
<text text-anchor="middle" x="606.5" y="-175.5" font-family="Helvetica,sans-Serif" font-size="10.00">LLU/WSTP/Release.h</text>
</a>
</g>
</g>
<!-- Node26&#45;&gt;Node28 -->
<g id="edge36" class="edge">
<title>Node26&#45;&gt;Node28</title>
<path fill="none" stroke="midnightblue" d="M496.26,-224.44C517.82,-215.56 551.76,-201.56 576.29,-191.45"/>
<polygon fill="midnightblue" stroke="midnightblue" points="577.93,-194.56 585.84,-187.52 575.26,-188.09 577.93,-194.56"/>
</g>
<!-- Node26&#45;&gt;Node29 -->
<g id="edge40" class="edge">
<title>Node26&#45;&gt;Node29</title>
<path fill="none" stroke="midnightblue" d="M475.5,-224.08C475.5,-217.01 475.5,-206.86 475.5,-197.99"/>
<polygon fill="midnightblue" stroke="midnightblue" points="479,-197.75 475.5,-187.75 472,-197.75 479,-197.75"/>
</g>
<!-- Node28&#45;&gt;Node12 -->
<g id="edge38" class="edge">
<title>Node28&#45;&gt;Node12</title>
<path fill="none" stroke="midnightblue" d="M609.89,-168.08C619.85,-141.83 649.18,-64.55 662.62,-29.12"/>
<polygon fill="midnightblue" stroke="midnightblue" points="665.97,-30.16 666.25,-19.57 659.43,-27.68 665.97,-30.16"/>
</g>
<!-- Node28&#45;&gt;Node14 -->
<g id="edge39" class="edge">
<title>Node28&#45;&gt;Node14</title>
<path fill="none" stroke="midnightblue" d="M663.79,-170.95C735.42,-163.2 862.05,-148.9 980.74,-132.05"/>
<polygon fill="midnightblue" stroke="midnightblue" points="981.33,-135.5 990.74,-130.62 980.34,-128.57 981.33,-135.5"/>
</g>
<!-- Node28&#45;&gt;Node27 -->
<g id="edge37" class="edge">
<title>Node28&#45;&gt;Node27</title>
<path fill="none" stroke="midnightblue" d="M620.32,-168.32C633.73,-159.9 654.32,-146.97 670.09,-137.07"/>
<polygon fill="midnightblue" stroke="midnightblue" points="672.11,-139.94 678.72,-131.65 668.39,-134.01 672.11,-139.94"/>
</g>
<!-- Node29&#45;&gt;Node3 -->
<g id="edge42" class="edge">
<title>Node29&#45;&gt;Node3</title>
<path fill="none" stroke="midnightblue" d="M471.12,-168.26C464.19,-155.03 449.73,-129.6 432.5,-112 420.6,-99.85 404.99,-88.92 392.05,-80.87"/>
<polygon fill="midnightblue" stroke="midnightblue" points="393.57,-77.7 383.19,-75.55 389.96,-83.7 393.57,-77.7"/>
</g>
<!-- Node29&#45;&gt;Node12 -->
<g id="edge43" class="edge">
<title>Node29&#45;&gt;Node12</title>
<path fill="none" stroke="midnightblue" d="M487.47,-168.3C499.54,-159.43 518.62,-145.14 534.5,-132 578.29,-95.77 627.48,-50.44 652.66,-26.88"/>
<polygon fill="midnightblue" stroke="midnightblue" points="655.34,-29.17 660.23,-19.77 650.55,-24.06 655.34,-29.17"/>
</g>
<!-- Node29&#45;&gt;Node13 -->
<g id="edge44" class="edge">
<title>Node29&#45;&gt;Node13</title>
<path fill="none" stroke="midnightblue" d="M458.15,-168.32C440.83,-159.66 413.98,-146.24 394,-136.25"/>
<polygon fill="midnightblue" stroke="midnightblue" points="395.32,-133 384.81,-131.65 392.19,-139.26 395.32,-133"/>
</g>
<!-- Node30 -->
<g id="node30" class="node">
<title>Node30</title>
<g id="a_node30"><a xlink:title=" ">
<polygon fill="white" stroke="#bfbfbf" points="479.5,-112.5 479.5,-131.5 525.5,-131.5 525.5,-112.5 479.5,-112.5"/>
<text text-anchor="middle" x="502.5" y="-119.5" font-family="Helvetica,sans-Serif" font-size="10.00">cstring</text>
</a>
</g>
</g>
<!-- Node29&#45;&gt;Node30 -->
<g id="edge41" class="edge">
<title>Node29&#45;&gt;Node30</title>
<path fill="none" stroke="midnightblue" d="M479.96,-168.08C483.65,-160.69 489.02,-149.95 493.59,-140.81"/>
<polygon fill="midnightblue" stroke="midnightblue" points="496.78,-142.26 498.12,-131.75 490.52,-139.13 496.78,-142.26"/>
</g>
<!-- Node31 -->
<g id="node31" class="node">
<title>Node31</title>
<g id="a_node31"><a xlink:href="EncodingTraits_8hpp.html" target="_top" xlink:title="Defines possible encodings together with their properties and related types.">
<polygon fill="white" stroke="black" points="818.5,-112.5 818.5,-131.5 972.5,-131.5 972.5,-112.5 818.5,-112.5"/>
<text text-anchor="middle" x="895.5" y="-119.5" font-family="Helvetica,sans-Serif" font-size="10.00">LLU/WSTP/EncodingTraits.hpp</text>
</a>
</g>
</g>
<!-- Node29&#45;&gt;Node31 -->
<g id="edge45" class="edge">
<title>Node29&#45;&gt;Node31</title>
<path fill="none" stroke="midnightblue" d="M531.16,-169.25C534.32,-168.82 537.45,-168.4 540.5,-168 635.15,-155.45 744.11,-141.75 816.07,-132.8"/>
<polygon fill="midnightblue" stroke="midnightblue" points="816.93,-136.22 826.42,-131.52 816.06,-129.28 816.93,-136.22"/>
</g>
<!-- Node31&#45;&gt;Node3 -->
<g id="edge47" class="edge">
<title>Node31&#45;&gt;Node3</title>
<path fill="none" stroke="midnightblue" d="M818.44,-113.12C700.1,-101.02 478.84,-78.39 398.04,-70.12"/>
<polygon fill="midnightblue" stroke="midnightblue" points="398.34,-66.64 388.03,-69.1 397.62,-73.6 398.34,-66.64"/>
</g>
<!-- Node31&#45;&gt;Node9 -->
<g id="edge48" class="edge">
<title>Node31&#45;&gt;Node9</title>
<path fill="none" stroke="midnightblue" d="M972.71,-112.68C1043,-104.7 1149.52,-91.58 1241.5,-76 1241.97,-75.92 1242.44,-75.84 1242.92,-75.76"/>
<polygon fill="midnightblue" stroke="midnightblue" points="1243.89,-79.14 1253.08,-73.87 1242.61,-72.25 1243.89,-79.14"/>
</g>
<!-- Node31&#45;&gt;Node10 -->
<g id="edge49" class="edge">
<title>Node31&#45;&gt;Node10</title>
<path fill="none" stroke="midnightblue" d="M911.73,-112.32C927.85,-103.7 952.8,-90.36 971.46,-80.39"/>
<polygon fill="midnightblue" stroke="midnightblue" points="973.14,-83.46 980.31,-75.65 969.84,-77.28 973.14,-83.46"/>
</g>
<!-- Node31&#45;&gt;Node16 -->
<g id="edge46" class="edge">
<title>Node31&#45;&gt;Node16</title>
<path fill="none" stroke="midnightblue" d="M890.22,-112.08C885.79,-104.61 879.34,-93.72 873.88,-84.52"/>
<polygon fill="midnightblue" stroke="midnightblue" points="876.79,-82.57 868.69,-75.75 870.77,-86.14 876.79,-82.57"/>
</g>
<!-- Node32&#45;&gt;Node12 -->
<g id="edge52" class="edge">
<title>Node32&#45;&gt;Node12</title>
<path fill="none" stroke="midnightblue" d="M736.59,-224.25C738.82,-203.98 742.68,-152.47 730.5,-112 720.72,-79.49 698.03,-46.74 683.25,-27.68"/>
<polygon fill="midnightblue" stroke="midnightblue" points="685.87,-25.36 676.91,-19.72 680.4,-29.72 685.87,-25.36"/>
</g>
<!-- Node32&#45;&gt;Node13 -->
<g id="edge53" class="edge">
<title>Node32&#45;&gt;Node13</title>
<path fill="none" stroke="midnightblue" d="M689,-230.25C597.16,-224.37 399.47,-209.38 377.5,-188 365.37,-176.2 363.93,-156.27 364.87,-141.59"/>
<polygon fill="midnightblue" stroke="midnightblue" points="368.36,-141.91 365.92,-131.6 361.4,-141.18 368.36,-141.91"/>
</g>
<!-- Node32&#45;&gt;Node14 -->
<g id="edge54" class="edge">
<title>Node32&#45;&gt;Node14</title>
<path fill="none" stroke="midnightblue" d="M759.04,-224.37C812.16,-204.89 941.47,-157.48 1002.53,-135.09"/>
<polygon fill="midnightblue" stroke="midnightblue" points="1003.89,-138.32 1012.07,-131.59 1001.48,-131.75 1003.89,-138.32"/>
</g>
<!-- Node32&#45;&gt;Node27 -->
<g id="edge51" class="edge">
<title>Node32&#45;&gt;Node27</title>
<path fill="none" stroke="midnightblue" d="M732.13,-224.37C725.12,-206.46 708.89,-164.92 699.52,-140.95"/>
<polygon fill="midnightblue" stroke="midnightblue" points="702.76,-139.63 695.86,-131.59 696.24,-142.18 702.76,-139.63"/>
</g>
<!-- Node32&#45;&gt;Node29 -->
<g id="edge55" class="edge">
<title>Node32&#45;&gt;Node29</title>
<path fill="none" stroke="midnightblue" d="M694.3,-224.44C648.85,-215 575.66,-199.8 526.59,-189.61"/>
<polygon fill="midnightblue" stroke="midnightblue" points="527.01,-186.12 516.51,-187.52 525.58,-192.98 527.01,-186.12"/>
</g>
<!-- Node33&#45;&gt;Node5 -->
<g id="edge57" class="edge">
<title>Node33&#45;&gt;Node5</title>
<path fill="none" stroke="midnightblue" d="M891.74,-224.44C935.44,-214.4 1007.53,-197.84 1051.54,-187.72"/>
<polygon fill="midnightblue" stroke="midnightblue" points="1052.33,-191.13 1061.29,-185.48 1050.76,-184.31 1052.33,-191.13"/>
</g>
<!-- Node33&#45;&gt;Node12 -->
<g id="edge60" class="edge">
<title>Node33&#45;&gt;Node12</title>
<path fill="none" stroke="midnightblue" d="M849.15,-224.33C832.46,-197.64 779.14,-114.94 723.5,-56 713.16,-45.05 700.24,-34.19 689.62,-25.89"/>
<polygon fill="midnightblue" stroke="midnightblue" points="691.43,-22.87 681.36,-19.57 687.18,-28.43 691.43,-22.87"/>
</g>
<!-- Node33&#45;&gt;Node13 -->
<g id="edge61" class="edge">
<title>Node33&#45;&gt;Node13</title>
<path fill="none" stroke="midnightblue" d="M799.71,-225.13C796.59,-224.73 793.51,-224.35 790.5,-224 706.26,-214.09 483.24,-231.64 410.5,-188 392.78,-177.37 380.89,-156.28 374.19,-141"/>
<polygon fill="midnightblue" stroke="midnightblue" points="377.37,-139.51 370.37,-131.55 370.88,-142.13 377.37,-139.51"/>
</g>
<!-- Node33&#45;&gt;Node14 -->
<g id="edge62" class="edge">
<title>Node33&#45;&gt;Node14</title>
<path fill="none" stroke="midnightblue" d="M887.29,-224.48C911.78,-217.19 945.38,-205.12 971.5,-188 991.68,-174.77 1010.51,-154.26 1022.45,-139.83"/>
<polygon fill="midnightblue" stroke="midnightblue" points="1025.41,-141.73 1028.94,-131.74 1019.95,-137.35 1025.41,-141.73"/>
</g>
<!-- Node33&#45;&gt;Node19 -->
<g id="edge59" class="edge">
<title>Node33&#45;&gt;Node19</title>
<path fill="none" stroke="midnightblue" d="M890.07,-224.43C919.57,-216.71 962.22,-204.1 997.5,-188 1040.7,-168.28 1064.97,-173.25 1088.5,-132 1105.24,-102.66 1111.84,-81.34 1089.5,-56 1049.18,-10.27 883.1,-29.97 806.05,-19.79"/>
<polygon fill="midnightblue" stroke="midnightblue" points="806.22,-16.27 795.79,-18.14 805.11,-23.18 806.22,-16.27"/>
</g>
<!-- Node33&#45;&gt;Node27 -->
<g id="edge58" class="edge">
<title>Node33&#45;&gt;Node27</title>
<path fill="none" stroke="midnightblue" d="M841.79,-224.37C813.99,-205.49 747.56,-160.38 713.47,-137.24"/>
<polygon fill="midnightblue" stroke="midnightblue" points="715.39,-134.31 705.15,-131.59 711.46,-140.1 715.39,-134.31"/>
</g>
<!-- Node33&#45;&gt;Node29 -->
<g id="edge64" class="edge">
<title>Node33&#45;&gt;Node29</title>
<path fill="none" stroke="midnightblue" d="M799.79,-225.21C731.37,-215.46 614.32,-198.78 541.14,-188.35"/>
<polygon fill="midnightblue" stroke="midnightblue" points="541.51,-184.87 531.11,-186.92 540.52,-191.8 541.51,-184.87"/>
</g>
<!-- Node33&#45;&gt;Node31 -->
<g id="edge63" class="edge">
<title>Node33&#45;&gt;Node31</title>
<path fill="none" stroke="midnightblue" d="M866.04,-224.49C875.98,-216.38 889.62,-203.18 895.5,-188 901.23,-173.2 900.67,-155.05 898.99,-141.69"/>
<polygon fill="midnightblue" stroke="midnightblue" points="902.44,-141.11 897.44,-131.78 895.53,-142.2 902.44,-141.11"/>
</g>
<!-- Node34&#45;&gt;Node9 -->
<g id="edge67" class="edge">
<title>Node34&#45;&gt;Node9</title>
<path fill="none" stroke="midnightblue" d="M1290.95,-168.37C1289.82,-150.62 1287.22,-109.67 1285.68,-85.6"/>
<polygon fill="midnightblue" stroke="midnightblue" points="1289.17,-85.35 1285.05,-75.59 1282.19,-85.79 1289.17,-85.35"/>
</g>
<!-- Node34&#45;&gt;Node12 -->
<g id="edge68" class="edge">
<title>Node34&#45;&gt;Node12</title>
<path fill="none" stroke="midnightblue" d="M1298.55,-168.38C1315.53,-146.54 1355.09,-88.51 1324.5,-56 1279.5,-8.17 799.85,-26.51 734.5,-20 724.15,-18.97 712.92,-17.53 702.75,-16.1"/>
<polygon fill="midnightblue" stroke="midnightblue" points="703.01,-12.6 692.61,-14.64 702.01,-19.53 703.01,-12.6"/>
</g>
<!-- Node34&#45;&gt;Node14 -->
<g id="edge69" class="edge">
<title>Node34&#45;&gt;Node14</title>
<path fill="none" stroke="midnightblue" d="M1250.94,-168.44C1206.18,-159 1134.12,-143.8 1085.8,-133.61"/>
<polygon fill="midnightblue" stroke="midnightblue" points="1086.38,-130.16 1075.87,-131.52 1084.94,-137.01 1086.38,-130.16"/>
</g>
</g>
</svg>
        <g id="navigator" transform="translate(0 0)" fill="#404254">
                <rect fill="#f2f5e9" fill-opacity="0.5" stroke="#606060" stroke-width=".5" x="0" y="0" width="60" height="60"/>
                <use id="zoomplus" xlink:href="#zoomPlus" x="17" y="9" onmousedown="handleZoom(evt,'in')"/>
                <use id="zoomminus" xlink:href="#zoomMin" x="42" y="9" onmousedown="handleZoom(evt,'out')"/>
                <use id="reset" xlink:href="#resetDef" x="30" y="36" onmousedown="handleReset()"/>
                <g id="arrowUp" xlink:href="#dirArrow" transform="translate(30 24)" onmousedown="handlePan(0,-1)">
                  <use xlink:href="#rim" fill="#404040">
                        <set attributeName="fill" to="#808080" begin="arrowUp.mouseover" end="arrowUp.mouseout"/>
                  </use>
                  <path fill="none" stroke="white" stroke-width="1.5" d="M0,-3.0v7 M-2.5,-0.5L0,-3.0L2.5,-0.5"/>
                </g>
                <g id="arrowRight" xlink:href="#dirArrow" transform="rotate(90) translate(36 -43)" onmousedown="handlePan(1,0)">
                  <use xlink:href="#rim" fill="#404040">
                        <set attributeName="fill" to="#808080" begin="arrowRight.mouseover" end="arrowRight.mouseout"/>
                  </use>
                  <path fill="none" stroke="white" stroke-width="1.5" d="M0,-3.0v7 M-2.5,-0.5L0,-3.0L2.5,-0.5"/>
                </g>
                <g id="arrowDown" xlink:href="#dirArrow" transform="rotate(180) translate(-30 -48)" onmousedown="handlePan(0,1)">
                  <use xlink:href="#rim" fill="#404040">
                        <set attributeName="fill" to="#808080" begin="arrowDown.mouseover" end="arrowDown.mouseout"/>
                  </use>
                  <path fill="none" stroke="white" stroke-width="1.5" d="M0,-3.0v7 M-2.5,-0.5L0,-3.0L2.5,-0.5"/>
                </g>
                <g id="arrowLeft" xlink:href="#dirArrow" transform="rotate(270) translate(-36 17)" onmousedown="handlePan(-1,0)">
                  <use xlink:href="#rim" fill="#404040">
                        <set attributeName="fill" to="#808080" begin="arrowLeft.mouseover" end="arrowLeft.mouseout"/>
                  </use>
                  <path fill="none" stroke="white" stroke-width="1.5" d="M0,-3.0v7 M-2.5,-0.5L0,-3.0L2.5,-0.5"/>
                </g>
        </g>
        <svg viewBox="0 0 15 15" width="100%" height="30px" preserveAspectRatio="xMaxYMin meet">
         <g id="arrow_out" transform="scale(0.3 0.3)">
          <a xlink:href="LibraryLinkError_8h__incl_org.svg" target="_base">
           <rect id="button" ry="5" rx="5" y="6" x="6" height="38" width="38"
                fill="#f2f5e9" fill-opacity="0.5" stroke="#606060" stroke-width="1.0"/>
           <path id="arrow"
             d="M 11.500037,31.436501 C 11.940474,20.09759 22.043105,11.32322 32.158766,21.979434 L 37.068811,17.246167 C 37.068811,17.246167 37.088388,32 37.088388,32 L 22.160133,31.978069 C 22.160133,31.978069 26.997745,27.140456 26.997745,27.140456 C 18.528582,18.264221 13.291696,25.230495 11.500037,31.436501 z"
             style="fill:#404040;"/>
          </a>
         </g>
        </svg>
</svg>
