<?xml version="1.0" encoding="UTF-8" standalone="no"?>
<!DOCTYPE svg PUBLIC "-//W3C//DTD SVG 1.1//EN"
 "http://www.w3.org/Graphics/SVG/1.1/DTD/svg11.dtd">
<!-- Generated by graphviz version 2.43.0 (0)
 -->
<!-- Title: Logger.h Pages: 1 -->
<svg width="2147pt" height="364pt"
 viewBox="0.00 0.00 2147.00 364.00" xmlns="http://www.w3.org/2000/svg" xmlns:xlink="http://www.w3.org/1999/xlink">
<g id="graph0" class="graph" transform="scale(1 1) rotate(0) translate(4 360)">
<title>Logger.h</title>
<polygon fill="white" stroke="transparent" points="-4,4 -4,-360 2143,-360 2143,4 -4,4"/>
<!-- Node1 -->
<g id="node1" class="node">
<title>Node1</title>
<g id="a_node1"><a xlink:title="Define Logger namespace containing logging related declarations and convenience macros.">
<polygon fill="#bfbfbf" stroke="black" points="477,-336.5 477,-355.5 530,-355.5 530,-336.5 477,-336.5"/>
<text text-anchor="middle" x="503.5" y="-343.5" font-family="Helvetica,sans-Serif" font-size="10.00">Logger.h</text>
</a>
</g>
</g>
<!-- Node2 -->
<g id="node2" class="node">
<title>Node2</title>
<g id="a_node2"><a xlink:title=" ">
<polygon fill="white" stroke="#bfbfbf" points="0,-280.5 0,-299.5 73,-299.5 73,-280.5 0,-280.5"/>
<text text-anchor="middle" x="36.5" y="-287.5" font-family="Helvetica,sans-Serif" font-size="10.00">initializer_list</text>
</a>
</g>
</g>
<!-- Node1&#45;&gt;Node2 -->
<g id="edge1" class="edge">
<title>Node1&#45;&gt;Node2</title>
<path fill="none" stroke="midnightblue" d="M476.8,-342.96C411.51,-337.78 238.43,-323.04 83.3,-299.99"/>
<polygon fill="midnightblue" stroke="midnightblue" points="83.52,-296.48 73.11,-298.46 82.48,-303.41 83.52,-296.48"/>
</g>
<!-- Node3 -->
<g id="node3" class="node">
<title>Node3</title>
<g id="a_node3"><a xlink:title=" ">
<polygon fill="white" stroke="#bfbfbf" points="91.5,-280.5 91.5,-299.5 135.5,-299.5 135.5,-280.5 91.5,-280.5"/>
<text text-anchor="middle" x="113.5" y="-287.5" font-family="Helvetica,sans-Serif" font-size="10.00">mutex</text>
</a>
</g>
</g>
<!-- Node1&#45;&gt;Node3 -->
<g id="edge2" class="edge">
<title>Node1&#45;&gt;Node3</title>
<path fill="none" stroke="midnightblue" d="M476.69,-342.69C417.37,-337.33 270.67,-322.76 149.5,-300 148.25,-299.77 146.99,-299.51 145.71,-299.25"/>
<polygon fill="midnightblue" stroke="midnightblue" points="146.4,-295.82 135.88,-297.03 144.86,-302.65 146.4,-295.82"/>
</g>
<!-- Node4 -->
<g id="node4" class="node">
<title>Node4</title>
<g id="a_node4"><a xlink:title=" ">
<polygon fill="white" stroke="#bfbfbf" points="445,-56.5 445,-75.5 486,-75.5 486,-56.5 445,-56.5"/>
<text text-anchor="middle" x="465.5" y="-63.5" font-family="Helvetica,sans-Serif" font-size="10.00">string</text>
</a>
</g>
</g>
<!-- Node1&#45;&gt;Node4 -->
<g id="edge3" class="edge">
<title>Node1&#45;&gt;Node4</title>
<path fill="none" stroke="midnightblue" d="M476.82,-342.2C396.67,-333.04 163.5,-300.76 163.5,-235 163.5,-235 163.5,-235 163.5,-177 163.5,-119.71 357.8,-83.55 434.7,-71.49"/>
<polygon fill="midnightblue" stroke="midnightblue" points="435.39,-74.92 444.74,-69.94 434.33,-68 435.39,-74.92"/>
</g>
<!-- Node5 -->
<g id="node5" class="node">
<title>Node5</title>
<g id="a_node5"><a xlink:title=" ">
<polygon fill="white" stroke="#bfbfbf" points="836.5,-56.5 836.5,-75.5 876.5,-75.5 876.5,-56.5 836.5,-56.5"/>
<text text-anchor="middle" x="856.5" y="-63.5" font-family="Helvetica,sans-Serif" font-size="10.00">utility</text>
</a>
</g>
</g>
<!-- Node1&#45;&gt;Node5 -->
<g id="edge4" class="edge">
<title>Node1&#45;&gt;Node5</title>
<path fill="none" stroke="midnightblue" d="M530.28,-341.91C583.59,-334.45 704.08,-310.83 776.5,-244 824.36,-199.84 845.53,-121.59 853.05,-85.81"/>
<polygon fill="midnightblue" stroke="midnightblue" points="856.53,-86.27 855.03,-75.78 849.66,-84.91 856.53,-86.27"/>
</g>
<!-- Node6 -->
<g id="node6" class="node">
<title>Node6</title>
<g id="a_node6"><a xlink:href="LibraryData_8h.html" target="_top" xlink:title=" ">
<polygon fill="white" stroke="black" points="1456.5,-56.5 1456.5,-75.5 1552.5,-75.5 1552.5,-56.5 1456.5,-56.5"/>
<text text-anchor="middle" x="1504.5" y="-63.5" font-family="Helvetica,sans-Serif" font-size="10.00">LLU/LibraryData.h</text>
</a>
</g>
</g>
<!-- Node1&#45;&gt;Node6 -->
<g id="edge5" class="edge">
<title>Node1&#45;&gt;Node6</title>
<path fill="none" stroke="midnightblue" d="M530.25,-344.97C690.24,-344.47 1513.5,-336.92 1513.5,-235 1513.5,-235 1513.5,-235 1513.5,-177 1513.5,-144.84 1509.63,-107.57 1506.97,-85.71"/>
<polygon fill="midnightblue" stroke="midnightblue" points="1510.41,-85.02 1505.68,-75.54 1503.46,-85.9 1510.41,-85.02"/>
</g>
<!-- Node15 -->
<g id="node15" class="node">
<title>Node15</title>
<g id="a_node15"><a xlink:href="WSStream_8hpp.html" target="_top" xlink:title="Header file for WSStream class.">
<polygon fill="white" stroke="black" points="937,-280.5 937,-299.5 1074,-299.5 1074,-280.5 937,-280.5"/>
<text text-anchor="middle" x="1005.5" y="-287.5" font-family="Helvetica,sans-Serif" font-size="10.00">LLU/WSTP/WSStream.hpp</text>
</a>
</g>
</g>
<!-- Node1&#45;&gt;Node15 -->
<g id="edge14" class="edge">
<title>Node1&#45;&gt;Node15</title>
<path fill="none" stroke="midnightblue" d="M530.14,-342.13C603.63,-334.23 811.4,-311.88 926.43,-299.51"/>
<polygon fill="midnightblue" stroke="midnightblue" points="927.02,-302.96 936.58,-298.41 926.27,-296 927.02,-302.96"/>
</g>
<!-- Node7 -->
<g id="node7" class="node">
<title>Node7</title>
<g id="a_node7"><a xlink:title=" ">
<polygon fill="white" stroke="#bfbfbf" points="1299.5,-0.5 1299.5,-19.5 1351.5,-19.5 1351.5,-0.5 1299.5,-0.5"/>
<text text-anchor="middle" x="1325.5" y="-7.5" font-family="Helvetica,sans-Serif" font-size="10.00">memory</text>
</a>
</g>
</g>
<!-- Node6&#45;&gt;Node7 -->
<g id="edge6" class="edge">
<title>Node6&#45;&gt;Node7</title>
<path fill="none" stroke="midnightblue" d="M1476.14,-56.44C1445.14,-47.09 1395.39,-32.08 1361.62,-21.9"/>
<polygon fill="midnightblue" stroke="midnightblue" points="1362.28,-18.44 1351.69,-18.9 1360.26,-25.14 1362.28,-18.44"/>
</g>
<!-- Node8 -->
<g id="node8" class="node">
<title>Node8</title>
<g id="a_node8"><a xlink:title=" ">
<polygon fill="white" stroke="#bfbfbf" points="1369.5,-0.5 1369.5,-19.5 1431.5,-19.5 1431.5,-0.5 1369.5,-0.5"/>
<text text-anchor="middle" x="1400.5" y="-7.5" font-family="Helvetica,sans-Serif" font-size="10.00">dllexport.h</text>
</a>
</g>
</g>
<!-- Node6&#45;&gt;Node8 -->
<g id="edge7" class="edge">
<title>Node6&#45;&gt;Node8</title>
<path fill="none" stroke="midnightblue" d="M1487.79,-56.32C1471.19,-47.7 1445.5,-34.36 1426.28,-24.39"/>
<polygon fill="midnightblue" stroke="midnightblue" points="1427.66,-21.16 1417.17,-19.65 1424.43,-27.37 1427.66,-21.16"/>
</g>
<!-- Node9 -->
<g id="node9" class="node">
<title>Node9</title>
<g id="a_node9"><a xlink:title=" ">
<polygon fill="white" stroke="#bfbfbf" points="716.5,-0.5 716.5,-19.5 762.5,-19.5 762.5,-0.5 716.5,-0.5"/>
<text text-anchor="middle" x="739.5" y="-7.5" font-family="Helvetica,sans-Serif" font-size="10.00">wstp.h</text>
</a>
</g>
</g>
<!-- Node6&#45;&gt;Node9 -->
<g id="edge8" class="edge">
<title>Node6&#45;&gt;Node9</title>
<path fill="none" stroke="midnightblue" d="M1456.36,-61.6C1313.5,-51.52 894.39,-21.93 772.88,-13.36"/>
<polygon fill="midnightblue" stroke="midnightblue" points="772.93,-9.85 762.71,-12.64 772.43,-16.83 772.93,-9.85"/>
</g>
<!-- Node10 -->
<g id="node10" class="node">
<title>Node10</title>
<g id="a_node10"><a xlink:title=" ">
<polygon fill="white" stroke="#bfbfbf" points="1450,-0.5 1450,-19.5 1539,-19.5 1539,-0.5 1450,-0.5"/>
<text text-anchor="middle" x="1494.5" y="-7.5" font-family="Helvetica,sans-Serif" font-size="10.00">WolframLibrary.h</text>
</a>
</g>
</g>
<!-- Node6&#45;&gt;Node10 -->
<g id="edge9" class="edge">
<title>Node6&#45;&gt;Node10</title>
<path fill="none" stroke="midnightblue" d="M1502.85,-56.08C1501.52,-48.93 1499.62,-38.64 1497.96,-29.69"/>
<polygon fill="midnightblue" stroke="midnightblue" points="1501.38,-28.95 1496.12,-19.75 1494.5,-30.22 1501.38,-28.95"/>
</g>
<!-- Node11 -->
<g id="node11" class="node">
<title>Node11</title>
<g id="a_node11"><a xlink:title=" ">
<polygon fill="white" stroke="#bfbfbf" points="1557,-0.5 1557,-19.5 1700,-19.5 1700,-0.5 1557,-0.5"/>
<text text-anchor="middle" x="1628.5" y="-7.5" font-family="Helvetica,sans-Serif" font-size="10.00">WolframIOLibraryFunctions.h</text>
</a>
</g>
</g>
<!-- Node6&#45;&gt;Node11 -->
<g id="edge10" class="edge">
<title>Node6&#45;&gt;Node11</title>
<path fill="none" stroke="midnightblue" d="M1524.15,-56.44C1544.46,-47.6 1576.4,-33.69 1599.6,-23.59"/>
<polygon fill="midnightblue" stroke="midnightblue" points="1601.17,-26.72 1608.94,-19.52 1598.38,-20.3 1601.17,-26.72"/>
</g>
<!-- Node12 -->
<g id="node12" class="node">
<title>Node12</title>
<g id="a_node12"><a xlink:title=" ">
<polygon fill="white" stroke="#bfbfbf" points="1718.5,-0.5 1718.5,-19.5 1834.5,-19.5 1834.5,-0.5 1718.5,-0.5"/>
<text text-anchor="middle" x="1776.5" y="-7.5" font-family="Helvetica,sans-Serif" font-size="10.00">WolframImageLibrary.h</text>
</a>
</g>
</g>
<!-- Node6&#45;&gt;Node12 -->
<g id="edge11" class="edge">
<title>Node6&#45;&gt;Node12</title>
<path fill="none" stroke="midnightblue" d="M1547.6,-56.44C1595.35,-46.96 1672.36,-31.67 1723.69,-21.48"/>
<polygon fill="midnightblue" stroke="midnightblue" points="1724.48,-24.9 1733.6,-19.52 1723.11,-18.03 1724.48,-24.9"/>
</g>
<!-- Node13 -->
<g id="node13" class="node">
<title>Node13</title>
<g id="a_node13"><a xlink:title=" ">
<polygon fill="white" stroke="#bfbfbf" points="1853,-0.5 1853,-19.5 2002,-19.5 2002,-0.5 1853,-0.5"/>
<text text-anchor="middle" x="1927.5" y="-7.5" font-family="Helvetica,sans-Serif" font-size="10.00">WolframNumericArrayLibrary.h</text>
</a>
</g>
</g>
<!-- Node6&#45;&gt;Node13 -->
<g id="edge12" class="edge">
<title>Node6&#45;&gt;Node13</title>
<path fill="none" stroke="midnightblue" d="M1552.61,-58.86C1625.31,-49.58 1763.84,-31.89 1850.63,-20.81"/>
<polygon fill="midnightblue" stroke="midnightblue" points="1851.21,-24.27 1860.68,-19.53 1850.32,-17.32 1851.21,-24.27"/>
</g>
<!-- Node14 -->
<g id="node14" class="node">
<title>Node14</title>
<g id="a_node14"><a xlink:title=" ">
<polygon fill="white" stroke="#bfbfbf" points="2020,-0.5 2020,-19.5 2139,-19.5 2139,-0.5 2020,-0.5"/>
<text text-anchor="middle" x="2079.5" y="-7.5" font-family="Helvetica,sans-Serif" font-size="10.00">WolframSparseLibrary.h</text>
</a>
</g>
</g>
<!-- Node6&#45;&gt;Node14 -->
<g id="edge13" class="edge">
<title>Node6&#45;&gt;Node14</title>
<path fill="none" stroke="midnightblue" d="M1552.8,-61.41C1641.32,-54.68 1835.71,-39.19 2009.7,-20.16"/>
<polygon fill="midnightblue" stroke="midnightblue" points="2010.26,-23.62 2019.81,-19.05 2009.49,-16.66 2010.26,-23.62"/>
</g>
<!-- Node15&#45;&gt;Node5 -->
<g id="edge20" class="edge">
<title>Node15&#45;&gt;Node5</title>
<path fill="none" stroke="midnightblue" d="M967.94,-280.48C945.87,-273.79 918.8,-262.44 900.5,-244 862.47,-205.68 864.15,-184.92 853.5,-132 850.4,-116.58 851.56,-98.71 853.26,-85.61"/>
<polygon fill="midnightblue" stroke="midnightblue" points="856.75,-85.93 854.8,-75.51 849.83,-84.87 856.75,-85.93"/>
</g>
<!-- Node15&#45;&gt;Node9 -->
<g id="edge22" class="edge">
<title>Node15&#45;&gt;Node9</title>
<path fill="none" stroke="midnightblue" d="M936.81,-287.61C729.71,-282.51 125.5,-260.65 125.5,-179 125.5,-179 125.5,-179 125.5,-121 125.5,-30.91 229.51,-75.34 317.5,-56 459.87,-24.71 634.23,-14.91 706.1,-12.07"/>
<polygon fill="midnightblue" stroke="midnightblue" points="706.48,-15.56 716.34,-11.68 706.22,-8.56 706.48,-15.56"/>
</g>
<!-- Node16 -->
<g id="node16" class="node">
<title>Node16</title>
<g id="a_node16"><a xlink:title=" ">
<polygon fill="white" stroke="#bfbfbf" points="1391.5,-168.5 1391.5,-187.5 1447.5,-187.5 1447.5,-168.5 1391.5,-168.5"/>
<text text-anchor="middle" x="1419.5" y="-175.5" font-family="Helvetica,sans-Serif" font-size="10.00">algorithm</text>
</a>
</g>
</g>
<!-- Node15&#45;&gt;Node16 -->
<g id="edge15" class="edge">
<title>Node15&#45;&gt;Node16</title>
<path fill="none" stroke="midnightblue" d="M1074.16,-284.55C1158.92,-278.26 1297.6,-265.11 1344.5,-244 1369.42,-232.78 1392.26,-210.51 1406.02,-195.19"/>
<polygon fill="midnightblue" stroke="midnightblue" points="1408.77,-197.35 1412.69,-187.51 1403.49,-192.76 1408.77,-197.35"/>
</g>
<!-- Node17 -->
<g id="node17" class="node">
<title>Node17</title>
<g id="a_node17"><a xlink:title=" ">
<polygon fill="white" stroke="#bfbfbf" points="1114,-224.5 1114,-243.5 1161,-243.5 1161,-224.5 1114,-224.5"/>
<text text-anchor="middle" x="1137.5" y="-231.5" font-family="Helvetica,sans-Serif" font-size="10.00">iterator</text>
</a>
</g>
</g>
<!-- Node15&#45;&gt;Node17 -->
<g id="edge16" class="edge">
<title>Node15&#45;&gt;Node17</title>
<path fill="none" stroke="midnightblue" d="M1026.42,-280.44C1048.24,-271.52 1082.65,-257.44 1107.39,-247.32"/>
<polygon fill="midnightblue" stroke="midnightblue" points="1108.75,-250.54 1116.68,-243.52 1106.1,-244.06 1108.75,-250.54"/>
</g>
<!-- Node18 -->
<g id="node18" class="node">
<title>Node18</title>
<g id="a_node18"><a xlink:title=" ">
<polygon fill="white" stroke="#bfbfbf" points="1179,-224.5 1179,-243.5 1214,-243.5 1214,-224.5 1179,-224.5"/>
<text text-anchor="middle" x="1196.5" y="-231.5" font-family="Helvetica,sans-Serif" font-size="10.00">map</text>
</a>
</g>
</g>
<!-- Node15&#45;&gt;Node18 -->
<g id="edge17" class="edge">
<title>Node15&#45;&gt;Node18</title>
<path fill="none" stroke="midnightblue" d="M1038.63,-280.47C1069.85,-272.31 1118.14,-259.37 1168.97,-244.04"/>
<polygon fill="midnightblue" stroke="midnightblue" points="1170.27,-247.3 1178.82,-241.04 1168.24,-240.6 1170.27,-247.3"/>
</g>
<!-- Node19 -->
<g id="node19" class="node">
<title>Node19</title>
<g id="a_node19"><a xlink:title=" ">
<polygon fill="white" stroke="#bfbfbf" points="1232,-224.5 1232,-243.5 1273,-243.5 1273,-224.5 1232,-224.5"/>
<text text-anchor="middle" x="1252.5" y="-231.5" font-family="Helvetica,sans-Serif" font-size="10.00">stack</text>
</a>
</g>
</g>
<!-- Node15&#45;&gt;Node19 -->
<g id="edge18" class="edge">
<title>Node15&#45;&gt;Node19</title>
<path fill="none" stroke="midnightblue" d="M1052.76,-280.43C1094.74,-272.54 1157.96,-259.98 1222.04,-243.93"/>
<polygon fill="midnightblue" stroke="midnightblue" points="1223.07,-247.28 1231.91,-241.43 1221.36,-240.5 1223.07,-247.28"/>
</g>
<!-- Node20 -->
<g id="node20" class="node">
<title>Node20</title>
<g id="a_node20"><a xlink:title=" ">
<polygon fill="white" stroke="#bfbfbf" points="1186.5,-56.5 1186.5,-75.5 1248.5,-75.5 1248.5,-56.5 1186.5,-56.5"/>
<text text-anchor="middle" x="1217.5" y="-63.5" font-family="Helvetica,sans-Serif" font-size="10.00">type_traits</text>
</a>
</g>
</g>
<!-- Node15&#45;&gt;Node20 -->
<g id="edge19" class="edge">
<title>Node15&#45;&gt;Node20</title>
<path fill="none" stroke="midnightblue" d="M1074.15,-284.46C1165.09,-277.78 1320.22,-263.91 1373.5,-244 1415.18,-228.42 1435.61,-227.29 1456.5,-188 1499.12,-107.83 1337.73,-79.56 1258.71,-70.66"/>
<polygon fill="midnightblue" stroke="midnightblue" points="1258.91,-67.17 1248.59,-69.58 1258.16,-74.13 1258.91,-67.17"/>
</g>
<!-- Node21 -->
<g id="node21" class="node">
<title>Node21</title>
<g id="a_node21"><a xlink:title=" ">
<polygon fill="white" stroke="#bfbfbf" points="1291.5,-224.5 1291.5,-243.5 1335.5,-243.5 1335.5,-224.5 1291.5,-224.5"/>
<text text-anchor="middle" x="1313.5" y="-231.5" font-family="Helvetica,sans-Serif" font-size="10.00">vector</text>
</a>
</g>
</g>
<!-- Node15&#45;&gt;Node21 -->
<g id="edge21" class="edge">
<title>Node15&#45;&gt;Node21</title>
<path fill="none" stroke="midnightblue" d="M1070.58,-280.5C1124.46,-272.98 1203.15,-260.89 1281.19,-243.83"/>
<polygon fill="midnightblue" stroke="midnightblue" points="1282.19,-247.2 1291.2,-241.62 1280.68,-240.36 1282.19,-247.2"/>
</g>
<!-- Node22 -->
<g id="node22" class="node">
<title>Node22</title>
<g id="a_node22"><a xlink:href="Errors_8h.html" target="_top" xlink:title="Definitions of error names and error codes used across LLU.">
<polygon fill="white" stroke="black" points="273.5,-112.5 273.5,-131.5 385.5,-131.5 385.5,-112.5 273.5,-112.5"/>
<text text-anchor="middle" x="329.5" y="-119.5" font-family="Helvetica,sans-Serif" font-size="10.00">LLU/ErrorLog/Errors.h</text>
</a>
</g>
</g>
<!-- Node15&#45;&gt;Node22 -->
<g id="edge23" class="edge">
<title>Node15&#45;&gt;Node22</title>
<path fill="none" stroke="midnightblue" d="M936.82,-289.52C830.16,-288.99 618.85,-282.55 444.5,-244 374.61,-228.55 334.38,-246.76 293.5,-188 282.31,-171.92 297.07,-152.04 310.92,-138.53"/>
<polygon fill="midnightblue" stroke="midnightblue" points="313.33,-141.07 318.36,-131.75 308.61,-135.9 313.33,-141.07"/>
</g>
<!-- Node23 -->
<g id="node23" class="node">
<title>Node23</title>
<g id="a_node23"><a xlink:href="Utilities_8hpp.html" target="_top" xlink:title="Short but generally useful functions.">
<polygon fill="white" stroke="black" points="1073,-112.5 1073,-131.5 1162,-131.5 1162,-112.5 1073,-112.5"/>
<text text-anchor="middle" x="1117.5" y="-119.5" font-family="Helvetica,sans-Serif" font-size="10.00">LLU/Utilities.hpp</text>
</a>
</g>
</g>
<!-- Node15&#45;&gt;Node23 -->
<g id="edge25" class="edge">
<title>Node15&#45;&gt;Node23</title>
<path fill="none" stroke="midnightblue" d="M1011.45,-280.38C1023.45,-262.98 1051.4,-222.37 1074.5,-188 1085.31,-171.92 1097.49,-153.48 1106.11,-140.36"/>
<polygon fill="midnightblue" stroke="midnightblue" points="1109.14,-142.14 1111.7,-131.86 1103.28,-138.3 1109.14,-142.14"/>
</g>
<!-- Node27 -->
<g id="node27" class="node">
<title>Node27</title>
<g id="a_node27"><a xlink:href="Get_8h.html" target="_top" xlink:title="Header file with classes related to reading data from WSTP.">
<polygon fill="white" stroke="black" points="673.5,-224.5 673.5,-243.5 767.5,-243.5 767.5,-224.5 673.5,-224.5"/>
<text text-anchor="middle" x="720.5" y="-231.5" font-family="Helvetica,sans-Serif" font-size="10.00">LLU/WSTP/Get.h</text>
</a>
</g>
</g>
<!-- Node15&#45;&gt;Node27 -->
<g id="edge32" class="edge">
<title>Node15&#45;&gt;Node27</title>
<path fill="none" stroke="midnightblue" d="M960.34,-280.44C910.21,-270.94 829.28,-255.61 775.49,-245.42"/>
<polygon fill="midnightblue" stroke="midnightblue" points="775.92,-241.94 765.45,-243.52 774.62,-248.82 775.92,-241.94"/>
</g>
<!-- Node30 -->
<g id="node30" class="node">
<title>Node30</title>
<g id="a_node30"><a xlink:href="WSTP_2Utilities_8h.html" target="_top" xlink:title="Header file with miscellaneous utilities used throughout the WSTP&#45;related part of LibraryLinkUtilitie...">
<polygon fill="white" stroke="black" points="382,-168.5 382,-187.5 493,-187.5 493,-168.5 382,-168.5"/>
<text text-anchor="middle" x="437.5" y="-175.5" font-family="Helvetica,sans-Serif" font-size="10.00">LLU/WSTP/Utilities.h</text>
</a>
</g>
</g>
<!-- Node15&#45;&gt;Node30 -->
<g id="edge68" class="edge">
<title>Node15&#45;&gt;Node30</title>
<path fill="none" stroke="midnightblue" d="M936.79,-287.29C799.41,-283.3 500.75,-271.54 463.5,-244 449.01,-233.29 442.59,-213.19 439.74,-198.17"/>
<polygon fill="midnightblue" stroke="midnightblue" points="443.15,-197.27 438.19,-187.91 436.22,-198.32 443.15,-197.27"/>
</g>
<!-- Node33 -->
<g id="node33" class="node">
<title>Node33</title>
<g id="a_node33"><a xlink:href="Put_8h.html" target="_top" xlink:title="Header file with classes related to sending data through WSTP.">
<polygon fill="white" stroke="black" points="473,-224.5 473,-243.5 566,-243.5 566,-224.5 473,-224.5"/>
<text text-anchor="middle" x="519.5" y="-231.5" font-family="Helvetica,sans-Serif" font-size="10.00">LLU/WSTP/Put.h</text>
</a>
</g>
</g>
<!-- Node15&#45;&gt;Node33 -->
<g id="edge53" class="edge">
<title>Node15&#45;&gt;Node33</title>
<path fill="none" stroke="midnightblue" d="M936.9,-281.38C840.28,-270.64 665.91,-251.27 576.2,-241.3"/>
<polygon fill="midnightblue" stroke="midnightblue" points="576.54,-237.82 566.22,-240.19 575.77,-244.77 576.54,-237.82"/>
</g>
<!-- Node34 -->
<g id="node34" class="node">
<title>Node34</title>
<g id="a_node34"><a xlink:href="Strings_8h.html" target="_top" xlink:title="Definitions of multiple structures and type aliases related to string handling in WSTP.">
<polygon fill="white" stroke="black" points="910,-224.5 910,-243.5 1019,-243.5 1019,-224.5 910,-224.5"/>
<text text-anchor="middle" x="964.5" y="-231.5" font-family="Helvetica,sans-Serif" font-size="10.00">LLU/WSTP/Strings.h</text>
</a>
</g>
</g>
<!-- Node15&#45;&gt;Node34 -->
<g id="edge59" class="edge">
<title>Node15&#45;&gt;Node34</title>
<path fill="none" stroke="midnightblue" d="M998.73,-280.08C992.94,-272.46 984.44,-261.26 977.36,-251.94"/>
<polygon fill="midnightblue" stroke="midnightblue" points="979.98,-249.6 971.14,-243.75 974.4,-253.83 979.98,-249.6"/>
</g>
<!-- Node35 -->
<g id="node35" class="node">
<title>Node35</title>
<g id="a_node35"><a xlink:href="UtilityTypeTraits_8hpp.html" target="_top" xlink:title="Type traits used by WSStream to identify types supported by WSTP.">
<polygon fill="white" stroke="black" points="1137.5,-168.5 1137.5,-187.5 1297.5,-187.5 1297.5,-168.5 1137.5,-168.5"/>
<text text-anchor="middle" x="1217.5" y="-175.5" font-family="Helvetica,sans-Serif" font-size="10.00">LLU/WSTP/UtilityTypeTraits.hpp</text>
</a>
</g>
</g>
<!-- Node15&#45;&gt;Node35 -->
<g id="edge69" class="edge">
<title>Node15&#45;&gt;Node35</title>
<path fill="none" stroke="midnightblue" d="M1016.92,-280.4C1034.88,-267.12 1071.12,-241.37 1104.5,-224 1129.63,-210.92 1159.45,-199.19 1182.15,-190.99"/>
<polygon fill="midnightblue" stroke="midnightblue" points="1183.47,-194.23 1191.72,-187.59 1181.12,-187.64 1183.47,-194.23"/>
</g>
<!-- Node22&#45;&gt;Node4 -->
<g id="edge24" class="edge">
<title>Node22&#45;&gt;Node4</title>
<path fill="none" stroke="midnightblue" d="M351.05,-112.44C373.8,-103.41 409.82,-89.11 435.38,-78.96"/>
<polygon fill="midnightblue" stroke="midnightblue" points="436.94,-82.11 444.94,-75.16 434.36,-75.6 436.94,-82.11"/>
</g>
<!-- Node23&#45;&gt;Node5 -->
<g id="edge29" class="edge">
<title>Node23&#45;&gt;Node5</title>
<path fill="none" stroke="midnightblue" d="M1076.14,-112.44C1023.36,-101.52 933.3,-82.89 886.59,-73.23"/>
<polygon fill="midnightblue" stroke="midnightblue" points="887.27,-69.79 876.77,-71.19 885.86,-76.65 887.27,-69.79"/>
</g>
<!-- Node23&#45;&gt;Node6 -->
<g id="edge31" class="edge">
<title>Node23&#45;&gt;Node6</title>
<path fill="none" stroke="midnightblue" d="M1162.27,-114.75C1232.44,-104.96 1368.31,-86 1446.09,-75.15"/>
<polygon fill="midnightblue" stroke="midnightblue" points="1446.78,-78.59 1456.2,-73.74 1445.81,-71.66 1446.78,-78.59"/>
</g>
<!-- Node23&#45;&gt;Node20 -->
<g id="edge28" class="edge">
<title>Node23&#45;&gt;Node20</title>
<path fill="none" stroke="midnightblue" d="M1133.57,-112.32C1149.46,-103.74 1174.01,-90.49 1192.46,-80.52"/>
<polygon fill="midnightblue" stroke="midnightblue" points="1194.34,-83.49 1201.47,-75.65 1191.01,-77.33 1194.34,-83.49"/>
</g>
<!-- Node24 -->
<g id="node24" class="node">
<title>Node24</title>
<g id="a_node24"><a xlink:title=" ">
<polygon fill="white" stroke="#bfbfbf" points="1115,-56.5 1115,-75.5 1168,-75.5 1168,-56.5 1115,-56.5"/>
<text text-anchor="middle" x="1141.5" y="-63.5" font-family="Helvetica,sans-Serif" font-size="10.00">complex</text>
</a>
</g>
</g>
<!-- Node23&#45;&gt;Node24 -->
<g id="edge26" class="edge">
<title>Node23&#45;&gt;Node24</title>
<path fill="none" stroke="midnightblue" d="M1121.46,-112.08C1124.71,-104.77 1129.42,-94.18 1133.45,-85.1"/>
<polygon fill="midnightblue" stroke="midnightblue" points="1136.75,-86.31 1137.61,-75.75 1130.35,-83.47 1136.75,-86.31"/>
</g>
<!-- Node25 -->
<g id="node25" class="node">
<title>Node25</title>
<g id="a_node25"><a xlink:title=" ">
<polygon fill="white" stroke="#bfbfbf" points="932.5,-56.5 932.5,-75.5 978.5,-75.5 978.5,-56.5 932.5,-56.5"/>
<text text-anchor="middle" x="955.5" y="-63.5" font-family="Helvetica,sans-Serif" font-size="10.00">cstdint</text>
</a>
</g>
</g>
<!-- Node23&#45;&gt;Node25 -->
<g id="edge27" class="edge">
<title>Node23&#45;&gt;Node25</title>
<path fill="none" stroke="midnightblue" d="M1091.83,-112.44C1063.86,-103.12 1019.01,-88.17 988.46,-77.99"/>
<polygon fill="midnightblue" stroke="midnightblue" points="989.28,-74.57 978.69,-74.73 987.07,-81.21 989.28,-74.57"/>
</g>
<!-- Node26 -->
<g id="node26" class="node">
<title>Node26</title>
<g id="a_node26"><a xlink:title=" ">
<polygon fill="white" stroke="#bfbfbf" points="1050.5,-56.5 1050.5,-75.5 1096.5,-75.5 1096.5,-56.5 1050.5,-56.5"/>
<text text-anchor="middle" x="1073.5" y="-63.5" font-family="Helvetica,sans-Serif" font-size="10.00">variant</text>
</a>
</g>
</g>
<!-- Node23&#45;&gt;Node26 -->
<g id="edge30" class="edge">
<title>Node23&#45;&gt;Node26</title>
<path fill="none" stroke="midnightblue" d="M1110.23,-112.08C1103.96,-104.38 1094.71,-93.03 1087.07,-83.65"/>
<polygon fill="midnightblue" stroke="midnightblue" points="1089.66,-81.29 1080.63,-75.75 1084.23,-85.71 1089.66,-81.29"/>
</g>
<!-- Node27&#45;&gt;Node4 -->
<g id="edge35" class="edge">
<title>Node27&#45;&gt;Node4</title>
<path fill="none" stroke="midnightblue" d="M691.43,-224.4C668.76,-216.89 637.09,-204.58 612.5,-188 573.16,-161.46 574.54,-141.67 537.5,-112 522.78,-100.21 504.78,-88.96 490.47,-80.66"/>
<polygon fill="midnightblue" stroke="midnightblue" points="492.08,-77.55 481.66,-75.65 488.62,-83.64 492.08,-77.55"/>
</g>
<!-- Node27&#45;&gt;Node7 -->
<g id="edge34" class="edge">
<title>Node27&#45;&gt;Node7</title>
<path fill="none" stroke="midnightblue" d="M767.56,-230.19C905.01,-221.86 1296.84,-197.37 1306.5,-188 1349.53,-146.25 1338.26,-66.13 1330.27,-29.77"/>
<polygon fill="midnightblue" stroke="midnightblue" points="1333.57,-28.53 1327.86,-19.61 1326.76,-30.14 1333.57,-28.53"/>
</g>
<!-- Node27&#45;&gt;Node9 -->
<g id="edge36" class="edge">
<title>Node27&#45;&gt;Node9</title>
<path fill="none" stroke="midnightblue" d="M742.96,-224.38C758.27,-217.18 777.36,-205.29 786.5,-188 790.65,-180.14 787.79,-176.8 786.5,-168 778.93,-116.33 758.05,-58.04 746.84,-29.19"/>
<polygon fill="midnightblue" stroke="midnightblue" points="750,-27.66 743.07,-19.65 743.49,-30.24 750,-27.66"/>
</g>
<!-- Node27&#45;&gt;Node22 -->
<g id="edge37" class="edge">
<title>Node27&#45;&gt;Node22</title>
<path fill="none" stroke="midnightblue" d="M673.27,-228.95C573.91,-220.21 351.39,-199.48 339.5,-188 327.33,-176.25 325.9,-156.31 326.85,-141.61"/>
<polygon fill="midnightblue" stroke="midnightblue" points="330.34,-141.93 327.91,-131.61 323.38,-141.19 330.34,-141.93"/>
</g>
<!-- Node27&#45;&gt;Node23 -->
<g id="edge38" class="edge">
<title>Node27&#45;&gt;Node23</title>
<path fill="none" stroke="midnightblue" d="M767.67,-231.22C826.05,-227.78 927.76,-217.66 1009.5,-188 1027.26,-181.56 1070.18,-154.24 1096.25,-137.14"/>
<polygon fill="midnightblue" stroke="midnightblue" points="1098.28,-139.99 1104.7,-131.56 1094.43,-134.15 1098.28,-139.99"/>
</g>
<!-- Node28 -->
<g id="node28" class="node">
<title>Node28</title>
<g id="a_node28"><a xlink:title=" ">
<polygon fill="white" stroke="#bfbfbf" points="597,-112.5 597,-131.5 656,-131.5 656,-112.5 597,-112.5"/>
<text text-anchor="middle" x="626.5" y="-119.5" font-family="Helvetica,sans-Serif" font-size="10.00">functional</text>
</a>
</g>
</g>
<!-- Node27&#45;&gt;Node28 -->
<g id="edge33" class="edge">
<title>Node27&#45;&gt;Node28</title>
<path fill="none" stroke="midnightblue" d="M676.49,-224.44C656.1,-218.03 633.71,-206.97 621.5,-188 612.7,-174.33 615.35,-155.55 619.37,-141.68"/>
<polygon fill="midnightblue" stroke="midnightblue" points="622.82,-142.41 622.69,-131.81 616.18,-140.17 622.82,-142.41"/>
</g>
<!-- Node29 -->
<g id="node29" class="node">
<title>Node29</title>
<g id="a_node29"><a xlink:href="Release_8h.html" target="_top" xlink:title="Header file with classes responsible for releasing memory allocated by WSTP when receiving data.">
<polygon fill="white" stroke="black" points="663.5,-168.5 663.5,-187.5 777.5,-187.5 777.5,-168.5 663.5,-168.5"/>
<text text-anchor="middle" x="720.5" y="-175.5" font-family="Helvetica,sans-Serif" font-size="10.00">LLU/WSTP/Release.h</text>
</a>
</g>
</g>
<!-- Node27&#45;&gt;Node29 -->
<g id="edge39" class="edge">
<title>Node27&#45;&gt;Node29</title>
<path fill="none" stroke="midnightblue" d="M720.5,-224.08C720.5,-217.01 720.5,-206.86 720.5,-197.99"/>
<polygon fill="midnightblue" stroke="midnightblue" points="724,-197.75 720.5,-187.75 717,-197.75 724,-197.75"/>
</g>
<!-- Node27&#45;&gt;Node30 -->
<g id="edge43" class="edge">
<title>Node27&#45;&gt;Node30</title>
<path fill="none" stroke="midnightblue" d="M675.66,-224.44C625.88,-214.94 545.52,-199.61 492.11,-189.42"/>
<polygon fill="midnightblue" stroke="midnightblue" points="492.61,-185.95 482.13,-187.52 491.3,-192.83 492.61,-185.95"/>
</g>
<!-- Node29&#45;&gt;Node9 -->
<g id="edge41" class="edge">
<title>Node29&#45;&gt;Node9</title>
<path fill="none" stroke="midnightblue" d="M721.52,-168.08C724.51,-141.95 733.3,-65.21 737.37,-29.58"/>
<polygon fill="midnightblue" stroke="midnightblue" points="740.86,-29.9 738.52,-19.57 733.9,-29.11 740.86,-29.9"/>
</g>
<!-- Node29&#45;&gt;Node23 -->
<g id="edge42" class="edge">
<title>Node29&#45;&gt;Node23</title>
<path fill="none" stroke="midnightblue" d="M777.8,-169.21C853.99,-158.84 987.72,-140.65 1062.65,-130.46"/>
<polygon fill="midnightblue" stroke="midnightblue" points="1063.38,-133.89 1072.82,-129.08 1062.44,-126.96 1063.38,-133.89"/>
</g>
<!-- Node29&#45;&gt;Node28 -->
<g id="edge40" class="edge">
<title>Node29&#45;&gt;Node28</title>
<path fill="none" stroke="midnightblue" d="M705.4,-168.32C690.6,-159.82 667.81,-146.73 650.52,-136.8"/>
<polygon fill="midnightblue" stroke="midnightblue" points="651.98,-133.6 641.57,-131.65 648.49,-139.67 651.98,-133.6"/>
</g>
<!-- Node30&#45;&gt;Node4 -->
<g id="edge45" class="edge">
<title>Node30&#45;&gt;Node4</title>
<path fill="none" stroke="midnightblue" d="M439.7,-168.37C444.22,-150.62 454.64,-109.67 460.77,-85.6"/>
<polygon fill="midnightblue" stroke="midnightblue" points="464.24,-86.15 463.31,-75.59 457.45,-84.42 464.24,-86.15"/>
</g>
<!-- Node30&#45;&gt;Node9 -->
<g id="edge46" class="edge">
<title>Node30&#45;&gt;Node9</title>
<path fill="none" stroke="midnightblue" d="M433.94,-168.39C425.57,-146.58 407.36,-88.61 435.5,-56 470.14,-15.85 634.3,-10.92 705.93,-10.72"/>
<polygon fill="midnightblue" stroke="midnightblue" points="706.2,-14.22 716.21,-10.73 706.21,-7.22 706.2,-14.22"/>
</g>
<!-- Node30&#45;&gt;Node22 -->
<g id="edge47" class="edge">
<title>Node30&#45;&gt;Node22</title>
<path fill="none" stroke="midnightblue" d="M420.15,-168.32C402.83,-159.66 375.98,-146.24 356,-136.25"/>
<polygon fill="midnightblue" stroke="midnightblue" points="357.32,-133 346.81,-131.65 354.19,-139.26 357.32,-133"/>
</g>
<!-- Node31 -->
<g id="node31" class="node">
<title>Node31</title>
<g id="a_node31"><a xlink:title=" ">
<polygon fill="white" stroke="#bfbfbf" points="482.5,-112.5 482.5,-131.5 528.5,-131.5 528.5,-112.5 482.5,-112.5"/>
<text text-anchor="middle" x="505.5" y="-119.5" font-family="Helvetica,sans-Serif" font-size="10.00">cstring</text>
</a>
</g>
</g>
<!-- Node30&#45;&gt;Node31 -->
<g id="edge44" class="edge">
<title>Node30&#45;&gt;Node31</title>
<path fill="none" stroke="midnightblue" d="M448.43,-168.32C458.67,-160.18 474.22,-147.84 486.5,-138.09"/>
<polygon fill="midnightblue" stroke="midnightblue" points="488.72,-140.79 494.38,-131.83 484.37,-135.31 488.72,-140.79"/>
</g>
<!-- Node32 -->
<g id="node32" class="node">
<title>Node32</title>
<g id="a_node32"><a xlink:href="EncodingTraits_8hpp.html" target="_top" xlink:title="Defines possible encodings together with their properties and related types.">
<polygon fill="white" stroke="black" points="862.5,-112.5 862.5,-131.5 1016.5,-131.5 1016.5,-112.5 862.5,-112.5"/>
<text text-anchor="middle" x="939.5" y="-119.5" font-family="Helvetica,sans-Serif" font-size="10.00">LLU/WSTP/EncodingTraits.hpp</text>
</a>
</g>
</g>
<!-- Node30&#45;&gt;Node32 -->
<g id="edge48" class="edge">
<title>Node30&#45;&gt;Node32</title>
<path fill="none" stroke="midnightblue" d="M493.14,-171.01C580.1,-161.66 748.94,-143.5 852.21,-132.39"/>
<polygon fill="midnightblue" stroke="midnightblue" points="852.73,-135.85 862.3,-131.3 851.98,-128.89 852.73,-135.85"/>
</g>
<!-- Node32&#45;&gt;Node4 -->
<g id="edge50" class="edge">
<title>Node32&#45;&gt;Node4</title>
<path fill="none" stroke="midnightblue" d="M864.65,-112.47C758.73,-100.41 569.78,-78.88 496.11,-70.49"/>
<polygon fill="midnightblue" stroke="midnightblue" points="496.43,-67 486.09,-69.35 495.63,-73.96 496.43,-67"/>
</g>
<!-- Node32&#45;&gt;Node5 -->
<g id="edge52" class="edge">
<title>Node32&#45;&gt;Node5</title>
<path fill="none" stroke="midnightblue" d="M926.16,-112.32C913.34,-103.98 893.72,-91.21 878.56,-81.35"/>
<polygon fill="midnightblue" stroke="midnightblue" points="880.09,-78.17 869.8,-75.65 876.28,-84.04 880.09,-78.17"/>
</g>
<!-- Node32&#45;&gt;Node20 -->
<g id="edge51" class="edge">
<title>Node32&#45;&gt;Node20</title>
<path fill="none" stroke="midnightblue" d="M986.79,-112.43C1032.53,-104.05 1104.07,-90.7 1176.03,-76.05"/>
<polygon fill="midnightblue" stroke="midnightblue" points="1177.08,-79.4 1186.18,-73.97 1175.68,-72.55 1177.08,-79.4"/>
</g>
<!-- Node32&#45;&gt;Node25 -->
<g id="edge49" class="edge">
<title>Node32&#45;&gt;Node25</title>
<path fill="none" stroke="midnightblue" d="M942.14,-112.08C944.29,-104.85 947.38,-94.41 950.05,-85.4"/>
<polygon fill="midnightblue" stroke="midnightblue" points="953.42,-86.33 952.91,-75.75 946.71,-84.34 953.42,-86.33"/>
</g>
<!-- Node33&#45;&gt;Node9 -->
<g id="edge55" class="edge">
<title>Node33&#45;&gt;Node9</title>
<path fill="none" stroke="midnightblue" d="M472.86,-228.49C415.19,-222.11 321.24,-208.86 293.5,-188 264.6,-166.27 243.67,-141.55 264.5,-112 315.88,-39.12 606.69,-17.72 706.15,-12.49"/>
<polygon fill="midnightblue" stroke="midnightblue" points="706.43,-15.98 716.24,-11.98 706.07,-8.99 706.43,-15.98"/>
</g>
<!-- Node33&#45;&gt;Node22 -->
<g id="edge56" class="edge">
<title>Node33&#45;&gt;Node22</title>
<path fill="none" stroke="midnightblue" d="M472.77,-230.09C415.28,-225.42 322.67,-213.99 301.5,-188 289.69,-173.51 301.81,-153.28 313.58,-139.26"/>
<polygon fill="midnightblue" stroke="midnightblue" points="316.2,-141.58 320.29,-131.81 311,-136.9 316.2,-141.58"/>
</g>
<!-- Node33&#45;&gt;Node23 -->
<g id="edge57" class="edge">
<title>Node33&#45;&gt;Node23</title>
<path fill="none" stroke="midnightblue" d="M566.35,-225.5C619.72,-216.86 709.5,-202.05 786.5,-188 885.62,-169.92 1001.01,-146.78 1066.03,-133.55"/>
<polygon fill="midnightblue" stroke="midnightblue" points="1066.93,-136.94 1076.03,-131.52 1065.53,-130.08 1066.93,-136.94"/>
</g>
<!-- Node33&#45;&gt;Node28 -->
<g id="edge54" class="edge">
<title>Node33&#45;&gt;Node28</title>
<path fill="none" stroke="midnightblue" d="M527.9,-224.37C545.79,-205.97 587.91,-162.67 610.89,-139.05"/>
<polygon fill="midnightblue" stroke="midnightblue" points="613.68,-141.2 618.14,-131.59 608.66,-136.32 613.68,-141.2"/>
</g>
<!-- Node33&#45;&gt;Node30 -->
<g id="edge58" class="edge">
<title>Node33&#45;&gt;Node30</title>
<path fill="none" stroke="midnightblue" d="M506.33,-224.32C493.65,-215.98 474.27,-203.21 459.29,-193.35"/>
<polygon fill="midnightblue" stroke="midnightblue" points="460.92,-190.23 450.64,-187.65 457.07,-196.08 460.92,-190.23"/>
</g>
<!-- Node34&#45;&gt;Node7 -->
<g id="edge62" class="edge">
<title>Node34&#45;&gt;Node7</title>
<path fill="none" stroke="midnightblue" d="M1019.15,-228.35C1120.65,-219.45 1328.99,-199.85 1339.5,-188 1379.34,-143.09 1350.45,-64.06 1334.36,-28.82"/>
<polygon fill="midnightblue" stroke="midnightblue" points="1337.5,-27.27 1330.04,-19.74 1331.17,-30.28 1337.5,-27.27"/>
</g>
<!-- Node34&#45;&gt;Node9 -->
<g id="edge63" class="edge">
<title>Node34&#45;&gt;Node9</title>
<path fill="none" stroke="midnightblue" d="M972.05,-224.32C985.91,-207.76 1014.95,-169.89 1025.5,-132 1035.63,-95.62 1019.15,-76.6 987.5,-56 952.54,-33.25 832.13,-19.43 772.91,-13.85"/>
<polygon fill="midnightblue" stroke="midnightblue" points="772.88,-10.34 762.6,-12.91 772.24,-17.31 772.88,-10.34"/>
</g>
<!-- Node34&#45;&gt;Node16 -->
<g id="edge60" class="edge">
<title>Node34&#45;&gt;Node16</title>
<path fill="none" stroke="midnightblue" d="M1019.19,-228.84C1098.48,-222.4 1249.86,-208.57 1377.5,-188 1378.74,-187.8 1380,-187.59 1381.28,-187.36"/>
<polygon fill="midnightblue" stroke="midnightblue" points="1381.94,-190.8 1391.11,-185.5 1380.63,-183.92 1381.94,-190.8"/>
</g>
<!-- Node34&#45;&gt;Node22 -->
<g id="edge64" class="edge">
<title>Node34&#45;&gt;Node22</title>
<path fill="none" stroke="midnightblue" d="M909.75,-230.14C767.47,-222.54 395.47,-201.49 372.5,-188 354.68,-177.53 342.82,-156.41 336.15,-141.08"/>
<polygon fill="midnightblue" stroke="midnightblue" points="339.31,-139.58 332.35,-131.6 332.81,-142.18 339.31,-139.58"/>
</g>
<!-- Node34&#45;&gt;Node23 -->
<g id="edge65" class="edge">
<title>Node34&#45;&gt;Node23</title>
<path fill="none" stroke="midnightblue" d="M983.43,-224.43C1000.79,-216.19 1026.86,-202.82 1047.5,-188 1068,-173.29 1088.85,-153.1 1102.41,-139.15"/>
<polygon fill="midnightblue" stroke="midnightblue" points="1105.1,-141.39 1109.48,-131.74 1100.04,-136.56 1105.1,-141.39"/>
</g>
<!-- Node34&#45;&gt;Node28 -->
<g id="edge61" class="edge">
<title>Node34&#45;&gt;Node28</title>
<path fill="none" stroke="midnightblue" d="M909.68,-231.36C831.59,-227.99 693.45,-217.86 654.5,-188 640.05,-176.92 632.94,-156.88 629.52,-141.97"/>
<polygon fill="midnightblue" stroke="midnightblue" points="632.89,-140.96 627.57,-131.8 626.02,-142.28 632.89,-140.96"/>
</g>
<!-- Node34&#45;&gt;Node30 -->
<g id="edge67" class="edge">
<title>Node34&#45;&gt;Node30</title>
<path fill="none" stroke="midnightblue" d="M909.59,-227.37C811.88,-217.36 608.22,-196.49 503.23,-185.74"/>
<polygon fill="midnightblue" stroke="midnightblue" points="503.38,-182.23 493.08,-184.69 502.67,-189.2 503.38,-182.23"/>
</g>
<!-- Node34&#45;&gt;Node32 -->
<g id="edge66" class="edge">
<title>Node34&#45;&gt;Node32</title>
<path fill="none" stroke="midnightblue" d="M959.29,-224.4C954.25,-215.6 946.9,-201.37 943.5,-188 939.62,-172.75 938.78,-154.86 938.82,-141.71"/>
<polygon fill="midnightblue" stroke="midnightblue" points="942.32,-141.64 939.02,-131.57 935.32,-141.5 942.32,-141.64"/>
</g>
<!-- Node35&#45;&gt;Node9 -->
<g id="edge71" class="edge">
<title>Node35&#45;&gt;Node9</title>
<path fill="none" stroke="midnightblue" d="M1225.28,-168.49C1244.06,-146.91 1288.15,-89.43 1257.5,-56 1224.73,-20.26 882.12,-12.82 772.82,-11.34"/>
<polygon fill="midnightblue" stroke="midnightblue" points="772.74,-7.84 762.69,-11.22 772.65,-14.84 772.74,-7.84"/>
</g>
<!-- Node35&#45;&gt;Node20 -->
<g id="edge70" class="edge">
<title>Node35&#45;&gt;Node20</title>
<path fill="none" stroke="midnightblue" d="M1217.5,-168.37C1217.5,-150.62 1217.5,-109.67 1217.5,-85.6"/>
<polygon fill="midnightblue" stroke="midnightblue" points="1221,-85.59 1217.5,-75.59 1214,-85.59 1221,-85.59"/>
</g>
<!-- Node35&#45;&gt;Node23 -->
<g id="edge72" class="edge">
<title>Node35&#45;&gt;Node23</title>
<path fill="none" stroke="midnightblue" d="M1201.43,-168.32C1185.54,-159.74 1160.99,-146.49 1142.54,-136.52"/>
<polygon fill="midnightblue" stroke="midnightblue" points="1143.99,-133.33 1133.53,-131.65 1140.66,-139.49 1143.99,-133.33"/>
</g>
</g>
</svg>
