<?xml version="1.0" encoding="UTF-8" standalone="no"?>
<!DOCTYPE svg PUBLIC "-//W3C//DTD SVG 1.1//EN"
 "http://www.w3.org/Graphics/SVG/1.1/DTD/svg11.dtd">
<!-- Generated by graphviz version 2.43.0 (0)
 -->
<!-- Title: ManagedExpression.hpp Pages: 1 -->
<svg width="913pt" height="196pt"
 viewBox="0.00 0.00 912.50 196.00" xmlns="http://www.w3.org/2000/svg" xmlns:xlink="http://www.w3.org/1999/xlink">
<g id="graph0" class="graph" transform="scale(1 1) rotate(0) translate(4 192)">
<title>ManagedExpression.hpp</title>
<polygon fill="white" stroke="transparent" points="-4,4 -4,-192 908.5,-192 908.5,4 -4,4"/>
<!-- Node1 -->
<g id="node1" class="node">
<title>Node1</title>
<g id="a_node1"><a xlink:title="Definition of the ManagedExpressionStore class template which provides C++ API for the Managed Expres...">
<polygon fill="#bfbfbf" stroke="black" points="453,-168.5 453,-187.5 577,-187.5 577,-168.5 453,-168.5"/>
<text text-anchor="middle" x="515" y="-175.5" font-family="Helvetica,sans-Serif" font-size="10.00">ManagedExpression.hpp</text>
</a>
</g>
</g>
<!-- Node2 -->
<g id="node2" class="node">
<title>Node2</title>
<g id="a_node2"><a xlink:title=" ">
<polygon fill="white" stroke="#bfbfbf" points="0,-0.5 0,-19.5 52,-19.5 52,-0.5 0,-0.5"/>
<text text-anchor="middle" x="26" y="-7.5" font-family="Helvetica,sans-Serif" font-size="10.00">memory</text>
</a>
</g>
</g>
<!-- Node1&#45;&gt;Node2 -->
<g id="edge1" class="edge">
<title>Node1&#45;&gt;Node2</title>
<path fill="none" stroke="midnightblue" d="M489.74,-168.42C408.5,-140.85 153.87,-54.41 60.64,-22.76"/>
<polygon fill="midnightblue" stroke="midnightblue" points="61.7,-19.42 51.11,-19.52 59.45,-26.05 61.7,-19.42"/>
</g>
<!-- Node3 -->
<g id="node3" class="node">
<title>Node3</title>
<g id="a_node3"><a xlink:title=" ">
<polygon fill="white" stroke="#bfbfbf" points="650.5,-112.5 650.5,-131.5 733.5,-131.5 733.5,-112.5 650.5,-112.5"/>
<text text-anchor="middle" x="692" y="-119.5" font-family="Helvetica,sans-Serif" font-size="10.00">unordered_map</text>
</a>
</g>
</g>
<!-- Node1&#45;&gt;Node3 -->
<g id="edge2" class="edge">
<title>Node1&#45;&gt;Node3</title>
<path fill="none" stroke="midnightblue" d="M543.05,-168.44C573.08,-159.28 620.91,-144.69 654.24,-134.52"/>
<polygon fill="midnightblue" stroke="midnightblue" points="655.54,-137.78 664.09,-131.52 653.5,-131.09 655.54,-137.78"/>
</g>
<!-- Node4 -->
<g id="node4" class="node">
<title>Node4</title>
<g id="a_node4"><a xlink:title=" ">
<polygon fill="white" stroke="#bfbfbf" points="507,-56.5 507,-75.5 547,-75.5 547,-56.5 507,-56.5"/>
<text text-anchor="middle" x="527" y="-63.5" font-family="Helvetica,sans-Serif" font-size="10.00">utility</text>
</a>
</g>
</g>
<!-- Node1&#45;&gt;Node4 -->
<g id="edge3" class="edge">
<title>Node1&#45;&gt;Node4</title>
<path fill="none" stroke="midnightblue" d="M515.94,-168.37C517.88,-150.62 522.35,-109.67 524.97,-85.6"/>
<polygon fill="midnightblue" stroke="midnightblue" points="528.46,-85.91 526.06,-75.59 521.5,-85.15 528.46,-85.91"/>
</g>
<!-- Node5 -->
<g id="node5" class="node">
<title>Node5</title>
<g id="a_node5"><a xlink:href="LibraryData_8h.html" target="_top" xlink:title=" ">
<polygon fill="white" stroke="black" points="393,-56.5 393,-75.5 489,-75.5 489,-56.5 393,-56.5"/>
<text text-anchor="middle" x="441" y="-63.5" font-family="Helvetica,sans-Serif" font-size="10.00">LLU/LibraryData.h</text>
</a>
</g>
</g>
<!-- Node1&#45;&gt;Node5 -->
<g id="edge4" class="edge">
<title>Node1&#45;&gt;Node5</title>
<path fill="none" stroke="midnightblue" d="M509.19,-168.37C496.98,-150.22 468.45,-107.8 452.43,-83.99"/>
<polygon fill="midnightblue" stroke="midnightblue" points="455.27,-81.94 446.78,-75.59 449.46,-85.84 455.27,-81.94"/>
</g>
<!-- Node13 -->
<g id="node13" class="node">
<title>Node13</title>
<g id="a_node13"><a xlink:href="Utilities_8hpp.html" target="_top" xlink:title="Short but generally useful functions.">
<polygon fill="white" stroke="black" points="543.5,-112.5 543.5,-131.5 632.5,-131.5 632.5,-112.5 543.5,-112.5"/>
<text text-anchor="middle" x="588" y="-119.5" font-family="Helvetica,sans-Serif" font-size="10.00">LLU/Utilities.hpp</text>
</a>
</g>
</g>
<!-- Node1&#45;&gt;Node13 -->
<g id="edge13" class="edge">
<title>Node1&#45;&gt;Node13</title>
<path fill="none" stroke="midnightblue" d="M526.73,-168.32C537.84,-160.11 554.74,-147.6 567.98,-137.81"/>
<polygon fill="midnightblue" stroke="midnightblue" points="570.1,-140.59 576.06,-131.83 565.94,-134.97 570.1,-140.59"/>
</g>
<!-- Node5&#45;&gt;Node2 -->
<g id="edge5" class="edge">
<title>Node5&#45;&gt;Node2</title>
<path fill="none" stroke="midnightblue" d="M393,-61.39C322.51,-55.63 186.76,-42.82 62.37,-20.04"/>
<polygon fill="midnightblue" stroke="midnightblue" points="62.76,-16.55 52.29,-18.16 61.48,-23.43 62.76,-16.55"/>
</g>
<!-- Node6 -->
<g id="node6" class="node">
<title>Node6</title>
<g id="a_node6"><a xlink:title=" ">
<polygon fill="white" stroke="#bfbfbf" points="671,-0.5 671,-19.5 733,-19.5 733,-0.5 671,-0.5"/>
<text text-anchor="middle" x="702" y="-7.5" font-family="Helvetica,sans-Serif" font-size="10.00">dllexport.h</text>
</a>
</g>
</g>
<!-- Node5&#45;&gt;Node6 -->
<g id="edge6" class="edge">
<title>Node5&#45;&gt;Node6</title>
<path fill="none" stroke="midnightblue" d="M484.25,-56.47C526.75,-48.02 593.71,-34.55 660.69,-20.25"/>
<polygon fill="midnightblue" stroke="midnightblue" points="661.52,-23.65 670.57,-18.14 660.06,-16.81 661.52,-23.65"/>
</g>
<!-- Node7 -->
<g id="node7" class="node">
<title>Node7</title>
<g id="a_node7"><a xlink:title=" ">
<polygon fill="white" stroke="#bfbfbf" points="751,-0.5 751,-19.5 797,-19.5 797,-0.5 751,-0.5"/>
<text text-anchor="middle" x="774" y="-7.5" font-family="Helvetica,sans-Serif" font-size="10.00">wstp.h</text>
</a>
</g>
</g>
<!-- Node5&#45;&gt;Node7 -->
<g id="edge7" class="edge">
<title>Node5&#45;&gt;Node7</title>
<path fill="none" stroke="midnightblue" d="M489.2,-57.35C492.18,-56.89 495.13,-56.44 498,-56 603.19,-39.94 633.06,-42.7 740.7,-20.06"/>
<polygon fill="midnightblue" stroke="midnightblue" points="741.62,-23.44 750.67,-17.93 740.16,-16.59 741.62,-23.44"/>
</g>
<!-- Node8 -->
<g id="node8" class="node">
<title>Node8</title>
<g id="a_node8"><a xlink:title=" ">
<polygon fill="white" stroke="#bfbfbf" points="815.5,-0.5 815.5,-19.5 904.5,-19.5 904.5,-0.5 815.5,-0.5"/>
<text text-anchor="middle" x="860" y="-7.5" font-family="Helvetica,sans-Serif" font-size="10.00">WolframLibrary.h</text>
</a>
</g>
</g>
<!-- Node5&#45;&gt;Node8 -->
<g id="edge8" class="edge">
<title>Node5&#45;&gt;Node8</title>
<path fill="none" stroke="midnightblue" d="M489.18,-57.25C492.16,-56.82 495.12,-56.4 498,-56 631.34,-37.69 667.85,-39.25 805.17,-20.05"/>
<polygon fill="midnightblue" stroke="midnightblue" points="805.82,-23.49 815.24,-18.63 804.85,-16.56 805.82,-23.49"/>
</g>
<!-- Node9 -->
<g id="node9" class="node">
<title>Node9</title>
<g id="a_node9"><a xlink:title=" ">
<polygon fill="white" stroke="#bfbfbf" points="70.5,-0.5 70.5,-19.5 213.5,-19.5 213.5,-0.5 70.5,-0.5"/>
<text text-anchor="middle" x="142" y="-7.5" font-family="Helvetica,sans-Serif" font-size="10.00">WolframIOLibraryFunctions.h</text>
</a>
</g>
</g>
<!-- Node5&#45;&gt;Node9 -->
<g id="edge9" class="edge">
<title>Node5&#45;&gt;Node9</title>
<path fill="none" stroke="midnightblue" d="M393.62,-56.44C340.92,-46.92 255.77,-31.55 199.34,-21.36"/>
<polygon fill="midnightblue" stroke="midnightblue" points="199.62,-17.85 189.16,-19.52 198.37,-24.74 199.62,-17.85"/>
</g>
<!-- Node10 -->
<g id="node10" class="node">
<title>Node10</title>
<g id="a_node10"><a xlink:title=" ">
<polygon fill="white" stroke="#bfbfbf" points="232,-0.5 232,-19.5 348,-19.5 348,-0.5 232,-0.5"/>
<text text-anchor="middle" x="290" y="-7.5" font-family="Helvetica,sans-Serif" font-size="10.00">WolframImageLibrary.h</text>
</a>
</g>
</g>
<!-- Node5&#45;&gt;Node10 -->
<g id="edge10" class="edge">
<title>Node5&#45;&gt;Node10</title>
<path fill="none" stroke="midnightblue" d="M417.07,-56.44C391.78,-47.4 351.7,-33.06 323.32,-22.92"/>
<polygon fill="midnightblue" stroke="midnightblue" points="324.41,-19.59 313.81,-19.52 322.05,-26.18 324.41,-19.59"/>
</g>
<!-- Node11 -->
<g id="node11" class="node">
<title>Node11</title>
<g id="a_node11"><a xlink:title=" ">
<polygon fill="white" stroke="#bfbfbf" points="366.5,-0.5 366.5,-19.5 515.5,-19.5 515.5,-0.5 366.5,-0.5"/>
<text text-anchor="middle" x="441" y="-7.5" font-family="Helvetica,sans-Serif" font-size="10.00">WolframNumericArrayLibrary.h</text>
</a>
</g>
</g>
<!-- Node5&#45;&gt;Node11 -->
<g id="edge11" class="edge">
<title>Node5&#45;&gt;Node11</title>
<path fill="none" stroke="midnightblue" d="M441,-56.08C441,-49.01 441,-38.86 441,-29.99"/>
<polygon fill="midnightblue" stroke="midnightblue" points="444.5,-29.75 441,-19.75 437.5,-29.75 444.5,-29.75"/>
</g>
<!-- Node12 -->
<g id="node12" class="node">
<title>Node12</title>
<g id="a_node12"><a xlink:title=" ">
<polygon fill="white" stroke="#bfbfbf" points="533.5,-0.5 533.5,-19.5 652.5,-19.5 652.5,-0.5 533.5,-0.5"/>
<text text-anchor="middle" x="593" y="-7.5" font-family="Helvetica,sans-Serif" font-size="10.00">WolframSparseLibrary.h</text>
</a>
</g>
</g>
<!-- Node5&#45;&gt;Node12 -->
<g id="edge12" class="edge">
<title>Node5&#45;&gt;Node12</title>
<path fill="none" stroke="midnightblue" d="M465.08,-56.44C490.54,-47.4 530.89,-33.06 559.46,-22.92"/>
<polygon fill="midnightblue" stroke="midnightblue" points="560.78,-26.16 569.03,-19.52 558.43,-19.57 560.78,-26.16"/>
</g>
<!-- Node13&#45;&gt;Node4 -->
<g id="edge17" class="edge">
<title>Node13&#45;&gt;Node4</title>
<path fill="none" stroke="midnightblue" d="M578.2,-112.32C569.18,-104.34 555.59,-92.31 544.68,-82.65"/>
<polygon fill="midnightblue" stroke="midnightblue" points="546.79,-79.84 536.98,-75.83 542.15,-85.08 546.79,-79.84"/>
</g>
<!-- Node13&#45;&gt;Node5 -->
<g id="edge19" class="edge">
<title>Node13&#45;&gt;Node5</title>
<path fill="none" stroke="midnightblue" d="M564.71,-112.44C540.19,-103.44 501.4,-89.19 473.8,-79.05"/>
<polygon fill="midnightblue" stroke="midnightblue" points="474.78,-75.68 464.18,-75.52 472.36,-82.25 474.78,-75.68"/>
</g>
<!-- Node14 -->
<g id="node14" class="node">
<title>Node14</title>
<g id="a_node14"><a xlink:title=" ">
<polygon fill="white" stroke="#bfbfbf" points="773.5,-56.5 773.5,-75.5 826.5,-75.5 826.5,-56.5 773.5,-56.5"/>
<text text-anchor="middle" x="800" y="-63.5" font-family="Helvetica,sans-Serif" font-size="10.00">complex</text>
</a>
</g>
</g>
<!-- Node13&#45;&gt;Node14 -->
<g id="edge14" class="edge">
<title>Node13&#45;&gt;Node14</title>
<path fill="none" stroke="midnightblue" d="M621.59,-112.44C660.26,-102.59 723.55,-86.47 763.43,-76.32"/>
<polygon fill="midnightblue" stroke="midnightblue" points="764.45,-79.67 773.28,-73.81 762.72,-72.88 764.45,-79.67"/>
</g>
<!-- Node15 -->
<g id="node15" class="node">
<title>Node15</title>
<g id="a_node15"><a xlink:title=" ">
<polygon fill="white" stroke="#bfbfbf" points="565,-56.5 565,-75.5 611,-75.5 611,-56.5 565,-56.5"/>
<text text-anchor="middle" x="588" y="-63.5" font-family="Helvetica,sans-Serif" font-size="10.00">cstdint</text>
</a>
</g>
</g>
<!-- Node13&#45;&gt;Node15 -->
<g id="edge15" class="edge">
<title>Node13&#45;&gt;Node15</title>
<path fill="none" stroke="midnightblue" d="M588,-112.08C588,-105.01 588,-94.86 588,-85.99"/>
<polygon fill="midnightblue" stroke="midnightblue" points="591.5,-85.75 588,-75.75 584.5,-85.75 591.5,-85.75"/>
</g>
<!-- Node16 -->
<g id="node16" class="node">
<title>Node16</title>
<g id="a_node16"><a xlink:title=" ">
<polygon fill="white" stroke="#bfbfbf" points="629,-56.5 629,-75.5 691,-75.5 691,-56.5 629,-56.5"/>
<text text-anchor="middle" x="660" y="-63.5" font-family="Helvetica,sans-Serif" font-size="10.00">type_traits</text>
</a>
</g>
</g>
<!-- Node13&#45;&gt;Node16 -->
<g id="edge16" class="edge">
<title>Node13&#45;&gt;Node16</title>
<path fill="none" stroke="midnightblue" d="M599.57,-112.32C610.42,-104.18 626.88,-91.84 639.88,-82.09"/>
<polygon fill="midnightblue" stroke="midnightblue" points="642.32,-84.63 648.22,-75.83 638.12,-79.03 642.32,-84.63"/>
</g>
<!-- Node17 -->
<g id="node17" class="node">
<title>Node17</title>
<g id="a_node17"><a xlink:title=" ">
<polygon fill="white" stroke="#bfbfbf" points="709,-56.5 709,-75.5 755,-75.5 755,-56.5 709,-56.5"/>
<text text-anchor="middle" x="732" y="-63.5" font-family="Helvetica,sans-Serif" font-size="10.00">variant</text>
</a>
</g>
</g>
<!-- Node13&#45;&gt;Node17 -->
<g id="edge18" class="edge">
<title>Node13&#45;&gt;Node17</title>
<path fill="none" stroke="midnightblue" d="M610.82,-112.44C634.83,-103.44 672.83,-89.19 699.87,-79.05"/>
<polygon fill="midnightblue" stroke="midnightblue" points="701.16,-82.3 709.29,-75.52 698.7,-75.75 701.16,-82.3"/>
</g>
</g>
</svg>
