<?xml version="1.0" encoding="UTF-8" standalone="no"?>
<!DOCTYPE svg PUBLIC "-//W3C//DTD SVG 1.1//EN"
 "http://www.w3.org/Graphics/SVG/1.1/DTD/svg11.dtd">
<!-- Generated by graphviz version 2.43.0 (0)
 -->
<!-- Title: MArgument.h Pages: 1 -->
<!--zoomable 644 -->
<svg id="main" version="1.1" xmlns="http://www.w3.org/2000/svg" xmlns:xlink="http://www.w3.org/1999/xlink" xml:space="preserve" onload="init(evt)">
<style type="text/css"><![CDATA[
.edge:hover path { stroke: red; }
.edge:hover polygon { stroke: red; fill: red; }
]]></style>
<script type="text/javascript"><![CDATA[
var edges = document.getElementsByTagName('g');
if (edges && edges.length) {
  for (var i=0;i<edges.length;i++) {
    if (edges[i].id.substr(0,4)=='edge') {
      edges[i].setAttribute('class','edge');
    }
  }
}
]]></script>
        <defs>
                <circle id="rim" cx="0" cy="0" r="7"/>
                <circle id="rim2" cx="0" cy="0" r="3.5"/>
                <g id="zoomPlus">
                        <use xlink:href="#rim" fill="#404040">
                                <set attributeName="fill" to="#808080" begin="zoomplus.mouseover" end="zoomplus.mouseout"/>
                        </use>
                        <path d="M-4,0h8M0,-4v8" fill="none" stroke="white" stroke-width="1.5" pointer-events="none"/>
                </g>
                <g id="zoomMin">
                        <use xlink:href="#rim" fill="#404040">
                                <set attributeName="fill" to="#808080" begin="zoomminus.mouseover" end="zoomminus.mouseout"/>
                        </use>
                        <path d="M-4,0h8" fill="none" stroke="white" stroke-width="1.5" pointer-events="none"/>
                </g>
                <g id="dirArrow">
                        <path fill="none" stroke="white" stroke-width="1.5" d="M0,-3.0v7 M-2.5,-0.5L0,-3.0L2.5,-0.5"/>
                </g>
               <g id="resetDef">
                       <use xlink:href="#rim2" fill="#404040">
                               <set attributeName="fill" to="#808080" begin="reset.mouseover" end="reset.mouseout"/>
                       </use>
               </g>
        </defs>

<script type="text/javascript">
var viewWidth = 1096;
var viewHeight = 644;
var sectionId = 'dynsection-1';
</script>
<script xlink:href="svgpan.js"/>
<svg id="graph" class="graph">
<g id="viewport">
<title>MArgument.h</title>
<polygon fill="white" stroke="transparent" points="-4,4 -4,-640 1092,-640 1092,4 -4,4"/>
<!-- Node1 -->
<g id="node1" class="node">
<title>Node1</title>
<g id="a_node1"><a xlink:title="Template class and utilities to work with MArgument in type&#45;safe manner.">
<polygon fill="#bfbfbf" stroke="black" points="826.5,-616.5 826.5,-635.5 901.5,-635.5 901.5,-616.5 826.5,-616.5"/>
<text text-anchor="middle" x="864" y="-623.5" font-family="Helvetica,sans-Serif" font-size="10.00">MArgument.h</text>
</a>
</g>
</g>
<!-- Node2 -->
<g id="node2" class="node">
<title>Node2</title>
<g id="a_node2"><a xlink:href="DataList_8h.html" target="_top" xlink:title="Definition of templated DataStore wrapper called DataList.">
<polygon fill="white" stroke="black" points="589,-112.5 589,-131.5 651,-131.5 651,-112.5 589,-112.5"/>
<text text-anchor="middle" x="620" y="-119.5" font-family="Helvetica,sans-Serif" font-size="10.00">DataList.h</text>
</a>
</g>
</g>
<!-- Node1&#45;&gt;Node2 -->
<g id="edge1" class="edge">
<title>Node1&#45;&gt;Node2</title>
<path fill="none" stroke="midnightblue" d="M878.79,-608.7C895.68,-588.34 921,-551.7 921,-515 921,-515 921,-515 921,-345 921,-243.59 862.06,-223.22 777,-168 738,-142.68 684.53,-131.33 651.14,-126.45"/>
<polygon fill="midnightblue" stroke="midnightblue" points="876.05,-606.52 872.17,-616.38 881.35,-611.1 876.05,-606.52"/>
</g>
<!-- Node4 -->
<g id="node4" class="node">
<title>Node4</title>
<g id="a_node4"><a xlink:href="MArgumentManager_8h.html" target="_top" xlink:title="Definition of MArgumentManager class.">
<polygon fill="white" stroke="black" points="707,-56.5 707,-75.5 819,-75.5 819,-56.5 707,-56.5"/>
<text text-anchor="middle" x="763" y="-63.5" font-family="Helvetica,sans-Serif" font-size="10.00">MArgumentManager.h</text>
</a>
</g>
</g>
<!-- Node1&#45;&gt;Node4 -->
<g id="edge64" class="edge">
<title>Node1&#45;&gt;Node4</title>
<path fill="none" stroke="midnightblue" d="M888.25,-611.09C916.39,-592.91 959,-558.26 959,-515 959,-515 959,-515 959,-177 959,-112.42 877.08,-85.37 819.17,-74.31"/>
<polygon fill="midnightblue" stroke="midnightblue" points="886.34,-608.15 879.69,-616.4 890.03,-614.1 886.34,-608.15"/>
</g>
<!-- Node8 -->
<g id="node8" class="node">
<title>Node8</title>
<g id="a_node8"><a xlink:href="Base_8hpp.html" target="_top" xlink:title="Definitions of MContainerBase and MContainer class templates.">
<polygon fill="white" stroke="black" points="549,-560.5 549,-579.5 607,-579.5 607,-560.5 549,-560.5"/>
<text text-anchor="middle" x="578" y="-567.5" font-family="Helvetica,sans-Serif" font-size="10.00">Base.hpp</text>
</a>
</g>
</g>
<!-- Node1&#45;&gt;Node8 -->
<g id="edge8" class="edge">
<title>Node1&#45;&gt;Node8</title>
<path fill="none" stroke="midnightblue" d="M816.39,-616.01C756.74,-604.75 656.39,-585.8 607.1,-576.49"/>
<polygon fill="midnightblue" stroke="midnightblue" points="815.84,-619.47 826.32,-617.88 817.14,-612.59 815.84,-619.47"/>
</g>
<!-- Node9 -->
<g id="node9" class="node">
<title>Node9</title>
<g id="a_node9"><a xlink:href="Generic_2DataStore_8hpp.html" target="_top" xlink:title="Definition and implementation of generic DataStore wrapper.">
<polygon fill="white" stroke="black" points="709,-280.5 709,-299.5 789,-299.5 789,-280.5 709,-280.5"/>
<text text-anchor="middle" x="749" y="-287.5" font-family="Helvetica,sans-Serif" font-size="10.00">DataStore.hpp</text>
</a>
</g>
</g>
<!-- Node1&#45;&gt;Node9 -->
<g id="edge61" class="edge">
<title>Node1&#45;&gt;Node9</title>
<path fill="none" stroke="midnightblue" d="M869.22,-606.39C874.84,-584.65 883,-547.51 883,-515 883,-515 883,-515 883,-457 883,-381.63 798.33,-321.19 763.6,-299.57"/>
<polygon fill="midnightblue" stroke="midnightblue" points="865.78,-605.68 866.56,-616.25 872.54,-607.5 865.78,-605.68"/>
</g>
<!-- Node11 -->
<g id="node11" class="node">
<title>Node11</title>
<g id="a_node11"><a xlink:href="DataList_8hpp.html" target="_top" xlink:title="Special iterators for DataLists. Iteration over keys, values, reversed iteration.">
<polygon fill="white" stroke="black" points="584,-168.5 584,-187.5 656,-187.5 656,-168.5 584,-168.5"/>
<text text-anchor="middle" x="620" y="-175.5" font-family="Helvetica,sans-Serif" font-size="10.00">DataList.hpp</text>
</a>
</g>
</g>
<!-- Node1&#45;&gt;Node11 -->
<g id="edge62" class="edge">
<title>Node1&#45;&gt;Node11</title>
<path fill="none" stroke="midnightblue" d="M816.23,-620.56C684.24,-607.16 320.05,-562.11 256,-468 224.65,-421.94 86.73,-439.8 407,-224 460.91,-187.67 538.53,-179.85 583.66,-178.62"/>
<polygon fill="midnightblue" stroke="midnightblue" points="816.13,-624.07 826.43,-621.58 816.83,-617.1 816.13,-624.07"/>
</g>
<!-- Node18 -->
<g id="node18" class="node">
<title>Node18</title>
<g id="a_node18"><a xlink:href="TypedMArgument_8h.html" target="_top" xlink:title=" ">
<polygon fill="white" stroke="black" points="601.5,-392.5 601.5,-411.5 702.5,-411.5 702.5,-392.5 601.5,-392.5"/>
<text text-anchor="middle" x="652" y="-399.5" font-family="Helvetica,sans-Serif" font-size="10.00">TypedMArgument.h</text>
</a>
</g>
</g>
<!-- Node1&#45;&gt;Node18 -->
<g id="edge65" class="edge">
<title>Node1&#45;&gt;Node18</title>
<path fill="none" stroke="midnightblue" d="M848.56,-608.83C806.79,-565.09 692.57,-445.48 660.48,-411.88"/>
<polygon fill="midnightblue" stroke="midnightblue" points="846.25,-611.48 855.69,-616.3 851.31,-606.65 846.25,-611.48"/>
</g>
<!-- Node19 -->
<g id="node19" class="node">
<title>Node19</title>
<g id="a_node19"><a xlink:href="Iterators_2DataStore_8hpp.html" target="_top" xlink:title=" ">
<polygon fill="white" stroke="black" points="699,-336.5 699,-355.5 779,-355.5 779,-336.5 699,-336.5"/>
<text text-anchor="middle" x="739" y="-343.5" font-family="Helvetica,sans-Serif" font-size="10.00">DataStore.hpp</text>
</a>
</g>
</g>
<!-- Node1&#45;&gt;Node19 -->
<g id="edge63" class="edge">
<title>Node1&#45;&gt;Node19</title>
<path fill="none" stroke="midnightblue" d="M855.94,-607.07C831.72,-553.21 760.2,-394.15 742.83,-355.52"/>
<polygon fill="midnightblue" stroke="midnightblue" points="852.83,-608.69 860.12,-616.38 859.21,-605.82 852.83,-608.69"/>
</g>
<!-- Node33 -->
<g id="node33" class="node">
<title>Node33</title>
<g id="a_node33"><a xlink:href="MArgument_8cpp.html" target="_top" xlink:title="Specializations of PrimitiveWrapper class template members.">
<polygon fill="white" stroke="black" points="987,-560.5 987,-579.5 1073,-579.5 1073,-560.5 987,-560.5"/>
<text text-anchor="middle" x="1030" y="-567.5" font-family="Helvetica,sans-Serif" font-size="10.00">MArgument.cpp</text>
</a>
</g>
</g>
<!-- Node1&#45;&gt;Node33 -->
<g id="edge66" class="edge">
<title>Node1&#45;&gt;Node33</title>
<path fill="none" stroke="midnightblue" d="M899.95,-613.3C931.23,-603.13 975.82,-588.62 1003.82,-579.52"/>
<polygon fill="midnightblue" stroke="midnightblue" points="898.73,-610.02 890.3,-616.44 900.9,-616.68 898.73,-610.02"/>
</g>
<!-- Node3 -->
<g id="node3" class="node">
<title>Node3</title>
<g id="a_node3"><a xlink:href="LLU_8h.html" target="_top" xlink:title="Header file which includes all major parts of LLU.">
<polygon fill="white" stroke="black" points="423.5,-0.5 423.5,-19.5 466.5,-19.5 466.5,-0.5 423.5,-0.5"/>
<text text-anchor="middle" x="445" y="-7.5" font-family="Helvetica,sans-Serif" font-size="10.00">LLU.h</text>
</a>
</g>
</g>
<!-- Node2&#45;&gt;Node3 -->
<g id="edge2" class="edge">
<title>Node2&#45;&gt;Node3</title>
<path fill="none" stroke="midnightblue" d="M615.59,-102.59C611.18,-88.01 603,-68.14 589,-56 553.58,-25.29 497.29,-15.52 466.63,-12.43"/>
<polygon fill="midnightblue" stroke="midnightblue" points="612.27,-103.75 618.26,-112.5 619.03,-101.93 612.27,-103.75"/>
</g>
<!-- Node2&#45;&gt;Node4 -->
<g id="edge3" class="edge">
<title>Node2&#45;&gt;Node4</title>
<path fill="none" stroke="midnightblue" d="M652.03,-108.91C678.91,-98.75 716.64,-84.51 740.45,-75.52"/>
<polygon fill="midnightblue" stroke="midnightblue" points="650.78,-105.64 642.66,-112.44 653.25,-112.19 650.78,-105.64"/>
</g>
<!-- Node4&#45;&gt;Node3 -->
<g id="edge4" class="edge">
<title>Node4&#45;&gt;Node3</title>
<path fill="none" stroke="midnightblue" d="M702.34,-54.7C630.45,-42.49 514.41,-22.79 466.63,-14.67"/>
<polygon fill="midnightblue" stroke="midnightblue" points="702.17,-58.22 712.61,-56.44 703.34,-51.32 702.17,-58.22"/>
</g>
<!-- Node5 -->
<g id="node5" class="node">
<title>Node5</title>
<g id="a_node5"><a xlink:href="LibraryLinkError_8cpp.html" target="_top" xlink:title="Contains definitions of ErrorManager members and implementation of interface function sendRegisteredE...">
<polygon fill="white" stroke="black" points="842.5,-0.5 842.5,-19.5 945.5,-19.5 945.5,-0.5 842.5,-0.5"/>
<text text-anchor="middle" x="894" y="-7.5" font-family="Helvetica,sans-Serif" font-size="10.00">LibraryLinkError.cpp</text>
</a>
</g>
</g>
<!-- Node4&#45;&gt;Node5 -->
<g id="edge5" class="edge">
<title>Node4&#45;&gt;Node5</title>
<path fill="none" stroke="midnightblue" d="M793.32,-52.5C817.88,-42.38 851.82,-28.39 873.34,-19.52"/>
<polygon fill="midnightblue" stroke="midnightblue" points="791.67,-49.4 783.76,-56.44 794.34,-55.87 791.67,-49.4"/>
</g>
<!-- Node6 -->
<g id="node6" class="node">
<title>Node6</title>
<g id="a_node6"><a xlink:href="Logger_8cpp.html" target="_top" xlink:title="Implementation of functions defined in Logger.h.">
<polygon fill="white" stroke="black" points="620,-0.5 620,-19.5 684,-19.5 684,-0.5 620,-0.5"/>
<text text-anchor="middle" x="652" y="-7.5" font-family="Helvetica,sans-Serif" font-size="10.00">Logger.cpp</text>
</a>
</g>
</g>
<!-- Node4&#45;&gt;Node6 -->
<g id="edge6" class="edge">
<title>Node4&#45;&gt;Node6</title>
<path fill="none" stroke="midnightblue" d="M735.99,-51.86C715.41,-41.85 687.66,-28.35 669.79,-19.65"/>
<polygon fill="midnightblue" stroke="midnightblue" points="734.64,-55.1 745.17,-56.32 737.7,-48.8 734.64,-55.1"/>
</g>
<!-- Node7 -->
<g id="node7" class="node">
<title>Node7</title>
<g id="a_node7"><a xlink:href="MArgumentManager_8cpp.html" target="_top" xlink:title="Definitions of non&#45;template member functions and static data members from MArgumentManager class.">
<polygon fill="white" stroke="black" points="702,-0.5 702,-19.5 824,-19.5 824,-0.5 702,-0.5"/>
<text text-anchor="middle" x="763" y="-7.5" font-family="Helvetica,sans-Serif" font-size="10.00">MArgumentManager.cpp</text>
</a>
</g>
</g>
<!-- Node4&#45;&gt;Node7 -->
<g id="edge7" class="edge">
<title>Node4&#45;&gt;Node7</title>
<path fill="none" stroke="midnightblue" d="M763,-45.8C763,-36.91 763,-26.78 763,-19.75"/>
<polygon fill="midnightblue" stroke="midnightblue" points="759.5,-46.08 763,-56.08 766.5,-46.08 759.5,-46.08"/>
</g>
<!-- Node8&#45;&gt;Node9 -->
<g id="edge9" class="edge">
<title>Node8&#45;&gt;Node9</title>
<path fill="none" stroke="midnightblue" d="M608.6,-556.28C625.18,-548.47 645.42,-537.4 661,-524 731.97,-462.98 758.23,-444.74 788,-356 790.83,-347.57 791.11,-344.33 788,-336 782.44,-321.08 769.45,-307.83 759.99,-299.63"/>
<polygon fill="midnightblue" stroke="midnightblue" points="606.98,-553.17 599.32,-560.49 609.87,-559.54 606.98,-553.17"/>
</g>
<!-- Node14 -->
<g id="node14" class="node">
<title>Node14</title>
<g id="a_node14"><a xlink:href="Generic_2Image_8hpp.html" target="_top" xlink:title="GenericImage definition and implementation.">
<polygon fill="white" stroke="black" points="265,-448.5 265,-467.5 327,-467.5 327,-448.5 265,-448.5"/>
<text text-anchor="middle" x="296" y="-455.5" font-family="Helvetica,sans-Serif" font-size="10.00">Image.hpp</text>
</a>
</g>
</g>
<!-- Node8&#45;&gt;Node14 -->
<g id="edge16" class="edge">
<title>Node8&#45;&gt;Node14</title>
<path fill="none" stroke="midnightblue" d="M546.53,-556.73C488.9,-534.25 367.76,-486.99 318.03,-467.59"/>
<polygon fill="midnightblue" stroke="midnightblue" points="545.28,-560 555.87,-560.37 547.83,-553.47 545.28,-560"/>
</g>
<!-- Node20 -->
<g id="node20" class="node">
<title>Node20</title>
<g id="a_node20"><a xlink:href="Generic_2NumericArray_8hpp.html" target="_top" xlink:title="GenericNumericArray definition and implementation.">
<polygon fill="white" stroke="black" points="345,-448.5 345,-467.5 439,-467.5 439,-448.5 345,-448.5"/>
<text text-anchor="middle" x="392" y="-455.5" font-family="Helvetica,sans-Serif" font-size="10.00">NumericArray.hpp</text>
</a>
</g>
</g>
<!-- Node8&#45;&gt;Node20 -->
<g id="edge33" class="edge">
<title>Node8&#45;&gt;Node20</title>
<path fill="none" stroke="midnightblue" d="M554.34,-555.01C515.3,-531.92 438.52,-486.51 406.53,-467.59"/>
<polygon fill="midnightblue" stroke="midnightblue" points="553.02,-558.29 563.4,-560.37 556.58,-552.27 553.02,-558.29"/>
</g>
<!-- Node24 -->
<g id="node24" class="node">
<title>Node24</title>
<g id="a_node24"><a xlink:href="SparseArray_8hpp.html" target="_top" xlink:title="GenericSparseArray definition and implementation.">
<polygon fill="white" stroke="black" points="457,-448.5 457,-467.5 545,-467.5 545,-448.5 457,-448.5"/>
<text text-anchor="middle" x="501" y="-455.5" font-family="Helvetica,sans-Serif" font-size="10.00">SparseArray.hpp</text>
</a>
</g>
</g>
<!-- Node8&#45;&gt;Node24 -->
<g id="edge42" class="edge">
<title>Node8&#45;&gt;Node24</title>
<path fill="none" stroke="midnightblue" d="M566.07,-551.96C549.38,-528.12 519.7,-485.71 507.01,-467.59"/>
<polygon fill="midnightblue" stroke="midnightblue" points="563.36,-554.18 571.96,-560.37 569.09,-550.17 563.36,-554.18"/>
</g>
<!-- Node27 -->
<g id="node27" class="node">
<title>Node27</title>
<g id="a_node27"><a xlink:href="Generic_2Tensor_8hpp.html" target="_top" xlink:title="GenericTensor definition and implementation.">
<polygon fill="white" stroke="black" points="588,-504.5 588,-523.5 652,-523.5 652,-504.5 588,-504.5"/>
<text text-anchor="middle" x="620" y="-511.5" font-family="Helvetica,sans-Serif" font-size="10.00">Tensor.hpp</text>
</a>
</g>
</g>
<!-- Node8&#45;&gt;Node27 -->
<g id="edge48" class="edge">
<title>Node8&#45;&gt;Node27</title>
<path fill="none" stroke="midnightblue" d="M591.11,-552.14C598.43,-542.74 607.24,-531.4 613.19,-523.75"/>
<polygon fill="midnightblue" stroke="midnightblue" points="588.31,-550.04 584.94,-560.08 593.84,-554.34 588.31,-550.04"/>
</g>
<!-- Node9&#45;&gt;Node2 -->
<g id="edge10" class="edge">
<title>Node9&#45;&gt;Node2</title>
<path fill="none" stroke="midnightblue" d="M776.78,-275.34C797.73,-263.07 820.97,-243.97 809,-224 774.67,-166.72 695.56,-140.11 651.35,-129.32"/>
<polygon fill="midnightblue" stroke="midnightblue" points="774.82,-272.43 767.75,-280.32 778.2,-278.56 774.82,-272.43"/>
</g>
<!-- Node10 -->
<g id="node10" class="node">
<title>Node10</title>
<g id="a_node10"><a xlink:href="DataNode_8hpp.html" target="_top" xlink:title=" ">
<polygon fill="white" stroke="black" points="622,-224.5 622,-243.5 702,-243.5 702,-224.5 622,-224.5"/>
<text text-anchor="middle" x="662" y="-231.5" font-family="Helvetica,sans-Serif" font-size="10.00">DataNode.hpp</text>
</a>
</g>
</g>
<!-- Node9&#45;&gt;Node10 -->
<g id="edge11" class="edge">
<title>Node9&#45;&gt;Node10</title>
<path fill="none" stroke="midnightblue" d="M726.28,-274.9C710.33,-265 689.5,-252.07 675.94,-243.65"/>
<polygon fill="midnightblue" stroke="midnightblue" points="724.68,-278.02 735.02,-280.32 728.37,-272.08 724.68,-278.02"/>
</g>
<!-- Node12 -->
<g id="node12" class="node">
<title>Node12</title>
<g id="a_node12"><a xlink:href="DataStore_8cpp.html" target="_top" xlink:title=" ">
<polygon fill="white" stroke="black" points="720,-224.5 720,-243.5 800,-243.5 800,-224.5 720,-224.5"/>
<text text-anchor="middle" x="760" y="-231.5" font-family="Helvetica,sans-Serif" font-size="10.00">DataStore.cpp</text>
</a>
</g>
</g>
<!-- Node9&#45;&gt;Node12 -->
<g id="edge14" class="edge">
<title>Node9&#45;&gt;Node12</title>
<path fill="none" stroke="midnightblue" d="M752.85,-270.1C754.68,-261.14 756.77,-250.86 758.22,-243.75"/>
<polygon fill="midnightblue" stroke="midnightblue" points="749.38,-269.59 750.82,-280.08 756.24,-270.98 749.38,-269.59"/>
</g>
<!-- Node13 -->
<g id="node13" class="node">
<title>Node13</title>
<g id="a_node13"><a xlink:href="TypedMArgument_8cpp.html" target="_top" xlink:title=" ">
<polygon fill="white" stroke="black" points="416,-224.5 416,-243.5 528,-243.5 528,-224.5 416,-224.5"/>
<text text-anchor="middle" x="472" y="-231.5" font-family="Helvetica,sans-Serif" font-size="10.00">TypedMArgument.cpp</text>
</a>
</g>
</g>
<!-- Node9&#45;&gt;Node13 -->
<g id="edge15" class="edge">
<title>Node9&#45;&gt;Node13</title>
<path fill="none" stroke="midnightblue" d="M698.68,-279.19C646.5,-269.02 565.71,-253.27 515.99,-243.58"/>
<polygon fill="midnightblue" stroke="midnightblue" points="698.24,-282.67 708.72,-281.15 699.58,-275.8 698.24,-282.67"/>
</g>
<!-- Node10&#45;&gt;Node11 -->
<g id="edge12" class="edge">
<title>Node10&#45;&gt;Node11</title>
<path fill="none" stroke="midnightblue" d="M648.89,-216.14C641.57,-206.74 632.76,-195.4 626.81,-187.75"/>
<polygon fill="midnightblue" stroke="midnightblue" points="646.16,-218.34 655.06,-224.08 651.69,-214.04 646.16,-218.34"/>
</g>
<!-- Node11&#45;&gt;Node2 -->
<g id="edge13" class="edge">
<title>Node11&#45;&gt;Node2</title>
<path fill="none" stroke="midnightblue" d="M620,-157.8C620,-148.91 620,-138.78 620,-131.75"/>
<polygon fill="midnightblue" stroke="midnightblue" points="616.5,-158.08 620,-168.08 623.5,-158.08 616.5,-158.08"/>
</g>
<!-- Node14&#45;&gt;Node13 -->
<g id="edge32" class="edge">
<title>Node14&#45;&gt;Node13</title>
<path fill="none" stroke="midnightblue" d="M309.43,-439.95C334.33,-408.36 389.38,-338.6 436,-280 446.09,-267.32 457.83,-252.66 465.08,-243.62"/>
<polygon fill="midnightblue" stroke="midnightblue" points="306.42,-438.13 302.97,-448.15 311.91,-442.46 306.42,-438.13"/>
</g>
<!-- Node15 -->
<g id="node15" class="node">
<title>Node15</title>
<g id="a_node15"><a xlink:href="Image_8h.html" target="_top" xlink:title="Templated C++ wrapper for MImage.">
<polygon fill="white" stroke="black" points="42,-392.5 42,-411.5 94,-411.5 94,-392.5 42,-392.5"/>
<text text-anchor="middle" x="68" y="-399.5" font-family="Helvetica,sans-Serif" font-size="10.00">Image.h</text>
</a>
</g>
</g>
<!-- Node14&#45;&gt;Node15 -->
<g id="edge17" class="edge">
<title>Node14&#45;&gt;Node15</title>
<path fill="none" stroke="midnightblue" d="M254.99,-447.29C208.37,-436.25 133.65,-418.55 94.26,-409.22"/>
<polygon fill="midnightblue" stroke="midnightblue" points="254.24,-450.71 264.78,-449.6 255.85,-443.89 254.24,-450.71"/>
</g>
<!-- Node16 -->
<g id="node16" class="node">
<title>Node16</title>
<g id="a_node16"><a xlink:href="Image_8cpp.html" target="_top" xlink:title="Template specializations of Image::type attribute for all data types that we want to support.">
<polygon fill="white" stroke="black" points="66,-336.5 66,-355.5 128,-355.5 128,-336.5 66,-336.5"/>
<text text-anchor="middle" x="97" y="-343.5" font-family="Helvetica,sans-Serif" font-size="10.00">Image.cpp</text>
</a>
</g>
</g>
<!-- Node14&#45;&gt;Node16 -->
<g id="edge31" class="edge">
<title>Node14&#45;&gt;Node16</title>
<path fill="none" stroke="midnightblue" d="M265.57,-444.35C245.94,-435.87 220.05,-424.08 198,-412 164.72,-393.77 127.71,-368.61 109.1,-355.58"/>
<polygon fill="midnightblue" stroke="midnightblue" points="264.36,-447.64 274.93,-448.35 267.11,-441.2 264.36,-447.64"/>
</g>
<!-- Node17 -->
<g id="node17" class="node">
<title>Node17</title>
<g id="a_node17"><a xlink:href="Views_2Image_8hpp.html" target="_top" xlink:title="Definition and implementation of ImageView and ImageTypedView.">
<polygon fill="white" stroke="black" points="146,-336.5 146,-355.5 208,-355.5 208,-336.5 146,-336.5"/>
<text text-anchor="middle" x="177" y="-343.5" font-family="Helvetica,sans-Serif" font-size="10.00">Image.hpp</text>
</a>
</g>
</g>
<!-- Node14&#45;&gt;Node17 -->
<g id="edge21" class="edge">
<title>Node14&#45;&gt;Node17</title>
<path fill="none" stroke="midnightblue" d="M266.85,-444.07C251.44,-436.28 232.9,-425.29 219,-412 201.33,-395.1 187.55,-369.38 181.07,-355.92"/>
<polygon fill="midnightblue" stroke="midnightblue" points="265.44,-447.28 275.96,-448.5 268.5,-440.98 265.44,-447.28"/>
</g>
<!-- Node14&#45;&gt;Node18 -->
<g id="edge23" class="edge">
<title>Node14&#45;&gt;Node18</title>
<path fill="none" stroke="midnightblue" d="M337.26,-447.89C436.22,-429.99 540.9,-416.32 601.45,-408.94"/>
<polygon fill="midnightblue" stroke="midnightblue" points="336.6,-444.45 327.39,-449.69 337.86,-451.33 336.6,-444.45"/>
</g>
<!-- Node15&#45;&gt;Node3 -->
<g id="edge18" class="edge">
<title>Node15&#45;&gt;Node3</title>
<path fill="none" stroke="midnightblue" d="M50.58,-385.46C30.43,-365.69 0,-329.45 0,-291 0,-291 0,-291 0,-121 0,-76.55 35.32,-73.9 76,-56 139.06,-28.26 353.59,-15.49 423.08,-12.02"/>
<polygon fill="midnightblue" stroke="midnightblue" points="48.29,-388.11 57.97,-392.43 53.1,-383.02 48.29,-388.11"/>
</g>
<!-- Node15&#45;&gt;Node4 -->
<g id="edge19" class="edge">
<title>Node15&#45;&gt;Node4</title>
<path fill="none" stroke="midnightblue" d="M62.46,-382.66C60.29,-374.57 58.07,-364.89 57,-356 51.75,-312.41 76,-239.37 76,-235 76,-235 76,-235 76,-177 76,-113.28 542.7,-79.87 706.78,-70.1"/>
<polygon fill="midnightblue" stroke="midnightblue" points="59.16,-383.83 65.27,-392.49 65.89,-381.91 59.16,-383.83"/>
</g>
<!-- Node15&#45;&gt;Node16 -->
<g id="edge20" class="edge">
<title>Node15&#45;&gt;Node16</title>
<path fill="none" stroke="midnightblue" d="M77.68,-382.98C82.6,-373.82 88.36,-363.09 92.3,-355.75"/>
<polygon fill="midnightblue" stroke="midnightblue" points="74.44,-381.62 72.79,-392.08 80.6,-384.93 74.44,-381.62"/>
</g>
<!-- Node17&#45;&gt;Node3 -->
<g id="edge22" class="edge">
<title>Node17&#45;&gt;Node3</title>
<path fill="none" stroke="midnightblue" d="M138.36,-333.02C97.23,-317.58 38,-286.42 38,-235 38,-235 38,-235 38,-121 38,-40.39 339.26,-17.06 423.41,-12.12"/>
<polygon fill="midnightblue" stroke="midnightblue" points="137.27,-336.35 147.86,-336.43 139.63,-329.76 137.27,-336.35"/>
</g>
<!-- Node18&#45;&gt;Node2 -->
<g id="edge24" class="edge">
<title>Node18&#45;&gt;Node2</title>
<path fill="none" stroke="midnightblue" d="M627.5,-387.15C599.06,-369.04 556,-334.46 556,-291 556,-291 556,-291 556,-233 556,-202.9 559.66,-193.89 575,-168 583.67,-153.36 598.2,-140.05 608.39,-131.77"/>
<polygon fill="midnightblue" stroke="midnightblue" points="625.79,-390.21 636.15,-392.44 629.44,-384.23 625.79,-390.21"/>
</g>
<!-- Node18&#45;&gt;Node9 -->
<g id="edge25" class="edge">
<title>Node18&#45;&gt;Node9</title>
<path fill="none" stroke="midnightblue" d="M660.15,-382.95C666.92,-369.17 677.44,-350.2 690,-336 703.14,-321.14 721.82,-307.87 734.62,-299.66"/>
<polygon fill="midnightblue" stroke="midnightblue" points="656.84,-381.78 655.74,-392.31 663.17,-384.76 656.84,-381.78"/>
</g>
<!-- Node18&#45;&gt;Node10 -->
<g id="edge26" class="edge">
<title>Node18&#45;&gt;Node10</title>
<path fill="none" stroke="midnightblue" d="M653.15,-381.93C655.32,-345.92 659.94,-269.23 661.48,-243.57"/>
<polygon fill="midnightblue" stroke="midnightblue" points="649.65,-381.88 652.54,-392.08 656.63,-382.3 649.65,-381.88"/>
</g>
<!-- Node18&#45;&gt;Node13 -->
<g id="edge30" class="edge">
<title>Node18&#45;&gt;Node13</title>
<path fill="none" stroke="midnightblue" d="M605.3,-389.4C584.18,-382.39 559.99,-371.69 542,-356 522.8,-339.25 488,-268.56 476.11,-243.69"/>
<polygon fill="midnightblue" stroke="midnightblue" points="604.47,-392.81 615.06,-392.46 606.56,-386.13 604.47,-392.81"/>
</g>
<!-- Node18&#45;&gt;Node19 -->
<g id="edge27" class="edge">
<title>Node18&#45;&gt;Node19</title>
<path fill="none" stroke="midnightblue" d="M674.72,-386.9C690.67,-377 711.5,-364.07 725.06,-355.65"/>
<polygon fill="midnightblue" stroke="midnightblue" points="672.63,-384.08 665.98,-392.32 676.32,-390.02 672.63,-384.08"/>
</g>
<!-- Node19&#45;&gt;Node9 -->
<g id="edge28" class="edge">
<title>Node19&#45;&gt;Node9</title>
<path fill="none" stroke="midnightblue" d="M742.5,-326.1C744.16,-317.14 746.06,-306.86 747.38,-299.75"/>
<polygon fill="midnightblue" stroke="midnightblue" points="739.03,-325.61 740.65,-336.08 745.91,-326.89 739.03,-325.61"/>
</g>
<!-- Node19&#45;&gt;Node11 -->
<g id="edge29" class="edge">
<title>Node19&#45;&gt;Node11</title>
<path fill="none" stroke="midnightblue" d="M710.22,-331.63C679.65,-315.65 633.03,-285.74 613,-244 604.16,-225.58 611.21,-200.93 616.18,-187.92"/>
<polygon fill="midnightblue" stroke="midnightblue" points="709.02,-334.95 719.52,-336.33 712.17,-328.7 709.02,-334.95"/>
</g>
<!-- Node20&#45;&gt;Node13 -->
<g id="edge41" class="edge">
<title>Node20&#45;&gt;Node13</title>
<path fill="none" stroke="midnightblue" d="M394.31,-438.3C396.2,-425.17 399.35,-407.28 404,-392 421.91,-333.18 455.32,-266.83 467.45,-243.59"/>
<polygon fill="midnightblue" stroke="midnightblue" points="390.81,-438.06 392.95,-448.44 397.75,-438.99 390.81,-438.06"/>
</g>
<!-- Node20&#45;&gt;Node18 -->
<g id="edge39" class="edge">
<title>Node20&#45;&gt;Node18</title>
<path fill="none" stroke="midnightblue" d="M442.99,-446.41C492.13,-436.2 565.53,-420.96 610.99,-411.52"/>
<polygon fill="midnightblue" stroke="midnightblue" points="442.28,-442.98 433.2,-448.44 443.7,-449.84 442.28,-442.98"/>
</g>
<!-- Node21 -->
<g id="node21" class="node">
<title>Node21</title>
<g id="a_node21"><a xlink:href="NumericArray_8h.html" target="_top" xlink:title="Templated C++ wrapper for MNumericArray.">
<polygon fill="white" stroke="black" points="384.5,-112.5 384.5,-131.5 467.5,-131.5 467.5,-112.5 384.5,-112.5"/>
<text text-anchor="middle" x="426" y="-119.5" font-family="Helvetica,sans-Serif" font-size="10.00">NumericArray.h</text>
</a>
</g>
</g>
<!-- Node20&#45;&gt;Node21 -->
<g id="edge34" class="edge">
<title>Node20&#45;&gt;Node21</title>
<path fill="none" stroke="midnightblue" d="M371.54,-442.23C337.76,-415.95 274,-357.54 274,-291 274,-291 274,-291 274,-233 274,-175.51 346.25,-145 391.13,-131.6"/>
<polygon fill="midnightblue" stroke="midnightblue" points="369.73,-445.25 379.82,-448.49 373.95,-439.67 369.73,-445.25"/>
</g>
<!-- Node22 -->
<g id="node22" class="node">
<title>Node22</title>
<g id="a_node22"><a xlink:href="Views_2NumericArray_8hpp.html" target="_top" xlink:title="Definition and implementation of NumericArrayView and NumericArrayTypedView.">
<polygon fill="white" stroke="black" points="152,-280.5 152,-299.5 246,-299.5 246,-280.5 152,-280.5"/>
<text text-anchor="middle" x="199" y="-287.5" font-family="Helvetica,sans-Serif" font-size="10.00">NumericArray.hpp</text>
</a>
</g>
</g>
<!-- Node20&#45;&gt;Node22 -->
<g id="edge37" class="edge">
<title>Node20&#45;&gt;Node22</title>
<path fill="none" stroke="midnightblue" d="M355.67,-444.82C336.42,-437.26 313.09,-426.25 295,-412 252.03,-378.15 216.58,-321.41 203.95,-299.76"/>
<polygon fill="midnightblue" stroke="midnightblue" points="354.44,-448.09 365.03,-448.35 356.91,-441.54 354.44,-448.09"/>
</g>
<!-- Node23 -->
<g id="node23" class="node">
<title>Node23</title>
<g id="a_node23"><a xlink:href="NumericArray_8cpp.html" target="_top" xlink:title="Definitions of MContainer&lt;MArgumentType::NumericArray&gt; (GenericNumericArray) methods.">
<polygon fill="white" stroke="black" points="413,-392.5 413,-411.5 507,-411.5 507,-392.5 413,-392.5"/>
<text text-anchor="middle" x="460" y="-399.5" font-family="Helvetica,sans-Serif" font-size="10.00">NumericArray.cpp</text>
</a>
</g>
</g>
<!-- Node20&#45;&gt;Node23 -->
<g id="edge40" class="edge">
<title>Node20&#45;&gt;Node23</title>
<path fill="none" stroke="midnightblue" d="M410.76,-442.1C423,-432.38 438.56,-420.03 448.88,-411.83"/>
<polygon fill="midnightblue" stroke="midnightblue" points="408.58,-439.36 402.93,-448.32 412.93,-444.85 408.58,-439.36"/>
</g>
<!-- Node21&#45;&gt;Node3 -->
<g id="edge35" class="edge">
<title>Node21&#45;&gt;Node3</title>
<path fill="none" stroke="midnightblue" d="M429.22,-102.35C433.38,-78.25 440.46,-37.31 443.52,-19.59"/>
<polygon fill="midnightblue" stroke="midnightblue" points="425.74,-101.92 427.49,-112.37 432.64,-103.11 425.74,-101.92"/>
</g>
<!-- Node21&#45;&gt;Node4 -->
<g id="edge36" class="edge">
<title>Node21&#45;&gt;Node4</title>
<path fill="none" stroke="midnightblue" d="M477.75,-112.71C540.65,-102.63 646.24,-85.71 709.79,-75.53"/>
<polygon fill="midnightblue" stroke="midnightblue" points="476.98,-109.29 467.66,-114.32 478.09,-116.2 476.98,-109.29"/>
</g>
<!-- Node22&#45;&gt;Node3 -->
<g id="edge38" class="edge">
<title>Node22&#45;&gt;Node3</title>
<path fill="none" stroke="midnightblue" d="M204.22,-270.39C209.84,-248.65 218,-211.51 218,-179 218,-179 218,-179 218,-121 218,-30.35 366.42,-14.38 423.23,-11.58"/>
<polygon fill="midnightblue" stroke="midnightblue" points="200.78,-269.68 201.56,-280.25 207.54,-271.5 200.78,-269.68"/>
</g>
<!-- Node24&#45;&gt;Node18 -->
<g id="edge47" class="edge">
<title>Node24&#45;&gt;Node18</title>
<path fill="none" stroke="midnightblue" d="M534.45,-445.04C562.86,-434.88 602.94,-420.55 628.19,-411.52"/>
<polygon fill="midnightblue" stroke="midnightblue" points="533.16,-441.78 524.93,-448.44 535.52,-448.37 533.16,-441.78"/>
</g>
<!-- Node25 -->
<g id="node25" class="node">
<title>Node25</title>
<g id="a_node25"><a xlink:href="SparseArray_8h.html" target="_top" xlink:title="Templated C++ wrapper for MSparseArray.">
<polygon fill="white" stroke="black" points="493.5,-112.5 493.5,-131.5 570.5,-131.5 570.5,-112.5 493.5,-112.5"/>
<text text-anchor="middle" x="532" y="-119.5" font-family="Helvetica,sans-Serif" font-size="10.00">SparseArray.h</text>
</a>
</g>
</g>
<!-- Node24&#45;&gt;Node25 -->
<g id="edge43" class="edge">
<title>Node24&#45;&gt;Node25</title>
<path fill="none" stroke="midnightblue" d="M511.35,-439.02C517.66,-425.55 523.25,-406.95 516,-392 484.39,-326.79 388,-363.47 388,-291 388,-291 388,-291 388,-233 388,-176.69 458.4,-145.34 500.75,-131.58"/>
<polygon fill="midnightblue" stroke="midnightblue" points="508.1,-437.69 506.59,-448.18 514.31,-440.92 508.1,-437.69"/>
</g>
<!-- Node25&#45;&gt;Node3 -->
<g id="edge44" class="edge">
<title>Node25&#45;&gt;Node3</title>
<path fill="none" stroke="midnightblue" d="M512.73,-105.66C503.13,-97.47 491.75,-86.85 483,-76 468.07,-57.48 455.16,-32.44 448.95,-19.51"/>
<polygon fill="midnightblue" stroke="midnightblue" points="510.66,-108.49 520.59,-112.19 515.13,-103.11 510.66,-108.49"/>
</g>
<!-- Node25&#45;&gt;Node4 -->
<g id="edge45" class="edge">
<title>Node25&#45;&gt;Node4</title>
<path fill="none" stroke="midnightblue" d="M578.4,-110.15C622.05,-99.95 686.51,-84.88 726.57,-75.52"/>
<polygon fill="midnightblue" stroke="midnightblue" points="577.54,-106.76 568.6,-112.44 579.14,-113.58 577.54,-106.76"/>
</g>
<!-- Node26 -->
<g id="node26" class="node">
<title>Node26</title>
<g id="a_node26"><a xlink:href="SparseArray_8cpp.html" target="_top" xlink:title="Implementation of GenericSparseArray and SparseArray&lt;T&gt;">
<polygon fill="white" stroke="black" points="492,-56.5 492,-75.5 580,-75.5 580,-56.5 492,-56.5"/>
<text text-anchor="middle" x="536" y="-63.5" font-family="Helvetica,sans-Serif" font-size="10.00">SparseArray.cpp</text>
</a>
</g>
</g>
<!-- Node25&#45;&gt;Node26 -->
<g id="edge46" class="edge">
<title>Node25&#45;&gt;Node26</title>
<path fill="none" stroke="midnightblue" d="M533.4,-102.1C534.06,-93.14 534.83,-82.86 535.35,-75.75"/>
<polygon fill="midnightblue" stroke="midnightblue" points="529.91,-101.85 532.66,-112.08 536.89,-102.37 529.91,-101.85"/>
</g>
<!-- Node27&#45;&gt;Node13 -->
<g id="edge60" class="edge">
<title>Node27&#45;&gt;Node13</title>
<path fill="none" stroke="midnightblue" d="M609.15,-495.94C603.89,-487.57 597.53,-477.31 592,-468 572.19,-434.63 569.95,-424.67 549,-392 538.35,-375.39 533.34,-372.81 523,-356 508.31,-332.13 504.97,-325.79 494,-300 485.61,-280.27 478.14,-256.15 474.45,-243.57"/>
<polygon fill="midnightblue" stroke="midnightblue" points="606.22,-497.86 614.52,-504.44 612.14,-494.12 606.22,-497.86"/>
</g>
<!-- Node27&#45;&gt;Node18 -->
<g id="edge59" class="edge">
<title>Node27&#45;&gt;Node18</title>
<path fill="none" stroke="midnightblue" d="M645.18,-499C656.19,-491.4 667.96,-480.91 674,-468 683.1,-448.58 668.52,-424.33 659.07,-411.65"/>
<polygon fill="midnightblue" stroke="midnightblue" points="643.17,-496.13 636.63,-504.46 646.94,-502.03 643.17,-496.13"/>
</g>
<!-- Node27&#45;&gt;Node24 -->
<g id="edge49" class="edge">
<title>Node27&#45;&gt;Node24</title>
<path fill="none" stroke="midnightblue" d="M591.86,-500.23C569.6,-490.13 539.14,-476.31 519.77,-467.52"/>
<polygon fill="midnightblue" stroke="midnightblue" points="590.59,-503.5 601.14,-504.44 593.48,-497.12 590.59,-503.5"/>
</g>
<!-- Node28 -->
<g id="node28" class="node">
<title>Node28</title>
<g id="a_node28"><a xlink:href="Tensor_8h.html" target="_top" xlink:title="Templated C++ wrapper for MTensor.">
<polygon fill="white" stroke="black" points="877.5,-168.5 877.5,-187.5 930.5,-187.5 930.5,-168.5 877.5,-168.5"/>
<text text-anchor="middle" x="904" y="-175.5" font-family="Helvetica,sans-Serif" font-size="10.00">Tensor.h</text>
</a>
</g>
</g>
<!-- Node27&#45;&gt;Node28 -->
<g id="edge50" class="edge">
<title>Node27&#45;&gt;Node28</title>
<path fill="none" stroke="midnightblue" d="M644.51,-499.23C658.23,-491 675.28,-479.85 689,-468 794.54,-376.84 879.35,-225.2 899.46,-187.62"/>
<polygon fill="midnightblue" stroke="midnightblue" points="642.49,-496.36 635.63,-504.44 646.03,-502.4 642.49,-496.36"/>
</g>
<!-- Node32 -->
<g id="node32" class="node">
<title>Node32</title>
<g id="a_node32"><a xlink:href="Views_2Tensor_8hpp.html" target="_top" xlink:title="Definition and implementation of TensorView and TensorTypedView.">
<polygon fill="white" stroke="black" points="601,-448.5 601,-467.5 665,-467.5 665,-448.5 601,-448.5"/>
<text text-anchor="middle" x="633" y="-455.5" font-family="Helvetica,sans-Serif" font-size="10.00">Tensor.hpp</text>
</a>
</g>
</g>
<!-- Node27&#45;&gt;Node32 -->
<g id="edge58" class="edge">
<title>Node27&#45;&gt;Node32</title>
<path fill="none" stroke="midnightblue" d="M624.55,-494.1C626.71,-485.14 629.18,-474.86 630.89,-467.75"/>
<polygon fill="midnightblue" stroke="midnightblue" points="621.08,-493.54 622.15,-504.08 627.89,-495.18 621.08,-493.54"/>
</g>
<!-- Node28&#45;&gt;Node3 -->
<g id="edge52" class="edge">
<title>Node28&#45;&gt;Node3</title>
<path fill="none" stroke="midnightblue" d="M874.82,-164.45C811.31,-137.22 662.07,-73.74 610,-56 559.41,-38.77 498.39,-23.52 466.62,-15.99"/>
<polygon fill="midnightblue" stroke="midnightblue" points="873.68,-167.77 884.25,-168.49 876.44,-161.33 873.68,-167.77"/>
</g>
<!-- Node28&#45;&gt;Node4 -->
<g id="edge53" class="edge">
<title>Node28&#45;&gt;Node4</title>
<path fill="none" stroke="midnightblue" d="M902.95,-158.02C901.19,-143.71 896.65,-124.48 885,-112 867.21,-92.94 840.64,-81.92 816.83,-75.56"/>
<polygon fill="midnightblue" stroke="midnightblue" points="899.48,-158.56 903.84,-168.22 906.46,-157.95 899.48,-158.56"/>
</g>
<!-- Node28&#45;&gt;Node25 -->
<g id="edge51" class="edge">
<title>Node28&#45;&gt;Node25</title>
<path fill="none" stroke="midnightblue" d="M867.35,-172.48C807.21,-164.95 683.9,-148.95 580,-132 576.99,-131.51 573.87,-130.98 570.74,-130.43"/>
<polygon fill="midnightblue" stroke="midnightblue" points="867.12,-175.98 877.48,-173.75 867.99,-169.04 867.12,-175.98"/>
</g>
<!-- Node29 -->
<g id="node29" class="node">
<title>Node29</title>
<g id="a_node29"><a xlink:href="ProgressMonitor_8h.html" target="_top" xlink:title="Definition of ProgressMonitor class.">
<polygon fill="white" stroke="black" points="987.5,-112.5 987.5,-131.5 1082.5,-131.5 1082.5,-112.5 987.5,-112.5"/>
<text text-anchor="middle" x="1035" y="-119.5" font-family="Helvetica,sans-Serif" font-size="10.00">ProgressMonitor.h</text>
</a>
</g>
</g>
<!-- Node28&#45;&gt;Node29 -->
<g id="edge54" class="edge">
<title>Node28&#45;&gt;Node29</title>
<path fill="none" stroke="midnightblue" d="M934.32,-164.5C958.88,-154.38 992.82,-140.39 1014.34,-131.52"/>
<polygon fill="midnightblue" stroke="midnightblue" points="932.67,-161.4 924.76,-168.44 935.34,-167.87 932.67,-161.4"/>
</g>
<!-- Node31 -->
<g id="node31" class="node">
<title>Node31</title>
<g id="a_node31"><a xlink:href="Tensor_8cpp.html" target="_top" xlink:title="Template specialization of certain methods from TypedTensor class for all underlying data types that ...">
<polygon fill="white" stroke="black" points="812,-112.5 812,-131.5 876,-131.5 876,-112.5 812,-112.5"/>
<text text-anchor="middle" x="844" y="-119.5" font-family="Helvetica,sans-Serif" font-size="10.00">Tensor.cpp</text>
</a>
</g>
</g>
<!-- Node28&#45;&gt;Node31 -->
<g id="edge57" class="edge">
<title>Node28&#45;&gt;Node31</title>
<path fill="none" stroke="midnightblue" d="M886.82,-161.54C876.12,-151.91 862.74,-139.87 853.82,-131.83"/>
<polygon fill="midnightblue" stroke="midnightblue" points="884.59,-164.24 894.36,-168.32 889.27,-159.03 884.59,-164.24"/>
</g>
<!-- Node29&#45;&gt;Node4 -->
<g id="edge55" class="edge">
<title>Node29&#45;&gt;Node4</title>
<path fill="none" stroke="midnightblue" d="M981.98,-110.47C930.57,-100.27 853.56,-84.98 805.9,-75.52"/>
<polygon fill="midnightblue" stroke="midnightblue" points="981.41,-113.93 991.9,-112.44 982.77,-107.06 981.41,-113.93"/>
</g>
<!-- Node30 -->
<g id="node30" class="node">
<title>Node30</title>
<g id="a_node30"><a xlink:href="ProgressMonitor_8cpp.html" target="_top" xlink:title="Implementation file for ProgressMonitor class.">
<polygon fill="white" stroke="black" points="982,-56.5 982,-75.5 1088,-75.5 1088,-56.5 982,-56.5"/>
<text text-anchor="middle" x="1035" y="-63.5" font-family="Helvetica,sans-Serif" font-size="10.00">ProgressMonitor.cpp</text>
</a>
</g>
</g>
<!-- Node29&#45;&gt;Node30 -->
<g id="edge56" class="edge">
<title>Node29&#45;&gt;Node30</title>
<path fill="none" stroke="midnightblue" d="M1035,-101.8C1035,-92.91 1035,-82.78 1035,-75.75"/>
<polygon fill="midnightblue" stroke="midnightblue" points="1031.5,-102.08 1035,-112.08 1038.5,-102.08 1031.5,-102.08"/>
</g>
</g>
</svg>
        <g id="navigator" transform="translate(0 0)" fill="#404254">
                <rect fill="#f2f5e9" fill-opacity="0.5" stroke="#606060" stroke-width=".5" x="0" y="0" width="60" height="60"/>
                <use id="zoomplus" xlink:href="#zoomPlus" x="17" y="9" onmousedown="handleZoom(evt,'in')"/>
                <use id="zoomminus" xlink:href="#zoomMin" x="42" y="9" onmousedown="handleZoom(evt,'out')"/>
                <use id="reset" xlink:href="#resetDef" x="30" y="36" onmousedown="handleReset()"/>
                <g id="arrowUp" xlink:href="#dirArrow" transform="translate(30 24)" onmousedown="handlePan(0,-1)">
                  <use xlink:href="#rim" fill="#404040">
                        <set attributeName="fill" to="#808080" begin="arrowUp.mouseover" end="arrowUp.mouseout"/>
                  </use>
                  <path fill="none" stroke="white" stroke-width="1.5" d="M0,-3.0v7 M-2.5,-0.5L0,-3.0L2.5,-0.5"/>
                </g>
                <g id="arrowRight" xlink:href="#dirArrow" transform="rotate(90) translate(36 -43)" onmousedown="handlePan(1,0)">
                  <use xlink:href="#rim" fill="#404040">
                        <set attributeName="fill" to="#808080" begin="arrowRight.mouseover" end="arrowRight.mouseout"/>
                  </use>
                  <path fill="none" stroke="white" stroke-width="1.5" d="M0,-3.0v7 M-2.5,-0.5L0,-3.0L2.5,-0.5"/>
                </g>
                <g id="arrowDown" xlink:href="#dirArrow" transform="rotate(180) translate(-30 -48)" onmousedown="handlePan(0,1)">
                  <use xlink:href="#rim" fill="#404040">
                        <set attributeName="fill" to="#808080" begin="arrowDown.mouseover" end="arrowDown.mouseout"/>
                  </use>
                  <path fill="none" stroke="white" stroke-width="1.5" d="M0,-3.0v7 M-2.5,-0.5L0,-3.0L2.5,-0.5"/>
                </g>
                <g id="arrowLeft" xlink:href="#dirArrow" transform="rotate(270) translate(-36 17)" onmousedown="handlePan(-1,0)">
                  <use xlink:href="#rim" fill="#404040">
                        <set attributeName="fill" to="#808080" begin="arrowLeft.mouseover" end="arrowLeft.mouseout"/>
                  </use>
                  <path fill="none" stroke="white" stroke-width="1.5" d="M0,-3.0v7 M-2.5,-0.5L0,-3.0L2.5,-0.5"/>
                </g>
        </g>
        <svg viewBox="0 0 15 15" width="100%" height="30px" preserveAspectRatio="xMaxYMin meet">
         <g id="arrow_out" transform="scale(0.3 0.3)">
          <a xlink:href="MArgument_8h__dep__incl_org.svg" target="_base">
           <rect id="button" ry="5" rx="5" y="6" x="6" height="38" width="38"
                fill="#f2f5e9" fill-opacity="0.5" stroke="#606060" stroke-width="1.0"/>
           <path id="arrow"
             d="M 11.500037,31.436501 C 11.940474,20.09759 22.043105,11.32322 32.158766,21.979434 L 37.068811,17.246167 C 37.068811,17.246167 37.088388,32 37.088388,32 L 22.160133,31.978069 C 22.160133,31.978069 26.997745,27.140456 26.997745,27.140456 C 18.528582,18.264221 13.291696,25.230495 11.500037,31.436501 z"
             style="fill:#404040;"/>
          </a>
         </g>
        </svg>
</svg>
