<?xml version="1.0" encoding="UTF-8" standalone="no"?>
<!DOCTYPE svg PUBLIC "-//W3C//DTD SVG 1.1//EN"
 "http://www.w3.org/Graphics/SVG/1.1/DTD/svg11.dtd">
<!-- Generated by graphviz version 2.43.0 (0)
 -->
<!-- Title: MArrayDimensions.cpp Pages: 1 -->
<svg width="2170pt" height="543pt"
 viewBox="0.00 0.00 2170.00 543.00" xmlns="http://www.w3.org/2000/svg" xmlns:xlink="http://www.w3.org/1999/xlink">
<g id="graph0" class="graph" transform="scale(1 1) rotate(0) translate(4 539)">
<title>MArrayDimensions.cpp</title>
<polygon fill="white" stroke="transparent" points="-4,4 -4,-539 2166,-539 2166,4 -4,4"/>
<!-- Node1 -->
<g id="node1" class="node">
<title>Node1</title>
<g id="a_node1"><a xlink:title=" ">
<polygon fill="#bfbfbf" stroke="black" points="1989,-515.5 1989,-534.5 2108,-534.5 2108,-515.5 1989,-515.5"/>
<text text-anchor="middle" x="2048.5" y="-522.5" font-family="Helvetica,sans-Serif" font-size="10.00">MArrayDimensions.cpp</text>
</a>
</g>
</g>
<!-- Node2 -->
<g id="node2" class="node">
<title>Node2</title>
<g id="a_node2"><a xlink:href="MArrayDimensions_8h.html" target="_top" xlink:title=" ">
<polygon fill="white" stroke="black" points="1197,-459.5 1197,-478.5 1376,-478.5 1376,-459.5 1197,-459.5"/>
<text text-anchor="middle" x="1286.5" y="-466.5" font-family="Helvetica,sans-Serif" font-size="10.00">LLU/Containers/MArrayDimensions.h</text>
</a>
</g>
</g>
<!-- Node1&#45;&gt;Node2 -->
<g id="edge1" class="edge">
<title>Node1&#45;&gt;Node2</title>
<path fill="none" stroke="midnightblue" d="M1988.71,-519.76C1858.33,-510.52 1547.33,-488.48 1386.55,-477.09"/>
<polygon fill="midnightblue" stroke="midnightblue" points="1386.4,-473.57 1376.18,-476.36 1385.91,-480.55 1386.4,-473.57"/>
</g>
<!-- Node7 -->
<g id="node7" class="node">
<title>Node7</title>
<g id="a_node7"><a xlink:title=" ">
<polygon fill="white" stroke="#bfbfbf" points="1902.5,-168.5 1902.5,-187.5 1958.5,-187.5 1958.5,-168.5 1902.5,-168.5"/>
<text text-anchor="middle" x="1930.5" y="-175.5" font-family="Helvetica,sans-Serif" font-size="10.00">algorithm</text>
</a>
</g>
</g>
<!-- Node1&#45;&gt;Node7 -->
<g id="edge85" class="edge">
<title>Node1&#45;&gt;Node7</title>
<path fill="none" stroke="midnightblue" d="M2045.58,-515.47C2030.22,-470.54 1958.53,-260.96 1936.78,-197.35"/>
<polygon fill="midnightblue" stroke="midnightblue" points="1939.97,-195.87 1933.42,-187.54 1933.35,-198.13 1939.97,-195.87"/>
</g>
<!-- Node40 -->
<g id="node40" class="node">
<title>Node40</title>
<g id="a_node40"><a xlink:title=" ">
<polygon fill="white" stroke="#bfbfbf" points="2052.5,-459.5 2052.5,-478.5 2092.5,-478.5 2092.5,-459.5 2052.5,-459.5"/>
<text text-anchor="middle" x="2072.5" y="-466.5" font-family="Helvetica,sans-Serif" font-size="10.00">limits</text>
</a>
</g>
</g>
<!-- Node1&#45;&gt;Node40 -->
<g id="edge86" class="edge">
<title>Node1&#45;&gt;Node40</title>
<path fill="none" stroke="midnightblue" d="M2052.46,-515.08C2055.71,-507.77 2060.42,-497.18 2064.45,-488.1"/>
<polygon fill="midnightblue" stroke="midnightblue" points="2067.75,-489.31 2068.61,-478.75 2061.35,-486.47 2067.75,-489.31"/>
</g>
<!-- Node41 -->
<g id="node41" class="node">
<title>Node41</title>
<g id="a_node41"><a xlink:title=" ">
<polygon fill="white" stroke="#bfbfbf" points="2111,-459.5 2111,-478.5 2162,-478.5 2162,-459.5 2111,-459.5"/>
<text text-anchor="middle" x="2136.5" y="-466.5" font-family="Helvetica,sans-Serif" font-size="10.00">numeric</text>
</a>
</g>
</g>
<!-- Node1&#45;&gt;Node41 -->
<g id="edge87" class="edge">
<title>Node1&#45;&gt;Node41</title>
<path fill="none" stroke="midnightblue" d="M2062.64,-515.32C2076.37,-506.9 2097.44,-493.97 2113.56,-484.07"/>
<polygon fill="midnightblue" stroke="midnightblue" points="2115.7,-486.87 2122.4,-478.65 2112.04,-480.9 2115.7,-486.87"/>
</g>
<!-- Node3 -->
<g id="node3" class="node">
<title>Node3</title>
<g id="a_node3"><a xlink:title=" ">
<polygon fill="white" stroke="#bfbfbf" points="1185,-342 1185,-361 1258,-361 1258,-342 1185,-342"/>
<text text-anchor="middle" x="1221.5" y="-349" font-family="Helvetica,sans-Serif" font-size="10.00">initializer_list</text>
</a>
</g>
</g>
<!-- Node2&#45;&gt;Node3 -->
<g id="edge2" class="edge">
<title>Node2&#45;&gt;Node3</title>
<path fill="none" stroke="midnightblue" d="M1281.61,-459.32C1270.98,-440.42 1245.56,-395.25 1231.42,-370.12"/>
<polygon fill="midnightblue" stroke="midnightblue" points="1234.4,-368.28 1226.44,-361.28 1228.3,-371.71 1234.4,-368.28"/>
</g>
<!-- Node4 -->
<g id="node4" class="node">
<title>Node4</title>
<g id="a_node4"><a xlink:title=" ">
<polygon fill="white" stroke="#bfbfbf" points="1648.5,-56.5 1648.5,-75.5 1710.5,-75.5 1710.5,-56.5 1648.5,-56.5"/>
<text text-anchor="middle" x="1679.5" y="-63.5" font-family="Helvetica,sans-Serif" font-size="10.00">type_traits</text>
</a>
</g>
</g>
<!-- Node2&#45;&gt;Node4 -->
<g id="edge3" class="edge">
<title>Node2&#45;&gt;Node4</title>
<path fill="none" stroke="midnightblue" d="M1376.26,-465.24C1572.93,-456.76 2024.5,-422.92 2024.5,-291 2024.5,-291 2024.5,-291 2024.5,-177 2024.5,-113.89 1812.32,-82.12 1720.76,-71.34"/>
<polygon fill="midnightblue" stroke="midnightblue" points="1721.06,-67.85 1710.72,-70.19 1720.26,-74.81 1721.06,-67.85"/>
</g>
<!-- Node5 -->
<g id="node5" class="node">
<title>Node5</title>
<g id="a_node5"><a xlink:title=" ">
<polygon fill="white" stroke="#bfbfbf" points="702.5,-224.5 702.5,-243.5 746.5,-243.5 746.5,-224.5 702.5,-224.5"/>
<text text-anchor="middle" x="724.5" y="-231.5" font-family="Helvetica,sans-Serif" font-size="10.00">vector</text>
</a>
</g>
</g>
<!-- Node2&#45;&gt;Node5 -->
<g id="edge4" class="edge">
<title>Node2&#45;&gt;Node5</title>
<path fill="none" stroke="midnightblue" d="M1288.19,-459.47C1292.27,-436.14 1300.01,-370.66 1266.5,-336 1230.49,-298.75 867.69,-252.26 756.63,-238.81"/>
<polygon fill="midnightblue" stroke="midnightblue" points="757.04,-235.33 746.69,-237.61 756.2,-242.28 757.04,-235.33"/>
</g>
<!-- Node6 -->
<g id="node6" class="node">
<title>Node6</title>
<g id="a_node6"><a xlink:href="ErrorManager_8h.html" target="_top" xlink:title="Definition of the ErrorManager class responsible for error registration and throwing.">
<polygon fill="white" stroke="black" points="744,-403.5 744,-422.5 887,-422.5 887,-403.5 744,-403.5"/>
<text text-anchor="middle" x="815.5" y="-410.5" font-family="Helvetica,sans-Serif" font-size="10.00">LLU/ErrorLog/ErrorManager.h</text>
</a>
</g>
</g>
<!-- Node2&#45;&gt;Node6 -->
<g id="edge5" class="edge">
<title>Node2&#45;&gt;Node6</title>
<path fill="none" stroke="midnightblue" d="M1212.13,-459.47C1126.39,-449.64 985.9,-433.54 897.19,-423.37"/>
<polygon fill="midnightblue" stroke="midnightblue" points="897.5,-419.88 887.17,-422.22 896.7,-426.83 897.5,-419.88"/>
</g>
<!-- Node19 -->
<g id="node19" class="node">
<title>Node19</title>
<g id="a_node19"><a xlink:href="Utilities_8hpp.html" target="_top" xlink:title="Short but generally useful functions.">
<polygon fill="white" stroke="black" points="1462,-112.5 1462,-131.5 1551,-131.5 1551,-112.5 1462,-112.5"/>
<text text-anchor="middle" x="1506.5" y="-119.5" font-family="Helvetica,sans-Serif" font-size="10.00">LLU/Utilities.hpp</text>
</a>
</g>
</g>
<!-- Node2&#45;&gt;Node19 -->
<g id="edge84" class="edge">
<title>Node2&#45;&gt;Node19</title>
<path fill="none" stroke="midnightblue" d="M1376.07,-464.26C1532.82,-452.11 1851.25,-401.07 1967.5,-188 1971.76,-180.2 1973.47,-174.58 1967.5,-168 1940.65,-138.41 1677.62,-127.64 1561.32,-124.3"/>
<polygon fill="midnightblue" stroke="midnightblue" points="1561.3,-120.8 1551.21,-124.02 1561.1,-127.8 1561.3,-120.8"/>
</g>
<!-- Node23 -->
<g id="node23" class="node">
<title>Node23</title>
<g id="a_node23"><a xlink:href="LibraryData_8h.html" target="_top" xlink:title=" ">
<polygon fill="white" stroke="black" points="474.5,-56.5 474.5,-75.5 570.5,-75.5 570.5,-56.5 474.5,-56.5"/>
<text text-anchor="middle" x="522.5" y="-63.5" font-family="Helvetica,sans-Serif" font-size="10.00">LLU/LibraryData.h</text>
</a>
</g>
</g>
<!-- Node2&#45;&gt;Node23 -->
<g id="edge83" class="edge">
<title>Node2&#45;&gt;Node23</title>
<path fill="none" stroke="midnightblue" d="M1196.83,-464.34C987.56,-454.61 484.5,-423.8 484.5,-352.5 484.5,-352.5 484.5,-352.5 484.5,-177 484.5,-142.81 501.1,-105.76 512.36,-84.57"/>
<polygon fill="midnightblue" stroke="midnightblue" points="515.45,-86.22 517.22,-75.77 509.32,-82.83 515.45,-86.22"/>
</g>
<!-- Node6&#45;&gt;Node3 -->
<g id="edge7" class="edge">
<title>Node6&#45;&gt;Node3</title>
<path fill="none" stroke="midnightblue" d="M887.08,-406.13C959.14,-399.46 1073.26,-386.87 1170.5,-367 1175.04,-366.07 1179.76,-364.95 1184.42,-363.75"/>
<polygon fill="midnightblue" stroke="midnightblue" points="1185.7,-367.02 1194.43,-361.02 1183.86,-360.27 1185.7,-367.02"/>
</g>
<!-- Node6&#45;&gt;Node5 -->
<g id="edge11" class="edge">
<title>Node6&#45;&gt;Node5</title>
<path fill="none" stroke="midnightblue" d="M791.84,-403.46C775.54,-396.3 754.85,-384.41 743.5,-367 720.71,-332.04 720.6,-280.87 722.52,-253.65"/>
<polygon fill="midnightblue" stroke="midnightblue" points="726.02,-253.84 723.41,-243.57 719.05,-253.22 726.02,-253.84"/>
</g>
<!-- Node6&#45;&gt;Node7 -->
<g id="edge6" class="edge">
<title>Node6&#45;&gt;Node7</title>
<path fill="none" stroke="midnightblue" d="M851.08,-403.47C915.49,-388.26 1055.82,-356.16 1175.5,-336 1474.07,-285.72 1573.12,-365.37 1850.5,-244 1876.23,-232.74 1900.48,-210.86 1915.39,-195.61"/>
<polygon fill="midnightblue" stroke="midnightblue" points="1918.33,-197.6 1922.67,-187.93 1913.25,-192.78 1918.33,-197.6"/>
</g>
<!-- Node8 -->
<g id="node8" class="node">
<title>Node8</title>
<g id="a_node8"><a xlink:title=" ">
<polygon fill="white" stroke="#bfbfbf" points="793,-56.5 793,-75.5 834,-75.5 834,-56.5 793,-56.5"/>
<text text-anchor="middle" x="813.5" y="-63.5" font-family="Helvetica,sans-Serif" font-size="10.00">string</text>
</a>
</g>
</g>
<!-- Node6&#45;&gt;Node8 -->
<g id="edge8" class="edge">
<title>Node6&#45;&gt;Node8</title>
<path fill="none" stroke="midnightblue" d="M743.79,-407.89C668.37,-399.23 560.5,-372.59 560.5,-291 560.5,-291 560.5,-291 560.5,-177 560.5,-81.07 715.36,-67.92 782.77,-66.73"/>
<polygon fill="midnightblue" stroke="midnightblue" points="782.83,-70.23 792.8,-66.63 782.76,-63.23 782.83,-70.23"/>
</g>
<!-- Node9 -->
<g id="node9" class="node">
<title>Node9</title>
<g id="a_node9"><a xlink:title=" ">
<polygon fill="white" stroke="#bfbfbf" points="896,-342 896,-361 979,-361 979,-342 896,-342"/>
<text text-anchor="middle" x="937.5" y="-349" font-family="Helvetica,sans-Serif" font-size="10.00">unordered_map</text>
</a>
</g>
</g>
<!-- Node6&#45;&gt;Node9 -->
<g id="edge9" class="edge">
<title>Node6&#45;&gt;Node9</title>
<path fill="none" stroke="midnightblue" d="M832.98,-403.48C853.36,-393.53 887.28,-376.99 910.92,-365.46"/>
<polygon fill="midnightblue" stroke="midnightblue" points="912.6,-368.54 920.05,-361.01 909.53,-362.25 912.6,-368.54"/>
</g>
<!-- Node10 -->
<g id="node10" class="node">
<title>Node10</title>
<g id="a_node10"><a xlink:title=" ">
<polygon fill="white" stroke="#bfbfbf" points="901.5,-56.5 901.5,-75.5 941.5,-75.5 941.5,-56.5 901.5,-56.5"/>
<text text-anchor="middle" x="921.5" y="-63.5" font-family="Helvetica,sans-Serif" font-size="10.00">utility</text>
</a>
</g>
</g>
<!-- Node6&#45;&gt;Node10 -->
<g id="edge10" class="edge">
<title>Node6&#45;&gt;Node10</title>
<path fill="none" stroke="midnightblue" d="M789.97,-403.39C749.33,-387.88 674.5,-351.16 674.5,-291 674.5,-291 674.5,-291 674.5,-233 674.5,-129.73 825.07,-86.53 891.09,-72.55"/>
<polygon fill="midnightblue" stroke="midnightblue" points="892.18,-75.9 901.29,-70.48 890.79,-69.04 892.18,-75.9"/>
</g>
<!-- Node11 -->
<g id="node11" class="node">
<title>Node11</title>
<g id="a_node11"><a xlink:href="LibraryLinkError_8h.html" target="_top" xlink:title="Error class and error codes used by LibraryLink Utilities classes.">
<polygon fill="white" stroke="black" points="753,-336.5 753,-366.5 878,-366.5 878,-336.5 753,-336.5"/>
<text text-anchor="start" x="761" y="-354.5" font-family="Helvetica,sans-Serif" font-size="10.00">LLU/ErrorLog/LibraryLink</text>
<text text-anchor="middle" x="815.5" y="-343.5" font-family="Helvetica,sans-Serif" font-size="10.00">Error.h</text>
</a>
</g>
</g>
<!-- Node6&#45;&gt;Node11 -->
<g id="edge12" class="edge">
<title>Node6&#45;&gt;Node11</title>
<path fill="none" stroke="midnightblue" d="M815.5,-403.48C815.5,-396.47 815.5,-386.19 815.5,-376.7"/>
<polygon fill="midnightblue" stroke="midnightblue" points="819,-376.52 815.5,-366.52 812,-376.52 819,-376.52"/>
</g>
<!-- Node6&#45;&gt;Node23 -->
<g id="edge82" class="edge">
<title>Node6&#45;&gt;Node23</title>
<path fill="none" stroke="midnightblue" d="M743.82,-412.15C657.08,-408.12 522.5,-386.49 522.5,-291 522.5,-291 522.5,-291 522.5,-177 522.5,-144.95 522.5,-107.64 522.5,-85.75"/>
<polygon fill="midnightblue" stroke="midnightblue" points="526,-85.56 522.5,-75.56 519,-85.56 526,-85.56"/>
</g>
<!-- Node11&#45;&gt;Node8 -->
<g id="edge14" class="edge">
<title>Node11&#45;&gt;Node8</title>
<path fill="none" stroke="midnightblue" d="M791.35,-336.39C752.76,-312.04 679.58,-257.96 660.5,-188 650.56,-151.57 668.99,-135.56 698.5,-112 723.42,-92.1 758.21,-80.13 782.98,-73.6"/>
<polygon fill="midnightblue" stroke="midnightblue" points="784.07,-76.94 792.93,-71.12 782.38,-70.14 784.07,-76.94"/>
</g>
<!-- Node12 -->
<g id="node12" class="node">
<title>Node12</title>
<g id="a_node12"><a xlink:title=" ">
<polygon fill="white" stroke="#bfbfbf" points="786,-280.5 786,-299.5 845,-299.5 845,-280.5 786,-280.5"/>
<text text-anchor="middle" x="815.5" y="-287.5" font-family="Helvetica,sans-Serif" font-size="10.00">stdexcept</text>
</a>
</g>
</g>
<!-- Node11&#45;&gt;Node12 -->
<g id="edge13" class="edge">
<title>Node11&#45;&gt;Node12</title>
<path fill="none" stroke="midnightblue" d="M815.5,-336.4C815.5,-328.47 815.5,-318.46 815.5,-309.86"/>
<polygon fill="midnightblue" stroke="midnightblue" points="819,-309.66 815.5,-299.66 812,-309.66 819,-309.66"/>
</g>
<!-- Node13 -->
<g id="node13" class="node">
<title>Node13</title>
<g id="a_node13"><a xlink:href="WSStream_8hpp.html" target="_top" xlink:title="Header file for WSStream class.">
<polygon fill="white" stroke="black" points="1315,-280.5 1315,-299.5 1452,-299.5 1452,-280.5 1315,-280.5"/>
<text text-anchor="middle" x="1383.5" y="-287.5" font-family="Helvetica,sans-Serif" font-size="10.00">LLU/WSTP/WSStream.hpp</text>
</a>
</g>
</g>
<!-- Node11&#45;&gt;Node13 -->
<g id="edge15" class="edge">
<title>Node11&#45;&gt;Node13</title>
<path fill="none" stroke="midnightblue" d="M878.15,-337.31C880.97,-336.84 883.76,-336.4 886.5,-336 1033.45,-314.41 1206.46,-301.56 1304.73,-295.42"/>
<polygon fill="midnightblue" stroke="midnightblue" points="1305.12,-298.9 1314.88,-294.79 1304.69,-291.92 1305.12,-298.9"/>
</g>
<!-- Node13&#45;&gt;Node4 -->
<g id="edge20" class="edge">
<title>Node13&#45;&gt;Node4</title>
<path fill="none" stroke="midnightblue" d="M1452.25,-285.27C1518.45,-280.25 1612.28,-268.86 1638.5,-244 1682.9,-201.89 1683.55,-121.95 1681.26,-85.71"/>
<polygon fill="midnightblue" stroke="midnightblue" points="1684.74,-85.27 1680.47,-75.57 1677.76,-85.82 1684.74,-85.27"/>
</g>
<!-- Node13&#45;&gt;Node5 -->
<g id="edge22" class="edge">
<title>Node13&#45;&gt;Node5</title>
<path fill="none" stroke="midnightblue" d="M1314.68,-281.32C1309.88,-280.85 1305.12,-280.4 1300.5,-280 1060.88,-259.03 998.12,-281.32 760.5,-244 759.25,-243.8 757.97,-243.58 756.69,-243.35"/>
<polygon fill="midnightblue" stroke="midnightblue" points="757.35,-239.91 746.84,-241.24 755.89,-246.75 757.35,-239.91"/>
</g>
<!-- Node13&#45;&gt;Node7 -->
<g id="edge16" class="edge">
<title>Node13&#45;&gt;Node7</title>
<path fill="none" stroke="midnightblue" d="M1452.39,-285.26C1556.74,-279 1749.68,-265.02 1815.5,-244 1851.6,-232.47 1889.01,-208.75 1911,-193.37"/>
<polygon fill="midnightblue" stroke="midnightblue" points="1913.05,-196.2 1919.16,-187.55 1908.99,-190.5 1913.05,-196.2"/>
</g>
<!-- Node13&#45;&gt;Node10 -->
<g id="edge21" class="edge">
<title>Node13&#45;&gt;Node10</title>
<path fill="none" stroke="midnightblue" d="M1314.67,-281.45C1309.87,-280.95 1305.12,-280.46 1300.5,-280 1213.68,-271.3 987.61,-282.89 909.5,-244 843.13,-210.96 765.79,-173.3 807.5,-112 826.1,-84.67 864.11,-73.94 891.13,-69.72"/>
<polygon fill="midnightblue" stroke="midnightblue" points="891.79,-73.17 901.23,-68.37 890.85,-66.23 891.79,-73.17"/>
</g>
<!-- Node14 -->
<g id="node14" class="node">
<title>Node14</title>
<g id="a_node14"><a xlink:title=" ">
<polygon fill="white" stroke="#bfbfbf" points="1046,-224.5 1046,-243.5 1093,-243.5 1093,-224.5 1046,-224.5"/>
<text text-anchor="middle" x="1069.5" y="-231.5" font-family="Helvetica,sans-Serif" font-size="10.00">iterator</text>
</a>
</g>
</g>
<!-- Node13&#45;&gt;Node14 -->
<g id="edge17" class="edge">
<title>Node13&#45;&gt;Node14</title>
<path fill="none" stroke="midnightblue" d="M1316.14,-280.49C1261.1,-273.02 1181.14,-261.02 1103.18,-244.18"/>
<polygon fill="midnightblue" stroke="midnightblue" points="1103.71,-240.71 1093.19,-241.99 1102.21,-247.55 1103.71,-240.71"/>
</g>
<!-- Node15 -->
<g id="node15" class="node">
<title>Node15</title>
<g id="a_node15"><a xlink:title=" ">
<polygon fill="white" stroke="#bfbfbf" points="1111,-224.5 1111,-243.5 1146,-243.5 1146,-224.5 1111,-224.5"/>
<text text-anchor="middle" x="1128.5" y="-231.5" font-family="Helvetica,sans-Serif" font-size="10.00">map</text>
</a>
</g>
</g>
<!-- Node13&#45;&gt;Node15 -->
<g id="edge18" class="edge">
<title>Node13&#45;&gt;Node15</title>
<path fill="none" stroke="midnightblue" d="M1330.08,-280.43C1285.87,-272.89 1221.28,-260.86 1156.15,-243.88"/>
<polygon fill="midnightblue" stroke="midnightblue" points="1156.68,-240.4 1146.12,-241.23 1154.89,-247.17 1156.68,-240.4"/>
</g>
<!-- Node16 -->
<g id="node16" class="node">
<title>Node16</title>
<g id="a_node16"><a xlink:title=" ">
<polygon fill="white" stroke="#bfbfbf" points="1589,-224.5 1589,-243.5 1630,-243.5 1630,-224.5 1589,-224.5"/>
<text text-anchor="middle" x="1609.5" y="-231.5" font-family="Helvetica,sans-Serif" font-size="10.00">stack</text>
</a>
</g>
</g>
<!-- Node13&#45;&gt;Node16 -->
<g id="edge19" class="edge">
<title>Node13&#45;&gt;Node16</title>
<path fill="none" stroke="midnightblue" d="M1420.88,-280.43C1459.43,-271.54 1521.24,-257.12 1574.5,-244 1575.95,-243.64 1577.43,-243.28 1578.92,-242.9"/>
<polygon fill="midnightblue" stroke="midnightblue" points="1579.96,-246.25 1588.79,-240.4 1578.24,-239.46 1579.96,-246.25"/>
</g>
<!-- Node17 -->
<g id="node17" class="node">
<title>Node17</title>
<g id="a_node17"><a xlink:title=" ">
<polygon fill="white" stroke="#bfbfbf" points="1330.5,-0.5 1330.5,-19.5 1376.5,-19.5 1376.5,-0.5 1330.5,-0.5"/>
<text text-anchor="middle" x="1353.5" y="-7.5" font-family="Helvetica,sans-Serif" font-size="10.00">wstp.h</text>
</a>
</g>
</g>
<!-- Node13&#45;&gt;Node17 -->
<g id="edge23" class="edge">
<title>Node13&#45;&gt;Node17</title>
<path fill="none" stroke="midnightblue" d="M1452.24,-284.95C1590.69,-275.14 1887.39,-244.98 1855.5,-168 1828.56,-102.96 1806.88,-86.63 1743.5,-56 1680.67,-25.64 1468.82,-15.06 1386.55,-12.04"/>
<polygon fill="midnightblue" stroke="midnightblue" points="1386.62,-8.54 1376.5,-11.68 1386.37,-15.53 1386.62,-8.54"/>
</g>
<!-- Node18 -->
<g id="node18" class="node">
<title>Node18</title>
<g id="a_node18"><a xlink:href="Errors_8h.html" target="_top" xlink:title="Definitions of error names and error codes used across LLU.">
<polygon fill="white" stroke="black" points="816.5,-112.5 816.5,-131.5 928.5,-131.5 928.5,-112.5 816.5,-112.5"/>
<text text-anchor="middle" x="872.5" y="-119.5" font-family="Helvetica,sans-Serif" font-size="10.00">LLU/ErrorLog/Errors.h</text>
</a>
</g>
</g>
<!-- Node13&#45;&gt;Node18 -->
<g id="edge24" class="edge">
<title>Node13&#45;&gt;Node18</title>
<path fill="none" stroke="midnightblue" d="M1314.85,-281.35C1217.83,-270.4 1049.25,-250.84 1021.5,-244 952.81,-227.07 912.77,-246.16 872.5,-188 863.27,-174.68 864.4,-155.85 867.17,-141.88"/>
<polygon fill="midnightblue" stroke="midnightblue" points="870.63,-142.46 869.57,-131.92 863.82,-140.82 870.63,-142.46"/>
</g>
<!-- Node13&#45;&gt;Node19 -->
<g id="edge26" class="edge">
<title>Node13&#45;&gt;Node19</title>
<path fill="none" stroke="midnightblue" d="M1428.25,-280.43C1453.18,-273.83 1483.53,-262.6 1505.5,-244 1533.47,-220.32 1548.39,-203 1537.5,-168 1534.27,-157.62 1527.72,-147.52 1521.48,-139.53"/>
<polygon fill="midnightblue" stroke="midnightblue" points="1524.08,-137.19 1514.98,-131.77 1518.71,-141.68 1524.08,-137.19"/>
</g>
<!-- Node31 -->
<g id="node31" class="node">
<title>Node31</title>
<g id="a_node31"><a xlink:href="Get_8h.html" target="_top" xlink:title="Header file with classes related to reading data from WSTP.">
<polygon fill="white" stroke="black" points="1164.5,-224.5 1164.5,-243.5 1258.5,-243.5 1258.5,-224.5 1164.5,-224.5"/>
<text text-anchor="middle" x="1211.5" y="-231.5" font-family="Helvetica,sans-Serif" font-size="10.00">LLU/WSTP/Get.h</text>
</a>
</g>
</g>
<!-- Node13&#45;&gt;Node31 -->
<g id="edge41" class="edge">
<title>Node13&#45;&gt;Node31</title>
<path fill="none" stroke="midnightblue" d="M1356.25,-280.44C1327.06,-271.28 1280.58,-256.69 1248.19,-246.52"/>
<polygon fill="midnightblue" stroke="midnightblue" points="1249.22,-243.17 1238.63,-243.52 1247.12,-249.85 1249.22,-243.17"/>
</g>
<!-- Node34 -->
<g id="node34" class="node">
<title>Node34</title>
<g id="a_node34"><a xlink:href="WSTP_2Utilities_8h.html" target="_top" xlink:title="Header file with miscellaneous utilities used throughout the WSTP&#45;related part of LibraryLinkUtilitie...">
<polygon fill="white" stroke="black" points="969,-168.5 969,-187.5 1080,-187.5 1080,-168.5 969,-168.5"/>
<text text-anchor="middle" x="1024.5" y="-175.5" font-family="Helvetica,sans-Serif" font-size="10.00">LLU/WSTP/Utilities.h</text>
</a>
</g>
</g>
<!-- Node13&#45;&gt;Node34 -->
<g id="edge77" class="edge">
<title>Node13&#45;&gt;Node34</title>
<path fill="none" stroke="midnightblue" d="M1314.95,-281.13C1215.26,-269.55 1041.52,-248.76 1036.5,-244 1024.16,-232.3 1022.08,-212.36 1022.53,-197.64"/>
<polygon fill="midnightblue" stroke="midnightblue" points="1026.02,-197.85 1023.23,-187.63 1019.04,-197.36 1026.02,-197.85"/>
</g>
<!-- Node37 -->
<g id="node37" class="node">
<title>Node37</title>
<g id="a_node37"><a xlink:href="Put_8h.html" target="_top" xlink:title="Header file with classes related to sending data through WSTP.">
<polygon fill="white" stroke="black" points="1277,-224.5 1277,-243.5 1370,-243.5 1370,-224.5 1277,-224.5"/>
<text text-anchor="middle" x="1323.5" y="-231.5" font-family="Helvetica,sans-Serif" font-size="10.00">LLU/WSTP/Put.h</text>
</a>
</g>
</g>
<!-- Node13&#45;&gt;Node37 -->
<g id="edge62" class="edge">
<title>Node13&#45;&gt;Node37</title>
<path fill="none" stroke="midnightblue" d="M1373.86,-280.32C1364.99,-272.34 1351.63,-260.31 1340.89,-250.65"/>
<polygon fill="midnightblue" stroke="midnightblue" points="1343.09,-247.92 1333.32,-243.83 1338.41,-253.13 1343.09,-247.92"/>
</g>
<!-- Node38 -->
<g id="node38" class="node">
<title>Node38</title>
<g id="a_node38"><a xlink:href="Strings_8h.html" target="_top" xlink:title="Definitions of multiple structures and type aliases related to string handling in WSTP.">
<polygon fill="white" stroke="black" points="1388,-224.5 1388,-243.5 1497,-243.5 1497,-224.5 1388,-224.5"/>
<text text-anchor="middle" x="1442.5" y="-231.5" font-family="Helvetica,sans-Serif" font-size="10.00">LLU/WSTP/Strings.h</text>
</a>
</g>
</g>
<!-- Node13&#45;&gt;Node38 -->
<g id="edge68" class="edge">
<title>Node13&#45;&gt;Node38</title>
<path fill="none" stroke="midnightblue" d="M1392.98,-280.32C1401.7,-272.34 1414.84,-260.31 1425.4,-250.65"/>
<polygon fill="midnightblue" stroke="midnightblue" points="1427.83,-253.17 1432.85,-243.83 1423.11,-248 1427.83,-253.17"/>
</g>
<!-- Node39 -->
<g id="node39" class="node">
<title>Node39</title>
<g id="a_node39"><a xlink:href="UtilityTypeTraits_8hpp.html" target="_top" xlink:title="Type traits used by WSStream to identify types supported by WSTP.">
<polygon fill="white" stroke="black" points="1686.5,-168.5 1686.5,-187.5 1846.5,-187.5 1846.5,-168.5 1686.5,-168.5"/>
<text text-anchor="middle" x="1766.5" y="-175.5" font-family="Helvetica,sans-Serif" font-size="10.00">LLU/WSTP/UtilityTypeTraits.hpp</text>
</a>
</g>
</g>
<!-- Node13&#45;&gt;Node39 -->
<g id="edge78" class="edge">
<title>Node13&#45;&gt;Node39</title>
<path fill="none" stroke="midnightblue" d="M1452.05,-286.94C1512.08,-283.14 1600.7,-272.66 1672.5,-244 1702.11,-232.18 1731.59,-209.59 1749.43,-194.4"/>
<polygon fill="midnightblue" stroke="midnightblue" points="1751.97,-196.83 1757.2,-187.62 1747.37,-191.56 1751.97,-196.83"/>
</g>
<!-- Node18&#45;&gt;Node8 -->
<g id="edge25" class="edge">
<title>Node18&#45;&gt;Node8</title>
<path fill="none" stroke="midnightblue" d="M863.02,-112.32C854.3,-104.34 841.16,-92.31 830.6,-82.65"/>
<polygon fill="midnightblue" stroke="midnightblue" points="832.89,-80 823.15,-75.83 828.17,-85.17 832.89,-80"/>
</g>
<!-- Node19&#45;&gt;Node4 -->
<g id="edge29" class="edge">
<title>Node19&#45;&gt;Node4</title>
<path fill="none" stroke="midnightblue" d="M1533.91,-112.44C1563.27,-103.28 1610.02,-88.69 1642.6,-78.52"/>
<polygon fill="midnightblue" stroke="midnightblue" points="1643.71,-81.84 1652.22,-75.52 1641.63,-75.16 1643.71,-81.84"/>
</g>
<!-- Node19&#45;&gt;Node10 -->
<g id="edge30" class="edge">
<title>Node19&#45;&gt;Node10</title>
<path fill="none" stroke="midnightblue" d="M1461.57,-116.85C1347.31,-106.31 1047.94,-78.67 951.74,-69.79"/>
<polygon fill="midnightblue" stroke="midnightblue" points="951.82,-66.28 941.54,-68.85 951.18,-73.25 951.82,-66.28"/>
</g>
<!-- Node20 -->
<g id="node20" class="node">
<title>Node20</title>
<g id="a_node20"><a xlink:title=" ">
<polygon fill="white" stroke="#bfbfbf" points="1475,-56.5 1475,-75.5 1528,-75.5 1528,-56.5 1475,-56.5"/>
<text text-anchor="middle" x="1501.5" y="-63.5" font-family="Helvetica,sans-Serif" font-size="10.00">complex</text>
</a>
</g>
</g>
<!-- Node19&#45;&gt;Node20 -->
<g id="edge27" class="edge">
<title>Node19&#45;&gt;Node20</title>
<path fill="none" stroke="midnightblue" d="M1505.67,-112.08C1505.02,-105.01 1504.08,-94.86 1503.26,-85.99"/>
<polygon fill="midnightblue" stroke="midnightblue" points="1506.72,-85.39 1502.31,-75.75 1499.75,-86.03 1506.72,-85.39"/>
</g>
<!-- Node21 -->
<g id="node21" class="node">
<title>Node21</title>
<g id="a_node21"><a xlink:title=" ">
<polygon fill="white" stroke="#bfbfbf" points="1410.5,-56.5 1410.5,-75.5 1456.5,-75.5 1456.5,-56.5 1410.5,-56.5"/>
<text text-anchor="middle" x="1433.5" y="-63.5" font-family="Helvetica,sans-Serif" font-size="10.00">cstdint</text>
</a>
</g>
</g>
<!-- Node19&#45;&gt;Node21 -->
<g id="edge28" class="edge">
<title>Node19&#45;&gt;Node21</title>
<path fill="none" stroke="midnightblue" d="M1494.77,-112.32C1483.66,-104.11 1466.76,-91.6 1453.52,-81.81"/>
<polygon fill="midnightblue" stroke="midnightblue" points="1455.56,-78.97 1445.44,-75.83 1451.4,-84.59 1455.56,-78.97"/>
</g>
<!-- Node22 -->
<g id="node22" class="node">
<title>Node22</title>
<g id="a_node22"><a xlink:title=" ">
<polygon fill="white" stroke="#bfbfbf" points="1546.5,-56.5 1546.5,-75.5 1592.5,-75.5 1592.5,-56.5 1546.5,-56.5"/>
<text text-anchor="middle" x="1569.5" y="-63.5" font-family="Helvetica,sans-Serif" font-size="10.00">variant</text>
</a>
</g>
</g>
<!-- Node19&#45;&gt;Node22 -->
<g id="edge31" class="edge">
<title>Node19&#45;&gt;Node22</title>
<path fill="none" stroke="midnightblue" d="M1516.62,-112.32C1526.03,-104.26 1540.24,-92.08 1551.57,-82.37"/>
<polygon fill="midnightblue" stroke="midnightblue" points="1553.88,-85 1559.19,-75.83 1549.32,-79.68 1553.88,-85"/>
</g>
<!-- Node19&#45;&gt;Node23 -->
<g id="edge32" class="edge">
<title>Node19&#45;&gt;Node23</title>
<path fill="none" stroke="midnightblue" d="M1461.74,-118.05C1433.79,-116.23 1397.05,-113.9 1364.5,-112 1070.38,-94.82 718.32,-76.84 581.19,-69.94"/>
<polygon fill="midnightblue" stroke="midnightblue" points="581.08,-66.43 570.92,-69.42 580.73,-73.42 581.08,-66.43"/>
</g>
<!-- Node23&#45;&gt;Node17 -->
<g id="edge35" class="edge">
<title>Node23&#45;&gt;Node17</title>
<path fill="none" stroke="midnightblue" d="M570.54,-60.4C587.01,-58.9 605.55,-57.28 622.5,-56 891.59,-35.61 1216.94,-18.1 1320.31,-12.71"/>
<polygon fill="midnightblue" stroke="midnightblue" points="1320.63,-16.2 1330.44,-12.18 1320.27,-9.21 1320.63,-16.2"/>
</g>
<!-- Node24 -->
<g id="node24" class="node">
<title>Node24</title>
<g id="a_node24"><a xlink:title=" ">
<polygon fill="white" stroke="#bfbfbf" points="788.5,-0.5 788.5,-19.5 840.5,-19.5 840.5,-0.5 788.5,-0.5"/>
<text text-anchor="middle" x="814.5" y="-7.5" font-family="Helvetica,sans-Serif" font-size="10.00">memory</text>
</a>
</g>
</g>
<!-- Node23&#45;&gt;Node24 -->
<g id="edge33" class="edge">
<title>Node23&#45;&gt;Node24</title>
<path fill="none" stroke="midnightblue" d="M570.82,-57.55C620.32,-49.69 699.71,-36.44 778.15,-19.94"/>
<polygon fill="midnightblue" stroke="midnightblue" points="779.15,-23.3 788.2,-17.8 777.7,-16.46 779.15,-23.3"/>
</g>
<!-- Node25 -->
<g id="node25" class="node">
<title>Node25</title>
<g id="a_node25"><a xlink:title=" ">
<polygon fill="white" stroke="#bfbfbf" points="600.5,-0.5 600.5,-19.5 662.5,-19.5 662.5,-0.5 600.5,-0.5"/>
<text text-anchor="middle" x="631.5" y="-7.5" font-family="Helvetica,sans-Serif" font-size="10.00">dllexport.h</text>
</a>
</g>
</g>
<!-- Node23&#45;&gt;Node25 -->
<g id="edge34" class="edge">
<title>Node23&#45;&gt;Node25</title>
<path fill="none" stroke="midnightblue" d="M540.01,-56.32C557.57,-47.62 584.83,-34.12 605.03,-24.11"/>
<polygon fill="midnightblue" stroke="midnightblue" points="606.62,-27.23 614.03,-19.65 603.52,-20.96 606.62,-27.23"/>
</g>
<!-- Node26 -->
<g id="node26" class="node">
<title>Node26</title>
<g id="a_node26"><a xlink:title=" ">
<polygon fill="white" stroke="#bfbfbf" points="681,-0.5 681,-19.5 770,-19.5 770,-0.5 681,-0.5"/>
<text text-anchor="middle" x="725.5" y="-7.5" font-family="Helvetica,sans-Serif" font-size="10.00">WolframLibrary.h</text>
</a>
</g>
</g>
<!-- Node23&#45;&gt;Node26 -->
<g id="edge36" class="edge">
<title>Node23&#45;&gt;Node26</title>
<path fill="none" stroke="midnightblue" d="M554.67,-56.44C589.56,-47.16 645.39,-32.31 683.67,-22.13"/>
<polygon fill="midnightblue" stroke="midnightblue" points="684.72,-25.47 693.48,-19.52 682.92,-18.7 684.72,-25.47"/>
</g>
<!-- Node27 -->
<g id="node27" class="node">
<title>Node27</title>
<g id="a_node27"><a xlink:title=" ">
<polygon fill="white" stroke="#bfbfbf" points="0,-0.5 0,-19.5 143,-19.5 143,-0.5 0,-0.5"/>
<text text-anchor="middle" x="71.5" y="-7.5" font-family="Helvetica,sans-Serif" font-size="10.00">WolframIOLibraryFunctions.h</text>
</a>
</g>
</g>
<!-- Node23&#45;&gt;Node27 -->
<g id="edge37" class="edge">
<title>Node23&#45;&gt;Node27</title>
<path fill="none" stroke="midnightblue" d="M474.24,-59.22C397.39,-50.02 246.36,-31.94 152.67,-20.72"/>
<polygon fill="midnightblue" stroke="midnightblue" points="153,-17.23 142.66,-19.52 152.17,-24.18 153,-17.23"/>
</g>
<!-- Node28 -->
<g id="node28" class="node">
<title>Node28</title>
<g id="a_node28"><a xlink:title=" ">
<polygon fill="white" stroke="#bfbfbf" points="161.5,-0.5 161.5,-19.5 277.5,-19.5 277.5,-0.5 161.5,-0.5"/>
<text text-anchor="middle" x="219.5" y="-7.5" font-family="Helvetica,sans-Serif" font-size="10.00">WolframImageLibrary.h</text>
</a>
</g>
</g>
<!-- Node23&#45;&gt;Node28 -->
<g id="edge38" class="edge">
<title>Node23&#45;&gt;Node28</title>
<path fill="none" stroke="midnightblue" d="M474.49,-56.44C420.97,-46.9 334.43,-31.48 277.26,-21.29"/>
<polygon fill="midnightblue" stroke="midnightblue" points="277.75,-17.83 267.29,-19.52 276.52,-24.72 277.75,-17.83"/>
</g>
<!-- Node29 -->
<g id="node29" class="node">
<title>Node29</title>
<g id="a_node29"><a xlink:title=" ">
<polygon fill="white" stroke="#bfbfbf" points="296,-0.5 296,-19.5 445,-19.5 445,-0.5 296,-0.5"/>
<text text-anchor="middle" x="370.5" y="-7.5" font-family="Helvetica,sans-Serif" font-size="10.00">WolframNumericArrayLibrary.h</text>
</a>
</g>
</g>
<!-- Node23&#45;&gt;Node29 -->
<g id="edge39" class="edge">
<title>Node23&#45;&gt;Node29</title>
<path fill="none" stroke="midnightblue" d="M498.42,-56.44C472.96,-47.4 432.61,-33.06 404.04,-22.92"/>
<polygon fill="midnightblue" stroke="midnightblue" points="405.07,-19.57 394.47,-19.52 402.72,-26.16 405.07,-19.57"/>
</g>
<!-- Node30 -->
<g id="node30" class="node">
<title>Node30</title>
<g id="a_node30"><a xlink:title=" ">
<polygon fill="white" stroke="#bfbfbf" points="463,-0.5 463,-19.5 582,-19.5 582,-0.5 463,-0.5"/>
<text text-anchor="middle" x="522.5" y="-7.5" font-family="Helvetica,sans-Serif" font-size="10.00">WolframSparseLibrary.h</text>
</a>
</g>
</g>
<!-- Node23&#45;&gt;Node30 -->
<g id="edge40" class="edge">
<title>Node23&#45;&gt;Node30</title>
<path fill="none" stroke="midnightblue" d="M522.5,-56.08C522.5,-49.01 522.5,-38.86 522.5,-29.99"/>
<polygon fill="midnightblue" stroke="midnightblue" points="526,-29.75 522.5,-19.75 519,-29.75 526,-29.75"/>
</g>
<!-- Node31&#45;&gt;Node8 -->
<g id="edge44" class="edge">
<title>Node31&#45;&gt;Node8</title>
<path fill="none" stroke="midnightblue" d="M1164.24,-225.43C1160.94,-224.93 1157.67,-224.45 1154.5,-224 1029.42,-206.15 987.92,-239.41 872.5,-188 837.67,-172.48 823.39,-166.66 807.5,-132 800.79,-117.37 803.37,-98.96 807,-85.48"/>
<polygon fill="midnightblue" stroke="midnightblue" points="810.36,-86.47 809.98,-75.88 803.67,-84.4 810.36,-86.47"/>
</g>
<!-- Node31&#45;&gt;Node17 -->
<g id="edge45" class="edge">
<title>Node31&#45;&gt;Node17</title>
<path fill="none" stroke="midnightblue" d="M1164.25,-225.37C1160.95,-224.89 1157.68,-224.43 1154.5,-224 1082.92,-214.37 891.86,-227.66 831.5,-188 779.33,-153.72 741.13,-101.85 783.5,-56 820.05,-16.46 1204.11,-11.62 1320.35,-11.06"/>
<polygon fill="midnightblue" stroke="midnightblue" points="1320.45,-14.56 1330.44,-11.02 1320.42,-7.56 1320.45,-14.56"/>
</g>
<!-- Node31&#45;&gt;Node18 -->
<g id="edge46" class="edge">
<title>Node31&#45;&gt;Node18</title>
<path fill="none" stroke="midnightblue" d="M1164.23,-225.45C1160.94,-224.95 1157.67,-224.47 1154.5,-224 1095.48,-215.35 932.87,-227.87 888.5,-188 875.69,-176.49 872.35,-156.52 871.81,-141.74"/>
<polygon fill="midnightblue" stroke="midnightblue" points="875.31,-141.69 871.83,-131.68 868.31,-141.67 875.31,-141.69"/>
</g>
<!-- Node31&#45;&gt;Node19 -->
<g id="edge47" class="edge">
<title>Node31&#45;&gt;Node19</title>
<path fill="none" stroke="midnightblue" d="M1234.65,-224.37C1286.89,-204.89 1414.03,-157.48 1474.08,-135.09"/>
<polygon fill="midnightblue" stroke="midnightblue" points="1475.31,-138.36 1483.46,-131.59 1472.87,-131.81 1475.31,-138.36"/>
</g>
<!-- Node31&#45;&gt;Node24 -->
<g id="edge43" class="edge">
<title>Node31&#45;&gt;Node24</title>
<path fill="none" stroke="midnightblue" d="M1164.25,-225.33C1160.95,-224.86 1157.68,-224.41 1154.5,-224 1076.31,-213.85 869.21,-228.41 801.5,-188 749.48,-156.95 741.74,-110.83 767.5,-56 773.15,-43.98 783.52,-33.51 793.09,-25.7"/>
<polygon fill="midnightblue" stroke="midnightblue" points="795.32,-28.4 801.15,-19.55 791.07,-22.83 795.32,-28.4"/>
</g>
<!-- Node32 -->
<g id="node32" class="node">
<title>Node32</title>
<g id="a_node32"><a xlink:title=" ">
<polygon fill="white" stroke="#bfbfbf" points="1297,-112.5 1297,-131.5 1356,-131.5 1356,-112.5 1297,-112.5"/>
<text text-anchor="middle" x="1326.5" y="-119.5" font-family="Helvetica,sans-Serif" font-size="10.00">functional</text>
</a>
</g>
</g>
<!-- Node31&#45;&gt;Node32 -->
<g id="edge42" class="edge">
<title>Node31&#45;&gt;Node32</title>
<path fill="none" stroke="midnightblue" d="M1197.77,-224.46C1179.31,-211.91 1150.46,-187.82 1165.5,-168 1180.13,-148.72 1244.01,-135.47 1286.77,-128.57"/>
<polygon fill="midnightblue" stroke="midnightblue" points="1287.54,-131.99 1296.88,-126.99 1286.46,-125.07 1287.54,-131.99"/>
</g>
<!-- Node33 -->
<g id="node33" class="node">
<title>Node33</title>
<g id="a_node33"><a xlink:href="Release_8h.html" target="_top" xlink:title="Header file with classes responsible for releasing memory allocated by WSTP when receiving data.">
<polygon fill="white" stroke="black" points="1174.5,-168.5 1174.5,-187.5 1288.5,-187.5 1288.5,-168.5 1174.5,-168.5"/>
<text text-anchor="middle" x="1231.5" y="-175.5" font-family="Helvetica,sans-Serif" font-size="10.00">LLU/WSTP/Release.h</text>
</a>
</g>
</g>
<!-- Node31&#45;&gt;Node33 -->
<g id="edge48" class="edge">
<title>Node31&#45;&gt;Node33</title>
<path fill="none" stroke="midnightblue" d="M1214.8,-224.08C1217.48,-216.85 1221.35,-206.41 1224.69,-197.4"/>
<polygon fill="midnightblue" stroke="midnightblue" points="1228.07,-198.34 1228.26,-187.75 1221.5,-195.91 1228.07,-198.34"/>
</g>
<!-- Node31&#45;&gt;Node34 -->
<g id="edge52" class="edge">
<title>Node31&#45;&gt;Node34</title>
<path fill="none" stroke="midnightblue" d="M1181.87,-224.44C1150,-215.24 1099.17,-200.56 1063.94,-190.39"/>
<polygon fill="midnightblue" stroke="midnightblue" points="1064.57,-186.93 1053.99,-187.52 1062.63,-193.65 1064.57,-186.93"/>
</g>
<!-- Node33&#45;&gt;Node17 -->
<g id="edge50" class="edge">
<title>Node33&#45;&gt;Node17</title>
<path fill="none" stroke="midnightblue" d="M1238.06,-168.08C1257.6,-141.49 1315.62,-62.54 1341.18,-27.76"/>
<polygon fill="midnightblue" stroke="midnightblue" points="1344.1,-29.7 1347.2,-19.57 1338.46,-25.55 1344.1,-29.7"/>
</g>
<!-- Node33&#45;&gt;Node19 -->
<g id="edge51" class="edge">
<title>Node33&#45;&gt;Node19</title>
<path fill="none" stroke="midnightblue" d="M1275.07,-168.44C1323.35,-158.96 1401.21,-143.67 1453.11,-133.48"/>
<polygon fill="midnightblue" stroke="midnightblue" points="1453.99,-136.88 1463.13,-131.52 1452.64,-130.01 1453.99,-136.88"/>
</g>
<!-- Node33&#45;&gt;Node32 -->
<g id="edge49" class="edge">
<title>Node33&#45;&gt;Node32</title>
<path fill="none" stroke="midnightblue" d="M1246.76,-168.32C1261.72,-159.82 1284.75,-146.73 1302.23,-136.8"/>
<polygon fill="midnightblue" stroke="midnightblue" points="1304.31,-139.64 1311.27,-131.65 1300.85,-133.55 1304.31,-139.64"/>
</g>
<!-- Node34&#45;&gt;Node8 -->
<g id="edge54" class="edge">
<title>Node34&#45;&gt;Node8</title>
<path fill="none" stroke="midnightblue" d="M1014.97,-168.38C999.62,-154.85 968.03,-128.48 937.5,-112 907.21,-95.65 869.75,-82.99 843.97,-75.32"/>
<polygon fill="midnightblue" stroke="midnightblue" points="844.61,-71.86 834.03,-72.44 842.66,-78.58 844.61,-71.86"/>
</g>
<!-- Node34&#45;&gt;Node17 -->
<g id="edge55" class="edge">
<title>Node34&#45;&gt;Node17</title>
<path fill="none" stroke="midnightblue" d="M1019.39,-168.47C1012.1,-155.07 1000.91,-128.88 1013.5,-112 1050.78,-62.04 1241.78,-27.93 1320.02,-15.85"/>
<polygon fill="midnightblue" stroke="midnightblue" points="1320.92,-19.25 1330.28,-14.29 1319.87,-12.33 1320.92,-19.25"/>
</g>
<!-- Node34&#45;&gt;Node18 -->
<g id="edge56" class="edge">
<title>Node34&#45;&gt;Node18</title>
<path fill="none" stroke="midnightblue" d="M1000.42,-168.44C974.96,-159.4 934.61,-145.06 906.04,-134.92"/>
<polygon fill="midnightblue" stroke="midnightblue" points="907.07,-131.57 896.47,-131.52 904.72,-138.16 907.07,-131.57"/>
</g>
<!-- Node35 -->
<g id="node35" class="node">
<title>Node35</title>
<g id="a_node35"><a xlink:title=" ">
<polygon fill="white" stroke="#bfbfbf" points="1022.5,-112.5 1022.5,-131.5 1068.5,-131.5 1068.5,-112.5 1022.5,-112.5"/>
<text text-anchor="middle" x="1045.5" y="-119.5" font-family="Helvetica,sans-Serif" font-size="10.00">cstring</text>
</a>
</g>
</g>
<!-- Node34&#45;&gt;Node35 -->
<g id="edge53" class="edge">
<title>Node34&#45;&gt;Node35</title>
<path fill="none" stroke="midnightblue" d="M1027.97,-168.08C1030.81,-160.77 1034.93,-150.18 1038.46,-141.1"/>
<polygon fill="midnightblue" stroke="midnightblue" points="1041.73,-142.34 1042.1,-131.75 1035.21,-139.8 1041.73,-142.34"/>
</g>
<!-- Node36 -->
<g id="node36" class="node">
<title>Node36</title>
<g id="a_node36"><a xlink:href="EncodingTraits_8hpp.html" target="_top" xlink:title="Defines possible encodings together with their properties and related types.">
<polygon fill="white" stroke="black" points="1086.5,-112.5 1086.5,-131.5 1240.5,-131.5 1240.5,-112.5 1086.5,-112.5"/>
<text text-anchor="middle" x="1163.5" y="-119.5" font-family="Helvetica,sans-Serif" font-size="10.00">LLU/WSTP/EncodingTraits.hpp</text>
</a>
</g>
</g>
<!-- Node34&#45;&gt;Node36 -->
<g id="edge57" class="edge">
<title>Node34&#45;&gt;Node36</title>
<path fill="none" stroke="midnightblue" d="M1046.52,-168.44C1069.6,-159.48 1106.06,-145.31 1132.14,-135.18"/>
<polygon fill="midnightblue" stroke="midnightblue" points="1133.52,-138.4 1141.58,-131.52 1130.99,-131.88 1133.52,-138.4"/>
</g>
<!-- Node36&#45;&gt;Node4 -->
<g id="edge60" class="edge">
<title>Node36&#45;&gt;Node4</title>
<path fill="none" stroke="midnightblue" d="M1240.67,-113.37C1328.2,-104.64 1475.16,-89.78 1601.5,-76 1613.45,-74.7 1626.42,-73.22 1638.29,-71.85"/>
<polygon fill="midnightblue" stroke="midnightblue" points="1638.86,-75.31 1648.39,-70.68 1638.05,-68.36 1638.86,-75.31"/>
</g>
<!-- Node36&#45;&gt;Node8 -->
<g id="edge59" class="edge">
<title>Node36&#45;&gt;Node8</title>
<path fill="none" stroke="midnightblue" d="M1108.04,-112.44C1033.46,-100.94 903.39,-80.87 844.29,-71.75"/>
<polygon fill="midnightblue" stroke="midnightblue" points="844.53,-68.25 834.11,-70.18 843.46,-75.16 844.53,-68.25"/>
</g>
<!-- Node36&#45;&gt;Node10 -->
<g id="edge61" class="edge">
<title>Node36&#45;&gt;Node10</title>
<path fill="none" stroke="midnightblue" d="M1125.15,-112.44C1076.91,-101.68 995.09,-83.42 951.28,-73.65"/>
<polygon fill="midnightblue" stroke="midnightblue" points="952.04,-70.23 941.52,-71.47 950.51,-77.06 952.04,-70.23"/>
</g>
<!-- Node36&#45;&gt;Node21 -->
<g id="edge58" class="edge">
<title>Node36&#45;&gt;Node21</title>
<path fill="none" stroke="midnightblue" d="M1206.28,-112.44C1260.17,-101.67 1351.61,-83.38 1400.45,-73.61"/>
<polygon fill="midnightblue" stroke="midnightblue" points="1401.36,-77 1410.48,-71.6 1399.98,-70.13 1401.36,-77"/>
</g>
<!-- Node37&#45;&gt;Node17 -->
<g id="edge64" class="edge">
<title>Node37&#45;&gt;Node17</title>
<path fill="none" stroke="midnightblue" d="M1328.31,-224.44C1337.55,-207.46 1357.47,-168.03 1364.5,-132 1371.51,-96.08 1363.97,-53.26 1358.37,-29.4"/>
<polygon fill="midnightblue" stroke="midnightblue" points="1361.74,-28.45 1355.93,-19.59 1354.95,-30.14 1361.74,-28.45"/>
</g>
<!-- Node37&#45;&gt;Node18 -->
<g id="edge65" class="edge">
<title>Node37&#45;&gt;Node18</title>
<path fill="none" stroke="midnightblue" d="M1276.78,-225.3C1273.64,-224.84 1270.53,-224.4 1267.5,-224 1191.97,-213.95 993.68,-223.95 926.5,-188 906.55,-177.32 891.04,-155.92 881.86,-140.59"/>
<polygon fill="midnightblue" stroke="midnightblue" points="884.73,-138.55 876.76,-131.57 878.63,-142 884.73,-138.55"/>
</g>
<!-- Node37&#45;&gt;Node19 -->
<g id="edge66" class="edge">
<title>Node37&#45;&gt;Node19</title>
<path fill="none" stroke="midnightblue" d="M1340.25,-224.42C1357.17,-215.63 1383.96,-201.41 1406.5,-188 1434.43,-171.39 1465.71,-150.71 1485.72,-137.2"/>
<polygon fill="midnightblue" stroke="midnightblue" points="1487.76,-140.04 1494.07,-131.53 1483.83,-134.25 1487.76,-140.04"/>
</g>
<!-- Node37&#45;&gt;Node32 -->
<g id="edge63" class="edge">
<title>Node37&#45;&gt;Node32</title>
<path fill="none" stroke="midnightblue" d="M1323.74,-224.37C1324.22,-206.62 1325.34,-165.67 1325.99,-141.6"/>
<polygon fill="midnightblue" stroke="midnightblue" points="1329.49,-141.68 1326.27,-131.59 1322.49,-141.49 1329.49,-141.68"/>
</g>
<!-- Node37&#45;&gt;Node34 -->
<g id="edge67" class="edge">
<title>Node37&#45;&gt;Node34</title>
<path fill="none" stroke="midnightblue" d="M1276.78,-224.56C1224.1,-215.05 1138.42,-199.57 1081.76,-189.34"/>
<polygon fill="midnightblue" stroke="midnightblue" points="1082.34,-185.89 1071.88,-187.56 1081.1,-192.78 1082.34,-185.89"/>
</g>
<!-- Node38&#45;&gt;Node7 -->
<g id="edge69" class="edge">
<title>Node38&#45;&gt;Node7</title>
<path fill="none" stroke="midnightblue" d="M1497.3,-227.22C1576.42,-218.83 1727.23,-202.68 1855.5,-188 1867.49,-186.63 1880.56,-185.08 1892.37,-183.66"/>
<polygon fill="midnightblue" stroke="midnightblue" points="1892.86,-187.12 1902.37,-182.45 1892.03,-180.17 1892.86,-187.12"/>
</g>
<!-- Node38&#45;&gt;Node17 -->
<g id="edge72" class="edge">
<title>Node38&#45;&gt;Node17</title>
<path fill="none" stroke="midnightblue" d="M1471.79,-224.35C1492.1,-217.19 1518.75,-205.36 1537.5,-188 1585.34,-143.7 1643.28,-106.05 1601.5,-56 1574.58,-23.76 1448.57,-14.57 1387.23,-11.99"/>
<polygon fill="midnightblue" stroke="midnightblue" points="1387.04,-8.48 1376.91,-11.59 1386.77,-15.47 1387.04,-8.48"/>
</g>
<!-- Node38&#45;&gt;Node18 -->
<g id="edge73" class="edge">
<title>Node38&#45;&gt;Node18</title>
<path fill="none" stroke="midnightblue" d="M1387.71,-225.1C1384.6,-224.71 1381.51,-224.34 1378.5,-224 1192.78,-202.98 1134.18,-254.49 959.5,-188 944.55,-182.31 911.22,-155.62 890.42,-138.26"/>
<polygon fill="midnightblue" stroke="midnightblue" points="892.53,-135.46 882.62,-131.7 888.02,-140.81 892.53,-135.46"/>
</g>
<!-- Node38&#45;&gt;Node19 -->
<g id="edge74" class="edge">
<title>Node38&#45;&gt;Node19</title>
<path fill="none" stroke="midnightblue" d="M1471.62,-224.44C1489.14,-217.62 1510.02,-206.14 1520.5,-188 1528.96,-173.36 1523.15,-154.2 1516.64,-140.48"/>
<polygon fill="midnightblue" stroke="midnightblue" points="1519.72,-138.81 1511.97,-131.59 1513.53,-142.07 1519.72,-138.81"/>
</g>
<!-- Node38&#45;&gt;Node24 -->
<g id="edge71" class="edge">
<title>Node38&#45;&gt;Node24</title>
<path fill="none" stroke="midnightblue" d="M1439.63,-224.23C1431.72,-201.54 1407.28,-140.64 1364.5,-112 1279.2,-54.9 959.56,-23.22 850.91,-13.92"/>
<polygon fill="midnightblue" stroke="midnightblue" points="851.03,-10.42 840.77,-13.07 850.44,-17.4 851.03,-10.42"/>
</g>
<!-- Node38&#45;&gt;Node32 -->
<g id="edge70" class="edge">
<title>Node38&#45;&gt;Node32</title>
<path fill="none" stroke="midnightblue" d="M1433.4,-224.37C1413.92,-205.89 1367.94,-162.29 1343.1,-138.74"/>
<polygon fill="midnightblue" stroke="midnightblue" points="1345.22,-135.93 1335.56,-131.59 1340.41,-141.01 1345.22,-135.93"/>
</g>
<!-- Node38&#45;&gt;Node34 -->
<g id="edge76" class="edge">
<title>Node38&#45;&gt;Node34</title>
<path fill="none" stroke="midnightblue" d="M1387.69,-225.24C1384.58,-224.82 1381.5,-224.4 1378.5,-224 1277.98,-210.54 1161.27,-195.9 1090.17,-187.08"/>
<polygon fill="midnightblue" stroke="midnightblue" points="1090.37,-183.58 1080.02,-185.83 1089.51,-190.53 1090.37,-183.58"/>
</g>
<!-- Node38&#45;&gt;Node36 -->
<g id="edge75" class="edge">
<title>Node38&#45;&gt;Node36</title>
<path fill="none" stroke="midnightblue" d="M1387.69,-224.99C1308,-213.21 1169.16,-192.17 1165.5,-188 1154.58,-175.56 1155.51,-156.04 1158.3,-141.64"/>
<polygon fill="midnightblue" stroke="midnightblue" points="1161.73,-142.37 1160.63,-131.83 1154.92,-140.75 1161.73,-142.37"/>
</g>
<!-- Node39&#45;&gt;Node4 -->
<g id="edge79" class="edge">
<title>Node39&#45;&gt;Node4</title>
<path fill="none" stroke="midnightblue" d="M1759.67,-168.37C1745.25,-150.14 1711.47,-107.43 1692.69,-83.68"/>
<polygon fill="midnightblue" stroke="midnightblue" points="1695.24,-81.26 1686.3,-75.59 1689.75,-85.61 1695.24,-81.26"/>
</g>
<!-- Node39&#45;&gt;Node17 -->
<g id="edge80" class="edge">
<title>Node39&#45;&gt;Node17</title>
<path fill="none" stroke="midnightblue" d="M1766.01,-168.22C1764.24,-145.49 1756.14,-84.51 1719.5,-56 1668.06,-15.97 1466.92,-11.15 1386.75,-10.85"/>
<polygon fill="midnightblue" stroke="midnightblue" points="1386.71,-7.35 1376.71,-10.84 1386.7,-14.35 1386.71,-7.35"/>
</g>
<!-- Node39&#45;&gt;Node19 -->
<g id="edge81" class="edge">
<title>Node39&#45;&gt;Node19</title>
<path fill="none" stroke="midnightblue" d="M1725.3,-168.44C1679.85,-159 1606.66,-143.8 1557.59,-133.61"/>
<polygon fill="midnightblue" stroke="midnightblue" points="1558.01,-130.12 1547.51,-131.52 1556.58,-136.98 1558.01,-130.12"/>
</g>
</g>
</svg>
