<?xml version="1.0" encoding="UTF-8" standalone="no"?>
<!DOCTYPE svg PUBLIC "-//W3C//DTD SVG 1.1//EN"
 "http://www.w3.org/Graphics/SVG/1.1/DTD/svg11.dtd">
<!-- Generated by graphviz version 2.43.0 (0)
 -->
<!-- Title: MArrayDimensions.h Pages: 1 -->
<svg width="1864pt" height="487pt"
 viewBox="0.00 0.00 1863.50 487.00" xmlns="http://www.w3.org/2000/svg" xmlns:xlink="http://www.w3.org/1999/xlink">
<g id="graph0" class="graph" transform="scale(1 1) rotate(0) translate(4 483)">
<title>MArrayDimensions.h</title>
<polygon fill="white" stroke="transparent" points="-4,4 -4,-483 1859.5,-483 1859.5,4 -4,4"/>
<!-- Node1 -->
<g id="node1" class="node">
<title>Node1</title>
<g id="a_node1"><a xlink:title=" ">
<polygon fill="#bfbfbf" stroke="black" points="508.5,-459.5 508.5,-478.5 616.5,-478.5 616.5,-459.5 508.5,-459.5"/>
<text text-anchor="middle" x="562.5" y="-466.5" font-family="Helvetica,sans-Serif" font-size="10.00">MArrayDimensions.h</text>
</a>
</g>
</g>
<!-- Node2 -->
<g id="node2" class="node">
<title>Node2</title>
<g id="a_node2"><a xlink:title=" ">
<polygon fill="white" stroke="#bfbfbf" points="610,-342 610,-361 683,-361 683,-342 610,-342"/>
<text text-anchor="middle" x="646.5" y="-349" font-family="Helvetica,sans-Serif" font-size="10.00">initializer_list</text>
</a>
</g>
</g>
<!-- Node1&#45;&gt;Node2 -->
<g id="edge1" class="edge">
<title>Node1&#45;&gt;Node2</title>
<path fill="none" stroke="midnightblue" d="M568.84,-459.39C575.5,-450.34 586.26,-435.69 595.5,-423 608.78,-404.77 623.91,-383.82 634.23,-369.53"/>
<polygon fill="midnightblue" stroke="midnightblue" points="637.23,-371.35 640.24,-361.2 631.55,-367.26 637.23,-371.35"/>
</g>
<!-- Node3 -->
<g id="node3" class="node">
<title>Node3</title>
<g id="a_node3"><a xlink:title=" ">
<polygon fill="white" stroke="#bfbfbf" points="495.5,-56.5 495.5,-75.5 557.5,-75.5 557.5,-56.5 495.5,-56.5"/>
<text text-anchor="middle" x="526.5" y="-63.5" font-family="Helvetica,sans-Serif" font-size="10.00">type_traits</text>
</a>
</g>
</g>
<!-- Node1&#45;&gt;Node3 -->
<g id="edge2" class="edge">
<title>Node1&#45;&gt;Node3</title>
<path fill="none" stroke="midnightblue" d="M521.98,-459.46C471.41,-446.15 391.5,-415.19 391.5,-352.5 391.5,-352.5 391.5,-352.5 391.5,-177 391.5,-126.31 449.41,-94.83 489.38,-79.14"/>
<polygon fill="midnightblue" stroke="midnightblue" points="490.72,-82.38 498.85,-75.58 488.26,-75.82 490.72,-82.38"/>
</g>
<!-- Node4 -->
<g id="node4" class="node">
<title>Node4</title>
<g id="a_node4"><a xlink:title=" ">
<polygon fill="white" stroke="#bfbfbf" points="1707.5,-224.5 1707.5,-243.5 1751.5,-243.5 1751.5,-224.5 1707.5,-224.5"/>
<text text-anchor="middle" x="1729.5" y="-231.5" font-family="Helvetica,sans-Serif" font-size="10.00">vector</text>
</a>
</g>
</g>
<!-- Node1&#45;&gt;Node4 -->
<g id="edge3" class="edge">
<title>Node1&#45;&gt;Node4</title>
<path fill="none" stroke="midnightblue" d="M562,-459.18C561.15,-435.08 562.46,-367.84 600.5,-336 659.95,-286.24 873.18,-322.07 947.5,-300 966.17,-294.46 967.69,-285.05 986.5,-280 1290.36,-198.4 1382.31,-290.37 1693.5,-244 1694.75,-243.81 1696.03,-243.6 1697.31,-243.37"/>
<polygon fill="midnightblue" stroke="midnightblue" points="1698.1,-246.78 1707.17,-241.3 1696.66,-239.93 1698.1,-246.78"/>
</g>
<!-- Node5 -->
<g id="node5" class="node">
<title>Node5</title>
<g id="a_node5"><a xlink:href="ErrorManager_8h.html" target="_top" xlink:title="Definition of the ErrorManager class responsible for error registration and throwing.">
<polygon fill="white" stroke="black" points="803,-403.5 803,-422.5 946,-422.5 946,-403.5 803,-403.5"/>
<text text-anchor="middle" x="874.5" y="-410.5" font-family="Helvetica,sans-Serif" font-size="10.00">LLU/ErrorLog/ErrorManager.h</text>
</a>
</g>
</g>
<!-- Node1&#45;&gt;Node5 -->
<g id="edge4" class="edge">
<title>Node1&#45;&gt;Node5</title>
<path fill="none" stroke="midnightblue" d="M611.94,-459.44C667.16,-449.89 756.52,-434.42 815.39,-424.23"/>
<polygon fill="midnightblue" stroke="midnightblue" points="816.04,-427.67 825.29,-422.52 814.84,-420.77 816.04,-427.67"/>
</g>
<!-- Node18 -->
<g id="node18" class="node">
<title>Node18</title>
<g id="a_node18"><a xlink:href="Utilities_8hpp.html" target="_top" xlink:title="Short but generally useful functions.">
<polygon fill="white" stroke="black" points="826,-112.5 826,-131.5 915,-131.5 915,-112.5 826,-112.5"/>
<text text-anchor="middle" x="870.5" y="-119.5" font-family="Helvetica,sans-Serif" font-size="10.00">LLU/Utilities.hpp</text>
</a>
</g>
</g>
<!-- Node1&#45;&gt;Node18 -->
<g id="edge83" class="edge">
<title>Node1&#45;&gt;Node18</title>
<path fill="none" stroke="midnightblue" d="M560.09,-459.39C554.98,-440.3 543.5,-392.94 543.5,-352.5 543.5,-352.5 543.5,-352.5 543.5,-289 543.5,-256.07 757.04,-167.96 838.99,-135.36"/>
<polygon fill="midnightblue" stroke="midnightblue" points="840.53,-138.51 848.54,-131.57 837.95,-132 840.53,-138.51"/>
</g>
<!-- Node22 -->
<g id="node22" class="node">
<title>Node22</title>
<g id="a_node22"><a xlink:href="LibraryData_8h.html" target="_top" xlink:title=" ">
<polygon fill="white" stroke="black" points="381.5,-56.5 381.5,-75.5 477.5,-75.5 477.5,-56.5 381.5,-56.5"/>
<text text-anchor="middle" x="429.5" y="-63.5" font-family="Helvetica,sans-Serif" font-size="10.00">LLU/LibraryData.h</text>
</a>
</g>
</g>
<!-- Node1&#45;&gt;Node22 -->
<g id="edge82" class="edge">
<title>Node1&#45;&gt;Node22</title>
<path fill="none" stroke="midnightblue" d="M508.41,-461.66C446.48,-451.03 353.5,-423.29 353.5,-352.5 353.5,-352.5 353.5,-352.5 353.5,-177 353.5,-137.28 387.46,-101.5 409.98,-82.15"/>
<polygon fill="midnightblue" stroke="midnightblue" points="412.48,-84.63 417.96,-75.57 408.02,-79.24 412.48,-84.63"/>
</g>
<!-- Node5&#45;&gt;Node2 -->
<g id="edge6" class="edge">
<title>Node5&#45;&gt;Node2</title>
<path fill="none" stroke="midnightblue" d="M839.83,-403.49C804.09,-394.65 746.79,-380.27 697.5,-367 693.71,-365.98 689.76,-364.9 685.82,-363.8"/>
<polygon fill="midnightblue" stroke="midnightblue" points="686.7,-360.41 676.13,-361.07 684.81,-367.15 686.7,-360.41"/>
</g>
<!-- Node5&#45;&gt;Node4 -->
<g id="edge10" class="edge">
<title>Node5&#45;&gt;Node4</title>
<path fill="none" stroke="midnightblue" d="M919.48,-403.47C1043.29,-379.85 1399.46,-310.88 1693.5,-244 1694.77,-243.71 1696.07,-243.41 1697.38,-243.1"/>
<polygon fill="midnightblue" stroke="midnightblue" points="1698.55,-246.42 1707.45,-240.67 1696.91,-239.62 1698.55,-246.42"/>
</g>
<!-- Node6 -->
<g id="node6" class="node">
<title>Node6</title>
<g id="a_node6"><a xlink:title=" ">
<polygon fill="white" stroke="#bfbfbf" points="1733.5,-168.5 1733.5,-187.5 1789.5,-187.5 1789.5,-168.5 1733.5,-168.5"/>
<text text-anchor="middle" x="1761.5" y="-175.5" font-family="Helvetica,sans-Serif" font-size="10.00">algorithm</text>
</a>
</g>
</g>
<!-- Node5&#45;&gt;Node6 -->
<g id="edge5" class="edge">
<title>Node5&#45;&gt;Node6</title>
<path fill="none" stroke="midnightblue" d="M944.93,-403.48C1009.32,-395.34 1107.1,-382.09 1191.5,-367 1446.19,-321.46 1596.48,-444.1 1760.5,-244 1770.99,-231.2 1769.79,-211.74 1766.85,-197.45"/>
<polygon fill="midnightblue" stroke="midnightblue" points="1770.24,-196.58 1764.43,-187.72 1763.45,-198.27 1770.24,-196.58"/>
</g>
<!-- Node7 -->
<g id="node7" class="node">
<title>Node7</title>
<g id="a_node7"><a xlink:title=" ">
<polygon fill="white" stroke="#bfbfbf" points="1302,-56.5 1302,-75.5 1343,-75.5 1343,-56.5 1302,-56.5"/>
<text text-anchor="middle" x="1322.5" y="-63.5" font-family="Helvetica,sans-Serif" font-size="10.00">string</text>
</a>
</g>
</g>
<!-- Node5&#45;&gt;Node7 -->
<g id="edge7" class="edge">
<title>Node5&#45;&gt;Node7</title>
<path fill="none" stroke="midnightblue" d="M860.87,-403.4C846.57,-394.36 823.43,-379.71 803.5,-367 675.08,-285.11 427.43,-285.37 524.5,-168 574.48,-107.56 1151.25,-75.42 1291.77,-68.45"/>
<polygon fill="midnightblue" stroke="midnightblue" points="1292.03,-71.95 1301.85,-67.96 1291.69,-64.95 1292.03,-71.95"/>
</g>
<!-- Node8 -->
<g id="node8" class="node">
<title>Node8</title>
<g id="a_node8"><a xlink:title=" ">
<polygon fill="white" stroke="#bfbfbf" points="955,-342 955,-361 1038,-361 1038,-342 955,-342"/>
<text text-anchor="middle" x="996.5" y="-349" font-family="Helvetica,sans-Serif" font-size="10.00">unordered_map</text>
</a>
</g>
</g>
<!-- Node5&#45;&gt;Node8 -->
<g id="edge8" class="edge">
<title>Node5&#45;&gt;Node8</title>
<path fill="none" stroke="midnightblue" d="M891.98,-403.48C912.36,-393.53 946.28,-376.99 969.92,-365.46"/>
<polygon fill="midnightblue" stroke="midnightblue" points="971.6,-368.54 979.05,-361.01 968.53,-362.25 971.6,-368.54"/>
</g>
<!-- Node9 -->
<g id="node9" class="node">
<title>Node9</title>
<g id="a_node9"><a xlink:title=" ">
<polygon fill="white" stroke="#bfbfbf" points="1541.5,-56.5 1541.5,-75.5 1581.5,-75.5 1581.5,-56.5 1541.5,-56.5"/>
<text text-anchor="middle" x="1561.5" y="-63.5" font-family="Helvetica,sans-Serif" font-size="10.00">utility</text>
</a>
</g>
</g>
<!-- Node5&#45;&gt;Node9 -->
<g id="edge9" class="edge">
<title>Node5&#45;&gt;Node9</title>
<path fill="none" stroke="midnightblue" d="M946.24,-410.68C1172.39,-405.6 1855.5,-382.65 1855.5,-291 1855.5,-291 1855.5,-291 1855.5,-233 1855.5,-112.88 1667.12,-78.7 1591.94,-69.84"/>
<polygon fill="midnightblue" stroke="midnightblue" points="1592.03,-66.33 1581.71,-68.71 1591.26,-73.29 1592.03,-66.33"/>
</g>
<!-- Node10 -->
<g id="node10" class="node">
<title>Node10</title>
<g id="a_node10"><a xlink:href="LibraryLinkError_8h.html" target="_top" xlink:title="Error class and error codes used by LibraryLink Utilities classes.">
<polygon fill="white" stroke="black" points="812,-336.5 812,-366.5 937,-366.5 937,-336.5 812,-336.5"/>
<text text-anchor="start" x="820" y="-354.5" font-family="Helvetica,sans-Serif" font-size="10.00">LLU/ErrorLog/LibraryLink</text>
<text text-anchor="middle" x="874.5" y="-343.5" font-family="Helvetica,sans-Serif" font-size="10.00">Error.h</text>
</a>
</g>
</g>
<!-- Node5&#45;&gt;Node10 -->
<g id="edge11" class="edge">
<title>Node5&#45;&gt;Node10</title>
<path fill="none" stroke="midnightblue" d="M874.5,-403.48C874.5,-396.47 874.5,-386.19 874.5,-376.7"/>
<polygon fill="midnightblue" stroke="midnightblue" points="878,-376.52 874.5,-366.52 871,-376.52 878,-376.52"/>
</g>
<!-- Node5&#45;&gt;Node22 -->
<g id="edge81" class="edge">
<title>Node5&#45;&gt;Node22</title>
<path fill="none" stroke="midnightblue" d="M837.86,-403.48C809.1,-396.02 768.54,-383.73 735.5,-367 714.48,-356.35 712.86,-347.85 692.5,-336 607.58,-286.59 557.69,-316.6 491.5,-244 449.32,-197.74 435.53,-121.13 431.27,-85.85"/>
<polygon fill="midnightblue" stroke="midnightblue" points="434.72,-85.14 430.17,-75.57 427.76,-85.89 434.72,-85.14"/>
</g>
<!-- Node10&#45;&gt;Node7 -->
<g id="edge13" class="edge">
<title>Node10&#45;&gt;Node7</title>
<path fill="none" stroke="midnightblue" d="M937.27,-337.53C940.39,-336.99 943.48,-336.47 946.5,-336 1126.34,-307.78 1604.7,-338.15 1760.5,-244 1786.24,-228.44 1789.67,-216.75 1798.5,-188 1801.11,-179.5 1803.76,-175.16 1798.5,-168 1749.13,-100.83 1700.72,-130.74 1619.5,-112 1523.51,-89.85 1407.46,-75.89 1353.23,-70.09"/>
<polygon fill="midnightblue" stroke="midnightblue" points="1353.54,-66.6 1343.23,-69.04 1352.81,-73.56 1353.54,-66.6"/>
</g>
<!-- Node11 -->
<g id="node11" class="node">
<title>Node11</title>
<g id="a_node11"><a xlink:title=" ">
<polygon fill="white" stroke="#bfbfbf" points="995,-280.5 995,-299.5 1054,-299.5 1054,-280.5 995,-280.5"/>
<text text-anchor="middle" x="1024.5" y="-287.5" font-family="Helvetica,sans-Serif" font-size="10.00">stdexcept</text>
</a>
</g>
</g>
<!-- Node10&#45;&gt;Node11 -->
<g id="edge12" class="edge">
<title>Node10&#45;&gt;Node11</title>
<path fill="none" stroke="midnightblue" d="M910.05,-336.4C935.33,-326.37 968.97,-313.03 993.23,-303.4"/>
<polygon fill="midnightblue" stroke="midnightblue" points="994.67,-306.6 1002.67,-299.66 992.09,-300.09 994.67,-306.6"/>
</g>
<!-- Node12 -->
<g id="node12" class="node">
<title>Node12</title>
<g id="a_node12"><a xlink:href="WSStream_8hpp.html" target="_top" xlink:title="Header file for WSStream class.">
<polygon fill="white" stroke="black" points="801,-280.5 801,-299.5 938,-299.5 938,-280.5 801,-280.5"/>
<text text-anchor="middle" x="869.5" y="-287.5" font-family="Helvetica,sans-Serif" font-size="10.00">LLU/WSTP/WSStream.hpp</text>
</a>
</g>
</g>
<!-- Node10&#45;&gt;Node12 -->
<g id="edge14" class="edge">
<title>Node10&#45;&gt;Node12</title>
<path fill="none" stroke="midnightblue" d="M873.32,-336.4C872.65,-328.47 871.81,-318.46 871.08,-309.86"/>
<polygon fill="midnightblue" stroke="midnightblue" points="874.55,-309.33 870.23,-299.66 867.58,-309.92 874.55,-309.33"/>
</g>
<!-- Node12&#45;&gt;Node3 -->
<g id="edge19" class="edge">
<title>Node12&#45;&gt;Node3</title>
<path fill="none" stroke="midnightblue" d="M806.52,-280.49C715.49,-266.66 554.69,-235.92 524.5,-188 504.7,-156.57 513.21,-110.82 520.36,-85.54"/>
<polygon fill="midnightblue" stroke="midnightblue" points="523.77,-86.36 523.36,-75.77 517.08,-84.31 523.77,-86.36"/>
</g>
<!-- Node12&#45;&gt;Node4 -->
<g id="edge21" class="edge">
<title>Node12&#45;&gt;Node4</title>
<path fill="none" stroke="midnightblue" d="M938.31,-281.22C943.11,-280.78 947.88,-280.36 952.5,-280 1281.21,-254.22 1367.32,-292.22 1693.5,-244 1694.75,-243.81 1696.03,-243.6 1697.31,-243.37"/>
<polygon fill="midnightblue" stroke="midnightblue" points="1698.1,-246.79 1707.17,-241.3 1696.66,-239.93 1698.1,-246.79"/>
</g>
<!-- Node12&#45;&gt;Node6 -->
<g id="edge15" class="edge">
<title>Node12&#45;&gt;Node6</title>
<path fill="none" stroke="midnightblue" d="M938.32,-281.25C943.11,-280.8 947.88,-280.38 952.5,-280 1100.01,-268.02 1473.71,-279.04 1617.5,-244 1629.54,-241.07 1696.32,-209.89 1734.57,-191.81"/>
<polygon fill="midnightblue" stroke="midnightblue" points="1736.09,-194.96 1743.63,-187.51 1733.09,-188.63 1736.09,-194.96"/>
</g>
<!-- Node12&#45;&gt;Node9 -->
<g id="edge20" class="edge">
<title>Node12&#45;&gt;Node9</title>
<path fill="none" stroke="midnightblue" d="M938.32,-281.27C943.11,-280.81 947.88,-280.38 952.5,-280 1021.16,-274.28 1515.11,-283.58 1571.5,-244 1622.6,-208.14 1646.96,-168.06 1619.5,-112 1612.98,-98.68 1600.4,-88.18 1588.63,-80.68"/>
<polygon fill="midnightblue" stroke="midnightblue" points="1590.28,-77.59 1579.89,-75.53 1586.73,-83.62 1590.28,-77.59"/>
</g>
<!-- Node13 -->
<g id="node13" class="node">
<title>Node13</title>
<g id="a_node13"><a xlink:title=" ">
<polygon fill="white" stroke="#bfbfbf" points="677,-224.5 677,-243.5 724,-243.5 724,-224.5 677,-224.5"/>
<text text-anchor="middle" x="700.5" y="-231.5" font-family="Helvetica,sans-Serif" font-size="10.00">iterator</text>
</a>
</g>
</g>
<!-- Node12&#45;&gt;Node13 -->
<g id="edge16" class="edge">
<title>Node12&#45;&gt;Node13</title>
<path fill="none" stroke="midnightblue" d="M842.72,-280.44C813.24,-271.02 765.81,-255.87 733.92,-245.68"/>
<polygon fill="midnightblue" stroke="midnightblue" points="734.74,-242.27 724.15,-242.56 732.61,-248.94 734.74,-242.27"/>
</g>
<!-- Node14 -->
<g id="node14" class="node">
<title>Node14</title>
<g id="a_node14"><a xlink:title=" ">
<polygon fill="white" stroke="#bfbfbf" points="742,-224.5 742,-243.5 777,-243.5 777,-224.5 742,-224.5"/>
<text text-anchor="middle" x="759.5" y="-231.5" font-family="Helvetica,sans-Serif" font-size="10.00">map</text>
</a>
</g>
</g>
<!-- Node12&#45;&gt;Node14 -->
<g id="edge17" class="edge">
<title>Node12&#45;&gt;Node14</title>
<path fill="none" stroke="midnightblue" d="M851.83,-280.32C834.11,-271.62 806.6,-258.12 786.21,-248.11"/>
<polygon fill="midnightblue" stroke="midnightblue" points="787.65,-244.92 777.13,-243.65 784.56,-251.2 787.65,-244.92"/>
</g>
<!-- Node15 -->
<g id="node15" class="node">
<title>Node15</title>
<g id="a_node15"><a xlink:title=" ">
<polygon fill="white" stroke="#bfbfbf" points="795,-224.5 795,-243.5 836,-243.5 836,-224.5 795,-224.5"/>
<text text-anchor="middle" x="815.5" y="-231.5" font-family="Helvetica,sans-Serif" font-size="10.00">stack</text>
</a>
</g>
</g>
<!-- Node12&#45;&gt;Node15 -->
<g id="edge18" class="edge">
<title>Node12&#45;&gt;Node15</title>
<path fill="none" stroke="midnightblue" d="M860.58,-280.08C852.72,-272.22 841.07,-260.57 831.58,-251.08"/>
<polygon fill="midnightblue" stroke="midnightblue" points="833.8,-248.35 824.25,-243.75 828.85,-253.3 833.8,-248.35"/>
</g>
<!-- Node16 -->
<g id="node16" class="node">
<title>Node16</title>
<g id="a_node16"><a xlink:title=" ">
<polygon fill="white" stroke="#bfbfbf" points="1112.5,-0.5 1112.5,-19.5 1158.5,-19.5 1158.5,-0.5 1112.5,-0.5"/>
<text text-anchor="middle" x="1135.5" y="-7.5" font-family="Helvetica,sans-Serif" font-size="10.00">wstp.h</text>
</a>
</g>
</g>
<!-- Node12&#45;&gt;Node16 -->
<g id="edge22" class="edge">
<title>Node12&#45;&gt;Node16</title>
<path fill="none" stroke="midnightblue" d="M938.02,-280.49C939.87,-280.32 941.69,-280.16 943.5,-280 1101.12,-266.44 1500.78,-281.39 1654.5,-244 1675.37,-238.92 1678.6,-232.09 1698.5,-224 1742.26,-206.21 1771.34,-226.65 1798.5,-188 1844.61,-122.39 1750,-85.66 1675.5,-56 1582.54,-18.98 1271.22,-12.41 1168.61,-11.25"/>
<polygon fill="midnightblue" stroke="midnightblue" points="1168.56,-7.75 1158.52,-11.15 1168.48,-14.75 1168.56,-7.75"/>
</g>
<!-- Node17 -->
<g id="node17" class="node">
<title>Node17</title>
<g id="a_node17"><a xlink:href="Errors_8h.html" target="_top" xlink:title="Definitions of error names and error codes used across LLU.">
<polygon fill="white" stroke="black" points="1224.5,-112.5 1224.5,-131.5 1336.5,-131.5 1336.5,-112.5 1224.5,-112.5"/>
<text text-anchor="middle" x="1280.5" y="-119.5" font-family="Helvetica,sans-Serif" font-size="10.00">LLU/ErrorLog/Errors.h</text>
</a>
</g>
</g>
<!-- Node12&#45;&gt;Node17 -->
<g id="edge23" class="edge">
<title>Node12&#45;&gt;Node17</title>
<path fill="none" stroke="midnightblue" d="M938.37,-281.45C1039.87,-270.18 1219.15,-249.68 1232.5,-244 1268.84,-228.53 1284.52,-223.66 1301.5,-188 1308.89,-172.49 1301.19,-153.72 1293.12,-140.35"/>
<polygon fill="midnightblue" stroke="midnightblue" points="1295.82,-138.09 1287.38,-131.69 1289.98,-141.96 1295.82,-138.09"/>
</g>
<!-- Node12&#45;&gt;Node18 -->
<g id="edge25" class="edge">
<title>Node12&#45;&gt;Node18</title>
<path fill="none" stroke="midnightblue" d="M865.84,-280.43C857.85,-260.55 840.23,-209.78 849.5,-168 851.62,-158.43 856.01,-148.48 860.22,-140.37"/>
<polygon fill="midnightblue" stroke="midnightblue" points="863.32,-142 865.12,-131.56 857.2,-138.6 863.32,-142"/>
</g>
<!-- Node30 -->
<g id="node30" class="node">
<title>Node30</title>
<g id="a_node30"><a xlink:href="Get_8h.html" target="_top" xlink:title="Header file with classes related to reading data from WSTP.">
<polygon fill="white" stroke="black" points="996.5,-224.5 996.5,-243.5 1090.5,-243.5 1090.5,-224.5 996.5,-224.5"/>
<text text-anchor="middle" x="1043.5" y="-231.5" font-family="Helvetica,sans-Serif" font-size="10.00">LLU/WSTP/Get.h</text>
</a>
</g>
</g>
<!-- Node12&#45;&gt;Node30 -->
<g id="edge40" class="edge">
<title>Node12&#45;&gt;Node30</title>
<path fill="none" stroke="midnightblue" d="M897.07,-280.44C926.6,-271.28 973.62,-256.69 1006.38,-246.52"/>
<polygon fill="midnightblue" stroke="midnightblue" points="1007.54,-249.82 1016.06,-243.52 1005.47,-243.14 1007.54,-249.82"/>
</g>
<!-- Node33 -->
<g id="node33" class="node">
<title>Node33</title>
<g id="a_node33"><a xlink:href="WSTP_2Utilities_8h.html" target="_top" xlink:title="Header file with miscellaneous utilities used throughout the WSTP&#45;related part of LibraryLinkUtilitie...">
<polygon fill="white" stroke="black" points="1452,-168.5 1452,-187.5 1563,-187.5 1563,-168.5 1452,-168.5"/>
<text text-anchor="middle" x="1507.5" y="-175.5" font-family="Helvetica,sans-Serif" font-size="10.00">LLU/WSTP/Utilities.h</text>
</a>
</g>
</g>
<!-- Node12&#45;&gt;Node33 -->
<g id="edge76" class="edge">
<title>Node12&#45;&gt;Node33</title>
<path fill="none" stroke="midnightblue" d="M938.33,-281.39C943.12,-280.9 947.88,-280.44 952.5,-280 1150.93,-261.26 1209.76,-305 1399.5,-244 1433.62,-233.03 1468.28,-209.5 1488.83,-193.96"/>
<polygon fill="midnightblue" stroke="midnightblue" points="1491.21,-196.54 1496.98,-187.66 1486.93,-191.01 1491.21,-196.54"/>
</g>
<!-- Node36 -->
<g id="node36" class="node">
<title>Node36</title>
<g id="a_node36"><a xlink:href="Put_8h.html" target="_top" xlink:title="Header file with classes related to sending data through WSTP.">
<polygon fill="white" stroke="black" points="1130,-224.5 1130,-243.5 1223,-243.5 1223,-224.5 1130,-224.5"/>
<text text-anchor="middle" x="1176.5" y="-231.5" font-family="Helvetica,sans-Serif" font-size="10.00">LLU/WSTP/Put.h</text>
</a>
</g>
</g>
<!-- Node12&#45;&gt;Node36 -->
<g id="edge61" class="edge">
<title>Node12&#45;&gt;Node36</title>
<path fill="none" stroke="midnightblue" d="M918.15,-280.44C972.93,-270.81 1061.86,-255.17 1119.76,-244.98"/>
<polygon fill="midnightblue" stroke="midnightblue" points="1120.6,-248.39 1129.84,-243.21 1119.39,-241.49 1120.6,-248.39"/>
</g>
<!-- Node37 -->
<g id="node37" class="node">
<title>Node37</title>
<g id="a_node37"><a xlink:href="Strings_8h.html" target="_top" xlink:title="Definitions of multiple structures and type aliases related to string handling in WSTP.">
<polygon fill="white" stroke="black" points="1453,-224.5 1453,-243.5 1562,-243.5 1562,-224.5 1453,-224.5"/>
<text text-anchor="middle" x="1507.5" y="-231.5" font-family="Helvetica,sans-Serif" font-size="10.00">LLU/WSTP/Strings.h</text>
</a>
</g>
</g>
<!-- Node12&#45;&gt;Node37 -->
<g id="edge67" class="edge">
<title>Node12&#45;&gt;Node37</title>
<path fill="none" stroke="midnightblue" d="M938.32,-281.35C943.12,-280.88 947.88,-280.42 952.5,-280 1168.2,-260.32 1223.03,-266.02 1438.5,-244 1439.96,-243.85 1441.45,-243.69 1442.94,-243.53"/>
<polygon fill="midnightblue" stroke="midnightblue" points="1443.38,-247.01 1452.92,-242.4 1442.59,-240.05 1443.38,-247.01"/>
</g>
<!-- Node38 -->
<g id="node38" class="node">
<title>Node38</title>
<g id="a_node38"><a xlink:href="UtilityTypeTraits_8hpp.html" target="_top" xlink:title="Type traits used by WSStream to identify types supported by WSTP.">
<polygon fill="white" stroke="black" points="533.5,-168.5 533.5,-187.5 693.5,-187.5 693.5,-168.5 533.5,-168.5"/>
<text text-anchor="middle" x="613.5" y="-175.5" font-family="Helvetica,sans-Serif" font-size="10.00">LLU/WSTP/UtilityTypeTraits.hpp</text>
</a>
</g>
</g>
<!-- Node12&#45;&gt;Node38 -->
<g id="edge77" class="edge">
<title>Node12&#45;&gt;Node38</title>
<path fill="none" stroke="midnightblue" d="M800.78,-284.84C759.62,-279.74 707.67,-268.54 667.5,-244 648.4,-232.33 632.88,-211.48 623.47,-196.54"/>
<polygon fill="midnightblue" stroke="midnightblue" points="626.33,-194.51 618.18,-187.73 620.32,-198.11 626.33,-194.51"/>
</g>
<!-- Node17&#45;&gt;Node7 -->
<g id="edge24" class="edge">
<title>Node17&#45;&gt;Node7</title>
<path fill="none" stroke="midnightblue" d="M1287.44,-112.08C1293.43,-104.38 1302.25,-93.03 1309.55,-83.65"/>
<polygon fill="midnightblue" stroke="midnightblue" points="1312.32,-85.79 1315.69,-75.75 1306.79,-81.5 1312.32,-85.79"/>
</g>
<!-- Node18&#45;&gt;Node3 -->
<g id="edge28" class="edge">
<title>Node18&#45;&gt;Node3</title>
<path fill="none" stroke="midnightblue" d="M825.88,-114C758.75,-103.46 632.74,-83.68 567.69,-73.47"/>
<polygon fill="midnightblue" stroke="midnightblue" points="568.21,-70 557.79,-71.91 567.12,-76.92 568.21,-70"/>
</g>
<!-- Node18&#45;&gt;Node9 -->
<g id="edge29" class="edge">
<title>Node18&#45;&gt;Node9</title>
<path fill="none" stroke="midnightblue" d="M915.04,-117.52C1045.02,-107.36 1421.59,-77.93 1531.22,-69.37"/>
<polygon fill="midnightblue" stroke="midnightblue" points="1531.57,-72.85 1541.27,-68.58 1531.02,-65.87 1531.57,-72.85"/>
</g>
<!-- Node19 -->
<g id="node19" class="node">
<title>Node19</title>
<g id="a_node19"><a xlink:title=" ">
<polygon fill="white" stroke="#bfbfbf" points="826,-56.5 826,-75.5 879,-75.5 879,-56.5 826,-56.5"/>
<text text-anchor="middle" x="852.5" y="-63.5" font-family="Helvetica,sans-Serif" font-size="10.00">complex</text>
</a>
</g>
</g>
<!-- Node18&#45;&gt;Node19 -->
<g id="edge26" class="edge">
<title>Node18&#45;&gt;Node19</title>
<path fill="none" stroke="midnightblue" d="M867.53,-112.08C865.12,-104.85 861.64,-94.41 858.63,-85.4"/>
<polygon fill="midnightblue" stroke="midnightblue" points="861.9,-84.13 855.42,-75.75 855.26,-86.34 861.9,-84.13"/>
</g>
<!-- Node20 -->
<g id="node20" class="node">
<title>Node20</title>
<g id="a_node20"><a xlink:title=" ">
<polygon fill="white" stroke="#bfbfbf" points="999.5,-56.5 999.5,-75.5 1045.5,-75.5 1045.5,-56.5 999.5,-56.5"/>
<text text-anchor="middle" x="1022.5" y="-63.5" font-family="Helvetica,sans-Serif" font-size="10.00">cstdint</text>
</a>
</g>
</g>
<!-- Node18&#45;&gt;Node20 -->
<g id="edge27" class="edge">
<title>Node18&#45;&gt;Node20</title>
<path fill="none" stroke="midnightblue" d="M894.58,-112.44C920.19,-103.35 960.87,-88.9 989.46,-78.74"/>
<polygon fill="midnightblue" stroke="midnightblue" points="990.78,-81.98 999.03,-75.34 988.43,-75.39 990.78,-81.98"/>
</g>
<!-- Node21 -->
<g id="node21" class="node">
<title>Node21</title>
<g id="a_node21"><a xlink:title=" ">
<polygon fill="white" stroke="#bfbfbf" points="897.5,-56.5 897.5,-75.5 943.5,-75.5 943.5,-56.5 897.5,-56.5"/>
<text text-anchor="middle" x="920.5" y="-63.5" font-family="Helvetica,sans-Serif" font-size="10.00">variant</text>
</a>
</g>
</g>
<!-- Node18&#45;&gt;Node21 -->
<g id="edge30" class="edge">
<title>Node18&#45;&gt;Node21</title>
<path fill="none" stroke="midnightblue" d="M878.76,-112.08C885.96,-104.3 896.61,-92.8 905.35,-83.37"/>
<polygon fill="midnightblue" stroke="midnightblue" points="908.17,-85.47 912.4,-75.75 903.03,-80.71 908.17,-85.47"/>
</g>
<!-- Node18&#45;&gt;Node22 -->
<g id="edge31" class="edge">
<title>Node18&#45;&gt;Node22</title>
<path fill="none" stroke="midnightblue" d="M825.79,-116.35C755.91,-108.95 616.34,-93.65 487.71,-76.12"/>
<polygon fill="midnightblue" stroke="midnightblue" points="488.06,-72.64 477.68,-74.75 487.11,-79.57 488.06,-72.64"/>
</g>
<!-- Node22&#45;&gt;Node16 -->
<g id="edge34" class="edge">
<title>Node22&#45;&gt;Node16</title>
<path fill="none" stroke="midnightblue" d="M477.66,-57.09C480.65,-56.7 483.61,-56.33 486.5,-56 721.53,-29.35 1006.36,-16.19 1102.21,-12.28"/>
<polygon fill="midnightblue" stroke="midnightblue" points="1102.59,-15.77 1112.44,-11.87 1102.31,-8.77 1102.59,-15.77"/>
</g>
<!-- Node23 -->
<g id="node23" class="node">
<title>Node23</title>
<g id="a_node23"><a xlink:title=" ">
<polygon fill="white" stroke="#bfbfbf" points="787.5,-0.5 787.5,-19.5 839.5,-19.5 839.5,-0.5 787.5,-0.5"/>
<text text-anchor="middle" x="813.5" y="-7.5" font-family="Helvetica,sans-Serif" font-size="10.00">memory</text>
</a>
</g>
</g>
<!-- Node22&#45;&gt;Node23 -->
<g id="edge32" class="edge">
<title>Node22&#45;&gt;Node23</title>
<path fill="none" stroke="midnightblue" d="M477.68,-57.27C480.67,-56.83 483.62,-56.4 486.5,-56 612.83,-38.24 648.3,-44.03 777.34,-20.01"/>
<polygon fill="midnightblue" stroke="midnightblue" points="778.03,-23.44 787.21,-18.15 776.73,-16.56 778.03,-23.44"/>
</g>
<!-- Node24 -->
<g id="node24" class="node">
<title>Node24</title>
<g id="a_node24"><a xlink:title=" ">
<polygon fill="white" stroke="#bfbfbf" points="304.5,-0.5 304.5,-19.5 366.5,-19.5 366.5,-0.5 304.5,-0.5"/>
<text text-anchor="middle" x="335.5" y="-7.5" font-family="Helvetica,sans-Serif" font-size="10.00">dllexport.h</text>
</a>
</g>
</g>
<!-- Node22&#45;&gt;Node24 -->
<g id="edge33" class="edge">
<title>Node22&#45;&gt;Node24</title>
<path fill="none" stroke="midnightblue" d="M414.4,-56.32C399.6,-47.82 376.81,-34.73 359.52,-24.8"/>
<polygon fill="midnightblue" stroke="midnightblue" points="360.98,-21.6 350.57,-19.65 357.49,-27.67 360.98,-21.6"/>
</g>
<!-- Node25 -->
<g id="node25" class="node">
<title>Node25</title>
<g id="a_node25"><a xlink:title=" ">
<polygon fill="white" stroke="#bfbfbf" points="385,-0.5 385,-19.5 474,-19.5 474,-0.5 385,-0.5"/>
<text text-anchor="middle" x="429.5" y="-7.5" font-family="Helvetica,sans-Serif" font-size="10.00">WolframLibrary.h</text>
</a>
</g>
</g>
<!-- Node22&#45;&gt;Node25 -->
<g id="edge35" class="edge">
<title>Node22&#45;&gt;Node25</title>
<path fill="none" stroke="midnightblue" d="M429.5,-56.08C429.5,-49.01 429.5,-38.86 429.5,-29.99"/>
<polygon fill="midnightblue" stroke="midnightblue" points="433,-29.75 429.5,-19.75 426,-29.75 433,-29.75"/>
</g>
<!-- Node26 -->
<g id="node26" class="node">
<title>Node26</title>
<g id="a_node26"><a xlink:title=" ">
<polygon fill="white" stroke="#bfbfbf" points="492,-0.5 492,-19.5 635,-19.5 635,-0.5 492,-0.5"/>
<text text-anchor="middle" x="563.5" y="-7.5" font-family="Helvetica,sans-Serif" font-size="10.00">WolframIOLibraryFunctions.h</text>
</a>
</g>
</g>
<!-- Node22&#45;&gt;Node26 -->
<g id="edge36" class="edge">
<title>Node22&#45;&gt;Node26</title>
<path fill="none" stroke="midnightblue" d="M450.73,-56.44C472.88,-47.52 507.82,-33.44 532.94,-23.32"/>
<polygon fill="midnightblue" stroke="midnightblue" points="534.4,-26.5 542.37,-19.52 531.78,-20.01 534.4,-26.5"/>
</g>
<!-- Node27 -->
<g id="node27" class="node">
<title>Node27</title>
<g id="a_node27"><a xlink:title=" ">
<polygon fill="white" stroke="#bfbfbf" points="653.5,-0.5 653.5,-19.5 769.5,-19.5 769.5,-0.5 653.5,-0.5"/>
<text text-anchor="middle" x="711.5" y="-7.5" font-family="Helvetica,sans-Serif" font-size="10.00">WolframImageLibrary.h</text>
</a>
</g>
</g>
<!-- Node22&#45;&gt;Node27 -->
<g id="edge37" class="edge">
<title>Node22&#45;&gt;Node27</title>
<path fill="none" stroke="midnightblue" d="M474.18,-56.44C523.79,-46.94 603.86,-31.61 657.09,-21.42"/>
<polygon fill="midnightblue" stroke="midnightblue" points="657.86,-24.83 667.03,-19.52 656.55,-17.96 657.86,-24.83"/>
</g>
<!-- Node28 -->
<g id="node28" class="node">
<title>Node28</title>
<g id="a_node28"><a xlink:title=" ">
<polygon fill="white" stroke="#bfbfbf" points="0,-0.5 0,-19.5 149,-19.5 149,-0.5 0,-0.5"/>
<text text-anchor="middle" x="74.5" y="-7.5" font-family="Helvetica,sans-Serif" font-size="10.00">WolframNumericArrayLibrary.h</text>
</a>
</g>
</g>
<!-- Node22&#45;&gt;Node28 -->
<g id="edge38" class="edge">
<title>Node22&#45;&gt;Node28</title>
<path fill="none" stroke="midnightblue" d="M381.25,-57.66C319.01,-48.19 210.44,-31.68 140.56,-21.05"/>
<polygon fill="midnightblue" stroke="midnightblue" points="140.95,-17.57 130.54,-19.52 139.9,-24.49 140.95,-17.57"/>
</g>
<!-- Node29 -->
<g id="node29" class="node">
<title>Node29</title>
<g id="a_node29"><a xlink:title=" ">
<polygon fill="white" stroke="#bfbfbf" points="167,-0.5 167,-19.5 286,-19.5 286,-0.5 167,-0.5"/>
<text text-anchor="middle" x="226.5" y="-7.5" font-family="Helvetica,sans-Serif" font-size="10.00">WolframSparseLibrary.h</text>
</a>
</g>
</g>
<!-- Node22&#45;&gt;Node29 -->
<g id="edge39" class="edge">
<title>Node22&#45;&gt;Node29</title>
<path fill="none" stroke="midnightblue" d="M397.33,-56.44C362.44,-47.16 306.61,-32.31 268.33,-22.13"/>
<polygon fill="midnightblue" stroke="midnightblue" points="269.08,-18.7 258.52,-19.52 267.28,-25.47 269.08,-18.7"/>
</g>
<!-- Node30&#45;&gt;Node7 -->
<g id="edge43" class="edge">
<title>Node30&#45;&gt;Node7</title>
<path fill="none" stroke="midnightblue" d="M1046.38,-224.5C1055,-199.52 1081.23,-127.12 1100.5,-112 1129.94,-88.9 1238.3,-75.28 1291.97,-69.81"/>
<polygon fill="midnightblue" stroke="midnightblue" points="1292.33,-73.29 1301.93,-68.82 1291.64,-66.32 1292.33,-73.29"/>
</g>
<!-- Node30&#45;&gt;Node16 -->
<g id="edge44" class="edge">
<title>Node30&#45;&gt;Node16</title>
<path fill="none" stroke="midnightblue" d="M1044.8,-224.45C1046.83,-211.89 1051.19,-187.8 1057.5,-168 1074.53,-114.56 1107.46,-56.71 1124.57,-28.48"/>
<polygon fill="midnightblue" stroke="midnightblue" points="1127.66,-30.14 1129.91,-19.79 1121.7,-26.48 1127.66,-30.14"/>
</g>
<!-- Node30&#45;&gt;Node17 -->
<g id="edge45" class="edge">
<title>Node30&#45;&gt;Node17</title>
<path fill="none" stroke="midnightblue" d="M1062.1,-224.37C1103.55,-205.13 1203.7,-158.65 1252.64,-135.93"/>
<polygon fill="midnightblue" stroke="midnightblue" points="1254.39,-138.98 1261.99,-131.59 1251.45,-132.63 1254.39,-138.98"/>
</g>
<!-- Node30&#45;&gt;Node18 -->
<g id="edge46" class="edge">
<title>Node30&#45;&gt;Node18</title>
<path fill="none" stroke="midnightblue" d="M996.19,-228.02C947.41,-221.79 876.2,-209.28 859.5,-188 849.04,-174.67 854.36,-155.02 860.7,-140.81"/>
<polygon fill="midnightblue" stroke="midnightblue" points="863.96,-142.11 865.29,-131.6 857.7,-138.99 863.96,-142.11"/>
</g>
<!-- Node30&#45;&gt;Node23 -->
<g id="edge42" class="edge">
<title>Node30&#45;&gt;Node23</title>
<path fill="none" stroke="midnightblue" d="M996.4,-232.43C954.14,-229.68 892.35,-219.89 849.5,-188 800.26,-151.35 805.27,-67.26 810.36,-29.71"/>
<polygon fill="midnightblue" stroke="midnightblue" points="813.85,-30.06 811.88,-19.65 806.93,-29.02 813.85,-30.06"/>
</g>
<!-- Node31 -->
<g id="node31" class="node">
<title>Node31</title>
<g id="a_node31"><a xlink:title=" ">
<polygon fill="white" stroke="#bfbfbf" points="1109,-112.5 1109,-131.5 1168,-131.5 1168,-112.5 1109,-112.5"/>
<text text-anchor="middle" x="1138.5" y="-119.5" font-family="Helvetica,sans-Serif" font-size="10.00">functional</text>
</a>
</g>
</g>
<!-- Node30&#45;&gt;Node31 -->
<g id="edge41" class="edge">
<title>Node30&#45;&gt;Node31</title>
<path fill="none" stroke="midnightblue" d="M1055.05,-224.49C1066.16,-215.99 1083.05,-202.17 1095.5,-188 1108.58,-173.11 1120.77,-153.99 1128.8,-140.34"/>
<polygon fill="midnightblue" stroke="midnightblue" points="1131.93,-141.93 1133.87,-131.52 1125.86,-138.44 1131.93,-141.93"/>
</g>
<!-- Node32 -->
<g id="node32" class="node">
<title>Node32</title>
<g id="a_node32"><a xlink:href="Release_8h.html" target="_top" xlink:title="Header file with classes responsible for releasing memory allocated by WSTP when receiving data.">
<polygon fill="white" stroke="black" points="901.5,-168.5 901.5,-187.5 1015.5,-187.5 1015.5,-168.5 901.5,-168.5"/>
<text text-anchor="middle" x="958.5" y="-175.5" font-family="Helvetica,sans-Serif" font-size="10.00">LLU/WSTP/Release.h</text>
</a>
</g>
</g>
<!-- Node30&#45;&gt;Node32 -->
<g id="edge47" class="edge">
<title>Node30&#45;&gt;Node32</title>
<path fill="none" stroke="midnightblue" d="M1029.84,-224.32C1016.58,-215.9 996.23,-202.97 980.65,-193.07"/>
<polygon fill="midnightblue" stroke="midnightblue" points="982.44,-190.06 972.12,-187.65 978.69,-195.97 982.44,-190.06"/>
</g>
<!-- Node30&#45;&gt;Node33 -->
<g id="edge51" class="edge">
<title>Node30&#45;&gt;Node33</title>
<path fill="none" stroke="midnightblue" d="M1090.54,-227.53C1173.68,-217.85 1346.74,-197.71 1441.68,-186.66"/>
<polygon fill="midnightblue" stroke="midnightblue" points="1442.21,-190.12 1451.74,-185.49 1441.4,-183.17 1442.21,-190.12"/>
</g>
<!-- Node32&#45;&gt;Node16 -->
<g id="edge49" class="edge">
<title>Node32&#45;&gt;Node16</title>
<path fill="none" stroke="midnightblue" d="M958.13,-168.34C957.7,-146.4 959.68,-88.16 990.5,-56 1019.79,-25.44 1069.41,-15.51 1102.31,-12.36"/>
<polygon fill="midnightblue" stroke="midnightblue" points="1102.67,-15.84 1112.36,-11.55 1102.11,-8.86 1102.67,-15.84"/>
</g>
<!-- Node32&#45;&gt;Node18 -->
<g id="edge50" class="edge">
<title>Node32&#45;&gt;Node18</title>
<path fill="none" stroke="midnightblue" d="M944.36,-168.32C930.63,-159.9 909.56,-146.97 893.44,-137.07"/>
<polygon fill="midnightblue" stroke="midnightblue" points="894.96,-133.9 884.6,-131.65 891.3,-139.87 894.96,-133.9"/>
</g>
<!-- Node32&#45;&gt;Node31 -->
<g id="edge48" class="edge">
<title>Node32&#45;&gt;Node31</title>
<path fill="none" stroke="midnightblue" d="M987.02,-168.44C1017.57,-159.28 1066.21,-144.69 1100.1,-134.52"/>
<polygon fill="midnightblue" stroke="midnightblue" points="1101.54,-137.74 1110.11,-131.52 1099.53,-131.04 1101.54,-137.74"/>
</g>
<!-- Node33&#45;&gt;Node7 -->
<g id="edge53" class="edge">
<title>Node33&#45;&gt;Node7</title>
<path fill="none" stroke="midnightblue" d="M1470.41,-168.45C1444.6,-161.36 1410.18,-149.58 1383.5,-132 1363.81,-119.03 1345.95,-98.47 1334.71,-83.95"/>
<polygon fill="midnightblue" stroke="midnightblue" points="1337.42,-81.72 1328.62,-75.81 1331.81,-85.92 1337.42,-81.72"/>
</g>
<!-- Node33&#45;&gt;Node16 -->
<g id="edge54" class="edge">
<title>Node33&#45;&gt;Node16</title>
<path fill="none" stroke="midnightblue" d="M1562.64,-168.42C1584.1,-162.09 1606.59,-151.1 1619.5,-132 1636.98,-106.14 1602.85,-64.37 1590.5,-56 1555.75,-32.44 1267.74,-17.09 1168.76,-12.47"/>
<polygon fill="midnightblue" stroke="midnightblue" points="1168.86,-8.97 1158.71,-12.01 1168.54,-15.96 1168.86,-8.97"/>
</g>
<!-- Node33&#45;&gt;Node17 -->
<g id="edge55" class="edge">
<title>Node33&#45;&gt;Node17</title>
<path fill="none" stroke="midnightblue" d="M1471.53,-168.44C1432.18,-159.08 1369.01,-144.06 1326.19,-133.87"/>
<polygon fill="midnightblue" stroke="midnightblue" points="1326.84,-130.43 1316.3,-131.52 1325.22,-137.24 1326.84,-130.43"/>
</g>
<!-- Node34 -->
<g id="node34" class="node">
<title>Node34</title>
<g id="a_node34"><a xlink:title=" ">
<polygon fill="white" stroke="#bfbfbf" points="1392.5,-112.5 1392.5,-131.5 1438.5,-131.5 1438.5,-112.5 1392.5,-112.5"/>
<text text-anchor="middle" x="1415.5" y="-119.5" font-family="Helvetica,sans-Serif" font-size="10.00">cstring</text>
</a>
</g>
</g>
<!-- Node33&#45;&gt;Node34 -->
<g id="edge52" class="edge">
<title>Node33&#45;&gt;Node34</title>
<path fill="none" stroke="midnightblue" d="M1492.72,-168.32C1478.23,-159.82 1455.93,-146.73 1439.01,-136.8"/>
<polygon fill="midnightblue" stroke="midnightblue" points="1440.64,-133.7 1430.24,-131.65 1437.1,-139.74 1440.64,-133.7"/>
</g>
<!-- Node35 -->
<g id="node35" class="node">
<title>Node35</title>
<g id="a_node35"><a xlink:href="EncodingTraits_8hpp.html" target="_top" xlink:title="Defines possible encodings together with their properties and related types.">
<polygon fill="white" stroke="black" points="1456.5,-112.5 1456.5,-131.5 1610.5,-131.5 1610.5,-112.5 1456.5,-112.5"/>
<text text-anchor="middle" x="1533.5" y="-119.5" font-family="Helvetica,sans-Serif" font-size="10.00">LLU/WSTP/EncodingTraits.hpp</text>
</a>
</g>
</g>
<!-- Node33&#45;&gt;Node35 -->
<g id="edge56" class="edge">
<title>Node33&#45;&gt;Node35</title>
<path fill="none" stroke="midnightblue" d="M1511.79,-168.08C1515.35,-160.69 1520.52,-149.95 1524.92,-140.81"/>
<polygon fill="midnightblue" stroke="midnightblue" points="1528.1,-142.28 1529.29,-131.75 1521.79,-139.24 1528.1,-142.28"/>
</g>
<!-- Node35&#45;&gt;Node3 -->
<g id="edge59" class="edge">
<title>Node35&#45;&gt;Node3</title>
<path fill="none" stroke="midnightblue" d="M1456.16,-112.7C1453.24,-112.45 1450.34,-112.22 1447.5,-112 1108.27,-85.98 697.53,-72.15 567.81,-68.2"/>
<polygon fill="midnightblue" stroke="midnightblue" points="567.65,-64.7 557.55,-67.89 567.44,-71.69 567.65,-64.7"/>
</g>
<!-- Node35&#45;&gt;Node7 -->
<g id="edge58" class="edge">
<title>Node35&#45;&gt;Node7</title>
<path fill="none" stroke="midnightblue" d="M1500.07,-112.44C1459.53,-102.07 1391.81,-84.74 1352.76,-74.74"/>
<polygon fill="midnightblue" stroke="midnightblue" points="1353.57,-71.34 1343.02,-72.25 1351.84,-78.12 1353.57,-71.34"/>
</g>
<!-- Node35&#45;&gt;Node9 -->
<g id="edge60" class="edge">
<title>Node35&#45;&gt;Node9</title>
<path fill="none" stroke="midnightblue" d="M1538.12,-112.08C1541.96,-104.69 1547.52,-93.95 1552.26,-84.81"/>
<polygon fill="midnightblue" stroke="midnightblue" points="1555.47,-86.24 1556.96,-75.75 1549.25,-83.02 1555.47,-86.24"/>
</g>
<!-- Node35&#45;&gt;Node20 -->
<g id="edge57" class="edge">
<title>Node35&#45;&gt;Node20</title>
<path fill="none" stroke="midnightblue" d="M1456.44,-112.86C1343.04,-100.87 1135.96,-78.99 1055.6,-70.5"/>
<polygon fill="midnightblue" stroke="midnightblue" points="1055.88,-67.01 1045.57,-69.44 1055.14,-73.97 1055.88,-67.01"/>
</g>
<!-- Node36&#45;&gt;Node16 -->
<g id="edge63" class="edge">
<title>Node36&#45;&gt;Node16</title>
<path fill="none" stroke="midnightblue" d="M1177.76,-224.38C1180.44,-204.39 1185.77,-153.41 1177.5,-112 1171.36,-81.23 1155.65,-48.12 1145.28,-28.49"/>
<polygon fill="midnightblue" stroke="midnightblue" points="1148.27,-26.66 1140.43,-19.55 1142.12,-30 1148.27,-26.66"/>
</g>
<!-- Node36&#45;&gt;Node17 -->
<g id="edge64" class="edge">
<title>Node36&#45;&gt;Node17</title>
<path fill="none" stroke="midnightblue" d="M1223.13,-226.06C1246,-220.04 1271.55,-208.84 1285.5,-188 1294.63,-174.36 1291.81,-155.31 1287.65,-141.36"/>
<polygon fill="midnightblue" stroke="midnightblue" points="1290.94,-140.18 1284.38,-131.86 1284.32,-142.46 1290.94,-140.18"/>
</g>
<!-- Node36&#45;&gt;Node18 -->
<g id="edge65" class="edge">
<title>Node36&#45;&gt;Node18</title>
<path fill="none" stroke="midnightblue" d="M1129.87,-226.89C1051.62,-216.45 901.5,-195.59 892.5,-188 879,-176.61 873.76,-156.62 871.74,-141.81"/>
<polygon fill="midnightblue" stroke="midnightblue" points="875.21,-141.32 870.74,-131.72 868.24,-142.01 875.21,-141.32"/>
</g>
<!-- Node36&#45;&gt;Node31 -->
<g id="edge62" class="edge">
<title>Node36&#45;&gt;Node31</title>
<path fill="none" stroke="midnightblue" d="M1173.52,-224.37C1167.36,-206.54 1153.11,-165.3 1144.81,-141.27"/>
<polygon fill="midnightblue" stroke="midnightblue" points="1148.04,-139.9 1141.47,-131.59 1141.43,-142.19 1148.04,-139.9"/>
</g>
<!-- Node36&#45;&gt;Node33 -->
<g id="edge66" class="edge">
<title>Node36&#45;&gt;Node33</title>
<path fill="none" stroke="midnightblue" d="M1223.22,-225.38C1281.33,-215.9 1380.72,-199.68 1445.24,-189.16"/>
<polygon fill="midnightblue" stroke="midnightblue" points="1445.98,-192.58 1455.29,-187.52 1444.85,-185.67 1445.98,-192.58"/>
</g>
<!-- Node37&#45;&gt;Node6 -->
<g id="edge68" class="edge">
<title>Node37&#45;&gt;Node6</title>
<path fill="none" stroke="midnightblue" d="M1547.75,-224.48C1590.4,-215.45 1659.7,-200.75 1719.5,-188 1720.77,-187.73 1722.07,-187.45 1723.37,-187.17"/>
<polygon fill="midnightblue" stroke="midnightblue" points="1724.44,-190.52 1733.49,-185.01 1722.98,-183.68 1724.44,-190.52"/>
</g>
<!-- Node37&#45;&gt;Node16 -->
<g id="edge71" class="edge">
<title>Node37&#45;&gt;Node16</title>
<path fill="none" stroke="midnightblue" d="M1562.16,-225.54C1640.49,-212.36 1770.82,-179.69 1728.5,-112 1668.5,-16.04 1285.05,-10.17 1168.84,-10.63"/>
<polygon fill="midnightblue" stroke="midnightblue" points="1168.73,-7.13 1158.75,-10.69 1168.77,-14.13 1168.73,-7.13"/>
</g>
<!-- Node37&#45;&gt;Node17 -->
<g id="edge72" class="edge">
<title>Node37&#45;&gt;Node17</title>
<path fill="none" stroke="midnightblue" d="M1494.95,-224.42C1475.24,-211.18 1435.53,-185.48 1399.5,-168 1372.55,-154.93 1340.75,-143.07 1316.81,-134.82"/>
<polygon fill="midnightblue" stroke="midnightblue" points="1317.66,-131.41 1307.07,-131.51 1315.41,-138.04 1317.66,-131.41"/>
</g>
<!-- Node37&#45;&gt;Node18 -->
<g id="edge73" class="edge">
<title>Node37&#45;&gt;Node18</title>
<path fill="none" stroke="midnightblue" d="M1458.05,-224.46C1340.9,-204.23 1047.21,-153.51 925.09,-132.43"/>
<polygon fill="midnightblue" stroke="midnightblue" points="925.65,-128.97 915.2,-130.72 924.46,-135.87 925.65,-128.97"/>
</g>
<!-- Node37&#45;&gt;Node23 -->
<g id="edge70" class="edge">
<title>Node37&#45;&gt;Node23</title>
<path fill="none" stroke="midnightblue" d="M1529.62,-224.45C1546.97,-216.9 1570.88,-204.51 1587.5,-188 1607.84,-167.8 1612.14,-159.71 1619.5,-132 1628.78,-97.06 1620.83,-75.67 1590.5,-56 1559.09,-35.62 999.45,-16.79 849.96,-12.11"/>
<polygon fill="midnightblue" stroke="midnightblue" points="850.02,-8.61 839.92,-11.8 849.8,-15.61 850.02,-8.61"/>
</g>
<!-- Node37&#45;&gt;Node31 -->
<g id="edge69" class="edge">
<title>Node37&#45;&gt;Node31</title>
<path fill="none" stroke="midnightblue" d="M1478.85,-224.46C1413.11,-204.86 1251.37,-156.65 1177.02,-134.48"/>
<polygon fill="midnightblue" stroke="midnightblue" points="1177.71,-131.04 1167.13,-131.53 1175.71,-137.75 1177.71,-131.04"/>
</g>
<!-- Node37&#45;&gt;Node33 -->
<g id="edge75" class="edge">
<title>Node37&#45;&gt;Node33</title>
<path fill="none" stroke="midnightblue" d="M1507.5,-224.08C1507.5,-217.01 1507.5,-206.86 1507.5,-197.99"/>
<polygon fill="midnightblue" stroke="midnightblue" points="1511,-197.75 1507.5,-187.75 1504,-197.75 1511,-197.75"/>
</g>
<!-- Node37&#45;&gt;Node35 -->
<g id="edge74" class="edge">
<title>Node37&#45;&gt;Node35</title>
<path fill="none" stroke="midnightblue" d="M1529.31,-224.45C1544.44,-217.22 1563.45,-205.26 1572.5,-188 1581.59,-170.65 1566.94,-151.51 1553.07,-138.52"/>
<polygon fill="midnightblue" stroke="midnightblue" points="1555.02,-135.58 1545.18,-131.65 1550.42,-140.86 1555.02,-135.58"/>
</g>
<!-- Node38&#45;&gt;Node3 -->
<g id="edge78" class="edge">
<title>Node38&#45;&gt;Node3</title>
<path fill="none" stroke="midnightblue" d="M606.67,-168.37C592.25,-150.14 558.47,-107.43 539.69,-83.68"/>
<polygon fill="midnightblue" stroke="midnightblue" points="542.24,-81.26 533.3,-75.59 536.75,-85.61 542.24,-81.26"/>
</g>
<!-- Node38&#45;&gt;Node16 -->
<g id="edge79" class="edge">
<title>Node38&#45;&gt;Node16</title>
<path fill="none" stroke="midnightblue" d="M624.65,-168.17C654.14,-145.34 737.47,-84.13 817.5,-56 917.04,-21.02 1043.17,-13.16 1102.19,-11.45"/>
<polygon fill="midnightblue" stroke="midnightblue" points="1102.5,-14.94 1112.41,-11.19 1102.33,-7.94 1102.5,-14.94"/>
</g>
<!-- Node38&#45;&gt;Node18 -->
<g id="edge80" class="edge">
<title>Node38&#45;&gt;Node18</title>
<path fill="none" stroke="midnightblue" d="M654.22,-168.44C699.15,-159 771.5,-143.8 820,-133.61"/>
<polygon fill="midnightblue" stroke="midnightblue" points="820.9,-137 829.97,-131.52 819.46,-130.15 820.9,-137"/>
</g>
</g>
</svg>
