<?xml version="1.0" encoding="UTF-8" standalone="no"?>
<!DOCTYPE svg PUBLIC "-//W3C//DTD SVG 1.1//EN"
 "http://www.w3.org/Graphics/SVG/1.1/DTD/svg11.dtd">
<!-- Generated by graphviz version 2.43.0 (0)
 -->
<!-- Title: MArray.hpp Pages: 1 -->
<!--zoomable 252 -->
<svg id="main" version="1.1" xmlns="http://www.w3.org/2000/svg" xmlns:xlink="http://www.w3.org/1999/xlink" xml:space="preserve" onload="init(evt)">
<style type="text/css"><![CDATA[
.edge:hover path { stroke: red; }
.edge:hover polygon { stroke: red; fill: red; }
]]></style>
<script type="text/javascript"><![CDATA[
var edges = document.getElementsByTagName('g');
if (edges && edges.length) {
  for (var i=0;i<edges.length;i++) {
    if (edges[i].id.substr(0,4)=='edge') {
      edges[i].setAttribute('class','edge');
    }
  }
}
]]></script>
        <defs>
                <circle id="rim" cx="0" cy="0" r="7"/>
                <circle id="rim2" cx="0" cy="0" r="3.5"/>
                <g id="zoomPlus">
                        <use xlink:href="#rim" fill="#404040">
                                <set attributeName="fill" to="#808080" begin="zoomplus.mouseover" end="zoomplus.mouseout"/>
                        </use>
                        <path d="M-4,0h8M0,-4v8" fill="none" stroke="white" stroke-width="1.5" pointer-events="none"/>
                </g>
                <g id="zoomMin">
                        <use xlink:href="#rim" fill="#404040">
                                <set attributeName="fill" to="#808080" begin="zoomminus.mouseover" end="zoomminus.mouseout"/>
                        </use>
                        <path d="M-4,0h8" fill="none" stroke="white" stroke-width="1.5" pointer-events="none"/>
                </g>
                <g id="dirArrow">
                        <path fill="none" stroke="white" stroke-width="1.5" d="M0,-3.0v7 M-2.5,-0.5L0,-3.0L2.5,-0.5"/>
                </g>
               <g id="resetDef">
                       <use xlink:href="#rim2" fill="#404040">
                               <set attributeName="fill" to="#808080" begin="reset.mouseover" end="reset.mouseout"/>
                       </use>
               </g>
        </defs>

<script type="text/javascript">
var viewWidth = 645;
var viewHeight = 252;
var sectionId = 'dynsection-1';
</script>
<script xlink:href="svgpan.js"/>
<svg id="graph" class="graph">
<g id="viewport">
<title>MArray.hpp</title>
<polygon fill="white" stroke="transparent" points="-4,4 -4,-248 641.26,-248 641.26,4 -4,4"/>
<!-- Node1 -->
<g id="node1" class="node">
<title>Node1</title>
<g id="a_node1"><a xlink:title="Template base class for C++ wrappers of LibraryLink containers.">
<polygon fill="#bfbfbf" stroke="black" points="389.76,-224.5 389.76,-243.5 454.76,-243.5 454.76,-224.5 389.76,-224.5"/>
<text text-anchor="middle" x="422.26" y="-231.5" font-family="Helvetica,sans-Serif" font-size="10.00">MArray.hpp</text>
</a>
</g>
</g>
<!-- Node2 -->
<g id="node2" class="node">
<title>Node2</title>
<g id="a_node2"><a xlink:href="Image_8h.html" target="_top" xlink:title="Templated C++ wrapper for MImage.">
<polygon fill="white" stroke="black" points="443.26,-112.5 443.26,-131.5 495.26,-131.5 495.26,-112.5 443.26,-112.5"/>
<text text-anchor="middle" x="469.26" y="-119.5" font-family="Helvetica,sans-Serif" font-size="10.00">Image.h</text>
</a>
</g>
</g>
<!-- Node1&#45;&gt;Node2 -->
<g id="edge1" class="edge">
<title>Node1&#45;&gt;Node2</title>
<path fill="none" stroke="midnightblue" d="M429.95,-215C440.21,-191 457.95,-149.47 465.59,-131.59"/>
<polygon fill="midnightblue" stroke="midnightblue" points="426.66,-213.8 425.95,-224.37 433.09,-216.55 426.66,-213.8"/>
</g>
<!-- Node7 -->
<g id="node7" class="node">
<title>Node7</title>
<g id="a_node7"><a xlink:href="MArgumentManager_8cpp.html" target="_top" xlink:title="Definitions of non&#45;template member functions and static data members from MArgumentManager class.">
<polygon fill="white" stroke="black" points="515.26,-0.5 515.26,-19.5 637.26,-19.5 637.26,-0.5 515.26,-0.5"/>
<text text-anchor="middle" x="576.26" y="-7.5" font-family="Helvetica,sans-Serif" font-size="10.00">MArgumentManager.cpp</text>
</a>
</g>
</g>
<!-- Node1&#45;&gt;Node7 -->
<g id="edge23" class="edge">
<title>Node1&#45;&gt;Node7</title>
<path fill="none" stroke="midnightblue" d="M440.02,-217.25C468.75,-190.82 525.42,-134.66 557.26,-76 567.35,-57.4 572.65,-32.82 574.9,-19.87"/>
<polygon fill="midnightblue" stroke="midnightblue" points="437.43,-214.87 432.38,-224.18 442.13,-220.05 437.43,-214.87"/>
</g>
<!-- Node9 -->
<g id="node9" class="node">
<title>Node9</title>
<g id="a_node9"><a xlink:href="NumericArray_8h.html" target="_top" xlink:title="Templated C++ wrapper for MNumericArray.">
<polygon fill="white" stroke="black" points="303.76,-112.5 303.76,-131.5 386.76,-131.5 386.76,-112.5 303.76,-112.5"/>
<text text-anchor="middle" x="345.26" y="-119.5" font-family="Helvetica,sans-Serif" font-size="10.00">NumericArray.h</text>
</a>
</g>
</g>
<!-- Node1&#45;&gt;Node9 -->
<g id="edge9" class="edge">
<title>Node1&#45;&gt;Node9</title>
<path fill="none" stroke="midnightblue" d="M410.33,-215.96C393.64,-192.12 363.96,-149.71 351.27,-131.59"/>
<polygon fill="midnightblue" stroke="midnightblue" points="407.61,-218.18 416.22,-224.37 413.35,-214.17 407.61,-218.18"/>
</g>
<!-- Node10 -->
<g id="node10" class="node">
<title>Node10</title>
<g id="a_node10"><a xlink:href="Tensor_8h.html" target="_top" xlink:title="Templated C++ wrapper for MTensor.">
<polygon fill="white" stroke="black" points="162.76,-168.5 162.76,-187.5 215.76,-187.5 215.76,-168.5 162.76,-168.5"/>
<text text-anchor="middle" x="189.26" y="-175.5" font-family="Helvetica,sans-Serif" font-size="10.00">Tensor.h</text>
</a>
</g>
</g>
<!-- Node1&#45;&gt;Node10 -->
<g id="edge12" class="edge">
<title>Node1&#45;&gt;Node10</title>
<path fill="none" stroke="midnightblue" d="M379.62,-223.12C331.84,-212.04 255.82,-194.43 215.84,-185.16"/>
<polygon fill="midnightblue" stroke="midnightblue" points="378.84,-226.53 389.37,-225.38 380.42,-219.71 378.84,-226.53"/>
</g>
<!-- Node3 -->
<g id="node3" class="node">
<title>Node3</title>
<g id="a_node3"><a xlink:href="LLU_8h.html" target="_top" xlink:title="Header file which includes all major parts of LLU.">
<polygon fill="white" stroke="black" points="250.76,-0.5 250.76,-19.5 293.76,-19.5 293.76,-0.5 250.76,-0.5"/>
<text text-anchor="middle" x="272.26" y="-7.5" font-family="Helvetica,sans-Serif" font-size="10.00">LLU.h</text>
</a>
</g>
</g>
<!-- Node2&#45;&gt;Node3 -->
<g id="edge2" class="edge">
<title>Node2&#45;&gt;Node3</title>
<path fill="none" stroke="midnightblue" d="M465.29,-102.44C461.19,-87.77 453.37,-67.85 439.26,-56 391.38,-15.79 363.51,-36.72 303.26,-20 300.23,-19.16 297.05,-18.26 293.92,-17.36"/>
<polygon fill="midnightblue" stroke="midnightblue" points="461.95,-103.53 467.73,-112.41 468.75,-101.87 461.95,-103.53"/>
</g>
<!-- Node4 -->
<g id="node4" class="node">
<title>Node4</title>
<g id="a_node4"><a xlink:href="MArgumentManager_8h.html" target="_top" xlink:title="Definition of MArgumentManager class.">
<polygon fill="white" stroke="black" points="318.26,-56.5 318.26,-75.5 430.26,-75.5 430.26,-56.5 318.26,-56.5"/>
<text text-anchor="middle" x="374.26" y="-63.5" font-family="Helvetica,sans-Serif" font-size="10.00">MArgumentManager.h</text>
</a>
</g>
</g>
<!-- Node2&#45;&gt;Node4 -->
<g id="edge3" class="edge">
<title>Node2&#45;&gt;Node4</title>
<path fill="none" stroke="midnightblue" d="M444.94,-107.18C427.46,-97.24 404.43,-84.15 389.48,-75.65"/>
<polygon fill="midnightblue" stroke="midnightblue" points="443.57,-110.43 454,-112.32 447.03,-104.34 443.57,-110.43"/>
</g>
<!-- Node8 -->
<g id="node8" class="node">
<title>Node8</title>
<g id="a_node8"><a xlink:href="Image_8cpp.html" target="_top" xlink:title="Template specializations of Image::type attribute for all data types that we want to support.">
<polygon fill="white" stroke="black" points="486.26,-56.5 486.26,-75.5 548.26,-75.5 548.26,-56.5 486.26,-56.5"/>
<text text-anchor="middle" x="517.26" y="-63.5" font-family="Helvetica,sans-Serif" font-size="10.00">Image.cpp</text>
</a>
</g>
</g>
<!-- Node2&#45;&gt;Node8 -->
<g id="edge8" class="edge">
<title>Node2&#45;&gt;Node8</title>
<path fill="none" stroke="midnightblue" d="M483.99,-104.43C492.4,-94.97 502.61,-83.48 509.48,-75.75"/>
<polygon fill="midnightblue" stroke="midnightblue" points="481.21,-102.28 477.19,-112.08 486.44,-106.93 481.21,-102.28"/>
</g>
<!-- Node4&#45;&gt;Node3 -->
<g id="edge4" class="edge">
<title>Node4&#45;&gt;Node3</title>
<path fill="none" stroke="midnightblue" d="M348.93,-51.59C330.07,-41.61 304.87,-28.27 288.61,-19.65"/>
<polygon fill="midnightblue" stroke="midnightblue" points="347.4,-54.74 357.87,-56.32 350.67,-48.55 347.4,-54.74"/>
</g>
<!-- Node5 -->
<g id="node5" class="node">
<title>Node5</title>
<g id="a_node5"><a xlink:href="LibraryLinkError_8cpp.html" target="_top" xlink:title="Contains definitions of ErrorManager members and implementation of interface function sendRegisteredE...">
<polygon fill="white" stroke="black" points="311.76,-0.5 311.76,-19.5 414.76,-19.5 414.76,-0.5 311.76,-0.5"/>
<text text-anchor="middle" x="363.26" y="-7.5" font-family="Helvetica,sans-Serif" font-size="10.00">LibraryLinkError.cpp</text>
</a>
</g>
</g>
<!-- Node4&#45;&gt;Node5 -->
<g id="edge5" class="edge">
<title>Node4&#45;&gt;Node5</title>
<path fill="none" stroke="midnightblue" d="M370.41,-46.1C368.58,-37.14 366.49,-26.86 365.04,-19.75"/>
<polygon fill="midnightblue" stroke="midnightblue" points="367.02,-46.98 372.44,-56.08 373.88,-45.59 367.02,-46.98"/>
</g>
<!-- Node6 -->
<g id="node6" class="node">
<title>Node6</title>
<g id="a_node6"><a xlink:href="Logger_8cpp.html" target="_top" xlink:title="Implementation of functions defined in Logger.h.">
<polygon fill="white" stroke="black" points="433.26,-0.5 433.26,-19.5 497.26,-19.5 497.26,-0.5 433.26,-0.5"/>
<text text-anchor="middle" x="465.26" y="-7.5" font-family="Helvetica,sans-Serif" font-size="10.00">Logger.cpp</text>
</a>
</g>
</g>
<!-- Node4&#45;&gt;Node6 -->
<g id="edge6" class="edge">
<title>Node4&#45;&gt;Node6</title>
<path fill="none" stroke="midnightblue" d="M397.55,-51.18C414.3,-41.24 436.36,-28.15 450.67,-19.65"/>
<polygon fill="midnightblue" stroke="midnightblue" points="395.69,-48.21 388.88,-56.32 399.27,-54.23 395.69,-48.21"/>
</g>
<!-- Node4&#45;&gt;Node7 -->
<g id="edge7" class="edge">
<title>Node4&#45;&gt;Node7</title>
<path fill="none" stroke="midnightblue" d="M416.05,-53.83C454.19,-43.63 509.74,-28.78 544.4,-19.52"/>
<polygon fill="midnightblue" stroke="midnightblue" points="415.02,-50.48 406.27,-56.44 416.83,-57.24 415.02,-50.48"/>
</g>
<!-- Node9&#45;&gt;Node3 -->
<g id="edge10" class="edge">
<title>Node9&#45;&gt;Node3</title>
<path fill="none" stroke="midnightblue" d="M331.06,-104.54C324.16,-96.22 315.93,-85.83 309.26,-76 296.14,-56.66 283.18,-32.38 276.64,-19.67"/>
<polygon fill="midnightblue" stroke="midnightblue" points="328.53,-106.97 337.66,-112.35 333.88,-102.45 328.53,-106.97"/>
</g>
<!-- Node9&#45;&gt;Node4 -->
<g id="edge11" class="edge">
<title>Node9&#45;&gt;Node4</title>
<path fill="none" stroke="midnightblue" d="M354.93,-102.98C359.86,-93.82 365.62,-83.09 369.56,-75.75"/>
<polygon fill="midnightblue" stroke="midnightblue" points="351.7,-101.62 350.05,-112.08 357.86,-104.93 351.7,-101.62"/>
</g>
<!-- Node10&#45;&gt;Node3 -->
<g id="edge17" class="edge">
<title>Node10&#45;&gt;Node3</title>
<path fill="none" stroke="midnightblue" d="M152.26,-173.39C103.41,-167.77 21.44,-155.11 3.26,-132 -2.24,-125.01 1.22,-120.65 3.26,-112 9.65,-84.92 9.04,-72.75 31.26,-56 65.84,-29.93 197.73,-16.87 250.37,-12.61"/>
<polygon fill="midnightblue" stroke="midnightblue" points="152.11,-176.9 162.44,-174.52 152.88,-169.94 152.11,-176.9"/>
</g>
<!-- Node10&#45;&gt;Node4 -->
<g id="edge18" class="edge">
<title>Node10&#45;&gt;Node4</title>
<path fill="none" stroke="midnightblue" d="M225.99,-174.42C279.62,-169.79 375.27,-158.04 396.26,-132 409.87,-115.12 393.01,-89.39 382.12,-75.92"/>
<polygon fill="midnightblue" stroke="midnightblue" points="225.54,-170.94 215.86,-175.25 226.12,-177.92 225.54,-170.94"/>
</g>
<!-- Node11 -->
<g id="node11" class="node">
<title>Node11</title>
<g id="a_node11"><a xlink:href="SparseArray_8h.html" target="_top" xlink:title="Templated C++ wrapper for MSparseArray.">
<polygon fill="white" stroke="black" points="12.76,-112.5 12.76,-131.5 89.76,-131.5 89.76,-112.5 12.76,-112.5"/>
<text text-anchor="middle" x="51.26" y="-119.5" font-family="Helvetica,sans-Serif" font-size="10.00">SparseArray.h</text>
</a>
</g>
</g>
<!-- Node10&#45;&gt;Node11 -->
<g id="edge13" class="edge">
<title>Node10&#45;&gt;Node11</title>
<path fill="none" stroke="midnightblue" d="M158.01,-164.77C132.09,-154.63 95.9,-140.47 73.02,-131.52"/>
<polygon fill="midnightblue" stroke="midnightblue" points="156.8,-168.06 167.39,-168.44 159.36,-161.54 156.8,-168.06"/>
</g>
<!-- Node13 -->
<g id="node13" class="node">
<title>Node13</title>
<g id="a_node13"><a xlink:href="ProgressMonitor_8h.html" target="_top" xlink:title="Definition of ProgressMonitor class.">
<polygon fill="white" stroke="black" points="190.76,-112.5 190.76,-131.5 285.76,-131.5 285.76,-112.5 190.76,-112.5"/>
<text text-anchor="middle" x="238.26" y="-119.5" font-family="Helvetica,sans-Serif" font-size="10.00">ProgressMonitor.h</text>
</a>
</g>
</g>
<!-- Node10&#45;&gt;Node13 -->
<g id="edge19" class="edge">
<title>Node10&#45;&gt;Node13</title>
<path fill="none" stroke="midnightblue" d="M204.29,-160.43C212.88,-150.97 223.3,-139.48 230.32,-131.75"/>
<polygon fill="midnightblue" stroke="midnightblue" points="201.48,-158.33 197.35,-168.08 206.66,-163.03 201.48,-158.33"/>
</g>
<!-- Node15 -->
<g id="node15" class="node">
<title>Node15</title>
<g id="a_node15"><a xlink:href="Tensor_8cpp.html" target="_top" xlink:title="Template specialization of certain methods from TypedTensor class for all underlying data types that ...">
<polygon fill="white" stroke="black" points="108.26,-112.5 108.26,-131.5 172.26,-131.5 172.26,-112.5 108.26,-112.5"/>
<text text-anchor="middle" x="140.26" y="-119.5" font-family="Helvetica,sans-Serif" font-size="10.00">Tensor.cpp</text>
</a>
</g>
</g>
<!-- Node10&#45;&gt;Node15 -->
<g id="edge22" class="edge">
<title>Node10&#45;&gt;Node15</title>
<path fill="none" stroke="midnightblue" d="M174.22,-160.43C165.64,-150.97 155.22,-139.48 148.2,-131.75"/>
<polygon fill="midnightblue" stroke="midnightblue" points="171.86,-163.03 181.17,-168.08 177.04,-158.33 171.86,-163.03"/>
</g>
<!-- Node11&#45;&gt;Node3 -->
<g id="edge14" class="edge">
<title>Node11&#45;&gt;Node3</title>
<path fill="none" stroke="midnightblue" d="M41.69,-103.04C35.54,-88.74 30.51,-69.05 41.26,-56 67.7,-23.92 198.07,-14.4 250.43,-11.85"/>
<polygon fill="midnightblue" stroke="midnightblue" points="38.67,-104.82 46.16,-112.31 44.97,-101.79 38.67,-104.82"/>
</g>
<!-- Node11&#45;&gt;Node4 -->
<g id="edge15" class="edge">
<title>Node11&#45;&gt;Node4</title>
<path fill="none" stroke="midnightblue" d="M100.07,-111.89C182.61,-97.47 266.58,-83.95 319.93,-75.51"/>
<polygon fill="midnightblue" stroke="midnightblue" points="99.26,-108.48 90.02,-113.65 100.47,-115.37 99.26,-108.48"/>
</g>
<!-- Node12 -->
<g id="node12" class="node">
<title>Node12</title>
<g id="a_node12"><a xlink:href="SparseArray_8cpp.html" target="_top" xlink:title="Implementation of GenericSparseArray and SparseArray&lt;T&gt;">
<polygon fill="white" stroke="black" points="50.26,-56.5 50.26,-75.5 138.26,-75.5 138.26,-56.5 50.26,-56.5"/>
<text text-anchor="middle" x="94.26" y="-63.5" font-family="Helvetica,sans-Serif" font-size="10.00">SparseArray.cpp</text>
</a>
</g>
</g>
<!-- Node11&#45;&gt;Node12 -->
<g id="edge16" class="edge">
<title>Node11&#45;&gt;Node12</title>
<path fill="none" stroke="midnightblue" d="M64.68,-104.14C72.17,-94.74 81.2,-83.4 87.29,-75.75"/>
<polygon fill="midnightblue" stroke="midnightblue" points="61.85,-102.08 58.36,-112.08 67.33,-106.44 61.85,-102.08"/>
</g>
<!-- Node13&#45;&gt;Node4 -->
<g id="edge20" class="edge">
<title>Node13&#45;&gt;Node4</title>
<path fill="none" stroke="midnightblue" d="M269.39,-108.64C294.92,-98.5 330.37,-84.43 352.81,-75.52"/>
<polygon fill="midnightblue" stroke="midnightblue" points="267.81,-105.5 259.81,-112.44 270.39,-112.01 267.81,-105.5"/>
</g>
<!-- Node14 -->
<g id="node14" class="node">
<title>Node14</title>
<g id="a_node14"><a xlink:href="ProgressMonitor_8cpp.html" target="_top" xlink:title="Implementation file for ProgressMonitor class.">
<polygon fill="white" stroke="black" points="156.26,-56.5 156.26,-75.5 262.26,-75.5 262.26,-56.5 156.26,-56.5"/>
<text text-anchor="middle" x="209.26" y="-63.5" font-family="Helvetica,sans-Serif" font-size="10.00">ProgressMonitor.cpp</text>
</a>
</g>
</g>
<!-- Node13&#45;&gt;Node14 -->
<g id="edge21" class="edge">
<title>Node13&#45;&gt;Node14</title>
<path fill="none" stroke="midnightblue" d="M228.58,-102.98C223.66,-93.82 217.9,-83.09 213.96,-75.75"/>
<polygon fill="midnightblue" stroke="midnightblue" points="225.66,-104.93 233.47,-112.08 231.82,-101.62 225.66,-104.93"/>
</g>
</g>
</svg>
        <g id="navigator" transform="translate(0 0)" fill="#404254">
                <rect fill="#f2f5e9" fill-opacity="0.5" stroke="#606060" stroke-width=".5" x="0" y="0" width="60" height="60"/>
                <use id="zoomplus" xlink:href="#zoomPlus" x="17" y="9" onmousedown="handleZoom(evt,'in')"/>
                <use id="zoomminus" xlink:href="#zoomMin" x="42" y="9" onmousedown="handleZoom(evt,'out')"/>
                <use id="reset" xlink:href="#resetDef" x="30" y="36" onmousedown="handleReset()"/>
                <g id="arrowUp" xlink:href="#dirArrow" transform="translate(30 24)" onmousedown="handlePan(0,-1)">
                  <use xlink:href="#rim" fill="#404040">
                        <set attributeName="fill" to="#808080" begin="arrowUp.mouseover" end="arrowUp.mouseout"/>
                  </use>
                  <path fill="none" stroke="white" stroke-width="1.5" d="M0,-3.0v7 M-2.5,-0.5L0,-3.0L2.5,-0.5"/>
                </g>
                <g id="arrowRight" xlink:href="#dirArrow" transform="rotate(90) translate(36 -43)" onmousedown="handlePan(1,0)">
                  <use xlink:href="#rim" fill="#404040">
                        <set attributeName="fill" to="#808080" begin="arrowRight.mouseover" end="arrowRight.mouseout"/>
                  </use>
                  <path fill="none" stroke="white" stroke-width="1.5" d="M0,-3.0v7 M-2.5,-0.5L0,-3.0L2.5,-0.5"/>
                </g>
                <g id="arrowDown" xlink:href="#dirArrow" transform="rotate(180) translate(-30 -48)" onmousedown="handlePan(0,1)">
                  <use xlink:href="#rim" fill="#404040">
                        <set attributeName="fill" to="#808080" begin="arrowDown.mouseover" end="arrowDown.mouseout"/>
                  </use>
                  <path fill="none" stroke="white" stroke-width="1.5" d="M0,-3.0v7 M-2.5,-0.5L0,-3.0L2.5,-0.5"/>
                </g>
                <g id="arrowLeft" xlink:href="#dirArrow" transform="rotate(270) translate(-36 17)" onmousedown="handlePan(-1,0)">
                  <use xlink:href="#rim" fill="#404040">
                        <set attributeName="fill" to="#808080" begin="arrowLeft.mouseover" end="arrowLeft.mouseout"/>
                  </use>
                  <path fill="none" stroke="white" stroke-width="1.5" d="M0,-3.0v7 M-2.5,-0.5L0,-3.0L2.5,-0.5"/>
                </g>
        </g>
        <svg viewBox="0 0 15 15" width="100%" height="30px" preserveAspectRatio="xMaxYMin meet">
         <g id="arrow_out" transform="scale(0.3 0.3)">
          <a xlink:href="MArray_8hpp__dep__incl_org.svg" target="_base">
           <rect id="button" ry="5" rx="5" y="6" x="6" height="38" width="38"
                fill="#f2f5e9" fill-opacity="0.5" stroke="#606060" stroke-width="1.0"/>
           <path id="arrow"
             d="M 11.500037,31.436501 C 11.940474,20.09759 22.043105,11.32322 32.158766,21.979434 L 37.068811,17.246167 C 37.068811,17.246167 37.088388,32 37.088388,32 L 22.160133,31.978069 C 22.160133,31.978069 26.997745,27.140456 26.997745,27.140456 C 18.528582,18.264221 13.291696,25.230495 11.500037,31.436501 z"
             style="fill:#404040;"/>
          </a>
         </g>
        </svg>
</svg>
