<?xml version="1.0" encoding="UTF-8" standalone="no"?>
<!DOCTYPE svg PUBLIC "-//W3C//DTD SVG 1.1//EN"
 "http://www.w3.org/Graphics/SVG/1.1/DTD/svg11.dtd">
<!-- Generated by graphviz version 2.43.0 (0)
 -->
<!-- Title: MArray.hpp Pages: 1 -->
<svg width="524pt" height="252pt"
 viewBox="0.00 0.00 524.00 252.00" xmlns="http://www.w3.org/2000/svg" xmlns:xlink="http://www.w3.org/1999/xlink">
<g id="graph0" class="graph" transform="scale(1 1) rotate(0) translate(4 248)">
<title>MArray.hpp</title>
<polygon fill="white" stroke="transparent" points="-4,4 -4,-248 520,-248 520,4 -4,4"/>
<!-- Node1 -->
<g id="node1" class="node">
<title>Node1</title>
<g id="a_node1"><a xlink:title="Template base class for C++ wrappers of LibraryLink containers.">
<polygon fill="#bfbfbf" stroke="black" points="164.5,-224.5 164.5,-243.5 229.5,-243.5 229.5,-224.5 164.5,-224.5"/>
<text text-anchor="middle" x="197" y="-231.5" font-family="Helvetica,sans-Serif" font-size="10.00">MArray.hpp</text>
</a>
</g>
</g>
<!-- Node2 -->
<g id="node2" class="node">
<title>Node2</title>
<g id="a_node2"><a xlink:href="Image_8h.html" target="_top" xlink:title="Templated C++ wrapper for MImage.">
<polygon fill="white" stroke="black" points="5,-112.5 5,-131.5 57,-131.5 57,-112.5 5,-112.5"/>
<text text-anchor="middle" x="31" y="-119.5" font-family="Helvetica,sans-Serif" font-size="10.00">Image.h</text>
</a>
</g>
</g>
<!-- Node1&#45;&gt;Node2 -->
<g id="edge1" class="edge">
<title>Node1&#45;&gt;Node2</title>
<path fill="none" stroke="midnightblue" d="M175.44,-218.71C140.46,-195.53 72.39,-150.43 43.97,-131.59"/>
<polygon fill="midnightblue" stroke="midnightblue" points="173.7,-221.76 183.97,-224.37 177.57,-215.93 173.7,-221.76"/>
</g>
<!-- Node7 -->
<g id="node7" class="node">
<title>Node7</title>
<g id="a_node7"><a xlink:href="MArgumentManager_8cpp.html" target="_top" xlink:title="Definitions of non&#45;template member functions and static data members from MArgumentManager class.">
<polygon fill="white" stroke="black" points="394,-0.5 394,-19.5 516,-19.5 516,-0.5 394,-0.5"/>
<text text-anchor="middle" x="455" y="-7.5" font-family="Helvetica,sans-Serif" font-size="10.00">MArgumentManager.cpp</text>
</a>
</g>
</g>
<!-- Node1&#45;&gt;Node7 -->
<g id="edge19" class="edge">
<title>Node1&#45;&gt;Node7</title>
<path fill="none" stroke="midnightblue" d="M239.51,-228.26C295.2,-219.63 391.45,-195.85 440,-132 466.14,-97.63 460.14,-41.2 456.63,-19.69"/>
<polygon fill="midnightblue" stroke="midnightblue" points="238.99,-224.8 229.6,-229.71 240,-231.73 238.99,-224.8"/>
</g>
<!-- Node9 -->
<g id="node9" class="node">
<title>Node9</title>
<g id="a_node9"><a xlink:href="NumericArray_8h.html" target="_top" xlink:title="Templated C++ wrapper for MNumericArray.">
<polygon fill="white" stroke="black" points="75.5,-112.5 75.5,-131.5 158.5,-131.5 158.5,-112.5 75.5,-112.5"/>
<text text-anchor="middle" x="117" y="-119.5" font-family="Helvetica,sans-Serif" font-size="10.00">NumericArray.h</text>
</a>
</g>
</g>
<!-- Node1&#45;&gt;Node9 -->
<g id="edge9" class="edge">
<title>Node1&#45;&gt;Node9</title>
<path fill="none" stroke="midnightblue" d="M184.83,-216.27C167.54,-192.49 136.48,-149.79 123.25,-131.59"/>
<polygon fill="midnightblue" stroke="midnightblue" points="182.01,-218.34 190.72,-224.37 187.67,-214.22 182.01,-218.34"/>
</g>
<!-- Node10 -->
<g id="node10" class="node">
<title>Node10</title>
<g id="a_node10"><a xlink:href="Tensor_8h.html" target="_top" xlink:title="Templated C++ wrapper for MTensor.">
<polygon fill="white" stroke="black" points="198.5,-168.5 198.5,-187.5 251.5,-187.5 251.5,-168.5 198.5,-168.5"/>
<text text-anchor="middle" x="225" y="-175.5" font-family="Helvetica,sans-Serif" font-size="10.00">Tensor.h</text>
</a>
</g>
</g>
<!-- Node1&#45;&gt;Node10 -->
<g id="edge12" class="edge">
<title>Node1&#45;&gt;Node10</title>
<path fill="none" stroke="midnightblue" d="M206.34,-214.98C211.09,-205.82 216.66,-195.09 220.46,-187.75"/>
<polygon fill="midnightblue" stroke="midnightblue" points="203.12,-213.59 201.62,-224.08 209.33,-216.82 203.12,-213.59"/>
</g>
<!-- Node3 -->
<g id="node3" class="node">
<title>Node3</title>
<g id="a_node3"><a xlink:href="LLU_8h.html" target="_top" xlink:title="Header file which includes all major parts of LLU.">
<polygon fill="white" stroke="black" points="119.5,-0.5 119.5,-19.5 162.5,-19.5 162.5,-0.5 119.5,-0.5"/>
<text text-anchor="middle" x="141" y="-7.5" font-family="Helvetica,sans-Serif" font-size="10.00">LLU.h</text>
</a>
</g>
</g>
<!-- Node2&#45;&gt;Node3 -->
<g id="edge2" class="edge">
<title>Node2&#45;&gt;Node3</title>
<path fill="none" stroke="midnightblue" d="M46.79,-105.21C70.37,-81.63 113.97,-38.03 132.41,-19.59"/>
<polygon fill="midnightblue" stroke="midnightblue" points="44.23,-102.82 39.63,-112.37 49.18,-107.77 44.23,-102.82"/>
</g>
<!-- Node4 -->
<g id="node4" class="node">
<title>Node4</title>
<g id="a_node4"><a xlink:href="MArgumentManager_8h.html" target="_top" xlink:title="Definition of MArgumentManager class.">
<polygon fill="white" stroke="black" points="195,-56.5 195,-75.5 307,-75.5 307,-56.5 195,-56.5"/>
<text text-anchor="middle" x="251" y="-63.5" font-family="Helvetica,sans-Serif" font-size="10.00">MArgumentManager.h</text>
</a>
</g>
</g>
<!-- Node2&#45;&gt;Node4 -->
<g id="edge3" class="edge">
<title>Node2&#45;&gt;Node4</title>
<path fill="none" stroke="midnightblue" d="M67.27,-111.7C124.29,-97.47 179.9,-84.04 215.15,-75.57"/>
<polygon fill="midnightblue" stroke="midnightblue" points="66.22,-108.36 57.36,-114.18 67.91,-115.15 66.22,-108.36"/>
</g>
<!-- Node8 -->
<g id="node8" class="node">
<title>Node8</title>
<g id="a_node8"><a xlink:href="Image_8cpp.html" target="_top" xlink:title="Template specializations of Image::type attribute for all data types that we want to support.">
<polygon fill="white" stroke="black" points="0,-56.5 0,-75.5 62,-75.5 62,-56.5 0,-56.5"/>
<text text-anchor="middle" x="31" y="-63.5" font-family="Helvetica,sans-Serif" font-size="10.00">Image.cpp</text>
</a>
</g>
</g>
<!-- Node2&#45;&gt;Node8 -->
<g id="edge8" class="edge">
<title>Node2&#45;&gt;Node8</title>
<path fill="none" stroke="midnightblue" d="M31,-101.8C31,-92.91 31,-82.78 31,-75.75"/>
<polygon fill="midnightblue" stroke="midnightblue" points="27.5,-102.08 31,-112.08 34.5,-102.08 27.5,-102.08"/>
</g>
<!-- Node4&#45;&gt;Node3 -->
<g id="edge4" class="edge">
<title>Node4&#45;&gt;Node3</title>
<path fill="none" stroke="midnightblue" d="M224.24,-51.86C203.84,-41.85 176.33,-28.35 158.63,-19.65"/>
<polygon fill="midnightblue" stroke="midnightblue" points="222.81,-55.06 233.33,-56.32 225.89,-48.78 222.81,-55.06"/>
</g>
<!-- Node5 -->
<g id="node5" class="node">
<title>Node5</title>
<g id="a_node5"><a xlink:href="LibraryLinkError_8cpp.html" target="_top" xlink:title="Contains definitions of ErrorManager members and implementation of interface function sendRegisteredE...">
<polygon fill="white" stroke="black" points="187.5,-0.5 187.5,-19.5 290.5,-19.5 290.5,-0.5 187.5,-0.5"/>
<text text-anchor="middle" x="239" y="-7.5" font-family="Helvetica,sans-Serif" font-size="10.00">LibraryLinkError.cpp</text>
</a>
</g>
</g>
<!-- Node4&#45;&gt;Node5 -->
<g id="edge5" class="edge">
<title>Node4&#45;&gt;Node5</title>
<path fill="none" stroke="midnightblue" d="M246.8,-46.1C244.81,-37.14 242.52,-26.86 240.94,-19.75"/>
<polygon fill="midnightblue" stroke="midnightblue" points="243.43,-47.08 249.02,-56.08 250.27,-45.56 243.43,-47.08"/>
</g>
<!-- Node6 -->
<g id="node6" class="node">
<title>Node6</title>
<g id="a_node6"><a xlink:href="Logger_8cpp.html" target="_top" xlink:title="Implementation of functions defined in Logger.h.">
<polygon fill="white" stroke="black" points="309,-0.5 309,-19.5 373,-19.5 373,-0.5 309,-0.5"/>
<text text-anchor="middle" x="341" y="-7.5" font-family="Helvetica,sans-Serif" font-size="10.00">Logger.cpp</text>
</a>
</g>
</g>
<!-- Node4&#45;&gt;Node6 -->
<g id="edge6" class="edge">
<title>Node4&#45;&gt;Node6</title>
<path fill="none" stroke="midnightblue" d="M274.04,-51.18C290.6,-41.24 312.42,-28.15 326.58,-19.65"/>
<polygon fill="midnightblue" stroke="midnightblue" points="272.23,-48.18 265.46,-56.32 275.84,-54.18 272.23,-48.18"/>
</g>
<!-- Node4&#45;&gt;Node7 -->
<g id="edge7" class="edge">
<title>Node4&#45;&gt;Node7</title>
<path fill="none" stroke="midnightblue" d="M293.2,-53.83C331.72,-43.63 387.82,-28.78 422.83,-19.52"/>
<polygon fill="midnightblue" stroke="midnightblue" points="292.1,-50.5 283.32,-56.44 293.89,-57.27 292.1,-50.5"/>
</g>
<!-- Node9&#45;&gt;Node3 -->
<g id="edge10" class="edge">
<title>Node9&#45;&gt;Node3</title>
<path fill="none" stroke="midnightblue" d="M121.07,-102.35C126.33,-78.25 135.26,-37.31 139.13,-19.59"/>
<polygon fill="midnightblue" stroke="midnightblue" points="117.6,-101.85 118.88,-112.37 124.43,-103.34 117.6,-101.85"/>
</g>
<!-- Node9&#45;&gt;Node4 -->
<g id="edge11" class="edge">
<title>Node9&#45;&gt;Node4</title>
<path fill="none" stroke="midnightblue" d="M147.68,-108.64C172.82,-98.5 207.75,-84.43 229.87,-75.52"/>
<polygon fill="midnightblue" stroke="midnightblue" points="146.2,-105.46 138.23,-112.44 148.82,-111.95 146.2,-105.46"/>
</g>
<!-- Node10&#45;&gt;Node3 -->
<g id="edge13" class="edge">
<title>Node10&#45;&gt;Node3</title>
<path fill="none" stroke="midnightblue" d="M215.82,-158.86C197.8,-123.25 158.43,-45.45 145.34,-19.57"/>
<polygon fill="midnightblue" stroke="midnightblue" points="212.85,-160.73 220.48,-168.08 219.09,-157.57 212.85,-160.73"/>
</g>
<!-- Node10&#45;&gt;Node4 -->
<g id="edge14" class="edge">
<title>Node10&#45;&gt;Node4</title>
<path fill="none" stroke="midnightblue" d="M229.41,-158.35C235.1,-134.25 244.78,-93.31 248.97,-75.59"/>
<polygon fill="midnightblue" stroke="midnightblue" points="225.93,-157.83 227.04,-168.37 232.75,-159.44 225.93,-157.83"/>
</g>
<!-- Node11 -->
<g id="node11" class="node">
<title>Node11</title>
<g id="a_node11"><a xlink:href="ProgressMonitor_8h.html" target="_top" xlink:title="Definition of ProgressMonitor class.">
<polygon fill="white" stroke="black" points="253.5,-112.5 253.5,-131.5 348.5,-131.5 348.5,-112.5 253.5,-112.5"/>
<text text-anchor="middle" x="301" y="-119.5" font-family="Helvetica,sans-Serif" font-size="10.00">ProgressMonitor.h</text>
</a>
</g>
</g>
<!-- Node10&#45;&gt;Node11 -->
<g id="edge15" class="edge">
<title>Node10&#45;&gt;Node11</title>
<path fill="none" stroke="midnightblue" d="M245.58,-162.38C259.31,-152.62 276.93,-140.11 288.57,-131.83"/>
<polygon fill="midnightblue" stroke="midnightblue" points="243.34,-159.68 237.21,-168.32 247.39,-165.38 243.34,-159.68"/>
</g>
<!-- Node13 -->
<g id="node13" class="node">
<title>Node13</title>
<g id="a_node13"><a xlink:href="Tensor_8cpp.html" target="_top" xlink:title="Template specialization of certain methods from TypedTensor class for all underlying data types that ...">
<polygon fill="white" stroke="black" points="367,-112.5 367,-131.5 431,-131.5 431,-112.5 367,-112.5"/>
<text text-anchor="middle" x="399" y="-119.5" font-family="Helvetica,sans-Serif" font-size="10.00">Tensor.cpp</text>
</a>
</g>
</g>
<!-- Node10&#45;&gt;Node13 -->
<g id="edge18" class="edge">
<title>Node10&#45;&gt;Node13</title>
<path fill="none" stroke="midnightblue" d="M261.49,-165.67C294.34,-155.48 341.88,-140.73 371.59,-131.51"/>
<polygon fill="midnightblue" stroke="midnightblue" points="260.32,-162.37 251.81,-168.68 262.39,-169.06 260.32,-162.37"/>
</g>
<!-- Node11&#45;&gt;Node4 -->
<g id="edge16" class="edge">
<title>Node11&#45;&gt;Node4</title>
<path fill="none" stroke="midnightblue" d="M285.92,-104.72C277.11,-95.2 266.33,-83.56 259.1,-75.75"/>
<polygon fill="midnightblue" stroke="midnightblue" points="283.38,-107.12 292.74,-112.08 288.52,-102.37 283.38,-107.12"/>
</g>
<!-- Node12 -->
<g id="node12" class="node">
<title>Node12</title>
<g id="a_node12"><a xlink:href="ProgressMonitor_8cpp.html" target="_top" xlink:title="Implementation file for ProgressMonitor class.">
<polygon fill="white" stroke="black" points="325,-56.5 325,-75.5 431,-75.5 431,-56.5 325,-56.5"/>
<text text-anchor="middle" x="378" y="-63.5" font-family="Helvetica,sans-Serif" font-size="10.00">ProgressMonitor.cpp</text>
</a>
</g>
</g>
<!-- Node11&#45;&gt;Node12 -->
<g id="edge17" class="edge">
<title>Node11&#45;&gt;Node12</title>
<path fill="none" stroke="midnightblue" d="M321.9,-106.34C335.91,-96.52 353.88,-83.91 365.66,-75.65"/>
<polygon fill="midnightblue" stroke="midnightblue" points="319.55,-103.72 313.37,-112.32 323.57,-109.45 319.55,-103.72"/>
</g>
</g>
</svg>
