<?xml version="1.0" encoding="UTF-8" standalone="no"?>
<!DOCTYPE svg PUBLIC "-//W3C//DTD SVG 1.1//EN"
 "http://www.w3.org/Graphics/SVG/1.1/DTD/svg11.dtd">
<!-- Generated by graphviz version 2.43.0 (0)
 -->
<!-- Title: Put.h Pages: 1 -->
<svg width="1366pt" height="196pt"
 viewBox="0.00 0.00 1366.00 196.00" xmlns="http://www.w3.org/2000/svg" xmlns:xlink="http://www.w3.org/1999/xlink">
<g id="graph0" class="graph" transform="scale(1 1) rotate(0) translate(4 192)">
<title>Put.h</title>
<polygon fill="white" stroke="transparent" points="-4,4 -4,-192 1362,-192 1362,4 -4,4"/>
<!-- Node1 -->
<g id="node1" class="node">
<title>Node1</title>
<g id="a_node1"><a xlink:title="Header file with classes related to sending data through WSTP.">
<polygon fill="#bfbfbf" stroke="black" points="249,-168.5 249,-187.5 289,-187.5 289,-168.5 249,-168.5"/>
<text text-anchor="middle" x="269" y="-175.5" font-family="Helvetica,sans-Serif" font-size="10.00">Put.h</text>
</a>
</g>
</g>
<!-- Node2 -->
<g id="node2" class="node">
<title>Node2</title>
<g id="a_node2"><a xlink:title=" ">
<polygon fill="white" stroke="#bfbfbf" points="97.5,-112.5 97.5,-131.5 156.5,-131.5 156.5,-112.5 97.5,-112.5"/>
<text text-anchor="middle" x="127" y="-119.5" font-family="Helvetica,sans-Serif" font-size="10.00">functional</text>
</a>
</g>
</g>
<!-- Node1&#45;&gt;Node2 -->
<g id="edge1" class="edge">
<title>Node1&#45;&gt;Node2</title>
<path fill="none" stroke="midnightblue" d="M248.96,-169.38C225.67,-160.52 186.93,-145.79 159.36,-135.31"/>
<polygon fill="midnightblue" stroke="midnightblue" points="160.35,-131.94 149.76,-131.65 157.86,-138.48 160.35,-131.94"/>
</g>
<!-- Node3 -->
<g id="node3" class="node">
<title>Node3</title>
<g id="a_node3"><a xlink:title=" ">
<polygon fill="white" stroke="#bfbfbf" points="454,-0.5 454,-19.5 500,-19.5 500,-0.5 454,-0.5"/>
<text text-anchor="middle" x="477" y="-7.5" font-family="Helvetica,sans-Serif" font-size="10.00">wstp.h</text>
</a>
</g>
</g>
<!-- Node1&#45;&gt;Node3 -->
<g id="edge2" class="edge">
<title>Node1&#45;&gt;Node3</title>
<path fill="none" stroke="midnightblue" d="M289.36,-176.6C340.12,-175.08 475.85,-167.71 582,-132 630.65,-115.63 656.95,-120.23 683,-76 737.73,16.93 754.2,-78.65 510,-20 509.9,-19.98 509.8,-19.95 509.7,-19.93"/>
<polygon fill="midnightblue" stroke="midnightblue" points="510.59,-16.54 500.03,-17.47 508.86,-23.33 510.59,-16.54"/>
</g>
<!-- Node4 -->
<g id="node4" class="node">
<title>Node4</title>
<g id="a_node4"><a xlink:href="Errors_8h.html" target="_top" xlink:title="Definitions of error names and error codes used across LLU.">
<polygon fill="white" stroke="black" points="0,-56.5 0,-75.5 112,-75.5 112,-56.5 0,-56.5"/>
<text text-anchor="middle" x="56" y="-63.5" font-family="Helvetica,sans-Serif" font-size="10.00">LLU/ErrorLog/Errors.h</text>
</a>
</g>
</g>
<!-- Node1&#45;&gt;Node4 -->
<g id="edge3" class="edge">
<title>Node1&#45;&gt;Node4</title>
<path fill="none" stroke="midnightblue" d="M256.59,-168.29C237.49,-155.1 199.46,-129.72 165,-112 140.37,-99.33 111.33,-87.49 89.42,-79.13"/>
<polygon fill="midnightblue" stroke="midnightblue" points="90.49,-75.79 79.9,-75.55 88.03,-82.35 90.49,-75.79"/>
</g>
<!-- Node6 -->
<g id="node6" class="node">
<title>Node6</title>
<g id="a_node6"><a xlink:href="Utilities_8hpp.html" target="_top" xlink:title="Short but generally useful functions.">
<polygon fill="white" stroke="black" points="483.5,-112.5 483.5,-131.5 572.5,-131.5 572.5,-112.5 483.5,-112.5"/>
<text text-anchor="middle" x="528" y="-119.5" font-family="Helvetica,sans-Serif" font-size="10.00">LLU/Utilities.hpp</text>
</a>
</g>
</g>
<!-- Node1&#45;&gt;Node6 -->
<g id="edge5" class="edge">
<title>Node1&#45;&gt;Node6</title>
<path fill="none" stroke="midnightblue" d="M289.32,-172.76C329.37,-164.41 419.57,-145.61 476.9,-133.65"/>
<polygon fill="midnightblue" stroke="midnightblue" points="477.78,-137.05 486.85,-131.58 476.35,-130.19 477.78,-137.05"/>
</g>
<!-- Node20 -->
<g id="node20" class="node">
<title>Node20</title>
<g id="a_node20"><a xlink:href="WSTP_2Utilities_8h.html" target="_top" xlink:title="Header file with miscellaneous utilities used throughout the WSTP&#45;related part of LibraryLinkUtilitie...">
<polygon fill="white" stroke="black" points="213.5,-112.5 213.5,-131.5 324.5,-131.5 324.5,-112.5 213.5,-112.5"/>
<text text-anchor="middle" x="269" y="-119.5" font-family="Helvetica,sans-Serif" font-size="10.00">LLU/WSTP/Utilities.h</text>
</a>
</g>
</g>
<!-- Node1&#45;&gt;Node20 -->
<g id="edge20" class="edge">
<title>Node1&#45;&gt;Node20</title>
<path fill="none" stroke="midnightblue" d="M269,-168.08C269,-161.01 269,-150.86 269,-141.99"/>
<polygon fill="midnightblue" stroke="midnightblue" points="272.5,-141.75 269,-131.75 265.5,-141.75 272.5,-141.75"/>
</g>
<!-- Node5 -->
<g id="node5" class="node">
<title>Node5</title>
<g id="a_node5"><a xlink:title=" ">
<polygon fill="white" stroke="#bfbfbf" points="119.5,-0.5 119.5,-19.5 160.5,-19.5 160.5,-0.5 119.5,-0.5"/>
<text text-anchor="middle" x="140" y="-7.5" font-family="Helvetica,sans-Serif" font-size="10.00">string</text>
</a>
</g>
</g>
<!-- Node4&#45;&gt;Node5 -->
<g id="edge4" class="edge">
<title>Node4&#45;&gt;Node5</title>
<path fill="none" stroke="midnightblue" d="M69.5,-56.32C82.6,-47.9 102.71,-34.97 118.11,-25.07"/>
<polygon fill="midnightblue" stroke="midnightblue" points="120.02,-28.01 126.54,-19.65 116.23,-22.12 120.02,-28.01"/>
</g>
<!-- Node7 -->
<g id="node7" class="node">
<title>Node7</title>
<g id="a_node7"><a xlink:title=" ">
<polygon fill="white" stroke="#bfbfbf" points="620.5,-56.5 620.5,-75.5 673.5,-75.5 673.5,-56.5 620.5,-56.5"/>
<text text-anchor="middle" x="647" y="-63.5" font-family="Helvetica,sans-Serif" font-size="10.00">complex</text>
</a>
</g>
</g>
<!-- Node6&#45;&gt;Node7 -->
<g id="edge6" class="edge">
<title>Node6&#45;&gt;Node7</title>
<path fill="none" stroke="midnightblue" d="M546.86,-112.44C566.27,-103.64 596.73,-89.81 618.96,-79.72"/>
<polygon fill="midnightblue" stroke="midnightblue" points="620.57,-82.84 628.23,-75.52 617.68,-76.46 620.57,-82.84"/>
</g>
<!-- Node8 -->
<g id="node8" class="node">
<title>Node8</title>
<g id="a_node8"><a xlink:title=" ">
<polygon fill="white" stroke="#bfbfbf" points="235,-0.5 235,-19.5 281,-19.5 281,-0.5 235,-0.5"/>
<text text-anchor="middle" x="258" y="-7.5" font-family="Helvetica,sans-Serif" font-size="10.00">cstdint</text>
</a>
</g>
</g>
<!-- Node6&#45;&gt;Node8 -->
<g id="edge7" class="edge">
<title>Node6&#45;&gt;Node8</title>
<path fill="none" stroke="midnightblue" d="M483.33,-120.01C415.06,-117.46 289.68,-108.37 261,-76 250.02,-63.6 250.63,-44.08 253.16,-29.67"/>
<polygon fill="midnightblue" stroke="midnightblue" points="256.59,-30.36 255.31,-19.84 249.75,-28.86 256.59,-30.36"/>
</g>
<!-- Node9 -->
<g id="node9" class="node">
<title>Node9</title>
<g id="a_node9"><a xlink:title=" ">
<polygon fill="white" stroke="#bfbfbf" points="316,-0.5 316,-19.5 378,-19.5 378,-0.5 316,-0.5"/>
<text text-anchor="middle" x="347" y="-7.5" font-family="Helvetica,sans-Serif" font-size="10.00">type_traits</text>
</a>
</g>
</g>
<!-- Node6&#45;&gt;Node9 -->
<g id="edge8" class="edge">
<title>Node6&#45;&gt;Node9</title>
<path fill="none" stroke="midnightblue" d="M516.3,-112.33C498.66,-99.41 464,-74.63 433,-56 413.8,-44.46 391.36,-32.78 374.21,-24.2"/>
<polygon fill="midnightblue" stroke="midnightblue" points="375.31,-20.84 364.79,-19.54 372.2,-27.12 375.31,-20.84"/>
</g>
<!-- Node10 -->
<g id="node10" class="node">
<title>Node10</title>
<g id="a_node10"><a xlink:title=" ">
<polygon fill="white" stroke="#bfbfbf" points="396,-0.5 396,-19.5 436,-19.5 436,-0.5 396,-0.5"/>
<text text-anchor="middle" x="416" y="-7.5" font-family="Helvetica,sans-Serif" font-size="10.00">utility</text>
</a>
</g>
</g>
<!-- Node6&#45;&gt;Node10 -->
<g id="edge9" class="edge">
<title>Node6&#45;&gt;Node10</title>
<path fill="none" stroke="midnightblue" d="M526.86,-112.4C524.66,-98.89 518.69,-72.55 504,-56 495.62,-46.55 467.77,-33.09 445.62,-23.35"/>
<polygon fill="midnightblue" stroke="midnightblue" points="446.82,-20.06 436.25,-19.3 444.04,-26.48 446.82,-20.06"/>
</g>
<!-- Node11 -->
<g id="node11" class="node">
<title>Node11</title>
<g id="a_node11"><a xlink:title=" ">
<polygon fill="white" stroke="#bfbfbf" points="556,-56.5 556,-75.5 602,-75.5 602,-56.5 556,-56.5"/>
<text text-anchor="middle" x="579" y="-63.5" font-family="Helvetica,sans-Serif" font-size="10.00">variant</text>
</a>
</g>
</g>
<!-- Node6&#45;&gt;Node11 -->
<g id="edge10" class="edge">
<title>Node6&#45;&gt;Node11</title>
<path fill="none" stroke="midnightblue" d="M536.42,-112.08C543.85,-104.22 554.85,-92.57 563.81,-83.08"/>
<polygon fill="midnightblue" stroke="midnightblue" points="566.41,-85.42 570.74,-75.75 561.32,-80.62 566.41,-85.42"/>
</g>
<!-- Node12 -->
<g id="node12" class="node">
<title>Node12</title>
<g id="a_node12"><a xlink:href="LibraryData_8h.html" target="_top" xlink:title=" ">
<polygon fill="white" stroke="black" points="797,-56.5 797,-75.5 893,-75.5 893,-56.5 797,-56.5"/>
<text text-anchor="middle" x="845" y="-63.5" font-family="Helvetica,sans-Serif" font-size="10.00">LLU/LibraryData.h</text>
</a>
</g>
</g>
<!-- Node6&#45;&gt;Node12 -->
<g id="edge11" class="edge">
<title>Node6&#45;&gt;Node12</title>
<path fill="none" stroke="midnightblue" d="M572.75,-113.38C628.84,-103.82 725.12,-87.42 786.87,-76.9"/>
<polygon fill="midnightblue" stroke="midnightblue" points="787.58,-80.33 796.85,-75.2 786.4,-73.43 787.58,-80.33"/>
</g>
<!-- Node12&#45;&gt;Node3 -->
<g id="edge14" class="edge">
<title>Node12&#45;&gt;Node3</title>
<path fill="none" stroke="midnightblue" d="M796.96,-60.57C733.58,-54.28 618.46,-41.32 510.44,-19.82"/>
<polygon fill="midnightblue" stroke="midnightblue" points="510.84,-16.33 500.34,-17.78 509.45,-23.19 510.84,-16.33"/>
</g>
<!-- Node13 -->
<g id="node13" class="node">
<title>Node13</title>
<g id="a_node13"><a xlink:title=" ">
<polygon fill="white" stroke="#bfbfbf" points="1226,-0.5 1226,-19.5 1278,-19.5 1278,-0.5 1226,-0.5"/>
<text text-anchor="middle" x="1252" y="-7.5" font-family="Helvetica,sans-Serif" font-size="10.00">memory</text>
</a>
</g>
</g>
<!-- Node12&#45;&gt;Node13 -->
<g id="edge12" class="edge">
<title>Node12&#45;&gt;Node13</title>
<path fill="none" stroke="midnightblue" d="M893.17,-61.21C962.5,-55.3 1094.56,-42.39 1215.88,-20"/>
<polygon fill="midnightblue" stroke="midnightblue" points="1216.52,-23.44 1225.71,-18.16 1215.24,-16.56 1216.52,-23.44"/>
</g>
<!-- Node14 -->
<g id="node14" class="node">
<title>Node14</title>
<g id="a_node14"><a xlink:title=" ">
<polygon fill="white" stroke="#bfbfbf" points="1296,-0.5 1296,-19.5 1358,-19.5 1358,-0.5 1296,-0.5"/>
<text text-anchor="middle" x="1327" y="-7.5" font-family="Helvetica,sans-Serif" font-size="10.00">dllexport.h</text>
</a>
</g>
</g>
<!-- Node12&#45;&gt;Node14 -->
<g id="edge13" class="edge">
<title>Node12&#45;&gt;Node14</title>
<path fill="none" stroke="midnightblue" d="M893.32,-61.98C973.04,-56.59 1137.24,-43.74 1285.44,-20.08"/>
<polygon fill="midnightblue" stroke="midnightblue" points="1286.31,-23.48 1295.63,-18.43 1285.2,-16.57 1286.31,-23.48"/>
</g>
<!-- Node15 -->
<g id="node15" class="node">
<title>Node15</title>
<g id="a_node15"><a xlink:title=" ">
<polygon fill="white" stroke="#bfbfbf" points="518.5,-0.5 518.5,-19.5 607.5,-19.5 607.5,-0.5 518.5,-0.5"/>
<text text-anchor="middle" x="563" y="-7.5" font-family="Helvetica,sans-Serif" font-size="10.00">WolframLibrary.h</text>
</a>
</g>
</g>
<!-- Node12&#45;&gt;Node15 -->
<g id="edge15" class="edge">
<title>Node12&#45;&gt;Node15</title>
<path fill="none" stroke="midnightblue" d="M800.32,-56.44C750.71,-46.94 670.64,-31.61 617.41,-21.42"/>
<polygon fill="midnightblue" stroke="midnightblue" points="617.95,-17.96 607.47,-19.52 616.64,-24.83 617.95,-17.96"/>
</g>
<!-- Node16 -->
<g id="node16" class="node">
<title>Node16</title>
<g id="a_node16"><a xlink:title=" ">
<polygon fill="white" stroke="#bfbfbf" points="625.5,-0.5 625.5,-19.5 768.5,-19.5 768.5,-0.5 625.5,-0.5"/>
<text text-anchor="middle" x="697" y="-7.5" font-family="Helvetica,sans-Serif" font-size="10.00">WolframIOLibraryFunctions.h</text>
</a>
</g>
</g>
<!-- Node12&#45;&gt;Node16 -->
<g id="edge16" class="edge">
<title>Node12&#45;&gt;Node16</title>
<path fill="none" stroke="midnightblue" d="M821.55,-56.44C796.87,-47.44 757.81,-33.19 730.02,-23.05"/>
<polygon fill="midnightblue" stroke="midnightblue" points="730.94,-19.66 720.34,-19.52 728.54,-26.23 730.94,-19.66"/>
</g>
<!-- Node17 -->
<g id="node17" class="node">
<title>Node17</title>
<g id="a_node17"><a xlink:title=" ">
<polygon fill="white" stroke="#bfbfbf" points="787,-0.5 787,-19.5 903,-19.5 903,-0.5 787,-0.5"/>
<text text-anchor="middle" x="845" y="-7.5" font-family="Helvetica,sans-Serif" font-size="10.00">WolframImageLibrary.h</text>
</a>
</g>
</g>
<!-- Node12&#45;&gt;Node17 -->
<g id="edge17" class="edge">
<title>Node12&#45;&gt;Node17</title>
<path fill="none" stroke="midnightblue" d="M845,-56.08C845,-49.01 845,-38.86 845,-29.99"/>
<polygon fill="midnightblue" stroke="midnightblue" points="848.5,-29.75 845,-19.75 841.5,-29.75 848.5,-29.75"/>
</g>
<!-- Node18 -->
<g id="node18" class="node">
<title>Node18</title>
<g id="a_node18"><a xlink:title=" ">
<polygon fill="white" stroke="#bfbfbf" points="921.5,-0.5 921.5,-19.5 1070.5,-19.5 1070.5,-0.5 921.5,-0.5"/>
<text text-anchor="middle" x="996" y="-7.5" font-family="Helvetica,sans-Serif" font-size="10.00">WolframNumericArrayLibrary.h</text>
</a>
</g>
</g>
<!-- Node12&#45;&gt;Node18 -->
<g id="edge18" class="edge">
<title>Node12&#45;&gt;Node18</title>
<path fill="none" stroke="midnightblue" d="M868.93,-56.44C894.22,-47.4 934.3,-33.06 962.68,-22.92"/>
<polygon fill="midnightblue" stroke="midnightblue" points="963.95,-26.18 972.19,-19.52 961.59,-19.59 963.95,-26.18"/>
</g>
<!-- Node19 -->
<g id="node19" class="node">
<title>Node19</title>
<g id="a_node19"><a xlink:title=" ">
<polygon fill="white" stroke="#bfbfbf" points="1088.5,-0.5 1088.5,-19.5 1207.5,-19.5 1207.5,-0.5 1088.5,-0.5"/>
<text text-anchor="middle" x="1148" y="-7.5" font-family="Helvetica,sans-Serif" font-size="10.00">WolframSparseLibrary.h</text>
</a>
</g>
</g>
<!-- Node12&#45;&gt;Node19 -->
<g id="edge19" class="edge">
<title>Node12&#45;&gt;Node19</title>
<path fill="none" stroke="midnightblue" d="M893.01,-56.44C946.53,-46.9 1033.07,-31.48 1090.24,-21.29"/>
<polygon fill="midnightblue" stroke="midnightblue" points="1090.98,-24.72 1100.21,-19.52 1089.75,-17.83 1090.98,-24.72"/>
</g>
<!-- Node20&#45;&gt;Node3 -->
<g id="edge23" class="edge">
<title>Node20&#45;&gt;Node3</title>
<path fill="none" stroke="midnightblue" d="M324.86,-115.53C358.71,-109.95 401.32,-98.7 433,-76 449.74,-64 462.05,-43.52 469.33,-28.75"/>
<polygon fill="midnightblue" stroke="midnightblue" points="472.53,-30.16 473.55,-19.61 466.18,-27.22 472.53,-30.16"/>
</g>
<!-- Node20&#45;&gt;Node4 -->
<g id="edge24" class="edge">
<title>Node20&#45;&gt;Node4</title>
<path fill="none" stroke="midnightblue" d="M235.25,-112.44C198.48,-103.12 139.55,-88.18 99.38,-78"/>
<polygon fill="midnightblue" stroke="midnightblue" points="100.15,-74.58 89.59,-75.52 98.43,-81.37 100.15,-74.58"/>
</g>
<!-- Node20&#45;&gt;Node5 -->
<g id="edge22" class="edge">
<title>Node20&#45;&gt;Node5</title>
<path fill="none" stroke="midnightblue" d="M224.54,-112.45C202.05,-105.98 175.99,-94.85 159,-76 147.57,-63.32 143,-44.12 141.17,-29.87"/>
<polygon fill="midnightblue" stroke="midnightblue" points="144.64,-29.35 140.23,-19.72 137.67,-30 144.64,-29.35"/>
</g>
<!-- Node21 -->
<g id="node21" class="node">
<title>Node21</title>
<g id="a_node21"><a xlink:title=" ">
<polygon fill="white" stroke="#bfbfbf" points="168,-56.5 168,-75.5 214,-75.5 214,-56.5 168,-56.5"/>
<text text-anchor="middle" x="191" y="-63.5" font-family="Helvetica,sans-Serif" font-size="10.00">cstring</text>
</a>
</g>
</g>
<!-- Node20&#45;&gt;Node21 -->
<g id="edge21" class="edge">
<title>Node20&#45;&gt;Node21</title>
<path fill="none" stroke="midnightblue" d="M256.47,-112.32C244.41,-103.98 225.97,-91.21 211.73,-81.35"/>
<polygon fill="midnightblue" stroke="midnightblue" points="213.72,-78.47 203.5,-75.65 209.73,-84.22 213.72,-78.47"/>
</g>
<!-- Node22 -->
<g id="node22" class="node">
<title>Node22</title>
<g id="a_node22"><a xlink:href="EncodingTraits_8hpp.html" target="_top" xlink:title="Defines possible encodings together with their properties and related types.">
<polygon fill="white" stroke="black" points="270,-56.5 270,-75.5 424,-75.5 424,-56.5 270,-56.5"/>
<text text-anchor="middle" x="347" y="-63.5" font-family="Helvetica,sans-Serif" font-size="10.00">LLU/WSTP/EncodingTraits.hpp</text>
</a>
</g>
</g>
<!-- Node20&#45;&gt;Node22 -->
<g id="edge25" class="edge">
<title>Node20&#45;&gt;Node22</title>
<path fill="none" stroke="midnightblue" d="M281.53,-112.32C293.59,-103.98 312.03,-91.21 326.27,-81.35"/>
<polygon fill="midnightblue" stroke="midnightblue" points="328.27,-84.22 334.5,-75.65 324.28,-78.47 328.27,-84.22"/>
</g>
<!-- Node22&#45;&gt;Node5 -->
<g id="edge27" class="edge">
<title>Node22&#45;&gt;Node5</title>
<path fill="none" stroke="midnightblue" d="M314.2,-56.44C274.81,-46.17 209.25,-29.07 170.78,-19.03"/>
<polygon fill="midnightblue" stroke="midnightblue" points="171.26,-15.54 160.7,-16.4 169.49,-22.31 171.26,-15.54"/>
</g>
<!-- Node22&#45;&gt;Node8 -->
<g id="edge26" class="edge">
<title>Node22&#45;&gt;Node8</title>
<path fill="none" stroke="midnightblue" d="M332.7,-56.32C318.82,-47.9 297.51,-34.97 281.2,-25.07"/>
<polygon fill="midnightblue" stroke="midnightblue" points="282.63,-21.85 272.26,-19.65 279,-27.83 282.63,-21.85"/>
</g>
<!-- Node22&#45;&gt;Node9 -->
<g id="edge28" class="edge">
<title>Node22&#45;&gt;Node9</title>
<path fill="none" stroke="midnightblue" d="M347,-56.08C347,-49.01 347,-38.86 347,-29.99"/>
<polygon fill="midnightblue" stroke="midnightblue" points="350.5,-29.75 347,-19.75 343.5,-29.75 350.5,-29.75"/>
</g>
<!-- Node22&#45;&gt;Node10 -->
<g id="edge29" class="edge">
<title>Node22&#45;&gt;Node10</title>
<path fill="none" stroke="midnightblue" d="M358.09,-56.32C368.49,-48.18 384.26,-35.84 396.72,-26.09"/>
<polygon fill="midnightblue" stroke="midnightblue" points="398.99,-28.75 404.71,-19.83 394.68,-23.24 398.99,-28.75"/>
</g>
</g>
</svg>
