<?xml version="1.0" encoding="UTF-8" standalone="no"?>
<!DOCTYPE svg PUBLIC "-//W3C//DTD SVG 1.1//EN"
 "http://www.w3.org/Graphics/SVG/1.1/DTD/svg11.dtd">
<!-- Generated by graphviz version 2.43.0 (0)
 -->
<!-- Title: Put.cpp Pages: 1 -->
<svg width="1376pt" height="252pt"
 viewBox="0.00 0.00 1376.00 252.00" xmlns="http://www.w3.org/2000/svg" xmlns:xlink="http://www.w3.org/1999/xlink">
<g id="graph0" class="graph" transform="scale(1 1) rotate(0) translate(4 248)">
<title>Put.cpp</title>
<polygon fill="white" stroke="transparent" points="-4,4 -4,-248 1372,-248 1372,4 -4,4"/>
<!-- Node1 -->
<g id="node1" class="node">
<title>Node1</title>
<g id="a_node1"><a xlink:title="Implementation file with classes related to sending data through WSTP.">
<polygon fill="#bfbfbf" stroke="black" points="541,-224.5 541,-243.5 591,-243.5 591,-224.5 541,-224.5"/>
<text text-anchor="middle" x="566" y="-231.5" font-family="Helvetica,sans-Serif" font-size="10.00">Put.cpp</text>
</a>
</g>
</g>
<!-- Node2 -->
<g id="node2" class="node">
<title>Node2</title>
<g id="a_node2"><a xlink:href="Put_8h.html" target="_top" xlink:title="Header file with classes related to sending data through WSTP.">
<polygon fill="white" stroke="black" points="372.5,-168.5 372.5,-187.5 465.5,-187.5 465.5,-168.5 372.5,-168.5"/>
<text text-anchor="middle" x="419" y="-175.5" font-family="Helvetica,sans-Serif" font-size="10.00">LLU/WSTP/Put.h</text>
</a>
</g>
</g>
<!-- Node1&#45;&gt;Node2 -->
<g id="edge1" class="edge">
<title>Node1&#45;&gt;Node2</title>
<path fill="none" stroke="midnightblue" d="M542.71,-224.44C518.19,-215.44 479.4,-201.19 451.8,-191.05"/>
<polygon fill="midnightblue" stroke="midnightblue" points="452.78,-187.68 442.18,-187.52 450.36,-194.25 452.78,-187.68"/>
</g>
<!-- Node4 -->
<g id="node4" class="node">
<title>Node4</title>
<g id="a_node4"><a xlink:title=" ">
<polygon fill="white" stroke="#bfbfbf" points="465,-0.5 465,-19.5 511,-19.5 511,-0.5 465,-0.5"/>
<text text-anchor="middle" x="488" y="-7.5" font-family="Helvetica,sans-Serif" font-size="10.00">wstp.h</text>
</a>
</g>
</g>
<!-- Node1&#45;&gt;Node4 -->
<g id="edge31" class="edge">
<title>Node1&#45;&gt;Node4</title>
<path fill="none" stroke="midnightblue" d="M584.08,-224.45C635.44,-199.05 775.02,-121.76 720,-56 692.59,-23.24 577.81,-29.42 521.16,-20"/>
<polygon fill="midnightblue" stroke="midnightblue" points="521.78,-16.56 511.29,-18.05 520.42,-23.42 521.78,-16.56"/>
</g>
<!-- Node7 -->
<g id="node7" class="node">
<title>Node7</title>
<g id="a_node7"><a xlink:href="Utilities_8hpp.html" target="_top" xlink:title="Short but generally useful functions.">
<polygon fill="white" stroke="black" points="521.5,-112.5 521.5,-131.5 610.5,-131.5 610.5,-112.5 521.5,-112.5"/>
<text text-anchor="middle" x="566" y="-119.5" font-family="Helvetica,sans-Serif" font-size="10.00">LLU/Utilities.hpp</text>
</a>
</g>
</g>
<!-- Node1&#45;&gt;Node7 -->
<g id="edge32" class="edge">
<title>Node1&#45;&gt;Node7</title>
<path fill="none" stroke="midnightblue" d="M566,-224.37C566,-206.62 566,-165.67 566,-141.6"/>
<polygon fill="midnightblue" stroke="midnightblue" points="569.5,-141.59 566,-131.59 562.5,-141.59 569.5,-141.59"/>
</g>
<!-- Node3 -->
<g id="node3" class="node">
<title>Node3</title>
<g id="a_node3"><a xlink:title=" ">
<polygon fill="white" stroke="#bfbfbf" points="214.5,-112.5 214.5,-131.5 273.5,-131.5 273.5,-112.5 214.5,-112.5"/>
<text text-anchor="middle" x="244" y="-119.5" font-family="Helvetica,sans-Serif" font-size="10.00">functional</text>
</a>
</g>
</g>
<!-- Node2&#45;&gt;Node3 -->
<g id="edge2" class="edge">
<title>Node2&#45;&gt;Node3</title>
<path fill="none" stroke="midnightblue" d="M391.27,-168.44C361.57,-159.28 314.28,-144.69 281.33,-134.52"/>
<polygon fill="midnightblue" stroke="midnightblue" points="282.19,-131.12 271.6,-131.52 280.12,-137.81 282.19,-131.12"/>
</g>
<!-- Node2&#45;&gt;Node4 -->
<g id="edge3" class="edge">
<title>Node2&#45;&gt;Node4</title>
<path fill="none" stroke="midnightblue" d="M422.71,-168.08C433.62,-141.83 465.74,-64.55 480.47,-29.12"/>
<polygon fill="midnightblue" stroke="midnightblue" points="483.83,-30.15 484.44,-19.57 477.37,-27.46 483.83,-30.15"/>
</g>
<!-- Node5 -->
<g id="node5" class="node">
<title>Node5</title>
<g id="a_node5"><a xlink:href="Errors_8h.html" target="_top" xlink:title="Definitions of error names and error codes used across LLU.">
<polygon fill="white" stroke="black" points="0,-56.5 0,-75.5 112,-75.5 112,-56.5 0,-56.5"/>
<text text-anchor="middle" x="56" y="-63.5" font-family="Helvetica,sans-Serif" font-size="10.00">LLU/ErrorLog/Errors.h</text>
</a>
</g>
</g>
<!-- Node2&#45;&gt;Node5 -->
<g id="edge4" class="edge">
<title>Node2&#45;&gt;Node5</title>
<path fill="none" stroke="midnightblue" d="M372.37,-170.02C328.54,-162.79 261.42,-150.03 205,-132 160.32,-117.72 110.85,-94.58 81.64,-80.11"/>
<polygon fill="midnightblue" stroke="midnightblue" points="83.06,-76.91 72.55,-75.56 79.92,-83.16 83.06,-76.91"/>
</g>
<!-- Node2&#45;&gt;Node7 -->
<g id="edge6" class="edge">
<title>Node2&#45;&gt;Node7</title>
<path fill="none" stroke="midnightblue" d="M442.29,-168.44C466.81,-159.44 505.6,-145.19 533.2,-135.05"/>
<polygon fill="midnightblue" stroke="midnightblue" points="534.64,-138.25 542.82,-131.52 532.22,-131.68 534.64,-138.25"/>
</g>
<!-- Node21 -->
<g id="node21" class="node">
<title>Node21</title>
<g id="a_node21"><a xlink:href="WSTP_2Utilities_8h.html" target="_top" xlink:title="Header file with miscellaneous utilities used throughout the WSTP&#45;related part of LibraryLinkUtilitie...">
<polygon fill="white" stroke="black" points="291.5,-112.5 291.5,-131.5 402.5,-131.5 402.5,-112.5 291.5,-112.5"/>
<text text-anchor="middle" x="347" y="-119.5" font-family="Helvetica,sans-Serif" font-size="10.00">LLU/WSTP/Utilities.h</text>
</a>
</g>
</g>
<!-- Node2&#45;&gt;Node21 -->
<g id="edge21" class="edge">
<title>Node2&#45;&gt;Node21</title>
<path fill="none" stroke="midnightblue" d="M407.43,-168.32C396.58,-160.18 380.12,-147.84 367.12,-138.09"/>
<polygon fill="midnightblue" stroke="midnightblue" points="368.88,-135.03 358.78,-131.83 364.68,-140.63 368.88,-135.03"/>
</g>
<!-- Node6 -->
<g id="node6" class="node">
<title>Node6</title>
<g id="a_node6"><a xlink:title=" ">
<polygon fill="white" stroke="#bfbfbf" points="119.5,-0.5 119.5,-19.5 160.5,-19.5 160.5,-0.5 119.5,-0.5"/>
<text text-anchor="middle" x="140" y="-7.5" font-family="Helvetica,sans-Serif" font-size="10.00">string</text>
</a>
</g>
</g>
<!-- Node5&#45;&gt;Node6 -->
<g id="edge5" class="edge">
<title>Node5&#45;&gt;Node6</title>
<path fill="none" stroke="midnightblue" d="M69.5,-56.32C82.6,-47.9 102.71,-34.97 118.11,-25.07"/>
<polygon fill="midnightblue" stroke="midnightblue" points="120.02,-28.01 126.54,-19.65 116.23,-22.12 120.02,-28.01"/>
</g>
<!-- Node8 -->
<g id="node8" class="node">
<title>Node8</title>
<g id="a_node8"><a xlink:title=" ">
<polygon fill="white" stroke="#bfbfbf" points="658.5,-56.5 658.5,-75.5 711.5,-75.5 711.5,-56.5 658.5,-56.5"/>
<text text-anchor="middle" x="685" y="-63.5" font-family="Helvetica,sans-Serif" font-size="10.00">complex</text>
</a>
</g>
</g>
<!-- Node7&#45;&gt;Node8 -->
<g id="edge7" class="edge">
<title>Node7&#45;&gt;Node8</title>
<path fill="none" stroke="midnightblue" d="M584.86,-112.44C604.27,-103.64 634.73,-89.81 656.96,-79.72"/>
<polygon fill="midnightblue" stroke="midnightblue" points="658.57,-82.84 666.23,-75.52 655.68,-76.46 658.57,-82.84"/>
</g>
<!-- Node9 -->
<g id="node9" class="node">
<title>Node9</title>
<g id="a_node9"><a xlink:title=" ">
<polygon fill="white" stroke="#bfbfbf" points="235,-0.5 235,-19.5 281,-19.5 281,-0.5 235,-0.5"/>
<text text-anchor="middle" x="258" y="-7.5" font-family="Helvetica,sans-Serif" font-size="10.00">cstdint</text>
</a>
</g>
</g>
<!-- Node7&#45;&gt;Node9 -->
<g id="edge8" class="edge">
<title>Node7&#45;&gt;Node9</title>
<path fill="none" stroke="midnightblue" d="M521.26,-117.52C440.75,-110.8 278.21,-95.03 261,-76 249.89,-63.71 250.52,-44.18 253.09,-29.73"/>
<polygon fill="midnightblue" stroke="midnightblue" points="256.53,-30.39 255.27,-19.87 249.69,-28.88 256.53,-30.39"/>
</g>
<!-- Node10 -->
<g id="node10" class="node">
<title>Node10</title>
<g id="a_node10"><a xlink:title=" ">
<polygon fill="white" stroke="#bfbfbf" points="318,-0.5 318,-19.5 380,-19.5 380,-0.5 318,-0.5"/>
<text text-anchor="middle" x="349" y="-7.5" font-family="Helvetica,sans-Serif" font-size="10.00">type_traits</text>
</a>
</g>
</g>
<!-- Node7&#45;&gt;Node10 -->
<g id="edge9" class="edge">
<title>Node7&#45;&gt;Node10</title>
<path fill="none" stroke="midnightblue" d="M548.97,-112.37C511.18,-93.21 420.09,-47.04 375.07,-24.22"/>
<polygon fill="midnightblue" stroke="midnightblue" points="376.45,-20.99 365.95,-19.59 373.29,-27.23 376.45,-20.99"/>
</g>
<!-- Node11 -->
<g id="node11" class="node">
<title>Node11</title>
<g id="a_node11"><a xlink:title=" ">
<polygon fill="white" stroke="#bfbfbf" points="404,-0.5 404,-19.5 444,-19.5 444,-0.5 404,-0.5"/>
<text text-anchor="middle" x="424" y="-7.5" font-family="Helvetica,sans-Serif" font-size="10.00">utility</text>
</a>
</g>
</g>
<!-- Node7&#45;&gt;Node11 -->
<g id="edge10" class="edge">
<title>Node7&#45;&gt;Node11</title>
<path fill="none" stroke="midnightblue" d="M565.07,-112.2C563.16,-98.43 557.57,-71.73 542,-56 535.5,-49.43 486.4,-32 453.62,-20.86"/>
<polygon fill="midnightblue" stroke="midnightblue" points="454.63,-17.51 444.03,-17.63 452.39,-24.14 454.63,-17.51"/>
</g>
<!-- Node12 -->
<g id="node12" class="node">
<title>Node12</title>
<g id="a_node12"><a xlink:title=" ">
<polygon fill="white" stroke="#bfbfbf" points="594,-56.5 594,-75.5 640,-75.5 640,-56.5 594,-56.5"/>
<text text-anchor="middle" x="617" y="-63.5" font-family="Helvetica,sans-Serif" font-size="10.00">variant</text>
</a>
</g>
</g>
<!-- Node7&#45;&gt;Node12 -->
<g id="edge11" class="edge">
<title>Node7&#45;&gt;Node12</title>
<path fill="none" stroke="midnightblue" d="M574.42,-112.08C581.85,-104.22 592.85,-92.57 601.81,-83.08"/>
<polygon fill="midnightblue" stroke="midnightblue" points="604.41,-85.42 608.74,-75.75 599.32,-80.62 604.41,-85.42"/>
</g>
<!-- Node13 -->
<g id="node13" class="node">
<title>Node13</title>
<g id="a_node13"><a xlink:href="LibraryData_8h.html" target="_top" xlink:title=" ">
<polygon fill="white" stroke="black" points="811,-56.5 811,-75.5 907,-75.5 907,-56.5 811,-56.5"/>
<text text-anchor="middle" x="859" y="-63.5" font-family="Helvetica,sans-Serif" font-size="10.00">LLU/LibraryData.h</text>
</a>
</g>
</g>
<!-- Node7&#45;&gt;Node13 -->
<g id="edge12" class="edge">
<title>Node7&#45;&gt;Node13</title>
<path fill="none" stroke="midnightblue" d="M610.5,-112.8C661.89,-103.33 746.53,-87.73 802.52,-77.41"/>
<polygon fill="midnightblue" stroke="midnightblue" points="803.43,-80.8 812.63,-75.55 802.16,-73.92 803.43,-80.8"/>
</g>
<!-- Node13&#45;&gt;Node4 -->
<g id="edge15" class="edge">
<title>Node13&#45;&gt;Node4</title>
<path fill="none" stroke="midnightblue" d="M810.75,-60.93C746.5,-55 629.22,-42.4 521.34,-20.26"/>
<polygon fill="midnightblue" stroke="midnightblue" points="521.77,-16.78 511.26,-18.16 520.34,-23.63 521.77,-16.78"/>
</g>
<!-- Node14 -->
<g id="node14" class="node">
<title>Node14</title>
<g id="a_node14"><a xlink:title=" ">
<polygon fill="white" stroke="#bfbfbf" points="833,-0.5 833,-19.5 885,-19.5 885,-0.5 833,-0.5"/>
<text text-anchor="middle" x="859" y="-7.5" font-family="Helvetica,sans-Serif" font-size="10.00">memory</text>
</a>
</g>
</g>
<!-- Node13&#45;&gt;Node14 -->
<g id="edge13" class="edge">
<title>Node13&#45;&gt;Node14</title>
<path fill="none" stroke="midnightblue" d="M859,-56.08C859,-49.01 859,-38.86 859,-29.99"/>
<polygon fill="midnightblue" stroke="midnightblue" points="862.5,-29.75 859,-19.75 855.5,-29.75 862.5,-29.75"/>
</g>
<!-- Node15 -->
<g id="node15" class="node">
<title>Node15</title>
<g id="a_node15"><a xlink:title=" ">
<polygon fill="white" stroke="#bfbfbf" points="903,-0.5 903,-19.5 965,-19.5 965,-0.5 903,-0.5"/>
<text text-anchor="middle" x="934" y="-7.5" font-family="Helvetica,sans-Serif" font-size="10.00">dllexport.h</text>
</a>
</g>
</g>
<!-- Node13&#45;&gt;Node15 -->
<g id="edge14" class="edge">
<title>Node13&#45;&gt;Node15</title>
<path fill="none" stroke="midnightblue" d="M871.05,-56.32C882.46,-48.11 899.83,-35.6 913.43,-25.81"/>
<polygon fill="midnightblue" stroke="midnightblue" points="915.66,-28.52 921.73,-19.83 911.57,-22.84 915.66,-28.52"/>
</g>
<!-- Node16 -->
<g id="node16" class="node">
<title>Node16</title>
<g id="a_node16"><a xlink:title=" ">
<polygon fill="white" stroke="#bfbfbf" points="983.5,-0.5 983.5,-19.5 1072.5,-19.5 1072.5,-0.5 983.5,-0.5"/>
<text text-anchor="middle" x="1028" y="-7.5" font-family="Helvetica,sans-Serif" font-size="10.00">WolframLibrary.h</text>
</a>
</g>
</g>
<!-- Node13&#45;&gt;Node16 -->
<g id="edge16" class="edge">
<title>Node13&#45;&gt;Node16</title>
<path fill="none" stroke="midnightblue" d="M885.78,-56.44C914.33,-47.32 959.73,-32.81 991.54,-22.65"/>
<polygon fill="midnightblue" stroke="midnightblue" points="992.89,-25.89 1001.35,-19.52 990.76,-19.23 992.89,-25.89"/>
</g>
<!-- Node17 -->
<g id="node17" class="node">
<title>Node17</title>
<g id="a_node17"><a xlink:title=" ">
<polygon fill="white" stroke="#bfbfbf" points="1090.5,-0.5 1090.5,-19.5 1233.5,-19.5 1233.5,-0.5 1090.5,-0.5"/>
<text text-anchor="middle" x="1162" y="-7.5" font-family="Helvetica,sans-Serif" font-size="10.00">WolframIOLibraryFunctions.h</text>
</a>
</g>
</g>
<!-- Node13&#45;&gt;Node17 -->
<g id="edge17" class="edge">
<title>Node13&#45;&gt;Node17</title>
<path fill="none" stroke="midnightblue" d="M907.01,-56.44C960.53,-46.9 1047.07,-31.48 1104.24,-21.29"/>
<polygon fill="midnightblue" stroke="midnightblue" points="1104.98,-24.72 1114.21,-19.52 1103.75,-17.83 1104.98,-24.72"/>
</g>
<!-- Node18 -->
<g id="node18" class="node">
<title>Node18</title>
<g id="a_node18"><a xlink:title=" ">
<polygon fill="white" stroke="#bfbfbf" points="1252,-0.5 1252,-19.5 1368,-19.5 1368,-0.5 1252,-0.5"/>
<text text-anchor="middle" x="1310" y="-7.5" font-family="Helvetica,sans-Serif" font-size="10.00">WolframImageLibrary.h</text>
</a>
</g>
</g>
<!-- Node13&#45;&gt;Node18 -->
<g id="edge18" class="edge">
<title>Node13&#45;&gt;Node18</title>
<path fill="none" stroke="midnightblue" d="M907.22,-59.61C978.1,-51.64 1114.84,-36.03 1241.63,-20.16"/>
<polygon fill="midnightblue" stroke="midnightblue" points="1242.42,-23.58 1251.9,-18.87 1241.55,-16.64 1242.42,-23.58"/>
</g>
<!-- Node19 -->
<g id="node19" class="node">
<title>Node19</title>
<g id="a_node19"><a xlink:title=" ">
<polygon fill="white" stroke="#bfbfbf" points="528.5,-0.5 528.5,-19.5 677.5,-19.5 677.5,-0.5 528.5,-0.5"/>
<text text-anchor="middle" x="603" y="-7.5" font-family="Helvetica,sans-Serif" font-size="10.00">WolframNumericArrayLibrary.h</text>
</a>
</g>
</g>
<!-- Node13&#45;&gt;Node19 -->
<g id="edge19" class="edge">
<title>Node13&#45;&gt;Node19</title>
<path fill="none" stroke="midnightblue" d="M818.44,-56.44C773.68,-47 701.62,-31.8 653.3,-21.61"/>
<polygon fill="midnightblue" stroke="midnightblue" points="653.88,-18.16 643.37,-19.52 652.44,-25.01 653.88,-18.16"/>
</g>
<!-- Node20 -->
<g id="node20" class="node">
<title>Node20</title>
<g id="a_node20"><a xlink:title=" ">
<polygon fill="white" stroke="#bfbfbf" points="695.5,-0.5 695.5,-19.5 814.5,-19.5 814.5,-0.5 695.5,-0.5"/>
<text text-anchor="middle" x="755" y="-7.5" font-family="Helvetica,sans-Serif" font-size="10.00">WolframSparseLibrary.h</text>
</a>
</g>
</g>
<!-- Node13&#45;&gt;Node20 -->
<g id="edge20" class="edge">
<title>Node13&#45;&gt;Node20</title>
<path fill="none" stroke="midnightblue" d="M842.29,-56.32C825.69,-47.7 800,-34.36 780.78,-24.39"/>
<polygon fill="midnightblue" stroke="midnightblue" points="782.16,-21.16 771.67,-19.65 778.93,-27.37 782.16,-21.16"/>
</g>
<!-- Node21&#45;&gt;Node4 -->
<g id="edge24" class="edge">
<title>Node21&#45;&gt;Node4</title>
<path fill="none" stroke="midnightblue" d="M368.88,-112.37C387.14,-104.53 413.27,-91.8 433,-76 450.23,-62.2 466.07,-42.39 476.28,-28.27"/>
<polygon fill="midnightblue" stroke="midnightblue" points="479.25,-30.13 482.13,-19.94 473.52,-26.11 479.25,-30.13"/>
</g>
<!-- Node21&#45;&gt;Node5 -->
<g id="edge25" class="edge">
<title>Node21&#45;&gt;Node5</title>
<path fill="none" stroke="midnightblue" d="M300.89,-112.44C249.59,-102.92 166.73,-87.55 111.81,-77.36"/>
<polygon fill="midnightblue" stroke="midnightblue" points="112.36,-73.9 101.89,-75.52 111.09,-80.78 112.36,-73.9"/>
</g>
<!-- Node21&#45;&gt;Node6 -->
<g id="edge23" class="edge">
<title>Node21&#45;&gt;Node6</title>
<path fill="none" stroke="midnightblue" d="M300.64,-112.42C248.38,-102.35 169.3,-85.8 159,-76 146.5,-64.1 142.09,-44.48 140.6,-29.91"/>
<polygon fill="midnightblue" stroke="midnightblue" points="144.07,-29.3 139.93,-19.54 137.08,-29.74 144.07,-29.3"/>
</g>
<!-- Node22 -->
<g id="node22" class="node">
<title>Node22</title>
<g id="a_node22"><a xlink:title=" ">
<polygon fill="white" stroke="#bfbfbf" points="168,-56.5 168,-75.5 214,-75.5 214,-56.5 168,-56.5"/>
<text text-anchor="middle" x="191" y="-63.5" font-family="Helvetica,sans-Serif" font-size="10.00">cstring</text>
</a>
</g>
</g>
<!-- Node21&#45;&gt;Node22 -->
<g id="edge22" class="edge">
<title>Node21&#45;&gt;Node22</title>
<path fill="none" stroke="midnightblue" d="M322.28,-112.44C295.69,-103.24 253.27,-88.56 223.88,-78.38"/>
<polygon fill="midnightblue" stroke="midnightblue" points="224.67,-74.95 214.08,-74.99 222.38,-81.57 224.67,-74.95"/>
</g>
<!-- Node23 -->
<g id="node23" class="node">
<title>Node23</title>
<g id="a_node23"><a xlink:href="EncodingTraits_8hpp.html" target="_top" xlink:title="Defines possible encodings together with their properties and related types.">
<polygon fill="white" stroke="black" points="270,-56.5 270,-75.5 424,-75.5 424,-56.5 270,-56.5"/>
<text text-anchor="middle" x="347" y="-63.5" font-family="Helvetica,sans-Serif" font-size="10.00">LLU/WSTP/EncodingTraits.hpp</text>
</a>
</g>
</g>
<!-- Node21&#45;&gt;Node23 -->
<g id="edge26" class="edge">
<title>Node21&#45;&gt;Node23</title>
<path fill="none" stroke="midnightblue" d="M347,-112.08C347,-105.01 347,-94.86 347,-85.99"/>
<polygon fill="midnightblue" stroke="midnightblue" points="350.5,-85.75 347,-75.75 343.5,-85.75 350.5,-85.75"/>
</g>
<!-- Node23&#45;&gt;Node6 -->
<g id="edge28" class="edge">
<title>Node23&#45;&gt;Node6</title>
<path fill="none" stroke="midnightblue" d="M314.2,-56.44C274.81,-46.17 209.25,-29.07 170.78,-19.03"/>
<polygon fill="midnightblue" stroke="midnightblue" points="171.26,-15.54 160.7,-16.4 169.49,-22.31 171.26,-15.54"/>
</g>
<!-- Node23&#45;&gt;Node9 -->
<g id="edge27" class="edge">
<title>Node23&#45;&gt;Node9</title>
<path fill="none" stroke="midnightblue" d="M332.7,-56.32C318.82,-47.9 297.51,-34.97 281.2,-25.07"/>
<polygon fill="midnightblue" stroke="midnightblue" points="282.63,-21.85 272.26,-19.65 279,-27.83 282.63,-21.85"/>
</g>
<!-- Node23&#45;&gt;Node10 -->
<g id="edge29" class="edge">
<title>Node23&#45;&gt;Node10</title>
<path fill="none" stroke="midnightblue" d="M347.33,-56.08C347.59,-49.01 347.97,-38.86 348.3,-29.99"/>
<polygon fill="midnightblue" stroke="midnightblue" points="351.8,-29.87 348.68,-19.75 344.81,-29.61 351.8,-29.87"/>
</g>
<!-- Node23&#45;&gt;Node11 -->
<g id="edge30" class="edge">
<title>Node23&#45;&gt;Node11</title>
<path fill="none" stroke="midnightblue" d="M359.37,-56.32C371.16,-48.06 389.13,-35.45 403.14,-25.63"/>
<polygon fill="midnightblue" stroke="midnightblue" points="405.48,-28.26 411.66,-19.65 401.46,-22.53 405.48,-28.26"/>
</g>
</g>
</svg>
