<?xml version="1.0" encoding="UTF-8" standalone="no"?>
<!DOCTYPE svg PUBLIC "-//W3C//DTD SVG 1.1//EN"
 "http://www.w3.org/Graphics/SVG/1.1/DTD/svg11.dtd">
<!-- Generated by graphviz version 2.43.0 (0)
 -->
<!-- Title: Queue.h Pages: 1 -->
<svg width="236pt" height="84pt"
 viewBox="0.00 0.00 235.50 84.00" xmlns="http://www.w3.org/2000/svg" xmlns:xlink="http://www.w3.org/1999/xlink">
<g id="graph0" class="graph" transform="scale(1 1) rotate(0) translate(4 80)">
<title>Queue.h</title>
<polygon fill="white" stroke="transparent" points="-4,4 -4,-80 231.5,-80 231.5,4 -4,4"/>
<!-- Node1 -->
<g id="node1" class="node">
<title>Node1</title>
<g id="a_node1"><a xlink:title="Definition and implementation of a thread&#45;safe queue, taken from A. Williams &quot;C++ Concurrency in Acti...">
<polygon fill="#bfbfbf" stroke="black" points="113,-56.5 113,-75.5 166,-75.5 166,-56.5 113,-56.5"/>
<text text-anchor="middle" x="139.5" y="-63.5" font-family="Helvetica,sans-Serif" font-size="10.00">Queue.h</text>
</a>
</g>
</g>
<!-- Node2 -->
<g id="node2" class="node">
<title>Node2</title>
<g id="a_node2"><a xlink:title=" ">
<polygon fill="white" stroke="#bfbfbf" points="0,-0.5 0,-19.5 95,-19.5 95,-0.5 0,-0.5"/>
<text text-anchor="middle" x="47.5" y="-7.5" font-family="Helvetica,sans-Serif" font-size="10.00">condition_variable</text>
</a>
</g>
</g>
<!-- Node1&#45;&gt;Node2 -->
<g id="edge1" class="edge">
<title>Node1&#45;&gt;Node2</title>
<path fill="none" stroke="midnightblue" d="M124.72,-56.32C110.23,-47.82 87.93,-34.73 71.01,-24.8"/>
<polygon fill="midnightblue" stroke="midnightblue" points="72.64,-21.7 62.24,-19.65 69.1,-27.74 72.64,-21.7"/>
</g>
<!-- Node3 -->
<g id="node3" class="node">
<title>Node3</title>
<g id="a_node3"><a xlink:title=" ">
<polygon fill="white" stroke="#bfbfbf" points="113.5,-0.5 113.5,-19.5 165.5,-19.5 165.5,-0.5 113.5,-0.5"/>
<text text-anchor="middle" x="139.5" y="-7.5" font-family="Helvetica,sans-Serif" font-size="10.00">memory</text>
</a>
</g>
</g>
<!-- Node1&#45;&gt;Node3 -->
<g id="edge2" class="edge">
<title>Node1&#45;&gt;Node3</title>
<path fill="none" stroke="midnightblue" d="M139.5,-56.08C139.5,-49.01 139.5,-38.86 139.5,-29.99"/>
<polygon fill="midnightblue" stroke="midnightblue" points="143,-29.75 139.5,-19.75 136,-29.75 143,-29.75"/>
</g>
<!-- Node4 -->
<g id="node4" class="node">
<title>Node4</title>
<g id="a_node4"><a xlink:title=" ">
<polygon fill="white" stroke="#bfbfbf" points="183.5,-0.5 183.5,-19.5 227.5,-19.5 227.5,-0.5 183.5,-0.5"/>
<text text-anchor="middle" x="205.5" y="-7.5" font-family="Helvetica,sans-Serif" font-size="10.00">mutex</text>
</a>
</g>
</g>
<!-- Node1&#45;&gt;Node4 -->
<g id="edge3" class="edge">
<title>Node1&#45;&gt;Node4</title>
<path fill="none" stroke="midnightblue" d="M150.1,-56.32C159.96,-48.26 174.85,-36.08 186.72,-26.37"/>
<polygon fill="midnightblue" stroke="midnightblue" points="189.18,-28.88 194.7,-19.83 184.75,-23.46 189.18,-28.88"/>
</g>
</g>
</svg>
