<?xml version="1.0" encoding="UTF-8" standalone="no"?>
<!DOCTYPE svg PUBLIC "-//W3C//DTD SVG 1.1//EN"
 "http://www.w3.org/Graphics/SVG/1.1/DTD/svg11.dtd">
<!-- Generated by graphviz version 2.43.0 (0)
 -->
<!-- Title: SparseArray.hpp Pages: 1 -->
<!--zoomable 476 -->
<svg id="main" version="1.1" xmlns="http://www.w3.org/2000/svg" xmlns:xlink="http://www.w3.org/1999/xlink" xml:space="preserve" onload="init(evt)">
<style type="text/css"><![CDATA[
.edge:hover path { stroke: red; }
.edge:hover polygon { stroke: red; fill: red; }
]]></style>
<script type="text/javascript"><![CDATA[
var edges = document.getElementsByTagName('g');
if (edges && edges.length) {
  for (var i=0;i<edges.length;i++) {
    if (edges[i].id.substr(0,4)=='edge') {
      edges[i].setAttribute('class','edge');
    }
  }
}
]]></script>
        <defs>
                <circle id="rim" cx="0" cy="0" r="7"/>
                <circle id="rim2" cx="0" cy="0" r="3.5"/>
                <g id="zoomPlus">
                        <use xlink:href="#rim" fill="#404040">
                                <set attributeName="fill" to="#808080" begin="zoomplus.mouseover" end="zoomplus.mouseout"/>
                        </use>
                        <path d="M-4,0h8M0,-4v8" fill="none" stroke="white" stroke-width="1.5" pointer-events="none"/>
                </g>
                <g id="zoomMin">
                        <use xlink:href="#rim" fill="#404040">
                                <set attributeName="fill" to="#808080" begin="zoomminus.mouseover" end="zoomminus.mouseout"/>
                        </use>
                        <path d="M-4,0h8" fill="none" stroke="white" stroke-width="1.5" pointer-events="none"/>
                </g>
                <g id="dirArrow">
                        <path fill="none" stroke="white" stroke-width="1.5" d="M0,-3.0v7 M-2.5,-0.5L0,-3.0L2.5,-0.5"/>
                </g>
               <g id="resetDef">
                       <use xlink:href="#rim2" fill="#404040">
                               <set attributeName="fill" to="#808080" begin="reset.mouseover" end="reset.mouseout"/>
                       </use>
               </g>
        </defs>

<script type="text/javascript">
var viewWidth = 474;
var viewHeight = 476;
var sectionId = 'dynsection-1';
</script>
<script xlink:href="svgpan.js"/>
<svg id="graph" class="graph">
<g id="viewport">
<title>SparseArray.hpp</title>
<polygon fill="white" stroke="transparent" points="-4,4 -4,-472 470,-472 470,4 -4,4"/>
<!-- Node1 -->
<g id="node1" class="node">
<title>Node1</title>
<g id="a_node1"><a xlink:title="GenericSparseArray definition and implementation.">
<polygon fill="#bfbfbf" stroke="black" points="24,-448.5 24,-467.5 112,-467.5 112,-448.5 24,-448.5"/>
<text text-anchor="middle" x="68" y="-455.5" font-family="Helvetica,sans-Serif" font-size="10.00">SparseArray.hpp</text>
</a>
</g>
</g>
<!-- Node2 -->
<g id="node2" class="node">
<title>Node2</title>
<g id="a_node2"><a xlink:href="SparseArray_8h.html" target="_top" xlink:title="Templated C++ wrapper for MSparseArray.">
<polygon fill="white" stroke="black" points="19.5,-112.5 19.5,-131.5 96.5,-131.5 96.5,-112.5 19.5,-112.5"/>
<text text-anchor="middle" x="58" y="-119.5" font-family="Helvetica,sans-Serif" font-size="10.00">SparseArray.h</text>
</a>
</g>
</g>
<!-- Node1&#45;&gt;Node2 -->
<g id="edge1" class="edge">
<title>Node1&#45;&gt;Node2</title>
<path fill="none" stroke="midnightblue" d="M50.58,-441.46C30.43,-421.69 0,-385.45 0,-347 0,-347 0,-347 0,-233 0,-190.9 33.65,-149.11 49.69,-131.59"/>
<polygon fill="midnightblue" stroke="midnightblue" points="48.29,-444.11 57.97,-448.43 53.1,-439.02 48.29,-444.11"/>
</g>
<!-- Node9 -->
<g id="node9" class="node">
<title>Node9</title>
<g id="a_node9"><a xlink:href="TypedMArgument_8h.html" target="_top" xlink:title=" ">
<polygon fill="white" stroke="black" points="119.5,-392.5 119.5,-411.5 220.5,-411.5 220.5,-392.5 119.5,-392.5"/>
<text text-anchor="middle" x="170" y="-399.5" font-family="Helvetica,sans-Serif" font-size="10.00">TypedMArgument.h</text>
</a>
</g>
</g>
<!-- Node1&#45;&gt;Node9 -->
<g id="edge9" class="edge">
<title>Node1&#45;&gt;Node9</title>
<path fill="none" stroke="midnightblue" d="M93.33,-443.59C112.19,-433.61 137.38,-420.27 153.65,-411.65"/>
<polygon fill="midnightblue" stroke="midnightblue" points="91.59,-440.55 84.39,-448.32 94.86,-446.74 91.59,-440.55"/>
</g>
<!-- Node3 -->
<g id="node3" class="node">
<title>Node3</title>
<g id="a_node3"><a xlink:href="LLU_8h.html" target="_top" xlink:title="Header file which includes all major parts of LLU.">
<polygon fill="white" stroke="black" points="79.5,-0.5 79.5,-19.5 122.5,-19.5 122.5,-0.5 79.5,-0.5"/>
<text text-anchor="middle" x="101" y="-7.5" font-family="Helvetica,sans-Serif" font-size="10.00">LLU.h</text>
</a>
</g>
</g>
<!-- Node2&#45;&gt;Node3 -->
<g id="edge2" class="edge">
<title>Node2&#45;&gt;Node3</title>
<path fill="none" stroke="midnightblue" d="M43.99,-103.96C34.74,-90.53 25.73,-71.53 34,-56 43.49,-38.19 63.5,-26.18 79.2,-19.08"/>
<polygon fill="midnightblue" stroke="midnightblue" points="41.42,-106.37 50.22,-112.27 47.01,-102.17 41.42,-106.37"/>
</g>
<!-- Node4 -->
<g id="node4" class="node">
<title>Node4</title>
<g id="a_node4"><a xlink:href="MArgumentManager_8h.html" target="_top" xlink:title="Definition of MArgumentManager class.">
<polygon fill="white" stroke="black" points="187,-56.5 187,-75.5 299,-75.5 299,-56.5 187,-56.5"/>
<text text-anchor="middle" x="243" y="-63.5" font-family="Helvetica,sans-Serif" font-size="10.00">MArgumentManager.h</text>
</a>
</g>
</g>
<!-- Node2&#45;&gt;Node4 -->
<g id="edge3" class="edge">
<title>Node2&#45;&gt;Node4</title>
<path fill="none" stroke="midnightblue" d="M97.17,-109.57C132.07,-99.38 182.35,-84.7 213.82,-75.52"/>
<polygon fill="midnightblue" stroke="midnightblue" points="95.93,-106.28 87.31,-112.44 97.89,-113 95.93,-106.28"/>
</g>
<!-- Node8 -->
<g id="node8" class="node">
<title>Node8</title>
<g id="a_node8"><a xlink:href="SparseArray_8cpp.html" target="_top" xlink:title="Implementation of GenericSparseArray and SparseArray&lt;T&gt;">
<polygon fill="white" stroke="black" points="43,-56.5 43,-75.5 131,-75.5 131,-56.5 43,-56.5"/>
<text text-anchor="middle" x="87" y="-63.5" font-family="Helvetica,sans-Serif" font-size="10.00">SparseArray.cpp</text>
</a>
</g>
</g>
<!-- Node2&#45;&gt;Node8 -->
<g id="edge8" class="edge">
<title>Node2&#45;&gt;Node8</title>
<path fill="none" stroke="midnightblue" d="M67.68,-102.98C72.6,-93.82 78.36,-83.09 82.3,-75.75"/>
<polygon fill="midnightblue" stroke="midnightblue" points="64.44,-101.62 62.79,-112.08 70.6,-104.93 64.44,-101.62"/>
</g>
<!-- Node4&#45;&gt;Node3 -->
<g id="edge4" class="edge">
<title>Node4&#45;&gt;Node3</title>
<path fill="none" stroke="midnightblue" d="M211.14,-52.88C184.27,-42.67 146.52,-28.31 122.93,-19.34"/>
<polygon fill="midnightblue" stroke="midnightblue" points="209.91,-56.16 220.5,-56.44 212.4,-49.62 209.91,-56.16"/>
</g>
<!-- Node5 -->
<g id="node5" class="node">
<title>Node5</title>
<g id="a_node5"><a xlink:href="LibraryLinkError_8cpp.html" target="_top" xlink:title="Contains definitions of ErrorManager members and implementation of interface function sendRegisteredE...">
<polygon fill="white" stroke="black" points="140.5,-0.5 140.5,-19.5 243.5,-19.5 243.5,-0.5 140.5,-0.5"/>
<text text-anchor="middle" x="192" y="-7.5" font-family="Helvetica,sans-Serif" font-size="10.00">LibraryLinkError.cpp</text>
</a>
</g>
</g>
<!-- Node4&#45;&gt;Node5 -->
<g id="edge5" class="edge">
<title>Node4&#45;&gt;Node5</title>
<path fill="none" stroke="midnightblue" d="M227.62,-48.72C218.63,-39.2 207.64,-27.56 200.26,-19.75"/>
<polygon fill="midnightblue" stroke="midnightblue" points="225.17,-51.22 234.58,-56.08 230.26,-46.41 225.17,-51.22"/>
</g>
<!-- Node6 -->
<g id="node6" class="node">
<title>Node6</title>
<g id="a_node6"><a xlink:href="Logger_8cpp.html" target="_top" xlink:title="Implementation of functions defined in Logger.h.">
<polygon fill="white" stroke="black" points="262,-0.5 262,-19.5 326,-19.5 326,-0.5 262,-0.5"/>
<text text-anchor="middle" x="294" y="-7.5" font-family="Helvetica,sans-Serif" font-size="10.00">Logger.cpp</text>
</a>
</g>
</g>
<!-- Node4&#45;&gt;Node6 -->
<g id="edge6" class="edge">
<title>Node4&#45;&gt;Node6</title>
<path fill="none" stroke="midnightblue" d="M258.38,-48.72C267.37,-39.2 278.36,-27.56 285.74,-19.75"/>
<polygon fill="midnightblue" stroke="midnightblue" points="255.74,-46.41 251.42,-56.08 260.83,-51.22 255.74,-46.41"/>
</g>
<!-- Node7 -->
<g id="node7" class="node">
<title>Node7</title>
<g id="a_node7"><a xlink:href="MArgumentManager_8cpp.html" target="_top" xlink:title="Definitions of non&#45;template member functions and static data members from MArgumentManager class.">
<polygon fill="white" stroke="black" points="344,-0.5 344,-19.5 466,-19.5 466,-0.5 344,-0.5"/>
<text text-anchor="middle" x="405" y="-7.5" font-family="Helvetica,sans-Serif" font-size="10.00">MArgumentManager.cpp</text>
</a>
</g>
</g>
<!-- Node4&#45;&gt;Node7 -->
<g id="edge7" class="edge">
<title>Node4&#45;&gt;Node7</title>
<path fill="none" stroke="midnightblue" d="M278.48,-53.17C308.99,-43 352.24,-28.59 379.45,-19.52"/>
<polygon fill="midnightblue" stroke="midnightblue" points="277.05,-49.96 268.67,-56.44 279.26,-56.6 277.05,-49.96"/>
</g>
<!-- Node10 -->
<g id="node10" class="node">
<title>Node10</title>
<g id="a_node10"><a xlink:href="DataList_8h.html" target="_top" xlink:title="Definition of templated DataStore wrapper called DataList.">
<polygon fill="white" stroke="black" points="212,-112.5 212,-131.5 274,-131.5 274,-112.5 212,-112.5"/>
<text text-anchor="middle" x="243" y="-119.5" font-family="Helvetica,sans-Serif" font-size="10.00">DataList.h</text>
</a>
</g>
</g>
<!-- Node9&#45;&gt;Node10 -->
<g id="edge10" class="edge">
<title>Node9&#45;&gt;Node10</title>
<path fill="none" stroke="midnightblue" d="M224.54,-390.31C303.42,-373.26 440,-337.08 440,-291 440,-291 440,-291 440,-233 440,-157.99 329.76,-133.65 274.22,-126.14"/>
<polygon fill="midnightblue" stroke="midnightblue" points="223.34,-386.98 214.28,-392.49 224.79,-393.83 223.34,-386.98"/>
</g>
<!-- Node11 -->
<g id="node11" class="node">
<title>Node11</title>
<g id="a_node11"><a xlink:href="Generic_2DataStore_8hpp.html" target="_top" xlink:title="Definition and implementation of generic DataStore wrapper.">
<polygon fill="white" stroke="black" points="164,-280.5 164,-299.5 244,-299.5 244,-280.5 164,-280.5"/>
<text text-anchor="middle" x="204" y="-287.5" font-family="Helvetica,sans-Serif" font-size="10.00">DataStore.hpp</text>
</a>
</g>
</g>
<!-- Node9&#45;&gt;Node11 -->
<g id="edge13" class="edge">
<title>Node9&#45;&gt;Node11</title>
<path fill="none" stroke="midnightblue" d="M176.24,-382.8C179,-374.63 182.23,-364.85 185,-356 191.25,-336.03 197.99,-312.4 201.52,-299.86"/>
<polygon fill="midnightblue" stroke="midnightblue" points="172.88,-381.81 172.97,-392.4 179.51,-384.06 172.88,-381.81"/>
</g>
<!-- Node12 -->
<g id="node12" class="node">
<title>Node12</title>
<g id="a_node12"><a xlink:href="DataNode_8hpp.html" target="_top" xlink:title=" ">
<polygon fill="white" stroke="black" points="28,-224.5 28,-243.5 108,-243.5 108,-224.5 28,-224.5"/>
<text text-anchor="middle" x="68" y="-231.5" font-family="Helvetica,sans-Serif" font-size="10.00">DataNode.hpp</text>
</a>
</g>
</g>
<!-- Node9&#45;&gt;Node12 -->
<g id="edge20" class="edge">
<title>Node9&#45;&gt;Node12</title>
<path fill="none" stroke="midnightblue" d="M131.18,-388.7C115.06,-381.64 97.67,-371.11 87,-356 61.98,-320.57 64.77,-264.77 66.94,-243.56"/>
<polygon fill="midnightblue" stroke="midnightblue" points="129.87,-391.95 140.46,-392.46 132.5,-385.46 129.87,-391.95"/>
</g>
<!-- Node15 -->
<g id="node15" class="node">
<title>Node15</title>
<g id="a_node15"><a xlink:href="TypedMArgument_8cpp.html" target="_top" xlink:title=" ">
<polygon fill="white" stroke="black" points="300,-224.5 300,-243.5 412,-243.5 412,-224.5 300,-224.5"/>
<text text-anchor="middle" x="356" y="-231.5" font-family="Helvetica,sans-Serif" font-size="10.00">TypedMArgument.cpp</text>
</a>
</g>
</g>
<!-- Node9&#45;&gt;Node15 -->
<g id="edge24" class="edge">
<title>Node9&#45;&gt;Node15</title>
<path fill="none" stroke="midnightblue" d="M187.51,-385.37C225.94,-351.07 316.61,-270.16 346.36,-243.61"/>
<polygon fill="midnightblue" stroke="midnightblue" points="184.87,-383.04 179.74,-392.31 189.53,-388.26 184.87,-383.04"/>
</g>
<!-- Node16 -->
<g id="node16" class="node">
<title>Node16</title>
<g id="a_node16"><a xlink:href="Iterators_2DataStore_8hpp.html" target="_top" xlink:title=" ">
<polygon fill="white" stroke="black" points="96,-336.5 96,-355.5 176,-355.5 176,-336.5 96,-336.5"/>
<text text-anchor="middle" x="136" y="-343.5" font-family="Helvetica,sans-Serif" font-size="10.00">DataStore.hpp</text>
</a>
</g>
</g>
<!-- Node9&#45;&gt;Node16 -->
<g id="edge21" class="edge">
<title>Node9&#45;&gt;Node16</title>
<path fill="none" stroke="midnightblue" d="M159.02,-383.57C153.17,-374.27 146.23,-363.25 141.51,-355.75"/>
<polygon fill="midnightblue" stroke="midnightblue" points="156.1,-385.49 164.39,-392.08 162.02,-381.76 156.1,-385.49"/>
</g>
<!-- Node10&#45;&gt;Node3 -->
<g id="edge11" class="edge">
<title>Node10&#45;&gt;Node3</title>
<path fill="none" stroke="midnightblue" d="M221.19,-106.66C208.39,-98.06 192.03,-86.74 178,-76 152.99,-56.86 125.09,-32.5 110.72,-19.72"/>
<polygon fill="midnightblue" stroke="midnightblue" points="219.53,-109.76 229.79,-112.39 223.41,-103.93 219.53,-109.76"/>
</g>
<!-- Node10&#45;&gt;Node4 -->
<g id="edge12" class="edge">
<title>Node10&#45;&gt;Node4</title>
<path fill="none" stroke="midnightblue" d="M243,-101.8C243,-92.91 243,-82.78 243,-75.75"/>
<polygon fill="midnightblue" stroke="midnightblue" points="239.5,-102.08 243,-112.08 246.5,-102.08 239.5,-102.08"/>
</g>
<!-- Node11&#45;&gt;Node10 -->
<g id="edge14" class="edge">
<title>Node11&#45;&gt;Node10</title>
<path fill="none" stroke="midnightblue" d="M227.1,-274.35C237.04,-266.66 247.61,-256.27 253,-244 270.13,-205.02 254,-152.22 246.43,-131.68"/>
<polygon fill="midnightblue" stroke="midnightblue" points="224.75,-271.73 218.66,-280.4 228.83,-277.42 224.75,-271.73"/>
</g>
<!-- Node11&#45;&gt;Node12 -->
<g id="edge15" class="edge">
<title>Node11&#45;&gt;Node12</title>
<path fill="none" stroke="midnightblue" d="M172.87,-276.64C147.34,-266.5 111.89,-252.43 89.45,-243.52"/>
<polygon fill="midnightblue" stroke="midnightblue" points="171.86,-280.01 182.45,-280.44 174.45,-273.5 171.86,-280.01"/>
</g>
<!-- Node14 -->
<g id="node14" class="node">
<title>Node14</title>
<g id="a_node14"><a xlink:href="DataStore_8cpp.html" target="_top" xlink:title=" ">
<polygon fill="white" stroke="black" points="164,-224.5 164,-243.5 244,-243.5 244,-224.5 164,-224.5"/>
<text text-anchor="middle" x="204" y="-231.5" font-family="Helvetica,sans-Serif" font-size="10.00">DataStore.cpp</text>
</a>
</g>
</g>
<!-- Node11&#45;&gt;Node14 -->
<g id="edge18" class="edge">
<title>Node11&#45;&gt;Node14</title>
<path fill="none" stroke="midnightblue" d="M204,-269.8C204,-260.91 204,-250.78 204,-243.75"/>
<polygon fill="midnightblue" stroke="midnightblue" points="200.5,-270.08 204,-280.08 207.5,-270.08 200.5,-270.08"/>
</g>
<!-- Node11&#45;&gt;Node15 -->
<g id="edge19" class="edge">
<title>Node11&#45;&gt;Node15</title>
<path fill="none" stroke="midnightblue" d="M237.67,-277.04C266.27,-266.88 306.61,-252.55 332.03,-243.52"/>
<polygon fill="midnightblue" stroke="midnightblue" points="236.34,-273.8 228.08,-280.44 238.68,-280.39 236.34,-273.8"/>
</g>
<!-- Node13 -->
<g id="node13" class="node">
<title>Node13</title>
<g id="a_node13"><a xlink:href="DataList_8hpp.html" target="_top" xlink:title="Special iterators for DataLists. Iteration over keys, values, reversed iteration.">
<polygon fill="white" stroke="black" points="100,-168.5 100,-187.5 172,-187.5 172,-168.5 100,-168.5"/>
<text text-anchor="middle" x="136" y="-175.5" font-family="Helvetica,sans-Serif" font-size="10.00">DataList.hpp</text>
</a>
</g>
</g>
<!-- Node12&#45;&gt;Node13 -->
<g id="edge16" class="edge">
<title>Node12&#45;&gt;Node13</title>
<path fill="none" stroke="midnightblue" d="M86.76,-218.1C99,-208.38 114.56,-196.03 124.88,-187.83"/>
<polygon fill="midnightblue" stroke="midnightblue" points="84.58,-215.36 78.93,-224.32 88.93,-220.85 84.58,-215.36"/>
</g>
<!-- Node13&#45;&gt;Node10 -->
<g id="edge17" class="edge">
<title>Node13&#45;&gt;Node10</title>
<path fill="none" stroke="midnightblue" d="M162.3,-163.73C182.11,-153.73 208.71,-140.31 225.85,-131.65"/>
<polygon fill="midnightblue" stroke="midnightblue" points="160.54,-160.69 153.19,-168.32 163.7,-166.94 160.54,-160.69"/>
</g>
<!-- Node16&#45;&gt;Node11 -->
<g id="edge22" class="edge">
<title>Node16&#45;&gt;Node11</title>
<path fill="none" stroke="midnightblue" d="M154.76,-330.1C167,-320.38 182.56,-308.03 192.88,-299.83"/>
<polygon fill="midnightblue" stroke="midnightblue" points="152.58,-327.36 146.93,-336.32 156.93,-332.85 152.58,-327.36"/>
</g>
<!-- Node16&#45;&gt;Node13 -->
<g id="edge23" class="edge">
<title>Node16&#45;&gt;Node13</title>
<path fill="none" stroke="midnightblue" d="M136,-325.93C136,-289.92 136,-213.23 136,-187.57"/>
<polygon fill="midnightblue" stroke="midnightblue" points="132.5,-326.08 136,-336.08 139.5,-326.08 132.5,-326.08"/>
</g>
</g>
</svg>
        <g id="navigator" transform="translate(0 0)" fill="#404254">
                <rect fill="#f2f5e9" fill-opacity="0.5" stroke="#606060" stroke-width=".5" x="0" y="0" width="60" height="60"/>
                <use id="zoomplus" xlink:href="#zoomPlus" x="17" y="9" onmousedown="handleZoom(evt,'in')"/>
                <use id="zoomminus" xlink:href="#zoomMin" x="42" y="9" onmousedown="handleZoom(evt,'out')"/>
                <use id="reset" xlink:href="#resetDef" x="30" y="36" onmousedown="handleReset()"/>
                <g id="arrowUp" xlink:href="#dirArrow" transform="translate(30 24)" onmousedown="handlePan(0,-1)">
                  <use xlink:href="#rim" fill="#404040">
                        <set attributeName="fill" to="#808080" begin="arrowUp.mouseover" end="arrowUp.mouseout"/>
                  </use>
                  <path fill="none" stroke="white" stroke-width="1.5" d="M0,-3.0v7 M-2.5,-0.5L0,-3.0L2.5,-0.5"/>
                </g>
                <g id="arrowRight" xlink:href="#dirArrow" transform="rotate(90) translate(36 -43)" onmousedown="handlePan(1,0)">
                  <use xlink:href="#rim" fill="#404040">
                        <set attributeName="fill" to="#808080" begin="arrowRight.mouseover" end="arrowRight.mouseout"/>
                  </use>
                  <path fill="none" stroke="white" stroke-width="1.5" d="M0,-3.0v7 M-2.5,-0.5L0,-3.0L2.5,-0.5"/>
                </g>
                <g id="arrowDown" xlink:href="#dirArrow" transform="rotate(180) translate(-30 -48)" onmousedown="handlePan(0,1)">
                  <use xlink:href="#rim" fill="#404040">
                        <set attributeName="fill" to="#808080" begin="arrowDown.mouseover" end="arrowDown.mouseout"/>
                  </use>
                  <path fill="none" stroke="white" stroke-width="1.5" d="M0,-3.0v7 M-2.5,-0.5L0,-3.0L2.5,-0.5"/>
                </g>
                <g id="arrowLeft" xlink:href="#dirArrow" transform="rotate(270) translate(-36 17)" onmousedown="handlePan(-1,0)">
                  <use xlink:href="#rim" fill="#404040">
                        <set attributeName="fill" to="#808080" begin="arrowLeft.mouseover" end="arrowLeft.mouseout"/>
                  </use>
                  <path fill="none" stroke="white" stroke-width="1.5" d="M0,-3.0v7 M-2.5,-0.5L0,-3.0L2.5,-0.5"/>
                </g>
        </g>
        <svg viewBox="0 0 15 15" width="100%" height="30px" preserveAspectRatio="xMaxYMin meet">
         <g id="arrow_out" transform="scale(0.3 0.3)">
          <a xlink:href="SparseArray_8hpp__dep__incl_org.svg" target="_base">
           <rect id="button" ry="5" rx="5" y="6" x="6" height="38" width="38"
                fill="#f2f5e9" fill-opacity="0.5" stroke="#606060" stroke-width="1.0"/>
           <path id="arrow"
             d="M 11.500037,31.436501 C 11.940474,20.09759 22.043105,11.32322 32.158766,21.979434 L 37.068811,17.246167 C 37.068811,17.246167 37.088388,32 37.088388,32 L 22.160133,31.978069 C 22.160133,31.978069 26.997745,27.140456 26.997745,27.140456 C 18.528582,18.264221 13.291696,25.230495 11.500037,31.436501 z"
             style="fill:#404040;"/>
          </a>
         </g>
        </svg>
</svg>
