<?xml version="1.0" encoding="UTF-8" standalone="no"?>
<!DOCTYPE svg PUBLIC "-//W3C//DTD SVG 1.1//EN"
 "http://www.w3.org/Graphics/SVG/1.1/DTD/svg11.dtd">
<!-- Generated by graphviz version 2.43.0 (0)
 -->
<!-- Title: Strings.cpp Pages: 1 -->
<!--zoomable 252 -->
<svg id="main" version="1.1" xmlns="http://www.w3.org/2000/svg" xmlns:xlink="http://www.w3.org/1999/xlink" xml:space="preserve" onload="init(evt)">
<style type="text/css"><![CDATA[
.edge:hover path { stroke: red; }
.edge:hover polygon { stroke: red; fill: red; }
]]></style>
<script type="text/javascript"><![CDATA[
var edges = document.getElementsByTagName('g');
if (edges && edges.length) {
  for (var i=0;i<edges.length;i++) {
    if (edges[i].id.substr(0,4)=='edge') {
      edges[i].setAttribute('class','edge');
    }
  }
}
]]></script>
        <defs>
                <circle id="rim" cx="0" cy="0" r="7"/>
                <circle id="rim2" cx="0" cy="0" r="3.5"/>
                <g id="zoomPlus">
                        <use xlink:href="#rim" fill="#404040">
                                <set attributeName="fill" to="#808080" begin="zoomplus.mouseover" end="zoomplus.mouseout"/>
                        </use>
                        <path d="M-4,0h8M0,-4v8" fill="none" stroke="white" stroke-width="1.5" pointer-events="none"/>
                </g>
                <g id="zoomMin">
                        <use xlink:href="#rim" fill="#404040">
                                <set attributeName="fill" to="#808080" begin="zoomminus.mouseover" end="zoomminus.mouseout"/>
                        </use>
                        <path d="M-4,0h8" fill="none" stroke="white" stroke-width="1.5" pointer-events="none"/>
                </g>
                <g id="dirArrow">
                        <path fill="none" stroke="white" stroke-width="1.5" d="M0,-3.0v7 M-2.5,-0.5L0,-3.0L2.5,-0.5"/>
                </g>
               <g id="resetDef">
                       <use xlink:href="#rim2" fill="#404040">
                               <set attributeName="fill" to="#808080" begin="reset.mouseover" end="reset.mouseout"/>
                       </use>
               </g>
        </defs>

<script type="text/javascript">
var viewWidth = 1379;
var viewHeight = 252;
var sectionId = 'dynsection-0';
</script>
<script xlink:href="svgpan.js"/>
<svg id="graph" class="graph">
<g id="viewport">
<title>Strings.cpp</title>
<polygon fill="white" stroke="transparent" points="-4,4 -4,-248 1375,-248 1375,4 -4,4"/>
<!-- Node1 -->
<g id="node1" class="node">
<title>Node1</title>
<g id="a_node1"><a xlink:title="Implementation file for all the functionality related to Strings in WSTP.">
<polygon fill="#bfbfbf" stroke="black" points="610,-224.5 610,-243.5 676,-243.5 676,-224.5 610,-224.5"/>
<text text-anchor="middle" x="643" y="-231.5" font-family="Helvetica,sans-Serif" font-size="10.00">Strings.cpp</text>
</a>
</g>
</g>
<!-- Node2 -->
<g id="node2" class="node">
<title>Node2</title>
<g id="a_node2"><a xlink:href="Strings_8h.html" target="_top" xlink:title="Definitions of multiple structures and type aliases related to string handling in WSTP.">
<polygon fill="white" stroke="black" points="737.5,-168.5 737.5,-187.5 846.5,-187.5 846.5,-168.5 737.5,-168.5"/>
<text text-anchor="middle" x="792" y="-175.5" font-family="Helvetica,sans-Serif" font-size="10.00">LLU/WSTP/Strings.h</text>
</a>
</g>
</g>
<!-- Node1&#45;&gt;Node2 -->
<g id="edge1" class="edge">
<title>Node1&#45;&gt;Node2</title>
<path fill="none" stroke="midnightblue" d="M666.61,-224.44C691.46,-215.44 730.77,-201.19 758.75,-191.05"/>
<polygon fill="midnightblue" stroke="midnightblue" points="760.29,-194.21 768.5,-187.52 757.91,-187.63 760.29,-194.21"/>
</g>
<!-- Node3 -->
<g id="node3" class="node">
<title>Node3</title>
<g id="a_node3"><a xlink:title=" ">
<polygon fill="white" stroke="#bfbfbf" points="433,-112.5 433,-131.5 489,-131.5 489,-112.5 433,-112.5"/>
<text text-anchor="middle" x="461" y="-119.5" font-family="Helvetica,sans-Serif" font-size="10.00">algorithm</text>
</a>
</g>
</g>
<!-- Node1&#45;&gt;Node3 -->
<g id="edge34" class="edge">
<title>Node1&#45;&gt;Node3</title>
<path fill="none" stroke="midnightblue" d="M628.72,-224.37C597.35,-205.41 522.22,-160 484.07,-136.94"/>
<polygon fill="midnightblue" stroke="midnightblue" points="485.58,-133.77 475.21,-131.59 481.96,-139.76 485.58,-133.77"/>
</g>
<!-- Node2&#45;&gt;Node3 -->
<g id="edge2" class="edge">
<title>Node2&#45;&gt;Node3</title>
<path fill="none" stroke="midnightblue" d="M737.25,-169.42C679.01,-161.13 584.26,-147.02 503,-132 501.76,-131.77 500.51,-131.53 499.24,-131.29"/>
<polygon fill="midnightblue" stroke="midnightblue" points="499.92,-127.86 489.42,-129.32 498.54,-134.72 499.92,-127.86"/>
</g>
<!-- Node4 -->
<g id="node4" class="node">
<title>Node4</title>
<g id="a_node4"><a xlink:title=" ">
<polygon fill="white" stroke="#bfbfbf" points="1174.5,-112.5 1174.5,-131.5 1233.5,-131.5 1233.5,-112.5 1174.5,-112.5"/>
<text text-anchor="middle" x="1204" y="-119.5" font-family="Helvetica,sans-Serif" font-size="10.00">functional</text>
</a>
</g>
</g>
<!-- Node2&#45;&gt;Node4 -->
<g id="edge3" class="edge">
<title>Node2&#45;&gt;Node4</title>
<path fill="none" stroke="midnightblue" d="M846.75,-171.69C918.81,-164.38 1049.31,-150.06 1160,-132 1161.44,-131.76 1162.91,-131.52 1164.39,-131.26"/>
<polygon fill="midnightblue" stroke="midnightblue" points="1165.05,-134.69 1174.24,-129.42 1163.77,-127.81 1165.05,-134.69"/>
</g>
<!-- Node5 -->
<g id="node5" class="node">
<title>Node5</title>
<g id="a_node5"><a xlink:title=" ">
<polygon fill="white" stroke="#bfbfbf" points="0,-0.5 0,-19.5 52,-19.5 52,-0.5 0,-0.5"/>
<text text-anchor="middle" x="26" y="-7.5" font-family="Helvetica,sans-Serif" font-size="10.00">memory</text>
</a>
</g>
</g>
<!-- Node2&#45;&gt;Node5 -->
<g id="edge4" class="edge">
<title>Node2&#45;&gt;Node5</title>
<path fill="none" stroke="midnightblue" d="M753.97,-168.46C697.96,-155.92 589.98,-131.85 498,-112 307.21,-70.83 255.96,-65.35 62.28,-20.23"/>
<polygon fill="midnightblue" stroke="midnightblue" points="62.88,-16.77 52.34,-17.91 61.28,-23.59 62.88,-16.77"/>
</g>
<!-- Node6 -->
<g id="node6" class="node">
<title>Node6</title>
<g id="a_node6"><a xlink:title=" ">
<polygon fill="white" stroke="#bfbfbf" points="858,-0.5 858,-19.5 904,-19.5 904,-0.5 858,-0.5"/>
<text text-anchor="middle" x="881" y="-7.5" font-family="Helvetica,sans-Serif" font-size="10.00">wstp.h</text>
</a>
</g>
</g>
<!-- Node2&#45;&gt;Node6 -->
<g id="edge5" class="edge">
<title>Node2&#45;&gt;Node6</title>
<path fill="none" stroke="midnightblue" d="M779.49,-168.4C751.36,-148.03 687.87,-95.58 718,-56 718.25,-55.67 800.23,-33.15 847.82,-20.09"/>
<polygon fill="midnightblue" stroke="midnightblue" points="848.97,-23.41 857.69,-17.39 847.12,-16.66 848.97,-23.41"/>
</g>
<!-- Node7 -->
<g id="node7" class="node">
<title>Node7</title>
<g id="a_node7"><a xlink:href="Errors_8h.html" target="_top" xlink:title="Definitions of error names and error codes used across LLU.">
<polygon fill="white" stroke="black" points="1259,-56.5 1259,-75.5 1371,-75.5 1371,-56.5 1259,-56.5"/>
<text text-anchor="middle" x="1315" y="-63.5" font-family="Helvetica,sans-Serif" font-size="10.00">LLU/ErrorLog/Errors.h</text>
</a>
</g>
</g>
<!-- Node2&#45;&gt;Node7 -->
<g id="edge6" class="edge">
<title>Node2&#45;&gt;Node7</title>
<path fill="none" stroke="midnightblue" d="M846.73,-175.3C913.92,-171.93 1030.67,-161.9 1126,-132 1144.59,-126.17 1146.93,-119.27 1165,-112 1199.56,-98.09 1240.09,-86.18 1270.3,-78.11"/>
<polygon fill="midnightblue" stroke="midnightblue" points="1271.35,-81.46 1280.13,-75.53 1269.57,-74.69 1271.35,-81.46"/>
</g>
<!-- Node9 -->
<g id="node9" class="node">
<title>Node9</title>
<g id="a_node9"><a xlink:href="Utilities_8hpp.html" target="_top" xlink:title="Short but generally useful functions.">
<polygon fill="white" stroke="black" points="747.5,-112.5 747.5,-131.5 836.5,-131.5 836.5,-112.5 747.5,-112.5"/>
<text text-anchor="middle" x="792" y="-119.5" font-family="Helvetica,sans-Serif" font-size="10.00">LLU/Utilities.hpp</text>
</a>
</g>
</g>
<!-- Node2&#45;&gt;Node9 -->
<g id="edge8" class="edge">
<title>Node2&#45;&gt;Node9</title>
<path fill="none" stroke="midnightblue" d="M792,-168.08C792,-161.01 792,-150.86 792,-141.99"/>
<polygon fill="midnightblue" stroke="midnightblue" points="795.5,-141.75 792,-131.75 788.5,-141.75 795.5,-141.75"/>
</g>
<!-- Node22 -->
<g id="node22" class="node">
<title>Node22</title>
<g id="a_node22"><a xlink:href="EncodingTraits_8hpp.html" target="_top" xlink:title="Defines possible encodings together with their properties and related types.">
<polygon fill="white" stroke="black" points="985,-56.5 985,-75.5 1139,-75.5 1139,-56.5 985,-56.5"/>
<text text-anchor="middle" x="1062" y="-63.5" font-family="Helvetica,sans-Serif" font-size="10.00">LLU/WSTP/EncodingTraits.hpp</text>
</a>
</g>
</g>
<!-- Node2&#45;&gt;Node22 -->
<g id="edge23" class="edge">
<title>Node2&#45;&gt;Node22</title>
<path fill="none" stroke="midnightblue" d="M813.19,-168.37C860.8,-148.97 976.41,-101.87 1031.64,-79.37"/>
<polygon fill="midnightblue" stroke="midnightblue" points="1032.97,-82.61 1040.91,-75.59 1030.33,-76.12 1032.97,-82.61"/>
</g>
<!-- Node23 -->
<g id="node23" class="node">
<title>Node23</title>
<g id="a_node23"><a xlink:href="WSTP_2Utilities_8h.html" target="_top" xlink:title="Header file with miscellaneous utilities used throughout the WSTP&#45;related part of LibraryLinkUtilitie...">
<polygon fill="white" stroke="black" points="1006.5,-112.5 1006.5,-131.5 1117.5,-131.5 1117.5,-112.5 1006.5,-112.5"/>
<text text-anchor="middle" x="1062" y="-119.5" font-family="Helvetica,sans-Serif" font-size="10.00">LLU/WSTP/Utilities.h</text>
</a>
</g>
</g>
<!-- Node2&#45;&gt;Node23 -->
<g id="edge28" class="edge">
<title>Node2&#45;&gt;Node23</title>
<path fill="none" stroke="midnightblue" d="M834.78,-168.44C882.18,-158.96 958.63,-143.67 1009.58,-133.48"/>
<polygon fill="midnightblue" stroke="midnightblue" points="1010.3,-136.91 1019.42,-131.52 1008.93,-130.05 1010.3,-136.91"/>
</g>
<!-- Node8 -->
<g id="node8" class="node">
<title>Node8</title>
<g id="a_node8"><a xlink:title=" ">
<polygon fill="white" stroke="#bfbfbf" points="1146.5,-0.5 1146.5,-19.5 1187.5,-19.5 1187.5,-0.5 1146.5,-0.5"/>
<text text-anchor="middle" x="1167" y="-7.5" font-family="Helvetica,sans-Serif" font-size="10.00">string</text>
</a>
</g>
</g>
<!-- Node7&#45;&gt;Node8 -->
<g id="edge7" class="edge">
<title>Node7&#45;&gt;Node8</title>
<path fill="none" stroke="midnightblue" d="M1291.55,-56.44C1266.14,-47.17 1225.51,-32.35 1197.6,-22.17"/>
<polygon fill="midnightblue" stroke="midnightblue" points="1198.54,-18.78 1187.95,-18.64 1196.14,-25.36 1198.54,-18.78"/>
</g>
<!-- Node10 -->
<g id="node10" class="node">
<title>Node10</title>
<g id="a_node10"><a xlink:title=" ">
<polygon fill="white" stroke="#bfbfbf" points="799.5,-56.5 799.5,-75.5 852.5,-75.5 852.5,-56.5 799.5,-56.5"/>
<text text-anchor="middle" x="826" y="-63.5" font-family="Helvetica,sans-Serif" font-size="10.00">complex</text>
</a>
</g>
</g>
<!-- Node9&#45;&gt;Node10 -->
<g id="edge9" class="edge">
<title>Node9&#45;&gt;Node10</title>
<path fill="none" stroke="midnightblue" d="M797.61,-112.08C802.37,-104.53 809.32,-93.49 815.15,-84.23"/>
<polygon fill="midnightblue" stroke="midnightblue" points="818.12,-86.08 820.49,-75.75 812.2,-82.35 818.12,-86.08"/>
</g>
<!-- Node11 -->
<g id="node11" class="node">
<title>Node11</title>
<g id="a_node11"><a xlink:title=" ">
<polygon fill="white" stroke="#bfbfbf" points="922,-0.5 922,-19.5 968,-19.5 968,-0.5 922,-0.5"/>
<text text-anchor="middle" x="945" y="-7.5" font-family="Helvetica,sans-Serif" font-size="10.00">cstdint</text>
</a>
</g>
</g>
<!-- Node9&#45;&gt;Node11 -->
<g id="edge10" class="edge">
<title>Node9&#45;&gt;Node11</title>
<path fill="none" stroke="midnightblue" d="M771.41,-112.32C745.93,-100.36 707.98,-77.82 726,-56 777.89,6.84 826.86,-36.01 911.98,-19.86"/>
<polygon fill="midnightblue" stroke="midnightblue" points="912.94,-23.24 921.99,-17.72 911.48,-16.39 912.94,-23.24"/>
</g>
<!-- Node12 -->
<g id="node12" class="node">
<title>Node12</title>
<g id="a_node12"><a xlink:title=" ">
<polygon fill="white" stroke="#bfbfbf" points="986,-0.5 986,-19.5 1048,-19.5 1048,-0.5 986,-0.5"/>
<text text-anchor="middle" x="1017" y="-7.5" font-family="Helvetica,sans-Serif" font-size="10.00">type_traits</text>
</a>
</g>
</g>
<!-- Node9&#45;&gt;Node12 -->
<g id="edge11" class="edge">
<title>Node9&#45;&gt;Node12</title>
<path fill="none" stroke="midnightblue" d="M809.66,-112.37C848.92,-93.17 943.69,-46.84 990.26,-24.07"/>
<polygon fill="midnightblue" stroke="midnightblue" points="991.98,-27.13 999.43,-19.59 988.91,-20.84 991.98,-27.13"/>
</g>
<!-- Node13 -->
<g id="node13" class="node">
<title>Node13</title>
<g id="a_node13"><a xlink:title=" ">
<polygon fill="white" stroke="#bfbfbf" points="1066,-0.5 1066,-19.5 1106,-19.5 1106,-0.5 1066,-0.5"/>
<text text-anchor="middle" x="1086" y="-7.5" font-family="Helvetica,sans-Serif" font-size="10.00">utility</text>
</a>
</g>
</g>
<!-- Node9&#45;&gt;Node13 -->
<g id="edge12" class="edge">
<title>Node9&#45;&gt;Node13</title>
<path fill="none" stroke="midnightblue" d="M816.9,-112.43C842.57,-103.54 883.7,-89.12 919,-76 967.23,-58.07 1022.85,-36.18 1056.17,-22.93"/>
<polygon fill="midnightblue" stroke="midnightblue" points="1057.77,-26.06 1065.77,-19.11 1055.18,-19.55 1057.77,-26.06"/>
</g>
<!-- Node14 -->
<g id="node14" class="node">
<title>Node14</title>
<g id="a_node14"><a xlink:title=" ">
<polygon fill="white" stroke="#bfbfbf" points="735,-56.5 735,-75.5 781,-75.5 781,-56.5 735,-56.5"/>
<text text-anchor="middle" x="758" y="-63.5" font-family="Helvetica,sans-Serif" font-size="10.00">variant</text>
</a>
</g>
</g>
<!-- Node9&#45;&gt;Node14 -->
<g id="edge13" class="edge">
<title>Node9&#45;&gt;Node14</title>
<path fill="none" stroke="midnightblue" d="M786.39,-112.08C781.63,-104.53 774.68,-93.49 768.85,-84.23"/>
<polygon fill="midnightblue" stroke="midnightblue" points="771.8,-82.35 763.51,-75.75 765.88,-86.08 771.8,-82.35"/>
</g>
<!-- Node15 -->
<g id="node15" class="node">
<title>Node15</title>
<g id="a_node15"><a xlink:href="LibraryData_8h.html" target="_top" xlink:title=" ">
<polygon fill="white" stroke="black" points="545,-56.5 545,-75.5 641,-75.5 641,-56.5 545,-56.5"/>
<text text-anchor="middle" x="593" y="-63.5" font-family="Helvetica,sans-Serif" font-size="10.00">LLU/LibraryData.h</text>
</a>
</g>
</g>
<!-- Node9&#45;&gt;Node15 -->
<g id="edge14" class="edge">
<title>Node9&#45;&gt;Node15</title>
<path fill="none" stroke="midnightblue" d="M760.47,-112.44C726.41,-103.2 671.99,-88.44 634.48,-78.26"/>
<polygon fill="midnightblue" stroke="midnightblue" points="634.95,-74.76 624.38,-75.52 633.12,-81.51 634.95,-74.76"/>
</g>
<!-- Node15&#45;&gt;Node5 -->
<g id="edge15" class="edge">
<title>Node15&#45;&gt;Node5</title>
<path fill="none" stroke="midnightblue" d="M544.98,-57.7C540.26,-57.08 535.54,-56.5 531,-56 326.03,-33.3 269.45,-53.56 62.25,-19.92"/>
<polygon fill="midnightblue" stroke="midnightblue" points="62.7,-16.45 52.27,-18.28 61.57,-23.36 62.7,-16.45"/>
</g>
<!-- Node15&#45;&gt;Node6 -->
<g id="edge17" class="edge">
<title>Node15&#45;&gt;Node6</title>
<path fill="none" stroke="midnightblue" d="M641.2,-57.84C692.67,-49.89 776.5,-36.02 848,-20 848.1,-19.98 848.2,-19.95 848.3,-19.93"/>
<polygon fill="midnightblue" stroke="midnightblue" points="849.11,-23.34 857.99,-17.56 847.44,-16.54 849.11,-23.34"/>
</g>
<!-- Node16 -->
<g id="node16" class="node">
<title>Node16</title>
<g id="a_node16"><a xlink:title=" ">
<polygon fill="white" stroke="#bfbfbf" points="70,-0.5 70,-19.5 132,-19.5 132,-0.5 70,-0.5"/>
<text text-anchor="middle" x="101" y="-7.5" font-family="Helvetica,sans-Serif" font-size="10.00">dllexport.h</text>
</a>
</g>
</g>
<!-- Node15&#45;&gt;Node16 -->
<g id="edge16" class="edge">
<title>Node15&#45;&gt;Node16</title>
<path fill="none" stroke="midnightblue" d="M544.97,-57.78C540.25,-57.14 535.54,-56.54 531,-56 361.35,-35.87 314.66,-46.74 142.28,-20.02"/>
<polygon fill="midnightblue" stroke="midnightblue" points="142.79,-16.55 132.37,-18.46 141.71,-23.47 142.79,-16.55"/>
</g>
<!-- Node17 -->
<g id="node17" class="node">
<title>Node17</title>
<g id="a_node17"><a xlink:title=" ">
<polygon fill="white" stroke="#bfbfbf" points="150.5,-0.5 150.5,-19.5 239.5,-19.5 239.5,-0.5 150.5,-0.5"/>
<text text-anchor="middle" x="195" y="-7.5" font-family="Helvetica,sans-Serif" font-size="10.00">WolframLibrary.h</text>
</a>
</g>
</g>
<!-- Node15&#45;&gt;Node17 -->
<g id="edge18" class="edge">
<title>Node15&#45;&gt;Node17</title>
<path fill="none" stroke="midnightblue" d="M544.95,-57.94C540.24,-57.27 535.53,-56.62 531,-56 408.56,-39.33 375.1,-38.64 249.52,-20.18"/>
<polygon fill="midnightblue" stroke="midnightblue" points="249.92,-16.7 239.51,-18.7 248.89,-23.62 249.92,-16.7"/>
</g>
<!-- Node18 -->
<g id="node18" class="node">
<title>Node18</title>
<g id="a_node18"><a xlink:title=" ">
<polygon fill="white" stroke="#bfbfbf" points="257.5,-0.5 257.5,-19.5 400.5,-19.5 400.5,-0.5 257.5,-0.5"/>
<text text-anchor="middle" x="329" y="-7.5" font-family="Helvetica,sans-Serif" font-size="10.00">WolframIOLibraryFunctions.h</text>
</a>
</g>
</g>
<!-- Node15&#45;&gt;Node18 -->
<g id="edge19" class="edge">
<title>Node15&#45;&gt;Node18</title>
<path fill="none" stroke="midnightblue" d="M551.17,-56.44C504.92,-46.98 430.39,-31.74 380.56,-21.55"/>
<polygon fill="midnightblue" stroke="midnightblue" points="381.13,-18.09 370.64,-19.52 379.73,-24.95 381.13,-18.09"/>
</g>
<!-- Node19 -->
<g id="node19" class="node">
<title>Node19</title>
<g id="a_node19"><a xlink:title=" ">
<polygon fill="white" stroke="#bfbfbf" points="419,-0.5 419,-19.5 535,-19.5 535,-0.5 419,-0.5"/>
<text text-anchor="middle" x="477" y="-7.5" font-family="Helvetica,sans-Serif" font-size="10.00">WolframImageLibrary.h</text>
</a>
</g>
</g>
<!-- Node15&#45;&gt;Node19 -->
<g id="edge20" class="edge">
<title>Node15&#45;&gt;Node19</title>
<path fill="none" stroke="midnightblue" d="M574.62,-56.44C555.78,-47.68 526.27,-33.94 504.62,-23.86"/>
<polygon fill="midnightblue" stroke="midnightblue" points="505.84,-20.56 495.29,-19.52 502.88,-26.91 505.84,-20.56"/>
</g>
<!-- Node20 -->
<g id="node20" class="node">
<title>Node20</title>
<g id="a_node20"><a xlink:title=" ">
<polygon fill="white" stroke="#bfbfbf" points="553.5,-0.5 553.5,-19.5 702.5,-19.5 702.5,-0.5 553.5,-0.5"/>
<text text-anchor="middle" x="628" y="-7.5" font-family="Helvetica,sans-Serif" font-size="10.00">WolframNumericArrayLibrary.h</text>
</a>
</g>
</g>
<!-- Node15&#45;&gt;Node20 -->
<g id="edge21" class="edge">
<title>Node15&#45;&gt;Node20</title>
<path fill="none" stroke="midnightblue" d="M598.78,-56.08C603.67,-48.53 610.83,-37.49 616.83,-28.23"/>
<polygon fill="midnightblue" stroke="midnightblue" points="619.83,-30.05 622.33,-19.75 613.95,-26.24 619.83,-30.05"/>
</g>
<!-- Node21 -->
<g id="node21" class="node">
<title>Node21</title>
<g id="a_node21"><a xlink:title=" ">
<polygon fill="white" stroke="#bfbfbf" points="720.5,-0.5 720.5,-19.5 839.5,-19.5 839.5,-0.5 720.5,-0.5"/>
<text text-anchor="middle" x="780" y="-7.5" font-family="Helvetica,sans-Serif" font-size="10.00">WolframSparseLibrary.h</text>
</a>
</g>
</g>
<!-- Node15&#45;&gt;Node21 -->
<g id="edge22" class="edge">
<title>Node15&#45;&gt;Node21</title>
<path fill="none" stroke="midnightblue" d="M622.63,-56.44C654.5,-47.24 705.33,-32.56 740.56,-22.39"/>
<polygon fill="midnightblue" stroke="midnightblue" points="741.87,-25.65 750.51,-19.52 739.93,-18.93 741.87,-25.65"/>
</g>
<!-- Node22&#45;&gt;Node8 -->
<g id="edge25" class="edge">
<title>Node22&#45;&gt;Node8</title>
<path fill="none" stroke="midnightblue" d="M1078.87,-56.32C1095.71,-47.66 1121.81,-34.24 1141.24,-24.25"/>
<polygon fill="midnightblue" stroke="midnightblue" points="1142.88,-27.34 1150.17,-19.65 1139.68,-21.12 1142.88,-27.34"/>
</g>
<!-- Node22&#45;&gt;Node11 -->
<g id="edge24" class="edge">
<title>Node22&#45;&gt;Node11</title>
<path fill="none" stroke="midnightblue" d="M1043.46,-56.44C1024.38,-47.64 994.43,-33.81 972.56,-23.72"/>
<polygon fill="midnightblue" stroke="midnightblue" points="974,-20.53 963.45,-19.52 971.07,-26.88 974,-20.53"/>
</g>
<!-- Node22&#45;&gt;Node12 -->
<g id="edge26" class="edge">
<title>Node22&#45;&gt;Node12</title>
<path fill="none" stroke="midnightblue" d="M1054.57,-56.08C1048.15,-48.38 1038.69,-37.03 1030.88,-27.65"/>
<polygon fill="midnightblue" stroke="midnightblue" points="1033.38,-25.19 1024.29,-19.75 1028.01,-29.67 1033.38,-25.19"/>
</g>
<!-- Node22&#45;&gt;Node13 -->
<g id="edge27" class="edge">
<title>Node22&#45;&gt;Node13</title>
<path fill="none" stroke="midnightblue" d="M1065.96,-56.08C1069.21,-48.77 1073.92,-38.18 1077.95,-29.1"/>
<polygon fill="midnightblue" stroke="midnightblue" points="1081.25,-30.31 1082.11,-19.75 1074.85,-27.47 1081.25,-30.31"/>
</g>
<!-- Node23&#45;&gt;Node6 -->
<g id="edge31" class="edge">
<title>Node23&#45;&gt;Node6</title>
<path fill="none" stroke="midnightblue" d="M1044.21,-112.46C1026.58,-103.82 998.97,-89.8 976,-76 949.23,-59.92 919.75,-39.25 900.84,-25.59"/>
<polygon fill="midnightblue" stroke="midnightblue" points="902.85,-22.72 892.7,-19.67 898.73,-28.38 902.85,-22.72"/>
</g>
<!-- Node23&#45;&gt;Node7 -->
<g id="edge32" class="edge">
<title>Node23&#45;&gt;Node7</title>
<path fill="none" stroke="midnightblue" d="M1102.09,-112.44C1146.32,-103 1217.54,-87.8 1265.28,-77.61"/>
<polygon fill="midnightblue" stroke="midnightblue" points="1266.05,-81.03 1275.1,-75.52 1264.59,-74.18 1266.05,-81.03"/>
</g>
<!-- Node23&#45;&gt;Node8 -->
<g id="edge30" class="edge">
<title>Node23&#45;&gt;Node8</title>
<path fill="none" stroke="midnightblue" d="M1090.99,-112.44C1109.77,-105.49 1133.37,-93.86 1148,-76 1158.82,-62.8 1163.48,-43.66 1165.48,-29.57"/>
<polygon fill="midnightblue" stroke="midnightblue" points="1168.97,-29.89 1166.59,-19.56 1162.01,-29.12 1168.97,-29.89"/>
</g>
<!-- Node23&#45;&gt;Node22 -->
<g id="edge33" class="edge">
<title>Node23&#45;&gt;Node22</title>
<path fill="none" stroke="midnightblue" d="M1062,-112.08C1062,-105.01 1062,-94.86 1062,-85.99"/>
<polygon fill="midnightblue" stroke="midnightblue" points="1065.5,-85.75 1062,-75.75 1058.5,-85.75 1065.5,-85.75"/>
</g>
<!-- Node24 -->
<g id="node24" class="node">
<title>Node24</title>
<g id="a_node24"><a xlink:title=" ">
<polygon fill="white" stroke="#bfbfbf" points="1195,-56.5 1195,-75.5 1241,-75.5 1241,-56.5 1195,-56.5"/>
<text text-anchor="middle" x="1218" y="-63.5" font-family="Helvetica,sans-Serif" font-size="10.00">cstring</text>
</a>
</g>
</g>
<!-- Node23&#45;&gt;Node24 -->
<g id="edge29" class="edge">
<title>Node23&#45;&gt;Node24</title>
<path fill="none" stroke="midnightblue" d="M1086.72,-112.44C1113.31,-103.24 1155.73,-88.56 1185.12,-78.38"/>
<polygon fill="midnightblue" stroke="midnightblue" points="1186.62,-81.57 1194.92,-74.99 1184.33,-74.95 1186.62,-81.57"/>
</g>
</g>
</svg>
        <g id="navigator" transform="translate(0 0)" fill="#404254">
                <rect fill="#f2f5e9" fill-opacity="0.5" stroke="#606060" stroke-width=".5" x="0" y="0" width="60" height="60"/>
                <use id="zoomplus" xlink:href="#zoomPlus" x="17" y="9" onmousedown="handleZoom(evt,'in')"/>
                <use id="zoomminus" xlink:href="#zoomMin" x="42" y="9" onmousedown="handleZoom(evt,'out')"/>
                <use id="reset" xlink:href="#resetDef" x="30" y="36" onmousedown="handleReset()"/>
                <g id="arrowUp" xlink:href="#dirArrow" transform="translate(30 24)" onmousedown="handlePan(0,-1)">
                  <use xlink:href="#rim" fill="#404040">
                        <set attributeName="fill" to="#808080" begin="arrowUp.mouseover" end="arrowUp.mouseout"/>
                  </use>
                  <path fill="none" stroke="white" stroke-width="1.5" d="M0,-3.0v7 M-2.5,-0.5L0,-3.0L2.5,-0.5"/>
                </g>
                <g id="arrowRight" xlink:href="#dirArrow" transform="rotate(90) translate(36 -43)" onmousedown="handlePan(1,0)">
                  <use xlink:href="#rim" fill="#404040">
                        <set attributeName="fill" to="#808080" begin="arrowRight.mouseover" end="arrowRight.mouseout"/>
                  </use>
                  <path fill="none" stroke="white" stroke-width="1.5" d="M0,-3.0v7 M-2.5,-0.5L0,-3.0L2.5,-0.5"/>
                </g>
                <g id="arrowDown" xlink:href="#dirArrow" transform="rotate(180) translate(-30 -48)" onmousedown="handlePan(0,1)">
                  <use xlink:href="#rim" fill="#404040">
                        <set attributeName="fill" to="#808080" begin="arrowDown.mouseover" end="arrowDown.mouseout"/>
                  </use>
                  <path fill="none" stroke="white" stroke-width="1.5" d="M0,-3.0v7 M-2.5,-0.5L0,-3.0L2.5,-0.5"/>
                </g>
                <g id="arrowLeft" xlink:href="#dirArrow" transform="rotate(270) translate(-36 17)" onmousedown="handlePan(-1,0)">
                  <use xlink:href="#rim" fill="#404040">
                        <set attributeName="fill" to="#808080" begin="arrowLeft.mouseover" end="arrowLeft.mouseout"/>
                  </use>
                  <path fill="none" stroke="white" stroke-width="1.5" d="M0,-3.0v7 M-2.5,-0.5L0,-3.0L2.5,-0.5"/>
                </g>
        </g>
        <svg viewBox="0 0 15 15" width="100%" height="30px" preserveAspectRatio="xMaxYMin meet">
         <g id="arrow_out" transform="scale(0.3 0.3)">
          <a xlink:href="Strings_8cpp__incl_org.svg" target="_base">
           <rect id="button" ry="5" rx="5" y="6" x="6" height="38" width="38"
                fill="#f2f5e9" fill-opacity="0.5" stroke="#606060" stroke-width="1.0"/>
           <path id="arrow"
             d="M 11.500037,31.436501 C 11.940474,20.09759 22.043105,11.32322 32.158766,21.979434 L 37.068811,17.246167 C 37.068811,17.246167 37.088388,32 37.088388,32 L 22.160133,31.978069 C 22.160133,31.978069 26.997745,27.140456 26.997745,27.140456 C 18.528582,18.264221 13.291696,25.230495 11.500037,31.436501 z"
             style="fill:#404040;"/>
          </a>
         </g>
        </svg>
</svg>
