<?xml version="1.0" encoding="UTF-8" standalone="no"?>
<!DOCTYPE svg PUBLIC "-//W3C//DTD SVG 1.1//EN"
 "http://www.w3.org/Graphics/SVG/1.1/DTD/svg11.dtd">
<!-- Generated by graphviz version 2.43.0 (0)
 -->
<!-- Title: Strings.h Pages: 1 -->
<svg width="1333pt" height="196pt"
 viewBox="0.00 0.00 1333.00 196.00" xmlns="http://www.w3.org/2000/svg" xmlns:xlink="http://www.w3.org/1999/xlink">
<g id="graph0" class="graph" transform="scale(1 1) rotate(0) translate(4 192)">
<title>Strings.h</title>
<polygon fill="white" stroke="transparent" points="-4,4 -4,-192 1329,-192 1329,4 -4,4"/>
<!-- Node1 -->
<g id="node1" class="node">
<title>Node1</title>
<g id="a_node1"><a xlink:title="Definitions of multiple structures and type aliases related to string handling in WSTP.">
<polygon fill="#bfbfbf" stroke="black" points="654,-168.5 654,-187.5 710,-187.5 710,-168.5 654,-168.5"/>
<text text-anchor="middle" x="682" y="-175.5" font-family="Helvetica,sans-Serif" font-size="10.00">Strings.h</text>
</a>
</g>
</g>
<!-- Node2 -->
<g id="node2" class="node">
<title>Node2</title>
<g id="a_node2"><a xlink:title=" ">
<polygon fill="white" stroke="#bfbfbf" points="309,-112.5 309,-131.5 365,-131.5 365,-112.5 309,-112.5"/>
<text text-anchor="middle" x="337" y="-119.5" font-family="Helvetica,sans-Serif" font-size="10.00">algorithm</text>
</a>
</g>
</g>
<!-- Node1&#45;&gt;Node2 -->
<g id="edge1" class="edge">
<title>Node1&#45;&gt;Node2</title>
<path fill="none" stroke="midnightblue" d="M653.82,-173.78C601.1,-167.56 483.77,-152.82 375.35,-132.11"/>
<polygon fill="midnightblue" stroke="midnightblue" points="375.7,-128.61 365.22,-130.15 374.38,-135.49 375.7,-128.61"/>
</g>
<!-- Node3 -->
<g id="node3" class="node">
<title>Node3</title>
<g id="a_node3"><a xlink:title=" ">
<polygon fill="white" stroke="#bfbfbf" points="383.5,-112.5 383.5,-131.5 442.5,-131.5 442.5,-112.5 383.5,-112.5"/>
<text text-anchor="middle" x="413" y="-119.5" font-family="Helvetica,sans-Serif" font-size="10.00">functional</text>
</a>
</g>
</g>
<!-- Node1&#45;&gt;Node3 -->
<g id="edge2" class="edge">
<title>Node1&#45;&gt;Node3</title>
<path fill="none" stroke="midnightblue" d="M653.93,-171.43C611.35,-162.96 527.87,-146.33 457,-132 455.57,-131.71 454.11,-131.41 452.63,-131.12"/>
<polygon fill="midnightblue" stroke="midnightblue" points="453.32,-127.68 442.82,-129.12 451.92,-134.54 453.32,-127.68"/>
</g>
<!-- Node4 -->
<g id="node4" class="node">
<title>Node4</title>
<g id="a_node4"><a xlink:title=" ">
<polygon fill="white" stroke="#bfbfbf" points="0,-0.5 0,-19.5 52,-19.5 52,-0.5 0,-0.5"/>
<text text-anchor="middle" x="26" y="-7.5" font-family="Helvetica,sans-Serif" font-size="10.00">memory</text>
</a>
</g>
</g>
<!-- Node1&#45;&gt;Node4 -->
<g id="edge3" class="edge">
<title>Node1&#45;&gt;Node4</title>
<path fill="none" stroke="midnightblue" d="M653.66,-168.6C610.2,-155.81 524.42,-130.96 451,-112 281.35,-68.2 234.91,-63.46 62.27,-20.53"/>
<polygon fill="midnightblue" stroke="midnightblue" points="62.89,-17.07 52.34,-18.05 61.19,-23.87 62.89,-17.07"/>
</g>
<!-- Node5 -->
<g id="node5" class="node">
<title>Node5</title>
<g id="a_node5"><a xlink:title=" ">
<polygon fill="white" stroke="#bfbfbf" points="857,-0.5 857,-19.5 903,-19.5 903,-0.5 857,-0.5"/>
<text text-anchor="middle" x="880" y="-7.5" font-family="Helvetica,sans-Serif" font-size="10.00">wstp.h</text>
</a>
</g>
</g>
<!-- Node1&#45;&gt;Node5 -->
<g id="edge4" class="edge">
<title>Node1&#45;&gt;Node5</title>
<path fill="none" stroke="midnightblue" d="M674.12,-168.33C655.6,-146.87 612.96,-90.55 642,-56 670.2,-22.44 788.19,-29.33 847.07,-19.7"/>
<polygon fill="midnightblue" stroke="midnightblue" points="847.85,-23.11 857,-17.77 846.52,-16.24 847.85,-23.11"/>
</g>
<!-- Node6 -->
<g id="node6" class="node">
<title>Node6</title>
<g id="a_node6"><a xlink:href="Errors_8h.html" target="_top" xlink:title="Definitions of error names and error codes used across LLU.">
<polygon fill="white" stroke="black" points="1213,-56.5 1213,-75.5 1325,-75.5 1325,-56.5 1213,-56.5"/>
<text text-anchor="middle" x="1269" y="-63.5" font-family="Helvetica,sans-Serif" font-size="10.00">LLU/ErrorLog/Errors.h</text>
</a>
</g>
</g>
<!-- Node1&#45;&gt;Node6 -->
<g id="edge5" class="edge">
<title>Node1&#45;&gt;Node6</title>
<path fill="none" stroke="midnightblue" d="M710.09,-177.15C780.62,-176.89 970.4,-172.19 1122,-132 1167.32,-119.99 1216.47,-95.75 1244.9,-80.5"/>
<polygon fill="midnightblue" stroke="midnightblue" points="1246.6,-83.56 1253.71,-75.71 1243.26,-77.41 1246.6,-83.56"/>
</g>
<!-- Node8 -->
<g id="node8" class="node">
<title>Node8</title>
<g id="a_node8"><a xlink:href="Utilities_8hpp.html" target="_top" xlink:title="Short but generally useful functions.">
<polygon fill="white" stroke="black" points="697.5,-112.5 697.5,-131.5 786.5,-131.5 786.5,-112.5 697.5,-112.5"/>
<text text-anchor="middle" x="742" y="-119.5" font-family="Helvetica,sans-Serif" font-size="10.00">LLU/Utilities.hpp</text>
</a>
</g>
</g>
<!-- Node1&#45;&gt;Node8 -->
<g id="edge7" class="edge">
<title>Node1&#45;&gt;Node8</title>
<path fill="none" stroke="midnightblue" d="M691.64,-168.32C700.51,-160.34 713.87,-148.31 724.61,-138.65"/>
<polygon fill="midnightblue" stroke="midnightblue" points="727.09,-141.13 732.18,-131.83 722.41,-135.92 727.09,-141.13"/>
</g>
<!-- Node21 -->
<g id="node21" class="node">
<title>Node21</title>
<g id="a_node21"><a xlink:href="EncodingTraits_8hpp.html" target="_top" xlink:title="Defines possible encodings together with their properties and related types.">
<polygon fill="white" stroke="black" points="939,-56.5 939,-75.5 1093,-75.5 1093,-56.5 939,-56.5"/>
<text text-anchor="middle" x="1016" y="-63.5" font-family="Helvetica,sans-Serif" font-size="10.00">LLU/WSTP/EncodingTraits.hpp</text>
</a>
</g>
</g>
<!-- Node1&#45;&gt;Node21 -->
<g id="edge22" class="edge">
<title>Node1&#45;&gt;Node21</title>
<path fill="none" stroke="midnightblue" d="M707.93,-168.46C767.12,-148.97 912.28,-101.16 980.05,-78.84"/>
<polygon fill="midnightblue" stroke="midnightblue" points="981.45,-82.06 989.86,-75.61 979.26,-75.41 981.45,-82.06"/>
</g>
<!-- Node22 -->
<g id="node22" class="node">
<title>Node22</title>
<g id="a_node22"><a xlink:href="WSTP_2Utilities_8h.html" target="_top" xlink:title="Header file with miscellaneous utilities used throughout the WSTP&#45;related part of LibraryLinkUtilitie...">
<polygon fill="white" stroke="black" points="1002.5,-112.5 1002.5,-131.5 1113.5,-131.5 1113.5,-112.5 1002.5,-112.5"/>
<text text-anchor="middle" x="1058" y="-119.5" font-family="Helvetica,sans-Serif" font-size="10.00">LLU/WSTP/Utilities.h</text>
</a>
</g>
</g>
<!-- Node1&#45;&gt;Node22 -->
<g id="edge27" class="edge">
<title>Node1&#45;&gt;Node22</title>
<path fill="none" stroke="midnightblue" d="M710.26,-172.94C769.69,-164.41 908.97,-144.4 992.11,-132.46"/>
<polygon fill="midnightblue" stroke="midnightblue" points="992.8,-135.9 1002.21,-131.01 991.81,-128.97 992.8,-135.9"/>
</g>
<!-- Node7 -->
<g id="node7" class="node">
<title>Node7</title>
<g id="a_node7"><a xlink:title=" ">
<polygon fill="white" stroke="#bfbfbf" points="1164.5,-0.5 1164.5,-19.5 1205.5,-19.5 1205.5,-0.5 1164.5,-0.5"/>
<text text-anchor="middle" x="1185" y="-7.5" font-family="Helvetica,sans-Serif" font-size="10.00">string</text>
</a>
</g>
</g>
<!-- Node6&#45;&gt;Node7 -->
<g id="edge6" class="edge">
<title>Node6&#45;&gt;Node7</title>
<path fill="none" stroke="midnightblue" d="M1255.5,-56.32C1242.4,-47.9 1222.29,-34.97 1206.89,-25.07"/>
<polygon fill="midnightblue" stroke="midnightblue" points="1208.77,-22.12 1198.46,-19.65 1204.98,-28.01 1208.77,-22.12"/>
</g>
<!-- Node9 -->
<g id="node9" class="node">
<title>Node9</title>
<g id="a_node9"><a xlink:title=" ">
<polygon fill="white" stroke="#bfbfbf" points="715.5,-56.5 715.5,-75.5 768.5,-75.5 768.5,-56.5 715.5,-56.5"/>
<text text-anchor="middle" x="742" y="-63.5" font-family="Helvetica,sans-Serif" font-size="10.00">complex</text>
</a>
</g>
</g>
<!-- Node8&#45;&gt;Node9 -->
<g id="edge8" class="edge">
<title>Node8&#45;&gt;Node9</title>
<path fill="none" stroke="midnightblue" d="M742,-112.08C742,-105.01 742,-94.86 742,-85.99"/>
<polygon fill="midnightblue" stroke="midnightblue" points="745.5,-85.75 742,-75.75 738.5,-85.75 745.5,-85.75"/>
</g>
<!-- Node10 -->
<g id="node10" class="node">
<title>Node10</title>
<g id="a_node10"><a xlink:title=" ">
<polygon fill="white" stroke="#bfbfbf" points="921,-0.5 921,-19.5 967,-19.5 967,-0.5 921,-0.5"/>
<text text-anchor="middle" x="944" y="-7.5" font-family="Helvetica,sans-Serif" font-size="10.00">cstdint</text>
</a>
</g>
</g>
<!-- Node8&#45;&gt;Node10 -->
<g id="edge9" class="edge">
<title>Node8&#45;&gt;Node10</title>
<path fill="none" stroke="midnightblue" d="M750.5,-112.32C764.23,-98.71 792.63,-72.23 821,-56 836.72,-47.01 880.48,-31.79 911.32,-21.57"/>
<polygon fill="midnightblue" stroke="midnightblue" points="912.42,-24.89 920.82,-18.44 910.23,-18.24 912.42,-24.89"/>
</g>
<!-- Node11 -->
<g id="node11" class="node">
<title>Node11</title>
<g id="a_node11"><a xlink:title=" ">
<polygon fill="white" stroke="#bfbfbf" points="985,-0.5 985,-19.5 1047,-19.5 1047,-0.5 985,-0.5"/>
<text text-anchor="middle" x="1016" y="-7.5" font-family="Helvetica,sans-Serif" font-size="10.00">type_traits</text>
</a>
</g>
</g>
<!-- Node8&#45;&gt;Node11 -->
<g id="edge10" class="edge">
<title>Node8&#45;&gt;Node11</title>
<path fill="none" stroke="midnightblue" d="M756.98,-112.43C786.13,-95.78 848.54,-60.34 859,-56 879.86,-47.35 935.53,-32.05 974.63,-21.71"/>
<polygon fill="midnightblue" stroke="midnightblue" points="975.89,-25 984.67,-19.07 974.11,-18.23 975.89,-25"/>
</g>
<!-- Node12 -->
<g id="node12" class="node">
<title>Node12</title>
<g id="a_node12"><a xlink:title=" ">
<polygon fill="white" stroke="#bfbfbf" points="1065,-0.5 1065,-19.5 1105,-19.5 1105,-0.5 1065,-0.5"/>
<text text-anchor="middle" x="1085" y="-7.5" font-family="Helvetica,sans-Serif" font-size="10.00">utility</text>
</a>
</g>
</g>
<!-- Node8&#45;&gt;Node12 -->
<g id="edge11" class="edge">
<title>Node8&#45;&gt;Node12</title>
<path fill="none" stroke="midnightblue" d="M765.31,-112.48C800.71,-99.65 870.22,-74.86 930,-56 982.61,-39.4 998.53,-36.87 1054.93,-20.26"/>
<polygon fill="midnightblue" stroke="midnightblue" points="1056.14,-23.55 1064.74,-17.35 1054.15,-16.84 1056.14,-23.55"/>
</g>
<!-- Node13 -->
<g id="node13" class="node">
<title>Node13</title>
<g id="a_node13"><a xlink:title=" ">
<polygon fill="white" stroke="#bfbfbf" points="651,-56.5 651,-75.5 697,-75.5 697,-56.5 651,-56.5"/>
<text text-anchor="middle" x="674" y="-63.5" font-family="Helvetica,sans-Serif" font-size="10.00">variant</text>
</a>
</g>
</g>
<!-- Node8&#45;&gt;Node13 -->
<g id="edge12" class="edge">
<title>Node8&#45;&gt;Node13</title>
<path fill="none" stroke="midnightblue" d="M731.07,-112.32C720.83,-104.18 705.28,-91.84 693,-82.09"/>
<polygon fill="midnightblue" stroke="midnightblue" points="695.13,-79.31 685.12,-75.83 690.78,-84.79 695.13,-79.31"/>
</g>
<!-- Node14 -->
<g id="node14" class="node">
<title>Node14</title>
<g id="a_node14"><a xlink:href="LibraryData_8h.html" target="_top" xlink:title=" ">
<polygon fill="white" stroke="black" points="499,-56.5 499,-75.5 595,-75.5 595,-56.5 499,-56.5"/>
<text text-anchor="middle" x="547" y="-63.5" font-family="Helvetica,sans-Serif" font-size="10.00">LLU/LibraryData.h</text>
</a>
</g>
</g>
<!-- Node8&#45;&gt;Node14 -->
<g id="edge13" class="edge">
<title>Node8&#45;&gt;Node14</title>
<path fill="none" stroke="midnightblue" d="M711.1,-112.44C677.73,-103.2 624.41,-88.44 587.65,-78.26"/>
<polygon fill="midnightblue" stroke="midnightblue" points="588.33,-74.81 577.75,-75.52 586.46,-81.56 588.33,-74.81"/>
</g>
<!-- Node14&#45;&gt;Node4 -->
<g id="edge14" class="edge">
<title>Node14&#45;&gt;Node4</title>
<path fill="none" stroke="midnightblue" d="M498.97,-57.74C494.26,-57.11 489.54,-56.52 485,-56 299.98,-34.75 248.58,-51.76 62.38,-20.18"/>
<polygon fill="midnightblue" stroke="midnightblue" points="62.71,-16.68 52.26,-18.43 61.52,-23.58 62.71,-16.68"/>
</g>
<!-- Node14&#45;&gt;Node5 -->
<g id="edge16" class="edge">
<title>Node14&#45;&gt;Node5</title>
<path fill="none" stroke="midnightblue" d="M595.23,-57.95C669.13,-47.13 805.52,-27.07 846.81,-19.81"/>
<polygon fill="midnightblue" stroke="midnightblue" points="847.5,-23.24 856.67,-17.93 846.19,-16.36 847.5,-23.24"/>
</g>
<!-- Node15 -->
<g id="node15" class="node">
<title>Node15</title>
<g id="a_node15"><a xlink:title=" ">
<polygon fill="white" stroke="#bfbfbf" points="374,-0.5 374,-19.5 436,-19.5 436,-0.5 374,-0.5"/>
<text text-anchor="middle" x="405" y="-7.5" font-family="Helvetica,sans-Serif" font-size="10.00">dllexport.h</text>
</a>
</g>
</g>
<!-- Node14&#45;&gt;Node15 -->
<g id="edge15" class="edge">
<title>Node14&#45;&gt;Node15</title>
<path fill="none" stroke="midnightblue" d="M524.5,-56.44C500.92,-47.48 463.68,-33.31 437.04,-23.18"/>
<polygon fill="midnightblue" stroke="midnightblue" points="437.99,-19.8 427.4,-19.52 435.5,-26.34 437.99,-19.8"/>
</g>
<!-- Node16 -->
<g id="node16" class="node">
<title>Node16</title>
<g id="a_node16"><a xlink:title=" ">
<polygon fill="white" stroke="#bfbfbf" points="454.5,-0.5 454.5,-19.5 543.5,-19.5 543.5,-0.5 454.5,-0.5"/>
<text text-anchor="middle" x="499" y="-7.5" font-family="Helvetica,sans-Serif" font-size="10.00">WolframLibrary.h</text>
</a>
</g>
</g>
<!-- Node14&#45;&gt;Node16 -->
<g id="edge17" class="edge">
<title>Node14&#45;&gt;Node16</title>
<path fill="none" stroke="midnightblue" d="M539.07,-56.08C532.15,-48.3 521.93,-36.8 513.55,-27.37"/>
<polygon fill="midnightblue" stroke="midnightblue" points="516.04,-24.9 506.78,-19.75 510.81,-29.55 516.04,-24.9"/>
</g>
<!-- Node17 -->
<g id="node17" class="node">
<title>Node17</title>
<g id="a_node17"><a xlink:title=" ">
<polygon fill="white" stroke="#bfbfbf" points="561.5,-0.5 561.5,-19.5 704.5,-19.5 704.5,-0.5 561.5,-0.5"/>
<text text-anchor="middle" x="633" y="-7.5" font-family="Helvetica,sans-Serif" font-size="10.00">WolframIOLibraryFunctions.h</text>
</a>
</g>
</g>
<!-- Node14&#45;&gt;Node17 -->
<g id="edge18" class="edge">
<title>Node14&#45;&gt;Node17</title>
<path fill="none" stroke="midnightblue" d="M560.82,-56.32C574.23,-47.9 594.82,-34.97 610.59,-25.07"/>
<polygon fill="midnightblue" stroke="midnightblue" points="612.61,-27.94 619.22,-19.65 608.89,-22.01 612.61,-27.94"/>
</g>
<!-- Node18 -->
<g id="node18" class="node">
<title>Node18</title>
<g id="a_node18"><a xlink:title=" ">
<polygon fill="white" stroke="#bfbfbf" points="723,-0.5 723,-19.5 839,-19.5 839,-0.5 723,-0.5"/>
<text text-anchor="middle" x="781" y="-7.5" font-family="Helvetica,sans-Serif" font-size="10.00">WolframImageLibrary.h</text>
</a>
</g>
</g>
<!-- Node14&#45;&gt;Node18 -->
<g id="edge19" class="edge">
<title>Node14&#45;&gt;Node18</title>
<path fill="none" stroke="midnightblue" d="M584.08,-56.44C624.73,-47.06 690.03,-31.99 734.18,-21.8"/>
<polygon fill="midnightblue" stroke="midnightblue" points="735.14,-25.18 744.1,-19.52 733.56,-18.35 735.14,-25.18"/>
</g>
<!-- Node19 -->
<g id="node19" class="node">
<title>Node19</title>
<g id="a_node19"><a xlink:title=" ">
<polygon fill="white" stroke="#bfbfbf" points="69.5,-0.5 69.5,-19.5 218.5,-19.5 218.5,-0.5 69.5,-0.5"/>
<text text-anchor="middle" x="144" y="-7.5" font-family="Helvetica,sans-Serif" font-size="10.00">WolframNumericArrayLibrary.h</text>
</a>
</g>
</g>
<!-- Node14&#45;&gt;Node19 -->
<g id="edge20" class="edge">
<title>Node14&#45;&gt;Node19</title>
<path fill="none" stroke="midnightblue" d="M498.94,-57.96C494.23,-57.29 489.52,-56.63 485,-56 394.23,-43.42 289.76,-29.76 220.62,-20.82"/>
<polygon fill="midnightblue" stroke="midnightblue" points="221.05,-17.35 210.68,-19.54 220.15,-24.29 221.05,-17.35"/>
</g>
<!-- Node20 -->
<g id="node20" class="node">
<title>Node20</title>
<g id="a_node20"><a xlink:title=" ">
<polygon fill="white" stroke="#bfbfbf" points="236.5,-0.5 236.5,-19.5 355.5,-19.5 355.5,-0.5 236.5,-0.5"/>
<text text-anchor="middle" x="296" y="-7.5" font-family="Helvetica,sans-Serif" font-size="10.00">WolframSparseLibrary.h</text>
</a>
</g>
</g>
<!-- Node14&#45;&gt;Node20 -->
<g id="edge21" class="edge">
<title>Node14&#45;&gt;Node20</title>
<path fill="none" stroke="midnightblue" d="M507.23,-56.44C463.44,-47.02 392.99,-31.87 345.62,-21.68"/>
<polygon fill="midnightblue" stroke="midnightblue" points="346.1,-18.2 335.59,-19.52 344.63,-25.04 346.1,-18.2"/>
</g>
<!-- Node21&#45;&gt;Node7 -->
<g id="edge24" class="edge">
<title>Node21&#45;&gt;Node7</title>
<path fill="none" stroke="midnightblue" d="M1042.78,-56.44C1073.26,-46.7 1122.95,-30.83 1154.8,-20.65"/>
<polygon fill="midnightblue" stroke="midnightblue" points="1156,-23.94 1164.46,-17.56 1153.87,-17.27 1156,-23.94"/>
</g>
<!-- Node21&#45;&gt;Node10 -->
<g id="edge23" class="edge">
<title>Node21&#45;&gt;Node10</title>
<path fill="none" stroke="midnightblue" d="M1004.43,-56.32C993.58,-48.18 977.12,-35.84 964.12,-26.09"/>
<polygon fill="midnightblue" stroke="midnightblue" points="965.88,-23.03 955.78,-19.83 961.68,-28.63 965.88,-23.03"/>
</g>
<!-- Node21&#45;&gt;Node11 -->
<g id="edge25" class="edge">
<title>Node21&#45;&gt;Node11</title>
<path fill="none" stroke="midnightblue" d="M1016,-56.08C1016,-49.01 1016,-38.86 1016,-29.99"/>
<polygon fill="midnightblue" stroke="midnightblue" points="1019.5,-29.75 1016,-19.75 1012.5,-29.75 1019.5,-29.75"/>
</g>
<!-- Node21&#45;&gt;Node12 -->
<g id="edge26" class="edge">
<title>Node21&#45;&gt;Node12</title>
<path fill="none" stroke="midnightblue" d="M1027.09,-56.32C1037.49,-48.18 1053.26,-35.84 1065.72,-26.09"/>
<polygon fill="midnightblue" stroke="midnightblue" points="1067.99,-28.75 1073.71,-19.83 1063.68,-23.24 1067.99,-28.75"/>
</g>
<!-- Node22&#45;&gt;Node5 -->
<g id="edge30" class="edge">
<title>Node22&#45;&gt;Node5</title>
<path fill="none" stroke="midnightblue" d="M1015.03,-112.46C988.68,-105.71 955.28,-94.3 930,-76 912.76,-63.52 898.6,-43.45 889.81,-28.91"/>
<polygon fill="midnightblue" stroke="midnightblue" points="892.63,-26.8 884.6,-19.89 886.57,-30.3 892.63,-26.8"/>
</g>
<!-- Node22&#45;&gt;Node6 -->
<g id="edge31" class="edge">
<title>Node22&#45;&gt;Node6</title>
<path fill="none" stroke="midnightblue" d="M1091.43,-112.44C1127.86,-103.12 1186.23,-88.18 1226.03,-78"/>
<polygon fill="midnightblue" stroke="midnightblue" points="1226.9,-81.39 1235.72,-75.52 1225.17,-74.61 1226.9,-81.39"/>
</g>
<!-- Node22&#45;&gt;Node7 -->
<g id="edge29" class="edge">
<title>Node22&#45;&gt;Node7</title>
<path fill="none" stroke="midnightblue" d="M1100.86,-112.49C1123.13,-106 1149.13,-94.84 1166,-76 1177.39,-63.28 1181.97,-44.08 1183.8,-29.84"/>
<polygon fill="midnightblue" stroke="midnightblue" points="1187.3,-29.99 1184.76,-19.71 1180.33,-29.33 1187.3,-29.99"/>
</g>
<!-- Node22&#45;&gt;Node21 -->
<g id="edge32" class="edge">
<title>Node22&#45;&gt;Node21</title>
<path fill="none" stroke="midnightblue" d="M1051.06,-112.08C1045.07,-104.38 1036.25,-93.03 1028.95,-83.65"/>
<polygon fill="midnightblue" stroke="midnightblue" points="1031.71,-81.5 1022.81,-75.75 1026.18,-85.79 1031.71,-81.5"/>
</g>
<!-- Node23 -->
<g id="node23" class="node">
<title>Node23</title>
<g id="a_node23"><a xlink:title=" ">
<polygon fill="white" stroke="#bfbfbf" points="1111,-56.5 1111,-75.5 1157,-75.5 1157,-56.5 1111,-56.5"/>
<text text-anchor="middle" x="1134" y="-63.5" font-family="Helvetica,sans-Serif" font-size="10.00">cstring</text>
</a>
</g>
</g>
<!-- Node22&#45;&gt;Node23 -->
<g id="edge28" class="edge">
<title>Node22&#45;&gt;Node23</title>
<path fill="none" stroke="midnightblue" d="M1070.21,-112.32C1081.78,-104.11 1099.38,-91.6 1113.16,-81.81"/>
<polygon fill="midnightblue" stroke="midnightblue" points="1115.44,-84.48 1121.57,-75.83 1111.39,-78.77 1115.44,-84.48"/>
</g>
</g>
</svg>
