<?xml version="1.0" encoding="UTF-8" standalone="no"?>
<!DOCTYPE svg PUBLIC "-//W3C//DTD SVG 1.1//EN"
 "http://www.w3.org/Graphics/SVG/1.1/DTD/svg11.dtd">
<!-- Generated by graphviz version 2.43.0 (0)
 -->
<!-- Title: LLU::TensorInterface Pages: 1 -->
<svg width="301pt" height="151pt"
 viewBox="0.00 0.00 301.00 151.00" xmlns="http://www.w3.org/2000/svg" xmlns:xlink="http://www.w3.org/1999/xlink">
<g id="graph0" class="graph" transform="scale(1 1) rotate(0) translate(4 147)">
<title>LLU::TensorInterface</title>
<polygon fill="white" stroke="transparent" points="-4,4 -4,-147 297,-147 297,4 -4,4"/>
<!-- Node1 -->
<g id="node1" class="node">
<title>Node1</title>
<g id="a_node1"><a xlink:title="Abstract class that defines a basic set of operations on a tensor.">
<polygon fill="#bfbfbf" stroke="black" points="123,-123.5 123,-142.5 231,-142.5 231,-123.5 123,-123.5"/>
<text text-anchor="middle" x="177" y="-130.5" font-family="Helvetica,sans-Serif" font-size="10.00">LLU::TensorInterface</text>
</a>
</g>
</g>
<!-- Node2 -->
<g id="node2" class="node">
<title>Node2</title>
<g id="a_node2"><a xlink:href="classLLU_1_1MContainer_3_01MArgumentType_1_1Tensor_01_4.html" target="_top" xlink:title="MContainer specialization for MTensor.">
<polygon fill="white" stroke="black" points="33,-56.5 33,-86.5 183,-86.5 183,-56.5 33,-56.5"/>
<text text-anchor="start" x="41" y="-74.5" font-family="Helvetica,sans-Serif" font-size="10.00">LLU::MContainer&lt; MArgument</text>
<text text-anchor="middle" x="108" y="-63.5" font-family="Helvetica,sans-Serif" font-size="10.00">Type::Tensor &gt;</text>
</a>
</g>
</g>
<!-- Node1&#45;&gt;Node2 -->
<g id="edge1" class="edge">
<title>Node1&#45;&gt;Node2</title>
<path fill="none" stroke="midnightblue" d="M159.51,-116.92C148.68,-107.58 134.86,-95.66 124.26,-86.52"/>
<polygon fill="midnightblue" stroke="midnightblue" points="157.26,-119.6 167.11,-123.48 161.83,-114.29 157.26,-119.6"/>
</g>
<!-- Node5 -->
<g id="node5" class="node">
<title>Node5</title>
<g id="a_node5"><a xlink:href="classLLU_1_1TensorView.html" target="_top" xlink:title="Simple, light&#45;weight, non&#45;owning wrappper over MTensor.">
<polygon fill="white" stroke="black" points="201,-62 201,-81 293,-81 293,-62 201,-62"/>
<text text-anchor="middle" x="247" y="-69" font-family="Helvetica,sans-Serif" font-size="10.00">LLU::TensorView</text>
</a>
</g>
</g>
<!-- Node1&#45;&gt;Node5 -->
<g id="edge4" class="edge">
<title>Node1&#45;&gt;Node5</title>
<path fill="none" stroke="midnightblue" d="M194.68,-116.97C208.07,-105.59 225.98,-90.37 236.99,-81.01"/>
<polygon fill="midnightblue" stroke="midnightblue" points="192.38,-114.33 187.03,-123.48 196.92,-119.67 192.38,-114.33"/>
</g>
<!-- Node3 -->
<g id="node3" class="node">
<title>Node3</title>
<g id="a_node3"><a xlink:href="classLLU_1_1Tensor.html" target="_top" xlink:title="This is a class template, where template parameter T is the type of data elements....">
<polygon fill="white" stroke="black" points="0,-0.5 0,-19.5 94,-19.5 94,-0.5 0,-0.5"/>
<text text-anchor="middle" x="47" y="-7.5" font-family="Helvetica,sans-Serif" font-size="10.00">LLU::Tensor&lt; T &gt;</text>
</a>
</g>
</g>
<!-- Node2&#45;&gt;Node3 -->
<g id="edge2" class="edge">
<title>Node2&#45;&gt;Node3</title>
<path fill="none" stroke="midnightblue" d="M86.27,-49.3C75.8,-39.09 63.82,-27.41 55.88,-19.66"/>
<polygon fill="midnightblue" stroke="midnightblue" points="83.94,-51.92 93.54,-56.4 88.83,-46.91 83.94,-51.92"/>
</g>
<!-- Node4 -->
<g id="node4" class="node">
<title>Node4</title>
<g id="a_node4"><a xlink:href="classLLU_1_1Tensor.html" target="_top" xlink:title=" ">
<polygon fill="white" stroke="black" points="112,-0.5 112,-19.5 228,-19.5 228,-0.5 112,-0.5"/>
<text text-anchor="middle" x="170" y="-7.5" font-family="Helvetica,sans-Serif" font-size="10.00">LLU::Tensor&lt; double &gt;</text>
</a>
</g>
</g>
<!-- Node2&#45;&gt;Node4 -->
<g id="edge3" class="edge">
<title>Node2&#45;&gt;Node4</title>
<path fill="none" stroke="midnightblue" d="M130.09,-49.3C140.73,-39.09 152.9,-27.41 160.98,-19.66"/>
<polygon fill="midnightblue" stroke="midnightblue" points="127.48,-46.95 122.69,-56.4 132.33,-52 127.48,-46.95"/>
</g>
</g>
</svg>
