<?xml version="1.0" encoding="UTF-8" standalone="no"?>
<!DOCTYPE svg PUBLIC "-//W3C//DTD SVG 1.1//EN"
 "http://www.w3.org/Graphics/SVG/1.1/DTD/svg11.dtd">
<!-- Generated by graphviz version 2.43.0 (0)
 -->
<!-- Title: LLU::ImageInterface Pages: 1 -->
<svg width="265pt" height="151pt"
 viewBox="0.00 0.00 264.50 151.00" xmlns="http://www.w3.org/2000/svg" xmlns:xlink="http://www.w3.org/1999/xlink">
<g id="graph0" class="graph" transform="scale(1 1) rotate(0) translate(4 147)">
<title>LLU::ImageInterface</title>
<polygon fill="white" stroke="transparent" points="-4,4 -4,-147 260.5,-147 260.5,4 -4,4"/>
<!-- Node1 -->
<g id="node1" class="node">
<title>Node1</title>
<g id="a_node1"><a xlink:title="Abstract class that defines a basic set of operations on an image.">
<polygon fill="#bfbfbf" stroke="black" points="59.5,-123.5 59.5,-142.5 165.5,-142.5 165.5,-123.5 59.5,-123.5"/>
<text text-anchor="middle" x="112.5" y="-130.5" font-family="Helvetica,sans-Serif" font-size="10.00">LLU::ImageInterface</text>
</a>
</g>
</g>
<!-- Node2 -->
<g id="node2" class="node">
<title>Node2</title>
<g id="a_node2"><a xlink:href="classLLU_1_1ImageView.html" target="_top" xlink:title="Simple, light&#45;weight, non&#45;owning wrappper over MImage.">
<polygon fill="white" stroke="black" points="0,-62 0,-81 89,-81 89,-62 0,-62"/>
<text text-anchor="middle" x="44.5" y="-69" font-family="Helvetica,sans-Serif" font-size="10.00">LLU::ImageView</text>
</a>
</g>
</g>
<!-- Node1&#45;&gt;Node2 -->
<g id="edge1" class="edge">
<title>Node1&#45;&gt;Node2</title>
<path fill="none" stroke="midnightblue" d="M94.96,-116.65C81.99,-105.31 64.82,-90.28 54.22,-81.01"/>
<polygon fill="midnightblue" stroke="midnightblue" points="92.93,-119.52 102.76,-123.48 97.54,-114.26 92.93,-119.52"/>
</g>
<!-- Node3 -->
<g id="node3" class="node">
<title>Node3</title>
<g id="a_node3"><a xlink:href="classLLU_1_1MContainer_3_01MArgumentType_1_1Image_01_4.html" target="_top" xlink:title="MContainer specialization for MImage.">
<polygon fill="white" stroke="black" points="106.5,-56.5 106.5,-86.5 256.5,-86.5 256.5,-56.5 106.5,-56.5"/>
<text text-anchor="start" x="114.5" y="-74.5" font-family="Helvetica,sans-Serif" font-size="10.00">LLU::MContainer&lt; MArgument</text>
<text text-anchor="middle" x="181.5" y="-63.5" font-family="Helvetica,sans-Serif" font-size="10.00">Type::Image &gt;</text>
</a>
</g>
</g>
<!-- Node1&#45;&gt;Node3 -->
<g id="edge2" class="edge">
<title>Node1&#45;&gt;Node3</title>
<path fill="none" stroke="midnightblue" d="M129.99,-116.92C140.82,-107.58 154.64,-95.66 165.24,-86.52"/>
<polygon fill="midnightblue" stroke="midnightblue" points="127.67,-114.29 122.39,-123.48 132.24,-119.6 127.67,-114.29"/>
</g>
<!-- Node4 -->
<g id="node4" class="node">
<title>Node4</title>
<g id="a_node4"><a xlink:href="classLLU_1_1Image.html" target="_top" xlink:title="This is a class template, where template parameter T is the type of data elements....">
<polygon fill="white" stroke="black" points="135.5,-0.5 135.5,-19.5 227.5,-19.5 227.5,-0.5 135.5,-0.5"/>
<text text-anchor="middle" x="181.5" y="-7.5" font-family="Helvetica,sans-Serif" font-size="10.00">LLU::Image&lt; T &gt;</text>
</a>
</g>
</g>
<!-- Node3&#45;&gt;Node4 -->
<g id="edge3" class="edge">
<title>Node3&#45;&gt;Node4</title>
<path fill="none" stroke="midnightblue" d="M181.5,-46.29C181.5,-36.86 181.5,-26.65 181.5,-19.66"/>
<polygon fill="midnightblue" stroke="midnightblue" points="178,-46.4 181.5,-56.4 185,-46.4 178,-46.4"/>
</g>
</g>
</svg>
