<?xml version="1.0" encoding="UTF-8" standalone="no"?>
<!DOCTYPE svg PUBLIC "-//W3C//DTD SVG 1.1//EN"
 "http://www.w3.org/Graphics/SVG/1.1/DTD/svg11.dtd">
<!-- Generated by graphviz version 2.43.0 (0)
 -->
<!-- Title: LLU::NumericArrayInterface Pages: 1 -->
<svg width="334pt" height="151pt"
 viewBox="0.00 0.00 333.50 151.00" xmlns="http://www.w3.org/2000/svg" xmlns:xlink="http://www.w3.org/1999/xlink">
<g id="graph0" class="graph" transform="scale(1 1) rotate(0) translate(4 147)">
<title>LLU::NumericArrayInterface</title>
<polygon fill="white" stroke="transparent" points="-4,4 -4,-147 329.5,-147 329.5,4 -4,4"/>
<!-- Node1 -->
<g id="node1" class="node">
<title>Node1</title>
<g id="a_node1"><a xlink:title="Abstract class that defines a basic set of operations on a numeric array.">
<polygon fill="#bfbfbf" stroke="black" points="85.5,-123.5 85.5,-142.5 224.5,-142.5 224.5,-123.5 85.5,-123.5"/>
<text text-anchor="middle" x="155" y="-130.5" font-family="Helvetica,sans-Serif" font-size="10.00">LLU::NumericArrayInterface</text>
</a>
</g>
</g>
<!-- Node2 -->
<g id="node2" class="node">
<title>Node2</title>
<g id="a_node2"><a xlink:href="classLLU_1_1MContainer_3_01MArgumentType_1_1NumericArray_01_4.html" target="_top" xlink:title="MContainer specialization for MNumericArray.">
<polygon fill="white" stroke="black" points="0,-56.5 0,-86.5 150,-86.5 150,-56.5 0,-56.5"/>
<text text-anchor="start" x="8" y="-74.5" font-family="Helvetica,sans-Serif" font-size="10.00">LLU::MContainer&lt; MArgument</text>
<text text-anchor="middle" x="75" y="-63.5" font-family="Helvetica,sans-Serif" font-size="10.00">Type::NumericArray &gt;</text>
</a>
</g>
</g>
<!-- Node1&#45;&gt;Node2 -->
<g id="edge1" class="edge">
<title>Node1&#45;&gt;Node2</title>
<path fill="none" stroke="midnightblue" d="M135.46,-117.47C122.79,-108.05 106.38,-95.84 93.85,-86.52"/>
<polygon fill="midnightblue" stroke="midnightblue" points="133.43,-120.32 143.54,-123.48 137.6,-114.7 133.43,-120.32"/>
</g>
<!-- Node4 -->
<g id="node4" class="node">
<title>Node4</title>
<g id="a_node4"><a xlink:href="classLLU_1_1NumericArrayView.html" target="_top" xlink:title="Simple, light&#45;weight, non&#45;owning, data&#45;type&#45;agnostic wrappper over MNumericArray.">
<polygon fill="white" stroke="black" points="174,-62 174,-81 296,-81 296,-62 174,-62"/>
<text text-anchor="middle" x="235" y="-69" font-family="Helvetica,sans-Serif" font-size="10.00">LLU::NumericArrayView</text>
</a>
</g>
</g>
<!-- Node1&#45;&gt;Node4 -->
<g id="edge3" class="edge">
<title>Node1&#45;&gt;Node4</title>
<path fill="none" stroke="midnightblue" d="M174.77,-117.29C190.12,-105.88 210.86,-90.46 223.56,-81.01"/>
<polygon fill="midnightblue" stroke="midnightblue" points="172.4,-114.7 166.46,-123.48 176.57,-120.32 172.4,-114.7"/>
</g>
<!-- Node3 -->
<g id="node3" class="node">
<title>Node3</title>
<g id="a_node3"><a xlink:href="classLLU_1_1NumericArray.html" target="_top" xlink:title="This is a class template, where template parameter T is the type of data elements....">
<polygon fill="white" stroke="black" points="9.5,-0.5 9.5,-19.5 134.5,-19.5 134.5,-0.5 9.5,-0.5"/>
<text text-anchor="middle" x="72" y="-7.5" font-family="Helvetica,sans-Serif" font-size="10.00">LLU::NumericArray&lt; T &gt;</text>
</a>
</g>
</g>
<!-- Node2&#45;&gt;Node3 -->
<g id="edge2" class="edge">
<title>Node2&#45;&gt;Node3</title>
<path fill="none" stroke="midnightblue" d="M73.78,-46.29C73.3,-36.86 72.79,-26.65 72.44,-19.66"/>
<polygon fill="midnightblue" stroke="midnightblue" points="70.29,-46.59 74.29,-56.4 77.28,-46.24 70.29,-46.59"/>
</g>
<!-- Node5 -->
<g id="node5" class="node">
<title>Node5</title>
<g id="a_node5"><a xlink:href="classLLU_1_1NumericArrayTypedView.html" target="_top" xlink:title="Simple, light&#45;weight, non&#45;owning wrappper over MNumericArray.">
<polygon fill="white" stroke="black" points="152.5,-0.5 152.5,-19.5 325.5,-19.5 325.5,-0.5 152.5,-0.5"/>
<text text-anchor="middle" x="239" y="-7.5" font-family="Helvetica,sans-Serif" font-size="10.00">LLU::NumericArrayTypedView&lt; T &gt;</text>
</a>
</g>
</g>
<!-- Node4&#45;&gt;Node5 -->
<g id="edge4" class="edge">
<title>Node4&#45;&gt;Node5</title>
<path fill="none" stroke="midnightblue" d="M236.26,-51.82C236.98,-41 237.86,-27.9 238.43,-19.51"/>
<polygon fill="midnightblue" stroke="midnightblue" points="232.75,-51.76 235.57,-61.98 239.74,-52.23 232.75,-51.76"/>
</g>
</g>
</svg>
