<?xml version="1.0" encoding="UTF-8" standalone="no"?>
<!DOCTYPE svg PUBLIC "-//W3C//DTD SVG 1.1//EN"
 "http://www.w3.org/Graphics/SVG/1.1/DTD/svg11.dtd">
<!-- Generated by graphviz version 2.43.0 (0)
 -->
<!-- Title: LLU::WS::Symbol Pages: 1 -->
<svg width="340pt" height="140pt"
 viewBox="0.00 0.00 339.50 140.00" xmlns="http://www.w3.org/2000/svg" xmlns:xlink="http://www.w3.org/1999/xlink">
<g id="graph0" class="graph" transform="scale(1 1) rotate(0) translate(4 136)">
<title>LLU::WS::Symbol</title>
<polygon fill="white" stroke="transparent" points="-4,4 -4,-136 335.5,-136 335.5,4 -4,4"/>
<!-- Node1 -->
<g id="node1" class="node">
<title>Node1</title>
<g id="a_node1"><a xlink:title="Structure representing any symbol in Wolfram Language.">
<polygon fill="#bfbfbf" stroke="black" points="67,-112.5 67,-131.5 163,-131.5 163,-112.5 67,-112.5"/>
<text text-anchor="middle" x="115" y="-119.5" font-family="Helvetica,sans-Serif" font-size="10.00">LLU::WS::Symbol</text>
</a>
</g>
</g>
<!-- Node2 -->
<g id="node2" class="node">
<title>Node2</title>
<g id="a_node2"><a xlink:href="structLLU_1_1WS_1_1BeginExpr.html" target="_top" xlink:title=" ">
<polygon fill="white" stroke="black" points="0,-56.5 0,-75.5 108,-75.5 108,-56.5 0,-56.5"/>
<text text-anchor="middle" x="54" y="-63.5" font-family="Helvetica,sans-Serif" font-size="10.00">LLU::WS::BeginExpr</text>
</a>
</g>
</g>
<!-- Node1&#45;&gt;Node2 -->
<g id="edge1" class="edge">
<title>Node1&#45;&gt;Node2</title>
<path fill="none" stroke="midnightblue" d="M97.53,-105.54C86.66,-95.91 73.06,-83.87 63.98,-75.83"/>
<polygon fill="midnightblue" stroke="midnightblue" points="95.39,-108.32 105.2,-112.32 100.03,-103.07 95.39,-108.32"/>
</g>
<!-- Node3 -->
<g id="node3" class="node">
<title>Node3</title>
<g id="a_node3"><a xlink:href="structLLU_1_1WS_1_1Function.html" target="_top" xlink:title="Structure representing any function in Wolfram Language, i.e. a head plus number of arguments.">
<polygon fill="white" stroke="black" points="126.5,-56.5 126.5,-75.5 227.5,-75.5 227.5,-56.5 126.5,-56.5"/>
<text text-anchor="middle" x="177" y="-63.5" font-family="Helvetica,sans-Serif" font-size="10.00">LLU::WS::Function</text>
</a>
</g>
</g>
<!-- Node1&#45;&gt;Node3 -->
<g id="edge2" class="edge">
<title>Node1&#45;&gt;Node3</title>
<path fill="none" stroke="midnightblue" d="M132.75,-105.54C143.81,-95.91 157.63,-83.87 166.86,-75.83"/>
<polygon fill="midnightblue" stroke="midnightblue" points="130.2,-103.12 124.96,-112.32 134.8,-108.4 130.2,-103.12"/>
</g>
<!-- Node4 -->
<g id="node4" class="node">
<title>Node4</title>
<g id="a_node4"><a xlink:href="structLLU_1_1WS_1_1Association.html" target="_top" xlink:title="Special type of a Function which corresponds to the Association expression when exchanged with the Ke...">
<polygon fill="white" stroke="black" points="5,-0.5 5,-19.5 119,-19.5 119,-0.5 5,-0.5"/>
<text text-anchor="middle" x="62" y="-7.5" font-family="Helvetica,sans-Serif" font-size="10.00">LLU::WS::Association</text>
</a>
</g>
</g>
<!-- Node3&#45;&gt;Node4 -->
<g id="edge3" class="edge">
<title>Node3&#45;&gt;Node4</title>
<path fill="none" stroke="midnightblue" d="M149.52,-52.1C128.03,-42.01 98.78,-28.27 80.14,-19.52"/>
<polygon fill="midnightblue" stroke="midnightblue" points="148.24,-55.36 158.78,-56.44 151.21,-49.02 148.24,-55.36"/>
</g>
<!-- Node5 -->
<g id="node5" class="node">
<title>Node5</title>
<g id="a_node5"><a xlink:href="structLLU_1_1WS_1_1List.html" target="_top" xlink:title="Special type of a Function which corresponds to the List expression when exchanged with the Kernel vi...">
<polygon fill="white" stroke="black" points="137.5,-0.5 137.5,-19.5 216.5,-19.5 216.5,-0.5 137.5,-0.5"/>
<text text-anchor="middle" x="177" y="-7.5" font-family="Helvetica,sans-Serif" font-size="10.00">LLU::WS::List</text>
</a>
</g>
</g>
<!-- Node3&#45;&gt;Node5 -->
<g id="edge4" class="edge">
<title>Node3&#45;&gt;Node5</title>
<path fill="none" stroke="midnightblue" d="M177,-45.8C177,-36.91 177,-26.78 177,-19.75"/>
<polygon fill="midnightblue" stroke="midnightblue" points="173.5,-46.08 177,-56.08 180.5,-46.08 173.5,-46.08"/>
</g>
<!-- Node6 -->
<g id="node6" class="node">
<title>Node6</title>
<g id="a_node6"><a xlink:href="structLLU_1_1WS_1_1Missing.html" target="_top" xlink:title="Special type of a Function which corresponds to the Missing expression when exchanged with the Kernel...">
<polygon fill="white" stroke="black" points="234.5,-0.5 234.5,-19.5 331.5,-19.5 331.5,-0.5 234.5,-0.5"/>
<text text-anchor="middle" x="283" y="-7.5" font-family="Helvetica,sans-Serif" font-size="10.00">LLU::WS::Missing</text>
</a>
</g>
</g>
<!-- Node3&#45;&gt;Node6 -->
<g id="edge5" class="edge">
<title>Node3&#45;&gt;Node6</title>
<path fill="none" stroke="midnightblue" d="M203.06,-51.73C222.68,-41.73 249.03,-28.31 266.01,-19.65"/>
<polygon fill="midnightblue" stroke="midnightblue" points="201.35,-48.67 194.03,-56.32 204.53,-54.9 201.35,-48.67"/>
</g>
</g>
</svg>
