<?xml version="1.0" encoding="UTF-8" standalone="no"?>
<!DOCTYPE svg PUBLIC "-//W3C//DTD SVG 1.1//EN"
 "http://www.w3.org/Graphics/SVG/1.1/DTD/svg11.dtd">
<!-- Generated by graphviz version 2.43.0 (0)
 -->
<!-- Title: LLU::WS::Function Pages: 1 -->
<svg width="335pt" height="140pt"
 viewBox="0.00 0.00 334.50 140.00" xmlns="http://www.w3.org/2000/svg" xmlns:xlink="http://www.w3.org/1999/xlink">
<g id="graph0" class="graph" transform="scale(1 1) rotate(0) translate(4 136)">
<title>LLU::WS::Function</title>
<polygon fill="white" stroke="transparent" points="-4,4 -4,-136 330.5,-136 330.5,4 -4,4"/>
<!-- Node1 -->
<g id="node1" class="node">
<title>Node1</title>
<g id="a_node1"><a xlink:title="Structure representing any function in Wolfram Language, i.e. a head plus number of arguments.">
<polygon fill="#bfbfbf" stroke="black" points="121.5,-56.5 121.5,-75.5 222.5,-75.5 222.5,-56.5 121.5,-56.5"/>
<text text-anchor="middle" x="172" y="-63.5" font-family="Helvetica,sans-Serif" font-size="10.00">LLU::WS::Function</text>
</a>
</g>
</g>
<!-- Node3 -->
<g id="node3" class="node">
<title>Node3</title>
<g id="a_node3"><a xlink:href="structLLU_1_1WS_1_1Association.html" target="_top" xlink:title="Special type of a Function which corresponds to the Association expression when exchanged with the Ke...">
<polygon fill="white" stroke="black" points="0,-0.5 0,-19.5 114,-19.5 114,-0.5 0,-0.5"/>
<text text-anchor="middle" x="57" y="-7.5" font-family="Helvetica,sans-Serif" font-size="10.00">LLU::WS::Association</text>
</a>
</g>
</g>
<!-- Node1&#45;&gt;Node3 -->
<g id="edge2" class="edge">
<title>Node1&#45;&gt;Node3</title>
<path fill="none" stroke="midnightblue" d="M144.52,-52.1C123.03,-42.01 93.78,-28.27 75.14,-19.52"/>
<polygon fill="midnightblue" stroke="midnightblue" points="143.24,-55.36 153.78,-56.44 146.21,-49.02 143.24,-55.36"/>
</g>
<!-- Node4 -->
<g id="node4" class="node">
<title>Node4</title>
<g id="a_node4"><a xlink:href="structLLU_1_1WS_1_1List.html" target="_top" xlink:title="Special type of a Function which corresponds to the List expression when exchanged with the Kernel vi...">
<polygon fill="white" stroke="black" points="132.5,-0.5 132.5,-19.5 211.5,-19.5 211.5,-0.5 132.5,-0.5"/>
<text text-anchor="middle" x="172" y="-7.5" font-family="Helvetica,sans-Serif" font-size="10.00">LLU::WS::List</text>
</a>
</g>
</g>
<!-- Node1&#45;&gt;Node4 -->
<g id="edge3" class="edge">
<title>Node1&#45;&gt;Node4</title>
<path fill="none" stroke="midnightblue" d="M172,-45.8C172,-36.91 172,-26.78 172,-19.75"/>
<polygon fill="midnightblue" stroke="midnightblue" points="168.5,-46.08 172,-56.08 175.5,-46.08 168.5,-46.08"/>
</g>
<!-- Node5 -->
<g id="node5" class="node">
<title>Node5</title>
<g id="a_node5"><a xlink:href="structLLU_1_1WS_1_1Missing.html" target="_top" xlink:title="Special type of a Function which corresponds to the Missing expression when exchanged with the Kernel...">
<polygon fill="white" stroke="black" points="229.5,-0.5 229.5,-19.5 326.5,-19.5 326.5,-0.5 229.5,-0.5"/>
<text text-anchor="middle" x="278" y="-7.5" font-family="Helvetica,sans-Serif" font-size="10.00">LLU::WS::Missing</text>
</a>
</g>
</g>
<!-- Node1&#45;&gt;Node5 -->
<g id="edge4" class="edge">
<title>Node1&#45;&gt;Node5</title>
<path fill="none" stroke="midnightblue" d="M198.06,-51.73C217.68,-41.73 244.03,-28.31 261.01,-19.65"/>
<polygon fill="midnightblue" stroke="midnightblue" points="196.35,-48.67 189.03,-56.32 199.53,-54.9 196.35,-48.67"/>
</g>
<!-- Node2 -->
<g id="node2" class="node">
<title>Node2</title>
<g id="a_node2"><a xlink:href="structLLU_1_1WS_1_1Symbol.html" target="_top" xlink:title="Structure representing any symbol in Wolfram Language.">
<polygon fill="white" stroke="black" points="124,-112.5 124,-131.5 220,-131.5 220,-112.5 124,-112.5"/>
<text text-anchor="middle" x="172" y="-119.5" font-family="Helvetica,sans-Serif" font-size="10.00">LLU::WS::Symbol</text>
</a>
</g>
</g>
<!-- Node2&#45;&gt;Node1 -->
<g id="edge1" class="edge">
<title>Node2&#45;&gt;Node1</title>
<path fill="none" stroke="midnightblue" d="M172,-101.8C172,-92.91 172,-82.78 172,-75.75"/>
<polygon fill="midnightblue" stroke="midnightblue" points="168.5,-102.08 172,-112.08 175.5,-102.08 168.5,-102.08"/>
</g>
</g>
</svg>
