<?xml version="1.0" encoding="UTF-8" standalone="no"?>
<!DOCTYPE svg PUBLIC "-//W3C//DTD SVG 1.1//EN"
 "http://www.w3.org/Graphics/SVG/1.1/DTD/svg11.dtd">
<!-- Generated by graphviz version 2.43.0 (0)
 -->
<!-- Title: Tensor.h Pages: 1 -->
<svg width="451pt" height="196pt"
 viewBox="0.00 0.00 451.40 196.00" xmlns="http://www.w3.org/2000/svg" xmlns:xlink="http://www.w3.org/1999/xlink">
<g id="graph0" class="graph" transform="scale(1 1) rotate(0) translate(4 192)">
<title>Tensor.h</title>
<polygon fill="white" stroke="transparent" points="-4,4 -4,-192 447.4,-192 447.4,4 -4,4"/>
<!-- Node1 -->
<g id="node1" class="node">
<title>Node1</title>
<g id="a_node1"><a xlink:title="Templated C++ wrapper for MTensor.">
<polygon fill="#bfbfbf" stroke="black" points="168.4,-168.5 168.4,-187.5 221.4,-187.5 221.4,-168.5 168.4,-168.5"/>
<text text-anchor="middle" x="194.9" y="-175.5" font-family="Helvetica,sans-Serif" font-size="10.00">Tensor.h</text>
</a>
</g>
</g>
<!-- Node2 -->
<g id="node2" class="node">
<title>Node2</title>
<g id="a_node2"><a xlink:href="SparseArray_8h.html" target="_top" xlink:title="Templated C++ wrapper for MSparseArray.">
<polygon fill="white" stroke="black" points="89.4,-112.5 89.4,-131.5 166.4,-131.5 166.4,-112.5 89.4,-112.5"/>
<text text-anchor="middle" x="127.9" y="-119.5" font-family="Helvetica,sans-Serif" font-size="10.00">SparseArray.h</text>
</a>
</g>
</g>
<!-- Node1&#45;&gt;Node2 -->
<g id="edge1" class="edge">
<title>Node1&#45;&gt;Node2</title>
<path fill="none" stroke="midnightblue" d="M176.07,-161.82C164.07,-152.15 148.93,-139.95 138.86,-131.83"/>
<polygon fill="midnightblue" stroke="midnightblue" points="174.16,-164.77 184.14,-168.32 178.55,-159.32 174.16,-164.77"/>
</g>
<!-- Node3 -->
<g id="node3" class="node">
<title>Node3</title>
<g id="a_node3"><a xlink:href="LLU_8h.html" target="_top" xlink:title="Header file which includes all major parts of LLU.">
<polygon fill="white" stroke="black" points="56.4,-0.5 56.4,-19.5 99.4,-19.5 99.4,-0.5 56.4,-0.5"/>
<text text-anchor="middle" x="77.9" y="-7.5" font-family="Helvetica,sans-Serif" font-size="10.00">LLU.h</text>
</a>
</g>
</g>
<!-- Node1&#45;&gt;Node3 -->
<g id="edge9" class="edge">
<title>Node1&#45;&gt;Node3</title>
<path fill="none" stroke="midnightblue" d="M158.21,-170.67C111.36,-160.3 32.78,-134.66 2.9,-76 -10.78,-49.13 29.29,-28.62 56.02,-18.33"/>
<polygon fill="midnightblue" stroke="midnightblue" points="157.76,-174.15 168.26,-172.76 159.19,-167.29 157.76,-174.15"/>
</g>
<!-- Node4 -->
<g id="node4" class="node">
<title>Node4</title>
<g id="a_node4"><a xlink:href="MArgumentManager_8h.html" target="_top" xlink:title="Definition of MArgumentManager class.">
<polygon fill="white" stroke="black" points="155.9,-56.5 155.9,-75.5 267.9,-75.5 267.9,-56.5 155.9,-56.5"/>
<text text-anchor="middle" x="211.9" y="-63.5" font-family="Helvetica,sans-Serif" font-size="10.00">MArgumentManager.h</text>
</a>
</g>
</g>
<!-- Node1&#45;&gt;Node4 -->
<g id="edge10" class="edge">
<title>Node1&#45;&gt;Node4</title>
<path fill="none" stroke="midnightblue" d="M197.79,-158.35C201.51,-134.25 207.84,-93.31 210.58,-75.59"/>
<polygon fill="midnightblue" stroke="midnightblue" points="194.31,-157.95 196.24,-168.37 201.22,-159.02 194.31,-157.95"/>
</g>
<!-- Node9 -->
<g id="node9" class="node">
<title>Node9</title>
<g id="a_node9"><a xlink:href="ProgressMonitor_8h.html" target="_top" xlink:title="Definition of ProgressMonitor class.">
<polygon fill="white" stroke="black" points="223.4,-112.5 223.4,-131.5 318.4,-131.5 318.4,-112.5 223.4,-112.5"/>
<text text-anchor="middle" x="270.9" y="-119.5" font-family="Helvetica,sans-Serif" font-size="10.00">ProgressMonitor.h</text>
</a>
</g>
</g>
<!-- Node1&#45;&gt;Node9 -->
<g id="edge11" class="edge">
<title>Node1&#45;&gt;Node9</title>
<path fill="none" stroke="midnightblue" d="M215.48,-162.38C229.22,-152.62 246.83,-140.11 258.47,-131.83"/>
<polygon fill="midnightblue" stroke="midnightblue" points="213.24,-159.68 207.11,-168.32 217.29,-165.38 213.24,-159.68"/>
</g>
<!-- Node11 -->
<g id="node11" class="node">
<title>Node11</title>
<g id="a_node11"><a xlink:href="Tensor_8cpp.html" target="_top" xlink:title="Template specialization of certain methods from TypedTensor class for all underlying data types that ...">
<polygon fill="white" stroke="black" points="336.9,-112.5 336.9,-131.5 400.9,-131.5 400.9,-112.5 336.9,-112.5"/>
<text text-anchor="middle" x="368.9" y="-119.5" font-family="Helvetica,sans-Serif" font-size="10.00">Tensor.cpp</text>
</a>
</g>
</g>
<!-- Node1&#45;&gt;Node11 -->
<g id="edge14" class="edge">
<title>Node1&#45;&gt;Node11</title>
<path fill="none" stroke="midnightblue" d="M231.4,-165.67C264.24,-155.48 311.79,-140.73 341.49,-131.51"/>
<polygon fill="midnightblue" stroke="midnightblue" points="230.22,-162.37 221.71,-168.68 232.3,-169.06 230.22,-162.37"/>
</g>
<!-- Node2&#45;&gt;Node3 -->
<g id="edge2" class="edge">
<title>Node2&#45;&gt;Node3</title>
<path fill="none" stroke="midnightblue" d="M124.13,-102.39C121.04,-89.07 116,-70.93 108.9,-56 102.47,-42.46 92.17,-28.49 85.22,-19.78"/>
<polygon fill="midnightblue" stroke="midnightblue" points="120.73,-103.24 126.28,-112.27 127.57,-101.75 120.73,-103.24"/>
</g>
<!-- Node2&#45;&gt;Node4 -->
<g id="edge3" class="edge">
<title>Node2&#45;&gt;Node4</title>
<path fill="none" stroke="midnightblue" d="M149.84,-106.9C165.24,-97 185.35,-84.07 198.44,-75.65"/>
<polygon fill="midnightblue" stroke="midnightblue" points="147.92,-103.97 141.4,-112.32 151.7,-109.86 147.92,-103.97"/>
</g>
<!-- Node8 -->
<g id="node8" class="node">
<title>Node8</title>
<g id="a_node8"><a xlink:href="SparseArray_8cpp.html" target="_top" xlink:title="Implementation of GenericSparseArray and SparseArray&lt;T&gt;">
<polygon fill="white" stroke="black" points="11.9,-56.5 11.9,-75.5 99.9,-75.5 99.9,-56.5 11.9,-56.5"/>
<text text-anchor="middle" x="55.9" y="-63.5" font-family="Helvetica,sans-Serif" font-size="10.00">SparseArray.cpp</text>
</a>
</g>
</g>
<!-- Node2&#45;&gt;Node8 -->
<g id="edge8" class="edge">
<title>Node2&#45;&gt;Node8</title>
<path fill="none" stroke="midnightblue" d="M108.04,-106.1C95.08,-96.38 78.61,-84.03 67.68,-75.83"/>
<polygon fill="midnightblue" stroke="midnightblue" points="106.24,-109.12 116.34,-112.32 110.44,-103.52 106.24,-109.12"/>
</g>
<!-- Node4&#45;&gt;Node3 -->
<g id="edge4" class="edge">
<title>Node4&#45;&gt;Node3</title>
<path fill="none" stroke="midnightblue" d="M181.23,-52.64C156.08,-42.5 121.15,-28.43 99.04,-19.52"/>
<polygon fill="midnightblue" stroke="midnightblue" points="180.09,-55.95 190.67,-56.44 182.7,-49.46 180.09,-55.95"/>
</g>
<!-- Node5 -->
<g id="node5" class="node">
<title>Node5</title>
<g id="a_node5"><a xlink:href="LibraryLinkError_8cpp.html" target="_top" xlink:title="Contains definitions of ErrorManager members and implementation of interface function sendRegisteredE...">
<polygon fill="white" stroke="black" points="340.4,-0.5 340.4,-19.5 443.4,-19.5 443.4,-0.5 340.4,-0.5"/>
<text text-anchor="middle" x="391.9" y="-7.5" font-family="Helvetica,sans-Serif" font-size="10.00">LibraryLinkError.cpp</text>
</a>
</g>
</g>
<!-- Node4&#45;&gt;Node5 -->
<g id="edge5" class="edge">
<title>Node4&#45;&gt;Node5</title>
<path fill="none" stroke="midnightblue" d="M250.01,-53.57C283.97,-43.38 332.89,-28.7 363.52,-19.52"/>
<polygon fill="midnightblue" stroke="midnightblue" points="249,-50.22 240.43,-56.44 251.01,-56.92 249,-50.22"/>
</g>
<!-- Node6 -->
<g id="node6" class="node">
<title>Node6</title>
<g id="a_node6"><a xlink:href="Logger_8cpp.html" target="_top" xlink:title="Implementation of functions defined in Logger.h.">
<polygon fill="white" stroke="black" points="117.9,-0.5 117.9,-19.5 181.9,-19.5 181.9,-0.5 117.9,-0.5"/>
<text text-anchor="middle" x="149.9" y="-7.5" font-family="Helvetica,sans-Serif" font-size="10.00">Logger.cpp</text>
</a>
</g>
</g>
<!-- Node4&#45;&gt;Node6 -->
<g id="edge6" class="edge">
<title>Node4&#45;&gt;Node6</title>
<path fill="none" stroke="midnightblue" d="M194.15,-49.54C183.1,-39.91 169.27,-27.87 160.05,-19.83"/>
<polygon fill="midnightblue" stroke="midnightblue" points="192.1,-52.4 201.94,-56.32 196.7,-47.12 192.1,-52.4"/>
</g>
<!-- Node7 -->
<g id="node7" class="node">
<title>Node7</title>
<g id="a_node7"><a xlink:href="MArgumentManager_8cpp.html" target="_top" xlink:title="Definitions of non&#45;template member functions and static data members from MArgumentManager class.">
<polygon fill="white" stroke="black" points="199.9,-0.5 199.9,-19.5 321.9,-19.5 321.9,-0.5 199.9,-0.5"/>
<text text-anchor="middle" x="260.9" y="-7.5" font-family="Helvetica,sans-Serif" font-size="10.00">MArgumentManager.cpp</text>
</a>
</g>
</g>
<!-- Node4&#45;&gt;Node7 -->
<g id="edge7" class="edge">
<title>Node4&#45;&gt;Node7</title>
<path fill="none" stroke="midnightblue" d="M226.94,-48.43C235.53,-38.97 245.95,-27.48 252.96,-19.75"/>
<polygon fill="midnightblue" stroke="midnightblue" points="224.12,-46.33 220,-56.08 229.31,-51.03 224.12,-46.33"/>
</g>
<!-- Node9&#45;&gt;Node4 -->
<g id="edge12" class="edge">
<title>Node9&#45;&gt;Node4</title>
<path fill="none" stroke="midnightblue" d="M254.01,-105.54C243.49,-95.91 230.34,-83.87 221.56,-75.83"/>
<polygon fill="midnightblue" stroke="midnightblue" points="251.68,-108.15 261.42,-112.32 256.41,-102.99 251.68,-108.15"/>
</g>
<!-- Node10 -->
<g id="node10" class="node">
<title>Node10</title>
<g id="a_node10"><a xlink:href="ProgressMonitor_8cpp.html" target="_top" xlink:title="Implementation file for ProgressMonitor class.">
<polygon fill="white" stroke="black" points="285.9,-56.5 285.9,-75.5 391.9,-75.5 391.9,-56.5 285.9,-56.5"/>
<text text-anchor="middle" x="338.9" y="-63.5" font-family="Helvetica,sans-Serif" font-size="10.00">ProgressMonitor.cpp</text>
</a>
</g>
</g>
<!-- Node9&#45;&gt;Node10 -->
<g id="edge13" class="edge">
<title>Node9&#45;&gt;Node10</title>
<path fill="none" stroke="midnightblue" d="M289.67,-106.1C301.9,-96.38 317.46,-84.03 327.78,-75.83"/>
<polygon fill="midnightblue" stroke="midnightblue" points="287.48,-103.36 281.83,-112.32 291.84,-108.85 287.48,-103.36"/>
</g>
</g>
</svg>
