<?xml version="1.0" encoding="UTF-8" standalone="no"?>
<!DOCTYPE svg PUBLIC "-//W3C//DTD SVG 1.1//EN"
 "http://www.w3.org/Graphics/SVG/1.1/DTD/svg11.dtd">
<!-- Generated by graphviz version 2.43.0 (0)
 -->
<!-- Title: Tensor.h Pages: 1 -->
<svg width="395pt" height="196pt"
 viewBox="0.00 0.00 394.50 196.00" xmlns="http://www.w3.org/2000/svg" xmlns:xlink="http://www.w3.org/1999/xlink">
<g id="graph0" class="graph" transform="scale(1 1) rotate(0) translate(4 192)">
<title>Tensor.h</title>
<polygon fill="white" stroke="transparent" points="-4,4 -4,-192 390.5,-192 390.5,4 -4,4"/>
<!-- Node1 -->
<g id="node1" class="node">
<title>Node1</title>
<g id="a_node1"><a xlink:title="Templated C++ wrapper for MTensor.">
<polygon fill="#bfbfbf" stroke="black" points="98,-168.5 98,-187.5 151,-187.5 151,-168.5 98,-168.5"/>
<text text-anchor="middle" x="124.5" y="-175.5" font-family="Helvetica,sans-Serif" font-size="10.00">Tensor.h</text>
</a>
</g>
</g>
<!-- Node2 -->
<g id="node2" class="node">
<title>Node2</title>
<g id="a_node2"><a xlink:href="LLU_8h.html" target="_top" xlink:title="Header file which includes all major parts of LLU.">
<polygon fill="white" stroke="black" points="0,-0.5 0,-19.5 43,-19.5 43,-0.5 0,-0.5"/>
<text text-anchor="middle" x="21.5" y="-7.5" font-family="Helvetica,sans-Serif" font-size="10.00">LLU.h</text>
</a>
</g>
</g>
<!-- Node1&#45;&gt;Node2 -->
<g id="edge1" class="edge">
<title>Node1&#45;&gt;Node2</title>
<path fill="none" stroke="midnightblue" d="M109.97,-160.86C93.26,-141.7 65.79,-108.24 47.5,-76 36.71,-56.97 28.24,-32.57 24.16,-19.75"/>
<polygon fill="midnightblue" stroke="midnightblue" points="107.38,-163.21 116.62,-168.39 112.62,-158.57 107.38,-163.21"/>
</g>
<!-- Node3 -->
<g id="node3" class="node">
<title>Node3</title>
<g id="a_node3"><a xlink:href="MArgumentManager_8h.html" target="_top" xlink:title="Definition of MArgumentManager class.">
<polygon fill="white" stroke="black" points="56.5,-56.5 56.5,-75.5 168.5,-75.5 168.5,-56.5 56.5,-56.5"/>
<text text-anchor="middle" x="112.5" y="-63.5" font-family="Helvetica,sans-Serif" font-size="10.00">MArgumentManager.h</text>
</a>
</g>
</g>
<!-- Node1&#45;&gt;Node3 -->
<g id="edge2" class="edge">
<title>Node1&#45;&gt;Node3</title>
<path fill="none" stroke="midnightblue" d="M115.07,-159.25C111.29,-151.17 107.39,-141.35 105.5,-132 101.49,-112.2 106.44,-88.51 109.83,-75.91"/>
<polygon fill="midnightblue" stroke="midnightblue" points="112.03,-160.99 119.62,-168.37 118.29,-157.86 112.03,-160.99"/>
</g>
<!-- Node7 -->
<g id="node7" class="node">
<title>Node7</title>
<g id="a_node7"><a xlink:href="ProgressMonitor_8h.html" target="_top" xlink:title="Definition of ProgressMonitor class.">
<polygon fill="white" stroke="black" points="115,-112.5 115,-131.5 210,-131.5 210,-112.5 115,-112.5"/>
<text text-anchor="middle" x="162.5" y="-119.5" font-family="Helvetica,sans-Serif" font-size="10.00">ProgressMonitor.h</text>
</a>
</g>
</g>
<!-- Node1&#45;&gt;Node7 -->
<g id="edge7" class="edge">
<title>Node1&#45;&gt;Node7</title>
<path fill="none" stroke="midnightblue" d="M136.56,-159.86C143.14,-150.5 151.01,-139.33 156.34,-131.75"/>
<polygon fill="midnightblue" stroke="midnightblue" points="133.67,-157.89 130.77,-168.08 139.39,-161.92 133.67,-157.89"/>
</g>
<!-- Node9 -->
<g id="node9" class="node">
<title>Node9</title>
<g id="a_node9"><a xlink:href="Tensor_8cpp.html" target="_top" xlink:title="Template specialization of certain methods from TypedTensor class for all underlying data types that ...">
<polygon fill="white" stroke="black" points="228.5,-112.5 228.5,-131.5 292.5,-131.5 292.5,-112.5 228.5,-112.5"/>
<text text-anchor="middle" x="260.5" y="-119.5" font-family="Helvetica,sans-Serif" font-size="10.00">Tensor.cpp</text>
</a>
</g>
</g>
<!-- Node1&#45;&gt;Node9 -->
<g id="edge10" class="edge">
<title>Node1&#45;&gt;Node9</title>
<path fill="none" stroke="midnightblue" d="M155.63,-164.64C181.16,-154.5 216.61,-140.43 239.05,-131.52"/>
<polygon fill="midnightblue" stroke="midnightblue" points="154.05,-161.5 146.05,-168.44 156.64,-168.01 154.05,-161.5"/>
</g>
<!-- Node3&#45;&gt;Node2 -->
<g id="edge3" class="edge">
<title>Node3&#45;&gt;Node2</title>
<path fill="none" stroke="midnightblue" d="M89.21,-51.18C72.46,-41.24 50.4,-28.15 36.08,-19.65"/>
<polygon fill="midnightblue" stroke="midnightblue" points="87.49,-54.23 97.88,-56.32 91.07,-48.21 87.49,-54.23"/>
</g>
<!-- Node4 -->
<g id="node4" class="node">
<title>Node4</title>
<g id="a_node4"><a xlink:href="LibraryLinkError_8cpp.html" target="_top" xlink:title="Contains definitions of ErrorManager members and implementation of interface function sendRegisteredE...">
<polygon fill="white" stroke="black" points="61,-0.5 61,-19.5 164,-19.5 164,-0.5 61,-0.5"/>
<text text-anchor="middle" x="112.5" y="-7.5" font-family="Helvetica,sans-Serif" font-size="10.00">LibraryLinkError.cpp</text>
</a>
</g>
</g>
<!-- Node3&#45;&gt;Node4 -->
<g id="edge4" class="edge">
<title>Node3&#45;&gt;Node4</title>
<path fill="none" stroke="midnightblue" d="M112.5,-45.8C112.5,-36.91 112.5,-26.78 112.5,-19.75"/>
<polygon fill="midnightblue" stroke="midnightblue" points="109,-46.08 112.5,-56.08 116,-46.08 109,-46.08"/>
</g>
<!-- Node5 -->
<g id="node5" class="node">
<title>Node5</title>
<g id="a_node5"><a xlink:href="Logger_8cpp.html" target="_top" xlink:title="Implementation of functions defined in Logger.h.">
<polygon fill="white" stroke="black" points="182.5,-0.5 182.5,-19.5 246.5,-19.5 246.5,-0.5 182.5,-0.5"/>
<text text-anchor="middle" x="214.5" y="-7.5" font-family="Helvetica,sans-Serif" font-size="10.00">Logger.cpp</text>
</a>
</g>
</g>
<!-- Node3&#45;&gt;Node5 -->
<g id="edge5" class="edge">
<title>Node3&#45;&gt;Node5</title>
<path fill="none" stroke="midnightblue" d="M137.83,-51.59C156.69,-41.61 181.88,-28.27 198.15,-19.65"/>
<polygon fill="midnightblue" stroke="midnightblue" points="136.09,-48.55 128.89,-56.32 139.36,-54.74 136.09,-48.55"/>
</g>
<!-- Node6 -->
<g id="node6" class="node">
<title>Node6</title>
<g id="a_node6"><a xlink:href="MArgumentManager_8cpp.html" target="_top" xlink:title="Definitions of non&#45;template member functions and static data members from MArgumentManager class.">
<polygon fill="white" stroke="black" points="264.5,-0.5 264.5,-19.5 386.5,-19.5 386.5,-0.5 264.5,-0.5"/>
<text text-anchor="middle" x="325.5" y="-7.5" font-family="Helvetica,sans-Serif" font-size="10.00">MArgumentManager.cpp</text>
</a>
</g>
</g>
<!-- Node3&#45;&gt;Node6 -->
<g id="edge6" class="edge">
<title>Node3&#45;&gt;Node6</title>
<path fill="none" stroke="midnightblue" d="M156.05,-53.96C196.28,-43.76 255.2,-28.82 291.91,-19.52"/>
<polygon fill="midnightblue" stroke="midnightblue" points="155.08,-50.59 146.25,-56.44 156.8,-57.38 155.08,-50.59"/>
</g>
<!-- Node7&#45;&gt;Node3 -->
<g id="edge8" class="edge">
<title>Node7&#45;&gt;Node3</title>
<path fill="none" stroke="midnightblue" d="M147.42,-104.72C138.61,-95.2 127.83,-83.56 120.6,-75.75"/>
<polygon fill="midnightblue" stroke="midnightblue" points="144.88,-107.12 154.24,-112.08 150.02,-102.37 144.88,-107.12"/>
</g>
<!-- Node8 -->
<g id="node8" class="node">
<title>Node8</title>
<g id="a_node8"><a xlink:href="ProgressMonitor_8cpp.html" target="_top" xlink:title="Implementation file for ProgressMonitor class.">
<polygon fill="white" stroke="black" points="186.5,-56.5 186.5,-75.5 292.5,-75.5 292.5,-56.5 186.5,-56.5"/>
<text text-anchor="middle" x="239.5" y="-63.5" font-family="Helvetica,sans-Serif" font-size="10.00">ProgressMonitor.cpp</text>
</a>
</g>
</g>
<!-- Node7&#45;&gt;Node8 -->
<g id="edge9" class="edge">
<title>Node7&#45;&gt;Node8</title>
<path fill="none" stroke="midnightblue" d="M183.4,-106.34C197.41,-96.52 215.38,-83.91 227.16,-75.65"/>
<polygon fill="midnightblue" stroke="midnightblue" points="181.05,-103.72 174.87,-112.32 185.07,-109.45 181.05,-103.72"/>
</g>
</g>
</svg>
