<?xml version="1.0" encoding="UTF-8" standalone="no"?>
<!DOCTYPE svg PUBLIC "-//W3C//DTD SVG 1.1//EN"
 "http://www.w3.org/Graphics/SVG/1.1/DTD/svg11.dtd">
<!-- Generated by graphviz version 2.43.0 (0)
 -->
<!-- Title: ThreadPool.h Pages: 1 -->
<svg width="781pt" height="140pt"
 viewBox="0.00 0.00 781.00 140.00" xmlns="http://www.w3.org/2000/svg" xmlns:xlink="http://www.w3.org/1999/xlink">
<g id="graph0" class="graph" transform="scale(1 1) rotate(0) translate(4 136)">
<title>ThreadPool.h</title>
<polygon fill="white" stroke="transparent" points="-4,4 -4,-136 777,-136 777,4 -4,4"/>
<!-- Node1 -->
<g id="node1" class="node">
<title>Node1</title>
<g id="a_node1"><a xlink:title="Definitions of two thread pool classes: basic with a single queue for all threads and more advanced o...">
<polygon fill="#bfbfbf" stroke="black" points="261,-112.5 261,-131.5 335,-131.5 335,-112.5 261,-112.5"/>
<text text-anchor="middle" x="298" y="-119.5" font-family="Helvetica,sans-Serif" font-size="10.00">ThreadPool.h</text>
</a>
</g>
</g>
<!-- Node2 -->
<g id="node2" class="node">
<title>Node2</title>
<g id="a_node2"><a xlink:title=" ">
<polygon fill="white" stroke="#bfbfbf" points="0,-56.5 0,-75.5 46,-75.5 46,-56.5 0,-56.5"/>
<text text-anchor="middle" x="23" y="-63.5" font-family="Helvetica,sans-Serif" font-size="10.00">atomic</text>
</a>
</g>
</g>
<!-- Node1&#45;&gt;Node2 -->
<g id="edge1" class="edge">
<title>Node1&#45;&gt;Node2</title>
<path fill="none" stroke="midnightblue" d="M260.73,-115.18C214.82,-107.78 134.25,-94.01 56.03,-76.07"/>
<polygon fill="midnightblue" stroke="midnightblue" points="56.54,-72.59 46.01,-73.74 54.96,-79.41 56.54,-72.59"/>
</g>
<!-- Node3 -->
<g id="node3" class="node">
<title>Node3</title>
<g id="a_node3"><a xlink:title=" ">
<polygon fill="white" stroke="#bfbfbf" points="64.5,-56.5 64.5,-75.5 107.5,-75.5 107.5,-56.5 64.5,-56.5"/>
<text text-anchor="middle" x="86" y="-63.5" font-family="Helvetica,sans-Serif" font-size="10.00">deque</text>
</a>
</g>
</g>
<!-- Node1&#45;&gt;Node3 -->
<g id="edge2" class="edge">
<title>Node1&#45;&gt;Node3</title>
<path fill="none" stroke="midnightblue" d="M264.41,-112.44C224.11,-102.18 157.07,-85.1 117.65,-75.06"/>
<polygon fill="midnightblue" stroke="midnightblue" points="118.34,-71.63 107.78,-72.55 116.61,-78.41 118.34,-71.63"/>
</g>
<!-- Node4 -->
<g id="node4" class="node">
<title>Node4</title>
<g id="a_node4"><a xlink:title=" ">
<polygon fill="white" stroke="#bfbfbf" points="106.5,-0.5 106.5,-19.5 165.5,-19.5 165.5,-0.5 106.5,-0.5"/>
<text text-anchor="middle" x="136" y="-7.5" font-family="Helvetica,sans-Serif" font-size="10.00">functional</text>
</a>
</g>
</g>
<!-- Node1&#45;&gt;Node4 -->
<g id="edge3" class="edge">
<title>Node1&#45;&gt;Node4</title>
<path fill="none" stroke="midnightblue" d="M262.24,-112.46C238.36,-105.49 207.2,-93.83 184,-76 167.37,-63.22 153.8,-43.2 145.38,-28.75"/>
<polygon fill="midnightblue" stroke="midnightblue" points="148.32,-26.84 140.4,-19.8 142.2,-30.24 148.32,-26.84"/>
</g>
<!-- Node5 -->
<g id="node5" class="node">
<title>Node5</title>
<g id="a_node5"><a xlink:title=" ">
<polygon fill="white" stroke="#bfbfbf" points="183.5,-0.5 183.5,-19.5 224.5,-19.5 224.5,-0.5 183.5,-0.5"/>
<text text-anchor="middle" x="204" y="-7.5" font-family="Helvetica,sans-Serif" font-size="10.00">future</text>
</a>
</g>
</g>
<!-- Node1&#45;&gt;Node5 -->
<g id="edge4" class="edge">
<title>Node1&#45;&gt;Node5</title>
<path fill="none" stroke="midnightblue" d="M260.98,-115.63C237.19,-110.06 208.01,-98.77 193,-76 183.77,-62.01 188.7,-42.75 194.61,-28.83"/>
<polygon fill="midnightblue" stroke="midnightblue" points="197.78,-30.33 198.9,-19.79 191.45,-27.33 197.78,-30.33"/>
</g>
<!-- Node6 -->
<g id="node6" class="node">
<title>Node6</title>
<g id="a_node6"><a xlink:title=" ">
<polygon fill="white" stroke="#bfbfbf" points="243,-0.5 243,-19.5 287,-19.5 287,-0.5 243,-0.5"/>
<text text-anchor="middle" x="265" y="-7.5" font-family="Helvetica,sans-Serif" font-size="10.00">thread</text>
</a>
</g>
</g>
<!-- Node1&#45;&gt;Node6 -->
<g id="edge5" class="edge">
<title>Node1&#45;&gt;Node6</title>
<path fill="none" stroke="midnightblue" d="M305.34,-112.35C315.16,-99.67 330.31,-75.43 321,-56 314.75,-42.95 302.66,-32.49 291.32,-24.95"/>
<polygon fill="midnightblue" stroke="midnightblue" points="292.85,-21.79 282.5,-19.54 289.19,-27.75 292.85,-21.79"/>
</g>
<!-- Node7 -->
<g id="node7" class="node">
<title>Node7</title>
<g id="a_node7"><a xlink:title=" ">
<polygon fill="white" stroke="#bfbfbf" points="711,-56.5 711,-75.5 773,-75.5 773,-56.5 711,-56.5"/>
<text text-anchor="middle" x="742" y="-63.5" font-family="Helvetica,sans-Serif" font-size="10.00">type_traits</text>
</a>
</g>
</g>
<!-- Node1&#45;&gt;Node7 -->
<g id="edge6" class="edge">
<title>Node1&#45;&gt;Node7</title>
<path fill="none" stroke="midnightblue" d="M335.23,-118.24C405,-112.76 560.34,-99.15 700.55,-76.08"/>
<polygon fill="midnightblue" stroke="midnightblue" points="701.33,-79.5 710.62,-74.4 700.18,-72.6 701.33,-79.5"/>
</g>
<!-- Node8 -->
<g id="node8" class="node">
<title>Node8</title>
<g id="a_node8"><a xlink:title=" ">
<polygon fill="white" stroke="#bfbfbf" points="305,-0.5 305,-19.5 349,-19.5 349,-0.5 305,-0.5"/>
<text text-anchor="middle" x="327" y="-7.5" font-family="Helvetica,sans-Serif" font-size="10.00">vector</text>
</a>
</g>
</g>
<!-- Node1&#45;&gt;Node8 -->
<g id="edge7" class="edge">
<title>Node1&#45;&gt;Node8</title>
<path fill="none" stroke="midnightblue" d="M315.5,-112.46C328.79,-104.92 346.08,-92.53 354,-76 361.8,-59.73 351.62,-40.6 341.61,-27.33"/>
<polygon fill="midnightblue" stroke="midnightblue" points="344.28,-25.07 335.24,-19.54 338.86,-29.5 344.28,-25.07"/>
</g>
<!-- Node9 -->
<g id="node9" class="node">
<title>Node9</title>
<g id="a_node9"><a xlink:href="Queue_8h.html" target="_top" xlink:title="Definition and implementation of a thread&#45;safe queue, taken from A. Williams &quot;C++ Concurrency in Acti...">
<polygon fill="white" stroke="black" points="406.5,-56.5 406.5,-75.5 511.5,-75.5 511.5,-56.5 406.5,-56.5"/>
<text text-anchor="middle" x="459" y="-63.5" font-family="Helvetica,sans-Serif" font-size="10.00">LLU/Async/Queue.h</text>
</a>
</g>
</g>
<!-- Node1&#45;&gt;Node9 -->
<g id="edge8" class="edge">
<title>Node1&#45;&gt;Node9</title>
<path fill="none" stroke="midnightblue" d="M323.51,-112.44C350.6,-103.36 393.59,-88.94 423.87,-78.78"/>
<polygon fill="midnightblue" stroke="midnightblue" points="425.24,-82.01 433.61,-75.52 423.01,-75.38 425.24,-82.01"/>
</g>
<!-- Node13 -->
<g id="node13" class="node">
<title>Node13</title>
<g id="a_node13"><a xlink:href="Async_2Utilities_8h.html" target="_top" xlink:title="Set of small utility classes and functions used in the Async part of LLU.">
<polygon fill="white" stroke="black" points="202,-56.5 202,-75.5 312,-75.5 312,-56.5 202,-56.5"/>
<text text-anchor="middle" x="257" y="-63.5" font-family="Helvetica,sans-Serif" font-size="10.00">LLU/Async/Utilities.h</text>
</a>
</g>
</g>
<!-- Node1&#45;&gt;Node13 -->
<g id="edge12" class="edge">
<title>Node1&#45;&gt;Node13</title>
<path fill="none" stroke="midnightblue" d="M291.23,-112.08C285.44,-104.46 276.94,-93.26 269.86,-83.94"/>
<polygon fill="midnightblue" stroke="midnightblue" points="272.48,-81.6 263.64,-75.75 266.9,-85.83 272.48,-81.6"/>
</g>
<!-- Node14 -->
<g id="node14" class="node">
<title>Node14</title>
<g id="a_node14"><a xlink:href="WorkStealingQueue_8h.html" target="_top" xlink:title="Definition and implementation of a thread&#45;safe queue, taken from A. Williams &quot;C++ Concurrency in Acti...">
<polygon fill="white" stroke="black" points="529.5,-56.5 529.5,-75.5 692.5,-75.5 692.5,-56.5 529.5,-56.5"/>
<text text-anchor="middle" x="611" y="-63.5" font-family="Helvetica,sans-Serif" font-size="10.00">LLU/Async/WorkStealingQueue.h</text>
</a>
</g>
</g>
<!-- Node1&#45;&gt;Node14 -->
<g id="edge18" class="edge">
<title>Node1&#45;&gt;Node14</title>
<path fill="none" stroke="midnightblue" d="M335.13,-114.59C388.63,-105.36 487.92,-88.23 551.66,-77.24"/>
<polygon fill="midnightblue" stroke="midnightblue" points="552.31,-80.68 561.57,-75.53 551.12,-73.78 552.31,-80.68"/>
</g>
<!-- Node10 -->
<g id="node10" class="node">
<title>Node10</title>
<g id="a_node10"><a xlink:title=" ">
<polygon fill="white" stroke="#bfbfbf" points="437.5,-0.5 437.5,-19.5 532.5,-19.5 532.5,-0.5 437.5,-0.5"/>
<text text-anchor="middle" x="485" y="-7.5" font-family="Helvetica,sans-Serif" font-size="10.00">condition_variable</text>
</a>
</g>
</g>
<!-- Node9&#45;&gt;Node10 -->
<g id="edge9" class="edge">
<title>Node9&#45;&gt;Node10</title>
<path fill="none" stroke="midnightblue" d="M463.29,-56.08C466.85,-48.69 472.02,-37.95 476.42,-28.81"/>
<polygon fill="midnightblue" stroke="midnightblue" points="479.6,-30.28 480.79,-19.75 473.29,-27.24 479.6,-30.28"/>
</g>
<!-- Node11 -->
<g id="node11" class="node">
<title>Node11</title>
<g id="a_node11"><a xlink:title=" ">
<polygon fill="white" stroke="#bfbfbf" points="367,-0.5 367,-19.5 419,-19.5 419,-0.5 367,-0.5"/>
<text text-anchor="middle" x="393" y="-7.5" font-family="Helvetica,sans-Serif" font-size="10.00">memory</text>
</a>
</g>
</g>
<!-- Node9&#45;&gt;Node11 -->
<g id="edge10" class="edge">
<title>Node9&#45;&gt;Node11</title>
<path fill="none" stroke="midnightblue" d="M448.4,-56.32C438.54,-48.26 423.65,-36.08 411.78,-26.37"/>
<polygon fill="midnightblue" stroke="midnightblue" points="413.75,-23.46 403.8,-19.83 409.32,-28.88 413.75,-23.46"/>
</g>
<!-- Node12 -->
<g id="node12" class="node">
<title>Node12</title>
<g id="a_node12"><a xlink:title=" ">
<polygon fill="white" stroke="#bfbfbf" points="570,-0.5 570,-19.5 614,-19.5 614,-0.5 570,-0.5"/>
<text text-anchor="middle" x="592" y="-7.5" font-family="Helvetica,sans-Serif" font-size="10.00">mutex</text>
</a>
</g>
</g>
<!-- Node9&#45;&gt;Node12 -->
<g id="edge11" class="edge">
<title>Node9&#45;&gt;Node12</title>
<path fill="none" stroke="midnightblue" d="M480.07,-56.44C502.06,-47.52 536.73,-33.44 561.66,-23.32"/>
<polygon fill="midnightblue" stroke="midnightblue" points="563.08,-26.52 571.02,-19.52 560.44,-20.04 563.08,-26.52"/>
</g>
<!-- Node13&#45;&gt;Node4 -->
<g id="edge13" class="edge">
<title>Node13&#45;&gt;Node4</title>
<path fill="none" stroke="midnightblue" d="M237.83,-56.44C218.09,-47.64 187.11,-33.81 164.51,-23.72"/>
<polygon fill="midnightblue" stroke="midnightblue" points="165.64,-20.4 155.08,-19.52 162.79,-26.79 165.64,-20.4"/>
</g>
<!-- Node13&#45;&gt;Node5 -->
<g id="edge14" class="edge">
<title>Node13&#45;&gt;Node5</title>
<path fill="none" stroke="midnightblue" d="M248.25,-56.08C240.53,-48.22 229.1,-36.57 219.78,-27.08"/>
<polygon fill="midnightblue" stroke="midnightblue" points="222.09,-24.44 212.59,-19.75 217.1,-29.34 222.09,-24.44"/>
</g>
<!-- Node13&#45;&gt;Node6 -->
<g id="edge16" class="edge">
<title>Node13&#45;&gt;Node6</title>
<path fill="none" stroke="midnightblue" d="M258.32,-56.08C259.38,-48.93 260.91,-38.64 262.23,-29.69"/>
<polygon fill="midnightblue" stroke="midnightblue" points="265.7,-30.16 263.7,-19.75 258.78,-29.13 265.7,-30.16"/>
</g>
<!-- Node13&#45;&gt;Node8 -->
<g id="edge17" class="edge">
<title>Node13&#45;&gt;Node8</title>
<path fill="none" stroke="midnightblue" d="M268.25,-56.32C278.8,-48.18 294.8,-35.84 307.44,-26.09"/>
<polygon fill="midnightblue" stroke="midnightblue" points="309.77,-28.71 315.55,-19.83 305.49,-23.17 309.77,-28.71"/>
</g>
<!-- Node13&#45;&gt;Node11 -->
<g id="edge15" class="edge">
<title>Node13&#45;&gt;Node11</title>
<path fill="none" stroke="midnightblue" d="M278.55,-56.44C301.03,-47.52 336.49,-33.44 361.98,-23.32"/>
<polygon fill="midnightblue" stroke="midnightblue" points="363.55,-26.46 371.55,-19.52 360.97,-19.95 363.55,-26.46"/>
</g>
<!-- Node14&#45;&gt;Node12 -->
<g id="edge19" class="edge">
<title>Node14&#45;&gt;Node12</title>
<path fill="none" stroke="midnightblue" d="M607.86,-56.08C605.32,-48.85 601.64,-38.41 598.47,-29.4"/>
<polygon fill="midnightblue" stroke="midnightblue" points="601.7,-28.02 595.08,-19.75 595.1,-30.35 601.7,-28.02"/>
</g>
</g>
</svg>
