<?xml version="1.0" encoding="UTF-8" standalone="no"?>
<!DOCTYPE svg PUBLIC "-//W3C//DTD SVG 1.1//EN"
 "http://www.w3.org/Graphics/SVG/1.1/DTD/svg11.dtd">
<!-- Generated by graphviz version 2.43.0 (0)
 -->
<!-- Title: TypedMArgument.h Pages: 1 -->
<svg width="500pt" height="420pt"
 viewBox="0.00 0.00 499.50 420.00" xmlns="http://www.w3.org/2000/svg" xmlns:xlink="http://www.w3.org/1999/xlink">
<g id="graph0" class="graph" transform="scale(1 1) rotate(0) translate(4 416)">
<title>TypedMArgument.h</title>
<polygon fill="white" stroke="transparent" points="-4,4 -4,-416 495.5,-416 495.5,4 -4,4"/>
<!-- Node1 -->
<g id="node1" class="node">
<title>Node1</title>
<g id="a_node1"><a xlink:title=" ">
<polygon fill="#bfbfbf" stroke="black" points="107.5,-392.5 107.5,-411.5 208.5,-411.5 208.5,-392.5 107.5,-392.5"/>
<text text-anchor="middle" x="158" y="-399.5" font-family="Helvetica,sans-Serif" font-size="10.00">TypedMArgument.h</text>
</a>
</g>
</g>
<!-- Node2 -->
<g id="node2" class="node">
<title>Node2</title>
<g id="a_node2"><a xlink:href="DataList_8h.html" target="_top" xlink:title="Definition of templated DataStore wrapper called DataList.">
<polygon fill="white" stroke="black" points="137,-112.5 137,-131.5 199,-131.5 199,-112.5 137,-112.5"/>
<text text-anchor="middle" x="168" y="-119.5" font-family="Helvetica,sans-Serif" font-size="10.00">DataList.h</text>
</a>
</g>
</g>
<!-- Node1&#45;&gt;Node2 -->
<g id="edge1" class="edge">
<title>Node1&#45;&gt;Node2</title>
<path fill="none" stroke="midnightblue" d="M110.92,-389.67C64.35,-375.32 0,-345.61 0,-291 0,-291 0,-291 0,-233 0,-168.33 88.21,-139.62 136.79,-128.72"/>
<polygon fill="midnightblue" stroke="midnightblue" points="109.98,-393.04 120.56,-392.5 111.95,-386.32 109.98,-393.04"/>
</g>
<!-- Node8 -->
<g id="node8" class="node">
<title>Node8</title>
<g id="a_node8"><a xlink:href="Generic_2DataStore_8hpp.html" target="_top" xlink:title="Definition and implementation of generic DataStore wrapper.">
<polygon fill="white" stroke="black" points="164,-280.5 164,-299.5 244,-299.5 244,-280.5 164,-280.5"/>
<text text-anchor="middle" x="204" y="-287.5" font-family="Helvetica,sans-Serif" font-size="10.00">DataStore.hpp</text>
</a>
</g>
</g>
<!-- Node1&#45;&gt;Node8 -->
<g id="edge8" class="edge">
<title>Node1&#45;&gt;Node8</title>
<path fill="none" stroke="midnightblue" d="M162.06,-382.52C165.29,-369.27 170.37,-351.15 177,-336 182.84,-322.64 191.93,-308.41 197.92,-299.6"/>
<polygon fill="midnightblue" stroke="midnightblue" points="158.63,-381.81 159.79,-392.34 165.45,-383.39 158.63,-381.81"/>
</g>
<!-- Node9 -->
<g id="node9" class="node">
<title>Node9</title>
<g id="a_node9"><a xlink:href="DataNode_8hpp.html" target="_top" xlink:title=" ">
<polygon fill="white" stroke="black" points="294,-224.5 294,-243.5 374,-243.5 374,-224.5 294,-224.5"/>
<text text-anchor="middle" x="334" y="-231.5" font-family="Helvetica,sans-Serif" font-size="10.00">DataNode.hpp</text>
</a>
</g>
</g>
<!-- Node1&#45;&gt;Node9 -->
<g id="edge15" class="edge">
<title>Node1&#45;&gt;Node9</title>
<path fill="none" stroke="midnightblue" d="M211.46,-389.6C233.21,-382.79 257.33,-372.2 275,-356 310.31,-323.62 326.9,-265.51 332.11,-243.64"/>
<polygon fill="midnightblue" stroke="midnightblue" points="210.28,-386.3 201.67,-392.47 212.25,-393.01 210.28,-386.3"/>
</g>
<!-- Node12 -->
<g id="node12" class="node">
<title>Node12</title>
<g id="a_node12"><a xlink:href="TypedMArgument_8cpp.html" target="_top" xlink:title=" ">
<polygon fill="white" stroke="black" points="28,-224.5 28,-243.5 140,-243.5 140,-224.5 28,-224.5"/>
<text text-anchor="middle" x="84" y="-231.5" font-family="Helvetica,sans-Serif" font-size="10.00">TypedMArgument.cpp</text>
</a>
</g>
</g>
<!-- Node1&#45;&gt;Node12 -->
<g id="edge19" class="edge">
<title>Node1&#45;&gt;Node12</title>
<path fill="none" stroke="midnightblue" d="M149.91,-382.86C134.04,-347.25 99.36,-269.45 87.82,-243.57"/>
<polygon fill="midnightblue" stroke="midnightblue" points="146.75,-384.37 154.02,-392.08 153.15,-381.52 146.75,-384.37"/>
</g>
<!-- Node13 -->
<g id="node13" class="node">
<title>Node13</title>
<g id="a_node13"><a xlink:href="Iterators_2DataStore_8hpp.html" target="_top" xlink:title=" ">
<polygon fill="white" stroke="black" points="186,-336.5 186,-355.5 266,-355.5 266,-336.5 186,-336.5"/>
<text text-anchor="middle" x="226" y="-343.5" font-family="Helvetica,sans-Serif" font-size="10.00">DataStore.hpp</text>
</a>
</g>
</g>
<!-- Node1&#45;&gt;Node13 -->
<g id="edge16" class="edge">
<title>Node1&#45;&gt;Node13</title>
<path fill="none" stroke="midnightblue" d="M176.76,-386.1C189,-376.38 204.56,-364.03 214.88,-355.83"/>
<polygon fill="midnightblue" stroke="midnightblue" points="174.58,-383.36 168.93,-392.32 178.93,-388.85 174.58,-383.36"/>
</g>
<!-- Node3 -->
<g id="node3" class="node">
<title>Node3</title>
<g id="a_node3"><a xlink:href="LLU_8h.html" target="_top" xlink:title="Header file which includes all major parts of LLU.">
<polygon fill="white" stroke="black" points="104.5,-0.5 104.5,-19.5 147.5,-19.5 147.5,-0.5 104.5,-0.5"/>
<text text-anchor="middle" x="126" y="-7.5" font-family="Helvetica,sans-Serif" font-size="10.00">LLU.h</text>
</a>
</g>
</g>
<!-- Node2&#45;&gt;Node3 -->
<g id="edge2" class="edge">
<title>Node2&#45;&gt;Node3</title>
<path fill="none" stroke="midnightblue" d="M158,-103.35C153.64,-95.19 148.69,-85.27 145,-76 137.18,-56.33 130.96,-32.19 127.96,-19.59"/>
<polygon fill="midnightblue" stroke="midnightblue" points="155.02,-105.19 162.91,-112.26 161.16,-101.82 155.02,-105.19"/>
</g>
<!-- Node4 -->
<g id="node4" class="node">
<title>Node4</title>
<g id="a_node4"><a xlink:href="MArgumentManager_8h.html" target="_top" xlink:title="Definition of MArgumentManager class.">
<polygon fill="white" stroke="black" points="154,-56.5 154,-75.5 266,-75.5 266,-56.5 154,-56.5"/>
<text text-anchor="middle" x="210" y="-63.5" font-family="Helvetica,sans-Serif" font-size="10.00">MArgumentManager.h</text>
</a>
</g>
</g>
<!-- Node2&#45;&gt;Node4 -->
<g id="edge3" class="edge">
<title>Node2&#45;&gt;Node4</title>
<path fill="none" stroke="midnightblue" d="M181.11,-104.14C188.43,-94.74 197.24,-83.4 203.19,-75.75"/>
<polygon fill="midnightblue" stroke="midnightblue" points="178.31,-102.04 174.94,-112.08 183.84,-106.34 178.31,-102.04"/>
</g>
<!-- Node4&#45;&gt;Node3 -->
<g id="edge4" class="edge">
<title>Node4&#45;&gt;Node3</title>
<path fill="none" stroke="midnightblue" d="M188.07,-50.9C172.66,-41 152.55,-28.07 139.46,-19.65"/>
<polygon fill="midnightblue" stroke="midnightblue" points="186.2,-53.86 196.5,-56.32 189.98,-47.97 186.2,-53.86"/>
</g>
<!-- Node5 -->
<g id="node5" class="node">
<title>Node5</title>
<g id="a_node5"><a xlink:href="LibraryLinkError_8cpp.html" target="_top" xlink:title="Contains definitions of ErrorManager members and implementation of interface function sendRegisteredE...">
<polygon fill="white" stroke="black" points="388.5,-0.5 388.5,-19.5 491.5,-19.5 491.5,-0.5 388.5,-0.5"/>
<text text-anchor="middle" x="440" y="-7.5" font-family="Helvetica,sans-Serif" font-size="10.00">LibraryLinkError.cpp</text>
</a>
</g>
</g>
<!-- Node4&#45;&gt;Node5 -->
<g id="edge5" class="edge">
<title>Node4&#45;&gt;Node5</title>
<path fill="none" stroke="midnightblue" d="M256.2,-54.15C299.66,-43.95 363.84,-28.88 403.73,-19.52"/>
<polygon fill="midnightblue" stroke="midnightblue" points="255.38,-50.75 246.44,-56.44 256.98,-57.57 255.38,-50.75"/>
</g>
<!-- Node6 -->
<g id="node6" class="node">
<title>Node6</title>
<g id="a_node6"><a xlink:href="Logger_8cpp.html" target="_top" xlink:title="Implementation of functions defined in Logger.h.">
<polygon fill="white" stroke="black" points="166,-0.5 166,-19.5 230,-19.5 230,-0.5 166,-0.5"/>
<text text-anchor="middle" x="198" y="-7.5" font-family="Helvetica,sans-Serif" font-size="10.00">Logger.cpp</text>
</a>
</g>
</g>
<!-- Node4&#45;&gt;Node6 -->
<g id="edge6" class="edge">
<title>Node4&#45;&gt;Node6</title>
<path fill="none" stroke="midnightblue" d="M205.8,-46.1C203.81,-37.14 201.52,-26.86 199.94,-19.75"/>
<polygon fill="midnightblue" stroke="midnightblue" points="202.43,-47.08 208.02,-56.08 209.27,-45.56 202.43,-47.08"/>
</g>
<!-- Node7 -->
<g id="node7" class="node">
<title>Node7</title>
<g id="a_node7"><a xlink:href="MArgumentManager_8cpp.html" target="_top" xlink:title="Definitions of non&#45;template member functions and static data members from MArgumentManager class.">
<polygon fill="white" stroke="black" points="248,-0.5 248,-19.5 370,-19.5 370,-0.5 248,-0.5"/>
<text text-anchor="middle" x="309" y="-7.5" font-family="Helvetica,sans-Serif" font-size="10.00">MArgumentManager.cpp</text>
</a>
</g>
</g>
<!-- Node4&#45;&gt;Node7 -->
<g id="edge7" class="edge">
<title>Node4&#45;&gt;Node7</title>
<path fill="none" stroke="midnightblue" d="M234.84,-51.45C253.11,-41.48 277.42,-28.23 293.13,-19.65"/>
<polygon fill="midnightblue" stroke="midnightblue" points="233.01,-48.46 225.91,-56.32 236.36,-54.61 233.01,-48.46"/>
</g>
<!-- Node8&#45;&gt;Node2 -->
<g id="edge9" class="edge">
<title>Node8&#45;&gt;Node2</title>
<path fill="none" stroke="midnightblue" d="M196.12,-270.72C192.9,-262.66 189.37,-252.98 187,-244 176.07,-202.68 170.59,-151.65 168.74,-131.63"/>
<polygon fill="midnightblue" stroke="midnightblue" points="192.99,-272.32 200.06,-280.21 199.46,-269.63 192.99,-272.32"/>
</g>
<!-- Node8&#45;&gt;Node9 -->
<g id="edge10" class="edge">
<title>Node8&#45;&gt;Node9</title>
<path fill="none" stroke="midnightblue" d="M234.09,-276.5C258.46,-266.38 292.14,-252.39 313.5,-243.52"/>
<polygon fill="midnightblue" stroke="midnightblue" points="232.49,-273.38 224.6,-280.44 235.18,-279.84 232.49,-273.38"/>
</g>
<!-- Node11 -->
<g id="node11" class="node">
<title>Node11</title>
<g id="a_node11"><a xlink:href="DataStore_8cpp.html" target="_top" xlink:title=" ">
<polygon fill="white" stroke="black" points="196,-224.5 196,-243.5 276,-243.5 276,-224.5 196,-224.5"/>
<text text-anchor="middle" x="236" y="-231.5" font-family="Helvetica,sans-Serif" font-size="10.00">DataStore.cpp</text>
</a>
</g>
</g>
<!-- Node8&#45;&gt;Node11 -->
<g id="edge13" class="edge">
<title>Node8&#45;&gt;Node11</title>
<path fill="none" stroke="midnightblue" d="M214.5,-271.27C219.97,-262.05 226.42,-251.17 230.81,-243.75"/>
<polygon fill="midnightblue" stroke="midnightblue" points="211.37,-269.7 209.28,-280.08 217.39,-273.26 211.37,-269.7"/>
</g>
<!-- Node8&#45;&gt;Node12 -->
<g id="edge14" class="edge">
<title>Node8&#45;&gt;Node12</title>
<path fill="none" stroke="midnightblue" d="M175.63,-276.23C153.18,-266.13 122.46,-252.31 102.93,-243.52"/>
<polygon fill="midnightblue" stroke="midnightblue" points="174.43,-279.53 184.99,-280.44 177.3,-273.15 174.43,-279.53"/>
</g>
<!-- Node10 -->
<g id="node10" class="node">
<title>Node10</title>
<g id="a_node10"><a xlink:href="DataList_8hpp.html" target="_top" xlink:title="Special iterators for DataLists. Iteration over keys, values, reversed iteration.">
<polygon fill="white" stroke="black" points="298,-168.5 298,-187.5 370,-187.5 370,-168.5 298,-168.5"/>
<text text-anchor="middle" x="334" y="-175.5" font-family="Helvetica,sans-Serif" font-size="10.00">DataList.hpp</text>
</a>
</g>
</g>
<!-- Node9&#45;&gt;Node10 -->
<g id="edge11" class="edge">
<title>Node9&#45;&gt;Node10</title>
<path fill="none" stroke="midnightblue" d="M334,-213.8C334,-204.91 334,-194.78 334,-187.75"/>
<polygon fill="midnightblue" stroke="midnightblue" points="330.5,-214.08 334,-224.08 337.5,-214.08 330.5,-214.08"/>
</g>
<!-- Node10&#45;&gt;Node2 -->
<g id="edge12" class="edge">
<title>Node10&#45;&gt;Node2</title>
<path fill="none" stroke="midnightblue" d="M298.05,-165.3C266.77,-155.13 222.18,-140.62 194.18,-131.52"/>
<polygon fill="midnightblue" stroke="midnightblue" points="297.1,-168.68 307.7,-168.44 299.27,-162.02 297.1,-168.68"/>
</g>
<!-- Node13&#45;&gt;Node8 -->
<g id="edge17" class="edge">
<title>Node13&#45;&gt;Node8</title>
<path fill="none" stroke="midnightblue" d="M218.54,-326.69C214.83,-317.59 210.52,-307.01 207.57,-299.75"/>
<polygon fill="midnightblue" stroke="midnightblue" points="215.35,-328.14 222.37,-336.08 221.84,-325.5 215.35,-328.14"/>
</g>
<!-- Node13&#45;&gt;Node10 -->
<g id="edge18" class="edge">
<title>Node13&#45;&gt;Node10</title>
<path fill="none" stroke="midnightblue" d="M263.45,-332.92C301.32,-318.46 357.77,-290.22 383,-244 394.91,-222.17 367.29,-199.63 348.86,-187.68"/>
<polygon fill="midnightblue" stroke="midnightblue" points="261.96,-329.74 253.77,-336.47 264.37,-336.31 261.96,-329.74"/>
</g>
</g>
</svg>
