<?xml version="1.0" encoding="UTF-8" standalone="no"?>
<!DOCTYPE svg PUBLIC "-//W3C//DTD SVG 1.1//EN"
 "http://www.w3.org/Graphics/SVG/1.1/DTD/svg11.dtd">
<!-- Generated by graphviz version 2.43.0 (0)
 -->
<!-- Title: UtilityTypeTraits.hpp Pages: 1 -->
<svg width="912pt" height="196pt"
 viewBox="0.00 0.00 912.00 196.00" xmlns="http://www.w3.org/2000/svg" xmlns:xlink="http://www.w3.org/1999/xlink">
<g id="graph0" class="graph" transform="scale(1 1) rotate(0) translate(4 192)">
<title>UtilityTypeTraits.hpp</title>
<polygon fill="white" stroke="transparent" points="-4,4 -4,-192 908,-192 908,4 -4,4"/>
<!-- Node1 -->
<g id="node1" class="node">
<title>Node1</title>
<g id="a_node1"><a xlink:title="Type traits used by WSStream to identify types supported by WSTP.">
<polygon fill="#bfbfbf" stroke="black" points="50.5,-168.5 50.5,-187.5 157.5,-187.5 157.5,-168.5 50.5,-168.5"/>
<text text-anchor="middle" x="104" y="-175.5" font-family="Helvetica,sans-Serif" font-size="10.00">UtilityTypeTraits.hpp</text>
</a>
</g>
</g>
<!-- Node2 -->
<g id="node2" class="node">
<title>Node2</title>
<g id="a_node2"><a xlink:title=" ">
<polygon fill="white" stroke="#bfbfbf" points="73,-56.5 73,-75.5 135,-75.5 135,-56.5 73,-56.5"/>
<text text-anchor="middle" x="104" y="-63.5" font-family="Helvetica,sans-Serif" font-size="10.00">type_traits</text>
</a>
</g>
</g>
<!-- Node1&#45;&gt;Node2 -->
<g id="edge1" class="edge">
<title>Node1&#45;&gt;Node2</title>
<path fill="none" stroke="midnightblue" d="M104,-168.37C104,-150.62 104,-109.67 104,-85.6"/>
<polygon fill="midnightblue" stroke="midnightblue" points="107.5,-85.59 104,-75.59 100.5,-85.59 107.5,-85.59"/>
</g>
<!-- Node3 -->
<g id="node3" class="node">
<title>Node3</title>
<g id="a_node3"><a xlink:title=" ">
<polygon fill="white" stroke="#bfbfbf" points="0,-0.5 0,-19.5 46,-19.5 46,-0.5 0,-0.5"/>
<text text-anchor="middle" x="23" y="-7.5" font-family="Helvetica,sans-Serif" font-size="10.00">wstp.h</text>
</a>
</g>
</g>
<!-- Node1&#45;&gt;Node3 -->
<g id="edge2" class="edge">
<title>Node1&#45;&gt;Node3</title>
<path fill="none" stroke="midnightblue" d="M99.65,-168.08C86.78,-141.72 48.8,-63.88 31.62,-28.66"/>
<polygon fill="midnightblue" stroke="midnightblue" points="34.71,-27.02 27.18,-19.57 28.42,-30.09 34.71,-27.02"/>
</g>
<!-- Node4 -->
<g id="node4" class="node">
<title>Node4</title>
<g id="a_node4"><a xlink:href="Utilities_8hpp.html" target="_top" xlink:title="Short but generally useful functions.">
<polygon fill="white" stroke="black" points="189.5,-112.5 189.5,-131.5 278.5,-131.5 278.5,-112.5 189.5,-112.5"/>
<text text-anchor="middle" x="234" y="-119.5" font-family="Helvetica,sans-Serif" font-size="10.00">LLU/Utilities.hpp</text>
</a>
</g>
</g>
<!-- Node1&#45;&gt;Node4 -->
<g id="edge3" class="edge">
<title>Node1&#45;&gt;Node4</title>
<path fill="none" stroke="midnightblue" d="M124.6,-168.44C145.99,-159.56 179.68,-145.56 204.02,-135.45"/>
<polygon fill="midnightblue" stroke="midnightblue" points="205.61,-138.58 213.5,-131.52 202.92,-132.12 205.61,-138.58"/>
</g>
<!-- Node4&#45;&gt;Node2 -->
<g id="edge6" class="edge">
<title>Node4&#45;&gt;Node2</title>
<path fill="none" stroke="midnightblue" d="M213.4,-112.44C192.01,-103.56 158.32,-89.56 133.98,-79.45"/>
<polygon fill="midnightblue" stroke="midnightblue" points="135.08,-76.12 124.5,-75.52 132.39,-82.58 135.08,-76.12"/>
</g>
<!-- Node5 -->
<g id="node5" class="node">
<title>Node5</title>
<g id="a_node5"><a xlink:title=" ">
<polygon fill="white" stroke="#bfbfbf" points="389.5,-56.5 389.5,-75.5 442.5,-75.5 442.5,-56.5 389.5,-56.5"/>
<text text-anchor="middle" x="416" y="-63.5" font-family="Helvetica,sans-Serif" font-size="10.00">complex</text>
</a>
</g>
</g>
<!-- Node4&#45;&gt;Node5 -->
<g id="edge4" class="edge">
<title>Node4&#45;&gt;Node5</title>
<path fill="none" stroke="midnightblue" d="M262.84,-112.44C294.49,-103.05 345.37,-87.95 379.72,-77.77"/>
<polygon fill="midnightblue" stroke="midnightblue" points="380.78,-81.1 389.37,-74.9 378.79,-74.39 380.78,-81.1"/>
</g>
<!-- Node6 -->
<g id="node6" class="node">
<title>Node6</title>
<g id="a_node6"><a xlink:title=" ">
<polygon fill="white" stroke="#bfbfbf" points="461,-56.5 461,-75.5 507,-75.5 507,-56.5 461,-56.5"/>
<text text-anchor="middle" x="484" y="-63.5" font-family="Helvetica,sans-Serif" font-size="10.00">cstdint</text>
</a>
</g>
</g>
<!-- Node4&#45;&gt;Node6 -->
<g id="edge5" class="edge">
<title>Node4&#45;&gt;Node6</title>
<path fill="none" stroke="midnightblue" d="M278.88,-112.7C320.94,-104.7 385.77,-91.83 450.94,-76.12"/>
<polygon fill="midnightblue" stroke="midnightblue" points="452.09,-79.45 460.98,-73.68 450.44,-72.65 452.09,-79.45"/>
</g>
<!-- Node7 -->
<g id="node7" class="node">
<title>Node7</title>
<g id="a_node7"><a xlink:title=" ">
<polygon fill="white" stroke="#bfbfbf" points="153,-56.5 153,-75.5 193,-75.5 193,-56.5 153,-56.5"/>
<text text-anchor="middle" x="173" y="-63.5" font-family="Helvetica,sans-Serif" font-size="10.00">utility</text>
</a>
</g>
</g>
<!-- Node4&#45;&gt;Node7 -->
<g id="edge7" class="edge">
<title>Node4&#45;&gt;Node7</title>
<path fill="none" stroke="midnightblue" d="M224.2,-112.32C215.18,-104.34 201.59,-92.31 190.68,-82.65"/>
<polygon fill="midnightblue" stroke="midnightblue" points="192.79,-79.84 182.98,-75.83 188.15,-85.08 192.79,-79.84"/>
</g>
<!-- Node8 -->
<g id="node8" class="node">
<title>Node8</title>
<g id="a_node8"><a xlink:title=" ">
<polygon fill="white" stroke="#bfbfbf" points="211,-56.5 211,-75.5 257,-75.5 257,-56.5 211,-56.5"/>
<text text-anchor="middle" x="234" y="-63.5" font-family="Helvetica,sans-Serif" font-size="10.00">variant</text>
</a>
</g>
</g>
<!-- Node4&#45;&gt;Node8 -->
<g id="edge8" class="edge">
<title>Node4&#45;&gt;Node8</title>
<path fill="none" stroke="midnightblue" d="M234,-112.08C234,-105.01 234,-94.86 234,-85.99"/>
<polygon fill="midnightblue" stroke="midnightblue" points="237.5,-85.75 234,-75.75 230.5,-85.75 237.5,-85.75"/>
</g>
<!-- Node9 -->
<g id="node9" class="node">
<title>Node9</title>
<g id="a_node9"><a xlink:href="LibraryData_8h.html" target="_top" xlink:title=" ">
<polygon fill="white" stroke="black" points="275,-56.5 275,-75.5 371,-75.5 371,-56.5 275,-56.5"/>
<text text-anchor="middle" x="323" y="-63.5" font-family="Helvetica,sans-Serif" font-size="10.00">LLU/LibraryData.h</text>
</a>
</g>
</g>
<!-- Node4&#45;&gt;Node9 -->
<g id="edge9" class="edge">
<title>Node4&#45;&gt;Node9</title>
<path fill="none" stroke="midnightblue" d="M248.3,-112.32C262.18,-103.9 283.49,-90.97 299.8,-81.07"/>
<polygon fill="midnightblue" stroke="midnightblue" points="302,-83.83 308.74,-75.65 298.37,-77.85 302,-83.83"/>
</g>
<!-- Node9&#45;&gt;Node3 -->
<g id="edge12" class="edge">
<title>Node9&#45;&gt;Node3</title>
<path fill="none" stroke="midnightblue" d="M274.9,-57.21C209.88,-46.65 98.03,-28.31 56.34,-19.99"/>
<polygon fill="midnightblue" stroke="midnightblue" points="56.85,-16.52 46.34,-17.88 55.41,-23.37 56.85,-16.52"/>
</g>
<!-- Node10 -->
<g id="node10" class="node">
<title>Node10</title>
<g id="a_node10"><a xlink:title=" ">
<polygon fill="white" stroke="#bfbfbf" points="852,-0.5 852,-19.5 904,-19.5 904,-0.5 852,-0.5"/>
<text text-anchor="middle" x="878" y="-7.5" font-family="Helvetica,sans-Serif" font-size="10.00">memory</text>
</a>
</g>
</g>
<!-- Node9&#45;&gt;Node10 -->
<g id="edge10" class="edge">
<title>Node9&#45;&gt;Node10</title>
<path fill="none" stroke="midnightblue" d="M371.07,-57.25C374.43,-56.8 377.76,-56.38 381,-56 582.28,-32.58 638.04,-53.09 841.61,-19.95"/>
<polygon fill="midnightblue" stroke="midnightblue" points="842.44,-23.36 851.73,-18.28 841.29,-16.45 842.44,-23.36"/>
</g>
<!-- Node11 -->
<g id="node11" class="node">
<title>Node11</title>
<g id="a_node11"><a xlink:title=" ">
<polygon fill="white" stroke="#bfbfbf" points="64,-0.5 64,-19.5 126,-19.5 126,-0.5 64,-0.5"/>
<text text-anchor="middle" x="95" y="-7.5" font-family="Helvetica,sans-Serif" font-size="10.00">dllexport.h</text>
</a>
</g>
</g>
<!-- Node9&#45;&gt;Node11 -->
<g id="edge11" class="edge">
<title>Node9&#45;&gt;Node11</title>
<path fill="none" stroke="midnightblue" d="M286.87,-56.44C245.84,-46.72 179.02,-30.9 136.05,-20.72"/>
<polygon fill="midnightblue" stroke="midnightblue" points="136.73,-17.29 126.2,-18.39 135.12,-24.1 136.73,-17.29"/>
</g>
<!-- Node12 -->
<g id="node12" class="node">
<title>Node12</title>
<g id="a_node12"><a xlink:title=" ">
<polygon fill="white" stroke="#bfbfbf" points="144.5,-0.5 144.5,-19.5 233.5,-19.5 233.5,-0.5 144.5,-0.5"/>
<text text-anchor="middle" x="189" y="-7.5" font-family="Helvetica,sans-Serif" font-size="10.00">WolframLibrary.h</text>
</a>
</g>
</g>
<!-- Node9&#45;&gt;Node12 -->
<g id="edge13" class="edge">
<title>Node9&#45;&gt;Node12</title>
<path fill="none" stroke="midnightblue" d="M301.77,-56.44C279.62,-47.52 244.68,-33.44 219.56,-23.32"/>
<polygon fill="midnightblue" stroke="midnightblue" points="220.72,-20.01 210.13,-19.52 218.1,-26.5 220.72,-20.01"/>
</g>
<!-- Node13 -->
<g id="node13" class="node">
<title>Node13</title>
<g id="a_node13"><a xlink:title=" ">
<polygon fill="white" stroke="#bfbfbf" points="251.5,-0.5 251.5,-19.5 394.5,-19.5 394.5,-0.5 251.5,-0.5"/>
<text text-anchor="middle" x="323" y="-7.5" font-family="Helvetica,sans-Serif" font-size="10.00">WolframIOLibraryFunctions.h</text>
</a>
</g>
</g>
<!-- Node9&#45;&gt;Node13 -->
<g id="edge14" class="edge">
<title>Node9&#45;&gt;Node13</title>
<path fill="none" stroke="midnightblue" d="M323,-56.08C323,-49.01 323,-38.86 323,-29.99"/>
<polygon fill="midnightblue" stroke="midnightblue" points="326.5,-29.75 323,-19.75 319.5,-29.75 326.5,-29.75"/>
</g>
<!-- Node14 -->
<g id="node14" class="node">
<title>Node14</title>
<g id="a_node14"><a xlink:title=" ">
<polygon fill="white" stroke="#bfbfbf" points="413,-0.5 413,-19.5 529,-19.5 529,-0.5 413,-0.5"/>
<text text-anchor="middle" x="471" y="-7.5" font-family="Helvetica,sans-Serif" font-size="10.00">WolframImageLibrary.h</text>
</a>
</g>
</g>
<!-- Node9&#45;&gt;Node14 -->
<g id="edge15" class="edge">
<title>Node9&#45;&gt;Node14</title>
<path fill="none" stroke="midnightblue" d="M346.45,-56.44C371.13,-47.44 410.19,-33.19 437.98,-23.05"/>
<polygon fill="midnightblue" stroke="midnightblue" points="439.46,-26.23 447.66,-19.52 437.06,-19.66 439.46,-26.23"/>
</g>
<!-- Node15 -->
<g id="node15" class="node">
<title>Node15</title>
<g id="a_node15"><a xlink:title=" ">
<polygon fill="white" stroke="#bfbfbf" points="547.5,-0.5 547.5,-19.5 696.5,-19.5 696.5,-0.5 547.5,-0.5"/>
<text text-anchor="middle" x="622" y="-7.5" font-family="Helvetica,sans-Serif" font-size="10.00">WolframNumericArrayLibrary.h</text>
</a>
</g>
</g>
<!-- Node9&#45;&gt;Node15 -->
<g id="edge16" class="edge">
<title>Node9&#45;&gt;Node15</title>
<path fill="none" stroke="midnightblue" d="M370.38,-56.44C423.08,-46.92 508.23,-31.55 564.66,-21.36"/>
<polygon fill="midnightblue" stroke="midnightblue" points="565.63,-24.74 574.84,-19.52 564.38,-17.85 565.63,-24.74"/>
</g>
<!-- Node16 -->
<g id="node16" class="node">
<title>Node16</title>
<g id="a_node16"><a xlink:title=" ">
<polygon fill="white" stroke="#bfbfbf" points="714.5,-0.5 714.5,-19.5 833.5,-19.5 833.5,-0.5 714.5,-0.5"/>
<text text-anchor="middle" x="774" y="-7.5" font-family="Helvetica,sans-Serif" font-size="10.00">WolframSparseLibrary.h</text>
</a>
</g>
</g>
<!-- Node9&#45;&gt;Node16 -->
<g id="edge17" class="edge">
<title>Node9&#45;&gt;Node16</title>
<path fill="none" stroke="midnightblue" d="M371.08,-57.37C374.44,-56.89 377.77,-56.43 381,-56 521.83,-37.28 560.03,-37.51 704.2,-20.2"/>
<polygon fill="midnightblue" stroke="midnightblue" points="704.8,-23.65 714.31,-18.97 703.96,-16.7 704.8,-23.65"/>
</g>
</g>
</svg>
