<?xml version="1.0" encoding="UTF-8" standalone="no"?>
<!DOCTYPE svg PUBLIC "-//W3C//DTD SVG 1.1//EN"
 "http://www.w3.org/Graphics/SVG/1.1/DTD/svg11.dtd">
<!-- Generated by graphviz version 2.43.0 (0)
 -->
<!-- Title: Utilities.cpp Pages: 1 -->
<svg width="1722pt" height="487pt"
 viewBox="0.00 0.00 1722.00 487.00" xmlns="http://www.w3.org/2000/svg" xmlns:xlink="http://www.w3.org/1999/xlink">
<g id="graph0" class="graph" transform="scale(1 1) rotate(0) translate(4 483)">
<title>Utilities.cpp</title>
<polygon fill="white" stroke="transparent" points="-4,4 -4,-483 1718,-483 1718,4 -4,4"/>
<!-- Node1 -->
<g id="node1" class="node">
<title>Node1</title>
<g id="a_node1"><a xlink:title="Implementation file with miscellaneous definitions used throughout the WSTP&#45;related part of LibraryLi...">
<polygon fill="#bfbfbf" stroke="black" points="711,-459.5 711,-478.5 779,-478.5 779,-459.5 711,-459.5"/>
<text text-anchor="middle" x="745" y="-466.5" font-family="Helvetica,sans-Serif" font-size="10.00">Utilities.cpp</text>
</a>
</g>
</g>
<!-- Node2 -->
<g id="node2" class="node">
<title>Node2</title>
<g id="a_node2"><a xlink:href="WSTP_2Utilities_8h.html" target="_top" xlink:title="Header file with miscellaneous utilities used throughout the WSTP&#45;related part of LibraryLinkUtilitie...">
<polygon fill="white" stroke="black" points="1024.5,-168.5 1024.5,-187.5 1135.5,-187.5 1135.5,-168.5 1024.5,-168.5"/>
<text text-anchor="middle" x="1080" y="-175.5" font-family="Helvetica,sans-Serif" font-size="10.00">LLU/WSTP/Utilities.h</text>
</a>
</g>
</g>
<!-- Node1&#45;&gt;Node2 -->
<g id="edge1" class="edge">
<title>Node1&#45;&gt;Node2</title>
<path fill="none" stroke="midnightblue" d="M779.01,-465.97C879,-459.08 1165,-432.38 1165,-352.5 1165,-352.5 1165,-352.5 1165,-289 1165,-247.76 1127.14,-212.57 1101.95,-193.73"/>
<polygon fill="midnightblue" stroke="midnightblue" points="1103.82,-190.76 1093.66,-187.76 1099.73,-196.44 1103.82,-190.76"/>
</g>
<!-- Node11 -->
<g id="node11" class="node">
<title>Node11</title>
<g id="a_node11"><a xlink:href="ErrorManager_8h.html" target="_top" xlink:title="Definition of the ErrorManager class responsible for error registration and throwing.">
<polygon fill="white" stroke="black" points="254.5,-403.5 254.5,-422.5 397.5,-422.5 397.5,-403.5 254.5,-403.5"/>
<text text-anchor="middle" x="326" y="-410.5" font-family="Helvetica,sans-Serif" font-size="10.00">LLU/ErrorLog/ErrorManager.h</text>
</a>
</g>
</g>
<!-- Node1&#45;&gt;Node11 -->
<g id="edge12" class="edge">
<title>Node1&#45;&gt;Node11</title>
<path fill="none" stroke="midnightblue" d="M710.71,-463.58C643.65,-454.94 493.68,-435.61 402.05,-423.8"/>
<polygon fill="midnightblue" stroke="midnightblue" points="402.37,-420.31 392,-422.51 401.47,-427.26 402.37,-420.31"/>
</g>
<!-- Node3 -->
<g id="node3" class="node">
<title>Node3</title>
<g id="a_node3"><a xlink:title=" ">
<polygon fill="white" stroke="#bfbfbf" points="1095,-112.5 1095,-131.5 1141,-131.5 1141,-112.5 1095,-112.5"/>
<text text-anchor="middle" x="1118" y="-119.5" font-family="Helvetica,sans-Serif" font-size="10.00">cstring</text>
</a>
</g>
</g>
<!-- Node2&#45;&gt;Node3 -->
<g id="edge2" class="edge">
<title>Node2&#45;&gt;Node3</title>
<path fill="none" stroke="midnightblue" d="M1086.27,-168.08C1091.64,-160.46 1099.52,-149.26 1106.08,-139.94"/>
<polygon fill="midnightblue" stroke="midnightblue" points="1108.95,-141.94 1111.84,-131.75 1103.22,-137.91 1108.95,-141.94"/>
</g>
<!-- Node4 -->
<g id="node4" class="node">
<title>Node4</title>
<g id="a_node4"><a xlink:title=" ">
<polygon fill="white" stroke="#bfbfbf" points="1230.5,-56.5 1230.5,-75.5 1271.5,-75.5 1271.5,-56.5 1230.5,-56.5"/>
<text text-anchor="middle" x="1251" y="-63.5" font-family="Helvetica,sans-Serif" font-size="10.00">string</text>
</a>
</g>
</g>
<!-- Node2&#45;&gt;Node4 -->
<g id="edge3" class="edge">
<title>Node2&#45;&gt;Node4</title>
<path fill="none" stroke="midnightblue" d="M1077.98,-168.26C1075.36,-154.56 1072.59,-127.97 1086,-112 1103.15,-91.57 1177.51,-77.65 1220.33,-71.17"/>
<polygon fill="midnightblue" stroke="midnightblue" points="1220.84,-74.63 1230.22,-69.71 1219.82,-67.7 1220.84,-74.63"/>
</g>
<!-- Node5 -->
<g id="node5" class="node">
<title>Node5</title>
<g id="a_node5"><a xlink:title=" ">
<polygon fill="white" stroke="#bfbfbf" points="987,-0.5 987,-19.5 1033,-19.5 1033,-0.5 987,-0.5"/>
<text text-anchor="middle" x="1010" y="-7.5" font-family="Helvetica,sans-Serif" font-size="10.00">wstp.h</text>
</a>
</g>
</g>
<!-- Node2&#45;&gt;Node5 -->
<g id="edge4" class="edge">
<title>Node2&#45;&gt;Node5</title>
<path fill="none" stroke="midnightblue" d="M1076.24,-168.08C1065.17,-141.83 1032.58,-64.55 1017.64,-29.12"/>
<polygon fill="midnightblue" stroke="midnightblue" points="1020.72,-27.42 1013.61,-19.57 1014.27,-30.14 1020.72,-27.42"/>
</g>
<!-- Node6 -->
<g id="node6" class="node">
<title>Node6</title>
<g id="a_node6"><a xlink:href="Errors_8h.html" target="_top" xlink:title="Definitions of error names and error codes used across LLU.">
<polygon fill="white" stroke="black" points="1159,-112.5 1159,-131.5 1271,-131.5 1271,-112.5 1159,-112.5"/>
<text text-anchor="middle" x="1215" y="-119.5" font-family="Helvetica,sans-Serif" font-size="10.00">LLU/ErrorLog/Errors.h</text>
</a>
</g>
</g>
<!-- Node2&#45;&gt;Node6 -->
<g id="edge5" class="edge">
<title>Node2&#45;&gt;Node6</title>
<path fill="none" stroke="midnightblue" d="M1101.39,-168.44C1123.71,-159.52 1158.9,-145.44 1184.21,-135.32"/>
<polygon fill="midnightblue" stroke="midnightblue" points="1185.72,-138.48 1193.71,-131.52 1183.12,-131.98 1185.72,-138.48"/>
</g>
<!-- Node7 -->
<g id="node7" class="node">
<title>Node7</title>
<g id="a_node7"><a xlink:href="EncodingTraits_8hpp.html" target="_top" xlink:title="Defines possible encodings together with their properties and related types.">
<polygon fill="white" stroke="black" points="809,-112.5 809,-131.5 963,-131.5 963,-112.5 809,-112.5"/>
<text text-anchor="middle" x="886" y="-119.5" font-family="Helvetica,sans-Serif" font-size="10.00">LLU/WSTP/EncodingTraits.hpp</text>
</a>
</g>
</g>
<!-- Node2&#45;&gt;Node7 -->
<g id="edge7" class="edge">
<title>Node2&#45;&gt;Node7</title>
<path fill="none" stroke="midnightblue" d="M1049.26,-168.44C1016.06,-159.2 963.01,-144.44 926.44,-134.26"/>
<polygon fill="midnightblue" stroke="midnightblue" points="927.17,-130.83 916.6,-131.52 925.29,-137.57 927.17,-130.83"/>
</g>
<!-- Node6&#45;&gt;Node4 -->
<g id="edge6" class="edge">
<title>Node6&#45;&gt;Node4</title>
<path fill="none" stroke="midnightblue" d="M1220.94,-112.08C1225.98,-104.53 1233.34,-93.49 1239.51,-84.23"/>
<polygon fill="midnightblue" stroke="midnightblue" points="1242.53,-86.01 1245.17,-75.75 1236.71,-82.13 1242.53,-86.01"/>
</g>
<!-- Node7&#45;&gt;Node4 -->
<g id="edge9" class="edge">
<title>Node7&#45;&gt;Node4</title>
<path fill="none" stroke="midnightblue" d="M943.84,-112.44C1022.15,-100.86 1159.14,-80.59 1220.16,-71.56"/>
<polygon fill="midnightblue" stroke="midnightblue" points="1220.92,-74.99 1230.3,-70.06 1219.9,-68.06 1220.92,-74.99"/>
</g>
<!-- Node8 -->
<g id="node8" class="node">
<title>Node8</title>
<g id="a_node8"><a xlink:title=" ">
<polygon fill="white" stroke="#bfbfbf" points="862,-56.5 862,-75.5 908,-75.5 908,-56.5 862,-56.5"/>
<text text-anchor="middle" x="885" y="-63.5" font-family="Helvetica,sans-Serif" font-size="10.00">cstdint</text>
</a>
</g>
</g>
<!-- Node7&#45;&gt;Node8 -->
<g id="edge8" class="edge">
<title>Node7&#45;&gt;Node8</title>
<path fill="none" stroke="midnightblue" d="M885.83,-112.08C885.7,-105.01 885.52,-94.86 885.35,-85.99"/>
<polygon fill="midnightblue" stroke="midnightblue" points="888.85,-85.68 885.16,-75.75 881.85,-85.81 888.85,-85.68"/>
</g>
<!-- Node9 -->
<g id="node9" class="node">
<title>Node9</title>
<g id="a_node9"><a xlink:title=" ">
<polygon fill="white" stroke="#bfbfbf" points="587,-56.5 587,-75.5 649,-75.5 649,-56.5 587,-56.5"/>
<text text-anchor="middle" x="618" y="-63.5" font-family="Helvetica,sans-Serif" font-size="10.00">type_traits</text>
</a>
</g>
</g>
<!-- Node7&#45;&gt;Node9 -->
<g id="edge10" class="edge">
<title>Node7&#45;&gt;Node9</title>
<path fill="none" stroke="midnightblue" d="M840.94,-112.47C797.05,-104.08 728.19,-90.71 659.55,-76.29"/>
<polygon fill="midnightblue" stroke="midnightblue" points="659.93,-72.79 649.43,-74.15 658.49,-79.64 659.93,-72.79"/>
</g>
<!-- Node10 -->
<g id="node10" class="node">
<title>Node10</title>
<g id="a_node10"><a xlink:title=" ">
<polygon fill="white" stroke="#bfbfbf" points="667,-56.5 667,-75.5 707,-75.5 707,-56.5 667,-56.5"/>
<text text-anchor="middle" x="687" y="-63.5" font-family="Helvetica,sans-Serif" font-size="10.00">utility</text>
</a>
</g>
</g>
<!-- Node7&#45;&gt;Node10 -->
<g id="edge11" class="edge">
<title>Node7&#45;&gt;Node10</title>
<path fill="none" stroke="midnightblue" d="M852.02,-112.45C819.63,-104.21 769.29,-91.14 717.03,-76.21"/>
<polygon fill="midnightblue" stroke="midnightblue" points="717.83,-72.8 707.25,-73.4 715.89,-79.53 717.83,-72.8"/>
</g>
<!-- Node11&#45;&gt;Node4 -->
<g id="edge15" class="edge">
<title>Node11&#45;&gt;Node4</title>
<path fill="none" stroke="midnightblue" d="M397.7,-409.55C681.93,-399.35 1714,-357.75 1714,-291 1714,-291 1714,-291 1714,-233 1714,-154.72 1656.65,-145.73 1586,-112 1532.48,-86.45 1354.64,-73.19 1282.16,-68.75"/>
<polygon fill="midnightblue" stroke="midnightblue" points="1282.05,-65.23 1271.86,-68.13 1281.63,-72.22 1282.05,-65.23"/>
</g>
<!-- Node11&#45;&gt;Node10 -->
<g id="edge17" class="edge">
<title>Node11&#45;&gt;Node10</title>
<path fill="none" stroke="midnightblue" d="M326,-403.49C326,-383.74 326,-333.22 326,-291 326,-291 326,-291 326,-233 326,-181.84 375.66,-191.69 421,-168 463.94,-145.57 597.24,-98.21 657.22,-77.3"/>
<polygon fill="midnightblue" stroke="midnightblue" points="658.57,-80.54 666.87,-73.95 656.27,-73.93 658.57,-80.54"/>
</g>
<!-- Node12 -->
<g id="node12" class="node">
<title>Node12</title>
<g id="a_node12"><a xlink:title=" ">
<polygon fill="white" stroke="#bfbfbf" points="646,-168.5 646,-187.5 702,-187.5 702,-168.5 646,-168.5"/>
<text text-anchor="middle" x="674" y="-175.5" font-family="Helvetica,sans-Serif" font-size="10.00">algorithm</text>
</a>
</g>
</g>
<!-- Node11&#45;&gt;Node12 -->
<g id="edge13" class="edge">
<title>Node11&#45;&gt;Node12</title>
<path fill="none" stroke="midnightblue" d="M338.8,-403.43C390.91,-368.54 587.48,-236.93 652.77,-193.21"/>
<polygon fill="midnightblue" stroke="midnightblue" points="654.72,-196.12 661.09,-187.65 650.83,-190.3 654.72,-196.12"/>
</g>
<!-- Node13 -->
<g id="node13" class="node">
<title>Node13</title>
<g id="a_node13"><a xlink:title=" ">
<polygon fill="white" stroke="#bfbfbf" points="123.5,-342 123.5,-361 196.5,-361 196.5,-342 123.5,-342"/>
<text text-anchor="middle" x="160" y="-349" font-family="Helvetica,sans-Serif" font-size="10.00">initializer_list</text>
</a>
</g>
</g>
<!-- Node11&#45;&gt;Node13 -->
<g id="edge14" class="edge">
<title>Node11&#45;&gt;Node13</title>
<path fill="none" stroke="midnightblue" d="M302.22,-403.48C273.62,-393.22 225.45,-375.96 193.2,-364.4"/>
<polygon fill="midnightblue" stroke="midnightblue" points="194.33,-361.09 183.74,-361.01 191.97,-367.68 194.33,-361.09"/>
</g>
<!-- Node14 -->
<g id="node14" class="node">
<title>Node14</title>
<g id="a_node14"><a xlink:title=" ">
<polygon fill="white" stroke="#bfbfbf" points="214.5,-342 214.5,-361 297.5,-361 297.5,-342 214.5,-342"/>
<text text-anchor="middle" x="256" y="-349" font-family="Helvetica,sans-Serif" font-size="10.00">unordered_map</text>
</a>
</g>
</g>
<!-- Node11&#45;&gt;Node14 -->
<g id="edge16" class="edge">
<title>Node11&#45;&gt;Node14</title>
<path fill="none" stroke="midnightblue" d="M315.97,-403.48C304.95,-394.11 287.04,-378.88 273.66,-367.51"/>
<polygon fill="midnightblue" stroke="midnightblue" points="275.9,-364.82 266.01,-361.01 271.36,-370.15 275.9,-364.82"/>
</g>
<!-- Node15 -->
<g id="node15" class="node">
<title>Node15</title>
<g id="a_node15"><a xlink:title=" ">
<polygon fill="white" stroke="#bfbfbf" points="170,-224.5 170,-243.5 214,-243.5 214,-224.5 170,-224.5"/>
<text text-anchor="middle" x="192" y="-231.5" font-family="Helvetica,sans-Serif" font-size="10.00">vector</text>
</a>
</g>
</g>
<!-- Node11&#45;&gt;Node15 -->
<g id="edge18" class="edge">
<title>Node11&#45;&gt;Node15</title>
<path fill="none" stroke="midnightblue" d="M254.27,-406.31C199.87,-400.33 131.55,-388.67 114,-367 82.47,-328.08 139.44,-275.05 171.84,-249.69"/>
<polygon fill="midnightblue" stroke="midnightblue" points="174.02,-252.42 179.86,-243.58 169.78,-246.86 174.02,-252.42"/>
</g>
<!-- Node16 -->
<g id="node16" class="node">
<title>Node16</title>
<g id="a_node16"><a xlink:href="LibraryLinkError_8h.html" target="_top" xlink:title="Error class and error codes used by LibraryLink Utilities classes.">
<polygon fill="white" stroke="black" points="893.5,-336.5 893.5,-366.5 1018.5,-366.5 1018.5,-336.5 893.5,-336.5"/>
<text text-anchor="start" x="901.5" y="-354.5" font-family="Helvetica,sans-Serif" font-size="10.00">LLU/ErrorLog/LibraryLink</text>
<text text-anchor="middle" x="956" y="-343.5" font-family="Helvetica,sans-Serif" font-size="10.00">Error.h</text>
</a>
</g>
</g>
<!-- Node11&#45;&gt;Node16 -->
<g id="edge19" class="edge">
<title>Node11&#45;&gt;Node16</title>
<path fill="none" stroke="midnightblue" d="M397.66,-405.23C518.58,-393.81 761.84,-370.84 883.4,-359.36"/>
<polygon fill="midnightblue" stroke="midnightblue" points="883.73,-362.84 893.36,-358.42 883.07,-355.87 883.73,-362.84"/>
</g>
<!-- Node25 -->
<g id="node25" class="node">
<title>Node25</title>
<g id="a_node25"><a xlink:href="LibraryData_8h.html" target="_top" xlink:title=" ">
<polygon fill="white" stroke="black" points="359,-56.5 359,-75.5 455,-75.5 455,-56.5 359,-56.5"/>
<text text-anchor="middle" x="407" y="-63.5" font-family="Helvetica,sans-Serif" font-size="10.00">LLU/LibraryData.h</text>
</a>
</g>
</g>
<!-- Node11&#45;&gt;Node25 -->
<g id="edge79" class="edge">
<title>Node11&#45;&gt;Node25</title>
<path fill="none" stroke="midnightblue" d="M254.43,-404.16C198.12,-396.82 125.25,-384.37 101,-367 69.27,-344.27 57,-330.03 57,-291 57,-291 57,-291 57,-177 57,-116.64 248.87,-85.36 348.48,-73.19"/>
<polygon fill="midnightblue" stroke="midnightblue" points="349.19,-76.63 358.7,-71.97 348.36,-69.68 349.19,-76.63"/>
</g>
<!-- Node16&#45;&gt;Node4 -->
<g id="edge21" class="edge">
<title>Node16&#45;&gt;Node4</title>
<path fill="none" stroke="midnightblue" d="M973.08,-336.24C994.15,-319.55 1031.76,-292.6 1069,-280 1178.5,-242.95 1517.06,-284.3 1581,-188 1652.91,-79.7 1376.6,-67.85 1281.84,-66.93"/>
<polygon fill="midnightblue" stroke="midnightblue" points="1281.74,-63.43 1271.72,-66.87 1281.7,-70.43 1281.74,-63.43"/>
</g>
<!-- Node17 -->
<g id="node17" class="node">
<title>Node17</title>
<g id="a_node17"><a xlink:title=" ">
<polygon fill="white" stroke="#bfbfbf" points="1077.5,-280.5 1077.5,-299.5 1136.5,-299.5 1136.5,-280.5 1077.5,-280.5"/>
<text text-anchor="middle" x="1107" y="-287.5" font-family="Helvetica,sans-Serif" font-size="10.00">stdexcept</text>
</a>
</g>
</g>
<!-- Node16&#45;&gt;Node17 -->
<g id="edge20" class="edge">
<title>Node16&#45;&gt;Node17</title>
<path fill="none" stroke="midnightblue" d="M991.78,-336.4C1017.23,-326.37 1051.1,-313.03 1075.52,-303.4"/>
<polygon fill="midnightblue" stroke="midnightblue" points="1077.01,-306.58 1085.03,-299.66 1074.44,-300.07 1077.01,-306.58"/>
</g>
<!-- Node18 -->
<g id="node18" class="node">
<title>Node18</title>
<g id="a_node18"><a xlink:href="WSStream_8hpp.html" target="_top" xlink:title="Header file for WSStream class.">
<polygon fill="white" stroke="black" points="793.5,-280.5 793.5,-299.5 930.5,-299.5 930.5,-280.5 793.5,-280.5"/>
<text text-anchor="middle" x="862" y="-287.5" font-family="Helvetica,sans-Serif" font-size="10.00">LLU/WSTP/WSStream.hpp</text>
</a>
</g>
</g>
<!-- Node16&#45;&gt;Node18 -->
<g id="edge22" class="edge">
<title>Node16&#45;&gt;Node18</title>
<path fill="none" stroke="midnightblue" d="M933.72,-336.4C918.8,-326.95 899.22,-314.56 884.29,-305.11"/>
<polygon fill="midnightblue" stroke="midnightblue" points="886,-302.05 875.68,-299.66 882.26,-307.96 886,-302.05"/>
</g>
<!-- Node18&#45;&gt;Node2 -->
<g id="edge74" class="edge">
<title>Node18&#45;&gt;Node2</title>
<path fill="none" stroke="midnightblue" d="M867.81,-280.45C877.71,-266.54 899.19,-239.04 924,-224 951.49,-207.34 985.45,-196.59 1014.66,-189.79"/>
<polygon fill="midnightblue" stroke="midnightblue" points="1015.77,-193.13 1024.77,-187.55 1014.25,-186.3 1015.77,-193.13"/>
</g>
<!-- Node18&#45;&gt;Node5 -->
<g id="edge30" class="edge">
<title>Node18&#45;&gt;Node5</title>
<path fill="none" stroke="midnightblue" d="M793.29,-286.21C696.62,-281.42 526,-269.58 470,-244 430.6,-226 402.29,-210.79 409,-168 413.05,-142.17 409.53,-131.45 427,-112 467.95,-66.41 493.75,-71.65 553,-56 633.36,-34.78 885.95,-18.28 976.93,-12.88"/>
<polygon fill="midnightblue" stroke="midnightblue" points="977.18,-16.37 986.96,-12.29 976.77,-9.39 977.18,-16.37"/>
</g>
<!-- Node18&#45;&gt;Node6 -->
<g id="edge31" class="edge">
<title>Node18&#45;&gt;Node6</title>
<path fill="none" stroke="midnightblue" d="M930.68,-287.3C980.62,-283.48 1048.4,-272.78 1101,-244 1147.66,-218.47 1186.21,-167 1204.16,-140.16"/>
<polygon fill="midnightblue" stroke="midnightblue" points="1207.09,-142.07 1209.62,-131.78 1201.23,-138.24 1207.09,-142.07"/>
</g>
<!-- Node18&#45;&gt;Node9 -->
<g id="edge27" class="edge">
<title>Node18&#45;&gt;Node9</title>
<path fill="none" stroke="midnightblue" d="M793.1,-284.23C679.82,-274.71 462.57,-248.78 421,-188 378,-125.14 506.99,-88.98 576.62,-74.48"/>
<polygon fill="midnightblue" stroke="midnightblue" points="577.73,-77.83 586.84,-72.42 576.35,-70.97 577.73,-77.83"/>
</g>
<!-- Node18&#45;&gt;Node10 -->
<g id="edge28" class="edge">
<title>Node18&#45;&gt;Node10</title>
<path fill="none" stroke="midnightblue" d="M828.53,-280.48C806.51,-273.54 778.14,-261.91 758,-244 747.25,-234.44 697.37,-145.71 693,-132 688.2,-116.97 686.85,-99.06 686.61,-85.85"/>
<polygon fill="midnightblue" stroke="midnightblue" points="690.11,-85.65 686.63,-75.65 683.11,-85.64 690.11,-85.65"/>
</g>
<!-- Node18&#45;&gt;Node12 -->
<g id="edge23" class="edge">
<title>Node18&#45;&gt;Node12</title>
<path fill="none" stroke="midnightblue" d="M802.58,-280.42C774.2,-274.02 741.06,-262.97 716,-244 699.97,-231.86 688.33,-211.7 681.42,-197.04"/>
<polygon fill="midnightblue" stroke="midnightblue" points="684.47,-195.28 677.23,-187.54 678.06,-198.1 684.47,-195.28"/>
</g>
<!-- Node18&#45;&gt;Node15 -->
<g id="edge29" class="edge">
<title>Node18&#45;&gt;Node15</title>
<path fill="none" stroke="midnightblue" d="M793.45,-283.47C650.91,-271.99 327.27,-245.9 224.18,-237.59"/>
<polygon fill="midnightblue" stroke="midnightblue" points="224.33,-234.09 214.08,-236.78 223.77,-241.07 224.33,-234.09"/>
</g>
<!-- Node19 -->
<g id="node19" class="node">
<title>Node19</title>
<g id="a_node19"><a xlink:title=" ">
<polygon fill="white" stroke="#bfbfbf" points="932.5,-224.5 932.5,-243.5 979.5,-243.5 979.5,-224.5 932.5,-224.5"/>
<text text-anchor="middle" x="956" y="-231.5" font-family="Helvetica,sans-Serif" font-size="10.00">iterator</text>
</a>
</g>
</g>
<!-- Node18&#45;&gt;Node19 -->
<g id="edge24" class="edge">
<title>Node18&#45;&gt;Node19</title>
<path fill="none" stroke="midnightblue" d="M877.1,-280.32C891.9,-271.82 914.69,-258.73 931.98,-248.8"/>
<polygon fill="midnightblue" stroke="midnightblue" points="934.01,-251.67 940.93,-243.65 930.52,-245.6 934.01,-251.67"/>
</g>
<!-- Node20 -->
<g id="node20" class="node">
<title>Node20</title>
<g id="a_node20"><a xlink:title=" ">
<polygon fill="white" stroke="#bfbfbf" points="997.5,-224.5 997.5,-243.5 1032.5,-243.5 1032.5,-224.5 997.5,-224.5"/>
<text text-anchor="middle" x="1015" y="-231.5" font-family="Helvetica,sans-Serif" font-size="10.00">map</text>
</a>
</g>
</g>
<!-- Node18&#45;&gt;Node20 -->
<g id="edge25" class="edge">
<title>Node18&#45;&gt;Node20</title>
<path fill="none" stroke="midnightblue" d="M886.24,-280.44C913.83,-270.71 958.78,-254.84 987.61,-244.67"/>
<polygon fill="midnightblue" stroke="midnightblue" points="988.82,-247.95 997.08,-241.32 986.49,-241.35 988.82,-247.95"/>
</g>
<!-- Node21 -->
<g id="node21" class="node">
<title>Node21</title>
<g id="a_node21"><a xlink:title=" ">
<polygon fill="white" stroke="#bfbfbf" points="1050.5,-224.5 1050.5,-243.5 1091.5,-243.5 1091.5,-224.5 1050.5,-224.5"/>
<text text-anchor="middle" x="1071" y="-231.5" font-family="Helvetica,sans-Serif" font-size="10.00">stack</text>
</a>
</g>
</g>
<!-- Node18&#45;&gt;Node21 -->
<g id="edge26" class="edge">
<title>Node18&#45;&gt;Node21</title>
<path fill="none" stroke="midnightblue" d="M898.7,-280.46C933.12,-272.31 986.23,-259.38 1040.64,-244.28"/>
<polygon fill="midnightblue" stroke="midnightblue" points="1041.76,-247.6 1050.45,-241.53 1039.87,-240.86 1041.76,-247.6"/>
</g>
<!-- Node22 -->
<g id="node22" class="node">
<title>Node22</title>
<g id="a_node22"><a xlink:href="Utilities_8hpp.html" target="_top" xlink:title="Short but generally useful functions.">
<polygon fill="white" stroke="black" points="701.5,-112.5 701.5,-131.5 790.5,-131.5 790.5,-112.5 701.5,-112.5"/>
<text text-anchor="middle" x="746" y="-119.5" font-family="Helvetica,sans-Serif" font-size="10.00">LLU/Utilities.hpp</text>
</a>
</g>
</g>
<!-- Node18&#45;&gt;Node22 -->
<g id="edge32" class="edge">
<title>Node18&#45;&gt;Node22</title>
<path fill="none" stroke="midnightblue" d="M793.38,-282.36C736.8,-272.54 661.95,-248.23 637,-188 625.22,-159.56 658.76,-142.8 691.66,-133.45"/>
<polygon fill="midnightblue" stroke="midnightblue" points="692.57,-136.83 701.35,-130.89 690.78,-130.06 692.57,-136.83"/>
</g>
<!-- Node33 -->
<g id="node33" class="node">
<title>Node33</title>
<g id="a_node33"><a xlink:href="Get_8h.html" target="_top" xlink:title="Header file with classes related to reading data from WSTP.">
<polygon fill="white" stroke="black" points="1345,-224.5 1345,-243.5 1439,-243.5 1439,-224.5 1345,-224.5"/>
<text text-anchor="middle" x="1392" y="-231.5" font-family="Helvetica,sans-Serif" font-size="10.00">LLU/WSTP/Get.h</text>
</a>
</g>
</g>
<!-- Node18&#45;&gt;Node33 -->
<g id="edge47" class="edge">
<title>Node18&#45;&gt;Node33</title>
<path fill="none" stroke="midnightblue" d="M930.74,-282C1036.38,-271.23 1236.67,-250.83 1334.85,-240.82"/>
<polygon fill="midnightblue" stroke="midnightblue" points="1335.29,-244.3 1344.88,-239.8 1334.58,-237.33 1335.29,-244.3"/>
</g>
<!-- Node36 -->
<g id="node36" class="node">
<title>Node36</title>
<g id="a_node36"><a xlink:href="Put_8h.html" target="_top" xlink:title="Header file with classes related to sending data through WSTP.">
<polygon fill="white" stroke="black" points="1193.5,-224.5 1193.5,-243.5 1286.5,-243.5 1286.5,-224.5 1193.5,-224.5"/>
<text text-anchor="middle" x="1240" y="-231.5" font-family="Helvetica,sans-Serif" font-size="10.00">LLU/WSTP/Put.h</text>
</a>
</g>
</g>
<!-- Node18&#45;&gt;Node36 -->
<g id="edge59" class="edge">
<title>Node18&#45;&gt;Node36</title>
<path fill="none" stroke="midnightblue" d="M921.9,-280.44C993.72,-270.18 1113.2,-253.11 1183.49,-243.07"/>
<polygon fill="midnightblue" stroke="midnightblue" points="1184.09,-246.52 1193.49,-241.64 1183.1,-239.59 1184.09,-246.52"/>
</g>
<!-- Node37 -->
<g id="node37" class="node">
<title>Node37</title>
<g id="a_node37"><a xlink:href="Strings_8h.html" target="_top" xlink:title="Definitions of multiple structures and type aliases related to string handling in WSTP.">
<polygon fill="white" stroke="black" points="766.5,-224.5 766.5,-243.5 875.5,-243.5 875.5,-224.5 766.5,-224.5"/>
<text text-anchor="middle" x="821" y="-231.5" font-family="Helvetica,sans-Serif" font-size="10.00">LLU/WSTP/Strings.h</text>
</a>
</g>
</g>
<!-- Node18&#45;&gt;Node37 -->
<g id="edge65" class="edge">
<title>Node18&#45;&gt;Node37</title>
<path fill="none" stroke="midnightblue" d="M855.23,-280.08C849.44,-272.46 840.94,-261.26 833.86,-251.94"/>
<polygon fill="midnightblue" stroke="midnightblue" points="836.48,-249.6 827.64,-243.75 830.9,-253.83 836.48,-249.6"/>
</g>
<!-- Node38 -->
<g id="node38" class="node">
<title>Node38</title>
<g id="a_node38"><a xlink:href="UtilityTypeTraits_8hpp.html" target="_top" xlink:title="Type traits used by WSStream to identify types supported by WSTP.">
<polygon fill="white" stroke="black" points="430,-168.5 430,-187.5 590,-187.5 590,-168.5 430,-168.5"/>
<text text-anchor="middle" x="510" y="-175.5" font-family="Helvetica,sans-Serif" font-size="10.00">LLU/WSTP/UtilityTypeTraits.hpp</text>
</a>
</g>
</g>
<!-- Node18&#45;&gt;Node38 -->
<g id="edge75" class="edge">
<title>Node18&#45;&gt;Node38</title>
<path fill="none" stroke="midnightblue" d="M793.23,-285.08C739.93,-280.15 665.11,-269.04 604,-244 574.49,-231.91 544.99,-209.39 527.11,-194.29"/>
<polygon fill="midnightblue" stroke="midnightblue" points="529.18,-191.45 519.32,-187.56 524.6,-196.74 529.18,-191.45"/>
</g>
<!-- Node22&#45;&gt;Node8 -->
<g id="edge34" class="edge">
<title>Node22&#45;&gt;Node8</title>
<path fill="none" stroke="midnightblue" d="M768.02,-112.44C791.1,-103.48 827.56,-89.31 853.64,-79.18"/>
<polygon fill="midnightblue" stroke="midnightblue" points="855.02,-82.4 863.08,-75.52 852.49,-75.88 855.02,-82.4"/>
</g>
<!-- Node22&#45;&gt;Node9 -->
<g id="edge35" class="edge">
<title>Node22&#45;&gt;Node9</title>
<path fill="none" stroke="midnightblue" d="M725.72,-112.44C704.65,-103.56 671.48,-89.56 647.51,-79.45"/>
<polygon fill="midnightblue" stroke="midnightblue" points="648.76,-76.18 638.19,-75.52 646.04,-82.63 648.76,-76.18"/>
</g>
<!-- Node22&#45;&gt;Node10 -->
<g id="edge36" class="edge">
<title>Node22&#45;&gt;Node10</title>
<path fill="none" stroke="midnightblue" d="M736.52,-112.32C727.8,-104.34 714.66,-92.31 704.1,-82.65"/>
<polygon fill="midnightblue" stroke="midnightblue" points="706.39,-80 696.65,-75.83 701.67,-85.17 706.39,-80"/>
</g>
<!-- Node23 -->
<g id="node23" class="node">
<title>Node23</title>
<g id="a_node23"><a xlink:title=" ">
<polygon fill="white" stroke="#bfbfbf" points="789.5,-56.5 789.5,-75.5 842.5,-75.5 842.5,-56.5 789.5,-56.5"/>
<text text-anchor="middle" x="816" y="-63.5" font-family="Helvetica,sans-Serif" font-size="10.00">complex</text>
</a>
</g>
</g>
<!-- Node22&#45;&gt;Node23 -->
<g id="edge33" class="edge">
<title>Node22&#45;&gt;Node23</title>
<path fill="none" stroke="midnightblue" d="M757.25,-112.32C767.8,-104.18 783.8,-91.84 796.44,-82.09"/>
<polygon fill="midnightblue" stroke="midnightblue" points="798.77,-84.71 804.55,-75.83 794.49,-79.17 798.77,-84.71"/>
</g>
<!-- Node24 -->
<g id="node24" class="node">
<title>Node24</title>
<g id="a_node24"><a xlink:title=" ">
<polygon fill="white" stroke="#bfbfbf" points="725,-56.5 725,-75.5 771,-75.5 771,-56.5 725,-56.5"/>
<text text-anchor="middle" x="748" y="-63.5" font-family="Helvetica,sans-Serif" font-size="10.00">variant</text>
</a>
</g>
</g>
<!-- Node22&#45;&gt;Node24 -->
<g id="edge37" class="edge">
<title>Node22&#45;&gt;Node24</title>
<path fill="none" stroke="midnightblue" d="M746.33,-112.08C746.59,-105.01 746.97,-94.86 747.3,-85.99"/>
<polygon fill="midnightblue" stroke="midnightblue" points="750.8,-85.87 747.68,-75.75 743.81,-85.61 750.8,-85.87"/>
</g>
<!-- Node22&#45;&gt;Node25 -->
<g id="edge38" class="edge">
<title>Node22&#45;&gt;Node25</title>
<path fill="none" stroke="midnightblue" d="M701.33,-113.88C640.62,-104.21 531.97,-86.91 465.02,-76.24"/>
<polygon fill="midnightblue" stroke="midnightblue" points="465.48,-72.77 455.05,-74.65 464.37,-79.68 465.48,-72.77"/>
</g>
<!-- Node25&#45;&gt;Node5 -->
<g id="edge41" class="edge">
<title>Node25&#45;&gt;Node5</title>
<path fill="none" stroke="midnightblue" d="M455.07,-60.67C471.53,-59.19 490.07,-57.52 507,-56 684.17,-40.1 896.46,-21.14 976.91,-13.95"/>
<polygon fill="midnightblue" stroke="midnightblue" points="977.29,-17.43 986.94,-13.06 976.67,-10.46 977.29,-17.43"/>
</g>
<!-- Node26 -->
<g id="node26" class="node">
<title>Node26</title>
<g id="a_node26"><a xlink:title=" ">
<polygon fill="white" stroke="#bfbfbf" points="788,-0.5 788,-19.5 840,-19.5 840,-0.5 788,-0.5"/>
<text text-anchor="middle" x="814" y="-7.5" font-family="Helvetica,sans-Serif" font-size="10.00">memory</text>
</a>
</g>
</g>
<!-- Node25&#45;&gt;Node26 -->
<g id="edge39" class="edge">
<title>Node25&#45;&gt;Node26</title>
<path fill="none" stroke="midnightblue" d="M455.05,-57.89C459.76,-57.23 464.47,-56.59 469,-56 603.31,-38.46 640.88,-45 777.69,-20.02"/>
<polygon fill="midnightblue" stroke="midnightblue" points="778.52,-23.43 787.71,-18.17 777.24,-16.55 778.52,-23.43"/>
</g>
<!-- Node27 -->
<g id="node27" class="node">
<title>Node27</title>
<g id="a_node27"><a xlink:title=" ">
<polygon fill="white" stroke="#bfbfbf" points="0,-0.5 0,-19.5 62,-19.5 62,-0.5 0,-0.5"/>
<text text-anchor="middle" x="31" y="-7.5" font-family="Helvetica,sans-Serif" font-size="10.00">dllexport.h</text>
</a>
</g>
</g>
<!-- Node25&#45;&gt;Node27 -->
<g id="edge40" class="edge">
<title>Node25&#45;&gt;Node27</title>
<path fill="none" stroke="midnightblue" d="M358.94,-59.91C295.52,-52.9 180.21,-39.13 72.46,-20.13"/>
<polygon fill="midnightblue" stroke="midnightblue" points="72.85,-16.65 62.39,-18.34 71.62,-23.54 72.85,-16.65"/>
</g>
<!-- Node28 -->
<g id="node28" class="node">
<title>Node28</title>
<g id="a_node28"><a xlink:title=" ">
<polygon fill="white" stroke="#bfbfbf" points="80.5,-0.5 80.5,-19.5 169.5,-19.5 169.5,-0.5 80.5,-0.5"/>
<text text-anchor="middle" x="125" y="-7.5" font-family="Helvetica,sans-Serif" font-size="10.00">WolframLibrary.h</text>
</a>
</g>
</g>
<!-- Node25&#45;&gt;Node28 -->
<g id="edge42" class="edge">
<title>Node25&#45;&gt;Node28</title>
<path fill="none" stroke="midnightblue" d="M362.32,-56.44C312.71,-46.94 232.64,-31.61 179.41,-21.42"/>
<polygon fill="midnightblue" stroke="midnightblue" points="179.95,-17.96 169.47,-19.52 178.64,-24.83 179.95,-17.96"/>
</g>
<!-- Node29 -->
<g id="node29" class="node">
<title>Node29</title>
<g id="a_node29"><a xlink:title=" ">
<polygon fill="white" stroke="#bfbfbf" points="187.5,-0.5 187.5,-19.5 330.5,-19.5 330.5,-0.5 187.5,-0.5"/>
<text text-anchor="middle" x="259" y="-7.5" font-family="Helvetica,sans-Serif" font-size="10.00">WolframIOLibraryFunctions.h</text>
</a>
</g>
</g>
<!-- Node25&#45;&gt;Node29 -->
<g id="edge43" class="edge">
<title>Node25&#45;&gt;Node29</title>
<path fill="none" stroke="midnightblue" d="M383.55,-56.44C358.87,-47.44 319.81,-33.19 292.02,-23.05"/>
<polygon fill="midnightblue" stroke="midnightblue" points="292.94,-19.66 282.34,-19.52 290.54,-26.23 292.94,-19.66"/>
</g>
<!-- Node30 -->
<g id="node30" class="node">
<title>Node30</title>
<g id="a_node30"><a xlink:title=" ">
<polygon fill="white" stroke="#bfbfbf" points="349,-0.5 349,-19.5 465,-19.5 465,-0.5 349,-0.5"/>
<text text-anchor="middle" x="407" y="-7.5" font-family="Helvetica,sans-Serif" font-size="10.00">WolframImageLibrary.h</text>
</a>
</g>
</g>
<!-- Node25&#45;&gt;Node30 -->
<g id="edge44" class="edge">
<title>Node25&#45;&gt;Node30</title>
<path fill="none" stroke="midnightblue" d="M407,-56.08C407,-49.01 407,-38.86 407,-29.99"/>
<polygon fill="midnightblue" stroke="midnightblue" points="410.5,-29.75 407,-19.75 403.5,-29.75 410.5,-29.75"/>
</g>
<!-- Node31 -->
<g id="node31" class="node">
<title>Node31</title>
<g id="a_node31"><a xlink:title=" ">
<polygon fill="white" stroke="#bfbfbf" points="483.5,-0.5 483.5,-19.5 632.5,-19.5 632.5,-0.5 483.5,-0.5"/>
<text text-anchor="middle" x="558" y="-7.5" font-family="Helvetica,sans-Serif" font-size="10.00">WolframNumericArrayLibrary.h</text>
</a>
</g>
</g>
<!-- Node25&#45;&gt;Node31 -->
<g id="edge45" class="edge">
<title>Node25&#45;&gt;Node31</title>
<path fill="none" stroke="midnightblue" d="M430.93,-56.44C456.22,-47.4 496.3,-33.06 524.68,-22.92"/>
<polygon fill="midnightblue" stroke="midnightblue" points="525.95,-26.18 534.19,-19.52 523.59,-19.59 525.95,-26.18"/>
</g>
<!-- Node32 -->
<g id="node32" class="node">
<title>Node32</title>
<g id="a_node32"><a xlink:title=" ">
<polygon fill="white" stroke="#bfbfbf" points="650.5,-0.5 650.5,-19.5 769.5,-19.5 769.5,-0.5 650.5,-0.5"/>
<text text-anchor="middle" x="710" y="-7.5" font-family="Helvetica,sans-Serif" font-size="10.00">WolframSparseLibrary.h</text>
</a>
</g>
</g>
<!-- Node25&#45;&gt;Node32 -->
<g id="edge46" class="edge">
<title>Node25&#45;&gt;Node32</title>
<path fill="none" stroke="midnightblue" d="M455.01,-56.44C508.53,-46.9 595.07,-31.48 652.24,-21.29"/>
<polygon fill="midnightblue" stroke="midnightblue" points="652.98,-24.72 662.21,-19.52 651.75,-17.83 652.98,-24.72"/>
</g>
<!-- Node33&#45;&gt;Node2 -->
<g id="edge58" class="edge">
<title>Node33&#45;&gt;Node2</title>
<path fill="none" stroke="midnightblue" d="M1344.95,-224.86C1290,-215.35 1199.01,-199.6 1139.28,-189.26"/>
<polygon fill="midnightblue" stroke="midnightblue" points="1139.69,-185.78 1129.24,-187.52 1138.49,-192.68 1139.69,-185.78"/>
</g>
<!-- Node33&#45;&gt;Node4 -->
<g id="edge50" class="edge">
<title>Node33&#45;&gt;Node4</title>
<path fill="none" stroke="midnightblue" d="M1384.42,-224.08C1361.74,-197.38 1294.2,-117.87 1264.86,-83.32"/>
<polygon fill="midnightblue" stroke="midnightblue" points="1267.42,-80.92 1258.28,-75.57 1262.08,-85.46 1267.42,-80.92"/>
</g>
<!-- Node33&#45;&gt;Node5 -->
<g id="edge51" class="edge">
<title>Node33&#45;&gt;Node5</title>
<path fill="none" stroke="midnightblue" d="M1439.25,-233.5C1487.08,-231.84 1561.29,-223.08 1614,-188 1664.82,-154.17 1693.63,-100.65 1652,-56 1610.26,-11.23 1169.65,-10.13 1043.55,-10.75"/>
<polygon fill="midnightblue" stroke="midnightblue" points="1043.32,-7.25 1033.34,-10.8 1043.36,-14.25 1043.32,-7.25"/>
</g>
<!-- Node33&#45;&gt;Node6 -->
<g id="edge52" class="edge">
<title>Node33&#45;&gt;Node6</title>
<path fill="none" stroke="midnightblue" d="M1378.11,-224.37C1347.61,-205.41 1274.54,-160 1237.43,-136.94"/>
<polygon fill="midnightblue" stroke="midnightblue" points="1239.17,-133.9 1228.82,-131.59 1235.47,-139.84 1239.17,-133.9"/>
</g>
<!-- Node33&#45;&gt;Node22 -->
<g id="edge53" class="edge">
<title>Node33&#45;&gt;Node22</title>
<path fill="none" stroke="midnightblue" d="M1344.8,-228.56C1258.29,-220.21 1077.59,-201.8 1016,-188 988.57,-181.85 983.12,-175.4 956,-168 903.72,-153.73 843.11,-141.16 800.48,-132.96"/>
<polygon fill="midnightblue" stroke="midnightblue" points="801.07,-129.51 790.59,-131.07 799.76,-136.38 801.07,-129.51"/>
</g>
<!-- Node33&#45;&gt;Node26 -->
<g id="edge49" class="edge">
<title>Node33&#45;&gt;Node26</title>
<path fill="none" stroke="midnightblue" d="M1439.09,-233.15C1505.53,-231.53 1615.13,-221.03 1581,-168 1548.5,-117.49 1514.07,-133.54 1458,-112 1380.98,-82.41 1361.84,-72.49 1281,-56 1198.58,-39.19 945.17,-20.21 850.33,-13.51"/>
<polygon fill="midnightblue" stroke="midnightblue" points="850.31,-10 840.09,-12.79 849.82,-16.98 850.31,-10"/>
</g>
<!-- Node34 -->
<g id="node34" class="node">
<title>Node34</title>
<g id="a_node34"><a xlink:title=" ">
<polygon fill="white" stroke="#bfbfbf" points="1389.5,-112.5 1389.5,-131.5 1448.5,-131.5 1448.5,-112.5 1389.5,-112.5"/>
<text text-anchor="middle" x="1419" y="-119.5" font-family="Helvetica,sans-Serif" font-size="10.00">functional</text>
</a>
</g>
</g>
<!-- Node33&#45;&gt;Node34 -->
<g id="edge48" class="edge">
<title>Node33&#45;&gt;Node34</title>
<path fill="none" stroke="midnightblue" d="M1394.95,-224.45C1397.99,-215.45 1402.73,-200.84 1406,-188 1409.91,-172.65 1413.38,-155.01 1415.74,-141.98"/>
<polygon fill="midnightblue" stroke="midnightblue" points="1419.23,-142.35 1417.52,-131.9 1412.34,-141.14 1419.23,-142.35"/>
</g>
<!-- Node35 -->
<g id="node35" class="node">
<title>Node35</title>
<g id="a_node35"><a xlink:href="Release_8h.html" target="_top" xlink:title="Header file with classes responsible for releasing memory allocated by WSTP when receiving data.">
<polygon fill="white" stroke="black" points="1458,-168.5 1458,-187.5 1572,-187.5 1572,-168.5 1458,-168.5"/>
<text text-anchor="middle" x="1515" y="-175.5" font-family="Helvetica,sans-Serif" font-size="10.00">LLU/WSTP/Release.h</text>
</a>
</g>
</g>
<!-- Node33&#45;&gt;Node35 -->
<g id="edge54" class="edge">
<title>Node33&#45;&gt;Node35</title>
<path fill="none" stroke="midnightblue" d="M1411.49,-224.44C1431.64,-215.6 1463.32,-201.69 1486.33,-191.59"/>
<polygon fill="midnightblue" stroke="midnightblue" points="1487.85,-194.74 1495.6,-187.52 1485.04,-188.33 1487.85,-194.74"/>
</g>
<!-- Node35&#45;&gt;Node5 -->
<g id="edge56" class="edge">
<title>Node35&#45;&gt;Node5</title>
<path fill="none" stroke="midnightblue" d="M1508.85,-168.08C1499.22,-154.62 1479.47,-128.89 1458,-112 1415.81,-78.82 1402.17,-72.2 1351,-56 1242.25,-21.56 1105.92,-13.46 1043.73,-11.57"/>
<polygon fill="midnightblue" stroke="midnightblue" points="1043.44,-8.06 1033.35,-11.29 1043.25,-15.06 1043.44,-8.06"/>
</g>
<!-- Node35&#45;&gt;Node22 -->
<g id="edge57" class="edge">
<title>Node35&#45;&gt;Node22</title>
<path fill="none" stroke="midnightblue" d="M1457.83,-175.39C1337.96,-171.58 1051.43,-160.21 800.77,-131.96"/>
<polygon fill="midnightblue" stroke="midnightblue" points="801.07,-128.47 790.74,-130.82 800.28,-135.43 801.07,-128.47"/>
</g>
<!-- Node35&#45;&gt;Node34 -->
<g id="edge55" class="edge">
<title>Node35&#45;&gt;Node34</title>
<path fill="none" stroke="midnightblue" d="M1499.58,-168.32C1484.46,-159.82 1461.18,-146.73 1443.53,-136.8"/>
<polygon fill="midnightblue" stroke="midnightblue" points="1444.82,-133.51 1434.39,-131.65 1441.39,-139.61 1444.82,-133.51"/>
</g>
<!-- Node36&#45;&gt;Node2 -->
<g id="edge64" class="edge">
<title>Node36&#45;&gt;Node2</title>
<path fill="none" stroke="midnightblue" d="M1214.65,-224.44C1187.73,-215.36 1145,-200.94 1114.91,-190.78"/>
<polygon fill="midnightblue" stroke="midnightblue" points="1115.83,-187.4 1105.23,-187.52 1113.59,-194.03 1115.83,-187.4"/>
</g>
<!-- Node36&#45;&gt;Node5 -->
<g id="edge61" class="edge">
<title>Node36&#45;&gt;Node5</title>
<path fill="none" stroke="midnightblue" d="M1246.47,-224.43C1266.67,-196.58 1324.65,-107.49 1281,-56 1250.91,-20.5 1109.23,-12.98 1043.57,-11.4"/>
<polygon fill="midnightblue" stroke="midnightblue" points="1043.41,-7.9 1033.34,-11.19 1043.27,-14.9 1043.41,-7.9"/>
</g>
<!-- Node36&#45;&gt;Node6 -->
<g id="edge62" class="edge">
<title>Node36&#45;&gt;Node6</title>
<path fill="none" stroke="midnightblue" d="M1236.97,-224.47C1233.87,-215.49 1229.08,-200.89 1226,-188 1222.34,-172.67 1219.43,-155.03 1217.53,-142"/>
<polygon fill="midnightblue" stroke="midnightblue" points="1220.97,-141.33 1216.12,-131.91 1214.04,-142.29 1220.97,-141.33"/>
</g>
<!-- Node36&#45;&gt;Node22 -->
<g id="edge63" class="edge">
<title>Node36&#45;&gt;Node22</title>
<path fill="none" stroke="midnightblue" d="M1193.12,-226.21C1141.22,-218.37 1055.2,-204.42 982,-188 911.11,-172.09 829.66,-148.44 783.36,-134.49"/>
<polygon fill="midnightblue" stroke="midnightblue" points="784.34,-131.13 773.75,-131.58 782.31,-137.83 784.34,-131.13"/>
</g>
<!-- Node36&#45;&gt;Node34 -->
<g id="edge60" class="edge">
<title>Node36&#45;&gt;Node34</title>
<path fill="none" stroke="midnightblue" d="M1259.46,-224.42C1278.03,-215.96 1306.58,-202.27 1330,-188 1355.32,-172.57 1382.61,-152 1400.19,-138.17"/>
<polygon fill="midnightblue" stroke="midnightblue" points="1402.79,-140.57 1408.44,-131.61 1398.44,-135.09 1402.79,-140.57"/>
</g>
<!-- Node37&#45;&gt;Node2 -->
<g id="edge73" class="edge">
<title>Node37&#45;&gt;Node2</title>
<path fill="none" stroke="midnightblue" d="M862.04,-224.44C907.32,-215 980.23,-199.8 1029.11,-189.61"/>
<polygon fill="midnightblue" stroke="midnightblue" points="1030.08,-192.98 1039.15,-187.52 1028.65,-186.13 1030.08,-192.98"/>
</g>
<!-- Node37&#45;&gt;Node5 -->
<g id="edge69" class="edge">
<title>Node37&#45;&gt;Node5</title>
<path fill="none" stroke="midnightblue" d="M842.13,-224.43C874.77,-210.13 937.31,-178.32 972,-132 995.23,-100.97 1004.48,-55.4 1007.99,-29.96"/>
<polygon fill="midnightblue" stroke="midnightblue" points="1011.5,-30.16 1009.23,-19.81 1004.55,-29.31 1011.5,-30.16"/>
</g>
<!-- Node37&#45;&gt;Node6 -->
<g id="edge70" class="edge">
<title>Node37&#45;&gt;Node6</title>
<path fill="none" stroke="midnightblue" d="M844.18,-224.44C880.48,-211.22 953.1,-185.55 1016,-168 1064.91,-154.36 1121.44,-141.88 1161.72,-133.55"/>
<polygon fill="midnightblue" stroke="midnightblue" points="1162.51,-136.96 1171.6,-131.52 1161.1,-130.1 1162.51,-136.96"/>
</g>
<!-- Node37&#45;&gt;Node7 -->
<g id="edge72" class="edge">
<title>Node37&#45;&gt;Node7</title>
<path fill="none" stroke="midnightblue" d="M826.1,-224.37C836.78,-206.3 861.67,-164.18 875.77,-140.31"/>
<polygon fill="midnightblue" stroke="midnightblue" points="878.85,-141.98 880.92,-131.59 872.82,-138.42 878.85,-141.98"/>
</g>
<!-- Node37&#45;&gt;Node12 -->
<g id="edge66" class="edge">
<title>Node37&#45;&gt;Node12</title>
<path fill="none" stroke="midnightblue" d="M797.71,-224.44C773.19,-215.44 734.4,-201.19 706.8,-191.05"/>
<polygon fill="midnightblue" stroke="midnightblue" points="707.78,-187.68 697.18,-187.52 705.36,-194.25 707.78,-187.68"/>
</g>
<!-- Node37&#45;&gt;Node22 -->
<g id="edge71" class="edge">
<title>Node37&#45;&gt;Node22</title>
<path fill="none" stroke="midnightblue" d="M816.3,-224.36C809.31,-211.68 795.52,-187.45 782,-168 775.22,-158.25 766.98,-147.86 760.1,-139.52"/>
<polygon fill="midnightblue" stroke="midnightblue" points="762.64,-137.11 753.54,-131.69 757.28,-141.61 762.64,-137.11"/>
</g>
<!-- Node37&#45;&gt;Node26 -->
<g id="edge68" class="edge">
<title>Node37&#45;&gt;Node26</title>
<path fill="none" stroke="midnightblue" d="M806.96,-224.44C756.16,-193.42 584.54,-88.02 578,-76 573.75,-68.19 572.3,-62.82 578,-56 605.41,-23.24 720.05,-28.81 777.63,-19.85"/>
<polygon fill="midnightblue" stroke="midnightblue" points="778.48,-23.25 787.68,-17.99 777.21,-16.37 778.48,-23.25"/>
</g>
<!-- Node37&#45;&gt;Node34 -->
<g id="edge67" class="edge">
<title>Node37&#45;&gt;Node34</title>
<path fill="none" stroke="midnightblue" d="M875.72,-227.01C940.34,-219.56 1050.95,-205.65 1145,-188 1229.19,-172.2 1326.48,-147.58 1379.51,-133.62"/>
<polygon fill="midnightblue" stroke="midnightblue" points="1380.42,-136.99 1389.2,-131.05 1378.63,-130.23 1380.42,-136.99"/>
</g>
<!-- Node38&#45;&gt;Node5 -->
<g id="edge77" class="edge">
<title>Node38&#45;&gt;Node5</title>
<path fill="none" stroke="midnightblue" d="M511.94,-168.41C517.58,-145.6 536.31,-83.39 578,-56 611.11,-34.25 880.98,-17.88 976.58,-12.72"/>
<polygon fill="midnightblue" stroke="midnightblue" points="977.03,-16.2 986.83,-12.17 976.66,-9.21 977.03,-16.2"/>
</g>
<!-- Node38&#45;&gt;Node9 -->
<g id="edge76" class="edge">
<title>Node38&#45;&gt;Node9</title>
<path fill="none" stroke="midnightblue" d="M524.85,-168.44C538.37,-160.21 558.38,-146.84 573,-132 587.11,-117.68 599.8,-98.47 608.08,-84.66"/>
<polygon fill="midnightblue" stroke="midnightblue" points="611.29,-86.1 613.29,-75.69 605.24,-82.58 611.29,-86.1"/>
</g>
<!-- Node38&#45;&gt;Node22 -->
<g id="edge78" class="edge">
<title>Node38&#45;&gt;Node22</title>
<path fill="none" stroke="midnightblue" d="M547.39,-168.44C588.39,-159.06 654.25,-143.99 698.78,-133.8"/>
<polygon fill="midnightblue" stroke="midnightblue" points="699.81,-137.16 708.78,-131.52 698.25,-130.34 699.81,-137.16"/>
</g>
</g>
</svg>
