<?xml version="1.0" encoding="UTF-8" standalone="no"?>
<!DOCTYPE svg PUBLIC "-//W3C//DTD SVG 1.1//EN"
 "http://www.w3.org/Graphics/SVG/1.1/DTD/svg11.dtd">
<!-- Generated by graphviz version 2.43.0 (0)
 -->
<!-- Title: Utilities.hpp Pages: 1 -->
<svg width="971pt" height="140pt"
 viewBox="0.00 0.00 971.00 140.00" xmlns="http://www.w3.org/2000/svg" xmlns:xlink="http://www.w3.org/1999/xlink">
<g id="graph0" class="graph" transform="scale(1 1) rotate(0) translate(4 136)">
<title>Utilities.hpp</title>
<polygon fill="white" stroke="transparent" points="-4,4 -4,-136 967,-136 967,4 -4,4"/>
<!-- Node1 -->
<g id="node1" class="node">
<title>Node1</title>
<g id="a_node1"><a xlink:title="Short but generally useful functions.">
<polygon fill="#bfbfbf" stroke="black" points="166.5,-112.5 166.5,-131.5 234.5,-131.5 234.5,-112.5 166.5,-112.5"/>
<text text-anchor="middle" x="200.5" y="-119.5" font-family="Helvetica,sans-Serif" font-size="10.00">Utilities.hpp</text>
</a>
</g>
</g>
<!-- Node2 -->
<g id="node2" class="node">
<title>Node2</title>
<g id="a_node2"><a xlink:title=" ">
<polygon fill="white" stroke="#bfbfbf" points="0,-56.5 0,-75.5 53,-75.5 53,-56.5 0,-56.5"/>
<text text-anchor="middle" x="26.5" y="-63.5" font-family="Helvetica,sans-Serif" font-size="10.00">complex</text>
</a>
</g>
</g>
<!-- Node1&#45;&gt;Node2 -->
<g id="edge1" class="edge">
<title>Node1&#45;&gt;Node2</title>
<path fill="none" stroke="midnightblue" d="M172.93,-112.44C143.14,-103.2 95.55,-88.43 62.75,-78.25"/>
<polygon fill="midnightblue" stroke="midnightblue" points="63.67,-74.87 53.09,-75.25 61.6,-81.56 63.67,-74.87"/>
</g>
<!-- Node3 -->
<g id="node3" class="node">
<title>Node3</title>
<g id="a_node3"><a xlink:title=" ">
<polygon fill="white" stroke="#bfbfbf" points="71.5,-56.5 71.5,-75.5 117.5,-75.5 117.5,-56.5 71.5,-56.5"/>
<text text-anchor="middle" x="94.5" y="-63.5" font-family="Helvetica,sans-Serif" font-size="10.00">cstdint</text>
</a>
</g>
</g>
<!-- Node1&#45;&gt;Node3 -->
<g id="edge2" class="edge">
<title>Node1&#45;&gt;Node3</title>
<path fill="none" stroke="midnightblue" d="M183.47,-112.32C166.47,-103.66 140.12,-90.24 120.51,-80.25"/>
<polygon fill="midnightblue" stroke="midnightblue" points="121.99,-77.08 111.49,-75.65 118.81,-83.31 121.99,-77.08"/>
</g>
<!-- Node4 -->
<g id="node4" class="node">
<title>Node4</title>
<g id="a_node4"><a xlink:title=" ">
<polygon fill="white" stroke="#bfbfbf" points="135.5,-56.5 135.5,-75.5 197.5,-75.5 197.5,-56.5 135.5,-56.5"/>
<text text-anchor="middle" x="166.5" y="-63.5" font-family="Helvetica,sans-Serif" font-size="10.00">type_traits</text>
</a>
</g>
</g>
<!-- Node1&#45;&gt;Node4 -->
<g id="edge3" class="edge">
<title>Node1&#45;&gt;Node4</title>
<path fill="none" stroke="midnightblue" d="M194.89,-112.08C190.13,-104.53 183.18,-93.49 177.35,-84.23"/>
<polygon fill="midnightblue" stroke="midnightblue" points="180.3,-82.35 172.01,-75.75 174.38,-86.08 180.3,-82.35"/>
</g>
<!-- Node5 -->
<g id="node5" class="node">
<title>Node5</title>
<g id="a_node5"><a xlink:title=" ">
<polygon fill="white" stroke="#bfbfbf" points="215.5,-56.5 215.5,-75.5 255.5,-75.5 255.5,-56.5 215.5,-56.5"/>
<text text-anchor="middle" x="235.5" y="-63.5" font-family="Helvetica,sans-Serif" font-size="10.00">utility</text>
</a>
</g>
</g>
<!-- Node1&#45;&gt;Node5 -->
<g id="edge4" class="edge">
<title>Node1&#45;&gt;Node5</title>
<path fill="none" stroke="midnightblue" d="M206.28,-112.08C211.17,-104.53 218.33,-93.49 224.33,-84.23"/>
<polygon fill="midnightblue" stroke="midnightblue" points="227.33,-86.05 229.83,-75.75 221.45,-82.24 227.33,-86.05"/>
</g>
<!-- Node6 -->
<g id="node6" class="node">
<title>Node6</title>
<g id="a_node6"><a xlink:title=" ">
<polygon fill="white" stroke="#bfbfbf" points="273.5,-56.5 273.5,-75.5 319.5,-75.5 319.5,-56.5 273.5,-56.5"/>
<text text-anchor="middle" x="296.5" y="-63.5" font-family="Helvetica,sans-Serif" font-size="10.00">variant</text>
</a>
</g>
</g>
<!-- Node1&#45;&gt;Node6 -->
<g id="edge5" class="edge">
<title>Node1&#45;&gt;Node6</title>
<path fill="none" stroke="midnightblue" d="M215.92,-112.32C231.04,-103.82 254.32,-90.73 271.97,-80.8"/>
<polygon fill="midnightblue" stroke="midnightblue" points="274.11,-83.61 281.11,-75.65 270.68,-77.51 274.11,-83.61"/>
</g>
<!-- Node7 -->
<g id="node7" class="node">
<title>Node7</title>
<g id="a_node7"><a xlink:href="LibraryData_8h.html" target="_top" xlink:title=" ">
<polygon fill="white" stroke="black" points="337.5,-56.5 337.5,-75.5 433.5,-75.5 433.5,-56.5 337.5,-56.5"/>
<text text-anchor="middle" x="385.5" y="-63.5" font-family="Helvetica,sans-Serif" font-size="10.00">LLU/LibraryData.h</text>
</a>
</g>
</g>
<!-- Node1&#45;&gt;Node7 -->
<g id="edge6" class="edge">
<title>Node1&#45;&gt;Node7</title>
<path fill="none" stroke="midnightblue" d="M229.81,-112.44C261.34,-103.24 311.63,-88.56 346.49,-78.39"/>
<polygon fill="midnightblue" stroke="midnightblue" points="347.7,-81.68 356.32,-75.52 345.74,-74.96 347.7,-81.68"/>
</g>
<!-- Node8 -->
<g id="node8" class="node">
<title>Node8</title>
<g id="a_node8"><a xlink:title=" ">
<polygon fill="white" stroke="#bfbfbf" points="59.5,-0.5 59.5,-19.5 111.5,-19.5 111.5,-0.5 59.5,-0.5"/>
<text text-anchor="middle" x="85.5" y="-7.5" font-family="Helvetica,sans-Serif" font-size="10.00">memory</text>
</a>
</g>
</g>
<!-- Node7&#45;&gt;Node8 -->
<g id="edge7" class="edge">
<title>Node7&#45;&gt;Node8</title>
<path fill="none" stroke="midnightblue" d="M337.46,-57.34C276.78,-47.58 174.79,-30.89 121.75,-20.09"/>
<polygon fill="midnightblue" stroke="midnightblue" points="122.32,-16.64 111.82,-18.02 120.89,-23.49 122.32,-16.64"/>
</g>
<!-- Node9 -->
<g id="node9" class="node">
<title>Node9</title>
<g id="a_node9"><a xlink:title=" ">
<polygon fill="white" stroke="#bfbfbf" points="129.5,-0.5 129.5,-19.5 191.5,-19.5 191.5,-0.5 129.5,-0.5"/>
<text text-anchor="middle" x="160.5" y="-7.5" font-family="Helvetica,sans-Serif" font-size="10.00">dllexport.h</text>
</a>
</g>
</g>
<!-- Node7&#45;&gt;Node9 -->
<g id="edge8" class="edge">
<title>Node7&#45;&gt;Node9</title>
<path fill="none" stroke="midnightblue" d="M349.85,-56.44C309.47,-46.75 243.78,-30.99 201.37,-20.81"/>
<polygon fill="midnightblue" stroke="midnightblue" points="202.18,-17.4 191.64,-18.47 200.54,-24.21 202.18,-17.4"/>
</g>
<!-- Node10 -->
<g id="node10" class="node">
<title>Node10</title>
<g id="a_node10"><a xlink:title=" ">
<polygon fill="white" stroke="#bfbfbf" points="209.5,-0.5 209.5,-19.5 255.5,-19.5 255.5,-0.5 209.5,-0.5"/>
<text text-anchor="middle" x="232.5" y="-7.5" font-family="Helvetica,sans-Serif" font-size="10.00">wstp.h</text>
</a>
</g>
</g>
<!-- Node7&#45;&gt;Node10 -->
<g id="edge9" class="edge">
<title>Node7&#45;&gt;Node10</title>
<path fill="none" stroke="midnightblue" d="M361.26,-56.44C335.33,-47.29 294.06,-32.73 265.25,-22.56"/>
<polygon fill="midnightblue" stroke="midnightblue" points="266.22,-19.19 255.63,-19.16 263.89,-25.79 266.22,-19.19"/>
</g>
<!-- Node11 -->
<g id="node11" class="node">
<title>Node11</title>
<g id="a_node11"><a xlink:title=" ">
<polygon fill="white" stroke="#bfbfbf" points="274,-0.5 274,-19.5 363,-19.5 363,-0.5 274,-0.5"/>
<text text-anchor="middle" x="318.5" y="-7.5" font-family="Helvetica,sans-Serif" font-size="10.00">WolframLibrary.h</text>
</a>
</g>
</g>
<!-- Node7&#45;&gt;Node11 -->
<g id="edge10" class="edge">
<title>Node7&#45;&gt;Node11</title>
<path fill="none" stroke="midnightblue" d="M374.74,-56.32C364.73,-48.26 349.61,-36.08 337.57,-26.37"/>
<polygon fill="midnightblue" stroke="midnightblue" points="339.44,-23.38 329.46,-19.83 335.05,-28.83 339.44,-23.38"/>
</g>
<!-- Node12 -->
<g id="node12" class="node">
<title>Node12</title>
<g id="a_node12"><a xlink:title=" ">
<polygon fill="white" stroke="#bfbfbf" points="381,-0.5 381,-19.5 524,-19.5 524,-0.5 381,-0.5"/>
<text text-anchor="middle" x="452.5" y="-7.5" font-family="Helvetica,sans-Serif" font-size="10.00">WolframIOLibraryFunctions.h</text>
</a>
</g>
</g>
<!-- Node7&#45;&gt;Node12 -->
<g id="edge11" class="edge">
<title>Node7&#45;&gt;Node12</title>
<path fill="none" stroke="midnightblue" d="M396.26,-56.32C406.27,-48.26 421.39,-36.08 433.43,-26.37"/>
<polygon fill="midnightblue" stroke="midnightblue" points="435.95,-28.83 441.54,-19.83 431.56,-23.38 435.95,-28.83"/>
</g>
<!-- Node13 -->
<g id="node13" class="node">
<title>Node13</title>
<g id="a_node13"><a xlink:title=" ">
<polygon fill="white" stroke="#bfbfbf" points="542.5,-0.5 542.5,-19.5 658.5,-19.5 658.5,-0.5 542.5,-0.5"/>
<text text-anchor="middle" x="600.5" y="-7.5" font-family="Helvetica,sans-Serif" font-size="10.00">WolframImageLibrary.h</text>
</a>
</g>
</g>
<!-- Node7&#45;&gt;Node13 -->
<g id="edge12" class="edge">
<title>Node7&#45;&gt;Node13</title>
<path fill="none" stroke="midnightblue" d="M419.57,-56.44C456.68,-47.12 516.16,-32.18 556.71,-22"/>
<polygon fill="midnightblue" stroke="midnightblue" points="557.75,-25.35 566.59,-19.52 556.04,-18.56 557.75,-25.35"/>
</g>
<!-- Node14 -->
<g id="node14" class="node">
<title>Node14</title>
<g id="a_node14"><a xlink:title=" ">
<polygon fill="white" stroke="#bfbfbf" points="677,-0.5 677,-19.5 826,-19.5 826,-0.5 677,-0.5"/>
<text text-anchor="middle" x="751.5" y="-7.5" font-family="Helvetica,sans-Serif" font-size="10.00">WolframNumericArrayLibrary.h</text>
</a>
</g>
</g>
<!-- Node7&#45;&gt;Node14 -->
<g id="edge13" class="edge">
<title>Node7&#45;&gt;Node14</title>
<path fill="none" stroke="midnightblue" d="M433.72,-57.88C497.78,-48.43 611.26,-31.69 683.85,-20.98"/>
<polygon fill="midnightblue" stroke="midnightblue" points="684.44,-24.43 693.82,-19.51 683.41,-17.51 684.44,-24.43"/>
</g>
<!-- Node15 -->
<g id="node15" class="node">
<title>Node15</title>
<g id="a_node15"><a xlink:title=" ">
<polygon fill="white" stroke="#bfbfbf" points="844,-0.5 844,-19.5 963,-19.5 963,-0.5 844,-0.5"/>
<text text-anchor="middle" x="903.5" y="-7.5" font-family="Helvetica,sans-Serif" font-size="10.00">WolframSparseLibrary.h</text>
</a>
</g>
</g>
<!-- Node7&#45;&gt;Node15 -->
<g id="edge14" class="edge">
<title>Node7&#45;&gt;Node15</title>
<path fill="none" stroke="midnightblue" d="M433.51,-60.71C514.08,-53.39 681.86,-37.68 833.82,-20.17"/>
<polygon fill="midnightblue" stroke="midnightblue" points="834.28,-23.64 843.81,-19.01 833.47,-16.68 834.28,-23.64"/>
</g>
</g>
</svg>
