<?xml version="1.0" encoding="UTF-8" standalone="no"?>
<!DOCTYPE svg PUBLIC "-//W3C//DTD SVG 1.1//EN"
 "http://www.w3.org/Graphics/SVG/1.1/DTD/svg11.dtd">
<!-- Generated by graphviz version 2.43.0 (0)
 -->
<!-- Title: WSStream.hpp Pages: 1 -->
<svg width="1418pt" height="700pt"
 viewBox="0.00 0.00 1418.00 700.00" xmlns="http://www.w3.org/2000/svg" xmlns:xlink="http://www.w3.org/1999/xlink">
<g id="graph0" class="graph" transform="scale(1 1) rotate(0) translate(4 696)">
<title>WSStream.hpp</title>
<polygon fill="white" stroke="transparent" points="-4,4 -4,-696 1414,-696 1414,4 -4,4"/>
<!-- Node1 -->
<g id="node1" class="node">
<title>Node1</title>
<g id="a_node1"><a xlink:title="Header file for WSStream class.">
<polygon fill="#bfbfbf" stroke="black" points="1212,-672.5 1212,-691.5 1295,-691.5 1295,-672.5 1212,-672.5"/>
<text text-anchor="middle" x="1253.5" y="-679.5" font-family="Helvetica,sans-Serif" font-size="10.00">WSStream.hpp</text>
</a>
</g>
</g>
<!-- Node2 -->
<g id="node2" class="node">
<title>Node2</title>
<g id="a_node2"><a xlink:href="LibraryLinkError_8h.html" target="_top" xlink:title="Error class and error codes used by LibraryLink Utilities classes.">
<polygon fill="white" stroke="black" points="451.5,-616.5 451.5,-635.5 543.5,-635.5 543.5,-616.5 451.5,-616.5"/>
<text text-anchor="middle" x="497.5" y="-623.5" font-family="Helvetica,sans-Serif" font-size="10.00">LibraryLinkError.h</text>
</a>
</g>
</g>
<!-- Node1&#45;&gt;Node2 -->
<g id="edge1" class="edge">
<title>Node1&#45;&gt;Node2</title>
<path fill="none" stroke="midnightblue" d="M1201.73,-677.3C1061.75,-667.3 677.28,-639.84 543.84,-630.31"/>
<polygon fill="midnightblue" stroke="midnightblue" points="1201.55,-680.8 1211.78,-678.02 1202.05,-673.82 1201.55,-680.8"/>
</g>
<!-- Node5 -->
<g id="node5" class="node">
<title>Node5</title>
<g id="a_node5"><a xlink:href="LLU_8h.html" target="_top" xlink:title="Header file which includes all major parts of LLU.">
<polygon fill="white" stroke="black" points="989,-0.5 989,-19.5 1032,-19.5 1032,-0.5 989,-0.5"/>
<text text-anchor="middle" x="1010.5" y="-7.5" font-family="Helvetica,sans-Serif" font-size="10.00">LLU.h</text>
</a>
</g>
</g>
<!-- Node1&#45;&gt;Node5 -->
<g id="edge74" class="edge">
<title>Node1&#45;&gt;Node5</title>
<path fill="none" stroke="midnightblue" d="M1272.76,-665.79C1294.98,-646.38 1328.5,-610.56 1328.5,-571 1328.5,-571 1328.5,-571 1328.5,-121 1328.5,-75.87 1291.33,-75.22 1250.5,-56 1175.71,-20.79 1075.61,-13.11 1032.15,-11.45"/>
<polygon fill="midnightblue" stroke="midnightblue" points="1270.3,-663.29 1264.89,-672.4 1274.8,-668.65 1270.3,-663.29"/>
</g>
<!-- Node7 -->
<g id="node7" class="node">
<title>Node7</title>
<g id="a_node7"><a xlink:href="LibraryLinkError_8cpp.html" target="_top" xlink:title="Contains definitions of ErrorManager members and implementation of interface function sendRegisteredE...">
<polygon fill="white" stroke="black" points="0,-0.5 0,-19.5 103,-19.5 103,-0.5 0,-0.5"/>
<text text-anchor="middle" x="51.5" y="-7.5" font-family="Helvetica,sans-Serif" font-size="10.00">LibraryLinkError.cpp</text>
</a>
</g>
</g>
<!-- Node1&#45;&gt;Node7 -->
<g id="edge76" class="edge">
<title>Node1&#45;&gt;Node7</title>
<path fill="none" stroke="midnightblue" d="M1201.56,-679.16C966.49,-670.49 13.5,-631.63 13.5,-571 13.5,-571 13.5,-571 13.5,-121 13.5,-81.4 35.77,-37.96 46.22,-19.77"/>
<polygon fill="midnightblue" stroke="midnightblue" points="1201.77,-682.67 1211.89,-679.54 1202.02,-675.67 1201.77,-682.67"/>
</g>
<!-- Node35 -->
<g id="node35" class="node">
<title>Node35</title>
<g id="a_node35"><a xlink:href="ErrorManager_8cpp.html" target="_top" xlink:title=" ">
<polygon fill="white" stroke="black" points="1207,-504.5 1207,-523.5 1300,-523.5 1300,-504.5 1207,-504.5"/>
<text text-anchor="middle" x="1253.5" y="-511.5" font-family="Helvetica,sans-Serif" font-size="10.00">ErrorManager.cpp</text>
</a>
</g>
</g>
<!-- Node1&#45;&gt;Node35 -->
<g id="edge75" class="edge">
<title>Node1&#45;&gt;Node35</title>
<path fill="none" stroke="midnightblue" d="M1253.5,-661.93C1253.5,-625.92 1253.5,-549.23 1253.5,-523.57"/>
<polygon fill="midnightblue" stroke="midnightblue" points="1250,-662.08 1253.5,-672.08 1257,-662.08 1250,-662.08"/>
</g>
<!-- Node40 -->
<g id="node40" class="node">
<title>Node40</title>
<g id="a_node40"><a xlink:href="Logger_8h.html" target="_top" xlink:title="Define Logger namespace containing logging related declarations and convenience macros.">
<polygon fill="white" stroke="black" points="1357,-560.5 1357,-579.5 1410,-579.5 1410,-560.5 1357,-560.5"/>
<text text-anchor="middle" x="1383.5" y="-567.5" font-family="Helvetica,sans-Serif" font-size="10.00">Logger.h</text>
</a>
</g>
</g>
<!-- Node1&#45;&gt;Node40 -->
<g id="edge72" class="edge">
<title>Node1&#45;&gt;Node40</title>
<path fill="none" stroke="midnightblue" d="M1288.13,-668.67C1305.81,-661.16 1326.83,-650.25 1342.5,-636 1360.66,-619.48 1373.9,-593.13 1379.9,-579.61"/>
<polygon fill="midnightblue" stroke="midnightblue" points="1286.67,-665.48 1278.71,-672.48 1289.29,-671.97 1286.67,-665.48"/>
</g>
<!-- Node3 -->
<g id="node3" class="node">
<title>Node3</title>
<g id="a_node3"><a xlink:href="ErrorManager_8h.html" target="_top" xlink:title="Definition of the ErrorManager class responsible for error registration and throwing.">
<polygon fill="white" stroke="black" points="456,-560.5 456,-579.5 539,-579.5 539,-560.5 456,-560.5"/>
<text text-anchor="middle" x="497.5" y="-567.5" font-family="Helvetica,sans-Serif" font-size="10.00">ErrorManager.h</text>
</a>
</g>
</g>
<!-- Node2&#45;&gt;Node3 -->
<g id="edge2" class="edge">
<title>Node2&#45;&gt;Node3</title>
<path fill="none" stroke="midnightblue" d="M497.5,-605.8C497.5,-596.91 497.5,-586.78 497.5,-579.75"/>
<polygon fill="midnightblue" stroke="midnightblue" points="494,-606.08 497.5,-616.08 501,-606.08 494,-606.08"/>
</g>
<!-- Node2&#45;&gt;Node7 -->
<g id="edge71" class="edge">
<title>Node2&#45;&gt;Node7</title>
<path fill="none" stroke="midnightblue" d="M441.36,-622.89C321.53,-616.85 51.5,-594.43 51.5,-515 51.5,-515 51.5,-515 51.5,-121 51.5,-83.19 51.5,-38.06 51.5,-19.56"/>
<polygon fill="midnightblue" stroke="midnightblue" points="441.29,-626.39 451.45,-623.38 441.63,-619.4 441.29,-626.39"/>
</g>
<!-- Node4 -->
<g id="node4" class="node">
<title>Node4</title>
<g id="a_node4"><a xlink:href="DataList_8h.html" target="_top" xlink:title="Definition of templated DataStore wrapper called DataList.">
<polygon fill="white" stroke="black" points="832.5,-112.5 832.5,-131.5 894.5,-131.5 894.5,-112.5 832.5,-112.5"/>
<text text-anchor="middle" x="863.5" y="-119.5" font-family="Helvetica,sans-Serif" font-size="10.00">DataList.h</text>
</a>
</g>
</g>
<!-- Node3&#45;&gt;Node4 -->
<g id="edge3" class="edge">
<title>Node3&#45;&gt;Node4</title>
<path fill="none" stroke="midnightblue" d="M500.06,-550.35C509.89,-486.11 551.4,-272.25 679.5,-168 723.75,-131.98 792.54,-124.12 832.28,-122.79"/>
<polygon fill="midnightblue" stroke="midnightblue" points="496.59,-549.85 498.61,-560.25 503.52,-550.86 496.59,-549.85"/>
</g>
<!-- Node3&#45;&gt;Node5 -->
<g id="edge63" class="edge">
<title>Node3&#45;&gt;Node5</title>
<path fill="none" stroke="midnightblue" d="M549.66,-565.62C681.66,-556.27 1025.33,-526.8 1121.5,-468 1178.46,-433.18 1210.5,-413.76 1210.5,-347 1210.5,-347 1210.5,-347 1210.5,-121 1210.5,-40.36 1084.12,-18.42 1032.28,-12.81"/>
<polygon fill="midnightblue" stroke="midnightblue" points="549.14,-562.15 539.41,-566.33 549.63,-569.13 549.14,-562.15"/>
</g>
<!-- Node6 -->
<g id="node6" class="node">
<title>Node6</title>
<g id="a_node6"><a xlink:href="MArgumentManager_8h.html" target="_top" xlink:title="Definition of MArgumentManager class.">
<polygon fill="white" stroke="black" points="476.5,-56.5 476.5,-75.5 588.5,-75.5 588.5,-56.5 476.5,-56.5"/>
<text text-anchor="middle" x="532.5" y="-63.5" font-family="Helvetica,sans-Serif" font-size="10.00">MArgumentManager.h</text>
</a>
</g>
</g>
<!-- Node3&#45;&gt;Node6 -->
<g id="edge64" class="edge">
<title>Node3&#45;&gt;Node6</title>
<path fill="none" stroke="midnightblue" d="M479.75,-553.45C426.83,-505.1 277.16,-352.92 333.5,-224 362.84,-156.85 395.51,-155.47 454.5,-112 474.13,-97.53 498.8,-83.99 515.08,-75.61"/>
<polygon fill="midnightblue" stroke="midnightblue" points="477.6,-556.21 487.37,-560.3 482.28,-551.01 477.6,-556.21"/>
</g>
<!-- Node10 -->
<g id="node10" class="node">
<title>Node10</title>
<g id="a_node10"><a xlink:href="Base_8hpp.html" target="_top" xlink:title="Definitions of MContainerBase and MContainer class templates.">
<polygon fill="white" stroke="black" points="709.5,-504.5 709.5,-523.5 767.5,-523.5 767.5,-504.5 709.5,-504.5"/>
<text text-anchor="middle" x="738.5" y="-511.5" font-family="Helvetica,sans-Serif" font-size="10.00">Base.hpp</text>
</a>
</g>
</g>
<!-- Node3&#45;&gt;Node10 -->
<g id="edge10" class="edge">
<title>Node3&#45;&gt;Node10</title>
<path fill="none" stroke="midnightblue" d="M545.71,-558.2C594.56,-547.25 668.57,-530.67 709.21,-521.56"/>
<polygon fill="midnightblue" stroke="midnightblue" points="544.68,-554.84 535.69,-560.44 546.21,-561.67 544.68,-554.84"/>
</g>
<!-- Node19 -->
<g id="node19" class="node">
<title>Node19</title>
<g id="a_node19"><a xlink:href="Views_2Image_8hpp.html" target="_top" xlink:title="Definition and implementation of ImageView and ImageTypedView.">
<polygon fill="white" stroke="black" points="1238.5,-392.5 1238.5,-411.5 1300.5,-411.5 1300.5,-392.5 1238.5,-392.5"/>
<text text-anchor="middle" x="1269.5" y="-399.5" font-family="Helvetica,sans-Serif" font-size="10.00">Image.hpp</text>
</a>
</g>
</g>
<!-- Node3&#45;&gt;Node19 -->
<g id="edge62" class="edge">
<title>Node3&#45;&gt;Node19</title>
<path fill="none" stroke="midnightblue" d="M549.26,-567.7C695.57,-563.71 1105.13,-550.29 1159.5,-524 1212.41,-498.42 1251.67,-435.09 1264.77,-411.79"/>
<polygon fill="midnightblue" stroke="midnightblue" points="549.09,-564.2 539.19,-567.97 549.28,-571.2 549.09,-564.2"/>
</g>
<!-- Node29 -->
<g id="node29" class="node">
<title>Node29</title>
<g id="a_node29"><a xlink:href="ProgressMonitor_8cpp.html" target="_top" xlink:title="Implementation file for ProgressMonitor class.">
<polygon fill="white" stroke="black" points="149.5,-56.5 149.5,-75.5 255.5,-75.5 255.5,-56.5 149.5,-56.5"/>
<text text-anchor="middle" x="202.5" y="-63.5" font-family="Helvetica,sans-Serif" font-size="10.00">ProgressMonitor.cpp</text>
</a>
</g>
</g>
<!-- Node3&#45;&gt;Node29 -->
<g id="edge69" class="edge">
<title>Node3&#45;&gt;Node29</title>
<path fill="none" stroke="midnightblue" d="M472.18,-555.32C458.25,-547.18 441.09,-536.1 427.5,-524 314.11,-423.09 245.5,-386.79 245.5,-235 245.5,-235 245.5,-235 245.5,-177 245.5,-136.81 220.29,-93.68 208.48,-75.67"/>
<polygon fill="midnightblue" stroke="midnightblue" points="470.8,-558.56 481.22,-560.47 474.26,-552.48 470.8,-558.56"/>
</g>
<!-- Node32 -->
<g id="node32" class="node">
<title>Node32</title>
<g id="a_node32"><a xlink:href="MArrayDimensions_8h.html" target="_top" xlink:title=" ">
<polygon fill="white" stroke="black" points="424.5,-280.5 424.5,-299.5 532.5,-299.5 532.5,-280.5 424.5,-280.5"/>
<text text-anchor="middle" x="478.5" y="-287.5" font-family="Helvetica,sans-Serif" font-size="10.00">MArrayDimensions.h</text>
</a>
</g>
</g>
<!-- Node3&#45;&gt;Node32 -->
<g id="edge55" class="edge">
<title>Node3&#45;&gt;Node32</title>
<path fill="none" stroke="midnightblue" d="M492.28,-550.39C486.66,-528.65 478.5,-491.51 478.5,-459 478.5,-459 478.5,-459 478.5,-401 478.5,-363.19 478.5,-318.06 478.5,-299.56"/>
<polygon fill="midnightblue" stroke="midnightblue" points="488.96,-551.5 494.94,-560.25 495.72,-549.68 488.96,-551.5"/>
</g>
<!-- Node3&#45;&gt;Node35 -->
<g id="edge65" class="edge">
<title>Node3&#45;&gt;Node35</title>
<path fill="none" stroke="midnightblue" d="M549.45,-567.09C665.18,-562.52 952.89,-549.39 1192.5,-524 1197.18,-523.5 1202.06,-522.91 1206.92,-522.27"/>
<polygon fill="midnightblue" stroke="midnightblue" points="548.98,-563.61 539.12,-567.49 549.25,-570.6 548.98,-563.61"/>
</g>
<!-- Node36 -->
<g id="node36" class="node">
<title>Node36</title>
<g id="a_node36"><a xlink:href="FileUtilities_8cpp.html" target="_top" xlink:title=" ">
<polygon fill="white" stroke="black" points="1066.5,-504.5 1066.5,-523.5 1150.5,-523.5 1150.5,-504.5 1066.5,-504.5"/>
<text text-anchor="middle" x="1108.5" y="-511.5" font-family="Helvetica,sans-Serif" font-size="10.00">FileUtilities.cpp</text>
</a>
</g>
</g>
<!-- Node3&#45;&gt;Node36 -->
<g id="edge66" class="edge">
<title>Node3&#45;&gt;Node36</title>
<path fill="none" stroke="midnightblue" d="M549.29,-566.16C647.62,-560.47 868,-546.27 1052.5,-524 1057,-523.46 1061.69,-522.82 1066.35,-522.14"/>
<polygon fill="midnightblue" stroke="midnightblue" points="548.82,-562.68 539.04,-566.75 549.22,-569.67 548.82,-562.68"/>
</g>
<!-- Node37 -->
<g id="node37" class="node">
<title>Node37</title>
<g id="a_node37"><a xlink:href="LibraryData_8cpp.html" target="_top" xlink:title=" ">
<polygon fill="white" stroke="black" points="79.5,-504.5 79.5,-523.5 165.5,-523.5 165.5,-504.5 79.5,-504.5"/>
<text text-anchor="middle" x="122.5" y="-511.5" font-family="Helvetica,sans-Serif" font-size="10.00">LibraryData.cpp</text>
</a>
</g>
</g>
<!-- Node3&#45;&gt;Node37 -->
<g id="edge67" class="edge">
<title>Node3&#45;&gt;Node37</title>
<path fill="none" stroke="midnightblue" d="M445.67,-562.31C381.81,-553.95 270.01,-538.92 174.5,-524 171.6,-523.55 168.62,-523.07 165.61,-522.57"/>
<polygon fill="midnightblue" stroke="midnightblue" points="445.51,-565.82 455.88,-563.65 446.42,-558.88 445.51,-565.82"/>
</g>
<!-- Node38 -->
<g id="node38" class="node">
<title>Node38</title>
<g id="a_node38"><a xlink:href="MArgument_8cpp.html" target="_top" xlink:title="Specializations of PrimitiveWrapper class template members.">
<polygon fill="white" stroke="black" points="183.5,-504.5 183.5,-523.5 269.5,-523.5 269.5,-504.5 183.5,-504.5"/>
<text text-anchor="middle" x="226.5" y="-511.5" font-family="Helvetica,sans-Serif" font-size="10.00">MArgument.cpp</text>
</a>
</g>
</g>
<!-- Node3&#45;&gt;Node38 -->
<g id="edge68" class="edge">
<title>Node3&#45;&gt;Node38</title>
<path fill="none" stroke="midnightblue" d="M445.87,-558.71C394.64,-548.5 317.05,-533.04 269.19,-523.51"/>
<polygon fill="midnightblue" stroke="midnightblue" points="445.26,-562.16 455.75,-560.68 446.63,-555.29 445.26,-562.16"/>
</g>
<!-- Node39 -->
<g id="node39" class="node">
<title>Node39</title>
<g id="a_node39"><a xlink:href="Utilities_8cpp.html" target="_top" xlink:title="Implementation file with miscellaneous definitions used throughout the WSTP&#45;related part of LibraryLi...">
<polygon fill="white" stroke="black" points="287.5,-504.5 287.5,-523.5 355.5,-523.5 355.5,-504.5 287.5,-504.5"/>
<text text-anchor="middle" x="321.5" y="-511.5" font-family="Helvetica,sans-Serif" font-size="10.00">Utilities.cpp</text>
</a>
</g>
</g>
<!-- Node3&#45;&gt;Node39 -->
<g id="edge70" class="edge">
<title>Node3&#45;&gt;Node39</title>
<path fill="none" stroke="midnightblue" d="M459.81,-557.44C426.63,-547.26 379.07,-532.66 349.26,-523.52"/>
<polygon fill="midnightblue" stroke="midnightblue" points="459.03,-560.86 469.61,-560.44 461.08,-554.16 459.03,-560.86"/>
</g>
<!-- Node4&#45;&gt;Node5 -->
<g id="edge4" class="edge">
<title>Node4&#45;&gt;Node5</title>
<path fill="none" stroke="midnightblue" d="M883.39,-106.12C914.59,-82.77 974.06,-38.27 999.02,-19.59"/>
<polygon fill="midnightblue" stroke="midnightblue" points="880.94,-103.57 875.03,-112.37 885.14,-109.18 880.94,-103.57"/>
</g>
<!-- Node4&#45;&gt;Node6 -->
<g id="edge5" class="edge">
<title>Node4&#45;&gt;Node6</title>
<path fill="none" stroke="midnightblue" d="M822.48,-114.31C762.47,-104.52 650.73,-86.29 584.86,-75.54"/>
<polygon fill="midnightblue" stroke="midnightblue" points="821.93,-117.76 832.36,-115.92 823.05,-110.86 821.93,-117.76"/>
</g>
<!-- Node6&#45;&gt;Node5 -->
<g id="edge6" class="edge">
<title>Node6&#45;&gt;Node5</title>
<path fill="none" stroke="midnightblue" d="M598.67,-56.46C599.96,-56.3 601.23,-56.15 602.5,-56 750.03,-38.38 927.89,-19.61 988.81,-13.25"/>
<polygon fill="midnightblue" stroke="midnightblue" points="598.15,-53 588.65,-57.69 599,-59.95 598.15,-53"/>
</g>
<!-- Node6&#45;&gt;Node7 -->
<g id="edge7" class="edge">
<title>Node6&#45;&gt;Node7</title>
<path fill="none" stroke="midnightblue" d="M466.42,-57.58C369.59,-46.71 191.17,-26.68 103.24,-16.81"/>
<polygon fill="midnightblue" stroke="midnightblue" points="466.05,-61.06 476.38,-58.7 466.83,-54.11 466.05,-61.06"/>
</g>
<!-- Node8 -->
<g id="node8" class="node">
<title>Node8</title>
<g id="a_node8"><a xlink:href="Logger_8cpp.html" target="_top" xlink:title="Implementation of functions defined in Logger.h.">
<polygon fill="white" stroke="black" points="1187.5,-0.5 1187.5,-19.5 1251.5,-19.5 1251.5,-0.5 1187.5,-0.5"/>
<text text-anchor="middle" x="1219.5" y="-7.5" font-family="Helvetica,sans-Serif" font-size="10.00">Logger.cpp</text>
</a>
</g>
</g>
<!-- Node6&#45;&gt;Node8 -->
<g id="edge8" class="edge">
<title>Node6&#45;&gt;Node8</title>
<path fill="none" stroke="midnightblue" d="M598.77,-59.79C743.04,-48.45 1081.13,-21.88 1187.13,-13.54"/>
<polygon fill="midnightblue" stroke="midnightblue" points="598.42,-56.31 588.72,-60.58 598.96,-63.29 598.42,-56.31"/>
</g>
<!-- Node9 -->
<g id="node9" class="node">
<title>Node9</title>
<g id="a_node9"><a xlink:href="MArgumentManager_8cpp.html" target="_top" xlink:title="Definitions of non&#45;template member functions and static data members from MArgumentManager class.">
<polygon fill="white" stroke="black" points="347.5,-0.5 347.5,-19.5 469.5,-19.5 469.5,-0.5 347.5,-0.5"/>
<text text-anchor="middle" x="408.5" y="-7.5" font-family="Helvetica,sans-Serif" font-size="10.00">MArgumentManager.cpp</text>
</a>
</g>
</g>
<!-- Node6&#45;&gt;Node9 -->
<g id="edge9" class="edge">
<title>Node6&#45;&gt;Node9</title>
<path fill="none" stroke="midnightblue" d="M503.49,-52.37C480.27,-42.26 448.34,-28.35 428.06,-19.52"/>
<polygon fill="midnightblue" stroke="midnightblue" points="502.29,-55.66 512.85,-56.44 505.08,-49.24 502.29,-55.66"/>
</g>
<!-- Node11 -->
<g id="node11" class="node">
<title>Node11</title>
<g id="a_node11"><a xlink:href="Generic_2DataStore_8hpp.html" target="_top" xlink:title="Definition and implementation of generic DataStore wrapper.">
<polygon fill="white" stroke="black" points="724.5,-280.5 724.5,-299.5 804.5,-299.5 804.5,-280.5 724.5,-280.5"/>
<text text-anchor="middle" x="764.5" y="-287.5" font-family="Helvetica,sans-Serif" font-size="10.00">DataStore.hpp</text>
</a>
</g>
</g>
<!-- Node10&#45;&gt;Node11 -->
<g id="edge11" class="edge">
<title>Node10&#45;&gt;Node11</title>
<path fill="none" stroke="midnightblue" d="M705.87,-500.41C658.78,-480.28 580.63,-438.39 611.5,-392 634.46,-357.5 662.92,-378.82 697.5,-356 722.39,-339.57 746.11,-313.18 757.49,-299.63"/>
<polygon fill="midnightblue" stroke="midnightblue" points="704.81,-503.76 715.39,-504.36 707.5,-497.3 704.81,-503.76"/>
</g>
<!-- Node16 -->
<g id="node16" class="node">
<title>Node16</title>
<g id="a_node16"><a xlink:href="Generic_2Image_8hpp.html" target="_top" xlink:title="GenericImage definition and implementation.">
<polygon fill="white" stroke="black" points="1050.5,-448.5 1050.5,-467.5 1112.5,-467.5 1112.5,-448.5 1050.5,-448.5"/>
<text text-anchor="middle" x="1081.5" y="-455.5" font-family="Helvetica,sans-Serif" font-size="10.00">Image.hpp</text>
</a>
</g>
</g>
<!-- Node10&#45;&gt;Node16 -->
<g id="edge18" class="edge">
<title>Node10&#45;&gt;Node16</title>
<path fill="none" stroke="midnightblue" d="M777.75,-506.82C846.59,-495.98 987.72,-473.76 1050.36,-463.9"/>
<polygon fill="midnightblue" stroke="midnightblue" points="777.08,-503.38 767.74,-508.4 778.17,-510.3 777.08,-503.38"/>
</g>
<!-- Node22 -->
<g id="node22" class="node">
<title>Node22</title>
<g id="a_node22"><a xlink:href="Generic_2NumericArray_8hpp.html" target="_top" xlink:title="GenericNumericArray definition and implementation.">
<polygon fill="white" stroke="black" points="798.5,-448.5 798.5,-467.5 892.5,-467.5 892.5,-448.5 798.5,-448.5"/>
<text text-anchor="middle" x="845.5" y="-455.5" font-family="Helvetica,sans-Serif" font-size="10.00">NumericArray.hpp</text>
</a>
</g>
</g>
<!-- Node10&#45;&gt;Node22 -->
<g id="edge35" class="edge">
<title>Node10&#45;&gt;Node22</title>
<path fill="none" stroke="midnightblue" d="M764.8,-499.73C784.61,-489.73 811.21,-476.31 828.35,-467.65"/>
<polygon fill="midnightblue" stroke="midnightblue" points="763.04,-496.69 755.69,-504.32 766.2,-502.94 763.04,-496.69"/>
</g>
<!-- Node26 -->
<g id="node26" class="node">
<title>Node26</title>
<g id="a_node26"><a xlink:href="Generic_2Tensor_8hpp.html" target="_top" xlink:title="GenericTensor definition and implementation.">
<polygon fill="white" stroke="black" points="706.5,-448.5 706.5,-467.5 770.5,-467.5 770.5,-448.5 706.5,-448.5"/>
<text text-anchor="middle" x="738.5" y="-455.5" font-family="Helvetica,sans-Serif" font-size="10.00">Tensor.hpp</text>
</a>
</g>
</g>
<!-- Node10&#45;&gt;Node26 -->
<g id="edge44" class="edge">
<title>Node10&#45;&gt;Node26</title>
<path fill="none" stroke="midnightblue" d="M738.5,-493.8C738.5,-484.91 738.5,-474.78 738.5,-467.75"/>
<polygon fill="midnightblue" stroke="midnightblue" points="735,-494.08 738.5,-504.08 742,-494.08 735,-494.08"/>
</g>
<!-- Node11&#45;&gt;Node4 -->
<g id="edge12" class="edge">
<title>Node11&#45;&gt;Node4</title>
<path fill="none" stroke="midnightblue" d="M814.27,-280.71C835.65,-274.41 858.64,-263.36 871.5,-244 895.26,-208.23 876.07,-152.63 867.3,-131.52"/>
<polygon fill="midnightblue" stroke="midnightblue" points="813.36,-277.33 804.6,-283.28 815.16,-284.09 813.36,-277.33"/>
</g>
<!-- Node12 -->
<g id="node12" class="node">
<title>Node12</title>
<g id="a_node12"><a xlink:href="DataNode_8hpp.html" target="_top" xlink:title=" ">
<polygon fill="white" stroke="black" points="684.5,-224.5 684.5,-243.5 764.5,-243.5 764.5,-224.5 684.5,-224.5"/>
<text text-anchor="middle" x="724.5" y="-231.5" font-family="Helvetica,sans-Serif" font-size="10.00">DataNode.hpp</text>
</a>
</g>
</g>
<!-- Node11&#45;&gt;Node12 -->
<g id="edge13" class="edge">
<title>Node11&#45;&gt;Node12</title>
<path fill="none" stroke="midnightblue" d="M751.8,-271.86C744.87,-262.5 736.59,-251.33 730.98,-243.75"/>
<polygon fill="midnightblue" stroke="midnightblue" points="749.13,-274.13 757.89,-280.08 754.75,-269.96 749.13,-274.13"/>
</g>
<!-- Node14 -->
<g id="node14" class="node">
<title>Node14</title>
<g id="a_node14"><a xlink:href="DataStore_8cpp.html" target="_top" xlink:title=" ">
<polygon fill="white" stroke="black" points="782.5,-224.5 782.5,-243.5 862.5,-243.5 862.5,-224.5 782.5,-224.5"/>
<text text-anchor="middle" x="822.5" y="-231.5" font-family="Helvetica,sans-Serif" font-size="10.00">DataStore.cpp</text>
</a>
</g>
</g>
<!-- Node11&#45;&gt;Node14 -->
<g id="edge16" class="edge">
<title>Node11&#45;&gt;Node14</title>
<path fill="none" stroke="midnightblue" d="M781.41,-273.25C791.7,-263.67 804.47,-251.79 813.01,-243.83"/>
<polygon fill="midnightblue" stroke="midnightblue" points="778.75,-270.95 773.82,-280.32 783.52,-276.07 778.75,-270.95"/>
</g>
<!-- Node15 -->
<g id="node15" class="node">
<title>Node15</title>
<g id="a_node15"><a xlink:href="TypedMArgument_8cpp.html" target="_top" xlink:title=" ">
<polygon fill="white" stroke="black" points="956.5,-224.5 956.5,-243.5 1068.5,-243.5 1068.5,-224.5 956.5,-224.5"/>
<text text-anchor="middle" x="1012.5" y="-231.5" font-family="Helvetica,sans-Serif" font-size="10.00">TypedMArgument.cpp</text>
</a>
</g>
</g>
<!-- Node11&#45;&gt;Node15 -->
<g id="edge17" class="edge">
<title>Node11&#45;&gt;Node15</title>
<path fill="none" stroke="midnightblue" d="M813.73,-278.28C860.59,-268.08 930.2,-252.92 973.39,-243.52"/>
<polygon fill="midnightblue" stroke="midnightblue" points="812.82,-274.9 803.8,-280.44 814.31,-281.74 812.82,-274.9"/>
</g>
<!-- Node13 -->
<g id="node13" class="node">
<title>Node13</title>
<g id="a_node13"><a xlink:href="DataList_8hpp.html" target="_top" xlink:title="Special iterators for DataLists. Iteration over keys, values, reversed iteration.">
<polygon fill="white" stroke="black" points="688.5,-168.5 688.5,-187.5 760.5,-187.5 760.5,-168.5 688.5,-168.5"/>
<text text-anchor="middle" x="724.5" y="-175.5" font-family="Helvetica,sans-Serif" font-size="10.00">DataList.hpp</text>
</a>
</g>
</g>
<!-- Node12&#45;&gt;Node13 -->
<g id="edge14" class="edge">
<title>Node12&#45;&gt;Node13</title>
<path fill="none" stroke="midnightblue" d="M724.5,-213.8C724.5,-204.91 724.5,-194.78 724.5,-187.75"/>
<polygon fill="midnightblue" stroke="midnightblue" points="721,-214.08 724.5,-224.08 728,-214.08 721,-214.08"/>
</g>
<!-- Node13&#45;&gt;Node4 -->
<g id="edge15" class="edge">
<title>Node13&#45;&gt;Node4</title>
<path fill="none" stroke="midnightblue" d="M755.98,-164.77C782.09,-154.63 818.54,-140.47 841.58,-131.52"/>
<polygon fill="midnightblue" stroke="midnightblue" points="754.58,-161.56 746.52,-168.44 757.11,-168.08 754.58,-161.56"/>
</g>
<!-- Node16&#45;&gt;Node15 -->
<g id="edge34" class="edge">
<title>Node16&#45;&gt;Node15</title>
<path fill="none" stroke="midnightblue" d="M1083.9,-438.25C1086.34,-414.03 1088.36,-370.82 1077.5,-336 1065.58,-297.78 1034.98,-260.08 1020.42,-243.62"/>
<polygon fill="midnightblue" stroke="midnightblue" points="1080.42,-437.9 1082.77,-448.23 1087.38,-438.69 1080.42,-437.9"/>
</g>
<!-- Node17 -->
<g id="node17" class="node">
<title>Node17</title>
<g id="a_node17"><a xlink:href="Image_8h.html" target="_top" xlink:title="Templated C++ wrapper for MImage.">
<polygon fill="white" stroke="black" points="984.5,-168.5 984.5,-187.5 1036.5,-187.5 1036.5,-168.5 984.5,-168.5"/>
<text text-anchor="middle" x="1010.5" y="-175.5" font-family="Helvetica,sans-Serif" font-size="10.00">Image.h</text>
</a>
</g>
</g>
<!-- Node16&#45;&gt;Node17 -->
<g id="edge19" class="edge">
<title>Node16&#45;&gt;Node17</title>
<path fill="none" stroke="midnightblue" d="M1090.93,-439.25C1094.71,-431.17 1098.61,-421.35 1100.5,-412 1117.2,-329.5 1122.57,-295.1 1077.5,-224 1066.7,-206.96 1046.85,-194.85 1031.55,-187.52"/>
<polygon fill="midnightblue" stroke="midnightblue" points="1087.71,-437.86 1086.38,-448.37 1093.97,-440.99 1087.71,-437.86"/>
</g>
<!-- Node18 -->
<g id="node18" class="node">
<title>Node18</title>
<g id="a_node18"><a xlink:href="Image_8cpp.html" target="_top" xlink:title="Template specializations of Image::type attribute for all data types that we want to support.">
<polygon fill="white" stroke="black" points="1074.5,-112.5 1074.5,-131.5 1136.5,-131.5 1136.5,-112.5 1074.5,-112.5"/>
<text text-anchor="middle" x="1105.5" y="-119.5" font-family="Helvetica,sans-Serif" font-size="10.00">Image.cpp</text>
</a>
</g>
</g>
<!-- Node16&#45;&gt;Node18 -->
<g id="edge33" class="edge">
<title>Node16&#45;&gt;Node18</title>
<path fill="none" stroke="midnightblue" d="M1097.39,-440.75C1104.33,-432.72 1111.93,-422.51 1116.5,-412 1126.55,-388.88 1123.49,-381.13 1125.5,-356 1132.48,-268.58 1113.44,-162.81 1107.32,-131.89"/>
<polygon fill="midnightblue" stroke="midnightblue" points="1094.69,-438.5 1090.53,-448.25 1099.86,-443.23 1094.69,-438.5"/>
</g>
<!-- Node16&#45;&gt;Node19 -->
<g id="edge23" class="edge">
<title>Node16&#45;&gt;Node19</title>
<path fill="none" stroke="midnightblue" d="M1121.3,-445.57C1156.77,-435.38 1207.87,-420.7 1239.85,-411.52"/>
<polygon fill="midnightblue" stroke="midnightblue" points="1119.93,-442.32 1111.29,-448.44 1121.87,-449.05 1119.93,-442.32"/>
</g>
<!-- Node20 -->
<g id="node20" class="node">
<title>Node20</title>
<g id="a_node20"><a xlink:href="TypedMArgument_8h.html" target="_top" xlink:title=" ">
<polygon fill="white" stroke="black" points="741,-392.5 741,-411.5 842,-411.5 842,-392.5 741,-392.5"/>
<text text-anchor="middle" x="791.5" y="-399.5" font-family="Helvetica,sans-Serif" font-size="10.00">TypedMArgument.h</text>
</a>
</g>
</g>
<!-- Node16&#45;&gt;Node20 -->
<g id="edge25" class="edge">
<title>Node16&#45;&gt;Node20</title>
<path fill="none" stroke="midnightblue" d="M1040.62,-449.39C987,-439.4 893.19,-421.94 837.26,-411.52"/>
<polygon fill="midnightblue" stroke="midnightblue" points="1039.99,-452.83 1050.46,-451.22 1041.27,-445.95 1039.99,-452.83"/>
</g>
<!-- Node17&#45;&gt;Node5 -->
<g id="edge20" class="edge">
<title>Node17&#45;&gt;Node5</title>
<path fill="none" stroke="midnightblue" d="M1010.5,-157.93C1010.5,-121.92 1010.5,-45.23 1010.5,-19.57"/>
<polygon fill="midnightblue" stroke="midnightblue" points="1007,-158.08 1010.5,-168.08 1014,-158.08 1007,-158.08"/>
</g>
<!-- Node17&#45;&gt;Node6 -->
<g id="edge21" class="edge">
<title>Node17&#45;&gt;Node6</title>
<path fill="none" stroke="midnightblue" d="M991.61,-162.06C971.16,-146.74 936.96,-123.58 903.5,-112 796.36,-74.91 662.62,-67.49 588.51,-66.51"/>
<polygon fill="midnightblue" stroke="midnightblue" points="989.67,-164.98 999.74,-168.28 993.93,-159.42 989.67,-164.98"/>
</g>
<!-- Node17&#45;&gt;Node18 -->
<g id="edge22" class="edge">
<title>Node17&#45;&gt;Node18</title>
<path fill="none" stroke="midnightblue" d="M1034.82,-163.18C1052.3,-153.24 1075.33,-140.15 1090.27,-131.65"/>
<polygon fill="midnightblue" stroke="midnightblue" points="1032.73,-160.34 1025.76,-168.32 1036.19,-166.43 1032.73,-160.34"/>
</g>
<!-- Node19&#45;&gt;Node5 -->
<g id="edge24" class="edge">
<title>Node19&#45;&gt;Node5</title>
<path fill="none" stroke="midnightblue" d="M1266.76,-382.3C1263.8,-360.45 1259.5,-323.18 1259.5,-291 1259.5,-291 1259.5,-291 1259.5,-121 1259.5,-21.99 1092.74,-11.36 1032.16,-10.77"/>
<polygon fill="midnightblue" stroke="midnightblue" points="1263.33,-383.05 1268.19,-392.47 1270.26,-382.08 1263.33,-383.05"/>
</g>
<!-- Node20&#45;&gt;Node4 -->
<g id="edge26" class="edge">
<title>Node20&#45;&gt;Node4</title>
<path fill="none" stroke="midnightblue" d="M803.74,-383.9C827.94,-349.75 880.41,-273.86 890.5,-244 901.34,-211.93 905.8,-200.25 895.5,-168 890.95,-153.75 880.06,-140.16 872.25,-131.71"/>
<polygon fill="midnightblue" stroke="midnightblue" points="800.68,-382.17 797.73,-392.35 806.38,-386.23 800.68,-382.17"/>
</g>
<!-- Node20&#45;&gt;Node11 -->
<g id="edge27" class="edge">
<title>Node20&#45;&gt;Node11</title>
<path fill="none" stroke="midnightblue" d="M786.92,-382.35C781.01,-358.25 770.96,-317.31 766.61,-299.59"/>
<polygon fill="midnightblue" stroke="midnightblue" points="783.6,-383.49 789.38,-392.37 790.4,-381.82 783.6,-383.49"/>
</g>
<!-- Node20&#45;&gt;Node12 -->
<g id="edge28" class="edge">
<title>Node20&#45;&gt;Node12</title>
<path fill="none" stroke="midnightblue" d="M774.58,-385.51C755.96,-367.2 727.13,-334.78 715.5,-300 709,-280.55 716.09,-256.32 720.87,-243.64"/>
<polygon fill="midnightblue" stroke="midnightblue" points="772.21,-388.08 781.86,-392.46 777.05,-383.02 772.21,-388.08"/>
</g>
<!-- Node20&#45;&gt;Node15 -->
<g id="edge32" class="edge">
<title>Node20&#45;&gt;Node15</title>
<path fill="none" stroke="midnightblue" d="M812.44,-386.4C823.34,-378.22 836.44,-367.38 846.5,-356 872.97,-326.08 863.58,-305.3 894.5,-280 916.9,-261.67 947.57,-250.28 972.03,-243.54"/>
<polygon fill="midnightblue" stroke="midnightblue" points="810.3,-383.64 804.28,-392.36 814.42,-389.29 810.3,-383.64"/>
</g>
<!-- Node21 -->
<g id="node21" class="node">
<title>Node21</title>
<g id="a_node21"><a xlink:href="Iterators_2DataStore_8hpp.html" target="_top" xlink:title=" ">
<polygon fill="white" stroke="black" points="608.5,-336.5 608.5,-355.5 688.5,-355.5 688.5,-336.5 608.5,-336.5"/>
<text text-anchor="middle" x="648.5" y="-343.5" font-family="Helvetica,sans-Serif" font-size="10.00">DataStore.hpp</text>
</a>
</g>
</g>
<!-- Node20&#45;&gt;Node21 -->
<g id="edge29" class="edge">
<title>Node20&#45;&gt;Node21</title>
<path fill="none" stroke="midnightblue" d="M759.47,-388.91C732.59,-378.75 694.86,-364.51 671.05,-355.52"/>
<polygon fill="midnightblue" stroke="midnightblue" points="758.25,-392.19 768.84,-392.44 760.72,-385.64 758.25,-392.19"/>
</g>
<!-- Node21&#45;&gt;Node11 -->
<g id="edge30" class="edge">
<title>Node21&#45;&gt;Node11</title>
<path fill="none" stroke="midnightblue" d="M676.22,-332.1C697.89,-322.01 727.4,-308.27 746.21,-299.52"/>
<polygon fill="midnightblue" stroke="midnightblue" points="674.47,-329.05 666.88,-336.44 677.42,-335.4 674.47,-329.05"/>
</g>
<!-- Node21&#45;&gt;Node13 -->
<g id="edge31" class="edge">
<title>Node21&#45;&gt;Node13</title>
<path fill="none" stroke="midnightblue" d="M649.23,-326.23C650.95,-301.31 656.64,-256.66 675.5,-224 684.28,-208.8 699.91,-195.78 711.16,-187.72"/>
<polygon fill="midnightblue" stroke="midnightblue" points="645.73,-326.28 648.68,-336.45 652.72,-326.66 645.73,-326.28"/>
</g>
<!-- Node22&#45;&gt;Node15 -->
<g id="edge43" class="edge">
<title>Node22&#45;&gt;Node15</title>
<path fill="none" stroke="midnightblue" d="M860.3,-440.63C867.74,-432.22 876.8,-421.72 884.5,-412 934.2,-349.29 988.93,-269.71 1006.63,-243.67"/>
<polygon fill="midnightblue" stroke="midnightblue" points="857.56,-438.44 853.51,-448.23 862.78,-443.11 857.56,-438.44"/>
</g>
<!-- Node22&#45;&gt;Node20 -->
<g id="edge41" class="edge">
<title>Node22&#45;&gt;Node20</title>
<path fill="none" stroke="midnightblue" d="M829.5,-441C819.93,-431.43 808.14,-419.64 800.25,-411.75"/>
<polygon fill="midnightblue" stroke="midnightblue" points="827.04,-443.49 836.58,-448.08 831.99,-438.54 827.04,-443.49"/>
</g>
<!-- Node23 -->
<g id="node23" class="node">
<title>Node23</title>
<g id="a_node23"><a xlink:href="NumericArray_8h.html" target="_top" xlink:title="Templated C++ wrapper for MNumericArray.">
<polygon fill="white" stroke="black" points="539,-168.5 539,-187.5 622,-187.5 622,-168.5 539,-168.5"/>
<text text-anchor="middle" x="580.5" y="-175.5" font-family="Helvetica,sans-Serif" font-size="10.00">NumericArray.h</text>
</a>
</g>
</g>
<!-- Node22&#45;&gt;Node23 -->
<g id="edge36" class="edge">
<title>Node22&#45;&gt;Node23</title>
<path fill="none" stroke="midnightblue" d="M811.99,-444.87C789.06,-436.3 758.12,-424.21 731.5,-412 714.15,-404.04 710.89,-399.87 693.5,-392 652.75,-373.55 626.79,-391.45 599.5,-356 559.35,-303.83 572.86,-215.94 578.53,-187.89"/>
<polygon fill="midnightblue" stroke="midnightblue" points="811.01,-448.24 821.61,-448.43 813.44,-441.67 811.01,-448.24"/>
</g>
<!-- Node24 -->
<g id="node24" class="node">
<title>Node24</title>
<g id="a_node24"><a xlink:href="Views_2NumericArray_8hpp.html" target="_top" xlink:title="Definition and implementation of NumericArrayView and NumericArrayTypedView.">
<polygon fill="white" stroke="black" points="974.5,-336.5 974.5,-355.5 1068.5,-355.5 1068.5,-336.5 974.5,-336.5"/>
<text text-anchor="middle" x="1021.5" y="-343.5" font-family="Helvetica,sans-Serif" font-size="10.00">NumericArray.hpp</text>
</a>
</g>
</g>
<!-- Node22&#45;&gt;Node24 -->
<g id="edge39" class="edge">
<title>Node22&#45;&gt;Node24</title>
<path fill="none" stroke="midnightblue" d="M902.81,-451.51C953.74,-445.31 1022.65,-433.21 1039.5,-412 1052.9,-395.13 1037.74,-368.93 1028.15,-355.53"/>
<polygon fill="midnightblue" stroke="midnightblue" points="902.09,-448.07 892.57,-452.71 902.91,-455.03 902.09,-448.07"/>
</g>
<!-- Node25 -->
<g id="node25" class="node">
<title>Node25</title>
<g id="a_node25"><a xlink:href="NumericArray_8cpp.html" target="_top" xlink:title="Definitions of MContainer&lt;MArgumentType::NumericArray&gt; (GenericNumericArray) methods.">
<polygon fill="white" stroke="black" points="936.5,-392.5 936.5,-411.5 1030.5,-411.5 1030.5,-392.5 936.5,-392.5"/>
<text text-anchor="middle" x="983.5" y="-399.5" font-family="Helvetica,sans-Serif" font-size="10.00">NumericArray.cpp</text>
</a>
</g>
</g>
<!-- Node22&#45;&gt;Node25 -->
<g id="edge42" class="edge">
<title>Node22&#45;&gt;Node25</title>
<path fill="none" stroke="midnightblue" d="M876.75,-444.77C902.67,-434.63 938.86,-420.47 961.74,-411.52"/>
<polygon fill="midnightblue" stroke="midnightblue" points="875.4,-441.54 867.37,-448.44 877.95,-448.06 875.4,-441.54"/>
</g>
<!-- Node23&#45;&gt;Node5 -->
<g id="edge37" class="edge">
<title>Node23&#45;&gt;Node5</title>
<path fill="none" stroke="midnightblue" d="M612.14,-164.78C695.32,-132.67 918.55,-46.5 988.93,-19.33"/>
<polygon fill="midnightblue" stroke="midnightblue" points="610.78,-161.56 602.71,-168.42 613.3,-168.09 610.78,-161.56"/>
</g>
<!-- Node23&#45;&gt;Node6 -->
<g id="edge38" class="edge">
<title>Node23&#45;&gt;Node6</title>
<path fill="none" stroke="midnightblue" d="M572.76,-158.89C567.17,-145.84 559.42,-127.81 552.5,-112 546.95,-99.31 540.41,-84.66 536.36,-75.61"/>
<polygon fill="midnightblue" stroke="midnightblue" points="569.58,-160.34 576.73,-168.15 576.01,-157.58 569.58,-160.34"/>
</g>
<!-- Node24&#45;&gt;Node5 -->
<g id="edge40" class="edge">
<title>Node24&#45;&gt;Node5</title>
<path fill="none" stroke="midnightblue" d="M1047.67,-331.66C1090.9,-307.55 1172.5,-252.32 1172.5,-179 1172.5,-179 1172.5,-179 1172.5,-121 1172.5,-53.86 1076.08,-24.84 1032.01,-15.09"/>
<polygon fill="midnightblue" stroke="midnightblue" points="1045.94,-328.62 1038.82,-336.46 1049.28,-334.77 1045.94,-328.62"/>
</g>
<!-- Node26&#45;&gt;Node15 -->
<g id="edge54" class="edge">
<title>Node26&#45;&gt;Node15</title>
<path fill="none" stroke="midnightblue" d="M780.72,-445.34C802.79,-437.98 829.5,-427 850.5,-412 913.58,-366.94 910.82,-335.92 964.5,-280 977.16,-266.82 992.74,-252.53 1002.65,-243.68"/>
<polygon fill="midnightblue" stroke="midnightblue" points="779.4,-442.09 770.94,-448.47 781.53,-448.75 779.4,-442.09"/>
</g>
<!-- Node26&#45;&gt;Node20 -->
<g id="edge53" class="edge">
<title>Node26&#45;&gt;Node20</title>
<path fill="none" stroke="midnightblue" d="M754.48,-440.72C763.82,-431.2 775.25,-419.56 782.91,-411.75"/>
<polygon fill="midnightblue" stroke="midnightblue" points="751.76,-438.49 747.25,-448.08 756.75,-443.4 751.76,-438.49"/>
</g>
<!-- Node27 -->
<g id="node27" class="node">
<title>Node27</title>
<g id="a_node27"><a xlink:href="Tensor_8h.html" target="_top" xlink:title="Templated C++ wrapper for MTensor.">
<polygon fill="white" stroke="black" points="468,-168.5 468,-187.5 521,-187.5 521,-168.5 468,-168.5"/>
<text text-anchor="middle" x="494.5" y="-175.5" font-family="Helvetica,sans-Serif" font-size="10.00">Tensor.h</text>
</a>
</g>
</g>
<!-- Node26&#45;&gt;Node27 -->
<g id="edge45" class="edge">
<title>Node26&#45;&gt;Node27</title>
<path fill="none" stroke="midnightblue" d="M696.43,-450.37C608.95,-433.98 409.84,-382.32 340.5,-244 315.2,-193.54 417.24,-182.24 467.73,-179.72"/>
<polygon fill="midnightblue" stroke="midnightblue" points="695.81,-453.82 706.28,-452.16 697.06,-446.93 695.81,-453.82"/>
</g>
<!-- Node31 -->
<g id="node31" class="node">
<title>Node31</title>
<g id="a_node31"><a xlink:href="Views_2Tensor_8hpp.html" target="_top" xlink:title="Definition and implementation of TensorView and TensorTypedView.">
<polygon fill="white" stroke="black" points="620.5,-392.5 620.5,-411.5 684.5,-411.5 684.5,-392.5 620.5,-392.5"/>
<text text-anchor="middle" x="652.5" y="-399.5" font-family="Helvetica,sans-Serif" font-size="10.00">Tensor.hpp</text>
</a>
</g>
</g>
<!-- Node26&#45;&gt;Node31 -->
<g id="edge52" class="edge">
<title>Node26&#45;&gt;Node31</title>
<path fill="none" stroke="midnightblue" d="M716.05,-442.9C700.28,-433 679.69,-420.07 666.28,-411.65"/>
<polygon fill="midnightblue" stroke="midnightblue" points="714.35,-445.97 724.68,-448.32 718.07,-440.04 714.35,-445.97"/>
</g>
<!-- Node27&#45;&gt;Node5 -->
<g id="edge46" class="edge">
<title>Node27&#45;&gt;Node5</title>
<path fill="none" stroke="midnightblue" d="M527.44,-164.89C589.48,-142.27 728.06,-92.57 846.5,-56 897.14,-40.37 957.39,-24.53 988.88,-16.47"/>
<polygon fill="midnightblue" stroke="midnightblue" points="526,-161.69 517.81,-168.41 528.41,-168.27 526,-161.69"/>
</g>
<!-- Node27&#45;&gt;Node6 -->
<g id="edge47" class="edge">
<title>Node27&#45;&gt;Node6</title>
<path fill="none" stroke="midnightblue" d="M514.55,-161.53C523.03,-153.71 531.99,-143.45 536.5,-132 543.96,-113.07 538.95,-88.62 535.32,-75.78"/>
<polygon fill="midnightblue" stroke="midnightblue" points="512.03,-159.07 506.71,-168.24 516.59,-164.39 512.03,-159.07"/>
</g>
<!-- Node28 -->
<g id="node28" class="node">
<title>Node28</title>
<g id="a_node28"><a xlink:href="ProgressMonitor_8h.html" target="_top" xlink:title="Definition of ProgressMonitor class.">
<polygon fill="white" stroke="black" points="312,-112.5 312,-131.5 407,-131.5 407,-112.5 312,-112.5"/>
<text text-anchor="middle" x="359.5" y="-119.5" font-family="Helvetica,sans-Serif" font-size="10.00">ProgressMonitor.h</text>
</a>
</g>
</g>
<!-- Node27&#45;&gt;Node28 -->
<g id="edge48" class="edge">
<title>Node27&#45;&gt;Node28</title>
<path fill="none" stroke="midnightblue" d="M463.59,-164.64C438.26,-154.5 403.07,-140.43 380.79,-131.52"/>
<polygon fill="midnightblue" stroke="midnightblue" points="462.52,-167.98 473.11,-168.44 465.12,-161.48 462.52,-167.98"/>
</g>
<!-- Node30 -->
<g id="node30" class="node">
<title>Node30</title>
<g id="a_node30"><a xlink:href="Tensor_8cpp.html" target="_top" xlink:title="Template specialization of certain methods from TypedTensor class for all underlying data types that ...">
<polygon fill="white" stroke="black" points="463.5,-112.5 463.5,-131.5 527.5,-131.5 527.5,-112.5 463.5,-112.5"/>
<text text-anchor="middle" x="495.5" y="-119.5" font-family="Helvetica,sans-Serif" font-size="10.00">Tensor.cpp</text>
</a>
</g>
</g>
<!-- Node27&#45;&gt;Node30 -->
<g id="edge51" class="edge">
<title>Node27&#45;&gt;Node30</title>
<path fill="none" stroke="midnightblue" d="M494.86,-157.8C495.02,-148.91 495.21,-138.78 495.34,-131.75"/>
<polygon fill="midnightblue" stroke="midnightblue" points="491.35,-158.02 494.67,-168.08 498.35,-158.15 491.35,-158.02"/>
</g>
<!-- Node28&#45;&gt;Node6 -->
<g id="edge49" class="edge">
<title>Node28&#45;&gt;Node6</title>
<path fill="none" stroke="midnightblue" d="M396.55,-109.44C429.16,-99.26 475.91,-84.66 505.22,-75.52"/>
<polygon fill="midnightblue" stroke="midnightblue" points="395.42,-106.12 386.91,-112.44 397.5,-112.8 395.42,-106.12"/>
</g>
<!-- Node28&#45;&gt;Node29 -->
<g id="edge50" class="edge">
<title>Node28&#45;&gt;Node29</title>
<path fill="none" stroke="midnightblue" d="M325.11,-109.17C295.55,-99 253.63,-84.59 227.26,-75.52"/>
<polygon fill="midnightblue" stroke="midnightblue" points="324.03,-112.5 334.62,-112.44 326.3,-105.88 324.03,-112.5"/>
</g>
<!-- Node33 -->
<g id="node33" class="node">
<title>Node33</title>
<g id="a_node33"><a xlink:href="MArray_8hpp.html" target="_top" xlink:title="Template base class for C++ wrappers of LibraryLink containers.">
<polygon fill="white" stroke="black" points="487,-224.5 487,-243.5 552,-243.5 552,-224.5 487,-224.5"/>
<text text-anchor="middle" x="519.5" y="-231.5" font-family="Helvetica,sans-Serif" font-size="10.00">MArray.hpp</text>
</a>
</g>
</g>
<!-- Node32&#45;&gt;Node33 -->
<g id="edge56" class="edge">
<title>Node32&#45;&gt;Node33</title>
<path fill="none" stroke="midnightblue" d="M491.52,-271.86C498.62,-262.5 507.1,-251.33 512.86,-243.75"/>
<polygon fill="midnightblue" stroke="midnightblue" points="488.53,-270 485.27,-280.08 494.11,-274.24 488.53,-270"/>
</g>
<!-- Node34 -->
<g id="node34" class="node">
<title>Node34</title>
<g id="a_node34"><a xlink:href="MArrayDimensions_8cpp.html" target="_top" xlink:title=" ">
<polygon fill="white" stroke="black" points="350,-224.5 350,-243.5 469,-243.5 469,-224.5 350,-224.5"/>
<text text-anchor="middle" x="409.5" y="-231.5" font-family="Helvetica,sans-Serif" font-size="10.00">MArrayDimensions.cpp</text>
</a>
</g>
</g>
<!-- Node32&#45;&gt;Node34 -->
<g id="edge61" class="edge">
<title>Node32&#45;&gt;Node34</title>
<path fill="none" stroke="midnightblue" d="M459.46,-274.1C447.04,-264.38 431.26,-252.03 420.79,-243.83"/>
<polygon fill="midnightblue" stroke="midnightblue" points="457.38,-276.92 467.41,-280.32 461.7,-271.4 457.38,-276.92"/>
</g>
<!-- Node33&#45;&gt;Node9 -->
<g id="edge60" class="edge">
<title>Node33&#45;&gt;Node9</title>
<path fill="none" stroke="midnightblue" d="M482.93,-221.31C426.64,-202.49 323.1,-164.31 302.5,-132 272.77,-85.37 352.44,-38.49 390.06,-19.64"/>
<polygon fill="midnightblue" stroke="midnightblue" points="481.94,-224.66 492.53,-224.48 484.13,-218.02 481.94,-224.66"/>
</g>
<!-- Node33&#45;&gt;Node17 -->
<g id="edge57" class="edge">
<title>Node33&#45;&gt;Node17</title>
<path fill="none" stroke="midnightblue" d="M562.04,-228.32C660.97,-217.44 904.14,-190.7 984.35,-181.88"/>
<polygon fill="midnightblue" stroke="midnightblue" points="561.65,-224.84 552.1,-229.42 562.42,-231.8 561.65,-224.84"/>
</g>
<!-- Node33&#45;&gt;Node23 -->
<g id="edge58" class="edge">
<title>Node33&#45;&gt;Node23</title>
<path fill="none" stroke="midnightblue" d="M536.97,-217.54C547.84,-207.91 561.44,-195.87 570.52,-187.83"/>
<polygon fill="midnightblue" stroke="midnightblue" points="534.47,-215.07 529.3,-224.32 539.11,-220.32 534.47,-215.07"/>
</g>
<!-- Node33&#45;&gt;Node27 -->
<g id="edge59" class="edge">
<title>Node33&#45;&gt;Node27</title>
<path fill="none" stroke="midnightblue" d="M511.16,-214.98C506.92,-205.82 501.95,-195.09 498.55,-187.75"/>
<polygon fill="midnightblue" stroke="midnightblue" points="507.99,-216.48 515.37,-224.08 514.35,-213.54 507.99,-216.48"/>
</g>
<!-- Node40&#45;&gt;Node8 -->
<g id="edge73" class="edge">
<title>Node40&#45;&gt;Node8</title>
<path fill="none" stroke="midnightblue" d="M1381.31,-550.28C1378.94,-528.42 1375.5,-491.14 1375.5,-459 1375.5,-459 1375.5,-459 1375.5,-121 1375.5,-88.6 1366.73,-77.51 1342.5,-56 1316.82,-33.21 1278.64,-21.65 1251.64,-16"/>
<polygon fill="midnightblue" stroke="midnightblue" points="1377.86,-550.91 1382.45,-560.46 1384.81,-550.13 1377.86,-550.91"/>
</g>
</g>
</svg>
