<?xml version="1.0" encoding="UTF-8" standalone="no"?>
<!DOCTYPE svg PUBLIC "-//W3C//DTD SVG 1.1//EN"
 "http://www.w3.org/Graphics/SVG/1.1/DTD/svg11.dtd">
<!-- Generated by graphviz version 2.43.0 (0)
 -->
<!-- Title: WSStream.hpp Pages: 1 -->
<svg width="2032pt" height="308pt"
 viewBox="0.00 0.00 2031.50 308.00" xmlns="http://www.w3.org/2000/svg" xmlns:xlink="http://www.w3.org/1999/xlink">
<g id="graph0" class="graph" transform="scale(1 1) rotate(0) translate(4 304)">
<title>WSStream.hpp</title>
<polygon fill="white" stroke="transparent" points="-4,4 -4,-304 2027.5,-304 2027.5,4 -4,4"/>
<!-- Node1 -->
<g id="node1" class="node">
<title>Node1</title>
<g id="a_node1"><a xlink:title="Header file for WSStream class.">
<polygon fill="#bfbfbf" stroke="black" points="1600,-280.5 1600,-299.5 1683,-299.5 1683,-280.5 1600,-280.5"/>
<text text-anchor="middle" x="1641.5" y="-287.5" font-family="Helvetica,sans-Serif" font-size="10.00">WSStream.hpp</text>
</a>
</g>
</g>
<!-- Node2 -->
<g id="node2" class="node">
<title>Node2</title>
<g id="a_node2"><a xlink:title=" ">
<polygon fill="white" stroke="#bfbfbf" points="1613.5,-168.5 1613.5,-187.5 1669.5,-187.5 1669.5,-168.5 1613.5,-168.5"/>
<text text-anchor="middle" x="1641.5" y="-175.5" font-family="Helvetica,sans-Serif" font-size="10.00">algorithm</text>
</a>
</g>
</g>
<!-- Node1&#45;&gt;Node2 -->
<g id="edge1" class="edge">
<title>Node1&#45;&gt;Node2</title>
<path fill="none" stroke="midnightblue" d="M1641.5,-280.37C1641.5,-262.62 1641.5,-221.67 1641.5,-197.6"/>
<polygon fill="midnightblue" stroke="midnightblue" points="1645,-197.59 1641.5,-187.59 1638,-197.59 1645,-197.59"/>
</g>
<!-- Node3 -->
<g id="node3" class="node">
<title>Node3</title>
<g id="a_node3"><a xlink:title=" ">
<polygon fill="white" stroke="#bfbfbf" points="1802,-224.5 1802,-243.5 1849,-243.5 1849,-224.5 1802,-224.5"/>
<text text-anchor="middle" x="1825.5" y="-231.5" font-family="Helvetica,sans-Serif" font-size="10.00">iterator</text>
</a>
</g>
</g>
<!-- Node1&#45;&gt;Node3 -->
<g id="edge2" class="edge">
<title>Node1&#45;&gt;Node3</title>
<path fill="none" stroke="midnightblue" d="M1670.66,-280.44C1703.67,-270.75 1757.38,-254.99 1792.07,-244.81"/>
<polygon fill="midnightblue" stroke="midnightblue" points="1793.14,-248.15 1801.75,-241.97 1791.17,-241.43 1793.14,-248.15"/>
</g>
<!-- Node4 -->
<g id="node4" class="node">
<title>Node4</title>
<g id="a_node4"><a xlink:title=" ">
<polygon fill="white" stroke="#bfbfbf" points="1867,-224.5 1867,-243.5 1902,-243.5 1902,-224.5 1867,-224.5"/>
<text text-anchor="middle" x="1884.5" y="-231.5" font-family="Helvetica,sans-Serif" font-size="10.00">map</text>
</a>
</g>
</g>
<!-- Node1&#45;&gt;Node4 -->
<g id="edge3" class="edge">
<title>Node1&#45;&gt;Node4</title>
<path fill="none" stroke="midnightblue" d="M1683.07,-282.02C1724.97,-274.63 1791.61,-261.88 1857.29,-244.07"/>
<polygon fill="midnightblue" stroke="midnightblue" points="1858.26,-247.44 1866.97,-241.41 1856.4,-240.69 1858.26,-247.44"/>
</g>
<!-- Node5 -->
<g id="node5" class="node">
<title>Node5</title>
<g id="a_node5"><a xlink:title=" ">
<polygon fill="white" stroke="#bfbfbf" points="1920,-224.5 1920,-243.5 1961,-243.5 1961,-224.5 1920,-224.5"/>
<text text-anchor="middle" x="1940.5" y="-231.5" font-family="Helvetica,sans-Serif" font-size="10.00">stack</text>
</a>
</g>
</g>
<!-- Node1&#45;&gt;Node5 -->
<g id="edge4" class="edge">
<title>Node1&#45;&gt;Node5</title>
<path fill="none" stroke="midnightblue" d="M1683.02,-283.86C1734.35,-277.12 1824.5,-264.01 1909.84,-244.16"/>
<polygon fill="midnightblue" stroke="midnightblue" points="1910.76,-247.54 1919.68,-241.83 1909.15,-240.72 1910.76,-247.54"/>
</g>
<!-- Node6 -->
<g id="node6" class="node">
<title>Node6</title>
<g id="a_node6"><a xlink:title=" ">
<polygon fill="white" stroke="#bfbfbf" points="641.5,-56.5 641.5,-75.5 703.5,-75.5 703.5,-56.5 641.5,-56.5"/>
<text text-anchor="middle" x="672.5" y="-63.5" font-family="Helvetica,sans-Serif" font-size="10.00">type_traits</text>
</a>
</g>
</g>
<!-- Node1&#45;&gt;Node6 -->
<g id="edge5" class="edge">
<title>Node1&#45;&gt;Node6</title>
<path fill="none" stroke="midnightblue" d="M1599.78,-288.48C1444.69,-286.3 906.73,-276.44 837.5,-244 762.07,-208.66 704.5,-121.88 682.38,-84.55"/>
<polygon fill="midnightblue" stroke="midnightblue" points="685.35,-82.69 677.31,-75.79 679.29,-86.2 685.35,-82.69"/>
</g>
<!-- Node7 -->
<g id="node7" class="node">
<title>Node7</title>
<g id="a_node7"><a xlink:title=" ">
<polygon fill="white" stroke="#bfbfbf" points="1293.5,-56.5 1293.5,-75.5 1333.5,-75.5 1333.5,-56.5 1293.5,-56.5"/>
<text text-anchor="middle" x="1313.5" y="-63.5" font-family="Helvetica,sans-Serif" font-size="10.00">utility</text>
</a>
</g>
</g>
<!-- Node1&#45;&gt;Node7 -->
<g id="edge6" class="edge">
<title>Node1&#45;&gt;Node7</title>
<path fill="none" stroke="midnightblue" d="M1656.09,-280.3C1667.85,-272.43 1683.67,-259.67 1691.5,-244 1706.63,-213.72 1715.07,-196.3 1696.5,-168 1662.21,-115.74 1627.35,-130.02 1567.5,-112 1556.81,-108.78 1408.67,-83.28 1343.69,-72.15"/>
<polygon fill="midnightblue" stroke="midnightblue" points="1344.1,-68.67 1333.65,-70.44 1342.92,-75.57 1344.1,-68.67"/>
</g>
<!-- Node8 -->
<g id="node8" class="node">
<title>Node8</title>
<g id="a_node8"><a xlink:title=" ">
<polygon fill="white" stroke="#bfbfbf" points="1979.5,-224.5 1979.5,-243.5 2023.5,-243.5 2023.5,-224.5 1979.5,-224.5"/>
<text text-anchor="middle" x="2001.5" y="-231.5" font-family="Helvetica,sans-Serif" font-size="10.00">vector</text>
</a>
</g>
</g>
<!-- Node1&#45;&gt;Node8 -->
<g id="edge7" class="edge">
<title>Node1&#45;&gt;Node8</title>
<path fill="none" stroke="midnightblue" d="M1683.13,-285.28C1743.99,-279.42 1860.93,-266.52 1969.14,-244.02"/>
<polygon fill="midnightblue" stroke="midnightblue" points="1970.19,-247.38 1979.25,-241.88 1968.74,-240.53 1970.19,-247.38"/>
</g>
<!-- Node9 -->
<g id="node9" class="node">
<title>Node9</title>
<g id="a_node9"><a xlink:title=" ">
<polygon fill="white" stroke="#bfbfbf" points="995.5,-0.5 995.5,-19.5 1041.5,-19.5 1041.5,-0.5 995.5,-0.5"/>
<text text-anchor="middle" x="1018.5" y="-7.5" font-family="Helvetica,sans-Serif" font-size="10.00">wstp.h</text>
</a>
</g>
</g>
<!-- Node1&#45;&gt;Node9 -->
<g id="edge8" class="edge">
<title>Node1&#45;&gt;Node9</title>
<path fill="none" stroke="midnightblue" d="M1667.89,-280.47C1706.42,-266.16 1773.5,-233.44 1773.5,-179 1773.5,-179 1773.5,-179 1773.5,-121 1773.5,-47.12 1692.3,-73.43 1620.5,-56 1511.09,-29.44 1161.32,-15.77 1051.69,-12.06"/>
<polygon fill="midnightblue" stroke="midnightblue" points="1051.66,-8.55 1041.55,-11.72 1051.43,-15.55 1051.66,-8.55"/>
</g>
<!-- Node10 -->
<g id="node10" class="node">
<title>Node10</title>
<g id="a_node10"><a xlink:href="Errors_8h.html" target="_top" xlink:title="Definitions of error names and error codes used across LLU.">
<polygon fill="white" stroke="black" points="1446.5,-112.5 1446.5,-131.5 1558.5,-131.5 1558.5,-112.5 1446.5,-112.5"/>
<text text-anchor="middle" x="1502.5" y="-119.5" font-family="Helvetica,sans-Serif" font-size="10.00">LLU/ErrorLog/Errors.h</text>
</a>
</g>
</g>
<!-- Node1&#45;&gt;Node10 -->
<g id="edge9" class="edge">
<title>Node1&#45;&gt;Node10</title>
<path fill="none" stroke="midnightblue" d="M1648.86,-280.43C1666.17,-259.22 1705.98,-203.4 1678.5,-168 1664.86,-150.44 1612.85,-138.57 1568.87,-131.45"/>
<polygon fill="midnightblue" stroke="midnightblue" points="1569.18,-127.96 1558.76,-129.87 1568.1,-134.87 1569.18,-127.96"/>
</g>
<!-- Node12 -->
<g id="node12" class="node">
<title>Node12</title>
<g id="a_node12"><a xlink:href="Utilities_8hpp.html" target="_top" xlink:title="Short but generally useful functions.">
<polygon fill="white" stroke="black" points="748,-112.5 748,-131.5 837,-131.5 837,-112.5 748,-112.5"/>
<text text-anchor="middle" x="792.5" y="-119.5" font-family="Helvetica,sans-Serif" font-size="10.00">LLU/Utilities.hpp</text>
</a>
</g>
</g>
<!-- Node1&#45;&gt;Node12 -->
<g id="edge11" class="edge">
<title>Node1&#45;&gt;Node12</title>
<path fill="none" stroke="midnightblue" d="M1599.98,-288.93C1497.55,-288.14 1224.91,-282.28 1001.5,-244 909.25,-228.2 858.57,-259.77 798.5,-188 787.94,-175.38 787.43,-156.17 788.96,-141.9"/>
<polygon fill="midnightblue" stroke="midnightblue" points="792.47,-142.15 790.48,-131.74 785.54,-141.11 792.47,-142.15"/>
</g>
<!-- Node24 -->
<g id="node24" class="node">
<title>Node24</title>
<g id="a_node24"><a xlink:href="Get_8h.html" target="_top" xlink:title="Header file with classes related to reading data from WSTP.">
<polygon fill="white" stroke="black" points="1142.5,-224.5 1142.5,-243.5 1236.5,-243.5 1236.5,-224.5 1142.5,-224.5"/>
<text text-anchor="middle" x="1189.5" y="-231.5" font-family="Helvetica,sans-Serif" font-size="10.00">LLU/WSTP/Get.h</text>
</a>
</g>
</g>
<!-- Node1&#45;&gt;Node24 -->
<g id="edge26" class="edge">
<title>Node1&#45;&gt;Node24</title>
<path fill="none" stroke="midnightblue" d="M1599.79,-284.02C1518.58,-274.32 1339.15,-252.88 1246.84,-241.85"/>
<polygon fill="midnightblue" stroke="midnightblue" points="1247.18,-238.37 1236.83,-240.65 1246.35,-245.32 1247.18,-238.37"/>
</g>
<!-- Node27 -->
<g id="node27" class="node">
<title>Node27</title>
<g id="a_node27"><a xlink:href="WSTP_2Utilities_8h.html" target="_top" xlink:title="Header file with miscellaneous utilities used throughout the WSTP&#45;related part of LibraryLinkUtilitie...">
<polygon fill="white" stroke="black" points="1256,-168.5 1256,-187.5 1367,-187.5 1367,-168.5 1256,-168.5"/>
<text text-anchor="middle" x="1311.5" y="-175.5" font-family="Helvetica,sans-Serif" font-size="10.00">LLU/WSTP/Utilities.h</text>
</a>
</g>
</g>
<!-- Node1&#45;&gt;Node27 -->
<g id="edge62" class="edge">
<title>Node1&#45;&gt;Node27</title>
<path fill="none" stroke="midnightblue" d="M1599.66,-282.13C1559.65,-274.91 1497.97,-262.08 1446.5,-244 1406.06,-229.8 1361.75,-206.95 1335.31,-192.47"/>
<polygon fill="midnightblue" stroke="midnightblue" points="1336.86,-189.33 1326.41,-187.55 1333.47,-195.45 1336.86,-189.33"/>
</g>
<!-- Node30 -->
<g id="node30" class="node">
<title>Node30</title>
<g id="a_node30"><a xlink:href="Put_8h.html" target="_top" xlink:title="Header file with classes related to sending data through WSTP.">
<polygon fill="white" stroke="black" points="1011,-224.5 1011,-243.5 1104,-243.5 1104,-224.5 1011,-224.5"/>
<text text-anchor="middle" x="1057.5" y="-231.5" font-family="Helvetica,sans-Serif" font-size="10.00">LLU/WSTP/Put.h</text>
</a>
</g>
</g>
<!-- Node1&#45;&gt;Node30 -->
<g id="edge47" class="edge">
<title>Node1&#45;&gt;Node30</title>
<path fill="none" stroke="midnightblue" d="M1599.98,-285.74C1513.25,-278.84 1306.56,-261.91 1133.5,-244 1127.26,-243.35 1120.73,-242.64 1114.23,-241.9"/>
<polygon fill="midnightblue" stroke="midnightblue" points="1114.43,-238.4 1104.1,-240.74 1113.63,-245.36 1114.43,-238.4"/>
</g>
<!-- Node31 -->
<g id="node31" class="node">
<title>Node31</title>
<g id="a_node31"><a xlink:href="Strings_8h.html" target="_top" xlink:title="Definitions of multiple structures and type aliases related to string handling in WSTP.">
<polygon fill="white" stroke="black" points="1455,-224.5 1455,-243.5 1564,-243.5 1564,-224.5 1455,-224.5"/>
<text text-anchor="middle" x="1509.5" y="-231.5" font-family="Helvetica,sans-Serif" font-size="10.00">LLU/WSTP/Strings.h</text>
</a>
</g>
</g>
<!-- Node1&#45;&gt;Node31 -->
<g id="edge53" class="edge">
<title>Node1&#45;&gt;Node31</title>
<path fill="none" stroke="midnightblue" d="M1620.58,-280.44C1598.76,-271.52 1564.35,-257.44 1539.61,-247.32"/>
<polygon fill="midnightblue" stroke="midnightblue" points="1540.9,-244.06 1530.32,-243.52 1538.25,-250.54 1540.9,-244.06"/>
</g>
<!-- Node32 -->
<g id="node32" class="node">
<title>Node32</title>
<g id="a_node32"><a xlink:href="UtilityTypeTraits_8hpp.html" target="_top" xlink:title="Type traits used by WSStream to identify types supported by WSTP.">
<polygon fill="white" stroke="black" points="527.5,-168.5 527.5,-187.5 687.5,-187.5 687.5,-168.5 527.5,-168.5"/>
<text text-anchor="middle" x="607.5" y="-175.5" font-family="Helvetica,sans-Serif" font-size="10.00">LLU/WSTP/UtilityTypeTraits.hpp</text>
</a>
</g>
</g>
<!-- Node1&#45;&gt;Node32 -->
<g id="edge63" class="edge">
<title>Node1&#45;&gt;Node32</title>
<path fill="none" stroke="midnightblue" d="M1599.84,-288.35C1429.03,-285.52 787.24,-273.03 701.5,-244 671.14,-233.72 641.66,-210.53 624.04,-194.81"/>
<polygon fill="midnightblue" stroke="midnightblue" points="626.13,-191.98 616.39,-187.79 621.39,-197.13 626.13,-191.98"/>
</g>
<!-- Node11 -->
<g id="node11" class="node">
<title>Node11</title>
<g id="a_node11"><a xlink:title=" ">
<polygon fill="white" stroke="#bfbfbf" points="1375,-56.5 1375,-75.5 1416,-75.5 1416,-56.5 1375,-56.5"/>
<text text-anchor="middle" x="1395.5" y="-63.5" font-family="Helvetica,sans-Serif" font-size="10.00">string</text>
</a>
</g>
</g>
<!-- Node10&#45;&gt;Node11 -->
<g id="edge10" class="edge">
<title>Node10&#45;&gt;Node11</title>
<path fill="none" stroke="midnightblue" d="M1485.31,-112.32C1468.15,-103.66 1441.55,-90.24 1421.75,-80.25"/>
<polygon fill="midnightblue" stroke="midnightblue" points="1423.15,-77.04 1412.65,-75.65 1420,-83.28 1423.15,-77.04"/>
</g>
<!-- Node12&#45;&gt;Node6 -->
<g id="edge14" class="edge">
<title>Node12&#45;&gt;Node6</title>
<path fill="none" stroke="midnightblue" d="M773.49,-112.44C753.91,-103.64 723.19,-89.81 700.77,-79.72"/>
<polygon fill="midnightblue" stroke="midnightblue" points="701.98,-76.43 691.43,-75.52 699.11,-82.81 701.98,-76.43"/>
</g>
<!-- Node12&#45;&gt;Node7 -->
<g id="edge15" class="edge">
<title>Node12&#45;&gt;Node7</title>
<path fill="none" stroke="midnightblue" d="M837.37,-116.35C941.15,-105.59 1195.58,-79.22 1283.24,-70.14"/>
<polygon fill="midnightblue" stroke="midnightblue" points="1283.73,-73.6 1293.31,-69.09 1283,-66.64 1283.73,-73.6"/>
</g>
<!-- Node13 -->
<g id="node13" class="node">
<title>Node13</title>
<g id="a_node13"><a xlink:title=" ">
<polygon fill="white" stroke="#bfbfbf" points="722,-56.5 722,-75.5 775,-75.5 775,-56.5 722,-56.5"/>
<text text-anchor="middle" x="748.5" y="-63.5" font-family="Helvetica,sans-Serif" font-size="10.00">complex</text>
</a>
</g>
</g>
<!-- Node12&#45;&gt;Node13 -->
<g id="edge12" class="edge">
<title>Node12&#45;&gt;Node13</title>
<path fill="none" stroke="midnightblue" d="M785.23,-112.08C778.96,-104.38 769.71,-93.03 762.07,-83.65"/>
<polygon fill="midnightblue" stroke="midnightblue" points="764.66,-81.29 755.63,-75.75 759.23,-85.71 764.66,-81.29"/>
</g>
<!-- Node14 -->
<g id="node14" class="node">
<title>Node14</title>
<g id="a_node14"><a xlink:title=" ">
<polygon fill="white" stroke="#bfbfbf" points="895.5,-56.5 895.5,-75.5 941.5,-75.5 941.5,-56.5 895.5,-56.5"/>
<text text-anchor="middle" x="918.5" y="-63.5" font-family="Helvetica,sans-Serif" font-size="10.00">cstdint</text>
</a>
</g>
</g>
<!-- Node12&#45;&gt;Node14 -->
<g id="edge13" class="edge">
<title>Node12&#45;&gt;Node14</title>
<path fill="none" stroke="midnightblue" d="M812.47,-112.44C833.11,-103.6 865.56,-89.69 889.13,-79.59"/>
<polygon fill="midnightblue" stroke="midnightblue" points="890.82,-82.67 898.63,-75.52 888.06,-76.24 890.82,-82.67"/>
</g>
<!-- Node15 -->
<g id="node15" class="node">
<title>Node15</title>
<g id="a_node15"><a xlink:title=" ">
<polygon fill="white" stroke="#bfbfbf" points="793.5,-56.5 793.5,-75.5 839.5,-75.5 839.5,-56.5 793.5,-56.5"/>
<text text-anchor="middle" x="816.5" y="-63.5" font-family="Helvetica,sans-Serif" font-size="10.00">variant</text>
</a>
</g>
</g>
<!-- Node12&#45;&gt;Node15 -->
<g id="edge16" class="edge">
<title>Node12&#45;&gt;Node15</title>
<path fill="none" stroke="midnightblue" d="M796.46,-112.08C799.71,-104.77 804.42,-94.18 808.45,-85.1"/>
<polygon fill="midnightblue" stroke="midnightblue" points="811.75,-86.31 812.61,-75.75 805.35,-83.47 811.75,-86.31"/>
</g>
<!-- Node16 -->
<g id="node16" class="node">
<title>Node16</title>
<g id="a_node16"><a xlink:href="LibraryData_8h.html" target="_top" xlink:title=" ">
<polygon fill="white" stroke="black" points="415.5,-56.5 415.5,-75.5 511.5,-75.5 511.5,-56.5 415.5,-56.5"/>
<text text-anchor="middle" x="463.5" y="-63.5" font-family="Helvetica,sans-Serif" font-size="10.00">LLU/LibraryData.h</text>
</a>
</g>
</g>
<!-- Node12&#45;&gt;Node16 -->
<g id="edge17" class="edge">
<title>Node12&#45;&gt;Node16</title>
<path fill="none" stroke="midnightblue" d="M747.79,-113.66C689.17,-104.04 586.22,-87.14 521.62,-76.54"/>
<polygon fill="midnightblue" stroke="midnightblue" points="522.02,-73.06 511.59,-74.89 520.89,-79.97 522.02,-73.06"/>
</g>
<!-- Node16&#45;&gt;Node9 -->
<g id="edge20" class="edge">
<title>Node16&#45;&gt;Node9</title>
<path fill="none" stroke="midnightblue" d="M511.53,-57.77C516.25,-57.14 520.96,-56.54 525.5,-56 615.17,-45.41 889.77,-21.89 985.32,-13.8"/>
<polygon fill="midnightblue" stroke="midnightblue" points="985.62,-17.28 995.29,-12.95 985.03,-10.31 985.62,-17.28"/>
</g>
<!-- Node17 -->
<g id="node17" class="node">
<title>Node17</title>
<g id="a_node17"><a xlink:title=" ">
<polygon fill="white" stroke="#bfbfbf" points="841.5,-0.5 841.5,-19.5 893.5,-19.5 893.5,-0.5 841.5,-0.5"/>
<text text-anchor="middle" x="867.5" y="-7.5" font-family="Helvetica,sans-Serif" font-size="10.00">memory</text>
</a>
</g>
</g>
<!-- Node16&#45;&gt;Node17 -->
<g id="edge18" class="edge">
<title>Node16&#45;&gt;Node17</title>
<path fill="none" stroke="midnightblue" d="M511.55,-57.96C516.27,-57.29 520.97,-56.63 525.5,-56 636.81,-40.6 768.69,-23.6 831.18,-15.62"/>
<polygon fill="midnightblue" stroke="midnightblue" points="831.83,-19.06 841.31,-14.32 830.95,-12.12 831.83,-19.06"/>
</g>
<!-- Node18 -->
<g id="node18" class="node">
<title>Node18</title>
<g id="a_node18"><a xlink:title=" ">
<polygon fill="white" stroke="#bfbfbf" points="707.5,-0.5 707.5,-19.5 769.5,-19.5 769.5,-0.5 707.5,-0.5"/>
<text text-anchor="middle" x="738.5" y="-7.5" font-family="Helvetica,sans-Serif" font-size="10.00">dllexport.h</text>
</a>
</g>
</g>
<!-- Node16&#45;&gt;Node18 -->
<g id="edge19" class="edge">
<title>Node16&#45;&gt;Node18</title>
<path fill="none" stroke="midnightblue" d="M509.75,-56.47C554.88,-48.07 625.74,-34.66 697.11,-20.04"/>
<polygon fill="midnightblue" stroke="midnightblue" points="698.09,-23.41 707.18,-17.96 696.68,-16.55 698.09,-23.41"/>
</g>
<!-- Node19 -->
<g id="node19" class="node">
<title>Node19</title>
<g id="a_node19"><a xlink:title=" ">
<polygon fill="white" stroke="#bfbfbf" points="0,-0.5 0,-19.5 89,-19.5 89,-0.5 0,-0.5"/>
<text text-anchor="middle" x="44.5" y="-7.5" font-family="Helvetica,sans-Serif" font-size="10.00">WolframLibrary.h</text>
</a>
</g>
</g>
<!-- Node16&#45;&gt;Node19 -->
<g id="edge21" class="edge">
<title>Node16&#45;&gt;Node19</title>
<path fill="none" stroke="midnightblue" d="M415.44,-59.8C347.31,-52.28 218.5,-37.47 99.06,-20.18"/>
<polygon fill="midnightblue" stroke="midnightblue" points="99.41,-16.69 89.01,-18.71 98.4,-23.62 99.41,-16.69"/>
</g>
<!-- Node20 -->
<g id="node20" class="node">
<title>Node20</title>
<g id="a_node20"><a xlink:title=" ">
<polygon fill="white" stroke="#bfbfbf" points="107,-0.5 107,-19.5 250,-19.5 250,-0.5 107,-0.5"/>
<text text-anchor="middle" x="178.5" y="-7.5" font-family="Helvetica,sans-Serif" font-size="10.00">WolframIOLibraryFunctions.h</text>
</a>
</g>
</g>
<!-- Node16&#45;&gt;Node20 -->
<g id="edge22" class="edge">
<title>Node16&#45;&gt;Node20</title>
<path fill="none" stroke="midnightblue" d="M418.34,-56.44C368.21,-46.94 287.28,-31.61 233.49,-21.42"/>
<polygon fill="midnightblue" stroke="midnightblue" points="233.92,-17.94 223.45,-19.52 232.62,-24.82 233.92,-17.94"/>
</g>
<!-- Node21 -->
<g id="node21" class="node">
<title>Node21</title>
<g id="a_node21"><a xlink:title=" ">
<polygon fill="white" stroke="#bfbfbf" points="268.5,-0.5 268.5,-19.5 384.5,-19.5 384.5,-0.5 268.5,-0.5"/>
<text text-anchor="middle" x="326.5" y="-7.5" font-family="Helvetica,sans-Serif" font-size="10.00">WolframImageLibrary.h</text>
</a>
</g>
</g>
<!-- Node16&#45;&gt;Node21 -->
<g id="edge23" class="edge">
<title>Node16&#45;&gt;Node21</title>
<path fill="none" stroke="midnightblue" d="M441.79,-56.44C419.15,-47.52 383.43,-33.44 357.75,-23.32"/>
<polygon fill="midnightblue" stroke="midnightblue" points="358.69,-19.93 348.11,-19.52 356.13,-26.44 358.69,-19.93"/>
</g>
<!-- Node22 -->
<g id="node22" class="node">
<title>Node22</title>
<g id="a_node22"><a xlink:title=" ">
<polygon fill="white" stroke="#bfbfbf" points="403,-0.5 403,-19.5 552,-19.5 552,-0.5 403,-0.5"/>
<text text-anchor="middle" x="477.5" y="-7.5" font-family="Helvetica,sans-Serif" font-size="10.00">WolframNumericArrayLibrary.h</text>
</a>
</g>
</g>
<!-- Node16&#45;&gt;Node22 -->
<g id="edge24" class="edge">
<title>Node16&#45;&gt;Node22</title>
<path fill="none" stroke="midnightblue" d="M465.81,-56.08C467.67,-48.93 470.34,-38.64 472.65,-29.69"/>
<polygon fill="midnightblue" stroke="midnightblue" points="476.11,-30.31 475.23,-19.75 469.33,-28.55 476.11,-30.31"/>
</g>
<!-- Node23 -->
<g id="node23" class="node">
<title>Node23</title>
<g id="a_node23"><a xlink:title=" ">
<polygon fill="white" stroke="#bfbfbf" points="570,-0.5 570,-19.5 689,-19.5 689,-0.5 570,-0.5"/>
<text text-anchor="middle" x="629.5" y="-7.5" font-family="Helvetica,sans-Serif" font-size="10.00">WolframSparseLibrary.h</text>
</a>
</g>
</g>
<!-- Node16&#45;&gt;Node23 -->
<g id="edge25" class="edge">
<title>Node16&#45;&gt;Node23</title>
<path fill="none" stroke="midnightblue" d="M489.8,-56.44C517.85,-47.32 562.44,-32.81 593.68,-22.65"/>
<polygon fill="midnightblue" stroke="midnightblue" points="594.89,-25.94 603.32,-19.52 592.73,-19.28 594.89,-25.94"/>
</g>
<!-- Node24&#45;&gt;Node9 -->
<g id="edge30" class="edge">
<title>Node24&#45;&gt;Node9</title>
<path fill="none" stroke="midnightblue" d="M1182.8,-224.3C1157.26,-191.15 1065.81,-72.41 1031.56,-27.96"/>
<polygon fill="midnightblue" stroke="midnightblue" points="1034.22,-25.67 1025.34,-19.88 1028.67,-29.94 1034.22,-25.67"/>
</g>
<!-- Node24&#45;&gt;Node10 -->
<g id="edge31" class="edge">
<title>Node24&#45;&gt;Node10</title>
<path fill="none" stroke="midnightblue" d="M1236.66,-228.96C1282.37,-223.76 1352.91,-212.32 1409.5,-188 1438.43,-175.57 1467.49,-153.32 1485.24,-138.36"/>
<polygon fill="midnightblue" stroke="midnightblue" points="1487.7,-140.86 1492.99,-131.68 1483.13,-135.55 1487.7,-140.86"/>
</g>
<!-- Node24&#45;&gt;Node11 -->
<g id="edge29" class="edge">
<title>Node24&#45;&gt;Node11</title>
<path fill="none" stroke="midnightblue" d="M1194.7,-224.23C1201.6,-211.4 1211.95,-186.98 1203.5,-168 1193.77,-146.15 1173.23,-153.85 1163.5,-132 1159.88,-123.88 1157.84,-118.86 1163.5,-112 1166.72,-108.1 1302.5,-83.53 1364.82,-72.43"/>
<polygon fill="midnightblue" stroke="midnightblue" points="1365.62,-75.84 1374.85,-70.65 1364.4,-68.95 1365.62,-75.84"/>
</g>
<!-- Node24&#45;&gt;Node12 -->
<g id="edge32" class="edge">
<title>Node24&#45;&gt;Node12</title>
<path fill="none" stroke="midnightblue" d="M1142.45,-227.11C1051.49,-215.67 859.88,-191.28 853.5,-188 832.08,-176.98 814.15,-155.32 803.39,-140.04"/>
<polygon fill="midnightblue" stroke="midnightblue" points="806.13,-137.85 797.65,-131.5 800.32,-141.76 806.13,-137.85"/>
</g>
<!-- Node24&#45;&gt;Node17 -->
<g id="edge28" class="edge">
<title>Node24&#45;&gt;Node17</title>
<path fill="none" stroke="midnightblue" d="M1142.19,-227.5C1059.2,-217.65 895.28,-197.15 886.5,-188 845.16,-144.95 855.38,-66.14 862.89,-30.01"/>
<polygon fill="midnightblue" stroke="midnightblue" points="866.39,-30.4 865.17,-19.88 859.56,-28.87 866.39,-30.4"/>
</g>
<!-- Node25 -->
<g id="node25" class="node">
<title>Node25</title>
<g id="a_node25"><a xlink:title=" ">
<polygon fill="white" stroke="#bfbfbf" points="981,-112.5 981,-131.5 1040,-131.5 1040,-112.5 981,-112.5"/>
<text text-anchor="middle" x="1010.5" y="-119.5" font-family="Helvetica,sans-Serif" font-size="10.00">functional</text>
</a>
</g>
</g>
<!-- Node24&#45;&gt;Node25 -->
<g id="edge27" class="edge">
<title>Node24&#45;&gt;Node25</title>
<path fill="none" stroke="midnightblue" d="M1175.45,-224.37C1144.61,-205.41 1070.71,-160 1033.19,-136.94"/>
<polygon fill="midnightblue" stroke="midnightblue" points="1034.83,-133.85 1024.48,-131.59 1031.17,-139.81 1034.83,-133.85"/>
</g>
<!-- Node26 -->
<g id="node26" class="node">
<title>Node26</title>
<g id="a_node26"><a xlink:href="Release_8h.html" target="_top" xlink:title="Header file with classes responsible for releasing memory allocated by WSTP when receiving data.">
<polygon fill="white" stroke="black" points="895.5,-168.5 895.5,-187.5 1009.5,-187.5 1009.5,-168.5 895.5,-168.5"/>
<text text-anchor="middle" x="952.5" y="-175.5" font-family="Helvetica,sans-Serif" font-size="10.00">LLU/WSTP/Release.h</text>
</a>
</g>
</g>
<!-- Node24&#45;&gt;Node26 -->
<g id="edge33" class="edge">
<title>Node24&#45;&gt;Node26</title>
<path fill="none" stroke="midnightblue" d="M1151.95,-224.44C1110.69,-215.04 1044.36,-199.93 999.63,-189.74"/>
<polygon fill="midnightblue" stroke="midnightblue" points="1000.41,-186.33 989.88,-187.52 998.85,-193.15 1000.41,-186.33"/>
</g>
<!-- Node24&#45;&gt;Node27 -->
<g id="edge37" class="edge">
<title>Node24&#45;&gt;Node27</title>
<path fill="none" stroke="midnightblue" d="M1208.83,-224.44C1228.82,-215.6 1260.24,-201.69 1283.06,-191.59"/>
<polygon fill="midnightblue" stroke="midnightblue" points="1284.53,-194.76 1292.26,-187.52 1281.7,-188.36 1284.53,-194.76"/>
</g>
<!-- Node26&#45;&gt;Node9 -->
<g id="edge35" class="edge">
<title>Node26&#45;&gt;Node9</title>
<path fill="none" stroke="midnightblue" d="M954.56,-168.45C957.68,-155.89 964.05,-131.81 971.5,-112 982.75,-82.1 999.06,-48.73 1009.2,-28.82"/>
<polygon fill="midnightblue" stroke="midnightblue" points="1012.42,-30.22 1013.89,-19.72 1006.2,-27.01 1012.42,-30.22"/>
</g>
<!-- Node26&#45;&gt;Node12 -->
<g id="edge36" class="edge">
<title>Node26&#45;&gt;Node12</title>
<path fill="none" stroke="midnightblue" d="M927.15,-168.44C900.23,-159.36 857.5,-144.94 827.41,-134.78"/>
<polygon fill="midnightblue" stroke="midnightblue" points="828.33,-131.4 817.73,-131.52 826.09,-138.03 828.33,-131.4"/>
</g>
<!-- Node26&#45;&gt;Node25 -->
<g id="edge34" class="edge">
<title>Node26&#45;&gt;Node25</title>
<path fill="none" stroke="midnightblue" d="M961.82,-168.32C970.39,-160.34 983.31,-148.31 993.69,-138.65"/>
<polygon fill="midnightblue" stroke="midnightblue" points="996.08,-141.21 1001.01,-131.83 991.31,-136.09 996.08,-141.21"/>
</g>
<!-- Node27&#45;&gt;Node9 -->
<g id="edge40" class="edge">
<title>Node27&#45;&gt;Node9</title>
<path fill="none" stroke="midnightblue" d="M1264.26,-168.43C1234.03,-161.59 1194.77,-150.08 1163.5,-132 1120.77,-107.28 1120.79,-87.16 1082.5,-56 1069.02,-45.03 1053.03,-33.78 1040.4,-25.28"/>
<polygon fill="midnightblue" stroke="midnightblue" points="1042.15,-22.24 1031.89,-19.61 1038.27,-28.07 1042.15,-22.24"/>
</g>
<!-- Node27&#45;&gt;Node10 -->
<g id="edge41" class="edge">
<title>Node27&#45;&gt;Node10</title>
<path fill="none" stroke="midnightblue" d="M1341.76,-168.44C1374.46,-159.2 1426.68,-144.44 1462.68,-134.26"/>
<polygon fill="midnightblue" stroke="midnightblue" points="1463.71,-137.61 1472.38,-131.52 1461.8,-130.87 1463.71,-137.61"/>
</g>
<!-- Node27&#45;&gt;Node11 -->
<g id="edge39" class="edge">
<title>Node27&#45;&gt;Node11</title>
<path fill="none" stroke="midnightblue" d="M1347.35,-168.4C1366.38,-161.81 1388.13,-150.59 1399.5,-132 1407.97,-118.15 1405.68,-99.38 1402.04,-85.58"/>
<polygon fill="midnightblue" stroke="midnightblue" points="1405.3,-84.28 1399,-75.75 1398.61,-86.34 1405.3,-84.28"/>
</g>
<!-- Node28 -->
<g id="node28" class="node">
<title>Node28</title>
<g id="a_node28"><a xlink:title=" ">
<polygon fill="white" stroke="#bfbfbf" points="1172.5,-112.5 1172.5,-131.5 1218.5,-131.5 1218.5,-112.5 1172.5,-112.5"/>
<text text-anchor="middle" x="1195.5" y="-119.5" font-family="Helvetica,sans-Serif" font-size="10.00">cstring</text>
</a>
</g>
</g>
<!-- Node27&#45;&gt;Node28 -->
<g id="edge38" class="edge">
<title>Node27&#45;&gt;Node28</title>
<path fill="none" stroke="midnightblue" d="M1293.12,-168.44C1274.28,-159.68 1244.77,-145.94 1223.12,-135.86"/>
<polygon fill="midnightblue" stroke="midnightblue" points="1224.34,-132.56 1213.79,-131.52 1221.38,-138.91 1224.34,-132.56"/>
</g>
<!-- Node29 -->
<g id="node29" class="node">
<title>Node29</title>
<g id="a_node29"><a xlink:href="EncodingTraits_8hpp.html" target="_top" xlink:title="Defines possible encodings together with their properties and related types.">
<polygon fill="white" stroke="black" points="1236.5,-112.5 1236.5,-131.5 1390.5,-131.5 1390.5,-112.5 1236.5,-112.5"/>
<text text-anchor="middle" x="1313.5" y="-119.5" font-family="Helvetica,sans-Serif" font-size="10.00">LLU/WSTP/EncodingTraits.hpp</text>
</a>
</g>
</g>
<!-- Node27&#45;&gt;Node29 -->
<g id="edge42" class="edge">
<title>Node27&#45;&gt;Node29</title>
<path fill="none" stroke="midnightblue" d="M1311.83,-168.08C1312.09,-161.01 1312.47,-150.86 1312.8,-141.99"/>
<polygon fill="midnightblue" stroke="midnightblue" points="1316.3,-141.87 1313.18,-131.75 1309.31,-141.61 1316.3,-141.87"/>
</g>
<!-- Node29&#45;&gt;Node6 -->
<g id="edge45" class="edge">
<title>Node29&#45;&gt;Node6</title>
<path fill="none" stroke="midnightblue" d="M1236.16,-112.78C1233.23,-112.51 1230.34,-112.25 1227.5,-112 1002.16,-92.34 941.24,-108.8 713.76,-75.97"/>
<polygon fill="midnightblue" stroke="midnightblue" points="714.26,-72.51 703.86,-74.53 713.25,-79.43 714.26,-72.51"/>
</g>
<!-- Node29&#45;&gt;Node7 -->
<g id="edge46" class="edge">
<title>Node29&#45;&gt;Node7</title>
<path fill="none" stroke="midnightblue" d="M1313.5,-112.08C1313.5,-105.01 1313.5,-94.86 1313.5,-85.99"/>
<polygon fill="midnightblue" stroke="midnightblue" points="1317,-85.75 1313.5,-75.75 1310,-85.75 1317,-85.75"/>
</g>
<!-- Node29&#45;&gt;Node11 -->
<g id="edge44" class="edge">
<title>Node29&#45;&gt;Node11</title>
<path fill="none" stroke="midnightblue" d="M1326.67,-112.32C1339.35,-103.98 1358.73,-91.21 1373.71,-81.35"/>
<polygon fill="midnightblue" stroke="midnightblue" points="1375.93,-84.08 1382.36,-75.65 1372.08,-78.23 1375.93,-84.08"/>
</g>
<!-- Node29&#45;&gt;Node14 -->
<g id="edge43" class="edge">
<title>Node29&#45;&gt;Node14</title>
<path fill="none" stroke="midnightblue" d="M1250.91,-112.44C1166.22,-100.87 1018.12,-80.62 952.02,-71.58"/>
<polygon fill="midnightblue" stroke="midnightblue" points="952.15,-68.07 941.77,-70.18 951.2,-75 952.15,-68.07"/>
</g>
<!-- Node30&#45;&gt;Node9 -->
<g id="edge49" class="edge">
<title>Node30&#45;&gt;Node9</title>
<path fill="none" stroke="midnightblue" d="M1010.8,-232.63C885.92,-231.17 551.52,-223.89 518.5,-188 468.58,-133.74 380.12,-179.98 614.5,-56 630.85,-47.35 891.42,-22.68 985.2,-14.04"/>
<polygon fill="midnightblue" stroke="midnightblue" points="985.64,-17.51 995.27,-13.11 985,-10.54 985.64,-17.51"/>
</g>
<!-- Node30&#45;&gt;Node10 -->
<g id="edge50" class="edge">
<title>Node30&#45;&gt;Node10</title>
<path fill="none" stroke="midnightblue" d="M1104.05,-227.43C1186.15,-217.46 1350.4,-196.77 1375.5,-188 1392.05,-182.22 1394.04,-176.27 1409.5,-168 1431.05,-156.47 1456,-144.47 1474.64,-135.76"/>
<polygon fill="midnightblue" stroke="midnightblue" points="1476.15,-138.91 1483.75,-131.53 1473.21,-132.57 1476.15,-138.91"/>
</g>
<!-- Node30&#45;&gt;Node12 -->
<g id="edge51" class="edge">
<title>Node30&#45;&gt;Node12</title>
<path fill="none" stroke="midnightblue" d="M1010.8,-229.81C948.93,-224.68 844.25,-212.57 815.5,-188 802.01,-176.47 796.43,-156.5 794.13,-141.73"/>
<polygon fill="midnightblue" stroke="midnightblue" points="797.59,-141.19 792.92,-131.68 790.64,-142.02 797.59,-141.19"/>
</g>
<!-- Node30&#45;&gt;Node25 -->
<g id="edge48" class="edge">
<title>Node30&#45;&gt;Node25</title>
<path fill="none" stroke="midnightblue" d="M1053.81,-224.37C1046.16,-206.46 1028.41,-164.92 1018.17,-140.95"/>
<polygon fill="midnightblue" stroke="midnightblue" points="1021.32,-139.41 1014.17,-131.59 1014.88,-142.16 1021.32,-139.41"/>
</g>
<!-- Node30&#45;&gt;Node27 -->
<g id="edge52" class="edge">
<title>Node30&#45;&gt;Node27</title>
<path fill="none" stroke="midnightblue" d="M1097.75,-224.44C1142.15,-215 1213.65,-199.8 1261.59,-189.61"/>
<polygon fill="midnightblue" stroke="midnightblue" points="1262.39,-193.02 1271.44,-187.52 1260.93,-186.17 1262.39,-193.02"/>
</g>
<!-- Node31&#45;&gt;Node2 -->
<g id="edge54" class="edge">
<title>Node31&#45;&gt;Node2</title>
<path fill="none" stroke="midnightblue" d="M1530.42,-224.44C1552.24,-215.52 1586.65,-201.44 1611.39,-191.32"/>
<polygon fill="midnightblue" stroke="midnightblue" points="1612.75,-194.54 1620.68,-187.52 1610.1,-188.06 1612.75,-194.54"/>
</g>
<!-- Node31&#45;&gt;Node9 -->
<g id="edge57" class="edge">
<title>Node31&#45;&gt;Node9</title>
<path fill="none" stroke="midnightblue" d="M1520.98,-224.43C1532.03,-215.88 1548.88,-202.02 1561.5,-188 1602.43,-142.53 1642.06,-100.89 1600.5,-56 1563.12,-15.61 1170.15,-11.36 1051.95,-11"/>
<polygon fill="midnightblue" stroke="midnightblue" points="1051.71,-7.5 1041.7,-10.98 1051.69,-14.5 1051.71,-7.5"/>
</g>
<!-- Node31&#45;&gt;Node10 -->
<g id="edge58" class="edge">
<title>Node31&#45;&gt;Node10</title>
<path fill="none" stroke="midnightblue" d="M1508.95,-224.37C1507.82,-206.62 1505.22,-165.67 1503.68,-141.6"/>
<polygon fill="midnightblue" stroke="midnightblue" points="1507.17,-141.35 1503.05,-131.59 1500.19,-141.79 1507.17,-141.35"/>
</g>
<!-- Node31&#45;&gt;Node12 -->
<g id="edge59" class="edge">
<title>Node31&#45;&gt;Node12</title>
<path fill="none" stroke="midnightblue" d="M1454.72,-226.6C1386.59,-218.46 1266.76,-203.6 1164.5,-188 1051.45,-170.76 919.76,-146.84 847.31,-133.34"/>
<polygon fill="midnightblue" stroke="midnightblue" points="847.53,-129.82 837.06,-131.43 846.25,-136.7 847.53,-129.82"/>
</g>
<!-- Node31&#45;&gt;Node17 -->
<g id="edge56" class="edge">
<title>Node31&#45;&gt;Node17</title>
<path fill="none" stroke="midnightblue" d="M1516.03,-224.3C1533.87,-200.04 1581.2,-132.13 1567.5,-112 1529.33,-55.92 1491.58,-71.34 1425.5,-56 1412.75,-53.04 1026.07,-23.18 904.03,-13.8"/>
<polygon fill="midnightblue" stroke="midnightblue" points="903.96,-10.29 893.72,-13.01 903.42,-17.26 903.96,-10.29"/>
</g>
<!-- Node31&#45;&gt;Node25 -->
<g id="edge55" class="edge">
<title>Node31&#45;&gt;Node25</title>
<path fill="none" stroke="midnightblue" d="M1454.79,-225.26C1401.38,-217.32 1317.94,-203.91 1246.5,-188 1175.58,-172.21 1094.14,-148.52 1047.85,-134.53"/>
<polygon fill="midnightblue" stroke="midnightblue" points="1048.83,-131.17 1038.25,-131.61 1046.8,-137.86 1048.83,-131.17"/>
</g>
<!-- Node31&#45;&gt;Node27 -->
<g id="edge61" class="edge">
<title>Node31&#45;&gt;Node27</title>
<path fill="none" stroke="midnightblue" d="M1478.13,-224.44C1444.24,-215.2 1390.1,-200.44 1352.78,-190.26"/>
<polygon fill="midnightblue" stroke="midnightblue" points="1353.3,-186.77 1342.73,-187.52 1351.45,-193.52 1353.3,-186.77"/>
</g>
<!-- Node31&#45;&gt;Node29 -->
<g id="edge60" class="edge">
<title>Node31&#45;&gt;Node29</title>
<path fill="none" stroke="midnightblue" d="M1494.12,-224.37C1460.13,-205.29 1378.4,-159.42 1337.56,-136.51"/>
<polygon fill="midnightblue" stroke="midnightblue" points="1339.24,-133.43 1328.81,-131.59 1335.82,-139.54 1339.24,-133.43"/>
</g>
<!-- Node32&#45;&gt;Node6 -->
<g id="edge64" class="edge">
<title>Node32&#45;&gt;Node6</title>
<path fill="none" stroke="midnightblue" d="M612.6,-168.37C623.28,-150.3 648.17,-108.18 662.27,-84.31"/>
<polygon fill="midnightblue" stroke="midnightblue" points="665.35,-85.98 667.42,-75.59 659.32,-82.42 665.35,-85.98"/>
</g>
<!-- Node32&#45;&gt;Node9 -->
<g id="edge65" class="edge">
<title>Node32&#45;&gt;Node9</title>
<path fill="none" stroke="midnightblue" d="M606.26,-168.37C603.58,-146.01 599.91,-85.85 632.5,-56 645.48,-44.11 893.92,-21.69 985.21,-13.82"/>
<polygon fill="midnightblue" stroke="midnightblue" points="985.63,-17.3 995.29,-12.95 985.03,-10.32 985.63,-17.3"/>
</g>
<!-- Node32&#45;&gt;Node12 -->
<g id="edge66" class="edge">
<title>Node32&#45;&gt;Node12</title>
<path fill="none" stroke="midnightblue" d="M636.81,-168.44C668.34,-159.24 718.63,-144.56 753.49,-134.39"/>
<polygon fill="midnightblue" stroke="midnightblue" points="754.7,-137.68 763.32,-131.52 752.74,-130.96 754.7,-137.68"/>
</g>
</g>
</svg>
