<?xml version="1.0" encoding="UTF-8" standalone="no"?>
<!DOCTYPE svg PUBLIC "-//W3C//DTD SVG 1.1//EN"
 "http://www.w3.org/Graphics/SVG/1.1/DTD/svg11.dtd">
<!-- Generated by graphviz version 2.40.1 (20161225.0304)
 -->
<!-- Title: Utilities.h Pages: 1 -->
<svg width="321pt" height="84pt"
 viewBox="0.00 0.00 320.50 84.00" xmlns="http://www.w3.org/2000/svg" xmlns:xlink="http://www.w3.org/1999/xlink">
<g id="graph0" class="graph" transform="scale(1 1) rotate(0) translate(4 80)">
<title>Utilities.h</title>
<polygon fill="#ffffff" stroke="transparent" points="-4,4 -4,-80 316.5,-80 316.5,4 -4,4"/>
<!-- Node1 -->
<g id="node1" class="node">
<title>Node1</title>
<g id="a_node1"><a xlink:title="Set of small utility classes and functions used in the Async part of LLU.">
<polygon fill="#bfbfbf" stroke="#000000" points="133.5,-56.5 133.5,-75.5 191.5,-75.5 191.5,-56.5 133.5,-56.5"/>
<text text-anchor="middle" x="162.5" y="-63.5" font-family="Helvetica,sans-Serif" font-size="10.00" fill="#000000">Utilities.h</text>
</a>
</g>
</g>
<!-- Node2 -->
<g id="node2" class="node">
<title>Node2</title>
<g id="a_node2"><a xlink:title=" ">
<polygon fill="#ffffff" stroke="#bfbfbf" points="0,-.5 0,-19.5 59,-19.5 59,-.5 0,-.5"/>
<text text-anchor="middle" x="29.5" y="-7.5" font-family="Helvetica,sans-Serif" font-size="10.00" fill="#000000">functional</text>
</a>
</g>
</g>
<!-- Node1&#45;&gt;Node2 -->
<g id="edge1" class="edge">
<title>Node1&#45;&gt;Node2</title>
<path fill="none" stroke="#191970" d="M139.6365,-56.3733C118.095,-47.3032 85.6162,-33.6279 61.5044,-23.4755"/>
<polygon fill="#191970" stroke="#191970" points="62.6397,-20.156 52.0652,-19.5011 59.9233,-26.6075 62.6397,-20.156"/>
</g>
<!-- Node3 -->
<g id="node3" class="node">
<title>Node3</title>
<g id="a_node3"><a xlink:title=" ">
<polygon fill="#ffffff" stroke="#bfbfbf" points="77,-.5 77,-19.5 118,-19.5 118,-.5 77,-.5"/>
<text text-anchor="middle" x="97.5" y="-7.5" font-family="Helvetica,sans-Serif" font-size="10.00" fill="#000000">future</text>
</a>
</g>
</g>
<!-- Node1&#45;&gt;Node3 -->
<g id="edge2" class="edge">
<title>Node1&#45;&gt;Node3</title>
<path fill="none" stroke="#191970" d="M151.1779,-56.2455C141.5777,-47.9746 127.6108,-35.9416 116.3305,-26.2232"/>
<polygon fill="#191970" stroke="#191970" points="118.553,-23.5182 108.6924,-19.6427 113.984,-28.8214 118.553,-23.5182"/>
</g>
<!-- Node4 -->
<g id="node4" class="node">
<title>Node4</title>
<g id="a_node4"><a xlink:title=" ">
<polygon fill="#ffffff" stroke="#bfbfbf" points="136.5,-.5 136.5,-19.5 188.5,-19.5 188.5,-.5 136.5,-.5"/>
<text text-anchor="middle" x="162.5" y="-7.5" font-family="Helvetica,sans-Serif" font-size="10.00" fill="#000000">memory</text>
</a>
</g>
</g>
<!-- Node1&#45;&gt;Node4 -->
<g id="edge3" class="edge">
<title>Node1&#45;&gt;Node4</title>
<path fill="none" stroke="#191970" d="M162.5,-56.2455C162.5,-48.9382 162.5,-38.6944 162.5,-29.7046"/>
<polygon fill="#191970" stroke="#191970" points="166.0001,-29.6426 162.5,-19.6427 159.0001,-29.6427 166.0001,-29.6426"/>
</g>
<!-- Node5 -->
<g id="node5" class="node">
<title>Node5</title>
<g id="a_node5"><a xlink:title=" ">
<polygon fill="#ffffff" stroke="#bfbfbf" points="206.5,-.5 206.5,-19.5 250.5,-19.5 250.5,-.5 206.5,-.5"/>
<text text-anchor="middle" x="228.5" y="-7.5" font-family="Helvetica,sans-Serif" font-size="10.00" fill="#000000">thread</text>
</a>
</g>
</g>
<!-- Node1&#45;&gt;Node5 -->
<g id="edge4" class="edge">
<title>Node1&#45;&gt;Node5</title>
<path fill="none" stroke="#191970" d="M173.9963,-56.2455C183.7442,-47.9746 197.9259,-35.9416 209.3798,-26.2232"/>
<polygon fill="#191970" stroke="#191970" points="211.7747,-28.7813 217.1354,-19.6427 207.2459,-23.4437 211.7747,-28.7813"/>
</g>
<!-- Node6 -->
<g id="node6" class="node">
<title>Node6</title>
<g id="a_node6"><a xlink:title=" ">
<polygon fill="#ffffff" stroke="#bfbfbf" points="268.5,-.5 268.5,-19.5 312.5,-19.5 312.5,-.5 268.5,-.5"/>
<text text-anchor="middle" x="290.5" y="-7.5" font-family="Helvetica,sans-Serif" font-size="10.00" fill="#000000">vector</text>
</a>
</g>
</g>
<!-- Node1&#45;&gt;Node6 -->
<g id="edge5" class="edge">
<title>Node1&#45;&gt;Node6</title>
<path fill="none" stroke="#191970" d="M184.504,-56.3733C205.1435,-47.3435 236.2158,-33.7494 259.3889,-23.6111"/>
<polygon fill="#191970" stroke="#191970" points="261.0245,-26.7159 268.7831,-19.5011 258.2187,-20.3028 261.0245,-26.7159"/>
</g>
</g>
</svg>
