<?xml version="1.0" encoding="UTF-8" standalone="no"?>
<!DOCTYPE svg PUBLIC "-//W3C//DTD SVG 1.1//EN"
 "http://www.w3.org/Graphics/SVG/1.1/DTD/svg11.dtd">
<!-- Generated by graphviz version 2.43.0 (0)
 -->
<!-- Title: Base.hpp Pages: 1 -->
<!--zoomable 532 -->
<svg id="main" version="1.1" xmlns="http://www.w3.org/2000/svg" xmlns:xlink="http://www.w3.org/1999/xlink" xml:space="preserve" onload="init(evt)">
<style type="text/css"><![CDATA[
.edge:hover path { stroke: red; }
.edge:hover polygon { stroke: red; fill: red; }
]]></style>
<script type="text/javascript"><![CDATA[
var edges = document.getElementsByTagName('g');
if (edges && edges.length) {
  for (var i=0;i<edges.length;i++) {
    if (edges[i].id.substr(0,4)=='edge') {
      edges[i].setAttribute('class','edge');
    }
  }
}
]]></script>
        <defs>
                <circle id="rim" cx="0" cy="0" r="7"/>
                <circle id="rim2" cx="0" cy="0" r="3.5"/>
                <g id="zoomPlus">
                        <use xlink:href="#rim" fill="#404040">
                                <set attributeName="fill" to="#808080" begin="zoomplus.mouseover" end="zoomplus.mouseout"/>
                        </use>
                        <path d="M-4,0h8M0,-4v8" fill="none" stroke="white" stroke-width="1.5" pointer-events="none"/>
                </g>
                <g id="zoomMin">
                        <use xlink:href="#rim" fill="#404040">
                                <set attributeName="fill" to="#808080" begin="zoomminus.mouseover" end="zoomminus.mouseout"/>
                        </use>
                        <path d="M-4,0h8" fill="none" stroke="white" stroke-width="1.5" pointer-events="none"/>
                </g>
                <g id="dirArrow">
                        <path fill="none" stroke="white" stroke-width="1.5" d="M0,-3.0v7 M-2.5,-0.5L0,-3.0L2.5,-0.5"/>
                </g>
               <g id="resetDef">
                       <use xlink:href="#rim2" fill="#404040">
                               <set attributeName="fill" to="#808080" begin="reset.mouseover" end="reset.mouseout"/>
                       </use>
               </g>
        </defs>

<script type="text/javascript">
var viewWidth = 987;
var viewHeight = 532;
var sectionId = 'dynsection-1';
</script>
<script xlink:href="svgpan.js"/>
<svg id="graph" class="graph">
<g id="viewport">
<title>Base.hpp</title>
<polygon fill="white" stroke="transparent" points="-4,4 -4,-528 983,-528 983,4 -4,4"/>
<!-- Node1 -->
<g id="node1" class="node">
<title>Node1</title>
<g id="a_node1"><a xlink:title="Definitions of MContainerBase and MContainer class templates.">
<polygon fill="#bfbfbf" stroke="black" points="388,-504.5 388,-523.5 446,-523.5 446,-504.5 388,-504.5"/>
<text text-anchor="middle" x="417" y="-511.5" font-family="Helvetica,sans-Serif" font-size="10.00">Base.hpp</text>
</a>
</g>
</g>
<!-- Node2 -->
<g id="node2" class="node">
<title>Node2</title>
<g id="a_node2"><a xlink:href="Generic_2DataStore_8hpp.html" target="_top" xlink:title="Definition and implementation of generic DataStore wrapper.">
<polygon fill="white" stroke="black" points="312,-280.5 312,-299.5 392,-299.5 392,-280.5 312,-280.5"/>
<text text-anchor="middle" x="352" y="-287.5" font-family="Helvetica,sans-Serif" font-size="10.00">DataStore.hpp</text>
</a>
</g>
</g>
<!-- Node1&#45;&gt;Node2 -->
<g id="edge1" class="edge">
<title>Node1&#45;&gt;Node2</title>
<path fill="none" stroke="midnightblue" d="M390.55,-499.47C361.89,-483.13 317.74,-452.71 299,-412 292.81,-398.56 291.59,-359.63 303,-336 310.53,-320.4 326.06,-307.63 337.63,-299.73"/>
<polygon fill="midnightblue" stroke="midnightblue" points="389.17,-502.7 399.62,-504.46 392.55,-496.57 389.17,-502.7"/>
</g>
<!-- Node13 -->
<g id="node13" class="node">
<title>Node13</title>
<g id="a_node13"><a xlink:href="Generic_2Image_8hpp.html" target="_top" xlink:title="GenericImage definition and implementation.">
<polygon fill="white" stroke="black" points="156,-448.5 156,-467.5 218,-467.5 218,-448.5 156,-448.5"/>
<text text-anchor="middle" x="187" y="-455.5" font-family="Helvetica,sans-Serif" font-size="10.00">Image.hpp</text>
</a>
</g>
</g>
<!-- Node1&#45;&gt;Node13 -->
<g id="edge14" class="edge">
<title>Node1&#45;&gt;Node13</title>
<path fill="none" stroke="midnightblue" d="M377.87,-503.81C332.75,-493.22 259.5,-476.02 218.09,-466.3"/>
<polygon fill="midnightblue" stroke="midnightblue" points="377.34,-507.28 387.87,-506.16 378.94,-500.47 377.34,-507.28"/>
</g>
<!-- Node19 -->
<g id="node19" class="node">
<title>Node19</title>
<g id="a_node19"><a xlink:href="Generic_2NumericArray_8hpp.html" target="_top" xlink:title="GenericNumericArray definition and implementation.">
<polygon fill="white" stroke="black" points="504,-448.5 504,-467.5 598,-467.5 598,-448.5 504,-448.5"/>
<text text-anchor="middle" x="551" y="-455.5" font-family="Helvetica,sans-Serif" font-size="10.00">NumericArray.hpp</text>
</a>
</g>
</g>
<!-- Node1&#45;&gt;Node19 -->
<g id="edge31" class="edge">
<title>Node1&#45;&gt;Node19</title>
<path fill="none" stroke="midnightblue" d="M447.68,-500.64C472.82,-490.5 507.75,-476.43 529.87,-467.52"/>
<polygon fill="midnightblue" stroke="midnightblue" points="446.2,-497.46 438.23,-504.44 448.82,-503.95 446.2,-497.46"/>
</g>
<!-- Node23 -->
<g id="node23" class="node">
<title>Node23</title>
<g id="a_node23"><a xlink:href="Generic_2Tensor_8hpp.html" target="_top" xlink:title="GenericTensor definition and implementation.">
<polygon fill="white" stroke="black" points="744,-448.5 744,-467.5 808,-467.5 808,-448.5 744,-448.5"/>
<text text-anchor="middle" x="776" y="-455.5" font-family="Helvetica,sans-Serif" font-size="10.00">Tensor.hpp</text>
</a>
</g>
</g>
<!-- Node1&#45;&gt;Node23 -->
<g id="edge40" class="edge">
<title>Node1&#45;&gt;Node23</title>
<path fill="none" stroke="midnightblue" d="M456.02,-507.13C527.43,-496.39 677.86,-473.76 743.83,-463.84"/>
<polygon fill="midnightblue" stroke="midnightblue" points="455.44,-503.68 446.07,-508.63 456.48,-510.6 455.44,-503.68"/>
</g>
<!-- Node3 -->
<g id="node3" class="node">
<title>Node3</title>
<g id="a_node3"><a xlink:href="DataList_8h.html" target="_top" xlink:title="Definition of templated DataStore wrapper called DataList.">
<polygon fill="white" stroke="black" points="427,-112.5 427,-131.5 489,-131.5 489,-112.5 427,-112.5"/>
<text text-anchor="middle" x="458" y="-119.5" font-family="Helvetica,sans-Serif" font-size="10.00">DataList.h</text>
</a>
</g>
</g>
<!-- Node2&#45;&gt;Node3 -->
<g id="edge2" class="edge">
<title>Node2&#45;&gt;Node3</title>
<path fill="none" stroke="midnightblue" d="M343.38,-270.61C338.36,-257.17 334.23,-238.78 341,-224 361.66,-178.86 413.56,-146.22 440.76,-131.58"/>
<polygon fill="midnightblue" stroke="midnightblue" points="340.29,-272.31 347.4,-280.17 346.75,-269.59 340.29,-272.31"/>
</g>
<!-- Node9 -->
<g id="node9" class="node">
<title>Node9</title>
<g id="a_node9"><a xlink:href="DataNode_8hpp.html" target="_top" xlink:title=" ">
<polygon fill="white" stroke="black" points="176,-224.5 176,-243.5 256,-243.5 256,-224.5 176,-224.5"/>
<text text-anchor="middle" x="216" y="-231.5" font-family="Helvetica,sans-Serif" font-size="10.00">DataNode.hpp</text>
</a>
</g>
</g>
<!-- Node2&#45;&gt;Node9 -->
<g id="edge9" class="edge">
<title>Node2&#45;&gt;Node9</title>
<path fill="none" stroke="midnightblue" d="M320.87,-276.64C295.34,-266.5 259.89,-252.43 237.45,-243.52"/>
<polygon fill="midnightblue" stroke="midnightblue" points="319.86,-280.01 330.45,-280.44 322.45,-273.5 319.86,-280.01"/>
</g>
<!-- Node11 -->
<g id="node11" class="node">
<title>Node11</title>
<g id="a_node11"><a xlink:href="DataStore_8cpp.html" target="_top" xlink:title=" ">
<polygon fill="white" stroke="black" points="350,-224.5 350,-243.5 430,-243.5 430,-224.5 350,-224.5"/>
<text text-anchor="middle" x="390" y="-231.5" font-family="Helvetica,sans-Serif" font-size="10.00">DataStore.cpp</text>
</a>
</g>
</g>
<!-- Node2&#45;&gt;Node11 -->
<g id="edge12" class="edge">
<title>Node2&#45;&gt;Node11</title>
<path fill="none" stroke="midnightblue" d="M364.06,-271.86C370.64,-262.5 378.51,-251.33 383.84,-243.75"/>
<polygon fill="midnightblue" stroke="midnightblue" points="361.17,-269.89 358.27,-280.08 366.89,-273.92 361.17,-269.89"/>
</g>
<!-- Node12 -->
<g id="node12" class="node">
<title>Node12</title>
<g id="a_node12"><a xlink:href="TypedMArgument_8cpp.html" target="_top" xlink:title=" ">
<polygon fill="white" stroke="black" points="486,-224.5 486,-243.5 598,-243.5 598,-224.5 486,-224.5"/>
<text text-anchor="middle" x="542" y="-231.5" font-family="Helvetica,sans-Serif" font-size="10.00">TypedMArgument.cpp</text>
</a>
</g>
</g>
<!-- Node2&#45;&gt;Node12 -->
<g id="edge13" class="edge">
<title>Node2&#45;&gt;Node12</title>
<path fill="none" stroke="midnightblue" d="M391.76,-277.7C427.62,-267.51 479.57,-252.74 512.03,-243.52"/>
<polygon fill="midnightblue" stroke="midnightblue" points="390.77,-274.34 382.11,-280.44 392.68,-281.08 390.77,-274.34"/>
</g>
<!-- Node4 -->
<g id="node4" class="node">
<title>Node4</title>
<g id="a_node4"><a xlink:href="LLU_8h.html" target="_top" xlink:title="Header file which includes all major parts of LLU.">
<polygon fill="white" stroke="black" points="482.5,-0.5 482.5,-19.5 525.5,-19.5 525.5,-0.5 482.5,-0.5"/>
<text text-anchor="middle" x="504" y="-7.5" font-family="Helvetica,sans-Serif" font-size="10.00">LLU.h</text>
</a>
</g>
</g>
<!-- Node3&#45;&gt;Node4 -->
<g id="edge3" class="edge">
<title>Node3&#45;&gt;Node4</title>
<path fill="none" stroke="midnightblue" d="M465.53,-103C475.56,-79 492.93,-37.47 500.41,-19.59"/>
<polygon fill="midnightblue" stroke="midnightblue" points="462.24,-101.79 461.61,-112.37 468.7,-104.49 462.24,-101.79"/>
</g>
<!-- Node5 -->
<g id="node5" class="node">
<title>Node5</title>
<g id="a_node5"><a xlink:href="MArgumentManager_8h.html" target="_top" xlink:title="Definition of MArgumentManager class.">
<polygon fill="white" stroke="black" points="623,-56.5 623,-75.5 735,-75.5 735,-56.5 623,-56.5"/>
<text text-anchor="middle" x="679" y="-63.5" font-family="Helvetica,sans-Serif" font-size="10.00">MArgumentManager.h</text>
</a>
</g>
</g>
<!-- Node3&#45;&gt;Node5 -->
<g id="edge4" class="edge">
<title>Node3&#45;&gt;Node5</title>
<path fill="none" stroke="midnightblue" d="M499.03,-110.98C540.7,-100.79 604.57,-85.19 643.95,-75.56"/>
<polygon fill="midnightblue" stroke="midnightblue" points="498.08,-107.6 489.2,-113.38 499.74,-114.4 498.08,-107.6"/>
</g>
<!-- Node5&#45;&gt;Node4 -->
<g id="edge5" class="edge">
<title>Node5&#45;&gt;Node4</title>
<path fill="none" stroke="midnightblue" d="M641.32,-53.37C605.97,-42.47 554.36,-26.54 525.53,-17.64"/>
<polygon fill="midnightblue" stroke="midnightblue" points="640.68,-56.84 651.27,-56.44 642.75,-50.15 640.68,-56.84"/>
</g>
<!-- Node6 -->
<g id="node6" class="node">
<title>Node6</title>
<g id="a_node6"><a xlink:href="LibraryLinkError_8cpp.html" target="_top" xlink:title="Contains definitions of ErrorManager members and implementation of interface function sendRegisteredE...">
<polygon fill="white" stroke="black" points="543.5,-0.5 543.5,-19.5 646.5,-19.5 646.5,-0.5 543.5,-0.5"/>
<text text-anchor="middle" x="595" y="-7.5" font-family="Helvetica,sans-Serif" font-size="10.00">LibraryLinkError.cpp</text>
</a>
</g>
</g>
<!-- Node5&#45;&gt;Node6 -->
<g id="edge6" class="edge">
<title>Node5&#45;&gt;Node6</title>
<path fill="none" stroke="midnightblue" d="M657.07,-50.9C641.66,-41 621.55,-28.07 608.46,-19.65"/>
<polygon fill="midnightblue" stroke="midnightblue" points="655.2,-53.86 665.5,-56.32 658.98,-47.97 655.2,-53.86"/>
</g>
<!-- Node7 -->
<g id="node7" class="node">
<title>Node7</title>
<g id="a_node7"><a xlink:href="Logger_8cpp.html" target="_top" xlink:title="Implementation of functions defined in Logger.h.">
<polygon fill="white" stroke="black" points="665,-0.5 665,-19.5 729,-19.5 729,-0.5 665,-0.5"/>
<text text-anchor="middle" x="697" y="-7.5" font-family="Helvetica,sans-Serif" font-size="10.00">Logger.cpp</text>
</a>
</g>
</g>
<!-- Node5&#45;&gt;Node7 -->
<g id="edge7" class="edge">
<title>Node5&#45;&gt;Node7</title>
<path fill="none" stroke="midnightblue" d="M685.2,-46.4C688.21,-37.36 691.69,-26.94 694.08,-19.75"/>
<polygon fill="midnightblue" stroke="midnightblue" points="681.81,-45.49 681.97,-56.08 688.46,-47.7 681.81,-45.49"/>
</g>
<!-- Node8 -->
<g id="node8" class="node">
<title>Node8</title>
<g id="a_node8"><a xlink:href="MArgumentManager_8cpp.html" target="_top" xlink:title="Definitions of non&#45;template member functions and static data members from MArgumentManager class.">
<polygon fill="white" stroke="black" points="747,-0.5 747,-19.5 869,-19.5 869,-0.5 747,-0.5"/>
<text text-anchor="middle" x="808" y="-7.5" font-family="Helvetica,sans-Serif" font-size="10.00">MArgumentManager.cpp</text>
</a>
</g>
</g>
<!-- Node5&#45;&gt;Node8 -->
<g id="edge8" class="edge">
<title>Node5&#45;&gt;Node8</title>
<path fill="none" stroke="midnightblue" d="M708.85,-52.5C733.04,-42.38 766.46,-28.39 787.66,-19.52"/>
<polygon fill="midnightblue" stroke="midnightblue" points="707.31,-49.35 699.44,-56.44 710.02,-55.81 707.31,-49.35"/>
</g>
<!-- Node10 -->
<g id="node10" class="node">
<title>Node10</title>
<g id="a_node10"><a xlink:href="DataList_8hpp.html" target="_top" xlink:title="Special iterators for DataLists. Iteration over keys, values, reversed iteration.">
<polygon fill="white" stroke="black" points="222,-168.5 222,-187.5 294,-187.5 294,-168.5 222,-168.5"/>
<text text-anchor="middle" x="258" y="-175.5" font-family="Helvetica,sans-Serif" font-size="10.00">DataList.hpp</text>
</a>
</g>
</g>
<!-- Node9&#45;&gt;Node10 -->
<g id="edge10" class="edge">
<title>Node9&#45;&gt;Node10</title>
<path fill="none" stroke="midnightblue" d="M229.11,-216.14C236.43,-206.74 245.24,-195.4 251.19,-187.75"/>
<polygon fill="midnightblue" stroke="midnightblue" points="226.31,-214.04 222.94,-224.08 231.84,-218.34 226.31,-214.04"/>
</g>
<!-- Node10&#45;&gt;Node3 -->
<g id="edge11" class="edge">
<title>Node10&#45;&gt;Node3</title>
<path fill="none" stroke="midnightblue" d="M299.4,-165.82C337.29,-155.59 392.5,-140.68 426.79,-131.43"/>
<polygon fill="midnightblue" stroke="midnightblue" points="298.43,-162.46 289.69,-168.44 300.26,-169.22 298.43,-162.46"/>
</g>
<!-- Node13&#45;&gt;Node12 -->
<g id="edge30" class="edge">
<title>Node13&#45;&gt;Node12</title>
<path fill="none" stroke="midnightblue" d="M228.34,-454.64C276.1,-450.65 356.17,-440.04 419,-412 437.83,-403.6 479.93,-371.96 493,-356 510.51,-334.62 509.55,-325.58 520,-300 528.11,-280.15 535.69,-256.08 539.48,-243.54"/>
<polygon fill="midnightblue" stroke="midnightblue" points="228.07,-451.15 218.37,-455.41 228.61,-458.13 228.07,-451.15"/>
</g>
<!-- Node14 -->
<g id="node14" class="node">
<title>Node14</title>
<g id="a_node14"><a xlink:href="Image_8h.html" target="_top" xlink:title="Templated C++ wrapper for MImage.">
<polygon fill="white" stroke="black" points="105,-392.5 105,-411.5 157,-411.5 157,-392.5 105,-392.5"/>
<text text-anchor="middle" x="131" y="-399.5" font-family="Helvetica,sans-Serif" font-size="10.00">Image.h</text>
</a>
</g>
</g>
<!-- Node13&#45;&gt;Node14 -->
<g id="edge15" class="edge">
<title>Node13&#45;&gt;Node14</title>
<path fill="none" stroke="midnightblue" d="M170.67,-441.25C160.74,-431.67 148.41,-419.79 140.16,-411.83"/>
<polygon fill="midnightblue" stroke="midnightblue" points="168.37,-443.9 178,-448.32 173.23,-438.86 168.37,-443.9"/>
</g>
<!-- Node15 -->
<g id="node15" class="node">
<title>Node15</title>
<g id="a_node15"><a xlink:href="Image_8cpp.html" target="_top" xlink:title="Template specializations of Image::type attribute for all data types that we want to support.">
<polygon fill="white" stroke="black" points="156,-336.5 156,-355.5 218,-355.5 218,-336.5 156,-336.5"/>
<text text-anchor="middle" x="187" y="-343.5" font-family="Helvetica,sans-Serif" font-size="10.00">Image.cpp</text>
</a>
</g>
</g>
<!-- Node13&#45;&gt;Node15 -->
<g id="edge29" class="edge">
<title>Node13&#45;&gt;Node15</title>
<path fill="none" stroke="midnightblue" d="M187,-438.35C187,-414.25 187,-373.31 187,-355.59"/>
<polygon fill="midnightblue" stroke="midnightblue" points="183.5,-438.37 187,-448.37 190.5,-438.37 183.5,-438.37"/>
</g>
<!-- Node16 -->
<g id="node16" class="node">
<title>Node16</title>
<g id="a_node16"><a xlink:href="Views_2Image_8hpp.html" target="_top" xlink:title="Definition and implementation of ImageView and ImageTypedView.">
<polygon fill="white" stroke="black" points="0,-336.5 0,-355.5 62,-355.5 62,-336.5 0,-336.5"/>
<text text-anchor="middle" x="31" y="-343.5" font-family="Helvetica,sans-Serif" font-size="10.00">Image.hpp</text>
</a>
</g>
</g>
<!-- Node13&#45;&gt;Node16 -->
<g id="edge19" class="edge">
<title>Node13&#45;&gt;Node16</title>
<path fill="none" stroke="midnightblue" d="M155.61,-444.52C137.38,-436.55 114.45,-425.24 96,-412 72.4,-395.07 49.5,-369.36 38.24,-355.91"/>
<polygon fill="midnightblue" stroke="midnightblue" points="154.35,-447.79 164.92,-448.49 157.09,-441.35 154.35,-447.79"/>
</g>
<!-- Node17 -->
<g id="node17" class="node">
<title>Node17</title>
<g id="a_node17"><a xlink:href="TypedMArgument_8h.html" target="_top" xlink:title=" ">
<polygon fill="white" stroke="black" points="308.5,-392.5 308.5,-411.5 409.5,-411.5 409.5,-392.5 308.5,-392.5"/>
<text text-anchor="middle" x="359" y="-399.5" font-family="Helvetica,sans-Serif" font-size="10.00">TypedMArgument.h</text>
</a>
</g>
</g>
<!-- Node13&#45;&gt;Node17 -->
<g id="edge21" class="edge">
<title>Node13&#45;&gt;Node17</title>
<path fill="none" stroke="midnightblue" d="M223.83,-445.44C256.26,-435.26 302.74,-420.66 331.87,-411.52"/>
<polygon fill="midnightblue" stroke="midnightblue" points="222.75,-442.11 214.25,-448.44 224.84,-448.79 222.75,-442.11"/>
</g>
<!-- Node14&#45;&gt;Node4 -->
<g id="edge16" class="edge">
<title>Node14&#45;&gt;Node4</title>
<path fill="none" stroke="midnightblue" d="M120.06,-383.53C107.91,-362.44 90,-325.48 90,-291 90,-291 90,-291 90,-121 90,-39.01 397.14,-16.65 482.32,-12.03"/>
<polygon fill="midnightblue" stroke="midnightblue" points="117.16,-385.51 125.3,-392.29 123.16,-381.91 117.16,-385.51"/>
</g>
<!-- Node14&#45;&gt;Node5 -->
<g id="edge17" class="edge">
<title>Node14&#45;&gt;Node5</title>
<path fill="none" stroke="midnightblue" d="M130.18,-382.26C129.29,-360.37 128,-323.06 128,-291 128,-291 128,-291 128,-177 128,-76.83 482.62,-66.59 622.88,-66.45"/>
<polygon fill="midnightblue" stroke="midnightblue" points="126.69,-382.6 130.61,-392.44 133.68,-382.31 126.69,-382.6"/>
</g>
<!-- Node14&#45;&gt;Node15 -->
<g id="edge18" class="edge">
<title>Node14&#45;&gt;Node15</title>
<path fill="none" stroke="midnightblue" d="M147.33,-385.25C157.26,-375.67 169.59,-363.79 177.84,-355.83"/>
<polygon fill="midnightblue" stroke="midnightblue" points="144.77,-382.86 140,-392.32 149.63,-387.9 144.77,-382.86"/>
</g>
<!-- Node16&#45;&gt;Node4 -->
<g id="edge20" class="edge">
<title>Node16&#45;&gt;Node4</title>
<path fill="none" stroke="midnightblue" d="M34.02,-326.31C37.27,-304.47 42,-267.21 42,-235 42,-235 42,-235 42,-121 42,-88.4 49.03,-74.32 76,-56 143.21,-10.34 405.16,-9.78 482.43,-10.65"/>
<polygon fill="midnightblue" stroke="midnightblue" points="30.51,-326.05 32.44,-336.47 37.43,-327.13 30.51,-326.05"/>
</g>
<!-- Node17&#45;&gt;Node2 -->
<g id="edge23" class="edge">
<title>Node17&#45;&gt;Node2</title>
<path fill="none" stroke="midnightblue" d="M379,-386.12C393.43,-373.43 409.07,-354.37 401,-336 394.03,-320.14 378.41,-307.42 366.66,-299.6"/>
<polygon fill="midnightblue" stroke="midnightblue" points="376.77,-383.42 371.26,-392.47 381.21,-388.83 376.77,-383.42"/>
</g>
<!-- Node17&#45;&gt;Node3 -->
<g id="edge22" class="edge">
<title>Node17&#45;&gt;Node3</title>
<path fill="none" stroke="midnightblue" d="M384.73,-387.06C414.06,-369.07 458,-334.82 458,-291 458,-291 458,-291 458,-233 458,-195.19 458,-150.06 458,-131.56"/>
<polygon fill="midnightblue" stroke="midnightblue" points="382.64,-384.23 375.79,-392.32 386.19,-390.26 382.64,-384.23"/>
</g>
<!-- Node17&#45;&gt;Node9 -->
<g id="edge24" class="edge">
<title>Node17&#45;&gt;Node9</title>
<path fill="none" stroke="midnightblue" d="M337.93,-386.22C326.91,-377.97 313.56,-367.14 303,-356 266.87,-317.88 233.33,-264.13 221,-243.51"/>
<polygon fill="midnightblue" stroke="midnightblue" points="336.03,-389.16 346.17,-392.23 340.15,-383.51 336.03,-389.16"/>
</g>
<!-- Node17&#45;&gt;Node12 -->
<g id="edge28" class="edge">
<title>Node17&#45;&gt;Node12</title>
<path fill="none" stroke="midnightblue" d="M407.41,-389.52C429,-382.55 453.64,-371.86 472,-356 491.28,-339.34 526.03,-268.59 537.9,-243.7"/>
<polygon fill="midnightblue" stroke="midnightblue" points="406.29,-386.2 397.74,-392.46 408.33,-392.9 406.29,-386.2"/>
</g>
<!-- Node18 -->
<g id="node18" class="node">
<title>Node18</title>
<g id="a_node18"><a xlink:href="Iterators_2DataStore_8hpp.html" target="_top" xlink:title=" ">
<polygon fill="white" stroke="black" points="312,-336.5 312,-355.5 392,-355.5 392,-336.5 312,-336.5"/>
<text text-anchor="middle" x="352" y="-343.5" font-family="Helvetica,sans-Serif" font-size="10.00">DataStore.hpp</text>
</a>
</g>
</g>
<!-- Node17&#45;&gt;Node18 -->
<g id="edge25" class="edge">
<title>Node17&#45;&gt;Node18</title>
<path fill="none" stroke="midnightblue" d="M356.55,-382.1C355.39,-373.14 354.06,-362.86 353.13,-355.75"/>
<polygon fill="midnightblue" stroke="midnightblue" points="353.09,-382.62 357.84,-392.08 360.03,-381.72 353.09,-382.62"/>
</g>
<!-- Node18&#45;&gt;Node2 -->
<g id="edge26" class="edge">
<title>Node18&#45;&gt;Node2</title>
<path fill="none" stroke="midnightblue" d="M352,-325.8C352,-316.91 352,-306.78 352,-299.75"/>
<polygon fill="midnightblue" stroke="midnightblue" points="348.5,-326.08 352,-336.08 355.5,-326.08 348.5,-326.08"/>
</g>
<!-- Node18&#45;&gt;Node10 -->
<g id="edge27" class="edge">
<title>Node18&#45;&gt;Node10</title>
<path fill="none" stroke="midnightblue" d="M331.54,-329.95C321.82,-321.95 310.68,-311.42 303,-300 277.61,-262.24 264.19,-208.28 259.72,-187.56"/>
<polygon fill="midnightblue" stroke="midnightblue" points="329.57,-332.86 339.59,-336.29 333.9,-327.36 329.57,-332.86"/>
</g>
<!-- Node19&#45;&gt;Node12 -->
<g id="edge39" class="edge">
<title>Node19&#45;&gt;Node12</title>
<path fill="none" stroke="midnightblue" d="M559.94,-439.2C563.52,-431.11 567.21,-421.3 569,-412 581.4,-347.59 555.02,-269.12 545.36,-243.51"/>
<polygon fill="midnightblue" stroke="midnightblue" points="556.73,-437.8 555.62,-448.34 563.06,-440.79 556.73,-437.8"/>
</g>
<!-- Node19&#45;&gt;Node17 -->
<g id="edge37" class="edge">
<title>Node19&#45;&gt;Node17</title>
<path fill="none" stroke="midnightblue" d="M510.82,-445.7C474.58,-435.51 422.09,-420.74 389.28,-411.52"/>
<polygon fill="midnightblue" stroke="midnightblue" points="510,-449.11 520.58,-448.44 511.9,-442.37 510,-449.11"/>
</g>
<!-- Node20 -->
<g id="node20" class="node">
<title>Node20</title>
<g id="a_node20"><a xlink:href="NumericArray_8h.html" target="_top" xlink:title="Templated C++ wrapper for MNumericArray.">
<polygon fill="white" stroke="black" points="552.5,-112.5 552.5,-131.5 635.5,-131.5 635.5,-112.5 552.5,-112.5"/>
<text text-anchor="middle" x="594" y="-119.5" font-family="Helvetica,sans-Serif" font-size="10.00">NumericArray.h</text>
</a>
</g>
</g>
<!-- Node19&#45;&gt;Node20 -->
<g id="edge32" class="edge">
<title>Node19&#45;&gt;Node20</title>
<path fill="none" stroke="midnightblue" d="M570.26,-441.79C592.48,-422.38 626,-386.56 626,-347 626,-347 626,-347 626,-233 626,-193.82 607.05,-149.8 598.32,-131.59"/>
<polygon fill="midnightblue" stroke="midnightblue" points="567.8,-439.29 562.39,-448.4 572.3,-444.65 567.8,-439.29"/>
</g>
<!-- Node21 -->
<g id="node21" class="node">
<title>Node21</title>
<g id="a_node21"><a xlink:href="Views_2NumericArray_8hpp.html" target="_top" xlink:title="Definition and implementation of NumericArrayView and NumericArrayTypedView.">
<polygon fill="white" stroke="black" points="654,-280.5 654,-299.5 748,-299.5 748,-280.5 654,-280.5"/>
<text text-anchor="middle" x="701" y="-287.5" font-family="Helvetica,sans-Serif" font-size="10.00">NumericArray.hpp</text>
</a>
</g>
</g>
<!-- Node19&#45;&gt;Node21 -->
<g id="edge35" class="edge">
<title>Node19&#45;&gt;Node21</title>
<path fill="none" stroke="midnightblue" d="M587.69,-444.65C605.2,-437.32 625.44,-426.57 640,-412 673.92,-378.04 692.51,-321.37 698.67,-299.75"/>
<polygon fill="midnightblue" stroke="midnightblue" points="586.31,-441.43 578.3,-448.37 588.89,-447.94 586.31,-441.43"/>
</g>
<!-- Node22 -->
<g id="node22" class="node">
<title>Node22</title>
<g id="a_node22"><a xlink:href="NumericArray_8cpp.html" target="_top" xlink:title="Definitions of MContainer&lt;MArgumentType::NumericArray&gt; (GenericNumericArray) methods.">
<polygon fill="white" stroke="black" points="466,-392.5 466,-411.5 560,-411.5 560,-392.5 466,-392.5"/>
<text text-anchor="middle" x="513" y="-399.5" font-family="Helvetica,sans-Serif" font-size="10.00">NumericArray.cpp</text>
</a>
</g>
</g>
<!-- Node19&#45;&gt;Node22 -->
<g id="edge38" class="edge">
<title>Node19&#45;&gt;Node22</title>
<path fill="none" stroke="midnightblue" d="M538.94,-439.86C532.36,-430.5 524.49,-419.33 519.16,-411.75"/>
<polygon fill="midnightblue" stroke="midnightblue" points="536.11,-441.92 544.73,-448.08 541.83,-437.89 536.11,-441.92"/>
</g>
<!-- Node20&#45;&gt;Node4 -->
<g id="edge33" class="edge">
<title>Node20&#45;&gt;Node4</title>
<path fill="none" stroke="midnightblue" d="M580.57,-104.59C561.17,-80.87 525.98,-37.87 511.03,-19.59"/>
<polygon fill="midnightblue" stroke="midnightblue" points="577.9,-106.85 586.94,-112.37 583.31,-102.41 577.9,-106.85"/>
</g>
<!-- Node20&#45;&gt;Node5 -->
<g id="edge34" class="edge">
<title>Node20&#45;&gt;Node5</title>
<path fill="none" stroke="midnightblue" d="M616.19,-106.9C631.78,-97 652.13,-84.07 665.38,-75.65"/>
<polygon fill="midnightblue" stroke="midnightblue" points="614.22,-104.01 607.66,-112.32 617.97,-109.92 614.22,-104.01"/>
</g>
<!-- Node21&#45;&gt;Node4 -->
<g id="edge36" class="edge">
<title>Node21&#45;&gt;Node4</title>
<path fill="none" stroke="midnightblue" d="M699.02,-270.4C694.59,-236.11 681.23,-161.92 645,-112 612.28,-66.92 553.22,-34.25 522.97,-19.59"/>
<polygon fill="midnightblue" stroke="midnightblue" points="695.55,-270.88 700.2,-280.4 702.51,-270.06 695.55,-270.88"/>
</g>
<!-- Node23&#45;&gt;Node12 -->
<g id="edge50" class="edge">
<title>Node23&#45;&gt;Node12</title>
<path fill="none" stroke="midnightblue" d="M780.38,-438.21C787.49,-402.45 797.05,-324.24 757,-280 736.14,-256.96 654.68,-245.02 598.25,-239.38"/>
<polygon fill="midnightblue" stroke="midnightblue" points="776.9,-437.72 778.22,-448.23 783.74,-439.19 776.9,-437.72"/>
</g>
<!-- Node23&#45;&gt;Node17 -->
<g id="edge49" class="edge">
<title>Node23&#45;&gt;Node17</title>
<path fill="none" stroke="midnightblue" d="M733.66,-451.52C656.42,-441.52 492.96,-420.35 409.84,-409.58"/>
<polygon fill="midnightblue" stroke="midnightblue" points="733.6,-455.04 743.97,-452.85 734.5,-448.1 733.6,-455.04"/>
</g>
<!-- Node24 -->
<g id="node24" class="node">
<title>Node24</title>
<g id="a_node24"><a xlink:href="Tensor_8h.html" target="_top" xlink:title="Templated C++ wrapper for MTensor.">
<polygon fill="white" stroke="black" points="860.5,-168.5 860.5,-187.5 913.5,-187.5 913.5,-168.5 860.5,-168.5"/>
<text text-anchor="middle" x="887" y="-175.5" font-family="Helvetica,sans-Serif" font-size="10.00">Tensor.h</text>
</a>
</g>
</g>
<!-- Node23&#45;&gt;Node24 -->
<g id="edge41" class="edge">
<title>Node23&#45;&gt;Node24</title>
<path fill="none" stroke="midnightblue" d="M817.8,-447.28C838.25,-440.53 861.7,-429.52 877,-412 896.8,-389.33 896,-377.1 896,-347 896,-347 896,-347 896,-289 896,-251.06 890.62,-206.01 888.18,-187.54"/>
<polygon fill="midnightblue" stroke="midnightblue" points="816.59,-443.99 808.05,-450.26 818.64,-450.68 816.59,-443.99"/>
</g>
<!-- Node28 -->
<g id="node28" class="node">
<title>Node28</title>
<g id="a_node28"><a xlink:href="Views_2Tensor_8hpp.html" target="_top" xlink:title="Definition and implementation of TensorView and TensorTypedView.">
<polygon fill="white" stroke="black" points="804,-392.5 804,-411.5 868,-411.5 868,-392.5 804,-392.5"/>
<text text-anchor="middle" x="836" y="-399.5" font-family="Helvetica,sans-Serif" font-size="10.00">Tensor.hpp</text>
</a>
</g>
</g>
<!-- Node23&#45;&gt;Node28 -->
<g id="edge48" class="edge">
<title>Node23&#45;&gt;Node28</title>
<path fill="none" stroke="midnightblue" d="M793.18,-441.54C803.88,-431.91 817.26,-419.87 826.18,-411.83"/>
<polygon fill="midnightblue" stroke="midnightblue" points="790.73,-439.03 785.64,-448.32 795.41,-444.24 790.73,-439.03"/>
</g>
<!-- Node24&#45;&gt;Node4 -->
<g id="edge42" class="edge">
<title>Node24&#45;&gt;Node4</title>
<path fill="none" stroke="midnightblue" d="M890.28,-158.43C893.84,-131.64 895.75,-82.44 868,-56 814.12,-4.65 608.02,-34.43 535,-20 531.92,-19.39 528.71,-18.62 525.56,-17.78"/>
<polygon fill="midnightblue" stroke="midnightblue" points="886.81,-158 888.74,-168.41 893.73,-159.07 886.81,-158"/>
</g>
<!-- Node24&#45;&gt;Node5 -->
<g id="edge43" class="edge">
<title>Node24&#45;&gt;Node5</title>
<path fill="none" stroke="midnightblue" d="M850.37,-169.45C821.71,-162.51 781.56,-150.46 750,-132 723.46,-116.47 698.39,-89.69 686.39,-75.85"/>
<polygon fill="midnightblue" stroke="midnightblue" points="849.83,-172.92 860.37,-171.77 851.42,-166.1 849.83,-172.92"/>
</g>
<!-- Node25 -->
<g id="node25" class="node">
<title>Node25</title>
<g id="a_node25"><a xlink:href="ProgressMonitor_8h.html" target="_top" xlink:title="Definition of ProgressMonitor class.">
<polygon fill="white" stroke="black" points="758.5,-112.5 758.5,-131.5 853.5,-131.5 853.5,-112.5 758.5,-112.5"/>
<text text-anchor="middle" x="806" y="-119.5" font-family="Helvetica,sans-Serif" font-size="10.00">ProgressMonitor.h</text>
</a>
</g>
</g>
<!-- Node24&#45;&gt;Node25 -->
<g id="edge44" class="edge">
<title>Node24&#45;&gt;Node25</title>
<path fill="none" stroke="midnightblue" d="M865.43,-162.62C850.64,-152.76 831.49,-139.99 818.98,-131.65"/>
<polygon fill="midnightblue" stroke="midnightblue" points="863.72,-165.69 873.99,-168.32 867.61,-159.86 863.72,-165.69"/>
</g>
<!-- Node27 -->
<g id="node27" class="node">
<title>Node27</title>
<g id="a_node27"><a xlink:href="Tensor_8cpp.html" target="_top" xlink:title="Template specialization of certain methods from TypedTensor class for all underlying data types that ...">
<polygon fill="white" stroke="black" points="915,-112.5 915,-131.5 979,-131.5 979,-112.5 915,-112.5"/>
<text text-anchor="middle" x="947" y="-119.5" font-family="Helvetica,sans-Serif" font-size="10.00">Tensor.cpp</text>
</a>
</g>
</g>
<!-- Node24&#45;&gt;Node27 -->
<g id="edge47" class="edge">
<title>Node24&#45;&gt;Node27</title>
<path fill="none" stroke="midnightblue" d="M904.18,-161.54C914.88,-151.91 928.26,-139.87 937.18,-131.83"/>
<polygon fill="midnightblue" stroke="midnightblue" points="901.73,-159.03 896.64,-168.32 906.41,-164.24 901.73,-159.03"/>
</g>
<!-- Node25&#45;&gt;Node5 -->
<g id="edge45" class="edge">
<title>Node25&#45;&gt;Node5</title>
<path fill="none" stroke="midnightblue" d="M776.61,-108.5C752.8,-98.38 719.89,-84.39 699.03,-75.52"/>
<polygon fill="midnightblue" stroke="midnightblue" points="775.3,-111.75 785.88,-112.44 778.04,-105.31 775.3,-111.75"/>
</g>
<!-- Node26 -->
<g id="node26" class="node">
<title>Node26</title>
<g id="a_node26"><a xlink:href="ProgressMonitor_8cpp.html" target="_top" xlink:title="Implementation file for ProgressMonitor class.">
<polygon fill="white" stroke="black" points="753,-56.5 753,-75.5 859,-75.5 859,-56.5 753,-56.5"/>
<text text-anchor="middle" x="806" y="-63.5" font-family="Helvetica,sans-Serif" font-size="10.00">ProgressMonitor.cpp</text>
</a>
</g>
</g>
<!-- Node25&#45;&gt;Node26 -->
<g id="edge46" class="edge">
<title>Node25&#45;&gt;Node26</title>
<path fill="none" stroke="midnightblue" d="M806,-101.8C806,-92.91 806,-82.78 806,-75.75"/>
<polygon fill="midnightblue" stroke="midnightblue" points="802.5,-102.08 806,-112.08 809.5,-102.08 802.5,-102.08"/>
</g>
</g>
</svg>
        <g id="navigator" transform="translate(0 0)" fill="#404254">
                <rect fill="#f2f5e9" fill-opacity="0.5" stroke="#606060" stroke-width=".5" x="0" y="0" width="60" height="60"/>
                <use id="zoomplus" xlink:href="#zoomPlus" x="17" y="9" onmousedown="handleZoom(evt,'in')"/>
                <use id="zoomminus" xlink:href="#zoomMin" x="42" y="9" onmousedown="handleZoom(evt,'out')"/>
                <use id="reset" xlink:href="#resetDef" x="30" y="36" onmousedown="handleReset()"/>
                <g id="arrowUp" xlink:href="#dirArrow" transform="translate(30 24)" onmousedown="handlePan(0,-1)">
                  <use xlink:href="#rim" fill="#404040">
                        <set attributeName="fill" to="#808080" begin="arrowUp.mouseover" end="arrowUp.mouseout"/>
                  </use>
                  <path fill="none" stroke="white" stroke-width="1.5" d="M0,-3.0v7 M-2.5,-0.5L0,-3.0L2.5,-0.5"/>
                </g>
                <g id="arrowRight" xlink:href="#dirArrow" transform="rotate(90) translate(36 -43)" onmousedown="handlePan(1,0)">
                  <use xlink:href="#rim" fill="#404040">
                        <set attributeName="fill" to="#808080" begin="arrowRight.mouseover" end="arrowRight.mouseout"/>
                  </use>
                  <path fill="none" stroke="white" stroke-width="1.5" d="M0,-3.0v7 M-2.5,-0.5L0,-3.0L2.5,-0.5"/>
                </g>
                <g id="arrowDown" xlink:href="#dirArrow" transform="rotate(180) translate(-30 -48)" onmousedown="handlePan(0,1)">
                  <use xlink:href="#rim" fill="#404040">
                        <set attributeName="fill" to="#808080" begin="arrowDown.mouseover" end="arrowDown.mouseout"/>
                  </use>
                  <path fill="none" stroke="white" stroke-width="1.5" d="M0,-3.0v7 M-2.5,-0.5L0,-3.0L2.5,-0.5"/>
                </g>
                <g id="arrowLeft" xlink:href="#dirArrow" transform="rotate(270) translate(-36 17)" onmousedown="handlePan(-1,0)">
                  <use xlink:href="#rim" fill="#404040">
                        <set attributeName="fill" to="#808080" begin="arrowLeft.mouseover" end="arrowLeft.mouseout"/>
                  </use>
                  <path fill="none" stroke="white" stroke-width="1.5" d="M0,-3.0v7 M-2.5,-0.5L0,-3.0L2.5,-0.5"/>
                </g>
        </g>
        <svg viewBox="0 0 15 15" width="100%" height="30px" preserveAspectRatio="xMaxYMin meet">
         <g id="arrow_out" transform="scale(0.3 0.3)">
          <a xlink:href="Base_8hpp__dep__incl_org.svg" target="_base">
           <rect id="button" ry="5" rx="5" y="6" x="6" height="38" width="38"
                fill="#f2f5e9" fill-opacity="0.5" stroke="#606060" stroke-width="1.0"/>
           <path id="arrow"
             d="M 11.500037,31.436501 C 11.940474,20.09759 22.043105,11.32322 32.158766,21.979434 L 37.068811,17.246167 C 37.068811,17.246167 37.088388,32 37.088388,32 L 22.160133,31.978069 C 22.160133,31.978069 26.997745,27.140456 26.997745,27.140456 C 18.528582,18.264221 13.291696,25.230495 11.500037,31.436501 z"
             style="fill:#404040;"/>
          </a>
         </g>
        </svg>
</svg>
