<?xml version="1.0" encoding="UTF-8" standalone="no"?>
<!DOCTYPE svg PUBLIC "-//W3C//DTD SVG 1.1//EN"
 "http://www.w3.org/Graphics/SVG/1.1/DTD/svg11.dtd">
<!-- Generated by graphviz version 2.40.1 (20161225.0304)
 -->
<!-- Title: LLU::NumericArrayTypedView&lt; T &gt; Pages: 1 -->
<svg width="296pt" height="140pt"
 viewBox="0.00 0.00 296.00 140.00" xmlns="http://www.w3.org/2000/svg" xmlns:xlink="http://www.w3.org/1999/xlink">
<g id="graph0" class="graph" transform="scale(1 1) rotate(0) translate(4 136)">
<title>LLU::NumericArrayTypedView&lt; T &gt;</title>
<polygon fill="#ffffff" stroke="transparent" points="-4,4 -4,-136 292,-136 292,4 -4,4"/>
<!-- Node1 -->
<g id="node1" class="node">
<title>Node1</title>
<g id="a_node1"><a xlink:title="Simple, light&#45;weight, non&#45;owning wrappper over MNumericArray.">
<polygon fill="#bfbfbf" stroke="#000000" points="57,-.5 57,-19.5 230,-19.5 230,-.5 57,-.5"/>
<text text-anchor="middle" x="143.5" y="-7.5" font-family="Helvetica,sans-Serif" font-size="10.00" fill="#000000">LLU::NumericArrayTypedView&lt; T &gt;</text>
</a>
</g>
</g>
<!-- Node2 -->
<g id="node2" class="node">
<title>Node2</title>
<g id="a_node2"><a xlink:href="classLLU_1_1NumericArrayView.html" target="_top" xlink:title="Simple, light&#45;weight, non&#45;owning, data&#45;type&#45;agnostic wrappper over MNumericArray.">
<polygon fill="#ffffff" stroke="#000000" points="8.5,-56.5 8.5,-75.5 130.5,-75.5 130.5,-56.5 8.5,-56.5"/>
<text text-anchor="middle" x="69.5" y="-63.5" font-family="Helvetica,sans-Serif" font-size="10.00" fill="#000000">LLU::NumericArrayView</text>
</a>
</g>
</g>
<!-- Node2&#45;&gt;Node1 -->
<g id="edge1" class="edge">
<title>Node2&#45;&gt;Node1</title>
<path fill="none" stroke="#191970" d="M90.3657,-50.2097C103.3625,-40.3743 119.6622,-28.0394 130.7579,-19.6427"/>
<polygon fill="#191970" stroke="#191970" points="88.2518,-47.4201 82.3898,-56.2455 92.476,-53.002 88.2518,-47.4201"/>
</g>
<!-- Node3 -->
<g id="node3" class="node">
<title>Node3</title>
<g id="a_node3"><a xlink:href="structLLU_1_1NumericArrayInterface.html" target="_top" xlink:title="Abstract class that defines a basic set of operations on a numeric array.">
<polygon fill="#ffffff" stroke="#000000" points="0,-112.5 0,-131.5 139,-131.5 139,-112.5 0,-112.5"/>
<text text-anchor="middle" x="69.5" y="-119.5" font-family="Helvetica,sans-Serif" font-size="10.00" fill="#000000">LLU::NumericArrayInterface</text>
</a>
</g>
</g>
<!-- Node3&#45;&gt;Node2 -->
<g id="edge2" class="edge">
<title>Node3&#45;&gt;Node2</title>
<path fill="none" stroke="#191970" d="M69.5,-102.1575C69.5,-93.155 69.5,-82.9199 69.5,-75.6427"/>
<polygon fill="#191970" stroke="#191970" points="66.0001,-102.2455 69.5,-112.2455 73.0001,-102.2456 66.0001,-102.2455"/>
</g>
<!-- Node4 -->
<g id="node4" class="node">
<title>Node4</title>
<g id="a_node4"><a xlink:href="classLLU_1_1IterableContainer.html" target="_top" xlink:title="Abstract class that provides iterators (c/r/begin and c/r/end methods) and subscript operator for any...">
<polygon fill="#ffffff" stroke="#000000" points="149,-56.5 149,-75.5 288,-75.5 288,-56.5 149,-56.5"/>
<text text-anchor="middle" x="218.5" y="-63.5" font-family="Helvetica,sans-Serif" font-size="10.00" fill="#000000">LLU::IterableContainer&lt; T &gt;</text>
</a>
</g>
</g>
<!-- Node4&#45;&gt;Node1 -->
<g id="edge3" class="edge">
<title>Node4&#45;&gt;Node1</title>
<path fill="none" stroke="#191970" d="M197.3523,-50.2097C184.1799,-40.3743 167.66,-28.0394 156.4143,-19.6427"/>
<polygon fill="#191970" stroke="#191970" points="195.3291,-53.0671 205.436,-56.2455 199.5172,-47.4581 195.3291,-53.0671"/>
</g>
</g>
</svg>
