<?xml version="1.0" encoding="UTF-8" standalone="no"?>
<!DOCTYPE svg PUBLIC "-//W3C//DTD SVG 1.1//EN"
 "http://www.w3.org/Graphics/SVG/1.1/DTD/svg11.dtd">
<!-- Generated by graphviz version 2.40.1 (20161225.0304)
 -->
<!-- Title: LLU::NumericArray&lt; T &gt; Pages: 1 -->
<svg width="705pt" height="116pt"
 viewBox="0.00 0.00 705.00 115.50" xmlns="http://www.w3.org/2000/svg" xmlns:xlink="http://www.w3.org/1999/xlink">
<g id="graph0" class="graph" transform="scale(1 1) rotate(0) translate(4 111.5)">
<title>LLU::NumericArray&lt; T &gt;</title>
<polygon fill="#ffffff" stroke="transparent" points="-4,4 -4,-111.5 701,-111.5 701,4 -4,4"/>
<!-- Node1 -->
<g id="node1" class="node">
<title>Node1</title>
<g id="a_node1"><a xlink:title="This is a class template, where template parameter T is the type of data elements....">
<polygon fill="#bfbfbf" stroke="#000000" points="572,-69 572,-88 697,-88 697,-69 572,-69"/>
<text text-anchor="middle" x="634.5" y="-76" font-family="Helvetica,sans-Serif" font-size="10.00" fill="#000000">LLU::NumericArray&lt; T &gt;</text>
</a>
</g>
</g>
<!-- Node2 -->
<g id="node2" class="node">
<title>Node2</title>
<g id="a_node2"><a xlink:href="classLLU_1_1TypedNumericArray.html" target="_top" xlink:title="Typed interface for NumericArray.">
<polygon fill="#ffffff" stroke="#000000" points="384,-88 384,-107 536,-107 536,-88 384,-88"/>
<text text-anchor="middle" x="460" y="-95" font-family="Helvetica,sans-Serif" font-size="10.00" fill="#000000">LLU::TypedNumericArray&lt; T &gt;</text>
</a>
</g>
</g>
<!-- Node2&#45;&gt;Node1 -->
<g id="edge1" class="edge">
<title>Node2&#45;&gt;Node1</title>
<path fill="none" stroke="#191970" d="M546.1521,-88.1195C554.797,-87.1783 563.4563,-86.2354 571.7904,-85.328"/>
<polygon fill="#191970" stroke="#191970" points="545.593,-84.6596 536.0306,-89.2216 546.3507,-91.6185 545.593,-84.6596"/>
</g>
<!-- Node3 -->
<g id="node3" class="node">
<title>Node3</title>
<g id="a_node3"><a xlink:href="classLLU_1_1MArray.html" target="_top" xlink:title="This is a class template, where template parameter T is the type of data elements....">
<polygon fill="#ffffff" stroke="#000000" points="213.5,-88 213.5,-107 309.5,-107 309.5,-88 213.5,-88"/>
<text text-anchor="middle" x="261.5" y="-95" font-family="Helvetica,sans-Serif" font-size="10.00" fill="#000000">LLU::MArray&lt; T &gt;</text>
</a>
</g>
</g>
<!-- Node3&#45;&gt;Node2 -->
<g id="edge2" class="edge">
<title>Node3&#45;&gt;Node2</title>
<path fill="none" stroke="#191970" d="M319.7543,-97.5C339.7785,-97.5 362.5038,-97.5 383.7426,-97.5"/>
<polygon fill="#191970" stroke="#191970" points="319.5513,-94.0001 309.5513,-97.5 319.5513,-101.0001 319.5513,-94.0001"/>
</g>
<!-- Node4 -->
<g id="node4" class="node">
<title>Node4</title>
<g id="a_node4"><a xlink:href="classLLU_1_1IterableContainer.html" target="_top" xlink:title="Abstract class that provides iterators (c/r/begin and c/r/end methods) and subscript operator for any...">
<polygon fill="#ffffff" stroke="#000000" points="0,-88 0,-107 139,-107 139,-88 0,-88"/>
<text text-anchor="middle" x="69.5" y="-95" font-family="Helvetica,sans-Serif" font-size="10.00" fill="#000000">LLU::IterableContainer&lt; T &gt;</text>
</a>
</g>
</g>
<!-- Node4&#45;&gt;Node3 -->
<g id="edge3" class="edge">
<title>Node4&#45;&gt;Node3</title>
<path fill="none" stroke="#191970" d="M149.335,-97.5C171.1229,-97.5 194.0546,-97.5 213.4654,-97.5"/>
<polygon fill="#191970" stroke="#191970" points="149.0879,-94.0001 139.0879,-97.5 149.0878,-101.0001 149.0879,-94.0001"/>
</g>
<!-- Node5 -->
<g id="node5" class="node">
<title>Node5</title>
<g id="a_node5"><a xlink:href="classLLU_1_1MContainer_3_01MArgumentType_1_1NumericArray_01_4.html" target="_top" xlink:title="MContainer specialization for MNumericArray.">
<polygon fill="#ffffff" stroke="#000000" points="405,-50 405,-69 515,-69 515,-50 405,-50"/>
<text text-anchor="middle" x="460" y="-57" font-family="Helvetica,sans-Serif" font-size="10.00" fill="#000000">GenericNumericArray</text>
</a>
</g>
</g>
<!-- Node5&#45;&gt;Node1 -->
<g id="edge4" class="edge">
<title>Node5&#45;&gt;Node1</title>
<path fill="none" stroke="#191970" d="M525.5204,-66.634C540.6594,-68.2824 556.7306,-70.0323 571.748,-71.6674"/>
<polygon fill="#191970" stroke="#191970" points="525.533,-63.1148 515.2129,-65.5117 524.7753,-70.0737 525.533,-63.1148"/>
</g>
<!-- Node6 -->
<g id="node6" class="node">
<title>Node6</title>
<g id="a_node6"><a xlink:href="structLLU_1_1NumericArrayInterface.html" target="_top" xlink:title="Abstract class that defines a basic set of operations on a numeric array.">
<polygon fill="#ffffff" stroke="#000000" points="192,-50 192,-69 331,-69 331,-50 192,-50"/>
<text text-anchor="middle" x="261.5" y="-57" font-family="Helvetica,sans-Serif" font-size="10.00" fill="#000000">LLU::NumericArrayInterface</text>
</a>
</g>
</g>
<!-- Node6&#45;&gt;Node5 -->
<g id="edge5" class="edge">
<title>Node6&#45;&gt;Node5</title>
<path fill="none" stroke="#191970" d="M341.2287,-59.5C362.5601,-59.5 385.1442,-59.5 404.8262,-59.5"/>
<polygon fill="#191970" stroke="#191970" points="341.2046,-56.0001 331.2046,-59.5 341.2045,-63.0001 341.2046,-56.0001"/>
</g>
<!-- Node7 -->
<g id="node7" class="node">
<title>Node7</title>
<g id="a_node7"><a xlink:href="classLLU_1_1MContainerBase.html" target="_top" xlink:title=" ">
<polygon fill="#ffffff" stroke="#000000" points="175,-.5 175,-30.5 348,-30.5 348,-.5 175,-.5"/>
<text text-anchor="start" x="183" y="-18.5" font-family="Helvetica,sans-Serif" font-size="10.00" fill="#000000">LLU::MContainerBase</text>
<text text-anchor="middle" x="261.5" y="-7.5" font-family="Helvetica,sans-Serif" font-size="10.00" fill="#000000">&lt; MArgumentType::NumericArray &gt;</text>
</a>
</g>
</g>
<!-- Node7&#45;&gt;Node5 -->
<g id="edge6" class="edge">
<title>Node7&#45;&gt;Node5</title>
<path fill="none" stroke="#191970" d="M339.2812,-32.7412C365.7527,-38.6089 394.3643,-44.951 417.086,-49.9876"/>
<polygon fill="#191970" stroke="#191970" points="339.7777,-29.2664 329.2573,-30.5192 338.2628,-36.1005 339.7777,-29.2664"/>
</g>
</g>
</svg>
