<?xml version="1.0" encoding="UTF-8" standalone="no"?>
<!DOCTYPE svg PUBLIC "-//W3C//DTD SVG 1.1//EN"
 "http://www.w3.org/Graphics/SVG/1.1/DTD/svg11.dtd">
<!-- Generated by graphviz version 2.40.1 (20161225.0304)
 -->
<!-- Title: LLU::DataList&lt; T &gt; Pages: 1 -->
<svg width="165pt" height="162pt"
 viewBox="0.00 0.00 165.00 162.00" xmlns="http://www.w3.org/2000/svg" xmlns:xlink="http://www.w3.org/1999/xlink">
<g id="graph0" class="graph" transform="scale(1 1) rotate(0) translate(4 158)">
<title>LLU::DataList&lt; T &gt;</title>
<polygon fill="#ffffff" stroke="transparent" points="-4,4 -4,-158 161,-158 161,4 -4,4"/>
<!-- Node1 -->
<g id="node1" class="node">
<title>Node1</title>
<g id="a_node1"><a xlink:title="Top&#45;level wrapper over LibraryLink&#39;s DataStore.">
<polygon fill="#bfbfbf" stroke="#000000" points="28,-.5 28,-19.5 129,-19.5 129,-.5 28,-.5"/>
<text text-anchor="middle" x="78.5" y="-7.5" font-family="Helvetica,sans-Serif" font-size="10.00" fill="#000000">LLU::DataList&lt; T &gt;</text>
</a>
</g>
</g>
<!-- Node2 -->
<g id="node2" class="node">
<title>Node2</title>
<g id="a_node2"><a xlink:href="classLLU_1_1MContainer_3_01MArgumentType_1_1DataStore_01_4.html" target="_top" xlink:title="MContainer specialization for DataStore, provides basic list interface for the underlying raw DataSto...">
<polygon fill="#ffffff" stroke="#000000" points="3.5,-56.5 3.5,-86.5 153.5,-86.5 153.5,-56.5 3.5,-56.5"/>
<text text-anchor="start" x="11.5" y="-74.5" font-family="Helvetica,sans-Serif" font-size="10.00" fill="#000000">LLU::MContainer&lt; MArgument</text>
<text text-anchor="middle" x="78.5" y="-63.5" font-family="Helvetica,sans-Serif" font-size="10.00" fill="#000000">Type::DataStore &gt;</text>
</a>
</g>
</g>
<!-- Node2&#45;&gt;Node1 -->
<g id="edge1" class="edge">
<title>Node2&#45;&gt;Node1</title>
<path fill="none" stroke="#191970" d="M78.5,-46.2849C78.5,-36.9858 78.5,-26.9883 78.5,-19.8469"/>
<polygon fill="#191970" stroke="#191970" points="75.0001,-46.2977 78.5,-56.2977 82.0001,-46.2978 75.0001,-46.2977"/>
</g>
<!-- Node3 -->
<g id="node3" class="node">
<title>Node3</title>
<g id="a_node3"><a xlink:href="classLLU_1_1MContainerBase.html" target="_top" xlink:title=" ">
<polygon fill="#ffffff" stroke="#000000" points="0,-123.5 0,-153.5 157,-153.5 157,-123.5 0,-123.5"/>
<text text-anchor="start" x="8" y="-141.5" font-family="Helvetica,sans-Serif" font-size="10.00" fill="#000000">LLU::MContainerBase</text>
<text text-anchor="middle" x="78.5" y="-130.5" font-family="Helvetica,sans-Serif" font-size="10.00" fill="#000000">&lt; MArgumentType::DataStore &gt;</text>
</a>
</g>
</g>
<!-- Node3&#45;&gt;Node2 -->
<g id="edge2" class="edge">
<title>Node3&#45;&gt;Node2</title>
<path fill="none" stroke="#191970" d="M78.5,-113.0249C78.5,-104.128 78.5,-94.4287 78.5,-86.6432"/>
<polygon fill="#191970" stroke="#191970" points="75.0001,-113.2966 78.5,-123.2967 82.0001,-113.2967 75.0001,-113.2966"/>
</g>
</g>
</svg>
