<?xml version="1.0" encoding="UTF-8" standalone="no"?>
<!DOCTYPE svg PUBLIC "-//W3C//DTD SVG 1.1//EN"
 "http://www.w3.org/Graphics/SVG/1.1/DTD/svg11.dtd">
<!-- Generated by graphviz version 2.40.1 (20161225.0304)
 -->
<!-- Title: LLU::TypedTensor&lt; T &gt; Pages: 1 -->
<svg width="147pt" height="140pt"
 viewBox="0.00 0.00 147.00 140.00" xmlns="http://www.w3.org/2000/svg" xmlns:xlink="http://www.w3.org/1999/xlink">
<g id="graph0" class="graph" transform="scale(1 1) rotate(0) translate(4 136)">
<title>LLU::TypedTensor&lt; T &gt;</title>
<polygon fill="#ffffff" stroke="transparent" points="-4,4 -4,-136 143,-136 143,4 -4,4"/>
<!-- Node1 -->
<g id="node1" class="node">
<title>Node1</title>
<g id="a_node1"><a xlink:title="Typed interface for Tensor.">
<polygon fill="#bfbfbf" stroke="#000000" points="8.5,-.5 8.5,-19.5 130.5,-19.5 130.5,-.5 8.5,-.5"/>
<text text-anchor="middle" x="69.5" y="-7.5" font-family="Helvetica,sans-Serif" font-size="10.00" fill="#000000">LLU::TypedTensor&lt; T &gt;</text>
</a>
</g>
</g>
<!-- Node2 -->
<g id="node2" class="node">
<title>Node2</title>
<g id="a_node2"><a xlink:href="classLLU_1_1MArray.html" target="_top" xlink:title="This is a class template, where template parameter T is the type of data elements....">
<polygon fill="#ffffff" stroke="#000000" points="21.5,-56.5 21.5,-75.5 117.5,-75.5 117.5,-56.5 21.5,-56.5"/>
<text text-anchor="middle" x="69.5" y="-63.5" font-family="Helvetica,sans-Serif" font-size="10.00" fill="#000000">LLU::MArray&lt; T &gt;</text>
</a>
</g>
</g>
<!-- Node2&#45;&gt;Node1 -->
<g id="edge1" class="edge">
<title>Node2&#45;&gt;Node1</title>
<path fill="none" stroke="#191970" d="M69.5,-46.1575C69.5,-37.155 69.5,-26.9199 69.5,-19.6427"/>
<polygon fill="#191970" stroke="#191970" points="66.0001,-46.2455 69.5,-56.2455 73.0001,-46.2456 66.0001,-46.2455"/>
</g>
<!-- Node3 -->
<g id="node3" class="node">
<title>Node3</title>
<g id="a_node3"><a xlink:href="classLLU_1_1IterableContainer.html" target="_top" xlink:title="Abstract class that provides iterators (c/r/begin and c/r/end methods) and subscript operator for any...">
<polygon fill="#ffffff" stroke="#000000" points="0,-112.5 0,-131.5 139,-131.5 139,-112.5 0,-112.5"/>
<text text-anchor="middle" x="69.5" y="-119.5" font-family="Helvetica,sans-Serif" font-size="10.00" fill="#000000">LLU::IterableContainer&lt; T &gt;</text>
</a>
</g>
</g>
<!-- Node3&#45;&gt;Node2 -->
<g id="edge2" class="edge">
<title>Node3&#45;&gt;Node2</title>
<path fill="none" stroke="#191970" d="M69.5,-102.1575C69.5,-93.155 69.5,-82.9199 69.5,-75.6427"/>
<polygon fill="#191970" stroke="#191970" points="66.0001,-102.2455 69.5,-112.2455 73.0001,-102.2456 66.0001,-102.2455"/>
</g>
</g>
</svg>
