<?xml version="1.0" encoding="UTF-8" standalone="no"?>
<!DOCTYPE svg PUBLIC "-//W3C//DTD SVG 1.1//EN"
 "http://www.w3.org/Graphics/SVG/1.1/DTD/svg11.dtd">
<!-- Generated by graphviz version 2.40.1 (20161225.0304)
 -->
<!-- Title: LLU::MContainer&lt; MArgumentType::NumericArray &gt; Pages: 1 -->
<svg width="338pt" height="106pt"
 viewBox="0.00 0.00 338.00 106.00" xmlns="http://www.w3.org/2000/svg" xmlns:xlink="http://www.w3.org/1999/xlink">
<g id="graph0" class="graph" transform="scale(1 1) rotate(0) translate(4 102)">
<title>LLU::MContainer&lt; MArgumentType::NumericArray &gt;</title>
<polygon fill="#ffffff" stroke="transparent" points="-4,4 -4,-102 334,-102 334,4 -4,4"/>
<!-- Node1 -->
<g id="node1" class="node">
<title>Node1</title>
<g id="a_node1"><a xlink:title="MContainer specialization for MNumericArray.">
<polygon fill="#bfbfbf" stroke="#000000" points="81.5,-.5 81.5,-30.5 231.5,-30.5 231.5,-.5 81.5,-.5"/>
<text text-anchor="start" x="89.5" y="-18.5" font-family="Helvetica,sans-Serif" font-size="10.00" fill="#000000">LLU::MContainer&lt; MArgument</text>
<text text-anchor="middle" x="156.5" y="-7.5" font-family="Helvetica,sans-Serif" font-size="10.00" fill="#000000">Type::NumericArray &gt;</text>
</a>
</g>
</g>
<!-- Node2 -->
<g id="node2" class="node">
<title>Node2</title>
<g id="a_node2"><a xlink:href="structLLU_1_1NumericArrayInterface.html" target="_top" xlink:title="Abstract class that defines a basic set of operations on a numeric array.">
<polygon fill="#ffffff" stroke="#000000" points="0,-73 0,-92 139,-92 139,-73 0,-73"/>
<text text-anchor="middle" x="69.5" y="-80" font-family="Helvetica,sans-Serif" font-size="10.00" fill="#000000">LLU::NumericArrayInterface</text>
</a>
</g>
</g>
<!-- Node2&#45;&gt;Node1 -->
<g id="edge1" class="edge">
<title>Node2&#45;&gt;Node1</title>
<path fill="none" stroke="#191970" d="M90.1314,-66.6115C104.3227,-55.6825 123.0514,-41.2592 136.9941,-30.5218"/>
<polygon fill="#191970" stroke="#191970" points="87.7523,-64.026 81.965,-72.9005 92.0234,-69.572 87.7523,-64.026"/>
</g>
<!-- Node3 -->
<g id="node3" class="node">
<title>Node3</title>
<g id="a_node3"><a xlink:href="classLLU_1_1MContainerBase.html" target="_top" xlink:title=" ">
<polygon fill="#ffffff" stroke="#000000" points="157,-67.5 157,-97.5 330,-97.5 330,-67.5 157,-67.5"/>
<text text-anchor="start" x="165" y="-85.5" font-family="Helvetica,sans-Serif" font-size="10.00" fill="#000000">LLU::MContainerBase</text>
<text text-anchor="middle" x="243.5" y="-74.5" font-family="Helvetica,sans-Serif" font-size="10.00" fill="#000000">&lt; MArgumentType::NumericArray &gt;</text>
</a>
</g>
</g>
<!-- Node3&#45;&gt;Node1 -->
<g id="edge2" class="edge">
<title>Node3&#45;&gt;Node1</title>
<path fill="none" stroke="#191970" d="M215.6656,-61.0643C202.8018,-51.1577 187.8285,-39.6265 176.1635,-30.6432"/>
<polygon fill="#191970" stroke="#191970" points="213.6999,-63.9681 223.7584,-67.2967 217.971,-58.4221 213.6999,-63.9681"/>
</g>
</g>
</svg>
