<?xml version="1.0" encoding="UTF-8" standalone="no"?>
<!DOCTYPE svg PUBLIC "-//W3C//DTD SVG 1.1//EN"
 "http://www.w3.org/Graphics/SVG/1.1/DTD/svg11.dtd">
<!-- Generated by graphviz version 2.40.1 (20161225.0304)
 -->
<!-- Title: LLU::MContainer&lt; MArgumentType::Tensor &gt; Pages: 1 -->
<svg width="278pt" height="106pt"
 viewBox="0.00 0.00 278.00 106.00" xmlns="http://www.w3.org/2000/svg" xmlns:xlink="http://www.w3.org/1999/xlink">
<g id="graph0" class="graph" transform="scale(1 1) rotate(0) translate(4 102)">
<title>LLU::MContainer&lt; MArgumentType::Tensor &gt;</title>
<polygon fill="#ffffff" stroke="transparent" points="-4,4 -4,-102 274,-102 274,4 -4,4"/>
<!-- Node1 -->
<g id="node1" class="node">
<title>Node1</title>
<g id="a_node1"><a xlink:title="MContainer specialization for MTensor.">
<polygon fill="#bfbfbf" stroke="#000000" points="51.5,-.5 51.5,-30.5 201.5,-30.5 201.5,-.5 51.5,-.5"/>
<text text-anchor="start" x="59.5" y="-18.5" font-family="Helvetica,sans-Serif" font-size="10.00" fill="#000000">LLU::MContainer&lt; MArgument</text>
<text text-anchor="middle" x="126.5" y="-7.5" font-family="Helvetica,sans-Serif" font-size="10.00" fill="#000000">Type::Tensor &gt;</text>
</a>
</g>
</g>
<!-- Node2 -->
<g id="node2" class="node">
<title>Node2</title>
<g id="a_node2"><a xlink:href="structLLU_1_1TensorInterface.html" target="_top" xlink:title="Abstract class that defines a basic set of operations on a tensor.">
<polygon fill="#ffffff" stroke="#000000" points="0,-73 0,-92 109,-92 109,-73 0,-73"/>
<text text-anchor="middle" x="54.5" y="-80" font-family="Helvetica,sans-Serif" font-size="10.00" fill="#000000">LLU::TensorInterface</text>
</a>
</g>
</g>
<!-- Node2&#45;&gt;Node1 -->
<g id="edge1" class="edge">
<title>Node2&#45;&gt;Node1</title>
<path fill="none" stroke="#191970" d="M72.243,-65.9892C83.9023,-55.1395 99.0361,-41.0566 110.3572,-30.5218"/>
<polygon fill="#191970" stroke="#191970" points="69.7522,-63.5259 64.8158,-72.9005 74.5209,-68.6504 69.7522,-63.5259"/>
</g>
<!-- Node3 -->
<g id="node3" class="node">
<title>Node3</title>
<g id="a_node3"><a xlink:href="classLLU_1_1MContainerBase.html" target="_top" xlink:title=" ">
<polygon fill="#ffffff" stroke="#000000" points="127,-67.5 127,-97.5 270,-97.5 270,-67.5 127,-67.5"/>
<text text-anchor="start" x="135" y="-85.5" font-family="Helvetica,sans-Serif" font-size="10.00" fill="#000000">LLU::MContainerBase</text>
<text text-anchor="middle" x="198.5" y="-74.5" font-family="Helvetica,sans-Serif" font-size="10.00" fill="#000000">&lt; MArgumentType::Tensor &gt;</text>
</a>
</g>
</g>
<!-- Node3&#45;&gt;Node1 -->
<g id="edge2" class="edge">
<title>Node3&#45;&gt;Node1</title>
<path fill="none" stroke="#191970" d="M174.548,-60.2113C164.1129,-50.5009 152.1512,-39.3698 142.7733,-30.6432"/>
<polygon fill="#191970" stroke="#191970" points="172.4571,-63.0466 182.1621,-67.2967 177.2257,-57.9221 172.4571,-63.0466"/>
</g>
</g>
</svg>
