<?xml version="1.0" encoding="UTF-8" standalone="no"?>
<!DOCTYPE svg PUBLIC "-//W3C//DTD SVG 1.1//EN"
 "http://www.w3.org/Graphics/SVG/1.1/DTD/svg11.dtd">
<!-- Generated by graphviz version 2.40.1 (20161225.0304)
 -->
<!-- Title: LLU::MContainer&lt; MArgumentType::Image &gt; Pages: 1 -->
<svg width="272pt" height="106pt"
 viewBox="0.00 0.00 272.00 106.00" xmlns="http://www.w3.org/2000/svg" xmlns:xlink="http://www.w3.org/1999/xlink">
<g id="graph0" class="graph" transform="scale(1 1) rotate(0) translate(4 102)">
<title>LLU::MContainer&lt; MArgumentType::Image &gt;</title>
<polygon fill="#ffffff" stroke="transparent" points="-4,4 -4,-102 268,-102 268,4 -4,4"/>
<!-- Node1 -->
<g id="node1" class="node">
<title>Node1</title>
<g id="a_node1"><a xlink:title="MContainer specialization for MImage.">
<polygon fill="#bfbfbf" stroke="#000000" points="48,-.5 48,-30.5 198,-30.5 198,-.5 48,-.5"/>
<text text-anchor="start" x="56" y="-18.5" font-family="Helvetica,sans-Serif" font-size="10.00" fill="#000000">LLU::MContainer&lt; MArgument</text>
<text text-anchor="middle" x="123" y="-7.5" font-family="Helvetica,sans-Serif" font-size="10.00" fill="#000000">Type::Image &gt;</text>
</a>
</g>
</g>
<!-- Node2 -->
<g id="node2" class="node">
<title>Node2</title>
<g id="a_node2"><a xlink:href="structLLU_1_1ImageInterface.html" target="_top" xlink:title="Abstract class that defines a basic set of operations on an image.">
<polygon fill="#ffffff" stroke="#000000" points="0,-73 0,-92 106,-92 106,-73 0,-73"/>
<text text-anchor="middle" x="53" y="-80" font-family="Helvetica,sans-Serif" font-size="10.00" fill="#000000">LLU::ImageInterface</text>
</a>
</g>
</g>
<!-- Node2&#45;&gt;Node1 -->
<g id="edge1" class="edge">
<title>Node2&#45;&gt;Node1</title>
<path fill="none" stroke="#191970" d="M70.578,-65.6753C81.8682,-54.8691 96.4049,-40.9553 107.3056,-30.5218"/>
<polygon fill="#191970" stroke="#191970" points="67.8334,-63.4575 63.0293,-72.9005 72.6736,-68.5144 67.8334,-63.4575"/>
</g>
<!-- Node3 -->
<g id="node3" class="node">
<title>Node3</title>
<g id="a_node3"><a xlink:href="classLLU_1_1MContainerBase.html" target="_top" xlink:title=" ">
<polygon fill="#ffffff" stroke="#000000" points="124,-67.5 124,-97.5 264,-97.5 264,-67.5 124,-67.5"/>
<text text-anchor="start" x="132" y="-85.5" font-family="Helvetica,sans-Serif" font-size="10.00" fill="#000000">LLU::MContainerBase</text>
<text text-anchor="middle" x="194" y="-74.5" font-family="Helvetica,sans-Serif" font-size="10.00" fill="#000000">&lt; MArgumentType::Image &gt;</text>
</a>
</g>
</g>
<!-- Node3&#45;&gt;Node1 -->
<g id="edge2" class="edge">
<title>Node3&#45;&gt;Node1</title>
<path fill="none" stroke="#191970" d="M170.3806,-60.2113C160.0905,-50.5009 148.2949,-39.3698 139.0472,-30.6432"/>
<polygon fill="#191970" stroke="#191970" points="168.2139,-62.979 177.889,-67.2967 173.0181,-57.8879 168.2139,-62.979"/>
</g>
</g>
</svg>
