<?xml version="1.0" encoding="UTF-8" standalone="no"?>
<!DOCTYPE svg PUBLIC "-//W3C//DTD SVG 1.1//EN"
 "http://www.w3.org/Graphics/SVG/1.1/DTD/svg11.dtd">
<!-- Generated by graphviz version 2.40.1 (20161225.0304)
 -->
<!-- Title: LLU::Tensor&lt; T &gt; Pages: 1 -->
<svg width="414pt" height="207pt"
 viewBox="0.00 0.00 414.00 207.00" xmlns="http://www.w3.org/2000/svg" xmlns:xlink="http://www.w3.org/1999/xlink">
<g id="graph0" class="graph" transform="scale(1 1) rotate(0) translate(4 203)">
<title>LLU::Tensor&lt; T &gt;</title>
<polygon fill="#ffffff" stroke="transparent" points="-4,4 -4,-203 410,-203 410,4 -4,4"/>
<!-- Node1 -->
<g id="node1" class="node">
<title>Node1</title>
<g id="a_node1"><a xlink:title="This is a class template, where template parameter T is the type of data elements....">
<polygon fill="#bfbfbf" stroke="#000000" points="82,-.5 82,-19.5 177,-19.5 177,-.5 82,-.5"/>
<text text-anchor="middle" x="129.5" y="-7.5" font-family="Helvetica,sans-Serif" font-size="10.00" fill="#000000">LLU::Tensor&lt; T &gt;</text>
</a>
</g>
</g>
<!-- Node2 -->
<g id="node2" class="node">
<title>Node2</title>
<g id="a_node2"><a xlink:href="classLLU_1_1TypedTensor.html" target="_top" xlink:title="Typed interface for Tensor.">
<polygon fill="#ffffff" stroke="#000000" points="9.5,-56.5 9.5,-75.5 131.5,-75.5 131.5,-56.5 9.5,-56.5"/>
<text text-anchor="middle" x="70.5" y="-63.5" font-family="Helvetica,sans-Serif" font-size="10.00" fill="#000000">LLU::TypedTensor&lt; T &gt;</text>
</a>
</g>
</g>
<!-- Node2&#45;&gt;Node1 -->
<g id="edge1" class="edge">
<title>Node2&#45;&gt;Node1</title>
<path fill="none" stroke="#191970" d="M88.0307,-49.3607C98.2377,-39.6727 110.7469,-27.7995 119.3408,-19.6427"/>
<polygon fill="#191970" stroke="#191970" points="85.6206,-46.8227 80.777,-56.2455 90.4396,-51.8998 85.6206,-46.8227"/>
</g>
<!-- Node3 -->
<g id="node3" class="node">
<title>Node3</title>
<g id="a_node3"><a xlink:href="classLLU_1_1MArray.html" target="_top" xlink:title="This is a class template, where template parameter T is the type of data elements....">
<polygon fill="#ffffff" stroke="#000000" points="21.5,-118 21.5,-137 117.5,-137 117.5,-118 21.5,-118"/>
<text text-anchor="middle" x="69.5" y="-125" font-family="Helvetica,sans-Serif" font-size="10.00" fill="#000000">LLU::MArray&lt; T &gt;</text>
</a>
</g>
</g>
<!-- Node3&#45;&gt;Node2 -->
<g id="edge2" class="edge">
<title>Node3&#45;&gt;Node2</title>
<path fill="none" stroke="#191970" d="M69.8212,-107.7462C69.9951,-97.0519 70.2022,-84.314 70.3415,-75.7449"/>
<polygon fill="#191970" stroke="#191970" points="66.3194,-107.835 69.6563,-117.8906 73.3185,-107.9489 66.3194,-107.835"/>
</g>
<!-- Node4 -->
<g id="node4" class="node">
<title>Node4</title>
<g id="a_node4"><a xlink:href="classLLU_1_1IterableContainer.html" target="_top" xlink:title="Abstract class that provides iterators (c/r/begin and c/r/end methods) and subscript operator for any...">
<polygon fill="#ffffff" stroke="#000000" points="0,-179.5 0,-198.5 139,-198.5 139,-179.5 0,-179.5"/>
<text text-anchor="middle" x="69.5" y="-186.5" font-family="Helvetica,sans-Serif" font-size="10.00" fill="#000000">LLU::IterableContainer&lt; T &gt;</text>
</a>
</g>
</g>
<!-- Node4&#45;&gt;Node3 -->
<g id="edge3" class="edge">
<title>Node4&#45;&gt;Node3</title>
<path fill="none" stroke="#191970" d="M69.5,-169.2462C69.5,-158.5519 69.5,-145.814 69.5,-137.2449"/>
<polygon fill="#191970" stroke="#191970" points="66.0001,-169.3906 69.5,-179.3906 73.0001,-169.3907 66.0001,-169.3906"/>
</g>
<!-- Node5 -->
<g id="node5" class="node">
<title>Node5</title>
<g id="a_node5"><a xlink:href="classLLU_1_1MContainer_3_01MArgumentType_1_1Tensor_01_4.html" target="_top" xlink:title="MContainer specialization for MTensor.">
<polygon fill="#ffffff" stroke="#000000" points="150.5,-56.5 150.5,-75.5 230.5,-75.5 230.5,-56.5 150.5,-56.5"/>
<text text-anchor="middle" x="190.5" y="-63.5" font-family="Helvetica,sans-Serif" font-size="10.00" fill="#000000">GenericTensor</text>
</a>
</g>
</g>
<!-- Node5&#45;&gt;Node1 -->
<g id="edge4" class="edge">
<title>Node5&#45;&gt;Node1</title>
<path fill="none" stroke="#191970" d="M172.3751,-49.3607C161.822,-39.6727 148.8888,-27.7995 140.0036,-19.6427"/>
<polygon fill="#191970" stroke="#191970" points="170.1411,-52.0611 179.8746,-56.2455 174.875,-46.9045 170.1411,-52.0611"/>
</g>
<!-- Node6 -->
<g id="node6" class="node">
<title>Node6</title>
<g id="a_node6"><a xlink:href="structLLU_1_1TensorInterface.html" target="_top" xlink:title="Abstract class that defines a basic set of operations on a tensor.">
<polygon fill="#ffffff" stroke="#000000" points="136,-118 136,-137 245,-137 245,-118 136,-118"/>
<text text-anchor="middle" x="190.5" y="-125" font-family="Helvetica,sans-Serif" font-size="10.00" fill="#000000">LLU::TensorInterface</text>
</a>
</g>
</g>
<!-- Node6&#45;&gt;Node5 -->
<g id="edge5" class="edge">
<title>Node6&#45;&gt;Node5</title>
<path fill="none" stroke="#191970" d="M190.5,-107.7462C190.5,-97.0519 190.5,-84.314 190.5,-75.7449"/>
<polygon fill="#191970" stroke="#191970" points="187.0001,-107.8906 190.5,-117.8906 194.0001,-107.8907 187.0001,-107.8906"/>
</g>
<!-- Node7 -->
<g id="node7" class="node">
<title>Node7</title>
<g id="a_node7"><a xlink:href="classLLU_1_1MContainerBase.html" target="_top" xlink:title=" ">
<polygon fill="#ffffff" stroke="#000000" points="263,-112.5 263,-142.5 406,-142.5 406,-112.5 263,-112.5"/>
<text text-anchor="start" x="271" y="-130.5" font-family="Helvetica,sans-Serif" font-size="10.00" fill="#000000">LLU::MContainerBase</text>
<text text-anchor="middle" x="334.5" y="-119.5" font-family="Helvetica,sans-Serif" font-size="10.00" fill="#000000">&lt; MArgumentType::Tensor &gt;</text>
</a>
</g>
</g>
<!-- Node7&#45;&gt;Node5 -->
<g id="edge6" class="edge">
<title>Node7&#45;&gt;Node5</title>
<path fill="none" stroke="#191970" d="M289.7761,-108.3992C264.2217,-97.4853 233.288,-84.274 212.8149,-75.5303"/>
<polygon fill="#191970" stroke="#191970" points="288.7025,-111.7465 299.2736,-112.4554 291.4519,-105.309 288.7025,-111.7465"/>
</g>
</g>
</svg>
