<?xml version="1.0" encoding="UTF-8" standalone="no"?>
<!DOCTYPE svg PUBLIC "-//W3C//DTD SVG 1.1//EN"
 "http://www.w3.org/Graphics/SVG/1.1/DTD/svg11.dtd">
<!-- Generated by graphviz version 2.40.1 (20161225.0304)
 -->
<!-- Title: LLU::MContainer&lt; MArgumentType::Tensor &gt; Pages: 1 -->
<svg width="278pt" height="162pt"
 viewBox="0.00 0.00 278.00 162.00" xmlns="http://www.w3.org/2000/svg" xmlns:xlink="http://www.w3.org/1999/xlink">
<g id="graph0" class="graph" transform="scale(1 1) rotate(0) translate(4 158)">
<title>LLU::MContainer&lt; MArgumentType::Tensor &gt;</title>
<polygon fill="#ffffff" stroke="transparent" points="-4,4 -4,-158 274,-158 274,4 -4,4"/>
<!-- Node1 -->
<g id="node1" class="node">
<title>Node1</title>
<g id="a_node1"><a xlink:title="MContainer specialization for MTensor.">
<polygon fill="#bfbfbf" stroke="#000000" points="51.5,-56.5 51.5,-86.5 201.5,-86.5 201.5,-56.5 51.5,-56.5"/>
<text text-anchor="start" x="59.5" y="-74.5" font-family="Helvetica,sans-Serif" font-size="10.00" fill="#000000">LLU::MContainer&lt; MArgument</text>
<text text-anchor="middle" x="126.5" y="-63.5" font-family="Helvetica,sans-Serif" font-size="10.00" fill="#000000">Type::Tensor &gt;</text>
</a>
</g>
</g>
<!-- Node4 -->
<g id="node4" class="node">
<title>Node4</title>
<g id="a_node4"><a xlink:href="classLLU_1_1Tensor.html" target="_top" xlink:title="This is a class template, where template parameter T is the type of data elements....">
<polygon fill="#ffffff" stroke="#000000" points="17,-.5 17,-19.5 112,-19.5 112,-.5 17,-.5"/>
<text text-anchor="middle" x="64.5" y="-7.5" font-family="Helvetica,sans-Serif" font-size="10.00" fill="#000000">LLU::Tensor&lt; T &gt;</text>
</a>
</g>
</g>
<!-- Node1&#45;&gt;Node4 -->
<g id="edge3" class="edge">
<title>Node1&#45;&gt;Node4</title>
<path fill="none" stroke="#191970" d="M103.7786,-48.9618C93.6829,-38.9475 82.3231,-27.6794 74.427,-19.8469"/>
<polygon fill="#191970" stroke="#191970" points="101.6096,-51.7402 111.1742,-56.2977 106.5393,-46.7705 101.6096,-51.7402"/>
</g>
<!-- Node5 -->
<g id="node5" class="node">
<title>Node5</title>
<g id="a_node5"><a xlink:href="classLLU_1_1Tensor.html" target="_top" xlink:title=" ">
<polygon fill="#ffffff" stroke="#000000" points="130,-.5 130,-19.5 247,-19.5 247,-.5 130,-.5"/>
<text text-anchor="middle" x="188.5" y="-7.5" font-family="Helvetica,sans-Serif" font-size="10.00" fill="#000000">LLU::Tensor&lt; double &gt;</text>
</a>
</g>
</g>
<!-- Node1&#45;&gt;Node5 -->
<g id="edge4" class="edge">
<title>Node1&#45;&gt;Node5</title>
<path fill="none" stroke="#191970" d="M149.2214,-48.9618C159.3171,-38.9475 170.6769,-27.6794 178.573,-19.8469"/>
<polygon fill="#191970" stroke="#191970" points="146.4607,-46.7705 141.8258,-56.2977 151.3904,-51.7402 146.4607,-46.7705"/>
</g>
<!-- Node2 -->
<g id="node2" class="node">
<title>Node2</title>
<g id="a_node2"><a xlink:href="structLLU_1_1TensorInterface.html" target="_top" xlink:title="Abstract class that defines a basic set of operations on a tensor.">
<polygon fill="#ffffff" stroke="#000000" points="0,-129 0,-148 109,-148 109,-129 0,-129"/>
<text text-anchor="middle" x="54.5" y="-136" font-family="Helvetica,sans-Serif" font-size="10.00" fill="#000000">LLU::TensorInterface</text>
</a>
</g>
</g>
<!-- Node2&#45;&gt;Node1 -->
<g id="edge1" class="edge">
<title>Node2&#45;&gt;Node1</title>
<path fill="none" stroke="#191970" d="M72.243,-121.9892C83.9023,-111.1395 99.0361,-97.0566 110.3572,-86.5218"/>
<polygon fill="#191970" stroke="#191970" points="69.7522,-119.5259 64.8158,-128.9005 74.5209,-124.6504 69.7522,-119.5259"/>
</g>
<!-- Node3 -->
<g id="node3" class="node">
<title>Node3</title>
<g id="a_node3"><a xlink:href="classLLU_1_1MContainerBase.html" target="_top" xlink:title=" ">
<polygon fill="#ffffff" stroke="#000000" points="127,-123.5 127,-153.5 270,-153.5 270,-123.5 127,-123.5"/>
<text text-anchor="start" x="135" y="-141.5" font-family="Helvetica,sans-Serif" font-size="10.00" fill="#000000">LLU::MContainerBase</text>
<text text-anchor="middle" x="198.5" y="-130.5" font-family="Helvetica,sans-Serif" font-size="10.00" fill="#000000">&lt; MArgumentType::Tensor &gt;</text>
</a>
</g>
</g>
<!-- Node3&#45;&gt;Node1 -->
<g id="edge2" class="edge">
<title>Node3&#45;&gt;Node1</title>
<path fill="none" stroke="#191970" d="M174.548,-116.2113C164.1129,-106.5009 152.1512,-95.3698 142.7733,-86.6432"/>
<polygon fill="#191970" stroke="#191970" points="172.4571,-119.0466 182.1621,-123.2967 177.2257,-113.9221 172.4571,-119.0466"/>
</g>
</g>
</svg>
