<?xml version="1.0" encoding="UTF-8" standalone="no"?>
<!DOCTYPE svg PUBLIC "-//W3C//DTD SVG 1.1//EN"
 "http://www.w3.org/Graphics/SVG/1.1/DTD/svg11.dtd">
<!-- Generated by graphviz version 2.40.1 (20161225.0304)
 -->
<!-- Title: LLU::MContainer&lt; MArgumentType::Image &gt; Pages: 1 -->
<svg width="272pt" height="162pt"
 viewBox="0.00 0.00 272.00 162.00" xmlns="http://www.w3.org/2000/svg" xmlns:xlink="http://www.w3.org/1999/xlink">
<g id="graph0" class="graph" transform="scale(1 1) rotate(0) translate(4 158)">
<title>LLU::MContainer&lt; MArgumentType::Image &gt;</title>
<polygon fill="#ffffff" stroke="transparent" points="-4,4 -4,-158 268,-158 268,4 -4,4"/>
<!-- Node1 -->
<g id="node1" class="node">
<title>Node1</title>
<g id="a_node1"><a xlink:title="MContainer specialization for MImage.">
<polygon fill="#bfbfbf" stroke="#000000" points="48,-56.5 48,-86.5 198,-86.5 198,-56.5 48,-56.5"/>
<text text-anchor="start" x="56" y="-74.5" font-family="Helvetica,sans-Serif" font-size="10.00" fill="#000000">LLU::MContainer&lt; MArgument</text>
<text text-anchor="middle" x="123" y="-63.5" font-family="Helvetica,sans-Serif" font-size="10.00" fill="#000000">Type::Image &gt;</text>
</a>
</g>
</g>
<!-- Node4 -->
<g id="node4" class="node">
<title>Node4</title>
<g id="a_node4"><a xlink:href="classLLU_1_1Image.html" target="_top" xlink:title="This is a class template, where template parameter T is the type of data elements....">
<polygon fill="#ffffff" stroke="#000000" points="77,-.5 77,-19.5 169,-19.5 169,-.5 77,-.5"/>
<text text-anchor="middle" x="123" y="-7.5" font-family="Helvetica,sans-Serif" font-size="10.00" fill="#000000">LLU::Image&lt; T &gt;</text>
</a>
</g>
</g>
<!-- Node1&#45;&gt;Node4 -->
<g id="edge3" class="edge">
<title>Node1&#45;&gt;Node4</title>
<path fill="none" stroke="#191970" d="M123,-46.2849C123,-36.9858 123,-26.9883 123,-19.8469"/>
<polygon fill="#191970" stroke="#191970" points="119.5001,-46.2977 123,-56.2977 126.5001,-46.2978 119.5001,-46.2977"/>
</g>
<!-- Node2 -->
<g id="node2" class="node">
<title>Node2</title>
<g id="a_node2"><a xlink:href="structLLU_1_1ImageInterface.html" target="_top" xlink:title="Abstract class that defines a basic set of operations on an image.">
<polygon fill="#ffffff" stroke="#000000" points="0,-129 0,-148 106,-148 106,-129 0,-129"/>
<text text-anchor="middle" x="53" y="-136" font-family="Helvetica,sans-Serif" font-size="10.00" fill="#000000">LLU::ImageInterface</text>
</a>
</g>
</g>
<!-- Node2&#45;&gt;Node1 -->
<g id="edge1" class="edge">
<title>Node2&#45;&gt;Node1</title>
<path fill="none" stroke="#191970" d="M70.578,-121.6753C81.8682,-110.8691 96.4049,-96.9553 107.3056,-86.5218"/>
<polygon fill="#191970" stroke="#191970" points="67.8334,-119.4575 63.0293,-128.9005 72.6736,-124.5144 67.8334,-119.4575"/>
</g>
<!-- Node3 -->
<g id="node3" class="node">
<title>Node3</title>
<g id="a_node3"><a xlink:href="classLLU_1_1MContainerBase.html" target="_top" xlink:title=" ">
<polygon fill="#ffffff" stroke="#000000" points="124,-123.5 124,-153.5 264,-153.5 264,-123.5 124,-123.5"/>
<text text-anchor="start" x="132" y="-141.5" font-family="Helvetica,sans-Serif" font-size="10.00" fill="#000000">LLU::MContainerBase</text>
<text text-anchor="middle" x="194" y="-130.5" font-family="Helvetica,sans-Serif" font-size="10.00" fill="#000000">&lt; MArgumentType::Image &gt;</text>
</a>
</g>
</g>
<!-- Node3&#45;&gt;Node1 -->
<g id="edge2" class="edge">
<title>Node3&#45;&gt;Node1</title>
<path fill="none" stroke="#191970" d="M170.3806,-116.2113C160.0905,-106.5009 148.2949,-95.3698 139.0472,-86.6432"/>
<polygon fill="#191970" stroke="#191970" points="168.2139,-118.979 177.889,-123.2967 173.0181,-113.8879 168.2139,-118.979"/>
</g>
</g>
</svg>
