<?xml version="1.0" encoding="UTF-8" standalone="no"?>
<!DOCTYPE svg PUBLIC "-//W3C//DTD SVG 1.1//EN"
 "http://www.w3.org/Graphics/SVG/1.1/DTD/svg11.dtd">
<!-- Generated by graphviz version 2.40.1 (20161225.0304)
 -->
<!-- Title: LLU::TypedNumericArray&lt; T &gt; Pages: 1 -->
<svg width="160pt" height="140pt"
 viewBox="0.00 0.00 160.00 140.00" xmlns="http://www.w3.org/2000/svg" xmlns:xlink="http://www.w3.org/1999/xlink">
<g id="graph0" class="graph" transform="scale(1 1) rotate(0) translate(4 136)">
<title>LLU::TypedNumericArray&lt; T &gt;</title>
<polygon fill="#ffffff" stroke="transparent" points="-4,4 -4,-136 156,-136 156,4 -4,4"/>
<!-- Node1 -->
<g id="node1" class="node">
<title>Node1</title>
<g id="a_node1"><a xlink:title="Typed interface for NumericArray.">
<polygon fill="#bfbfbf" stroke="#000000" points="0,-.5 0,-19.5 152,-19.5 152,-.5 0,-.5"/>
<text text-anchor="middle" x="76" y="-7.5" font-family="Helvetica,sans-Serif" font-size="10.00" fill="#000000">LLU::TypedNumericArray&lt; T &gt;</text>
</a>
</g>
</g>
<!-- Node2 -->
<g id="node2" class="node">
<title>Node2</title>
<g id="a_node2"><a xlink:href="classLLU_1_1MArray.html" target="_top" xlink:title="This is a class template, where template parameter T is the type of data elements....">
<polygon fill="#ffffff" stroke="#000000" points="28,-56.5 28,-75.5 124,-75.5 124,-56.5 28,-56.5"/>
<text text-anchor="middle" x="76" y="-63.5" font-family="Helvetica,sans-Serif" font-size="10.00" fill="#000000">LLU::MArray&lt; T &gt;</text>
</a>
</g>
</g>
<!-- Node2&#45;&gt;Node1 -->
<g id="edge1" class="edge">
<title>Node2&#45;&gt;Node1</title>
<path fill="none" stroke="#191970" d="M76,-46.1575C76,-37.155 76,-26.9199 76,-19.6427"/>
<polygon fill="#191970" stroke="#191970" points="72.5001,-46.2455 76,-56.2455 79.5001,-46.2456 72.5001,-46.2455"/>
</g>
<!-- Node3 -->
<g id="node3" class="node">
<title>Node3</title>
<g id="a_node3"><a xlink:href="classLLU_1_1IterableContainer.html" target="_top" xlink:title="Abstract class that provides iterators (c/r/begin and c/r/end methods) and subscript operator for any...">
<polygon fill="#ffffff" stroke="#000000" points="6.5,-112.5 6.5,-131.5 145.5,-131.5 145.5,-112.5 6.5,-112.5"/>
<text text-anchor="middle" x="76" y="-119.5" font-family="Helvetica,sans-Serif" font-size="10.00" fill="#000000">LLU::IterableContainer&lt; T &gt;</text>
</a>
</g>
</g>
<!-- Node3&#45;&gt;Node2 -->
<g id="edge2" class="edge">
<title>Node3&#45;&gt;Node2</title>
<path fill="none" stroke="#191970" d="M76,-102.1575C76,-93.155 76,-82.9199 76,-75.6427"/>
<polygon fill="#191970" stroke="#191970" points="72.5001,-102.2455 76,-112.2455 79.5001,-102.2456 72.5001,-102.2455"/>
</g>
</g>
</svg>
