<?xml version="1.0" encoding="UTF-8" standalone="no"?>
<!DOCTYPE svg PUBLIC "-//W3C//DTD SVG 1.1//EN"
 "http://www.w3.org/Graphics/SVG/1.1/DTD/svg11.dtd">
<!-- Generated by graphviz version 2.40.1 (20161225.0304)
 -->
<!-- Title: LLU Pages: 1 -->
<svg width="264pt" height="255pt"
 viewBox="0.00 0.00 264.00 255.00" xmlns="http://www.w3.org/2000/svg" xmlns:xlink="http://www.w3.org/1999/xlink">
<g id="graph0" class="graph" transform="scale(1 1) rotate(0) translate(4 251)">
<title>LLU</title>
<polygon fill="#ffffff" stroke="transparent" points="-4,4 -4,-251 260,-251 260,4 -4,4"/>
<g id="clust1" class="cluster">
<title>clusterdir_d44c64559bbebec7f509842c48db8b23</title>
<g id="a_clust1"><a xlink:href="dir_d44c64559bbebec7f509842c48db8b23.html" target="_top" xlink:title="include">
<polygon fill="#ddddee" stroke="#000000" points="8,-8 8,-239 248,-239 248,-8 8,-8"/>
<text text-anchor="middle" x="128" y="-227" font-family="Helvetica,sans-Serif" font-size="10.00" fill="#000000">include</text>
</a>
</g>
</g>
<g id="clust2" class="cluster">
<title>clusterdir_bc5807a946fff986543f686f28e6d10f</title>
<g id="a_clust2"><a xlink:href="dir_bc5807a946fff986543f686f28e6d10f.html" target="_top">
<polygon fill="#eeeeff" stroke="#000000" points="16,-16 16,-212 240,-212 240,-16 16,-16"/>
</a>
</g>
</g>
<!-- dir_bc5807a946fff986543f686f28e6d10f -->
<g id="node1" class="node">
<title>dir_bc5807a946fff986543f686f28e6d10f</title>
<text text-anchor="middle" x="205" y="-183.5" font-family="Helvetica,sans-Serif" font-size="10.00" fill="#000000">LLU</text>
</g>
<!-- dir_b7d858afd7ec3ea325674d7072f74728 -->
<g id="node2" class="node">
<title>dir_b7d858afd7ec3ea325674d7072f74728</title>
<g id="a_node2"><a xlink:href="dir_b7d858afd7ec3ea325674d7072f74728.html" target="_top" xlink:title="Async">
<polygon fill="#ffffff" stroke="#000000" points="160,-204 106,-204 106,-168 160,-168 160,-204"/>
<text text-anchor="middle" x="133" y="-183.5" font-family="Helvetica,sans-Serif" font-size="10.00" fill="#000000">Async</text>
</a>
</g>
</g>
<!-- dir_dee3f738df87362dedf9ac7c6f24aa7e -->
<g id="node3" class="node">
<title>dir_dee3f738df87362dedf9ac7c6f24aa7e</title>
<g id="a_node3"><a xlink:href="dir_dee3f738df87362dedf9ac7c6f24aa7e.html" target="_top" xlink:title="Containers">
<polygon fill="#ffffff" stroke="#ff0000" points="88,-204 24,-204 24,-168 88,-168 88,-204"/>
<text text-anchor="middle" x="56" y="-183.5" font-family="Helvetica,sans-Serif" font-size="10.00" fill="#000000">Containers</text>
</a>
</g>
</g>
<!-- dir_c6f217e94bf31060ef21562991f0348e -->
<g id="node4" class="node">
<title>dir_c6f217e94bf31060ef21562991f0348e</title>
<g id="a_node4"><a xlink:href="dir_c6f217e94bf31060ef21562991f0348e.html" target="_top" xlink:title="ErrorLog">
<polygon fill="#ffffff" stroke="#000000" points="83,-132 29,-132 29,-96 83,-96 83,-132"/>
<text text-anchor="middle" x="56" y="-111.5" font-family="Helvetica,sans-Serif" font-size="10.00" fill="#000000">ErrorLog</text>
</a>
</g>
</g>
<!-- dir_dee3f738df87362dedf9ac7c6f24aa7e&#45;&gt;dir_c6f217e94bf31060ef21562991f0348e -->
<g id="edge1" class="edge">
<title>dir_dee3f738df87362dedf9ac7c6f24aa7e&#45;&gt;dir_c6f217e94bf31060ef21562991f0348e</title>
<path fill="none" stroke="#000000" d="M56,-167.8314C56,-160.131 56,-150.9743 56,-142.4166"/>
<polygon fill="#000000" stroke="#000000" points="59.5001,-142.4132 56,-132.4133 52.5001,-142.4133 59.5001,-142.4132"/>
<g id="a_edge1&#45;headlabel"><a xlink:href="dir_000002_000009.html" target="_top" xlink:title="4">
<text text-anchor="middle" x="62.3393" y="-143.5079" font-family="Helvetica,sans-Serif" font-size="10.00" fill="#000000">4</text>
</a>
</g>
</g>
<!-- dir_7d8e8b0b47b75f38311675eda904048e -->
<g id="node5" class="node">
<title>dir_7d8e8b0b47b75f38311675eda904048e</title>
<g id="a_node5"><a xlink:href="dir_7d8e8b0b47b75f38311675eda904048e.html" target="_top" xlink:title="WSTP">
<polygon fill="#ffffff" stroke="#000000" points="83,-60 29,-60 29,-24 83,-24 83,-60"/>
<text text-anchor="middle" x="56" y="-39.5" font-family="Helvetica,sans-Serif" font-size="10.00" fill="#000000">WSTP</text>
</a>
</g>
</g>
<!-- dir_c6f217e94bf31060ef21562991f0348e&#45;&gt;dir_7d8e8b0b47b75f38311675eda904048e -->
<g id="edge3" class="edge">
<title>dir_c6f217e94bf31060ef21562991f0348e&#45;&gt;dir_7d8e8b0b47b75f38311675eda904048e</title>
<path fill="none" stroke="#000000" d="M50.0476,-95.8314C49.2972,-88.131 49.0763,-78.9743 49.3849,-70.4166"/>
<polygon fill="#000000" stroke="#000000" points="52.8792,-70.6161 50.024,-60.4133 45.8935,-70.1697 52.8792,-70.6161"/>
<g id="a_edge3&#45;headlabel"><a xlink:href="dir_000009_000007.html" target="_top" xlink:title="2">
<text text-anchor="middle" x="55.4836" y="-71.8844" font-family="Helvetica,sans-Serif" font-size="10.00" fill="#000000">2</text>
</a>
</g>
</g>
<!-- dir_7d8e8b0b47b75f38311675eda904048e&#45;&gt;dir_c6f217e94bf31060ef21562991f0348e -->
<g id="edge2" class="edge">
<title>dir_7d8e8b0b47b75f38311675eda904048e&#45;&gt;dir_c6f217e94bf31060ef21562991f0348e</title>
<path fill="none" stroke="#000000" d="M61.976,-60.4133C62.7071,-68.0593 62.9203,-77.1084 62.6155,-85.5726"/>
<polygon fill="#000000" stroke="#000000" points="59.1048,-85.6264 61.9524,-95.8314 66.0902,-86.078 59.1048,-85.6264"/>
<g id="a_edge2&#45;headlabel"><a xlink:href="dir_000007_000009.html" target="_top" xlink:title="5">
<text text-anchor="middle" x="56.5032" y="-79.3562" font-family="Helvetica,sans-Serif" font-size="10.00" fill="#000000">5</text>
</a>
</g>
</g>
</g>
</svg>
