<?xml version="1.0" encoding="UTF-8" standalone="no"?>
<!DOCTYPE svg PUBLIC "-//W3C//DTD SVG 1.1//EN"
 "http://www.w3.org/Graphics/SVG/1.1/DTD/svg11.dtd">
<!-- Generated by graphviz version 2.40.1 (20161225.0304)
 -->
<!-- Title: ErrorLog Pages: 1 -->
<svg width="94pt" height="151pt"
 viewBox="0.00 0.00 94.00 151.00" xmlns="http://www.w3.org/2000/svg" xmlns:xlink="http://www.w3.org/1999/xlink">
<g id="graph0" class="graph" transform="scale(1 1) rotate(0) translate(4 147)">
<title>ErrorLog</title>
<polygon fill="#ffffff" stroke="transparent" points="-4,4 -4,-147 90,-147 90,4 -4,4"/>
<g id="clust1" class="cluster">
<title>clusterdir_bc5807a946fff986543f686f28e6d10f</title>
<g id="a_clust1"><a xlink:href="dir_bc5807a946fff986543f686f28e6d10f.html" target="_top" xlink:title="LLU">
<polygon fill="#ddddee" stroke="#000000" points="8,-64 8,-135 78,-135 78,-64 8,-64"/>
<text text-anchor="middle" x="43" y="-123" font-family="Helvetica,sans-Serif" font-size="10.00" fill="#000000">LLU</text>
</a>
</g>
</g>
<!-- dir_c6f217e94bf31060ef21562991f0348e -->
<g id="node1" class="node">
<title>dir_c6f217e94bf31060ef21562991f0348e</title>
<g id="a_node1"><a xlink:href="dir_c6f217e94bf31060ef21562991f0348e.html" target="_top" xlink:title="ErrorLog">
<polygon fill="#eeeeff" stroke="#000000" points="70,-108 16,-108 16,-72 70,-72 70,-108"/>
<text text-anchor="middle" x="43" y="-87.5" font-family="Helvetica,sans-Serif" font-size="10.00" fill="#000000">ErrorLog</text>
</a>
</g>
</g>
<!-- dir_7d8e8b0b47b75f38311675eda904048e -->
<g id="node2" class="node">
<title>dir_7d8e8b0b47b75f38311675eda904048e</title>
<g id="a_node2"><a xlink:href="dir_7d8e8b0b47b75f38311675eda904048e.html" target="_top" xlink:title="WSTP">
<polygon fill="none" stroke="#000000" points="70,-36 16,-36 16,0 70,0 70,-36"/>
<text text-anchor="middle" x="43" y="-15.5" font-family="Helvetica,sans-Serif" font-size="10.00" fill="#000000">WSTP</text>
</a>
</g>
</g>
<!-- dir_c6f217e94bf31060ef21562991f0348e&#45;&gt;dir_7d8e8b0b47b75f38311675eda904048e -->
<g id="edge2" class="edge">
<title>dir_c6f217e94bf31060ef21562991f0348e&#45;&gt;dir_7d8e8b0b47b75f38311675eda904048e</title>
<path fill="none" stroke="#000000" d="M37.0476,-71.8314C36.2972,-64.131 36.0763,-54.9743 36.3849,-46.4166"/>
<polygon fill="#000000" stroke="#000000" points="39.8792,-46.6161 37.024,-36.4133 32.8935,-46.1697 39.8792,-46.6161"/>
<g id="a_edge2&#45;headlabel"><a xlink:href="dir_000009_000007.html" target="_top" xlink:title="2">
<text text-anchor="middle" x="42.4836" y="-47.8844" font-family="Helvetica,sans-Serif" font-size="10.00" fill="#000000">2</text>
</a>
</g>
</g>
<!-- dir_7d8e8b0b47b75f38311675eda904048e&#45;&gt;dir_c6f217e94bf31060ef21562991f0348e -->
<g id="edge1" class="edge">
<title>dir_7d8e8b0b47b75f38311675eda904048e&#45;&gt;dir_c6f217e94bf31060ef21562991f0348e</title>
<path fill="none" stroke="#000000" d="M48.976,-36.4133C49.7071,-44.0593 49.9203,-53.1084 49.6155,-61.5726"/>
<polygon fill="#000000" stroke="#000000" points="46.1048,-61.6264 48.9524,-71.8314 53.0902,-62.078 46.1048,-61.6264"/>
<g id="a_edge1&#45;headlabel"><a xlink:href="dir_000007_000009.html" target="_top" xlink:title="5">
<text text-anchor="middle" x="43.5032" y="-55.3562" font-family="Helvetica,sans-Serif" font-size="10.00" fill="#000000">5</text>
</a>
</g>
</g>
</g>
</svg>
