<?xml version="1.0" encoding="UTF-8" standalone="no"?>
<!DOCTYPE svg PUBLIC "-//W3C//DTD SVG 1.1//EN"
 "http://www.w3.org/Graphics/SVG/1.1/DTD/svg11.dtd">
<!-- Generated by graphviz version 2.40.1 (20161225.0304)
 -->
<!-- Title: Views Pages: 1 -->
<svg width="134pt" height="223pt"
 viewBox="0.00 0.00 134.00 223.00" xmlns="http://www.w3.org/2000/svg" xmlns:xlink="http://www.w3.org/1999/xlink">
<g id="graph0" class="graph" transform="scale(1 1) rotate(0) translate(4 219)">
<title>Views</title>
<polygon fill="#ffffff" stroke="transparent" points="-4,4 -4,-219 130,-219 130,4 -4,4"/>
<g id="clust1" class="cluster">
<title>clusterdir_dee3f738df87362dedf9ac7c6f24aa7e</title>
<g id="a_clust1"><a xlink:href="dir_dee3f738df87362dedf9ac7c6f24aa7e.html" target="_top" xlink:title="Containers">
<polygon fill="#ddddee" stroke="#000000" points="9,-136 9,-207 79,-207 79,-136 9,-136"/>
<text text-anchor="middle" x="44" y="-195" font-family="Helvetica,sans-Serif" font-size="10.00" fill="#000000">Containers</text>
</a>
</g>
</g>
<!-- dir_86e8a13349b00c7c670381dcafde0a24 -->
<g id="node1" class="node">
<title>dir_86e8a13349b00c7c670381dcafde0a24</title>
<g id="a_node1"><a xlink:href="dir_86e8a13349b00c7c670381dcafde0a24.html" target="_top" xlink:title="Views">
<polygon fill="#eeeeff" stroke="#000000" points="71,-180 17,-180 17,-144 71,-144 71,-180"/>
<text text-anchor="middle" x="44" y="-159.5" font-family="Helvetica,sans-Serif" font-size="10.00" fill="#000000">Views</text>
</a>
</g>
</g>
<!-- dir_90e1d5272fab08062538f61116ed9329 -->
<g id="node2" class="node">
<title>dir_90e1d5272fab08062538f61116ed9329</title>
<g id="a_node2"><a xlink:href="dir_90e1d5272fab08062538f61116ed9329.html" target="_top" xlink:title="Generic">
<polygon fill="none" stroke="#000000" points="71,-108 17,-108 17,-72 71,-72 71,-108"/>
<text text-anchor="middle" x="44" y="-87.5" font-family="Helvetica,sans-Serif" font-size="10.00" fill="#000000">Generic</text>
</a>
</g>
</g>
<!-- dir_86e8a13349b00c7c670381dcafde0a24&#45;&gt;dir_90e1d5272fab08062538f61116ed9329 -->
<g id="edge3" class="edge">
<title>dir_86e8a13349b00c7c670381dcafde0a24&#45;&gt;dir_90e1d5272fab08062538f61116ed9329</title>
<path fill="none" stroke="#000000" d="M44,-143.8314C44,-136.131 44,-126.9743 44,-118.4166"/>
<polygon fill="#000000" stroke="#000000" points="47.5001,-118.4132 44,-108.4133 40.5001,-118.4133 47.5001,-118.4132"/>
<g id="a_edge3&#45;headlabel"><a xlink:href="dir_000011_000003.html" target="_top" xlink:title="3">
<text text-anchor="middle" x="50.3393" y="-119.5079" font-family="Helvetica,sans-Serif" font-size="10.00" fill="#000000">3</text>
</a>
</g>
</g>
<!-- dir_0d978a9800fb2fc24fc10a828de6613e -->
<g id="node3" class="node">
<title>dir_0d978a9800fb2fc24fc10a828de6613e</title>
<g id="a_node3"><a xlink:href="dir_0d978a9800fb2fc24fc10a828de6613e.html" target="_top" xlink:title="Iterators">
<polygon fill="none" stroke="#000000" points="54,-36 0,-36 0,0 54,0 54,-36"/>
<text text-anchor="middle" x="27" y="-15.5" font-family="Helvetica,sans-Serif" font-size="10.00" fill="#000000">Iterators</text>
</a>
</g>
</g>
<!-- dir_86e8a13349b00c7c670381dcafde0a24&#45;&gt;dir_0d978a9800fb2fc24fc10a828de6613e -->
<g id="edge4" class="edge">
<title>dir_86e8a13349b00c7c670381dcafde0a24&#45;&gt;dir_0d978a9800fb2fc24fc10a828de6613e</title>
<path fill="none" stroke="#000000" d="M28.0095,-143.9169C20.3462,-134.0371 11.9834,-121.1563 8,-108 1.7526,-87.3664 7.378,-63.4665 14.0915,-45.4834"/>
<polygon fill="#000000" stroke="#000000" points="17.3576,-46.7424 17.8646,-36.1597 10.8688,-44.1165 17.3576,-46.7424"/>
<g id="a_edge4&#45;headlabel"><a xlink:href="dir_000011_000004.html" target="_top" xlink:title="3">
<text text-anchor="middle" x="18.6411" y="-48.6396" font-family="Helvetica,sans-Serif" font-size="10.00" fill="#000000">3</text>
</a>
</g>
</g>
<!-- dir_c6f217e94bf31060ef21562991f0348e -->
<g id="node4" class="node">
<title>dir_c6f217e94bf31060ef21562991f0348e</title>
<g id="a_node4"><a xlink:href="dir_c6f217e94bf31060ef21562991f0348e.html" target="_top" xlink:title="ErrorLog">
<polygon fill="none" stroke="#000000" points="126,-36 72,-36 72,0 126,0 126,-36"/>
<text text-anchor="middle" x="99" y="-15.5" font-family="Helvetica,sans-Serif" font-size="10.00" fill="#000000">ErrorLog</text>
</a>
</g>
</g>
<!-- dir_86e8a13349b00c7c670381dcafde0a24&#45;&gt;dir_c6f217e94bf31060ef21562991f0348e -->
<g id="edge5" class="edge">
<title>dir_86e8a13349b00c7c670381dcafde0a24&#45;&gt;dir_c6f217e94bf31060ef21562991f0348e</title>
<path fill="none" stroke="#000000" d="M58.8853,-143.5185C66.2462,-133.5296 74.672,-120.6716 80,-108 88.3306,-88.1876 93.1533,-64.3321 95.8541,-46.1605"/>
<polygon fill="#000000" stroke="#000000" points="99.3302,-46.5721 97.2095,-36.1917 92.3941,-45.6289 99.3302,-46.5721"/>
<g id="a_edge5&#45;headlabel"><a xlink:href="dir_000011_000009.html" target="_top" xlink:title="1">
<text text-anchor="middle" x="101.6594" y="-48.0164" font-family="Helvetica,sans-Serif" font-size="10.00" fill="#000000">1</text>
</a>
</g>
</g>
<!-- dir_90e1d5272fab08062538f61116ed9329&#45;&gt;dir_0d978a9800fb2fc24fc10a828de6613e -->
<g id="edge1" class="edge">
<title>dir_90e1d5272fab08062538f61116ed9329&#45;&gt;dir_0d978a9800fb2fc24fc10a828de6613e</title>
<path fill="none" stroke="#000000" d="M33.7578,-71.8314C31.1892,-64.131 28.8063,-54.9743 27.0944,-46.4166"/>
<polygon fill="#000000" stroke="#000000" points="30.5181,-45.6741 25.3716,-36.4133 23.6197,-46.8623 30.5181,-45.6741"/>
<g id="a_edge1&#45;headlabel"><a xlink:href="dir_000003_000004.html" target="_top" xlink:title="1">
<text text-anchor="middle" x="33.9262" y="-46.2347" font-family="Helvetica,sans-Serif" font-size="10.00" fill="#000000">1</text>
</a>
</g>
</g>
<!-- dir_90e1d5272fab08062538f61116ed9329&#45;&gt;dir_c6f217e94bf31060ef21562991f0348e -->
<g id="edge2" class="edge">
<title>dir_90e1d5272fab08062538f61116ed9329&#45;&gt;dir_c6f217e94bf31060ef21562991f0348e</title>
<path fill="none" stroke="#000000" d="M57.8788,-71.8314C64.2136,-63.5386 71.8384,-53.557 78.7926,-44.4533"/>
<polygon fill="#000000" stroke="#000000" points="81.6452,-46.4847 84.9343,-36.4133 76.0825,-42.2353 81.6452,-46.4847"/>
<g id="a_edge2&#45;headlabel"><a xlink:href="dir_000003_000009.html" target="_top" xlink:title="1">
<text text-anchor="middle" x="81.7195" y="-48.5647" font-family="Helvetica,sans-Serif" font-size="10.00" fill="#000000">1</text>
</a>
</g>
</g>
<!-- dir_0d978a9800fb2fc24fc10a828de6613e&#45;&gt;dir_90e1d5272fab08062538f61116ed9329 -->
<g id="edge6" class="edge">
<title>dir_0d978a9800fb2fc24fc10a828de6613e&#45;&gt;dir_90e1d5272fab08062538f61116ed9329</title>
<path fill="none" stroke="#000000" d="M37.3236,-36.4133C39.8882,-44.1442 42.262,-53.3097 43.9597,-61.8545"/>
<polygon fill="#000000" stroke="#000000" points="40.5299,-62.5628 45.6626,-71.8314 47.4301,-61.385 40.5299,-62.5628"/>
<g id="a_edge6&#45;headlabel"><a xlink:href="dir_000004_000003.html" target="_top" xlink:title="1">
<text text-anchor="middle" x="37.1263" y="-56.9972" font-family="Helvetica,sans-Serif" font-size="10.00" fill="#000000">1</text>
</a>
</g>
</g>
</g>
</svg>
