<?xml version="1.0" encoding="UTF-8" standalone="no"?>
<!DOCTYPE svg PUBLIC "-//W3C//DTD SVG 1.1//EN"
 "http://www.w3.org/Graphics/SVG/1.1/DTD/svg11.dtd">
<!-- Generated by graphviz version 2.40.1 (20161225.0304)
 -->
<!-- Title: Containers Pages: 1 -->
<svg width="246pt" height="255pt"
 viewBox="0.00 0.00 246.00 255.00" xmlns="http://www.w3.org/2000/svg" xmlns:xlink="http://www.w3.org/1999/xlink">
<g id="graph0" class="graph" transform="scale(1 1) rotate(0) translate(4 251)">
<title>Containers</title>
<polygon fill="#ffffff" stroke="transparent" points="-4,4 -4,-251 242,-251 242,4 -4,4"/>
<g id="clust1" class="cluster">
<title>clusterdir_bc5807a946fff986543f686f28e6d10f</title>
<g id="a_clust1"><a xlink:href="dir_bc5807a946fff986543f686f28e6d10f.html" target="_top" xlink:title="LLU">
<polygon fill="#ddddee" stroke="#000000" points="8,-8 8,-239 176,-239 176,-8 8,-8"/>
<text text-anchor="middle" x="92" y="-227" font-family="Helvetica,sans-Serif" font-size="10.00" fill="#000000">LLU</text>
</a>
</g>
</g>
<g id="clust2" class="cluster">
<title>clusterdir_dee3f738df87362dedf9ac7c6f24aa7e</title>
<g id="a_clust2"><a xlink:href="dir_dee3f738df87362dedf9ac7c6f24aa7e.html" target="_top">
<polygon fill="#eeeeff" stroke="#000000" points="16,-16 16,-212 168,-212 168,-16 16,-16"/>
</a>
</g>
</g>
<!-- dir_dee3f738df87362dedf9ac7c6f24aa7e -->
<g id="node1" class="node">
<title>dir_dee3f738df87362dedf9ac7c6f24aa7e</title>
<text text-anchor="middle" x="56" y="-183.5" font-family="Helvetica,sans-Serif" font-size="10.00" fill="#000000">Containers</text>
</g>
<!-- dir_90e1d5272fab08062538f61116ed9329 -->
<g id="node2" class="node">
<title>dir_90e1d5272fab08062538f61116ed9329</title>
<g id="a_node2"><a xlink:href="dir_90e1d5272fab08062538f61116ed9329.html" target="_top" xlink:title="Generic">
<polygon fill="#ffffff" stroke="#000000" points="125,-132 71,-132 71,-96 125,-96 125,-132"/>
<text text-anchor="middle" x="98" y="-111.5" font-family="Helvetica,sans-Serif" font-size="10.00" fill="#000000">Generic</text>
</a>
</g>
</g>
<!-- dir_dee3f738df87362dedf9ac7c6f24aa7e&#45;&gt;dir_90e1d5272fab08062538f61116ed9329 -->
<g id="edge6" class="edge">
<title>dir_dee3f738df87362dedf9ac7c6f24aa7e&#45;&gt;dir_90e1d5272fab08062538f61116ed9329</title>
<path fill="none" stroke="#000000" d="M66.5984,-167.8314C71.2877,-159.7925 76.9028,-150.1666 82.0798,-141.2918"/>
<polygon fill="#000000" stroke="#000000" points="85.2434,-142.8146 87.2589,-132.4133 79.1969,-139.2875 85.2434,-142.8146"/>
<g id="a_edge6&#45;headlabel"><a xlink:href="dir_000002_000003.html" target="_top" xlink:title="8">
<text text-anchor="middle" x="85.8847" y="-144.8502" font-family="Helvetica,sans-Serif" font-size="10.00" fill="#000000">8</text>
</a>
</g>
</g>
<!-- dir_0d978a9800fb2fc24fc10a828de6613e -->
<g id="node3" class="node">
<title>dir_0d978a9800fb2fc24fc10a828de6613e</title>
<g id="a_node3"><a xlink:href="dir_0d978a9800fb2fc24fc10a828de6613e.html" target="_top" xlink:title="Iterators">
<polygon fill="#ffffff" stroke="#000000" points="125,-60 71,-60 71,-24 125,-24 125,-60"/>
<text text-anchor="middle" x="98" y="-39.5" font-family="Helvetica,sans-Serif" font-size="10.00" fill="#000000">Iterators</text>
</a>
</g>
</g>
<!-- dir_dee3f738df87362dedf9ac7c6f24aa7e&#45;&gt;dir_0d978a9800fb2fc24fc10a828de6613e -->
<g id="edge7" class="edge">
<title>dir_dee3f738df87362dedf9ac7c6f24aa7e&#45;&gt;dir_0d978a9800fb2fc24fc10a828de6613e</title>
<path fill="none" stroke="#000000" d="M54.5171,-167.8798C53.6114,-149.3159 53.895,-119.8738 62,-96 65.2797,-86.3393 70.7431,-76.757 76.4351,-68.4063"/>
<polygon fill="#000000" stroke="#000000" points="79.3465,-70.353 82.3676,-60.198 73.6732,-66.2526 79.3465,-70.353"/>
<g id="a_edge7&#45;headlabel"><a xlink:href="dir_000002_000004.html" target="_top" xlink:title="6">
<text text-anchor="middle" x="79.5421" y="-72.4295" font-family="Helvetica,sans-Serif" font-size="10.00" fill="#000000">6</text>
</a>
</g>
</g>
<!-- dir_c6f217e94bf31060ef21562991f0348e -->
<g id="node5" class="node">
<title>dir_c6f217e94bf31060ef21562991f0348e</title>
<g id="a_node5"><a xlink:href="dir_c6f217e94bf31060ef21562991f0348e.html" target="_top" xlink:title="ErrorLog">
<polygon fill="none" stroke="#000000" points="238,-60 184,-60 184,-24 238,-24 238,-60"/>
<text text-anchor="middle" x="211" y="-39.5" font-family="Helvetica,sans-Serif" font-size="10.00" fill="#000000">ErrorLog</text>
</a>
</g>
</g>
<!-- dir_dee3f738df87362dedf9ac7c6f24aa7e&#45;&gt;dir_c6f217e94bf31060ef21562991f0348e -->
<g id="edge8" class="edge">
<title>dir_dee3f738df87362dedf9ac7c6f24aa7e&#45;&gt;dir_c6f217e94bf31060ef21562991f0348e</title>
<path fill="none" stroke="#000000" d="M85.8546,-167.9282C100.9725,-158.1481 119.207,-145.354 134,-132 155.5757,-112.5232 176.8005,-87.1161 191.484,-68.2655"/>
<polygon fill="#000000" stroke="#000000" points="194.432,-70.1733 197.748,-60.1107 188.8807,-65.9091 194.432,-70.1733"/>
<g id="a_edge8&#45;headlabel"><a xlink:href="dir_000002_000009.html" target="_top" xlink:title="4">
<text text-anchor="middle" x="194.494" y="-72.2535" font-family="Helvetica,sans-Serif" font-size="10.00" fill="#000000">4</text>
</a>
</g>
</g>
<!-- dir_90e1d5272fab08062538f61116ed9329&#45;&gt;dir_0d978a9800fb2fc24fc10a828de6613e -->
<g id="edge1" class="edge">
<title>dir_90e1d5272fab08062538f61116ed9329&#45;&gt;dir_0d978a9800fb2fc24fc10a828de6613e</title>
<path fill="none" stroke="#000000" d="M92.0476,-95.8314C91.2972,-88.131 91.0763,-78.9743 91.3849,-70.4166"/>
<polygon fill="#000000" stroke="#000000" points="94.8792,-70.6161 92.024,-60.4133 87.8935,-70.1697 94.8792,-70.6161"/>
<g id="a_edge1&#45;headlabel"><a xlink:href="dir_000003_000004.html" target="_top" xlink:title="1">
<text text-anchor="middle" x="97.4836" y="-71.8844" font-family="Helvetica,sans-Serif" font-size="10.00" fill="#000000">1</text>
</a>
</g>
</g>
<!-- dir_90e1d5272fab08062538f61116ed9329&#45;&gt;dir_c6f217e94bf31060ef21562991f0348e -->
<g id="edge2" class="edge">
<title>dir_90e1d5272fab08062538f61116ed9329&#45;&gt;dir_c6f217e94bf31060ef21562991f0348e</title>
<path fill="none" stroke="#000000" d="M125.0663,-96.7542C140.0511,-87.2064 158.8681,-75.2168 175.0711,-64.8927"/>
<polygon fill="#000000" stroke="#000000" points="177.2101,-67.68 183.7629,-59.3546 173.4486,-61.7765 177.2101,-67.68"/>
<g id="a_edge2&#45;headlabel"><a xlink:href="dir_000003_000009.html" target="_top" xlink:title="1">
<text text-anchor="middle" x="175.7043" y="-69.506" font-family="Helvetica,sans-Serif" font-size="10.00" fill="#000000">1</text>
</a>
</g>
</g>
<!-- dir_0d978a9800fb2fc24fc10a828de6613e&#45;&gt;dir_90e1d5272fab08062538f61116ed9329 -->
<g id="edge9" class="edge">
<title>dir_0d978a9800fb2fc24fc10a828de6613e&#45;&gt;dir_90e1d5272fab08062538f61116ed9329</title>
<path fill="none" stroke="#000000" d="M103.976,-60.4133C104.7071,-68.0593 104.9203,-77.1084 104.6155,-85.5726"/>
<polygon fill="#000000" stroke="#000000" points="101.1048,-85.6264 103.9524,-95.8314 108.0902,-86.078 101.1048,-85.6264"/>
<g id="a_edge9&#45;headlabel"><a xlink:href="dir_000004_000003.html" target="_top" xlink:title="1">
<text text-anchor="middle" x="98.5032" y="-79.3562" font-family="Helvetica,sans-Serif" font-size="10.00" fill="#000000">1</text>
</a>
</g>
</g>
<!-- dir_86e8a13349b00c7c670381dcafde0a24 -->
<g id="node4" class="node">
<title>dir_86e8a13349b00c7c670381dcafde0a24</title>
<g id="a_node4"><a xlink:href="dir_86e8a13349b00c7c670381dcafde0a24.html" target="_top" xlink:title="Views">
<polygon fill="#ffffff" stroke="#000000" points="160,-204 106,-204 106,-168 160,-168 160,-204"/>
<text text-anchor="middle" x="133" y="-183.5" font-family="Helvetica,sans-Serif" font-size="10.00" fill="#000000">Views</text>
</a>
</g>
</g>
<!-- dir_86e8a13349b00c7c670381dcafde0a24&#45;&gt;dir_90e1d5272fab08062538f61116ed9329 -->
<g id="edge3" class="edge">
<title>dir_86e8a13349b00c7c670381dcafde0a24&#45;&gt;dir_90e1d5272fab08062538f61116ed9329</title>
<path fill="none" stroke="#000000" d="M124.168,-167.8314C120.3014,-159.8771 115.6794,-150.369 111.4032,-141.5723"/>
<polygon fill="#000000" stroke="#000000" points="114.4707,-139.8768 106.9509,-132.4133 108.1751,-142.9371 114.4707,-139.8768"/>
<g id="a_edge3&#45;headlabel"><a xlink:href="dir_000011_000003.html" target="_top" xlink:title="3">
<text text-anchor="middle" x="118.5957" y="-139.3683" font-family="Helvetica,sans-Serif" font-size="10.00" fill="#000000">3</text>
</a>
</g>
</g>
<!-- dir_86e8a13349b00c7c670381dcafde0a24&#45;&gt;dir_0d978a9800fb2fc24fc10a828de6613e -->
<g id="edge4" class="edge">
<title>dir_86e8a13349b00c7c670381dcafde0a24&#45;&gt;dir_0d978a9800fb2fc24fc10a828de6613e</title>
<path fill="none" stroke="#000000" d="M136.3228,-167.9643C139.0153,-149.4677 141.2903,-120.0783 134,-96 131.0436,-86.2355 125.6748,-76.6229 119.97,-68.2762"/>
<polygon fill="#000000" stroke="#000000" points="122.7129,-66.0973 113.9905,-60.0831 117.0586,-70.2239 122.7129,-66.0973"/>
<g id="a_edge4&#45;headlabel"><a xlink:href="dir_000011_000004.html" target="_top" xlink:title="3">
<text text-anchor="middle" x="127.1253" y="-64.827" font-family="Helvetica,sans-Serif" font-size="10.00" fill="#000000">3</text>
</a>
</g>
</g>
<!-- dir_86e8a13349b00c7c670381dcafde0a24&#45;&gt;dir_c6f217e94bf31060ef21562991f0348e -->
<g id="edge5" class="edge">
<title>dir_86e8a13349b00c7c670381dcafde0a24&#45;&gt;dir_c6f217e94bf31060ef21562991f0348e</title>
<path fill="none" stroke="#000000" d="M156.0722,-167.9005C166.8971,-158.2976 179.1195,-145.6683 187,-132 197.9893,-112.9396 204.0767,-88.7182 207.3685,-70.2053"/>
<polygon fill="#000000" stroke="#000000" points="210.8272,-70.7415 208.9614,-60.3123 203.9162,-69.6287 210.8272,-70.7415"/>
<g id="a_edge5&#45;headlabel"><a xlink:href="dir_000011_000009.html" target="_top" xlink:title="1">
<text text-anchor="middle" x="213.059" y="-72.2417" font-family="Helvetica,sans-Serif" font-size="10.00" fill="#000000">1</text>
</a>
</g>
</g>
</g>
</svg>
