<?xml version="1.0" encoding="UTF-8" standalone="no"?>
<!DOCTYPE svg PUBLIC "-//W3C//DTD SVG 1.1//EN"
 "http://www.w3.org/Graphics/SVG/1.1/DTD/svg11.dtd">
<!-- Generated by graphviz version 2.40.1 (20161225.0304)
 -->
<!-- Title: Generic Pages: 1 -->
<svg width="134pt" height="151pt"
 viewBox="0.00 0.00 134.00 151.00" xmlns="http://www.w3.org/2000/svg" xmlns:xlink="http://www.w3.org/1999/xlink">
<g id="graph0" class="graph" transform="scale(1 1) rotate(0) translate(4 147)">
<title>Generic</title>
<polygon fill="#ffffff" stroke="transparent" points="-4,4 -4,-147 130,-147 130,4 -4,4"/>
<g id="clust1" class="cluster">
<title>clusterdir_dee3f738df87362dedf9ac7c6f24aa7e</title>
<g id="a_clust1"><a xlink:href="dir_dee3f738df87362dedf9ac7c6f24aa7e.html" target="_top" xlink:title="Containers">
<polygon fill="#ddddee" stroke="#000000" points="28,-64 28,-135 98,-135 98,-64 28,-64"/>
<text text-anchor="middle" x="63" y="-123" font-family="Helvetica,sans-Serif" font-size="10.00" fill="#000000">Containers</text>
</a>
</g>
</g>
<!-- dir_90e1d5272fab08062538f61116ed9329 -->
<g id="node1" class="node">
<title>dir_90e1d5272fab08062538f61116ed9329</title>
<g id="a_node1"><a xlink:href="dir_90e1d5272fab08062538f61116ed9329.html" target="_top" xlink:title="Generic">
<polygon fill="#eeeeff" stroke="#000000" points="90,-108 36,-108 36,-72 90,-72 90,-108"/>
<text text-anchor="middle" x="63" y="-87.5" font-family="Helvetica,sans-Serif" font-size="10.00" fill="#000000">Generic</text>
</a>
</g>
</g>
<!-- dir_0d978a9800fb2fc24fc10a828de6613e -->
<g id="node2" class="node">
<title>dir_0d978a9800fb2fc24fc10a828de6613e</title>
<g id="a_node2"><a xlink:href="dir_0d978a9800fb2fc24fc10a828de6613e.html" target="_top" xlink:title="Iterators">
<polygon fill="none" stroke="#000000" points="54,-36 0,-36 0,0 54,0 54,-36"/>
<text text-anchor="middle" x="27" y="-15.5" font-family="Helvetica,sans-Serif" font-size="10.00" fill="#000000">Iterators</text>
</a>
</g>
</g>
<!-- dir_90e1d5272fab08062538f61116ed9329&#45;&gt;dir_0d978a9800fb2fc24fc10a828de6613e -->
<g id="edge1" class="edge">
<title>dir_90e1d5272fab08062538f61116ed9329&#45;&gt;dir_0d978a9800fb2fc24fc10a828de6613e</title>
<path fill="none" stroke="#000000" d="M47.9633,-71.8314C43.2615,-63.9617 38.3524,-54.5712 34.3327,-45.8533"/>
<polygon fill="#000000" stroke="#000000" points="37.4261,-44.1899 30.2306,-36.4133 31.006,-46.9797 37.4261,-44.1899"/>
<g id="a_edge1&#45;headlabel"><a xlink:href="dir_000003_000004.html" target="_top" xlink:title="1">
<text text-anchor="middle" x="41.4627" y="-43.8552" font-family="Helvetica,sans-Serif" font-size="10.00" fill="#000000">1</text>
</a>
</g>
</g>
<!-- dir_c6f217e94bf31060ef21562991f0348e -->
<g id="node3" class="node">
<title>dir_c6f217e94bf31060ef21562991f0348e</title>
<g id="a_node3"><a xlink:href="dir_c6f217e94bf31060ef21562991f0348e.html" target="_top" xlink:title="ErrorLog">
<polygon fill="none" stroke="#000000" points="126,-36 72,-36 72,0 126,0 126,-36"/>
<text text-anchor="middle" x="99" y="-15.5" font-family="Helvetica,sans-Serif" font-size="10.00" fill="#000000">ErrorLog</text>
</a>
</g>
</g>
<!-- dir_90e1d5272fab08062538f61116ed9329&#45;&gt;dir_c6f217e94bf31060ef21562991f0348e -->
<g id="edge2" class="edge">
<title>dir_90e1d5272fab08062538f61116ed9329&#45;&gt;dir_c6f217e94bf31060ef21562991f0348e</title>
<path fill="none" stroke="#000000" d="M72.0843,-71.8314C76.0615,-63.8771 80.8155,-54.369 85.2139,-45.5723"/>
<polygon fill="#000000" stroke="#000000" points="88.4517,-46.9228 89.7934,-36.4133 82.1907,-43.7923 88.4517,-46.9228"/>
<g id="a_edge2&#45;headlabel"><a xlink:href="dir_000003_000009.html" target="_top" xlink:title="1">
<text text-anchor="middle" x="89.3837" y="-48.9077" font-family="Helvetica,sans-Serif" font-size="10.00" fill="#000000">1</text>
</a>
</g>
</g>
<!-- dir_0d978a9800fb2fc24fc10a828de6613e&#45;&gt;dir_90e1d5272fab08062538f61116ed9329 -->
<g id="edge3" class="edge">
<title>dir_0d978a9800fb2fc24fc10a828de6613e&#45;&gt;dir_90e1d5272fab08062538f61116ed9329</title>
<path fill="none" stroke="#000000" d="M42.1826,-36.4133C46.8886,-44.3141 51.7905,-53.7132 55.7918,-62.417"/>
<polygon fill="#000000" stroke="#000000" points="52.6828,-64.0454 59.8681,-71.8314 59.1065,-61.2639 52.6828,-64.0454"/>
<g id="a_edge3&#45;headlabel"><a xlink:href="dir_000004_000003.html" target="_top" xlink:title="1">
<text text-anchor="middle" x="48.649" y="-59.3748" font-family="Helvetica,sans-Serif" font-size="10.00" fill="#000000">1</text>
</a>
</g>
</g>
</g>
</svg>
