<?xml version="1.0" encoding="UTF-8" standalone="no"?>
<!DOCTYPE svg PUBLIC "-//W3C//DTD SVG 1.1//EN"
 "http://www.w3.org/Graphics/SVG/1.1/DTD/svg11.dtd">
<!-- Generated by graphviz version 2.40.1 (20161225.0304)
 -->
<!-- Title: src Pages: 1 -->
<svg width="320pt" height="132pt"
 viewBox="0.00 0.00 320.00 132.00" xmlns="http://www.w3.org/2000/svg" xmlns:xlink="http://www.w3.org/1999/xlink">
<g id="graph0" class="graph" transform="scale(1 1) rotate(0) translate(4 128)">
<title>src</title>
<polygon fill="#ffffff" stroke="transparent" points="-4,4 -4,-128 316,-128 316,4 -4,4"/>
<g id="clust1" class="cluster">
<title>clusterdir_68267d1309a1af8e8297ef4c3efbcdba</title>
<g id="a_clust1"><a xlink:href="dir_68267d1309a1af8e8297ef4c3efbcdba.html" target="_top">
<polygon fill="#eeeeff" stroke="#000000" points="8,-64 8,-116 304,-116 304,-64 8,-64"/>
</a>
</g>
</g>
<!-- dir_68267d1309a1af8e8297ef4c3efbcdba -->
<g id="node1" class="node">
<title>dir_68267d1309a1af8e8297ef4c3efbcdba</title>
<text text-anchor="middle" x="269" y="-87.5" font-family="Helvetica,sans-Serif" font-size="10.00" fill="#000000">src</text>
</g>
<!-- dir_e378baa8d587564728b7986d6e7c1141 -->
<g id="node2" class="node">
<title>dir_e378baa8d587564728b7986d6e7c1141</title>
<g id="a_node2"><a xlink:href="dir_e378baa8d587564728b7986d6e7c1141.html" target="_top" xlink:title="Containers">
<polygon fill="#ffffff" stroke="#000000" points="224,-108 160,-108 160,-72 224,-72 224,-108"/>
<text text-anchor="middle" x="192" y="-87.5" font-family="Helvetica,sans-Serif" font-size="10.00" fill="#000000">Containers</text>
</a>
</g>
</g>
<!-- dir_d44c64559bbebec7f509842c48db8b23 -->
<g id="node5" class="node">
<title>dir_d44c64559bbebec7f509842c48db8b23</title>
<g id="a_node5"><a xlink:href="dir_d44c64559bbebec7f509842c48db8b23.html" target="_top" xlink:title="include">
<polygon fill="#ffffff" stroke="#ff0000" points="142,-36 88,-36 88,0 142,0 142,-36"/>
<text text-anchor="middle" x="115" y="-15.5" font-family="Helvetica,sans-Serif" font-size="10.00" fill="#000000">include</text>
</a>
</g>
</g>
<!-- dir_e378baa8d587564728b7986d6e7c1141&#45;&gt;dir_d44c64559bbebec7f509842c48db8b23 -->
<g id="edge1" class="edge">
<title>dir_e378baa8d587564728b7986d6e7c1141&#45;&gt;dir_d44c64559bbebec7f509842c48db8b23</title>
<path fill="none" stroke="#000000" d="M172.5696,-71.8314C163.268,-63.1337 151.9796,-52.5783 141.8714,-43.1265"/>
<polygon fill="#000000" stroke="#000000" points="144.1189,-40.4363 134.4241,-36.1628 139.3379,-45.5493 144.1189,-40.4363"/>
<g id="a_edge1&#45;headlabel"><a xlink:href="dir_000006_000000.html" target="_top" xlink:title="6">
<text text-anchor="middle" x="148.6837" y="-38.3175" font-family="Helvetica,sans-Serif" font-size="10.00" fill="#000000">6</text>
</a>
</g>
</g>
<!-- dir_ea5aba1e7ce643cc2e079e69cb6a8e33 -->
<g id="node3" class="node">
<title>dir_ea5aba1e7ce643cc2e079e69cb6a8e33</title>
<g id="a_node3"><a xlink:href="dir_ea5aba1e7ce643cc2e079e69cb6a8e33.html" target="_top" xlink:title="ErrorLog">
<polygon fill="#ffffff" stroke="#000000" points="142,-108 88,-108 88,-72 142,-72 142,-108"/>
<text text-anchor="middle" x="115" y="-87.5" font-family="Helvetica,sans-Serif" font-size="10.00" fill="#000000">ErrorLog</text>
</a>
</g>
</g>
<!-- dir_ea5aba1e7ce643cc2e079e69cb6a8e33&#45;&gt;dir_d44c64559bbebec7f509842c48db8b23 -->
<g id="edge2" class="edge">
<title>dir_ea5aba1e7ce643cc2e079e69cb6a8e33&#45;&gt;dir_d44c64559bbebec7f509842c48db8b23</title>
<path fill="none" stroke="#000000" d="M115,-71.8314C115,-64.131 115,-54.9743 115,-46.4166"/>
<polygon fill="#000000" stroke="#000000" points="118.5001,-46.4132 115,-36.4133 111.5001,-46.4133 118.5001,-46.4132"/>
<g id="a_edge2&#45;headlabel"><a xlink:href="dir_000008_000000.html" target="_top" xlink:title="12">
<text text-anchor="middle" x="121.3393" y="-47.5079" font-family="Helvetica,sans-Serif" font-size="10.00" fill="#000000">12</text>
</a>
</g>
</g>
<!-- dir_2c887a61b889e3571125c54b3fbd1866 -->
<g id="node4" class="node">
<title>dir_2c887a61b889e3571125c54b3fbd1866</title>
<g id="a_node4"><a xlink:href="dir_2c887a61b889e3571125c54b3fbd1866.html" target="_top" xlink:title="WSTP">
<polygon fill="#ffffff" stroke="#000000" points="70,-108 16,-108 16,-72 70,-72 70,-108"/>
<text text-anchor="middle" x="43" y="-87.5" font-family="Helvetica,sans-Serif" font-size="10.00" fill="#000000">WSTP</text>
</a>
</g>
</g>
<!-- dir_2c887a61b889e3571125c54b3fbd1866&#45;&gt;dir_d44c64559bbebec7f509842c48db8b23 -->
<g id="edge3" class="edge">
<title>dir_2c887a61b889e3571125c54b3fbd1866&#45;&gt;dir_d44c64559bbebec7f509842c48db8b23</title>
<path fill="none" stroke="#000000" d="M61.1686,-71.8314C69.7152,-63.2848 80.0557,-52.9443 89.3802,-43.6198"/>
<polygon fill="#000000" stroke="#000000" points="91.9905,-45.9592 96.5867,-36.4133 87.0408,-41.0095 91.9905,-45.9592"/>
<g id="a_edge3&#45;headlabel"><a xlink:href="dir_000010_000000.html" target="_top" xlink:title="7">
<text text-anchor="middle" x="91.4564" y="-48.0087" font-family="Helvetica,sans-Serif" font-size="10.00" fill="#000000">7</text>
</a>
</g>
</g>
</g>
</svg>
