<?xml version="1.0" encoding="UTF-8" standalone="no"?>
<!DOCTYPE svg PUBLIC "-//W3C//DTD SVG 1.1//EN"
 "http://www.w3.org/Graphics/SVG/1.1/DTD/svg11.dtd">
<!-- Generated by graphviz version 2.40.1 (20161225.0304)
 -->
<!-- Title: EncodingTraits.hpp Pages: 1 -->
<svg width="252pt" height="84pt"
 viewBox="0.00 0.00 252.00 84.00" xmlns="http://www.w3.org/2000/svg" xmlns:xlink="http://www.w3.org/1999/xlink">
<g id="graph0" class="graph" transform="scale(1 1) rotate(0) translate(4 80)">
<title>EncodingTraits.hpp</title>
<polygon fill="#ffffff" stroke="transparent" points="-4,4 -4,-80 248,-80 248,4 -4,4"/>
<!-- Node1 -->
<g id="node1" class="node">
<title>Node1</title>
<g id="a_node1"><a xlink:title="Defines possible encodings together with their properties and related types.">
<polygon fill="#bfbfbf" stroke="#000000" points="69.5,-56.5 69.5,-75.5 170.5,-75.5 170.5,-56.5 69.5,-56.5"/>
<text text-anchor="middle" x="120" y="-63.5" font-family="Helvetica,sans-Serif" font-size="10.00" fill="#000000">EncodingTraits.hpp</text>
</a>
</g>
</g>
<!-- Node2 -->
<g id="node2" class="node">
<title>Node2</title>
<g id="a_node2"><a xlink:title=" ">
<polygon fill="#ffffff" stroke="#bfbfbf" points="0,-.5 0,-19.5 46,-19.5 46,-.5 0,-.5"/>
<text text-anchor="middle" x="23" y="-7.5" font-family="Helvetica,sans-Serif" font-size="10.00" fill="#000000">cstdint</text>
</a>
</g>
</g>
<!-- Node1&#45;&gt;Node2 -->
<g id="edge1" class="edge">
<title>Node1&#45;&gt;Node2</title>
<path fill="none" stroke="#191970" d="M103.1039,-56.2455C88.082,-47.5731 65.8957,-34.7645 48.679,-24.825"/>
<polygon fill="#191970" stroke="#191970" points="50.1128,-21.6114 39.7025,-19.6427 46.6129,-27.6737 50.1128,-21.6114"/>
</g>
<!-- Node3 -->
<g id="node3" class="node">
<title>Node3</title>
<g id="a_node3"><a xlink:title=" ">
<polygon fill="#ffffff" stroke="#bfbfbf" points="64.5,-.5 64.5,-19.5 105.5,-19.5 105.5,-.5 64.5,-.5"/>
<text text-anchor="middle" x="85" y="-7.5" font-family="Helvetica,sans-Serif" font-size="10.00" fill="#000000">string</text>
</a>
</g>
</g>
<!-- Node1&#45;&gt;Node3 -->
<g id="edge2" class="edge">
<title>Node1&#45;&gt;Node3</title>
<path fill="none" stroke="#191970" d="M113.9035,-56.2455C109.0855,-48.5367 102.2249,-37.5598 96.3968,-28.2348"/>
<polygon fill="#191970" stroke="#191970" points="99.2947,-26.2677 91.0267,-19.6427 93.3587,-29.9777 99.2947,-26.2677"/>
</g>
<!-- Node4 -->
<g id="node4" class="node">
<title>Node4</title>
<g id="a_node4"><a xlink:title=" ">
<polygon fill="#ffffff" stroke="#bfbfbf" points="124,-.5 124,-19.5 186,-19.5 186,-.5 124,-.5"/>
<text text-anchor="middle" x="155" y="-7.5" font-family="Helvetica,sans-Serif" font-size="10.00" fill="#000000">type_traits</text>
</a>
</g>
</g>
<!-- Node1&#45;&gt;Node4 -->
<g id="edge3" class="edge">
<title>Node1&#45;&gt;Node4</title>
<path fill="none" stroke="#191970" d="M126.0965,-56.2455C130.9145,-48.5367 137.7751,-37.5598 143.6032,-28.2348"/>
<polygon fill="#191970" stroke="#191970" points="146.6413,-29.9777 148.9733,-19.6427 140.7053,-26.2677 146.6413,-29.9777"/>
</g>
<!-- Node5 -->
<g id="node5" class="node">
<title>Node5</title>
<g id="a_node5"><a xlink:title=" ">
<polygon fill="#ffffff" stroke="#bfbfbf" points="204,-.5 204,-19.5 244,-19.5 244,-.5 204,-.5"/>
<text text-anchor="middle" x="224" y="-7.5" font-family="Helvetica,sans-Serif" font-size="10.00" fill="#000000">utility</text>
</a>
</g>
</g>
<!-- Node1&#45;&gt;Node5 -->
<g id="edge4" class="edge">
<title>Node1&#45;&gt;Node5</title>
<path fill="none" stroke="#191970" d="M138.1154,-56.2455C154.445,-47.4527 178.671,-34.4079 197.2339,-24.4125"/>
<polygon fill="#191970" stroke="#191970" points="198.9468,-27.4654 206.0922,-19.6427 195.6281,-21.3021 198.9468,-27.4654"/>
</g>
</g>
</svg>
