<?xml version="1.0" encoding="UTF-8" standalone="no"?>
<!DOCTYPE svg PUBLIC "-//W3C//DTD SVG 1.1//EN"
 "http://www.w3.org/Graphics/SVG/1.1/DTD/svg11.dtd">
<!-- Generated by graphviz version 2.40.1 (20161225.0304)
 -->
<!-- Title: ErrorManager.cpp Pages: 1 -->
<svg width="2012pt" height="487pt"
 viewBox="0.00 0.00 2011.53 487.00" xmlns="http://www.w3.org/2000/svg" xmlns:xlink="http://www.w3.org/1999/xlink">
<g id="graph0" class="graph" transform="scale(1 1) rotate(0) translate(4 483)">
<title>ErrorManager.cpp</title>
<polygon fill="#ffffff" stroke="transparent" points="-4,4 -4,-483 2007.5319,-483 2007.5319,4 -4,4"/>
<!-- Node1 -->
<g id="node1" class="node">
<title>Node1</title>
<g id="a_node1"><a xlink:title=" ">
<polygon fill="#bfbfbf" stroke="#000000" points="1341.5,-459.5 1341.5,-478.5 1435.5,-478.5 1435.5,-459.5 1341.5,-459.5"/>
<text text-anchor="middle" x="1388.5" y="-466.5" font-family="Helvetica,sans-Serif" font-size="10.00" fill="#000000">ErrorManager.cpp</text>
</a>
</g>
</g>
<!-- Node2 -->
<g id="node2" class="node">
<title>Node2</title>
<g id="a_node2"><a xlink:href="ErrorManager_8h.html" target="_top" xlink:title="Definition of the ErrorManager class responsible for error registration and throwing.">
<polygon fill="#ffffff" stroke="#000000" points="1225.5,-403.5 1225.5,-422.5 1369.5,-422.5 1369.5,-403.5 1225.5,-403.5"/>
<text text-anchor="middle" x="1297.5" y="-410.5" font-family="Helvetica,sans-Serif" font-size="10.00" fill="#000000">LLU/ErrorLog/ErrorManager.h</text>
</a>
</g>
</g>
<!-- Node1&#45;&gt;Node2 -->
<g id="edge1" class="edge">
<title>Node1&#45;&gt;Node2</title>
<path fill="none" stroke="#191970" d="M1372.649,-459.2455C1358.6868,-450.6534 1338.1272,-438.0014 1322.0404,-428.1018"/>
<polygon fill="#191970" stroke="#191970" points="1323.5203,-424.9029 1313.1693,-422.6427 1319.8516,-430.8645 1323.5203,-424.9029"/>
</g>
<!-- Node11 -->
<g id="node11" class="node">
<title>Node11</title>
<g id="a_node11"><a xlink:href="WSStream_8hpp.html" target="_top" xlink:title="Header file for WSStream class.">
<polygon fill="#ffffff" stroke="#000000" points="1378,-280.5 1378,-299.5 1515,-299.5 1515,-280.5 1378,-280.5"/>
<text text-anchor="middle" x="1446.5" y="-287.5" font-family="Helvetica,sans-Serif" font-size="10.00" fill="#000000">LLU/WSTP/WSStream.hpp</text>
</a>
</g>
</g>
<!-- Node1&#45;&gt;Node11 -->
<g id="edge81" class="edge">
<title>Node1&#45;&gt;Node11</title>
<path fill="none" stroke="#191970" d="M1398.2968,-459.4251C1414.7578,-442.57 1447.3562,-405.7024 1459.5,-367 1465.5019,-347.8718 1460.2324,-325.1497 1454.7103,-309.3681"/>
<polygon fill="#191970" stroke="#191970" points="1457.8404,-307.7565 1450.9825,-299.6807 1451.3074,-310.2705 1457.8404,-307.7565"/>
</g>
<!-- Node22 -->
<g id="node22" class="node">
<title>Node22</title>
<g id="a_node22"><a xlink:href="LibraryData_8h.html" target="_top" xlink:title=" ">
<polygon fill="#ffffff" stroke="#000000" points="523.5,-56.5 523.5,-75.5 619.5,-75.5 619.5,-56.5 523.5,-56.5"/>
<text text-anchor="middle" x="571.5" y="-63.5" font-family="Helvetica,sans-Serif" font-size="10.00" fill="#000000">LLU/LibraryData.h</text>
</a>
</g>
</g>
<!-- Node1&#45;&gt;Node22 -->
<g id="edge79" class="edge">
<title>Node1&#45;&gt;Node22</title>
<path fill="none" stroke="#191970" d="M1341.4601,-467.3862C1165.0058,-460.7184 552.5,-431.7904 552.5,-351.5 552.5,-351.5 552.5,-351.5 552.5,-178 552.5,-145.2688 560.4852,-107.9052 566.1022,-85.6716"/>
<polygon fill="#191970" stroke="#191970" points="569.5415,-86.3545 568.6965,-75.7934 562.7711,-84.5763 569.5415,-86.3545"/>
</g>
<!-- Node33 -->
<g id="node33" class="node">
<title>Node33</title>
<g id="a_node33"><a xlink:href="WSTP_2Utilities_8h.html" target="_top" xlink:title="Header file with miscellaneous utilities used throughout the WSTP&#45;related part of LibraryLinkUtilitie...">
<polygon fill="#ffffff" stroke="#000000" points="1598,-168.5 1598,-187.5 1709,-187.5 1709,-168.5 1598,-168.5"/>
<text text-anchor="middle" x="1653.5" y="-175.5" font-family="Helvetica,sans-Serif" font-size="10.00" fill="#000000">LLU/WSTP/Utilities.h</text>
</a>
</g>
</g>
<!-- Node1&#45;&gt;Node33 -->
<g id="edge80" class="edge">
<title>Node1&#45;&gt;Node33</title>
<path fill="none" stroke="#191970" d="M1435.6845,-463.6704C1566.7224,-448.2376 1925.5,-401.4244 1925.5,-351.5 1925.5,-351.5 1925.5,-351.5 1925.5,-290 1925.5,-251.2415 1901.8505,-243.7476 1868.5,-224 1843.622,-209.2692 1772.9019,-195.8647 1719.3048,-187.375"/>
<polygon fill="#191970" stroke="#191970" points="1719.5919,-183.8775 1709.1722,-185.7957 1718.5139,-190.794 1719.5919,-183.8775"/>
</g>
<!-- Node3 -->
<g id="node3" class="node">
<title>Node3</title>
<g id="a_node3"><a xlink:title=" ">
<polygon fill="#ffffff" stroke="#bfbfbf" points="1917.5,-168.5 1917.5,-187.5 1973.5,-187.5 1973.5,-168.5 1917.5,-168.5"/>
<text text-anchor="middle" x="1945.5" y="-175.5" font-family="Helvetica,sans-Serif" font-size="10.00" fill="#000000">algorithm</text>
</a>
</g>
</g>
<!-- Node2&#45;&gt;Node3 -->
<g id="edge2" class="edge">
<title>Node2&#45;&gt;Node3</title>
<path fill="none" stroke="#191970" d="M1346.3982,-403.4731C1489.5633,-375.1277 1900.2391,-290.4208 1939.5,-244 1950.1573,-231.3991 1950.7556,-212.1989 1949.2213,-197.7505"/>
<polygon fill="#191970" stroke="#191970" points="1952.6784,-197.2018 1947.7637,-187.8159 1945.7526,-198.2181 1952.6784,-197.2018"/>
</g>
<!-- Node4 -->
<g id="node4" class="node">
<title>Node4</title>
<g id="a_node4"><a xlink:title=" ">
<polygon fill="#ffffff" stroke="#bfbfbf" points="1378,-342 1378,-361 1451,-361 1451,-342 1378,-342"/>
<text text-anchor="middle" x="1414.5" y="-349" font-family="Helvetica,sans-Serif" font-size="10.00" fill="#000000">initializer_list</text>
</a>
</g>
</g>
<!-- Node2&#45;&gt;Node4 -->
<g id="edge3" class="edge">
<title>Node2&#45;&gt;Node4</title>
<path fill="none" stroke="#191970" d="M1315.7813,-403.3906C1335.0141,-393.2811 1365.4879,-377.2628 1387.4925,-365.6962"/>
<polygon fill="#191970" stroke="#191970" points="1389.124,-368.7928 1396.3471,-361.0419 1385.867,-362.5967 1389.124,-368.7928"/>
</g>
<!-- Node5 -->
<g id="node5" class="node">
<title>Node5</title>
<g id="a_node5"><a xlink:title=" ">
<polygon fill="#ffffff" stroke="#bfbfbf" points="1755,-56.5 1755,-75.5 1796,-75.5 1796,-56.5 1755,-56.5"/>
<text text-anchor="middle" x="1775.5" y="-63.5" font-family="Helvetica,sans-Serif" font-size="10.00" fill="#000000">string</text>
</a>
</g>
</g>
<!-- Node2&#45;&gt;Node5 -->
<g id="edge4" class="edge">
<title>Node2&#45;&gt;Node5</title>
<path fill="none" stroke="#191970" d="M1369.7706,-404.9562C1510.5521,-388.4307 1815.9483,-348.1371 1909.5,-300 1941.3618,-283.6055 1945.5011,-272.2843 1967.5,-244 1985.0991,-221.3726 1992.1424,-215.7055 1999.5,-188 2008.6267,-153.6329 2001.9459,-134.6079 1974.5,-112 1949.065,-91.0486 1855.6676,-76.2725 1806.3997,-69.7486"/>
<polygon fill="#191970" stroke="#191970" points="1806.6774,-66.2555 1796.3116,-68.4466 1805.7813,-73.1979 1806.6774,-66.2555"/>
</g>
<!-- Node6 -->
<g id="node6" class="node">
<title>Node6</title>
<g id="a_node6"><a xlink:title=" ">
<polygon fill="#ffffff" stroke="#bfbfbf" points="1095,-342 1095,-361 1178,-361 1178,-342 1095,-342"/>
<text text-anchor="middle" x="1136.5" y="-349" font-family="Helvetica,sans-Serif" font-size="10.00" fill="#000000">unordered_map</text>
</a>
</g>
</g>
<!-- Node2&#45;&gt;Node6 -->
<g id="edge5" class="edge">
<title>Node2&#45;&gt;Node6</title>
<path fill="none" stroke="#191970" d="M1272.3438,-403.3906C1245.051,-392.9652 1201.308,-376.2559 1170.8603,-364.6252"/>
<polygon fill="#191970" stroke="#191970" points="1172.0702,-361.3408 1161.4796,-361.0419 1169.5723,-367.8799 1172.0702,-361.3408"/>
</g>
<!-- Node7 -->
<g id="node7" class="node">
<title>Node7</title>
<g id="a_node7"><a xlink:title=" ">
<polygon fill="#ffffff" stroke="#bfbfbf" points="905.5,-56.5 905.5,-75.5 945.5,-75.5 945.5,-56.5 905.5,-56.5"/>
<text text-anchor="middle" x="925.5" y="-63.5" font-family="Helvetica,sans-Serif" font-size="10.00" fill="#000000">utility</text>
</a>
</g>
</g>
<!-- Node2&#45;&gt;Node7 -->
<g id="edge6" class="edge">
<title>Node2&#45;&gt;Node7</title>
<path fill="none" stroke="#191970" d="M1225.2696,-407.2375C1052.2809,-392.4697 628.5,-350.1534 628.5,-290 628.5,-290 628.5,-290 628.5,-178 628.5,-121.4212 819.587,-83.5482 895.213,-70.7748"/>
<polygon fill="#191970" stroke="#191970" points="895.7923,-74.2267 905.086,-69.1397 894.6485,-67.3207 895.7923,-74.2267"/>
</g>
<!-- Node8 -->
<g id="node8" class="node">
<title>Node8</title>
<g id="a_node8"><a xlink:title=" ">
<polygon fill="#ffffff" stroke="#bfbfbf" points="656.5,-224.5 656.5,-243.5 700.5,-243.5 700.5,-224.5 656.5,-224.5"/>
<text text-anchor="middle" x="678.5" y="-231.5" font-family="Helvetica,sans-Serif" font-size="10.00" fill="#000000">vector</text>
</a>
</g>
</g>
<!-- Node2&#45;&gt;Node8 -->
<g id="edge7" class="edge">
<title>Node2&#45;&gt;Node8</title>
<path fill="none" stroke="#191970" d="M1281.4593,-403.4081C1266.6592,-394.4053 1244.2116,-380.3602 1225.5,-367 1207.4799,-354.1335 1206.6074,-345.2717 1186.5,-336 992.4142,-246.5052 922.5131,-293.0834 714.5,-244 713.2216,-243.6983 711.9201,-243.3818 710.6073,-243.0547"/>
<polygon fill="#191970" stroke="#191970" points="711.0748,-239.5591 700.5141,-240.4096 709.3002,-246.3304 711.0748,-239.5591"/>
</g>
<!-- Node9 -->
<g id="node9" class="node">
<title>Node9</title>
<g id="a_node9"><a xlink:href="LibraryLinkError_8h.html" target="_top" xlink:title="Error class and error codes used by LibraryLink Utilities classes.">
<polygon fill="#ffffff" stroke="#000000" points="1235,-336.5 1235,-366.5 1360,-366.5 1360,-336.5 1235,-336.5"/>
<text text-anchor="start" x="1243" y="-354.5" font-family="Helvetica,sans-Serif" font-size="10.00" fill="#000000">LLU/ErrorLog/LibraryLink</text>
<text text-anchor="middle" x="1297.5" y="-343.5" font-family="Helvetica,sans-Serif" font-size="10.00" fill="#000000">Error.h</text>
</a>
</g>
</g>
<!-- Node2&#45;&gt;Node9 -->
<g id="edge8" class="edge">
<title>Node2&#45;&gt;Node9</title>
<path fill="none" stroke="#191970" d="M1297.5,-403.3906C1297.5,-396.2234 1297.5,-386.0862 1297.5,-376.671"/>
<polygon fill="#191970" stroke="#191970" points="1301.0001,-376.5446 1297.5,-366.5446 1294.0001,-376.5446 1301.0001,-376.5446"/>
</g>
<!-- Node2&#45;&gt;Node22 -->
<g id="edge78" class="edge">
<title>Node2&#45;&gt;Node22</title>
<path fill="none" stroke="#191970" d="M1225.3751,-411.223C1092.5269,-407.2919 814.352,-395.8114 722.5,-367 657.6947,-346.6724 590.5,-357.9186 590.5,-290 590.5,-290 590.5,-290 590.5,-178 590.5,-145.2688 582.5148,-107.9052 576.8978,-85.6716"/>
<polygon fill="#191970" stroke="#191970" points="580.2289,-84.5763 574.3035,-75.7934 573.4585,-86.3545 580.2289,-84.5763"/>
</g>
<!-- Node9&#45;&gt;Node5 -->
<g id="edge10" class="edge">
<title>Node9&#45;&gt;Node5</title>
<path fill="none" stroke="#191970" d="M1360.1897,-337.662C1362.9961,-337.0905 1365.7762,-336.5339 1368.5,-336 1643.9624,-282.0043 1849.3735,-435.1283 1982.5,-188 2022.1236,-114.4452 1873.0437,-81.3082 1806.2766,-70.3686"/>
<polygon fill="#191970" stroke="#191970" points="1806.7316,-66.8972 1796.3092,-68.8007 1805.6438,-73.8122 1806.7316,-66.8972"/>
</g>
<!-- Node10 -->
<g id="node10" class="node">
<title>Node10</title>
<g id="a_node10"><a xlink:title=" ">
<polygon fill="#ffffff" stroke="#bfbfbf" points="1268,-280.5 1268,-299.5 1327,-299.5 1327,-280.5 1268,-280.5"/>
<text text-anchor="middle" x="1297.5" y="-287.5" font-family="Helvetica,sans-Serif" font-size="10.00" fill="#000000">stdexcept</text>
</a>
</g>
</g>
<!-- Node9&#45;&gt;Node10 -->
<g id="edge9" class="edge">
<title>Node9&#45;&gt;Node10</title>
<path fill="none" stroke="#191970" d="M1297.5,-336.2977C1297.5,-328.3834 1297.5,-318.6043 1297.5,-310.0759"/>
<polygon fill="#191970" stroke="#191970" points="1301.0001,-309.8469 1297.5,-299.8469 1294.0001,-309.847 1301.0001,-309.8469"/>
</g>
<!-- Node9&#45;&gt;Node11 -->
<g id="edge11" class="edge">
<title>Node9&#45;&gt;Node11</title>
<path fill="none" stroke="#191970" d="M1333.9495,-336.4554C1358.3744,-326.374 1390.2581,-313.2139 1413.8521,-303.4755"/>
<polygon fill="#191970" stroke="#191970" points="1415.5021,-306.5809 1423.4103,-299.5303 1412.8313,-300.1104 1415.5021,-306.5809"/>
</g>
<!-- Node11&#45;&gt;Node3 -->
<g id="edge12" class="edge">
<title>Node11&#45;&gt;Node3</title>
<path fill="none" stroke="#191970" d="M1515.1997,-287.4287C1618.0814,-282.7537 1806.7023,-270.7565 1868.5,-244 1893.5843,-233.1393 1916.5628,-211.1782 1930.7642,-195.5746"/>
<polygon fill="#191970" stroke="#191970" points="1933.7374,-197.4934 1937.7086,-187.6709 1928.4788,-192.8731 1933.7374,-197.4934"/>
</g>
<!-- Node11&#45;&gt;Node7 -->
<g id="edge17" class="edge">
<title>Node11&#45;&gt;Node7</title>
<path fill="none" stroke="#191970" d="M1377.7734,-283.6706C1247.2226,-271.6144 975.4118,-246.3412 965.5,-244 898.2665,-228.1192 859.5713,-244.9735 820.5,-188 791.7614,-146.0936 856.8234,-102.1675 896.9327,-80.2336"/>
<polygon fill="#191970" stroke="#191970" points="898.6101,-83.3058 905.7953,-75.5197 895.3229,-77.1256 898.6101,-83.3058"/>
</g>
<!-- Node11&#45;&gt;Node8 -->
<g id="edge18" class="edge">
<title>Node11&#45;&gt;Node8</title>
<path fill="none" stroke="#191970" d="M1377.8424,-283.4695C1363.8392,-282.2347 1349.2002,-281.014 1335.5,-280 1059.7907,-259.5943 987.2345,-289.2534 714.5,-244 713.2402,-243.791 711.9612,-243.5549 710.6735,-243.2973"/>
<polygon fill="#191970" stroke="#191970" points="711.3374,-239.8582 700.8031,-240.9888 709.7432,-246.6743 711.3374,-239.8582"/>
</g>
<!-- Node12 -->
<g id="node12" class="node">
<title>Node12</title>
<g id="a_node12"><a xlink:title=" ">
<polygon fill="#ffffff" stroke="#bfbfbf" points="1700,-224.5 1700,-243.5 1747,-243.5 1747,-224.5 1700,-224.5"/>
<text text-anchor="middle" x="1723.5" y="-231.5" font-family="Helvetica,sans-Serif" font-size="10.00" fill="#000000">iterator</text>
</a>
</g>
</g>
<!-- Node11&#45;&gt;Node12 -->
<g id="edge13" class="edge">
<title>Node11&#45;&gt;Node12</title>
<path fill="none" stroke="#191970" d="M1501.7772,-280.4484C1550.3594,-271.795 1622.8738,-258.2502 1685.5,-244 1686.9551,-243.6689 1688.439,-243.3214 1689.9361,-242.9626"/>
<polygon fill="#191970" stroke="#191970" points="1690.9901,-246.307 1699.8438,-240.4879 1689.2937,-239.5156 1690.9901,-246.307"/>
</g>
<!-- Node13 -->
<g id="node13" class="node">
<title>Node13</title>
<g id="a_node13"><a xlink:title=" ">
<polygon fill="#ffffff" stroke="#bfbfbf" points="1765,-224.5 1765,-243.5 1800,-243.5 1800,-224.5 1765,-224.5"/>
<text text-anchor="middle" x="1782.5" y="-231.5" font-family="Helvetica,sans-Serif" font-size="10.00" fill="#000000">map</text>
</a>
</g>
</g>
<!-- Node11&#45;&gt;Node13 -->
<g id="edge14" class="edge">
<title>Node11&#45;&gt;Node13</title>
<path fill="none" stroke="#191970" d="M1515.0994,-284.1885C1576.2107,-278.0242 1668.0153,-266.3396 1755.0063,-243.9727"/>
<polygon fill="#191970" stroke="#191970" points="1755.9828,-247.335 1764.7673,-241.412 1754.2065,-240.5642 1755.9828,-247.335"/>
</g>
<!-- Node14 -->
<g id="node14" class="node">
<title>Node14</title>
<g id="a_node14"><a xlink:title=" ">
<polygon fill="#ffffff" stroke="#bfbfbf" points="1818,-224.5 1818,-243.5 1859,-243.5 1859,-224.5 1818,-224.5"/>
<text text-anchor="middle" x="1838.5" y="-231.5" font-family="Helvetica,sans-Serif" font-size="10.00" fill="#000000">stack</text>
</a>
</g>
</g>
<!-- Node11&#45;&gt;Node14 -->
<g id="edge15" class="edge">
<title>Node11&#45;&gt;Node14</title>
<path fill="none" stroke="#191970" d="M1515.1488,-285.5334C1586.475,-279.9429 1701.293,-268.2808 1807.793,-244.0393"/>
<polygon fill="#191970" stroke="#191970" points="1808.7907,-247.4009 1817.7414,-241.7319 1807.2092,-240.5819 1808.7907,-247.4009"/>
</g>
<!-- Node15 -->
<g id="node15" class="node">
<title>Node15</title>
<g id="a_node15"><a xlink:title=" ">
<polygon fill="#ffffff" stroke="#bfbfbf" points="963.5,-56.5 963.5,-75.5 1025.5,-75.5 1025.5,-56.5 963.5,-56.5"/>
<text text-anchor="middle" x="994.5" y="-63.5" font-family="Helvetica,sans-Serif" font-size="10.00" fill="#000000">type_traits</text>
</a>
</g>
</g>
<!-- Node11&#45;&gt;Node15 -->
<g id="edge16" class="edge">
<title>Node11&#45;&gt;Node15</title>
<path fill="none" stroke="#191970" d="M1377.7316,-281.7264C1307.7098,-272.7633 1204.2394,-257.8794 1166.5,-244 1085.7146,-214.2897 1052.3354,-206.0773 1008.5,-132 1000.2047,-117.9817 996.7905,-99.718 995.4022,-85.9577"/>
<polygon fill="#191970" stroke="#191970" points="998.8686,-85.3689 994.6499,-75.6502 991.8872,-85.8785 998.8686,-85.3689"/>
</g>
<!-- Node16 -->
<g id="node16" class="node">
<title>Node16</title>
<g id="a_node16"><a xlink:title=" ">
<polygon fill="#ffffff" stroke="#bfbfbf" points="1303.5,-.5 1303.5,-19.5 1349.5,-19.5 1349.5,-.5 1303.5,-.5"/>
<text text-anchor="middle" x="1326.5" y="-7.5" font-family="Helvetica,sans-Serif" font-size="10.00" fill="#000000">wstp.h</text>
</a>
</g>
</g>
<!-- Node11&#45;&gt;Node16 -->
<g id="edge19" class="edge">
<title>Node11&#45;&gt;Node16</title>
<path fill="none" stroke="#191970" d="M1377.7734,-283.6706C1247.2226,-271.6144 975.4118,-246.3412 965.5,-244 898.2665,-228.1192 859.5713,-244.9735 820.5,-188 788.415,-141.2139 764.1026,-134.2872 882.5,-56 916.574,-33.4695 1195.7053,-16.8481 1293.1133,-11.6856"/>
<polygon fill="#191970" stroke="#191970" points="1293.4759,-15.1715 1303.2794,-11.1536 1293.1101,-8.1811 1293.4759,-15.1715"/>
</g>
<!-- Node17 -->
<g id="node17" class="node">
<title>Node17</title>
<g id="a_node17"><a xlink:href="Errors_8h.html" target="_top" xlink:title="Definitions of error names and error codes used across LLU.">
<polygon fill="#ffffff" stroke="#000000" points="1677.5,-112.5 1677.5,-131.5 1789.5,-131.5 1789.5,-112.5 1677.5,-112.5"/>
<text text-anchor="middle" x="1733.5" y="-119.5" font-family="Helvetica,sans-Serif" font-size="10.00" fill="#000000">LLU/ErrorLog/Errors.h</text>
</a>
</g>
</g>
<!-- Node11&#45;&gt;Node17 -->
<g id="edge20" class="edge">
<title>Node11&#45;&gt;Node17</title>
<path fill="none" stroke="#191970" d="M1496.2202,-280.4536C1535.1545,-272.3988 1590.4165,-259.6836 1637.5,-244 1644.9608,-241.5148 1763.1771,-194.569 1767.5,-188 1777.9245,-172.1588 1765.1372,-152.7267 1752.3749,-139.0633"/>
<polygon fill="#191970" stroke="#191970" points="1754.594,-136.3336 1745.0392,-131.7558 1749.6538,-141.2929 1754.594,-136.3336"/>
</g>
<!-- Node18 -->
<g id="node18" class="node">
<title>Node18</title>
<g id="a_node18"><a xlink:href="Utilities_8hpp.html" target="_top" xlink:title="Short but generally useful functions.">
<polygon fill="#ffffff" stroke="#000000" points="1018,-112.5 1018,-131.5 1107,-131.5 1107,-112.5 1018,-112.5"/>
<text text-anchor="middle" x="1062.5" y="-119.5" font-family="Helvetica,sans-Serif" font-size="10.00" fill="#000000">LLU/Utilities.hpp</text>
</a>
</g>
</g>
<!-- Node11&#45;&gt;Node18 -->
<g id="edge22" class="edge">
<title>Node11&#45;&gt;Node18</title>
<path fill="none" stroke="#191970" d="M1392.9211,-280.459C1305.4039,-263.9311 1137.0495,-227.8941 1092.5,-188 1078.9013,-175.8223 1071.082,-156.2597 1066.8584,-141.5881"/>
<polygon fill="#191970" stroke="#191970" points="1070.155,-140.3509 1064.2932,-131.5254 1063.3719,-142.0801 1070.155,-140.3509"/>
</g>
<!-- Node30 -->
<g id="node30" class="node">
<title>Node30</title>
<g id="a_node30"><a xlink:href="Get_8h.html" target="_top" xlink:title="Header file with classes related to reading data from WSTP.">
<polygon fill="#ffffff" stroke="#000000" points="1511.5,-224.5 1511.5,-243.5 1605.5,-243.5 1605.5,-224.5 1511.5,-224.5"/>
<text text-anchor="middle" x="1558.5" y="-231.5" font-family="Helvetica,sans-Serif" font-size="10.00" fill="#000000">LLU/WSTP/Get.h</text>
</a>
</g>
</g>
<!-- Node11&#45;&gt;Node30 -->
<g id="edge37" class="edge">
<title>Node11&#45;&gt;Node30</title>
<path fill="none" stroke="#191970" d="M1465.7535,-280.3733C1483.5712,-271.4644 1510.2747,-258.1127 1530.4594,-248.0203"/>
<polygon fill="#191970" stroke="#191970" points="1532.1187,-251.1038 1539.4978,-243.5011 1528.9882,-244.8428 1532.1187,-251.1038"/>
</g>
<!-- Node11&#45;&gt;Node33 -->
<g id="edge73" class="edge">
<title>Node11&#45;&gt;Node33</title>
<path fill="none" stroke="#191970" d="M1497.2746,-280.4711C1539.6966,-271.7289 1596.114,-258.0403 1614.5,-244 1629.9915,-232.1701 1640.522,-212.2752 1646.6977,-197.4146"/>
<polygon fill="#191970" stroke="#191970" points="1650.1215,-198.2611 1650.4336,-187.6709 1643.5855,-195.7551 1650.1215,-198.2611"/>
</g>
<!-- Node36 -->
<g id="node36" class="node">
<title>Node36</title>
<g id="a_node36"><a xlink:href="Put_8h.html" target="_top" xlink:title="Header file with classes related to sending data through WSTP.">
<polygon fill="#ffffff" stroke="#000000" points="1400,-224.5 1400,-243.5 1493,-243.5 1493,-224.5 1400,-224.5"/>
<text text-anchor="middle" x="1446.5" y="-231.5" font-family="Helvetica,sans-Serif" font-size="10.00" fill="#000000">LLU/WSTP/Put.h</text>
</a>
</g>
</g>
<!-- Node11&#45;&gt;Node36 -->
<g id="edge58" class="edge">
<title>Node11&#45;&gt;Node36</title>
<path fill="none" stroke="#191970" d="M1446.5,-280.2455C1446.5,-272.9382 1446.5,-262.6944 1446.5,-253.7046"/>
<polygon fill="#191970" stroke="#191970" points="1450.0001,-253.6426 1446.5,-243.6427 1443.0001,-253.6427 1450.0001,-253.6426"/>
</g>
<!-- Node37 -->
<g id="node37" class="node">
<title>Node37</title>
<g id="a_node37"><a xlink:href="Strings_8h.html" target="_top" xlink:title="Definitions of multiple structures and type aliases related to string handling in WSTP.">
<polygon fill="#ffffff" stroke="#000000" points="1273,-224.5 1273,-243.5 1382,-243.5 1382,-224.5 1273,-224.5"/>
<text text-anchor="middle" x="1327.5" y="-231.5" font-family="Helvetica,sans-Serif" font-size="10.00" fill="#000000">LLU/WSTP/Strings.h</text>
</a>
</g>
</g>
<!-- Node11&#45;&gt;Node37 -->
<g id="edge64" class="edge">
<title>Node11&#45;&gt;Node37</title>
<path fill="none" stroke="#191970" d="M1426.0432,-280.3733C1407.0262,-271.4241 1378.4825,-257.9917 1357.0024,-247.8835"/>
<polygon fill="#191970" stroke="#191970" points="1358.2284,-244.5923 1347.6899,-243.5011 1355.2478,-250.926 1358.2284,-244.5923"/>
</g>
<!-- Node38 -->
<g id="node38" class="node">
<title>Node38</title>
<g id="a_node38"><a xlink:href="UtilityTypeTraits_8hpp.html" target="_top" xlink:title="Type traits used by WSStream to identify types supported by WSTP.">
<polygon fill="#ffffff" stroke="#000000" points="830,-168.5 830,-187.5 991,-187.5 991,-168.5 830,-168.5"/>
<text text-anchor="middle" x="910.5" y="-175.5" font-family="Helvetica,sans-Serif" font-size="10.00" fill="#000000">LLU/WSTP/UtilityTypeTraits.hpp</text>
</a>
</g>
</g>
<!-- Node11&#45;&gt;Node38 -->
<g id="edge74" class="edge">
<title>Node11&#45;&gt;Node38</title>
<path fill="none" stroke="#191970" d="M1377.5678,-283.7167C1257.8764,-272.6789 1022.6613,-250.3727 1005.5,-244 975.7305,-232.9454 946.4921,-210.3666 928.4864,-194.7176"/>
<polygon fill="#191970" stroke="#191970" points="930.3869,-191.7224 920.5965,-187.6729 925.7248,-196.9439 930.3869,-191.7224"/>
</g>
<!-- Node17&#45;&gt;Node5 -->
<g id="edge21" class="edge">
<title>Node17&#45;&gt;Node5</title>
<path fill="none" stroke="#191970" d="M1740.8158,-112.2455C1746.7179,-104.3761 1755.1742,-93.101 1762.2594,-83.6542"/>
<polygon fill="#191970" stroke="#191970" points="1765.068,-85.7427 1768.268,-75.6427 1759.4679,-81.5427 1765.068,-85.7427"/>
</g>
<!-- Node18&#45;&gt;Node7 -->
<g id="edge26" class="edge">
<title>Node18&#45;&gt;Node7</title>
<path fill="none" stroke="#191970" d="M1038.9489,-112.3733C1015.7154,-102.8764 980.1303,-88.3306 955.02,-78.0666"/>
<polygon fill="#191970" stroke="#191970" points="956.2083,-74.7712 945.6274,-74.2273 953.5597,-81.2508 956.2083,-74.7712"/>
</g>
<!-- Node18&#45;&gt;Node15 -->
<g id="edge25" class="edge">
<title>Node18&#45;&gt;Node15</title>
<path fill="none" stroke="#191970" d="M1050.6553,-112.2455C1040.612,-103.9746 1026.0005,-91.9416 1014.1996,-82.2232"/>
<polygon fill="#191970" stroke="#191970" points="1016.1533,-79.298 1006.209,-75.6427 1011.7033,-84.7015 1016.1533,-79.298"/>
</g>
<!-- Node19 -->
<g id="node19" class="node">
<title>Node19</title>
<g id="a_node19"><a xlink:title=" ">
<polygon fill="#ffffff" stroke="#bfbfbf" points="1044,-56.5 1044,-75.5 1097,-75.5 1097,-56.5 1044,-56.5"/>
<text text-anchor="middle" x="1070.5" y="-63.5" font-family="Helvetica,sans-Serif" font-size="10.00" fill="#000000">complex</text>
</a>
</g>
</g>
<!-- Node18&#45;&gt;Node19 -->
<g id="edge23" class="edge">
<title>Node18&#45;&gt;Node19</title>
<path fill="none" stroke="#191970" d="M1063.8935,-112.2455C1064.9374,-104.9382 1066.4008,-94.6944 1067.6851,-85.7046"/>
<polygon fill="#191970" stroke="#191970" points="1071.173,-86.0372 1069.1225,-75.6427 1064.2434,-85.0472 1071.173,-86.0372"/>
</g>
<!-- Node20 -->
<g id="node20" class="node">
<title>Node20</title>
<g id="a_node20"><a xlink:title=" ">
<polygon fill="#ffffff" stroke="#bfbfbf" points="1179.5,-56.5 1179.5,-75.5 1225.5,-75.5 1225.5,-56.5 1179.5,-56.5"/>
<text text-anchor="middle" x="1202.5" y="-63.5" font-family="Helvetica,sans-Serif" font-size="10.00" fill="#000000">cstdint</text>
</a>
</g>
</g>
<!-- Node18&#45;&gt;Node20 -->
<g id="edge24" class="edge">
<title>Node18&#45;&gt;Node20</title>
<path fill="none" stroke="#191970" d="M1086.5669,-112.3733C1109.4809,-103.2077 1144.1517,-89.3393 1169.6101,-79.156"/>
<polygon fill="#191970" stroke="#191970" points="1171.2275,-82.2787 1179.2124,-75.315 1168.6277,-75.7793 1171.2275,-82.2787"/>
</g>
<!-- Node21 -->
<g id="node21" class="node">
<title>Node21</title>
<g id="a_node21"><a xlink:title=" ">
<polygon fill="#ffffff" stroke="#bfbfbf" points="1115.5,-56.5 1115.5,-75.5 1161.5,-75.5 1161.5,-56.5 1115.5,-56.5"/>
<text text-anchor="middle" x="1138.5" y="-63.5" font-family="Helvetica,sans-Serif" font-size="10.00" fill="#000000">variant</text>
</a>
</g>
</g>
<!-- Node18&#45;&gt;Node21 -->
<g id="edge27" class="edge">
<title>Node18&#45;&gt;Node21</title>
<path fill="none" stroke="#191970" d="M1075.7382,-112.2455C1087.181,-103.814 1103.9296,-91.4729 1117.2475,-81.6598"/>
<polygon fill="#191970" stroke="#191970" points="1119.4391,-84.3924 1125.4135,-75.6427 1115.2867,-78.757 1119.4391,-84.3924"/>
</g>
<!-- Node18&#45;&gt;Node22 -->
<g id="edge28" class="edge">
<title>Node18&#45;&gt;Node22</title>
<path fill="none" stroke="#191970" d="M1017.6254,-116.8819C928.4539,-106.7116 729.0299,-83.9667 629.8376,-72.6536"/>
<polygon fill="#191970" stroke="#191970" points="630.0247,-69.1523 619.6924,-71.4965 629.2314,-76.1072 630.0247,-69.1523"/>
</g>
<!-- Node22&#45;&gt;Node16 -->
<g id="edge31" class="edge">
<title>Node22&#45;&gt;Node16</title>
<path fill="none" stroke="#191970" d="M619.5889,-62.4331C760.9968,-51.9446 1173.0424,-21.3823 1293.2296,-12.4677"/>
<polygon fill="#191970" stroke="#191970" points="1293.585,-15.9511 1303.2987,-11.7209 1293.0672,-8.9703 1293.585,-15.9511"/>
</g>
<!-- Node23 -->
<g id="node23" class="node">
<title>Node23</title>
<g id="a_node23"><a xlink:title=" ">
<polygon fill="#ffffff" stroke="#bfbfbf" points="797.5,-.5 797.5,-19.5 849.5,-19.5 849.5,-.5 797.5,-.5"/>
<text text-anchor="middle" x="823.5" y="-7.5" font-family="Helvetica,sans-Serif" font-size="10.00" fill="#000000">memory</text>
</a>
</g>
</g>
<!-- Node22&#45;&gt;Node23 -->
<g id="edge29" class="edge">
<title>Node22&#45;&gt;Node23</title>
<path fill="none" stroke="#191970" d="M619.5557,-56.8083C661.5196,-48.5579 724.2611,-35.6846 787.4475,-20.1458"/>
<polygon fill="#191970" stroke="#191970" points="788.316,-23.5366 797.1793,-17.732 786.6308,-16.7424 788.316,-23.5366"/>
</g>
<!-- Node24 -->
<g id="node24" class="node">
<title>Node24</title>
<g id="a_node24"><a xlink:title=" ">
<polygon fill="#ffffff" stroke="#bfbfbf" points="309.5,-.5 309.5,-19.5 371.5,-19.5 371.5,-.5 309.5,-.5"/>
<text text-anchor="middle" x="340.5" y="-7.5" font-family="Helvetica,sans-Serif" font-size="10.00" fill="#000000">dllexport.h</text>
</a>
</g>
</g>
<!-- Node22&#45;&gt;Node24 -->
<g id="edge30" class="edge">
<title>Node22&#45;&gt;Node24</title>
<path fill="none" stroke="#191970" d="M531.6013,-56.4969C495.0579,-47.7693 439.1993,-34.3697 381.5265,-20.2379"/>
<polygon fill="#191970" stroke="#191970" points="382.0483,-16.7622 371.5023,-17.7787 380.3804,-23.5606 382.0483,-16.7622"/>
</g>
<!-- Node25 -->
<g id="node25" class="node">
<title>Node25</title>
<g id="a_node25"><a xlink:title=" ">
<polygon fill="#ffffff" stroke="#bfbfbf" points="390,-.5 390,-19.5 481,-19.5 481,-.5 390,-.5"/>
<text text-anchor="middle" x="435.5" y="-7.5" font-family="Helvetica,sans-Serif" font-size="10.00" fill="#000000">WolframLibrary.h</text>
</a>
</g>
</g>
<!-- Node22&#45;&gt;Node25 -->
<g id="edge32" class="edge">
<title>Node22&#45;&gt;Node25</title>
<path fill="none" stroke="#191970" d="M548.1208,-56.3733C525.9955,-47.2629 492.5866,-33.5062 467.8981,-23.3404"/>
<polygon fill="#191970" stroke="#191970" points="469.1536,-20.0723 458.5742,-19.5011 466.4883,-26.5451 469.1536,-20.0723"/>
</g>
<!-- Node26 -->
<g id="node26" class="node">
<title>Node26</title>
<g id="a_node26"><a xlink:title=" ">
<polygon fill="#ffffff" stroke="#bfbfbf" points="499.5,-.5 499.5,-19.5 643.5,-19.5 643.5,-.5 499.5,-.5"/>
<text text-anchor="middle" x="571.5" y="-7.5" font-family="Helvetica,sans-Serif" font-size="10.00" fill="#000000">WolframIOLibraryFunctions.h</text>
</a>
</g>
</g>
<!-- Node22&#45;&gt;Node26 -->
<g id="edge33" class="edge">
<title>Node22&#45;&gt;Node26</title>
<path fill="none" stroke="#191970" d="M571.5,-56.2455C571.5,-48.9382 571.5,-38.6944 571.5,-29.7046"/>
<polygon fill="#191970" stroke="#191970" points="575.0001,-29.6426 571.5,-19.6427 568.0001,-29.6427 575.0001,-29.6426"/>
</g>
<!-- Node27 -->
<g id="node27" class="node">
<title>Node27</title>
<g id="a_node27"><a xlink:title=" ">
<polygon fill="#ffffff" stroke="#bfbfbf" points="661.5,-.5 661.5,-19.5 779.5,-19.5 779.5,-.5 661.5,-.5"/>
<text text-anchor="middle" x="720.5" y="-7.5" font-family="Helvetica,sans-Serif" font-size="10.00" fill="#000000">WolframImageLibrary.h</text>
</a>
</g>
</g>
<!-- Node22&#45;&gt;Node27 -->
<g id="edge34" class="edge">
<title>Node22&#45;&gt;Node27</title>
<path fill="none" stroke="#191970" d="M597.114,-56.3733C621.5687,-47.1822 658.6054,-33.2624 685.7209,-23.0713"/>
<polygon fill="#191970" stroke="#191970" points="687.0909,-26.2956 695.2202,-19.5011 684.6281,-19.7431 687.0909,-26.2956"/>
</g>
<!-- Node28 -->
<g id="node28" class="node">
<title>Node28</title>
<g id="a_node28"><a xlink:title=" ">
<polygon fill="#ffffff" stroke="#bfbfbf" points="0,-.5 0,-19.5 151,-19.5 151,-.5 0,-.5"/>
<text text-anchor="middle" x="75.5" y="-7.5" font-family="Helvetica,sans-Serif" font-size="10.00" fill="#000000">WolframNumericArrayLibrary.h</text>
</a>
</g>
</g>
<!-- Node22&#45;&gt;Node28 -->
<g id="edge35" class="edge">
<title>Node22&#45;&gt;Node28</title>
<path fill="none" stroke="#191970" d="M523.4012,-60.7058C448.5249,-52.4446 299.2666,-35.8986 161.371,-20.0946"/>
<polygon fill="#191970" stroke="#191970" points="161.3749,-16.5722 151.0412,-18.9096 160.5771,-23.5266 161.3749,-16.5722"/>
</g>
<!-- Node29 -->
<g id="node29" class="node">
<title>Node29</title>
<g id="a_node29"><a xlink:title=" ">
<polygon fill="#ffffff" stroke="#bfbfbf" points="169.5,-.5 169.5,-19.5 291.5,-19.5 291.5,-.5 169.5,-.5"/>
<text text-anchor="middle" x="230.5" y="-7.5" font-family="Helvetica,sans-Serif" font-size="10.00" fill="#000000">WolframSparseLibrary.h</text>
</a>
</g>
</g>
<!-- Node22&#45;&gt;Node29 -->
<g id="edge36" class="edge">
<title>Node22&#45;&gt;Node29</title>
<path fill="none" stroke="#191970" d="M523.3663,-58.0953C464.6055,-48.4455 364.8611,-32.0652 298.3372,-21.1404"/>
<polygon fill="#191970" stroke="#191970" points="298.7999,-17.6696 288.3649,-19.5027 297.6655,-24.5771 298.7999,-17.6696"/>
</g>
<!-- Node30&#45;&gt;Node5 -->
<g id="edge40" class="edge">
<title>Node30&#45;&gt;Node5</title>
<path fill="none" stroke="#191970" d="M1605.7893,-228.177C1659.3129,-220.8062 1742.3361,-206.772 1767.5,-188 1796.7399,-166.1874 1806.8813,-147.5038 1798.5,-112 1796.2294,-102.3814 1791.6225,-92.4809 1787.1241,-84.3404"/>
<polygon fill="#191970" stroke="#191970" points="1790.133,-82.5524 1782.0397,-75.7151 1784.1027,-86.1071 1790.133,-82.5524"/>
</g>
<!-- Node30&#45;&gt;Node16 -->
<g id="edge41" class="edge">
<title>Node30&#45;&gt;Node16</title>
<path fill="none" stroke="#191970" d="M1605.6562,-230.018C1665.3758,-224.0912 1763.8456,-211.09 1791.5,-188 1836.7858,-150.1887 1848.1678,-96.7425 1805.5,-56 1773.3314,-25.283 1463.198,-13.8385 1359.8329,-10.8587"/>
<polygon fill="#191970" stroke="#191970" points="1359.7514,-7.3551 1349.6572,-10.5736 1359.5553,-14.3524 1359.7514,-7.3551"/>
</g>
<!-- Node30&#45;&gt;Node17 -->
<g id="edge42" class="edge">
<title>Node30&#45;&gt;Node17</title>
<path fill="none" stroke="#191970" d="M1605.798,-229.3712C1656.9745,-223.2705 1733.6751,-210.5727 1751.5,-188 1762.3683,-174.2369 1754.7111,-154.3937 1746.2831,-140.0629"/>
<polygon fill="#191970" stroke="#191970" points="1749.1706,-138.0819 1740.8204,-131.5608 1743.2814,-141.8658 1749.1706,-138.0819"/>
</g>
<!-- Node30&#45;&gt;Node18 -->
<g id="edge43" class="edge">
<title>Node30&#45;&gt;Node18</title>
<path fill="none" stroke="#191970" d="M1511.2447,-225.6717C1443.3897,-213.6779 1324.3051,-192.4851 1304.5,-188 1233.3239,-171.8813 1151.6326,-148.5836 1103.6927,-134.4129"/>
<polygon fill="#191970" stroke="#191970" points="1104.5737,-131.0235 1093.9911,-131.5334 1102.5819,-137.7341 1104.5737,-131.0235"/>
</g>
<!-- Node30&#45;&gt;Node23 -->
<g id="edge39" class="edge">
<title>Node30&#45;&gt;Node23</title>
<path fill="none" stroke="#191970" d="M1511.2864,-225.2641C1507.9809,-224.792 1504.6944,-224.3633 1501.5,-224 1426.213,-215.4377 872.6457,-242.9751 820.5,-188 779.4589,-144.732 801.9893,-65.5666 815.576,-29.1977"/>
<polygon fill="#191970" stroke="#191970" points="818.8865,-30.3423 819.2684,-19.7543 812.3671,-27.7932 818.8865,-30.3423"/>
</g>
<!-- Node31 -->
<g id="node31" class="node">
<title>Node31</title>
<g id="a_node31"><a xlink:title=" ">
<polygon fill="#ffffff" stroke="#bfbfbf" points="1436,-112.5 1436,-131.5 1495,-131.5 1495,-112.5 1436,-112.5"/>
<text text-anchor="middle" x="1465.5" y="-119.5" font-family="Helvetica,sans-Serif" font-size="10.00" fill="#000000">functional</text>
</a>
</g>
</g>
<!-- Node30&#45;&gt;Node31 -->
<g id="edge38" class="edge">
<title>Node30&#45;&gt;Node31</title>
<path fill="none" stroke="#191970" d="M1550.5709,-224.4509C1534.9223,-205.6054 1499.8642,-163.3849 1479.983,-139.4419"/>
<polygon fill="#191970" stroke="#191970" points="1482.4901,-136.9824 1473.4091,-131.5249 1477.1047,-141.4543 1482.4901,-136.9824"/>
</g>
<!-- Node32 -->
<g id="node32" class="node">
<title>Node32</title>
<g id="a_node32"><a xlink:href="Release_8h.html" target="_top" xlink:title="Header file with classes responsible for releasing memory allocated by WSTP when receiving data.">
<polygon fill="#ffffff" stroke="#000000" points="1313.5,-168.5 1313.5,-187.5 1427.5,-187.5 1427.5,-168.5 1313.5,-168.5"/>
<text text-anchor="middle" x="1370.5" y="-175.5" font-family="Helvetica,sans-Serif" font-size="10.00" fill="#000000">LLU/WSTP/Release.h</text>
</a>
</g>
</g>
<!-- Node30&#45;&gt;Node32 -->
<g id="edge44" class="edge">
<title>Node30&#45;&gt;Node32</title>
<path fill="none" stroke="#191970" d="M1526.1816,-224.3733C1494.6494,-214.9807 1446.5379,-200.6496 1412.1499,-190.4064"/>
<polygon fill="#191970" stroke="#191970" points="1412.9797,-187.0016 1402.3966,-187.5011 1410.9813,-193.7103 1412.9797,-187.0016"/>
</g>
<!-- Node30&#45;&gt;Node33 -->
<g id="edge48" class="edge">
<title>Node30&#45;&gt;Node33</title>
<path fill="none" stroke="#191970" d="M1575.0477,-224.2455C1589.7599,-215.5731 1611.4888,-202.7645 1628.3505,-192.825"/>
<polygon fill="#191970" stroke="#191970" points="1630.3046,-195.736 1637.1419,-187.6427 1626.7498,-189.7057 1630.3046,-195.736"/>
</g>
<!-- Node32&#45;&gt;Node16 -->
<g id="edge46" class="edge">
<title>Node32&#45;&gt;Node16</title>
<path fill="none" stroke="#191970" d="M1371.3012,-168.4479C1372.7171,-147.3835 1374.2542,-95.6651 1359.5,-56 1355.6344,-45.6078 1348.7674,-35.4418 1342.2949,-27.3208"/>
<polygon fill="#191970" stroke="#191970" points="1344.9621,-25.0545 1335.835,-19.6743 1339.6149,-29.572 1344.9621,-25.0545"/>
</g>
<!-- Node32&#45;&gt;Node18 -->
<g id="edge47" class="edge">
<title>Node32&#45;&gt;Node18</title>
<path fill="none" stroke="#191970" d="M1317.4623,-168.4577C1268.2778,-159.5944 1192.7622,-145.9501 1117.4299,-132.1651"/>
<polygon fill="#191970" stroke="#191970" points="1117.7534,-128.6662 1107.2866,-130.3079 1116.4927,-135.5517 1117.7534,-128.6662"/>
</g>
<!-- Node32&#45;&gt;Node31 -->
<g id="edge45" class="edge">
<title>Node32&#45;&gt;Node31</title>
<path fill="none" stroke="#191970" d="M1387.0477,-168.2455C1401.7599,-159.5731 1423.4888,-146.7645 1440.3505,-136.825"/>
<polygon fill="#191970" stroke="#191970" points="1442.3046,-139.736 1449.1419,-131.6427 1438.7498,-133.7057 1442.3046,-139.736"/>
</g>
<!-- Node33&#45;&gt;Node5 -->
<g id="edge50" class="edge">
<title>Node33&#45;&gt;Node5</title>
<path fill="none" stroke="#191970" d="M1637.3245,-168.3119C1617.783,-155.3847 1589.3064,-131.8209 1604.5,-112 1621.4686,-89.8634 1700.2928,-75.9974 1744.7608,-69.7989"/>
<polygon fill="#191970" stroke="#191970" points="1745.2998,-73.258 1754.7437,-68.4557 1744.3663,-66.3205 1745.2998,-73.258"/>
</g>
<!-- Node33&#45;&gt;Node16 -->
<g id="edge51" class="edge">
<title>Node33&#45;&gt;Node16</title>
<path fill="none" stroke="#191970" d="M1634.9821,-168.4862C1580.3654,-140.4263 1419.6907,-57.8778 1354.4807,-24.3754"/>
<polygon fill="#191970" stroke="#191970" points="1355.7143,-21.0743 1345.2201,-19.6177 1352.5154,-27.3007 1355.7143,-21.0743"/>
</g>
<!-- Node33&#45;&gt;Node17 -->
<g id="edge52" class="edge">
<title>Node33&#45;&gt;Node17</title>
<path fill="none" stroke="#191970" d="M1667.4349,-168.2455C1679.5947,-159.7337 1697.4464,-147.2375 1711.5285,-137.3801"/>
<polygon fill="#191970" stroke="#191970" points="1713.5395,-140.2447 1719.7248,-131.6427 1709.5253,-134.51 1713.5395,-140.2447"/>
</g>
<!-- Node34 -->
<g id="node34" class="node">
<title>Node34</title>
<g id="a_node34"><a xlink:title=" ">
<polygon fill="#ffffff" stroke="#bfbfbf" points="1613.5,-112.5 1613.5,-131.5 1659.5,-131.5 1659.5,-112.5 1613.5,-112.5"/>
<text text-anchor="middle" x="1636.5" y="-119.5" font-family="Helvetica,sans-Serif" font-size="10.00" fill="#000000">cstring</text>
</a>
</g>
</g>
<!-- Node33&#45;&gt;Node34 -->
<g id="edge49" class="edge">
<title>Node33&#45;&gt;Node34</title>
<path fill="none" stroke="#191970" d="M1650.5388,-168.2455C1648.2962,-160.8579 1645.1423,-150.4689 1642.3919,-141.4087"/>
<polygon fill="#191970" stroke="#191970" points="1645.6812,-140.1948 1639.4272,-131.6427 1638.983,-142.2282 1645.6812,-140.1948"/>
</g>
<!-- Node35 -->
<g id="node35" class="node">
<title>Node35</title>
<g id="a_node35"><a xlink:href="EncodingTraits_8hpp.html" target="_top" xlink:title="Defines possible encodings together with their properties and related types.">
<polygon fill="#ffffff" stroke="#000000" points="1125.5,-112.5 1125.5,-131.5 1279.5,-131.5 1279.5,-112.5 1125.5,-112.5"/>
<text text-anchor="middle" x="1202.5" y="-119.5" font-family="Helvetica,sans-Serif" font-size="10.00" fill="#000000">LLU/WSTP/EncodingTraits.hpp</text>
</a>
</g>
</g>
<!-- Node33&#45;&gt;Node35 -->
<g id="edge53" class="edge">
<title>Node33&#45;&gt;Node35</title>
<path fill="none" stroke="#191970" d="M1597.7462,-171.0771C1520.5121,-161.4871 1380.2209,-144.0673 1289.2361,-132.7699"/>
<polygon fill="#191970" stroke="#191970" points="1289.5726,-129.2849 1279.2175,-131.5259 1288.71,-136.2315 1289.5726,-129.2849"/>
</g>
<!-- Node35&#45;&gt;Node5 -->
<g id="edge55" class="edge">
<title>Node35&#45;&gt;Node5</title>
<path fill="none" stroke="#191970" d="M1279.7773,-114.4476C1407.6328,-101.9521 1657.7207,-77.5107 1744.7595,-69.0043"/>
<polygon fill="#191970" stroke="#191970" points="1745.1666,-72.4813 1754.7787,-68.0251 1744.4857,-65.5145 1745.1666,-72.4813"/>
</g>
<!-- Node35&#45;&gt;Node7 -->
<g id="edge57" class="edge">
<title>Node35&#45;&gt;Node7</title>
<path fill="none" stroke="#191970" d="M1136.3795,-112.478C1088.4337,-104.945 1021.9529,-93.2091 955.4702,-75.9661"/>
<polygon fill="#191970" stroke="#191970" points="956.2253,-72.5456 945.6635,-73.3819 954.4416,-79.3146 956.2253,-72.5456"/>
</g>
<!-- Node35&#45;&gt;Node15 -->
<g id="edge56" class="edge">
<title>Node35&#45;&gt;Node15</title>
<path fill="none" stroke="#191970" d="M1166.7435,-112.3733C1130.2779,-102.5556 1073.7712,-87.3423 1035.5113,-77.0415"/>
<polygon fill="#191970" stroke="#191970" points="1036.2849,-73.6252 1025.7188,-74.4051 1034.465,-80.3845 1036.2849,-73.6252"/>
</g>
<!-- Node35&#45;&gt;Node20 -->
<g id="edge54" class="edge">
<title>Node35&#45;&gt;Node20</title>
<path fill="none" stroke="#191970" d="M1202.5,-112.2455C1202.5,-104.9382 1202.5,-94.6944 1202.5,-85.7046"/>
<polygon fill="#191970" stroke="#191970" points="1206.0001,-85.6426 1202.5,-75.6427 1199.0001,-85.6427 1206.0001,-85.6426"/>
</g>
<!-- Node36&#45;&gt;Node16 -->
<g id="edge60" class="edge">
<title>Node36&#45;&gt;Node16</title>
<path fill="none" stroke="#191970" d="M1399.8713,-225.0374C1363.0303,-216.8971 1315.969,-203.771 1304.5,-188 1299.2721,-180.811 1303.5047,-176.833 1304.5,-168 1309.1962,-126.3232 1320.4882,-117.6401 1325.5,-76 1327.3429,-60.6883 1327.5245,-43.2357 1327.2823,-30.1246"/>
<polygon fill="#191970" stroke="#191970" points="1330.774,-29.7798 1326.9913,-19.8833 1323.7768,-29.9787 1330.774,-29.7798"/>
</g>
<!-- Node36&#45;&gt;Node17 -->
<g id="edge61" class="edge">
<title>Node36&#45;&gt;Node17</title>
<path fill="none" stroke="#191970" d="M1493.2438,-225.6112C1496.3756,-225.062 1499.4831,-224.5208 1502.5,-224 1550.453,-215.7227 1683.102,-221.3913 1718.5,-188 1730.8967,-176.306 1734.0616,-156.679 1734.476,-141.8608"/>
<polygon fill="#191970" stroke="#191970" points="1737.9739,-141.6385 1734.3641,-131.6775 1730.9743,-141.7154 1737.9739,-141.6385"/>
</g>
<!-- Node36&#45;&gt;Node18 -->
<g id="edge62" class="edge">
<title>Node36&#45;&gt;Node18</title>
<path fill="none" stroke="#191970" d="M1399.7632,-225.5698C1396.6297,-225.0306 1393.52,-224.5029 1390.5,-224 1287.1389,-206.7888 1254.8002,-226.89 1157.5,-188 1128.1726,-176.2781 1099.0262,-154.0506 1080.9061,-138.6488"/>
<polygon fill="#191970" stroke="#191970" points="1082.7831,-135.6421 1072.9441,-131.7121 1078.1849,-140.92 1082.7831,-135.6421"/>
</g>
<!-- Node36&#45;&gt;Node31 -->
<g id="edge59" class="edge">
<title>Node36&#45;&gt;Node31</title>
<path fill="none" stroke="#191970" d="M1453.0397,-224.2849C1458.6594,-215.3105 1466.3408,-201.3824 1469.5,-188 1473.1264,-172.6381 1471.7034,-154.7382 1469.6088,-141.4583"/>
<polygon fill="#191970" stroke="#191970" points="1473.0373,-140.7497 1467.7877,-131.5469 1466.1526,-142.0148 1473.0373,-140.7497"/>
</g>
<!-- Node36&#45;&gt;Node33 -->
<g id="edge63" class="edge">
<title>Node36&#45;&gt;Node33</title>
<path fill="none" stroke="#191970" d="M1482.0846,-224.3733C1517.1016,-214.9001 1570.6881,-200.4032 1608.6125,-190.1435"/>
<polygon fill="#191970" stroke="#191970" points="1609.6408,-193.4912 1618.3798,-187.5011 1607.8127,-186.7341 1609.6408,-193.4912"/>
</g>
<!-- Node37&#45;&gt;Node3 -->
<g id="edge65" class="edge">
<title>Node37&#45;&gt;Node3</title>
<path fill="none" stroke="#191970" d="M1382.1008,-225.0774C1384.9387,-224.6938 1387.7513,-224.3316 1390.5,-224 1584.1681,-200.6368 1817.3029,-185.5272 1907.3976,-180.1734"/>
<polygon fill="#191970" stroke="#191970" points="1907.6383,-183.6654 1917.4152,-179.5835 1907.2267,-176.6775 1907.6383,-183.6654"/>
</g>
<!-- Node37&#45;&gt;Node16 -->
<g id="edge68" class="edge">
<title>Node37&#45;&gt;Node16</title>
<path fill="none" stroke="#191970" d="M1308.6176,-224.3676C1295.53,-216.5389 1279.1351,-204.1524 1271.5,-188 1267.7013,-179.9637 1269.5551,-176.6735 1271.5,-168 1275.3716,-150.7345 1282.0757,-148.4868 1288.5,-132 1302.3299,-96.5083 1314.7026,-53.7435 1321.3513,-29.4282"/>
<polygon fill="#191970" stroke="#191970" points="1324.7645,-30.2132 1323.988,-19.6469 1318.0058,-28.3912 1324.7645,-30.2132"/>
</g>
<!-- Node37&#45;&gt;Node17 -->
<g id="edge69" class="edge">
<title>Node37&#45;&gt;Node17</title>
<path fill="none" stroke="#191970" d="M1362.1153,-224.4509C1435.674,-204.1589 1607.4735,-156.7659 1689.0192,-134.2706"/>
<polygon fill="#191970" stroke="#191970" points="1690.2631,-137.5582 1698.9723,-131.5249 1688.4016,-130.8103 1690.2631,-137.5582"/>
</g>
<!-- Node37&#45;&gt;Node18 -->
<g id="edge70" class="edge">
<title>Node37&#45;&gt;Node18</title>
<path fill="none" stroke="#191970" d="M1272.8984,-225.9213C1220.2736,-217.4289 1144.986,-203.2094 1119.5,-188 1099.9051,-176.3063 1083.6257,-155.5048 1073.5497,-140.3732"/>
<polygon fill="#191970" stroke="#191970" points="1076.4257,-138.3733 1068.1035,-131.8164 1070.5203,-142.1319 1076.4257,-138.3733"/>
</g>
<!-- Node37&#45;&gt;Node23 -->
<g id="edge67" class="edge">
<title>Node37&#45;&gt;Node23</title>
<path fill="none" stroke="#191970" d="M1272.7679,-233.4378C1142.0071,-231.5275 819.8795,-223.255 787.5,-188 747.816,-144.7917 768.3772,-111.4626 787.5,-56 791.2187,-45.2144 798.6213,-35.0249 805.7519,-26.9904"/>
<polygon fill="#191970" stroke="#191970" points="808.2967,-29.3934 812.6452,-19.7321 803.2209,-24.5729 808.2967,-29.3934"/>
</g>
<!-- Node37&#45;&gt;Node31 -->
<g id="edge66" class="edge">
<title>Node37&#45;&gt;Node31</title>
<path fill="none" stroke="#191970" d="M1369.283,-224.4315C1391.585,-217.5018 1418.1396,-206.0933 1436.5,-188 1449.2868,-175.3993 1456.8489,-156.199 1461.0268,-141.7505"/>
<polygon fill="#191970" stroke="#191970" points="1464.4807,-142.3735 1463.5925,-131.816 1457.7031,-140.6231 1464.4807,-142.3735"/>
</g>
<!-- Node37&#45;&gt;Node33 -->
<g id="edge72" class="edge">
<title>Node37&#45;&gt;Node33</title>
<path fill="none" stroke="#191970" d="M1382.0651,-224.6269C1438.6948,-214.899 1527.2822,-199.6816 1587.7396,-189.2963"/>
<polygon fill="#191970" stroke="#191970" points="1588.675,-192.6869 1597.9381,-187.5444 1587.4899,-185.788 1588.675,-192.6869"/>
</g>
<!-- Node37&#45;&gt;Node35 -->
<g id="edge71" class="edge">
<title>Node37&#45;&gt;Node35</title>
<path fill="none" stroke="#191970" d="M1295.4375,-224.4388C1275.5314,-217.1423 1250.5771,-205.3523 1233.5,-188 1220.7632,-175.058 1212.5673,-155.8989 1207.8222,-141.5526"/>
<polygon fill="#191970" stroke="#191970" points="1211.0893,-140.2642 1204.8482,-131.7027 1204.3881,-142.2876 1211.0893,-140.2642"/>
</g>
<!-- Node38&#45;&gt;Node15 -->
<g id="edge75" class="edge">
<title>Node38&#45;&gt;Node15</title>
<path fill="none" stroke="#191970" d="M917.6618,-168.4509C931.734,-149.688 963.1839,-107.7548 981.1815,-83.758"/>
<polygon fill="#191970" stroke="#191970" points="984.1563,-85.6249 987.3563,-75.5249 978.5563,-81.4249 984.1563,-85.6249"/>
</g>
<!-- Node38&#45;&gt;Node16 -->
<g id="edge76" class="edge">
<title>Node38&#45;&gt;Node16</title>
<path fill="none" stroke="#191970" d="M905.0514,-168.2806C893.0722,-145.4725 867.7132,-88.0306 896.5,-56 922.9234,-26.5991 1196.893,-14.4404 1293.2251,-11.0529"/>
<polygon fill="#191970" stroke="#191970" points="1293.4131,-14.5486 1303.2875,-10.7084 1293.1736,-7.5527 1293.4131,-14.5486"/>
</g>
<!-- Node38&#45;&gt;Node18 -->
<g id="edge77" class="edge">
<title>Node38&#45;&gt;Node18</title>
<path fill="none" stroke="#191970" d="M936.6297,-168.3733C961.5768,-159.1822 999.3592,-145.2624 1027.0206,-135.0713"/>
<polygon fill="#191970" stroke="#191970" points="1028.5378,-138.2424 1036.7112,-131.5011 1026.1178,-131.674 1028.5378,-138.2424"/>
</g>
</g>
</svg>
