<?xml version="1.0" encoding="UTF-8" standalone="no"?>
<!DOCTYPE svg PUBLIC "-//W3C//DTD SVG 1.1//EN"
 "http://www.w3.org/Graphics/SVG/1.1/DTD/svg11.dtd">
<!-- Generated by graphviz version 2.40.1 (20161225.0304)
 -->
<!-- Title: ErrorManager.h Pages: 1 -->
<!--zoomable 431 -->
<svg id="main" version="1.1" xmlns="http://www.w3.org/2000/svg" xmlns:xlink="http://www.w3.org/1999/xlink" xml:space="preserve" onload="init(evt)">
<style type="text/css"><![CDATA[
.edge:hover path { stroke: red; }
.edge:hover polygon { stroke: red; fill: red; }
]]></style>
<script type="text/javascript"><![CDATA[
var edges = document.getElementsByTagName('g');
if (edges && edges.length) {
  for (var i=0;i<edges.length;i++) {
    if (edges[i].id.substr(0,4)=='edge') {
      edges[i].setAttribute('class','edge');
    }
  }
}
]]></script>
        <defs>
                <circle id="rim" cx="0" cy="0" r="7"/>
                <circle id="rim2" cx="0" cy="0" r="3.5"/>
                <g id="zoomPlus">
                        <use xlink:href="#rim" fill="#404040">
                                <set attributeName="fill" to="#808080" begin="zoomplus.mouseover" end="zoomplus.mouseout"/>
                        </use>
                        <path d="M-4,0h8M0,-4v8" fill="none" stroke="white" stroke-width="1.5" pointer-events="none"/>
                </g>
                <g id="zoomMin">
                        <use xlink:href="#rim" fill="#404040">
                                <set attributeName="fill" to="#808080" begin="zoomminus.mouseover" end="zoomminus.mouseout"/>
                        </use>
                        <path d="M-4,0h8" fill="none" stroke="white" stroke-width="1.5" pointer-events="none"/>
                </g>
                <g id="dirArrow">
                        <path fill="none" stroke="white" stroke-width="1.5" d="M0,-3.0v7 M-2.5,-0.5L0,-3.0L2.5,-0.5"/>
                </g>
               <g id="resetDef">
                       <use xlink:href="#rim2" fill="#404040">
                               <set attributeName="fill" to="#808080" begin="reset.mouseover" end="reset.mouseout"/>
                       </use>
               </g>
        </defs>

<script type="text/javascript">
var viewWidth = 1803;
var viewHeight = 431;
var sectionId = 'dynsection-0';
</script>
<script xlink:href="svgpan.js"/>
<svg id="graph" class="graph">
<g id="viewport">
<title>ErrorManager.h</title>
<polygon fill="#ffffff" stroke="transparent" points="-4,4 -4,-427 1798.5,-427 1798.5,4 -4,4"/>
<!-- Node1 -->
<g id="node1" class="node">
<title>Node1</title>
<g id="a_node1"><a xlink:title="Definition of the ErrorManager class responsible for error registration and throwing.">
<polygon fill="#bfbfbf" stroke="#000000" points="1329.5,-403.5 1329.5,-422.5 1412.5,-422.5 1412.5,-403.5 1329.5,-403.5"/>
<text text-anchor="middle" x="1371" y="-410.5" font-family="Helvetica,sans-Serif" font-size="10.00" fill="#000000">ErrorManager.h</text>
</a>
</g>
</g>
<!-- Node2 -->
<g id="node2" class="node">
<title>Node2</title>
<g id="a_node2"><a xlink:title=" ">
<polygon fill="#ffffff" stroke="#bfbfbf" points="66,-168.5 66,-187.5 122,-187.5 122,-168.5 66,-168.5"/>
<text text-anchor="middle" x="94" y="-175.5" font-family="Helvetica,sans-Serif" font-size="10.00" fill="#000000">algorithm</text>
</a>
</g>
</g>
<!-- Node1&#45;&gt;Node2 -->
<g id="edge1" class="edge">
<title>Node1&#45;&gt;Node2</title>
<path fill="none" stroke="#191970" d="M1329.2117,-411.1534C1233.3795,-406.6009 990.5171,-393.2555 789,-367 486.6157,-327.6026 341.558,-446.9922 114,-244 101.042,-232.4409 96.3471,-212.7959 94.7116,-197.9368"/>
<polygon fill="#191970" stroke="#191970" points="98.1849,-197.4408 93.9711,-187.72 91.2032,-197.9468 98.1849,-197.4408"/>
</g>
<!-- Node3 -->
<g id="node3" class="node">
<title>Node3</title>
<g id="a_node3"><a xlink:title=" ">
<polygon fill="#ffffff" stroke="#bfbfbf" points="1456.5,-342 1456.5,-361 1529.5,-361 1529.5,-342 1456.5,-342"/>
<text text-anchor="middle" x="1493" y="-349" font-family="Helvetica,sans-Serif" font-size="10.00" fill="#000000">initializer_list</text>
</a>
</g>
</g>
<!-- Node1&#45;&gt;Node3 -->
<g id="edge2" class="edge">
<title>Node1&#45;&gt;Node3</title>
<path fill="none" stroke="#191970" d="M1390.0625,-403.3906C1410.1172,-393.2811 1441.8934,-377.2628 1464.8384,-365.6962"/>
<polygon fill="#191970" stroke="#191970" points="1466.7173,-368.6687 1474.0714,-361.0419 1463.5663,-362.418 1466.7173,-368.6687"/>
</g>
<!-- Node4 -->
<g id="node4" class="node">
<title>Node4</title>
<g id="a_node4"><a xlink:title=" ">
<polygon fill="#ffffff" stroke="#bfbfbf" points="245.5,-56.5 245.5,-75.5 286.5,-75.5 286.5,-56.5 245.5,-56.5"/>
<text text-anchor="middle" x="266" y="-63.5" font-family="Helvetica,sans-Serif" font-size="10.00" fill="#000000">string</text>
</a>
</g>
</g>
<!-- Node1&#45;&gt;Node4 -->
<g id="edge3" class="edge">
<title>Node1&#45;&gt;Node4</title>
<path fill="none" stroke="#191970" d="M1329.2242,-412.7C1152.5338,-411.213 465.9433,-403.1765 253,-367 137.1235,-347.314 0,-407.5369 0,-290 0,-290 0,-290 0,-234 0,-168.1682 29.954,-149.5881 84,-112 108.3368,-95.0742 189.9895,-78.9752 235.2103,-71.0749"/>
<polygon fill="#191970" stroke="#191970" points="236.0719,-74.4783 245.3355,-69.3367 234.8875,-67.5792 236.0719,-74.4783"/>
</g>
<!-- Node5 -->
<g id="node5" class="node">
<title>Node5</title>
<g id="a_node5"><a xlink:title=" ">
<polygon fill="#ffffff" stroke="#bfbfbf" points="1547.5,-342 1547.5,-361 1630.5,-361 1630.5,-342 1547.5,-342"/>
<text text-anchor="middle" x="1589" y="-349" font-family="Helvetica,sans-Serif" font-size="10.00" fill="#000000">unordered_map</text>
</a>
</g>
</g>
<!-- Node1&#45;&gt;Node5 -->
<g id="edge4" class="edge">
<title>Node1&#45;&gt;Node5</title>
<path fill="none" stroke="#191970" d="M1407.1469,-403.4759C1441.2356,-394.4059 1493.714,-380.2152 1539,-367 1542.3288,-366.0286 1545.7761,-365.0024 1549.2326,-363.9594"/>
<polygon fill="#191970" stroke="#191970" points="1550.3645,-367.2734 1558.9073,-361.0067 1548.3212,-360.5782 1550.3645,-367.2734"/>
</g>
<!-- Node6 -->
<g id="node6" class="node">
<title>Node6</title>
<g id="a_node6"><a xlink:title=" ">
<polygon fill="#ffffff" stroke="#bfbfbf" points="1103,-56.5 1103,-75.5 1143,-75.5 1143,-56.5 1103,-56.5"/>
<text text-anchor="middle" x="1123" y="-63.5" font-family="Helvetica,sans-Serif" font-size="10.00" fill="#000000">utility</text>
</a>
</g>
</g>
<!-- Node1&#45;&gt;Node6 -->
<g id="edge5" class="edge">
<title>Node1&#45;&gt;Node6</title>
<path fill="none" stroke="#191970" d="M1373.6865,-403.3618C1381.1888,-374.4997 1399.9815,-286.8766 1371,-224 1329.6578,-134.3064 1209.172,-89.9447 1152.7698,-73.6227"/>
<polygon fill="#191970" stroke="#191970" points="1153.5907,-70.218 1143.0176,-70.8967 1151.7062,-76.9596 1153.5907,-70.218"/>
</g>
<!-- Node7 -->
<g id="node7" class="node">
<title>Node7</title>
<g id="a_node7"><a xlink:title=" ">
<polygon fill="#ffffff" stroke="#bfbfbf" points="1318,-224.5 1318,-243.5 1362,-243.5 1362,-224.5 1318,-224.5"/>
<text text-anchor="middle" x="1340" y="-231.5" font-family="Helvetica,sans-Serif" font-size="10.00" fill="#000000">vector</text>
</a>
</g>
</g>
<!-- Node1&#45;&gt;Node7 -->
<g id="edge6" class="edge">
<title>Node1&#45;&gt;Node7</title>
<path fill="none" stroke="#191970" d="M1369.3333,-403.3762C1364.4343,-375.0883 1350.0098,-291.7987 1343.3904,-253.5767"/>
<polygon fill="#191970" stroke="#191970" points="1346.8301,-252.9274 1341.6749,-243.6714 1339.9328,-254.122 1346.8301,-252.9274"/>
</g>
<!-- Node8 -->
<g id="node8" class="node">
<title>Node8</title>
<g id="a_node8"><a xlink:href="LibraryLinkError_8h.html" target="_top" xlink:title="Error class and error codes used by LibraryLink Utilities classes.">
<polygon fill="#ffffff" stroke="#000000" points="798.5,-336.5 798.5,-366.5 923.5,-366.5 923.5,-336.5 798.5,-336.5"/>
<text text-anchor="start" x="806.5" y="-354.5" font-family="Helvetica,sans-Serif" font-size="10.00" fill="#000000">LLU/ErrorLog/LibraryLink</text>
<text text-anchor="middle" x="861" y="-343.5" font-family="Helvetica,sans-Serif" font-size="10.00" fill="#000000">Error.h</text>
</a>
</g>
</g>
<!-- Node1&#45;&gt;Node8 -->
<g id="edge7" class="edge">
<title>Node1&#45;&gt;Node8</title>
<path fill="none" stroke="#191970" d="M1329.2646,-407.9672C1242.6108,-397.5178 1042.2513,-373.3568 933.8302,-360.2825"/>
<polygon fill="#191970" stroke="#191970" points="933.9789,-356.7751 923.6318,-359.0527 933.1408,-363.7248 933.9789,-356.7751"/>
</g>
<!-- Node21 -->
<g id="node21" class="node">
<title>Node21</title>
<g id="a_node21"><a xlink:href="LibraryData_8h.html" target="_top" xlink:title=" ">
<polygon fill="#ffffff" stroke="#000000" points="1380,-56.5 1380,-75.5 1476,-75.5 1476,-56.5 1380,-56.5"/>
<text text-anchor="middle" x="1428" y="-63.5" font-family="Helvetica,sans-Serif" font-size="10.00" fill="#000000">LLU/LibraryData.h</text>
</a>
</g>
</g>
<!-- Node1&#45;&gt;Node21 -->
<g id="edge77" class="edge">
<title>Node1&#45;&gt;Node21</title>
<path fill="none" stroke="#191970" d="M1379.3272,-403.3636C1386.6793,-394.4422 1397.2502,-380.5477 1404,-367 1419.9852,-334.9155 1428,-325.846 1428,-290 1428,-290 1428,-290 1428,-178 1428,-145.7116 1428,-108.1872 1428,-85.8048"/>
<polygon fill="#191970" stroke="#191970" points="1431.5001,-85.5883 1428,-75.5884 1424.5001,-85.5884 1431.5001,-85.5883"/>
</g>
<!-- Node8&#45;&gt;Node4 -->
<g id="edge9" class="edge">
<title>Node8&#45;&gt;Node4</title>
<path fill="none" stroke="#191970" d="M798.4887,-347.5154C641.464,-336.7178 234.428,-303.6267 114,-244 76.1618,-225.2654 35.4969,-204.3364 57,-168 95.0264,-103.7423 187.1781,-79.0945 235.4127,-70.3616"/>
<polygon fill="#191970" stroke="#191970" points="236.0087,-73.8106 245.2823,-68.687 234.8377,-66.9093 236.0087,-73.8106"/>
</g>
<!-- Node9 -->
<g id="node9" class="node">
<title>Node9</title>
<g id="a_node9"><a xlink:title=" ">
<polygon fill="#ffffff" stroke="#bfbfbf" points="773.5,-280.5 773.5,-299.5 832.5,-299.5 832.5,-280.5 773.5,-280.5"/>
<text text-anchor="middle" x="803" y="-287.5" font-family="Helvetica,sans-Serif" font-size="10.00" fill="#000000">stdexcept</text>
</a>
</g>
</g>
<!-- Node8&#45;&gt;Node9 -->
<g id="edge8" class="edge">
<title>Node8&#45;&gt;Node9</title>
<path fill="none" stroke="#191970" d="M846.6629,-336.2977C838.3603,-327.4941 827.8818,-316.3833 819.2711,-307.2529"/>
<polygon fill="#191970" stroke="#191970" points="821.6939,-304.7206 812.2865,-299.8469 816.6013,-309.5234 821.6939,-304.7206"/>
</g>
<!-- Node10 -->
<g id="node10" class="node">
<title>Node10</title>
<g id="a_node10"><a xlink:href="WSStream_8hpp.html" target="_top" xlink:title="Header file for WSStream class.">
<polygon fill="#ffffff" stroke="#000000" points="850.5,-280.5 850.5,-299.5 987.5,-299.5 987.5,-280.5 850.5,-280.5"/>
<text text-anchor="middle" x="919" y="-287.5" font-family="Helvetica,sans-Serif" font-size="10.00" fill="#000000">LLU/WSTP/WSStream.hpp</text>
</a>
</g>
</g>
<!-- Node8&#45;&gt;Node10 -->
<g id="edge10" class="edge">
<title>Node8&#45;&gt;Node10</title>
<path fill="none" stroke="#191970" d="M875.3371,-336.2977C883.6397,-327.4941 894.1182,-316.3833 902.7289,-307.2529"/>
<polygon fill="#191970" stroke="#191970" points="905.3987,-309.5234 909.7135,-299.8469 900.3061,-304.7206 905.3987,-309.5234"/>
</g>
<!-- Node10&#45;&gt;Node2 -->
<g id="edge11" class="edge">
<title>Node10&#45;&gt;Node2</title>
<path fill="none" stroke="#191970" d="M850.1276,-280.8805C847.045,-280.5637 843.9916,-280.268 841,-280 763.0984,-273.0219 205.9922,-282.6575 138,-244 119.9305,-233.7264 107.8729,-212.624 101.0195,-197.0335"/>
<polygon fill="#191970" stroke="#191970" points="104.2577,-195.7053 97.2564,-187.7535 97.7708,-198.3358 104.2577,-195.7053"/>
</g>
<!-- Node10&#45;&gt;Node6 -->
<g id="edge16" class="edge">
<title>Node10&#45;&gt;Node6</title>
<path fill="none" stroke="#191970" d="M954.1307,-280.4751C975.6708,-273.2441 1002.7187,-261.5122 1022,-244 1072.294,-198.3206 1103.8051,-121.5697 1116.5324,-85.6508"/>
<polygon fill="#191970" stroke="#191970" points="1119.9451,-86.4887 1119.8791,-75.8941 1113.3238,-84.2174 1119.9451,-86.4887"/>
</g>
<!-- Node10&#45;&gt;Node7 -->
<g id="edge17" class="edge">
<title>Node10&#45;&gt;Node7</title>
<path fill="none" stroke="#191970" d="M987.647,-284.9669C1065.0366,-278.5607 1194.3723,-265.6448 1304,-244 1305.2529,-243.7526 1306.526,-243.4842 1307.8087,-243.1993"/>
<polygon fill="#191970" stroke="#191970" points="1308.7853,-246.5635 1317.6577,-240.773 1307.1108,-239.7667 1308.7853,-246.5635"/>
</g>
<!-- Node11 -->
<g id="node11" class="node">
<title>Node11</title>
<g id="a_node11"><a xlink:title=" ">
<polygon fill="#ffffff" stroke="#bfbfbf" points="836.5,-224.5 836.5,-243.5 883.5,-243.5 883.5,-224.5 836.5,-224.5"/>
<text text-anchor="middle" x="860" y="-231.5" font-family="Helvetica,sans-Serif" font-size="10.00" fill="#000000">iterator</text>
</a>
</g>
</g>
<!-- Node10&#45;&gt;Node11 -->
<g id="edge12" class="edge">
<title>Node10&#45;&gt;Node11</title>
<path fill="none" stroke="#191970" d="M908.723,-280.2455C900.1782,-272.1352 887.8222,-260.4075 877.6915,-250.7919"/>
<polygon fill="#191970" stroke="#191970" points="879.8218,-247.9884 870.1592,-243.6427 875.0028,-253.0655 879.8218,-247.9884"/>
</g>
<!-- Node12 -->
<g id="node12" class="node">
<title>Node12</title>
<g id="a_node12"><a xlink:title=" ">
<polygon fill="#ffffff" stroke="#bfbfbf" points="901.5,-224.5 901.5,-243.5 936.5,-243.5 936.5,-224.5 901.5,-224.5"/>
<text text-anchor="middle" x="919" y="-231.5" font-family="Helvetica,sans-Serif" font-size="10.00" fill="#000000">map</text>
</a>
</g>
</g>
<!-- Node10&#45;&gt;Node12 -->
<g id="edge13" class="edge">
<title>Node10&#45;&gt;Node12</title>
<path fill="none" stroke="#191970" d="M919,-280.2455C919,-272.9382 919,-262.6944 919,-253.7046"/>
<polygon fill="#191970" stroke="#191970" points="922.5001,-253.6426 919,-243.6427 915.5001,-253.6427 922.5001,-253.6426"/>
</g>
<!-- Node13 -->
<g id="node13" class="node">
<title>Node13</title>
<g id="a_node13"><a xlink:title=" ">
<polygon fill="#ffffff" stroke="#bfbfbf" points="954.5,-224.5 954.5,-243.5 995.5,-243.5 995.5,-224.5 954.5,-224.5"/>
<text text-anchor="middle" x="975" y="-231.5" font-family="Helvetica,sans-Serif" font-size="10.00" fill="#000000">stack</text>
</a>
</g>
</g>
<!-- Node10&#45;&gt;Node13 -->
<g id="edge14" class="edge">
<title>Node10&#45;&gt;Node13</title>
<path fill="none" stroke="#191970" d="M928.7545,-280.2455C936.8648,-272.1352 948.5925,-260.4075 958.2081,-250.7919"/>
<polygon fill="#191970" stroke="#191970" points="960.7611,-253.1887 965.3573,-243.6427 955.8113,-248.2389 960.7611,-253.1887"/>
</g>
<!-- Node14 -->
<g id="node14" class="node">
<title>Node14</title>
<g id="a_node14"><a xlink:title=" ">
<polygon fill="#ffffff" stroke="#bfbfbf" points="1023,-56.5 1023,-75.5 1085,-75.5 1085,-56.5 1023,-56.5"/>
<text text-anchor="middle" x="1054" y="-63.5" font-family="Helvetica,sans-Serif" font-size="10.00" fill="#000000">type_traits</text>
</a>
</g>
</g>
<!-- Node10&#45;&gt;Node14 -->
<g id="edge15" class="edge">
<title>Node10&#45;&gt;Node14</title>
<path fill="none" stroke="#191970" d="M987.6938,-281.7527C1086.0455,-268.3146 1259.0226,-238.0489 1294,-188 1299.0919,-180.7141 1298.9045,-175.4134 1294,-168 1271.0474,-133.3056 1157.3739,-95.8605 1095.055,-77.4922"/>
<polygon fill="#191970" stroke="#191970" points="1095.729,-74.0431 1085.1491,-74.6056 1093.7706,-80.7636 1095.729,-74.0431"/>
</g>
<!-- Node15 -->
<g id="node15" class="node">
<title>Node15</title>
<g id="a_node15"><a xlink:title=" ">
<polygon fill="#ffffff" stroke="#bfbfbf" points="874,-.5 874,-19.5 920,-19.5 920,-.5 874,-.5"/>
<text text-anchor="middle" x="897" y="-7.5" font-family="Helvetica,sans-Serif" font-size="10.00" fill="#000000">wstp.h</text>
</a>
</g>
</g>
<!-- Node10&#45;&gt;Node15 -->
<g id="edge18" class="edge">
<title>Node10&#45;&gt;Node15</title>
<path fill="none" stroke="#191970" d="M987.6777,-283.1536C1064.2459,-274.9102 1182.8606,-260.145 1225,-244 1272.3221,-225.8694 1323.3338,-216.8908 1310,-168 1294.7977,-112.2581 1292.1686,-87.907 1244,-56 1230.9579,-47.3609 1014.3361,-22.8522 930.1186,-13.5977"/>
<polygon fill="#191970" stroke="#191970" points="930.3873,-10.1063 920.0656,-12.4964 929.6249,-17.0647 930.3873,-10.1063"/>
</g>
<!-- Node16 -->
<g id="node16" class="node">
<title>Node16</title>
<g id="a_node16"><a xlink:href="Errors_8h.html" target="_top" xlink:title="Definitions of error names and error codes used across LLU.">
<polygon fill="#ffffff" stroke="#000000" points="168,-112.5 168,-131.5 280,-131.5 280,-112.5 168,-112.5"/>
<text text-anchor="middle" x="224" y="-119.5" font-family="Helvetica,sans-Serif" font-size="10.00" fill="#000000">LLU/ErrorLog/Errors.h</text>
</a>
</g>
</g>
<!-- Node10&#45;&gt;Node16 -->
<g id="edge19" class="edge">
<title>Node10&#45;&gt;Node16</title>
<path fill="none" stroke="#191970" d="M850.1247,-280.9123C847.0429,-280.5869 843.9904,-280.2806 841,-280 774.1743,-273.7288 286.7389,-290.1467 238,-244 210.3786,-217.8477 214.4582,-168.8894 219.4676,-141.6173"/>
<polygon fill="#191970" stroke="#191970" points="222.9217,-142.1966 221.5107,-131.6961 216.0656,-140.7846 222.9217,-142.1966"/>
</g>
<!-- Node17 -->
<g id="node17" class="node">
<title>Node17</title>
<g id="a_node17"><a xlink:href="Utilities_8hpp.html" target="_top" xlink:title="Short but generally useful functions.">
<polygon fill="#ffffff" stroke="#000000" points="937.5,-112.5 937.5,-131.5 1026.5,-131.5 1026.5,-112.5 937.5,-112.5"/>
<text text-anchor="middle" x="982" y="-119.5" font-family="Helvetica,sans-Serif" font-size="10.00" fill="#000000">LLU/Utilities.hpp</text>
</a>
</g>
</g>
<!-- Node10&#45;&gt;Node17 -->
<g id="edge21" class="edge">
<title>Node10&#45;&gt;Node17</title>
<path fill="none" stroke="#191970" d="M954.5598,-280.3459C972.7465,-273.4075 993.2637,-262.0179 1004,-244 1023.4516,-211.3558 1005.6068,-165.7076 992.6592,-140.5213"/>
<polygon fill="#191970" stroke="#191970" points="995.6973,-138.7814 987.8607,-131.6513 989.5405,-142.1121 995.6973,-138.7814"/>
</g>
<!-- Node29 -->
<g id="node29" class="node">
<title>Node29</title>
<g id="a_node29"><a xlink:href="Get_8h.html" target="_top" xlink:title="Header file with classes related to reading data from WSTP.">
<polygon fill="#ffffff" stroke="#000000" points="689,-224.5 689,-243.5 783,-243.5 783,-224.5 689,-224.5"/>
<text text-anchor="middle" x="736" y="-231.5" font-family="Helvetica,sans-Serif" font-size="10.00" fill="#000000">LLU/WSTP/Get.h</text>
</a>
</g>
</g>
<!-- Node10&#45;&gt;Node29 -->
<g id="edge36" class="edge">
<title>Node10&#45;&gt;Node29</title>
<path fill="none" stroke="#191970" d="M887.5412,-280.3733C856.9793,-271.021 810.4174,-256.7725 776.9739,-246.5385"/>
<polygon fill="#191970" stroke="#191970" points="777.6348,-243.0806 767.0483,-243.5011 775.5864,-249.7742 777.6348,-243.0806"/>
</g>
<!-- Node32 -->
<g id="node32" class="node">
<title>Node32</title>
<g id="a_node32"><a xlink:href="WSTP_2Utilities_8h.html" target="_top" xlink:title="Header file with miscellaneous utilities used throughout the WSTP&#45;related part of LibraryLinkUtilitie...">
<polygon fill="#ffffff" stroke="#000000" points="368.5,-168.5 368.5,-187.5 479.5,-187.5 479.5,-168.5 368.5,-168.5"/>
<text text-anchor="middle" x="424" y="-175.5" font-family="Helvetica,sans-Serif" font-size="10.00" fill="#000000">LLU/WSTP/Utilities.h</text>
</a>
</g>
</g>
<!-- Node10&#45;&gt;Node32 -->
<g id="edge72" class="edge">
<title>Node10&#45;&gt;Node32</title>
<path fill="none" stroke="#191970" d="M850.1058,-281.091C847.0291,-280.7172 843.9829,-280.3519 841,-280 692.7242,-262.506 645.1165,-300.7061 507,-244 480.3151,-233.0441 455.2025,-210.7747 439.7341,-195.1453"/>
<polygon fill="#191970" stroke="#191970" points="442.0149,-192.4669 432.567,-187.6724 436.9629,-197.3122 442.0149,-192.4669"/>
</g>
<!-- Node35 -->
<g id="node35" class="node">
<title>Node35</title>
<g id="a_node35"><a xlink:href="Put_8h.html" target="_top" xlink:title="Header file with classes related to sending data through WSTP.">
<polygon fill="#ffffff" stroke="#000000" points="516.5,-224.5 516.5,-243.5 609.5,-243.5 609.5,-224.5 516.5,-224.5"/>
<text text-anchor="middle" x="563" y="-231.5" font-family="Helvetica,sans-Serif" font-size="10.00" fill="#000000">LLU/WSTP/Put.h</text>
</a>
</g>
</g>
<!-- Node10&#45;&gt;Node35 -->
<g id="edge57" class="edge">
<title>Node10&#45;&gt;Node35</title>
<path fill="none" stroke="#191970" d="M858.2059,-280.4369C791.3809,-269.9251 684.882,-253.1724 619.7228,-242.9227"/>
<polygon fill="#191970" stroke="#191970" points="620.055,-239.432 609.6326,-241.3355 618.9672,-246.347 620.055,-239.432"/>
</g>
<!-- Node36 -->
<g id="node36" class="node">
<title>Node36</title>
<g id="a_node36"><a xlink:href="Strings_8h.html" target="_top" xlink:title="Definitions of multiple structures and type aliases related to string handling in WSTP.">
<polygon fill="#ffffff" stroke="#000000" points="247.5,-224.5 247.5,-243.5 356.5,-243.5 356.5,-224.5 247.5,-224.5"/>
<text text-anchor="middle" x="302" y="-231.5" font-family="Helvetica,sans-Serif" font-size="10.00" fill="#000000">LLU/WSTP/Strings.h</text>
</a>
</g>
</g>
<!-- Node10&#45;&gt;Node36 -->
<g id="edge63" class="edge">
<title>Node10&#45;&gt;Node36</title>
<path fill="none" stroke="#191970" d="M850.1151,-281.0078C847.0359,-280.6566 843.9866,-280.3187 841,-280 750.735,-270.3664 489.439,-249.0514 366.8883,-239.1906"/>
<polygon fill="#191970" stroke="#191970" points="367.1369,-235.6994 356.8886,-238.3866 366.5759,-242.6769 367.1369,-235.6994"/>
</g>
<!-- Node37 -->
<g id="node37" class="node">
<title>Node37</title>
<g id="a_node37"><a xlink:href="UtilityTypeTraits_8hpp.html" target="_top" xlink:title="Type traits used by WSStream to identify types supported by WSTP.">
<polygon fill="#ffffff" stroke="#000000" points="1124.5,-168.5 1124.5,-187.5 1285.5,-187.5 1285.5,-168.5 1124.5,-168.5"/>
<text text-anchor="middle" x="1205" y="-175.5" font-family="Helvetica,sans-Serif" font-size="10.00" fill="#000000">LLU/WSTP/UtilityTypeTraits.hpp</text>
</a>
</g>
</g>
<!-- Node10&#45;&gt;Node37 -->
<g id="edge73" class="edge">
<title>Node10&#45;&gt;Node37</title>
<path fill="none" stroke="#191970" d="M984.1834,-280.4863C1022.0446,-273.4619 1070.0121,-261.942 1110,-244 1138.6581,-231.1415 1167.7592,-209.359 1186.0647,-194.3567"/>
<polygon fill="#191970" stroke="#191970" points="1188.7106,-196.7065 1194.1346,-187.6054 1184.2189,-191.3376 1188.7106,-196.7065"/>
</g>
<!-- Node16&#45;&gt;Node4 -->
<g id="edge20" class="edge">
<title>Node16&#45;&gt;Node4</title>
<path fill="none" stroke="#191970" d="M231.3158,-112.2455C237.2179,-104.3761 245.6742,-93.101 252.7594,-83.6542"/>
<polygon fill="#191970" stroke="#191970" points="255.568,-85.7427 258.768,-75.6427 249.9679,-81.5427 255.568,-85.7427"/>
</g>
<!-- Node17&#45;&gt;Node6 -->
<g id="edge25" class="edge">
<title>Node17&#45;&gt;Node6</title>
<path fill="none" stroke="#191970" d="M1006.2388,-112.3733C1030.396,-102.7789 1067.5278,-88.0315 1093.4105,-77.7519"/>
<polygon fill="#191970" stroke="#191970" points="1094.7271,-80.995 1102.729,-74.0509 1092.1432,-74.4893 1094.7271,-80.995"/>
</g>
<!-- Node17&#45;&gt;Node14 -->
<g id="edge24" class="edge">
<title>Node17&#45;&gt;Node14</title>
<path fill="none" stroke="#191970" d="M994.5414,-112.2455C1005.2787,-103.8943 1020.9473,-91.7076 1033.5047,-81.9408"/>
<polygon fill="#191970" stroke="#191970" points="1035.8575,-84.5449 1041.6023,-75.6427 1031.5599,-79.0194 1035.8575,-84.5449"/>
</g>
<!-- Node18 -->
<g id="node18" class="node">
<title>Node18</title>
<g id="a_node18"><a xlink:title=" ">
<polygon fill="#ffffff" stroke="#bfbfbf" points="887.5,-56.5 887.5,-75.5 940.5,-75.5 940.5,-56.5 887.5,-56.5"/>
<text text-anchor="middle" x="914" y="-63.5" font-family="Helvetica,sans-Serif" font-size="10.00" fill="#000000">complex</text>
</a>
</g>
</g>
<!-- Node17&#45;&gt;Node18 -->
<g id="edge22" class="edge">
<title>Node17&#45;&gt;Node18</title>
<path fill="none" stroke="#191970" d="M970.1553,-112.2455C960.112,-103.9746 945.5005,-91.9416 933.6996,-82.2232"/>
<polygon fill="#191970" stroke="#191970" points="935.6533,-79.298 925.709,-75.6427 931.2033,-84.7015 935.6533,-79.298"/>
</g>
<!-- Node19 -->
<g id="node19" class="node">
<title>Node19</title>
<g id="a_node19"><a xlink:title=" ">
<polygon fill="#ffffff" stroke="#bfbfbf" points="747,-56.5 747,-75.5 793,-75.5 793,-56.5 747,-56.5"/>
<text text-anchor="middle" x="770" y="-63.5" font-family="Helvetica,sans-Serif" font-size="10.00" fill="#000000">cstdint</text>
</a>
</g>
</g>
<!-- Node17&#45;&gt;Node19 -->
<g id="edge23" class="edge">
<title>Node17&#45;&gt;Node19</title>
<path fill="none" stroke="#191970" d="M945.5559,-112.3733C905.4548,-101.7805 841.5747,-84.9065 802.9311,-74.6988"/>
<polygon fill="#191970" stroke="#191970" points="803.7731,-71.3012 793.2109,-72.1312 801.9853,-78.0691 803.7731,-71.3012"/>
</g>
<!-- Node20 -->
<g id="node20" class="node">
<title>Node20</title>
<g id="a_node20"><a xlink:title=" ">
<polygon fill="#ffffff" stroke="#bfbfbf" points="959,-56.5 959,-75.5 1005,-75.5 1005,-56.5 959,-56.5"/>
<text text-anchor="middle" x="982" y="-63.5" font-family="Helvetica,sans-Serif" font-size="10.00" fill="#000000">variant</text>
</a>
</g>
</g>
<!-- Node17&#45;&gt;Node20 -->
<g id="edge26" class="edge">
<title>Node17&#45;&gt;Node20</title>
<path fill="none" stroke="#191970" d="M982,-112.2455C982,-104.9382 982,-94.6944 982,-85.7046"/>
<polygon fill="#191970" stroke="#191970" points="985.5001,-85.6426 982,-75.6427 978.5001,-85.6427 985.5001,-85.6426"/>
</g>
<!-- Node17&#45;&gt;Node21 -->
<g id="edge27" class="edge">
<title>Node17&#45;&gt;Node21</title>
<path fill="none" stroke="#191970" d="M1026.8062,-116.3741C1108.0577,-106.1721 1279.6253,-84.63 1369.8071,-73.3067"/>
<polygon fill="#191970" stroke="#191970" points="1370.3753,-76.763 1379.8614,-72.0443 1369.5032,-69.8175 1370.3753,-76.763"/>
</g>
<!-- Node21&#45;&gt;Node15 -->
<g id="edge30" class="edge">
<title>Node21&#45;&gt;Node15</title>
<path fill="none" stroke="#191970" d="M1379.9792,-57.9526C1375.2613,-57.2528 1370.5413,-56.5884 1366,-56 1323.0418,-50.4344 1030.1819,-22.5955 930.2968,-13.1448"/>
<polygon fill="#191970" stroke="#191970" points="930.4534,-9.644 920.1682,-12.1869 929.7943,-16.6129 930.4534,-9.644"/>
</g>
<!-- Node22 -->
<g id="node22" class="node">
<title>Node22</title>
<g id="a_node22"><a xlink:title=" ">
<polygon fill="#ffffff" stroke="#bfbfbf" points="693,-.5 693,-19.5 745,-19.5 745,-.5 693,-.5"/>
<text text-anchor="middle" x="719" y="-7.5" font-family="Helvetica,sans-Serif" font-size="10.00" fill="#000000">memory</text>
</a>
</g>
</g>
<!-- Node21&#45;&gt;Node22 -->
<g id="edge28" class="edge">
<title>Node21&#45;&gt;Node22</title>
<path fill="none" stroke="#191970" d="M1379.825,-62.1949C1246.2523,-51.6448 873.2917,-22.1866 755.2848,-12.8659"/>
<polygon fill="#191970" stroke="#191970" points="755.5549,-9.3765 745.3104,-12.0781 755.0037,-16.3547 755.5549,-9.3765"/>
</g>
<!-- Node23 -->
<g id="node23" class="node">
<title>Node23</title>
<g id="a_node23"><a xlink:title=" ">
<polygon fill="#ffffff" stroke="#bfbfbf" points="1623,-.5 1623,-19.5 1685,-19.5 1685,-.5 1623,-.5"/>
<text text-anchor="middle" x="1654" y="-7.5" font-family="Helvetica,sans-Serif" font-size="10.00" fill="#000000">dllexport.h</text>
</a>
</g>
</g>
<!-- Node21&#45;&gt;Node23 -->
<g id="edge29" class="edge">
<title>Node21&#45;&gt;Node23</title>
<path fill="none" stroke="#191970" d="M1466.8376,-56.4254C1502.4129,-47.6482 1556.8008,-34.2126 1613.1897,-20.1974"/>
<polygon fill="#191970" stroke="#191970" points="1614.133,-23.5695 1622.9931,-17.76 1612.444,-16.7763 1614.133,-23.5695"/>
</g>
<!-- Node24 -->
<g id="node24" class="node">
<title>Node24</title>
<g id="a_node24"><a xlink:title=" ">
<polygon fill="#ffffff" stroke="#bfbfbf" points="1703.5,-.5 1703.5,-19.5 1794.5,-19.5 1794.5,-.5 1703.5,-.5"/>
<text text-anchor="middle" x="1749" y="-7.5" font-family="Helvetica,sans-Serif" font-size="10.00" fill="#000000">WolframLibrary.h</text>
</a>
</g>
</g>
<!-- Node21&#45;&gt;Node24 -->
<g id="edge31" class="edge">
<title>Node21&#45;&gt;Node24</title>
<path fill="none" stroke="#191970" d="M1476.0753,-57.8144C1527.2853,-49.0663 1610.9998,-34.6838 1693.3529,-20.1032"/>
<polygon fill="#191970" stroke="#191970" points="1694.1514,-23.5163 1703.3869,-18.3245 1692.9295,-16.6238 1694.1514,-23.5163"/>
</g>
<!-- Node25 -->
<g id="node25" class="node">
<title>Node25</title>
<g id="a_node25"><a xlink:title=" ">
<polygon fill="#ffffff" stroke="#bfbfbf" points="1015,-.5 1015,-19.5 1159,-19.5 1159,-.5 1015,-.5"/>
<text text-anchor="middle" x="1087" y="-7.5" font-family="Helvetica,sans-Serif" font-size="10.00" fill="#000000">WolframIOLibraryFunctions.h</text>
</a>
</g>
</g>
<!-- Node21&#45;&gt;Node25 -->
<g id="edge32" class="edge">
<title>Node21&#45;&gt;Node25</title>
<path fill="none" stroke="#191970" d="M1379.8663,-58.0953C1321.1055,-48.4455 1221.3611,-32.0652 1154.8372,-21.1404"/>
<polygon fill="#191970" stroke="#191970" points="1155.2999,-17.6696 1144.8649,-19.5027 1154.1655,-24.5771 1155.2999,-17.6696"/>
</g>
<!-- Node26 -->
<g id="node26" class="node">
<title>Node26</title>
<g id="a_node26"><a xlink:title=" ">
<polygon fill="#ffffff" stroke="#bfbfbf" points="1177,-.5 1177,-19.5 1295,-19.5 1295,-.5 1177,-.5"/>
<text text-anchor="middle" x="1236" y="-7.5" font-family="Helvetica,sans-Serif" font-size="10.00" fill="#000000">WolframImageLibrary.h</text>
</a>
</g>
</g>
<!-- Node21&#45;&gt;Node26 -->
<g id="edge33" class="edge">
<title>Node21&#45;&gt;Node26</title>
<path fill="none" stroke="#191970" d="M1394.994,-56.3733C1362.7909,-46.9807 1313.6558,-32.6496 1278.5361,-22.4064"/>
<polygon fill="#191970" stroke="#191970" points="1279.1553,-18.9412 1268.5753,-19.5011 1277.1953,-25.6612 1279.1553,-18.9412"/>
</g>
<!-- Node27 -->
<g id="node27" class="node">
<title>Node27</title>
<g id="a_node27"><a xlink:title=" ">
<polygon fill="#ffffff" stroke="#bfbfbf" points="1313.5,-.5 1313.5,-19.5 1464.5,-19.5 1464.5,-.5 1313.5,-.5"/>
<text text-anchor="middle" x="1389" y="-7.5" font-family="Helvetica,sans-Serif" font-size="10.00" fill="#000000">WolframNumericArrayLibrary.h</text>
</a>
</g>
</g>
<!-- Node21&#45;&gt;Node27 -->
<g id="edge34" class="edge">
<title>Node21&#45;&gt;Node27</title>
<path fill="none" stroke="#191970" d="M1421.2067,-56.2455C1415.7822,-48.4564 1408.0339,-37.3308 1401.4967,-27.9439"/>
<polygon fill="#191970" stroke="#191970" points="1404.3025,-25.8485 1395.7154,-19.6427 1398.5583,-29.849 1404.3025,-25.8485"/>
</g>
<!-- Node28 -->
<g id="node28" class="node">
<title>Node28</title>
<g id="a_node28"><a xlink:title=" ">
<polygon fill="#ffffff" stroke="#bfbfbf" points="1483,-.5 1483,-19.5 1605,-19.5 1605,-.5 1483,-.5"/>
<text text-anchor="middle" x="1544" y="-7.5" font-family="Helvetica,sans-Serif" font-size="10.00" fill="#000000">WolframSparseLibrary.h</text>
</a>
</g>
</g>
<!-- Node21&#45;&gt;Node28 -->
<g id="edge35" class="edge">
<title>Node21&#45;&gt;Node28</title>
<path fill="none" stroke="#191970" d="M1447.9411,-56.3733C1466.4786,-47.4241 1494.3028,-33.9917 1515.2413,-23.8835"/>
<polygon fill="#191970" stroke="#191970" points="1516.8352,-27.0006 1524.3191,-19.5011 1513.7919,-20.6967 1516.8352,-27.0006"/>
</g>
<!-- Node29&#45;&gt;Node4 -->
<g id="edge39" class="edge">
<title>Node29&#45;&gt;Node4</title>
<path fill="none" stroke="#191970" d="M732.7424,-224.234C723.7379,-197.8467 697.8635,-126.1538 678,-112 647.0567,-89.9512 386.8344,-72.9784 296.6365,-67.7097"/>
<polygon fill="#191970" stroke="#191970" points="296.6914,-64.2071 286.5065,-67.1256 296.2884,-71.1955 296.6914,-64.2071"/>
</g>
<!-- Node29&#45;&gt;Node15 -->
<g id="edge40" class="edge">
<title>Node29&#45;&gt;Node15</title>
<path fill="none" stroke="#191970" d="M783.0526,-227.3574C843.5389,-218.4351 944.9465,-202.0726 980,-188 1064.6554,-154.0142 1108.5217,-156.1949 1152,-76 1156.2366,-68.1857 1157.7002,-62.8205 1152,-56 1137.8925,-39.12 996.4616,-21.1788 930.5203,-13.6537"/>
<polygon fill="#191970" stroke="#191970" points="930.5734,-10.1376 920.2443,-12.4957 929.7895,-17.0935 930.5734,-10.1376"/>
</g>
<!-- Node29&#45;&gt;Node16 -->
<g id="edge41" class="edge">
<title>Node29&#45;&gt;Node16</title>
<path fill="none" stroke="#191970" d="M703.7233,-224.4396C656.6108,-210.7068 566.1111,-185.1644 488,-168 421.0858,-153.296 343.7986,-140.2874 290.2135,-131.8892"/>
<polygon fill="#191970" stroke="#191970" points="290.5768,-128.4037 280.1574,-130.3236 289.5,-135.3203 290.5768,-128.4037"/>
</g>
<!-- Node29&#45;&gt;Node17 -->
<g id="edge42" class="edge">
<title>Node29&#45;&gt;Node17</title>
<path fill="none" stroke="#191970" d="M783.1311,-226.7341C844.3152,-216.9231 944.8649,-199.3626 958,-188 971.3733,-176.4313 977.2968,-156.7876 979.9193,-141.9314"/>
<polygon fill="#191970" stroke="#191970" points="983.429,-142.1058 981.3501,-131.7169 976.4967,-141.1347 983.429,-142.1058"/>
</g>
<!-- Node29&#45;&gt;Node22 -->
<g id="edge38" class="edge">
<title>Node29&#45;&gt;Node22</title>
<path fill="none" stroke="#191970" d="M735.2695,-224.375C732.6975,-190.4851 724.0265,-76.2317 720.5052,-29.8332"/>
<polygon fill="#191970" stroke="#191970" points="723.9746,-29.2956 719.7277,-19.5891 716.9946,-29.8254 723.9746,-29.2956"/>
</g>
<!-- Node30 -->
<g id="node30" class="node">
<title>Node30</title>
<g id="a_node30"><a xlink:title=" ">
<polygon fill="#ffffff" stroke="#bfbfbf" points="610.5,-112.5 610.5,-131.5 669.5,-131.5 669.5,-112.5 610.5,-112.5"/>
<text text-anchor="middle" x="640" y="-119.5" font-family="Helvetica,sans-Serif" font-size="10.00" fill="#000000">functional</text>
</a>
</g>
</g>
<!-- Node29&#45;&gt;Node30 -->
<g id="edge37" class="edge">
<title>Node29&#45;&gt;Node30</title>
<path fill="none" stroke="#191970" d="M723.1894,-224.2288C712.1169,-215.4346 696.0429,-201.8066 684,-188 671.034,-173.1352 658.803,-154.243 650.5435,-140.4836"/>
<polygon fill="#191970" stroke="#191970" points="653.355,-138.3588 645.2775,-131.5028 647.3165,-141.8996 653.355,-138.3588"/>
</g>
<!-- Node31 -->
<g id="node31" class="node">
<title>Node31</title>
<g id="a_node31"><a xlink:href="Release_8h.html" target="_top" xlink:title="Header file with classes responsible for releasing memory allocated by WSTP when receiving data.">
<polygon fill="#ffffff" stroke="#000000" points="764,-168.5 764,-187.5 878,-187.5 878,-168.5 764,-168.5"/>
<text text-anchor="middle" x="821" y="-175.5" font-family="Helvetica,sans-Serif" font-size="10.00" fill="#000000">LLU/WSTP/Release.h</text>
</a>
</g>
</g>
<!-- Node29&#45;&gt;Node31 -->
<g id="edge43" class="edge">
<title>Node29&#45;&gt;Node31</title>
<path fill="none" stroke="#191970" d="M750.8059,-224.2455C763.7256,-215.7337 782.6931,-203.2375 797.6552,-193.3801"/>
<polygon fill="#191970" stroke="#191970" points="799.9387,-196.067 806.3638,-187.6427 796.0876,-190.2216 799.9387,-196.067"/>
</g>
<!-- Node29&#45;&gt;Node32 -->
<g id="edge47" class="edge">
<title>Node29&#45;&gt;Node32</title>
<path fill="none" stroke="#191970" d="M688.9526,-225.5556C635.2038,-215.9084 546.9891,-200.075 487.2563,-189.3537"/>
<polygon fill="#191970" stroke="#191970" points="487.6486,-185.8683 477.1876,-187.5465 486.4119,-192.7582 487.6486,-185.8683"/>
</g>
<!-- Node31&#45;&gt;Node15 -->
<g id="edge45" class="edge">
<title>Node31&#45;&gt;Node15</title>
<path fill="none" stroke="#191970" d="M825.3038,-168.4862C837.4217,-141.6994 872.003,-65.2565 888.3012,-29.2289"/>
<polygon fill="#191970" stroke="#191970" points="891.6212,-30.3816 892.5541,-19.8279 885.2434,-27.4964 891.6212,-30.3816"/>
</g>
<!-- Node31&#45;&gt;Node17 -->
<g id="edge46" class="edge">
<title>Node31&#45;&gt;Node17</title>
<path fill="none" stroke="#191970" d="M848.6769,-168.3733C875.3328,-159.1016 915.8238,-145.0178 945.1884,-134.804"/>
<polygon fill="#191970" stroke="#191970" points="946.3891,-138.0921 954.6843,-131.5011 944.0895,-131.4807 946.3891,-138.0921"/>
</g>
<!-- Node31&#45;&gt;Node30 -->
<g id="edge44" class="edge">
<title>Node31&#45;&gt;Node30</title>
<path fill="none" stroke="#191970" d="M789.885,-168.3733C759.2907,-158.9076 712.4853,-144.4264 679.329,-134.1681"/>
<polygon fill="#191970" stroke="#191970" points="680.0982,-130.7424 669.5104,-131.1303 678.0291,-137.4297 680.0982,-130.7424"/>
</g>
<!-- Node32&#45;&gt;Node4 -->
<g id="edge49" class="edge">
<title>Node32&#45;&gt;Node4</title>
<path fill="none" stroke="#191970" d="M396.9647,-168.4165C376.6145,-160.4617 348.6264,-147.8938 327,-132 308.2589,-118.2267 290.6611,-98.1162 279.2291,-83.7182"/>
<polygon fill="#191970" stroke="#191970" points="281.8381,-81.3704 272.9529,-75.5994 276.2999,-85.6516 281.8381,-81.3704"/>
</g>
<!-- Node32&#45;&gt;Node15 -->
<g id="edge50" class="edge">
<title>Node32&#45;&gt;Node15</title>
<path fill="none" stroke="#191970" d="M368.2015,-176.4468C298.5035,-173.1939 185.1919,-163.1301 159,-132 153.2773,-125.1983 154.9664,-119.921 159,-112 178.2019,-74.2919 196.2366,-70.4738 236,-56 344.429,-16.5319 638.8906,-28.0247 754,-20 791.5893,-17.3795 834.7356,-14.3608 863.7175,-12.3315"/>
<polygon fill="#191970" stroke="#191970" points="863.9866,-15.8213 873.7176,-11.6312 863.4975,-8.8384 863.9866,-15.8213"/>
</g>
<!-- Node32&#45;&gt;Node16 -->
<g id="edge51" class="edge">
<title>Node32&#45;&gt;Node16</title>
<path fill="none" stroke="#191970" d="M389.6188,-168.3733C355.9299,-158.9404 304.4518,-144.5265 267.8382,-134.2747"/>
<polygon fill="#191970" stroke="#191970" points="268.506,-130.8271 257.9326,-131.5011 266.6185,-137.5679 268.506,-130.8271"/>
</g>
<!-- Node33 -->
<g id="node33" class="node">
<title>Node33</title>
<g id="a_node33"><a xlink:title=" ">
<polygon fill="#ffffff" stroke="#bfbfbf" points="508,-112.5 508,-131.5 554,-131.5 554,-112.5 508,-112.5"/>
<text text-anchor="middle" x="531" y="-119.5" font-family="Helvetica,sans-Serif" font-size="10.00" fill="#000000">cstring</text>
</a>
</g>
</g>
<!-- Node32&#45;&gt;Node33 -->
<g id="edge48" class="edge">
<title>Node32&#45;&gt;Node33</title>
<path fill="none" stroke="#191970" d="M442.638,-168.2455C459.4386,-159.4527 484.3634,-146.4079 503.4618,-136.4125"/>
<polygon fill="#191970" stroke="#191970" points="505.3386,-139.3807 512.5756,-131.6427 502.0927,-133.1787 505.3386,-139.3807"/>
</g>
<!-- Node34 -->
<g id="node34" class="node">
<title>Node34</title>
<g id="a_node34"><a xlink:href="EncodingTraits_8hpp.html" target="_top" xlink:title="Defines possible encodings together with their properties and related types.">
<polygon fill="#ffffff" stroke="#000000" points="336,-112.5 336,-131.5 490,-131.5 490,-112.5 336,-112.5"/>
<text text-anchor="middle" x="413" y="-119.5" font-family="Helvetica,sans-Serif" font-size="10.00" fill="#000000">LLU/WSTP/EncodingTraits.hpp</text>
</a>
</g>
</g>
<!-- Node32&#45;&gt;Node34 -->
<g id="edge52" class="edge">
<title>Node32&#45;&gt;Node34</title>
<path fill="none" stroke="#191970" d="M422.0839,-168.2455C420.6486,-160.9382 418.6364,-150.6944 416.8705,-141.7046"/>
<polygon fill="#191970" stroke="#191970" points="420.256,-140.7805 414.8941,-131.6427 413.3873,-142.1298 420.256,-140.7805"/>
</g>
<!-- Node34&#45;&gt;Node4 -->
<g id="edge54" class="edge">
<title>Node34&#45;&gt;Node4</title>
<path fill="none" stroke="#191970" d="M387.7298,-112.3733C362.2874,-102.6809 323.0407,-87.7298 296.0257,-77.4384"/>
<polygon fill="#191970" stroke="#191970" points="297.2654,-74.1653 286.6745,-73.876 294.7734,-80.7067 297.2654,-74.1653"/>
</g>
<!-- Node34&#45;&gt;Node6 -->
<g id="edge56" class="edge">
<title>Node34&#45;&gt;Node6</title>
<path fill="none" stroke="#191970" d="M490.3344,-112.8031C493.2589,-112.5203 496.1552,-112.2513 499,-112 759.5504,-88.9873 832.3168,-126.6784 1092.7709,-75.7191"/>
<polygon fill="#191970" stroke="#191970" points="1093.7834,-79.0866 1102.912,-73.709 1092.4223,-72.2202 1093.7834,-79.0866"/>
</g>
<!-- Node34&#45;&gt;Node14 -->
<g id="edge55" class="edge">
<title>Node34&#45;&gt;Node14</title>
<path fill="none" stroke="#191970" d="M490.3375,-112.8374C493.2611,-112.545 496.1564,-112.2646 499,-112 724.2257,-91.0447 785.6574,-111.3701 1012.774,-75.9466"/>
<polygon fill="#191970" stroke="#191970" points="1013.3322,-79.4019 1022.6641,-74.3854 1012.2407,-72.4875 1013.3322,-79.4019"/>
</g>
<!-- Node34&#45;&gt;Node19 -->
<g id="edge53" class="edge">
<title>Node34&#45;&gt;Node19</title>
<path fill="none" stroke="#191970" d="M473.9649,-112.4369C549.8633,-100.5312 676.7977,-80.62 736.7346,-71.2181"/>
<polygon fill="#191970" stroke="#191970" points="737.4437,-74.6498 746.7805,-69.6423 736.3589,-67.7343 737.4437,-74.6498"/>
</g>
<!-- Node35&#45;&gt;Node15 -->
<g id="edge59" class="edge">
<title>Node35&#45;&gt;Node15</title>
<path fill="none" stroke="#191970" d="M562.87,-224.3092C563.1242,-201.0515 567.2335,-141.7973 601,-112 669.0481,-51.9508 718.1363,-110.689 802,-76 831.185,-63.9281 860.364,-41.7806 878.5304,-26.4925"/>
<polygon fill="#191970" stroke="#191970" points="881.2241,-28.7916 886.5155,-19.6127 876.655,-23.4884 881.2241,-28.7916"/>
</g>
<!-- Node35&#45;&gt;Node16 -->
<g id="edge60" class="edge">
<title>Node35&#45;&gt;Node16</title>
<path fill="none" stroke="#191970" d="M516.361,-226.6762C474.4429,-219.3474 411.5717,-206.4931 359,-188 319.3275,-174.0444 276.0881,-151.4941 249.505,-136.7069"/>
<polygon fill="#191970" stroke="#191970" points="250.9336,-133.4947 240.5022,-131.6405 247.5005,-139.5951 250.9336,-133.4947"/>
</g>
<!-- Node35&#45;&gt;Node17 -->
<g id="edge61" class="edge">
<title>Node35&#45;&gt;Node17</title>
<path fill="none" stroke="#191970" d="M609.5285,-229.7705C699.9348,-221.296 892.8718,-201.8619 920,-188 941.5328,-176.9972 959.5723,-155.3902 970.543,-139.8937"/>
<polygon fill="#191970" stroke="#191970" points="973.4489,-141.8445 976.1585,-131.602 967.653,-137.9192 973.4489,-141.8445"/>
</g>
<!-- Node35&#45;&gt;Node30 -->
<g id="edge58" class="edge">
<title>Node35&#45;&gt;Node30</title>
<path fill="none" stroke="#191970" d="M569.565,-224.4509C582.4077,-205.7707 611.0399,-164.1238 627.5726,-140.0761"/>
<polygon fill="#191970" stroke="#191970" points="630.6705,-141.7482 633.4516,-131.5249 624.9022,-137.7825 630.6705,-141.7482"/>
</g>
<!-- Node35&#45;&gt;Node32 -->
<g id="edge62" class="edge">
<title>Node35&#45;&gt;Node32</title>
<path fill="none" stroke="#191970" d="M539.105,-224.3733C516.4918,-215.2629 482.3458,-201.5062 457.1127,-191.3404"/>
<polygon fill="#191970" stroke="#191970" points="458.1666,-187.9917 447.5831,-187.5011 455.5507,-194.4845 458.1666,-187.9917"/>
</g>
<!-- Node36&#45;&gt;Node2 -->
<g id="edge64" class="edge">
<title>Node36&#45;&gt;Node2</title>
<path fill="none" stroke="#191970" d="M266.2435,-224.3733C228.8183,-214.2972 170.2833,-198.5378 132.0294,-188.2387"/>
<polygon fill="#191970" stroke="#191970" points="132.8555,-184.8365 122.2894,-185.6164 131.0357,-191.5959 132.8555,-184.8365"/>
</g>
<!-- Node36&#45;&gt;Node15 -->
<g id="edge67" class="edge">
<title>Node36&#45;&gt;Node15</title>
<path fill="none" stroke="#191970" d="M274.1953,-224.4566C238.4099,-210.4883 177.7815,-180.7089 152,-132 136.2648,-102.2715 182.3733,-57.6131 185,-56 238.9818,-22.8486 690.7914,-24.2096 754,-20 791.5972,-17.4961 834.7421,-14.456 863.7215,-12.3899"/>
<polygon fill="#191970" stroke="#191970" points="863.9955,-15.8793 873.7206,-11.6755 863.4966,-8.8971 863.9955,-15.8793"/>
</g>
<!-- Node36&#45;&gt;Node16 -->
<g id="edge68" class="edge">
<title>Node36&#45;&gt;Node16</title>
<path fill="none" stroke="#191970" d="M295.3498,-224.4509C282.2827,-205.688 253.0792,-163.7548 236.3672,-139.758"/>
<polygon fill="#191970" stroke="#191970" points="239.2205,-137.7307 230.6334,-131.5249 233.4763,-141.7312 239.2205,-137.7307"/>
</g>
<!-- Node36&#45;&gt;Node17 -->
<g id="edge69" class="edge">
<title>Node36&#45;&gt;Node17</title>
<path fill="none" stroke="#191970" d="M356.5471,-231.3401C492.276,-224.4905 837.8268,-205.551 887,-188 895.1212,-185.1014 935.1054,-156.3852 960.5435,-137.7981"/>
<polygon fill="#191970" stroke="#191970" points="962.8611,-140.4389 968.8585,-131.7049 958.7236,-134.7926 962.8611,-140.4389"/>
</g>
<!-- Node36&#45;&gt;Node22 -->
<g id="edge66" class="edge">
<title>Node36&#45;&gt;Node22</title>
<path fill="none" stroke="#191970" d="M277.3047,-224.4236C214.5023,-200.0156 53.3965,-137.0389 50,-132 31.1206,-103.991 26.9493,-80.6901 50,-56 71.7555,-32.6972 546.1707,-15.5916 682.6038,-11.141"/>
<polygon fill="#191970" stroke="#191970" points="683.0471,-14.6286 692.9288,-10.8074 682.8209,-7.6322 683.0471,-14.6286"/>
</g>
<!-- Node36&#45;&gt;Node30 -->
<g id="edge65" class="edge">
<title>Node36&#45;&gt;Node30</title>
<path fill="none" stroke="#191970" d="M350.0288,-224.4358C387.9646,-216.33 441.9924,-203.5558 488,-188 532.2657,-173.0332 581.5478,-150.4904 611.6622,-136.0097"/>
<polygon fill="#191970" stroke="#191970" points="613.2638,-139.123 620.7354,-131.6113 610.2102,-132.8241 613.2638,-139.123"/>
</g>
<!-- Node36&#45;&gt;Node32 -->
<g id="edge71" class="edge">
<title>Node36&#45;&gt;Node32</title>
<path fill="none" stroke="#191970" d="M322.9725,-224.3733C342.5567,-215.3838 371.9961,-201.8706 394.051,-191.7471"/>
<polygon fill="#191970" stroke="#191970" points="395.6729,-194.8538 403.3011,-187.5011 392.7527,-188.4919 395.6729,-194.8538"/>
</g>
<!-- Node36&#45;&gt;Node34 -->
<g id="edge70" class="edge">
<title>Node36&#45;&gt;Node34</title>
<path fill="none" stroke="#191970" d="M309.6814,-224.1937C320.2425,-210.9315 340.0942,-186.7778 359,-168 369.6178,-157.4541 382.3225,-146.5555 392.7407,-138.0151"/>
<polygon fill="#191970" stroke="#191970" points="394.9466,-140.7325 400.522,-131.7233 390.5453,-135.2892 394.9466,-140.7325"/>
</g>
<!-- Node37&#45;&gt;Node14 -->
<g id="edge74" class="edge">
<title>Node37&#45;&gt;Node14</title>
<path fill="none" stroke="#191970" d="M1192.1258,-168.4509C1166.0493,-149.1094 1106.7779,-105.1465 1075.0192,-81.5904"/>
<polygon fill="#191970" stroke="#191970" points="1076.9585,-78.6712 1066.8416,-75.5249 1072.7883,-84.2934 1076.9585,-78.6712"/>
</g>
<!-- Node37&#45;&gt;Node15 -->
<g id="edge75" class="edge">
<title>Node37&#45;&gt;Node15</title>
<path fill="none" stroke="#191970" d="M1210.9712,-168.3675C1224.1538,-145.7469 1252.4055,-88.6811 1224,-56 1214.3944,-44.9486 1011.8095,-22.2346 930.4169,-13.5152"/>
<polygon fill="#191970" stroke="#191970" points="930.5299,-10.0075 920.2152,-12.4277 929.7878,-16.968 930.5299,-10.0075"/>
</g>
<!-- Node37&#45;&gt;Node17 -->
<g id="edge76" class="edge">
<title>Node37&#45;&gt;Node17</title>
<path fill="none" stroke="#191970" d="M1166.9183,-168.4369C1128.9941,-158.9133 1070.6711,-144.2672 1029.6874,-133.9753"/>
<polygon fill="#191970" stroke="#191970" points="1030.476,-130.5647 1019.9246,-131.5237 1028.771,-137.3539 1030.476,-130.5647"/>
</g>
</g>
</svg>
        <g id="navigator" transform="translate(0 0)" fill="#404254">
                <rect fill="#f2f5e9" fill-opacity="0.5" stroke="#606060" stroke-width=".5" x="0" y="0" width="60" height="60"/>
                <use id="zoomplus" xlink:href="#zoomPlus" x="17" y="9" onmousedown="handleZoom(evt,'in')"/>
                <use id="zoomminus" xlink:href="#zoomMin" x="42" y="9" onmousedown="handleZoom(evt,'out')"/>
                <use id="reset" xlink:href="#resetDef" x="30" y="36" onmousedown="handleReset()"/>
                <g id="arrowUp" xlink:href="#dirArrow" transform="translate(30 24)" onmousedown="handlePan(0,-1)">
                  <use xlink:href="#rim" fill="#404040">
                        <set attributeName="fill" to="#808080" begin="arrowUp.mouseover" end="arrowUp.mouseout"/>
                  </use>
                  <path fill="none" stroke="white" stroke-width="1.5" d="M0,-3.0v7 M-2.5,-0.5L0,-3.0L2.5,-0.5"/>
                </g>
                <g id="arrowRight" xlink:href="#dirArrow" transform="rotate(90) translate(36 -43)" onmousedown="handlePan(1,0)">
                  <use xlink:href="#rim" fill="#404040">
                        <set attributeName="fill" to="#808080" begin="arrowRight.mouseover" end="arrowRight.mouseout"/>
                  </use>
                  <path fill="none" stroke="white" stroke-width="1.5" d="M0,-3.0v7 M-2.5,-0.5L0,-3.0L2.5,-0.5"/>
                </g>
                <g id="arrowDown" xlink:href="#dirArrow" transform="rotate(180) translate(-30 -48)" onmousedown="handlePan(0,1)">
                  <use xlink:href="#rim" fill="#404040">
                        <set attributeName="fill" to="#808080" begin="arrowDown.mouseover" end="arrowDown.mouseout"/>
                  </use>
                  <path fill="none" stroke="white" stroke-width="1.5" d="M0,-3.0v7 M-2.5,-0.5L0,-3.0L2.5,-0.5"/>
                </g>
                <g id="arrowLeft" xlink:href="#dirArrow" transform="rotate(270) translate(-36 17)" onmousedown="handlePan(-1,0)">
                  <use xlink:href="#rim" fill="#404040">
                        <set attributeName="fill" to="#808080" begin="arrowLeft.mouseover" end="arrowLeft.mouseout"/>
                  </use>
                  <path fill="none" stroke="white" stroke-width="1.5" d="M0,-3.0v7 M-2.5,-0.5L0,-3.0L2.5,-0.5"/>
                </g>
        </g>
        <svg viewBox="0 0 15 15" width="100%" height="30px" preserveAspectRatio="xMaxYMin meet">
         <g id="arrow_out" transform="scale(0.3 0.3)">
          <a xlink:href="ErrorManager_8h__incl_org.svg" target="_base">
           <rect id="button" ry="5" rx="5" y="6" x="6" height="38" width="38"
                fill="#f2f5e9" fill-opacity="0.5" stroke="#606060" stroke-width="1.0"/>
           <path id="arrow"
             d="M 11.500037,31.436501 C 11.940474,20.09759 22.043105,11.32322 32.158766,21.979434 L 37.068811,17.246167 C 37.068811,17.246167 37.088388,32 37.088388,32 L 22.160133,31.978069 C 22.160133,31.978069 26.997745,27.140456 26.997745,27.140456 C 18.528582,18.264221 13.291696,25.230495 11.500037,31.436501 z"
             style="fill:#404040;"/>
          </a>
         </g>
        </svg>
</svg>
