<?xml version="1.0" encoding="UTF-8" standalone="no"?>
<!DOCTYPE svg PUBLIC "-//W3C//DTD SVG 1.1//EN"
 "http://www.w3.org/Graphics/SVG/1.1/DTD/svg11.dtd">
<!-- Generated by graphviz version 2.43.0 (0)
 -->
<!-- Title: Tensor.hpp Pages: 1 -->
<svg width="600pt" height="476pt"
 viewBox="0.00 0.00 600.00 476.00" xmlns="http://www.w3.org/2000/svg" xmlns:xlink="http://www.w3.org/1999/xlink">
<g id="graph0" class="graph" transform="scale(1 1) rotate(0) translate(4 472)">
<title>Tensor.hpp</title>
<polygon fill="white" stroke="transparent" points="-4,4 -4,-472 596,-472 596,4 -4,4"/>
<!-- Node1 -->
<g id="node1" class="node">
<title>Node1</title>
<g id="a_node1"><a xlink:title="GenericTensor definition and implementation.">
<polygon fill="#bfbfbf" stroke="black" points="263,-448.5 263,-467.5 327,-467.5 327,-448.5 263,-448.5"/>
<text text-anchor="middle" x="295" y="-455.5" font-family="Helvetica,sans-Serif" font-size="10.00">Tensor.hpp</text>
</a>
</g>
</g>
<!-- Node2 -->
<g id="node2" class="node">
<title>Node2</title>
<g id="a_node2"><a xlink:href="Tensor_8h.html" target="_top" xlink:title="Templated C++ wrapper for MTensor.">
<polygon fill="white" stroke="black" points="182.5,-168.5 182.5,-187.5 235.5,-187.5 235.5,-168.5 182.5,-168.5"/>
<text text-anchor="middle" x="209" y="-175.5" font-family="Helvetica,sans-Serif" font-size="10.00">Tensor.h</text>
</a>
</g>
</g>
<!-- Node1&#45;&gt;Node2 -->
<g id="edge1" class="edge">
<title>Node1&#45;&gt;Node2</title>
<path fill="none" stroke="midnightblue" d="M254.81,-445.2C212.51,-430.01 152,-399.16 152,-347 152,-347 152,-347 152,-289 152,-258.9 156.76,-250.52 171,-224 178.55,-209.95 191.01,-196.31 199.59,-187.8"/>
<polygon fill="midnightblue" stroke="midnightblue" points="253.73,-448.53 264.32,-448.46 256,-441.91 253.73,-448.53"/>
</g>
<!-- Node11 -->
<g id="node11" class="node">
<title>Node11</title>
<g id="a_node11"><a xlink:href="Views_2Tensor_8hpp.html" target="_top" xlink:title="Definition and implementation of TensorView and TensorTypedView.">
<polygon fill="white" stroke="black" points="451,-392.5 451,-411.5 515,-411.5 515,-392.5 451,-392.5"/>
<text text-anchor="middle" x="483" y="-399.5" font-family="Helvetica,sans-Serif" font-size="10.00">Tensor.hpp</text>
</a>
</g>
</g>
<!-- Node1&#45;&gt;Node11 -->
<g id="edge12" class="edge">
<title>Node1&#45;&gt;Node11</title>
<path fill="none" stroke="midnightblue" d="M334.8,-445.57C370.27,-435.38 421.37,-420.7 453.35,-411.52"/>
<polygon fill="midnightblue" stroke="midnightblue" points="333.43,-442.32 324.79,-448.44 335.37,-449.05 333.43,-442.32"/>
</g>
<!-- Node12 -->
<g id="node12" class="node">
<title>Node12</title>
<g id="a_node12"><a xlink:href="TypedMArgument_8h.html" target="_top" xlink:title=" ">
<polygon fill="white" stroke="black" points="331.5,-392.5 331.5,-411.5 432.5,-411.5 432.5,-392.5 331.5,-392.5"/>
<text text-anchor="middle" x="382" y="-399.5" font-family="Helvetica,sans-Serif" font-size="10.00">TypedMArgument.h</text>
</a>
</g>
</g>
<!-- Node1&#45;&gt;Node12 -->
<g id="edge13" class="edge">
<title>Node1&#45;&gt;Node12</title>
<path fill="none" stroke="midnightblue" d="M317.72,-442.9C333.67,-433 354.5,-420.07 368.06,-411.65"/>
<polygon fill="midnightblue" stroke="midnightblue" points="315.63,-440.08 308.98,-448.32 319.32,-446.02 315.63,-440.08"/>
</g>
<!-- Node18 -->
<g id="node18" class="node">
<title>Node18</title>
<g id="a_node18"><a xlink:href="TypedMArgument_8cpp.html" target="_top" xlink:title=" ">
<polygon fill="white" stroke="black" points="180,-224.5 180,-243.5 292,-243.5 292,-224.5 180,-224.5"/>
<text text-anchor="middle" x="236" y="-231.5" font-family="Helvetica,sans-Serif" font-size="10.00">TypedMArgument.cpp</text>
</a>
</g>
</g>
<!-- Node1&#45;&gt;Node18 -->
<g id="edge29" class="edge">
<title>Node1&#45;&gt;Node18</title>
<path fill="none" stroke="midnightblue" d="M290.11,-438.58C278.03,-393.14 247.14,-276.92 238.36,-243.88"/>
<polygon fill="midnightblue" stroke="midnightblue" points="286.74,-439.53 292.69,-448.3 293.5,-437.73 286.74,-439.53"/>
</g>
<!-- Node3 -->
<g id="node3" class="node">
<title>Node3</title>
<g id="a_node3"><a xlink:href="LLU_8h.html" target="_top" xlink:title="Header file which includes all major parts of LLU.">
<polygon fill="white" stroke="black" points="343.5,-0.5 343.5,-19.5 386.5,-19.5 386.5,-0.5 343.5,-0.5"/>
<text text-anchor="middle" x="365" y="-7.5" font-family="Helvetica,sans-Serif" font-size="10.00">LLU.h</text>
</a>
</g>
</g>
<!-- Node2&#45;&gt;Node3 -->
<g id="edge2" class="edge">
<title>Node2&#45;&gt;Node3</title>
<path fill="none" stroke="midnightblue" d="M229.54,-162.34C240.94,-153.9 255.16,-142.83 267,-132 292.06,-109.07 297.59,-102.36 319,-76 334.69,-56.68 351.06,-32.4 359.39,-19.68"/>
<polygon fill="midnightblue" stroke="midnightblue" points="227.47,-159.52 221.46,-168.24 231.6,-165.17 227.47,-159.52"/>
</g>
<!-- Node4 -->
<g id="node4" class="node">
<title>Node4</title>
<g id="a_node4"><a xlink:href="MArgumentManager_8h.html" target="_top" xlink:title="Definition of MArgumentManager class.">
<polygon fill="white" stroke="black" points="198,-56.5 198,-75.5 310,-75.5 310,-56.5 198,-56.5"/>
<text text-anchor="middle" x="254" y="-63.5" font-family="Helvetica,sans-Serif" font-size="10.00">MArgumentManager.h</text>
</a>
</g>
</g>
<!-- Node2&#45;&gt;Node4 -->
<g id="edge3" class="edge">
<title>Node2&#45;&gt;Node4</title>
<path fill="none" stroke="midnightblue" d="M227.94,-161.62C236.25,-153.71 245.19,-143.36 250,-132 257.93,-113.26 256.69,-88.74 255.25,-75.83"/>
<polygon fill="midnightblue" stroke="midnightblue" points="225.46,-159.14 220.32,-168.4 230.12,-164.37 225.46,-159.14"/>
</g>
<!-- Node8 -->
<g id="node8" class="node">
<title>Node8</title>
<g id="a_node8"><a xlink:href="ProgressMonitor_8h.html" target="_top" xlink:title="Definition of ProgressMonitor class.">
<polygon fill="white" stroke="black" points="63.5,-112.5 63.5,-131.5 158.5,-131.5 158.5,-112.5 63.5,-112.5"/>
<text text-anchor="middle" x="111" y="-119.5" font-family="Helvetica,sans-Serif" font-size="10.00">ProgressMonitor.h</text>
</a>
</g>
</g>
<!-- Node2&#45;&gt;Node8 -->
<g id="edge8" class="edge">
<title>Node2&#45;&gt;Node8</title>
<path fill="none" stroke="midnightblue" d="M184.41,-163.45C166.32,-153.48 142.27,-140.23 126.71,-131.65"/>
<polygon fill="midnightblue" stroke="midnightblue" points="182.81,-166.56 193.25,-168.32 186.19,-160.43 182.81,-166.56"/>
</g>
<!-- Node10 -->
<g id="node10" class="node">
<title>Node10</title>
<g id="a_node10"><a xlink:href="Tensor_8cpp.html" target="_top" xlink:title="Template specialization of certain methods from TypedTensor class for all underlying data types that ...">
<polygon fill="white" stroke="black" points="177,-112.5 177,-131.5 241,-131.5 241,-112.5 177,-112.5"/>
<text text-anchor="middle" x="209" y="-119.5" font-family="Helvetica,sans-Serif" font-size="10.00">Tensor.cpp</text>
</a>
</g>
</g>
<!-- Node2&#45;&gt;Node10 -->
<g id="edge11" class="edge">
<title>Node2&#45;&gt;Node10</title>
<path fill="none" stroke="midnightblue" d="M209,-157.8C209,-148.91 209,-138.78 209,-131.75"/>
<polygon fill="midnightblue" stroke="midnightblue" points="205.5,-158.08 209,-168.08 212.5,-158.08 205.5,-158.08"/>
</g>
<!-- Node4&#45;&gt;Node3 -->
<g id="edge4" class="edge">
<title>Node4&#45;&gt;Node3</title>
<path fill="none" stroke="midnightblue" d="M281.01,-51.86C301.59,-41.85 329.34,-28.35 347.21,-19.65"/>
<polygon fill="midnightblue" stroke="midnightblue" points="279.3,-48.8 271.83,-56.32 282.36,-55.1 279.3,-48.8"/>
</g>
<!-- Node5 -->
<g id="node5" class="node">
<title>Node5</title>
<g id="a_node5"><a xlink:href="LibraryLinkError_8cpp.html" target="_top" xlink:title="Contains definitions of ErrorManager members and implementation of interface function sendRegisteredE...">
<polygon fill="white" stroke="black" points="222.5,-0.5 222.5,-19.5 325.5,-19.5 325.5,-0.5 222.5,-0.5"/>
<text text-anchor="middle" x="274" y="-7.5" font-family="Helvetica,sans-Serif" font-size="10.00">LibraryLinkError.cpp</text>
</a>
</g>
</g>
<!-- Node4&#45;&gt;Node5 -->
<g id="edge5" class="edge">
<title>Node4&#45;&gt;Node5</title>
<path fill="none" stroke="midnightblue" d="M260.78,-46.69C264.15,-37.59 268.07,-27.01 270.76,-19.75"/>
<polygon fill="midnightblue" stroke="midnightblue" points="257.49,-45.49 257.3,-56.08 264.06,-47.92 257.49,-45.49"/>
</g>
<!-- Node6 -->
<g id="node6" class="node">
<title>Node6</title>
<g id="a_node6"><a xlink:href="Logger_8cpp.html" target="_top" xlink:title="Implementation of functions defined in Logger.h.">
<polygon fill="white" stroke="black" points="0,-0.5 0,-19.5 64,-19.5 64,-0.5 0,-0.5"/>
<text text-anchor="middle" x="32" y="-7.5" font-family="Helvetica,sans-Serif" font-size="10.00">Logger.cpp</text>
</a>
</g>
</g>
<!-- Node4&#45;&gt;Node6 -->
<g id="edge6" class="edge">
<title>Node4&#45;&gt;Node6</title>
<path fill="none" stroke="midnightblue" d="M208.9,-54.03C165.9,-43.57 102.21,-28.08 64.13,-18.82"/>
<polygon fill="midnightblue" stroke="midnightblue" points="208.28,-57.48 218.82,-56.44 209.93,-50.68 208.28,-57.48"/>
</g>
<!-- Node7 -->
<g id="node7" class="node">
<title>Node7</title>
<g id="a_node7"><a xlink:href="MArgumentManager_8cpp.html" target="_top" xlink:title="Definitions of non&#45;template member functions and static data members from MArgumentManager class.">
<polygon fill="white" stroke="black" points="82,-0.5 82,-19.5 204,-19.5 204,-0.5 82,-0.5"/>
<text text-anchor="middle" x="143" y="-7.5" font-family="Helvetica,sans-Serif" font-size="10.00">MArgumentManager.cpp</text>
</a>
</g>
</g>
<!-- Node4&#45;&gt;Node7 -->
<g id="edge7" class="edge">
<title>Node4&#45;&gt;Node7</title>
<path fill="none" stroke="midnightblue" d="M226.99,-51.86C206.41,-41.85 178.66,-28.35 160.79,-19.65"/>
<polygon fill="midnightblue" stroke="midnightblue" points="225.64,-55.1 236.17,-56.32 228.7,-48.8 225.64,-55.1"/>
</g>
<!-- Node8&#45;&gt;Node4 -->
<g id="edge9" class="edge">
<title>Node8&#45;&gt;Node4</title>
<path fill="none" stroke="midnightblue" d="M143.03,-108.91C169.91,-98.75 207.64,-84.51 231.45,-75.52"/>
<polygon fill="midnightblue" stroke="midnightblue" points="141.78,-105.64 133.66,-112.44 144.25,-112.19 141.78,-105.64"/>
</g>
<!-- Node9 -->
<g id="node9" class="node">
<title>Node9</title>
<g id="a_node9"><a xlink:href="ProgressMonitor_8cpp.html" target="_top" xlink:title="Implementation file for ProgressMonitor class.">
<polygon fill="white" stroke="black" points="58,-56.5 58,-75.5 164,-75.5 164,-56.5 58,-56.5"/>
<text text-anchor="middle" x="111" y="-63.5" font-family="Helvetica,sans-Serif" font-size="10.00">ProgressMonitor.cpp</text>
</a>
</g>
</g>
<!-- Node8&#45;&gt;Node9 -->
<g id="edge10" class="edge">
<title>Node8&#45;&gt;Node9</title>
<path fill="none" stroke="midnightblue" d="M111,-101.8C111,-92.91 111,-82.78 111,-75.75"/>
<polygon fill="midnightblue" stroke="midnightblue" points="107.5,-102.08 111,-112.08 114.5,-102.08 107.5,-102.08"/>
</g>
<!-- Node13 -->
<g id="node13" class="node">
<title>Node13</title>
<g id="a_node13"><a xlink:href="DataList_8h.html" target="_top" xlink:title="Definition of templated DataStore wrapper called DataList.">
<polygon fill="white" stroke="black" points="366,-112.5 366,-131.5 428,-131.5 428,-112.5 366,-112.5"/>
<text text-anchor="middle" x="397" y="-119.5" font-family="Helvetica,sans-Serif" font-size="10.00">DataList.h</text>
</a>
</g>
</g>
<!-- Node12&#45;&gt;Node13 -->
<g id="edge14" class="edge">
<title>Node12&#45;&gt;Node13</title>
<path fill="none" stroke="midnightblue" d="M436.05,-390.5C487.01,-380.19 557.05,-364.75 567,-356 590.25,-335.56 592,-321.95 592,-291 592,-291 592,-291 592,-233 592,-158.76 483.45,-134.07 428.33,-126.32"/>
<polygon fill="midnightblue" stroke="midnightblue" points="435.25,-387.1 426.13,-392.5 436.63,-393.96 435.25,-387.1"/>
</g>
<!-- Node14 -->
<g id="node14" class="node">
<title>Node14</title>
<g id="a_node14"><a xlink:href="Generic_2DataStore_8hpp.html" target="_top" xlink:title="Definition and implementation of generic DataStore wrapper.">
<polygon fill="white" stroke="black" points="342,-280.5 342,-299.5 422,-299.5 422,-280.5 342,-280.5"/>
<text text-anchor="middle" x="382" y="-287.5" font-family="Helvetica,sans-Serif" font-size="10.00">DataStore.hpp</text>
</a>
</g>
</g>
<!-- Node12&#45;&gt;Node14 -->
<g id="edge17" class="edge">
<title>Node12&#45;&gt;Node14</title>
<path fill="none" stroke="midnightblue" d="M382,-382.35C382,-358.25 382,-317.31 382,-299.59"/>
<polygon fill="midnightblue" stroke="midnightblue" points="378.5,-382.37 382,-392.37 385.5,-382.37 378.5,-382.37"/>
</g>
<!-- Node15 -->
<g id="node15" class="node">
<title>Node15</title>
<g id="a_node15"><a xlink:href="DataNode_8hpp.html" target="_top" xlink:title=" ">
<polygon fill="white" stroke="black" points="446,-224.5 446,-243.5 526,-243.5 526,-224.5 446,-224.5"/>
<text text-anchor="middle" x="486" y="-231.5" font-family="Helvetica,sans-Serif" font-size="10.00">DataNode.hpp</text>
</a>
</g>
</g>
<!-- Node12&#45;&gt;Node15 -->
<g id="edge24" class="edge">
<title>Node12&#45;&gt;Node15</title>
<path fill="none" stroke="midnightblue" d="M393.08,-383.31C415.25,-347.92 464.35,-269.56 480.63,-243.57"/>
<polygon fill="midnightblue" stroke="midnightblue" points="389.93,-381.74 387.59,-392.08 395.87,-385.46 389.93,-381.74"/>
</g>
<!-- Node12&#45;&gt;Node18 -->
<g id="edge28" class="edge">
<title>Node12&#45;&gt;Node18</title>
<path fill="none" stroke="midnightblue" d="M367.23,-384.21C336.5,-349.26 266.6,-269.79 243.54,-243.57"/>
<polygon fill="midnightblue" stroke="midnightblue" points="364.92,-386.88 374.15,-392.08 370.17,-382.25 364.92,-386.88"/>
</g>
<!-- Node19 -->
<g id="node19" class="node">
<title>Node19</title>
<g id="a_node19"><a xlink:href="Iterators_2DataStore_8hpp.html" target="_top" xlink:title=" ">
<polygon fill="white" stroke="black" points="478,-336.5 478,-355.5 558,-355.5 558,-336.5 478,-336.5"/>
<text text-anchor="middle" x="518" y="-343.5" font-family="Helvetica,sans-Serif" font-size="10.00">DataStore.hpp</text>
</a>
</g>
</g>
<!-- Node12&#45;&gt;Node19 -->
<g id="edge25" class="edge">
<title>Node12&#45;&gt;Node19</title>
<path fill="none" stroke="midnightblue" d="M413.13,-388.64C438.66,-378.5 474.11,-364.43 496.55,-355.52"/>
<polygon fill="midnightblue" stroke="midnightblue" points="411.55,-385.5 403.55,-392.44 414.14,-392.01 411.55,-385.5"/>
</g>
<!-- Node13&#45;&gt;Node3 -->
<g id="edge15" class="edge">
<title>Node13&#45;&gt;Node3</title>
<path fill="none" stroke="midnightblue" d="M391.67,-102.67C384.67,-78.62 372.68,-37.39 367.5,-19.59"/>
<polygon fill="midnightblue" stroke="midnightblue" points="388.33,-103.74 394.49,-112.37 395.06,-101.79 388.33,-103.74"/>
</g>
<!-- Node13&#45;&gt;Node4 -->
<g id="edge16" class="edge">
<title>Node13&#45;&gt;Node4</title>
<path fill="none" stroke="midnightblue" d="M364.97,-108.91C338.09,-98.75 300.36,-84.51 276.55,-75.52"/>
<polygon fill="midnightblue" stroke="midnightblue" points="363.75,-112.19 374.34,-112.44 366.22,-105.64 363.75,-112.19"/>
</g>
<!-- Node14&#45;&gt;Node13 -->
<g id="edge18" class="edge">
<title>Node14&#45;&gt;Node13</title>
<path fill="none" stroke="midnightblue" d="M361.76,-273.86C352.99,-266.03 343.68,-255.67 339,-244 335.69,-235.75 336.71,-232.59 339,-224 349,-186.49 376.63,-148.43 389.81,-131.75"/>
<polygon fill="midnightblue" stroke="midnightblue" points="359.58,-276.6 369.5,-280.3 364.05,-271.22 359.58,-276.6"/>
</g>
<!-- Node14&#45;&gt;Node15 -->
<g id="edge19" class="edge">
<title>Node14&#45;&gt;Node15</title>
<path fill="none" stroke="midnightblue" d="M407.83,-275.59C427.06,-265.61 452.74,-252.27 469.33,-243.65"/>
<polygon fill="midnightblue" stroke="midnightblue" points="405.97,-272.61 398.71,-280.32 409.2,-278.82 405.97,-272.61"/>
</g>
<!-- Node17 -->
<g id="node17" class="node">
<title>Node17</title>
<g id="a_node17"><a xlink:href="DataStore_8cpp.html" target="_top" xlink:title=" ">
<polygon fill="white" stroke="black" points="348,-224.5 348,-243.5 428,-243.5 428,-224.5 348,-224.5"/>
<text text-anchor="middle" x="388" y="-231.5" font-family="Helvetica,sans-Serif" font-size="10.00">DataStore.cpp</text>
</a>
</g>
</g>
<!-- Node14&#45;&gt;Node17 -->
<g id="edge22" class="edge">
<title>Node14&#45;&gt;Node17</title>
<path fill="none" stroke="midnightblue" d="M384.1,-270.1C385.1,-261.14 386.24,-250.86 387.03,-243.75"/>
<polygon fill="midnightblue" stroke="midnightblue" points="380.62,-269.76 382.99,-280.08 387.57,-270.53 380.62,-269.76"/>
</g>
<!-- Node14&#45;&gt;Node18 -->
<g id="edge23" class="edge">
<title>Node14&#45;&gt;Node18</title>
<path fill="none" stroke="midnightblue" d="M349.3,-276.91C321.85,-266.75 283.33,-252.51 259.03,-243.52"/>
<polygon fill="midnightblue" stroke="midnightblue" points="348.27,-280.26 358.87,-280.44 350.7,-273.69 348.27,-280.26"/>
</g>
<!-- Node16 -->
<g id="node16" class="node">
<title>Node16</title>
<g id="a_node16"><a xlink:href="DataList_8hpp.html" target="_top" xlink:title="Special iterators for DataLists. Iteration over keys, values, reversed iteration.">
<polygon fill="white" stroke="black" points="450,-168.5 450,-187.5 522,-187.5 522,-168.5 450,-168.5"/>
<text text-anchor="middle" x="486" y="-175.5" font-family="Helvetica,sans-Serif" font-size="10.00">DataList.hpp</text>
</a>
</g>
</g>
<!-- Node15&#45;&gt;Node16 -->
<g id="edge20" class="edge">
<title>Node15&#45;&gt;Node16</title>
<path fill="none" stroke="midnightblue" d="M486,-213.8C486,-204.91 486,-194.78 486,-187.75"/>
<polygon fill="midnightblue" stroke="midnightblue" points="482.5,-214.08 486,-224.08 489.5,-214.08 482.5,-214.08"/>
</g>
<!-- Node16&#45;&gt;Node13 -->
<g id="edge21" class="edge">
<title>Node16&#45;&gt;Node13</title>
<path fill="none" stroke="midnightblue" d="M462.76,-162.9C446.44,-153 425.13,-140.07 411.26,-131.65"/>
<polygon fill="midnightblue" stroke="midnightblue" points="461.34,-166.13 471.7,-168.32 464.97,-160.14 461.34,-166.13"/>
</g>
<!-- Node19&#45;&gt;Node14 -->
<g id="edge26" class="edge">
<title>Node19&#45;&gt;Node14</title>
<path fill="none" stroke="midnightblue" d="M486.87,-332.64C461.34,-322.5 425.89,-308.43 403.45,-299.52"/>
<polygon fill="midnightblue" stroke="midnightblue" points="485.86,-336.01 496.45,-336.44 488.45,-329.5 485.86,-336.01"/>
</g>
<!-- Node19&#45;&gt;Node16 -->
<g id="edge27" class="edge">
<title>Node19&#45;&gt;Node16</title>
<path fill="none" stroke="midnightblue" d="M526.35,-326.93C536.36,-302.54 550.01,-258.17 535,-224 528.03,-208.14 512.41,-195.42 500.66,-187.6"/>
<polygon fill="midnightblue" stroke="midnightblue" points="523.03,-325.79 522.25,-336.36 529.45,-328.58 523.03,-325.79"/>
</g>
</g>
</svg>
