<?xml version="1.0" encoding="UTF-8" standalone="no"?>
<!DOCTYPE svg PUBLIC "-//W3C//DTD SVG 1.1//EN"
 "http://www.w3.org/Graphics/SVG/1.1/DTD/svg11.dtd">
<!-- Generated by graphviz version 2.40.1 (20161225.0304)
 -->
<!-- Title: NumericArray.hpp Pages: 1 -->
<!--zoomable 476 -->
<svg id="main" version="1.1" xmlns="http://www.w3.org/2000/svg" xmlns:xlink="http://www.w3.org/1999/xlink" xml:space="preserve" onload="init(evt)">
<style type="text/css"><![CDATA[
.edge:hover path { stroke: red; }
.edge:hover polygon { stroke: red; fill: red; }
]]></style>
<script type="text/javascript"><![CDATA[
var edges = document.getElementsByTagName('g');
if (edges && edges.length) {
  for (var i=0;i<edges.length;i++) {
    if (edges[i].id.substr(0,4)=='edge') {
      edges[i].setAttribute('class','edge');
    }
  }
}
]]></script>
        <defs>
                <circle id="rim" cx="0" cy="0" r="7"/>
                <circle id="rim2" cx="0" cy="0" r="3.5"/>
                <g id="zoomPlus">
                        <use xlink:href="#rim" fill="#404040">
                                <set attributeName="fill" to="#808080" begin="zoomplus.mouseover" end="zoomplus.mouseout"/>
                        </use>
                        <path d="M-4,0h8M0,-4v8" fill="none" stroke="white" stroke-width="1.5" pointer-events="none"/>
                </g>
                <g id="zoomMin">
                        <use xlink:href="#rim" fill="#404040">
                                <set attributeName="fill" to="#808080" begin="zoomminus.mouseover" end="zoomminus.mouseout"/>
                        </use>
                        <path d="M-4,0h8" fill="none" stroke="white" stroke-width="1.5" pointer-events="none"/>
                </g>
                <g id="dirArrow">
                        <path fill="none" stroke="white" stroke-width="1.5" d="M0,-3.0v7 M-2.5,-0.5L0,-3.0L2.5,-0.5"/>
                </g>
               <g id="resetDef">
                       <use xlink:href="#rim2" fill="#404040">
                               <set attributeName="fill" to="#808080" begin="reset.mouseover" end="reset.mouseout"/>
                       </use>
               </g>
        </defs>

<script type="text/javascript">
var viewWidth = 612;
var viewHeight = 476;
var sectionId = 'dynsection-1';
</script>
<script xlink:href="svgpan.js"/>
<svg id="graph" class="graph">
<g id="viewport">
<title>NumericArray.hpp</title>
<polygon fill="#ffffff" stroke="transparent" points="-4,4 -4,-472 607.5,-472 607.5,4 -4,4"/>
<!-- Node1 -->
<g id="node1" class="node">
<title>Node1</title>
<g id="a_node1"><a xlink:title="GenericNumericArray definition and implementation.">
<polygon fill="#bfbfbf" stroke="#000000" points="394.5,-448.5 394.5,-467.5 489.5,-467.5 489.5,-448.5 394.5,-448.5"/>
<text text-anchor="middle" x="442" y="-455.5" font-family="Helvetica,sans-Serif" font-size="10.00" fill="#000000">NumericArray.hpp</text>
</a>
</g>
</g>
<!-- Node2 -->
<g id="node2" class="node">
<title>Node2</title>
<g id="a_node2"><a xlink:href="NumericArray_8h.html" target="_top" xlink:title="Templated C++ wrapper for MNumericArray.">
<polygon fill="#ffffff" stroke="#000000" points="399.5,-112.5 399.5,-131.5 484.5,-131.5 484.5,-112.5 399.5,-112.5"/>
<text text-anchor="middle" x="442" y="-119.5" font-family="Helvetica,sans-Serif" font-size="10.00" fill="#000000">NumericArray.h</text>
</a>
</g>
</g>
<!-- Node1&#45;&gt;Node2 -->
<g id="edge1" class="edge">
<title>Node1&#45;&gt;Node2</title>
<path fill="none" stroke="#191970" d="M442,-438.1952C442,-415.8128 442,-378.2884 442,-346 442,-346 442,-346 442,-234 442,-196.0833 442,-150.9462 442,-131.5884"/>
<polygon fill="#191970" stroke="#191970" points="438.5001,-438.4116 442,-448.4116 445.5001,-438.4117 438.5001,-438.4116"/>
</g>
<!-- Node8 -->
<g id="node8" class="node">
<title>Node8</title>
<g id="a_node8"><a xlink:href="Views_2NumericArray_8hpp.html" target="_top" xlink:title="Definition and implementation of NumericArrayView and NumericArrayTypedView.">
<polygon fill="#ffffff" stroke="#000000" points="470.5,-336.5 470.5,-355.5 565.5,-355.5 565.5,-336.5 470.5,-336.5"/>
<text text-anchor="middle" x="518" y="-343.5" font-family="Helvetica,sans-Serif" font-size="10.00" fill="#000000">NumericArray.hpp</text>
</a>
</g>
</g>
<!-- Node1&#45;&gt;Node8 -->
<g id="edge8" class="edge">
<title>Node1&#45;&gt;Node8</title>
<path fill="none" stroke="#191970" d="M454.2871,-439.8927C470.6154,-415.8299 498.8742,-374.1853 511.5367,-355.5249"/>
<polygon fill="#191970" stroke="#191970" points="451.1986,-438.2109 448.4797,-448.4509 456.9909,-442.1414 451.1986,-438.2109"/>
</g>
<!-- Node9 -->
<g id="node9" class="node">
<title>Node9</title>
<g id="a_node9"><a xlink:href="TypedMArgument_8h.html" target="_top" xlink:title=" ">
<polygon fill="#ffffff" stroke="#000000" points="221,-392.5 221,-411.5 323,-411.5 323,-392.5 221,-392.5"/>
<text text-anchor="middle" x="272" y="-399.5" font-family="Helvetica,sans-Serif" font-size="10.00" fill="#000000">TypedMArgument.h</text>
</a>
</g>
</g>
<!-- Node1&#45;&gt;Node9 -->
<g id="edge10" class="edge">
<title>Node1&#45;&gt;Node9</title>
<path fill="none" stroke="#191970" d="M403.114,-445.1905C371.9688,-434.9309 328.9777,-420.7691 300.8427,-411.5011"/>
<polygon fill="#191970" stroke="#191970" points="402.1829,-448.5687 412.776,-448.3733 404.3731,-441.9202 402.1829,-448.5687"/>
</g>
<!-- Node15 -->
<g id="node15" class="node">
<title>Node15</title>
<g id="a_node15"><a xlink:href="TypedMArgument_8cpp.html" target="_top" xlink:title=" ">
<polygon fill="#ffffff" stroke="#000000" points="28.5,-224.5 28.5,-243.5 141.5,-243.5 141.5,-224.5 28.5,-224.5"/>
<text text-anchor="middle" x="85" y="-231.5" font-family="Helvetica,sans-Serif" font-size="10.00" fill="#000000">TypedMArgument.cpp</text>
</a>
</g>
</g>
<!-- Node1&#45;&gt;Node15 -->
<g id="edge27" class="edge">
<title>Node1&#45;&gt;Node15</title>
<path fill="none" stroke="#191970" d="M384.2412,-451.364C325.7014,-443.7808 239.8992,-430.0497 212,-412 144.1099,-368.0777 101.2741,-274.0197 88.7994,-243.6613"/>
<polygon fill="#191970" stroke="#191970" points="384.1112,-454.8755 394.4724,-452.663 384.9929,-447.9312 384.1112,-454.8755"/>
</g>
<!-- Node17 -->
<g id="node17" class="node">
<title>Node17</title>
<g id="a_node17"><a xlink:href="NumericArray_8cpp.html" target="_top" xlink:title="Definitions of MContainer&lt;MArgumentType::NumericArray&gt; (GenericNumericArray) methods.">
<polygon fill="#ffffff" stroke="#000000" points="508.5,-392.5 508.5,-411.5 603.5,-411.5 603.5,-392.5 508.5,-392.5"/>
<text text-anchor="middle" x="556" y="-399.5" font-family="Helvetica,sans-Serif" font-size="10.00" fill="#000000">NumericArray.cpp</text>
</a>
</g>
</g>
<!-- Node1&#45;&gt;Node17 -->
<g id="edge26" class="edge">
<title>Node1&#45;&gt;Node17</title>
<path fill="none" stroke="#191970" d="M470.8321,-443.8368C491.4395,-433.7139 518.6082,-420.3679 536.6584,-411.5011"/>
<polygon fill="#191970" stroke="#191970" points="469.0297,-440.8227 461.5973,-448.3733 472.116,-447.1056 469.0297,-440.8227"/>
</g>
<!-- Node3 -->
<g id="node3" class="node">
<title>Node3</title>
<g id="a_node3"><a xlink:href="LLU_8h.html" target="_top" xlink:title="Header file which includes all major parts of LLU.">
<polygon fill="#ffffff" stroke="#000000" points="429.5,-.5 429.5,-19.5 472.5,-19.5 472.5,-.5 429.5,-.5"/>
<text text-anchor="middle" x="451" y="-7.5" font-family="Helvetica,sans-Serif" font-size="10.00" fill="#000000">LLU.h</text>
</a>
</g>
</g>
<!-- Node2&#45;&gt;Node3 -->
<g id="edge2" class="edge">
<title>Node2&#45;&gt;Node3</title>
<path fill="none" stroke="#191970" d="M443.5854,-102.2702C445.5358,-77.9985 448.7683,-37.7725 450.2346,-19.5249"/>
<polygon fill="#191970" stroke="#191970" points="440.0797,-102.2027 442.7673,-112.4509 447.0572,-102.7635 440.0797,-102.2027"/>
</g>
<!-- Node4 -->
<g id="node4" class="node">
<title>Node4</title>
<g id="a_node4"><a xlink:href="MArgumentManager_8h.html" target="_top" xlink:title="Definition of MArgumentManager class.">
<polygon fill="#ffffff" stroke="#000000" points="271.5,-56.5 271.5,-75.5 384.5,-75.5 384.5,-56.5 271.5,-56.5"/>
<text text-anchor="middle" x="328" y="-63.5" font-family="Helvetica,sans-Serif" font-size="10.00" fill="#000000">MArgumentManager.h</text>
</a>
</g>
</g>
<!-- Node2&#45;&gt;Node4 -->
<g id="edge3" class="edge">
<title>Node2&#45;&gt;Node4</title>
<path fill="none" stroke="#191970" d="M413.1679,-107.8368C392.5605,-97.7139 365.3918,-84.3679 347.3416,-75.5011"/>
<polygon fill="#191970" stroke="#191970" points="411.884,-111.1056 422.4027,-112.3733 414.9703,-104.8227 411.884,-111.1056"/>
</g>
<!-- Node4&#45;&gt;Node3 -->
<g id="edge4" class="edge">
<title>Node4&#45;&gt;Node3</title>
<path fill="none" stroke="#191970" d="M358.5065,-52.1109C380.8112,-41.9559 410.4799,-28.4482 430.1315,-19.5011"/>
<polygon fill="#191970" stroke="#191970" points="356.7953,-49.0442 349.1445,-56.3733 359.6959,-55.415 356.7953,-49.0442"/>
</g>
<!-- Node5 -->
<g id="node5" class="node">
<title>Node5</title>
<g id="a_node5"><a xlink:href="LibraryLinkError_8cpp.html" target="_top" xlink:title="Contains definitions of ErrorManager members and implementation of interface function sendRegisteredE...">
<polygon fill="#ffffff" stroke="#000000" points="224,-.5 224,-19.5 328,-19.5 328,-.5 224,-.5"/>
<text text-anchor="middle" x="276" y="-7.5" font-family="Helvetica,sans-Serif" font-size="10.00" fill="#000000">LibraryLinkError.cpp</text>
</a>
</g>
</g>
<!-- Node4&#45;&gt;Node5 -->
<g id="edge5" class="edge">
<title>Node4&#45;&gt;Node5</title>
<path fill="none" stroke="#191970" d="M312.0178,-48.7884C303.1222,-39.2085 292.3796,-27.6396 284.9539,-19.6427"/>
<polygon fill="#191970" stroke="#191970" points="309.573,-51.2992 318.9423,-56.2455 314.7025,-46.536 309.573,-51.2992"/>
</g>
<!-- Node6 -->
<g id="node6" class="node">
<title>Node6</title>
<g id="a_node6"><a xlink:href="Logger_8cpp.html" target="_top" xlink:title="Implementation of functions defined in Logger.h.">
<polygon fill="#ffffff" stroke="#000000" points="346.5,-.5 346.5,-19.5 411.5,-19.5 411.5,-.5 346.5,-.5"/>
<text text-anchor="middle" x="379" y="-7.5" font-family="Helvetica,sans-Serif" font-size="10.00" fill="#000000">Logger.cpp</text>
</a>
</g>
</g>
<!-- Node4&#45;&gt;Node6 -->
<g id="edge6" class="edge">
<title>Node4&#45;&gt;Node6</title>
<path fill="none" stroke="#191970" d="M343.6749,-48.7884C352.3994,-39.2085 362.9354,-27.6396 370.2183,-19.6427"/>
<polygon fill="#191970" stroke="#191970" points="341.0291,-46.4954 336.8835,-56.2455 346.2046,-51.2088 341.0291,-46.4954"/>
</g>
<!-- Node7 -->
<g id="node7" class="node">
<title>Node7</title>
<g id="a_node7"><a xlink:href="MArgumentManager_8cpp.html" target="_top" xlink:title="Definitions of non&#45;template member functions and static data members from MArgumentManager class.">
<polygon fill="#ffffff" stroke="#000000" points="82.5,-.5 82.5,-19.5 205.5,-19.5 205.5,-.5 82.5,-.5"/>
<text text-anchor="middle" x="144" y="-7.5" font-family="Helvetica,sans-Serif" font-size="10.00" fill="#000000">MArgumentManager.cpp</text>
</a>
</g>
</g>
<!-- Node4&#45;&gt;Node7 -->
<g id="edge7" class="edge">
<title>Node4&#45;&gt;Node7</title>
<path fill="none" stroke="#191970" d="M286.7843,-53.4561C253.0084,-43.1765 205.9337,-28.8494 175.218,-19.5011"/>
<polygon fill="#191970" stroke="#191970" points="285.7834,-56.8099 296.3693,-56.3733 287.8216,-50.1132 285.7834,-56.8099"/>
</g>
<!-- Node8&#45;&gt;Node3 -->
<g id="edge9" class="edge">
<title>Node8&#45;&gt;Node3</title>
<path fill="none" stroke="#191970" d="M517.1492,-326.1995C516.2622,-303.8209 515,-266.3 515,-234 515,-234 515,-234 515,-122 515,-79.2252 479.374,-37.933 461.2827,-19.7219"/>
<polygon fill="#191970" stroke="#191970" points="513.6613,-326.5666 517.5702,-336.4139 520.6553,-326.2783 513.6613,-326.5666"/>
</g>
<!-- Node10 -->
<g id="node10" class="node">
<title>Node10</title>
<g id="a_node10"><a xlink:href="DataList_8h.html" target="_top" xlink:title="Definition of templated DataStore wrapper called DataList.">
<polygon fill="#ffffff" stroke="#000000" points="297,-112.5 297,-131.5 359,-131.5 359,-112.5 297,-112.5"/>
<text text-anchor="middle" x="328" y="-119.5" font-family="Helvetica,sans-Serif" font-size="10.00" fill="#000000">DataList.h</text>
</a>
</g>
</g>
<!-- Node9&#45;&gt;Node10 -->
<g id="edge11" class="edge">
<title>Node9&#45;&gt;Node10</title>
<path fill="none" stroke="#191970" d="M213.7424,-390.2727C133.8307,-372.4855 0,-335.8521 0,-290 0,-290 0,-290 0,-234 0,-171.646 214.9725,-136.8466 296.8468,-125.8541"/>
<polygon fill="#191970" stroke="#191970" points="213.1679,-393.7298 223.6853,-392.4508 214.6659,-386.8919 213.1679,-393.7298"/>
</g>
<!-- Node11 -->
<g id="node11" class="node">
<title>Node11</title>
<g id="a_node11"><a xlink:href="Generic_2DataStore_8hpp.html" target="_top" xlink:title="Definition and implementation of generic DataStore wrapper.">
<polygon fill="#ffffff" stroke="#000000" points="198,-280.5 198,-299.5 278,-299.5 278,-280.5 198,-280.5"/>
<text text-anchor="middle" x="238" y="-287.5" font-family="Helvetica,sans-Serif" font-size="10.00" fill="#000000">DataStore.hpp</text>
</a>
</g>
</g>
<!-- Node9&#45;&gt;Node11 -->
<g id="edge14" class="edge">
<title>Node9&#45;&gt;Node11</title>
<path fill="none" stroke="#191970" d="M266.1103,-382.5987C258.753,-358.363 246.456,-317.8551 240.8915,-299.5249"/>
<polygon fill="#191970" stroke="#191970" points="262.8472,-383.8988 269.1012,-392.4509 269.5454,-381.8654 262.8472,-383.8988"/>
</g>
<!-- Node12 -->
<g id="node12" class="node">
<title>Node12</title>
<g id="a_node12"><a xlink:href="DataNode_8hpp.html" target="_top" xlink:title=" ">
<polygon fill="#ffffff" stroke="#000000" points="296,-224.5 296,-243.5 376,-243.5 376,-224.5 296,-224.5"/>
<text text-anchor="middle" x="336" y="-231.5" font-family="Helvetica,sans-Serif" font-size="10.00" fill="#000000">DataNode.hpp</text>
</a>
</g>
</g>
<!-- Node9&#45;&gt;Node12 -->
<g id="edge21" class="edge">
<title>Node9&#45;&gt;Node12</title>
<path fill="none" stroke="#191970" d="M279.3422,-382.7267C293.0207,-346.8207 321.9496,-270.8822 332.256,-243.8279"/>
<polygon fill="#191970" stroke="#191970" points="275.9136,-381.8953 275.6243,-392.4862 282.455,-384.3874 275.9136,-381.8953"/>
</g>
<!-- Node9&#45;&gt;Node15 -->
<g id="edge25" class="edge">
<title>Node9&#45;&gt;Node15</title>
<path fill="none" stroke="#191970" d="M253.5567,-385.4306C214.9886,-350.7812 126.8322,-271.5818 95.9394,-243.8279"/>
<polygon fill="#191970" stroke="#191970" points="251.6323,-388.4068 261.4103,-392.4862 256.3105,-383.1995 251.6323,-388.4068"/>
</g>
<!-- Node16 -->
<g id="node16" class="node">
<title>Node16</title>
<g id="a_node16"><a xlink:href="Iterators_2DataStore_8hpp.html" target="_top" xlink:title=" ">
<polygon fill="#ffffff" stroke="#000000" points="334,-336.5 334,-355.5 414,-355.5 414,-336.5 334,-336.5"/>
<text text-anchor="middle" x="374" y="-343.5" font-family="Helvetica,sans-Serif" font-size="10.00" fill="#000000">DataStore.hpp</text>
</a>
</g>
</g>
<!-- Node9&#45;&gt;Node16 -->
<g id="edge22" class="edge">
<title>Node9&#45;&gt;Node16</title>
<path fill="none" stroke="#191970" d="M298.734,-387.3225C316.9532,-377.3198 340.5598,-364.3593 356.4366,-355.6427"/>
<polygon fill="#191970" stroke="#191970" points="296.8484,-384.3649 289.767,-392.2455 300.2173,-390.5009 296.8484,-384.3649"/>
</g>
<!-- Node10&#45;&gt;Node3 -->
<g id="edge12" class="edge">
<title>Node10&#45;&gt;Node3</title>
<path fill="none" stroke="#191970" d="M352.3822,-106.7229C365.0353,-98.3155 380.4317,-87.3122 393,-76 413.1815,-57.8354 433.3388,-33.0226 443.7485,-19.5886"/>
<polygon fill="#191970" stroke="#191970" points="350.2045,-103.9642 343.7333,-112.3532 354.0235,-109.8307 350.2045,-103.9642"/>
</g>
<!-- Node10&#45;&gt;Node4 -->
<g id="edge13" class="edge">
<title>Node10&#45;&gt;Node4</title>
<path fill="none" stroke="#191970" d="M328,-102.1575C328,-93.155 328,-82.9199 328,-75.6427"/>
<polygon fill="#191970" stroke="#191970" points="324.5001,-102.2455 328,-112.2455 331.5001,-102.2456 324.5001,-102.2455"/>
</g>
<!-- Node11&#45;&gt;Node10 -->
<g id="edge15" class="edge">
<title>Node11&#45;&gt;Node10</title>
<path fill="none" stroke="#191970" d="M213.5785,-274.3331C196.9575,-261.5613 179.5546,-242.6468 189,-224 213.008,-176.6041 270.5475,-145.8968 303.578,-131.5211"/>
<polygon fill="#191970" stroke="#191970" points="211.8883,-277.4283 222.0526,-280.4181 215.9713,-271.7424 211.8883,-277.4283"/>
</g>
<!-- Node11&#45;&gt;Node12 -->
<g id="edge16" class="edge">
<title>Node11&#45;&gt;Node12</title>
<path fill="none" stroke="#191970" d="M264.1686,-275.0465C281.6058,-265.0824 304.0111,-252.2794 319.1253,-243.6427"/>
<polygon fill="#191970" stroke="#191970" points="262.0162,-272.2453 255.0703,-280.2455 265.4892,-278.323 262.0162,-272.2453"/>
</g>
<!-- Node14 -->
<g id="node14" class="node">
<title>Node14</title>
<g id="a_node14"><a xlink:href="DataStore_8cpp.html" target="_top" xlink:title=" ">
<polygon fill="#ffffff" stroke="#000000" points="198,-224.5 198,-243.5 278,-243.5 278,-224.5 198,-224.5"/>
<text text-anchor="middle" x="238" y="-231.5" font-family="Helvetica,sans-Serif" font-size="10.00" fill="#000000">DataStore.cpp</text>
</a>
</g>
</g>
<!-- Node11&#45;&gt;Node14 -->
<g id="edge19" class="edge">
<title>Node11&#45;&gt;Node14</title>
<path fill="none" stroke="#191970" d="M238,-270.1575C238,-261.155 238,-250.9199 238,-243.6427"/>
<polygon fill="#191970" stroke="#191970" points="234.5001,-270.2455 238,-280.2455 241.5001,-270.2456 234.5001,-270.2455"/>
</g>
<!-- Node11&#45;&gt;Node15 -->
<g id="edge20" class="edge">
<title>Node11&#45;&gt;Node15</title>
<path fill="none" stroke="#191970" d="M202.2721,-276.9231C174.3029,-266.686 136.0607,-252.6889 110.9584,-243.5011"/>
<polygon fill="#191970" stroke="#191970" points="201.1046,-280.2228 211.6984,-280.3733 203.5106,-273.6493 201.1046,-280.2228"/>
</g>
<!-- Node13 -->
<g id="node13" class="node">
<title>Node13</title>
<g id="a_node13"><a xlink:href="DataList_8hpp.html" target="_top" xlink:title="Special iterators for DataLists. Iteration over keys, values, reversed iteration.">
<polygon fill="#ffffff" stroke="#000000" points="300,-168.5 300,-187.5 372,-187.5 372,-168.5 300,-168.5"/>
<text text-anchor="middle" x="336" y="-175.5" font-family="Helvetica,sans-Serif" font-size="10.00" fill="#000000">DataList.hpp</text>
</a>
</g>
</g>
<!-- Node12&#45;&gt;Node13 -->
<g id="edge17" class="edge">
<title>Node12&#45;&gt;Node13</title>
<path fill="none" stroke="#191970" d="M336,-214.1575C336,-205.155 336,-194.9199 336,-187.6427"/>
<polygon fill="#191970" stroke="#191970" points="332.5001,-214.2455 336,-224.2455 339.5001,-214.2456 332.5001,-214.2455"/>
</g>
<!-- Node13&#45;&gt;Node10 -->
<g id="edge18" class="edge">
<title>Node13&#45;&gt;Node10</title>
<path fill="none" stroke="#191970" d="M333.1654,-158.1575C331.8793,-149.155 330.4171,-138.9199 329.3775,-131.6427"/>
<polygon fill="#191970" stroke="#191970" points="329.7274,-158.8411 334.6065,-168.2455 336.657,-157.851 329.7274,-158.8411"/>
</g>
<!-- Node16&#45;&gt;Node11 -->
<g id="edge23" class="edge">
<title>Node16&#45;&gt;Node11</title>
<path fill="none" stroke="#191970" d="M341.2601,-332.5189C316.4917,-322.3201 283.095,-308.5685 261.0742,-299.5011"/>
<polygon fill="#191970" stroke="#191970" points="340.0413,-335.8021 350.6208,-336.3733 342.7066,-329.3293 340.0413,-335.8021"/>
</g>
<!-- Node16&#45;&gt;Node13 -->
<g id="edge24" class="edge">
<title>Node16&#45;&gt;Node13</title>
<path fill="none" stroke="#191970" d="M381.2787,-326.6401C389.4119,-301.7851 399.6434,-257.8318 385,-224 378.2332,-208.3661 363.2472,-195.6028 351.618,-187.5209"/>
<polygon fill="#191970" stroke="#191970" points="377.8892,-325.7301 377.8933,-336.3249 384.4971,-328.04 377.8892,-325.7301"/>
</g>
</g>
</svg>
        <g id="navigator" transform="translate(0 0)" fill="#404254">
                <rect fill="#f2f5e9" fill-opacity="0.5" stroke="#606060" stroke-width=".5" x="0" y="0" width="60" height="60"/>
                <use id="zoomplus" xlink:href="#zoomPlus" x="17" y="9" onmousedown="handleZoom(evt,'in')"/>
                <use id="zoomminus" xlink:href="#zoomMin" x="42" y="9" onmousedown="handleZoom(evt,'out')"/>
                <use id="reset" xlink:href="#resetDef" x="30" y="36" onmousedown="handleReset()"/>
                <g id="arrowUp" xlink:href="#dirArrow" transform="translate(30 24)" onmousedown="handlePan(0,-1)">
                  <use xlink:href="#rim" fill="#404040">
                        <set attributeName="fill" to="#808080" begin="arrowUp.mouseover" end="arrowUp.mouseout"/>
                  </use>
                  <path fill="none" stroke="white" stroke-width="1.5" d="M0,-3.0v7 M-2.5,-0.5L0,-3.0L2.5,-0.5"/>
                </g>
                <g id="arrowRight" xlink:href="#dirArrow" transform="rotate(90) translate(36 -43)" onmousedown="handlePan(1,0)">
                  <use xlink:href="#rim" fill="#404040">
                        <set attributeName="fill" to="#808080" begin="arrowRight.mouseover" end="arrowRight.mouseout"/>
                  </use>
                  <path fill="none" stroke="white" stroke-width="1.5" d="M0,-3.0v7 M-2.5,-0.5L0,-3.0L2.5,-0.5"/>
                </g>
                <g id="arrowDown" xlink:href="#dirArrow" transform="rotate(180) translate(-30 -48)" onmousedown="handlePan(0,1)">
                  <use xlink:href="#rim" fill="#404040">
                        <set attributeName="fill" to="#808080" begin="arrowDown.mouseover" end="arrowDown.mouseout"/>
                  </use>
                  <path fill="none" stroke="white" stroke-width="1.5" d="M0,-3.0v7 M-2.5,-0.5L0,-3.0L2.5,-0.5"/>
                </g>
                <g id="arrowLeft" xlink:href="#dirArrow" transform="rotate(270) translate(-36 17)" onmousedown="handlePan(-1,0)">
                  <use xlink:href="#rim" fill="#404040">
                        <set attributeName="fill" to="#808080" begin="arrowLeft.mouseover" end="arrowLeft.mouseout"/>
                  </use>
                  <path fill="none" stroke="white" stroke-width="1.5" d="M0,-3.0v7 M-2.5,-0.5L0,-3.0L2.5,-0.5"/>
                </g>
        </g>
        <svg viewBox="0 0 15 15" width="100%" height="30px" preserveAspectRatio="xMaxYMin meet">
         <g id="arrow_out" transform="scale(0.3 0.3)">
          <a xlink:href="Generic_2NumericArray_8hpp__dep__incl_org.svg" target="_base">
           <rect id="button" ry="5" rx="5" y="6" x="6" height="38" width="38"
                fill="#f2f5e9" fill-opacity="0.5" stroke="#606060" stroke-width="1.0"/>
           <path id="arrow"
             d="M 11.500037,31.436501 C 11.940474,20.09759 22.043105,11.32322 32.158766,21.979434 L 37.068811,17.246167 C 37.068811,17.246167 37.088388,32 37.088388,32 L 22.160133,31.978069 C 22.160133,31.978069 26.997745,27.140456 26.997745,27.140456 C 18.528582,18.264221 13.291696,25.230495 11.500037,31.436501 z"
             style="fill:#404040;"/>
          </a>
         </g>
        </svg>
</svg>
