<?xml version="1.0" encoding="UTF-8" standalone="no"?>
<!DOCTYPE svg PUBLIC "-//W3C//DTD SVG 1.1//EN"
 "http://www.w3.org/Graphics/SVG/1.1/DTD/svg11.dtd">
<!-- Generated by graphviz version 2.40.1 (20161225.0304)
 -->
<!-- Title: DataStore.hpp Pages: 1 -->
<svg width="398pt" height="308pt"
 viewBox="0.00 0.00 398.00 308.00" xmlns="http://www.w3.org/2000/svg" xmlns:xlink="http://www.w3.org/1999/xlink">
<g id="graph0" class="graph" transform="scale(1 1) rotate(0) translate(4 304)">
<title>DataStore.hpp</title>
<polygon fill="#ffffff" stroke="transparent" points="-4,4 -4,-304 394,-304 394,4 -4,4"/>
<!-- Node1 -->
<g id="node1" class="node">
<title>Node1</title>
<g id="a_node1"><a xlink:title="Definition and implementation of generic DataStore wrapper.">
<polygon fill="#bfbfbf" stroke="#000000" points="112.5,-280.5 112.5,-299.5 192.5,-299.5 192.5,-280.5 112.5,-280.5"/>
<text text-anchor="middle" x="152.5" y="-287.5" font-family="Helvetica,sans-Serif" font-size="10.00" fill="#000000">DataStore.hpp</text>
</a>
</g>
</g>
<!-- Node2 -->
<g id="node2" class="node">
<title>Node2</title>
<g id="a_node2"><a xlink:href="DataList_8h.html" target="_top" xlink:title="Definition of templated DataStore wrapper called DataList.">
<polygon fill="#ffffff" stroke="#000000" points="36.5,-112.5 36.5,-131.5 98.5,-131.5 98.5,-112.5 36.5,-112.5"/>
<text text-anchor="middle" x="67.5" y="-119.5" font-family="Helvetica,sans-Serif" font-size="10.00" fill="#000000">DataList.h</text>
</a>
</g>
</g>
<!-- Node1&#45;&gt;Node2 -->
<g id="edge1" class="edge">
<title>Node1&#45;&gt;Node2</title>
<path fill="none" stroke="#191970" d="M102.8806,-278.7799C84.4291,-271.9417 65.3568,-261.0894 54.5,-244 31.656,-208.0419 52.4403,-153.8054 62.6266,-131.7976"/>
<polygon fill="#191970" stroke="#191970" points="101.8319,-282.1199 112.4261,-282.0018 104.0706,-275.4875 101.8319,-282.1199"/>
</g>
<!-- Node8 -->
<g id="node8" class="node">
<title>Node8</title>
<g id="a_node8"><a xlink:href="DataNode_8hpp.html" target="_top" xlink:title=" ">
<polygon fill="#ffffff" stroke="#000000" points="63.5,-224.5 63.5,-243.5 143.5,-243.5 143.5,-224.5 63.5,-224.5"/>
<text text-anchor="middle" x="103.5" y="-231.5" font-family="Helvetica,sans-Serif" font-size="10.00" fill="#000000">DataNode.hpp</text>
</a>
</g>
</g>
<!-- Node1&#45;&gt;Node8 -->
<g id="edge8" class="edge">
<title>Node1&#45;&gt;Node8</title>
<path fill="none" stroke="#191970" d="M137.1878,-272.5004C128.8553,-262.9775 118.8647,-251.5596 111.9373,-243.6427"/>
<polygon fill="#191970" stroke="#191970" points="134.7457,-275.0245 143.9649,-280.2455 140.0138,-270.415 134.7457,-275.0245"/>
</g>
<!-- Node10 -->
<g id="node10" class="node">
<title>Node10</title>
<g id="a_node10"><a xlink:href="DataStore_8cpp.html" target="_top" xlink:title=" ">
<polygon fill="#ffffff" stroke="#000000" points="161.5,-224.5 161.5,-243.5 241.5,-243.5 241.5,-224.5 161.5,-224.5"/>
<text text-anchor="middle" x="201.5" y="-231.5" font-family="Helvetica,sans-Serif" font-size="10.00" fill="#000000">DataStore.cpp</text>
</a>
</g>
</g>
<!-- Node1&#45;&gt;Node10 -->
<g id="edge11" class="edge">
<title>Node1&#45;&gt;Node10</title>
<path fill="none" stroke="#191970" d="M167.8122,-272.5004C176.1447,-262.9775 186.1353,-251.5596 193.0627,-243.6427"/>
<polygon fill="#191970" stroke="#191970" points="164.9862,-270.415 161.0351,-280.2455 170.2543,-275.0245 164.9862,-270.415"/>
</g>
<!-- Node11 -->
<g id="node11" class="node">
<title>Node11</title>
<g id="a_node11"><a xlink:href="TypedMArgument_8cpp.html" target="_top" xlink:title=" ">
<polygon fill="#ffffff" stroke="#000000" points="260,-224.5 260,-243.5 373,-243.5 373,-224.5 260,-224.5"/>
<text text-anchor="middle" x="316.5" y="-231.5" font-family="Helvetica,sans-Serif" font-size="10.00" fill="#000000">TypedMArgument.cpp</text>
</a>
</g>
</g>
<!-- Node1&#45;&gt;Node11 -->
<g id="edge12" class="edge">
<title>Node1&#45;&gt;Node11</title>
<path fill="none" stroke="#191970" d="M190.4044,-277.057C220.4184,-266.8084 261.6507,-252.729 288.6753,-243.5011"/>
<polygon fill="#191970" stroke="#191970" points="189.0251,-273.8295 180.6926,-280.3733 191.2871,-280.454 189.0251,-273.8295"/>
</g>
<!-- Node3 -->
<g id="node3" class="node">
<title>Node3</title>
<g id="a_node3"><a xlink:href="LLU_8h.html" target="_top" xlink:title="Header file which includes all major parts of LLU.">
<polygon fill="#ffffff" stroke="#000000" points="0,-.5 0,-19.5 43,-19.5 43,-.5 0,-.5"/>
<text text-anchor="middle" x="21.5" y="-7.5" font-family="Helvetica,sans-Serif" font-size="10.00" fill="#000000">LLU.h</text>
</a>
</g>
</g>
<!-- Node2&#45;&gt;Node3 -->
<g id="edge2" class="edge">
<title>Node2&#45;&gt;Node3</title>
<path fill="none" stroke="#191970" d="M59.6368,-103.0035C56.2097,-94.7137 52.1495,-84.8783 48.5,-76 40.3101,-56.0763 30.78,-32.746 25.5151,-19.8442"/>
<polygon fill="#191970" stroke="#191970" points="56.5038,-104.5864 63.5606,-112.4891 62.9722,-101.9106 56.5038,-104.5864"/>
</g>
<!-- Node4 -->
<g id="node4" class="node">
<title>Node4</title>
<g id="a_node4"><a xlink:href="MArgumentManager_8h.html" target="_top" xlink:title="Definition of MArgumentManager class.">
<polygon fill="#ffffff" stroke="#000000" points="57,-56.5 57,-75.5 170,-75.5 170,-56.5 57,-56.5"/>
<text text-anchor="middle" x="113.5" y="-63.5" font-family="Helvetica,sans-Serif" font-size="10.00" fill="#000000">MArgumentManager.h</text>
</a>
</g>
</g>
<!-- Node2&#45;&gt;Node4 -->
<g id="edge3" class="edge">
<title>Node2&#45;&gt;Node4</title>
<path fill="none" stroke="#191970" d="M81.8747,-104.5004C89.6971,-94.9775 99.076,-83.5596 105.5792,-75.6427"/>
<polygon fill="#191970" stroke="#191970" points="79.1555,-102.2967 75.5126,-112.2455 84.5646,-106.7399 79.1555,-102.2967"/>
</g>
<!-- Node4&#45;&gt;Node3 -->
<g id="edge4" class="edge">
<title>Node4&#45;&gt;Node3</title>
<path fill="none" stroke="#191970" d="M88.4776,-50.769C72.175,-40.8456 51.399,-28.1994 37.3415,-19.6427"/>
<polygon fill="#191970" stroke="#191970" points="87.113,-54.0357 97.4748,-56.2455 90.7527,-48.0563 87.113,-54.0357"/>
</g>
<!-- Node5 -->
<g id="node5" class="node">
<title>Node5</title>
<g id="a_node5"><a xlink:href="LibraryLinkError_8cpp.html" target="_top" xlink:title="Contains definitions of ErrorManager members and implementation of interface function sendRegisteredE...">
<polygon fill="#ffffff" stroke="#000000" points="61.5,-.5 61.5,-19.5 165.5,-19.5 165.5,-.5 61.5,-.5"/>
<text text-anchor="middle" x="113.5" y="-7.5" font-family="Helvetica,sans-Serif" font-size="10.00" fill="#000000">LibraryLinkError.cpp</text>
</a>
</g>
</g>
<!-- Node4&#45;&gt;Node5 -->
<g id="edge5" class="edge">
<title>Node4&#45;&gt;Node5</title>
<path fill="none" stroke="#191970" d="M113.5,-46.1575C113.5,-37.155 113.5,-26.9199 113.5,-19.6427"/>
<polygon fill="#191970" stroke="#191970" points="110.0001,-46.2455 113.5,-56.2455 117.0001,-46.2456 110.0001,-46.2455"/>
</g>
<!-- Node6 -->
<g id="node6" class="node">
<title>Node6</title>
<g id="a_node6"><a xlink:href="Logger_8cpp.html" target="_top" xlink:title="Implementation of functions defined in Logger.h.">
<polygon fill="#ffffff" stroke="#000000" points="184,-.5 184,-19.5 249,-19.5 249,-.5 184,-.5"/>
<text text-anchor="middle" x="216.5" y="-7.5" font-family="Helvetica,sans-Serif" font-size="10.00" fill="#000000">Logger.cpp</text>
</a>
</g>
</g>
<!-- Node4&#45;&gt;Node6 -->
<g id="edge6" class="edge">
<title>Node4&#45;&gt;Node6</title>
<path fill="none" stroke="#191970" d="M140.2432,-51.46C158.675,-41.4388 182.6584,-28.3993 198.7644,-19.6427"/>
<polygon fill="#191970" stroke="#191970" points="138.5549,-48.394 131.4412,-56.2455 141.8985,-54.5438 138.5549,-48.394"/>
</g>
<!-- Node7 -->
<g id="node7" class="node">
<title>Node7</title>
<g id="a_node7"><a xlink:href="MArgumentManager_8cpp.html" target="_top" xlink:title="Definitions of non&#45;template member functions and static data members from MArgumentManager class.">
<polygon fill="#ffffff" stroke="#000000" points="267,-.5 267,-19.5 390,-19.5 390,-.5 267,-.5"/>
<text text-anchor="middle" x="328.5" y="-7.5" font-family="Helvetica,sans-Serif" font-size="10.00" fill="#000000">MArgumentManager.cpp</text>
</a>
</g>
</g>
<!-- Node4&#45;&gt;Node7 -->
<g id="edge7" class="edge">
<title>Node4&#45;&gt;Node7</title>
<path fill="none" stroke="#191970" d="M160.143,-53.8511C199.7064,-43.5462 255.6697,-28.9697 292.0225,-19.5011"/>
<polygon fill="#191970" stroke="#191970" points="159.2547,-50.4656 150.4598,-56.3733 161.0192,-57.2396 159.2547,-50.4656"/>
</g>
<!-- Node9 -->
<g id="node9" class="node">
<title>Node9</title>
<g id="a_node9"><a xlink:href="DataList_8hpp.html" target="_top" xlink:title="Special iterators for DataLists. Iteration over keys, values, reversed iteration.">
<polygon fill="#ffffff" stroke="#000000" points="65.5,-168.5 65.5,-187.5 137.5,-187.5 137.5,-168.5 65.5,-168.5"/>
<text text-anchor="middle" x="101.5" y="-175.5" font-family="Helvetica,sans-Serif" font-size="10.00" fill="#000000">DataList.hpp</text>
</a>
</g>
</g>
<!-- Node8&#45;&gt;Node9 -->
<g id="edge9" class="edge">
<title>Node8&#45;&gt;Node9</title>
<path fill="none" stroke="#191970" d="M102.7913,-214.1575C102.4698,-205.155 102.1043,-194.9199 101.8444,-187.6427"/>
<polygon fill="#191970" stroke="#191970" points="99.2968,-214.3769 103.1516,-224.2455 106.2924,-214.127 99.2968,-214.3769"/>
</g>
<!-- Node9&#45;&gt;Node2 -->
<g id="edge10" class="edge">
<title>Node9&#45;&gt;Node2</title>
<path fill="none" stroke="#191970" d="M90.3465,-159.6296C84.6753,-150.2887 78.0155,-139.3197 73.3545,-131.6427"/>
<polygon fill="#191970" stroke="#191970" points="87.3961,-161.5141 95.5777,-168.2455 93.3796,-157.8812 87.3961,-161.5141"/>
</g>
</g>
</svg>
