<?xml version="1.0" encoding="UTF-8" standalone="no"?>
<!DOCTYPE svg PUBLIC "-//W3C//DTD SVG 1.1//EN"
 "http://www.w3.org/Graphics/SVG/1.1/DTD/svg11.dtd">
<!-- Generated by graphviz version 2.40.1 (20161225.0304)
 -->
<!-- Title: Get.h Pages: 1 -->
<svg width="958pt" height="252pt"
 viewBox="0.00 0.00 957.70 252.00" xmlns="http://www.w3.org/2000/svg" xmlns:xlink="http://www.w3.org/1999/xlink">
<g id="graph0" class="graph" transform="scale(1 1) rotate(0) translate(4 248)">
<title>Get.h</title>
<polygon fill="#ffffff" stroke="transparent" points="-4,4 -4,-248 953.6977,-248 953.6977,4 -4,4"/>
<!-- Node1 -->
<g id="node1" class="node">
<title>Node1</title>
<g id="a_node1"><a xlink:title="Header file with classes related to reading data from WSTP.">
<polygon fill="#bfbfbf" stroke="#000000" points="223.1977,-224.5 223.1977,-243.5 264.1977,-243.5 264.1977,-224.5 223.1977,-224.5"/>
<text text-anchor="middle" x="243.6977" y="-231.5" font-family="Helvetica,sans-Serif" font-size="10.00" fill="#000000">Get.h</text>
</a>
</g>
</g>
<!-- Node2 -->
<g id="node2" class="node">
<title>Node2</title>
<g id="a_node2"><a xlink:title=" ">
<polygon fill="#ffffff" stroke="#bfbfbf" points="13.1977,-112.5 13.1977,-131.5 72.1977,-131.5 72.1977,-112.5 13.1977,-112.5"/>
<text text-anchor="middle" x="42.6977" y="-119.5" font-family="Helvetica,sans-Serif" font-size="10.00" fill="#000000">functional</text>
</a>
</g>
</g>
<!-- Node1&#45;&gt;Node2 -->
<g id="edge1" class="edge">
<title>Node1&#45;&gt;Node2</title>
<path fill="none" stroke="#191970" d="M222.8542,-232.4552C175.9118,-228.4986 64.2421,-216.2554 41.6977,-188 31.446,-175.1512 32.9963,-155.9809 36.3417,-141.6067"/>
<polygon fill="#191970" stroke="#191970" points="39.78,-142.3056 39.0841,-131.7337 33.0354,-140.4321 39.78,-142.3056"/>
</g>
<!-- Node3 -->
<g id="node3" class="node">
<title>Node3</title>
<g id="a_node3"><a xlink:title=" ">
<polygon fill="#ffffff" stroke="#bfbfbf" points="99.6977,-.5 99.6977,-19.5 151.6977,-19.5 151.6977,-.5 99.6977,-.5"/>
<text text-anchor="middle" x="125.6977" y="-7.5" font-family="Helvetica,sans-Serif" font-size="10.00" fill="#000000">memory</text>
</a>
</g>
</g>
<!-- Node1&#45;&gt;Node3 -->
<g id="edge2" class="edge">
<title>Node1&#45;&gt;Node3</title>
<path fill="none" stroke="#191970" d="M238.6274,-224.375C220.6234,-190.1979 159.5645,-74.2894 135.5319,-28.6683"/>
<polygon fill="#191970" stroke="#191970" points="138.5065,-26.8054 130.7492,-19.5891 132.3133,-30.0679 138.5065,-26.8054"/>
</g>
<!-- Node4 -->
<g id="node4" class="node">
<title>Node4</title>
<g id="a_node4"><a xlink:title=" ">
<polygon fill="#ffffff" stroke="#bfbfbf" points="662.1977,-56.5 662.1977,-75.5 703.1977,-75.5 703.1977,-56.5 662.1977,-56.5"/>
<text text-anchor="middle" x="682.6977" y="-63.5" font-family="Helvetica,sans-Serif" font-size="10.00" fill="#000000">string</text>
</a>
</g>
</g>
<!-- Node1&#45;&gt;Node4 -->
<g id="edge3" class="edge">
<title>Node1&#45;&gt;Node4</title>
<path fill="none" stroke="#191970" d="M264.2865,-233.4059C352.2442,-230.3769 694.6808,-213.4283 753.6977,-132 769.3548,-110.3972 738.3927,-90.2399 712.5461,-78.0222"/>
<polygon fill="#191970" stroke="#191970" points="713.9072,-74.7967 703.351,-73.8922 711.0391,-81.1822 713.9072,-74.7967"/>
</g>
<!-- Node5 -->
<g id="node5" class="node">
<title>Node5</title>
<g id="a_node5"><a xlink:title=" ">
<polygon fill="#ffffff" stroke="#bfbfbf" points="35.6977,-.5 35.6977,-19.5 81.6977,-19.5 81.6977,-.5 35.6977,-.5"/>
<text text-anchor="middle" x="58.6977" y="-7.5" font-family="Helvetica,sans-Serif" font-size="10.00" fill="#000000">wstp.h</text>
</a>
</g>
</g>
<!-- Node1&#45;&gt;Node5 -->
<g id="edge4" class="edge">
<title>Node1&#45;&gt;Node5</title>
<path fill="none" stroke="#191970" d="M223.1524,-231.9205C175.5905,-226.7454 59.688,-211.9523 29.6977,-188 1.8028,-165.7212 -5.0398,-146.6139 3.6977,-112 11.7318,-80.1727 31.8664,-47.4821 45.4136,-27.9571"/>
<polygon fill="#191970" stroke="#191970" points="48.3257,-29.9015 51.2801,-19.7269 42.6256,-25.8384 48.3257,-29.9015"/>
</g>
<!-- Node6 -->
<g id="node6" class="node">
<title>Node6</title>
<g id="a_node6"><a xlink:href="Errors_8h.html" target="_top" xlink:title="Definitions of error names and error codes used across LLU.">
<polygon fill="#ffffff" stroke="#000000" points="632.6977,-112.5 632.6977,-131.5 744.6977,-131.5 744.6977,-112.5 632.6977,-112.5"/>
<text text-anchor="middle" x="688.6977" y="-119.5" font-family="Helvetica,sans-Serif" font-size="10.00" fill="#000000">LLU/ErrorLog/Errors.h</text>
</a>
</g>
</g>
<!-- Node1&#45;&gt;Node6 -->
<g id="edge5" class="edge">
<title>Node1&#45;&gt;Node6</title>
<path fill="none" stroke="#191970" d="M264.421,-232.7538C313.6283,-229.3791 440.9942,-218.1952 542.6977,-188 586.541,-174.9832 634.2896,-151.4629 662.843,-136.2998"/>
<polygon fill="#191970" stroke="#191970" points="664.6081,-139.3246 671.7571,-131.5052 661.2922,-133.1598 664.6081,-139.3246"/>
</g>
<!-- Node7 -->
<g id="node7" class="node">
<title>Node7</title>
<g id="a_node7"><a xlink:href="Utilities_8hpp.html" target="_top" xlink:title="Short but generally useful functions.">
<polygon fill="#ffffff" stroke="#000000" points="251.1977,-112.5 251.1977,-131.5 340.1977,-131.5 340.1977,-112.5 251.1977,-112.5"/>
<text text-anchor="middle" x="295.6977" y="-119.5" font-family="Helvetica,sans-Serif" font-size="10.00" fill="#000000">LLU/Utilities.hpp</text>
</a>
</g>
</g>
<!-- Node1&#45;&gt;Node7 -->
<g id="edge7" class="edge">
<title>Node1&#45;&gt;Node7</title>
<path fill="none" stroke="#191970" d="M248.1312,-224.4509C256.7274,-205.936 275.7989,-164.8591 287.0069,-140.7187"/>
<polygon fill="#191970" stroke="#191970" points="290.2388,-142.0689 291.2755,-131.5249 283.8898,-139.1211 290.2388,-142.0689"/>
</g>
<!-- Node20 -->
<g id="node20" class="node">
<title>Node20</title>
<g id="a_node20"><a xlink:href="Release_8h.html" target="_top" xlink:title="Header file with classes responsible for releasing memory allocated by WSTP when receiving data.">
<polygon fill="#ffffff" stroke="#000000" points="50.6977,-168.5 50.6977,-187.5 164.6977,-187.5 164.6977,-168.5 50.6977,-168.5"/>
<text text-anchor="middle" x="107.6977" y="-175.5" font-family="Helvetica,sans-Serif" font-size="10.00" fill="#000000">LLU/WSTP/Release.h</text>
</a>
</g>
</g>
<!-- Node1&#45;&gt;Node20 -->
<g id="edge22" class="edge">
<title>Node1&#45;&gt;Node20</title>
<path fill="none" stroke="#191970" d="M223.0423,-225.4948C201.035,-216.433 165.8935,-201.963 140.1763,-191.3735"/>
<polygon fill="#191970" stroke="#191970" points="141.4079,-188.0956 130.8284,-187.5244 138.7426,-194.5683 141.4079,-188.0956"/>
</g>
<!-- Node21 -->
<g id="node21" class="node">
<title>Node21</title>
<g id="a_node21"><a xlink:href="WSTP_2Utilities_8h.html" target="_top" xlink:title="Header file with miscellaneous utilities used throughout the WSTP&#45;related part of LibraryLinkUtilitie...">
<polygon fill="#ffffff" stroke="#000000" points="422.1977,-168.5 422.1977,-187.5 533.1977,-187.5 533.1977,-168.5 422.1977,-168.5"/>
<text text-anchor="middle" x="477.6977" y="-175.5" font-family="Helvetica,sans-Serif" font-size="10.00" fill="#000000">LLU/WSTP/Utilities.h</text>
</a>
</g>
</g>
<!-- Node1&#45;&gt;Node21 -->
<g id="edge26" class="edge">
<title>Node1&#45;&gt;Node21</title>
<path fill="none" stroke="#191970" d="M264.4637,-229.0304C300.8507,-220.3224 377.082,-202.079 427.8359,-189.9328"/>
<polygon fill="#191970" stroke="#191970" points="428.7168,-193.3208 437.6276,-187.5894 427.0875,-186.5131 428.7168,-193.3208"/>
</g>
<!-- Node6&#45;&gt;Node4 -->
<g id="edge6" class="edge">
<title>Node6&#45;&gt;Node4</title>
<path fill="none" stroke="#191970" d="M687.6526,-112.2455C686.8697,-104.9382 685.7721,-94.6944 684.8089,-85.7046"/>
<polygon fill="#191970" stroke="#191970" points="688.2764,-85.2129 683.7309,-75.6427 681.3162,-85.9587 688.2764,-85.2129"/>
</g>
<!-- Node8 -->
<g id="node8" class="node">
<title>Node8</title>
<g id="a_node8"><a xlink:title=" ">
<polygon fill="#ffffff" stroke="#bfbfbf" points="269.1977,-56.5 269.1977,-75.5 322.1977,-75.5 322.1977,-56.5 269.1977,-56.5"/>
<text text-anchor="middle" x="295.6977" y="-63.5" font-family="Helvetica,sans-Serif" font-size="10.00" fill="#000000">complex</text>
</a>
</g>
</g>
<!-- Node7&#45;&gt;Node8 -->
<g id="edge8" class="edge">
<title>Node7&#45;&gt;Node8</title>
<path fill="none" stroke="#191970" d="M295.6977,-112.2455C295.6977,-104.9382 295.6977,-94.6944 295.6977,-85.7046"/>
<polygon fill="#191970" stroke="#191970" points="299.1978,-85.6426 295.6977,-75.6427 292.1978,-85.6427 299.1978,-85.6426"/>
</g>
<!-- Node9 -->
<g id="node9" class="node">
<title>Node9</title>
<g id="a_node9"><a xlink:title=" ">
<polygon fill="#ffffff" stroke="#bfbfbf" points="592.6977,-56.5 592.6977,-75.5 638.6977,-75.5 638.6977,-56.5 592.6977,-56.5"/>
<text text-anchor="middle" x="615.6977" y="-63.5" font-family="Helvetica,sans-Serif" font-size="10.00" fill="#000000">cstdint</text>
</a>
</g>
</g>
<!-- Node7&#45;&gt;Node9 -->
<g id="edge9" class="edge">
<title>Node7&#45;&gt;Node9</title>
<path fill="none" stroke="#191970" d="M340.4682,-113.6006C343.5898,-113.0484 346.6896,-112.5098 349.6977,-112 450.3013,-94.9502 479.442,-99.4574 582.5163,-76.0075"/>
<polygon fill="#191970" stroke="#191970" points="583.4339,-79.3878 592.3903,-73.7281 581.8593,-72.5672 583.4339,-79.3878"/>
</g>
<!-- Node10 -->
<g id="node10" class="node">
<title>Node10</title>
<g id="a_node10"><a xlink:title=" ">
<polygon fill="#ffffff" stroke="#bfbfbf" points="454.6977,-56.5 454.6977,-75.5 516.6977,-75.5 516.6977,-56.5 454.6977,-56.5"/>
<text text-anchor="middle" x="485.6977" y="-63.5" font-family="Helvetica,sans-Serif" font-size="10.00" fill="#000000">type_traits</text>
</a>
</g>
</g>
<!-- Node7&#45;&gt;Node10 -->
<g id="edge10" class="edge">
<title>Node7&#45;&gt;Node10</title>
<path fill="none" stroke="#191970" d="M328.3599,-112.3733C360.5173,-102.8953 409.7363,-88.3886 444.5491,-78.128"/>
<polygon fill="#191970" stroke="#191970" points="445.8046,-81.4069 454.4071,-75.2225 443.8255,-74.6925 445.8046,-81.4069"/>
</g>
<!-- Node11 -->
<g id="node11" class="node">
<title>Node11</title>
<g id="a_node11"><a xlink:title=" ">
<polygon fill="#ffffff" stroke="#bfbfbf" points="534.6977,-56.5 534.6977,-75.5 574.6977,-75.5 574.6977,-56.5 534.6977,-56.5"/>
<text text-anchor="middle" x="554.6977" y="-63.5" font-family="Helvetica,sans-Serif" font-size="10.00" fill="#000000">utility</text>
</a>
</g>
</g>
<!-- Node7&#45;&gt;Node11 -->
<g id="edge11" class="edge">
<title>Node7&#45;&gt;Node11</title>
<path fill="none" stroke="#191970" d="M340.3136,-113.4127C396.0473,-102.6391 487.7828,-84.7392 524.6115,-75.8823"/>
<polygon fill="#191970" stroke="#191970" points="525.7046,-79.2155 534.5243,-73.345 523.9687,-72.4341 525.7046,-79.2155"/>
</g>
<!-- Node12 -->
<g id="node12" class="node">
<title>Node12</title>
<g id="a_node12"><a xlink:title=" ">
<polygon fill="#ffffff" stroke="#bfbfbf" points="204.6977,-56.5 204.6977,-75.5 250.6977,-75.5 250.6977,-56.5 204.6977,-56.5"/>
<text text-anchor="middle" x="227.6977" y="-63.5" font-family="Helvetica,sans-Serif" font-size="10.00" fill="#000000">variant</text>
</a>
</g>
</g>
<!-- Node7&#45;&gt;Node12 -->
<g id="edge12" class="edge">
<title>Node7&#45;&gt;Node12</title>
<path fill="none" stroke="#191970" d="M283.853,-112.2455C273.8098,-103.9746 259.1983,-91.9416 247.3974,-82.2232"/>
<polygon fill="#191970" stroke="#191970" points="249.351,-79.298 239.4067,-75.6427 244.901,-84.7015 249.351,-79.298"/>
</g>
<!-- Node13 -->
<g id="node13" class="node">
<title>Node13</title>
<g id="a_node13"><a xlink:href="LibraryData_8h.html" target="_top" xlink:title=" ">
<polygon fill="#ffffff" stroke="#000000" points="340.6977,-56.5 340.6977,-75.5 436.6977,-75.5 436.6977,-56.5 340.6977,-56.5"/>
<text text-anchor="middle" x="388.6977" y="-63.5" font-family="Helvetica,sans-Serif" font-size="10.00" fill="#000000">LLU/LibraryData.h</text>
</a>
</g>
</g>
<!-- Node7&#45;&gt;Node13 -->
<g id="edge13" class="edge">
<title>Node7&#45;&gt;Node13</title>
<path fill="none" stroke="#191970" d="M311.8971,-112.2455C326.2995,-103.5731 347.571,-90.7645 364.0777,-80.825"/>
<polygon fill="#191970" stroke="#191970" points="365.9227,-83.7996 372.684,-75.6427 362.3117,-77.8028 365.9227,-83.7996"/>
</g>
<!-- Node13&#45;&gt;Node3 -->
<g id="edge14" class="edge">
<title>Node13&#45;&gt;Node3</title>
<path fill="none" stroke="#191970" d="M340.6525,-57.2898C294.5563,-48.6914 223.0869,-34.7267 161.6977,-20 161.5992,-19.9764 161.5005,-19.9526 161.4016,-19.9288"/>
<polygon fill="#191970" stroke="#191970" points="162.5419,-16.6075 151.9877,-17.5349 160.8167,-23.3915 162.5419,-16.6075"/>
</g>
<!-- Node13&#45;&gt;Node5 -->
<g id="edge16" class="edge">
<title>Node13&#45;&gt;Node5</title>
<path fill="none" stroke="#191970" d="M340.5102,-57.4575C337.5295,-56.9565 334.5737,-56.467 331.6977,-56 227.9302,-39.1501 197.9932,-43.9165 91.8274,-19.9866"/>
<polygon fill="#191970" stroke="#191970" points="92.5309,-16.5572 82.0023,-17.7401 90.9706,-23.3811 92.5309,-16.5572"/>
</g>
<!-- Node14 -->
<g id="node14" class="node">
<title>Node14</title>
<g id="a_node14"><a xlink:title=" ">
<polygon fill="#ffffff" stroke="#bfbfbf" points="479.6977,-.5 479.6977,-19.5 541.6977,-19.5 541.6977,-.5 479.6977,-.5"/>
<text text-anchor="middle" x="510.6977" y="-7.5" font-family="Helvetica,sans-Serif" font-size="10.00" fill="#000000">dllexport.h</text>
</a>
</g>
</g>
<!-- Node13&#45;&gt;Node14 -->
<g id="edge15" class="edge">
<title>Node13&#45;&gt;Node14</title>
<path fill="none" stroke="#191970" d="M409.6703,-56.3733C429.2545,-47.3838 458.6938,-33.8706 480.7487,-23.7471"/>
<polygon fill="#191970" stroke="#191970" points="482.3707,-26.8538 489.9989,-19.5011 479.4504,-20.4919 482.3707,-26.8538"/>
</g>
<!-- Node15 -->
<g id="node15" class="node">
<title>Node15</title>
<g id="a_node15"><a xlink:title=" ">
<polygon fill="#ffffff" stroke="#bfbfbf" points="560.1977,-.5 560.1977,-19.5 651.1977,-19.5 651.1977,-.5 560.1977,-.5"/>
<text text-anchor="middle" x="605.6977" y="-7.5" font-family="Helvetica,sans-Serif" font-size="10.00" fill="#000000">WolframLibrary.h</text>
</a>
</g>
</g>
<!-- Node13&#45;&gt;Node15 -->
<g id="edge17" class="edge">
<title>Node13&#45;&gt;Node15</title>
<path fill="none" stroke="#191970" d="M426.0014,-56.3733C462.8662,-46.8598 519.3637,-32.2797 559.1484,-22.0127"/>
<polygon fill="#191970" stroke="#191970" points="560.0727,-25.3889 568.8809,-19.5011 558.3235,-18.611 560.0727,-25.3889"/>
</g>
<!-- Node16 -->
<g id="node16" class="node">
<title>Node16</title>
<g id="a_node16"><a xlink:title=" ">
<polygon fill="#ffffff" stroke="#bfbfbf" points="669.6977,-.5 669.6977,-19.5 813.6977,-19.5 813.6977,-.5 669.6977,-.5"/>
<text text-anchor="middle" x="741.6977" y="-7.5" font-family="Helvetica,sans-Serif" font-size="10.00" fill="#000000">WolframIOLibraryFunctions.h</text>
</a>
</g>
</g>
<!-- Node13&#45;&gt;Node16 -->
<g id="edge18" class="edge">
<title>Node13&#45;&gt;Node16</title>
<path fill="none" stroke="#191970" d="M436.8885,-57.4774C439.8684,-56.9715 442.8232,-56.4755 445.6977,-56 521.3619,-43.4847 608.0761,-30.1239 668.0017,-21.0448"/>
<polygon fill="#191970" stroke="#191970" points="668.7618,-24.4697 678.1257,-19.513 667.7146,-17.5484 668.7618,-24.4697"/>
</g>
<!-- Node17 -->
<g id="node17" class="node">
<title>Node17</title>
<g id="a_node17"><a xlink:title=" ">
<polygon fill="#ffffff" stroke="#bfbfbf" points="831.6977,-.5 831.6977,-19.5 949.6977,-19.5 949.6977,-.5 831.6977,-.5"/>
<text text-anchor="middle" x="890.6977" y="-7.5" font-family="Helvetica,sans-Serif" font-size="10.00" fill="#000000">WolframImageLibrary.h</text>
</a>
</g>
</g>
<!-- Node13&#45;&gt;Node17 -->
<g id="edge19" class="edge">
<title>Node13&#45;&gt;Node17</title>
<path fill="none" stroke="#191970" d="M436.8584,-57.2771C439.8458,-56.8209 442.8104,-56.3905 445.6977,-56 609.239,-33.8807 653.8717,-39.9963 821.2337,-20.1229"/>
<polygon fill="#191970" stroke="#191970" points="821.8722,-23.5714 831.3834,-18.9039 821.0374,-16.6214 821.8722,-23.5714"/>
</g>
<!-- Node18 -->
<g id="node18" class="node">
<title>Node18</title>
<g id="a_node18"><a xlink:title=" ">
<polygon fill="#ffffff" stroke="#bfbfbf" points="170.1977,-.5 170.1977,-19.5 321.1977,-19.5 321.1977,-.5 170.1977,-.5"/>
<text text-anchor="middle" x="245.6977" y="-7.5" font-family="Helvetica,sans-Serif" font-size="10.00" fill="#000000">WolframNumericArrayLibrary.h</text>
</a>
</g>
</g>
<!-- Node13&#45;&gt;Node18 -->
<g id="edge20" class="edge">
<title>Node13&#45;&gt;Node18</title>
<path fill="none" stroke="#191970" d="M364.1152,-56.3733C340.7482,-47.2226 305.4115,-33.3844 279.4193,-23.2057"/>
<polygon fill="#191970" stroke="#191970" points="280.5473,-19.8886 269.9595,-19.5011 277.9947,-26.4066 280.5473,-19.8886"/>
</g>
<!-- Node19 -->
<g id="node19" class="node">
<title>Node19</title>
<g id="a_node19"><a xlink:title=" ">
<polygon fill="#ffffff" stroke="#bfbfbf" points="339.6977,-.5 339.6977,-19.5 461.6977,-19.5 461.6977,-.5 339.6977,-.5"/>
<text text-anchor="middle" x="400.6977" y="-7.5" font-family="Helvetica,sans-Serif" font-size="10.00" fill="#000000">WolframSparseLibrary.h</text>
</a>
</g>
</g>
<!-- Node13&#45;&gt;Node19 -->
<g id="edge21" class="edge">
<title>Node13&#45;&gt;Node19</title>
<path fill="none" stroke="#191970" d="M390.788,-56.2455C392.3538,-48.9382 394.5489,-38.6944 396.4753,-29.7046"/>
<polygon fill="#191970" stroke="#191970" points="399.9584,-30.1541 398.6314,-19.6427 393.1138,-28.6873 399.9584,-30.1541"/>
</g>
<!-- Node20&#45;&gt;Node2 -->
<g id="edge23" class="edge">
<title>Node20&#45;&gt;Node2</title>
<path fill="none" stroke="#191970" d="M96.3756,-168.2455C86.7754,-159.9746 72.8085,-147.9416 61.5283,-138.2232"/>
<polygon fill="#191970" stroke="#191970" points="63.7507,-135.5182 53.8901,-131.6427 59.1817,-140.8214 63.7507,-135.5182"/>
</g>
<!-- Node20&#45;&gt;Node5 -->
<g id="edge24" class="edge">
<title>Node20&#45;&gt;Node5</title>
<path fill="none" stroke="#191970" d="M104.9229,-168.4862C97.1436,-141.8144 75.0053,-65.9117 64.4421,-29.695"/>
<polygon fill="#191970" stroke="#191970" points="67.7243,-28.4479 61.5642,-19.8279 61.0043,-30.4079 67.7243,-28.4479"/>
</g>
<!-- Node20&#45;&gt;Node7 -->
<g id="edge25" class="edge">
<title>Node20&#45;&gt;Node7</title>
<path fill="none" stroke="#191970" d="M140.0161,-168.3733C171.5483,-158.9807 219.6598,-144.6496 254.0478,-134.4064"/>
<polygon fill="#191970" stroke="#191970" points="255.2164,-137.7103 263.8011,-131.5011 253.218,-131.0016 255.2164,-137.7103"/>
</g>
<!-- Node21&#45;&gt;Node4 -->
<g id="edge28" class="edge">
<title>Node21&#45;&gt;Node4</title>
<path fill="none" stroke="#191970" d="M504.1148,-168.4103C526.403,-159.9311 558.871,-146.6575 585.6977,-132 613.4441,-116.84 643.2057,-95.7988 662.3373,-81.5823"/>
<polygon fill="#191970" stroke="#191970" points="664.44,-84.3804 670.3341,-75.5763 660.2362,-78.7832 664.44,-84.3804"/>
</g>
<!-- Node21&#45;&gt;Node5 -->
<g id="edge29" class="edge">
<title>Node21&#45;&gt;Node5</title>
<path fill="none" stroke="#191970" d="M421.802,-173.2703C373.0434,-167.7079 301.158,-155.9891 242.6977,-132 176.9018,-105.0008 109.8189,-53.0459 77.8818,-26.4968"/>
<polygon fill="#191970" stroke="#191970" points="79.7405,-23.4865 69.8361,-19.7242 75.2325,-28.8417 79.7405,-23.4865"/>
</g>
<!-- Node21&#45;&gt;Node6 -->
<g id="edge30" class="edge">
<title>Node21&#45;&gt;Node6</title>
<path fill="none" stroke="#191970" d="M513.9699,-168.3733C549.6636,-158.9001 604.2856,-144.4032 642.9428,-134.1435"/>
<polygon fill="#191970" stroke="#191970" points="644.1313,-137.4493 652.8989,-131.5011 642.3356,-130.6835 644.1313,-137.4493"/>
</g>
<!-- Node22 -->
<g id="node22" class="node">
<title>Node22</title>
<g id="a_node22"><a xlink:title=" ">
<polygon fill="#ffffff" stroke="#bfbfbf" points="530.6977,-112.5 530.6977,-131.5 576.6977,-131.5 576.6977,-112.5 530.6977,-112.5"/>
<text text-anchor="middle" x="553.6977" y="-119.5" font-family="Helvetica,sans-Serif" font-size="10.00" fill="#000000">cstring</text>
</a>
</g>
</g>
<!-- Node21&#45;&gt;Node22 -->
<g id="edge27" class="edge">
<title>Node21&#45;&gt;Node22</title>
<path fill="none" stroke="#191970" d="M490.9359,-168.2455C502.3787,-159.814 519.1274,-147.4729 532.4452,-137.6598"/>
<polygon fill="#191970" stroke="#191970" points="534.6369,-140.3924 540.6112,-131.6427 530.4845,-134.757 534.6369,-140.3924"/>
</g>
<!-- Node23 -->
<g id="node23" class="node">
<title>Node23</title>
<g id="a_node23"><a xlink:href="EncodingTraits_8hpp.html" target="_top" xlink:title="Defines possible encodings together with their properties and related types.">
<polygon fill="#ffffff" stroke="#000000" points="358.6977,-112.5 358.6977,-131.5 512.6977,-131.5 512.6977,-112.5 358.6977,-112.5"/>
<text text-anchor="middle" x="435.6977" y="-119.5" font-family="Helvetica,sans-Serif" font-size="10.00" fill="#000000">LLU/WSTP/EncodingTraits.hpp</text>
</a>
</g>
</g>
<!-- Node21&#45;&gt;Node23 -->
<g id="edge31" class="edge">
<title>Node21&#45;&gt;Node23</title>
<path fill="none" stroke="#191970" d="M470.3819,-168.2455C464.4798,-160.3761 456.0235,-149.101 448.9384,-139.6542"/>
<polygon fill="#191970" stroke="#191970" points="451.7298,-137.5427 442.9297,-131.6427 446.1298,-141.7427 451.7298,-137.5427"/>
</g>
<!-- Node23&#45;&gt;Node4 -->
<g id="edge33" class="edge">
<title>Node23&#45;&gt;Node4</title>
<path fill="none" stroke="#191970" d="M483.8962,-112.467C527.0002,-103.7221 591.8094,-90.0318 647.6977,-76 649.1534,-75.6345 650.6403,-75.2508 652.14,-74.8553"/>
<polygon fill="#191970" stroke="#191970" points="653.3103,-78.1637 662.0293,-72.1446 651.4597,-71.4127 653.3103,-78.1637"/>
</g>
<!-- Node23&#45;&gt;Node9 -->
<g id="edge32" class="edge">
<title>Node23&#45;&gt;Node9</title>
<path fill="none" stroke="#191970" d="M466.3147,-112.499C494.259,-103.824 536.9608,-90.5595 582.8016,-76.2763"/>
<polygon fill="#191970" stroke="#191970" points="584.1213,-79.5311 592.627,-73.2142 582.0385,-72.8482 584.1213,-79.5311"/>
</g>
<!-- Node23&#45;&gt;Node10 -->
<g id="edge34" class="edge">
<title>Node23&#45;&gt;Node10</title>
<path fill="none" stroke="#191970" d="M444.4071,-112.2455C451.505,-104.2958 461.7062,-92.8706 470.1927,-83.3656"/>
<polygon fill="#191970" stroke="#191970" points="473.0388,-85.4331 477.0882,-75.6427 467.8172,-80.771 473.0388,-85.4331"/>
</g>
<!-- Node23&#45;&gt;Node11 -->
<g id="edge35" class="edge">
<title>Node23&#45;&gt;Node11</title>
<path fill="none" stroke="#191970" d="M456.1546,-112.3733C475.1715,-103.4241 503.7153,-89.9917 525.1953,-79.8835"/>
<polygon fill="#191970" stroke="#191970" points="526.95,-82.926 534.5078,-75.5011 523.9693,-76.5923 526.95,-82.926"/>
</g>
</g>
</svg>
