<?xml version="1.0" encoding="UTF-8" standalone="no"?>
<!DOCTYPE svg PUBLIC "-//W3C//DTD SVG 1.1//EN"
 "http://www.w3.org/Graphics/SVG/1.1/DTD/svg11.dtd">
<!-- Generated by graphviz version 2.40.1 (20161225.0304)
 -->
<!-- Title: Get.cpp Pages: 1 -->
<!--zoomable 308 -->
<svg id="main" version="1.1" xmlns="http://www.w3.org/2000/svg" xmlns:xlink="http://www.w3.org/1999/xlink" xml:space="preserve" onload="init(evt)">
<style type="text/css"><![CDATA[
.edge:hover path { stroke: red; }
.edge:hover polygon { stroke: red; fill: red; }
]]></style>
<script type="text/javascript"><![CDATA[
var edges = document.getElementsByTagName('g');
if (edges && edges.length) {
  for (var i=0;i<edges.length;i++) {
    if (edges[i].id.substr(0,4)=='edge') {
      edges[i].setAttribute('class','edge');
    }
  }
}
]]></script>
        <defs>
                <circle id="rim" cx="0" cy="0" r="7"/>
                <circle id="rim2" cx="0" cy="0" r="3.5"/>
                <g id="zoomPlus">
                        <use xlink:href="#rim" fill="#404040">
                                <set attributeName="fill" to="#808080" begin="zoomplus.mouseover" end="zoomplus.mouseout"/>
                        </use>
                        <path d="M-4,0h8M0,-4v8" fill="none" stroke="white" stroke-width="1.5" pointer-events="none"/>
                </g>
                <g id="zoomMin">
                        <use xlink:href="#rim" fill="#404040">
                                <set attributeName="fill" to="#808080" begin="zoomminus.mouseover" end="zoomminus.mouseout"/>
                        </use>
                        <path d="M-4,0h8" fill="none" stroke="white" stroke-width="1.5" pointer-events="none"/>
                </g>
                <g id="dirArrow">
                        <path fill="none" stroke="white" stroke-width="1.5" d="M0,-3.0v7 M-2.5,-0.5L0,-3.0L2.5,-0.5"/>
                </g>
               <g id="resetDef">
                       <use xlink:href="#rim2" fill="#404040">
                               <set attributeName="fill" to="#808080" begin="reset.mouseover" end="reset.mouseout"/>
                       </use>
               </g>
        </defs>

<script type="text/javascript">
var viewWidth = 1158;
var viewHeight = 308;
var sectionId = 'dynsection-0';
</script>
<script xlink:href="svgpan.js"/>
<svg id="graph" class="graph">
<g id="viewport">
<title>Get.cpp</title>
<polygon fill="#ffffff" stroke="transparent" points="-4,4 -4,-304 1154.1492,-304 1154.1492,4 -4,4"/>
<!-- Node1 -->
<g id="node1" class="node">
<title>Node1</title>
<g id="a_node1"><a xlink:title="Implementation file with classes related to reading data from WSTP.">
<polygon fill="#bfbfbf" stroke="#000000" points="511.5,-280.5 511.5,-299.5 562.5,-299.5 562.5,-280.5 511.5,-280.5"/>
<text text-anchor="middle" x="537" y="-287.5" font-family="Helvetica,sans-Serif" font-size="10.00" fill="#000000">Get.cpp</text>
</a>
</g>
</g>
<!-- Node2 -->
<g id="node2" class="node">
<title>Node2</title>
<g id="a_node2"><a xlink:href="Get_8h.html" target="_top" xlink:title="Header file with classes related to reading data from WSTP.">
<polygon fill="#ffffff" stroke="#000000" points="623,-224.5 623,-243.5 717,-243.5 717,-224.5 623,-224.5"/>
<text text-anchor="middle" x="670" y="-231.5" font-family="Helvetica,sans-Serif" font-size="10.00" fill="#000000">LLU/WSTP/Get.h</text>
</a>
</g>
</g>
<!-- Node1&#45;&gt;Node2 -->
<g id="edge1" class="edge">
<title>Node1&#45;&gt;Node2</title>
<path fill="none" stroke="#191970" d="M559.8635,-280.3733C581.405,-271.3032 613.8838,-257.6279 637.9956,-247.4755"/>
<polygon fill="#191970" stroke="#191970" points="639.5767,-250.6075 647.4348,-243.5011 636.8603,-244.156 639.5767,-250.6075"/>
</g>
<!-- Node6 -->
<g id="node6" class="node">
<title>Node6</title>
<g id="a_node6"><a xlink:title=" ">
<polygon fill="#ffffff" stroke="#bfbfbf" points="868,-.5 868,-19.5 914,-19.5 914,-.5 868,-.5"/>
<text text-anchor="middle" x="891" y="-7.5" font-family="Helvetica,sans-Serif" font-size="10.00" fill="#000000">wstp.h</text>
</a>
</g>
</g>
<!-- Node1&#45;&gt;Node6 -->
<g id="edge37" class="edge">
<title>Node1&#45;&gt;Node6</title>
<path fill="none" stroke="#191970" d="M526.6389,-280.3152C498.5227,-252.8324 425.2342,-172.4377 461,-112 474.1691,-89.7466 538.3884,-63.9316 563,-56 685.6474,-16.4743 726.7524,-45.7462 857.692,-19.6705"/>
<polygon fill="#191970" stroke="#191970" points="858.6073,-23.0555 867.6938,-17.6069 857.1928,-16.1999 858.6073,-23.0555"/>
</g>
<!-- Node3 -->
<g id="node3" class="node">
<title>Node3</title>
<g id="a_node3"><a xlink:title=" ">
<polygon fill="#ffffff" stroke="#bfbfbf" points="470.5,-112.5 470.5,-131.5 529.5,-131.5 529.5,-112.5 470.5,-112.5"/>
<text text-anchor="middle" x="500" y="-119.5" font-family="Helvetica,sans-Serif" font-size="10.00" fill="#000000">functional</text>
</a>
</g>
</g>
<!-- Node2&#45;&gt;Node3 -->
<g id="edge2" class="edge">
<title>Node2&#45;&gt;Node3</title>
<path fill="none" stroke="#191970" d="M622.7209,-224.7406C584.1068,-216.2746 533.6135,-202.8403 519,-188 506.9998,-175.8135 502.4823,-156.5633 500.8296,-141.9908"/>
<polygon fill="#191970" stroke="#191970" points="504.3139,-141.6514 500.0477,-131.9534 497.335,-142.1951 504.3139,-141.6514"/>
</g>
<!-- Node4 -->
<g id="node4" class="node">
<title>Node4</title>
<g id="a_node4"><a xlink:title=" ">
<polygon fill="#ffffff" stroke="#bfbfbf" points="0,-.5 0,-19.5 52,-19.5 52,-.5 0,-.5"/>
<text text-anchor="middle" x="26" y="-7.5" font-family="Helvetica,sans-Serif" font-size="10.00" fill="#000000">memory</text>
</a>
</g>
</g>
<!-- Node2&#45;&gt;Node4 -->
<g id="edge3" class="edge">
<title>Node2&#45;&gt;Node4</title>
<path fill="none" stroke="#191970" d="M631.8134,-224.4175C597.9875,-215.6926 547.3844,-202.0601 504,-188 334.6976,-133.1323 136.6178,-54.7078 59.2904,-23.5302"/>
<polygon fill="#191970" stroke="#191970" points="60.2016,-20.1236 49.6186,-19.6229 57.5795,-26.614 60.2016,-20.1236"/>
</g>
<!-- Node5 -->
<g id="node5" class="node">
<title>Node5</title>
<g id="a_node5"><a xlink:title=" ">
<polygon fill="#ffffff" stroke="#bfbfbf" points="1005.5,-56.5 1005.5,-75.5 1046.5,-75.5 1046.5,-56.5 1005.5,-56.5"/>
<text text-anchor="middle" x="1026" y="-63.5" font-family="Helvetica,sans-Serif" font-size="10.00" fill="#000000">string</text>
</a>
</g>
</g>
<!-- Node2&#45;&gt;Node5 -->
<g id="edge4" class="edge">
<title>Node2&#45;&gt;Node5</title>
<path fill="none" stroke="#191970" d="M717.3066,-231.4737C825.0445,-224.5479 1082.7868,-200.9431 1127,-132 1146.6898,-101.2971 1092.8653,-81.8263 1056.4244,-72.5127"/>
<polygon fill="#191970" stroke="#191970" points="1057.2255,-69.1056 1046.6827,-70.1542 1055.5783,-75.909 1057.2255,-69.1056"/>
</g>
<!-- Node2&#45;&gt;Node6 -->
<g id="edge5" class="edge">
<title>Node2&#45;&gt;Node6</title>
<path fill="none" stroke="#191970" d="M717.0758,-231.5292C807.7898,-226.2791 1003.3808,-212.4477 1066,-188 1105.418,-172.6105 1123.7981,-169.7081 1143,-132 1187.7655,-44.0909 1003.1659,-18.8898 924.7419,-12.2204"/>
<polygon fill="#191970" stroke="#191970" points="924.662,-8.703 914.4156,-11.3977 924.106,-15.6809 924.662,-8.703"/>
</g>
<!-- Node7 -->
<g id="node7" class="node">
<title>Node7</title>
<g id="a_node7"><a xlink:href="Errors_8h.html" target="_top" xlink:title="Definitions of error names and error codes used across LLU.">
<polygon fill="#ffffff" stroke="#000000" points="1006,-112.5 1006,-131.5 1118,-131.5 1118,-112.5 1006,-112.5"/>
<text text-anchor="middle" x="1062" y="-119.5" font-family="Helvetica,sans-Serif" font-size="10.00" fill="#000000">LLU/ErrorLog/Errors.h</text>
</a>
</g>
</g>
<!-- Node2&#45;&gt;Node7 -->
<g id="edge6" class="edge">
<title>Node2&#45;&gt;Node7</title>
<path fill="none" stroke="#191970" d="M717.1358,-229.7633C790.7806,-222.6639 929.4252,-207.2335 975,-188 1002.3684,-176.45 1028.8264,-154.3138 1045.2356,-138.877"/>
<polygon fill="#191970" stroke="#191970" points="1048.0997,-140.976 1052.8523,-131.5068 1043.232,-135.9455 1048.0997,-140.976"/>
</g>
<!-- Node8 -->
<g id="node8" class="node">
<title>Node8</title>
<g id="a_node8"><a xlink:href="Utilities_8hpp.html" target="_top" xlink:title="Short but generally useful functions.">
<polygon fill="#ffffff" stroke="#000000" points="586.5,-112.5 586.5,-131.5 675.5,-131.5 675.5,-112.5 586.5,-112.5"/>
<text text-anchor="middle" x="631" y="-119.5" font-family="Helvetica,sans-Serif" font-size="10.00" fill="#000000">LLU/Utilities.hpp</text>
</a>
</g>
</g>
<!-- Node2&#45;&gt;Node8 -->
<g id="edge8" class="edge">
<title>Node2&#45;&gt;Node8</title>
<path fill="none" stroke="#191970" d="M667.6738,-224.4778C664.4189,-211.5376 658.1015,-187.7476 651,-168 647.7317,-158.9118 643.5416,-149.0645 639.8417,-140.8216"/>
<polygon fill="#191970" stroke="#191970" points="643.0179,-139.3513 635.6667,-131.7217 636.6556,-142.2703 643.0179,-139.3513"/>
</g>
<!-- Node21 -->
<g id="node21" class="node">
<title>Node21</title>
<g id="a_node21"><a xlink:href="Release_8h.html" target="_top" xlink:title="Header file with classes responsible for releasing memory allocated by WSTP when receiving data.">
<polygon fill="#ffffff" stroke="#000000" points="528,-168.5 528,-187.5 642,-187.5 642,-168.5 528,-168.5"/>
<text text-anchor="middle" x="585" y="-175.5" font-family="Helvetica,sans-Serif" font-size="10.00" fill="#000000">LLU/WSTP/Release.h</text>
</a>
</g>
</g>
<!-- Node2&#45;&gt;Node21 -->
<g id="edge23" class="edge">
<title>Node2&#45;&gt;Node21</title>
<path fill="none" stroke="#191970" d="M655.1941,-224.2455C642.2744,-215.7337 623.3069,-203.2375 608.3448,-193.3801"/>
<polygon fill="#191970" stroke="#191970" points="609.9124,-190.2216 599.6362,-187.6427 606.0613,-196.067 609.9124,-190.2216"/>
</g>
<!-- Node22 -->
<g id="node22" class="node">
<title>Node22</title>
<g id="a_node22"><a xlink:href="WSTP_2Utilities_8h.html" target="_top" xlink:title="Header file with miscellaneous utilities used throughout the WSTP&#45;related part of LibraryLinkUtilitie...">
<polygon fill="#ffffff" stroke="#000000" points="855.5,-168.5 855.5,-187.5 966.5,-187.5 966.5,-168.5 855.5,-168.5"/>
<text text-anchor="middle" x="911" y="-175.5" font-family="Helvetica,sans-Serif" font-size="10.00" fill="#000000">LLU/WSTP/Utilities.h</text>
</a>
</g>
</g>
<!-- Node2&#45;&gt;Node22 -->
<g id="edge27" class="edge">
<title>Node2&#45;&gt;Node22</title>
<path fill="none" stroke="#191970" d="M711.1555,-224.4369C752.3142,-214.8731 815.705,-200.1432 860.0242,-189.845"/>
<polygon fill="#191970" stroke="#191970" points="861.0659,-193.1963 870.0142,-187.5237 859.4815,-186.3779 861.0659,-193.1963"/>
</g>
<!-- Node7&#45;&gt;Node5 -->
<g id="edge7" class="edge">
<title>Node7&#45;&gt;Node5</title>
<path fill="none" stroke="#191970" d="M1055.7293,-112.2455C1050.7736,-104.5367 1043.717,-93.5598 1037.7224,-84.2348"/>
<polygon fill="#191970" stroke="#191970" points="1040.5506,-82.1618 1032.1989,-75.6427 1034.6624,-85.9471 1040.5506,-82.1618"/>
</g>
<!-- Node9 -->
<g id="node9" class="node">
<title>Node9</title>
<g id="a_node9"><a xlink:title=" ">
<polygon fill="#ffffff" stroke="#bfbfbf" points="586.5,-56.5 586.5,-75.5 639.5,-75.5 639.5,-56.5 586.5,-56.5"/>
<text text-anchor="middle" x="613" y="-63.5" font-family="Helvetica,sans-Serif" font-size="10.00" fill="#000000">complex</text>
</a>
</g>
</g>
<!-- Node8&#45;&gt;Node9 -->
<g id="edge9" class="edge">
<title>Node8&#45;&gt;Node9</title>
<path fill="none" stroke="#191970" d="M627.8646,-112.2455C625.49,-104.8579 622.1507,-94.4689 619.2385,-85.4087"/>
<polygon fill="#191970" stroke="#191970" points="622.4917,-84.0919 616.0994,-75.6427 615.8275,-86.234 622.4917,-84.0919"/>
</g>
<!-- Node10 -->
<g id="node10" class="node">
<title>Node10</title>
<g id="a_node10"><a xlink:title=" ">
<polygon fill="#ffffff" stroke="#bfbfbf" points="802,-56.5 802,-75.5 848,-75.5 848,-56.5 802,-56.5"/>
<text text-anchor="middle" x="825" y="-63.5" font-family="Helvetica,sans-Serif" font-size="10.00" fill="#000000">cstdint</text>
</a>
</g>
</g>
<!-- Node8&#45;&gt;Node10 -->
<g id="edge10" class="edge">
<title>Node8&#45;&gt;Node10</title>
<path fill="none" stroke="#191970" d="M665.5225,-112.4799C696.3189,-103.9247 742.8745,-90.839 792.0779,-76.2247"/>
<polygon fill="#191970" stroke="#191970" points="793.3664,-79.4929 801.95,-73.2823 791.3669,-72.7845 793.3664,-79.4929"/>
</g>
<!-- Node11 -->
<g id="node11" class="node">
<title>Node11</title>
<g id="a_node11"><a xlink:title=" ">
<polygon fill="#ffffff" stroke="#bfbfbf" points="722,-56.5 722,-75.5 784,-75.5 784,-56.5 722,-56.5"/>
<text text-anchor="middle" x="753" y="-63.5" font-family="Helvetica,sans-Serif" font-size="10.00" fill="#000000">type_traits</text>
</a>
</g>
</g>
<!-- Node8&#45;&gt;Node11 -->
<g id="edge11" class="edge">
<title>Node8&#45;&gt;Node11</title>
<path fill="none" stroke="#191970" d="M651.9725,-112.3733C671.5567,-103.3838 700.9961,-89.8706 723.051,-79.7471"/>
<polygon fill="#191970" stroke="#191970" points="724.6729,-82.8538 732.3011,-75.5011 721.7527,-76.4919 724.6729,-82.8538"/>
</g>
<!-- Node12 -->
<g id="node12" class="node">
<title>Node12</title>
<g id="a_node12"><a xlink:title=" ">
<polygon fill="#ffffff" stroke="#bfbfbf" points="866,-56.5 866,-75.5 906,-75.5 906,-56.5 866,-56.5"/>
<text text-anchor="middle" x="886" y="-63.5" font-family="Helvetica,sans-Serif" font-size="10.00" fill="#000000">utility</text>
</a>
</g>
</g>
<!-- Node8&#45;&gt;Node12 -->
<g id="edge12" class="edge">
<title>Node8&#45;&gt;Node12</title>
<path fill="none" stroke="#191970" d="M675.8454,-113.5965C727.566,-103.7874 810.3973,-87.6911 855.9022,-75.9863"/>
<polygon fill="#191970" stroke="#191970" points="857.0661,-79.2982 865.8242,-73.336 855.2596,-72.5353 857.0661,-79.2982"/>
</g>
<!-- Node13 -->
<g id="node13" class="node">
<title>Node13</title>
<g id="a_node13"><a xlink:title=" ">
<polygon fill="#ffffff" stroke="#bfbfbf" points="658,-56.5 658,-75.5 704,-75.5 704,-56.5 658,-56.5"/>
<text text-anchor="middle" x="681" y="-63.5" font-family="Helvetica,sans-Serif" font-size="10.00" fill="#000000">variant</text>
</a>
</g>
</g>
<!-- Node8&#45;&gt;Node13 -->
<g id="edge13" class="edge">
<title>Node8&#45;&gt;Node13</title>
<path fill="none" stroke="#191970" d="M639.7093,-112.2455C646.8073,-104.2958 657.0084,-92.8706 665.495,-83.3656"/>
<polygon fill="#191970" stroke="#191970" points="668.3411,-85.4331 672.3905,-75.6427 663.1195,-80.771 668.3411,-85.4331"/>
</g>
<!-- Node14 -->
<g id="node14" class="node">
<title>Node14</title>
<g id="a_node14"><a xlink:href="LibraryData_8h.html" target="_top" xlink:title=" ">
<polygon fill="#ffffff" stroke="#000000" points="396,-56.5 396,-75.5 492,-75.5 492,-56.5 396,-56.5"/>
<text text-anchor="middle" x="444" y="-63.5" font-family="Helvetica,sans-Serif" font-size="10.00" fill="#000000">LLU/LibraryData.h</text>
</a>
</g>
</g>
<!-- Node8&#45;&gt;Node14 -->
<g id="edge14" class="edge">
<title>Node8&#45;&gt;Node14</title>
<path fill="none" stroke="#191970" d="M598.8536,-112.3733C567.4891,-102.9807 519.6335,-88.6496 485.4284,-78.4064"/>
<polygon fill="#191970" stroke="#191970" points="486.3107,-75.0171 475.727,-75.5011 484.3025,-81.7229 486.3107,-75.0171"/>
</g>
<!-- Node14&#45;&gt;Node4 -->
<g id="edge15" class="edge">
<title>Node14&#45;&gt;Node4</title>
<path fill="none" stroke="#191970" d="M395.9704,-58.0188C391.2543,-57.3056 386.5371,-56.6199 382,-56 242.9554,-37.0011 203.5966,-47.3261 62.1714,-19.9574"/>
<polygon fill="#191970" stroke="#191970" points="62.7458,-16.5034 52.2587,-18.0103 61.3966,-23.3722 62.7458,-16.5034"/>
</g>
<!-- Node14&#45;&gt;Node6 -->
<g id="edge17" class="edge">
<title>Node14&#45;&gt;Node6</title>
<path fill="none" stroke="#191970" d="M492.0234,-57.9724C496.7407,-57.2686 501.4599,-56.5978 506,-56 658.7173,-35.8919 702.0479,-50.3267 857.7744,-19.6515"/>
<polygon fill="#191970" stroke="#191970" points="858.5866,-23.0584 867.7056,-17.6647 857.2133,-16.1944 858.5866,-23.0584"/>
</g>
<!-- Node15 -->
<g id="node15" class="node">
<title>Node15</title>
<g id="a_node15"><a xlink:title=" ">
<polygon fill="#ffffff" stroke="#bfbfbf" points="678,-.5 678,-19.5 740,-19.5 740,-.5 678,-.5"/>
<text text-anchor="middle" x="709" y="-7.5" font-family="Helvetica,sans-Serif" font-size="10.00" fill="#000000">dllexport.h</text>
</a>
</g>
</g>
<!-- Node14&#45;&gt;Node15 -->
<g id="edge16" class="edge">
<title>Node14&#45;&gt;Node15</title>
<path fill="none" stroke="#191970" d="M492.4098,-56.7322C535.8343,-48.2773 601.5417,-35.1365 667.4406,-20.2892"/>
<polygon fill="#191970" stroke="#191970" points="668.6088,-23.6133 677.5879,-17.9895 667.0616,-16.7864 668.6088,-23.6133"/>
</g>
<!-- Node16 -->
<g id="node16" class="node">
<title>Node16</title>
<g id="a_node16"><a xlink:title=" ">
<polygon fill="#ffffff" stroke="#bfbfbf" points="758.5,-.5 758.5,-19.5 849.5,-19.5 849.5,-.5 758.5,-.5"/>
<text text-anchor="middle" x="804" y="-7.5" font-family="Helvetica,sans-Serif" font-size="10.00" fill="#000000">WolframLibrary.h</text>
</a>
</g>
</g>
<!-- Node14&#45;&gt;Node16 -->
<g id="edge18" class="edge">
<title>Node14&#45;&gt;Node16</title>
<path fill="none" stroke="#191970" d="M492.0541,-58.1869C496.7652,-57.4397 501.4746,-56.7001 506,-56 610.7341,-39.7963 639.6032,-37.8708 748.3341,-20.0658"/>
<polygon fill="#191970" stroke="#191970" points="749.1024,-23.4865 758.4015,-18.4094 747.9659,-16.5794 749.1024,-23.4865"/>
</g>
<!-- Node17 -->
<g id="node17" class="node">
<title>Node17</title>
<g id="a_node17"><a xlink:title=" ">
<polygon fill="#ffffff" stroke="#bfbfbf" points="70,-.5 70,-19.5 214,-19.5 214,-.5 70,-.5"/>
<text text-anchor="middle" x="142" y="-7.5" font-family="Helvetica,sans-Serif" font-size="10.00" fill="#000000">WolframIOLibraryFunctions.h</text>
</a>
</g>
</g>
<!-- Node14&#45;&gt;Node17 -->
<g id="edge19" class="edge">
<title>Node14&#45;&gt;Node17</title>
<path fill="none" stroke="#191970" d="M395.8133,-57.0647C343.5786,-47.3788 260.0848,-31.8965 203.2369,-21.3552"/>
<polygon fill="#191970" stroke="#191970" points="203.7685,-17.8942 193.298,-19.5122 202.4922,-24.7768 203.7685,-17.8942"/>
</g>
<!-- Node18 -->
<g id="node18" class="node">
<title>Node18</title>
<g id="a_node18"><a xlink:title=" ">
<polygon fill="#ffffff" stroke="#bfbfbf" points="232,-.5 232,-19.5 350,-19.5 350,-.5 232,-.5"/>
<text text-anchor="middle" x="291" y="-7.5" font-family="Helvetica,sans-Serif" font-size="10.00" fill="#000000">WolframImageLibrary.h</text>
</a>
</g>
</g>
<!-- Node14&#45;&gt;Node18 -->
<g id="edge20" class="edge">
<title>Node14&#45;&gt;Node18</title>
<path fill="none" stroke="#191970" d="M417.6984,-56.3733C392.5872,-47.1822 354.5562,-33.2624 326.7128,-23.0713"/>
<polygon fill="#191970" stroke="#191970" points="327.5522,-19.6516 316.9584,-19.5011 325.1462,-26.2251 327.5522,-19.6516"/>
</g>
<!-- Node19 -->
<g id="node19" class="node">
<title>Node19</title>
<g id="a_node19"><a xlink:title=" ">
<polygon fill="#ffffff" stroke="#bfbfbf" points="368.5,-.5 368.5,-19.5 519.5,-19.5 519.5,-.5 368.5,-.5"/>
<text text-anchor="middle" x="444" y="-7.5" font-family="Helvetica,sans-Serif" font-size="10.00" fill="#000000">WolframNumericArrayLibrary.h</text>
</a>
</g>
</g>
<!-- Node14&#45;&gt;Node19 -->
<g id="edge21" class="edge">
<title>Node14&#45;&gt;Node19</title>
<path fill="none" stroke="#191970" d="M444,-56.2455C444,-48.9382 444,-38.6944 444,-29.7046"/>
<polygon fill="#191970" stroke="#191970" points="447.5001,-29.6426 444,-19.6427 440.5001,-29.6427 447.5001,-29.6426"/>
</g>
<!-- Node20 -->
<g id="node20" class="node">
<title>Node20</title>
<g id="a_node20"><a xlink:title=" ">
<polygon fill="#ffffff" stroke="#bfbfbf" points="538,-.5 538,-19.5 660,-19.5 660,-.5 538,-.5"/>
<text text-anchor="middle" x="599" y="-7.5" font-family="Helvetica,sans-Serif" font-size="10.00" fill="#000000">WolframSparseLibrary.h</text>
</a>
</g>
</g>
<!-- Node14&#45;&gt;Node20 -->
<g id="edge22" class="edge">
<title>Node14&#45;&gt;Node20</title>
<path fill="none" stroke="#191970" d="M470.6454,-56.3733C496.1964,-47.1419 534.9512,-33.1402 563.1909,-22.9375"/>
<polygon fill="#191970" stroke="#191970" points="564.4865,-26.1909 572.7022,-19.5011 562.1079,-19.6074 564.4865,-26.1909"/>
</g>
<!-- Node21&#45;&gt;Node3 -->
<g id="edge24" class="edge">
<title>Node21&#45;&gt;Node3</title>
<path fill="none" stroke="#191970" d="M570.1941,-168.2455C557.2744,-159.7337 538.3069,-147.2375 523.3448,-137.3801"/>
<polygon fill="#191970" stroke="#191970" points="524.9124,-134.2216 514.6362,-131.6427 521.0613,-140.067 524.9124,-134.2216"/>
</g>
<!-- Node21&#45;&gt;Node6 -->
<g id="edge25" class="edge">
<title>Node21&#45;&gt;Node6</title>
<path fill="none" stroke="#191970" d="M580.3012,-168.3015C570.0307,-145.5385 548.6734,-88.1871 577,-56 616.7229,-10.8634 780.7356,-31.1239 857.4645,-19.4575"/>
<polygon fill="#191970" stroke="#191970" points="858.4819,-22.8296 867.69,-17.5893 857.2238,-15.9436 858.4819,-22.8296"/>
</g>
<!-- Node21&#45;&gt;Node8 -->
<g id="edge26" class="edge">
<title>Node21&#45;&gt;Node8</title>
<path fill="none" stroke="#191970" d="M593.0126,-168.2455C599.4768,-160.3761 608.7385,-149.101 616.4983,-139.6542"/>
<polygon fill="#191970" stroke="#191970" points="619.4364,-141.5916 623.0792,-131.6427 614.0273,-137.1484 619.4364,-141.5916"/>
</g>
<!-- Node22&#45;&gt;Node5 -->
<g id="edge29" class="edge">
<title>Node22&#45;&gt;Node5</title>
<path fill="none" stroke="#191970" d="M920.8048,-168.4509C940.4098,-149.3574 984.6516,-106.2697 1009.0515,-82.5063"/>
<polygon fill="#191970" stroke="#191970" points="1011.498,-85.0093 1016.22,-75.5249 1006.6141,-79.9946 1011.498,-85.0093"/>
</g>
<!-- Node22&#45;&gt;Node6 -->
<g id="edge30" class="edge">
<title>Node22&#45;&gt;Node6</title>
<path fill="none" stroke="#191970" d="M913.7621,-168.2293C916.2226,-158.985 919.638,-144.6764 921,-132 924.6196,-98.311 924.8126,-88.4309 915,-56 912.1125,-46.4568 907.2353,-36.5666 902.6287,-28.4134"/>
<polygon fill="#191970" stroke="#191970" points="905.6033,-26.5677 897.4808,-19.7651 899.5883,-30.1482 905.6033,-26.5677"/>
</g>
<!-- Node22&#45;&gt;Node7 -->
<g id="edge31" class="edge">
<title>Node22&#45;&gt;Node7</title>
<path fill="none" stroke="#191970" d="M936.9578,-168.3733C961.7407,-159.1822 999.2746,-145.2624 1026.754,-135.0713"/>
<polygon fill="#191970" stroke="#191970" points="1028.2219,-138.26 1036.3809,-131.5011 1025.7879,-131.6968 1028.2219,-138.26"/>
</g>
<!-- Node23 -->
<g id="node23" class="node">
<title>Node23</title>
<g id="a_node23"><a xlink:title=" ">
<polygon fill="#ffffff" stroke="#bfbfbf" points="866,-112.5 866,-131.5 912,-131.5 912,-112.5 866,-112.5"/>
<text text-anchor="middle" x="889" y="-119.5" font-family="Helvetica,sans-Serif" font-size="10.00" fill="#000000">cstring</text>
</a>
</g>
</g>
<!-- Node22&#45;&gt;Node23 -->
<g id="edge28" class="edge">
<title>Node22&#45;&gt;Node23</title>
<path fill="none" stroke="#191970" d="M907.1679,-168.2455C904.2341,-160.7776 900.0953,-150.2427 896.509,-141.1137"/>
<polygon fill="#191970" stroke="#191970" points="899.7024,-139.6704 892.7882,-131.6427 893.1871,-142.23 899.7024,-139.6704"/>
</g>
<!-- Node24 -->
<g id="node24" class="node">
<title>Node24</title>
<g id="a_node24"><a xlink:href="EncodingTraits_8hpp.html" target="_top" xlink:title="Defines possible encodings together with their properties and related types.">
<polygon fill="#ffffff" stroke="#000000" points="694,-112.5 694,-131.5 848,-131.5 848,-112.5 694,-112.5"/>
<text text-anchor="middle" x="771" y="-119.5" font-family="Helvetica,sans-Serif" font-size="10.00" fill="#000000">LLU/WSTP/EncodingTraits.hpp</text>
</a>
</g>
</g>
<!-- Node22&#45;&gt;Node24 -->
<g id="edge32" class="edge">
<title>Node22&#45;&gt;Node24</title>
<path fill="none" stroke="#191970" d="M886.9331,-168.3733C864.1572,-159.2629 829.7656,-145.5062 804.351,-135.3404"/>
<polygon fill="#191970" stroke="#191970" points="805.3375,-131.9654 794.7528,-131.5011 802.7377,-138.4648 805.3375,-131.9654"/>
</g>
<!-- Node24&#45;&gt;Node5 -->
<g id="edge34" class="edge">
<title>Node24&#45;&gt;Node5</title>
<path fill="none" stroke="#191970" d="M814.5463,-112.4369C866.0374,-101.129 950.4136,-82.5994 995.4386,-72.7115"/>
<polygon fill="#191970" stroke="#191970" points="996.455,-76.0718 1005.4715,-70.5082 994.9534,-69.2347 996.455,-76.0718"/>
</g>
<!-- Node24&#45;&gt;Node10 -->
<g id="edge33" class="edge">
<title>Node24&#45;&gt;Node10</title>
<path fill="none" stroke="#191970" d="M780.4061,-112.2455C788.1493,-104.2155 799.312,-92.6394 808.5318,-83.0781"/>
<polygon fill="#191970" stroke="#191970" points="811.2798,-85.2706 815.7017,-75.6427 806.2409,-80.4117 811.2798,-85.2706"/>
</g>
<!-- Node24&#45;&gt;Node11 -->
<g id="edge35" class="edge">
<title>Node24&#45;&gt;Node11</title>
<path fill="none" stroke="#191970" d="M767.8646,-112.2455C765.49,-104.8579 762.1507,-94.4689 759.2385,-85.4087"/>
<polygon fill="#191970" stroke="#191970" points="762.4917,-84.0919 756.0994,-75.6427 755.8275,-86.234 762.4917,-84.0919"/>
</g>
<!-- Node24&#45;&gt;Node12 -->
<g id="edge36" class="edge">
<title>Node24&#45;&gt;Node12</title>
<path fill="none" stroke="#191970" d="M790.7692,-112.3733C809.1469,-103.4241 836.7312,-89.9917 857.4893,-79.8835"/>
<polygon fill="#191970" stroke="#191970" points="859.0304,-83.026 866.4888,-75.5011 855.9657,-76.7325 859.0304,-83.026"/>
</g>
</g>
</svg>
        <g id="navigator" transform="translate(0 0)" fill="#404254">
                <rect fill="#f2f5e9" fill-opacity="0.5" stroke="#606060" stroke-width=".5" x="0" y="0" width="60" height="60"/>
                <use id="zoomplus" xlink:href="#zoomPlus" x="17" y="9" onmousedown="handleZoom(evt,'in')"/>
                <use id="zoomminus" xlink:href="#zoomMin" x="42" y="9" onmousedown="handleZoom(evt,'out')"/>
                <use id="reset" xlink:href="#resetDef" x="30" y="36" onmousedown="handleReset()"/>
                <g id="arrowUp" xlink:href="#dirArrow" transform="translate(30 24)" onmousedown="handlePan(0,-1)">
                  <use xlink:href="#rim" fill="#404040">
                        <set attributeName="fill" to="#808080" begin="arrowUp.mouseover" end="arrowUp.mouseout"/>
                  </use>
                  <path fill="none" stroke="white" stroke-width="1.5" d="M0,-3.0v7 M-2.5,-0.5L0,-3.0L2.5,-0.5"/>
                </g>
                <g id="arrowRight" xlink:href="#dirArrow" transform="rotate(90) translate(36 -43)" onmousedown="handlePan(1,0)">
                  <use xlink:href="#rim" fill="#404040">
                        <set attributeName="fill" to="#808080" begin="arrowRight.mouseover" end="arrowRight.mouseout"/>
                  </use>
                  <path fill="none" stroke="white" stroke-width="1.5" d="M0,-3.0v7 M-2.5,-0.5L0,-3.0L2.5,-0.5"/>
                </g>
                <g id="arrowDown" xlink:href="#dirArrow" transform="rotate(180) translate(-30 -48)" onmousedown="handlePan(0,1)">
                  <use xlink:href="#rim" fill="#404040">
                        <set attributeName="fill" to="#808080" begin="arrowDown.mouseover" end="arrowDown.mouseout"/>
                  </use>
                  <path fill="none" stroke="white" stroke-width="1.5" d="M0,-3.0v7 M-2.5,-0.5L0,-3.0L2.5,-0.5"/>
                </g>
                <g id="arrowLeft" xlink:href="#dirArrow" transform="rotate(270) translate(-36 17)" onmousedown="handlePan(-1,0)">
                  <use xlink:href="#rim" fill="#404040">
                        <set attributeName="fill" to="#808080" begin="arrowLeft.mouseover" end="arrowLeft.mouseout"/>
                  </use>
                  <path fill="none" stroke="white" stroke-width="1.5" d="M0,-3.0v7 M-2.5,-0.5L0,-3.0L2.5,-0.5"/>
                </g>
        </g>
        <svg viewBox="0 0 15 15" width="100%" height="30px" preserveAspectRatio="xMaxYMin meet">
         <g id="arrow_out" transform="scale(0.3 0.3)">
          <a xlink:href="Get_8cpp__incl_org.svg" target="_base">
           <rect id="button" ry="5" rx="5" y="6" x="6" height="38" width="38"
                fill="#f2f5e9" fill-opacity="0.5" stroke="#606060" stroke-width="1.0"/>
           <path id="arrow"
             d="M 11.500037,31.436501 C 11.940474,20.09759 22.043105,11.32322 32.158766,21.979434 L 37.068811,17.246167 C 37.068811,17.246167 37.088388,32 37.088388,32 L 22.160133,31.978069 C 22.160133,31.978069 26.997745,27.140456 26.997745,27.140456 C 18.528582,18.264221 13.291696,25.230495 11.500037,31.436501 z"
             style="fill:#404040;"/>
          </a>
         </g>
        </svg>
</svg>
