<?xml version="1.0" encoding="UTF-8" standalone="no"?>
<!DOCTYPE svg PUBLIC "-//W3C//DTD SVG 1.1//EN"
 "http://www.w3.org/Graphics/SVG/1.1/DTD/svg11.dtd">
<!-- Generated by graphviz version 2.40.1 (20161225.0304)
 -->
<!-- Title: Image.h Pages: 1 -->
<svg width="2084pt" height="632pt"
 viewBox="0.00 0.00 2083.63 632.00" xmlns="http://www.w3.org/2000/svg" xmlns:xlink="http://www.w3.org/1999/xlink">
<g id="graph0" class="graph" transform="scale(1 1) rotate(0) translate(4 628)">
<title>Image.h</title>
<polygon fill="#ffffff" stroke="transparent" points="-4,4 -4,-628 2079.6302,-628 2079.6302,4 -4,4"/>
<!-- Node1 -->
<g id="node1" class="node">
<title>Node1</title>
<g id="a_node1"><a xlink:title="Templated C++ wrapper for MImage.">
<polygon fill="#bfbfbf" stroke="#000000" points="999.1302,-604.5 999.1302,-623.5 1051.1302,-623.5 1051.1302,-604.5 999.1302,-604.5"/>
<text text-anchor="middle" x="1025.1302" y="-611.5" font-family="Helvetica,sans-Serif" font-size="10.00" fill="#000000">Image.h</text>
</a>
</g>
</g>
<!-- Node2 -->
<g id="node2" class="node">
<title>Node2</title>
<g id="a_node2"><a xlink:title=" ">
<polygon fill="#ffffff" stroke="#bfbfbf" points="900.1302,-543 900.1302,-562 938.1302,-562 938.1302,-543 900.1302,-543"/>
<text text-anchor="middle" x="919.1302" y="-550" font-family="Helvetica,sans-Serif" font-size="10.00" fill="#000000">array</text>
</a>
</g>
</g>
<!-- Node1&#45;&gt;Node2 -->
<g id="edge1" class="edge">
<title>Node1&#45;&gt;Node2</title>
<path fill="none" stroke="#191970" d="M1008.5677,-604.3906C991.3765,-594.4165 964.272,-578.6908 944.4036,-567.1633"/>
<polygon fill="#191970" stroke="#191970" points="945.9825,-564.033 935.5764,-562.0419 942.4696,-570.0877 945.9825,-564.033"/>
</g>
<!-- Node3 -->
<g id="node3" class="node">
<title>Node3</title>
<g id="a_node3"><a xlink:href="Generic_2Image_8hpp.html" target="_top" xlink:title="GenericImage definition and implementation.">
<polygon fill="#ffffff" stroke="#000000" points="1687.1302,-537.5 1687.1302,-567.5 1809.1302,-567.5 1809.1302,-537.5 1687.1302,-537.5"/>
<text text-anchor="start" x="1695.1302" y="-555.5" font-family="Helvetica,sans-Serif" font-size="10.00" fill="#000000">LLU/Containers/Generic</text>
<text text-anchor="middle" x="1748.1302" y="-544.5" font-family="Helvetica,sans-Serif" font-size="10.00" fill="#000000">/Image.hpp</text>
</a>
</g>
</g>
<!-- Node1&#45;&gt;Node3 -->
<g id="edge2" class="edge">
<title>Node1&#45;&gt;Node3</title>
<path fill="none" stroke="#191970" d="M1051.2893,-611.7748C1152.4842,-603.167 1520.4018,-571.8711 1676.8966,-558.5593"/>
<polygon fill="#191970" stroke="#191970" points="1677.2265,-562.044 1686.8938,-557.7089 1676.6331,-555.0692 1677.2265,-562.044"/>
</g>
<!-- Node44 -->
<g id="node44" class="node">
<title>Node44</title>
<g id="a_node44"><a xlink:href="MArray_8hpp.html" target="_top" xlink:title="Template base class for C++ wrappers of LibraryLink containers.">
<polygon fill="#ffffff" stroke="#000000" points="956.1302,-543 956.1302,-562 1094.1302,-562 1094.1302,-543 956.1302,-543"/>
<text text-anchor="middle" x="1025.1302" y="-550" font-family="Helvetica,sans-Serif" font-size="10.00" fill="#000000">LLU/Containers/MArray.hpp</text>
</a>
</g>
</g>
<!-- Node1&#45;&gt;Node44 -->
<g id="edge93" class="edge">
<title>Node1&#45;&gt;Node44</title>
<path fill="none" stroke="#191970" d="M1025.1302,-604.3906C1025.1302,-595.8657 1025.1302,-583.1392 1025.1302,-572.4235"/>
<polygon fill="#191970" stroke="#191970" points="1028.6303,-572.2448 1025.1302,-562.2449 1021.6303,-572.2449 1028.6303,-572.2448"/>
</g>
<!-- Node4 -->
<g id="node4" class="node">
<title>Node4</title>
<g id="a_node4"><a xlink:href="Base_8hpp.html" target="_top" xlink:title="Definitions of MContainerBase and MContainer class templates.">
<polygon fill="#ffffff" stroke="#000000" points="1687.1302,-470.5 1687.1302,-500.5 1809.1302,-500.5 1809.1302,-470.5 1687.1302,-470.5"/>
<text text-anchor="start" x="1695.1302" y="-488.5" font-family="Helvetica,sans-Serif" font-size="10.00" fill="#000000">LLU/Containers/Generic</text>
<text text-anchor="middle" x="1748.1302" y="-477.5" font-family="Helvetica,sans-Serif" font-size="10.00" fill="#000000">/Base.hpp</text>
</a>
</g>
</g>
<!-- Node3&#45;&gt;Node4 -->
<g id="edge3" class="edge">
<title>Node3&#45;&gt;Node4</title>
<path fill="none" stroke="#191970" d="M1748.1302,-537.2967C1748.1302,-529.5013 1748.1302,-519.7991 1748.1302,-510.9064"/>
<polygon fill="#191970" stroke="#191970" points="1751.6303,-510.6431 1748.1302,-500.6432 1744.6303,-510.6432 1751.6303,-510.6431"/>
</g>
<!-- Node43 -->
<g id="node43" class="node">
<title>Node43</title>
<g id="a_node43"><a xlink:href="Interfaces_8h.html" target="_top" xlink:title=" ">
<polygon fill="#ffffff" stroke="#000000" points="1855.1302,-414.5 1855.1302,-433.5 1995.1302,-433.5 1995.1302,-414.5 1855.1302,-414.5"/>
<text text-anchor="middle" x="1925.1302" y="-421.5" font-family="Helvetica,sans-Serif" font-size="10.00" fill="#000000">LLU/Containers/Interfaces.h</text>
</a>
</g>
</g>
<!-- Node3&#45;&gt;Node43 -->
<g id="edge92" class="edge">
<title>Node3&#45;&gt;Node43</title>
<path fill="none" stroke="#191970" d="M1769.1295,-537.2548C1802.9222,-512.7217 1869.0419,-464.7195 1903.3347,-439.8233"/>
<polygon fill="#191970" stroke="#191970" points="1905.6837,-442.4431 1911.7198,-433.7358 1901.5713,-436.7784 1905.6837,-442.4431"/>
</g>
<!-- Node5 -->
<g id="node5" class="node">
<title>Node5</title>
<g id="a_node5"><a xlink:title=" ">
<polygon fill="#ffffff" stroke="#bfbfbf" points="1432.1302,-56.5 1432.1302,-75.5 1494.1302,-75.5 1494.1302,-56.5 1432.1302,-56.5"/>
<text text-anchor="middle" x="1463.1302" y="-63.5" font-family="Helvetica,sans-Serif" font-size="10.00" fill="#000000">type_traits</text>
</a>
</g>
</g>
<!-- Node4&#45;&gt;Node5 -->
<g id="edge4" class="edge">
<title>Node4&#45;&gt;Node5</title>
<path fill="none" stroke="#191970" d="M1742.5604,-470.2769C1718.0378,-403.5529 1619.6466,-139.0459 1591.1302,-112 1567.43,-89.522 1531.97,-77.905 1504.3786,-71.9746"/>
<polygon fill="#191970" stroke="#191970" points="1504.7189,-68.4743 1494.2301,-69.9694 1503.3619,-75.3415 1504.7189,-68.4743"/>
</g>
<!-- Node6 -->
<g id="node6" class="node">
<title>Node6</title>
<g id="a_node6"><a xlink:href="ErrorManager_8h.html" target="_top" xlink:title="Definition of the ErrorManager class responsible for error registration and throwing.">
<polygon fill="#ffffff" stroke="#000000" points="1099.1302,-414.5 1099.1302,-433.5 1243.1302,-433.5 1243.1302,-414.5 1099.1302,-414.5"/>
<text text-anchor="middle" x="1171.1302" y="-421.5" font-family="Helvetica,sans-Serif" font-size="10.00" fill="#000000">LLU/ErrorLog/ErrorManager.h</text>
</a>
</g>
</g>
<!-- Node4&#45;&gt;Node6 -->
<g id="edge5" class="edge">
<title>Node4&#45;&gt;Node6</title>
<path fill="none" stroke="#191970" d="M1686.9274,-478.9766C1582.6536,-467.8625 1370.4951,-445.2495 1253.3775,-432.7664"/>
<polygon fill="#191970" stroke="#191970" points="1253.699,-429.2809 1243.3843,-431.7013 1252.957,-436.2415 1253.699,-429.2809"/>
</g>
<!-- Node21 -->
<g id="node21" class="node">
<title>Node21</title>
<g id="a_node21"><a xlink:href="Utilities_8hpp.html" target="_top" xlink:title="Short but generally useful functions.">
<polygon fill="#ffffff" stroke="#000000" points="1192.6302,-112.5 1192.6302,-131.5 1281.6302,-131.5 1281.6302,-112.5 1192.6302,-112.5"/>
<text text-anchor="middle" x="1237.1302" y="-119.5" font-family="Helvetica,sans-Serif" font-size="10.00" fill="#000000">LLU/Utilities.hpp</text>
</a>
</g>
</g>
<!-- Node4&#45;&gt;Node21 -->
<g id="edge89" class="edge">
<title>Node4&#45;&gt;Node21</title>
<path fill="none" stroke="#191970" d="M1738.2293,-470.2662C1703.83,-418.6563 1583.6771,-249.1261 1439.1302,-168 1393.4932,-142.3865 1334.4785,-131.0289 1292.0359,-125.9962"/>
<polygon fill="#191970" stroke="#191970" points="1292.2161,-122.4948 1281.8922,-124.8758 1291.4476,-129.4525 1292.2161,-122.4948"/>
</g>
<!-- Node25 -->
<g id="node25" class="node">
<title>Node25</title>
<g id="a_node25"><a xlink:href="LibraryData_8h.html" target="_top" xlink:title=" ">
<polygon fill="#ffffff" stroke="#000000" points="1700.1302,-56.5 1700.1302,-75.5 1796.1302,-75.5 1796.1302,-56.5 1700.1302,-56.5"/>
<text text-anchor="middle" x="1748.1302" y="-63.5" font-family="Helvetica,sans-Serif" font-size="10.00" fill="#000000">LLU/LibraryData.h</text>
</a>
</g>
</g>
<!-- Node4&#45;&gt;Node25 -->
<g id="edge83" class="edge">
<title>Node4&#45;&gt;Node25</title>
<path fill="none" stroke="#191970" d="M1756.8227,-470.4885C1762.4703,-460.3784 1769.7545,-446.6333 1775.1302,-434 1820.2551,-327.9542 1838.6696,-301.7593 1857.1302,-188 1862.5408,-154.6584 1875.8028,-140.1474 1857.1302,-112 1845.4209,-94.3491 1825.4575,-83.4544 1805.7902,-76.7368"/>
<polygon fill="#191970" stroke="#191970" points="1806.7845,-73.3808 1796.1966,-73.7633 1804.7122,-80.067 1806.7845,-73.3808"/>
</g>
<!-- Node42 -->
<g id="node42" class="node">
<title>Node42</title>
<g id="a_node42"><a xlink:href="MArgument_8h.html" target="_top" xlink:title="Template class and utilities to work with MArgument in type&#45;safe manner.">
<polygon fill="#ffffff" stroke="#000000" points="1643.1302,-168.5 1643.1302,-187.5 1739.1302,-187.5 1739.1302,-168.5 1643.1302,-168.5"/>
<text text-anchor="middle" x="1691.1302" y="-175.5" font-family="Helvetica,sans-Serif" font-size="10.00" fill="#000000">LLU/MArgument.h</text>
</a>
</g>
</g>
<!-- Node4&#45;&gt;Node42 -->
<g id="edge84" class="edge">
<title>Node4&#45;&gt;Node42</title>
<path fill="none" stroke="#191970" d="M1751.9752,-470.4669C1757.527,-447.4032 1767.1302,-401.8255 1767.1302,-362.5 1767.1302,-362.5 1767.1302,-362.5 1767.1302,-295.5 1767.1302,-253.9563 1733.2204,-215.486 1710.7021,-194.5193"/>
<polygon fill="#191970" stroke="#191970" points="1712.7858,-191.6865 1703.0052,-187.6133 1708.111,-196.8968 1712.7858,-191.6865"/>
</g>
<!-- Node4&#45;&gt;Node43 -->
<g id="edge90" class="edge">
<title>Node4&#45;&gt;Node43</title>
<path fill="none" stroke="#191970" d="M1791.4293,-470.4554C1821.0917,-460.149 1860.0147,-446.6249 1888.209,-436.8286"/>
<polygon fill="#191970" stroke="#191970" points="1889.4042,-440.1186 1897.7015,-433.5303 1887.1067,-433.5064 1889.4042,-440.1186"/>
</g>
<!-- Node7 -->
<g id="node7" class="node">
<title>Node7</title>
<g id="a_node7"><a xlink:title=" ">
<polygon fill="#ffffff" stroke="#bfbfbf" points="1303.1302,-168.5 1303.1302,-187.5 1359.1302,-187.5 1359.1302,-168.5 1303.1302,-168.5"/>
<text text-anchor="middle" x="1331.1302" y="-175.5" font-family="Helvetica,sans-Serif" font-size="10.00" fill="#000000">algorithm</text>
</a>
</g>
</g>
<!-- Node6&#45;&gt;Node7 -->
<g id="edge6" class="edge">
<title>Node6&#45;&gt;Node7</title>
<path fill="none" stroke="#191970" d="M1177.4024,-414.3565C1201.3978,-377.4636 1287.6143,-244.9057 1319.3214,-196.1561"/>
<polygon fill="#191970" stroke="#191970" points="1322.3831,-197.868 1324.9014,-187.5768 1316.5151,-194.0514 1322.3831,-197.868"/>
</g>
<!-- Node8 -->
<g id="node8" class="node">
<title>Node8</title>
<g id="a_node8"><a xlink:title=" ">
<polygon fill="#ffffff" stroke="#bfbfbf" points="760.6302,-353 760.6302,-372 833.6302,-372 833.6302,-353 760.6302,-353"/>
<text text-anchor="middle" x="797.1302" y="-360" font-family="Helvetica,sans-Serif" font-size="10.00" fill="#000000">initializer_list</text>
</a>
</g>
</g>
<!-- Node6&#45;&gt;Node8 -->
<g id="edge7" class="edge">
<title>Node6&#45;&gt;Node8</title>
<path fill="none" stroke="#191970" d="M1099.0388,-416.9418C1033.2016,-409.739 933.4281,-396.9182 848.1302,-378 844.0139,-377.087 839.7473,-376.0081 835.5143,-374.8511"/>
<polygon fill="#191970" stroke="#191970" points="836.3628,-371.4533 825.7849,-372.0514 834.427,-378.1803 836.3628,-371.4533"/>
</g>
<!-- Node9 -->
<g id="node9" class="node">
<title>Node9</title>
<g id="a_node9"><a xlink:title=" ">
<polygon fill="#ffffff" stroke="#bfbfbf" points="265.6302,-56.5 265.6302,-75.5 306.6302,-75.5 306.6302,-56.5 265.6302,-56.5"/>
<text text-anchor="middle" x="286.1302" y="-63.5" font-family="Helvetica,sans-Serif" font-size="10.00" fill="#000000">string</text>
</a>
</g>
</g>
<!-- Node6&#45;&gt;Node9 -->
<g id="edge8" class="edge">
<title>Node6&#45;&gt;Node9</title>
<path fill="none" stroke="#191970" d="M1099.0664,-417.5656C1024.7468,-410.0834 914.4585,-396.3722 876.1302,-378 857.69,-369.1609 860.7771,-355.3945 842.1302,-347 678.0809,-273.1478 156.9645,-379.9463 39.1302,-244 10.5697,-211.0495 -46.1006,-221.8302 73.1302,-112 99.4226,-87.7806 202.9703,-74.2514 255.3848,-68.8276"/>
<polygon fill="#191970" stroke="#191970" points="255.8458,-72.299 265.4478,-67.8212 255.1491,-65.3338 255.8458,-72.299"/>
</g>
<!-- Node10 -->
<g id="node10" class="node">
<title>Node10</title>
<g id="a_node10"><a xlink:title=" ">
<polygon fill="#ffffff" stroke="#bfbfbf" points="1237.6302,-353 1237.6302,-372 1320.6302,-372 1320.6302,-353 1237.6302,-353"/>
<text text-anchor="middle" x="1279.1302" y="-360" font-family="Helvetica,sans-Serif" font-size="10.00" fill="#000000">unordered_map</text>
</a>
</g>
</g>
<!-- Node6&#45;&gt;Node10 -->
<g id="edge9" class="edge">
<title>Node6&#45;&gt;Node10</title>
<path fill="none" stroke="#191970" d="M1188.0052,-414.3906C1205.6001,-404.3713 1233.3868,-388.5483 1253.6543,-377.0071"/>
<polygon fill="#191970" stroke="#191970" points="1255.4158,-380.0318 1262.3737,-372.0419 1251.9519,-373.9489 1255.4158,-380.0318"/>
</g>
<!-- Node11 -->
<g id="node11" class="node">
<title>Node11</title>
<g id="a_node11"><a xlink:title=" ">
<polygon fill="#ffffff" stroke="#bfbfbf" points="927.1302,-56.5 927.1302,-75.5 967.1302,-75.5 967.1302,-56.5 927.1302,-56.5"/>
<text text-anchor="middle" x="947.1302" y="-63.5" font-family="Helvetica,sans-Serif" font-size="10.00" fill="#000000">utility</text>
</a>
</g>
</g>
<!-- Node6&#45;&gt;Node11 -->
<g id="edge10" class="edge">
<title>Node6&#45;&gt;Node11</title>
<path fill="none" stroke="#191970" d="M1173.4118,-414.1397C1180.186,-382.1383 1196.7599,-280.0153 1147.1302,-224 1102.5237,-173.6542 1051.5519,-231.362 1000.1302,-188 983.7065,-174.1505 963.1594,-115.9866 953.1585,-85.2402"/>
<polygon fill="#191970" stroke="#191970" points="956.4638,-84.0852 950.0849,-75.6259 949.7962,-86.2168 956.4638,-84.0852"/>
</g>
<!-- Node12 -->
<g id="node12" class="node">
<title>Node12</title>
<g id="a_node12"><a xlink:title=" ">
<polygon fill="#ffffff" stroke="#bfbfbf" points="48.1302,-224.5 48.1302,-243.5 92.1302,-243.5 92.1302,-224.5 48.1302,-224.5"/>
<text text-anchor="middle" x="70.1302" y="-231.5" font-family="Helvetica,sans-Serif" font-size="10.00" fill="#000000">vector</text>
</a>
</g>
</g>
<!-- Node6&#45;&gt;Node12 -->
<g id="edge11" class="edge">
<title>Node6&#45;&gt;Node12</title>
<path fill="none" stroke="#191970" d="M1098.911,-419.3372C1047.1605,-413.9875 976.7212,-402.5253 919.1302,-378 897.4541,-368.7692 898.1142,-355.4716 876.1302,-347 741.347,-295.0609 687.9135,-362.9391 553.1302,-311 531.1463,-302.5284 532.2065,-288.2279 510.1302,-280 341.2137,-217.0444 283.4877,-276.2573 106.1302,-244 104.8738,-243.7715 103.5977,-243.519 102.3124,-243.2475"/>
<polygon fill="#191970" stroke="#191970" points="102.9933,-239.8116 92.4524,-240.8791 101.3583,-246.618 102.9933,-239.8116"/>
</g>
<!-- Node13 -->
<g id="node13" class="node">
<title>Node13</title>
<g id="a_node13"><a xlink:href="LibraryLinkError_8h.html" target="_top" xlink:title="Error class and error codes used by LibraryLink Utilities classes.">
<polygon fill="#ffffff" stroke="#000000" points="928.6302,-347.5 928.6302,-377.5 1053.6302,-377.5 1053.6302,-347.5 928.6302,-347.5"/>
<text text-anchor="start" x="936.6302" y="-365.5" font-family="Helvetica,sans-Serif" font-size="10.00" fill="#000000">LLU/ErrorLog/LibraryLink</text>
<text text-anchor="middle" x="991.1302" y="-354.5" font-family="Helvetica,sans-Serif" font-size="10.00" fill="#000000">Error.h</text>
</a>
</g>
</g>
<!-- Node6&#45;&gt;Node13 -->
<g id="edge12" class="edge">
<title>Node6&#45;&gt;Node13</title>
<path fill="none" stroke="#191970" d="M1143.0052,-414.3906C1116.8399,-405.4508 1077.1512,-391.8905 1044.9076,-380.8739"/>
<polygon fill="#191970" stroke="#191970" points="1045.7577,-377.4658 1035.1632,-377.5446 1043.4945,-384.0898 1045.7577,-377.4658"/>
</g>
<!-- Node6&#45;&gt;Node25 -->
<g id="edge82" class="edge">
<title>Node6&#45;&gt;Node25</title>
<path fill="none" stroke="#191970" d="M1209.6161,-414.4386C1241.919,-406.024 1289.0749,-392.8267 1329.1302,-378 1377.0698,-360.2548 1720.4361,-230.9667 1748.1302,-188 1768.3116,-156.6891 1760.7633,-110.8179 1754.0612,-85.1709"/>
<polygon fill="#191970" stroke="#191970" points="1757.4196,-84.1847 1751.324,-75.519 1750.6852,-86.0945 1757.4196,-84.1847"/>
</g>
<!-- Node13&#45;&gt;Node9 -->
<g id="edge14" class="edge">
<title>Node13&#45;&gt;Node9</title>
<path fill="none" stroke="#191970" d="M928.387,-350.1663C852.7405,-335.269 735.3669,-312.0548 733.1302,-311 713.4165,-301.7033 715.4157,-287.9726 695.1302,-280 579.8964,-234.7106 241.0327,-314.3269 139.1302,-244 87.3674,-208.2765 49.0123,-161.2478 88.1302,-112 108.6736,-86.1368 205.0341,-73.502 255.3544,-68.5781"/>
<polygon fill="#191970" stroke="#191970" points="255.7193,-72.0594 265.3495,-67.6425 255.0668,-65.0898 255.7193,-72.0594"/>
</g>
<!-- Node14 -->
<g id="node14" class="node">
<title>Node14</title>
<g id="a_node14"><a xlink:title=" ">
<polygon fill="#ffffff" stroke="#bfbfbf" points="961.6302,-286 961.6302,-305 1020.6302,-305 1020.6302,-286 961.6302,-286"/>
<text text-anchor="middle" x="991.1302" y="-293" font-family="Helvetica,sans-Serif" font-size="10.00" fill="#000000">stdexcept</text>
</a>
</g>
</g>
<!-- Node13&#45;&gt;Node14 -->
<g id="edge13" class="edge">
<title>Node13&#45;&gt;Node14</title>
<path fill="none" stroke="#191970" d="M991.1302,-347.2967C991.1302,-337.7699 991.1302,-325.3954 991.1302,-315.1306"/>
<polygon fill="#191970" stroke="#191970" points="994.6303,-315.0549 991.1302,-305.055 987.6303,-315.055 994.6303,-315.0549"/>
</g>
<!-- Node15 -->
<g id="node15" class="node">
<title>Node15</title>
<g id="a_node15"><a xlink:href="WSStream_8hpp.html" target="_top" xlink:title="Header file for WSStream class.">
<polygon fill="#ffffff" stroke="#000000" points="742.6302,-286 742.6302,-305 879.6302,-305 879.6302,-286 742.6302,-286"/>
<text text-anchor="middle" x="811.1302" y="-293" font-family="Helvetica,sans-Serif" font-size="10.00" fill="#000000">LLU/WSTP/WSStream.hpp</text>
</a>
</g>
</g>
<!-- Node13&#45;&gt;Node15 -->
<g id="edge15" class="edge">
<title>Node13&#45;&gt;Node15</title>
<path fill="none" stroke="#191970" d="M950.7347,-347.4639C919.3515,-335.7824 876.2658,-319.7449 846.293,-308.5884"/>
<polygon fill="#191970" stroke="#191970" points="847.2596,-305.2136 836.6668,-305.0053 844.8177,-311.7739 847.2596,-305.2136"/>
</g>
<!-- Node15&#45;&gt;Node5 -->
<g id="edge20" class="edge">
<title>Node15&#45;&gt;Node5</title>
<path fill="none" stroke="#191970" d="M879.7402,-288.3389C1009.8791,-273.779 1286.8409,-237.83 1368.1302,-188 1409.5304,-162.6219 1439.856,-112.195 1454.087,-84.7895"/>
<polygon fill="#191970" stroke="#191970" points="1457.385,-86.021 1458.7427,-75.5135 1451.1288,-82.881 1457.385,-86.021"/>
</g>
<!-- Node15&#45;&gt;Node7 -->
<g id="edge16" class="edge">
<title>Node15&#45;&gt;Node7</title>
<path fill="none" stroke="#191970" d="M867.2613,-285.9876C913.5276,-277.371 980.5058,-263.1009 1037.1302,-244 1057.4844,-237.134 1060.6023,-230.3276 1081.1302,-224 1170.7864,-196.364 1197.2295,-206.8744 1289.1302,-188 1290.3692,-187.7455 1291.6274,-187.4812 1292.8968,-187.2093"/>
<polygon fill="#191970" stroke="#191970" points="1293.7192,-190.612 1302.7171,-185.0185 1292.195,-183.7799 1293.7192,-190.612"/>
</g>
<!-- Node15&#45;&gt;Node11 -->
<g id="edge21" class="edge">
<title>Node15&#45;&gt;Node11</title>
<path fill="none" stroke="#191970" d="M812.8645,-285.861C815.6416,-271.754 821.8456,-244.8934 832.1302,-224 859.6951,-168.0014 907.0312,-110.8918 931.487,-83.1871"/>
<polygon fill="#191970" stroke="#191970" points="934.2425,-85.3562 938.2949,-75.5669 929.0224,-80.6924 934.2425,-85.3562"/>
</g>
<!-- Node15&#45;&gt;Node12 -->
<g id="edge22" class="edge">
<title>Node15&#45;&gt;Node12</title>
<path fill="none" stroke="#191970" d="M745.8844,-285.9882C729.3518,-283.7965 711.6086,-281.6325 695.1302,-280 448.708,-255.5874 385.4133,-269.7788 139.1302,-244 127.0559,-242.7362 113.8515,-240.9277 102.2558,-239.1953"/>
<polygon fill="#191970" stroke="#191970" points="102.5526,-235.7 92.1376,-237.6436 101.4915,-242.6191 102.5526,-235.7"/>
</g>
<!-- Node16 -->
<g id="node16" class="node">
<title>Node16</title>
<g id="a_node16"><a xlink:title=" ">
<polygon fill="#ffffff" stroke="#bfbfbf" points="148.6302,-224.5 148.6302,-243.5 195.6302,-243.5 195.6302,-224.5 148.6302,-224.5"/>
<text text-anchor="middle" x="172.1302" y="-231.5" font-family="Helvetica,sans-Serif" font-size="10.00" fill="#000000">iterator</text>
</a>
</g>
</g>
<!-- Node15&#45;&gt;Node16 -->
<g id="edge17" class="edge">
<title>Node15&#45;&gt;Node16</title>
<path fill="none" stroke="#191970" d="M765.1819,-285.9428C753.1668,-283.7122 740.1991,-281.5411 728.1302,-280 499.2114,-250.7692 437.8355,-281.5312 210.1302,-244 208.6578,-243.7573 207.1596,-243.4831 205.6507,-243.1845"/>
<polygon fill="#191970" stroke="#191970" points="206.2241,-239.7259 195.6986,-240.936 204.6814,-246.5538 206.2241,-239.7259"/>
</g>
<!-- Node17 -->
<g id="node17" class="node">
<title>Node17</title>
<g id="a_node17"><a xlink:title=" ">
<polygon fill="#ffffff" stroke="#bfbfbf" points="934.6302,-224.5 934.6302,-243.5 969.6302,-243.5 969.6302,-224.5 934.6302,-224.5"/>
<text text-anchor="middle" x="952.1302" y="-231.5" font-family="Helvetica,sans-Serif" font-size="10.00" fill="#000000">map</text>
</a>
</g>
</g>
<!-- Node15&#45;&gt;Node17 -->
<g id="edge18" class="edge">
<title>Node15&#45;&gt;Node17</title>
<path fill="none" stroke="#191970" d="M833.1615,-285.8906C857.995,-275.059 898.3799,-257.4443 925.1004,-245.7896"/>
<polygon fill="#191970" stroke="#191970" points="926.5057,-248.9952 934.2725,-241.789 923.7071,-242.5789 926.5057,-248.9952"/>
</g>
<!-- Node18 -->
<g id="node18" class="node">
<title>Node18</title>
<g id="a_node18"><a xlink:title=" ">
<polygon fill="#ffffff" stroke="#bfbfbf" points="987.6302,-224.5 987.6302,-243.5 1028.6302,-243.5 1028.6302,-224.5 987.6302,-224.5"/>
<text text-anchor="middle" x="1008.1302" y="-231.5" font-family="Helvetica,sans-Serif" font-size="10.00" fill="#000000">stack</text>
</a>
</g>
</g>
<!-- Node15&#45;&gt;Node18 -->
<g id="edge19" class="edge">
<title>Node15&#45;&gt;Node18</title>
<path fill="none" stroke="#191970" d="M842.9015,-285.9358C874.6427,-276.3292 925.062,-260.9309 977.9449,-244.0104"/>
<polygon fill="#191970" stroke="#191970" points="979.0407,-247.3346 987.4935,-240.947 976.9023,-240.6692 979.0407,-247.3346"/>
</g>
<!-- Node19 -->
<g id="node19" class="node">
<title>Node19</title>
<g id="a_node19"><a xlink:title=" ">
<polygon fill="#ffffff" stroke="#bfbfbf" points="485.1302,-.5 485.1302,-19.5 531.1302,-19.5 531.1302,-.5 485.1302,-.5"/>
<text text-anchor="middle" x="508.1302" y="-7.5" font-family="Helvetica,sans-Serif" font-size="10.00" fill="#000000">wstp.h</text>
</a>
</g>
</g>
<!-- Node15&#45;&gt;Node19 -->
<g id="edge23" class="edge">
<title>Node15&#45;&gt;Node19</title>
<path fill="none" stroke="#191970" d="M765.1777,-285.9755C753.1626,-283.7444 740.196,-281.5649 728.1302,-280 511.5793,-251.9136 446.578,-309.059 238.1302,-244 221.3948,-238.7767 219.8076,-231.8472 204.1302,-224 167.0768,-205.4532 150.9605,-213.2806 118.1302,-188 93.2676,-168.8548 85.2219,-161.7128 75.1302,-132 60.9288,-90.1868 98.8348,-74.0638 139.1302,-56 198.7696,-29.2646 394.9005,-16.0448 474.306,-11.6855"/>
<polygon fill="#191970" stroke="#191970" points="474.9108,-15.1582 484.7094,-11.1287 474.5366,-8.1683 474.9108,-15.1582"/>
</g>
<!-- Node20 -->
<g id="node20" class="node">
<title>Node20</title>
<g id="a_node20"><a xlink:href="Errors_8h.html" target="_top" xlink:title="Definitions of error names and error codes used across LLU.">
<polygon fill="#ffffff" stroke="#000000" points="97.1302,-112.5 97.1302,-131.5 209.1302,-131.5 209.1302,-112.5 97.1302,-112.5"/>
<text text-anchor="middle" x="153.1302" y="-119.5" font-family="Helvetica,sans-Serif" font-size="10.00" fill="#000000">LLU/ErrorLog/Errors.h</text>
</a>
</g>
</g>
<!-- Node15&#45;&gt;Node20 -->
<g id="edge24" class="edge">
<title>Node15&#45;&gt;Node20</title>
<path fill="none" stroke="#191970" d="M764.7327,-285.9727C752.8402,-283.7683 740.0432,-281.6022 728.1302,-280 536.306,-254.2011 483.3119,-284.895 294.1302,-244 268.2983,-238.416 263.1582,-232.4892 238.1302,-224 188.615,-207.205 156.93,-230.2516 126.1302,-188 115.3804,-173.2532 125.9621,-153.6066 136.8738,-139.5921"/>
<polygon fill="#191970" stroke="#191970" points="139.7638,-141.5937 143.5228,-131.6881 134.407,-137.0875 139.7638,-141.5937"/>
</g>
<!-- Node15&#45;&gt;Node21 -->
<g id="edge26" class="edge">
<title>Node15&#45;&gt;Node21</title>
<path fill="none" stroke="#191970" d="M822.547,-285.9265C842.1294,-270.0893 883.9992,-238.7255 925.1302,-224 1043.6718,-181.5603 1104.3585,-262.1334 1206.1302,-188 1221.1159,-177.084 1229.1012,-157.0573 1233.1911,-141.9167"/>
<polygon fill="#191970" stroke="#191970" points="1236.6514,-142.4904 1235.5252,-131.9556 1229.836,-140.8934 1236.6514,-142.4904"/>
</g>
<!-- Node33 -->
<g id="node33" class="node">
<title>Node33</title>
<g id="a_node33"><a xlink:href="Get_8h.html" target="_top" xlink:title="Header file with classes related to reading data from WSTP.">
<polygon fill="#ffffff" stroke="#000000" points="440.1302,-224.5 440.1302,-243.5 534.1302,-243.5 534.1302,-224.5 440.1302,-224.5"/>
<text text-anchor="middle" x="487.1302" y="-231.5" font-family="Helvetica,sans-Serif" font-size="10.00" fill="#000000">LLU/WSTP/Get.h</text>
</a>
</g>
</g>
<!-- Node15&#45;&gt;Node33 -->
<g id="edge41" class="edge">
<title>Node15&#45;&gt;Node33</title>
<path fill="none" stroke="#191970" d="M760.8607,-285.9581C702.2673,-274.8362 605.6529,-256.4974 544.2658,-244.8452"/>
<polygon fill="#191970" stroke="#191970" points="544.8309,-241.39 534.3536,-242.9637 543.5255,-248.2672 544.8309,-241.39"/>
</g>
<!-- Node36 -->
<g id="node36" class="node">
<title>Node36</title>
<g id="a_node36"><a xlink:href="WSTP_2Utilities_8h.html" target="_top" xlink:title="Header file with miscellaneous utilities used throughout the WSTP&#45;related part of LibraryLinkUtilitie...">
<polygon fill="#ffffff" stroke="#000000" points="215.6302,-168.5 215.6302,-187.5 326.6302,-187.5 326.6302,-168.5 215.6302,-168.5"/>
<text text-anchor="middle" x="271.1302" y="-175.5" font-family="Helvetica,sans-Serif" font-size="10.00" fill="#000000">LLU/WSTP/Utilities.h</text>
</a>
</g>
</g>
<!-- Node15&#45;&gt;Node36 -->
<g id="edge77" class="edge">
<title>Node15&#45;&gt;Node36</title>
<path fill="none" stroke="#191970" d="M764.2916,-285.9335C752.5228,-283.756 739.8939,-281.6123 728.1302,-280 637.735,-267.6108 398.5406,-288.9308 319.1302,-244 300.5178,-233.469 287.167,-212.4127 279.3435,-196.9034"/>
<polygon fill="#191970" stroke="#191970" points="282.4269,-195.2357 275.0008,-187.679 276.0937,-198.2173 282.4269,-195.2357"/>
</g>
<!-- Node39 -->
<g id="node39" class="node">
<title>Node39</title>
<g id="a_node39"><a xlink:href="Put_8h.html" target="_top" xlink:title="Header file with classes related to sending data through WSTP.">
<polygon fill="#ffffff" stroke="#000000" points="328.6302,-224.5 328.6302,-243.5 421.6302,-243.5 421.6302,-224.5 328.6302,-224.5"/>
<text text-anchor="middle" x="375.1302" y="-231.5" font-family="Helvetica,sans-Serif" font-size="10.00" fill="#000000">LLU/WSTP/Put.h</text>
</a>
</g>
</g>
<!-- Node15&#45;&gt;Node39 -->
<g id="edge62" class="edge">
<title>Node15&#45;&gt;Node39</title>
<path fill="none" stroke="#191970" d="M762.9413,-285.9611C751.5509,-283.8563 739.4312,-281.7383 728.1302,-280 599.9182,-260.2787 564.3518,-263.5183 431.9722,-244.0497"/>
<polygon fill="#191970" stroke="#191970" points="432.2549,-240.5533 421.8489,-242.5447 431.2255,-247.4772 432.2549,-240.5533"/>
</g>
<!-- Node40 -->
<g id="node40" class="node">
<title>Node40</title>
<g id="a_node40"><a xlink:href="Strings_8h.html" target="_top" xlink:title="Definitions of multiple structures and type aliases related to string handling in WSTP.">
<polygon fill="#ffffff" stroke="#000000" points="654.6302,-224.5 654.6302,-243.5 763.6302,-243.5 763.6302,-224.5 654.6302,-224.5"/>
<text text-anchor="middle" x="709.1302" y="-231.5" font-family="Helvetica,sans-Serif" font-size="10.00" fill="#000000">LLU/WSTP/Strings.h</text>
</a>
</g>
</g>
<!-- Node15&#45;&gt;Node40 -->
<g id="edge68" class="edge">
<title>Node15&#45;&gt;Node40</title>
<path fill="none" stroke="#191970" d="M795.1927,-285.8906C778.7251,-275.9616 752.8044,-260.333 733.7098,-248.8201"/>
<polygon fill="#191970" stroke="#191970" points="735.3268,-245.7081 724.9558,-243.5419 731.7124,-251.7027 735.3268,-245.7081"/>
</g>
<!-- Node41 -->
<g id="node41" class="node">
<title>Node41</title>
<g id="a_node41"><a xlink:href="UtilityTypeTraits_8hpp.html" target="_top" xlink:title="Type traits used by WSStream to identify types supported by WSTP.">
<polygon fill="#ffffff" stroke="#000000" points="1009.6302,-168.5 1009.6302,-187.5 1170.6302,-187.5 1170.6302,-168.5 1009.6302,-168.5"/>
<text text-anchor="middle" x="1090.1302" y="-175.5" font-family="Helvetica,sans-Serif" font-size="10.00" fill="#000000">LLU/WSTP/UtilityTypeTraits.hpp</text>
</a>
</g>
</g>
<!-- Node15&#45;&gt;Node41 -->
<g id="edge78" class="edge">
<title>Node15&#45;&gt;Node41</title>
<path fill="none" stroke="#191970" d="M814.0669,-285.8524C819.3619,-270.1962 832.0613,-239.4548 854.1302,-224 867.5387,-214.6101 953.1185,-199.457 1017.3928,-189.1287"/>
<polygon fill="#191970" stroke="#191970" points="1018.1877,-192.5462 1027.5112,-187.5141 1017.0846,-185.6336 1018.1877,-192.5462"/>
</g>
<!-- Node20&#45;&gt;Node9 -->
<g id="edge25" class="edge">
<title>Node20&#45;&gt;Node9</title>
<path fill="none" stroke="#191970" d="M175.9937,-112.3733C198.0574,-103.0833 231.5951,-88.9621 255.8644,-78.7435"/>
<polygon fill="#191970" stroke="#191970" points="257.4554,-81.8713 265.3136,-74.7649 254.739,-75.4198 257.4554,-81.8713"/>
</g>
<!-- Node21&#45;&gt;Node5 -->
<g id="edge29" class="edge">
<title>Node21&#45;&gt;Node5</title>
<path fill="none" stroke="#191970" d="M1275.7242,-112.4369C1316.488,-102.3361 1380.5067,-86.4731 1422.1509,-76.1542"/>
<polygon fill="#191970" stroke="#191970" points="1423.1054,-79.5236 1431.97,-73.7211 1421.4217,-72.7291 1423.1054,-79.5236"/>
</g>
<!-- Node21&#45;&gt;Node11 -->
<g id="edge30" class="edge">
<title>Node21&#45;&gt;Node11</title>
<path fill="none" stroke="#191970" d="M1192.5883,-114.2048C1143.2323,-105.443 1061.3314,-90.5353 991.1302,-76 986.6067,-75.0634 981.8326,-74.0277 977.1632,-72.9882"/>
<polygon fill="#191970" stroke="#191970" points="977.7727,-69.5377 967.2467,-70.7437 976.2273,-76.365 977.7727,-69.5377"/>
</g>
<!-- Node22 -->
<g id="node22" class="node">
<title>Node22</title>
<g id="a_node22"><a xlink:title=" ">
<polygon fill="#ffffff" stroke="#bfbfbf" points="1210.6302,-56.5 1210.6302,-75.5 1263.6302,-75.5 1263.6302,-56.5 1210.6302,-56.5"/>
<text text-anchor="middle" x="1237.1302" y="-63.5" font-family="Helvetica,sans-Serif" font-size="10.00" fill="#000000">complex</text>
</a>
</g>
</g>
<!-- Node21&#45;&gt;Node22 -->
<g id="edge27" class="edge">
<title>Node21&#45;&gt;Node22</title>
<path fill="none" stroke="#191970" d="M1237.1302,-112.2455C1237.1302,-104.9382 1237.1302,-94.6944 1237.1302,-85.7046"/>
<polygon fill="#191970" stroke="#191970" points="1240.6303,-85.6426 1237.1302,-75.6427 1233.6303,-85.6427 1240.6303,-85.6426"/>
</g>
<!-- Node23 -->
<g id="node23" class="node">
<title>Node23</title>
<g id="a_node23"><a xlink:title=" ">
<polygon fill="#ffffff" stroke="#bfbfbf" points="1000.1302,-56.5 1000.1302,-75.5 1046.1302,-75.5 1046.1302,-56.5 1000.1302,-56.5"/>
<text text-anchor="middle" x="1023.1302" y="-63.5" font-family="Helvetica,sans-Serif" font-size="10.00" fill="#000000">cstdint</text>
</a>
</g>
</g>
<!-- Node21&#45;&gt;Node23 -->
<g id="edge28" class="edge">
<title>Node21&#45;&gt;Node23</title>
<path fill="none" stroke="#191970" d="M1200.3423,-112.3733C1159.7532,-101.7518 1095.0304,-84.815 1056.0554,-74.6159"/>
<polygon fill="#191970" stroke="#191970" points="1056.8195,-71.1981 1046.2592,-72.0524 1055.0473,-77.9701 1056.8195,-71.1981"/>
</g>
<!-- Node24 -->
<g id="node24" class="node">
<title>Node24</title>
<g id="a_node24"><a xlink:title=" ">
<polygon fill="#ffffff" stroke="#bfbfbf" points="1584.1302,-56.5 1584.1302,-75.5 1630.1302,-75.5 1630.1302,-56.5 1584.1302,-56.5"/>
<text text-anchor="middle" x="1607.1302" y="-63.5" font-family="Helvetica,sans-Serif" font-size="10.00" fill="#000000">variant</text>
</a>
</g>
</g>
<!-- Node21&#45;&gt;Node24 -->
<g id="edge31" class="edge">
<title>Node21&#45;&gt;Node24</title>
<path fill="none" stroke="#191970" d="M1281.7609,-115.2451C1356.9279,-103.8685 1507.0956,-81.1404 1573.8348,-71.0393"/>
<polygon fill="#191970" stroke="#191970" points="1574.4418,-74.4874 1583.8054,-69.5302 1573.3942,-67.5662 1574.4418,-74.4874"/>
</g>
<!-- Node21&#45;&gt;Node25 -->
<g id="edge32" class="edge">
<title>Node21&#45;&gt;Node25</title>
<path fill="none" stroke="#191970" d="M1282.0302,-117.0795C1374.5642,-106.9387 1586.4423,-83.7192 1689.5774,-72.4168"/>
<polygon fill="#191970" stroke="#191970" points="1690.2502,-75.8641 1699.8094,-71.2954 1689.4876,-68.9057 1690.2502,-75.8641"/>
</g>
<!-- Node25&#45;&gt;Node19 -->
<g id="edge35" class="edge">
<title>Node25&#45;&gt;Node19</title>
<path fill="none" stroke="#191970" d="M1699.8821,-61.0029C1680.9572,-59.1923 1659.0424,-57.2801 1639.1302,-56 1206.3948,-28.1816 1097.2069,-41.8719 664.1302,-20 621.7585,-17.8601 572.9632,-14.6047 541.3901,-12.3941"/>
<polygon fill="#191970" stroke="#191970" points="541.5987,-8.9002 531.3771,-11.6876 541.1059,-15.8828 541.5987,-8.9002"/>
</g>
<!-- Node26 -->
<g id="node26" class="node">
<title>Node26</title>
<g id="a_node26"><a xlink:title=" ">
<polygon fill="#ffffff" stroke="#bfbfbf" points="673.1302,-.5 673.1302,-19.5 725.1302,-19.5 725.1302,-.5 673.1302,-.5"/>
<text text-anchor="middle" x="699.1302" y="-7.5" font-family="Helvetica,sans-Serif" font-size="10.00" fill="#000000">memory</text>
</a>
</g>
</g>
<!-- Node25&#45;&gt;Node26 -->
<g id="edge33" class="edge">
<title>Node25&#45;&gt;Node26</title>
<path fill="none" stroke="#191970" d="M1699.8737,-61.1275C1680.9477,-59.3331 1659.0343,-57.3994 1639.1302,-56 1287.5454,-31.2809 861.05,-15.5588 735.5208,-11.2226"/>
<polygon fill="#191970" stroke="#191970" points="735.4353,-7.7177 725.3211,-10.8725 735.1952,-14.7135 735.4353,-7.7177"/>
</g>
<!-- Node27 -->
<g id="node27" class="node">
<title>Node27</title>
<g id="a_node27"><a xlink:title=" ">
<polygon fill="#ffffff" stroke="#bfbfbf" points="1904.1302,-.5 1904.1302,-19.5 1966.1302,-19.5 1966.1302,-.5 1904.1302,-.5"/>
<text text-anchor="middle" x="1935.1302" y="-7.5" font-family="Helvetica,sans-Serif" font-size="10.00" fill="#000000">dllexport.h</text>
</a>
</g>
</g>
<!-- Node25&#45;&gt;Node27 -->
<g id="edge34" class="edge">
<title>Node25&#45;&gt;Node27</title>
<path fill="none" stroke="#191970" d="M1780.2767,-56.3733C1811.8312,-46.9238 1860.0774,-32.4757 1894.3223,-22.2206"/>
<polygon fill="#191970" stroke="#191970" points="1895.4491,-25.5368 1904.0246,-19.315 1893.4409,-18.831 1895.4491,-25.5368"/>
</g>
<!-- Node28 -->
<g id="node28" class="node">
<title>Node28</title>
<g id="a_node28"><a xlink:title=" ">
<polygon fill="#ffffff" stroke="#bfbfbf" points="1984.6302,-.5 1984.6302,-19.5 2075.6302,-19.5 2075.6302,-.5 1984.6302,-.5"/>
<text text-anchor="middle" x="2030.1302" y="-7.5" font-family="Helvetica,sans-Serif" font-size="10.00" fill="#000000">WolframLibrary.h</text>
</a>
</g>
</g>
<!-- Node25&#45;&gt;Node28 -->
<g id="edge36" class="edge">
<title>Node25&#45;&gt;Node28</title>
<path fill="none" stroke="#191970" d="M1796.2873,-56.4369C1845.6924,-46.6259 1922.4736,-31.3786 1974.4563,-21.0558"/>
<polygon fill="#191970" stroke="#191970" points="1975.3801,-24.4408 1984.5068,-19.06 1974.0166,-17.5749 1975.3801,-24.4408"/>
</g>
<!-- Node29 -->
<g id="node29" class="node">
<title>Node29</title>
<g id="a_node29"><a xlink:title=" ">
<polygon fill="#ffffff" stroke="#bfbfbf" points="1296.1302,-.5 1296.1302,-19.5 1440.1302,-19.5 1440.1302,-.5 1296.1302,-.5"/>
<text text-anchor="middle" x="1368.1302" y="-7.5" font-family="Helvetica,sans-Serif" font-size="10.00" fill="#000000">WolframIOLibraryFunctions.h</text>
</a>
</g>
</g>
<!-- Node25&#45;&gt;Node29 -->
<g id="edge37" class="edge">
<title>Node25&#45;&gt;Node29</title>
<path fill="none" stroke="#191970" d="M1700.003,-58.9076C1635.114,-49.345 1518.933,-32.2236 1442.6906,-20.9879"/>
<polygon fill="#191970" stroke="#191970" points="1443.0745,-17.5067 1432.671,-19.5113 1442.0539,-24.4319 1443.0745,-17.5067"/>
</g>
<!-- Node30 -->
<g id="node30" class="node">
<title>Node30</title>
<g id="a_node30"><a xlink:title=" ">
<polygon fill="#ffffff" stroke="#bfbfbf" points="1458.1302,-.5 1458.1302,-19.5 1576.1302,-19.5 1576.1302,-.5 1458.1302,-.5"/>
<text text-anchor="middle" x="1517.1302" y="-7.5" font-family="Helvetica,sans-Serif" font-size="10.00" fill="#000000">WolframImageLibrary.h</text>
</a>
</g>
</g>
<!-- Node25&#45;&gt;Node30 -->
<g id="edge38" class="edge">
<title>Node25&#45;&gt;Node30</title>
<path fill="none" stroke="#191970" d="M1708.6824,-56.4369C1669.3146,-46.8932 1608.7268,-32.2052 1566.2594,-21.9101"/>
<polygon fill="#191970" stroke="#191970" points="1566.9585,-18.4783 1556.4154,-19.5237 1565.3092,-25.2812 1566.9585,-18.4783"/>
</g>
<!-- Node31 -->
<g id="node31" class="node">
<title>Node31</title>
<g id="a_node31"><a xlink:title=" ">
<polygon fill="#ffffff" stroke="#bfbfbf" points="1594.6302,-.5 1594.6302,-19.5 1745.6302,-19.5 1745.6302,-.5 1594.6302,-.5"/>
<text text-anchor="middle" x="1670.1302" y="-7.5" font-family="Helvetica,sans-Serif" font-size="10.00" fill="#000000">WolframNumericArrayLibrary.h</text>
</a>
</g>
</g>
<!-- Node25&#45;&gt;Node31 -->
<g id="edge39" class="edge">
<title>Node25&#45;&gt;Node31</title>
<path fill="none" stroke="#191970" d="M1734.5437,-56.2455C1722.7998,-47.814 1705.6103,-35.4729 1691.942,-25.6598"/>
<polygon fill="#191970" stroke="#191970" points="1693.7256,-22.6316 1683.5611,-19.6427 1689.6431,-28.3179 1693.7256,-22.6316"/>
</g>
<!-- Node32 -->
<g id="node32" class="node">
<title>Node32</title>
<g id="a_node32"><a xlink:title=" ">
<polygon fill="#ffffff" stroke="#bfbfbf" points="1764.1302,-.5 1764.1302,-19.5 1886.1302,-19.5 1886.1302,-.5 1764.1302,-.5"/>
<text text-anchor="middle" x="1825.1302" y="-7.5" font-family="Helvetica,sans-Serif" font-size="10.00" fill="#000000">WolframSparseLibrary.h</text>
</a>
</g>
</g>
<!-- Node25&#45;&gt;Node32 -->
<g id="edge40" class="edge">
<title>Node25&#45;&gt;Node32</title>
<path fill="none" stroke="#191970" d="M1761.5426,-56.2455C1773.1359,-47.814 1790.105,-35.4729 1803.598,-25.6598"/>
<polygon fill="#191970" stroke="#191970" points="1805.8428,-28.355 1811.8715,-19.6427 1801.7256,-22.6938 1805.8428,-28.355"/>
</g>
<!-- Node33&#45;&gt;Node9 -->
<g id="edge44" class="edge">
<title>Node33&#45;&gt;Node9</title>
<path fill="none" stroke="#191970" d="M469.3042,-224.4861C454.4288,-216.0532 433.1495,-202.8049 417.1302,-188 385.7264,-158.9768 389.7199,-140.8207 358.1302,-112 344.7366,-99.7804 327.7197,-88.7433 313.5924,-80.545"/>
<polygon fill="#191970" stroke="#191970" points="315.223,-77.4464 304.7932,-75.5836 311.7849,-83.5439 315.223,-77.4464"/>
</g>
<!-- Node33&#45;&gt;Node19 -->
<g id="edge45" class="edge">
<title>Node33&#45;&gt;Node19</title>
<path fill="none" stroke="#191970" d="M477.7684,-224.3788C470.0068,-215.6808 459.5552,-202.1096 455.1302,-188 445.0224,-155.77 447.1141,-144.8128 455.1302,-112 462.8575,-80.3696 482.2639,-47.6249 495.3233,-28.0348"/>
<polygon fill="#191970" stroke="#191970" points="498.2178,-30.0026 500.9788,-19.7738 492.4417,-26.0482 498.2178,-30.0026"/>
</g>
<!-- Node33&#45;&gt;Node20 -->
<g id="edge46" class="edge">
<title>Node33&#45;&gt;Node20</title>
<path fill="none" stroke="#191970" d="M439.8738,-225.5801C436.5785,-225.0327 433.306,-224.5009 430.1302,-224 373.1656,-215.0161 216.944,-225.497 173.1302,-188 159.9376,-176.7094 155.2739,-157.0287 153.7096,-142.0881"/>
<polygon fill="#191970" stroke="#191970" points="157.1817,-141.5509 153.0275,-131.8044 150.1971,-142.0141 157.1817,-141.5509"/>
</g>
<!-- Node33&#45;&gt;Node21 -->
<g id="edge47" class="edge">
<title>Node33&#45;&gt;Node21</title>
<path fill="none" stroke="#191970" d="M534.3302,-226.9515C666.628,-207.195 1040.5754,-151.3522 1182.0135,-130.2308"/>
<polygon fill="#191970" stroke="#191970" points="1182.8143,-133.6501 1192.1877,-128.7114 1181.7804,-126.7268 1182.8143,-133.6501"/>
</g>
<!-- Node33&#45;&gt;Node26 -->
<g id="edge43" class="edge">
<title>Node33&#45;&gt;Node26</title>
<path fill="none" stroke="#191970" d="M484.0001,-224.1787C477.6068,-202.1226 465.4719,-147.7936 488.1302,-112 526.8348,-50.8581 613.5989,-25.4402 662.9658,-15.6194"/>
<polygon fill="#191970" stroke="#191970" points="663.7197,-19.039 672.9018,-13.7532 662.4275,-12.1593 663.7197,-19.039"/>
</g>
<!-- Node34 -->
<g id="node34" class="node">
<title>Node34</title>
<g id="a_node34"><a xlink:title=" ">
<polygon fill="#ffffff" stroke="#bfbfbf" points="497.6302,-112.5 497.6302,-131.5 556.6302,-131.5 556.6302,-112.5 497.6302,-112.5"/>
<text text-anchor="middle" x="527.1302" y="-119.5" font-family="Helvetica,sans-Serif" font-size="10.00" fill="#000000">functional</text>
</a>
</g>
</g>
<!-- Node33&#45;&gt;Node34 -->
<g id="edge42" class="edge">
<title>Node33&#45;&gt;Node34</title>
<path fill="none" stroke="#191970" d="M490.5406,-224.4509C497.1236,-206.0186 511.6926,-165.2254 520.3291,-141.043"/>
<polygon fill="#191970" stroke="#191970" points="523.6611,-142.1195 523.7285,-131.5249 517.0689,-139.7651 523.6611,-142.1195"/>
</g>
<!-- Node35 -->
<g id="node35" class="node">
<title>Node35</title>
<g id="a_node35"><a xlink:href="Release_8h.html" target="_top" xlink:title="Header file with classes responsible for releasing memory allocated by WSTP when receiving data.">
<polygon fill="#ffffff" stroke="#000000" points="573.1302,-168.5 573.1302,-187.5 687.1302,-187.5 687.1302,-168.5 573.1302,-168.5"/>
<text text-anchor="middle" x="630.1302" y="-175.5" font-family="Helvetica,sans-Serif" font-size="10.00" fill="#000000">LLU/WSTP/Release.h</text>
</a>
</g>
</g>
<!-- Node33&#45;&gt;Node35 -->
<g id="edge48" class="edge">
<title>Node33&#45;&gt;Node35</title>
<path fill="none" stroke="#191970" d="M511.7128,-224.3733C535.0798,-215.2226 570.4165,-201.3844 596.4086,-191.2057"/>
<polygon fill="#191970" stroke="#191970" points="597.8332,-194.4066 605.8684,-187.5011 595.2807,-187.8886 597.8332,-194.4066"/>
</g>
<!-- Node33&#45;&gt;Node36 -->
<g id="edge52" class="edge">
<title>Node33&#45;&gt;Node36</title>
<path fill="none" stroke="#191970" d="M449.9985,-224.3733C413.3035,-214.8598 357.0664,-200.2797 317.4651,-190.0127"/>
<polygon fill="#191970" stroke="#191970" points="318.3358,-186.6228 307.7774,-187.5011 316.579,-193.3988 318.3358,-186.6228"/>
</g>
<!-- Node35&#45;&gt;Node19 -->
<g id="edge50" class="edge">
<title>Node35&#45;&gt;Node19</title>
<path fill="none" stroke="#191970" d="M623.2214,-168.4862C603.6021,-141.4695 547.3013,-63.9405 521.4269,-28.3102"/>
<polygon fill="#191970" stroke="#191970" points="523.9752,-25.8628 515.2671,-19.8279 518.3111,-29.976 523.9752,-25.8628"/>
</g>
<!-- Node35&#45;&gt;Node21 -->
<g id="edge51" class="edge">
<title>Node35&#45;&gt;Node21</title>
<path fill="none" stroke="#191970" d="M687.2353,-172.7317C803.7151,-161.9856 1067.3751,-137.6611 1182.0909,-127.0778"/>
<polygon fill="#191970" stroke="#191970" points="1182.7541,-130.5315 1192.3902,-126.1276 1182.1109,-123.5611 1182.7541,-130.5315"/>
</g>
<!-- Node35&#45;&gt;Node34 -->
<g id="edge49" class="edge">
<title>Node35&#45;&gt;Node34</title>
<path fill="none" stroke="#191970" d="M612.189,-168.2455C596.0902,-159.4928 572.2423,-146.527 553.8911,-136.5496"/>
<polygon fill="#191970" stroke="#191970" points="555.3231,-133.3444 544.8659,-131.6427 551.9795,-139.4942 555.3231,-133.3444"/>
</g>
<!-- Node36&#45;&gt;Node9 -->
<g id="edge54" class="edge">
<title>Node36&#45;&gt;Node9</title>
<path fill="none" stroke="#191970" d="M272.4091,-168.4509C274.8556,-150.184 280.2434,-109.9553 283.4921,-85.6976"/>
<polygon fill="#191970" stroke="#191970" points="286.9961,-85.901 284.8546,-75.5249 280.058,-84.9718 286.9961,-85.901"/>
</g>
<!-- Node36&#45;&gt;Node19 -->
<g id="edge55" class="edge">
<title>Node36&#45;&gt;Node19</title>
<path fill="none" stroke="#191970" d="M265.7242,-168.424C253.8219,-145.9258 228.5211,-89.105 256.1302,-56 283.595,-23.068 412.6802,-13.6481 474.7002,-11.0047"/>
<polygon fill="#191970" stroke="#191970" points="474.9027,-14.4995 484.758,-10.6107 474.6287,-7.5049 474.9027,-14.4995"/>
</g>
<!-- Node36&#45;&gt;Node20 -->
<g id="edge56" class="edge">
<title>Node36&#45;&gt;Node20</title>
<path fill="none" stroke="#191970" d="M250.8453,-168.3733C231.9882,-159.4241 203.6843,-145.9917 182.3847,-135.8835"/>
<polygon fill="#191970" stroke="#191970" points="183.6853,-132.6266 173.1504,-131.5011 180.6841,-138.9506 183.6853,-132.6266"/>
</g>
<!-- Node37 -->
<g id="node37" class="node">
<title>Node37</title>
<g id="a_node37"><a xlink:title=" ">
<polygon fill="#ffffff" stroke="#bfbfbf" points="303.1302,-112.5 303.1302,-131.5 349.1302,-131.5 349.1302,-112.5 303.1302,-112.5"/>
<text text-anchor="middle" x="326.1302" y="-119.5" font-family="Helvetica,sans-Serif" font-size="10.00" fill="#000000">cstring</text>
</a>
</g>
</g>
<!-- Node36&#45;&gt;Node37 -->
<g id="edge53" class="edge">
<title>Node36&#45;&gt;Node37</title>
<path fill="none" stroke="#191970" d="M280.7105,-168.2455C288.676,-160.1352 300.1943,-148.4075 309.6382,-138.7919"/>
<polygon fill="#191970" stroke="#191970" points="312.1497,-141.2297 316.6597,-131.6427 307.1555,-136.3247 312.1497,-141.2297"/>
</g>
<!-- Node38 -->
<g id="node38" class="node">
<title>Node38</title>
<g id="a_node38"><a xlink:href="EncodingTraits_8hpp.html" target="_top" xlink:title="Defines possible encodings together with their properties and related types.">
<polygon fill="#ffffff" stroke="#000000" points="727.1302,-112.5 727.1302,-131.5 881.1302,-131.5 881.1302,-112.5 727.1302,-112.5"/>
<text text-anchor="middle" x="804.1302" y="-119.5" font-family="Helvetica,sans-Serif" font-size="10.00" fill="#000000">LLU/WSTP/EncodingTraits.hpp</text>
</a>
</g>
</g>
<!-- Node36&#45;&gt;Node38 -->
<g id="edge57" class="edge">
<title>Node36&#45;&gt;Node38</title>
<path fill="none" stroke="#191970" d="M326.6622,-172.1655C419.3553,-162.4266 606.3026,-142.7849 716.7722,-131.1783"/>
<polygon fill="#191970" stroke="#191970" points="717.31,-134.6412 726.8895,-130.1154 716.5785,-127.6795 717.31,-134.6412"/>
</g>
<!-- Node38&#45;&gt;Node5 -->
<g id="edge60" class="edge">
<title>Node38&#45;&gt;Node5</title>
<path fill="none" stroke="#191970" d="M881.3394,-115.439C1021.6275,-103.5177 1313.8305,-78.6871 1421.8391,-69.5088"/>
<polygon fill="#191970" stroke="#191970" points="1422.3362,-72.9793 1432.0039,-68.645 1421.7434,-66.0044 1422.3362,-72.9793"/>
</g>
<!-- Node38&#45;&gt;Node9 -->
<g id="edge59" class="edge">
<title>Node38&#45;&gt;Node9</title>
<path fill="none" stroke="#191970" d="M726.8602,-113.6465C611.033,-101.1246 397.458,-78.0354 317.4676,-69.3878"/>
<polygon fill="#191970" stroke="#191970" points="317.4095,-65.8612 307.0913,-68.2661 316.6571,-72.8207 317.4095,-65.8612"/>
</g>
<!-- Node38&#45;&gt;Node11 -->
<g id="edge61" class="edge">
<title>Node38&#45;&gt;Node11</title>
<path fill="none" stroke="#191970" d="M828.7128,-112.3733C853.3543,-102.7234 891.307,-87.8608 917.575,-77.5741"/>
<polygon fill="#191970" stroke="#191970" points="918.9831,-80.7815 927.0183,-73.876 916.4306,-74.2635 918.9831,-80.7815"/>
</g>
<!-- Node38&#45;&gt;Node23 -->
<g id="edge58" class="edge">
<title>Node38&#45;&gt;Node23</title>
<path fill="none" stroke="#191970" d="M841.7777,-112.3733C883.6285,-101.6717 950.5509,-84.5591 990.334,-74.3862"/>
<polygon fill="#191970" stroke="#191970" points="991.2507,-77.7645 1000.0719,-71.8962 989.5165,-70.9827 991.2507,-77.7645"/>
</g>
<!-- Node39&#45;&gt;Node19 -->
<g id="edge64" class="edge">
<title>Node39&#45;&gt;Node19</title>
<path fill="none" stroke="#191970" d="M328.5033,-231.5974C232.4668,-224.8302 26.5523,-199.9148 88.1302,-112 133.0585,-47.856 383.9497,-20.5016 475.0611,-12.5874"/>
<polygon fill="#191970" stroke="#191970" points="475.4399,-16.0679 485.1094,-11.7376 474.85,-9.0928 475.4399,-16.0679"/>
</g>
<!-- Node39&#45;&gt;Node20 -->
<g id="edge65" class="edge">
<title>Node39&#45;&gt;Node20</title>
<path fill="none" stroke="#191970" d="M328.5513,-228.2789C262.2708,-219.6653 147.3606,-202.7972 135.1302,-188 123.9577,-174.4827 131.6616,-154.6018 140.1836,-140.1949"/>
<polygon fill="#191970" stroke="#191970" points="143.224,-141.9386 145.7117,-131.64 137.3447,-138.1394 143.224,-141.9386"/>
</g>
<!-- Node39&#45;&gt;Node21 -->
<g id="edge66" class="edge">
<title>Node39&#45;&gt;Node21</title>
<path fill="none" stroke="#191970" d="M421.8566,-225.5058C424.9926,-224.9821 428.1058,-224.4753 431.1302,-224 548.549,-205.5488 578.6313,-205.9336 696.1302,-188 748.7137,-179.9743 761.4443,-175.323 814.1302,-168 945.7738,-149.7024 1101.3172,-134.4027 1182.1398,-126.9251"/>
<polygon fill="#191970" stroke="#191970" points="1182.9282,-130.3674 1192.5653,-125.9656 1182.2866,-123.3969 1182.9282,-130.3674"/>
</g>
<!-- Node39&#45;&gt;Node34 -->
<g id="edge63" class="edge">
<title>Node39&#45;&gt;Node34</title>
<path fill="none" stroke="#191970" d="M388.0897,-224.4509C414.3389,-205.1094 474.0028,-161.1465 505.9719,-137.5904"/>
<polygon fill="#191970" stroke="#191970" points="508.2292,-140.2746 514.2036,-131.5249 504.0768,-134.6392 508.2292,-140.2746"/>
</g>
<!-- Node39&#45;&gt;Node36 -->
<g id="edge67" class="edge">
<title>Node39&#45;&gt;Node36</title>
<path fill="none" stroke="#191970" d="M357.0148,-224.2455C340.6852,-215.4527 316.4592,-202.4079 297.8963,-192.4125"/>
<polygon fill="#191970" stroke="#191970" points="299.5021,-189.3021 289.038,-187.6427 296.1834,-195.4654 299.5021,-189.3021"/>
</g>
<!-- Node40&#45;&gt;Node7 -->
<g id="edge69" class="edge">
<title>Node40&#45;&gt;Node7</title>
<path fill="none" stroke="#191970" d="M763.7834,-229.0795C887.4519,-217.9453 1186.245,-191.0443 1292.6813,-181.4616"/>
<polygon fill="#191970" stroke="#191970" points="1293.3061,-184.9196 1302.9519,-180.537 1292.6783,-177.9478 1293.3061,-184.9196"/>
</g>
<!-- Node40&#45;&gt;Node19 -->
<g id="edge72" class="edge">
<title>Node40&#45;&gt;Node19</title>
<path fill="none" stroke="#191970" d="M709.1853,-224.3397C708.8484,-210.8207 706.6873,-185.9074 696.1302,-168 656.3737,-100.5634 576.9338,-48.5829 535.1875,-24.5786"/>
<polygon fill="#191970" stroke="#191970" points="536.8251,-21.4839 526.396,-19.6177 533.3851,-27.5803 536.8251,-21.4839"/>
</g>
<!-- Node40&#45;&gt;Node20 -->
<g id="edge73" class="edge">
<title>Node40&#45;&gt;Node20</title>
<path fill="none" stroke="#191970" d="M654.5026,-230.1548C528.2857,-221.1149 225.6627,-198.4863 206.1302,-188 186.5874,-177.5081 171.6652,-156.4448 162.7086,-140.9232"/>
<polygon fill="#191970" stroke="#191970" points="165.5431,-138.8085 157.6957,-131.6903 159.3914,-142.1486 165.5431,-138.8085"/>
</g>
<!-- Node40&#45;&gt;Node21 -->
<g id="edge74" class="edge">
<title>Node40&#45;&gt;Node21</title>
<path fill="none" stroke="#191970" d="M763.6932,-229.7374C883.5931,-220.2239 1160.8676,-197.3618 1179.1302,-188 1199.8143,-177.3969 1216.4237,-156.0335 1226.4811,-140.4757"/>
<polygon fill="#191970" stroke="#191970" points="1229.6271,-142.0408 1231.8744,-131.6871 1223.6609,-138.3796 1229.6271,-142.0408"/>
</g>
<!-- Node40&#45;&gt;Node26 -->
<g id="edge71" class="edge">
<title>Node40&#45;&gt;Node26</title>
<path fill="none" stroke="#191970" d="M714.8247,-224.1646C719.7165,-215.1092 726.3994,-201.1298 729.1302,-188 730.9403,-179.2974 730.4434,-176.7914 729.1302,-168 726.6587,-151.4533 721.8713,-148.3066 718.1302,-132 709.9369,-96.2875 704.2144,-53.8756 701.3159,-29.6317"/>
<polygon fill="#191970" stroke="#191970" points="704.779,-29.1104 700.1526,-19.579 697.8254,-29.9151 704.779,-29.1104"/>
</g>
<!-- Node40&#45;&gt;Node34 -->
<g id="edge70" class="edge">
<title>Node40&#45;&gt;Node34</title>
<path fill="none" stroke="#191970" d="M654.5408,-226.6443C625.1787,-220.3957 589.829,-208.9317 564.1302,-188 549.2138,-175.8505 539.255,-156.0017 533.4632,-141.2391"/>
<polygon fill="#191970" stroke="#191970" points="536.6603,-139.7875 529.9711,-131.5714 530.0766,-142.1657 536.6603,-139.7875"/>
</g>
<!-- Node40&#45;&gt;Node36 -->
<g id="edge76" class="edge">
<title>Node40&#45;&gt;Node36</title>
<path fill="none" stroke="#191970" d="M654.5428,-227.0208C573.9174,-216.7125 423.2298,-197.4465 336.7176,-186.3856"/>
<polygon fill="#191970" stroke="#191970" points="337.1148,-182.908 326.7517,-185.1114 336.227,-189.8515 337.1148,-182.908"/>
</g>
<!-- Node40&#45;&gt;Node38 -->
<g id="edge75" class="edge">
<title>Node40&#45;&gt;Node38</title>
<path fill="none" stroke="#191970" d="M752.6134,-224.3976C772.2054,-217.6689 793.5097,-206.4539 805.1302,-188 813.7068,-174.38 812.5714,-155.8383 809.7992,-141.8753"/>
<polygon fill="#191970" stroke="#191970" points="813.1261,-140.7411 807.3793,-131.8403 806.3212,-142.3821 813.1261,-140.7411"/>
</g>
<!-- Node41&#45;&gt;Node5 -->
<g id="edge79" class="edge">
<title>Node41&#45;&gt;Node5</title>
<path fill="none" stroke="#191970" d="M1100.3294,-168.3209C1116.4956,-153.5822 1149.6197,-125.7751 1183.1302,-112 1225.6229,-94.5326 1354.8354,-78.0992 1421.842,-70.4658"/>
<polygon fill="#191970" stroke="#191970" points="1422.4938,-73.9146 1432.0393,-69.3174 1421.7104,-66.9586 1422.4938,-73.9146"/>
</g>
<!-- Node41&#45;&gt;Node19 -->
<g id="edge80" class="edge">
<title>Node41&#45;&gt;Node19</title>
<path fill="none" stroke="#191970" d="M1090.6841,-168.4755C1091.4668,-145.0622 1089.8657,-84.5318 1055.1302,-56 1045.1324,-47.7878 658.2773,-20.3932 541.2979,-12.2817"/>
<polygon fill="#191970" stroke="#191970" points="541.3686,-8.7784 531.1509,-11.5796 540.8854,-15.7617 541.3686,-8.7784"/>
</g>
<!-- Node41&#45;&gt;Node21 -->
<g id="edge81" class="edge">
<title>Node41&#45;&gt;Node21</title>
<path fill="none" stroke="#191970" d="M1115.4004,-168.3733C1139.5268,-159.1822 1176.0664,-145.2624 1202.8179,-135.0713"/>
<polygon fill="#191970" stroke="#191970" points="1204.0909,-138.3318 1212.1898,-131.5011 1201.5989,-131.7904 1204.0909,-138.3318"/>
</g>
<!-- Node42&#45;&gt;Node9 -->
<g id="edge85" class="edge">
<title>Node42&#45;&gt;Node9</title>
<path fill="none" stroke="#191970" d="M1642.9771,-176.3906C1472.8813,-170.6012 900.7109,-150.2128 718.1302,-132 639.3057,-124.1371 401.6379,-85.1877 316.7104,-71.0979"/>
<polygon fill="#191970" stroke="#191970" points="317.1144,-67.6171 306.6759,-69.4308 315.9671,-74.5225 317.1144,-67.6171"/>
</g>
<!-- Node42&#45;&gt;Node21 -->
<g id="edge88" class="edge">
<title>Node42&#45;&gt;Node21</title>
<path fill="none" stroke="#191970" d="M1642.9741,-172.06C1557.8252,-161.5571 1381.2465,-139.7765 1291.7177,-128.7333"/>
<polygon fill="#191970" stroke="#191970" points="1292.1178,-125.2562 1281.7646,-127.5056 1291.2608,-132.2035 1292.1178,-125.2562"/>
</g>
<!-- Node42&#45;&gt;Node24 -->
<g id="edge86" class="edge">
<title>Node42&#45;&gt;Node24</title>
<path fill="none" stroke="#191970" d="M1683.9684,-168.4509C1669.8962,-149.688 1638.4463,-107.7548 1620.4487,-83.758"/>
<polygon fill="#191970" stroke="#191970" points="1623.0739,-81.4249 1614.2739,-75.5249 1617.4739,-85.6249 1623.0739,-81.4249"/>
</g>
<!-- Node42&#45;&gt;Node25 -->
<g id="edge87" class="edge">
<title>Node42&#45;&gt;Node25</title>
<path fill="none" stroke="#191970" d="M1695.99,-168.4509C1705.4128,-149.936 1726.318,-108.8591 1738.6037,-84.7187"/>
<polygon fill="#191970" stroke="#191970" points="1741.8663,-86.0246 1743.2827,-75.5249 1735.6277,-82.8496 1741.8663,-86.0246"/>
</g>
<!-- Node43&#45;&gt;Node25 -->
<g id="edge91" class="edge">
<title>Node43&#45;&gt;Node25</title>
<path fill="none" stroke="#191970" d="M1924.8769,-414.3289C1924.3387,-392.9199 1923.1302,-339.9003 1923.1302,-295.5 1923.1302,-295.5 1923.1302,-295.5 1923.1302,-178 1923.1302,-146.1361 1918.7375,-133.4011 1895.1302,-112 1870.7445,-89.8932 1835.8259,-78.4106 1806.1402,-72.4463"/>
<polygon fill="#191970" stroke="#191970" points="1806.7657,-69.0027 1796.2963,-70.6278 1805.4941,-75.8862 1806.7657,-69.0027"/>
</g>
<!-- Node44&#45;&gt;Node5 -->
<g id="edge96" class="edge">
<title>Node44&#45;&gt;Node5</title>
<path fill="none" stroke="#191970" d="M1094.2037,-550.8175C1242.3186,-545.3333 1577.1302,-522.0882 1577.1302,-424 1577.1302,-424 1577.1302,-424 1577.1302,-178 1577.1302,-131.4628 1528.1919,-97.828 1494.4438,-80.1659"/>
<polygon fill="#191970" stroke="#191970" points="1495.8879,-76.9746 1485.3812,-75.6105 1492.744,-83.2289 1495.8879,-76.9746"/>
</g>
<!-- Node44&#45;&gt;Node8 -->
<g id="edge94" class="edge">
<title>Node44&#45;&gt;Node8</title>
<path fill="none" stroke="#191970" d="M1013.5102,-542.8167C976.6904,-512.1335 862.3385,-416.8402 816.462,-378.6098"/>
<polygon fill="#191970" stroke="#191970" points="818.6497,-375.8769 808.7268,-372.1638 814.1684,-381.2545 818.6497,-375.8769"/>
</g>
<!-- Node44&#45;&gt;Node11 -->
<g id="edge97" class="edge">
<title>Node44&#45;&gt;Node11</title>
<path fill="none" stroke="#191970" d="M990.7355,-542.9386C928.9339,-523.6453 800.9123,-473.5252 751.1302,-378 744.7628,-365.7818 742.7164,-357.9103 751.1302,-347 789.576,-297.1465 829.0783,-332.8249 888.1302,-311 917.7759,-300.0433 923.3473,-293.056 952.1302,-280 989.4925,-263.0523 1014.4726,-278.2022 1037.1302,-244 1062.4214,-205.8224 985.8041,-191.3163 983.1302,-188 958.8606,-157.8996 950.949,-111.904 948.3724,-85.8365"/>
<polygon fill="#191970" stroke="#191970" points="951.8461,-85.3709 947.5432,-75.6892 944.8693,-85.941 951.8461,-85.3709"/>
</g>
<!-- Node44&#45;&gt;Node12 -->
<g id="edge98" class="edge">
<title>Node44&#45;&gt;Node12</title>
<path fill="none" stroke="#191970" d="M980.7004,-542.9779C969.7577,-540.8243 958.0468,-538.6805 947.1302,-537 812.3849,-516.2574 344.1302,-560.3326 344.1302,-424 344.1302,-424 344.1302,-424 344.1302,-362.5 344.1302,-336.0297 174.3397,-271.6059 102.0746,-245.385"/>
<polygon fill="#191970" stroke="#191970" points="103.1471,-242.0511 92.5528,-241.9466 100.7696,-248.635 103.1471,-242.0511"/>
</g>
<!-- Node44&#45;&gt;Node21 -->
<g id="edge111" class="edge">
<title>Node44&#45;&gt;Node21</title>
<path fill="none" stroke="#191970" d="M1094.3483,-544.6892C1208.8335,-529.824 1425.1302,-492.6546 1425.1302,-424 1425.1302,-424 1425.1302,-424 1425.1302,-234 1425.1302,-200.5868 1415.0555,-189.079 1389.1302,-168 1361.5268,-145.5565 1323.1329,-134.0513 1291.8393,-128.1595"/>
<polygon fill="#191970" stroke="#191970" points="1292.4034,-124.7052 1281.9511,-126.4371 1291.2021,-131.6014 1292.4034,-124.7052"/>
</g>
<!-- Node44&#45;&gt;Node25 -->
<g id="edge110" class="edge">
<title>Node44&#45;&gt;Node25</title>
<path fill="none" stroke="#191970" d="M1094.2295,-551.1717C1213.1347,-547.9368 1450.8337,-537.0354 1525.1302,-501 1606.8059,-461.3855 1726.3409,-329.6951 1784.1302,-188 1796.9258,-156.6261 1802.3824,-143.5901 1790.1302,-112 1785.7444,-100.692 1777.14,-90.463 1768.8553,-82.5381"/>
<polygon fill="#191970" stroke="#191970" points="1770.9546,-79.721 1761.1583,-75.6859 1766.3001,-84.9494 1770.9546,-79.721"/>
</g>
<!-- Node45 -->
<g id="node45" class="node">
<title>Node45</title>
<g id="a_node45"><a xlink:title=" ">
<polygon fill="#ffffff" stroke="#bfbfbf" points="652.1302,-476 652.1302,-495 704.1302,-495 704.1302,-476 652.1302,-476"/>
<text text-anchor="middle" x="678.1302" y="-483" font-family="Helvetica,sans-Serif" font-size="10.00" fill="#000000">ostream</text>
</a>
</g>
</g>
<!-- Node44&#45;&gt;Node45 -->
<g id="edge95" class="edge">
<title>Node44&#45;&gt;Node45</title>
<path fill="none" stroke="#191970" d="M978.5808,-542.9313C968.2411,-540.8948 957.325,-538.8135 947.1302,-537 845.6949,-518.9559 817.6205,-527.7658 718.1302,-501 715.3658,-500.2563 712.5298,-499.3865 709.706,-498.4452"/>
<polygon fill="#191970" stroke="#191970" points="710.8685,-495.1439 700.2741,-495.049 708.497,-501.7299 710.8685,-495.1439"/>
</g>
<!-- Node46 -->
<g id="node46" class="node">
<title>Node46</title>
<g id="a_node46"><a xlink:href="IterableContainer_8hpp.html" target="_top" xlink:title="Implementation of the IterableContainer class.">
<polygon fill="#ffffff" stroke="#000000" points="562.1302,-280.5 562.1302,-310.5 686.1302,-310.5 686.1302,-280.5 562.1302,-280.5"/>
<text text-anchor="start" x="570.1302" y="-298.5" font-family="Helvetica,sans-Serif" font-size="10.00" fill="#000000">LLU/Containers/Iterators</text>
<text text-anchor="middle" x="624.1302" y="-287.5" font-family="Helvetica,sans-Serif" font-size="10.00" fill="#000000">/IterableContainer.hpp</text>
</a>
</g>
</g>
<!-- Node44&#45;&gt;Node46 -->
<g id="edge99" class="edge">
<title>Node44&#45;&gt;Node46</title>
<path fill="none" stroke="#191970" d="M980.2794,-542.9632C969.4551,-540.8346 957.9031,-538.7056 947.1302,-537 879.9395,-526.3623 690.6115,-549.7164 643.1302,-501 595.9847,-452.6281 607.973,-364.0547 617.5682,-320.723"/>
<polygon fill="#191970" stroke="#191970" points="621.0352,-321.269 619.9186,-310.7332 614.2213,-319.6657 621.0352,-321.269"/>
</g>
<!-- Node47 -->
<g id="node47" class="node">
<title>Node47</title>
<g id="a_node47"><a xlink:href="MArrayDimensions_8h.html" target="_top" xlink:title=" ">
<polygon fill="#ffffff" stroke="#000000" points="1081.6302,-476 1081.6302,-495 1260.6302,-495 1260.6302,-476 1081.6302,-476"/>
<text text-anchor="middle" x="1171.1302" y="-483" font-family="Helvetica,sans-Serif" font-size="10.00" fill="#000000">LLU/Containers/MArrayDimensions.h</text>
</a>
</g>
</g>
<!-- Node44&#45;&gt;Node47 -->
<g id="edge103" class="edge">
<title>Node44&#45;&gt;Node47</title>
<path fill="none" stroke="#191970" d="M1046.0485,-542.9005C1070.8758,-531.5072 1112.4735,-512.4178 1140.8244,-499.4075"/>
<polygon fill="#191970" stroke="#191970" points="1142.6219,-502.4336 1150.2508,-495.0817 1139.7023,-496.0715 1142.6219,-502.4336"/>
</g>
<!-- Node46&#45;&gt;Node12 -->
<g id="edge101" class="edge">
<title>Node46&#45;&gt;Node12</title>
<path fill="none" stroke="#191970" d="M562.0222,-282.2015C557.3325,-281.3911 552.6631,-280.6445 548.1302,-280 352.9976,-252.257 300.1767,-278.5308 106.1302,-244 104.8729,-243.7763 103.5961,-243.5278 102.3102,-243.2597"/>
<polygon fill="#191970" stroke="#191970" points="102.9869,-239.823 92.4476,-240.906 101.3619,-246.6318 102.9869,-239.823"/>
</g>
<!-- Node46&#45;&gt;Node16 -->
<g id="edge100" class="edge">
<title>Node46&#45;&gt;Node16</title>
<path fill="none" stroke="#191970" d="M562.0034,-282.3284C557.318,-281.4887 552.6547,-280.7007 548.1302,-280 398.8381,-256.8792 358.7147,-271.3014 210.1302,-244 208.6625,-243.7303 207.1682,-243.4337 205.6625,-243.1167"/>
<polygon fill="#191970" stroke="#191970" points="206.256,-239.6613 195.7224,-240.7992 204.6665,-246.4785 206.256,-239.6613"/>
</g>
<!-- Node46&#45;&gt;Node25 -->
<g id="edge102" class="edge">
<title>Node46&#45;&gt;Node25</title>
<path fill="none" stroke="#191970" d="M679.5115,-280.4826C739.6166,-264.6223 838.6044,-239.7736 925.1302,-224 1048.9984,-201.4189 1082.1535,-209.9775 1206.1302,-188 1245.623,-180.9991 1255.0081,-176.8404 1294.1302,-168 1439.5115,-135.1481 1611.1528,-96.669 1695.6898,-77.7375"/>
<polygon fill="#191970" stroke="#191970" points="1696.5663,-81.128 1705.5598,-75.5274 1695.0366,-74.2972 1696.5663,-81.128"/>
</g>
<!-- Node47&#45;&gt;Node5 -->
<g id="edge105" class="edge">
<title>Node47&#45;&gt;Node5</title>
<path fill="none" stroke="#191970" d="M1230.1276,-475.9693C1325.0473,-458.9479 1501.1302,-419.6677 1501.1302,-362.5 1501.1302,-362.5 1501.1302,-362.5 1501.1302,-178 1501.1302,-143.6118 1484.8668,-106.2832 1473.6192,-84.5791"/>
<polygon fill="#191970" stroke="#191970" points="1476.5613,-82.6605 1468.7373,-75.5166 1470.3986,-85.9804 1476.5613,-82.6605"/>
</g>
<!-- Node47&#45;&gt;Node6 -->
<g id="edge107" class="edge">
<title>Node47&#45;&gt;Node6</title>
<path fill="none" stroke="#191970" d="M1171.1302,-475.8906C1171.1302,-467.3657 1171.1302,-454.6392 1171.1302,-443.9235"/>
<polygon fill="#191970" stroke="#191970" points="1174.6303,-443.7448 1171.1302,-433.7449 1167.6303,-443.7449 1174.6303,-443.7448"/>
</g>
<!-- Node47&#45;&gt;Node8 -->
<g id="edge104" class="edge">
<title>Node47&#45;&gt;Node8</title>
<path fill="none" stroke="#191970" d="M1142.0943,-475.9507C1075.3257,-453.9921 910.8604,-399.9032 835.7126,-375.1888"/>
<polygon fill="#191970" stroke="#191970" points="836.7406,-371.8426 826.1477,-372.0432 834.5537,-378.4922 836.7406,-371.8426"/>
</g>
<!-- Node47&#45;&gt;Node12 -->
<g id="edge106" class="edge">
<title>Node47&#45;&gt;Node12</title>
<path fill="none" stroke="#191970" d="M1131.0467,-475.9854C1088.2018,-465.774 1018.3027,-448.9957 958.1302,-434 690.9906,-367.4255 628.1386,-333.7699 358.1302,-280 247.1719,-257.9036 216.8655,-267.1885 106.1302,-244 104.8803,-243.7383 103.6097,-243.4576 102.329,-243.1626"/>
<polygon fill="#191970" stroke="#191970" points="103.0403,-239.7326 92.489,-240.692 101.3356,-246.5219 103.0403,-239.7326"/>
</g>
<!-- Node47&#45;&gt;Node21 -->
<g id="edge109" class="edge">
<title>Node47&#45;&gt;Node21</title>
<path fill="none" stroke="#191970" d="M1238.2899,-475.9597C1301.6972,-462.7148 1387.1302,-431.9776 1387.1302,-362.5 1387.1302,-362.5 1387.1302,-362.5 1387.1302,-234 1387.1302,-203.4754 1389.0862,-190.1946 1368.1302,-168 1348.174,-146.8642 1317.9495,-135.4335 1291.5594,-129.2546"/>
<polygon fill="#191970" stroke="#191970" points="1292.1736,-125.8069 1281.6623,-127.1344 1290.7072,-132.6516 1292.1736,-125.8069"/>
</g>
<!-- Node47&#45;&gt;Node25 -->
<g id="edge108" class="edge">
<title>Node47&#45;&gt;Node25</title>
<path fill="none" stroke="#191970" d="M1260.7621,-478.538C1314.3328,-471.9092 1382.7174,-459.0173 1439.1302,-434 1480.6933,-415.5681 1742.9939,-227.1399 1766.1302,-188 1783.4134,-158.7618 1782.7707,-144.847 1774.1302,-112 1771.519,-102.0734 1766.2235,-92.0366 1761.089,-83.8822"/>
<polygon fill="#191970" stroke="#191970" points="1763.9943,-81.9303 1755.5121,-75.5817 1758.1839,-85.8342 1763.9943,-81.9303"/>
</g>
</g>
</svg>
