<?xml version="1.0" encoding="UTF-8" standalone="no"?>
<!DOCTYPE svg PUBLIC "-//W3C//DTD SVG 1.1//EN"
 "http://www.w3.org/Graphics/SVG/1.1/DTD/svg11.dtd">
<!-- Generated by graphviz version 2.40.1 (20161225.0304)
 -->
<!-- Title: Image.h Pages: 1 -->
<svg width="398pt" height="140pt"
 viewBox="0.00 0.00 398.00 140.00" xmlns="http://www.w3.org/2000/svg" xmlns:xlink="http://www.w3.org/1999/xlink">
<g id="graph0" class="graph" transform="scale(1 1) rotate(0) translate(4 136)">
<title>Image.h</title>
<polygon fill="#ffffff" stroke="transparent" points="-4,4 -4,-136 394,-136 394,4 -4,4"/>
<!-- Node1 -->
<g id="node1" class="node">
<title>Node1</title>
<g id="a_node1"><a xlink:title="Templated C++ wrapper for MImage.">
<polygon fill="#bfbfbf" stroke="#000000" points="87.5,-112.5 87.5,-131.5 139.5,-131.5 139.5,-112.5 87.5,-112.5"/>
<text text-anchor="middle" x="113.5" y="-119.5" font-family="Helvetica,sans-Serif" font-size="10.00" fill="#000000">Image.h</text>
</a>
</g>
</g>
<!-- Node2 -->
<g id="node2" class="node">
<title>Node2</title>
<g id="a_node2"><a xlink:href="LLU_8h.html" target="_top" xlink:title="Header file which includes all major parts of LLU.">
<polygon fill="#ffffff" stroke="#000000" points="0,-.5 0,-19.5 43,-19.5 43,-.5 0,-.5"/>
<text text-anchor="middle" x="21.5" y="-7.5" font-family="Helvetica,sans-Serif" font-size="10.00" fill="#000000">LLU.h</text>
</a>
</g>
</g>
<!-- Node1&#45;&gt;Node2 -->
<g id="edge1" class="edge">
<title>Node1&#45;&gt;Node2</title>
<path fill="none" stroke="#191970" d="M84.8433,-107.1554C72.0059,-99.3259 57.5334,-88.6986 47.5,-76 33.9097,-58.7997 26.6484,-33.6103 23.4853,-19.8572"/>
<polygon fill="#191970" stroke="#191970" points="83.4075,-110.3684 93.815,-112.3516 86.9158,-104.311 83.4075,-110.3684"/>
</g>
<!-- Node3 -->
<g id="node3" class="node">
<title>Node3</title>
<g id="a_node3"><a xlink:href="MArgumentManager_8h.html" target="_top" xlink:title="Definition of MArgumentManager class.">
<polygon fill="#ffffff" stroke="#000000" points="57,-56.5 57,-75.5 170,-75.5 170,-56.5 57,-56.5"/>
<text text-anchor="middle" x="113.5" y="-63.5" font-family="Helvetica,sans-Serif" font-size="10.00" fill="#000000">MArgumentManager.h</text>
</a>
</g>
</g>
<!-- Node1&#45;&gt;Node3 -->
<g id="edge2" class="edge">
<title>Node1&#45;&gt;Node3</title>
<path fill="none" stroke="#191970" d="M113.5,-102.1575C113.5,-93.155 113.5,-82.9199 113.5,-75.6427"/>
<polygon fill="#191970" stroke="#191970" points="110.0001,-102.2455 113.5,-112.2455 117.0001,-102.2456 110.0001,-102.2455"/>
</g>
<!-- Node7 -->
<g id="node7" class="node">
<title>Node7</title>
<g id="a_node7"><a xlink:href="Image_8cpp.html" target="_top" xlink:title="Template specializations of Image::type attribute for all data types that we want to support.">
<polygon fill="#ffffff" stroke="#000000" points="188.5,-56.5 188.5,-75.5 250.5,-75.5 250.5,-56.5 188.5,-56.5"/>
<text text-anchor="middle" x="219.5" y="-63.5" font-family="Helvetica,sans-Serif" font-size="10.00" fill="#000000">Image.cpp</text>
</a>
</g>
</g>
<!-- Node1&#45;&gt;Node7 -->
<g id="edge7" class="edge">
<title>Node1&#45;&gt;Node7</title>
<path fill="none" stroke="#191970" d="M141.0222,-107.46C159.9908,-97.4388 184.6727,-84.3993 201.2478,-75.6427"/>
<polygon fill="#191970" stroke="#191970" points="139.1708,-104.4796 131.9638,-112.2455 142.4407,-110.669 139.1708,-104.4796"/>
</g>
<!-- Node3&#45;&gt;Node2 -->
<g id="edge3" class="edge">
<title>Node3&#45;&gt;Node2</title>
<path fill="none" stroke="#191970" d="M88.4776,-50.769C72.175,-40.8456 51.399,-28.1994 37.3415,-19.6427"/>
<polygon fill="#191970" stroke="#191970" points="87.113,-54.0357 97.4748,-56.2455 90.7527,-48.0563 87.113,-54.0357"/>
</g>
<!-- Node4 -->
<g id="node4" class="node">
<title>Node4</title>
<g id="a_node4"><a xlink:href="LibraryLinkError_8cpp.html" target="_top" xlink:title="Contains definitions of ErrorManager members and implementation of interface function sendRegisteredE...">
<polygon fill="#ffffff" stroke="#000000" points="61.5,-.5 61.5,-19.5 165.5,-19.5 165.5,-.5 61.5,-.5"/>
<text text-anchor="middle" x="113.5" y="-7.5" font-family="Helvetica,sans-Serif" font-size="10.00" fill="#000000">LibraryLinkError.cpp</text>
</a>
</g>
</g>
<!-- Node3&#45;&gt;Node4 -->
<g id="edge4" class="edge">
<title>Node3&#45;&gt;Node4</title>
<path fill="none" stroke="#191970" d="M113.5,-46.1575C113.5,-37.155 113.5,-26.9199 113.5,-19.6427"/>
<polygon fill="#191970" stroke="#191970" points="110.0001,-46.2455 113.5,-56.2455 117.0001,-46.2456 110.0001,-46.2455"/>
</g>
<!-- Node5 -->
<g id="node5" class="node">
<title>Node5</title>
<g id="a_node5"><a xlink:href="Logger_8cpp.html" target="_top" xlink:title="Implementation of functions defined in Logger.h.">
<polygon fill="#ffffff" stroke="#000000" points="184,-.5 184,-19.5 249,-19.5 249,-.5 184,-.5"/>
<text text-anchor="middle" x="216.5" y="-7.5" font-family="Helvetica,sans-Serif" font-size="10.00" fill="#000000">Logger.cpp</text>
</a>
</g>
</g>
<!-- Node3&#45;&gt;Node5 -->
<g id="edge5" class="edge">
<title>Node3&#45;&gt;Node5</title>
<path fill="none" stroke="#191970" d="M140.2432,-51.46C158.675,-41.4388 182.6584,-28.3993 198.7644,-19.6427"/>
<polygon fill="#191970" stroke="#191970" points="138.5549,-48.394 131.4412,-56.2455 141.8985,-54.5438 138.5549,-48.394"/>
</g>
<!-- Node6 -->
<g id="node6" class="node">
<title>Node6</title>
<g id="a_node6"><a xlink:href="MArgumentManager_8cpp.html" target="_top" xlink:title="Definitions of non&#45;template member functions and static data members from MArgumentManager class.">
<polygon fill="#ffffff" stroke="#000000" points="267,-.5 267,-19.5 390,-19.5 390,-.5 267,-.5"/>
<text text-anchor="middle" x="328.5" y="-7.5" font-family="Helvetica,sans-Serif" font-size="10.00" fill="#000000">MArgumentManager.cpp</text>
</a>
</g>
</g>
<!-- Node3&#45;&gt;Node6 -->
<g id="edge6" class="edge">
<title>Node3&#45;&gt;Node6</title>
<path fill="none" stroke="#191970" d="M160.143,-53.8511C199.7064,-43.5462 255.6697,-28.9697 292.0225,-19.5011"/>
<polygon fill="#191970" stroke="#191970" points="159.2547,-50.4656 150.4598,-56.3733 161.0192,-57.2396 159.2547,-50.4656"/>
</g>
</g>
</svg>
