<?xml version="1.0" encoding="UTF-8" standalone="no"?>
<!DOCTYPE svg PUBLIC "-//W3C//DTD SVG 1.1//EN"
 "http://www.w3.org/Graphics/SVG/1.1/DTD/svg11.dtd">
<!-- Generated by graphviz version 2.40.1 (20161225.0304)
 -->
<!-- Title: Graphical Class Hierarchy Pages: 1 -->
<svg width="398pt" height="104pt"
 viewBox="0.00 0.00 398.00 104.00" xmlns="http://www.w3.org/2000/svg" xmlns:xlink="http://www.w3.org/1999/xlink">
<g id="graph0" class="graph" transform="scale(1 1) rotate(0) translate(4 100)">
<title>Graphical Class Hierarchy</title>
<polygon fill="#ffffff" stroke="transparent" points="-4,4 -4,-100 394,-100 394,4 -4,4"/>
<!-- Node0 -->
<g id="node1" class="node">
<title>Node0</title>
<g id="a_node1"><a xlink:href="structLLU_1_1WS_1_1Symbol.html" target="_top" xlink:title="Structure representing any symbol in Wolfram Language.">
<polygon fill="#ffffff" stroke="#000000" points="0,-57.5 0,-76.5 96,-76.5 96,-57.5 0,-57.5"/>
<text text-anchor="middle" x="48" y="-64.5" font-family="Helvetica,sans-Serif" font-size="10.00" fill="#000000">LLU::WS::Symbol</text>
</a>
</g>
</g>
<!-- Node1 -->
<g id="node2" class="node">
<title>Node1</title>
<g id="a_node2"><a xlink:href="structLLU_1_1WS_1_1BeginExpr.html" target="_top" xlink:title=" ">
<polygon fill="#ffffff" stroke="#000000" points="132,-76.5 132,-95.5 240,-95.5 240,-76.5 132,-76.5"/>
<text text-anchor="middle" x="186" y="-83.5" font-family="Helvetica,sans-Serif" font-size="10.00" fill="#000000">LLU::WS::BeginExpr</text>
</a>
</g>
</g>
<!-- Node0&#45;&gt;Node1 -->
<g id="edge1" class="edge">
<title>Node0&#45;&gt;Node1</title>
<path fill="none" stroke="#191970" d="M106.4186,-75.0431C114.8589,-76.2052 123.5156,-77.3971 131.8672,-78.5469"/>
<polygon fill="#191970" stroke="#191970" points="106.6497,-71.542 96.2657,-73.6453 105.6948,-78.4766 106.6497,-71.542"/>
</g>
<!-- Node2 -->
<g id="node3" class="node">
<title>Node2</title>
<g id="a_node3"><a xlink:href="structLLU_1_1WS_1_1Function.html" target="_top" xlink:title="Structure representing any function in Wolfram Language, i.e. a head plus number of arguments.">
<polygon fill="#ffffff" stroke="#000000" points="135.5,-38.5 135.5,-57.5 236.5,-57.5 236.5,-38.5 135.5,-38.5"/>
<text text-anchor="middle" x="186" y="-45.5" font-family="Helvetica,sans-Serif" font-size="10.00" fill="#000000">LLU::WS::Function</text>
</a>
</g>
</g>
<!-- Node0&#45;&gt;Node2 -->
<g id="edge2" class="edge">
<title>Node0&#45;&gt;Node2</title>
<path fill="none" stroke="#191970" d="M106.1743,-58.9905C115.8143,-57.6633 125.7433,-56.2962 135.1835,-54.9965"/>
<polygon fill="#191970" stroke="#191970" points="105.6948,-55.5234 96.2657,-60.3547 106.6497,-62.458 105.6948,-55.5234"/>
</g>
<!-- Node3 -->
<g id="node4" class="node">
<title>Node3</title>
<g id="a_node4"><a xlink:href="structLLU_1_1WS_1_1Association.html" target="_top" xlink:title="Special type of a Function which corresponds to the Association expression when exchanged with the Ke...">
<polygon fill="#ffffff" stroke="#000000" points="276,-76.5 276,-95.5 390,-95.5 390,-76.5 276,-76.5"/>
<text text-anchor="middle" x="333" y="-83.5" font-family="Helvetica,sans-Serif" font-size="10.00" fill="#000000">LLU::WS::Association</text>
</a>
</g>
</g>
<!-- Node2&#45;&gt;Node3 -->
<g id="edge3" class="edge">
<title>Node2&#45;&gt;Node3</title>
<path fill="none" stroke="#191970" d="M232.8548,-60.1121C253.3276,-65.4044 276.9903,-71.5213 296.1724,-76.4799"/>
<polygon fill="#191970" stroke="#191970" points="233.652,-56.7032 223.0943,-57.589 231.9001,-63.4805 233.652,-56.7032"/>
</g>
<!-- Node4 -->
<g id="node5" class="node">
<title>Node4</title>
<g id="a_node5"><a xlink:href="structLLU_1_1WS_1_1List.html" target="_top" xlink:title="Special type of a Function which corresponds to the List expression when exchanged with the Kernel vi...">
<polygon fill="#ffffff" stroke="#000000" points="293.5,-38.5 293.5,-57.5 372.5,-57.5 372.5,-38.5 293.5,-38.5"/>
<text text-anchor="middle" x="333" y="-45.5" font-family="Helvetica,sans-Serif" font-size="10.00" fill="#000000">LLU::WS::List</text>
</a>
</g>
</g>
<!-- Node2&#45;&gt;Node4 -->
<g id="edge4" class="edge">
<title>Node2&#45;&gt;Node4</title>
<path fill="none" stroke="#191970" d="M246.7965,-48C262.5537,-48 279.1142,-48 293.4617,-48"/>
<polygon fill="#191970" stroke="#191970" points="246.5891,-44.5001 236.5891,-48 246.589,-51.5001 246.5891,-44.5001"/>
</g>
<!-- Node5 -->
<g id="node6" class="node">
<title>Node5</title>
<g id="a_node6"><a xlink:href="structLLU_1_1WS_1_1Missing.html" target="_top" xlink:title="Special type of a Function which corresponds to the Missing expression when exchanged with the Kernel...">
<polygon fill="#ffffff" stroke="#000000" points="284.5,-.5 284.5,-19.5 381.5,-19.5 381.5,-.5 284.5,-.5"/>
<text text-anchor="middle" x="333" y="-7.5" font-family="Helvetica,sans-Serif" font-size="10.00" fill="#000000">LLU::WS::Missing</text>
</a>
</g>
</g>
<!-- Node2&#45;&gt;Node5 -->
<g id="edge5" class="edge">
<title>Node2&#45;&gt;Node5</title>
<path fill="none" stroke="#191970" d="M232.8548,-35.8879C253.3276,-30.5956 276.9903,-24.4787 296.1724,-19.5201"/>
<polygon fill="#191970" stroke="#191970" points="231.9001,-32.5195 223.0943,-38.411 233.652,-39.2968 231.9001,-32.5195"/>
</g>
</g>
</svg>
