<?xml version="1.0" encoding="UTF-8" standalone="no"?>
<!DOCTYPE svg PUBLIC "-//W3C//DTD SVG 1.1//EN"
 "http://www.w3.org/Graphics/SVG/1.1/DTD/svg11.dtd">
<!-- Generated by graphviz version 2.40.1 (20161225.0304)
 -->
<!-- Title: Graphical Class Hierarchy Pages: 1 -->
<svg width="753pt" height="456pt"
 viewBox="0.00 0.00 753.00 455.65" xmlns="http://www.w3.org/2000/svg" xmlns:xlink="http://www.w3.org/1999/xlink">
<g id="graph0" class="graph" transform="scale(1 1) rotate(0) translate(4 451.6487)">
<title>Graphical Class Hierarchy</title>
<polygon fill="#ffffff" stroke="transparent" points="-4,4 -4,-451.6487 749,-451.6487 749,4 -4,4"/>
<!-- Node61 -->
<g id="node1" class="node">
<title>Node61</title>
<g id="a_node1"><a xlink:href="structLLU_1_1ImageInterface.html" target="_top" xlink:title="Abstract class that defines a basic set of operations on an image.">
<polygon fill="#ffffff" stroke="#000000" points="208.5,-296 208.5,-315 314.5,-315 314.5,-296 208.5,-296"/>
<text text-anchor="middle" x="261.5" y="-303" font-family="Helvetica,sans-Serif" font-size="10.00" fill="#000000">LLU::ImageInterface</text>
</a>
</g>
</g>
<!-- Node62 -->
<g id="node2" class="node">
<title>Node62</title>
<g id="a_node2"><a xlink:href="classLLU_1_1ImageView.html" target="_top" xlink:title="Simple, light&#45;weight, non&#45;owning wrappper over MImage.">
<polygon fill="#ffffff" stroke="#000000" points="415.5,-296 415.5,-315 504.5,-315 504.5,-296 415.5,-296"/>
<text text-anchor="middle" x="460" y="-303" font-family="Helvetica,sans-Serif" font-size="10.00" fill="#000000">LLU::ImageView</text>
</a>
</g>
</g>
<!-- Node61&#45;&gt;Node62 -->
<g id="edge1" class="edge">
<title>Node61&#45;&gt;Node62</title>
<path fill="none" stroke="#191970" d="M324.8947,-305.5C354.3654,-305.5 388.7088,-305.5 415.3948,-305.5"/>
<polygon fill="#191970" stroke="#191970" points="324.6944,-302.0001 314.6944,-305.5 324.6943,-309.0001 324.6944,-302.0001"/>
</g>
<!-- Node39 -->
<g id="node3" class="node">
<title>Node39</title>
<g id="a_node3"><a xlink:href="classLLU_1_1MContainer_3_01MArgumentType_1_1Image_01_4.html" target="_top" xlink:title="MContainer specialization for MImage.">
<polygon fill="#ffffff" stroke="#000000" points="385,-246.5 385,-276.5 535,-276.5 535,-246.5 385,-246.5"/>
<text text-anchor="start" x="393" y="-264.5" font-family="Helvetica,sans-Serif" font-size="10.00" fill="#000000">LLU::MContainer&lt; MArgument</text>
<text text-anchor="middle" x="460" y="-253.5" font-family="Helvetica,sans-Serif" font-size="10.00" fill="#000000">Type::Image &gt;</text>
</a>
</g>
</g>
<!-- Node61&#45;&gt;Node39 -->
<g id="edge2" class="edge">
<title>Node61&#45;&gt;Node39</title>
<path fill="none" stroke="#191970" d="M314.938,-293.7919C325.8766,-291.3869 337.3112,-288.8669 348,-286.5 362.4916,-283.2911 378.0339,-279.8326 392.7881,-276.5416"/>
<polygon fill="#191970" stroke="#191970" points="314.0834,-290.3961 305.0674,-295.9605 315.5856,-297.233 314.0834,-290.3961"/>
</g>
<!-- Node40 -->
<g id="node4" class="node">
<title>Node40</title>
<g id="a_node4"><a xlink:href="classLLU_1_1Image.html" target="_top" xlink:title="This is a class template, where template parameter T is the type of data elements....">
<polygon fill="#ffffff" stroke="#000000" points="612.5,-203 612.5,-222 704.5,-222 704.5,-203 612.5,-203"/>
<text text-anchor="middle" x="658.5" y="-210" font-family="Helvetica,sans-Serif" font-size="10.00" fill="#000000">LLU::Image&lt; T &gt;</text>
</a>
</g>
</g>
<!-- Node39&#45;&gt;Node40 -->
<g id="edge3" class="edge">
<title>Node39&#45;&gt;Node40</title>
<path fill="none" stroke="#191970" d="M530.9122,-243.9952C560.8968,-236.5935 594.648,-228.262 619.9021,-222.028"/>
<polygon fill="#191970" stroke="#191970" points="529.7753,-240.6707 520.9055,-246.4654 531.4529,-247.4667 529.7753,-240.6707"/>
</g>
<!-- Node56 -->
<g id="node5" class="node">
<title>Node56</title>
<g id="a_node5"><a xlink:href="classLLU_1_1IterableContainer.html" target="_top" xlink:title="Abstract class that provides iterators (c/r/begin and c/r/end methods) and subscript operator for any...">
<polygon fill="#ffffff" stroke="#000000" points="0,-305 0,-324 139,-324 139,-305 0,-305"/>
<text text-anchor="middle" x="69.5" y="-312" font-family="Helvetica,sans-Serif" font-size="10.00" fill="#000000">LLU::IterableContainer&lt; T &gt;</text>
</a>
</g>
</g>
<!-- Node57 -->
<g id="node6" class="node">
<title>Node57</title>
<g id="a_node6"><a xlink:href="classLLU_1_1MArray.html" target="_top" xlink:title="This is a class template, where template parameter T is the type of data elements....">
<polygon fill="#ffffff" stroke="#000000" points="213.5,-189 213.5,-208 309.5,-208 309.5,-189 213.5,-189"/>
<text text-anchor="middle" x="261.5" y="-196" font-family="Helvetica,sans-Serif" font-size="10.00" fill="#000000">LLU::MArray&lt; T &gt;</text>
</a>
</g>
</g>
<!-- Node56&#45;&gt;Node57 -->
<g id="edge4" class="edge">
<title>Node56&#45;&gt;Node57</title>
<path fill="none" stroke="#191970" d="M88.9322,-298.414C109.4884,-281.8632 143.2748,-255.962 175,-237.5 194.933,-225.9003 218.934,-215.324 236.5923,-208.1208"/>
<polygon fill="#191970" stroke="#191970" points="86.5255,-295.86 80.977,-304.8858 90.9431,-301.29 86.5255,-295.86"/>
</g>
<!-- Node30 -->
<g id="node12" class="node">
<title>Node30</title>
<g id="a_node12"><a xlink:href="classLLU_1_1NumericArrayTypedView.html" target="_top" xlink:title="Simple, light&#45;weight, non&#45;owning wrappper over MNumericArray.">
<polygon fill="#ffffff" stroke="#000000" points="572,-403 572,-422 745,-422 745,-403 572,-403"/>
<text text-anchor="middle" x="658.5" y="-410" font-family="Helvetica,sans-Serif" font-size="10.00" fill="#000000">LLU::NumericArrayTypedView&lt; T &gt;</text>
</a>
</g>
</g>
<!-- Node56&#45;&gt;Node30 -->
<g id="edge11" class="edge">
<title>Node56&#45;&gt;Node30</title>
<path fill="none" stroke="#191970" d="M81.8348,-332.3333C99.3605,-355.9166 133.9415,-396.3724 175,-412.5 329.1111,-473.0341 532.78,-440.2842 618.1443,-422.0644"/>
<polygon fill="#191970" stroke="#191970" points="84.6627,-330.2709 75.975,-324.2067 78.9848,-334.3651 84.6627,-330.2709"/>
</g>
<!-- Node58 -->
<g id="node7" class="node">
<title>Node58</title>
<g id="a_node7"><a xlink:href="classLLU_1_1TypedImage.html" target="_top" xlink:title="Typed interface for Image.">
<polygon fill="#ffffff" stroke="#000000" points="400.5,-170 400.5,-189 519.5,-189 519.5,-170 400.5,-170"/>
<text text-anchor="middle" x="460" y="-177" font-family="Helvetica,sans-Serif" font-size="10.00" fill="#000000">LLU::TypedImage&lt; T &gt;</text>
</a>
</g>
</g>
<!-- Node57&#45;&gt;Node58 -->
<g id="edge5" class="edge">
<title>Node57&#45;&gt;Node58</title>
<path fill="none" stroke="#191970" d="M319.7628,-192.9232C345.1184,-190.4962 374.8035,-187.6548 400.3173,-185.2127"/>
<polygon fill="#191970" stroke="#191970" points="319.1723,-189.4636 309.5513,-193.9006 319.8393,-196.4318 319.1723,-189.4636"/>
</g>
<!-- Node59 -->
<g id="node8" class="node">
<title>Node59</title>
<g id="a_node8"><a xlink:href="classLLU_1_1TypedNumericArray.html" target="_top" xlink:title="Typed interface for NumericArray.">
<polygon fill="#ffffff" stroke="#000000" points="384,-208 384,-227 536,-227 536,-208 384,-208"/>
<text text-anchor="middle" x="460" y="-215" font-family="Helvetica,sans-Serif" font-size="10.00" fill="#000000">LLU::TypedNumericArray&lt; T &gt;</text>
</a>
</g>
</g>
<!-- Node57&#45;&gt;Node59 -->
<g id="edge7" class="edge">
<title>Node57&#45;&gt;Node59</title>
<path fill="none" stroke="#191970" d="M319.7543,-204.076C339.7785,-205.9927 362.5038,-208.1679 383.7426,-210.2008"/>
<polygon fill="#191970" stroke="#191970" points="319.8393,-200.5682 309.5513,-203.0994 319.1723,-207.5364 319.8393,-200.5682"/>
</g>
<!-- Node60 -->
<g id="node10" class="node">
<title>Node60</title>
<g id="a_node10"><a xlink:href="classLLU_1_1TypedTensor.html" target="_top" xlink:title="Typed interface for Tensor.">
<polygon fill="#ffffff" stroke="#000000" points="399,-132 399,-151 521,-151 521,-132 399,-132"/>
<text text-anchor="middle" x="460" y="-139" font-family="Helvetica,sans-Serif" font-size="10.00" fill="#000000">LLU::TypedTensor&lt; T &gt;</text>
</a>
</g>
</g>
<!-- Node57&#45;&gt;Node60 -->
<g id="edge9" class="edge">
<title>Node57&#45;&gt;Node60</title>
<path fill="none" stroke="#191970" d="M300.3679,-185.8348C324.3705,-178.1652 355.8558,-168.3766 384,-160.5 395.6566,-157.2377 408.3939,-153.9473 420.0517,-151.0426"/>
<polygon fill="#191970" stroke="#191970" points="299.0221,-182.5908 290.5708,-188.9802 301.162,-189.2557 299.0221,-182.5908"/>
</g>
<!-- Node58&#45;&gt;Node40 -->
<g id="edge6" class="edge">
<title>Node58&#45;&gt;Node40</title>
<path fill="none" stroke="#191970" d="M527.28,-190.6851C555.3004,-195.3434 587.127,-200.6345 612.4182,-204.8391"/>
<polygon fill="#191970" stroke="#191970" points="527.5867,-187.1881 517.1481,-189.0007 526.4387,-194.0933 527.5867,-187.1881"/>
</g>
<!-- Node28 -->
<g id="node9" class="node">
<title>Node28</title>
<g id="a_node9"><a xlink:href="classLLU_1_1NumericArray.html" target="_top" xlink:title="This is a class template, where template parameter T is the type of data elements....">
<polygon fill="#ffffff" stroke="#000000" points="596,-274 596,-293 721,-293 721,-274 596,-274"/>
<text text-anchor="middle" x="658.5" y="-281" font-family="Helvetica,sans-Serif" font-size="10.00" fill="#000000">LLU::NumericArray&lt; T &gt;</text>
</a>
</g>
</g>
<!-- Node59&#45;&gt;Node28 -->
<g id="edge8" class="edge">
<title>Node59&#45;&gt;Node28</title>
<path fill="none" stroke="#191970" d="M509.2233,-229.6695C518.1794,-232.1057 527.4044,-234.763 536,-237.5 571.0673,-248.6662 610.8079,-264.1209 635.2643,-273.965"/>
<polygon fill="#191970" stroke="#191970" points="509.8377,-226.2112 499.2738,-227.0204 508.0366,-232.9755 509.8377,-226.2112"/>
</g>
<!-- Node2 -->
<g id="node11" class="node">
<title>Node2</title>
<g id="a_node11"><a xlink:href="classLLU_1_1Tensor.html" target="_top" xlink:title="This is a class template, where template parameter T is the type of data elements....">
<polygon fill="#ffffff" stroke="#000000" points="611,-110 611,-129 706,-129 706,-110 611,-110"/>
<text text-anchor="middle" x="658.5" y="-117" font-family="Helvetica,sans-Serif" font-size="10.00" fill="#000000">LLU::Tensor&lt; T &gt;</text>
</a>
</g>
</g>
<!-- Node60&#45;&gt;Node2 -->
<g id="edge10" class="edge">
<title>Node60&#45;&gt;Node2</title>
<path fill="none" stroke="#191970" d="M531.1475,-133.6146C557.5804,-130.685 586.9115,-127.4342 610.756,-124.7915"/>
<polygon fill="#191970" stroke="#191970" points="530.7298,-130.1394 521.1762,-134.7198 531.501,-137.0968 530.7298,-130.1394"/>
</g>
<!-- Node53 -->
<g id="node13" class="node">
<title>Node53</title>
<g id="a_node13"><a xlink:href="classLLU_1_1IterableContainer.html" target="_top" xlink:title=" ">
<polygon fill="#ffffff" stroke="#000000" points="12,-.5 12,-30.5 127,-30.5 127,-.5 12,-.5"/>
<text text-anchor="start" x="20" y="-18.5" font-family="Helvetica,sans-Serif" font-size="10.00" fill="#000000">LLU::IterableContainer</text>
<text text-anchor="middle" x="69.5" y="-7.5" font-family="Helvetica,sans-Serif" font-size="10.00" fill="#000000">&lt; double &gt;</text>
</a>
</g>
</g>
<!-- Node54 -->
<g id="node14" class="node">
<title>Node54</title>
<g id="a_node14"><a xlink:href="classLLU_1_1MArray.html" target="_top" xlink:title=" ">
<polygon fill="#ffffff" stroke="#000000" points="202,-6 202,-25 321,-25 321,-6 202,-6"/>
<text text-anchor="middle" x="261.5" y="-13" font-family="Helvetica,sans-Serif" font-size="10.00" fill="#000000">LLU::MArray&lt; double &gt;</text>
</a>
</g>
</g>
<!-- Node53&#45;&gt;Node54 -->
<g id="edge12" class="edge">
<title>Node53&#45;&gt;Node54</title>
<path fill="none" stroke="#191970" d="M137.2791,-15.5C158.3689,-15.5 181.453,-15.5 201.9378,-15.5"/>
<polygon fill="#191970" stroke="#191970" points="137.1064,-12.0001 127.1063,-15.5 137.1063,-19.0001 137.1064,-12.0001"/>
</g>
<!-- Node55 -->
<g id="node15" class="node">
<title>Node55</title>
<g id="a_node15"><a xlink:href="classLLU_1_1TypedTensor.html" target="_top" xlink:title=" ">
<polygon fill="#ffffff" stroke="#000000" points="388,-6 388,-25 532,-25 532,-6 388,-6"/>
<text text-anchor="middle" x="460" y="-13" font-family="Helvetica,sans-Serif" font-size="10.00" fill="#000000">LLU::TypedTensor&lt; double &gt;</text>
</a>
</g>
</g>
<!-- Node54&#45;&gt;Node55 -->
<g id="edge13" class="edge">
<title>Node54&#45;&gt;Node55</title>
<path fill="none" stroke="#191970" d="M331.0961,-15.5C349.4767,-15.5 369.3514,-15.5 387.8632,-15.5"/>
<polygon fill="#191970" stroke="#191970" points="331.0566,-12.0001 321.0565,-15.5 331.0565,-19.0001 331.0566,-12.0001"/>
</g>
<!-- Node3 -->
<g id="node16" class="node">
<title>Node3</title>
<g id="a_node16"><a xlink:href="classLLU_1_1Tensor.html" target="_top" xlink:title=" ">
<polygon fill="#ffffff" stroke="#000000" points="600,-50 600,-69 717,-69 717,-50 600,-50"/>
<text text-anchor="middle" x="658.5" y="-57" font-family="Helvetica,sans-Serif" font-size="10.00" fill="#000000">LLU::Tensor&lt; double &gt;</text>
</a>
</g>
</g>
<!-- Node55&#45;&gt;Node3 -->
<g id="edge14" class="edge">
<title>Node55&#45;&gt;Node3</title>
<path fill="none" stroke="#191970" d="M513.1623,-27.2841C545.2059,-34.3869 585.488,-43.316 615.5125,-49.9713"/>
<polygon fill="#191970" stroke="#191970" points="513.592,-23.7945 503.0715,-25.0473 512.0771,-30.6286 513.592,-23.7945"/>
</g>
<!-- Node38 -->
<g id="node17" class="node">
<title>Node38</title>
<g id="a_node17"><a xlink:href="classLLU_1_1MContainerBase.html" target="_top" xlink:title=" ">
<polygon fill="#ffffff" stroke="#000000" points="191.5,-246.5 191.5,-276.5 331.5,-276.5 331.5,-246.5 191.5,-246.5"/>
<text text-anchor="start" x="199.5" y="-264.5" font-family="Helvetica,sans-Serif" font-size="10.00" fill="#000000">LLU::MContainerBase</text>
<text text-anchor="middle" x="261.5" y="-253.5" font-family="Helvetica,sans-Serif" font-size="10.00" fill="#000000">&lt; MArgumentType::Image &gt;</text>
</a>
</g>
</g>
<!-- Node38&#45;&gt;Node39 -->
<g id="edge15" class="edge">
<title>Node38&#45;&gt;Node39</title>
<path fill="none" stroke="#191970" d="M341.9547,-261.5C356.1033,-261.5 370.7809,-261.5 384.7799,-261.5"/>
<polygon fill="#191970" stroke="#191970" points="341.7631,-258.0001 331.763,-261.5 341.763,-265.0001 341.7631,-258.0001"/>
</g>
<!-- Node37 -->
<g id="node18" class="node">
<title>Node37</title>
<g id="a_node18"><a xlink:href="classLLU_1_1MContainerBase.html" target="_top" xlink:title=" ">
<polygon fill="#ffffff" stroke="#000000" points="175,-334.5 175,-364.5 348,-364.5 348,-334.5 175,-334.5"/>
<text text-anchor="start" x="183" y="-352.5" font-family="Helvetica,sans-Serif" font-size="10.00" fill="#000000">LLU::MContainerBase</text>
<text text-anchor="middle" x="261.5" y="-341.5" font-family="Helvetica,sans-Serif" font-size="10.00" fill="#000000">&lt; MArgumentType::NumericArray &gt;</text>
</a>
</g>
</g>
<!-- Node27 -->
<g id="node19" class="node">
<title>Node27</title>
<g id="a_node19"><a xlink:href="classLLU_1_1MContainer_3_01MArgumentType_1_1NumericArray_01_4.html" target="_top" xlink:title="MContainer specialization for MNumericArray.">
<polygon fill="#ffffff" stroke="#000000" points="385,-334.5 385,-364.5 535,-364.5 535,-334.5 385,-334.5"/>
<text text-anchor="start" x="393" y="-352.5" font-family="Helvetica,sans-Serif" font-size="10.00" fill="#000000">LLU::MContainer&lt; MArgument</text>
<text text-anchor="middle" x="460" y="-341.5" font-family="Helvetica,sans-Serif" font-size="10.00" fill="#000000">Type::NumericArray &gt;</text>
</a>
</g>
</g>
<!-- Node37&#45;&gt;Node27 -->
<g id="edge16" class="edge">
<title>Node37&#45;&gt;Node27</title>
<path fill="none" stroke="#191970" d="M358.3307,-349.5C367.2596,-349.5 376.2146,-349.5 384.9065,-349.5"/>
<polygon fill="#191970" stroke="#191970" points="358.2763,-346.0001 348.2762,-349.5 358.2762,-353.0001 358.2763,-346.0001"/>
</g>
<!-- Node27&#45;&gt;Node28 -->
<g id="edge17" class="edge">
<title>Node27&#45;&gt;Node28</title>
<path fill="none" stroke="#191970" d="M515.7462,-331.1991C522.5703,-328.948 529.4455,-326.6749 536,-324.5 568.1414,-313.8349 604.9857,-301.4867 629.8024,-293.1516"/>
<polygon fill="#191970" stroke="#191970" points="514.2301,-328.0135 505.828,-334.4675 516.421,-334.6618 514.2301,-328.0135"/>
</g>
<!-- Node36 -->
<g id="node20" class="node">
<title>Node36</title>
<g id="a_node20"><a xlink:href="classLLU_1_1MContainerBase.html" target="_top" xlink:title=" ">
<polygon fill="#ffffff" stroke="#000000" points="190,-82.5 190,-112.5 333,-112.5 333,-82.5 190,-82.5"/>
<text text-anchor="start" x="198" y="-100.5" font-family="Helvetica,sans-Serif" font-size="10.00" fill="#000000">LLU::MContainerBase</text>
<text text-anchor="middle" x="261.5" y="-89.5" font-family="Helvetica,sans-Serif" font-size="10.00" fill="#000000">&lt; MArgumentType::Tensor &gt;</text>
</a>
</g>
</g>
<!-- Node1 -->
<g id="node21" class="node">
<title>Node1</title>
<g id="a_node21"><a xlink:href="classLLU_1_1MContainer_3_01MArgumentType_1_1Tensor_01_4.html" target="_top" xlink:title="MContainer specialization for MTensor.">
<polygon fill="#ffffff" stroke="#000000" points="385,-82.5 385,-112.5 535,-112.5 535,-82.5 385,-82.5"/>
<text text-anchor="start" x="393" y="-100.5" font-family="Helvetica,sans-Serif" font-size="10.00" fill="#000000">LLU::MContainer&lt; MArgument</text>
<text text-anchor="middle" x="460" y="-89.5" font-family="Helvetica,sans-Serif" font-size="10.00" fill="#000000">Type::Tensor &gt;</text>
</a>
</g>
</g>
<!-- Node36&#45;&gt;Node1 -->
<g id="edge18" class="edge">
<title>Node36&#45;&gt;Node1</title>
<path fill="none" stroke="#191970" d="M343.5049,-97.5C357.1667,-97.5 371.2784,-97.5 384.7611,-97.5"/>
<polygon fill="#191970" stroke="#191970" points="343.1631,-94.0001 333.1631,-97.5 343.163,-101.0001 343.1631,-94.0001"/>
</g>
<!-- Node1&#45;&gt;Node2 -->
<g id="edge19" class="edge">
<title>Node1&#45;&gt;Node2</title>
<path fill="none" stroke="#191970" d="M544.9917,-106.9197C567.5826,-109.4235 591.18,-112.0388 610.9701,-114.2322"/>
<polygon fill="#191970" stroke="#191970" points="545.3691,-103.4402 535.0443,-105.8173 544.5979,-110.3976 545.3691,-103.4402"/>
</g>
<!-- Node1&#45;&gt;Node3 -->
<g id="edge20" class="edge">
<title>Node1&#45;&gt;Node3</title>
<path fill="none" stroke="#191970" d="M544.9394,-81.2396C566.6519,-77.083 589.2978,-72.7478 608.6023,-69.0522"/>
<polygon fill="#191970" stroke="#191970" points="544.2079,-77.816 535.0443,-83.1338 545.5241,-84.6911 544.2079,-77.816"/>
</g>
<!-- Node26 -->
<g id="node22" class="node">
<title>Node26</title>
<g id="a_node22"><a xlink:href="structLLU_1_1NumericArrayInterface.html" target="_top" xlink:title="Abstract class that defines a basic set of operations on a numeric array.">
<polygon fill="#ffffff" stroke="#000000" points="192,-384 192,-403 331,-403 331,-384 192,-384"/>
<text text-anchor="middle" x="261.5" y="-391" font-family="Helvetica,sans-Serif" font-size="10.00" fill="#000000">LLU::NumericArrayInterface</text>
</a>
</g>
</g>
<!-- Node26&#45;&gt;Node27 -->
<g id="edge21" class="edge">
<title>Node26&#45;&gt;Node27</title>
<path fill="none" stroke="#191970" d="M314.938,-381.7919C325.8766,-379.3869 337.3112,-376.8669 348,-374.5 362.4916,-371.2911 378.0339,-367.8326 392.7881,-364.5416"/>
<polygon fill="#191970" stroke="#191970" points="314.0834,-378.3961 305.0674,-383.9605 315.5856,-385.233 314.0834,-378.3961"/>
</g>
<!-- Node29 -->
<g id="node23" class="node">
<title>Node29</title>
<g id="a_node23"><a xlink:href="classLLU_1_1NumericArrayView.html" target="_top" xlink:title="Simple, light&#45;weight, non&#45;owning, data&#45;type&#45;agnostic wrappper over MNumericArray.">
<polygon fill="#ffffff" stroke="#000000" points="399,-384 399,-403 521,-403 521,-384 399,-384"/>
<text text-anchor="middle" x="460" y="-391" font-family="Helvetica,sans-Serif" font-size="10.00" fill="#000000">LLU::NumericArrayView</text>
</a>
</g>
</g>
<!-- Node26&#45;&gt;Node29 -->
<g id="edge22" class="edge">
<title>Node26&#45;&gt;Node29</title>
<path fill="none" stroke="#191970" d="M341.3936,-393.5C360.5023,-393.5 380.6069,-393.5 398.7238,-393.5"/>
<polygon fill="#191970" stroke="#191970" points="341.2046,-390.0001 331.2046,-393.5 341.2045,-397.0001 341.2046,-390.0001"/>
</g>
<!-- Node29&#45;&gt;Node30 -->
<g id="edge23" class="edge">
<title>Node29&#45;&gt;Node30</title>
<path fill="none" stroke="#191970" d="M531.1406,-400.3094C544.3791,-401.5766 558.3448,-402.9134 571.9843,-404.2189"/>
<polygon fill="#191970" stroke="#191970" points="531.4643,-396.8245 521.1762,-399.3557 530.7972,-403.7927 531.4643,-396.8245"/>
</g>
<!-- Node0 -->
<g id="node24" class="node">
<title>Node0</title>
<g id="a_node24"><a xlink:href="structLLU_1_1TensorInterface.html" target="_top" xlink:title="Abstract class that defines a basic set of operations on a tensor.">
<polygon fill="#ffffff" stroke="#000000" points="207,-44 207,-63 316,-63 316,-44 207,-44"/>
<text text-anchor="middle" x="261.5" y="-51" font-family="Helvetica,sans-Serif" font-size="10.00" fill="#000000">LLU::TensorInterface</text>
</a>
</g>
</g>
<!-- Node0&#45;&gt;Node1 -->
<g id="edge24" class="edge">
<title>Node0&#45;&gt;Node1</title>
<path fill="none" stroke="#191970" d="M314.938,-65.2081C325.8766,-67.6131 337.3112,-70.1331 348,-72.5 362.4916,-75.7089 378.0339,-79.1674 392.7881,-82.4584"/>
<polygon fill="#191970" stroke="#191970" points="315.5856,-61.767 305.0674,-63.0395 314.0834,-68.6039 315.5856,-61.767"/>
</g>
<!-- Node4 -->
<g id="node25" class="node">
<title>Node4</title>
<g id="a_node25"><a xlink:href="classLLU_1_1TensorView.html" target="_top" xlink:title="Simple, light&#45;weight, non&#45;owning wrappper over MTensor.">
<polygon fill="#ffffff" stroke="#000000" points="414,-44 414,-63 506,-63 506,-44 414,-44"/>
<text text-anchor="middle" x="460" y="-51" font-family="Helvetica,sans-Serif" font-size="10.00" fill="#000000">LLU::TensorView</text>
</a>
</g>
</g>
<!-- Node0&#45;&gt;Node4 -->
<g id="edge25" class="edge">
<title>Node0&#45;&gt;Node4</title>
<path fill="none" stroke="#191970" d="M326.2964,-53.5C354.8226,-53.5 387.6842,-53.5 413.6901,-53.5"/>
<polygon fill="#191970" stroke="#191970" points="326.0036,-50.0001 316.0036,-53.5 326.0035,-57.0001 326.0036,-50.0001"/>
</g>
</g>
</svg>
