<?xml version="1.0" encoding="UTF-8" standalone="no"?>
<!DOCTYPE svg PUBLIC "-//W3C//DTD SVG 1.1//EN"
 "http://www.w3.org/Graphics/SVG/1.1/DTD/svg11.dtd">
<!-- Generated by graphviz version 2.40.1 (20161225.0304)
 -->
<!-- Title: Interfaces.h Pages: 1 -->
<svg width="922pt" height="140pt"
 viewBox="0.00 0.00 922.00 140.00" xmlns="http://www.w3.org/2000/svg" xmlns:xlink="http://www.w3.org/1999/xlink">
<g id="graph0" class="graph" transform="scale(1 1) rotate(0) translate(4 136)">
<title>Interfaces.h</title>
<polygon fill="#ffffff" stroke="transparent" points="-4,4 -4,-136 918,-136 918,4 -4,4"/>
<!-- Node1 -->
<g id="node1" class="node">
<title>Node1</title>
<g id="a_node1"><a xlink:title=" ">
<polygon fill="#bfbfbf" stroke="#000000" points="294,-112.5 294,-131.5 362,-131.5 362,-112.5 294,-112.5"/>
<text text-anchor="middle" x="328" y="-119.5" font-family="Helvetica,sans-Serif" font-size="10.00" fill="#000000">Interfaces.h</text>
</a>
</g>
</g>
<!-- Node2 -->
<g id="node2" class="node">
<title>Node2</title>
<g id="a_node2"><a xlink:href="LibraryData_8h.html" target="_top" xlink:title=" ">
<polygon fill="#ffffff" stroke="#000000" points="280,-56.5 280,-75.5 376,-75.5 376,-56.5 280,-56.5"/>
<text text-anchor="middle" x="328" y="-63.5" font-family="Helvetica,sans-Serif" font-size="10.00" fill="#000000">LLU/LibraryData.h</text>
</a>
</g>
</g>
<!-- Node1&#45;&gt;Node2 -->
<g id="edge1" class="edge">
<title>Node1&#45;&gt;Node2</title>
<path fill="none" stroke="#191970" d="M328,-112.2455C328,-104.9382 328,-94.6944 328,-85.7046"/>
<polygon fill="#191970" stroke="#191970" points="331.5001,-85.6426 328,-75.6427 324.5001,-85.6427 331.5001,-85.6426"/>
</g>
<!-- Node3 -->
<g id="node3" class="node">
<title>Node3</title>
<g id="a_node3"><a xlink:title=" ">
<polygon fill="#ffffff" stroke="#bfbfbf" points="0,-.5 0,-19.5 52,-19.5 52,-.5 0,-.5"/>
<text text-anchor="middle" x="26" y="-7.5" font-family="Helvetica,sans-Serif" font-size="10.00" fill="#000000">memory</text>
</a>
</g>
</g>
<!-- Node2&#45;&gt;Node3 -->
<g id="edge2" class="edge">
<title>Node2&#45;&gt;Node3</title>
<path fill="none" stroke="#191970" d="M279.9426,-59.3143C228.3471,-51.782 143.8202,-38.4224 62.228,-20.1002"/>
<polygon fill="#191970" stroke="#191970" points="62.8219,-16.646 52.2947,-17.8412 61.2696,-23.4717 62.8219,-16.646"/>
</g>
<!-- Node4 -->
<g id="node4" class="node">
<title>Node4</title>
<g id="a_node4"><a xlink:title=" ">
<polygon fill="#ffffff" stroke="#bfbfbf" points="70,-.5 70,-19.5 132,-19.5 132,-.5 70,-.5"/>
<text text-anchor="middle" x="101" y="-7.5" font-family="Helvetica,sans-Serif" font-size="10.00" fill="#000000">dllexport.h</text>
</a>
</g>
</g>
<!-- Node2&#45;&gt;Node4 -->
<g id="edge3" class="edge">
<title>Node2&#45;&gt;Node4</title>
<path fill="none" stroke="#191970" d="M288.9502,-56.4397C253.1812,-47.6724 198.4991,-34.244 141.8535,-20.2055"/>
<polygon fill="#191970" stroke="#191970" points="142.5544,-16.7734 132.006,-17.7638 140.8697,-23.5677 142.5544,-16.7734"/>
</g>
<!-- Node5 -->
<g id="node5" class="node">
<title>Node5</title>
<g id="a_node5"><a xlink:title=" ">
<polygon fill="#ffffff" stroke="#bfbfbf" points="150,-.5 150,-19.5 196,-19.5 196,-.5 150,-.5"/>
<text text-anchor="middle" x="173" y="-7.5" font-family="Helvetica,sans-Serif" font-size="10.00" fill="#000000">wstp.h</text>
</a>
</g>
</g>
<!-- Node2&#45;&gt;Node5 -->
<g id="edge4" class="edge">
<title>Node2&#45;&gt;Node5</title>
<path fill="none" stroke="#191970" d="M301.3546,-56.3733C274.8744,-46.8062 234.2128,-32.1156 205.7712,-21.8399"/>
<polygon fill="#191970" stroke="#191970" points="206.8583,-18.5113 196.264,-18.4051 204.4797,-25.0948 206.8583,-18.5113"/>
</g>
<!-- Node6 -->
<g id="node6" class="node">
<title>Node6</title>
<g id="a_node6"><a xlink:title=" ">
<polygon fill="#ffffff" stroke="#bfbfbf" points="214.5,-.5 214.5,-19.5 305.5,-19.5 305.5,-.5 214.5,-.5"/>
<text text-anchor="middle" x="260" y="-7.5" font-family="Helvetica,sans-Serif" font-size="10.00" fill="#000000">WolframLibrary.h</text>
</a>
</g>
</g>
<!-- Node2&#45;&gt;Node6 -->
<g id="edge5" class="edge">
<title>Node2&#45;&gt;Node6</title>
<path fill="none" stroke="#191970" d="M316.1553,-56.2455C306.112,-47.9746 291.5005,-35.9416 279.6996,-26.2232"/>
<polygon fill="#191970" stroke="#191970" points="281.6533,-23.298 271.709,-19.6427 277.2033,-28.7015 281.6533,-23.298"/>
</g>
<!-- Node7 -->
<g id="node7" class="node">
<title>Node7</title>
<g id="a_node7"><a xlink:title=" ">
<polygon fill="#ffffff" stroke="#bfbfbf" points="324,-.5 324,-19.5 468,-19.5 468,-.5 324,-.5"/>
<text text-anchor="middle" x="396" y="-7.5" font-family="Helvetica,sans-Serif" font-size="10.00" fill="#000000">WolframIOLibraryFunctions.h</text>
</a>
</g>
</g>
<!-- Node2&#45;&gt;Node7 -->
<g id="edge6" class="edge">
<title>Node2&#45;&gt;Node7</title>
<path fill="none" stroke="#191970" d="M339.8447,-56.2455C349.888,-47.9746 364.4995,-35.9416 376.3004,-26.2232"/>
<polygon fill="#191970" stroke="#191970" points="378.7967,-28.7015 384.291,-19.6427 374.3467,-23.298 378.7967,-28.7015"/>
</g>
<!-- Node8 -->
<g id="node8" class="node">
<title>Node8</title>
<g id="a_node8"><a xlink:title=" ">
<polygon fill="#ffffff" stroke="#bfbfbf" points="486,-.5 486,-19.5 604,-19.5 604,-.5 486,-.5"/>
<text text-anchor="middle" x="545" y="-7.5" font-family="Helvetica,sans-Serif" font-size="10.00" fill="#000000">WolframImageLibrary.h</text>
</a>
</g>
</g>
<!-- Node2&#45;&gt;Node8 -->
<g id="edge7" class="edge">
<title>Node2&#45;&gt;Node8</title>
<path fill="none" stroke="#191970" d="M365.3036,-56.3733C402.1685,-46.8598 458.666,-32.2797 498.4506,-22.0127"/>
<polygon fill="#191970" stroke="#191970" points="499.375,-25.3889 508.1831,-19.5011 497.6258,-18.611 499.375,-25.3889"/>
</g>
<!-- Node9 -->
<g id="node9" class="node">
<title>Node9</title>
<g id="a_node9"><a xlink:title=" ">
<polygon fill="#ffffff" stroke="#bfbfbf" points="622.5,-.5 622.5,-19.5 773.5,-19.5 773.5,-.5 622.5,-.5"/>
<text text-anchor="middle" x="698" y="-7.5" font-family="Helvetica,sans-Serif" font-size="10.00" fill="#000000">WolframNumericArrayLibrary.h</text>
</a>
</g>
</g>
<!-- Node2&#45;&gt;Node9 -->
<g id="edge8" class="edge">
<title>Node2&#45;&gt;Node9</title>
<path fill="none" stroke="#191970" d="M376.371,-58.679C439.6993,-49.0942 551.2885,-32.205 624.942,-21.0574"/>
<polygon fill="#191970" stroke="#191970" points="625.7105,-24.4811 635.0741,-19.5239 624.6629,-17.5599 625.7105,-24.4811"/>
</g>
<!-- Node10 -->
<g id="node10" class="node">
<title>Node10</title>
<g id="a_node10"><a xlink:title=" ">
<polygon fill="#ffffff" stroke="#bfbfbf" points="792,-.5 792,-19.5 914,-19.5 914,-.5 792,-.5"/>
<text text-anchor="middle" x="853" y="-7.5" font-family="Helvetica,sans-Serif" font-size="10.00" fill="#000000">WolframSparseLibrary.h</text>
</a>
</g>
</g>
<!-- Node2&#45;&gt;Node10 -->
<g id="edge9" class="edge">
<title>Node2&#45;&gt;Node10</title>
<path fill="none" stroke="#191970" d="M376.2242,-61.7817C457.5834,-54.5213 627.5251,-38.7385 781.7983,-20.1056"/>
<polygon fill="#191970" stroke="#191970" points="782.4312,-23.5545 791.9362,-18.8742 781.5871,-16.6056 782.4312,-23.5545"/>
</g>
</g>
</svg>
