<?xml version="1.0" encoding="UTF-8" standalone="no"?>
<!DOCTYPE svg PUBLIC "-//W3C//DTD SVG 1.1//EN"
 "http://www.w3.org/Graphics/SVG/1.1/DTD/svg11.dtd">
<!-- Generated by graphviz version 2.40.1 (20161225.0304)
 -->
<!-- Title: LibraryLinkFunctionMacro.h Pages: 1 -->
<svg width="196pt" height="84pt"
 viewBox="0.00 0.00 195.50 84.00" xmlns="http://www.w3.org/2000/svg" xmlns:xlink="http://www.w3.org/1999/xlink">
<g id="graph0" class="graph" transform="scale(1 1) rotate(0) translate(4 80)">
<title>LibraryLinkFunctionMacro.h</title>
<polygon fill="#ffffff" stroke="transparent" points="-4,4 -4,-80 191.5,-80 191.5,4 -4,4"/>
<!-- Node1 -->
<g id="node1" class="node">
<title>Node1</title>
<g id="a_node1"><a xlink:title="Small collection of macros designed to reduce the amount of boilerplate code and to work around certa...">
<polygon fill="#bfbfbf" stroke="#000000" points="34.5,-56.5 34.5,-75.5 171.5,-75.5 171.5,-56.5 34.5,-56.5"/>
<text text-anchor="middle" x="103" y="-63.5" font-family="Helvetica,sans-Serif" font-size="10.00" fill="#000000">LibraryLinkFunctionMacro.h</text>
</a>
</g>
</g>
<!-- Node2 -->
<g id="node2" class="node">
<title>Node2</title>
<g id="a_node2"><a xlink:href="LibraryLinkError_8cpp.html" target="_top" xlink:title="Contains definitions of ErrorManager members and implementation of interface function sendRegisteredE...">
<polygon fill="#ffffff" stroke="#000000" points="0,-.5 0,-19.5 104,-19.5 104,-.5 0,-.5"/>
<text text-anchor="middle" x="52" y="-7.5" font-family="Helvetica,sans-Serif" font-size="10.00" fill="#000000">LibraryLinkError.cpp</text>
</a>
</g>
</g>
<!-- Node1&#45;&gt;Node2 -->
<g id="edge1" class="edge">
<title>Node1&#45;&gt;Node2</title>
<path fill="none" stroke="#191970" d="M87.3251,-48.7884C78.6006,-39.2085 68.0646,-27.6396 60.7817,-19.6427"/>
<polygon fill="#191970" stroke="#191970" points="84.7954,-51.2088 94.1165,-56.2455 89.9709,-46.4954 84.7954,-51.2088"/>
</g>
<!-- Node3 -->
<g id="node3" class="node">
<title>Node3</title>
<g id="a_node3"><a xlink:href="Logger_8cpp.html" target="_top" xlink:title="Implementation of functions defined in Logger.h.">
<polygon fill="#ffffff" stroke="#000000" points="122.5,-.5 122.5,-19.5 187.5,-19.5 187.5,-.5 122.5,-.5"/>
<text text-anchor="middle" x="155" y="-7.5" font-family="Helvetica,sans-Serif" font-size="10.00" fill="#000000">Logger.cpp</text>
</a>
</g>
</g>
<!-- Node1&#45;&gt;Node3 -->
<g id="edge2" class="edge">
<title>Node1&#45;&gt;Node3</title>
<path fill="none" stroke="#191970" d="M118.9822,-48.7884C127.8778,-39.2085 138.6204,-27.6396 146.0461,-19.6427"/>
<polygon fill="#191970" stroke="#191970" points="116.2975,-46.536 112.0577,-56.2455 121.427,-51.2992 116.2975,-46.536"/>
</g>
</g>
</svg>
