<?xml version="1.0" encoding="UTF-8" standalone="no"?>
<!DOCTYPE svg PUBLIC "-//W3C//DTD SVG 1.1//EN"
 "http://www.w3.org/Graphics/SVG/1.1/DTD/svg11.dtd">
<!-- Generated by graphviz version 2.40.1 (20161225.0304)
 -->
<!-- Title: LibraryLinkError.cpp Pages: 1 -->
<svg width="3135pt" height="565pt"
 viewBox="0.00 0.00 3134.52 565.00" xmlns="http://www.w3.org/2000/svg" xmlns:xlink="http://www.w3.org/1999/xlink">
<g id="graph0" class="graph" transform="scale(1 1) rotate(0) translate(4 561)">
<title>LibraryLinkError.cpp</title>
<polygon fill="#ffffff" stroke="transparent" points="-4,4 -4,-561 3130.5194,-561 3130.5194,4 -4,4"/>
<!-- Node1 -->
<g id="node1" class="node">
<title>Node1</title>
<g id="a_node1"><a xlink:title="Contains definitions of ErrorManager members and implementation of interface function sendRegisteredE...">
<polygon fill="#bfbfbf" stroke="#000000" points="342.5194,-537.5 342.5194,-556.5 446.5194,-556.5 446.5194,-537.5 342.5194,-537.5"/>
<text text-anchor="middle" x="394.5194" y="-544.5" font-family="Helvetica,sans-Serif" font-size="10.00" fill="#000000">LibraryLinkError.cpp</text>
</a>
</g>
</g>
<!-- Node2 -->
<g id="node2" class="node">
<title>Node2</title>
<g id="a_node2"><a xlink:href="LibraryLinkError_8h.html" target="_top" xlink:title="Error class and error codes used by LibraryLink Utilities classes.">
<polygon fill="#ffffff" stroke="#000000" points="661.0194,-302.5 661.0194,-332.5 786.0194,-332.5 786.0194,-302.5 661.0194,-302.5"/>
<text text-anchor="start" x="669.0194" y="-320.5" font-family="Helvetica,sans-Serif" font-size="10.00" fill="#000000">LLU/ErrorLog/LibraryLink</text>
<text text-anchor="middle" x="723.5194" y="-309.5" font-family="Helvetica,sans-Serif" font-size="10.00" fill="#000000">Error.h</text>
</a>
</g>
</g>
<!-- Node1&#45;&gt;Node2 -->
<g id="edge1" class="edge">
<title>Node1&#45;&gt;Node2</title>
<path fill="none" stroke="#191970" d="M383.026,-537.2741C368.8934,-524.1029 348.2052,-500.0521 360.5194,-481 424.5798,-381.8877 564.6613,-342.2528 650.8634,-326.8458"/>
<polygon fill="#191970" stroke="#191970" points="651.5802,-330.274 660.8411,-325.1275 650.3922,-323.3755 651.5802,-330.274"/>
</g>
<!-- Node5 -->
<g id="node5" class="node">
<title>Node5</title>
<g id="a_node5"><a xlink:href="WSStream_8hpp.html" target="_top" xlink:title="Header file for WSStream class.">
<polygon fill="#ffffff" stroke="#000000" points="413.0194,-241 413.0194,-260 550.0194,-260 550.0194,-241 413.0194,-241"/>
<text text-anchor="middle" x="481.5194" y="-248" font-family="Helvetica,sans-Serif" font-size="10.00" fill="#000000">LLU/WSTP/WSStream.hpp</text>
</a>
</g>
</g>
<!-- Node1&#45;&gt;Node5 -->
<g id="edge134" class="edge">
<title>Node1&#45;&gt;Node5</title>
<path fill="none" stroke="#191970" d="M378.6684,-537.4609C352.5963,-520.4246 303.5194,-482.1008 303.5194,-435 303.5194,-435 303.5194,-435 303.5194,-379 303.5194,-315.2648 379.4699,-279.9656 432.147,-263.1479"/>
<polygon fill="#191970" stroke="#191970" points="433.4798,-266.4002 442.0154,-260.1238 431.4288,-259.7074 433.4798,-266.4002"/>
</g>
<!-- Node36 -->
<g id="node29" class="node">
<title>Node36</title>
<g id="a_node29"><a xlink:href="LibraryLinkFunctionMacro_8h.html" target="_top" xlink:title="Small collection of macros designed to reduce the amount of boilerplate code and to work around certa...">
<polygon fill="#ffffff" stroke="#000000" points="369.5194,-481.5 369.5194,-500.5 527.5194,-500.5 527.5194,-481.5 369.5194,-481.5"/>
<text text-anchor="middle" x="448.5194" y="-488.5" font-family="Helvetica,sans-Serif" font-size="10.00" fill="#000000">LLU/LibraryLinkFunctionMacro.h</text>
</a>
</g>
</g>
<!-- Node1&#45;&gt;Node36 -->
<g id="edge54" class="edge">
<title>Node1&#45;&gt;Node36</title>
<path fill="none" stroke="#191970" d="M403.9255,-537.2455C411.6687,-529.2155 422.8314,-517.6394 432.0512,-508.0781"/>
<polygon fill="#191970" stroke="#191970" points="434.7992,-510.2706 439.2211,-500.6427 429.7603,-505.4117 434.7992,-510.2706"/>
</g>
<!-- Node37 -->
<g id="node30" class="node">
<title>Node37</title>
<g id="a_node30"><a xlink:href="MArgumentManager_8h.html" target="_top" xlink:title="Definition of MArgumentManager class.">
<polygon fill="#ffffff" stroke="#000000" points="2025.5194,-481.5 2025.5194,-500.5 2159.5194,-500.5 2159.5194,-481.5 2025.5194,-481.5"/>
<text text-anchor="middle" x="2092.5194" y="-488.5" font-family="Helvetica,sans-Serif" font-size="10.00" fill="#000000">LLU/MArgumentManager.h</text>
</a>
</g>
</g>
<!-- Node1&#45;&gt;Node37 -->
<g id="edge55" class="edge">
<title>Node1&#45;&gt;Node37</title>
<path fill="none" stroke="#191970" d="M446.7308,-545.2781C691.212,-537.2151 1723.2097,-503.1798 2015.2359,-493.5488"/>
<polygon fill="#191970" stroke="#191970" points="2015.4303,-497.0444 2025.3095,-493.2166 2015.1995,-490.0482 2015.4303,-497.0444"/>
</g>
<!-- Node3 -->
<g id="node3" class="node">
<title>Node3</title>
<g id="a_node3"><a xlink:title=" ">
<polygon fill="#ffffff" stroke="#bfbfbf" points="699.0194,-241 699.0194,-260 758.0194,-260 758.0194,-241 699.0194,-241"/>
<text text-anchor="middle" x="728.5194" y="-248" font-family="Helvetica,sans-Serif" font-size="10.00" fill="#000000">stdexcept</text>
</a>
</g>
</g>
<!-- Node2&#45;&gt;Node3 -->
<g id="edge2" class="edge">
<title>Node2&#45;&gt;Node3</title>
<path fill="none" stroke="#191970" d="M724.654,-302.2967C725.3649,-292.7699 726.2884,-280.3954 727.0544,-270.1306"/>
<polygon fill="#191970" stroke="#191970" points="730.5524,-270.2877 727.8064,-260.055 723.5718,-269.7667 730.5524,-270.2877"/>
</g>
<!-- Node4 -->
<g id="node4" class="node">
<title>Node4</title>
<g id="a_node4"><a xlink:title=" ">
<polygon fill="#ffffff" stroke="#bfbfbf" points="612.0194,-.5 612.0194,-19.5 653.0194,-19.5 653.0194,-.5 612.0194,-.5"/>
<text text-anchor="middle" x="632.5194" y="-7.5" font-family="Helvetica,sans-Serif" font-size="10.00" fill="#000000">string</text>
</a>
</g>
</g>
<!-- Node2&#45;&gt;Node4 -->
<g id="edge3" class="edge">
<title>Node2&#45;&gt;Node4</title>
<path fill="none" stroke="#191970" d="M711.9885,-302.4744C704.8905,-292.5818 696.1111,-279.0848 690.5194,-266 675.6935,-231.3064 670.5194,-221.2287 670.5194,-183.5 670.5194,-183.5 670.5194,-183.5 670.5194,-122 670.5194,-87.6118 654.256,-50.2832 643.0084,-28.5791"/>
<polygon fill="#191970" stroke="#191970" points="645.9505,-26.6605 638.1264,-19.5166 639.7877,-29.9804 645.9505,-26.6605"/>
</g>
<!-- Node2&#45;&gt;Node5 -->
<g id="edge4" class="edge">
<title>Node2&#45;&gt;Node5</title>
<path fill="none" stroke="#191970" d="M669.2099,-302.4639C625.9163,-290.4776 566.0577,-273.9052 525.6767,-262.7254"/>
<polygon fill="#191970" stroke="#191970" points="526.4233,-259.3005 515.8519,-260.0053 524.5555,-266.0467 526.4233,-259.3005"/>
</g>
<!-- Node6 -->
<g id="node6" class="node">
<title>Node6</title>
<g id="a_node6"><a xlink:title=" ">
<polygon fill="#ffffff" stroke="#bfbfbf" points="548.5194,-112.5 548.5194,-131.5 604.5194,-131.5 604.5194,-112.5 548.5194,-112.5"/>
<text text-anchor="middle" x="576.5194" y="-119.5" font-family="Helvetica,sans-Serif" font-size="10.00" fill="#000000">algorithm</text>
</a>
</g>
</g>
<!-- Node5&#45;&gt;Node6 -->
<g id="edge5" class="edge">
<title>Node5&#45;&gt;Node6</title>
<path fill="none" stroke="#191970" d="M494.3178,-240.9519C506.5432,-231.3563 524.9223,-215.6386 537.5194,-199 551.172,-180.9673 562.283,-157.4314 569.1033,-141.1504"/>
<polygon fill="#191970" stroke="#191970" points="572.4489,-142.2128 572.9493,-131.6298 565.9585,-139.5909 572.4489,-142.2128"/>
</g>
<!-- Node7 -->
<g id="node7" class="node">
<title>Node7</title>
<g id="a_node7"><a xlink:title=" ">
<polygon fill="#ffffff" stroke="#bfbfbf" points="993.0194,-174 993.0194,-193 1040.0194,-193 1040.0194,-174 993.0194,-174"/>
<text text-anchor="middle" x="1016.5194" y="-181" font-family="Helvetica,sans-Serif" font-size="10.00" fill="#000000">iterator</text>
</a>
</g>
</g>
<!-- Node5&#45;&gt;Node7 -->
<g id="edge6" class="edge">
<title>Node5&#45;&gt;Node7</title>
<path fill="none" stroke="#191970" d="M550.4148,-245.7875C667.2318,-237.3915 899.2076,-218.8528 978.5194,-199 981.1502,-198.3415 983.8387,-197.5361 986.5096,-196.6422"/>
<polygon fill="#191970" stroke="#191970" points="987.82,-199.8891 995.9709,-193.1206 985.3781,-193.3288 987.82,-199.8891"/>
</g>
<!-- Node8 -->
<g id="node8" class="node">
<title>Node8</title>
<g id="a_node8"><a xlink:title=" ">
<polygon fill="#ffffff" stroke="#bfbfbf" points="195.0194,-174 195.0194,-193 230.0194,-193 230.0194,-174 195.0194,-174"/>
<text text-anchor="middle" x="212.5194" y="-181" font-family="Helvetica,sans-Serif" font-size="10.00" fill="#000000">map</text>
</a>
</g>
</g>
<!-- Node5&#45;&gt;Node8 -->
<g id="edge7" class="edge">
<title>Node5&#45;&gt;Node8</title>
<path fill="none" stroke="#191970" d="M413.0066,-242.1212C363.3462,-234.5892 295.2395,-221.2097 238.5194,-199 237.6417,-198.6563 236.7593,-198.2847 235.8772,-197.8907"/>
<polygon fill="#191970" stroke="#191970" points="237.1475,-194.6052 226.6644,-193.0703 233.9022,-200.8076 237.1475,-194.6052"/>
</g>
<!-- Node9 -->
<g id="node9" class="node">
<title>Node9</title>
<g id="a_node9"><a xlink:title=" ">
<polygon fill="#ffffff" stroke="#bfbfbf" points="248.0194,-174 248.0194,-193 289.0194,-193 289.0194,-174 248.0194,-174"/>
<text text-anchor="middle" x="268.5194" y="-181" font-family="Helvetica,sans-Serif" font-size="10.00" fill="#000000">stack</text>
</a>
</g>
</g>
<!-- Node5&#45;&gt;Node9 -->
<g id="edge8" class="edge">
<title>Node5&#45;&gt;Node9</title>
<path fill="none" stroke="#191970" d="M437.1315,-240.9489C399.2969,-232.1338 343.8472,-217.605 297.5194,-199 296.4864,-198.5851 295.4425,-198.1436 294.3954,-197.6817"/>
<polygon fill="#191970" stroke="#191970" points="295.6136,-194.3822 285.0903,-193.1533 292.5504,-200.6764 295.6136,-194.3822"/>
</g>
<!-- Node10 -->
<g id="node10" class="node">
<title>Node10</title>
<g id="a_node10"><a xlink:title=" ">
<polygon fill="#ffffff" stroke="#bfbfbf" points="2287.5194,-56.5 2287.5194,-75.5 2349.5194,-75.5 2349.5194,-56.5 2287.5194,-56.5"/>
<text text-anchor="middle" x="2318.5194" y="-63.5" font-family="Helvetica,sans-Serif" font-size="10.00" fill="#000000">type_traits</text>
</a>
</g>
</g>
<!-- Node5&#45;&gt;Node10 -->
<g id="edge9" class="edge">
<title>Node5&#45;&gt;Node10</title>
<path fill="none" stroke="#191970" d="M550.2549,-245.2655C657.1688,-236.8985 869.7179,-219.3642 1049.5194,-199 1151.1354,-187.491 1176.1814,-181.743 1277.5194,-168 1461.5109,-143.0479 1506.8439,-131.2463 1691.5194,-112 1911.9629,-89.0261 2177.1919,-73.5559 2277.4553,-68.1403"/>
<polygon fill="#191970" stroke="#191970" points="2277.6727,-71.6337 2287.4709,-67.6032 2277.2978,-64.6438 2277.6727,-71.6337"/>
</g>
<!-- Node11 -->
<g id="node11" class="node">
<title>Node11</title>
<g id="a_node11"><a xlink:title=" ">
<polygon fill="#ffffff" stroke="#bfbfbf" points="1449.5194,-56.5 1449.5194,-75.5 1489.5194,-75.5 1489.5194,-56.5 1449.5194,-56.5"/>
<text text-anchor="middle" x="1469.5194" y="-63.5" font-family="Helvetica,sans-Serif" font-size="10.00" fill="#000000">utility</text>
</a>
</g>
</g>
<!-- Node5&#45;&gt;Node11 -->
<g id="edge10" class="edge">
<title>Node5&#45;&gt;Node11</title>
<path fill="none" stroke="#191970" d="M504.9285,-240.9898C548.2912,-223.7567 644.3658,-187.3627 728.5194,-168 1036.0337,-97.2448 1123.0706,-137.7479 1432.5194,-76 1434.7462,-75.5557 1437.0368,-75.0521 1439.3346,-74.513"/>
<polygon fill="#191970" stroke="#191970" points="1440.4441,-77.8426 1449.2792,-71.9954 1438.726,-71.0567 1440.4441,-77.8426"/>
</g>
<!-- Node12 -->
<g id="node12" class="node">
<title>Node12</title>
<g id="a_node12"><a xlink:title=" ">
<polygon fill="#ffffff" stroke="#bfbfbf" points="2208.5194,-112.5 2208.5194,-131.5 2252.5194,-131.5 2252.5194,-112.5 2208.5194,-112.5"/>
<text text-anchor="middle" x="2230.5194" y="-119.5" font-family="Helvetica,sans-Serif" font-size="10.00" fill="#000000">vector</text>
</a>
</g>
</g>
<!-- Node5&#45;&gt;Node12 -->
<g id="edge11" class="edge">
<title>Node5&#45;&gt;Node12</title>
<path fill="none" stroke="#191970" d="M550.186,-244.6103C590.9414,-241.3137 643.6448,-237.3966 690.5194,-235 974.4833,-220.4815 1690.6747,-254.6046 1969.5194,-199 2007.3216,-191.4618 2013.7853,-179.6803 2050.5194,-168 2101.5761,-151.7656 2162.1566,-137.2325 2198.4073,-129.0276"/>
<polygon fill="#191970" stroke="#191970" points="2199.4069,-132.3904 2208.3988,-126.7872 2197.8753,-125.56 2199.4069,-132.3904"/>
</g>
<!-- Node13 -->
<g id="node13" class="node">
<title>Node13</title>
<g id="a_node13"><a xlink:title=" ">
<polygon fill="#ffffff" stroke="#bfbfbf" points="252.5194,-.5 252.5194,-19.5 298.5194,-19.5 298.5194,-.5 252.5194,-.5"/>
<text text-anchor="middle" x="275.5194" y="-7.5" font-family="Helvetica,sans-Serif" font-size="10.00" fill="#000000">wstp.h</text>
</a>
</g>
</g>
<!-- Node5&#45;&gt;Node13 -->
<g id="edge12" class="edge">
<title>Node5&#45;&gt;Node13</title>
<path fill="none" stroke="#191970" d="M412.7786,-247.8568C289.792,-242.4162 42.4581,-227.97 16.5194,-199 -60.4618,-113.0222 157.1119,-42.3453 242.6374,-18.5759"/>
<polygon fill="#191970" stroke="#191970" points="243.6607,-21.9246 252.3841,-15.9118 241.8151,-15.1723 243.6607,-21.9246"/>
</g>
<!-- Node14 -->
<g id="node14" class="node">
<title>Node14</title>
<g id="a_node14"><a xlink:href="Errors_8h.html" target="_top" xlink:title="Definitions of error names and error codes used across LLU.">
<polygon fill="#ffffff" stroke="#000000" points="303.5194,-56.5 303.5194,-75.5 415.5194,-75.5 415.5194,-56.5 303.5194,-56.5"/>
<text text-anchor="middle" x="359.5194" y="-63.5" font-family="Helvetica,sans-Serif" font-size="10.00" fill="#000000">LLU/ErrorLog/Errors.h</text>
</a>
</g>
</g>
<!-- Node5&#45;&gt;Node14 -->
<g id="edge13" class="edge">
<title>Node5&#45;&gt;Node14</title>
<path fill="none" stroke="#191970" d="M412.7834,-247.5074C293.8963,-241.6206 60.152,-226.6406 35.5194,-199 -41.841,-112.1927 177.1613,-80.8607 292.9347,-70.5628"/>
<polygon fill="#191970" stroke="#191970" points="293.4606,-74.0306 303.1241,-69.687 292.8611,-67.0563 293.4606,-74.0306"/>
</g>
<!-- Node15 -->
<g id="node15" class="node">
<title>Node15</title>
<g id="a_node15"><a xlink:href="Utilities_8hpp.html" target="_top" xlink:title="Short but generally useful functions.">
<polygon fill="#ffffff" stroke="#ff0000" points="1425.0194,-112.5 1425.0194,-131.5 1514.0194,-131.5 1514.0194,-112.5 1425.0194,-112.5"/>
<text text-anchor="middle" x="1469.5194" y="-119.5" font-family="Helvetica,sans-Serif" font-size="10.00" fill="#000000">LLU/Utilities.hpp</text>
</a>
</g>
</g>
<!-- Node5&#45;&gt;Node15 -->
<g id="edge15" class="edge">
<title>Node5&#45;&gt;Node15</title>
<path fill="none" stroke="#191970" d="M550.4213,-244.3859C653.2145,-234.8879 841.6801,-215.9186 907.5194,-199 943.2501,-189.8184 948.6735,-176.7209 984.5194,-168 1064.9294,-148.4371 1305.8002,-131.9037 1414.8332,-125.1991"/>
<polygon fill="#191970" stroke="#191970" points="1415.1951,-128.6837 1424.9634,-124.5812 1414.7689,-121.6966 1415.1951,-128.6837"/>
</g>
<!-- Node27 -->
<g id="node24" class="node">
<title>Node27</title>
<g id="a_node24"><a xlink:href="Get_8h.html" target="_top" xlink:title="Header file with classes related to reading data from WSTP.">
<polygon fill="#ffffff" stroke="#ff0000" points="434.5194,-174 434.5194,-193 528.5194,-193 528.5194,-174 434.5194,-174"/>
<text text-anchor="middle" x="481.5194" y="-181" font-family="Helvetica,sans-Serif" font-size="10.00" fill="#000000">LLU/WSTP/Get.h</text>
</a>
</g>
</g>
<!-- Node5&#45;&gt;Node27 -->
<g id="edge27" class="edge">
<title>Node5&#45;&gt;Node27</title>
<path fill="none" stroke="#191970" d="M481.5194,-240.9005C481.5194,-231.149 481.5194,-215.7597 481.5194,-203.3695"/>
<polygon fill="#191970" stroke="#191970" points="485.0195,-203.0816 481.5194,-193.0817 478.0195,-203.0817 485.0195,-203.0816"/>
</g>
<!-- Node30 -->
<g id="node25" class="node">
<title>Node30</title>
<g id="a_node25"><a xlink:href="WSTP_2Utilities_8h.html" target="_top" xlink:title="Header file with miscellaneous utilities used throughout the WSTP&#45;related part of LibraryLinkUtilitie...">
<polygon fill="#ffffff" stroke="#ff0000" points="266.0194,-112.5 266.0194,-131.5 377.0194,-131.5 377.0194,-112.5 266.0194,-112.5"/>
<text text-anchor="middle" x="321.5194" y="-119.5" font-family="Helvetica,sans-Serif" font-size="10.00" fill="#000000">LLU/WSTP/Utilities.h</text>
</a>
</g>
</g>
<!-- Node5&#45;&gt;Node30 -->
<g id="edge49" class="edge">
<title>Node5&#45;&gt;Node30</title>
<path fill="none" stroke="#191970" d="M412.7197,-248.4219C334.511,-244.4399 213.9731,-232.8317 185.5194,-199 158.8058,-167.2373 212.5694,-145.9413 260.1759,-133.9439"/>
<polygon fill="#191970" stroke="#191970" points="261.0001,-137.3456 269.8993,-131.5963 259.3571,-130.5411 261.0001,-137.3456"/>
</g>
<!-- Node33 -->
<g id="node26" class="node">
<title>Node33</title>
<g id="a_node26"><a xlink:href="Put_8h.html" target="_top" xlink:title="Header file with classes related to sending data through WSTP.">
<polygon fill="#ffffff" stroke="#ff0000" points="45.0194,-174 45.0194,-193 138.0194,-193 138.0194,-174 45.0194,-174"/>
<text text-anchor="middle" x="91.5194" y="-181" font-family="Helvetica,sans-Serif" font-size="10.00" fill="#000000">LLU/WSTP/Put.h</text>
</a>
</g>
</g>
<!-- Node5&#45;&gt;Node33 -->
<g id="edge37" class="edge">
<title>Node5&#45;&gt;Node33</title>
<path fill="none" stroke="#191970" d="M412.8171,-241.6531C346.0257,-232.6039 241.865,-217.3023 152.5194,-199 147.4314,-197.9577 142.1299,-196.7682 136.8696,-195.5219"/>
<polygon fill="#191970" stroke="#191970" points="137.4165,-192.0527 126.8716,-193.0793 135.7552,-198.8527 137.4165,-192.0527"/>
</g>
<!-- Node34 -->
<g id="node27" class="node">
<title>Node34</title>
<g id="a_node27"><a xlink:href="Strings_8h.html" target="_top" xlink:title="Definitions of multiple structures and type aliases related to string handling in WSTP.">
<polygon fill="#ffffff" stroke="#ff0000" points="307.0194,-174 307.0194,-193 416.0194,-193 416.0194,-174 307.0194,-174"/>
<text text-anchor="middle" x="361.5194" y="-181" font-family="Helvetica,sans-Serif" font-size="10.00" fill="#000000">LLU/WSTP/Strings.h</text>
</a>
</g>
</g>
<!-- Node5&#45;&gt;Node34 -->
<g id="edge42" class="edge">
<title>Node5&#45;&gt;Node34</title>
<path fill="none" stroke="#191970" d="M464.3263,-240.9005C444.2767,-229.7062 410.9206,-211.0823 387.6592,-198.0947"/>
<polygon fill="#191970" stroke="#191970" points="389.1181,-194.9007 378.6806,-193.0817 385.7056,-201.0126 389.1181,-194.9007"/>
</g>
<!-- Node35 -->
<g id="node28" class="node">
<title>Node35</title>
<g id="a_node28"><a xlink:href="UtilityTypeTraits_8hpp.html" target="_top" xlink:title="Type traits used by WSStream to identify types supported by WSTP.">
<polygon fill="#ffffff" stroke="#000000" points="737.0194,-174 737.0194,-193 898.0194,-193 898.0194,-174 737.0194,-174"/>
<text text-anchor="middle" x="817.5194" y="-181" font-family="Helvetica,sans-Serif" font-size="10.00" fill="#000000">LLU/WSTP/UtilityTypeTraits.hpp</text>
</a>
</g>
</g>
<!-- Node5&#45;&gt;Node35 -->
<g id="edge50" class="edge">
<title>Node5&#45;&gt;Node35</title>
<path fill="none" stroke="#191970" d="M529.3032,-240.9717C589.9256,-228.8833 694.4046,-208.0497 759.5276,-195.0638"/>
<polygon fill="#191970" stroke="#191970" points="760.5063,-198.4377 769.6288,-193.0496 759.1374,-191.5728 760.5063,-198.4377"/>
</g>
<!-- Node14&#45;&gt;Node4 -->
<g id="edge14" class="edge">
<title>Node14&#45;&gt;Node4</title>
<path fill="none" stroke="#191970" d="M406.1396,-56.4369C462.0642,-44.9652 554.2233,-26.0608 601.8698,-16.2871"/>
<polygon fill="#191970" stroke="#191970" points="602.7889,-19.6715 611.8816,-14.2334 601.3822,-12.8143 602.7889,-19.6715"/>
</g>
<!-- Node15&#45;&gt;Node10 -->
<g id="edge18" class="edge">
<title>Node15&#45;&gt;Node10</title>
<path fill="none" stroke="#191970" d="M1514.2241,-113.893C1519.0389,-113.1782 1523.8741,-112.5273 1528.5194,-112 1813.7454,-79.6232 2159.6432,-69.454 2277.1673,-66.8095"/>
<polygon fill="#191970" stroke="#191970" points="2277.2554,-70.3085 2287.1763,-66.5902 2277.102,-63.3102 2277.2554,-70.3085"/>
</g>
<!-- Node15&#45;&gt;Node11 -->
<g id="edge19" class="edge">
<title>Node15&#45;&gt;Node11</title>
<path fill="none" stroke="#191970" d="M1469.5194,-112.2455C1469.5194,-104.9382 1469.5194,-94.6944 1469.5194,-85.7046"/>
<polygon fill="#191970" stroke="#191970" points="1473.0195,-85.6426 1469.5194,-75.6427 1466.0195,-85.6427 1473.0195,-85.6426"/>
</g>
<!-- Node16 -->
<g id="node16" class="node">
<title>Node16</title>
<g id="a_node16"><a xlink:title=" ">
<polygon fill="#ffffff" stroke="#bfbfbf" points="1370.0194,-56.5 1370.0194,-75.5 1423.0194,-75.5 1423.0194,-56.5 1370.0194,-56.5"/>
<text text-anchor="middle" x="1396.5194" y="-63.5" font-family="Helvetica,sans-Serif" font-size="10.00" fill="#000000">complex</text>
</a>
</g>
</g>
<!-- Node15&#45;&gt;Node16 -->
<g id="edge16" class="edge">
<title>Node15&#45;&gt;Node16</title>
<path fill="none" stroke="#191970" d="M1456.8038,-112.2455C1445.9174,-103.8943 1430.0311,-91.7076 1417.2994,-81.9408"/>
<polygon fill="#191970" stroke="#191970" points="1419.154,-78.9523 1409.0893,-75.6427 1414.8933,-84.5063 1419.154,-78.9523"/>
</g>
<!-- Node17 -->
<g id="node17" class="node">
<title>Node17</title>
<g id="a_node17"><a xlink:title=" ">
<polygon fill="#ffffff" stroke="#bfbfbf" points="1140.5194,-56.5 1140.5194,-75.5 1186.5194,-75.5 1186.5194,-56.5 1140.5194,-56.5"/>
<text text-anchor="middle" x="1163.5194" y="-63.5" font-family="Helvetica,sans-Serif" font-size="10.00" fill="#000000">cstdint</text>
</a>
</g>
</g>
<!-- Node15&#45;&gt;Node17 -->
<g id="edge17" class="edge">
<title>Node15&#45;&gt;Node17</title>
<path fill="none" stroke="#191970" d="M1424.6967,-113.7971C1362.6271,-102.438 1251.9262,-82.179 1196.7249,-72.0768"/>
<polygon fill="#191970" stroke="#191970" points="1197.238,-68.6127 1186.7713,-70.2552 1195.9778,-75.4983 1197.238,-68.6127"/>
</g>
<!-- Node19 -->
<g id="node18" class="node">
<title>Node19</title>
<g id="a_node18"><a xlink:href="LibraryData_8h.html" target="_top" xlink:title=" ">
<polygon fill="#ffffff" stroke="#ff0000" points="2507.5194,-56.5 2507.5194,-75.5 2603.5194,-75.5 2603.5194,-56.5 2507.5194,-56.5"/>
<text text-anchor="middle" x="2555.5194" y="-63.5" font-family="Helvetica,sans-Serif" font-size="10.00" fill="#000000">LLU/LibraryData.h</text>
</a>
</g>
</g>
<!-- Node15&#45;&gt;Node19 -->
<g id="edge20" class="edge">
<title>Node15&#45;&gt;Node19</title>
<path fill="none" stroke="#191970" d="M1514.1166,-119.7003C1685.7791,-110.8485 2303.8814,-78.9758 2497.2636,-69.004"/>
<polygon fill="#191970" stroke="#191970" points="2497.6944,-72.4865 2507.5009,-68.4761 2497.3339,-65.4958 2497.6944,-72.4865"/>
</g>
<!-- Node19&#45;&gt;Node13 -->
<g id="edge23" class="edge">
<title>Node19&#45;&gt;Node13</title>
<path fill="none" stroke="#191970" d="M2507.3653,-63.1488C2467.4908,-60.8856 2409.3416,-57.8107 2358.5194,-56 1578.85,-28.2212 1383.43,-39.8875 603.5194,-20 495.7526,-17.252 368.0968,-13.1029 308.8317,-11.1253"/>
<polygon fill="#191970" stroke="#191970" points="308.6932,-7.6188 298.5817,-10.7822 308.459,-14.6149 308.6932,-7.6188"/>
</g>
<!-- Node20 -->
<g id="node19" class="node">
<title>Node20</title>
<g id="a_node19"><a xlink:title=" ">
<polygon fill="#ffffff" stroke="#bfbfbf" points="1854.5194,-.5 1854.5194,-19.5 1906.5194,-19.5 1906.5194,-.5 1854.5194,-.5"/>
<text text-anchor="middle" x="1880.5194" y="-7.5" font-family="Helvetica,sans-Serif" font-size="10.00" fill="#000000">memory</text>
</a>
</g>
</g>
<!-- Node19&#45;&gt;Node20 -->
<g id="edge21" class="edge">
<title>Node19&#45;&gt;Node20</title>
<path fill="none" stroke="#191970" d="M2507.5162,-62.0175C2379.2794,-51.3786 2030.7419,-22.4629 1916.9737,-13.0244"/>
<polygon fill="#191970" stroke="#191970" points="1916.9673,-9.5119 1906.7121,-12.173 1916.3884,-16.4879 1916.9673,-9.5119"/>
</g>
<!-- Node21 -->
<g id="node20" class="node">
<title>Node21</title>
<g id="a_node20"><a xlink:title=" ">
<polygon fill="#ffffff" stroke="#bfbfbf" points="2476.5194,-.5 2476.5194,-19.5 2538.5194,-19.5 2538.5194,-.5 2476.5194,-.5"/>
<text text-anchor="middle" x="2507.5194" y="-7.5" font-family="Helvetica,sans-Serif" font-size="10.00" fill="#000000">dllexport.h</text>
</a>
</g>
</g>
<!-- Node19&#45;&gt;Node21 -->
<g id="edge22" class="edge">
<title>Node19&#45;&gt;Node21</title>
<path fill="none" stroke="#191970" d="M2547.1585,-56.2455C2540.3444,-48.2958 2530.5513,-36.8706 2522.4042,-27.3656"/>
<polygon fill="#191970" stroke="#191970" points="2524.9499,-24.9575 2515.7846,-19.6427 2519.6351,-29.513 2524.9499,-24.9575"/>
</g>
<!-- Node22 -->
<g id="node21" class="node">
<title>Node22</title>
<g id="a_node21"><a xlink:title=" ">
<polygon fill="#ffffff" stroke="#bfbfbf" points="2557.0194,-.5 2557.0194,-19.5 2648.0194,-19.5 2648.0194,-.5 2557.0194,-.5"/>
<text text-anchor="middle" x="2602.5194" y="-7.5" font-family="Helvetica,sans-Serif" font-size="10.00" fill="#000000">WolframLibrary.h</text>
</a>
</g>
</g>
<!-- Node19&#45;&gt;Node22 -->
<g id="edge24" class="edge">
<title>Node19&#45;&gt;Node22</title>
<path fill="none" stroke="#191970" d="M2563.7062,-56.2455C2570.3783,-48.2958 2579.9673,-36.8706 2587.9447,-27.3656"/>
<polygon fill="#191970" stroke="#191970" points="2590.6786,-29.5525 2594.4265,-19.6427 2585.3168,-25.0524 2590.6786,-29.5525"/>
</g>
<!-- Node23 -->
<g id="node22" class="node">
<title>Node23</title>
<g id="a_node22"><a xlink:title=" ">
<polygon fill="#ffffff" stroke="#bfbfbf" points="2666.5194,-.5 2666.5194,-19.5 2810.5194,-19.5 2810.5194,-.5 2666.5194,-.5"/>
<text text-anchor="middle" x="2738.5194" y="-7.5" font-family="Helvetica,sans-Serif" font-size="10.00" fill="#000000">WolframIOLibraryFunctions.h</text>
</a>
</g>
</g>
<!-- Node19&#45;&gt;Node23 -->
<g id="edge25" class="edge">
<title>Node19&#45;&gt;Node23</title>
<path fill="none" stroke="#191970" d="M2586.9782,-56.3733C2617.5401,-47.021 2664.1021,-32.7725 2697.5455,-22.5385"/>
<polygon fill="#191970" stroke="#191970" points="2698.933,-25.7742 2707.4711,-19.5011 2696.8846,-19.0806 2698.933,-25.7742"/>
</g>
<!-- Node24 -->
<g id="node23" class="node">
<title>Node24</title>
<g id="a_node23"><a xlink:title=" ">
<polygon fill="#ffffff" stroke="#bfbfbf" points="2340.5194,-.5 2340.5194,-19.5 2458.5194,-19.5 2458.5194,-.5 2340.5194,-.5"/>
<text text-anchor="middle" x="2399.5194" y="-7.5" font-family="Helvetica,sans-Serif" font-size="10.00" fill="#000000">WolframImageLibrary.h</text>
</a>
</g>
</g>
<!-- Node19&#45;&gt;Node24 -->
<g id="edge26" class="edge">
<title>Node19&#45;&gt;Node24</title>
<path fill="none" stroke="#191970" d="M2528.7021,-56.3733C2502.9862,-47.1419 2463.9814,-33.1402 2435.5595,-22.9375"/>
<polygon fill="#191970" stroke="#191970" points="2436.5813,-19.5857 2425.9868,-19.5011 2434.2162,-26.174 2436.5813,-19.5857"/>
</g>
<!-- Node27&#45;&gt;Node4 -->
<g id="edge29" class="edge">
<title>Node27&#45;&gt;Node4</title>
<path fill="none" stroke="#191970" d="M489.2241,-173.6388C500.1724,-159.7108 520.9653,-133.5688 539.5194,-112 565.754,-81.5027 597.5725,-47.142 616.3706,-27.0987"/>
<polygon fill="#191970" stroke="#191970" points="619.0491,-29.3595 623.3503,-19.6771 613.9498,-24.5639 619.0491,-29.3595"/>
</g>
<!-- Node27&#45;&gt;Node13 -->
<g id="edge30" class="edge">
<title>Node27&#45;&gt;Node13</title>
<path fill="none" stroke="#191970" d="M480.0025,-173.915C475.7568,-150.2879 461.5454,-88.7978 424.5194,-56 391.9696,-27.1673 341.611,-16.4068 308.6035,-12.391"/>
<polygon fill="#191970" stroke="#191970" points="308.8578,-8.8983 298.541,-11.3098 308.1099,-15.8582 308.8578,-8.8983"/>
</g>
<!-- Node27&#45;&gt;Node14 -->
<g id="edge31" class="edge">
<title>Node27&#45;&gt;Node14</title>
<path fill="none" stroke="#191970" d="M471.5356,-173.8845C450.8032,-153.9167 402.8611,-107.743 376.9282,-82.7667"/>
<polygon fill="#191970" stroke="#191970" points="379.2718,-80.1645 369.6411,-75.7484 374.4159,-85.2063 379.2718,-80.1645"/>
</g>
<!-- Node27&#45;&gt;Node15 -->
<g id="edge32" class="edge">
<title>Node27&#45;&gt;Node15</title>
<path fill="none" stroke="#191970" d="M528.8704,-180.5191C578.5907,-177.3913 659.0492,-172.336 728.5194,-168 985.0818,-151.9865 1291.6224,-133.0053 1414.5567,-125.3993"/>
<polygon fill="#191970" stroke="#191970" points="1415.0673,-128.8745 1424.832,-124.7636 1414.6349,-121.8879 1415.0673,-128.8745"/>
</g>
<!-- Node27&#45;&gt;Node20 -->
<g id="edge28" class="edge">
<title>Node27&#45;&gt;Node20</title>
<path fill="none" stroke="#191970" d="M528.6751,-176.2805C588.7176,-166.9176 695.5884,-149.6813 786.5194,-132 940.6425,-102.0312 976.0259,-77.767 1131.5194,-56 1271.7587,-36.3684 1713.9246,-16.9076 1844.1142,-11.4839"/>
<polygon fill="#191970" stroke="#191970" points="1844.4943,-14.9712 1854.3408,-11.06 1844.2044,-7.9772 1844.4943,-14.9712"/>
</g>
<!-- Node27&#45;&gt;Node30 -->
<g id="edge33" class="edge">
<title>Node27&#45;&gt;Node30</title>
<path fill="none" stroke="#191970" d="M456.5194,-173.8906C429.5136,-163.5103 386.301,-146.9004 356.06,-135.2766"/>
<polygon fill="#191970" stroke="#191970" points="356.9338,-131.8628 346.3439,-131.5419 354.4223,-138.3968 356.9338,-131.8628"/>
</g>
<!-- Node30&#45;&gt;Node4 -->
<g id="edge34" class="edge">
<title>Node30&#45;&gt;Node4</title>
<path fill="none" stroke="#191970" d="M348.0351,-112.4509C405.5225,-91.7481 541.3411,-42.8359 602.1542,-20.9354"/>
<polygon fill="#191970" stroke="#191970" points="603.7032,-24.0977 611.9258,-17.4164 601.3314,-17.5117 603.7032,-24.0977"/>
</g>
<!-- Node30&#45;&gt;Node13 -->
<g id="edge35" class="edge">
<title>Node30&#45;&gt;Node13</title>
<path fill="none" stroke="#191970" d="M314.7555,-112.1523C308.7733,-103.0886 300.1454,-89.104 294.5194,-76 288.0514,-60.9347 283.0502,-43.0127 279.8061,-29.6489"/>
<polygon fill="#191970" stroke="#191970" points="283.1596,-28.6151 277.5006,-19.6581 276.3388,-30.1891 283.1596,-28.6151"/>
</g>
<!-- Node30&#45;&gt;Node14 -->
<g id="edge36" class="edge">
<title>Node30&#45;&gt;Node14</title>
<path fill="none" stroke="#191970" d="M328.1385,-112.2455C333.424,-104.4564 340.9735,-93.3308 347.3432,-83.9439"/>
<polygon fill="#191970" stroke="#191970" points="350.2573,-85.8827 352.9762,-75.6427 344.4649,-81.9522 350.2573,-85.8827"/>
</g>
<!-- Node33&#45;&gt;Node13 -->
<g id="edge38" class="edge">
<title>Node33&#45;&gt;Node13</title>
<path fill="none" stroke="#191970" d="M101.6741,-173.9248C131.6373,-145.6715 219.9467,-62.4014 257.8787,-26.634"/>
<polygon fill="#191970" stroke="#191970" points="260.2948,-29.1665 265.1693,-19.7595 255.4925,-24.0735 260.2948,-29.1665"/>
</g>
<!-- Node33&#45;&gt;Node14 -->
<g id="edge39" class="edge">
<title>Node33&#45;&gt;Node14</title>
<path fill="none" stroke="#191970" d="M113.451,-173.8845C160.9773,-153.0474 273.5934,-103.6728 328.434,-79.6289"/>
<polygon fill="#191970" stroke="#191970" points="329.9076,-82.8045 337.6607,-75.5836 327.0968,-76.3936 329.9076,-82.8045"/>
</g>
<!-- Node33&#45;&gt;Node15 -->
<g id="edge40" class="edge">
<title>Node33&#45;&gt;Node15</title>
<path fill="none" stroke="#191970" d="M138.2202,-174.5923C153.266,-172.0468 170.0491,-169.5462 185.5194,-168 429.5715,-143.6076 1201.8382,-127.1778 1414.7165,-123.0304"/>
<polygon fill="#191970" stroke="#191970" points="1415.0841,-126.5241 1425.0144,-122.8309 1414.9484,-119.5254 1415.0841,-126.5241"/>
</g>
<!-- Node33&#45;&gt;Node30 -->
<g id="edge41" class="edge">
<title>Node33&#45;&gt;Node30</title>
<path fill="none" stroke="#191970" d="M127.2046,-173.9581C167.2387,-163.2533 232.2765,-145.8628 275.9544,-134.1837"/>
<polygon fill="#191970" stroke="#191970" points="276.9941,-137.5287 285.7506,-131.5643 275.1858,-130.7663 276.9941,-137.5287"/>
</g>
<!-- Node34&#45;&gt;Node6 -->
<g id="edge43" class="edge">
<title>Node34&#45;&gt;Node6</title>
<path fill="none" stroke="#191970" d="M395.1132,-173.8906C433.982,-162.7723 497.8353,-144.5073 538.4937,-132.8771"/>
<polygon fill="#191970" stroke="#191970" points="539.6496,-136.1869 548.3015,-130.0716 537.7245,-129.4568 539.6496,-136.1869"/>
</g>
<!-- Node34&#45;&gt;Node13 -->
<g id="edge45" class="edge">
<title>Node34&#45;&gt;Node13</title>
<path fill="none" stroke="#191970" d="M318.2583,-173.9422C295.6997,-166.5254 270.0522,-153.7104 256.5194,-132 236.4987,-99.8811 253.1324,-54.0336 265.3831,-28.673"/>
<polygon fill="#191970" stroke="#191970" points="268.5148,-30.2361 269.9341,-19.7367 262.2771,-27.0594 268.5148,-30.2361"/>
</g>
<!-- Node34&#45;&gt;Node14 -->
<g id="edge46" class="edge">
<title>Node34&#45;&gt;Node14</title>
<path fill="none" stroke="#191970" d="M368.4971,-173.9094C377.5295,-160.3028 391.4487,-134.5402 385.5194,-112 382.9082,-102.0734 377.6127,-92.0366 372.4782,-83.8822"/>
<polygon fill="#191970" stroke="#191970" points="375.3835,-81.9303 366.9013,-75.5817 369.5731,-85.8342 375.3835,-81.9303"/>
</g>
<!-- Node34&#45;&gt;Node15 -->
<g id="edge47" class="edge">
<title>Node34&#45;&gt;Node15</title>
<path fill="none" stroke="#191970" d="M395.4936,-173.9789C405.1258,-171.6333 415.6717,-169.396 425.5194,-168 619.3358,-140.5244 1228.2272,-126.6839 1414.6991,-123.0143"/>
<polygon fill="#191970" stroke="#191970" points="1414.8867,-126.5114 1424.8165,-122.8171 1414.7502,-119.5128 1414.8867,-126.5114"/>
</g>
<!-- Node34&#45;&gt;Node20 -->
<g id="edge44" class="edge">
<title>Node34&#45;&gt;Node20</title>
<path fill="none" stroke="#191970" d="M399.6886,-173.921C408.1739,-171.8851 417.1377,-169.8066 425.5194,-168 433.6996,-166.2368 1009.2116,-57.0027 1017.5194,-56 1181.3867,-36.2218 1701.0361,-16.4624 1843.8768,-11.2986"/>
<polygon fill="#191970" stroke="#191970" points="1844.3929,-14.7824 1854.2605,-10.925 1844.1411,-7.7869 1844.3929,-14.7824"/>
</g>
<!-- Node34&#45;&gt;Node30 -->
<g id="edge48" class="edge">
<title>Node34&#45;&gt;Node30</title>
<path fill="none" stroke="#191970" d="M355.2694,-173.8906C349.4329,-164.917 340.5685,-151.2879 333.3888,-140.2491"/>
<polygon fill="#191970" stroke="#191970" points="336.2439,-138.2194 327.8575,-131.7449 330.3758,-142.0361 336.2439,-138.2194"/>
</g>
<!-- Node35&#45;&gt;Node10 -->
<g id="edge51" class="edge">
<title>Node35&#45;&gt;Node10</title>
<path fill="none" stroke="#191970" d="M866.9931,-173.9757C878.9268,-171.8466 891.6575,-169.7143 903.5194,-168 1130.5156,-135.1949 1187.8956,-130.2928 1416.5194,-112 1747.939,-85.4823 2149.1552,-71.3346 2277.1778,-67.2576"/>
<polygon fill="#191970" stroke="#191970" points="2277.4349,-70.7514 2287.3195,-66.9376 2277.2141,-63.7548 2277.4349,-70.7514"/>
</g>
<!-- Node35&#45;&gt;Node13 -->
<g id="edge52" class="edge">
<title>Node35&#45;&gt;Node13</title>
<path fill="none" stroke="#191970" d="M791.7255,-173.8415C731.7872,-151.5677 578.2512,-95.4885 447.5194,-56 399.6527,-41.5415 343.6011,-26.9881 308.8215,-18.2328"/>
<polygon fill="#191970" stroke="#191970" points="309.2942,-14.7432 298.7434,-15.7084 307.5933,-21.5334 309.2942,-14.7432"/>
</g>
<!-- Node35&#45;&gt;Node15 -->
<g id="edge53" class="edge">
<title>Node35&#45;&gt;Node15</title>
<path fill="none" stroke="#191970" d="M896.2468,-173.9607C914.0824,-171.901 932.9442,-169.8026 950.5194,-168 1119.4337,-150.675 1319.6803,-134.0248 1414.4913,-126.3748"/>
<polygon fill="#191970" stroke="#191970" points="1415.0153,-129.844 1424.7022,-125.5529 1414.4536,-122.8666 1415.0153,-129.844"/>
</g>
<!-- Node37&#45;&gt;Node4 -->
<g id="edge60" class="edge">
<title>Node37&#45;&gt;Node4</title>
<path fill="none" stroke="#191970" d="M2025.3373,-490.2542C1812.1628,-487.5827 1152.6092,-476.8894 941.5194,-445 520.8911,-381.4555 275.8027,-536.2511 16.5194,-199 -.1874,-177.2694 35.7731,-112.6556 36.5194,-112 122.293,-36.656 492.5561,-15.71 601.9645,-11.1145"/>
<polygon fill="#191970" stroke="#191970" points="602.1561,-14.6097 612.0064,-10.7084 601.8731,-7.6154 602.1561,-14.6097"/>
</g>
<!-- Node37&#45;&gt;Node10 -->
<g id="edge61" class="edge">
<title>Node37&#45;&gt;Node10</title>
<path fill="none" stroke="#191970" d="M2159.5367,-489.5197C2365.3644,-484.0929 2974.5194,-461.0974 2974.5194,-379 2974.5194,-379 2974.5194,-379 2974.5194,-250.5 2974.5194,-177.8075 2949.6695,-149.7036 2887.5194,-112 2864.9836,-98.3285 2486.8586,-75.607 2359.7911,-68.3228"/>
<polygon fill="#191970" stroke="#191970" points="2359.8666,-64.8215 2349.6833,-67.7456 2359.4675,-71.8101 2359.8666,-64.8215"/>
</g>
<!-- Node37&#45;&gt;Node11 -->
<g id="edge62" class="edge">
<title>Node37&#45;&gt;Node11</title>
<path fill="none" stroke="#191970" d="M2025.435,-490.3561C1804.9288,-487.3622 1116.5194,-470.6741 1116.5194,-379 1116.5194,-379 1116.5194,-379 1116.5194,-317.5 1116.5194,-189.7415 1202.1534,-166.89 1317.5194,-112 1328.6796,-106.6901 1398.7734,-86.2521 1439.7707,-74.4825"/>
<polygon fill="#191970" stroke="#191970" points="1440.8639,-77.8102 1449.5133,-71.6915 1438.9361,-71.0809 1440.8639,-77.8102"/>
</g>
<!-- Node37&#45;&gt;Node12 -->
<g id="edge63" class="edge">
<title>Node37&#45;&gt;Node12</title>
<path fill="none" stroke="#191970" d="M2159.7095,-483.3686C2218.3829,-472.8285 2300.5364,-447.8701 2342.5194,-389 2382.448,-333.0107 2385.6755,-297.7401 2357.5194,-235 2337.2606,-189.8573 2289.0663,-155.377 2258.2159,-136.9553"/>
<polygon fill="#191970" stroke="#191970" points="2259.6559,-133.7446 2249.2486,-131.7597 2256.1466,-139.8014 2259.6559,-133.7446"/>
</g>
<!-- Node37&#45;&gt;Node16 -->
<g id="edge56" class="edge">
<title>Node37&#45;&gt;Node16</title>
<path fill="none" stroke="#191970" d="M2025.4002,-489.3335C1830.6741,-484.2501 1274.3754,-467.8823 1195.5194,-445 1138.1817,-428.3619 1078.5194,-438.703 1078.5194,-379 1078.5194,-379 1078.5194,-379 1078.5194,-317.5 1078.5194,-242.1405 1103.1026,-219.0689 1158.5194,-168 1217.2809,-113.8488 1309.1856,-85.7209 1359.8771,-73.5852"/>
<polygon fill="#191970" stroke="#191970" points="1360.7899,-76.9666 1369.7429,-71.3015 1359.2112,-70.1469 1360.7899,-76.9666"/>
</g>
<!-- Node37&#45;&gt;Node17 -->
<g id="edge57" class="edge">
<title>Node37&#45;&gt;Node17</title>
<path fill="none" stroke="#191970" d="M2025.3254,-490.5802C1832.5756,-488.9475 1280.3421,-481.1559 1103.5194,-445 1021.2637,-428.1807 926.5194,-462.9577 926.5194,-379 926.5194,-379 926.5194,-379 926.5194,-183.5 926.5194,-138.4903 1065.4638,-93.5206 1130.5792,-74.9171"/>
<polygon fill="#191970" stroke="#191970" points="1131.6865,-78.2415 1140.3633,-72.1618 1129.789,-71.5036 1131.6865,-78.2415"/>
</g>
<!-- Node37&#45;&gt;Node19 -->
<g id="edge124" class="edge">
<title>Node37&#45;&gt;Node19</title>
<path fill="none" stroke="#191970" d="M2159.8054,-490.512C2383.5505,-488.0097 3088.5194,-472.6916 3088.5194,-379 3088.5194,-379 3088.5194,-379 3088.5194,-183.5 3088.5194,-132.7608 3046.4483,-131.2911 2999.5194,-112 2931.1068,-83.8775 2717.8424,-72.118 2613.7913,-67.9556"/>
<polygon fill="#191970" stroke="#191970" points="2613.8982,-64.4572 2603.7694,-67.5647 2613.6254,-71.4519 2613.8982,-64.4572"/>
</g>
<!-- Node37&#45;&gt;Node20 -->
<g id="edge59" class="edge">
<title>Node37&#45;&gt;Node20</title>
<path fill="none" stroke="#191970" d="M2159.7639,-489.0568C2354.172,-483.2268 2908.1332,-465.0447 2987.5194,-445 3053.8265,-428.2577 3126.5194,-447.3881 3126.5194,-379 3126.5194,-379 3126.5194,-379 3126.5194,-122 3126.5194,-59.5882 2121.7512,-18.9511 1916.7685,-11.3102"/>
<polygon fill="#191970" stroke="#191970" points="1916.6665,-7.8041 1906.5439,-10.9318 1916.4076,-14.7993 1916.6665,-7.8041"/>
</g>
<!-- Node38 -->
<g id="node31" class="node">
<title>Node38</title>
<g id="a_node31"><a xlink:title=" ">
<polygon fill="#ffffff" stroke="#bfbfbf" points="2005.5194,-425.5 2005.5194,-444.5 2045.5194,-444.5 2045.5194,-425.5 2005.5194,-425.5"/>
<text text-anchor="middle" x="2025.5194" y="-432.5" font-family="Helvetica,sans-Serif" font-size="10.00" fill="#000000">limits</text>
</a>
</g>
</g>
<!-- Node37&#45;&gt;Node38 -->
<g id="edge58" class="edge">
<title>Node37&#45;&gt;Node38</title>
<path fill="none" stroke="#191970" d="M2080.8489,-481.2455C2070.9533,-472.9746 2056.5567,-460.9416 2044.9293,-451.2232"/>
<polygon fill="#191970" stroke="#191970" points="2046.9736,-448.3703 2037.0562,-444.6427 2042.4844,-453.7413 2046.9736,-448.3703"/>
</g>
<!-- Node39 -->
<g id="node32" class="node">
<title>Node39</title>
<g id="a_node32"><a xlink:href="DataList_8h.html" target="_top" xlink:title="Definition of templated DataStore wrapper called DataList.">
<polygon fill="#ffffff" stroke="#000000" points="1617.0194,-425.5 1617.0194,-444.5 1750.0194,-444.5 1750.0194,-425.5 1617.0194,-425.5"/>
<text text-anchor="middle" x="1683.5194" y="-432.5" font-family="Helvetica,sans-Serif" font-size="10.00" fill="#000000">LLU/Containers/DataList.h</text>
</a>
</g>
</g>
<!-- Node37&#45;&gt;Node39 -->
<g id="edge64" class="edge">
<title>Node37&#45;&gt;Node39</title>
<path fill="none" stroke="#191970" d="M2025.4394,-481.8154C1952.6736,-471.8524 1836.7043,-455.974 1760.3358,-445.5176"/>
<polygon fill="#191970" stroke="#191970" points="1760.6788,-442.032 1750.2964,-444.1431 1759.7291,-448.9673 1760.6788,-442.032"/>
</g>
<!-- Node46 -->
<g id="node36" class="node">
<title>Node46</title>
<g id="a_node36"><a xlink:href="MArgument_8h.html" target="_top" xlink:title="Template class and utilities to work with MArgument in type&#45;safe manner.">
<polygon fill="#ffffff" stroke="#ff0000" points="1286.5194,-174 1286.5194,-193 1382.5194,-193 1382.5194,-174 1286.5194,-174"/>
<text text-anchor="middle" x="1334.5194" y="-181" font-family="Helvetica,sans-Serif" font-size="10.00" fill="#000000">LLU/MArgument.h</text>
</a>
</g>
</g>
<!-- Node37&#45;&gt;Node46 -->
<g id="edge125" class="edge">
<title>Node37&#45;&gt;Node46</title>
<path fill="none" stroke="#191970" d="M2025.477,-486.5467C1852.7581,-474.407 1402.9502,-438.3147 1358.5194,-389 1311.269,-336.5558 1322.4204,-243.5266 1330.1525,-203.1305"/>
<polygon fill="#191970" stroke="#191970" points="1333.6065,-203.7097 1332.1913,-193.2098 1326.7498,-202.3005 1333.6065,-203.7097"/>
</g>
<!-- Node44 -->
<g id="node42" class="node">
<title>Node44</title>
<g id="a_node42"><a xlink:href="ErrorManager_8h.html" target="_top" xlink:title="Definition of the ErrorManager class responsible for error registration and throwing.">
<polygon fill="#ffffff" stroke="#000000" points="1816.5194,-369.5 1816.5194,-388.5 1960.5194,-388.5 1960.5194,-369.5 1816.5194,-369.5"/>
<text text-anchor="middle" x="1888.5194" y="-376.5" font-family="Helvetica,sans-Serif" font-size="10.00" fill="#000000">LLU/ErrorLog/ErrorManager.h</text>
</a>
</g>
</g>
<!-- Node37&#45;&gt;Node44 -->
<g id="edge123" class="edge">
<title>Node37&#45;&gt;Node44</title>
<path fill="none" stroke="#191970" d="M2089.5972,-481.3392C2084.7215,-466.8811 2073.539,-439.7417 2054.5194,-425 2037.8146,-412.0524 1988.9513,-399.3793 1948.5334,-390.6247"/>
<polygon fill="#191970" stroke="#191970" points="1949.2399,-387.1967 1938.7307,-388.5411 1947.7845,-394.0438 1949.2399,-387.1967"/>
</g>
<!-- Node56 -->
<g id="node44" class="node">
<title>Node56</title>
<g id="a_node44"><a xlink:href="Image_8h.html" target="_top" xlink:title="Templated C++ wrapper for MImage.">
<polygon fill="#ffffff" stroke="#000000" points="2515.0194,-241 2515.0194,-260 2638.0194,-260 2638.0194,-241 2515.0194,-241"/>
<text text-anchor="middle" x="2576.5194" y="-248" font-family="Helvetica,sans-Serif" font-size="10.00" fill="#000000">LLU/Containers/Image.h</text>
</a>
</g>
</g>
<!-- Node37&#45;&gt;Node56 -->
<g id="edge99" class="edge">
<title>Node37&#45;&gt;Node56</title>
<path fill="none" stroke="#191970" d="M2159.8562,-486.9967C2240.8508,-481.2154 2371.2123,-468.5432 2413.5194,-445 2489.8233,-402.5381 2545.6812,-309.237 2567.0138,-269.2724"/>
<polygon fill="#191970" stroke="#191970" points="2570.1599,-270.8089 2571.6849,-260.3244 2563.9545,-267.5695 2570.1599,-270.8089"/>
</g>
<!-- Node62 -->
<g id="node47" class="node">
<title>Node62</title>
<g id="a_node47"><a xlink:href="NumericArray_8h.html" target="_top" xlink:title="Templated C++ wrapper for MNumericArray.">
<polygon fill="#ffffff" stroke="#000000" points="2676.5194,-241 2676.5194,-260 2832.5194,-260 2832.5194,-241 2676.5194,-241"/>
<text text-anchor="middle" x="2754.5194" y="-248" font-family="Helvetica,sans-Serif" font-size="10.00" fill="#000000">LLU/Containers/NumericArray.h</text>
</a>
</g>
</g>
<!-- Node37&#45;&gt;Node62 -->
<g id="edge109" class="edge">
<title>Node37&#45;&gt;Node62</title>
<path fill="none" stroke="#191970" d="M2159.7351,-485.5407C2246.1558,-477.936 2391.0969,-463.0368 2441.5194,-445 2563.7286,-401.2841 2688.811,-304.707 2735.4637,-266.5049"/>
<polygon fill="#191970" stroke="#191970" points="2737.7639,-269.1446 2743.2437,-260.077 2733.3053,-263.7482 2737.7639,-269.1446"/>
</g>
<!-- Node63 -->
<g id="node48" class="node">
<title>Node63</title>
<g id="a_node48"><a xlink:href="Tensor_8h.html" target="_top" xlink:title="Templated C++ wrapper for MTensor.">
<polygon fill="#ffffff" stroke="#000000" points="2222.5194,-241 2222.5194,-260 2348.5194,-260 2348.5194,-241 2222.5194,-241"/>
<text text-anchor="middle" x="2285.5194" y="-248" font-family="Helvetica,sans-Serif" font-size="10.00" fill="#000000">LLU/Containers/Tensor.h</text>
</a>
</g>
</g>
<!-- Node37&#45;&gt;Node63 -->
<g id="edge116" class="edge">
<title>Node37&#45;&gt;Node63</title>
<path fill="none" stroke="#191970" d="M2100.3243,-481.2742C2129.6686,-444.7079 2233.6342,-315.1549 2271.5506,-267.9068"/>
<polygon fill="#191970" stroke="#191970" points="2274.2998,-270.0731 2277.8289,-260.0833 2268.8403,-265.6919 2274.2998,-270.0731"/>
</g>
<!-- Node64 -->
<g id="node49" class="node">
<title>Node64</title>
<g id="a_node49"><a xlink:href="ManagedExpression_8hpp.html" target="_top" xlink:title="Definition of the ManagedExpressionStore class template which provides C++ API for the Managed Expres...">
<polygon fill="#ffffff" stroke="#000000" points="1815.0194,-174 1815.0194,-193 1960.0194,-193 1960.0194,-174 1815.0194,-174"/>
<text text-anchor="middle" x="1887.5194" y="-181" font-family="Helvetica,sans-Serif" font-size="10.00" fill="#000000">LLU/ManagedExpression.hpp</text>
</a>
</g>
</g>
<!-- Node37&#45;&gt;Node64 -->
<g id="edge126" class="edge">
<title>Node37&#45;&gt;Node64</title>
<path fill="none" stroke="#191970" d="M2095.3229,-481.2066C2100.6081,-461.8521 2111.5194,-417.2612 2111.5194,-379 2111.5194,-379 2111.5194,-379 2111.5194,-317.5 2111.5194,-244.8707 2023.7212,-210.6604 1958.0594,-195.2312"/>
<polygon fill="#191970" stroke="#191970" points="1958.6612,-191.7792 1948.137,-193.0008 1957.126,-198.6088 1958.6612,-191.7792"/>
</g>
<!-- Node65 -->
<g id="node50" class="node">
<title>Node65</title>
<g id="a_node50"><a xlink:href="ProgressMonitor_8h.html" target="_top" xlink:title="Definition of ProgressMonitor class.">
<polygon fill="#ffffff" stroke="#000000" points="2216.0194,-369.5 2216.0194,-388.5 2333.0194,-388.5 2333.0194,-369.5 2216.0194,-369.5"/>
<text text-anchor="middle" x="2274.5194" y="-376.5" font-family="Helvetica,sans-Serif" font-size="10.00" fill="#000000">LLU/ProgressMonitor.h</text>
</a>
</g>
</g>
<!-- Node37&#45;&gt;Node65 -->
<g id="edge132" class="edge">
<title>Node37&#45;&gt;Node65</title>
<path fill="none" stroke="#191970" d="M2122.5297,-481.4151C2145.2038,-473.4596 2176.5739,-460.8913 2201.5194,-445 2223.4045,-431.0583 2245.0155,-410.4294 2258.9749,-395.9548"/>
<polygon fill="#191970" stroke="#191970" points="2261.5733,-398.3009 2265.8961,-388.628 2256.4847,-393.494 2261.5733,-398.3009"/>
</g>
<!-- Node39&#45;&gt;Node4 -->
<g id="edge66" class="edge">
<title>Node39&#45;&gt;Node4</title>
<path fill="none" stroke="#191970" d="M1616.91,-433.2042C1417.6744,-427.0853 829.2332,-403.369 652.5194,-333 642.0715,-328.8395 632.5194,-328.7458 632.5194,-317.5 632.5194,-317.5 632.5194,-317.5 632.5194,-122 632.5194,-89.7116 632.5194,-52.1872 632.5194,-29.8048"/>
<polygon fill="#191970" stroke="#191970" points="636.0195,-29.5883 632.5194,-19.5884 629.0195,-29.5884 636.0195,-29.5883"/>
</g>
<!-- Node39&#45;&gt;Node11 -->
<g id="edge68" class="edge">
<title>Node39&#45;&gt;Node11</title>
<path fill="none" stroke="#191970" d="M1638.4309,-425.4338C1548.7691,-403.6207 1350.4532,-340.7241 1277.5194,-199 1271.215,-186.7492 1270.4212,-179.8086 1277.5194,-168 1295.803,-137.5833 1390.8225,-96.8163 1439.98,-77.3163"/>
<polygon fill="#191970" stroke="#191970" points="1441.4178,-80.512 1449.4467,-73.5992 1438.8593,-73.9962 1441.4178,-80.512"/>
</g>
<!-- Node39&#45;&gt;Node12 -->
<g id="edge69" class="edge">
<title>Node39&#45;&gt;Node12</title>
<path fill="none" stroke="#191970" d="M1750.1361,-428.0176C1821.9138,-419.8377 1931.029,-405.3124 1969.5194,-389 2099.3216,-333.9894 2154.7454,-322.0646 2223.5194,-199 2233.3091,-181.4822 2234.052,-158.1648 2232.9758,-141.7957"/>
<polygon fill="#191970" stroke="#191970" points="2236.4502,-141.3582 2232.029,-131.73 2229.481,-142.0139 2236.4502,-141.3582"/>
</g>
<!-- Node39&#45;&gt;Node19 -->
<g id="edge96" class="edge">
<title>Node39&#45;&gt;Node19</title>
<path fill="none" stroke="#191970" d="M1750.378,-433.1053C2024.8301,-424.4582 3050.5194,-383.2607 3050.5194,-250.5 3050.5194,-250.5 3050.5194,-250.5 3050.5194,-183.5 3050.5194,-131.7146 3006.4719,-131.5521 2958.5194,-112 2897.4918,-87.1167 2710.2594,-74.0292 2614.0026,-68.7909"/>
<polygon fill="#191970" stroke="#191970" points="2614.0258,-65.2872 2603.8535,-68.2493 2613.6528,-72.2773 2614.0258,-65.2872"/>
</g>
<!-- Node40 -->
<g id="node33" class="node">
<title>Node40</title>
<g id="a_node33"><a xlink:title=" ">
<polygon fill="#ffffff" stroke="#bfbfbf" points="2805.0194,-112.5 2805.0194,-131.5 2878.0194,-131.5 2878.0194,-112.5 2805.0194,-112.5"/>
<text text-anchor="middle" x="2841.5194" y="-119.5" font-family="Helvetica,sans-Serif" font-size="10.00" fill="#000000">initializer_list</text>
</a>
</g>
</g>
<!-- Node39&#45;&gt;Node40 -->
<g id="edge65" class="edge">
<title>Node39&#45;&gt;Node40</title>
<path fill="none" stroke="#191970" d="M1750.1509,-432.6432C1869.3462,-427.9168 2126.7938,-415.3916 2342.5194,-389 2485.4,-371.5202 2521.9693,-368.3008 2661.5194,-333 2752.8095,-309.9071 2802.4861,-338.5476 2862.5194,-266 2890.4042,-232.3025 2883.9827,-209.9256 2871.5194,-168 2868.4868,-157.7984 2862.395,-147.7475 2856.4885,-139.6555"/>
<polygon fill="#191970" stroke="#191970" points="2859.2158,-137.4613 2850.3055,-131.7291 2853.6964,-141.7667 2859.2158,-137.4613"/>
</g>
<!-- Node41 -->
<g id="node34" class="node">
<title>Node41</title>
<g id="a_node34"><a xlink:title=" ">
<polygon fill="#ffffff" stroke="#bfbfbf" points="1400.5194,-174 1400.5194,-193 1466.5194,-193 1466.5194,-174 1400.5194,-174"/>
<text text-anchor="middle" x="1433.5194" y="-181" font-family="Helvetica,sans-Serif" font-size="10.00" fill="#000000">string_view</text>
</a>
</g>
</g>
<!-- Node39&#45;&gt;Node41 -->
<g id="edge67" class="edge">
<title>Node39&#45;&gt;Node41</title>
<path fill="none" stroke="#191970" d="M1656.3669,-425.4099C1618.2876,-410.7652 1548.8383,-379.534 1505.5194,-333 1469.3316,-294.1264 1447.9246,-233.7088 1438.7773,-202.9379"/>
<polygon fill="#191970" stroke="#191970" points="1442.0629,-201.6961 1435.9573,-193.0374 1435.3307,-203.6137 1442.0629,-201.6961"/>
</g>
<!-- Node42 -->
<g id="node35" class="node">
<title>Node42</title>
<g id="a_node35"><a xlink:href="Generic_2DataStore_8hpp.html" target="_top" xlink:title="Definition and implementation of generic DataStore wrapper.">
<polygon fill="#ffffff" stroke="#ff0000" points="1514.5194,-302.5 1514.5194,-332.5 1636.5194,-332.5 1636.5194,-302.5 1514.5194,-302.5"/>
<text text-anchor="start" x="1522.5194" y="-320.5" font-family="Helvetica,sans-Serif" font-size="10.00" fill="#000000">LLU/Containers/Generic</text>
<text text-anchor="middle" x="1575.5194" y="-309.5" font-family="Helvetica,sans-Serif" font-size="10.00" fill="#000000">/DataStore.hpp</text>
</a>
</g>
</g>
<!-- Node39&#45;&gt;Node42 -->
<g id="edge70" class="edge">
<title>Node39&#45;&gt;Node42</title>
<path fill="none" stroke="#191970" d="M1674.6813,-425.3845C1657.6976,-406.9068 1620.0877,-365.9887 1596.3775,-340.1928"/>
<polygon fill="#191970" stroke="#191970" points="1598.8477,-337.7082 1589.5036,-332.7143 1593.694,-342.4453 1598.8477,-337.7082"/>
</g>
<!-- Node39&#45;&gt;Node46 -->
<g id="edge97" class="edge">
<title>Node39&#45;&gt;Node46</title>
<path fill="none" stroke="#191970" d="M1683.7918,-425.3604C1683.9281,-400.9825 1680.76,-336.3747 1645.5194,-302 1599.8369,-257.4399 1566.4593,-287.9022 1506.5194,-266 1453.0096,-246.4474 1393.7506,-215.9213 1360.6294,-197.9974"/>
<polygon fill="#191970" stroke="#191970" points="1362.0706,-194.7967 1351.6157,-193.0805 1358.7185,-200.9419 1362.0706,-194.7967"/>
</g>
<!-- Node49 -->
<g id="node37" class="node">
<title>Node49</title>
<g id="a_node37"><a xlink:href="TypedMArgument_8h.html" target="_top" xlink:title=" ">
<polygon fill="#ffffff" stroke="#ff0000" points="1515.0194,-241 1515.0194,-260 1638.0194,-260 1638.0194,-241 1515.0194,-241"/>
<text text-anchor="middle" x="1576.5194" y="-248" font-family="Helvetica,sans-Serif" font-size="10.00" fill="#000000">LLU/TypedMArgument.h</text>
</a>
</g>
</g>
<!-- Node39&#45;&gt;Node49 -->
<g id="edge98" class="edge">
<title>Node39&#45;&gt;Node49</title>
<path fill="none" stroke="#191970" d="M1686.2221,-425.3351C1692.1509,-401.9776 1703.8476,-341.4803 1678.5194,-302 1666.6445,-283.49 1645.9265,-271.3536 1626.2512,-263.5419"/>
<polygon fill="#191970" stroke="#191970" points="1627.3131,-260.2034 1616.7195,-260.0455 1624.9024,-266.7752 1627.3131,-260.2034"/>
</g>
<!-- Node53 -->
<g id="node41" class="node">
<title>Node53</title>
<g id="a_node41"><a xlink:href="DataList_8hpp.html" target="_top" xlink:title="Special iterators for DataLists. Iteration over keys, values, reversed iteration.">
<polygon fill="#ffffff" stroke="#ff0000" points="1144.5194,-235.5 1144.5194,-265.5 1268.5194,-265.5 1268.5194,-235.5 1144.5194,-235.5"/>
<text text-anchor="start" x="1152.5194" y="-253.5" font-family="Helvetica,sans-Serif" font-size="10.00" fill="#000000">LLU/Containers/Iterators</text>
<text text-anchor="middle" x="1206.5194" y="-242.5" font-family="Helvetica,sans-Serif" font-size="10.00" fill="#000000">/DataList.hpp</text>
</a>
</g>
</g>
<!-- Node39&#45;&gt;Node53 -->
<g id="edge83" class="edge">
<title>Node39&#45;&gt;Node53</title>
<path fill="none" stroke="#191970" d="M1616.8686,-429.4432C1535.7657,-422.0112 1404.0198,-407.5871 1358.5194,-389 1299.3595,-364.833 1248.6158,-306.7462 1223.4434,-273.9913"/>
<polygon fill="#191970" stroke="#191970" points="1226.1313,-271.7424 1217.3199,-265.8594 1220.5394,-275.9532 1226.1313,-271.7424"/>
</g>
<!-- Node39&#45;&gt;Node44 -->
<g id="edge87" class="edge">
<title>Node39&#45;&gt;Node44</title>
<path fill="none" stroke="#191970" d="M1718.7602,-425.3733C1753.4388,-415.9001 1806.5077,-401.4032 1844.0656,-391.1435"/>
<polygon fill="#191970" stroke="#191970" points="1845.0143,-394.5126 1853.7385,-388.5011 1843.1696,-387.7601 1845.0143,-394.5126"/>
</g>
<!-- Node42&#45;&gt;Node46 -->
<g id="edge71" class="edge">
<title>Node42&#45;&gt;Node46</title>
<path fill="none" stroke="#191970" d="M1521.397,-302.4955C1494.3365,-293.826 1461.6588,-281.5389 1434.5194,-266 1402.2187,-247.5059 1369.9191,-218.4779 1351.0987,-200.2435"/>
<polygon fill="#191970" stroke="#191970" points="1353.4783,-197.6746 1343.8974,-193.1517 1348.5666,-202.6622 1353.4783,-197.6746"/>
</g>
<!-- Node42&#45;&gt;Node49 -->
<g id="edge75" class="edge">
<title>Node42&#45;&gt;Node49</title>
<path fill="none" stroke="#191970" d="M1575.7463,-302.2967C1575.8885,-292.7699 1576.0732,-280.3954 1576.2264,-270.1306"/>
<polygon fill="#191970" stroke="#191970" points="1579.7271,-270.1061 1576.3768,-260.055 1572.7279,-270.0016 1579.7271,-270.1061"/>
</g>
<!-- Node46&#45;&gt;Node4 -->
<g id="edge72" class="edge">
<title>Node46&#45;&gt;Node4</title>
<path fill="none" stroke="#191970" d="M1327.7576,-173.8993C1309.6717,-149.1085 1257.335,-83.0066 1195.5194,-56 1146.5985,-34.6269 773.5753,-16.3324 663.1948,-11.3425"/>
<polygon fill="#191970" stroke="#191970" points="663.2099,-7.8398 653.0632,-10.8887 662.8966,-14.8328 663.2099,-7.8398"/>
</g>
<!-- Node46&#45;&gt;Node15 -->
<g id="edge74" class="edge">
<title>Node46&#45;&gt;Node15</title>
<path fill="none" stroke="#191970" d="M1355.6132,-173.8906C1378.1021,-163.6457 1413.9112,-147.3326 1439.3718,-135.7339"/>
<polygon fill="#191970" stroke="#191970" points="1440.9246,-138.8727 1448.5738,-131.5419 1438.0226,-132.5025 1440.9246,-138.8727"/>
</g>
<!-- Node46&#45;&gt;Node19 -->
<g id="edge73" class="edge">
<title>Node46&#45;&gt;Node19</title>
<path fill="none" stroke="#191970" d="M1365.9648,-173.9645C1374.2176,-171.7336 1383.1512,-169.5569 1391.5194,-168 1607.6391,-127.7899 2292.113,-82.5562 2497.0134,-69.6253"/>
<polygon fill="#191970" stroke="#191970" points="2497.5009,-73.1016 2507.2612,-68.9803 2497.0611,-66.1155 2497.5009,-73.1016"/>
</g>
<!-- Node49&#45;&gt;Node15 -->
<g id="edge82" class="edge">
<title>Node49&#45;&gt;Node15</title>
<path fill="none" stroke="#191970" d="M1568.6064,-240.8112C1555.9697,-225.3587 1530.424,-194.2028 1508.5194,-168 1500.6626,-158.6015 1491.8412,-148.1854 1484.578,-139.6451"/>
<polygon fill="#191970" stroke="#191970" points="1487.0763,-137.1805 1477.9276,-131.8371 1481.7473,-141.7195 1487.0763,-137.1805"/>
</g>
<!-- Node49&#45;&gt;Node16 -->
<g id="edge76" class="edge">
<title>Node49&#45;&gt;Node16</title>
<path fill="none" stroke="#191970" d="M1562.9029,-240.8419C1548.9361,-230.7853 1526.7373,-214.3814 1508.5194,-199 1493.1437,-186.0183 1491.5268,-180.1944 1475.5194,-168 1451.084,-149.3851 1435.3188,-156.2938 1416.5194,-132 1406.2279,-118.7007 1401.2089,-100.1278 1398.7749,-86.0713"/>
<polygon fill="#191970" stroke="#191970" points="1402.2082,-85.3562 1397.3256,-75.9535 1395.279,-86.3487 1402.2082,-85.3562"/>
</g>
<!-- Node49&#45;&gt;Node41 -->
<g id="edge77" class="edge">
<title>Node49&#45;&gt;Node41</title>
<path fill="none" stroke="#191970" d="M1556.031,-240.9005C1531.7138,-229.5072 1490.9708,-210.4178 1463.2025,-197.4075"/>
<polygon fill="#191970" stroke="#191970" points="1464.5102,-194.1551 1453.9698,-193.0817 1461.5402,-200.4938 1464.5102,-194.1551"/>
</g>
<!-- Node49&#45;&gt;Node46 -->
<g id="edge81" class="edge">
<title>Node49&#45;&gt;Node46</title>
<path fill="none" stroke="#191970" d="M1542.1037,-240.9717C1499.3105,-229.124 1426.1754,-208.8758 1379.1223,-195.8487"/>
<polygon fill="#191970" stroke="#191970" points="1379.7796,-192.3991 1369.2082,-193.1039 1377.9118,-199.1453 1379.7796,-192.3991"/>
</g>
<!-- Node50 -->
<g id="node38" class="node">
<title>Node50</title>
<g id="a_node38"><a xlink:href="Generic_2Image_8hpp.html" target="_top" xlink:title="GenericImage definition and implementation.">
<polygon fill="#ffffff" stroke="#ff0000" points="2092.5194,-168.5 2092.5194,-198.5 2214.5194,-198.5 2214.5194,-168.5 2092.5194,-168.5"/>
<text text-anchor="start" x="2100.5194" y="-186.5" font-family="Helvetica,sans-Serif" font-size="10.00" fill="#000000">LLU/Containers/Generic</text>
<text text-anchor="middle" x="2153.5194" y="-175.5" font-family="Helvetica,sans-Serif" font-size="10.00" fill="#000000">/Image.hpp</text>
</a>
</g>
</g>
<!-- Node49&#45;&gt;Node50 -->
<g id="edge78" class="edge">
<title>Node49&#45;&gt;Node50</title>
<path fill="none" stroke="#191970" d="M1638.2685,-243.3298C1746.0712,-230.812 1967.9827,-205.0441 2082.1754,-191.7843"/>
<polygon fill="#191970" stroke="#191970" points="2082.6848,-195.2488 2092.2143,-190.6186 2081.8773,-188.2955 2082.6848,-195.2488"/>
</g>
<!-- Node51 -->
<g id="node39" class="node">
<title>Node51</title>
<g id="a_node39"><a xlink:href="Generic_2NumericArray_8hpp.html" target="_top" xlink:title="GenericNumericArray definition and implementation.">
<polygon fill="#ffffff" stroke="#ff0000" points="2346.5194,-168.5 2346.5194,-198.5 2468.5194,-198.5 2468.5194,-168.5 2346.5194,-168.5"/>
<text text-anchor="start" x="2354.5194" y="-186.5" font-family="Helvetica,sans-Serif" font-size="10.00" fill="#000000">LLU/Containers/Generic</text>
<text text-anchor="middle" x="2407.5194" y="-175.5" font-family="Helvetica,sans-Serif" font-size="10.00" fill="#000000">/NumericArray.hpp</text>
</a>
</g>
</g>
<!-- Node49&#45;&gt;Node51 -->
<g id="edge79" class="edge">
<title>Node49&#45;&gt;Node51</title>
<path fill="none" stroke="#191970" d="M1638.0813,-245.6948C1753.1024,-236.6958 2008.4544,-216.6177 2223.5194,-199 2260.5821,-195.9639 2301.836,-192.4968 2335.8731,-189.6126"/>
<polygon fill="#191970" stroke="#191970" points="2336.5236,-193.0701 2346.192,-188.7374 2335.9319,-186.0951 2336.5236,-193.0701"/>
</g>
<!-- Node52 -->
<g id="node40" class="node">
<title>Node52</title>
<g id="a_node40"><a xlink:href="Generic_2Tensor_8hpp.html" target="_top" xlink:title="GenericTensor definition and implementation.">
<polygon fill="#ffffff" stroke="#ff0000" points="1560.5194,-168.5 1560.5194,-198.5 1682.5194,-198.5 1682.5194,-168.5 1560.5194,-168.5"/>
<text text-anchor="start" x="1568.5194" y="-186.5" font-family="Helvetica,sans-Serif" font-size="10.00" fill="#000000">LLU/Containers/Generic</text>
<text text-anchor="middle" x="1621.5194" y="-175.5" font-family="Helvetica,sans-Serif" font-size="10.00" fill="#000000">/Tensor.hpp</text>
</a>
</g>
</g>
<!-- Node49&#45;&gt;Node52 -->
<g id="edge80" class="edge">
<title>Node49&#45;&gt;Node52</title>
<path fill="none" stroke="#191970" d="M1582.9668,-240.9005C1588.8928,-232.0773 1597.9188,-218.6387 1605.7478,-206.9822"/>
<polygon fill="#191970" stroke="#191970" points="1608.7601,-208.7746 1611.4302,-198.5218 1602.9491,-204.8717 1608.7601,-208.7746"/>
</g>
<!-- Node53&#45;&gt;Node4 -->
<g id="edge85" class="edge">
<title>Node53&#45;&gt;Node4</title>
<path fill="none" stroke="#191970" d="M1180.3397,-235.4841C1149.5627,-218.1286 1096.689,-189.2347 1049.5194,-168 908.1735,-104.3692 732.8443,-43.6223 663.1515,-20.1715"/>
<polygon fill="#191970" stroke="#191970" points="663.8665,-16.7198 653.2726,-16.8595 661.6414,-23.3567 663.8665,-16.7198"/>
</g>
<!-- Node53&#45;&gt;Node7 -->
<g id="edge84" class="edge">
<title>Node53&#45;&gt;Node7</title>
<path fill="none" stroke="#191970" d="M1159.6936,-235.4486C1129.5074,-225.5457 1089.5012,-212.047 1054.5194,-199 1052.6669,-198.3091 1050.7695,-197.5858 1048.8587,-196.8453"/>
<polygon fill="#191970" stroke="#191970" points="1049.9249,-193.503 1039.339,-193.0696 1047.3441,-200.0099 1049.9249,-193.503"/>
</g>
<!-- Node53&#45;&gt;Node46 -->
<g id="edge86" class="edge">
<title>Node53&#45;&gt;Node46</title>
<path fill="none" stroke="#191970" d="M1235.2451,-235.4639C1256.7219,-224.2222 1285.9057,-208.9463 1307.0689,-197.8686"/>
<polygon fill="#191970" stroke="#191970" points="1308.9351,-200.8423 1316.1716,-193.1039 1305.6888,-194.6406 1308.9351,-200.8423"/>
</g>
<!-- Node44&#45;&gt;Node2 -->
<g id="edge94" class="edge">
<title>Node44&#45;&gt;Node2</title>
<path fill="none" stroke="#191970" d="M1816.0836,-375.1761C1607.3399,-364.1566 1006.1047,-332.4176 796.58,-321.3568"/>
<polygon fill="#191970" stroke="#191970" points="796.4779,-317.8467 786.3072,-320.8145 796.1088,-324.8369 796.4779,-317.8467"/>
</g>
<!-- Node44&#45;&gt;Node4 -->
<g id="edge90" class="edge">
<title>Node44&#45;&gt;Node4</title>
<path fill="none" stroke="#191970" d="M1816.4162,-376.4811C1738.5474,-372.3488 1611.4208,-361.4831 1505.5194,-333 1399.0072,-304.3526 1379.7609,-276.379 1277.5194,-235 1069.9349,-150.9868 1019.7298,-124.4899 806.5194,-56 756.9131,-40.0649 698.106,-25.3722 663.1313,-17.0642"/>
<polygon fill="#191970" stroke="#191970" points="663.6149,-13.5824 653.0788,-14.6966 662.01,-20.396 663.6149,-13.5824"/>
</g>
<!-- Node44&#45;&gt;Node6 -->
<g id="edge88" class="edge">
<title>Node44&#45;&gt;Node6</title>
<path fill="none" stroke="#191970" d="M1816.2538,-377.2843C1702.2034,-373.7315 1473.7647,-363.1846 1282.5194,-333 1032.2945,-293.5065 966.2125,-286.6029 728.5194,-199 681.6834,-181.7384 630.5523,-153.779 601.1364,-136.7238"/>
<polygon fill="#191970" stroke="#191970" points="602.7797,-133.6301 592.3818,-131.5969 599.2423,-139.6706 602.7797,-133.6301"/>
</g>
<!-- Node44&#45;&gt;Node11 -->
<g id="edge92" class="edge">
<title>Node44&#45;&gt;Node11</title>
<path fill="none" stroke="#191970" d="M1863.4902,-369.4726C1823.2213,-352.3228 1748.5194,-312.1945 1748.5194,-250.5 1748.5194,-250.5 1748.5194,-250.5 1748.5194,-183.5 1748.5194,-129.8992 1571.406,-87.1208 1499.4104,-71.9459"/>
<polygon fill="#191970" stroke="#191970" points="1500.0867,-68.5117 1489.5844,-69.9092 1498.6659,-75.366 1500.0867,-68.5117"/>
</g>
<!-- Node44&#45;&gt;Node12 -->
<g id="edge93" class="edge">
<title>Node44&#45;&gt;Node12</title>
<path fill="none" stroke="#191970" d="M1898.537,-369.2728C1907.9557,-360.0592 1922.3822,-345.7714 1934.5194,-333 2002.5867,-261.376 2000.3211,-221.3029 2083.5194,-168 2119.2247,-145.1246 2167.0991,-132.9387 2198.3669,-126.9767"/>
<polygon fill="#191970" stroke="#191970" points="2199.0724,-130.406 2208.2926,-125.1869 2197.8302,-123.5171 2199.0724,-130.406"/>
</g>
<!-- Node44&#45;&gt;Node19 -->
<g id="edge95" class="edge">
<title>Node44&#45;&gt;Node19</title>
<path fill="none" stroke="#191970" d="M1960.7899,-376.2848C2126.0483,-369.8188 2527.5797,-352.5784 2661.5194,-333 2820.0855,-309.8219 3012.5194,-410.7512 3012.5194,-250.5 3012.5194,-250.5 3012.5194,-250.5 3012.5194,-183.5 3012.5194,-102.0264 2736.6258,-76.2249 2613.5691,-68.7688"/>
<polygon fill="#191970" stroke="#191970" points="2613.7503,-65.2735 2603.5627,-68.1827 2613.3408,-72.2616 2613.7503,-65.2735"/>
</g>
<!-- Node44&#45;&gt;Node40 -->
<g id="edge89" class="edge">
<title>Node44&#45;&gt;Node40</title>
<path fill="none" stroke="#191970" d="M1960.7192,-375.8609C2172.8678,-365.904 2783.1127,-331.7414 2841.5194,-266 2872.2653,-231.3931 2858.5334,-171.5114 2848.5808,-141.0237"/>
<polygon fill="#191970" stroke="#191970" points="2851.8805,-139.8564 2845.2971,-131.5553 2845.267,-142.15 2851.8805,-139.8564"/>
</g>
<!-- Node45 -->
<g id="node43" class="node">
<title>Node45</title>
<g id="a_node43"><a xlink:title=" ">
<polygon fill="#ffffff" stroke="#bfbfbf" points="1985.0194,-112.5 1985.0194,-131.5 2068.0194,-131.5 2068.0194,-112.5 1985.0194,-112.5"/>
<text text-anchor="middle" x="2026.5194" y="-119.5" font-family="Helvetica,sans-Serif" font-size="10.00" fill="#000000">unordered_map</text>
</a>
</g>
</g>
<!-- Node44&#45;&gt;Node45 -->
<g id="edge91" class="edge">
<title>Node44&#45;&gt;Node45</title>
<path fill="none" stroke="#191970" d="M1893.7607,-369.2391C1914.254,-331.0741 1989.1725,-191.5518 2016.4771,-140.702"/>
<polygon fill="#191970" stroke="#191970" points="2019.6257,-142.2366 2021.2729,-131.7706 2013.4585,-138.9251 2019.6257,-142.2366"/>
</g>
<!-- Node56&#45;&gt;Node50 -->
<g id="edge101" class="edge">
<title>Node56&#45;&gt;Node50</title>
<path fill="none" stroke="#191970" d="M2516.3631,-240.9717C2439.5085,-228.7985 2306.6645,-207.757 2224.8094,-194.7918"/>
<polygon fill="#191970" stroke="#191970" points="2225.2654,-191.3205 2214.8409,-193.2129 2224.1702,-198.2343 2225.2654,-191.3205"/>
</g>
<!-- Node57 -->
<g id="node45" class="node">
<title>Node57</title>
<g id="a_node45"><a xlink:title=" ">
<polygon fill="#ffffff" stroke="#bfbfbf" points="2718.5194,-174 2718.5194,-193 2756.5194,-193 2756.5194,-174 2718.5194,-174"/>
<text text-anchor="middle" x="2737.5194" y="-181" font-family="Helvetica,sans-Serif" font-size="10.00" fill="#000000">array</text>
</a>
</g>
</g>
<!-- Node56&#45;&gt;Node57 -->
<g id="edge100" class="edge">
<title>Node56&#45;&gt;Node57</title>
<path fill="none" stroke="#191970" d="M2601.711,-240.8502C2627.6515,-230.8001 2669.1632,-214.4014 2704.5194,-199 2706.0753,-198.3222 2707.6674,-197.6164 2709.2708,-196.8958"/>
<polygon fill="#191970" stroke="#191970" points="2710.7808,-200.0539 2718.4081,-192.7003 2707.8598,-193.6924 2710.7808,-200.0539"/>
</g>
<!-- Node58 -->
<g id="node46" class="node">
<title>Node58</title>
<g id="a_node46"><a xlink:href="MArray_8hpp.html" target="_top" xlink:title="Template base class for C++ wrappers of LibraryLink containers.">
<polygon fill="#ffffff" stroke="#ff0000" points="2486.5194,-174 2486.5194,-193 2624.5194,-193 2624.5194,-174 2486.5194,-174"/>
<text text-anchor="middle" x="2555.5194" y="-181" font-family="Helvetica,sans-Serif" font-size="10.00" fill="#000000">LLU/Containers/MArray.hpp</text>
</a>
</g>
</g>
<!-- Node56&#45;&gt;Node58 -->
<g id="edge102" class="edge">
<title>Node56&#45;&gt;Node58</title>
<path fill="none" stroke="#191970" d="M2573.5106,-240.9005C2570.423,-231.0495 2565.532,-215.4451 2561.6286,-202.9912"/>
<polygon fill="#191970" stroke="#191970" points="2564.8533,-201.5771 2558.5226,-193.0817 2558.1738,-203.6707 2564.8533,-201.5771"/>
</g>
<!-- Node58&#45;&gt;Node10 -->
<g id="edge104" class="edge">
<title>Node58&#45;&gt;Node10</title>
<path fill="none" stroke="#191970" d="M2536.1247,-173.8845C2494.3569,-153.1768 2395.7411,-104.285 2346.9187,-80.0798"/>
<polygon fill="#191970" stroke="#191970" points="2348.3637,-76.8897 2337.8497,-75.5836 2345.2544,-83.1613 2348.3637,-76.8897"/>
</g>
<!-- Node58&#45;&gt;Node11 -->
<g id="edge105" class="edge">
<title>Node58&#45;&gt;Node11</title>
<path fill="none" stroke="#191970" d="M2524.1315,-173.8803C2470.7643,-157.9749 2358.6713,-126.5133 2261.5194,-112 2110.2955,-89.409 1625.6348,-71.4027 1499.6688,-67.0217"/>
<polygon fill="#191970" stroke="#191970" points="1499.7008,-63.5208 1489.586,-66.6735 1499.4592,-70.5166 1499.7008,-63.5208"/>
</g>
<!-- Node58&#45;&gt;Node12 -->
<g id="edge106" class="edge">
<title>Node58&#45;&gt;Node12</title>
<path fill="none" stroke="#191970" d="M2508.5381,-173.9494C2498.3224,-171.9327 2487.5664,-169.855 2477.5194,-168 2383.9677,-150.7274 2359.3601,-152.7578 2266.5194,-132 2265.2731,-131.7213 2264.0056,-131.4264 2262.7275,-131.1193"/>
<polygon fill="#191970" stroke="#191970" points="2263.455,-127.6927 2252.8988,-128.5968 2261.7148,-134.4729 2263.455,-127.6927"/>
</g>
<!-- Node58&#45;&gt;Node15 -->
<g id="edge108" class="edge">
<title>Node58&#45;&gt;Node15</title>
<path fill="none" stroke="#191970" d="M2513.6063,-173.9666C2501.9765,-171.6509 2489.3063,-169.4318 2477.5194,-168 2290.5078,-145.2827 1706.2514,-128.2685 1524.2277,-123.4092"/>
<polygon fill="#191970" stroke="#191970" points="1524.177,-119.9067 1514.0876,-123.14 1523.9911,-126.9043 1524.177,-119.9067"/>
</g>
<!-- Node58&#45;&gt;Node19 -->
<g id="edge107" class="edge">
<title>Node58&#45;&gt;Node19</title>
<path fill="none" stroke="#191970" d="M2555.5194,-173.8845C2555.5194,-154.6913 2555.5194,-111.286 2555.5194,-85.7663"/>
<polygon fill="#191970" stroke="#191970" points="2559.0195,-85.7483 2555.5194,-75.7484 2552.0195,-85.7484 2559.0195,-85.7483"/>
</g>
<!-- Node58&#45;&gt;Node40 -->
<g id="edge103" class="edge">
<title>Node58&#45;&gt;Node40</title>
<path fill="none" stroke="#191970" d="M2599.8931,-173.9581C2652.8093,-162.5793 2740.8558,-143.6462 2794.7897,-132.0485"/>
<polygon fill="#191970" stroke="#191970" points="2795.7334,-135.4257 2804.7741,-129.9015 2794.2618,-128.5821 2795.7334,-135.4257"/>
</g>
<!-- Node62&#45;&gt;Node10 -->
<g id="edge111" class="edge">
<title>Node62&#45;&gt;Node10</title>
<path fill="none" stroke="#191970" d="M2759.8845,-240.8925C2768.4369,-224.1434 2782.5474,-189.3513 2765.5194,-168 2714.8288,-104.4394 2460.4297,-77.3699 2359.6884,-69.0254"/>
<polygon fill="#191970" stroke="#191970" points="2359.8355,-65.526 2349.586,-68.2091 2359.2716,-72.5033 2359.8355,-65.526"/>
</g>
<!-- Node62&#45;&gt;Node15 -->
<g id="edge115" class="edge">
<title>Node62&#45;&gt;Node15</title>
<path fill="none" stroke="#191970" d="M2696.3378,-240.9817C2680.5374,-238.695 2663.4047,-236.4867 2647.5194,-235 2461.2733,-217.569 1987.4604,-246.4532 1806.5194,-199 1777.103,-191.2853 1774.409,-177.4989 1745.5194,-168 1671.2315,-143.5741 1581.2347,-131.678 1524.6608,-126.2122"/>
<polygon fill="#191970" stroke="#191970" points="1524.7792,-122.7081 1514.4975,-125.2648 1524.1295,-129.6779 1524.7792,-122.7081"/>
</g>
<!-- Node62&#45;&gt;Node19 -->
<g id="edge114" class="edge">
<title>Node62&#45;&gt;Node19</title>
<path fill="none" stroke="#191970" d="M2776.7523,-240.9005C2824.9711,-218.8109 2931.4195,-162.402 2887.5194,-112 2869.8323,-91.6933 2704.1266,-76.7017 2613.7175,-69.9566"/>
<polygon fill="#191970" stroke="#191970" points="2613.8426,-66.4564 2603.6129,-69.2136 2613.3293,-73.4376 2613.8426,-66.4564"/>
</g>
<!-- Node62&#45;&gt;Node40 -->
<g id="edge110" class="edge">
<title>Node62&#45;&gt;Node40</title>
<path fill="none" stroke="#191970" d="M2763.9059,-240.7197C2773.269,-230.6987 2787.7688,-214.442 2798.5194,-199 2811.5803,-180.2394 2824.032,-157.1722 2832.1429,-141.2023"/>
<polygon fill="#191970" stroke="#191970" points="2835.4767,-142.36 2836.8089,-131.8492 2829.2129,-139.2351 2835.4767,-142.36"/>
</g>
<!-- Node62&#45;&gt;Node51 -->
<g id="edge112" class="edge">
<title>Node62&#45;&gt;Node51</title>
<path fill="none" stroke="#191970" d="M2700.2741,-240.9787C2646.4828,-231.41 2561.4692,-215.9463 2478.429,-199.1495"/>
<polygon fill="#191970" stroke="#191970" points="2479.0733,-195.7089 2468.5767,-197.1483 2477.6799,-202.5689 2479.0733,-195.7089"/>
</g>
<!-- Node62&#45;&gt;Node58 -->
<g id="edge113" class="edge">
<title>Node62&#45;&gt;Node58</title>
<path fill="none" stroke="#191970" d="M2726.0076,-240.9005C2691.2809,-229.2086 2632.4825,-209.4122 2593.8272,-196.3976"/>
<polygon fill="#191970" stroke="#191970" points="2594.5725,-192.9555 2583.9784,-193.0817 2592.3388,-199.5896 2594.5725,-192.9555"/>
</g>
<!-- Node63&#45;&gt;Node10 -->
<g id="edge118" class="edge">
<title>Node63&#45;&gt;Node10</title>
<path fill="none" stroke="#191970" d="M2287.2472,-240.8402C2292.4485,-211.76 2308.0317,-124.636 2315.039,-85.459"/>
<polygon fill="#191970" stroke="#191970" points="2318.4933,-86.0242 2316.8088,-75.5641 2311.6027,-84.7916 2318.4933,-86.0242"/>
</g>
<!-- Node63&#45;&gt;Node15 -->
<g id="edge122" class="edge">
<title>Node63&#45;&gt;Node15</title>
<path fill="none" stroke="#191970" d="M2222.4191,-246.2666C2104.8182,-238.0292 1856.458,-218.9005 1772.5194,-199 1735.0127,-190.1077 1728.5118,-178.8345 1691.5194,-168 1635.3313,-151.5433 1569.4872,-138.6804 1524.179,-130.791"/>
<polygon fill="#191970" stroke="#191970" points="1524.7128,-127.3315 1514.2645,-129.0869 1523.527,-134.2304 1524.7128,-127.3315"/>
</g>
<!-- Node63&#45;&gt;Node19 -->
<g id="edge121" class="edge">
<title>Node63&#45;&gt;Node19</title>
<path fill="none" stroke="#191970" d="M2348.6501,-245.5849C2443.8843,-237.5224 2615.1903,-220.2413 2633.5194,-199 2665.9468,-161.4205 2610.4741,-108.5014 2577.4261,-82.1812"/>
<polygon fill="#191970" stroke="#191970" points="2579.2305,-79.1516 2569.1824,-75.7923 2574.9425,-84.6845 2579.2305,-79.1516"/>
</g>
<!-- Node63&#45;&gt;Node40 -->
<g id="edge117" class="edge">
<title>Node63&#45;&gt;Node40</title>
<path fill="none" stroke="#191970" d="M2348.861,-245.6869C2441.7962,-237.9929 2610.1784,-221.4704 2666.5194,-199 2688.4029,-190.2722 2688.6218,-178.879 2709.5194,-168 2736.9101,-153.7408 2769.6833,-142.292 2795.7212,-134.3826"/>
<polygon fill="#191970" stroke="#191970" points="2796.7547,-137.7269 2805.3454,-131.5261 2794.7629,-131.0162 2796.7547,-137.7269"/>
</g>
<!-- Node63&#45;&gt;Node52 -->
<g id="edge119" class="edge">
<title>Node63&#45;&gt;Node52</title>
<path fill="none" stroke="#191970" d="M2222.477,-247.4054C2114.3932,-241.5607 1886.9489,-226.9059 1696.5194,-199 1695.2614,-198.8157 1693.9928,-198.6234 1692.716,-198.4242"/>
<polygon fill="#191970" stroke="#191970" points="1693.2504,-194.9651 1682.811,-196.7737 1692.0997,-201.8699 1693.2504,-194.9651"/>
</g>
<!-- Node63&#45;&gt;Node58 -->
<g id="edge120" class="edge">
<title>Node63&#45;&gt;Node58</title>
<path fill="none" stroke="#191970" d="M2323.9171,-240.9717C2372.062,-229.0246 2454.6295,-208.5357 2507.0704,-195.5225"/>
<polygon fill="#191970" stroke="#191970" points="2507.9544,-198.9094 2516.8171,-193.1039 2506.2684,-192.1155 2507.9544,-198.9094"/>
</g>
<!-- Node64&#45;&gt;Node11 -->
<g id="edge129" class="edge">
<title>Node64&#45;&gt;Node11</title>
<path fill="none" stroke="#191970" d="M1874.434,-173.8411C1852.5006,-158.1687 1806.3951,-127.4046 1762.5194,-112 1670.4784,-79.6848 1554.2033,-70.0064 1499.9681,-67.1582"/>
<polygon fill="#191970" stroke="#191970" points="1499.8273,-63.6474 1489.6703,-66.6616 1499.4901,-70.6393 1499.8273,-63.6474"/>
</g>
<!-- Node64&#45;&gt;Node15 -->
<g id="edge131" class="edge">
<title>Node64&#45;&gt;Node15</title>
<path fill="none" stroke="#191970" d="M1836.0501,-173.9945C1824.3817,-171.9331 1812.0356,-169.8254 1800.5194,-168 1703.4292,-152.6105 1589.8624,-137.4417 1524.1602,-128.943"/>
<polygon fill="#191970" stroke="#191970" points="1524.4019,-125.4453 1514.0363,-127.6373 1523.5064,-132.3878 1524.4019,-125.4453"/>
</g>
<!-- Node64&#45;&gt;Node19 -->
<g id="edge130" class="edge">
<title>Node64&#45;&gt;Node19</title>
<path fill="none" stroke="#191970" d="M1895.6918,-173.9568C1910.1236,-157.8668 1941.8888,-125.7531 1976.5194,-112 2000.4339,-102.5026 2354.3887,-78.9012 2496.8105,-69.729"/>
<polygon fill="#191970" stroke="#191970" points="2497.342,-73.2021 2507.0969,-69.0679 2496.893,-66.2165 2497.342,-73.2021"/>
</g>
<!-- Node64&#45;&gt;Node20 -->
<g id="edge127" class="edge">
<title>Node64&#45;&gt;Node20</title>
<path fill="none" stroke="#191970" d="M1887.1331,-173.9248C1886.0266,-146.499 1882.8285,-67.232 1881.3222,-29.8964"/>
<polygon fill="#191970" stroke="#191970" points="1884.8136,-29.6103 1880.9132,-19.7595 1877.8192,-29.8925 1884.8136,-29.6103"/>
</g>
<!-- Node64&#45;&gt;Node45 -->
<g id="edge128" class="edge">
<title>Node64&#45;&gt;Node45</title>
<path fill="none" stroke="#191970" d="M1909.2382,-173.8906C1932.3934,-163.6457 1969.2635,-147.3326 1995.4785,-135.7339"/>
<polygon fill="#191970" stroke="#191970" points="1997.2244,-138.7888 2004.9532,-131.5419 1994.3921,-132.3874 1997.2244,-138.7888"/>
</g>
<!-- Node65&#45;&gt;Node63 -->
<g id="edge133" class="edge">
<title>Node65&#45;&gt;Node63</title>
<path fill="none" stroke="#191970" d="M2275.3462,-369.3416C2277.1379,-348.4114 2281.4101,-298.504 2283.8094,-270.4762"/>
<polygon fill="#191970" stroke="#191970" points="2287.3173,-270.5326 2284.683,-260.2705 2280.3428,-269.9355 2287.3173,-270.5326"/>
</g>
</g>
</svg>
