<?xml version="1.0" encoding="UTF-8" standalone="no"?>
<!DOCTYPE svg PUBLIC "-//W3C//DTD SVG 1.1//EN"
 "http://www.w3.org/Graphics/SVG/1.1/DTD/svg11.dtd">
<!-- Generated by graphviz version 2.43.0 (0)
 -->
<!-- Title: LibraryLinkError.h Pages: 1 -->
<svg width="1228pt" height="644pt"
 viewBox="0.00 0.00 1227.50 644.00" xmlns="http://www.w3.org/2000/svg" xmlns:xlink="http://www.w3.org/1999/xlink">
<g id="graph0" class="graph" transform="scale(1 1) rotate(0) translate(4 640)">
<title>LibraryLinkError.h</title>
<polygon fill="white" stroke="transparent" points="-4,4 -4,-640 1223.5,-640 1223.5,4 -4,4"/>
<!-- Node1 -->
<g id="node1" class="node">
<title>Node1</title>
<g id="a_node1"><a xlink:title="Error class and error codes used by LibraryLink Utilities classes.">
<polygon fill="#bfbfbf" stroke="black" points="854,-616.5 854,-635.5 946,-635.5 946,-616.5 854,-616.5"/>
<text text-anchor="middle" x="900" y="-623.5" font-family="Helvetica,sans-Serif" font-size="10.00">LibraryLinkError.h</text>
</a>
</g>
</g>
<!-- Node2 -->
<g id="node2" class="node">
<title>Node2</title>
<g id="a_node2"><a xlink:href="ErrorManager_8h.html" target="_top" xlink:title="Definition of the ErrorManager class responsible for error registration and throwing.">
<polygon fill="white" stroke="black" points="585.5,-560.5 585.5,-579.5 668.5,-579.5 668.5,-560.5 585.5,-560.5"/>
<text text-anchor="middle" x="627" y="-567.5" font-family="Helvetica,sans-Serif" font-size="10.00">ErrorManager.h</text>
</a>
</g>
</g>
<!-- Node1&#45;&gt;Node2 -->
<g id="edge1" class="edge">
<title>Node1&#45;&gt;Node2</title>
<path fill="none" stroke="midnightblue" d="M846.69,-614.46C794.61,-604.15 716.41,-588.69 668.71,-579.25"/>
<polygon fill="midnightblue" stroke="midnightblue" points="846.25,-617.94 856.74,-616.44 847.61,-611.07 846.25,-617.94"/>
</g>
<!-- Node6 -->
<g id="node6" class="node">
<title>Node6</title>
<g id="a_node6"><a xlink:href="LibraryLinkError_8cpp.html" target="_top" xlink:title="Contains definitions of ErrorManager members and implementation of interface function sendRegisteredE...">
<polygon fill="white" stroke="black" points="1116.5,-0.5 1116.5,-19.5 1219.5,-19.5 1219.5,-0.5 1116.5,-0.5"/>
<text text-anchor="middle" x="1168" y="-7.5" font-family="Helvetica,sans-Serif" font-size="10.00">LibraryLinkError.cpp</text>
</a>
</g>
</g>
<!-- Node1&#45;&gt;Node6 -->
<g id="edge70" class="edge">
<title>Node1&#45;&gt;Node6</title>
<path fill="none" stroke="midnightblue" d="M955.49,-614.42C1035.56,-597.55 1174,-561.64 1174,-515 1174,-515 1174,-515 1174,-121 1174,-83.13 1170.41,-38.04 1168.78,-19.55"/>
<polygon fill="midnightblue" stroke="midnightblue" points="954.63,-611.03 945.55,-616.48 956.06,-617.88 954.63,-611.03"/>
</g>
<!-- Node3 -->
<g id="node3" class="node">
<title>Node3</title>
<g id="a_node3"><a xlink:href="DataList_8h.html" target="_top" xlink:title="Definition of templated DataStore wrapper called DataList.">
<polygon fill="white" stroke="black" points="372,-112.5 372,-131.5 434,-131.5 434,-112.5 372,-112.5"/>
<text text-anchor="middle" x="403" y="-119.5" font-family="Helvetica,sans-Serif" font-size="10.00">DataList.h</text>
</a>
</g>
</g>
<!-- Node2&#45;&gt;Node3 -->
<g id="edge2" class="edge">
<title>Node2&#45;&gt;Node3</title>
<path fill="none" stroke="midnightblue" d="M574.94,-567.77C452.4,-563.47 156,-544.26 156,-459 156,-459 156,-459 156,-401 156,-262.51 329.41,-160.93 385.63,-131.63"/>
<polygon fill="midnightblue" stroke="midnightblue" points="575.09,-571.28 585.2,-568.11 575.32,-564.28 575.09,-571.28"/>
</g>
<!-- Node4 -->
<g id="node4" class="node">
<title>Node4</title>
<g id="a_node4"><a xlink:href="LLU_8h.html" target="_top" xlink:title="Header file which includes all major parts of LLU.">
<polygon fill="white" stroke="black" points="414.5,-0.5 414.5,-19.5 457.5,-19.5 457.5,-0.5 414.5,-0.5"/>
<text text-anchor="middle" x="436" y="-7.5" font-family="Helvetica,sans-Serif" font-size="10.00">LLU.h</text>
</a>
</g>
</g>
<!-- Node2&#45;&gt;Node4 -->
<g id="edge62" class="edge">
<title>Node2&#45;&gt;Node4</title>
<path fill="none" stroke="midnightblue" d="M574.94,-568.52C456.61,-566.82 170.82,-559.1 82,-524 38.75,-506.91 0,-505.51 0,-459 0,-459 0,-459 0,-121 0,-34.54 326.4,-15.35 414.38,-11.74"/>
<polygon fill="midnightblue" stroke="midnightblue" points="575.14,-572.02 585.19,-568.66 575.24,-565.02 575.14,-572.02"/>
</g>
<!-- Node5 -->
<g id="node5" class="node">
<title>Node5</title>
<g id="a_node5"><a xlink:href="MArgumentManager_8h.html" target="_top" xlink:title="Definition of MArgumentManager class.">
<polygon fill="white" stroke="black" points="849,-56.5 849,-75.5 961,-75.5 961,-56.5 849,-56.5"/>
<text text-anchor="middle" x="905" y="-63.5" font-family="Helvetica,sans-Serif" font-size="10.00">MArgumentManager.h</text>
</a>
</g>
</g>
<!-- Node2&#45;&gt;Node5 -->
<g id="edge63" class="edge">
<title>Node2&#45;&gt;Node5</title>
<path fill="none" stroke="midnightblue" d="M678.87,-567.06C791.09,-562.42 1048.73,-549.12 1079,-524 1102.16,-504.78 1098,-489.1 1098,-459 1098,-459 1098,-459 1098,-177 1098,-113.46 1018.07,-86.15 961.08,-74.75"/>
<polygon fill="midnightblue" stroke="midnightblue" points="678.65,-563.57 668.8,-567.47 678.94,-570.56 678.65,-563.57"/>
</g>
<!-- Node9 -->
<g id="node9" class="node">
<title>Node9</title>
<g id="a_node9"><a xlink:href="Base_8hpp.html" target="_top" xlink:title="Definitions of MContainerBase and MContainer class templates.">
<polygon fill="white" stroke="black" points="466,-504.5 466,-523.5 524,-523.5 524,-504.5 466,-504.5"/>
<text text-anchor="middle" x="495" y="-511.5" font-family="Helvetica,sans-Serif" font-size="10.00">Base.hpp</text>
</a>
</g>
</g>
<!-- Node2&#45;&gt;Node9 -->
<g id="edge9" class="edge">
<title>Node2&#45;&gt;Node9</title>
<path fill="none" stroke="midnightblue" d="M596.78,-556.64C572.01,-546.5 537.6,-532.43 515.82,-523.52"/>
<polygon fill="midnightblue" stroke="midnightblue" points="595.5,-559.9 606.08,-560.44 598.15,-553.42 595.5,-559.9"/>
</g>
<!-- Node18 -->
<g id="node18" class="node">
<title>Node18</title>
<g id="a_node18"><a xlink:href="Views_2Image_8hpp.html" target="_top" xlink:title="Definition and implementation of ImageView and ImageTypedView.">
<polygon fill="white" stroke="black" points="28,-392.5 28,-411.5 90,-411.5 90,-392.5 28,-392.5"/>
<text text-anchor="middle" x="59" y="-399.5" font-family="Helvetica,sans-Serif" font-size="10.00">Image.hpp</text>
</a>
</g>
</g>
<!-- Node2&#45;&gt;Node18 -->
<g id="edge61" class="edge">
<title>Node2&#45;&gt;Node18</title>
<path fill="none" stroke="midnightblue" d="M575.19,-567.65C450.44,-563.98 140.95,-552.11 104,-524 67.07,-495.91 60.44,-434.13 59.26,-411.51"/>
<polygon fill="midnightblue" stroke="midnightblue" points="575.17,-571.16 585.26,-567.95 575.37,-564.16 575.17,-571.16"/>
</g>
<!-- Node28 -->
<g id="node28" class="node">
<title>Node28</title>
<g id="a_node28"><a xlink:href="ProgressMonitor_8cpp.html" target="_top" xlink:title="Implementation file for ProgressMonitor class.">
<polygon fill="white" stroke="black" points="227,-56.5 227,-75.5 333,-75.5 333,-56.5 227,-56.5"/>
<text text-anchor="middle" x="280" y="-63.5" font-family="Helvetica,sans-Serif" font-size="10.00">ProgressMonitor.cpp</text>
</a>
</g>
</g>
<!-- Node2&#45;&gt;Node28 -->
<g id="edge68" class="edge">
<title>Node2&#45;&gt;Node28</title>
<path fill="none" stroke="midnightblue" d="M575.03,-567.51C475.18,-564 260.47,-553.22 193,-524 152.52,-506.47 118,-503.11 118,-459 118,-459 118,-459 118,-289 118,-188.09 228.57,-102.39 267.02,-75.64"/>
<polygon fill="midnightblue" stroke="midnightblue" points="575.07,-571.01 585.18,-567.85 575.31,-564.01 575.07,-571.01"/>
</g>
<!-- Node31 -->
<g id="node31" class="node">
<title>Node31</title>
<g id="a_node31"><a xlink:href="MArrayDimensions_8h.html" target="_top" xlink:title=" ">
<polygon fill="white" stroke="black" points="894,-280.5 894,-299.5 1002,-299.5 1002,-280.5 894,-280.5"/>
<text text-anchor="middle" x="948" y="-287.5" font-family="Helvetica,sans-Serif" font-size="10.00">MArrayDimensions.h</text>
</a>
</g>
</g>
<!-- Node2&#45;&gt;Node31 -->
<g id="edge54" class="edge">
<title>Node2&#45;&gt;Node31</title>
<path fill="none" stroke="midnightblue" d="M601.33,-555.19C580.1,-542.02 555.72,-521.63 571,-504 644.82,-418.84 725.76,-526.65 822,-468 891.57,-425.6 933.44,-328.74 944.83,-299.51"/>
<polygon fill="midnightblue" stroke="midnightblue" points="599.72,-558.3 610.11,-560.36 603.27,-552.27 599.72,-558.3"/>
</g>
<!-- Node34 -->
<g id="node34" class="node">
<title>Node34</title>
<g id="a_node34"><a xlink:href="ErrorManager_8cpp.html" target="_top" xlink:title=" ">
<polygon fill="white" stroke="black" points="580.5,-504.5 580.5,-523.5 673.5,-523.5 673.5,-504.5 580.5,-504.5"/>
<text text-anchor="middle" x="627" y="-511.5" font-family="Helvetica,sans-Serif" font-size="10.00">ErrorManager.cpp</text>
</a>
</g>
</g>
<!-- Node2&#45;&gt;Node34 -->
<g id="edge64" class="edge">
<title>Node2&#45;&gt;Node34</title>
<path fill="none" stroke="midnightblue" d="M627,-549.8C627,-540.91 627,-530.78 627,-523.75"/>
<polygon fill="midnightblue" stroke="midnightblue" points="623.5,-550.08 627,-560.08 630.5,-550.08 623.5,-550.08"/>
</g>
<!-- Node35 -->
<g id="node35" class="node">
<title>Node35</title>
<g id="a_node35"><a xlink:href="FileUtilities_8cpp.html" target="_top" xlink:title=" ">
<polygon fill="white" stroke="black" points="692,-504.5 692,-523.5 776,-523.5 776,-504.5 692,-504.5"/>
<text text-anchor="middle" x="734" y="-511.5" font-family="Helvetica,sans-Serif" font-size="10.00">FileUtilities.cpp</text>
</a>
</g>
</g>
<!-- Node2&#45;&gt;Node35 -->
<g id="edge65" class="edge">
<title>Node2&#45;&gt;Node35</title>
<path fill="none" stroke="midnightblue" d="M653.3,-555.73C673.11,-545.73 699.71,-532.31 716.85,-523.65"/>
<polygon fill="midnightblue" stroke="midnightblue" points="651.54,-552.69 644.19,-560.32 654.7,-558.94 651.54,-552.69"/>
</g>
<!-- Node36 -->
<g id="node36" class="node">
<title>Node36</title>
<g id="a_node36"><a xlink:href="LibraryData_8cpp.html" target="_top" xlink:title=" ">
<polygon fill="white" stroke="black" points="794,-504.5 794,-523.5 880,-523.5 880,-504.5 794,-504.5"/>
<text text-anchor="middle" x="837" y="-511.5" font-family="Helvetica,sans-Serif" font-size="10.00">LibraryData.cpp</text>
</a>
</g>
</g>
<!-- Node2&#45;&gt;Node36 -->
<g id="edge66" class="edge">
<title>Node2&#45;&gt;Node36</title>
<path fill="none" stroke="midnightblue" d="M670.19,-557.89C709.85,-547.7 767.77,-532.8 803.88,-523.52"/>
<polygon fill="midnightblue" stroke="midnightblue" points="669.09,-554.56 660.28,-560.44 670.83,-561.34 669.09,-554.56"/>
</g>
<!-- Node37 -->
<g id="node37" class="node">
<title>Node37</title>
<g id="a_node37"><a xlink:href="MArgument_8cpp.html" target="_top" xlink:title="Specializations of PrimitiveWrapper class template members.">
<polygon fill="white" stroke="black" points="898,-504.5 898,-523.5 984,-523.5 984,-504.5 898,-504.5"/>
<text text-anchor="middle" x="941" y="-511.5" font-family="Helvetica,sans-Serif" font-size="10.00">MArgument.cpp</text>
</a>
</g>
</g>
<!-- Node2&#45;&gt;Node37 -->
<g id="edge67" class="edge">
<title>Node2&#45;&gt;Node37</title>
<path fill="none" stroke="midnightblue" d="M678.89,-560.11C731.75,-551.04 816.09,-536.57 889,-524 891.89,-523.5 894.87,-522.99 897.87,-522.47"/>
<polygon fill="midnightblue" stroke="midnightblue" points="678.01,-556.71 668.75,-561.85 679.2,-563.61 678.01,-556.71"/>
</g>
<!-- Node38 -->
<g id="node38" class="node">
<title>Node38</title>
<g id="a_node38"><a xlink:href="Utilities_8cpp.html" target="_top" xlink:title="Implementation file with miscellaneous definitions used throughout the WSTP&#45;related part of LibraryLi...">
<polygon fill="white" stroke="black" points="1002,-504.5 1002,-523.5 1070,-523.5 1070,-504.5 1002,-504.5"/>
<text text-anchor="middle" x="1036" y="-511.5" font-family="Helvetica,sans-Serif" font-size="10.00">Utilities.cpp</text>
</a>
</g>
</g>
<!-- Node2&#45;&gt;Node38 -->
<g id="edge69" class="edge">
<title>Node2&#45;&gt;Node38</title>
<path fill="none" stroke="midnightblue" d="M678.64,-564.03C749.69,-556.88 881.48,-542.49 993,-524 995.86,-523.53 998.82,-522.99 1001.78,-522.43"/>
<polygon fill="midnightblue" stroke="midnightblue" points="678.21,-560.56 668.6,-565.03 678.9,-567.52 678.21,-560.56"/>
</g>
<!-- Node3&#45;&gt;Node4 -->
<g id="edge3" class="edge">
<title>Node3&#45;&gt;Node4</title>
<path fill="none" stroke="midnightblue" d="M408.5,-102.67C415.71,-78.62 428.08,-37.39 433.42,-19.59"/>
<polygon fill="midnightblue" stroke="midnightblue" points="405.11,-101.78 405.59,-112.37 411.82,-103.8 405.11,-101.78"/>
</g>
<!-- Node3&#45;&gt;Node5 -->
<g id="edge4" class="edge">
<title>Node3&#45;&gt;Node5</title>
<path fill="none" stroke="midnightblue" d="M444.07,-116.58C533.7,-106.94 746.95,-84 848.87,-73.04"/>
<polygon fill="midnightblue" stroke="midnightblue" points="443.59,-113.11 434.02,-117.66 444.34,-120.07 443.59,-113.11"/>
</g>
<!-- Node5&#45;&gt;Node4 -->
<g id="edge5" class="edge">
<title>Node5&#45;&gt;Node4</title>
<path fill="none" stroke="midnightblue" d="M838.83,-56.47C837.54,-56.31 836.27,-56.15 835,-56 691.05,-38.63 517.62,-19.78 457.64,-13.32"/>
<polygon fill="midnightblue" stroke="midnightblue" points="838.49,-59.95 848.85,-57.7 839.35,-53 838.49,-59.95"/>
</g>
<!-- Node5&#45;&gt;Node6 -->
<g id="edge6" class="edge">
<title>Node5&#45;&gt;Node6</title>
<path fill="none" stroke="midnightblue" d="M956.58,-54.41C1006.28,-44.2 1080.53,-28.96 1126.52,-19.52"/>
<polygon fill="midnightblue" stroke="midnightblue" points="955.76,-51 946.67,-56.44 957.17,-57.86 955.76,-51"/>
</g>
<!-- Node7 -->
<g id="node7" class="node">
<title>Node7</title>
<g id="a_node7"><a xlink:href="Logger_8cpp.html" target="_top" xlink:title="Implementation of functions defined in Logger.h.">
<polygon fill="white" stroke="black" points="873,-0.5 873,-19.5 937,-19.5 937,-0.5 873,-0.5"/>
<text text-anchor="middle" x="905" y="-7.5" font-family="Helvetica,sans-Serif" font-size="10.00">Logger.cpp</text>
</a>
</g>
</g>
<!-- Node5&#45;&gt;Node7 -->
<g id="edge7" class="edge">
<title>Node5&#45;&gt;Node7</title>
<path fill="none" stroke="midnightblue" d="M905,-45.8C905,-36.91 905,-26.78 905,-19.75"/>
<polygon fill="midnightblue" stroke="midnightblue" points="901.5,-46.08 905,-56.08 908.5,-46.08 901.5,-46.08"/>
</g>
<!-- Node8 -->
<g id="node8" class="node">
<title>Node8</title>
<g id="a_node8"><a xlink:href="MArgumentManager_8cpp.html" target="_top" xlink:title="Definitions of non&#45;template member functions and static data members from MArgumentManager class.">
<polygon fill="white" stroke="black" points="969,-0.5 969,-19.5 1091,-19.5 1091,-0.5 969,-0.5"/>
<text text-anchor="middle" x="1030" y="-7.5" font-family="Helvetica,sans-Serif" font-size="10.00">MArgumentManager.cpp</text>
</a>
</g>
</g>
<!-- Node5&#45;&gt;Node8 -->
<g id="edge8" class="edge">
<title>Node5&#45;&gt;Node8</title>
<path fill="none" stroke="midnightblue" d="M934.24,-52.37C957.65,-42.26 989.84,-28.35 1010.29,-19.52"/>
<polygon fill="midnightblue" stroke="midnightblue" points="932.6,-49.26 924.81,-56.44 935.37,-55.69 932.6,-49.26"/>
</g>
<!-- Node10 -->
<g id="node10" class="node">
<title>Node10</title>
<g id="a_node10"><a xlink:href="Generic_2DataStore_8hpp.html" target="_top" xlink:title="Definition and implementation of generic DataStore wrapper.">
<polygon fill="white" stroke="black" points="448,-280.5 448,-299.5 528,-299.5 528,-280.5 448,-280.5"/>
<text text-anchor="middle" x="488" y="-287.5" font-family="Helvetica,sans-Serif" font-size="10.00">DataStore.hpp</text>
</a>
</g>
</g>
<!-- Node9&#45;&gt;Node10 -->
<g id="edge10" class="edge">
<title>Node9&#45;&gt;Node10</title>
<path fill="none" stroke="midnightblue" d="M459.33,-500.82C422.62,-486.15 367.46,-457.63 343,-412 314.85,-359.49 414.28,-362.02 423,-356 447.17,-339.32 470.17,-313.04 481.2,-299.57"/>
<polygon fill="midnightblue" stroke="midnightblue" points="458.1,-504.1 468.69,-504.43 460.61,-497.57 458.1,-504.1"/>
</g>
<!-- Node15 -->
<g id="node15" class="node">
<title>Node15</title>
<g id="a_node15"><a xlink:href="Generic_2Image_8hpp.html" target="_top" xlink:title="GenericImage definition and implementation.">
<polygon fill="white" stroke="black" points="751,-448.5 751,-467.5 813,-467.5 813,-448.5 751,-448.5"/>
<text text-anchor="middle" x="782" y="-455.5" font-family="Helvetica,sans-Serif" font-size="10.00">Image.hpp</text>
</a>
</g>
</g>
<!-- Node9&#45;&gt;Node15 -->
<g id="edge17" class="edge">
<title>Node9&#45;&gt;Node15</title>
<path fill="none" stroke="midnightblue" d="M534.16,-504.76C535.45,-504.5 536.74,-504.25 538,-504 548.41,-501.95 687.29,-476.41 750.75,-464.74"/>
<polygon fill="midnightblue" stroke="midnightblue" points="533.23,-501.38 524.13,-506.81 534.62,-508.24 533.23,-501.38"/>
</g>
<!-- Node21 -->
<g id="node21" class="node">
<title>Node21</title>
<g id="a_node21"><a xlink:href="Generic_2NumericArray_8hpp.html" target="_top" xlink:title="GenericNumericArray definition and implementation.">
<polygon fill="white" stroke="black" points="458,-448.5 458,-467.5 552,-467.5 552,-448.5 458,-448.5"/>
<text text-anchor="middle" x="505" y="-455.5" font-family="Helvetica,sans-Serif" font-size="10.00">NumericArray.hpp</text>
</a>
</g>
</g>
<!-- Node9&#45;&gt;Node21 -->
<g id="edge34" class="edge">
<title>Node9&#45;&gt;Node21</title>
<path fill="none" stroke="midnightblue" d="M498.5,-494.1C500.16,-485.14 502.06,-474.86 503.38,-467.75"/>
<polygon fill="midnightblue" stroke="midnightblue" points="495.03,-493.61 496.65,-504.08 501.91,-494.89 495.03,-493.61"/>
</g>
<!-- Node25 -->
<g id="node25" class="node">
<title>Node25</title>
<g id="a_node25"><a xlink:href="Generic_2Tensor_8hpp.html" target="_top" xlink:title="GenericTensor definition and implementation.">
<polygon fill="white" stroke="black" points="660,-448.5 660,-467.5 724,-467.5 724,-448.5 660,-448.5"/>
<text text-anchor="middle" x="692" y="-455.5" font-family="Helvetica,sans-Serif" font-size="10.00">Tensor.hpp</text>
</a>
</g>
</g>
<!-- Node9&#45;&gt;Node25 -->
<g id="edge43" class="edge">
<title>Node9&#45;&gt;Node25</title>
<path fill="none" stroke="midnightblue" d="M534.05,-502.3C571.25,-492.1 626.53,-476.95 660.86,-467.54"/>
<polygon fill="midnightblue" stroke="midnightblue" points="532.79,-499.01 524.07,-505.03 534.64,-505.76 532.79,-499.01"/>
</g>
<!-- Node10&#45;&gt;Node3 -->
<g id="edge11" class="edge">
<title>Node10&#45;&gt;Node3</title>
<path fill="none" stroke="midnightblue" d="M481.41,-270.88C472.32,-246.73 454.8,-202.95 435,-168 427.44,-154.65 416.83,-140.41 409.94,-131.61"/>
<polygon fill="midnightblue" stroke="midnightblue" points="478.21,-272.34 484.97,-280.5 484.78,-269.91 478.21,-272.34"/>
</g>
<!-- Node11 -->
<g id="node11" class="node">
<title>Node11</title>
<g id="a_node11"><a xlink:href="DataNode_8hpp.html" target="_top" xlink:title=" ">
<polygon fill="white" stroke="black" points="350,-224.5 350,-243.5 430,-243.5 430,-224.5 350,-224.5"/>
<text text-anchor="middle" x="390" y="-231.5" font-family="Helvetica,sans-Serif" font-size="10.00">DataNode.hpp</text>
</a>
</g>
</g>
<!-- Node10&#45;&gt;Node11 -->
<g id="edge12" class="edge">
<title>Node10&#45;&gt;Node11</title>
<path fill="none" stroke="midnightblue" d="M463.41,-275.45C445.32,-265.48 421.27,-252.23 405.71,-243.65"/>
<polygon fill="midnightblue" stroke="midnightblue" points="461.81,-278.56 472.25,-280.32 465.19,-272.43 461.81,-278.56"/>
</g>
<!-- Node13 -->
<g id="node13" class="node">
<title>Node13</title>
<g id="a_node13"><a xlink:href="DataStore_8cpp.html" target="_top" xlink:title=" ">
<polygon fill="white" stroke="black" points="486,-224.5 486,-243.5 566,-243.5 566,-224.5 486,-224.5"/>
<text text-anchor="middle" x="526" y="-231.5" font-family="Helvetica,sans-Serif" font-size="10.00">DataStore.cpp</text>
</a>
</g>
</g>
<!-- Node10&#45;&gt;Node13 -->
<g id="edge15" class="edge">
<title>Node10&#45;&gt;Node13</title>
<path fill="none" stroke="midnightblue" d="M500.06,-271.86C506.64,-262.5 514.51,-251.33 519.84,-243.75"/>
<polygon fill="midnightblue" stroke="midnightblue" points="497.17,-269.89 494.27,-280.08 502.89,-273.92 497.17,-269.89"/>
</g>
<!-- Node14 -->
<g id="node14" class="node">
<title>Node14</title>
<g id="a_node14"><a xlink:href="TypedMArgument_8cpp.html" target="_top" xlink:title=" ">
<polygon fill="white" stroke="black" points="622,-224.5 622,-243.5 734,-243.5 734,-224.5 622,-224.5"/>
<text text-anchor="middle" x="678" y="-231.5" font-family="Helvetica,sans-Serif" font-size="10.00">TypedMArgument.cpp</text>
</a>
</g>
</g>
<!-- Node10&#45;&gt;Node14 -->
<g id="edge16" class="edge">
<title>Node10&#45;&gt;Node14</title>
<path fill="none" stroke="midnightblue" d="M527.76,-277.7C563.62,-267.51 615.57,-252.74 648.03,-243.52"/>
<polygon fill="midnightblue" stroke="midnightblue" points="526.77,-274.34 518.11,-280.44 528.68,-281.08 526.77,-274.34"/>
</g>
<!-- Node12 -->
<g id="node12" class="node">
<title>Node12</title>
<g id="a_node12"><a xlink:href="DataList_8hpp.html" target="_top" xlink:title="Special iterators for DataLists. Iteration over keys, values, reversed iteration.">
<polygon fill="white" stroke="black" points="354,-168.5 354,-187.5 426,-187.5 426,-168.5 354,-168.5"/>
<text text-anchor="middle" x="390" y="-175.5" font-family="Helvetica,sans-Serif" font-size="10.00">DataList.hpp</text>
</a>
</g>
</g>
<!-- Node11&#45;&gt;Node12 -->
<g id="edge13" class="edge">
<title>Node11&#45;&gt;Node12</title>
<path fill="none" stroke="midnightblue" d="M390,-213.8C390,-204.91 390,-194.78 390,-187.75"/>
<polygon fill="midnightblue" stroke="midnightblue" points="386.5,-214.08 390,-224.08 393.5,-214.08 386.5,-214.08"/>
</g>
<!-- Node12&#45;&gt;Node3 -->
<g id="edge14" class="edge">
<title>Node12&#45;&gt;Node3</title>
<path fill="none" stroke="midnightblue" d="M394.55,-158.1C396.71,-149.14 399.18,-138.86 400.89,-131.75"/>
<polygon fill="midnightblue" stroke="midnightblue" points="391.08,-157.54 392.15,-168.08 397.89,-159.18 391.08,-157.54"/>
</g>
<!-- Node15&#45;&gt;Node14 -->
<g id="edge33" class="edge">
<title>Node15&#45;&gt;Node14</title>
<path fill="none" stroke="midnightblue" d="M777.52,-438.26C769.02,-404.85 748.55,-333.47 717,-280 708.7,-265.93 695.79,-252.09 687.12,-243.55"/>
<polygon fill="midnightblue" stroke="midnightblue" points="774.23,-439.54 780.02,-448.41 781.03,-437.86 774.23,-439.54"/>
</g>
<!-- Node16 -->
<g id="node16" class="node">
<title>Node16</title>
<g id="a_node16"><a xlink:href="Image_8h.html" target="_top" xlink:title="Templated C++ wrapper for MImage.">
<polygon fill="white" stroke="black" points="858,-168.5 858,-187.5 910,-187.5 910,-168.5 858,-168.5"/>
<text text-anchor="middle" x="884" y="-175.5" font-family="Helvetica,sans-Serif" font-size="10.00">Image.h</text>
</a>
</g>
</g>
<!-- Node15&#45;&gt;Node16 -->
<g id="edge18" class="edge">
<title>Node15&#45;&gt;Node16</title>
<path fill="none" stroke="midnightblue" d="M789.5,-438.79C804.47,-402.19 838.77,-316.94 864,-244 870.87,-224.14 877.86,-200.47 881.47,-187.89"/>
<polygon fill="midnightblue" stroke="midnightblue" points="786.22,-437.57 785.66,-448.15 792.69,-440.23 786.22,-437.57"/>
</g>
<!-- Node17 -->
<g id="node17" class="node">
<title>Node17</title>
<g id="a_node17"><a xlink:href="Image_8cpp.html" target="_top" xlink:title="Template specializations of Image::type attribute for all data types that we want to support.">
<polygon fill="white" stroke="black" points="970,-112.5 970,-131.5 1032,-131.5 1032,-112.5 970,-112.5"/>
<text text-anchor="middle" x="1001" y="-119.5" font-family="Helvetica,sans-Serif" font-size="10.00">Image.cpp</text>
</a>
</g>
</g>
<!-- Node15&#45;&gt;Node17 -->
<g id="edge32" class="edge">
<title>Node15&#45;&gt;Node17</title>
<path fill="none" stroke="midnightblue" d="M822.97,-449.64C900.29,-434.57 1060,-397.36 1060,-347 1060,-347 1060,-347 1060,-233 1060,-190.74 1025.77,-149.04 1009.45,-131.56"/>
<polygon fill="midnightblue" stroke="midnightblue" points="822.24,-446.21 813.08,-451.53 823.56,-453.09 822.24,-446.21"/>
</g>
<!-- Node15&#45;&gt;Node18 -->
<g id="edge22" class="edge">
<title>Node15&#45;&gt;Node18</title>
<path fill="none" stroke="midnightblue" d="M741.1,-449.13C738.36,-448.71 735.64,-448.33 733,-448 486.29,-417.21 185.97,-406.56 90.02,-403.8"/>
<polygon fill="midnightblue" stroke="midnightblue" points="740.54,-452.58 750.98,-450.75 741.68,-445.67 740.54,-452.58"/>
</g>
<!-- Node19 -->
<g id="node19" class="node">
<title>Node19</title>
<g id="a_node19"><a xlink:href="TypedMArgument_8h.html" target="_top" xlink:title=" ">
<polygon fill="white" stroke="black" points="464.5,-392.5 464.5,-411.5 565.5,-411.5 565.5,-392.5 464.5,-392.5"/>
<text text-anchor="middle" x="515" y="-399.5" font-family="Helvetica,sans-Serif" font-size="10.00">TypedMArgument.h</text>
</a>
</g>
</g>
<!-- Node15&#45;&gt;Node19 -->
<g id="edge24" class="edge">
<title>Node15&#45;&gt;Node19</title>
<path fill="none" stroke="midnightblue" d="M740.76,-448.66C690.96,-438.59 607.65,-421.74 557.36,-411.57"/>
<polygon fill="midnightblue" stroke="midnightblue" points="740.35,-452.15 750.85,-450.7 741.74,-445.29 740.35,-452.15"/>
</g>
<!-- Node16&#45;&gt;Node4 -->
<g id="edge19" class="edge">
<title>Node16&#45;&gt;Node4</title>
<path fill="none" stroke="midnightblue" d="M868.23,-161.07C852.84,-146.37 828.13,-124.91 803,-112 681.33,-49.48 516.47,-22.03 457.82,-13.81"/>
<polygon fill="midnightblue" stroke="midnightblue" points="865.79,-163.58 875.38,-168.07 870.68,-158.57 865.79,-163.58"/>
</g>
<!-- Node16&#45;&gt;Node5 -->
<g id="edge20" class="edge">
<title>Node16&#45;&gt;Node5</title>
<path fill="none" stroke="midnightblue" d="M887.56,-158.35C892.16,-134.25 899.98,-93.31 903.36,-75.59"/>
<polygon fill="midnightblue" stroke="midnightblue" points="884.09,-157.89 885.65,-168.37 890.96,-159.2 884.09,-157.89"/>
</g>
<!-- Node16&#45;&gt;Node17 -->
<g id="edge21" class="edge">
<title>Node16&#45;&gt;Node17</title>
<path fill="none" stroke="midnightblue" d="M911.66,-164.23C933.55,-154.13 963.5,-140.31 982.55,-131.52"/>
<polygon fill="midnightblue" stroke="midnightblue" points="910.15,-161.08 902.54,-168.44 913.09,-167.43 910.15,-161.08"/>
</g>
<!-- Node18&#45;&gt;Node4 -->
<g id="edge23" class="edge">
<title>Node18&#45;&gt;Node4</title>
<path fill="none" stroke="midnightblue" d="M61.74,-382.3C64.7,-360.45 69,-323.18 69,-291 69,-291 69,-291 69,-121 69,-48.41 335.74,-19.64 414.41,-12.74"/>
<polygon fill="midnightblue" stroke="midnightblue" points="58.24,-382.08 60.31,-392.47 65.17,-383.05 58.24,-382.08"/>
</g>
<!-- Node19&#45;&gt;Node3 -->
<g id="edge25" class="edge">
<title>Node19&#45;&gt;Node3</title>
<path fill="none" stroke="midnightblue" d="M455.32,-390.68C402.75,-380.98 333.25,-366.43 325,-356 272.88,-290.09 300.29,-239.15 345,-168 355.1,-151.92 373.09,-139.31 386.37,-131.59"/>
<polygon fill="midnightblue" stroke="midnightblue" points="454.79,-394.14 465.26,-392.49 456.05,-387.25 454.79,-394.14"/>
</g>
<!-- Node19&#45;&gt;Node10 -->
<g id="edge26" class="edge">
<title>Node19&#45;&gt;Node10</title>
<path fill="none" stroke="midnightblue" d="M510.42,-382.35C504.51,-358.25 494.46,-317.31 490.11,-299.59"/>
<polygon fill="midnightblue" stroke="midnightblue" points="507.1,-383.49 512.88,-392.37 513.9,-381.82 507.1,-383.49"/>
</g>
<!-- Node19&#45;&gt;Node11 -->
<g id="edge27" class="edge">
<title>Node19&#45;&gt;Node11</title>
<path fill="none" stroke="midnightblue" d="M502.02,-383.76C475.54,-348.59 416.11,-269.68 396.45,-243.57"/>
<polygon fill="midnightblue" stroke="midnightblue" points="499.47,-386.19 508.28,-392.08 505.06,-381.98 499.47,-386.19"/>
</g>
<!-- Node19&#45;&gt;Node14 -->
<g id="edge31" class="edge">
<title>Node19&#45;&gt;Node14</title>
<path fill="none" stroke="midnightblue" d="M527.55,-383.97C545.95,-359.56 582,-313.85 618,-280 632.99,-265.91 652.33,-252.07 664.94,-243.54"/>
<polygon fill="midnightblue" stroke="midnightblue" points="524.57,-382.11 521.4,-392.21 530.18,-386.3 524.57,-382.11"/>
</g>
<!-- Node20 -->
<g id="node20" class="node">
<title>Node20</title>
<g id="a_node20"><a xlink:href="Iterators_2DataStore_8hpp.html" target="_top" xlink:title=" ">
<polygon fill="white" stroke="black" points="334,-336.5 334,-355.5 414,-355.5 414,-336.5 334,-336.5"/>
<text text-anchor="middle" x="374" y="-343.5" font-family="Helvetica,sans-Serif" font-size="10.00">DataStore.hpp</text>
</a>
</g>
</g>
<!-- Node19&#45;&gt;Node20 -->
<g id="edge28" class="edge">
<title>Node19&#45;&gt;Node20</title>
<path fill="none" stroke="midnightblue" d="M483.07,-388.77C456.59,-378.63 419.61,-364.47 396.24,-355.52"/>
<polygon fill="midnightblue" stroke="midnightblue" points="482.07,-392.14 492.66,-392.44 484.57,-385.6 482.07,-392.14"/>
</g>
<!-- Node20&#45;&gt;Node10 -->
<g id="edge29" class="edge">
<title>Node20&#45;&gt;Node10</title>
<path fill="none" stroke="midnightblue" d="M401.24,-332.1C422.54,-322.01 451.54,-308.27 470.02,-299.52"/>
<polygon fill="midnightblue" stroke="midnightblue" points="399.6,-329 392.06,-336.44 402.6,-335.33 399.6,-329"/>
</g>
<!-- Node20&#45;&gt;Node12 -->
<g id="edge30" class="edge">
<title>Node20&#45;&gt;Node12</title>
<path fill="none" stroke="midnightblue" d="M362.22,-327.84C347.34,-303.89 325.45,-259.39 341,-224 347.97,-208.14 363.59,-195.42 375.34,-187.6"/>
<polygon fill="midnightblue" stroke="midnightblue" points="359.46,-330.02 367.85,-336.49 365.33,-326.21 359.46,-330.02"/>
</g>
<!-- Node21&#45;&gt;Node14 -->
<g id="edge42" class="edge">
<title>Node21&#45;&gt;Node14</title>
<path fill="none" stroke="midnightblue" d="M551.66,-445.24C571.18,-438.32 592.81,-427.73 608,-412 657.11,-361.12 673.03,-271.62 676.93,-243.62"/>
<polygon fill="midnightblue" stroke="midnightblue" points="550.38,-441.98 541.99,-448.45 552.58,-448.62 550.38,-441.98"/>
</g>
<!-- Node21&#45;&gt;Node19 -->
<g id="edge40" class="edge">
<title>Node21&#45;&gt;Node19</title>
<path fill="none" stroke="midnightblue" d="M508.5,-438.1C510.16,-429.14 512.06,-418.86 513.38,-411.75"/>
<polygon fill="midnightblue" stroke="midnightblue" points="505.03,-437.61 506.65,-448.08 511.91,-438.89 505.03,-437.61"/>
</g>
<!-- Node22 -->
<g id="node22" class="node">
<title>Node22</title>
<g id="a_node22"><a xlink:href="NumericArray_8h.html" target="_top" xlink:title="Templated C++ wrapper for MNumericArray.">
<polygon fill="white" stroke="black" points="530.5,-168.5 530.5,-187.5 613.5,-187.5 613.5,-168.5 530.5,-168.5"/>
<text text-anchor="middle" x="572" y="-175.5" font-family="Helvetica,sans-Serif" font-size="10.00">NumericArray.h</text>
</a>
</g>
</g>
<!-- Node21&#45;&gt;Node22 -->
<g id="edge35" class="edge">
<title>Node21&#45;&gt;Node22</title>
<path fill="none" stroke="midnightblue" d="M534.46,-443.74C548.23,-436.2 563.79,-425.55 574,-412 592.19,-387.86 594,-377.23 594,-347 594,-347 594,-347 594,-289 594,-250.63 580.97,-206.18 574.97,-187.72"/>
<polygon fill="midnightblue" stroke="midnightblue" points="532.6,-440.76 525.31,-448.45 535.8,-446.98 532.6,-440.76"/>
</g>
<!-- Node23 -->
<g id="node23" class="node">
<title>Node23</title>
<g id="a_node23"><a xlink:href="Views_2NumericArray_8hpp.html" target="_top" xlink:title="Definition and implementation of NumericArrayView and NumericArrayTypedView.">
<polygon fill="white" stroke="black" points="184,-336.5 184,-355.5 278,-355.5 278,-336.5 184,-336.5"/>
<text text-anchor="middle" x="231" y="-343.5" font-family="Helvetica,sans-Serif" font-size="10.00">NumericArray.hpp</text>
</a>
</g>
</g>
<!-- Node21&#45;&gt;Node23 -->
<g id="edge38" class="edge">
<title>Node21&#45;&gt;Node23</title>
<path fill="none" stroke="midnightblue" d="M452.93,-446.11C420.6,-438.48 378.57,-426.97 343,-412 304.67,-395.86 263.25,-369.1 243.22,-355.5"/>
<polygon fill="midnightblue" stroke="midnightblue" points="452.54,-449.61 463.07,-448.45 454.12,-442.79 452.54,-449.61"/>
</g>
<!-- Node24 -->
<g id="node24" class="node">
<title>Node24</title>
<g id="a_node24"><a xlink:href="NumericArray_8cpp.html" target="_top" xlink:title="Definitions of MContainer&lt;MArgumentType::NumericArray&gt; (GenericNumericArray) methods.">
<polygon fill="white" stroke="black" points="352,-392.5 352,-411.5 446,-411.5 446,-392.5 352,-392.5"/>
<text text-anchor="middle" x="399" y="-399.5" font-family="Helvetica,sans-Serif" font-size="10.00">NumericArray.cpp</text>
</a>
</g>
</g>
<!-- Node21&#45;&gt;Node24 -->
<g id="edge41" class="edge">
<title>Node21&#45;&gt;Node24</title>
<path fill="none" stroke="midnightblue" d="M478.94,-443.73C459.32,-433.73 432.97,-420.31 415.99,-411.65"/>
<polygon fill="midnightblue" stroke="midnightblue" points="477.47,-446.9 487.97,-448.32 480.65,-440.67 477.47,-446.9"/>
</g>
<!-- Node22&#45;&gt;Node4 -->
<g id="edge36" class="edge">
<title>Node22&#45;&gt;Node4</title>
<path fill="none" stroke="midnightblue" d="M558.24,-160.21C529.61,-125.26 464.5,-45.79 443.02,-19.57"/>
<polygon fill="midnightblue" stroke="midnightblue" points="555.64,-162.56 564.69,-168.08 561.06,-158.12 555.64,-162.56"/>
</g>
<!-- Node22&#45;&gt;Node5 -->
<g id="edge37" class="edge">
<title>Node22&#45;&gt;Node5</title>
<path fill="none" stroke="midnightblue" d="M564.85,-158.37C560.66,-143.97 558.09,-124.47 569,-112 604.66,-71.25 762.63,-65.83 848.68,-66.01"/>
<polygon fill="midnightblue" stroke="midnightblue" points="561.65,-159.83 568.17,-168.18 568.28,-157.59 561.65,-159.83"/>
</g>
<!-- Node23&#45;&gt;Node4 -->
<g id="edge39" class="edge">
<title>Node23&#45;&gt;Node4</title>
<path fill="none" stroke="midnightblue" d="M223.03,-326.88C210.87,-298.12 188.23,-239.96 180,-188 170.45,-127.7 172.25,-96.42 218,-56 247.11,-30.28 364.9,-17.21 414.17,-12.78"/>
<polygon fill="midnightblue" stroke="midnightblue" points="219.96,-328.59 227.13,-336.39 226.39,-325.82 219.96,-328.59"/>
</g>
<!-- Node25&#45;&gt;Node14 -->
<g id="edge53" class="edge">
<title>Node25&#45;&gt;Node14</title>
<path fill="none" stroke="midnightblue" d="M711.25,-441.75C719.63,-433.87 728.55,-423.5 733,-412 736.21,-403.71 734.49,-400.76 733,-392 722.98,-333.06 693.2,-266.79 682.17,-243.58"/>
<polygon fill="midnightblue" stroke="midnightblue" points="708.76,-439.27 703.54,-448.49 713.37,-444.54 708.76,-439.27"/>
</g>
<!-- Node25&#45;&gt;Node19 -->
<g id="edge52" class="edge">
<title>Node25&#45;&gt;Node19</title>
<path fill="none" stroke="midnightblue" d="M654.1,-445.44C620.72,-435.26 572.9,-420.66 542.91,-411.52"/>
<polygon fill="midnightblue" stroke="midnightblue" points="653.37,-448.87 663.95,-448.44 655.41,-442.18 653.37,-448.87"/>
</g>
<!-- Node26 -->
<g id="node26" class="node">
<title>Node26</title>
<g id="a_node26"><a xlink:href="Tensor_8h.html" target="_top" xlink:title="Templated C++ wrapper for MTensor.">
<polygon fill="white" stroke="black" points="735.5,-168.5 735.5,-187.5 788.5,-187.5 788.5,-168.5 735.5,-168.5"/>
<text text-anchor="middle" x="762" y="-175.5" font-family="Helvetica,sans-Serif" font-size="10.00">Tensor.h</text>
</a>
</g>
</g>
<!-- Node25&#45;&gt;Node26 -->
<g id="edge44" class="edge">
<title>Node25&#45;&gt;Node26</title>
<path fill="none" stroke="midnightblue" d="M717.74,-443.03C729.07,-435.44 741.31,-424.94 748,-412 788.56,-333.52 770.19,-219.74 763.85,-187.69"/>
<polygon fill="midnightblue" stroke="midnightblue" points="715.61,-440.23 708.97,-448.49 719.31,-446.18 715.61,-440.23"/>
</g>
<!-- Node30 -->
<g id="node30" class="node">
<title>Node30</title>
<g id="a_node30"><a xlink:href="Views_2Tensor_8hpp.html" target="_top" xlink:title="Definition and implementation of TensorView and TensorTypedView.">
<polygon fill="white" stroke="black" points="660,-392.5 660,-411.5 724,-411.5 724,-392.5 660,-392.5"/>
<text text-anchor="middle" x="692" y="-399.5" font-family="Helvetica,sans-Serif" font-size="10.00">Tensor.hpp</text>
</a>
</g>
</g>
<!-- Node25&#45;&gt;Node30 -->
<g id="edge51" class="edge">
<title>Node25&#45;&gt;Node30</title>
<path fill="none" stroke="midnightblue" d="M692,-437.8C692,-428.91 692,-418.78 692,-411.75"/>
<polygon fill="midnightblue" stroke="midnightblue" points="688.5,-438.08 692,-448.08 695.5,-438.08 688.5,-438.08"/>
</g>
<!-- Node26&#45;&gt;Node4 -->
<g id="edge45" class="edge">
<title>Node26&#45;&gt;Node4</title>
<path fill="none" stroke="midnightblue" d="M745.68,-161.31C730.22,-147.07 705.89,-126.19 682,-112 604.4,-65.91 501.85,-31.31 457.72,-17.53"/>
<polygon fill="midnightblue" stroke="midnightblue" points="743.61,-164.17 753.29,-168.46 748.4,-159.06 743.61,-164.17"/>
</g>
<!-- Node26&#45;&gt;Node5 -->
<g id="edge46" class="edge">
<title>Node26&#45;&gt;Node5</title>
<path fill="none" stroke="midnightblue" d="M781.35,-162.12C811.7,-138.77 869.55,-94.27 893.83,-75.59"/>
<polygon fill="midnightblue" stroke="midnightblue" points="779.01,-159.5 773.22,-168.37 783.28,-165.05 779.01,-159.5"/>
</g>
<!-- Node27 -->
<g id="node27" class="node">
<title>Node27</title>
<g id="a_node27"><a xlink:href="ProgressMonitor_8h.html" target="_top" xlink:title="Definition of ProgressMonitor class.">
<polygon fill="white" stroke="black" points="578.5,-112.5 578.5,-131.5 673.5,-131.5 673.5,-112.5 578.5,-112.5"/>
<text text-anchor="middle" x="626" y="-119.5" font-family="Helvetica,sans-Serif" font-size="10.00">ProgressMonitor.h</text>
</a>
</g>
</g>
<!-- Node26&#45;&gt;Node27 -->
<g id="edge47" class="edge">
<title>Node26&#45;&gt;Node27</title>
<path fill="none" stroke="midnightblue" d="M730.87,-164.64C705.34,-154.5 669.89,-140.43 647.45,-131.52"/>
<polygon fill="midnightblue" stroke="midnightblue" points="729.86,-168.01 740.45,-168.44 732.45,-161.5 729.86,-168.01"/>
</g>
<!-- Node29 -->
<g id="node29" class="node">
<title>Node29</title>
<g id="a_node29"><a xlink:href="Tensor_8cpp.html" target="_top" xlink:title="Template specialization of certain methods from TypedTensor class for all underlying data types that ...">
<polygon fill="white" stroke="black" points="730,-112.5 730,-131.5 794,-131.5 794,-112.5 730,-112.5"/>
<text text-anchor="middle" x="762" y="-119.5" font-family="Helvetica,sans-Serif" font-size="10.00">Tensor.cpp</text>
</a>
</g>
</g>
<!-- Node26&#45;&gt;Node29 -->
<g id="edge50" class="edge">
<title>Node26&#45;&gt;Node29</title>
<path fill="none" stroke="midnightblue" d="M762,-157.8C762,-148.91 762,-138.78 762,-131.75"/>
<polygon fill="midnightblue" stroke="midnightblue" points="758.5,-158.08 762,-168.08 765.5,-158.08 758.5,-158.08"/>
</g>
<!-- Node27&#45;&gt;Node5 -->
<g id="edge48" class="edge">
<title>Node27&#45;&gt;Node5</title>
<path fill="none" stroke="midnightblue" d="M680.06,-110.54C732.79,-100.33 812,-85 861,-75.52"/>
<polygon fill="midnightblue" stroke="midnightblue" points="679.36,-107.11 670.21,-112.44 680.69,-113.98 679.36,-107.11"/>
</g>
<!-- Node27&#45;&gt;Node28 -->
<g id="edge49" class="edge">
<title>Node27&#45;&gt;Node28</title>
<path fill="none" stroke="midnightblue" d="M568.1,-111.96C502.57,-101.74 396.73,-85.22 333.21,-75.3"/>
<polygon fill="midnightblue" stroke="midnightblue" points="567.83,-115.46 578.25,-113.55 568.91,-108.55 567.83,-115.46"/>
</g>
<!-- Node32 -->
<g id="node32" class="node">
<title>Node32</title>
<g id="a_node32"><a xlink:href="MArray_8hpp.html" target="_top" xlink:title="Template base class for C++ wrappers of LibraryLink containers.">
<polygon fill="white" stroke="black" points="790.5,-224.5 790.5,-243.5 855.5,-243.5 855.5,-224.5 790.5,-224.5"/>
<text text-anchor="middle" x="823" y="-231.5" font-family="Helvetica,sans-Serif" font-size="10.00">MArray.hpp</text>
</a>
</g>
</g>
<!-- Node31&#45;&gt;Node32 -->
<g id="edge55" class="edge">
<title>Node31&#45;&gt;Node32</title>
<path fill="none" stroke="midnightblue" d="M918.76,-276.37C895.35,-266.26 863.16,-252.35 842.71,-243.52"/>
<polygon fill="midnightblue" stroke="midnightblue" points="917.63,-279.69 928.19,-280.44 920.4,-273.26 917.63,-279.69"/>
</g>
<!-- Node33 -->
<g id="node33" class="node">
<title>Node33</title>
<g id="a_node33"><a xlink:href="MArrayDimensions_8cpp.html" target="_top" xlink:title=" ">
<polygon fill="white" stroke="black" points="912.5,-224.5 912.5,-243.5 1031.5,-243.5 1031.5,-224.5 912.5,-224.5"/>
<text text-anchor="middle" x="972" y="-231.5" font-family="Helvetica,sans-Serif" font-size="10.00">MArrayDimensions.cpp</text>
</a>
</g>
</g>
<!-- Node31&#45;&gt;Node33 -->
<g id="edge60" class="edge">
<title>Node31&#45;&gt;Node33</title>
<path fill="none" stroke="midnightblue" d="M956.14,-270.69C960.18,-261.59 964.88,-251.01 968.11,-243.75"/>
<polygon fill="midnightblue" stroke="midnightblue" points="952.83,-269.52 951.96,-280.08 959.22,-272.37 952.83,-269.52"/>
</g>
<!-- Node32&#45;&gt;Node8 -->
<g id="edge59" class="edge">
<title>Node32&#45;&gt;Node8</title>
<path fill="none" stroke="midnightblue" d="M865.51,-227.05C917.21,-217.28 1002.37,-192.47 1041,-132 1064.05,-95.91 1043.63,-40.97 1034.18,-19.77"/>
<polygon fill="midnightblue" stroke="midnightblue" points="864.87,-223.61 855.64,-228.81 866.09,-230.5 864.87,-223.61"/>
</g>
<!-- Node32&#45;&gt;Node16 -->
<g id="edge56" class="edge">
<title>Node32&#45;&gt;Node16</title>
<path fill="none" stroke="midnightblue" d="M840.47,-217.54C851.34,-207.91 864.94,-195.87 874.02,-187.83"/>
<polygon fill="midnightblue" stroke="midnightblue" points="837.97,-215.07 832.8,-224.32 842.61,-220.32 837.97,-215.07"/>
</g>
<!-- Node32&#45;&gt;Node22 -->
<g id="edge57" class="edge">
<title>Node32&#45;&gt;Node22</title>
<path fill="none" stroke="midnightblue" d="M780.53,-223.86C733.28,-213.7 657.55,-197.4 611.52,-187.5"/>
<polygon fill="midnightblue" stroke="midnightblue" points="779.93,-227.31 790.44,-226 781.4,-220.47 779.93,-227.31"/>
</g>
<!-- Node32&#45;&gt;Node26 -->
<g id="edge58" class="edge">
<title>Node32&#45;&gt;Node26</title>
<path fill="none" stroke="midnightblue" d="M805.53,-217.54C794.66,-207.91 781.06,-195.87 771.98,-187.83"/>
<polygon fill="midnightblue" stroke="midnightblue" points="803.39,-220.32 813.2,-224.32 808.03,-215.07 803.39,-220.32"/>
</g>
</g>
</svg>
