<?xml version="1.0" encoding="UTF-8" standalone="no"?>
<!DOCTYPE svg PUBLIC "-//W3C//DTD SVG 1.1//EN"
 "http://www.w3.org/Graphics/SVG/1.1/DTD/svg11.dtd">
<!-- Generated by graphviz version 2.40.1 (20161225.0304)
 -->
<!-- Title: LibraryLinkError.h Pages: 1 -->
<!--zoomable 364 -->
<svg id="main" version="1.1" xmlns="http://www.w3.org/2000/svg" xmlns:xlink="http://www.w3.org/1999/xlink" xml:space="preserve" onload="init(evt)">
<style type="text/css"><![CDATA[
.edge:hover path { stroke: red; }
.edge:hover polygon { stroke: red; fill: red; }
]]></style>
<script type="text/javascript"><![CDATA[
var edges = document.getElementsByTagName('g');
if (edges && edges.length) {
  for (var i=0;i<edges.length;i++) {
    if (edges[i].id.substr(0,4)=='edge') {
      edges[i].setAttribute('class','edge');
    }
  }
}
]]></script>
        <defs>
                <circle id="rim" cx="0" cy="0" r="7"/>
                <circle id="rim2" cx="0" cy="0" r="3.5"/>
                <g id="zoomPlus">
                        <use xlink:href="#rim" fill="#404040">
                                <set attributeName="fill" to="#808080" begin="zoomplus.mouseover" end="zoomplus.mouseout"/>
                        </use>
                        <path d="M-4,0h8M0,-4v8" fill="none" stroke="white" stroke-width="1.5" pointer-events="none"/>
                </g>
                <g id="zoomMin">
                        <use xlink:href="#rim" fill="#404040">
                                <set attributeName="fill" to="#808080" begin="zoomminus.mouseover" end="zoomminus.mouseout"/>
                        </use>
                        <path d="M-4,0h8" fill="none" stroke="white" stroke-width="1.5" pointer-events="none"/>
                </g>
                <g id="dirArrow">
                        <path fill="none" stroke="white" stroke-width="1.5" d="M0,-3.0v7 M-2.5,-0.5L0,-3.0L2.5,-0.5"/>
                </g>
               <g id="resetDef">
                       <use xlink:href="#rim2" fill="#404040">
                               <set attributeName="fill" to="#808080" begin="reset.mouseover" end="reset.mouseout"/>
                       </use>
               </g>
        </defs>

<script type="text/javascript">
var viewWidth = 1598;
var viewHeight = 364;
var sectionId = 'dynsection-0';
</script>
<script xlink:href="svgpan.js"/>
<svg id="graph" class="graph">
<g id="viewport">
<title>LibraryLinkError.h</title>
<polygon fill="#ffffff" stroke="transparent" points="-4,4 -4,-360 1594,-360 1594,4 -4,4"/>
<!-- Node1 -->
<g id="node1" class="node">
<title>Node1</title>
<g id="a_node1"><a xlink:title="Error class and error codes used by LibraryLink Utilities classes.">
<polygon fill="#bfbfbf" stroke="#000000" points="41,-336.5 41,-355.5 134,-355.5 134,-336.5 41,-336.5"/>
<text text-anchor="middle" x="87.5" y="-343.5" font-family="Helvetica,sans-Serif" font-size="10.00" fill="#000000">LibraryLinkError.h</text>
</a>
</g>
</g>
<!-- Node2 -->
<g id="node2" class="node">
<title>Node2</title>
<g id="a_node2"><a xlink:title=" ">
<polygon fill="#ffffff" stroke="#bfbfbf" points="0,-280.5 0,-299.5 59,-299.5 59,-280.5 0,-280.5"/>
<text text-anchor="middle" x="29.5" y="-287.5" font-family="Helvetica,sans-Serif" font-size="10.00" fill="#000000">stdexcept</text>
</a>
</g>
</g>
<!-- Node1&#45;&gt;Node2 -->
<g id="edge1" class="edge">
<title>Node1&#45;&gt;Node2</title>
<path fill="none" stroke="#191970" d="M77.3972,-336.2455C68.9972,-328.1352 56.8506,-316.4075 46.8916,-306.7919"/>
<polygon fill="#191970" stroke="#191970" points="49.1122,-304.0707 39.4871,-299.6427 44.25,-309.1066 49.1122,-304.0707"/>
</g>
<!-- Node3 -->
<g id="node3" class="node">
<title>Node3</title>
<g id="a_node3"><a xlink:title=" ">
<polygon fill="#ffffff" stroke="#bfbfbf" points="347,-56.5 347,-75.5 388,-75.5 388,-56.5 347,-56.5"/>
<text text-anchor="middle" x="367.5" y="-63.5" font-family="Helvetica,sans-Serif" font-size="10.00" fill="#000000">string</text>
</a>
</g>
</g>
<!-- Node1&#45;&gt;Node3 -->
<g id="edge2" class="edge">
<title>Node1&#45;&gt;Node3</title>
<path fill="none" stroke="#191970" d="M87.5,-336.4116C87.5,-317.0538 87.5,-271.9167 87.5,-234 87.5,-234 87.5,-234 87.5,-178 87.5,-124.7301 264.4186,-85.3803 336.9937,-71.4794"/>
<polygon fill="#191970" stroke="#191970" points="337.73,-74.9024 346.9109,-69.6145 336.4363,-68.0229 337.73,-74.9024"/>
</g>
<!-- Node4 -->
<g id="node4" class="node">
<title>Node4</title>
<g id="a_node4"><a xlink:href="WSStream_8hpp.html" target="_top" xlink:title="Header file for WSStream class.">
<polygon fill="#ffffff" stroke="#000000" points="889,-280.5 889,-299.5 1026,-299.5 1026,-280.5 889,-280.5"/>
<text text-anchor="middle" x="957.5" y="-287.5" font-family="Helvetica,sans-Serif" font-size="10.00" fill="#000000">LLU/WSTP/WSStream.hpp</text>
</a>
</g>
</g>
<!-- Node1&#45;&gt;Node4 -->
<g id="edge3" class="edge">
<title>Node1&#45;&gt;Node4</title>
<path fill="none" stroke="#191970" d="M134.275,-342.9892C275.9672,-333.8688 701.582,-306.4729 878.7617,-295.0682"/>
<polygon fill="#191970" stroke="#191970" points="879.041,-298.5576 888.7955,-294.4224 878.5913,-291.572 879.041,-298.5576"/>
</g>
<!-- Node5 -->
<g id="node5" class="node">
<title>Node5</title>
<g id="a_node5"><a xlink:title=" ">
<polygon fill="#ffffff" stroke="#bfbfbf" points="1061.5,-168.5 1061.5,-187.5 1117.5,-187.5 1117.5,-168.5 1061.5,-168.5"/>
<text text-anchor="middle" x="1089.5" y="-175.5" font-family="Helvetica,sans-Serif" font-size="10.00" fill="#000000">algorithm</text>
</a>
</g>
</g>
<!-- Node4&#45;&gt;Node5 -->
<g id="edge4" class="edge">
<title>Node4&#45;&gt;Node5</title>
<path fill="none" stroke="#191970" d="M955.253,-280.3587C952.601,-266.4103 949.9913,-240.4731 962.5,-224 968.1713,-216.5313 1016.3403,-200.4362 1051.6837,-189.4112"/>
<polygon fill="#191970" stroke="#191970" points="1052.7469,-192.746 1061.2662,-186.4473 1050.6785,-186.0585 1052.7469,-192.746"/>
</g>
<!-- Node6 -->
<g id="node6" class="node">
<title>Node6</title>
<g id="a_node6"><a xlink:title=" ">
<polygon fill="#ffffff" stroke="#bfbfbf" points="1005,-224.5 1005,-243.5 1052,-243.5 1052,-224.5 1005,-224.5"/>
<text text-anchor="middle" x="1028.5" y="-231.5" font-family="Helvetica,sans-Serif" font-size="10.00" fill="#000000">iterator</text>
</a>
</g>
</g>
<!-- Node4&#45;&gt;Node6 -->
<g id="edge5" class="edge">
<title>Node4&#45;&gt;Node6</title>
<path fill="none" stroke="#191970" d="M969.8673,-280.2455C980.4554,-271.8943 995.9064,-259.7076 1008.2893,-249.9408"/>
<polygon fill="#191970" stroke="#191970" points="1010.5903,-252.5837 1016.2745,-243.6427 1006.2553,-247.0875 1010.5903,-252.5837"/>
</g>
<!-- Node7 -->
<g id="node7" class="node">
<title>Node7</title>
<g id="a_node7"><a xlink:title=" ">
<polygon fill="#ffffff" stroke="#bfbfbf" points="1070,-224.5 1070,-243.5 1105,-243.5 1105,-224.5 1070,-224.5"/>
<text text-anchor="middle" x="1087.5" y="-231.5" font-family="Helvetica,sans-Serif" font-size="10.00" fill="#000000">map</text>
</a>
</g>
</g>
<!-- Node4&#45;&gt;Node7 -->
<g id="edge6" class="edge">
<title>Node4&#45;&gt;Node7</title>
<path fill="none" stroke="#191970" d="M979.8478,-280.3733C1002.1794,-270.7535 1036.5368,-255.9534 1060.4083,-245.6703"/>
<polygon fill="#191970" stroke="#191970" points="1061.8196,-248.8733 1069.6191,-241.7026 1059.0502,-242.4444 1061.8196,-248.8733"/>
</g>
<!-- Node8 -->
<g id="node8" class="node">
<title>Node8</title>
<g id="a_node8"><a xlink:title=" ">
<polygon fill="#ffffff" stroke="#bfbfbf" points="1123,-224.5 1123,-243.5 1164,-243.5 1164,-224.5 1123,-224.5"/>
<text text-anchor="middle" x="1143.5" y="-231.5" font-family="Helvetica,sans-Serif" font-size="10.00" fill="#000000">stack</text>
</a>
</g>
</g>
<!-- Node4&#45;&gt;Node8 -->
<g id="edge7" class="edge">
<title>Node4&#45;&gt;Node8</title>
<path fill="none" stroke="#191970" d="M991.6352,-280.4991C1021.4772,-272.0824 1066.1881,-259.207 1113.1997,-244.3252"/>
<polygon fill="#191970" stroke="#191970" points="1114.4784,-247.5913 1122.9447,-241.2217 1112.3541,-240.9214 1114.4784,-247.5913"/>
</g>
<!-- Node9 -->
<g id="node9" class="node">
<title>Node9</title>
<g id="a_node9"><a xlink:title=" ">
<polygon fill="#ffffff" stroke="#bfbfbf" points="1253.5,-56.5 1253.5,-75.5 1315.5,-75.5 1315.5,-56.5 1253.5,-56.5"/>
<text text-anchor="middle" x="1284.5" y="-63.5" font-family="Helvetica,sans-Serif" font-size="10.00" fill="#000000">type_traits</text>
</a>
</g>
</g>
<!-- Node4&#45;&gt;Node9 -->
<g id="edge8" class="edge">
<title>Node4&#45;&gt;Node9</title>
<path fill="none" stroke="#191970" d="M1026.0383,-283.7802C1108.6674,-275.7121 1242.3191,-260.6811 1289.5,-244 1334.9889,-227.9172 1358.7613,-230.0045 1382.5,-188 1406.529,-145.4819 1348.4876,-102.519 1311.7884,-80.7017"/>
<polygon fill="#191970" stroke="#191970" points="1313.3923,-77.5864 1302.9808,-75.6236 1309.8958,-83.6506 1313.3923,-77.5864"/>
</g>
<!-- Node10 -->
<g id="node10" class="node">
<title>Node10</title>
<g id="a_node10"><a xlink:title=" ">
<polygon fill="#ffffff" stroke="#bfbfbf" points="976.5,-56.5 976.5,-75.5 1016.5,-75.5 1016.5,-56.5 976.5,-56.5"/>
<text text-anchor="middle" x="996.5" y="-63.5" font-family="Helvetica,sans-Serif" font-size="10.00" fill="#000000">utility</text>
</a>
</g>
</g>
<!-- Node4&#45;&gt;Node10 -->
<g id="edge9" class="edge">
<title>Node4&#45;&gt;Node10</title>
<path fill="none" stroke="#191970" d="M960.4183,-280.3341C965.2888,-265.8693 976.4647,-238.7214 995.5,-224 1043.2635,-187.0612 1089.8958,-236.0204 1126.5,-188 1161.8717,-141.5966 1074.6567,-97.3793 1026.2149,-77.2908"/>
<polygon fill="#191970" stroke="#191970" points="1027.3908,-73.9911 1016.8078,-73.4897 1024.7682,-80.4813 1027.3908,-73.9911"/>
</g>
<!-- Node11 -->
<g id="node11" class="node">
<title>Node11</title>
<g id="a_node11"><a xlink:title=" ">
<polygon fill="#ffffff" stroke="#bfbfbf" points="1182.5,-224.5 1182.5,-243.5 1226.5,-243.5 1226.5,-224.5 1182.5,-224.5"/>
<text text-anchor="middle" x="1204.5" y="-231.5" font-family="Helvetica,sans-Serif" font-size="10.00" fill="#000000">vector</text>
</a>
</g>
</g>
<!-- Node4&#45;&gt;Node11 -->
<g id="edge10" class="edge">
<title>Node4&#45;&gt;Node11</title>
<path fill="none" stroke="#191970" d="M1009.7916,-280.4182C1051.5258,-272.4194 1111.6364,-260.1163 1172.464,-244.0888"/>
<polygon fill="#191970" stroke="#191970" points="1173.4693,-247.4431 1182.2299,-241.4846 1171.6657,-240.6794 1173.4693,-247.4431"/>
</g>
<!-- Node12 -->
<g id="node12" class="node">
<title>Node12</title>
<g id="a_node12"><a xlink:title=" ">
<polygon fill="#ffffff" stroke="#bfbfbf" points="645.5,-.5 645.5,-19.5 691.5,-19.5 691.5,-.5 645.5,-.5"/>
<text text-anchor="middle" x="668.5" y="-7.5" font-family="Helvetica,sans-Serif" font-size="10.00" fill="#000000">wstp.h</text>
</a>
</g>
</g>
<!-- Node4&#45;&gt;Node12 -->
<g id="edge11" class="edge">
<title>Node4&#45;&gt;Node12</title>
<path fill="none" stroke="#191970" d="M888.7061,-287.9369C689.3694,-281.0522 125.5,-254.7906 125.5,-178 125.5,-178 125.5,-178 125.5,-122 125.5,-72.3971 169.1998,-73.7971 215.5,-56 292.421,-26.4327 544.5234,-14.5147 635.4384,-11.1097"/>
<polygon fill="#191970" stroke="#191970" points="635.5926,-14.6065 645.4585,-10.7447 635.3377,-7.6111 635.5926,-14.6065"/>
</g>
<!-- Node13 -->
<g id="node13" class="node">
<title>Node13</title>
<g id="a_node13"><a xlink:href="Errors_8h.html" target="_top" xlink:title="Definitions of error names and error codes used across LLU.">
<polygon fill="#ffffff" stroke="#000000" points="311.5,-112.5 311.5,-131.5 423.5,-131.5 423.5,-112.5 311.5,-112.5"/>
<text text-anchor="middle" x="367.5" y="-119.5" font-family="Helvetica,sans-Serif" font-size="10.00" fill="#000000">LLU/ErrorLog/Errors.h</text>
</a>
</g>
</g>
<!-- Node4&#45;&gt;Node13 -->
<g id="edge12" class="edge">
<title>Node4&#45;&gt;Node13</title>
<path fill="none" stroke="#191970" d="M888.9349,-288.2013C764.075,-284.2562 504.6426,-272.7846 419.5,-244 375.5831,-229.1528 353.8083,-228.6384 331.5,-188 322.3644,-171.358 335.2318,-152.3208 348.0481,-138.9826"/>
<polygon fill="#191970" stroke="#191970" points="350.6682,-141.3177 355.4216,-131.849 345.8009,-136.2868 350.6682,-141.3177"/>
</g>
<!-- Node14 -->
<g id="node14" class="node">
<title>Node14</title>
<g id="a_node14"><a xlink:href="Utilities_8hpp.html" target="_top" xlink:title="Short but generally useful functions.">
<polygon fill="#ffffff" stroke="#000000" points="991,-112.5 991,-131.5 1080,-131.5 1080,-112.5 991,-112.5"/>
<text text-anchor="middle" x="1035.5" y="-119.5" font-family="Helvetica,sans-Serif" font-size="10.00" fill="#000000">LLU/Utilities.hpp</text>
</a>
</g>
</g>
<!-- Node4&#45;&gt;Node14 -->
<g id="edge14" class="edge">
<title>Node4&#45;&gt;Node14</title>
<path fill="none" stroke="#191970" d="M1026.3321,-283.2455C1104.2198,-274.894 1222.0717,-259.8328 1235.5,-244 1241.2495,-237.221 1240.1317,-231.5868 1235.5,-224 1217.0401,-193.7624 1123.9499,-155.036 1071.5267,-135.1234"/>
<polygon fill="#191970" stroke="#191970" points="1072.5205,-131.7579 1061.9284,-131.5151 1070.0572,-138.3102 1072.5205,-131.7579"/>
</g>
<!-- Node26 -->
<g id="node26" class="node">
<title>Node26</title>
<g id="a_node26"><a xlink:href="Get_8h.html" target="_top" xlink:title="Header file with classes related to reading data from WSTP.">
<polygon fill="#ffffff" stroke="#000000" points="428.5,-224.5 428.5,-243.5 522.5,-243.5 522.5,-224.5 428.5,-224.5"/>
<text text-anchor="middle" x="475.5" y="-231.5" font-family="Helvetica,sans-Serif" font-size="10.00" fill="#000000">LLU/WSTP/Get.h</text>
</a>
</g>
</g>
<!-- Node4&#45;&gt;Node26 -->
<g id="edge29" class="edge">
<title>Node4&#45;&gt;Node26</title>
<path fill="none" stroke="#191970" d="M888.953,-282.036C793.4504,-270.9403 622.0742,-251.0294 532.9198,-240.6712"/>
<polygon fill="#191970" stroke="#191970" points="533.0635,-237.1644 522.7264,-239.4869 532.2556,-244.1176 533.0635,-237.1644"/>
</g>
<!-- Node29 -->
<g id="node29" class="node">
<title>Node29</title>
<g id="a_node29"><a xlink:href="WSTP_2Utilities_8h.html" target="_top" xlink:title="Header file with miscellaneous utilities used throughout the WSTP&#45;related part of LibraryLinkUtilitie...">
<polygon fill="#ffffff" stroke="#000000" points="420,-168.5 420,-187.5 531,-187.5 531,-168.5 420,-168.5"/>
<text text-anchor="middle" x="475.5" y="-175.5" font-family="Helvetica,sans-Serif" font-size="10.00" fill="#000000">LLU/WSTP/Utilities.h</text>
</a>
</g>
</g>
<!-- Node4&#45;&gt;Node29 -->
<g id="edge65" class="edge">
<title>Node4&#45;&gt;Node29</title>
<path fill="none" stroke="#191970" d="M888.9188,-281.4685C832.516,-273.7704 750.7327,-261.0396 680.5,-244 619.7428,-229.2593 550.895,-205.617 510.4471,-190.9907"/>
<polygon fill="#191970" stroke="#191970" points="511.6357,-187.6987 501.0417,-187.5667 509.2411,-194.2764 511.6357,-187.6987"/>
</g>
<!-- Node32 -->
<g id="node32" class="node">
<title>Node32</title>
<g id="a_node32"><a xlink:href="Put_8h.html" target="_top" xlink:title="Header file with classes related to sending data through WSTP.">
<polygon fill="#ffffff" stroke="#000000" points="690,-224.5 690,-243.5 783,-243.5 783,-224.5 690,-224.5"/>
<text text-anchor="middle" x="736.5" y="-231.5" font-family="Helvetica,sans-Serif" font-size="10.00" fill="#000000">LLU/WSTP/Put.h</text>
</a>
</g>
</g>
<!-- Node4&#45;&gt;Node32 -->
<g id="edge50" class="edge">
<title>Node4&#45;&gt;Node32</title>
<path fill="none" stroke="#191970" d="M919.7599,-280.4369C882.2552,-270.9335 824.6201,-256.3291 784.0176,-246.0407"/>
<polygon fill="#191970" stroke="#191970" points="784.6379,-242.5873 774.0845,-243.5237 782.9184,-249.3728 784.6379,-242.5873"/>
</g>
<!-- Node33 -->
<g id="node33" class="node">
<title>Node33</title>
<g id="a_node33"><a xlink:href="Strings_8h.html" target="_top" xlink:title="Definitions of multiple structures and type aliases related to string handling in WSTP.">
<polygon fill="#ffffff" stroke="#000000" points="801,-224.5 801,-243.5 910,-243.5 910,-224.5 801,-224.5"/>
<text text-anchor="middle" x="855.5" y="-231.5" font-family="Helvetica,sans-Serif" font-size="10.00" fill="#000000">LLU/WSTP/Strings.h</text>
</a>
</g>
</g>
<!-- Node4&#45;&gt;Node33 -->
<g id="edge56" class="edge">
<title>Node4&#45;&gt;Node33</title>
<path fill="none" stroke="#191970" d="M939.733,-280.2455C923.7905,-271.4928 900.1741,-258.527 882.0011,-248.5496"/>
<polygon fill="#191970" stroke="#191970" points="883.5137,-245.3873 873.0634,-243.6427 880.1448,-251.5233 883.5137,-245.3873"/>
</g>
<!-- Node34 -->
<g id="node34" class="node">
<title>Node34</title>
<g id="a_node34"><a xlink:href="UtilityTypeTraits_8hpp.html" target="_top" xlink:title="Type traits used by WSStream to identify types supported by WSTP.">
<polygon fill="#ffffff" stroke="#000000" points="1212,-168.5 1212,-187.5 1373,-187.5 1373,-168.5 1212,-168.5"/>
<text text-anchor="middle" x="1292.5" y="-175.5" font-family="Helvetica,sans-Serif" font-size="10.00" fill="#000000">LLU/WSTP/UtilityTypeTraits.hpp</text>
</a>
</g>
</g>
<!-- Node4&#45;&gt;Node34 -->
<g id="edge66" class="edge">
<title>Node4&#45;&gt;Node34</title>
<path fill="none" stroke="#191970" d="M1026.336,-287.8784C1106.4672,-284.0547 1232.4498,-273.4178 1268.5,-244 1282.2002,-232.8203 1288.0802,-213.1249 1290.6036,-198.1507"/>
<polygon fill="#191970" stroke="#191970" points="1294.1257,-198.2089 1291.9529,-187.8393 1287.1849,-197.3006 1294.1257,-198.2089"/>
</g>
<!-- Node13&#45;&gt;Node3 -->
<g id="edge13" class="edge">
<title>Node13&#45;&gt;Node3</title>
<path fill="none" stroke="#191970" d="M367.5,-112.2455C367.5,-104.9382 367.5,-94.6944 367.5,-85.7046"/>
<polygon fill="#191970" stroke="#191970" points="371.0001,-85.6426 367.5,-75.6427 364.0001,-85.6427 371.0001,-85.6426"/>
</g>
<!-- Node14&#45;&gt;Node9 -->
<g id="edge17" class="edge">
<title>Node14&#45;&gt;Node9</title>
<path fill="none" stroke="#191970" d="M1078.9284,-112.4188C1120.6356,-103.1897 1185.4064,-88.7851 1241.5,-76 1242.0838,-75.8669 1242.672,-75.7327 1243.2639,-75.5974"/>
<polygon fill="#191970" stroke="#191970" points="1244.0769,-79.0019 1253.0385,-73.3503 1242.5085,-72.1799 1244.0769,-79.0019"/>
</g>
<!-- Node14&#45;&gt;Node10 -->
<g id="edge18" class="edge">
<title>Node14&#45;&gt;Node10</title>
<path fill="none" stroke="#191970" d="M1028.7067,-112.2455C1023.2822,-104.4564 1015.5339,-93.3308 1008.9967,-83.9439"/>
<polygon fill="#191970" stroke="#191970" points="1011.8025,-81.8485 1003.2154,-75.6427 1006.0583,-85.849 1011.8025,-81.8485"/>
</g>
<!-- Node15 -->
<g id="node15" class="node">
<title>Node15</title>
<g id="a_node15"><a xlink:title=" ">
<polygon fill="#ffffff" stroke="#bfbfbf" points="905,-56.5 905,-75.5 958,-75.5 958,-56.5 905,-56.5"/>
<text text-anchor="middle" x="931.5" y="-63.5" font-family="Helvetica,sans-Serif" font-size="10.00" fill="#000000">complex</text>
</a>
</g>
</g>
<!-- Node14&#45;&gt;Node15 -->
<g id="edge15" class="edge">
<title>Node14&#45;&gt;Node15</title>
<path fill="none" stroke="#191970" d="M1017.3846,-112.2455C1001.055,-103.4527 976.829,-90.4079 958.2661,-80.4125"/>
<polygon fill="#191970" stroke="#191970" points="959.8719,-77.3021 949.4078,-75.6427 956.5532,-83.4654 959.8719,-77.3021"/>
</g>
<!-- Node16 -->
<g id="node16" class="node">
<title>Node16</title>
<g id="a_node16"><a xlink:title=" ">
<polygon fill="#ffffff" stroke="#bfbfbf" points="840.5,-56.5 840.5,-75.5 886.5,-75.5 886.5,-56.5 840.5,-56.5"/>
<text text-anchor="middle" x="863.5" y="-63.5" font-family="Helvetica,sans-Serif" font-size="10.00" fill="#000000">cstdint</text>
</a>
</g>
</g>
<!-- Node14&#45;&gt;Node16 -->
<g id="edge16" class="edge">
<title>Node14&#45;&gt;Node16</title>
<path fill="none" stroke="#191970" d="M1005.9321,-112.3733C975.4244,-102.4405 927.9536,-86.9849 896.307,-76.6813"/>
<polygon fill="#191970" stroke="#191970" points="897.222,-73.2985 886.6297,-73.5306 895.0548,-79.9546 897.222,-73.2985"/>
</g>
<!-- Node17 -->
<g id="node17" class="node">
<title>Node17</title>
<g id="a_node17"><a xlink:title=" ">
<polygon fill="#ffffff" stroke="#bfbfbf" points="1034.5,-56.5 1034.5,-75.5 1080.5,-75.5 1080.5,-56.5 1034.5,-56.5"/>
<text text-anchor="middle" x="1057.5" y="-63.5" font-family="Helvetica,sans-Serif" font-size="10.00" fill="#000000">variant</text>
</a>
</g>
</g>
<!-- Node14&#45;&gt;Node17 -->
<g id="edge19" class="edge">
<title>Node14&#45;&gt;Node17</title>
<path fill="none" stroke="#191970" d="M1039.3321,-112.2455C1042.2659,-104.7776 1046.4047,-94.2427 1049.991,-85.1137"/>
<polygon fill="#191970" stroke="#191970" points="1053.3129,-86.23 1053.7118,-75.6427 1046.7976,-83.6704 1053.3129,-86.23"/>
</g>
<!-- Node18 -->
<g id="node18" class="node">
<title>Node18</title>
<g id="a_node18"><a xlink:href="LibraryData_8h.html" target="_top" xlink:title=" ">
<polygon fill="#ffffff" stroke="#000000" points="1136.5,-56.5 1136.5,-75.5 1232.5,-75.5 1232.5,-56.5 1136.5,-56.5"/>
<text text-anchor="middle" x="1184.5" y="-63.5" font-family="Helvetica,sans-Serif" font-size="10.00" fill="#000000">LLU/LibraryData.h</text>
</a>
</g>
</g>
<!-- Node14&#45;&gt;Node18 -->
<g id="edge20" class="edge">
<title>Node14&#45;&gt;Node18</title>
<path fill="none" stroke="#191970" d="M1061.114,-112.3733C1085.5687,-103.1822 1122.6054,-89.2624 1149.7209,-79.0713"/>
<polygon fill="#191970" stroke="#191970" points="1151.0909,-82.2956 1159.2202,-75.5011 1148.6281,-75.7431 1151.0909,-82.2956"/>
</g>
<!-- Node18&#45;&gt;Node12 -->
<g id="edge23" class="edge">
<title>Node18&#45;&gt;Node12</title>
<path fill="none" stroke="#191970" d="M1136.1756,-60.8693C1121.2152,-59.2927 1104.6773,-57.5619 1089.5,-56 930.4266,-39.6297 890.0886,-40.543 731.5,-20 721.8215,-18.7463 711.341,-17.1707 701.7574,-15.6435"/>
<polygon fill="#191970" stroke="#191970" points="702.2229,-12.1733 691.7907,-14.0227 701.0992,-19.0825 702.2229,-12.1733"/>
</g>
<!-- Node19 -->
<g id="node19" class="node">
<title>Node19</title>
<g id="a_node19"><a xlink:title=" ">
<polygon fill="#ffffff" stroke="#bfbfbf" points="740.5,-.5 740.5,-19.5 792.5,-19.5 792.5,-.5 740.5,-.5"/>
<text text-anchor="middle" x="766.5" y="-7.5" font-family="Helvetica,sans-Serif" font-size="10.00" fill="#000000">memory</text>
</a>
</g>
</g>
<!-- Node18&#45;&gt;Node19 -->
<g id="edge21" class="edge">
<title>Node18&#45;&gt;Node19</title>
<path fill="none" stroke="#191970" d="M1136.4704,-58.0188C1131.7543,-57.3056 1127.0371,-56.6199 1122.5,-56 983.4554,-37.0011 944.0966,-47.3261 802.6714,-19.9574"/>
<polygon fill="#191970" stroke="#191970" points="803.2458,-16.5034 792.7587,-18.0103 801.8966,-23.3722 803.2458,-16.5034"/>
</g>
<!-- Node20 -->
<g id="node20" class="node">
<title>Node20</title>
<g id="a_node20"><a xlink:title=" ">
<polygon fill="#ffffff" stroke="#bfbfbf" points="1418.5,-.5 1418.5,-19.5 1480.5,-19.5 1480.5,-.5 1418.5,-.5"/>
<text text-anchor="middle" x="1449.5" y="-7.5" font-family="Helvetica,sans-Serif" font-size="10.00" fill="#000000">dllexport.h</text>
</a>
</g>
</g>
<!-- Node18&#45;&gt;Node20 -->
<g id="edge22" class="edge">
<title>Node18&#45;&gt;Node20</title>
<path fill="none" stroke="#191970" d="M1232.9098,-56.7322C1276.3343,-48.2773 1342.0417,-35.1365 1407.9406,-20.2892"/>
<polygon fill="#191970" stroke="#191970" points="1409.1088,-23.6133 1418.0879,-17.9895 1407.5616,-16.7864 1409.1088,-23.6133"/>
</g>
<!-- Node21 -->
<g id="node21" class="node">
<title>Node21</title>
<g id="a_node21"><a xlink:title=" ">
<polygon fill="#ffffff" stroke="#bfbfbf" points="1499,-.5 1499,-19.5 1590,-19.5 1590,-.5 1499,-.5"/>
<text text-anchor="middle" x="1544.5" y="-7.5" font-family="Helvetica,sans-Serif" font-size="10.00" fill="#000000">WolframLibrary.h</text>
</a>
</g>
</g>
<!-- Node18&#45;&gt;Node21 -->
<g id="edge24" class="edge">
<title>Node18&#45;&gt;Node21</title>
<path fill="none" stroke="#191970" d="M1232.6273,-57.8951C1236.6421,-57.2444 1240.6398,-56.6052 1244.5,-56 1350.0444,-39.4519 1379.2077,-37.925 1488.759,-20.0753"/>
<polygon fill="#191970" stroke="#191970" points="1489.5996,-23.4843 1498.9022,-18.4136 1488.4679,-16.5764 1489.5996,-23.4843"/>
</g>
<!-- Node22 -->
<g id="node22" class="node">
<title>Node22</title>
<g id="a_node22"><a xlink:title=" ">
<polygon fill="#ffffff" stroke="#bfbfbf" points="810.5,-.5 810.5,-19.5 954.5,-19.5 954.5,-.5 810.5,-.5"/>
<text text-anchor="middle" x="882.5" y="-7.5" font-family="Helvetica,sans-Serif" font-size="10.00" fill="#000000">WolframIOLibraryFunctions.h</text>
</a>
</g>
</g>
<!-- Node18&#45;&gt;Node22 -->
<g id="edge25" class="edge">
<title>Node18&#45;&gt;Node22</title>
<path fill="none" stroke="#191970" d="M1136.3133,-57.0647C1084.0786,-47.3788 1000.5848,-31.8965 943.7369,-21.3552"/>
<polygon fill="#191970" stroke="#191970" points="944.2685,-17.8942 933.798,-19.5122 942.9922,-24.7768 944.2685,-17.8942"/>
</g>
<!-- Node23 -->
<g id="node23" class="node">
<title>Node23</title>
<g id="a_node23"><a xlink:title=" ">
<polygon fill="#ffffff" stroke="#bfbfbf" points="972.5,-.5 972.5,-19.5 1090.5,-19.5 1090.5,-.5 972.5,-.5"/>
<text text-anchor="middle" x="1031.5" y="-7.5" font-family="Helvetica,sans-Serif" font-size="10.00" fill="#000000">WolframImageLibrary.h</text>
</a>
</g>
</g>
<!-- Node18&#45;&gt;Node23 -->
<g id="edge26" class="edge">
<title>Node18&#45;&gt;Node23</title>
<path fill="none" stroke="#191970" d="M1158.1984,-56.3733C1133.0872,-47.1822 1095.0562,-33.2624 1067.2128,-23.0713"/>
<polygon fill="#191970" stroke="#191970" points="1068.0522,-19.6516 1057.4584,-19.5011 1065.6462,-26.2251 1068.0522,-19.6516"/>
</g>
<!-- Node24 -->
<g id="node24" class="node">
<title>Node24</title>
<g id="a_node24"><a xlink:title=" ">
<polygon fill="#ffffff" stroke="#bfbfbf" points="1109,-.5 1109,-19.5 1260,-19.5 1260,-.5 1109,-.5"/>
<text text-anchor="middle" x="1184.5" y="-7.5" font-family="Helvetica,sans-Serif" font-size="10.00" fill="#000000">WolframNumericArrayLibrary.h</text>
</a>
</g>
</g>
<!-- Node18&#45;&gt;Node24 -->
<g id="edge27" class="edge">
<title>Node18&#45;&gt;Node24</title>
<path fill="none" stroke="#191970" d="M1184.5,-56.2455C1184.5,-48.9382 1184.5,-38.6944 1184.5,-29.7046"/>
<polygon fill="#191970" stroke="#191970" points="1188.0001,-29.6426 1184.5,-19.6427 1181.0001,-29.6427 1188.0001,-29.6426"/>
</g>
<!-- Node25 -->
<g id="node25" class="node">
<title>Node25</title>
<g id="a_node25"><a xlink:title=" ">
<polygon fill="#ffffff" stroke="#bfbfbf" points="1278.5,-.5 1278.5,-19.5 1400.5,-19.5 1400.5,-.5 1278.5,-.5"/>
<text text-anchor="middle" x="1339.5" y="-7.5" font-family="Helvetica,sans-Serif" font-size="10.00" fill="#000000">WolframSparseLibrary.h</text>
</a>
</g>
</g>
<!-- Node18&#45;&gt;Node25 -->
<g id="edge28" class="edge">
<title>Node18&#45;&gt;Node25</title>
<path fill="none" stroke="#191970" d="M1211.1454,-56.3733C1236.6964,-47.1419 1275.4512,-33.1402 1303.6909,-22.9375"/>
<polygon fill="#191970" stroke="#191970" points="1304.9865,-26.1909 1313.2022,-19.5011 1302.6079,-19.6074 1304.9865,-26.1909"/>
</g>
<!-- Node26&#45;&gt;Node3 -->
<g id="edge32" class="edge">
<title>Node26&#45;&gt;Node3</title>
<path fill="none" stroke="#191970" d="M428.2199,-228.33C397.7103,-222.5668 358.7743,-211.0233 331.5,-188 303.8736,-164.6795 285.8866,-144.11 302.5,-112 310.0361,-97.4345 324.5448,-86.4906 337.9461,-78.9394"/>
<polygon fill="#191970" stroke="#191970" points="339.6955,-81.9746 346.9477,-74.2509 336.4618,-75.7662 339.6955,-81.9746"/>
</g>
<!-- Node26&#45;&gt;Node12 -->
<g id="edge33" class="edge">
<title>Node26&#45;&gt;Node12</title>
<path fill="none" stroke="#191970" d="M428.2165,-225.8963C393.608,-218.8276 346.1449,-206.7221 307.5,-188 246.5772,-158.485 186.2066,-106.3113 231.5,-56 258.4048,-26.1145 537.4278,-14.2535 635.0207,-10.9992"/>
<polygon fill="#191970" stroke="#191970" points="635.3271,-14.4912 645.2084,-10.669 635.1002,-7.4948 635.3271,-14.4912"/>
</g>
<!-- Node26&#45;&gt;Node13 -->
<g id="edge34" class="edge">
<title>Node26&#45;&gt;Node13</title>
<path fill="none" stroke="#191970" d="M429.4032,-224.433C394.323,-216.1076 350.2881,-203.0374 339.5,-188 328.8049,-173.0922 339.7098,-153.47 350.886,-139.5052"/>
<polygon fill="#191970" stroke="#191970" points="353.798,-141.4884 357.6891,-131.634 348.5019,-136.911 353.798,-141.4884"/>
</g>
<!-- Node26&#45;&gt;Node14 -->
<g id="edge35" class="edge">
<title>Node26&#45;&gt;Node14</title>
<path fill="none" stroke="#191970" d="M522.7627,-224.5475C626.0678,-203.8864 871.4839,-154.8032 981.047,-132.8906"/>
<polygon fill="#191970" stroke="#191970" points="981.7832,-136.3128 990.9026,-130.9195 980.4103,-129.4487 981.7832,-136.3128"/>
</g>
<!-- Node26&#45;&gt;Node19 -->
<g id="edge31" class="edge">
<title>Node26&#45;&gt;Node19</title>
<path fill="none" stroke="#191970" d="M428.2199,-228.33C397.7103,-222.5668 358.7743,-211.0233 331.5,-188 286.6239,-150.1183 287.6039,-86.9721 337.5,-56 406.3726,-13.2486 620.0662,-30.0751 700.5,-20 710.127,-18.7941 720.5159,-17.3075 730.1388,-15.8527"/>
<polygon fill="#191970" stroke="#191970" points="730.8573,-19.2834 740.2077,-14.3014 729.7914,-12.365 730.8573,-19.2834"/>
</g>
<!-- Node27 -->
<g id="node27" class="node">
<title>Node27</title>
<g id="a_node27"><a xlink:title=" ">
<polygon fill="#ffffff" stroke="#bfbfbf" points="663,-112.5 663,-131.5 722,-131.5 722,-112.5 663,-112.5"/>
<text text-anchor="middle" x="692.5" y="-119.5" font-family="Helvetica,sans-Serif" font-size="10.00" fill="#000000">functional</text>
</a>
</g>
</g>
<!-- Node26&#45;&gt;Node27 -->
<g id="edge30" class="edge">
<title>Node26&#45;&gt;Node27</title>
<path fill="none" stroke="#191970" d="M522.6166,-228.4578C573.7878,-221.5191 651.1018,-208.0538 672.5,-188 685.1701,-176.126 689.9033,-156.5229 691.6261,-141.7593"/>
<polygon fill="#191970" stroke="#191970" points="695.1285,-141.8685 692.4383,-131.6209 688.1508,-141.3094 695.1285,-141.8685"/>
</g>
<!-- Node28 -->
<g id="node28" class="node">
<title>Node28</title>
<g id="a_node28"><a xlink:href="Release_8h.html" target="_top" xlink:title="Header file with classes responsible for releasing memory allocated by WSTP when receiving data.">
<polygon fill="#ffffff" stroke="#000000" points="549.5,-168.5 549.5,-187.5 663.5,-187.5 663.5,-168.5 549.5,-168.5"/>
<text text-anchor="middle" x="606.5" y="-175.5" font-family="Helvetica,sans-Serif" font-size="10.00" fill="#000000">LLU/WSTP/Release.h</text>
</a>
</g>
</g>
<!-- Node26&#45;&gt;Node28 -->
<g id="edge36" class="edge">
<title>Node26&#45;&gt;Node28</title>
<path fill="none" stroke="#191970" d="M498.0197,-224.3733C519.2372,-215.3032 551.2276,-201.6279 574.9769,-191.4755"/>
<polygon fill="#191970" stroke="#191970" points="576.4548,-194.6502 584.2742,-187.5011 573.7033,-188.2136 576.4548,-194.6502"/>
</g>
<!-- Node26&#45;&gt;Node29 -->
<g id="edge40" class="edge">
<title>Node26&#45;&gt;Node29</title>
<path fill="none" stroke="#191970" d="M475.5,-224.2455C475.5,-216.9382 475.5,-206.6944 475.5,-197.7046"/>
<polygon fill="#191970" stroke="#191970" points="479.0001,-197.6426 475.5,-187.6427 472.0001,-197.6427 479.0001,-197.6426"/>
</g>
<!-- Node28&#45;&gt;Node12 -->
<g id="edge38" class="edge">
<title>Node28&#45;&gt;Node12</title>
<path fill="none" stroke="#191970" d="M610.011,-168.4862C619.8966,-141.6994 648.1077,-65.2565 661.4036,-29.2289"/>
<polygon fill="#191970" stroke="#191970" points="664.6943,-30.4212 664.873,-19.8279 658.1272,-27.9976 664.6943,-30.4212"/>
</g>
<!-- Node28&#45;&gt;Node14 -->
<g id="edge39" class="edge">
<title>Node28&#45;&gt;Node14</title>
<path fill="none" stroke="#191970" d="M663.5088,-172.1023C735.1244,-164.4494 862.0044,-150.0851 980.7525,-132.0361"/>
<polygon fill="#191970" stroke="#191970" points="981.3919,-135.479 990.7467,-130.5052 980.332,-128.5597 981.3919,-135.479"/>
</g>
<!-- Node28&#45;&gt;Node27 -->
<g id="edge37" class="edge">
<title>Node28&#45;&gt;Node27</title>
<path fill="none" stroke="#191970" d="M621.4801,-168.2455C634.6751,-159.6534 654.1051,-147.0014 669.3079,-137.1018"/>
<polygon fill="#191970" stroke="#191970" points="671.2215,-140.0325 677.6916,-131.6427 667.4017,-134.1665 671.2215,-140.0325"/>
</g>
<!-- Node29&#45;&gt;Node3 -->
<g id="edge42" class="edge">
<title>Node29&#45;&gt;Node3</title>
<path fill="none" stroke="#191970" d="M470.6578,-168.2375C463.5744,-154.597 449.379,-129.5404 432.5,-112 421.0066,-100.0562 406.0211,-89.2099 393.3357,-81.053"/>
<polygon fill="#191970" stroke="#191970" points="394.928,-77.9217 384.5881,-75.6116 391.2306,-83.8656 394.928,-77.9217"/>
</g>
<!-- Node29&#45;&gt;Node12 -->
<g id="edge43" class="edge">
<title>Node29&#45;&gt;Node12</title>
<path fill="none" stroke="#191970" d="M488.383,-168.4045C500.4879,-159.2839 519.0079,-145.0591 534.5,-132 577.478,-95.7717 625.7346,-50.6884 650.9684,-26.7558"/>
<polygon fill="#191970" stroke="#191970" points="653.4827,-29.1947 658.3164,-19.7667 648.6584,-24.1226 653.4827,-29.1947"/>
</g>
<!-- Node29&#45;&gt;Node13 -->
<g id="edge44" class="edge">
<title>Node29&#45;&gt;Node13</title>
<path fill="none" stroke="#191970" d="M456.6878,-168.2455C439.6527,-159.4125 414.3425,-146.2887 395.0319,-136.2758"/>
<polygon fill="#191970" stroke="#191970" points="396.5853,-133.1388 386.0966,-131.6427 393.363,-139.353 396.5853,-133.1388"/>
</g>
<!-- Node30 -->
<g id="node30" class="node">
<title>Node30</title>
<g id="a_node30"><a xlink:title=" ">
<polygon fill="#ffffff" stroke="#bfbfbf" points="479.5,-112.5 479.5,-131.5 525.5,-131.5 525.5,-112.5 479.5,-112.5"/>
<text text-anchor="middle" x="502.5" y="-119.5" font-family="Helvetica,sans-Serif" font-size="10.00" fill="#000000">cstring</text>
</a>
</g>
</g>
<!-- Node29&#45;&gt;Node30 -->
<g id="edge41" class="edge">
<title>Node29&#45;&gt;Node30</title>
<path fill="none" stroke="#191970" d="M480.203,-168.2455C483.8424,-160.6973 488.9924,-150.0158 493.4262,-140.8197"/>
<polygon fill="#191970" stroke="#191970" points="496.6605,-142.1704 497.8509,-131.6427 490.3551,-139.1303 496.6605,-142.1704"/>
</g>
<!-- Node31 -->
<g id="node31" class="node">
<title>Node31</title>
<g id="a_node31"><a xlink:href="EncodingTraits_8hpp.html" target="_top" xlink:title="Defines possible encodings together with their properties and related types.">
<polygon fill="#ffffff" stroke="#000000" points="818.5,-112.5 818.5,-131.5 972.5,-131.5 972.5,-112.5 818.5,-112.5"/>
<text text-anchor="middle" x="895.5" y="-119.5" font-family="Helvetica,sans-Serif" font-size="10.00" fill="#000000">LLU/WSTP/EncodingTraits.hpp</text>
</a>
</g>
</g>
<!-- Node29&#45;&gt;Node31 -->
<g id="edge45" class="edge">
<title>Node29&#45;&gt;Node31</title>
<path fill="none" stroke="#191970" d="M531.1563,-169.3484C534.3163,-168.885 537.4478,-168.4325 540.5,-168 631.738,-155.0724 736.3793,-141.6883 808.2893,-132.7134"/>
<polygon fill="#191970" stroke="#191970" points="808.7236,-136.1865 818.2141,-131.4768 807.858,-129.2402 808.7236,-136.1865"/>
</g>
<!-- Node31&#45;&gt;Node3 -->
<g id="edge47" class="edge">
<title>Node31&#45;&gt;Node3</title>
<path fill="none" stroke="#191970" d="M818.4417,-113.8272C700.1044,-101.2762 478.8449,-77.8093 398.0432,-69.2394"/>
<polygon fill="#191970" stroke="#191970" points="398.3445,-65.7518 388.0311,-68.1775 397.6062,-72.7128 398.3445,-65.7518"/>
</g>
<!-- Node31&#45;&gt;Node9 -->
<g id="edge48" class="edge">
<title>Node31&#45;&gt;Node9</title>
<path fill="none" stroke="#191970" d="M972.6774,-112.6195C1058.4591,-102.0368 1191.4977,-85.1162 1241.5,-76 1242.0891,-75.8926 1242.6822,-75.7824 1243.2787,-75.6698"/>
<polygon fill="#191970" stroke="#191970" points="1244.0032,-79.0942 1253.1039,-73.6694 1242.6066,-72.2349 1244.0032,-79.0942"/>
</g>
<!-- Node31&#45;&gt;Node10 -->
<g id="edge49" class="edge">
<title>Node31&#45;&gt;Node10</title>
<path fill="none" stroke="#191970" d="M913.0929,-112.2455C928.879,-103.4928 952.2639,-90.527 970.2587,-80.5496"/>
<polygon fill="#191970" stroke="#191970" points="972.0603,-83.5528 979.1087,-75.6427 968.6659,-77.4308 972.0603,-83.5528"/>
</g>
<!-- Node31&#45;&gt;Node16 -->
<g id="edge46" class="edge">
<title>Node31&#45;&gt;Node16</title>
<path fill="none" stroke="#191970" d="M889.926,-112.2455C885.5669,-104.617 879.3789,-93.7881 874.0867,-84.5267"/>
<polygon fill="#191970" stroke="#191970" points="877.0104,-82.5886 869.0101,-75.6427 870.9327,-86.0616 877.0104,-82.5886"/>
</g>
<!-- Node32&#45;&gt;Node12 -->
<g id="edge52" class="edge">
<title>Node32&#45;&gt;Node12</title>
<path fill="none" stroke="#191970" d="M737.6119,-224.2321C739.6691,-203.1704 742.8142,-152.1419 730.5,-112 720.5389,-79.5287 697.9192,-46.8265 682.9327,-27.4988"/>
<polygon fill="#191970" stroke="#191970" points="685.6211,-25.2561 676.6571,-19.6085 680.1427,-29.6135 685.6211,-25.2561"/>
</g>
<!-- Node32&#45;&gt;Node13 -->
<g id="edge53" class="edge">
<title>Node32&#45;&gt;Node13</title>
<path fill="none" stroke="#191970" d="M689.859,-231.127C597.7543,-225.0125 399.4917,-209.493 377.5,-188 365.4796,-176.2521 363.8694,-156.6323 364.7321,-141.8304"/>
<polygon fill="#191970" stroke="#191970" points="368.2366,-141.9576 365.7424,-131.6606 361.2709,-141.2656 368.2366,-141.9576"/>
</g>
<!-- Node32&#45;&gt;Node14 -->
<g id="edge54" class="edge">
<title>Node32&#45;&gt;Node14</title>
<path fill="none" stroke="#191970" d="M761.9926,-224.4509C815.5031,-204.4069 939.606,-157.9202 1000.5109,-135.1063"/>
<polygon fill="#191970" stroke="#191970" points="1001.9351,-138.3104 1010.072,-131.5249 999.4796,-131.7551 1001.9351,-138.3104"/>
</g>
<!-- Node32&#45;&gt;Node27 -->
<g id="edge51" class="edge">
<title>Node32&#45;&gt;Node27</title>
<path fill="none" stroke="#191970" d="M732.7486,-224.4509C725.5073,-206.0186 709.4814,-165.2254 699.9812,-141.043"/>
<polygon fill="#191970" stroke="#191970" points="703.1561,-139.5526 696.2419,-131.5249 696.6409,-142.1122 703.1561,-139.5526"/>
</g>
<!-- Node32&#45;&gt;Node29 -->
<g id="edge55" class="edge">
<title>Node32&#45;&gt;Node29</title>
<path fill="none" stroke="#191970" d="M691.9291,-224.4369C647.0732,-214.8127 577.8351,-199.957 529.7992,-189.6504"/>
<polygon fill="#191970" stroke="#191970" points="530.3989,-186.1995 519.8871,-187.5237 528.9303,-193.0437 530.3989,-186.1995"/>
</g>
<!-- Node33&#45;&gt;Node5 -->
<g id="edge57" class="edge">
<title>Node33&#45;&gt;Node5</title>
<path fill="none" stroke="#191970" d="M895.4602,-224.4369C939.2062,-213.9677 1008.819,-197.3083 1051.6932,-187.0478"/>
<polygon fill="#191970" stroke="#191970" points="1052.5514,-190.4413 1061.4621,-184.7099 1050.9221,-183.6336 1052.5514,-190.4413"/>
</g>
<!-- Node33&#45;&gt;Node12 -->
<g id="edge60" class="edge">
<title>Node33&#45;&gt;Node12</title>
<path fill="none" stroke="#191970" d="M849.3649,-224.1186C831.7389,-196.1187 778.6718,-114.4939 723.5,-56 713.2559,-45.1391 700.5383,-34.3581 689.9134,-25.966"/>
<polygon fill="#191970" stroke="#191970" points="691.9803,-23.14 681.9283,-19.7921 687.6986,-28.6778 691.9803,-23.14"/>
</g>
<!-- Node33&#45;&gt;Node13 -->
<g id="edge61" class="edge">
<title>Node33&#45;&gt;Node13</title>
<path fill="none" stroke="#191970" d="M800.7181,-225.2161C797.6021,-224.7864 794.5129,-224.3774 791.5,-224 707.1156,-213.4307 483.2769,-231.9997 410.5,-188 393.0039,-177.4222 381.2781,-156.6904 374.5499,-141.2717"/>
<polygon fill="#191970" stroke="#191970" points="377.655,-139.6117 370.6808,-131.636 371.1591,-142.2201 377.655,-139.6117"/>
</g>
<!-- Node33&#45;&gt;Node14 -->
<g id="edge62" class="edge">
<title>Node33&#45;&gt;Node14</title>
<path fill="none" stroke="#191970" d="M890.3529,-224.443C914.4162,-216.8565 946.4631,-204.733 971.5,-188 991.2807,-174.7799 1009.7246,-154.5783 1021.682,-140.0078"/>
<polygon fill="#191970" stroke="#191970" points="1024.7471,-141.7775 1028.2428,-131.776 1019.2731,-137.4146 1024.7471,-141.7775"/>
</g>
<!-- Node33&#45;&gt;Node19 -->
<g id="edge59" class="edge">
<title>Node33&#45;&gt;Node19</title>
<path fill="none" stroke="#191970" d="M893.1969,-224.4373C922.3592,-216.4142 963.384,-203.7482 997.5,-188 1040.617,-168.0968 1064.9655,-173.2473 1088.5,-132 1105.2409,-102.6593 1111.8562,-81.3247 1089.5,-56 1048.6491,-9.7249 880.0888,-30.8636 802.6287,-19.6842"/>
<polygon fill="#191970" stroke="#191970" points="803.217,-16.234 792.766,-17.9739 802.0209,-23.1311 803.217,-16.234"/>
</g>
<!-- Node33&#45;&gt;Node27 -->
<g id="edge58" class="edge">
<title>Node33&#45;&gt;Node27</title>
<path fill="none" stroke="#191970" d="M841.6027,-224.4509C813.3336,-205.0268 748.9247,-160.7703 714.7517,-137.2895"/>
<polygon fill="#191970" stroke="#191970" points="716.5861,-134.3034 706.3621,-131.5249 712.6219,-140.0727 716.5861,-134.3034"/>
</g>
<!-- Node33&#45;&gt;Node29 -->
<g id="edge64" class="edge">
<title>Node33&#45;&gt;Node29</title>
<path fill="none" stroke="#191970" d="M800.6942,-225.3903C797.5843,-224.9162 794.5029,-224.4499 791.5,-224 683.2034,-207.7737 653.6296,-204.7344 541.2085,-188.0923"/>
<polygon fill="#191970" stroke="#191970" points="541.569,-184.6075 531.1636,-186.6018 540.5415,-191.5317 541.569,-184.6075"/>
</g>
<!-- Node33&#45;&gt;Node31 -->
<g id="edge63" class="edge">
<title>Node33&#45;&gt;Node31</title>
<path fill="none" stroke="#191970" d="M867.9212,-224.18C877.5016,-215.7529 890.0135,-202.6707 895.5,-188 901.0188,-173.243 900.6092,-155.2981 899.0475,-141.8471"/>
<polygon fill="#191970" stroke="#191970" points="902.4842,-141.1597 897.5695,-131.7737 895.5583,-142.1759 902.4842,-141.1597"/>
</g>
<!-- Node34&#45;&gt;Node9 -->
<g id="edge67" class="edge">
<title>Node34&#45;&gt;Node9</title>
<path fill="none" stroke="#191970" d="M1291.8179,-168.4509C1290.5131,-150.184 1287.6397,-109.9553 1285.907,-85.6976"/>
<polygon fill="#191970" stroke="#191970" points="1289.384,-85.2501 1285.1803,-75.5249 1282.4018,-85.7489 1289.384,-85.2501"/>
</g>
<!-- Node34&#45;&gt;Node12 -->
<g id="edge68" class="edge">
<title>Node34&#45;&gt;Node12</title>
<path fill="none" stroke="#191970" d="M1300.2173,-168.3046C1317.365,-145.5484 1354.8143,-88.2105 1324.5,-56 1279.2601,-7.9303 797.1183,-27.1825 731.5,-20 721.7986,-18.9381 711.3109,-17.4223 701.7278,-15.8909"/>
<polygon fill="#191970" stroke="#191970" points="702.2013,-12.4217 691.7643,-14.2438 701.0595,-19.328 702.2013,-12.4217"/>
</g>
<!-- Node34&#45;&gt;Node14 -->
<g id="edge69" class="edge">
<title>Node34&#45;&gt;Node14</title>
<path fill="none" stroke="#191970" d="M1248.6121,-168.4369C1204.5362,-158.8328 1136.5519,-144.0191 1089.2642,-133.7152"/>
<polygon fill="#191970" stroke="#191970" points="1089.7228,-130.233 1079.2068,-131.5237 1088.2324,-137.0725 1089.7228,-130.233"/>
</g>
</g>
</svg>
        <g id="navigator" transform="translate(0 0)" fill="#404254">
                <rect fill="#f2f5e9" fill-opacity="0.5" stroke="#606060" stroke-width=".5" x="0" y="0" width="60" height="60"/>
                <use id="zoomplus" xlink:href="#zoomPlus" x="17" y="9" onmousedown="handleZoom(evt,'in')"/>
                <use id="zoomminus" xlink:href="#zoomMin" x="42" y="9" onmousedown="handleZoom(evt,'out')"/>
                <use id="reset" xlink:href="#resetDef" x="30" y="36" onmousedown="handleReset()"/>
                <g id="arrowUp" xlink:href="#dirArrow" transform="translate(30 24)" onmousedown="handlePan(0,-1)">
                  <use xlink:href="#rim" fill="#404040">
                        <set attributeName="fill" to="#808080" begin="arrowUp.mouseover" end="arrowUp.mouseout"/>
                  </use>
                  <path fill="none" stroke="white" stroke-width="1.5" d="M0,-3.0v7 M-2.5,-0.5L0,-3.0L2.5,-0.5"/>
                </g>
                <g id="arrowRight" xlink:href="#dirArrow" transform="rotate(90) translate(36 -43)" onmousedown="handlePan(1,0)">
                  <use xlink:href="#rim" fill="#404040">
                        <set attributeName="fill" to="#808080" begin="arrowRight.mouseover" end="arrowRight.mouseout"/>
                  </use>
                  <path fill="none" stroke="white" stroke-width="1.5" d="M0,-3.0v7 M-2.5,-0.5L0,-3.0L2.5,-0.5"/>
                </g>
                <g id="arrowDown" xlink:href="#dirArrow" transform="rotate(180) translate(-30 -48)" onmousedown="handlePan(0,1)">
                  <use xlink:href="#rim" fill="#404040">
                        <set attributeName="fill" to="#808080" begin="arrowDown.mouseover" end="arrowDown.mouseout"/>
                  </use>
                  <path fill="none" stroke="white" stroke-width="1.5" d="M0,-3.0v7 M-2.5,-0.5L0,-3.0L2.5,-0.5"/>
                </g>
                <g id="arrowLeft" xlink:href="#dirArrow" transform="rotate(270) translate(-36 17)" onmousedown="handlePan(-1,0)">
                  <use xlink:href="#rim" fill="#404040">
                        <set attributeName="fill" to="#808080" begin="arrowLeft.mouseover" end="arrowLeft.mouseout"/>
                  </use>
                  <path fill="none" stroke="white" stroke-width="1.5" d="M0,-3.0v7 M-2.5,-0.5L0,-3.0L2.5,-0.5"/>
                </g>
        </g>
        <svg viewBox="0 0 15 15" width="100%" height="30px" preserveAspectRatio="xMaxYMin meet">
         <g id="arrow_out" transform="scale(0.3 0.3)">
          <a xlink:href="LibraryLinkError_8h__incl_org.svg" target="_base">
           <rect id="button" ry="5" rx="5" y="6" x="6" height="38" width="38"
                fill="#f2f5e9" fill-opacity="0.5" stroke="#606060" stroke-width="1.0"/>
           <path id="arrow"
             d="M 11.500037,31.436501 C 11.940474,20.09759 22.043105,11.32322 32.158766,21.979434 L 37.068811,17.246167 C 37.068811,17.246167 37.088388,32 37.088388,32 L 22.160133,31.978069 C 22.160133,31.978069 26.997745,27.140456 26.997745,27.140456 C 18.528582,18.264221 13.291696,25.230495 11.500037,31.436501 z"
             style="fill:#404040;"/>
          </a>
         </g>
        </svg>
</svg>
