<?xml version="1.0" encoding="UTF-8" standalone="no"?>
<!DOCTYPE svg PUBLIC "-//W3C//DTD SVG 1.1//EN"
 "http://www.w3.org/Graphics/SVG/1.1/DTD/svg11.dtd">
<!-- Generated by graphviz version 2.40.1 (20161225.0304)
 -->
<!-- Title: LibraryData.cpp Pages: 1 -->
<svg width="1829pt" height="487pt"
 viewBox="0.00 0.00 1829.00 487.00" xmlns="http://www.w3.org/2000/svg" xmlns:xlink="http://www.w3.org/1999/xlink">
<g id="graph0" class="graph" transform="scale(1 1) rotate(0) translate(4 483)">
<title>LibraryData.cpp</title>
<polygon fill="#ffffff" stroke="transparent" points="-4,4 -4,-483 1825,-483 1825,4 -4,4"/>
<!-- Node1 -->
<g id="node1" class="node">
<title>Node1</title>
<g id="a_node1"><a xlink:title=" ">
<polygon fill="#bfbfbf" stroke="#000000" points="434,-459.5 434,-478.5 520,-478.5 520,-459.5 434,-459.5"/>
<text text-anchor="middle" x="477" y="-466.5" font-family="Helvetica,sans-Serif" font-size="10.00" fill="#000000">LibraryData.cpp</text>
</a>
</g>
</g>
<!-- Node2 -->
<g id="node2" class="node">
<title>Node2</title>
<g id="a_node2"><a xlink:href="LibraryData_8h.html" target="_top" xlink:title=" ">
<polygon fill="#ffffff" stroke="#000000" points="363,-56.5 363,-75.5 459,-75.5 459,-56.5 363,-56.5"/>
<text text-anchor="middle" x="411" y="-63.5" font-family="Helvetica,sans-Serif" font-size="10.00" fill="#000000">LLU/LibraryData.h</text>
</a>
</g>
</g>
<!-- Node1&#45;&gt;Node2 -->
<g id="edge1" class="edge">
<title>Node1&#45;&gt;Node2</title>
<path fill="none" stroke="#191970" d="M454.0527,-459.4529C418.7123,-443.0385 355,-405.9022 355,-351.5 355,-351.5 355,-351.5 355,-178 355,-141.4776 379.1172,-104.6564 395.6978,-83.6576"/>
<polygon fill="#191970" stroke="#191970" points="398.6115,-85.6242 402.25,-75.6738 393.2004,-81.1834 398.6115,-85.6242"/>
</g>
<!-- Node11 -->
<g id="node11" class="node">
<title>Node11</title>
<g id="a_node11"><a xlink:href="ErrorManager_8h.html" target="_top" xlink:title="Definition of the ErrorManager class responsible for error registration and throwing.">
<polygon fill="#ffffff" stroke="#000000" points="527,-403.5 527,-422.5 671,-422.5 671,-403.5 527,-403.5"/>
<text text-anchor="middle" x="599" y="-410.5" font-family="Helvetica,sans-Serif" font-size="10.00" fill="#000000">LLU/ErrorLog/ErrorManager.h</text>
</a>
</g>
</g>
<!-- Node1&#45;&gt;Node11 -->
<g id="edge10" class="edge">
<title>Node1&#45;&gt;Node11</title>
<path fill="none" stroke="#191970" d="M497.9725,-459.3733C517.5567,-450.3838 546.9961,-436.8706 569.051,-426.7471"/>
<polygon fill="#191970" stroke="#191970" points="570.6729,-429.8538 578.3011,-422.5011 567.7527,-423.4919 570.6729,-429.8538"/>
</g>
<!-- Node3 -->
<g id="node3" class="node">
<title>Node3</title>
<g id="a_node3"><a xlink:title=" ">
<polygon fill="#ffffff" stroke="#bfbfbf" points="798,-.5 798,-19.5 850,-19.5 850,-.5 798,-.5"/>
<text text-anchor="middle" x="824" y="-7.5" font-family="Helvetica,sans-Serif" font-size="10.00" fill="#000000">memory</text>
</a>
</g>
</g>
<!-- Node2&#45;&gt;Node3 -->
<g id="edge2" class="edge">
<title>Node2&#45;&gt;Node3</title>
<path fill="none" stroke="#191970" d="M459.2227,-59.9395C469.698,-58.6321 480.7196,-57.2635 491,-56 620.1784,-40.1237 656.4739,-46.0948 787.7031,-20.0055"/>
<polygon fill="#191970" stroke="#191970" points="788.6238,-23.3905 797.7364,-17.9858 787.2423,-16.5281 788.6238,-23.3905"/>
</g>
<!-- Node4 -->
<g id="node4" class="node">
<title>Node4</title>
<g id="a_node4"><a xlink:title=" ">
<polygon fill="#ffffff" stroke="#bfbfbf" points="0,-.5 0,-19.5 62,-19.5 62,-.5 0,-.5"/>
<text text-anchor="middle" x="31" y="-7.5" font-family="Helvetica,sans-Serif" font-size="10.00" fill="#000000">dllexport.h</text>
</a>
</g>
</g>
<!-- Node2&#45;&gt;Node4 -->
<g id="edge3" class="edge">
<title>Node2&#45;&gt;Node4</title>
<path fill="none" stroke="#191970" d="M362.8683,-61.1831C298.6806,-54.3856 181.3758,-40.662 72.2286,-20.0735"/>
<polygon fill="#191970" stroke="#191970" points="72.8491,-16.6288 62.37,-18.1906 71.5358,-23.5045 72.8491,-16.6288"/>
</g>
<!-- Node5 -->
<g id="node5" class="node">
<title>Node5</title>
<g id="a_node5"><a xlink:title=" ">
<polygon fill="#ffffff" stroke="#bfbfbf" points="1085,-.5 1085,-19.5 1131,-19.5 1131,-.5 1085,-.5"/>
<text text-anchor="middle" x="1108" y="-7.5" font-family="Helvetica,sans-Serif" font-size="10.00" fill="#000000">wstp.h</text>
</a>
</g>
</g>
<!-- Node2&#45;&gt;Node5 -->
<g id="edge4" class="edge">
<title>Node2&#45;&gt;Node5</title>
<path fill="none" stroke="#191970" d="M459.1829,-59.582C469.6607,-58.2969 480.6934,-57.0277 491,-56 713.5933,-33.8043 982.3434,-17.2792 1074.8478,-11.8872"/>
<polygon fill="#191970" stroke="#191970" points="1075.2121,-15.3721 1084.9929,-11.2994 1074.8072,-8.3838 1075.2121,-15.3721"/>
</g>
<!-- Node6 -->
<g id="node6" class="node">
<title>Node6</title>
<g id="a_node6"><a xlink:title=" ">
<polygon fill="#ffffff" stroke="#bfbfbf" points="80.5,-.5 80.5,-19.5 171.5,-19.5 171.5,-.5 80.5,-.5"/>
<text text-anchor="middle" x="126" y="-7.5" font-family="Helvetica,sans-Serif" font-size="10.00" fill="#000000">WolframLibrary.h</text>
</a>
</g>
</g>
<!-- Node2&#45;&gt;Node6 -->
<g id="edge5" class="edge">
<title>Node2&#45;&gt;Node6</title>
<path fill="none" stroke="#191970" d="M362.9759,-56.5637C312.9007,-46.7244 234.4972,-31.3187 181.7282,-20.9501"/>
<polygon fill="#191970" stroke="#191970" points="182.3466,-17.5048 171.8594,-19.011 180.9969,-24.3734 182.3466,-17.5048"/>
</g>
<!-- Node7 -->
<g id="node7" class="node">
<title>Node7</title>
<g id="a_node7"><a xlink:title=" ">
<polygon fill="#ffffff" stroke="#bfbfbf" points="190,-.5 190,-19.5 334,-19.5 334,-.5 190,-.5"/>
<text text-anchor="middle" x="262" y="-7.5" font-family="Helvetica,sans-Serif" font-size="10.00" fill="#000000">WolframIOLibraryFunctions.h</text>
</a>
</g>
</g>
<!-- Node2&#45;&gt;Node7 -->
<g id="edge6" class="edge">
<title>Node2&#45;&gt;Node7</title>
<path fill="none" stroke="#191970" d="M385.386,-56.3733C360.9313,-47.1822 323.8946,-33.2624 296.7791,-23.0713"/>
<polygon fill="#191970" stroke="#191970" points="297.8719,-19.7431 287.2798,-19.5011 295.4091,-26.2956 297.8719,-19.7431"/>
</g>
<!-- Node8 -->
<g id="node8" class="node">
<title>Node8</title>
<g id="a_node8"><a xlink:title=" ">
<polygon fill="#ffffff" stroke="#bfbfbf" points="352,-.5 352,-19.5 470,-19.5 470,-.5 352,-.5"/>
<text text-anchor="middle" x="411" y="-7.5" font-family="Helvetica,sans-Serif" font-size="10.00" fill="#000000">WolframImageLibrary.h</text>
</a>
</g>
</g>
<!-- Node2&#45;&gt;Node8 -->
<g id="edge7" class="edge">
<title>Node2&#45;&gt;Node8</title>
<path fill="none" stroke="#191970" d="M411,-56.2455C411,-48.9382 411,-38.6944 411,-29.7046"/>
<polygon fill="#191970" stroke="#191970" points="414.5001,-29.6426 411,-19.6427 407.5001,-29.6427 414.5001,-29.6426"/>
</g>
<!-- Node9 -->
<g id="node9" class="node">
<title>Node9</title>
<g id="a_node9"><a xlink:title=" ">
<polygon fill="#ffffff" stroke="#bfbfbf" points="488.5,-.5 488.5,-19.5 639.5,-19.5 639.5,-.5 488.5,-.5"/>
<text text-anchor="middle" x="564" y="-7.5" font-family="Helvetica,sans-Serif" font-size="10.00" fill="#000000">WolframNumericArrayLibrary.h</text>
</a>
</g>
</g>
<!-- Node2&#45;&gt;Node9 -->
<g id="edge8" class="edge">
<title>Node2&#45;&gt;Node9</title>
<path fill="none" stroke="#191970" d="M437.3016,-56.3733C462.4128,-47.1822 500.4438,-33.2624 528.2872,-23.0713"/>
<polygon fill="#191970" stroke="#191970" points="529.8538,-26.2251 538.0416,-19.5011 527.4478,-19.6516 529.8538,-26.2251"/>
</g>
<!-- Node10 -->
<g id="node10" class="node">
<title>Node10</title>
<g id="a_node10"><a xlink:title=" ">
<polygon fill="#ffffff" stroke="#bfbfbf" points="658,-.5 658,-19.5 780,-19.5 780,-.5 658,-.5"/>
<text text-anchor="middle" x="719" y="-7.5" font-family="Helvetica,sans-Serif" font-size="10.00" fill="#000000">WolframSparseLibrary.h</text>
</a>
</g>
</g>
<!-- Node2&#45;&gt;Node10 -->
<g id="edge9" class="edge">
<title>Node2&#45;&gt;Node10</title>
<path fill="none" stroke="#191970" d="M459.125,-57.25C512.274,-47.5866 598.0325,-31.9941 656.3776,-21.3859"/>
<polygon fill="#191970" stroke="#191970" points="657.365,-24.7638 666.5775,-19.5314 656.1127,-17.8767 657.365,-24.7638"/>
</g>
<!-- Node11&#45;&gt;Node2 -->
<g id="edge79" class="edge">
<title>Node11&#45;&gt;Node2</title>
<path fill="none" stroke="#191970" d="M539.4163,-403.4767C478.5766,-389.9588 393,-358.7291 393,-290 393,-290 393,-290 393,-178 393,-145.1472 400.6431,-107.5528 405.9684,-85.3462"/>
<polygon fill="#191970" stroke="#191970" points="409.3987,-86.0551 408.421,-75.5055 402.6065,-84.3622 409.3987,-86.0551"/>
</g>
<!-- Node12 -->
<g id="node12" class="node">
<title>Node12</title>
<g id="a_node12"><a xlink:title=" ">
<polygon fill="#ffffff" stroke="#bfbfbf" points="459,-168.5 459,-187.5 515,-187.5 515,-168.5 459,-168.5"/>
<text text-anchor="middle" x="487" y="-175.5" font-family="Helvetica,sans-Serif" font-size="10.00" fill="#000000">algorithm</text>
</a>
</g>
</g>
<!-- Node11&#45;&gt;Node12 -->
<g id="edge11" class="edge">
<title>Node11&#45;&gt;Node12</title>
<path fill="none" stroke="#191970" d="M543.4865,-403.4948C522.4844,-396.9116 500.6225,-385.7866 488,-367 452.8417,-314.6724 469.892,-234.4363 480.5893,-197.6544"/>
<polygon fill="#191970" stroke="#191970" points="484.0521,-198.3002 483.6403,-187.7133 477.3602,-196.2463 484.0521,-198.3002"/>
</g>
<!-- Node13 -->
<g id="node13" class="node">
<title>Node13</title>
<g id="a_node13"><a xlink:title=" ">
<polygon fill="#ffffff" stroke="#bfbfbf" points="497.5,-342 497.5,-361 570.5,-361 570.5,-342 497.5,-342"/>
<text text-anchor="middle" x="534" y="-349" font-family="Helvetica,sans-Serif" font-size="10.00" fill="#000000">initializer_list</text>
</a>
</g>
</g>
<!-- Node11&#45;&gt;Node13 -->
<g id="edge12" class="edge">
<title>Node11&#45;&gt;Node13</title>
<path fill="none" stroke="#191970" d="M588.8438,-403.3906C578.9801,-394.0581 563.7945,-379.6902 551.9013,-368.4374"/>
<polygon fill="#191970" stroke="#191970" points="553.9689,-365.5753 544.2994,-361.2449 549.1579,-370.6601 553.9689,-365.5753"/>
</g>
<!-- Node14 -->
<g id="node14" class="node">
<title>Node14</title>
<g id="a_node14"><a xlink:title=" ">
<polygon fill="#ffffff" stroke="#bfbfbf" points="1431.5,-56.5 1431.5,-75.5 1472.5,-75.5 1472.5,-56.5 1431.5,-56.5"/>
<text text-anchor="middle" x="1452" y="-63.5" font-family="Helvetica,sans-Serif" font-size="10.00" fill="#000000">string</text>
</a>
</g>
</g>
<!-- Node11&#45;&gt;Node14 -->
<g id="edge13" class="edge">
<title>Node11&#45;&gt;Node14</title>
<path fill="none" stroke="#191970" d="M671.3302,-409.5373C933.8396,-396.4995 1821,-348.1371 1821,-290 1821,-290 1821,-290 1821,-178 1821,-107.4747 1571.0714,-77.1736 1482.5919,-68.6562"/>
<polygon fill="#191970" stroke="#191970" points="1482.9123,-65.1709 1472.6297,-67.7242 1482.2602,-72.1405 1482.9123,-65.1709"/>
</g>
<!-- Node15 -->
<g id="node15" class="node">
<title>Node15</title>
<g id="a_node15"><a xlink:title=" ">
<polygon fill="#ffffff" stroke="#bfbfbf" points="813.5,-342 813.5,-361 896.5,-361 896.5,-342 813.5,-342"/>
<text text-anchor="middle" x="855" y="-349" font-family="Helvetica,sans-Serif" font-size="10.00" fill="#000000">unordered_map</text>
</a>
</g>
</g>
<!-- Node11&#45;&gt;Node15 -->
<g id="edge14" class="edge">
<title>Node11&#45;&gt;Node15</title>
<path fill="none" stroke="#191970" d="M646.0561,-403.4796C687.7628,-394.795 750.2147,-381.1867 804,-367 807.6128,-366.0471 811.3545,-365.0092 815.0947,-363.9368"/>
<polygon fill="#191970" stroke="#191970" points="816.2959,-367.2319 824.902,-361.0525 814.3207,-360.5163 816.2959,-367.2319"/>
</g>
<!-- Node16 -->
<g id="node16" class="node">
<title>Node16</title>
<g id="a_node16"><a xlink:title=" ">
<polygon fill="#ffffff" stroke="#bfbfbf" points="703,-56.5 703,-75.5 743,-75.5 743,-56.5 703,-56.5"/>
<text text-anchor="middle" x="723" y="-63.5" font-family="Helvetica,sans-Serif" font-size="10.00" fill="#000000">utility</text>
</a>
</g>
</g>
<!-- Node11&#45;&gt;Node16 -->
<g id="edge15" class="edge">
<title>Node11&#45;&gt;Node16</title>
<path fill="none" stroke="#191970" d="M597.9581,-403.4874C596.0031,-388.4213 590.8596,-358.4765 579,-336 535.0682,-252.74 396.3321,-245.3432 450,-168 478.6893,-126.6545 627.6332,-87.9755 692.6201,-72.7839"/>
<polygon fill="#191970" stroke="#191970" points="693.7003,-76.1267 702.6578,-70.4687 692.127,-69.3058 693.7003,-76.1267"/>
</g>
<!-- Node17 -->
<g id="node17" class="node">
<title>Node17</title>
<g id="a_node17"><a xlink:title=" ">
<polygon fill="#ffffff" stroke="#bfbfbf" points="1711,-224.5 1711,-243.5 1755,-243.5 1755,-224.5 1711,-224.5"/>
<text text-anchor="middle" x="1733" y="-231.5" font-family="Helvetica,sans-Serif" font-size="10.00" fill="#000000">vector</text>
</a>
</g>
</g>
<!-- Node11&#45;&gt;Node17 -->
<g id="edge16" class="edge">
<title>Node11&#45;&gt;Node17</title>
<path fill="none" stroke="#191970" d="M663.5018,-403.4961C725.4492,-394.323 821.6579,-379.9575 905,-367 1215.1305,-318.783 1590.0825,-257.4615 1700.7755,-239.2958"/>
<polygon fill="#191970" stroke="#191970" points="1701.6415,-242.7005 1710.9424,-237.6267 1700.5074,-235.793 1701.6415,-242.7005"/>
</g>
<!-- Node18 -->
<g id="node18" class="node">
<title>Node18</title>
<g id="a_node18"><a xlink:href="LibraryLinkError_8h.html" target="_top" xlink:title="Error class and error codes used by LibraryLink Utilities classes.">
<polygon fill="#ffffff" stroke="#000000" points="670.5,-336.5 670.5,-366.5 795.5,-366.5 795.5,-336.5 670.5,-336.5"/>
<text text-anchor="start" x="678.5" y="-354.5" font-family="Helvetica,sans-Serif" font-size="10.00" fill="#000000">LLU/ErrorLog/LibraryLink</text>
<text text-anchor="middle" x="733" y="-343.5" font-family="Helvetica,sans-Serif" font-size="10.00" fill="#000000">Error.h</text>
</a>
</g>
</g>
<!-- Node11&#45;&gt;Node18 -->
<g id="edge17" class="edge">
<title>Node11&#45;&gt;Node18</title>
<path fill="none" stroke="#191970" d="M619.9375,-403.3906C638.9124,-394.682 667.4407,-381.5888 691.0926,-370.7336"/>
<polygon fill="#191970" stroke="#191970" points="692.5913,-373.8968 700.2199,-366.5446 689.6715,-367.5349 692.5913,-373.8968"/>
</g>
<!-- Node18&#45;&gt;Node14 -->
<g id="edge19" class="edge">
<title>Node18&#45;&gt;Node14</title>
<path fill="none" stroke="#191970" d="M795.6434,-337.3995C798.4624,-336.899 801.2577,-336.4292 804,-336 912.0514,-319.0901 1783,-343.3666 1783,-234 1783,-234 1783,-234 1783,-178 1783,-114.9416 1564.7242,-80.4401 1482.6792,-69.699"/>
<polygon fill="#191970" stroke="#191970" points="1483.0688,-66.2204 1472.7055,-68.4232 1482.1806,-73.1639 1483.0688,-66.2204"/>
</g>
<!-- Node19 -->
<g id="node19" class="node">
<title>Node19</title>
<g id="a_node19"><a xlink:title=" ">
<polygon fill="#ffffff" stroke="#bfbfbf" points="703.5,-280.5 703.5,-299.5 762.5,-299.5 762.5,-280.5 703.5,-280.5"/>
<text text-anchor="middle" x="733" y="-287.5" font-family="Helvetica,sans-Serif" font-size="10.00" fill="#000000">stdexcept</text>
</a>
</g>
</g>
<!-- Node18&#45;&gt;Node19 -->
<g id="edge18" class="edge">
<title>Node18&#45;&gt;Node19</title>
<path fill="none" stroke="#191970" d="M733,-336.2977C733,-328.3834 733,-318.6043 733,-310.0759"/>
<polygon fill="#191970" stroke="#191970" points="736.5001,-309.8469 733,-299.8469 729.5001,-309.847 736.5001,-309.8469"/>
</g>
<!-- Node20 -->
<g id="node20" class="node">
<title>Node20</title>
<g id="a_node20"><a xlink:href="WSStream_8hpp.html" target="_top" xlink:title="Header file for WSStream class.">
<polygon fill="#ffffff" stroke="#000000" points="870.5,-280.5 870.5,-299.5 1007.5,-299.5 1007.5,-280.5 870.5,-280.5"/>
<text text-anchor="middle" x="939" y="-287.5" font-family="Helvetica,sans-Serif" font-size="10.00" fill="#000000">LLU/WSTP/WSStream.hpp</text>
</a>
</g>
</g>
<!-- Node18&#45;&gt;Node20 -->
<g id="edge20" class="edge">
<title>Node18&#45;&gt;Node20</title>
<path fill="none" stroke="#191970" d="M783.3933,-336.4554C818.3679,-326.0139 864.4046,-312.27 897.3127,-302.4455"/>
<polygon fill="#191970" stroke="#191970" points="898.4965,-305.7448 907.0773,-299.5303 896.494,-299.0373 898.4965,-305.7448"/>
</g>
<!-- Node20&#45;&gt;Node5 -->
<g id="edge28" class="edge">
<title>Node20&#45;&gt;Node5</title>
<path fill="none" stroke="#191970" d="M870.4884,-283.9845C806.7413,-277.2304 717.4363,-264.4555 689,-244 621.1093,-195.1633 617.9366,-110.9289 681,-56 710.5387,-30.2715 979.3274,-15.7857 1074.659,-11.4222"/>
<polygon fill="#191970" stroke="#191970" points="1075.0518,-14.9081 1084.8845,-10.9627 1074.7375,-7.9152 1075.0518,-14.9081"/>
</g>
<!-- Node20&#45;&gt;Node12 -->
<g id="edge21" class="edge">
<title>Node20&#45;&gt;Node12</title>
<path fill="none" stroke="#191970" d="M870.0758,-285.4022C761.3131,-277.6753 559.2626,-261.2321 531,-244 513.4218,-233.2823 501.3687,-212.574 494.3824,-197.199"/>
<polygon fill="#191970" stroke="#191970" points="497.4484,-195.4602 490.3496,-187.5952 490.9943,-198.1704 497.4484,-195.4602"/>
</g>
<!-- Node20&#45;&gt;Node16 -->
<g id="edge26" class="edge">
<title>Node20&#45;&gt;Node16</title>
<path fill="none" stroke="#191970" d="M870.4919,-284.3747C827.3737,-278.6518 771.6392,-267.1364 727,-244 694.3249,-227.0646 680.8068,-221.6932 666,-188 649.3528,-150.1188 682.9705,-106.3018 705.3067,-82.864"/>
<polygon fill="#191970" stroke="#191970" points="707.815,-85.3052 712.3602,-75.7348 702.8389,-80.3819 707.815,-85.3052"/>
</g>
<!-- Node20&#45;&gt;Node17 -->
<g id="edge27" class="edge">
<title>Node20&#45;&gt;Node17</title>
<path fill="none" stroke="#191970" d="M1007.526,-287.6883C1168.1773,-281.9699 1565.4241,-266.0146 1697,-244 1698.2596,-243.7893 1699.5383,-243.5518 1700.8258,-243.2929"/>
<polygon fill="#191970" stroke="#191970" points="1701.7582,-246.6693 1710.6953,-240.9792 1700.1604,-239.8541 1701.7582,-246.6693"/>
</g>
<!-- Node21 -->
<g id="node21" class="node">
<title>Node21</title>
<g id="a_node21"><a xlink:title=" ">
<polygon fill="#ffffff" stroke="#bfbfbf" points="885.5,-224.5 885.5,-243.5 932.5,-243.5 932.5,-224.5 885.5,-224.5"/>
<text text-anchor="middle" x="909" y="-231.5" font-family="Helvetica,sans-Serif" font-size="10.00" fill="#000000">iterator</text>
</a>
</g>
</g>
<!-- Node20&#45;&gt;Node21 -->
<g id="edge22" class="edge">
<title>Node20&#45;&gt;Node21</title>
<path fill="none" stroke="#191970" d="M933.7744,-280.2455C929.6877,-272.617 923.8865,-261.7881 918.925,-252.5267"/>
<polygon fill="#191970" stroke="#191970" points="921.9732,-250.8047 914.1657,-243.6427 915.8028,-254.1103 921.9732,-250.8047"/>
</g>
<!-- Node22 -->
<g id="node22" class="node">
<title>Node22</title>
<g id="a_node22"><a xlink:title=" ">
<polygon fill="#ffffff" stroke="#bfbfbf" points="950.5,-224.5 950.5,-243.5 985.5,-243.5 985.5,-224.5 950.5,-224.5"/>
<text text-anchor="middle" x="968" y="-231.5" font-family="Helvetica,sans-Serif" font-size="10.00" fill="#000000">map</text>
</a>
</g>
</g>
<!-- Node20&#45;&gt;Node22 -->
<g id="edge23" class="edge">
<title>Node20&#45;&gt;Node22</title>
<path fill="none" stroke="#191970" d="M944.0514,-280.2455C948.0019,-272.617 953.6097,-261.7881 958.4058,-252.5267"/>
<polygon fill="#191970" stroke="#191970" points="961.5159,-254.1321 963.0065,-243.6427 955.2999,-250.9131 961.5159,-254.1321"/>
</g>
<!-- Node23 -->
<g id="node23" class="node">
<title>Node23</title>
<g id="a_node23"><a xlink:title=" ">
<polygon fill="#ffffff" stroke="#bfbfbf" points="1003.5,-224.5 1003.5,-243.5 1044.5,-243.5 1044.5,-224.5 1003.5,-224.5"/>
<text text-anchor="middle" x="1024" y="-231.5" font-family="Helvetica,sans-Serif" font-size="10.00" fill="#000000">stack</text>
</a>
</g>
</g>
<!-- Node20&#45;&gt;Node23 -->
<g id="edge24" class="edge">
<title>Node20&#45;&gt;Node23</title>
<path fill="none" stroke="#191970" d="M953.8059,-280.2455C966.7256,-271.7337 985.6931,-259.2375 1000.6552,-249.3801"/>
<polygon fill="#191970" stroke="#191970" points="1002.9387,-252.067 1009.3638,-243.6427 999.0876,-246.2216 1002.9387,-252.067"/>
</g>
<!-- Node24 -->
<g id="node24" class="node">
<title>Node24</title>
<g id="a_node24"><a xlink:title=" ">
<polygon fill="#ffffff" stroke="#bfbfbf" points="761,-56.5 761,-75.5 823,-75.5 823,-56.5 761,-56.5"/>
<text text-anchor="middle" x="792" y="-63.5" font-family="Helvetica,sans-Serif" font-size="10.00" fill="#000000">type_traits</text>
</a>
</g>
</g>
<!-- Node20&#45;&gt;Node24 -->
<g id="edge25" class="edge">
<title>Node20&#45;&gt;Node24</title>
<path fill="none" stroke="#191970" d="M899.1558,-280.4576C832.1633,-263.5093 701.7331,-226.3186 676,-188 646.4745,-144.0344 716.8655,-101.1844 760.5183,-79.8984"/>
<polygon fill="#191970" stroke="#191970" points="762.1103,-83.0171 769.6455,-75.5692 759.1104,-76.6925 762.1103,-83.0171"/>
</g>
<!-- Node25 -->
<g id="node25" class="node">
<title>Node25</title>
<g id="a_node25"><a xlink:href="Errors_8h.html" target="_top" xlink:title="Definitions of error names and error codes used across LLU.">
<polygon fill="#ffffff" stroke="#000000" points="1555,-112.5 1555,-131.5 1667,-131.5 1667,-112.5 1555,-112.5"/>
<text text-anchor="middle" x="1611" y="-119.5" font-family="Helvetica,sans-Serif" font-size="10.00" fill="#000000">LLU/ErrorLog/Errors.h</text>
</a>
</g>
</g>
<!-- Node20&#45;&gt;Node25 -->
<g id="edge29" class="edge">
<title>Node20&#45;&gt;Node25</title>
<path fill="none" stroke="#191970" d="M1007.5589,-289.3347C1172.574,-287.1882 1582.0236,-278.4173 1633,-244 1662.7087,-223.9418 1674.2387,-200.8968 1660,-168 1654.7663,-155.9081 1644.6158,-145.5335 1634.9045,-137.7139"/>
<polygon fill="#191970" stroke="#191970" points="1636.7234,-134.7038 1626.618,-131.5209 1632.5329,-140.3109 1636.7234,-134.7038"/>
</g>
<!-- Node26 -->
<g id="node26" class="node">
<title>Node26</title>
<g id="a_node26"><a xlink:href="Utilities_8hpp.html" target="_top" xlink:title="Short but generally useful functions.">
<polygon fill="#ffffff" stroke="#000000" points="761.5,-112.5 761.5,-131.5 850.5,-131.5 850.5,-112.5 761.5,-112.5"/>
<text text-anchor="middle" x="806" y="-119.5" font-family="Helvetica,sans-Serif" font-size="10.00" fill="#000000">LLU/Utilities.hpp</text>
</a>
</g>
</g>
<!-- Node20&#45;&gt;Node26 -->
<g id="edge31" class="edge">
<title>Node20&#45;&gt;Node26</title>
<path fill="none" stroke="#191970" d="M919.4487,-280.336C905.3796,-272.4168 887.0124,-259.9303 876,-244 856.0728,-215.1737 873.1156,-197.9979 855,-168 848.0955,-156.5667 837.5687,-146.1609 828.0394,-138.1497"/>
<polygon fill="#191970" stroke="#191970" points="830.0364,-135.2654 820.0381,-131.7603 825.6683,-140.7354 830.0364,-135.2654"/>
</g>
<!-- Node30 -->
<g id="node30" class="node">
<title>Node30</title>
<g id="a_node30"><a xlink:href="Get_8h.html" target="_top" xlink:title="Header file with classes related to reading data from WSTP.">
<polygon fill="#ffffff" stroke="#000000" points="1190,-224.5 1190,-243.5 1284,-243.5 1284,-224.5 1190,-224.5"/>
<text text-anchor="middle" x="1237" y="-231.5" font-family="Helvetica,sans-Serif" font-size="10.00" fill="#000000">LLU/WSTP/Get.h</text>
</a>
</g>
</g>
<!-- Node20&#45;&gt;Node30 -->
<g id="edge38" class="edge">
<title>Node20&#45;&gt;Node30</title>
<path fill="none" stroke="#191970" d="M989.8894,-280.4369C1042.6281,-270.5263 1124.8872,-255.0682 1179.8338,-244.7427"/>
<polygon fill="#191970" stroke="#191970" points="1180.5808,-248.1636 1189.7624,-242.8769 1179.288,-241.284 1180.5808,-248.1636"/>
</g>
<!-- Node33 -->
<g id="node33" class="node">
<title>Node33</title>
<g id="a_node33"><a xlink:href="WSTP_2Utilities_8h.html" target="_top" xlink:title="Header file with miscellaneous utilities used throughout the WSTP&#45;related part of LibraryLinkUtilitie...">
<polygon fill="#ffffff" stroke="#000000" points="1415.5,-168.5 1415.5,-187.5 1526.5,-187.5 1526.5,-168.5 1415.5,-168.5"/>
<text text-anchor="middle" x="1471" y="-175.5" font-family="Helvetica,sans-Serif" font-size="10.00" fill="#000000">LLU/WSTP/Utilities.h</text>
</a>
</g>
</g>
<!-- Node20&#45;&gt;Node33 -->
<g id="edge74" class="edge">
<title>Node20&#45;&gt;Node33</title>
<path fill="none" stroke="#191970" d="M1007.7103,-285.6862C1079.6602,-280.1004 1195.5295,-268.0744 1293,-244 1346.294,-230.8368 1405.5882,-206.8639 1440.5152,-191.7194"/>
<polygon fill="#191970" stroke="#191970" points="1442.3627,-194.7311 1450.1169,-187.5114 1439.5529,-188.3198 1442.3627,-194.7311"/>
</g>
<!-- Node36 -->
<g id="node36" class="node">
<title>Node36</title>
<g id="a_node36"><a xlink:href="Put_8h.html" target="_top" xlink:title="Header file with classes related to sending data through WSTP.">
<polygon fill="#ffffff" stroke="#000000" points="1530.5,-224.5 1530.5,-243.5 1623.5,-243.5 1623.5,-224.5 1530.5,-224.5"/>
<text text-anchor="middle" x="1577" y="-231.5" font-family="Helvetica,sans-Serif" font-size="10.00" fill="#000000">LLU/WSTP/Put.h</text>
</a>
</g>
</g>
<!-- Node20&#45;&gt;Node36 -->
<g id="edge59" class="edge">
<title>Node20&#45;&gt;Node36</title>
<path fill="none" stroke="#191970" d="M1007.58,-283.9804C1134.2612,-272.8611 1402.7084,-249.2983 1520.0719,-238.9968"/>
<polygon fill="#191970" stroke="#191970" points="1520.6218,-242.4621 1530.2775,-238.101 1520.0097,-235.4889 1520.6218,-242.4621"/>
</g>
<!-- Node37 -->
<g id="node37" class="node">
<title>Node37</title>
<g id="a_node37"><a xlink:href="Strings_8h.html" target="_top" xlink:title="Definitions of multiple structures and type aliases related to string handling in WSTP.">
<polygon fill="#ffffff" stroke="#000000" points="1062.5,-224.5 1062.5,-243.5 1171.5,-243.5 1171.5,-224.5 1062.5,-224.5"/>
<text text-anchor="middle" x="1117" y="-231.5" font-family="Helvetica,sans-Serif" font-size="10.00" fill="#000000">LLU/WSTP/Strings.h</text>
</a>
</g>
</g>
<!-- Node20&#45;&gt;Node37 -->
<g id="edge65" class="edge">
<title>Node20&#45;&gt;Node37</title>
<path fill="none" stroke="#191970" d="M969.5993,-280.3733C999.3261,-271.021 1044.6159,-256.7725 1077.1456,-246.5385"/>
<polygon fill="#191970" stroke="#191970" points="1078.3113,-249.8409 1086.8,-243.5011 1076.2105,-243.1636 1078.3113,-249.8409"/>
</g>
<!-- Node38 -->
<g id="node38" class="node">
<title>Node38</title>
<g id="a_node38"><a xlink:href="UtilityTypeTraits_8hpp.html" target="_top" xlink:title="Type traits used by WSStream to identify types supported by WSTP.">
<polygon fill="#ffffff" stroke="#000000" points="685.5,-168.5 685.5,-187.5 846.5,-187.5 846.5,-168.5 685.5,-168.5"/>
<text text-anchor="middle" x="766" y="-175.5" font-family="Helvetica,sans-Serif" font-size="10.00" fill="#000000">LLU/WSTP/UtilityTypeTraits.hpp</text>
</a>
</g>
</g>
<!-- Node20&#45;&gt;Node38 -->
<g id="edge75" class="edge">
<title>Node20&#45;&gt;Node38</title>
<path fill="none" stroke="#191970" d="M914.7962,-280.4911C894.8043,-272.1544 866.0678,-259.0387 843,-244 820.8485,-229.5587 798.1863,-209.3459 783.2367,-195.1041"/>
<polygon fill="#191970" stroke="#191970" points="785.3958,-192.3228 775.7771,-187.8808 780.5263,-197.3515 785.3958,-192.3228"/>
</g>
<!-- Node25&#45;&gt;Node14 -->
<g id="edge30" class="edge">
<title>Node25&#45;&gt;Node14</title>
<path fill="none" stroke="#191970" d="M1583.6669,-112.3733C1555.5503,-102.4706 1511.8475,-87.0784 1482.5933,-76.775"/>
<polygon fill="#191970" stroke="#191970" points="1483.4924,-73.381 1472.8975,-73.3601 1481.1669,-79.9834 1483.4924,-73.381"/>
</g>
<!-- Node26&#45;&gt;Node2 -->
<g id="edge37" class="edge">
<title>Node26&#45;&gt;Node2</title>
<path fill="none" stroke="#191970" d="M761.4563,-115.6849C689.8187,-105.5287 549.0022,-85.5649 469.4052,-74.2802"/>
<polygon fill="#191970" stroke="#191970" points="469.4584,-70.7528 459.066,-72.8144 468.4757,-77.6835 469.4584,-70.7528"/>
</g>
<!-- Node26&#45;&gt;Node16 -->
<g id="edge35" class="edge">
<title>Node26&#45;&gt;Node16</title>
<path fill="none" stroke="#191970" d="M791.5425,-112.2455C778.9268,-103.7337 760.4056,-91.2375 745.7955,-81.3801"/>
<polygon fill="#191970" stroke="#191970" points="747.5391,-78.3343 737.2918,-75.6427 743.6239,-84.1371 747.5391,-78.3343"/>
</g>
<!-- Node26&#45;&gt;Node24 -->
<g id="edge34" class="edge">
<title>Node26&#45;&gt;Node24</title>
<path fill="none" stroke="#191970" d="M803.5614,-112.2455C801.7145,-104.8579 799.1172,-94.4689 796.8522,-85.4087"/>
<polygon fill="#191970" stroke="#191970" points="800.2316,-84.4952 794.4107,-75.6427 793.4406,-86.193 800.2316,-84.4952"/>
</g>
<!-- Node27 -->
<g id="node27" class="node">
<title>Node27</title>
<g id="a_node27"><a xlink:title=" ">
<polygon fill="#ffffff" stroke="#bfbfbf" points="905.5,-56.5 905.5,-75.5 958.5,-75.5 958.5,-56.5 905.5,-56.5"/>
<text text-anchor="middle" x="932" y="-63.5" font-family="Helvetica,sans-Serif" font-size="10.00" fill="#000000">complex</text>
</a>
</g>
</g>
<!-- Node26&#45;&gt;Node27 -->
<g id="edge32" class="edge">
<title>Node26&#45;&gt;Node27</title>
<path fill="none" stroke="#191970" d="M827.6602,-112.3733C847.9772,-103.3435 878.564,-89.7494 901.375,-79.6111"/>
<polygon fill="#191970" stroke="#191970" points="902.9059,-82.7609 910.6225,-75.5011 900.0628,-76.3642 902.9059,-82.7609"/>
</g>
<!-- Node28 -->
<g id="node28" class="node">
<title>Node28</title>
<g id="a_node28"><a xlink:title=" ">
<polygon fill="#ffffff" stroke="#bfbfbf" points="977,-56.5 977,-75.5 1023,-75.5 1023,-56.5 977,-56.5"/>
<text text-anchor="middle" x="1000" y="-63.5" font-family="Helvetica,sans-Serif" font-size="10.00" fill="#000000">cstdint</text>
</a>
</g>
</g>
<!-- Node26&#45;&gt;Node28 -->
<g id="edge33" class="edge">
<title>Node26&#45;&gt;Node28</title>
<path fill="none" stroke="#191970" d="M839.9675,-112.4647C872.5827,-103.2689 923.2176,-88.8874 967,-76 967.1005,-75.9704 967.2012,-75.9408 967.302,-75.9111"/>
<polygon fill="#191970" stroke="#191970" points="968.3511,-79.2506 976.9351,-73.0405 966.352,-72.5421 968.3511,-79.2506"/>
</g>
<!-- Node29 -->
<g id="node29" class="node">
<title>Node29</title>
<g id="a_node29"><a xlink:title=" ">
<polygon fill="#ffffff" stroke="#bfbfbf" points="841,-56.5 841,-75.5 887,-75.5 887,-56.5 841,-56.5"/>
<text text-anchor="middle" x="864" y="-63.5" font-family="Helvetica,sans-Serif" font-size="10.00" fill="#000000">variant</text>
</a>
</g>
</g>
<!-- Node26&#45;&gt;Node29 -->
<g id="edge36" class="edge">
<title>Node26&#45;&gt;Node29</title>
<path fill="none" stroke="#191970" d="M816.1028,-112.2455C824.5028,-104.1352 836.6494,-92.4075 846.6084,-82.7919"/>
<polygon fill="#191970" stroke="#191970" points="849.25,-85.1066 854.0129,-75.6427 844.3878,-80.0707 849.25,-85.1066"/>
</g>
<!-- Node30&#45;&gt;Node3 -->
<g id="edge40" class="edge">
<title>Node30&#45;&gt;Node3</title>
<path fill="none" stroke="#191970" d="M1189.7152,-224.8424C1164.2472,-218.0392 1133.5257,-206.6204 1111,-188 1058.3027,-144.4389 1087.4634,-95.9798 1032,-56 1004.9144,-36.4758 912.5631,-21.6095 860.486,-14.5431"/>
<polygon fill="#191970" stroke="#191970" points="860.7043,-11.0415 850.3306,-13.1948 859.7829,-17.9806 860.7043,-11.0415"/>
</g>
<!-- Node30&#45;&gt;Node5 -->
<g id="edge42" class="edge">
<title>Node30&#45;&gt;Node5</title>
<path fill="none" stroke="#191970" d="M1202.0358,-224.4373C1171.9518,-215.4545 1131.8771,-201.4226 1122,-188 1103.8632,-163.3529 1105.3747,-70.847 1107.0154,-29.8136"/>
<polygon fill="#191970" stroke="#191970" points="1110.5171,-29.8499 1107.4653,-19.7041 1103.524,-29.5386 1110.5171,-29.8499"/>
</g>
<!-- Node30&#45;&gt;Node14 -->
<g id="edge41" class="edge">
<title>Node30&#45;&gt;Node14</title>
<path fill="none" stroke="#191970" d="M1252.1502,-224.3612C1266.1285,-215.3259 1287.3294,-201.2596 1305,-188 1352.8404,-152.1016 1406.2291,-106.2362 1433.607,-82.2621"/>
<polygon fill="#191970" stroke="#191970" points="1436.0323,-84.7903 1441.2336,-75.56 1431.4115,-79.5321 1436.0323,-84.7903"/>
</g>
<!-- Node30&#45;&gt;Node25 -->
<g id="edge43" class="edge">
<title>Node30&#45;&gt;Node25</title>
<path fill="none" stroke="#191970" d="M1284.1293,-232.2881C1364.2414,-228.5974 1522.7917,-217.6749 1569,-188 1586.0849,-177.0281 1597.5388,-156.3625 1604.1119,-141.067"/>
<polygon fill="#191970" stroke="#191970" points="1607.4644,-142.1071 1607.8919,-131.5209 1600.956,-139.5299 1607.4644,-142.1071"/>
</g>
<!-- Node30&#45;&gt;Node26 -->
<g id="edge44" class="edge">
<title>Node30&#45;&gt;Node26</title>
<path fill="none" stroke="#191970" d="M1197.3904,-224.4556C1159.6939,-215.3126 1101.4044,-201.0205 1051,-188 980.5729,-169.8073 899.0679,-147.6247 850.0767,-134.1684"/>
<polygon fill="#191970" stroke="#191970" points="850.9985,-130.792 840.4284,-131.5156 849.1427,-137.5415 850.9985,-130.792"/>
</g>
<!-- Node31 -->
<g id="node31" class="node">
<title>Node31</title>
<g id="a_node31"><a xlink:title=" ">
<polygon fill="#ffffff" stroke="#bfbfbf" points="1271.5,-112.5 1271.5,-131.5 1330.5,-131.5 1330.5,-112.5 1271.5,-112.5"/>
<text text-anchor="middle" x="1301" y="-119.5" font-family="Helvetica,sans-Serif" font-size="10.00" fill="#000000">functional</text>
</a>
</g>
</g>
<!-- Node30&#45;&gt;Node31 -->
<g id="edge39" class="edge">
<title>Node30&#45;&gt;Node31</title>
<path fill="none" stroke="#191970" d="M1251.5728,-224.4448C1262.995,-216.1714 1278.3557,-203.1666 1287,-188 1295.0657,-173.8484 1298.4998,-155.5961 1299.9541,-141.8742"/>
<polygon fill="#191970" stroke="#191970" points="1303.467,-141.848 1300.7683,-131.6027 1296.4889,-141.2948 1303.467,-141.848"/>
</g>
<!-- Node32 -->
<g id="node32" class="node">
<title>Node32</title>
<g id="a_node32"><a xlink:href="Release_8h.html" target="_top" xlink:title="Header file with classes responsible for releasing memory allocated by WSTP when receiving data.">
<polygon fill="#ffffff" stroke="#000000" points="1131,-168.5 1131,-187.5 1245,-187.5 1245,-168.5 1131,-168.5"/>
<text text-anchor="middle" x="1188" y="-175.5" font-family="Helvetica,sans-Serif" font-size="10.00" fill="#000000">LLU/WSTP/Release.h</text>
</a>
</g>
</g>
<!-- Node30&#45;&gt;Node32 -->
<g id="edge45" class="edge">
<title>Node30&#45;&gt;Node32</title>
<path fill="none" stroke="#191970" d="M1228.4649,-224.2455C1221.5088,-216.2958 1211.5117,-204.8706 1203.1949,-195.3656"/>
<polygon fill="#191970" stroke="#191970" points="1205.6564,-192.8637 1196.4373,-187.6427 1200.3884,-197.4732 1205.6564,-192.8637"/>
</g>
<!-- Node30&#45;&gt;Node33 -->
<g id="edge49" class="edge">
<title>Node30&#45;&gt;Node33</title>
<path fill="none" stroke="#191970" d="M1276.9602,-224.4369C1316.8392,-214.8932 1378.2139,-200.2052 1421.2328,-189.9101"/>
<polygon fill="#191970" stroke="#191970" points="1422.2939,-193.2551 1431.2047,-187.5237 1420.6646,-186.4473 1422.2939,-193.2551"/>
</g>
<!-- Node32&#45;&gt;Node5 -->
<g id="edge47" class="edge">
<title>Node32&#45;&gt;Node5</title>
<path fill="none" stroke="#191970" d="M1185.2387,-168.4601C1178.9555,-147.4199 1162.4572,-95.747 1141,-56 1135.7196,-46.2188 1128.6643,-36.1022 1122.4329,-27.8555"/>
<polygon fill="#191970" stroke="#191970" points="1125.0229,-25.4848 1116.1174,-19.7452 1119.4999,-29.7856 1125.0229,-25.4848"/>
</g>
<!-- Node32&#45;&gt;Node26 -->
<g id="edge48" class="edge">
<title>Node32&#45;&gt;Node26</title>
<path fill="none" stroke="#191970" d="M1130.7068,-170.7377C1067.2658,-162.5226 961.7169,-148.3428 860.8246,-132.0771"/>
<polygon fill="#191970" stroke="#191970" points="861.1941,-128.5914 850.7628,-130.4454 860.0735,-135.5011 861.1941,-128.5914"/>
</g>
<!-- Node32&#45;&gt;Node31 -->
<g id="edge46" class="edge">
<title>Node32&#45;&gt;Node31</title>
<path fill="none" stroke="#191970" d="M1207.4254,-168.3733C1225.4021,-159.4644 1252.3441,-146.1127 1272.709,-136.0203"/>
<polygon fill="#191970" stroke="#191970" points="1274.4222,-139.0776 1281.8281,-131.5011 1271.3139,-132.8055 1274.4222,-139.0776"/>
</g>
<!-- Node33&#45;&gt;Node5 -->
<g id="edge52" class="edge">
<title>Node33&#45;&gt;Node5</title>
<path fill="none" stroke="#191970" d="M1482.1502,-168.3293C1491.0671,-159.8007 1502.8921,-146.5 1508,-132 1519.8614,-98.3284 1510.862,-77.0107 1482,-56 1454.6782,-36.1105 1227.8018,-18.3599 1141.3137,-12.2533"/>
<polygon fill="#191970" stroke="#191970" points="1141.4685,-8.7557 1131.249,-11.5507 1140.981,-15.7387 1141.4685,-8.7557"/>
</g>
<!-- Node33&#45;&gt;Node14 -->
<g id="edge51" class="edge">
<title>Node33&#45;&gt;Node14</title>
<path fill="none" stroke="#191970" d="M1463.3381,-168.4654C1456.7513,-159.6125 1447.7403,-145.7614 1444,-132 1439.8374,-116.6851 1442.4543,-98.7816 1445.7688,-85.4884"/>
<polygon fill="#191970" stroke="#191970" points="1449.222,-86.1401 1448.5836,-75.5645 1442.4876,-84.23 1449.222,-86.1401"/>
</g>
<!-- Node33&#45;&gt;Node25 -->
<g id="edge53" class="edge">
<title>Node33&#45;&gt;Node25</title>
<path fill="none" stroke="#191970" d="M1495.0669,-168.3733C1517.8428,-159.2629 1552.2344,-145.5062 1577.649,-135.3404"/>
<polygon fill="#191970" stroke="#191970" points="1579.2623,-138.4648 1587.2472,-131.5011 1576.6625,-131.9654 1579.2623,-138.4648"/>
</g>
<!-- Node34 -->
<g id="node34" class="node">
<title>Node34</title>
<g id="a_node34"><a xlink:title=" ">
<polygon fill="#ffffff" stroke="#bfbfbf" points="1453,-112.5 1453,-131.5 1499,-131.5 1499,-112.5 1453,-112.5"/>
<text text-anchor="middle" x="1476" y="-119.5" font-family="Helvetica,sans-Serif" font-size="10.00" fill="#000000">cstring</text>
</a>
</g>
</g>
<!-- Node33&#45;&gt;Node34 -->
<g id="edge50" class="edge">
<title>Node33&#45;&gt;Node34</title>
<path fill="none" stroke="#191970" d="M1471.8709,-168.2455C1472.5234,-160.9382 1473.438,-150.6944 1474.2407,-141.7046"/>
<polygon fill="#191970" stroke="#191970" points="1477.7358,-141.9143 1475.139,-131.6427 1470.7635,-141.2918 1477.7358,-141.9143"/>
</g>
<!-- Node35 -->
<g id="node35" class="node">
<title>Node35</title>
<g id="a_node35"><a xlink:href="EncodingTraits_8hpp.html" target="_top" xlink:title="Defines possible encodings together with their properties and related types.">
<polygon fill="#ffffff" stroke="#000000" points="869,-112.5 869,-131.5 1023,-131.5 1023,-112.5 869,-112.5"/>
<text text-anchor="middle" x="946" y="-119.5" font-family="Helvetica,sans-Serif" font-size="10.00" fill="#000000">LLU/WSTP/EncodingTraits.hpp</text>
</a>
</g>
</g>
<!-- Node33&#45;&gt;Node35 -->
<g id="edge54" class="edge">
<title>Node33&#45;&gt;Node35</title>
<path fill="none" stroke="#191970" d="M1415.3128,-172.06C1323.9538,-162.3151 1141.5765,-142.8615 1033.0346,-131.2837"/>
<polygon fill="#191970" stroke="#191970" points="1033.4047,-127.8034 1023.0899,-130.2229 1032.6622,-134.7639 1033.4047,-127.8034"/>
</g>
<!-- Node35&#45;&gt;Node14 -->
<g id="edge56" class="edge">
<title>Node35&#45;&gt;Node14</title>
<path fill="none" stroke="#191970" d="M1023.1257,-113.4643C1136.4806,-100.9191 1343.0626,-78.0563 1421.0688,-69.4232"/>
<polygon fill="#191970" stroke="#191970" points="1421.6452,-72.8809 1431.1994,-68.302 1420.8751,-65.9234 1421.6452,-72.8809"/>
</g>
<!-- Node35&#45;&gt;Node16 -->
<g id="edge58" class="edge">
<title>Node35&#45;&gt;Node16</title>
<path fill="none" stroke="#191970" d="M900.1967,-112.4842C862.8342,-104.42 808.536,-92.0165 752.8711,-76.0572"/>
<polygon fill="#191970" stroke="#191970" points="753.7787,-72.6763 743.1995,-73.2519 751.8286,-79.3992 753.7787,-72.6763"/>
</g>
<!-- Node35&#45;&gt;Node24 -->
<g id="edge57" class="edge">
<title>Node35&#45;&gt;Node24</title>
<path fill="none" stroke="#191970" d="M919.5265,-112.3733C894.1403,-103.1419 855.6355,-89.1402 827.578,-78.9375"/>
<polygon fill="#191970" stroke="#191970" points="828.7222,-75.6293 818.1281,-75.5011 826.3299,-82.2079 828.7222,-75.6293"/>
</g>
<!-- Node35&#45;&gt;Node28 -->
<g id="edge55" class="edge">
<title>Node35&#45;&gt;Node28</title>
<path fill="none" stroke="#191970" d="M955.4061,-112.2455C963.1493,-104.2155 974.312,-92.6394 983.5318,-83.0781"/>
<polygon fill="#191970" stroke="#191970" points="986.2798,-85.2706 990.7017,-75.6427 981.2409,-80.4117 986.2798,-85.2706"/>
</g>
<!-- Node36&#45;&gt;Node5 -->
<g id="edge61" class="edge">
<title>Node36&#45;&gt;Node5</title>
<path fill="none" stroke="#191970" d="M1606.2259,-224.3916C1624.1678,-217.0763 1646.2649,-205.2831 1660,-188 1681.4762,-160.9763 1696.2326,-139.9669 1676,-112 1629.3727,-47.5485 1583.6899,-73.0993 1506,-56 1372.8454,-26.6932 1210.2652,-15.2974 1141.3841,-11.566"/>
<polygon fill="#191970" stroke="#191970" points="1141.3215,-8.0581 1131.1525,-11.0314 1140.9562,-15.0486 1141.3215,-8.0581"/>
</g>
<!-- Node36&#45;&gt;Node25 -->
<g id="edge62" class="edge">
<title>Node36&#45;&gt;Node25</title>
<path fill="none" stroke="#191970" d="M1601.8255,-224.4395C1617.2879,-217.0336 1635.9112,-205.1213 1645,-188 1653.7905,-171.4406 1641.6159,-152.3921 1629.4621,-139.0288"/>
<polygon fill="#191970" stroke="#191970" points="1631.9624,-136.5796 1622.4672,-131.8794 1626.9589,-141.475 1631.9624,-136.5796"/>
</g>
<!-- Node36&#45;&gt;Node26 -->
<g id="edge63" class="edge">
<title>Node36&#45;&gt;Node26</title>
<path fill="none" stroke="#191970" d="M1537.4689,-224.4515C1476.8329,-210.1399 1357.0545,-183.1894 1254,-168 1083.2667,-142.8352 1035.9357,-155.5408 860.809,-131.9877"/>
<polygon fill="#191970" stroke="#191970" points="861.1193,-128.4977 850.7377,-130.6125 860.1722,-135.4333 861.1193,-128.4977"/>
</g>
<!-- Node36&#45;&gt;Node31 -->
<g id="edge60" class="edge">
<title>Node36&#45;&gt;Node31</title>
<path fill="none" stroke="#191970" d="M1573.7679,-224.1396C1568.4038,-209.4207 1556.2052,-181.9455 1536,-168 1504.8529,-146.5025 1399.1439,-132.3159 1340.6851,-125.9148"/>
<polygon fill="#191970" stroke="#191970" points="1341.0082,-122.4295 1330.6927,-124.8461 1340.2637,-129.3898 1341.0082,-122.4295"/>
</g>
<!-- Node36&#45;&gt;Node33 -->
<g id="edge64" class="edge">
<title>Node36&#45;&gt;Node33</title>
<path fill="none" stroke="#191970" d="M1558.5362,-224.2455C1541.8926,-215.4527 1517.2007,-202.4079 1498.2808,-192.4125"/>
<polygon fill="#191970" stroke="#191970" points="1499.7291,-189.2193 1489.2522,-187.6427 1496.4592,-195.4086 1499.7291,-189.2193"/>
</g>
<!-- Node37&#45;&gt;Node3 -->
<g id="edge68" class="edge">
<title>Node37&#45;&gt;Node3</title>
<path fill="none" stroke="#191970" d="M1062.2177,-225.2197C1059.1018,-224.789 1056.0127,-224.3789 1053,-224 1011.2494,-218.7496 704.3051,-219.1368 676,-188 655.2844,-165.212 571.9401,-198.8399 681,-56 684.381,-51.5717 746.9832,-32.5538 788.2263,-20.4004"/>
<polygon fill="#191970" stroke="#191970" points="789.3384,-23.7217 797.9473,-17.5461 787.3663,-17.0052 789.3384,-23.7217"/>
</g>
<!-- Node37&#45;&gt;Node5 -->
<g id="edge69" class="edge">
<title>Node37&#45;&gt;Node5</title>
<path fill="none" stroke="#191970" d="M1108.7911,-224.1677C1101.9886,-215.3343 1092.8369,-201.6831 1089,-188 1073.319,-132.0794 1090.6562,-62.9496 1101.1623,-29.694"/>
<polygon fill="#191970" stroke="#191970" points="1104.5966,-30.4553 1104.4058,-19.8622 1097.949,-28.2622 1104.5966,-30.4553"/>
</g>
<!-- Node37&#45;&gt;Node12 -->
<g id="edge66" class="edge">
<title>Node37&#45;&gt;Node12</title>
<path fill="none" stroke="#191970" d="M1062.2243,-225.1654C1059.1067,-224.7486 1056.0154,-224.3562 1053,-224 854.6265,-200.565 804.0758,-204.4339 605,-188 578.3472,-185.7998 548.3142,-183.2537 525.2175,-181.2812"/>
<polygon fill="#191970" stroke="#191970" points="525.3925,-177.7835 515.1306,-180.4186 524.796,-184.7581 525.3925,-177.7835"/>
</g>
<!-- Node37&#45;&gt;Node25 -->
<g id="edge70" class="edge">
<title>Node37&#45;&gt;Node25</title>
<path fill="none" stroke="#191970" d="M1171.785,-225.2409C1174.9002,-224.8048 1177.9885,-224.3877 1181,-224 1338.289,-203.7516 1390.6426,-251.4118 1536,-188 1560.6812,-177.2329 1583.01,-155.2519 1596.7624,-139.6181"/>
<polygon fill="#191970" stroke="#191970" points="1599.6815,-141.5874 1603.4808,-131.6972 1594.3432,-137.0595 1599.6815,-141.5874"/>
</g>
<!-- Node37&#45;&gt;Node26 -->
<g id="edge71" class="edge">
<title>Node37&#45;&gt;Node26</title>
<path fill="none" stroke="#191970" d="M1067.9945,-224.4827C1031.2954,-216.6382 980.1921,-204.1812 937,-188 898.5565,-173.5978 856.5844,-151.1633 830.7713,-136.5231"/>
<polygon fill="#191970" stroke="#191970" points="832.445,-133.4484 822.0287,-131.5114 828.9636,-139.5213 832.445,-133.4484"/>
</g>
<!-- Node37&#45;&gt;Node31 -->
<g id="edge67" class="edge">
<title>Node37&#45;&gt;Node31</title>
<path fill="none" stroke="#191970" d="M1169.7696,-224.4519C1196.8796,-217.6238 1229.3103,-206.3044 1254,-188 1270.7099,-175.6116 1283.7975,-155.5134 1291.8721,-140.7458"/>
<polygon fill="#191970" stroke="#191970" points="1295.152,-142.0233 1296.6442,-131.534 1288.9365,-138.8034 1295.152,-142.0233"/>
</g>
<!-- Node37&#45;&gt;Node33 -->
<g id="edge73" class="edge">
<title>Node37&#45;&gt;Node33</title>
<path fill="none" stroke="#191970" d="M1171.5367,-225.3727C1234.4427,-215.4215 1337.8269,-199.0669 1405.1586,-188.4156"/>
<polygon fill="#191970" stroke="#191970" points="1405.9023,-191.8416 1415.2326,-186.822 1404.8085,-184.9275 1405.9023,-191.8416"/>
</g>
<!-- Node37&#45;&gt;Node35 -->
<g id="edge72" class="edge">
<title>Node37&#45;&gt;Node35</title>
<path fill="none" stroke="#191970" d="M1088.1989,-224.4694C1066.4771,-216.5424 1036.5096,-203.9859 1013,-188 992.6837,-174.1854 973.1033,-153.8093 960.4125,-139.3574"/>
<polygon fill="#191970" stroke="#191970" points="962.9498,-136.9396 953.783,-131.6274 957.6363,-141.4967 962.9498,-136.9396"/>
</g>
<!-- Node38&#45;&gt;Node5 -->
<g id="edge77" class="edge">
<title>Node38&#45;&gt;Node5</title>
<path fill="none" stroke="#191970" d="M752.4621,-168.3019C723.5933,-146.4979 661.1954,-92.6514 694,-56 719.2809,-27.7546 980.8601,-14.9197 1074.7126,-11.1992"/>
<polygon fill="#191970" stroke="#191970" points="1074.936,-14.6933 1084.7932,-10.8093 1074.6653,-7.6985 1074.936,-14.6933"/>
</g>
<!-- Node38&#45;&gt;Node24 -->
<g id="edge76" class="edge">
<title>Node38&#45;&gt;Node24</title>
<path fill="none" stroke="#191970" d="M760.6373,-168.3494C754.1039,-155.2636 744.7788,-131.3093 752,-112 756.1149,-100.9969 764.1815,-90.8874 771.9994,-82.9652"/>
<polygon fill="#191970" stroke="#191970" points="774.7032,-85.2264 779.5788,-75.82 769.9015,-80.1329 774.7032,-85.2264"/>
</g>
<!-- Node38&#45;&gt;Node26 -->
<g id="edge78" class="edge">
<title>Node38&#45;&gt;Node26</title>
<path fill="none" stroke="#191970" d="M772.9675,-168.2455C778.5311,-160.4564 786.478,-149.3308 793.1829,-139.9439"/>
<polygon fill="#191970" stroke="#191970" points="796.148,-141.8144 799.1124,-131.6427 790.4519,-137.7457 796.148,-141.8144"/>
</g>
</g>
</svg>
