<?xml version="1.0" encoding="UTF-8" standalone="no"?>
<!DOCTYPE svg PUBLIC "-//W3C//DTD SVG 1.1//EN"
 "http://www.w3.org/Graphics/SVG/1.1/DTD/svg11.dtd">
<!-- Generated by graphviz version 2.40.1 (20161225.0304)
 -->
<!-- Title: Logger.cpp Pages: 1 -->
<svg width="3167pt" height="509pt"
 viewBox="0.00 0.00 3166.71 509.00" xmlns="http://www.w3.org/2000/svg" xmlns:xlink="http://www.w3.org/1999/xlink">
<g id="graph0" class="graph" transform="scale(1 1) rotate(0) translate(4 505)">
<title>Logger.cpp</title>
<polygon fill="#ffffff" stroke="transparent" points="-4,4 -4,-505 3162.7071,-505 3162.7071,4 -4,4"/>
<!-- Node1 -->
<g id="node1" class="node">
<title>Node1</title>
<g id="a_node1"><a xlink:title="Implementation of functions defined in Logger.h.">
<polygon fill="#bfbfbf" stroke="#000000" points="1002.2071,-481.5 1002.2071,-500.5 1067.2071,-500.5 1067.2071,-481.5 1002.2071,-481.5"/>
<text text-anchor="middle" x="1034.7071" y="-488.5" font-family="Helvetica,sans-Serif" font-size="10.00" fill="#000000">Logger.cpp</text>
</a>
</g>
</g>
<!-- Node2 -->
<g id="node2" class="node">
<title>Node2</title>
<g id="a_node2"><a xlink:href="Logger_8h.html" target="_top" xlink:title="Define Logger namespace containing logging related declarations and convenience macros.">
<polygon fill="#ffffff" stroke="#000000" points="537.2071,-308 537.2071,-327 652.2071,-327 652.2071,-308 537.2071,-308"/>
<text text-anchor="middle" x="594.7071" y="-315" font-family="Helvetica,sans-Serif" font-size="10.00" fill="#000000">LLU/ErrorLog/Logger.h</text>
</a>
</g>
</g>
<!-- Node1&#45;&gt;Node2 -->
<g id="edge1" class="edge">
<title>Node1&#45;&gt;Node2</title>
<path fill="none" stroke="#191970" d="M1010.424,-481.4248C936.4262,-452.2461 713.6153,-364.3877 628.3753,-330.776"/>
<polygon fill="#191970" stroke="#191970" points="629.5019,-327.458 618.9151,-327.0457 626.934,-333.97 629.5019,-327.458"/>
</g>
<!-- Node37 -->
<g id="node32" class="node">
<title>Node37</title>
<g id="a_node32"><a xlink:href="LibraryLinkFunctionMacro_8h.html" target="_top" xlink:title="Small collection of macros designed to reduce the amount of boilerplate code and to work around certa...">
<polygon fill="#ffffff" stroke="#000000" points="955.7071,-425.5 955.7071,-444.5 1113.7071,-444.5 1113.7071,-425.5 955.7071,-425.5"/>
<text text-anchor="middle" x="1034.7071" y="-432.5" font-family="Helvetica,sans-Serif" font-size="10.00" fill="#000000">LLU/LibraryLinkFunctionMacro.h</text>
</a>
</g>
</g>
<!-- Node1&#45;&gt;Node37 -->
<g id="edge59" class="edge">
<title>Node1&#45;&gt;Node37</title>
<path fill="none" stroke="#191970" d="M1034.7071,-481.2455C1034.7071,-473.9382 1034.7071,-463.6944 1034.7071,-454.7046"/>
<polygon fill="#191970" stroke="#191970" points="1038.2072,-454.6426 1034.7071,-444.6427 1031.2072,-454.6427 1038.2072,-454.6426"/>
</g>
<!-- Node38 -->
<g id="node33" class="node">
<title>Node38</title>
<g id="a_node33"><a xlink:href="MArgumentManager_8h.html" target="_top" xlink:title="Definition of MArgumentManager class.">
<polygon fill="#ffffff" stroke="#000000" points="1643.7071,-425.5 1643.7071,-444.5 1777.7071,-444.5 1777.7071,-425.5 1643.7071,-425.5"/>
<text text-anchor="middle" x="1710.7071" y="-432.5" font-family="Helvetica,sans-Serif" font-size="10.00" fill="#000000">LLU/MArgumentManager.h</text>
</a>
</g>
</g>
<!-- Node1&#45;&gt;Node38 -->
<g id="edge60" class="edge">
<title>Node1&#45;&gt;Node38</title>
<path fill="none" stroke="#191970" d="M1067.312,-488.299C1169.4973,-479.8339 1485.4713,-453.6586 1633.1518,-441.4247"/>
<polygon fill="#191970" stroke="#191970" points="1633.8118,-444.8821 1643.4887,-440.5684 1633.2339,-437.906 1633.8118,-444.8821"/>
</g>
<!-- Node3 -->
<g id="node3" class="node">
<title>Node3</title>
<g id="a_node3"><a xlink:title=" ">
<polygon fill="#ffffff" stroke="#bfbfbf" points="2411.2071,-112.5 2411.2071,-131.5 2484.2071,-131.5 2484.2071,-112.5 2411.2071,-112.5"/>
<text text-anchor="middle" x="2447.7071" y="-119.5" font-family="Helvetica,sans-Serif" font-size="10.00" fill="#000000">initializer_list</text>
</a>
</g>
</g>
<!-- Node2&#45;&gt;Node3 -->
<g id="edge2" class="edge">
<title>Node2&#45;&gt;Node3</title>
<path fill="none" stroke="#191970" d="M652.4108,-316.8904C959.8665,-313.5186 2392.7567,-296.2025 2426.7071,-266 2461.6751,-234.8921 2457.0316,-173.4008 2451.7942,-141.7884"/>
<polygon fill="#191970" stroke="#191970" points="2455.1711,-140.8015 2449.91,-131.6052 2448.2879,-142.0752 2455.1711,-140.8015"/>
</g>
<!-- Node4 -->
<g id="node4" class="node">
<title>Node4</title>
<g id="a_node4"><a xlink:title=" ">
<polygon fill="#ffffff" stroke="#bfbfbf" points="463.7071,-241 463.7071,-260 507.7071,-260 507.7071,-241 463.7071,-241"/>
<text text-anchor="middle" x="485.7071" y="-248" font-family="Helvetica,sans-Serif" font-size="10.00" fill="#000000">mutex</text>
</a>
</g>
</g>
<!-- Node2&#45;&gt;Node4 -->
<g id="edge3" class="edge">
<title>Node2&#45;&gt;Node4</title>
<path fill="none" stroke="#191970" d="M579.09,-307.9005C561.0402,-296.8057 531.1175,-278.4128 510.0163,-265.4424"/>
<polygon fill="#191970" stroke="#191970" points="511.6473,-262.3366 501.2951,-260.0817 507.9816,-268.3001 511.6473,-262.3366"/>
</g>
<!-- Node5 -->
<g id="node5" class="node">
<title>Node5</title>
<g id="a_node5"><a xlink:title=" ">
<polygon fill="#ffffff" stroke="#bfbfbf" points="392.2071,-.5 392.2071,-19.5 433.2071,-19.5 433.2071,-.5 392.2071,-.5"/>
<text text-anchor="middle" x="412.7071" y="-7.5" font-family="Helvetica,sans-Serif" font-size="10.00" fill="#000000">string</text>
</a>
</g>
</g>
<!-- Node2&#45;&gt;Node5 -->
<g id="edge4" class="edge">
<title>Node2&#45;&gt;Node5</title>
<path fill="none" stroke="#191970" d="M537.1345,-314.4957C405.0104,-306.2747 86.4145,-278.4586 21.7071,-199 -25.7125,-140.7703 43.9955,-88.4724 111.7071,-56 159.1169,-33.2637 314.5943,-18.0867 381.5641,-12.4495"/>
<polygon fill="#191970" stroke="#191970" points="382.2137,-15.9078 391.8919,-11.597 381.6378,-8.9316 382.2137,-15.9078"/>
</g>
<!-- Node6 -->
<g id="node6" class="node">
<title>Node6</title>
<g id="a_node6"><a xlink:title=" ">
<polygon fill="#ffffff" stroke="#bfbfbf" points="1228.7071,-56.5 1228.7071,-75.5 1268.7071,-75.5 1268.7071,-56.5 1228.7071,-56.5"/>
<text text-anchor="middle" x="1248.7071" y="-63.5" font-family="Helvetica,sans-Serif" font-size="10.00" fill="#000000">utility</text>
</a>
</g>
</g>
<!-- Node2&#45;&gt;Node6 -->
<g id="edge5" class="edge">
<title>Node2&#45;&gt;Node6</title>
<path fill="none" stroke="#191970" d="M652.3753,-308.665C720.6606,-295.5341 834.3565,-264.9392 907.7071,-199 939.931,-170.032 916.6467,-137.4618 951.7071,-112 993.8989,-81.3592 1151.2522,-70.5237 1218.2222,-67.2453"/>
<polygon fill="#191970" stroke="#191970" points="1218.7045,-70.7268 1228.5311,-66.7659 1218.3793,-63.7343 1218.7045,-70.7268"/>
</g>
<!-- Node7 -->
<g id="node7" class="node">
<title>Node7</title>
<g id="a_node7"><a xlink:href="LibraryData_8h.html" target="_top" xlink:title=" ">
<polygon fill="#ffffff" stroke="#000000" points="2671.7071,-56.5 2671.7071,-75.5 2767.7071,-75.5 2767.7071,-56.5 2671.7071,-56.5"/>
<text text-anchor="middle" x="2719.7071" y="-63.5" font-family="Helvetica,sans-Serif" font-size="10.00" fill="#000000">LLU/LibraryData.h</text>
</a>
</g>
</g>
<!-- Node2&#45;&gt;Node7 -->
<g id="edge6" class="edge">
<title>Node2&#45;&gt;Node7</title>
<path fill="none" stroke="#191970" d="M652.3791,-316.6615C975.15,-311.8919 2546.7333,-287.6307 2646.7071,-266 2721.2571,-249.8701 2762.5966,-262.5971 2804.7071,-199 2811.6315,-188.5424 2809.4966,-124.5204 2801.7071,-112 2792.4955,-97.1939 2776.6927,-86.7346 2761.4036,-79.5725"/>
<polygon fill="#191970" stroke="#191970" points="2762.5829,-76.2697 2752.0139,-75.5299 2759.8147,-82.6991 2762.5829,-76.2697"/>
</g>
<!-- Node16 -->
<g id="node16" class="node">
<title>Node16</title>
<g id="a_node16"><a xlink:href="WSStream_8hpp.html" target="_top" xlink:title="Header file for WSStream class.">
<polygon fill="#ffffff" stroke="#000000" points="526.2071,-241 526.2071,-260 663.2071,-260 663.2071,-241 526.2071,-241"/>
<text text-anchor="middle" x="594.7071" y="-248" font-family="Helvetica,sans-Serif" font-size="10.00" fill="#000000">LLU/WSTP/WSStream.hpp</text>
</a>
</g>
</g>
<!-- Node2&#45;&gt;Node16 -->
<g id="edge15" class="edge">
<title>Node2&#45;&gt;Node16</title>
<path fill="none" stroke="#191970" d="M594.7071,-307.9005C594.7071,-298.149 594.7071,-282.7597 594.7071,-270.3695"/>
<polygon fill="#191970" stroke="#191970" points="598.2072,-270.0816 594.7071,-260.0817 591.2072,-270.0817 598.2072,-270.0816"/>
</g>
<!-- Node8 -->
<g id="node8" class="node">
<title>Node8</title>
<g id="a_node8"><a xlink:title=" ">
<polygon fill="#ffffff" stroke="#bfbfbf" points="2308.7071,-.5 2308.7071,-19.5 2360.7071,-19.5 2360.7071,-.5 2308.7071,-.5"/>
<text text-anchor="middle" x="2334.7071" y="-7.5" font-family="Helvetica,sans-Serif" font-size="10.00" fill="#000000">memory</text>
</a>
</g>
</g>
<!-- Node7&#45;&gt;Node8 -->
<g id="edge7" class="edge">
<title>Node7&#45;&gt;Node8</title>
<path fill="none" stroke="#191970" d="M2671.6687,-58.0811C2666.9544,-57.3553 2662.24,-56.6497 2657.7071,-56 2530.4522,-37.7621 2496.7539,-45.2709 2370.7071,-20 2370.6077,-19.9801 2370.5082,-19.96 2370.4086,-19.9398"/>
<polygon fill="#191970" stroke="#191970" points="2371.476,-16.594 2360.9462,-17.7661 2369.9087,-23.4163 2371.476,-16.594"/>
</g>
<!-- Node9 -->
<g id="node9" class="node">
<title>Node9</title>
<g id="a_node9"><a xlink:title=" ">
<polygon fill="#ffffff" stroke="#bfbfbf" points="2688.7071,-.5 2688.7071,-19.5 2750.7071,-19.5 2750.7071,-.5 2688.7071,-.5"/>
<text text-anchor="middle" x="2719.7071" y="-7.5" font-family="Helvetica,sans-Serif" font-size="10.00" fill="#000000">dllexport.h</text>
</a>
</g>
</g>
<!-- Node7&#45;&gt;Node9 -->
<g id="edge8" class="edge">
<title>Node7&#45;&gt;Node9</title>
<path fill="none" stroke="#191970" d="M2719.7071,-56.2455C2719.7071,-48.9382 2719.7071,-38.6944 2719.7071,-29.7046"/>
<polygon fill="#191970" stroke="#191970" points="2723.2072,-29.6426 2719.7071,-19.6427 2716.2072,-29.6427 2723.2072,-29.6426"/>
</g>
<!-- Node10 -->
<g id="node10" class="node">
<title>Node10</title>
<g id="a_node10"><a xlink:title=" ">
<polygon fill="#ffffff" stroke="#bfbfbf" points="69.7071,-.5 69.7071,-19.5 115.7071,-19.5 115.7071,-.5 69.7071,-.5"/>
<text text-anchor="middle" x="92.7071" y="-7.5" font-family="Helvetica,sans-Serif" font-size="10.00" fill="#000000">wstp.h</text>
</a>
</g>
</g>
<!-- Node7&#45;&gt;Node10 -->
<g id="edge9" class="edge">
<title>Node7&#45;&gt;Node10</title>
<path fill="none" stroke="#191970" d="M2671.5802,-65.3171C2427.6103,-61.7998 1303.046,-44.9242 382.7071,-20 289.7009,-17.4812 179.9546,-13.392 126.0288,-11.3093"/>
<polygon fill="#191970" stroke="#191970" points="126.1376,-7.811 116.0094,-10.9205 125.8662,-14.8057 126.1376,-7.811"/>
</g>
<!-- Node11 -->
<g id="node11" class="node">
<title>Node11</title>
<g id="a_node11"><a xlink:title=" ">
<polygon fill="#ffffff" stroke="#bfbfbf" points="2769.2071,-.5 2769.2071,-19.5 2860.2071,-19.5 2860.2071,-.5 2769.2071,-.5"/>
<text text-anchor="middle" x="2814.7071" y="-7.5" font-family="Helvetica,sans-Serif" font-size="10.00" fill="#000000">WolframLibrary.h</text>
</a>
</g>
</g>
<!-- Node7&#45;&gt;Node11 -->
<g id="edge10" class="edge">
<title>Node7&#45;&gt;Node11</title>
<path fill="none" stroke="#191970" d="M2736.2548,-56.2455C2750.967,-47.5731 2772.6958,-34.7645 2789.5576,-24.825"/>
<polygon fill="#191970" stroke="#191970" points="2791.5116,-27.736 2798.349,-19.6427 2787.9569,-21.7057 2791.5116,-27.736"/>
</g>
<!-- Node12 -->
<g id="node12" class="node">
<title>Node12</title>
<g id="a_node12"><a xlink:title=" ">
<polygon fill="#ffffff" stroke="#bfbfbf" points="2878.7071,-.5 2878.7071,-19.5 3022.7071,-19.5 3022.7071,-.5 2878.7071,-.5"/>
<text text-anchor="middle" x="2950.7071" y="-7.5" font-family="Helvetica,sans-Serif" font-size="10.00" fill="#000000">WolframIOLibraryFunctions.h</text>
</a>
</g>
</g>
<!-- Node7&#45;&gt;Node12 -->
<g id="edge11" class="edge">
<title>Node7&#45;&gt;Node12</title>
<path fill="none" stroke="#191970" d="M2759.1549,-56.4369C2798.5227,-46.8932 2859.1105,-32.2052 2901.5779,-21.9101"/>
<polygon fill="#191970" stroke="#191970" points="2902.5281,-25.2812 2911.4219,-19.5237 2900.8788,-18.4783 2902.5281,-25.2812"/>
</g>
<!-- Node13 -->
<g id="node13" class="node">
<title>Node13</title>
<g id="a_node13"><a xlink:title=" ">
<polygon fill="#ffffff" stroke="#bfbfbf" points="3040.7071,-.5 3040.7071,-19.5 3158.7071,-19.5 3158.7071,-.5 3040.7071,-.5"/>
<text text-anchor="middle" x="3099.7071" y="-7.5" font-family="Helvetica,sans-Serif" font-size="10.00" fill="#000000">WolframImageLibrary.h</text>
</a>
</g>
</g>
<!-- Node7&#45;&gt;Node13 -->
<g id="edge12" class="edge">
<title>Node7&#45;&gt;Node13</title>
<path fill="none" stroke="#191970" d="M2767.8343,-58.9076C2834.2523,-49.1196 2954.4081,-31.4125 3030.4687,-20.2036"/>
<polygon fill="#191970" stroke="#191970" points="3031.0552,-23.655 3040.438,-18.7344 3030.0346,-16.7298 3031.0552,-23.655"/>
</g>
<!-- Node14 -->
<g id="node14" class="node">
<title>Node14</title>
<g id="a_node14"><a xlink:title=" ">
<polygon fill="#ffffff" stroke="#bfbfbf" points="2379.2071,-.5 2379.2071,-19.5 2530.2071,-19.5 2530.2071,-.5 2379.2071,-.5"/>
<text text-anchor="middle" x="2454.7071" y="-7.5" font-family="Helvetica,sans-Serif" font-size="10.00" fill="#000000">WolframNumericArrayLibrary.h</text>
</a>
</g>
</g>
<!-- Node7&#45;&gt;Node14 -->
<g id="edge13" class="edge">
<title>Node7&#45;&gt;Node14</title>
<path fill="none" stroke="#191970" d="M2674.4531,-56.4369C2628.9098,-46.8127 2558.6106,-31.957 2509.8385,-21.6504"/>
<polygon fill="#191970" stroke="#191970" points="2510.282,-18.1669 2499.7744,-19.5237 2508.8347,-25.0157 2510.282,-18.1669"/>
</g>
<!-- Node15 -->
<g id="node15" class="node">
<title>Node15</title>
<g id="a_node15"><a xlink:title=" ">
<polygon fill="#ffffff" stroke="#bfbfbf" points="2548.7071,-.5 2548.7071,-19.5 2670.7071,-19.5 2670.7071,-.5 2548.7071,-.5"/>
<text text-anchor="middle" x="2609.7071" y="-7.5" font-family="Helvetica,sans-Serif" font-size="10.00" fill="#000000">WolframSparseLibrary.h</text>
</a>
</g>
</g>
<!-- Node7&#45;&gt;Node15 -->
<g id="edge14" class="edge">
<title>Node7&#45;&gt;Node15</title>
<path fill="none" stroke="#191970" d="M2700.5465,-56.2455C2683.196,-47.4125 2657.417,-34.2887 2637.7488,-24.2758"/>
<polygon fill="#191970" stroke="#191970" points="2639.1476,-21.0605 2628.648,-19.6427 2635.9718,-27.2986 2639.1476,-21.0605"/>
</g>
<!-- Node16&#45;&gt;Node6 -->
<g id="edge21" class="edge">
<title>Node16&#45;&gt;Node6</title>
<path fill="none" stroke="#191970" d="M607.7488,-240.9999C620.2035,-231.4399 638.9187,-215.7478 651.7071,-199 678.0039,-164.5615 659.7691,-136.2073 695.7071,-112 739.2521,-82.6687 1109.6171,-69.9357 1218.6354,-66.8012"/>
<polygon fill="#191970" stroke="#191970" points="1218.7376,-70.2998 1228.6351,-66.5198 1218.5406,-63.3026 1218.7376,-70.2998"/>
</g>
<!-- Node16&#45;&gt;Node10 -->
<g id="edge23" class="edge">
<title>Node16&#45;&gt;Node10</title>
<path fill="none" stroke="#191970" d="M551.5462,-240.9349C540.2547,-238.7044 528.0631,-236.5353 516.7071,-235 462.059,-227.6118 59.2598,-239.383 21.7071,-199 2.7909,-178.6582 -19.9505,-150.7372 32.7071,-56 39.9228,-43.018 52.4823,-32.5251 64.2517,-24.8573"/>
<polygon fill="#191970" stroke="#191970" points="66.2636,-27.7305 72.9963,-19.5499 62.6316,-21.7464 66.2636,-27.7305"/>
</g>
<!-- Node17 -->
<g id="node17" class="node">
<title>Node17</title>
<g id="a_node17"><a xlink:title=" ">
<polygon fill="#ffffff" stroke="#bfbfbf" points="587.7071,-112.5 587.7071,-131.5 643.7071,-131.5 643.7071,-112.5 587.7071,-112.5"/>
<text text-anchor="middle" x="615.7071" y="-119.5" font-family="Helvetica,sans-Serif" font-size="10.00" fill="#000000">algorithm</text>
</a>
</g>
</g>
<!-- Node16&#45;&gt;Node17 -->
<g id="edge16" class="edge">
<title>Node16&#45;&gt;Node17</title>
<path fill="none" stroke="#191970" d="M578.7671,-240.9394C565.5234,-231.9777 547.6168,-217.2424 539.7071,-199 534.2262,-186.3593 532.9419,-180.0025 539.7071,-168 548.0936,-153.1209 563.4463,-142.5068 578.1688,-135.252"/>
<polygon fill="#191970" stroke="#191970" points="580.0007,-138.2651 587.6731,-130.9586 577.1189,-131.8858 580.0007,-138.2651"/>
</g>
<!-- Node18 -->
<g id="node18" class="node">
<title>Node18</title>
<g id="a_node18"><a xlink:title=" ">
<polygon fill="#ffffff" stroke="#bfbfbf" points="1346.2071,-174 1346.2071,-193 1393.2071,-193 1393.2071,-174 1346.2071,-174"/>
<text text-anchor="middle" x="1369.7071" y="-181" font-family="Helvetica,sans-Serif" font-size="10.00" fill="#000000">iterator</text>
</a>
</g>
</g>
<!-- Node16&#45;&gt;Node18 -->
<g id="edge17" class="edge">
<title>Node16&#45;&gt;Node18</title>
<path fill="none" stroke="#191970" d="M663.3395,-246.4548C783.5553,-239.0787 1039.9627,-222.0522 1255.7071,-199 1282.7968,-196.1055 1313.382,-191.8952 1336.0475,-188.593"/>
<polygon fill="#191970" stroke="#191970" points="1336.7918,-192.0212 1346.175,-187.1012 1335.7716,-185.0959 1336.7918,-192.0212"/>
</g>
<!-- Node19 -->
<g id="node19" class="node">
<title>Node19</title>
<g id="a_node19"><a xlink:title=" ">
<polygon fill="#ffffff" stroke="#bfbfbf" points="549.2071,-174 549.2071,-193 584.2071,-193 584.2071,-174 549.2071,-174"/>
<text text-anchor="middle" x="566.7071" y="-181" font-family="Helvetica,sans-Serif" font-size="10.00" fill="#000000">map</text>
</a>
</g>
</g>
<!-- Node16&#45;&gt;Node19 -->
<g id="edge18" class="edge">
<title>Node16&#45;&gt;Node19</title>
<path fill="none" stroke="#191970" d="M590.6954,-240.9005C586.5369,-230.95 579.9253,-215.1292 574.6953,-202.6147"/>
<polygon fill="#191970" stroke="#191970" points="577.7967,-200.9588 570.7113,-193.0817 571.338,-203.658 577.7967,-200.9588"/>
</g>
<!-- Node20 -->
<g id="node20" class="node">
<title>Node20</title>
<g id="a_node20"><a xlink:title=" ">
<polygon fill="#ffffff" stroke="#bfbfbf" points="602.2071,-174 602.2071,-193 643.2071,-193 643.2071,-174 602.2071,-174"/>
<text text-anchor="middle" x="622.7071" y="-181" font-family="Helvetica,sans-Serif" font-size="10.00" fill="#000000">stack</text>
</a>
</g>
</g>
<!-- Node16&#45;&gt;Node20 -->
<g id="edge19" class="edge">
<title>Node16&#45;&gt;Node20</title>
<path fill="none" stroke="#191970" d="M598.7188,-240.9005C602.8772,-230.95 609.4889,-215.1292 614.7188,-202.6147"/>
<polygon fill="#191970" stroke="#191970" points="618.0762,-203.658 618.7028,-193.0817 611.6175,-200.9588 618.0762,-203.658"/>
</g>
<!-- Node21 -->
<g id="node21" class="node">
<title>Node21</title>
<g id="a_node21"><a xlink:title=" ">
<polygon fill="#ffffff" stroke="#bfbfbf" points="1623.7071,-56.5 1623.7071,-75.5 1685.7071,-75.5 1685.7071,-56.5 1623.7071,-56.5"/>
<text text-anchor="middle" x="1654.7071" y="-63.5" font-family="Helvetica,sans-Serif" font-size="10.00" fill="#000000">type_traits</text>
</a>
</g>
</g>
<!-- Node16&#45;&gt;Node21 -->
<g id="edge20" class="edge">
<title>Node16&#45;&gt;Node21</title>
<path fill="none" stroke="#191970" d="M609.7792,-240.7438C642.0496,-219.9252 715.9381,-172.6562 728.7071,-168 1086.1128,-37.6732 1201.3436,-115.5603 1579.7071,-76 1590.5978,-74.8613 1602.3483,-73.4039 1613.2438,-71.956"/>
<polygon fill="#191970" stroke="#191970" points="1613.9337,-75.3946 1623.3722,-70.5815 1612.9923,-68.4582 1613.9337,-75.3946"/>
</g>
<!-- Node22 -->
<g id="node22" class="node">
<title>Node22</title>
<g id="a_node22"><a xlink:title=" ">
<polygon fill="#ffffff" stroke="#bfbfbf" points="1245.7071,-112.5 1245.7071,-131.5 1289.7071,-131.5 1289.7071,-112.5 1245.7071,-112.5"/>
<text text-anchor="middle" x="1267.7071" y="-119.5" font-family="Helvetica,sans-Serif" font-size="10.00" fill="#000000">vector</text>
</a>
</g>
</g>
<!-- Node16&#45;&gt;Node22 -->
<g id="edge22" class="edge">
<title>Node16&#45;&gt;Node22</title>
<path fill="none" stroke="#191970" d="M658.1092,-240.9751C721.4502,-231.2461 821.5338,-215.2955 907.7071,-199 971.2854,-186.9772 1159.4944,-145.8045 1235.4151,-129.1136"/>
<polygon fill="#191970" stroke="#191970" points="1236.3434,-132.4931 1245.358,-126.9265 1234.8395,-125.6566 1236.3434,-132.4931"/>
</g>
<!-- Node23 -->
<g id="node23" class="node">
<title>Node23</title>
<g id="a_node23"><a xlink:href="Errors_8h.html" target="_top" xlink:title="Definitions of error names and error codes used across LLU.">
<polygon fill="#ffffff" stroke="#000000" points="120.7071,-56.5 120.7071,-75.5 232.7071,-75.5 232.7071,-56.5 120.7071,-56.5"/>
<text text-anchor="middle" x="176.7071" y="-63.5" font-family="Helvetica,sans-Serif" font-size="10.00" fill="#000000">LLU/ErrorLog/Errors.h</text>
</a>
</g>
</g>
<!-- Node16&#45;&gt;Node23 -->
<g id="edge24" class="edge">
<title>Node16&#45;&gt;Node23</title>
<path fill="none" stroke="#191970" d="M551.544,-240.9512C540.2525,-238.7205 528.0615,-236.5472 516.7071,-235 463.6039,-227.7637 72.1621,-238.2854 35.7071,-199 -7.2634,-152.6933 88.6107,-102.7806 142.8032,-79.452"/>
<polygon fill="#191970" stroke="#191970" points="144.2193,-82.6533 152.0747,-75.544 141.5004,-76.2029 144.2193,-82.6533"/>
</g>
<!-- Node24 -->
<g id="node24" class="node">
<title>Node24</title>
<g id="a_node24"><a xlink:href="Utilities_8hpp.html" target="_top" xlink:title="Short but generally useful functions.">
<polygon fill="#ffffff" stroke="#ff0000" points="1610.2071,-112.5 1610.2071,-131.5 1699.2071,-131.5 1699.2071,-112.5 1610.2071,-112.5"/>
<text text-anchor="middle" x="1654.7071" y="-119.5" font-family="Helvetica,sans-Serif" font-size="10.00" fill="#000000">LLU/Utilities.hpp</text>
</a>
</g>
</g>
<!-- Node16&#45;&gt;Node24 -->
<g id="edge26" class="edge">
<title>Node16&#45;&gt;Node24</title>
<path fill="none" stroke="#191970" d="M663.5337,-248.9827C779.6482,-245.5044 1021.4872,-234.3007 1222.7071,-199 1274.4238,-189.9271 1285.2955,-178.6672 1336.7071,-168 1428.2856,-148.9987 1536.3135,-135.1552 1599.9609,-127.864"/>
<polygon fill="#191970" stroke="#191970" points="1600.6253,-131.3112 1610.1676,-126.7074 1599.837,-124.3557 1600.6253,-131.3112"/>
</g>
<!-- Node28 -->
<g id="node27" class="node">
<title>Node28</title>
<g id="a_node27"><a xlink:href="Get_8h.html" target="_top" xlink:title="Header file with classes related to reading data from WSTP.">
<polygon fill="#ffffff" stroke="#ff0000" points="194.7071,-174 194.7071,-193 288.7071,-193 288.7071,-174 194.7071,-174"/>
<text text-anchor="middle" x="241.7071" y="-181" font-family="Helvetica,sans-Serif" font-size="10.00" fill="#000000">LLU/WSTP/Get.h</text>
</a>
</g>
</g>
<!-- Node16&#45;&gt;Node28 -->
<g id="edge32" class="edge">
<title>Node16&#45;&gt;Node28</title>
<path fill="none" stroke="#191970" d="M547.2881,-240.9901C537.1979,-238.9908 526.6032,-236.9098 516.7071,-235 441.5021,-220.4862 354.6069,-204.3129 298.9562,-194.031"/>
<polygon fill="#191970" stroke="#191970" points="299.4077,-190.5553 288.9384,-192.1814 298.1367,-197.4389 299.4077,-190.5553"/>
</g>
<!-- Node31 -->
<g id="node28" class="node">
<title>Node31</title>
<g id="a_node28"><a xlink:href="WSTP_2Utilities_8h.html" target="_top" xlink:title="Header file with miscellaneous utilities used throughout the WSTP&#45;related part of LibraryLinkUtilitie...">
<polygon fill="#ffffff" stroke="#ff0000" points="121.2071,-112.5 121.2071,-131.5 232.2071,-131.5 232.2071,-112.5 121.2071,-112.5"/>
<text text-anchor="middle" x="176.7071" y="-119.5" font-family="Helvetica,sans-Serif" font-size="10.00" fill="#000000">LLU/WSTP/Utilities.h</text>
</a>
</g>
</g>
<!-- Node16&#45;&gt;Node31 -->
<g id="edge54" class="edge">
<title>Node16&#45;&gt;Node31</title>
<path fill="none" stroke="#191970" d="M550.2784,-240.9702C539.3357,-238.817 527.6245,-236.6751 516.7071,-235 443.5736,-223.7787 238.2348,-251.1081 185.7071,-199 170.9714,-184.382 170.7236,-159.4325 172.8559,-141.9042"/>
<polygon fill="#191970" stroke="#191970" points="176.3739,-142.0632 174.4724,-131.6404 169.4591,-140.9741 176.3739,-142.0632"/>
</g>
<!-- Node34 -->
<g id="node29" class="node">
<title>Node34</title>
<g id="a_node29"><a xlink:href="Put_8h.html" target="_top" xlink:title="Header file with classes related to sending data through WSTP.">
<polygon fill="#ffffff" stroke="#ff0000" points="45.2071,-174 45.2071,-193 138.2071,-193 138.2071,-174 45.2071,-174"/>
<text text-anchor="middle" x="91.7071" y="-181" font-family="Helvetica,sans-Serif" font-size="10.00" fill="#000000">LLU/WSTP/Put.h</text>
</a>
</g>
</g>
<!-- Node16&#45;&gt;Node34 -->
<g id="edge42" class="edge">
<title>Node16&#45;&gt;Node34</title>
<path fill="none" stroke="#191970" d="M550.6998,-240.9754C539.6397,-238.7968 527.7691,-236.6421 516.7071,-235 355.9022,-211.1289 312.8277,-227.0971 152.7071,-199 146.9845,-197.9958 141.0076,-196.7401 135.1288,-195.3807"/>
<polygon fill="#191970" stroke="#191970" points="135.9332,-191.9744 125.3902,-193.021 134.2847,-198.7775 135.9332,-191.9744"/>
</g>
<!-- Node35 -->
<g id="node30" class="node">
<title>Node35</title>
<g id="a_node30"><a xlink:href="Strings_8h.html" target="_top" xlink:title="Definitions of multiple structures and type aliases related to string handling in WSTP.">
<polygon fill="#ffffff" stroke="#ff0000" points="383.2071,-174 383.2071,-193 492.2071,-193 492.2071,-174 383.2071,-174"/>
<text text-anchor="middle" x="437.7071" y="-181" font-family="Helvetica,sans-Serif" font-size="10.00" fill="#000000">LLU/WSTP/Strings.h</text>
</a>
</g>
</g>
<!-- Node16&#45;&gt;Node35 -->
<g id="edge47" class="edge">
<title>Node16&#45;&gt;Node35</title>
<path fill="none" stroke="#191970" d="M572.2128,-240.9005C545.2817,-229.4077 500.0004,-210.0838 469.5007,-197.068"/>
<polygon fill="#191970" stroke="#191970" points="470.7309,-193.7876 460.1596,-193.0817 467.9833,-200.2259 470.7309,-193.7876"/>
</g>
<!-- Node36 -->
<g id="node31" class="node">
<title>Node36</title>
<g id="a_node31"><a xlink:href="UtilityTypeTraits_8hpp.html" target="_top" xlink:title="Type traits used by WSStream to identify types supported by WSTP.">
<polygon fill="#ffffff" stroke="#000000" points="738.2071,-174 738.2071,-193 899.2071,-193 899.2071,-174 738.2071,-174"/>
<text text-anchor="middle" x="818.7071" y="-181" font-family="Helvetica,sans-Serif" font-size="10.00" fill="#000000">LLU/WSTP/UtilityTypeTraits.hpp</text>
</a>
</g>
</g>
<!-- Node16&#45;&gt;Node36 -->
<g id="edge55" class="edge">
<title>Node16&#45;&gt;Node36</title>
<path fill="none" stroke="#191970" d="M626.8008,-240.9005C666.3059,-229.0843 733.4865,-208.9901 776.9677,-195.9845"/>
<polygon fill="#191970" stroke="#191970" points="778.0952,-199.3006 786.6729,-193.0817 776.0893,-192.5941 778.0952,-199.3006"/>
</g>
<!-- Node23&#45;&gt;Node5 -->
<g id="edge25" class="edge">
<title>Node23&#45;&gt;Node5</title>
<path fill="none" stroke="#191970" d="M217.0088,-56.4369C263.734,-45.3496 339.7187,-27.3193 381.9441,-17.2997"/>
<polygon fill="#191970" stroke="#191970" points="382.9919,-20.6483 391.9136,-14.934 381.3757,-13.8374 382.9919,-20.6483"/>
</g>
<!-- Node24&#45;&gt;Node6 -->
<g id="edge30" class="edge">
<title>Node24&#45;&gt;Node6</title>
<path fill="none" stroke="#191970" d="M1610.0966,-115.8468C1526.8248,-104.3611 1349.7624,-79.9387 1278.9239,-70.1678"/>
<polygon fill="#191970" stroke="#191970" points="1279.2658,-66.6819 1268.8813,-68.7827 1278.3093,-73.6163 1279.2658,-66.6819"/>
</g>
<!-- Node24&#45;&gt;Node7 -->
<g id="edge31" class="edge">
<title>Node24&#45;&gt;Node7</title>
<path fill="none" stroke="#191970" d="M1699.4502,-119.6473C1868.8577,-110.7395 2470.9387,-79.0808 2661.457,-69.0629"/>
<polygon fill="#191970" stroke="#191970" points="2661.7474,-72.5526 2671.5497,-68.5322 2661.3797,-65.5622 2661.7474,-72.5526"/>
</g>
<!-- Node24&#45;&gt;Node21 -->
<g id="edge29" class="edge">
<title>Node24&#45;&gt;Node21</title>
<path fill="none" stroke="#191970" d="M1654.7071,-112.2455C1654.7071,-104.9382 1654.7071,-94.6944 1654.7071,-85.7046"/>
<polygon fill="#191970" stroke="#191970" points="1658.2072,-85.6426 1654.7071,-75.6427 1651.2072,-85.6427 1658.2072,-85.6426"/>
</g>
<!-- Node25 -->
<g id="node25" class="node">
<title>Node25</title>
<g id="a_node25"><a xlink:title=" ">
<polygon fill="#ffffff" stroke="#bfbfbf" points="1517.2071,-56.5 1517.2071,-75.5 1570.2071,-75.5 1570.2071,-56.5 1517.2071,-56.5"/>
<text text-anchor="middle" x="1543.7071" y="-63.5" font-family="Helvetica,sans-Serif" font-size="10.00" fill="#000000">complex</text>
</a>
</g>
</g>
<!-- Node24&#45;&gt;Node25 -->
<g id="edge27" class="edge">
<title>Node24&#45;&gt;Node25</title>
<path fill="none" stroke="#191970" d="M1635.6255,-112.3733C1617.9669,-103.4644 1591.5018,-90.1127 1571.4973,-80.0203"/>
<polygon fill="#191970" stroke="#191970" points="1573.0443,-76.8806 1562.5397,-75.5011 1569.8913,-83.1303 1573.0443,-76.8806"/>
</g>
<!-- Node26 -->
<g id="node26" class="node">
<title>Node26</title>
<g id="a_node26"><a xlink:title=" ">
<polygon fill="#ffffff" stroke="#bfbfbf" points="2854.7071,-56.5 2854.7071,-75.5 2900.7071,-75.5 2900.7071,-56.5 2854.7071,-56.5"/>
<text text-anchor="middle" x="2877.7071" y="-63.5" font-family="Helvetica,sans-Serif" font-size="10.00" fill="#000000">cstdint</text>
</a>
</g>
</g>
<!-- Node24&#45;&gt;Node26 -->
<g id="edge28" class="edge">
<title>Node24&#45;&gt;Node26</title>
<path fill="none" stroke="#191970" d="M1699.3871,-121.0945C1850.7956,-117.8281 2358.3316,-105.2635 2776.7071,-76 2799.3546,-74.4159 2824.7893,-71.8933 2844.4688,-69.7781"/>
<polygon fill="#191970" stroke="#191970" points="2844.9116,-73.2506 2854.4722,-68.685 2844.1511,-66.2921 2844.9116,-73.2506"/>
</g>
<!-- Node28&#45;&gt;Node5 -->
<g id="edge34" class="edge">
<title>Node28&#45;&gt;Node5</title>
<path fill="none" stroke="#191970" d="M251.1444,-173.9248C278.874,-145.7897 360.3749,-63.0973 395.8678,-27.0855"/>
<polygon fill="#191970" stroke="#191970" points="398.5614,-29.3386 403.0882,-19.7595 393.5758,-24.4249 398.5614,-29.3386"/>
</g>
<!-- Node28&#45;&gt;Node8 -->
<g id="edge33" class="edge">
<title>Node28&#45;&gt;Node8</title>
<path fill="none" stroke="#191970" d="M274.4458,-173.9974C326.7456,-159.09 432.543,-130.0498 523.7071,-112 695.4837,-77.9896 739.2657,-71.3005 913.7071,-56 1194.3973,-31.3802 2104.641,-14.0871 2298.2773,-10.634"/>
<polygon fill="#191970" stroke="#191970" points="2298.5458,-14.1299 2308.4821,-10.4531 2298.4216,-7.131 2298.5458,-14.1299"/>
</g>
<!-- Node28&#45;&gt;Node10 -->
<g id="edge35" class="edge">
<title>Node28&#45;&gt;Node10</title>
<path fill="none" stroke="#191970" d="M194.6131,-175.9238C166.7228,-169.0449 132.8195,-156.1059 111.7071,-132 86.7445,-103.498 87.1945,-56.1967 89.8655,-29.642"/>
<polygon fill="#191970" stroke="#191970" points="93.3481,-29.9958 91.0785,-19.6469 86.3991,-29.1523 93.3481,-29.9958"/>
</g>
<!-- Node28&#45;&gt;Node23 -->
<g id="edge36" class="edge">
<title>Node28&#45;&gt;Node23</title>
<path fill="none" stroke="#191970" d="M244.2275,-173.5752C247.3376,-159.1122 251.0416,-131.8126 240.7071,-112 233.6797,-98.5277 220.7066,-88.0879 208.2682,-80.5847"/>
<polygon fill="#191970" stroke="#191970" points="209.8369,-77.4521 199.3983,-75.6388 206.4278,-83.5658 209.8369,-77.4521"/>
</g>
<!-- Node28&#45;&gt;Node24 -->
<g id="edge37" class="edge">
<title>Node28&#45;&gt;Node24</title>
<path fill="none" stroke="#191970" d="M288.9653,-177.0107C314.0877,-173.799 345.5237,-170.1572 373.7071,-168 496.9725,-158.5652 1371.399,-130.8513 1600.0879,-123.6996"/>
<polygon fill="#191970" stroke="#191970" points="1600.2839,-127.1953 1610.1697,-123.3845 1600.0652,-120.1987 1600.2839,-127.1953"/>
</g>
<!-- Node28&#45;&gt;Node31 -->
<g id="edge38" class="edge">
<title>Node28&#45;&gt;Node31</title>
<path fill="none" stroke="#191970" d="M231.5508,-173.8906C221.6872,-164.5581 206.5016,-150.1902 194.6084,-138.9374"/>
<polygon fill="#191970" stroke="#191970" points="196.676,-136.0753 187.0065,-131.7449 191.865,-141.1601 196.676,-136.0753"/>
</g>
<!-- Node31&#45;&gt;Node5 -->
<g id="edge39" class="edge">
<title>Node31&#45;&gt;Node5</title>
<path fill="none" stroke="#191970" d="M196.8283,-112.4509C238.6286,-92.6135 335.0044,-46.8758 383.5877,-23.8194"/>
<polygon fill="#191970" stroke="#191970" points="385.1031,-26.9744 392.6368,-19.5249 382.1019,-20.6504 385.1031,-26.9744"/>
</g>
<!-- Node31&#45;&gt;Node10 -->
<g id="edge40" class="edge">
<title>Node31&#45;&gt;Node10</title>
<path fill="none" stroke="#191970" d="M156.5855,-112.4453C142.0955,-104.5817 123.1553,-92.1172 111.7071,-76 102.0089,-62.3466 97.2332,-43.8082 94.8979,-29.8549"/>
<polygon fill="#191970" stroke="#191970" points="98.3475,-29.2498 93.5008,-19.8285 91.4145,-30.2159 98.3475,-29.2498"/>
</g>
<!-- Node31&#45;&gt;Node23 -->
<g id="edge41" class="edge">
<title>Node31&#45;&gt;Node23</title>
<path fill="none" stroke="#191970" d="M176.7071,-112.2455C176.7071,-104.9382 176.7071,-94.6944 176.7071,-85.7046"/>
<polygon fill="#191970" stroke="#191970" points="180.2072,-85.6426 176.7071,-75.6427 173.2072,-85.6427 180.2072,-85.6426"/>
</g>
<!-- Node34&#45;&gt;Node10 -->
<g id="edge43" class="edge">
<title>Node34&#45;&gt;Node10</title>
<path fill="none" stroke="#191970" d="M82.3496,-173.7854C62.8467,-152.306 21.2201,-99.2559 40.7071,-56 46.2767,-43.6369 56.9934,-33.2563 67.2577,-25.5033"/>
<polygon fill="#191970" stroke="#191970" points="69.4689,-28.2277 75.6504,-19.623 65.4521,-22.4948 69.4689,-28.2277"/>
</g>
<!-- Node34&#45;&gt;Node23 -->
<g id="edge44" class="edge">
<title>Node34&#45;&gt;Node23</title>
<path fill="none" stroke="#191970" d="M92.3671,-173.8379C93.7864,-159.2249 98.1944,-131.1766 111.7071,-112 120.8703,-98.996 134.9288,-88.3884 147.6304,-80.6502"/>
<polygon fill="#191970" stroke="#191970" points="149.6201,-83.5438 156.5499,-75.5295 146.1349,-77.4731 149.6201,-83.5438"/>
</g>
<!-- Node34&#45;&gt;Node24 -->
<g id="edge45" class="edge">
<title>Node34&#45;&gt;Node24</title>
<path fill="none" stroke="#191970" d="M138.4037,-174.5504C153.4493,-172.0026 170.2333,-169.5114 185.7071,-168 221.5551,-164.4986 1337.5834,-131.3702 1599.897,-123.6174"/>
<polygon fill="#191970" stroke="#191970" points="1600.0564,-127.1143 1609.9486,-123.3204 1599.8496,-120.1173 1600.0564,-127.1143"/>
</g>
<!-- Node34&#45;&gt;Node31 -->
<g id="edge46" class="edge">
<title>Node34&#45;&gt;Node31</title>
<path fill="none" stroke="#191970" d="M104.9883,-173.8906C118.4619,-164.1421 139.529,-148.8994 155.3506,-137.4521"/>
<polygon fill="#191970" stroke="#191970" points="157.469,-140.2394 163.5191,-131.5419 153.3656,-134.5682 157.469,-140.2394"/>
</g>
<!-- Node35&#45;&gt;Node8 -->
<g id="edge49" class="edge">
<title>Node35&#45;&gt;Node8</title>
<path fill="none" stroke="#191970" d="M452.1593,-173.7894C476.8681,-157.7501 529.3556,-126.0964 578.7071,-112 749.5986,-63.1879 2061.7952,-18.8036 2298.2572,-11.1589"/>
<polygon fill="#191970" stroke="#191970" points="2298.5075,-14.6528 2308.3896,-10.8326 2298.2821,-7.6564 2298.5075,-14.6528"/>
</g>
<!-- Node35&#45;&gt;Node10 -->
<g id="edge50" class="edge">
<title>Node35&#45;&gt;Node10</title>
<path fill="none" stroke="#191970" d="M425.5783,-173.8631C395.8506,-150.6464 316.3307,-90.9572 241.7071,-56 203.4916,-38.0981 156.5716,-24.9422 125.7163,-17.3899"/>
<polygon fill="#191970" stroke="#191970" points="126.4437,-13.9652 115.904,-15.0447 124.8165,-20.7735 126.4437,-13.9652"/>
</g>
<!-- Node35&#45;&gt;Node17 -->
<g id="edge48" class="edge">
<title>Node35&#45;&gt;Node17</title>
<path fill="none" stroke="#191970" d="M465.5196,-173.8906C495.9554,-163.3749 544.8948,-146.466 578.5897,-134.8243"/>
<polygon fill="#191970" stroke="#191970" points="579.7811,-138.1157 588.0899,-131.5419 577.4951,-131.4995 579.7811,-138.1157"/>
</g>
<!-- Node35&#45;&gt;Node23 -->
<g id="edge51" class="edge">
<title>Node35&#45;&gt;Node23</title>
<path fill="none" stroke="#191970" d="M416.3483,-173.8845C370.1592,-153.0905 260.8426,-103.8771 207.313,-79.7785"/>
<polygon fill="#191970" stroke="#191970" points="208.5503,-76.4972 197.9949,-75.5836 205.6766,-82.8802 208.5503,-76.4972"/>
</g>
<!-- Node35&#45;&gt;Node24 -->
<g id="edge52" class="edge">
<title>Node35&#45;&gt;Node24</title>
<path fill="none" stroke="#191970" d="M492.358,-174.0666C507.6394,-171.7366 524.2849,-169.4854 539.7071,-168 749.0732,-147.8347 1405.3973,-128.7848 1599.8774,-123.4647"/>
<polygon fill="#191970" stroke="#191970" points="1600.2364,-126.9564 1610.1373,-123.1851 1600.0456,-119.959 1600.2364,-126.9564"/>
</g>
<!-- Node35&#45;&gt;Node31 -->
<g id="edge53" class="edge">
<title>Node35&#45;&gt;Node31</title>
<path fill="none" stroke="#191970" d="M397.2122,-173.9581C351.3996,-163.1632 276.7334,-145.5694 227.1664,-133.8899"/>
<polygon fill="#191970" stroke="#191970" points="227.8332,-130.4512 217.297,-131.5643 226.2276,-137.2646 227.8332,-130.4512"/>
</g>
<!-- Node36&#45;&gt;Node10 -->
<g id="edge57" class="edge">
<title>Node36&#45;&gt;Node10</title>
<path fill="none" stroke="#191970" d="M800.307,-173.9261C770.2215,-158.6534 708.277,-128.791 652.7071,-112 601.6742,-96.5799 238.7816,-34.6823 126.0387,-15.6178"/>
<polygon fill="#191970" stroke="#191970" points="126.3713,-12.1244 115.9279,-13.9095 125.2051,-19.0266 126.3713,-12.1244"/>
</g>
<!-- Node36&#45;&gt;Node21 -->
<g id="edge56" class="edge">
<title>Node36&#45;&gt;Node21</title>
<path fill="none" stroke="#191970" d="M870.3791,-173.96C881.375,-171.9628 892.9212,-169.8902 903.7071,-168 1051.5323,-142.0933 1088.0064,-132.287 1236.7071,-112 1388.582,-91.2799 1427.5014,-94.1309 1579.7071,-76 1590.5803,-74.7048 1602.3247,-73.1927 1613.22,-71.7425"/>
<polygon fill="#191970" stroke="#191970" points="1613.9055,-75.1819 1623.3496,-70.38 1612.9723,-68.2443 1613.9055,-75.1819"/>
</g>
<!-- Node36&#45;&gt;Node24 -->
<g id="edge58" class="edge">
<title>Node36&#45;&gt;Node24</title>
<path fill="none" stroke="#191970" d="M899.2457,-177.5752C1068.1229,-165.1518 1455.5464,-136.6512 1599.5097,-126.0606"/>
<polygon fill="#191970" stroke="#191970" points="1600.1369,-129.524 1609.8531,-125.2997 1599.6232,-122.5428 1600.1369,-129.524"/>
</g>
<!-- Node38&#45;&gt;Node5 -->
<g id="edge65" class="edge">
<title>Node38&#45;&gt;Node5</title>
<path fill="none" stroke="#191970" d="M1643.4716,-432.8992C1365.0148,-423.764 316.7071,-384.897 316.7071,-317.5 316.7071,-317.5 316.7071,-317.5 316.7071,-250.5 316.7071,-204.2264 378.7832,-76.8593 403.1008,-28.7399"/>
<polygon fill="#191970" stroke="#191970" points="406.2682,-30.2326 407.6809,-19.7323 400.0285,-27.0598 406.2682,-30.2326"/>
</g>
<!-- Node38&#45;&gt;Node6 -->
<g id="edge67" class="edge">
<title>Node38&#45;&gt;Node6</title>
<path fill="none" stroke="#191970" d="M1643.5526,-433.3652C1482.3653,-429.0313 1082.8943,-415.7073 1028.7071,-389 990.7172,-370.2758 965.7071,-359.8536 965.7071,-317.5 965.7071,-317.5 965.7071,-317.5 965.7071,-183.5 965.7071,-129.2458 1145.3598,-86.8552 1218.3876,-71.8649"/>
<polygon fill="#191970" stroke="#191970" points="1219.2442,-75.2626 1228.3544,-69.8539 1217.8597,-68.4009 1219.2442,-75.2626"/>
</g>
<!-- Node38&#45;&gt;Node7 -->
<g id="edge125" class="edge">
<title>Node38&#45;&gt;Node7</title>
<path fill="none" stroke="#191970" d="M1777.9974,-433.6942C1965.7595,-429.7414 2492.8004,-416.4562 2663.7071,-389 2781.1892,-370.1265 2921.7071,-436.4885 2921.7071,-317.5 2921.7071,-317.5 2921.7071,-317.5 2921.7071,-183.5 2921.7071,-116.4796 2837.5953,-87.0275 2777.9242,-74.5661"/>
<polygon fill="#191970" stroke="#191970" points="2778.3236,-71.0773 2767.8345,-72.5699 2776.965,-77.9442 2778.3236,-71.0773"/>
</g>
<!-- Node38&#45;&gt;Node8 -->
<g id="edge64" class="edge">
<title>Node38&#45;&gt;Node8</title>
<path fill="none" stroke="#191970" d="M1777.9636,-434.264C2010.5619,-431.4548 2772.4209,-419.963 2877.7071,-389 2937.2677,-371.4842 2997.7071,-379.5828 2997.7071,-317.5 2997.7071,-317.5 2997.7071,-317.5 2997.7071,-122 2997.7071,-73.1111 2955.5459,-72.9977 2909.7071,-56 2797.1517,-14.2628 2489.0451,-40.1697 2370.7071,-20 2370.6072,-19.983 2370.5071,-19.9658 2370.407,-19.9484"/>
<polygon fill="#191970" stroke="#191970" points="2371.4199,-16.5851 2360.9128,-17.946 2369.9753,-23.4345 2371.4199,-16.5851"/>
</g>
<!-- Node38&#45;&gt;Node21 -->
<g id="edge66" class="edge">
<title>Node38&#45;&gt;Node21</title>
<path fill="none" stroke="#191970" d="M1643.5935,-427.7976C1594.3336,-420.969 1533.396,-408.7605 1517.7071,-389 1517.2299,-388.399 1516.3615,-168.6852 1516.7071,-168 1538.382,-125.0264 1587.658,-95.6702 1621.0669,-79.8585"/>
<polygon fill="#191970" stroke="#191970" points="1622.8121,-82.9093 1630.4549,-75.5719 1619.9046,-76.5417 1622.8121,-82.9093"/>
</g>
<!-- Node38&#45;&gt;Node22 -->
<g id="edge68" class="edge">
<title>Node38&#45;&gt;Node22</title>
<path fill="none" stroke="#191970" d="M1643.3633,-430.6009C1522.1446,-420.8212 1279.7071,-391.9549 1279.7071,-317.5 1279.7071,-317.5 1279.7071,-317.5 1279.7071,-250.5 1279.7071,-211.8337 1274.2541,-166.9053 1270.6999,-141.7279"/>
<polygon fill="#191970" stroke="#191970" points="1274.1355,-141.0323 1269.2269,-131.6431 1267.209,-142.044 1274.1355,-141.0323"/>
</g>
<!-- Node38&#45;&gt;Node25 -->
<g id="edge61" class="edge">
<title>Node38&#45;&gt;Node25</title>
<path fill="none" stroke="#191970" d="M1643.236,-431.6146C1520.9852,-425.0689 1267.5632,-409.4969 1181.7071,-389 1098.7826,-369.203 1003.7071,-402.7549 1003.7071,-317.5 1003.7071,-317.5 1003.7071,-317.5 1003.7071,-183.5 1003.7071,-131.8758 1385.3942,-84.0034 1506.9763,-70.0637"/>
<polygon fill="#191970" stroke="#191970" points="1507.3879,-73.5396 1516.9284,-68.9321 1506.597,-66.5844 1507.3879,-73.5396"/>
</g>
<!-- Node38&#45;&gt;Node26 -->
<g id="edge62" class="edge">
<title>Node38&#45;&gt;Node26</title>
<path fill="none" stroke="#191970" d="M1777.7249,-433.4952C1998.9611,-428.3427 2697.5869,-410.5325 2796.7071,-389 2874.0117,-372.2066 2959.7071,-396.6077 2959.7071,-317.5 2959.7071,-317.5 2959.7071,-317.5 2959.7071,-183.5 2959.7071,-140.9986 2923.182,-102.8906 2898.8857,-82.243"/>
<polygon fill="#191970" stroke="#191970" points="2900.8364,-79.3165 2890.8818,-75.6892 2896.4016,-84.7326 2900.8364,-79.3165"/>
</g>
<!-- Node39 -->
<g id="node34" class="node">
<title>Node39</title>
<g id="a_node34"><a xlink:title=" ">
<polygon fill="#ffffff" stroke="#bfbfbf" points="1211.7071,-369.5 1211.7071,-388.5 1251.7071,-388.5 1251.7071,-369.5 1211.7071,-369.5"/>
<text text-anchor="middle" x="1231.7071" y="-376.5" font-family="Helvetica,sans-Serif" font-size="10.00" fill="#000000">limits</text>
</a>
</g>
</g>
<!-- Node38&#45;&gt;Node39 -->
<g id="edge63" class="edge">
<title>Node38&#45;&gt;Node39</title>
<path fill="none" stroke="#191970" d="M1643.4197,-431.8843C1555.7755,-426.9522 1398.111,-415.0862 1265.7071,-389 1264.4507,-388.7525 1263.1738,-388.4791 1261.8882,-388.1857"/>
<polygon fill="#191970" stroke="#191970" points="1262.6109,-384.7575 1252.0531,-385.6418 1260.858,-391.5345 1262.6109,-384.7575"/>
</g>
<!-- Node40 -->
<g id="node35" class="node">
<title>Node40</title>
<g id="a_node35"><a xlink:href="DataList_8h.html" target="_top" xlink:title="Definition of templated DataStore wrapper called DataList.">
<polygon fill="#ffffff" stroke="#000000" points="1526.2071,-369.5 1526.2071,-388.5 1659.2071,-388.5 1659.2071,-369.5 1526.2071,-369.5"/>
<text text-anchor="middle" x="1592.7071" y="-376.5" font-family="Helvetica,sans-Serif" font-size="10.00" fill="#000000">LLU/Containers/DataList.h</text>
</a>
</g>
</g>
<!-- Node38&#45;&gt;Node40 -->
<g id="edge69" class="edge">
<title>Node38&#45;&gt;Node40</title>
<path fill="none" stroke="#191970" d="M1690.4222,-425.3733C1671.565,-416.4241 1643.2611,-402.9917 1621.9616,-392.8835"/>
<polygon fill="#191970" stroke="#191970" points="1623.2622,-389.6266 1612.7273,-388.5011 1620.2609,-395.9506 1623.2622,-389.6266"/>
</g>
<!-- Node48 -->
<g id="node38" class="node">
<title>Node48</title>
<g id="a_node38"><a xlink:href="MArgument_8h.html" target="_top" xlink:title="Template class and utilities to work with MArgument in type&#45;safe manner.">
<polygon fill="#ffffff" stroke="#ff0000" points="1685.7071,-174 1685.7071,-193 1781.7071,-193 1781.7071,-174 1685.7071,-174"/>
<text text-anchor="middle" x="1733.7071" y="-181" font-family="Helvetica,sans-Serif" font-size="10.00" fill="#000000">LLU/MArgument.h</text>
</a>
</g>
</g>
<!-- Node38&#45;&gt;Node48 -->
<g id="edge126" class="edge">
<title>Node38&#45;&gt;Node48</title>
<path fill="none" stroke="#191970" d="M1721.877,-425.4019C1740.248,-408.7897 1776.1542,-372.632 1789.7071,-333 1795.5179,-316.0077 1792.1339,-249.2029 1785.7071,-235 1779.2789,-220.7941 1767.0643,-208.3735 1756.0881,-199.291"/>
<polygon fill="#191970" stroke="#191970" points="1758.0897,-196.4134 1748.0523,-193.0219 1753.784,-201.9326 1758.0897,-196.4134"/>
</g>
<!-- Node44 -->
<g id="node43" class="node">
<title>Node44</title>
<g id="a_node43"><a xlink:href="ErrorManager_8h.html" target="_top" xlink:title="Definition of the ErrorManager class responsible for error registration and throwing.">
<polygon fill="#ffffff" stroke="#ff0000" points="1069.7071,-174 1069.7071,-193 1213.7071,-193 1213.7071,-174 1069.7071,-174"/>
<text text-anchor="middle" x="1141.7071" y="-181" font-family="Helvetica,sans-Serif" font-size="10.00" fill="#000000">LLU/ErrorLog/ErrorManager.h</text>
</a>
</g>
</g>
<!-- Node38&#45;&gt;Node44 -->
<g id="edge124" class="edge">
<title>Node38&#45;&gt;Node44</title>
<path fill="none" stroke="#191970" d="M1643.6118,-433.0689C1513.3725,-428.7265 1236.1045,-416.3555 1202.7071,-389 1145.7423,-342.3406 1140.3936,-245.0495 1140.9023,-203.2643"/>
<polygon fill="#191970" stroke="#191970" points="1144.4015,-203.3377 1141.1547,-193.2527 1137.4037,-203.1613 1144.4015,-203.3377"/>
</g>
<!-- Node58 -->
<g id="node44" class="node">
<title>Node58</title>
<g id="a_node44"><a xlink:href="Image_8h.html" target="_top" xlink:title="Templated C++ wrapper for MImage.">
<polygon fill="#ffffff" stroke="#000000" points="1979.2071,-241 1979.2071,-260 2102.2071,-260 2102.2071,-241 1979.2071,-241"/>
<text text-anchor="middle" x="2040.7071" y="-248" font-family="Helvetica,sans-Serif" font-size="10.00" fill="#000000">LLU/Containers/Image.h</text>
</a>
</g>
</g>
<!-- Node38&#45;&gt;Node58 -->
<g id="edge101" class="edge">
<title>Node38&#45;&gt;Node58</title>
<path fill="none" stroke="#191970" d="M1746.8178,-425.4912C1774.2186,-417.5756 1812.3854,-405.0239 1843.7071,-389 1914.0471,-353.0148 1987.8932,-294.6814 2021.7357,-266.6064"/>
<polygon fill="#191970" stroke="#191970" points="2024.0265,-269.2533 2029.4513,-260.1526 2019.5353,-263.8839 2024.0265,-269.2533"/>
</g>
<!-- Node64 -->
<g id="node47" class="node">
<title>Node64</title>
<g id="a_node47"><a xlink:href="NumericArray_8h.html" target="_top" xlink:title="Templated C++ wrapper for MNumericArray.">
<polygon fill="#ffffff" stroke="#000000" points="2261.7071,-241 2261.7071,-260 2417.7071,-260 2417.7071,-241 2261.7071,-241"/>
<text text-anchor="middle" x="2339.7071" y="-248" font-family="Helvetica,sans-Serif" font-size="10.00" fill="#000000">LLU/Containers/NumericArray.h</text>
</a>
</g>
</g>
<!-- Node38&#45;&gt;Node64 -->
<g id="edge111" class="edge">
<title>Node38&#45;&gt;Node64</title>
<path fill="none" stroke="#191970" d="M1745.0899,-425.4458C1778.1055,-416.2363 1829.3661,-401.8453 1873.7071,-389 2030.7463,-343.5066 2216.9511,-287.5587 2298.2628,-263.0273"/>
<polygon fill="#191970" stroke="#191970" points="2299.5475,-266.2955 2308.1097,-260.0554 2297.5249,-259.5941 2299.5475,-266.2955"/>
</g>
<!-- Node65 -->
<g id="node48" class="node">
<title>Node65</title>
<g id="a_node48"><a xlink:href="Tensor_8h.html" target="_top" xlink:title="Templated C++ wrapper for MTensor.">
<polygon fill="#ffffff" stroke="#ff0000" points="2511.7071,-241 2511.7071,-260 2637.7071,-260 2637.7071,-241 2511.7071,-241"/>
<text text-anchor="middle" x="2574.7071" y="-248" font-family="Helvetica,sans-Serif" font-size="10.00" fill="#000000">LLU/Containers/Tensor.h</text>
</a>
</g>
</g>
<!-- Node38&#45;&gt;Node65 -->
<g id="edge118" class="edge">
<title>Node38&#45;&gt;Node65</title>
<path fill="none" stroke="#191970" d="M1755.3401,-425.469C1900.82,-394.403 2361.0578,-296.123 2520.0515,-262.1712"/>
<polygon fill="#191970" stroke="#191970" points="2521.0334,-265.5406 2530.082,-260.0293 2519.5715,-258.6949 2521.0334,-265.5406"/>
</g>
<!-- Node66 -->
<g id="node49" class="node">
<title>Node66</title>
<g id="a_node49"><a xlink:href="ManagedExpression_8hpp.html" target="_top" xlink:title="Definition of the ManagedExpressionStore class template which provides C++ API for the Managed Expres...">
<polygon fill="#ffffff" stroke="#ff0000" points="2596.2071,-174 2596.2071,-193 2741.2071,-193 2741.2071,-174 2596.2071,-174"/>
<text text-anchor="middle" x="2668.7071" y="-181" font-family="Helvetica,sans-Serif" font-size="10.00" fill="#000000">LLU/ManagedExpression.hpp</text>
</a>
</g>
</g>
<!-- Node38&#45;&gt;Node66 -->
<g id="edge127" class="edge">
<title>Node38&#45;&gt;Node66</title>
<path fill="none" stroke="#191970" d="M1777.713,-434.0292C1986.1425,-430.7057 2611.0442,-418.3278 2642.7071,-389 2694.908,-340.6488 2681.9492,-244.2811 2673.3705,-203.0025"/>
<polygon fill="#191970" stroke="#191970" points="2676.76,-202.1206 2671.175,-193.1174 2669.9266,-203.6384 2676.76,-202.1206"/>
</g>
<!-- Node67 -->
<g id="node50" class="node">
<title>Node67</title>
<g id="a_node50"><a xlink:href="ProgressMonitor_8h.html" target="_top" xlink:title="Definition of ProgressMonitor class.">
<polygon fill="#ffffff" stroke="#000000" points="2516.2071,-369.5 2516.2071,-388.5 2633.2071,-388.5 2633.2071,-369.5 2516.2071,-369.5"/>
<text text-anchor="middle" x="2574.7071" y="-376.5" font-family="Helvetica,sans-Serif" font-size="10.00" fill="#000000">LLU/ProgressMonitor.h</text>
</a>
</g>
</g>
<!-- Node38&#45;&gt;Node67 -->
<g id="edge132" class="edge">
<title>Node38&#45;&gt;Node67</title>
<path fill="none" stroke="#191970" d="M1777.7751,-432.8668C1914.2985,-428.135 2234.2187,-415.0588 2501.7071,-389 2503.1792,-388.8566 2504.6672,-388.7057 2506.1668,-388.5484"/>
<polygon fill="#191970" stroke="#191970" points="2506.6352,-392.0179 2516.1833,-387.4262 2505.8558,-385.0614 2506.6352,-392.0179"/>
</g>
<!-- Node40&#45;&gt;Node3 -->
<g id="edge70" class="edge">
<title>Node40&#45;&gt;Node3</title>
<path fill="none" stroke="#191970" d="M1659.3179,-374.4055C1850.317,-360.6576 2390.0295,-317.5842 2449.7071,-266 2483.2724,-236.9868 2478.1349,-211.3533 2468.7071,-168 2466.6646,-158.6079 2462.5282,-148.8357 2458.4624,-140.7264"/>
<polygon fill="#191970" stroke="#191970" points="2461.488,-138.9622 2453.6836,-131.7968 2455.3162,-142.2651 2461.488,-138.9622"/>
</g>
<!-- Node40&#45;&gt;Node5 -->
<g id="edge71" class="edge">
<title>Node40&#45;&gt;Node5</title>
<path fill="none" stroke="#191970" d="M1526.1277,-376.7153C1296.5874,-368.7635 550.9663,-342.2797 527.7071,-333 443.4386,-299.3797 411.3114,-281.5677 373.7071,-199 349.0352,-144.828 411.3279,-133.5047 426.7071,-76 430.862,-60.464 426.5334,-42.6085 421.6258,-29.3902"/>
<polygon fill="#191970" stroke="#191970" points="424.7665,-27.8255 417.7169,-19.9164 418.2956,-30.4955 424.7665,-27.8255"/>
</g>
<!-- Node40&#45;&gt;Node6 -->
<g id="edge73" class="edge">
<title>Node40&#45;&gt;Node6</title>
<path fill="none" stroke="#191970" d="M1526.1429,-371.2987C1488.7304,-364.9177 1442.1692,-353.437 1404.7071,-333 1357.9279,-307.4802 1317.7071,-303.7875 1317.7071,-250.5 1317.7071,-250.5 1317.7071,-250.5 1317.7071,-183.5 1317.7071,-150.6194 1315.7076,-140.1446 1298.7071,-112 1291.726,-100.4428 1280.9912,-90.0239 1271.2553,-82.0361"/>
<polygon fill="#191970" stroke="#191970" points="1273.1185,-79.0513 1263.0761,-75.6748 1268.821,-84.5769 1273.1185,-79.0513"/>
</g>
<!-- Node40&#45;&gt;Node7 -->
<g id="edge98" class="edge">
<title>Node40&#45;&gt;Node7</title>
<path fill="none" stroke="#191970" d="M1659.3983,-375.8971C1923.759,-363.1647 2883.7071,-312.652 2883.7071,-250.5 2883.7071,-250.5 2883.7071,-250.5 2883.7071,-183.5 2883.7071,-126.3195 2817.0132,-94.2841 2768.6877,-78.5769"/>
<polygon fill="#191970" stroke="#191970" points="2769.5775,-75.1883 2758.9892,-75.5602 2767.4983,-81.8725 2769.5775,-75.1883"/>
</g>
<!-- Node40&#45;&gt;Node22 -->
<g id="edge74" class="edge">
<title>Node40&#45;&gt;Node22</title>
<path fill="none" stroke="#191970" d="M1544.923,-369.4609C1492.7062,-356.2061 1411.5817,-326.6479 1374.7071,-266 1367.5492,-254.2275 1370.3502,-248.0707 1374.7071,-235 1381.0316,-216.0263 1395.3825,-217.9737 1401.7071,-199 1406.064,-185.9293 1409.7131,-179.213 1401.7071,-168 1389.6742,-151.1472 1335.5005,-136.5636 1299.8261,-128.5548"/>
<polygon fill="#191970" stroke="#191970" points="1300.3771,-125.0927 1289.8607,-126.3794 1298.8841,-131.9317 1300.3771,-125.0927"/>
</g>
<!-- Node41 -->
<g id="node36" class="node">
<title>Node41</title>
<g id="a_node36"><a xlink:title=" ">
<polygon fill="#ffffff" stroke="#bfbfbf" points="1525.7071,-174 1525.7071,-193 1591.7071,-193 1591.7071,-174 1525.7071,-174"/>
<text text-anchor="middle" x="1558.7071" y="-181" font-family="Helvetica,sans-Serif" font-size="10.00" fill="#000000">string_view</text>
</a>
</g>
</g>
<!-- Node40&#45;&gt;Node41 -->
<g id="edge72" class="edge">
<title>Node40&#45;&gt;Node41</title>
<path fill="none" stroke="#191970" d="M1591.021,-369.3051C1585.7186,-338.8163 1569.3096,-244.4646 1562.1297,-203.1804"/>
<polygon fill="#191970" stroke="#191970" points="1565.5651,-202.5058 1560.4033,-193.2534 1558.6686,-203.7052 1565.5651,-202.5058"/>
</g>
<!-- Node42 -->
<g id="node37" class="node">
<title>Node42</title>
<g id="a_node37"><a xlink:href="Generic_2DataStore_8hpp.html" target="_top" xlink:title="Definition and implementation of generic DataStore wrapper.">
<polygon fill="#ffffff" stroke="#ff0000" points="1639.7071,-302.5 1639.7071,-332.5 1761.7071,-332.5 1761.7071,-302.5 1639.7071,-302.5"/>
<text text-anchor="start" x="1647.7071" y="-320.5" font-family="Helvetica,sans-Serif" font-size="10.00" fill="#000000">LLU/Containers/Generic</text>
<text text-anchor="middle" x="1700.7071" y="-309.5" font-family="Helvetica,sans-Serif" font-size="10.00" fill="#000000">/DataStore.hpp</text>
</a>
</g>
</g>
<!-- Node40&#45;&gt;Node42 -->
<g id="edge75" class="edge">
<title>Node40&#45;&gt;Node42</title>
<path fill="none" stroke="#191970" d="M1609.5821,-369.3906C1624.4692,-360.9132 1646.6528,-348.2809 1665.4046,-337.6028"/>
<polygon fill="#191970" stroke="#191970" points="1667.3294,-340.5345 1674.2873,-332.5446 1663.8655,-334.4516 1667.3294,-340.5345"/>
</g>
<!-- Node40&#45;&gt;Node48 -->
<g id="edge99" class="edge">
<title>Node40&#45;&gt;Node48</title>
<path fill="none" stroke="#191970" d="M1659.3813,-370.3401C1703.957,-363.0248 1756.8804,-350.8541 1770.7071,-333 1801.4186,-293.3428 1767.2519,-231.528 1746.7995,-201.3243"/>
<polygon fill="#191970" stroke="#191970" points="1749.5867,-199.2029 1740.9795,-193.0251 1743.8555,-203.2221 1749.5867,-199.2029"/>
</g>
<!-- Node51 -->
<g id="node39" class="node">
<title>Node51</title>
<g id="a_node39"><a xlink:href="TypedMArgument_8h.html" target="_top" xlink:title=" ">
<polygon fill="#ffffff" stroke="#ff0000" points="1602.2071,-241 1602.2071,-260 1725.2071,-260 1725.2071,-241 1602.2071,-241"/>
<text text-anchor="middle" x="1663.7071" y="-248" font-family="Helvetica,sans-Serif" font-size="10.00" fill="#000000">LLU/TypedMArgument.h</text>
</a>
</g>
</g>
<!-- Node40&#45;&gt;Node51 -->
<g id="edge100" class="edge">
<title>Node40&#45;&gt;Node51</title>
<path fill="none" stroke="#191970" d="M1597.0522,-369.3396C1603.7867,-354.5756 1617.364,-325.6235 1630.7071,-302 1637.1184,-290.6489 1644.9696,-278.3412 1651.4053,-268.6048"/>
<polygon fill="#191970" stroke="#191970" points="1654.3952,-270.4301 1657.0487,-260.1729 1648.5779,-266.5366 1654.3952,-270.4301"/>
</g>
<!-- Node55 -->
<g id="node42" class="node">
<title>Node55</title>
<g id="a_node42"><a xlink:href="DataList_8hpp.html" target="_top" xlink:title="Special iterators for DataLists. Iteration over keys, values, reversed iteration.">
<polygon fill="#ffffff" stroke="#ff0000" points="1383.7071,-235.5 1383.7071,-265.5 1507.7071,-265.5 1507.7071,-235.5 1383.7071,-235.5"/>
<text text-anchor="start" x="1391.7071" y="-253.5" font-family="Helvetica,sans-Serif" font-size="10.00" fill="#000000">LLU/Containers/Iterators</text>
<text text-anchor="middle" x="1445.7071" y="-242.5" font-family="Helvetica,sans-Serif" font-size="10.00" fill="#000000">/DataList.hpp</text>
</a>
</g>
</g>
<!-- Node40&#45;&gt;Node55 -->
<g id="edge87" class="edge">
<title>Node40&#45;&gt;Node55</title>
<path fill="none" stroke="#191970" d="M1583.0206,-369.1969C1568.1111,-354.2464 1538.4557,-325.0541 1511.7071,-302 1499.7475,-291.6923 1486.0533,-280.8591 1474.2502,-271.8024"/>
<polygon fill="#191970" stroke="#191970" points="1476.1189,-268.8262 1466.0418,-265.5547 1471.8793,-274.3963 1476.1189,-268.8262"/>
</g>
<!-- Node40&#45;&gt;Node44 -->
<g id="edge91" class="edge">
<title>Node40&#45;&gt;Node44</title>
<path fill="none" stroke="#191970" d="M1526.0447,-372.8988C1453.2319,-365.4471 1341.8772,-351.5121 1303.7071,-333 1237.923,-301.0953 1180.106,-233.5541 1154.9994,-201.3307"/>
<polygon fill="#191970" stroke="#191970" points="1157.6629,-199.052 1148.806,-193.2376 1152.1038,-203.3061 1157.6629,-199.052"/>
</g>
<!-- Node42&#45;&gt;Node48 -->
<g id="edge76" class="edge">
<title>Node42&#45;&gt;Node48</title>
<path fill="none" stroke="#191970" d="M1714.0474,-302.49C1721.7269,-292.8135 1730.6393,-279.5445 1734.7071,-266 1740.9258,-245.2934 1739.4637,-220.3247 1737.2163,-203.318"/>
<polygon fill="#191970" stroke="#191970" points="1740.6735,-202.7711 1735.6989,-193.4167 1733.7542,-203.8315 1740.6735,-202.7711"/>
</g>
<!-- Node42&#45;&gt;Node51 -->
<g id="edge80" class="edge">
<title>Node42&#45;&gt;Node51</title>
<path fill="none" stroke="#191970" d="M1692.3112,-302.2967C1686.8263,-292.3645 1679.632,-279.3371 1673.8308,-268.8321"/>
<polygon fill="#191970" stroke="#191970" points="1676.8818,-267.1169 1668.9837,-260.055 1670.7541,-270.5009 1676.8818,-267.1169"/>
</g>
<!-- Node48&#45;&gt;Node5 -->
<g id="edge77" class="edge">
<title>Node48&#45;&gt;Node5</title>
<path fill="none" stroke="#191970" d="M1734.1613,-173.7768C1734.7111,-149.2755 1732.3422,-84.903 1694.7071,-56 1643.511,-16.6825 633.3106,-10.851 443.3561,-10.101"/>
<polygon fill="#191970" stroke="#191970" points="443.2471,-6.6007 433.2339,-10.0629 443.2206,-13.6007 443.2471,-6.6007"/>
</g>
<!-- Node48&#45;&gt;Node7 -->
<g id="edge78" class="edge">
<title>Node48&#45;&gt;Node7</title>
<path fill="none" stroke="#191970" d="M1765.4585,-173.9238C1773.6278,-171.7204 1782.4451,-169.567 1790.7071,-168 2116.459,-106.218 2514.0892,-78.0772 2661.2902,-69.2364"/>
<polygon fill="#191970" stroke="#191970" points="2661.6765,-72.7197 2671.4514,-68.633 2661.2615,-65.732 2661.6765,-72.7197"/>
</g>
<!-- Node48&#45;&gt;Node24 -->
<g id="edge79" class="edge">
<title>Node48&#45;&gt;Node24</title>
<path fill="none" stroke="#191970" d="M1721.3633,-173.8906C1708.9568,-164.2324 1689.6228,-149.1812 1674.9658,-137.771"/>
<polygon fill="#191970" stroke="#191970" points="1677.005,-134.923 1666.9641,-131.5419 1672.705,-140.4466 1677.005,-134.923"/>
</g>
<!-- Node51&#45;&gt;Node24 -->
<g id="edge86" class="edge">
<title>Node51&#45;&gt;Node24</title>
<path fill="none" stroke="#191970" d="M1663.0306,-240.8416C1661.5647,-219.9114 1658.0692,-170.004 1656.1062,-141.9762"/>
<polygon fill="#191970" stroke="#191970" points="1659.5816,-141.5015 1655.3914,-131.7705 1652.5987,-141.9906 1659.5816,-141.5015"/>
</g>
<!-- Node51&#45;&gt;Node25 -->
<g id="edge81" class="edge">
<title>Node51&#45;&gt;Node25</title>
<path fill="none" stroke="#191970" d="M1657.4243,-240.8402C1638.3079,-211.4487 1580.6266,-122.7637 1555.5557,-84.2172"/>
<polygon fill="#191970" stroke="#191970" points="1558.314,-82.0387 1549.9276,-75.5641 1552.446,-85.8553 1558.314,-82.0387"/>
</g>
<!-- Node51&#45;&gt;Node41 -->
<g id="edge82" class="edge">
<title>Node51&#45;&gt;Node41</title>
<path fill="none" stroke="#191970" d="M1648.6631,-240.9005C1631.3536,-229.8554 1602.7093,-211.5776 1582.3982,-198.6172"/>
<polygon fill="#191970" stroke="#191970" points="1584.0358,-195.5103 1573.7231,-193.0817 1580.2704,-201.4113 1584.0358,-195.5103"/>
</g>
<!-- Node51&#45;&gt;Node48 -->
<g id="edge85" class="edge">
<title>Node51&#45;&gt;Node48</title>
<path fill="none" stroke="#191970" d="M1673.7364,-240.9005C1684.8602,-230.2535 1703.0057,-212.8856 1716.4281,-200.0385"/>
<polygon fill="#191970" stroke="#191970" points="1718.8923,-202.5247 1723.6964,-193.0817 1714.0521,-197.4678 1718.8923,-202.5247"/>
</g>
<!-- Node52 -->
<g id="node40" class="node">
<title>Node52</title>
<g id="a_node40"><a xlink:href="Generic_2Image_8hpp.html" target="_top" xlink:title="GenericImage definition and implementation.">
<polygon fill="#ffffff" stroke="#ff0000" points="1799.7071,-168.5 1799.7071,-198.5 1921.7071,-198.5 1921.7071,-168.5 1799.7071,-168.5"/>
<text text-anchor="start" x="1807.7071" y="-186.5" font-family="Helvetica,sans-Serif" font-size="10.00" fill="#000000">LLU/Containers/Generic</text>
<text text-anchor="middle" x="1860.7071" y="-175.5" font-family="Helvetica,sans-Serif" font-size="10.00" fill="#000000">/Image.hpp</text>
</a>
</g>
</g>
<!-- Node51&#45;&gt;Node52 -->
<g id="edge83" class="edge">
<title>Node51&#45;&gt;Node52</title>
<path fill="none" stroke="#191970" d="M1691.9324,-240.9005C1721.8175,-230.7366 1769.7111,-214.4479 1806.858,-201.8141"/>
<polygon fill="#191970" stroke="#191970" points="1808.1981,-205.0553 1816.5386,-198.5218 1805.9442,-198.4281 1808.1981,-205.0553"/>
</g>
<!-- Node53 -->
<g id="node41" class="node">
<title>Node53</title>
<g id="a_node41"><a xlink:href="Generic_2NumericArray_8hpp.html" target="_top" xlink:title="GenericNumericArray definition and implementation.">
<polygon fill="#ffffff" stroke="#ff0000" points="1939.7071,-168.5 1939.7071,-198.5 2061.7071,-198.5 2061.7071,-168.5 1939.7071,-168.5"/>
<text text-anchor="start" x="1947.7071" y="-186.5" font-family="Helvetica,sans-Serif" font-size="10.00" fill="#000000">LLU/Containers/Generic</text>
<text text-anchor="middle" x="2000.7071" y="-175.5" font-family="Helvetica,sans-Serif" font-size="10.00" fill="#000000">/NumericArray.hpp</text>
</a>
</g>
</g>
<!-- Node51&#45;&gt;Node53 -->
<g id="edge84" class="edge">
<title>Node51&#45;&gt;Node53</title>
<path fill="none" stroke="#191970" d="M1715.2251,-240.9957C1766.9559,-231.3548 1849.1974,-215.764 1929.8226,-199.1544"/>
<polygon fill="#191970" stroke="#191970" points="1930.5603,-202.576 1939.6448,-197.1241 1929.1433,-195.7209 1930.5603,-202.576"/>
</g>
<!-- Node55&#45;&gt;Node5 -->
<g id="edge89" class="edge">
<title>Node55&#45;&gt;Node5</title>
<path fill="none" stroke="#191970" d="M1443.4554,-235.3237C1440.2766,-217.8177 1433.1676,-188.7825 1418.7071,-168 1372.9975,-102.307 1352.5455,-84.3576 1277.7071,-56 1198.5561,-26.0083 589.6284,-13.1915 443.9455,-10.5369"/>
<polygon fill="#191970" stroke="#191970" points="443.5814,-7.0299 433.5202,-10.35 443.4558,-14.0288 443.5814,-7.0299"/>
</g>
<!-- Node55&#45;&gt;Node18 -->
<g id="edge88" class="edge">
<title>Node55&#45;&gt;Node18</title>
<path fill="none" stroke="#191970" d="M1428.4615,-235.2967C1416.5054,-224.7564 1400.5951,-210.7303 1388.3467,-199.9323"/>
<polygon fill="#191970" stroke="#191970" points="1390.3614,-197.0425 1380.5455,-193.055 1385.7323,-202.2934 1390.3614,-197.0425"/>
</g>
<!-- Node55&#45;&gt;Node48 -->
<g id="edge90" class="edge">
<title>Node55&#45;&gt;Node48</title>
<path fill="none" stroke="#191970" d="M1507.8442,-236.0445C1560.0242,-223.9054 1633.6787,-206.7705 1682.5171,-195.4088"/>
<polygon fill="#191970" stroke="#191970" points="1683.5985,-198.7507 1692.5453,-193.0758 1682.0124,-191.9328 1683.5985,-198.7507"/>
</g>
<!-- Node44&#45;&gt;Node3 -->
<g id="edge93" class="edge">
<title>Node44&#45;&gt;Node3</title>
<path fill="none" stroke="#191970" d="M1213.8938,-177.1055C1250.639,-174.0174 1296.0281,-170.458 1336.7071,-168 1748.7613,-143.1021 2247.6109,-127.7032 2400.755,-123.3062"/>
<polygon fill="#191970" stroke="#191970" points="2400.8626,-126.8047 2410.7586,-123.0206 2400.6627,-119.8075 2400.8626,-126.8047"/>
</g>
<!-- Node44&#45;&gt;Node5 -->
<g id="edge94" class="edge">
<title>Node44&#45;&gt;Node5</title>
<path fill="none" stroke="#191970" d="M1101.7352,-173.9868C971.2017,-142.9202 559.1862,-44.8616 443.3006,-17.2812"/>
<polygon fill="#191970" stroke="#191970" points="443.8694,-13.8189 433.3307,-14.9084 442.2486,-20.6286 443.8694,-13.8189"/>
</g>
<!-- Node44&#45;&gt;Node6 -->
<g id="edge95" class="edge">
<title>Node44&#45;&gt;Node6</title>
<path fill="none" stroke="#191970" d="M1150.4633,-173.8845C1168.49,-154.0889 1209.9711,-108.5372 1232.8462,-83.4173"/>
<polygon fill="#191970" stroke="#191970" points="1235.6846,-85.4987 1239.8298,-75.7484 1230.509,-80.7856 1235.6846,-85.4987"/>
</g>
<!-- Node44&#45;&gt;Node7 -->
<g id="edge97" class="edge">
<title>Node44&#45;&gt;Node7</title>
<path fill="none" stroke="#191970" d="M1186.8258,-173.9978C1197.274,-171.9142 1208.362,-169.7962 1218.7071,-168 1388.2033,-138.5706 1430.4208,-128.0022 1601.7071,-112 1810.4907,-92.4946 2462.2248,-73.1735 2661.34,-67.5976"/>
<polygon fill="#191970" stroke="#191970" points="2661.6898,-71.0892 2671.5883,-67.3115 2661.4945,-64.092 2661.6898,-71.0892"/>
</g>
<!-- Node44&#45;&gt;Node17 -->
<g id="edge92" class="edge">
<title>Node44&#45;&gt;Node17</title>
<path fill="none" stroke="#191970" d="M1069.6719,-175.0776C956.5209,-161.848 741.0517,-136.6553 653.8038,-126.4543"/>
<polygon fill="#191970" stroke="#191970" points="654.1538,-122.9714 643.8149,-125.2864 653.3408,-129.9241 654.1538,-122.9714"/>
</g>
<!-- Node44&#45;&gt;Node22 -->
<g id="edge96" class="edge">
<title>Node44&#45;&gt;Node22</title>
<path fill="none" stroke="#191970" d="M1161.3946,-173.8906C1182.1993,-163.7359 1215.2181,-147.6196 1238.939,-136.0416"/>
<polygon fill="#191970" stroke="#191970" points="1240.7064,-139.0736 1248.1578,-131.5419 1237.6359,-132.783 1240.7064,-139.0736"/>
</g>
<!-- Node58&#45;&gt;Node52 -->
<g id="edge103" class="edge">
<title>Node58&#45;&gt;Node52</title>
<path fill="none" stroke="#191970" d="M2014.9175,-240.9005C1987.8437,-230.8231 1944.5942,-214.7247 1910.7779,-202.1375"/>
<polygon fill="#191970" stroke="#191970" points="1911.6568,-198.7301 1901.0641,-198.5218 1909.2149,-205.2904 1911.6568,-198.7301"/>
</g>
<!-- Node59 -->
<g id="node45" class="node">
<title>Node59</title>
<g id="a_node45"><a xlink:title=" ">
<polygon fill="#ffffff" stroke="#bfbfbf" points="2079.7071,-174 2079.7071,-193 2117.7071,-193 2117.7071,-174 2079.7071,-174"/>
<text text-anchor="middle" x="2098.7071" y="-181" font-family="Helvetica,sans-Serif" font-size="10.00" fill="#000000">array</text>
</a>
</g>
</g>
<!-- Node58&#45;&gt;Node59 -->
<g id="edge102" class="edge">
<title>Node58&#45;&gt;Node59</title>
<path fill="none" stroke="#191970" d="M2049.0171,-240.9005C2058.0617,-230.4525 2072.7088,-213.5325 2083.7625,-200.7635"/>
<polygon fill="#191970" stroke="#191970" points="2086.5137,-202.9331 2090.4125,-193.0817 2081.2212,-198.3515 2086.5137,-202.9331"/>
</g>
<!-- Node60 -->
<g id="node46" class="node">
<title>Node60</title>
<g id="a_node46"><a xlink:href="MArray_8hpp.html" target="_top" xlink:title="Template base class for C++ wrappers of LibraryLink containers.">
<polygon fill="#ffffff" stroke="#ff0000" points="2211.7071,-174 2211.7071,-193 2349.7071,-193 2349.7071,-174 2211.7071,-174"/>
<text text-anchor="middle" x="2280.7071" y="-181" font-family="Helvetica,sans-Serif" font-size="10.00" fill="#000000">LLU/Containers/MArray.hpp</text>
</a>
</g>
</g>
<!-- Node58&#45;&gt;Node60 -->
<g id="edge104" class="edge">
<title>Node58&#45;&gt;Node60</title>
<path fill="none" stroke="#191970" d="M2074.8383,-240.9717C2117.2779,-229.124 2189.8085,-208.8758 2236.4728,-195.8487"/>
<polygon fill="#191970" stroke="#191970" points="2237.6144,-199.164 2246.305,-193.1039 2235.7321,-192.4217 2237.6144,-199.164"/>
</g>
<!-- Node60&#45;&gt;Node3 -->
<g id="edge105" class="edge">
<title>Node60&#45;&gt;Node3</title>
<path fill="none" stroke="#191970" d="M2306.8008,-173.8906C2335.1106,-163.4652 2380.4839,-146.7559 2412.0662,-135.1252"/>
<polygon fill="#191970" stroke="#191970" points="2413.6222,-138.2821 2421.7966,-131.5419 2411.2031,-131.7133 2413.6222,-138.2821"/>
</g>
<!-- Node60&#45;&gt;Node6 -->
<g id="edge107" class="edge">
<title>Node60&#45;&gt;Node6</title>
<path fill="none" stroke="#191970" d="M2231.357,-173.9327C2219.6921,-171.829 2207.2804,-169.7187 2195.7071,-168 1980.1998,-135.9958 1925.33,-135.2846 1708.7071,-112 1547.0331,-94.6218 1353.1504,-75.9392 1279.2991,-68.9012"/>
<polygon fill="#191970" stroke="#191970" points="1279.1818,-65.3743 1268.8952,-67.9111 1278.5186,-72.3428 1279.1818,-65.3743"/>
</g>
<!-- Node60&#45;&gt;Node7 -->
<g id="edge109" class="edge">
<title>Node60&#45;&gt;Node7</title>
<path fill="none" stroke="#191970" d="M2293.4178,-173.7736C2314.7377,-158.0041 2359.6142,-127.1035 2402.7071,-112 2449.2289,-95.6947 2583.3509,-79.9115 2661.4276,-71.7473"/>
<polygon fill="#191970" stroke="#191970" points="2662.006,-75.2063 2671.5921,-70.6944 2661.2847,-68.2435 2662.006,-75.2063"/>
</g>
<!-- Node60&#45;&gt;Node21 -->
<g id="edge106" class="edge">
<title>Node60&#45;&gt;Node21</title>
<path fill="none" stroke="#191970" d="M2230.0091,-173.984C2109.3233,-151.3313 1806.8209,-94.5517 1696.1231,-73.7738"/>
<polygon fill="#191970" stroke="#191970" points="1696.4958,-70.2827 1686.0217,-71.8777 1695.2044,-77.1625 1696.4958,-70.2827"/>
</g>
<!-- Node60&#45;&gt;Node22 -->
<g id="edge108" class="edge">
<title>Node60&#45;&gt;Node22</title>
<path fill="none" stroke="#191970" d="M2211.3901,-175.8268C2184.9164,-173.0793 2154.4366,-170.1368 2126.7071,-168 1804.6669,-143.1844 1413.674,-127.4671 1300.0792,-123.1866"/>
<polygon fill="#191970" stroke="#191970" points="1300.0876,-119.6846 1289.9637,-122.8082 1299.8258,-126.6797 1300.0876,-119.6846"/>
</g>
<!-- Node60&#45;&gt;Node24 -->
<g id="edge110" class="edge">
<title>Node60&#45;&gt;Node24</title>
<path fill="none" stroke="#191970" d="M2234.7536,-173.983C2222.7385,-171.7518 2209.7721,-169.5704 2197.7071,-168 1983.806,-140.1587 1927.8334,-158.0516 1713.7071,-132 1712.4018,-131.8412 1711.0814,-131.6737 1709.7506,-131.4986"/>
<polygon fill="#191970" stroke="#191970" points="1709.8136,-127.9725 1699.4207,-130.0309 1708.8289,-134.9029 1709.8136,-127.9725"/>
</g>
<!-- Node64&#45;&gt;Node3 -->
<g id="edge112" class="edge">
<title>Node64&#45;&gt;Node3</title>
<path fill="none" stroke="#191970" d="M2350.5729,-240.7119C2361.4616,-230.6849 2378.4631,-214.4236 2391.7071,-199 2408.1802,-179.8158 2424.9625,-156.0637 2435.8022,-140.0534"/>
<polygon fill="#191970" stroke="#191970" points="2438.7969,-141.8716 2441.4505,-131.6144 2432.9796,-137.978 2438.7969,-141.8716"/>
</g>
<!-- Node64&#45;&gt;Node7 -->
<g id="edge116" class="edge">
<title>Node64&#45;&gt;Node7</title>
<path fill="none" stroke="#191970" d="M2418.1335,-241.9889C2535.8759,-229.0279 2745.2424,-205.1922 2750.7071,-199 2779.4605,-166.4188 2751.1526,-112.3178 2732.7503,-84.2112"/>
<polygon fill="#191970" stroke="#191970" points="2735.507,-82.041 2726.986,-75.7446 2729.7207,-85.9804 2735.507,-82.041"/>
</g>
<!-- Node64&#45;&gt;Node21 -->
<g id="edge113" class="edge">
<title>Node64&#45;&gt;Node21</title>
<path fill="none" stroke="#191970" d="M2346.666,-240.8211C2357.867,-223.9616 2376.887,-189.0038 2358.7071,-168 2314.8958,-117.3837 1840.2795,-79.3379 1696.0432,-68.8789"/>
<polygon fill="#191970" stroke="#191970" points="1696.0726,-65.3721 1685.8473,-68.1458 1695.5705,-72.354 1696.0726,-65.3721"/>
</g>
<!-- Node64&#45;&gt;Node24 -->
<g id="edge117" class="edge">
<title>Node64&#45;&gt;Node24</title>
<path fill="none" stroke="#191970" d="M2293.7824,-240.9462C2258.6631,-232.6201 2209.6486,-218.7588 2169.7071,-199 2148.59,-188.5535 2148.7913,-176.2066 2126.7071,-168 1953.995,-103.8192 1896.4649,-155.4142 1713.7071,-132 1712.4029,-131.8329 1711.0834,-131.6579 1709.7534,-131.4762"/>
<polygon fill="#191970" stroke="#191970" points="1709.8285,-127.9502 1699.4282,-129.9709 1708.8186,-134.877 1709.8285,-127.9502"/>
</g>
<!-- Node64&#45;&gt;Node53 -->
<g id="edge114" class="edge">
<title>Node64&#45;&gt;Node53</title>
<path fill="none" stroke="#191970" d="M2287.5476,-240.9736C2235.4083,-231.3474 2152.69,-215.7965 2071.6418,-199.1626"/>
<polygon fill="#191970" stroke="#191970" points="2072.2688,-195.7184 2061.7683,-197.1291 2070.8567,-202.5745 2072.2688,-195.7184"/>
</g>
<!-- Node64&#45;&gt;Node60 -->
<g id="edge115" class="edge">
<title>Node64&#45;&gt;Node60</title>
<path fill="none" stroke="#191970" d="M2331.2538,-240.9005C2322.0533,-230.4525 2307.1536,-213.5325 2295.9093,-200.7635"/>
<polygon fill="#191970" stroke="#191970" points="2298.3802,-198.2735 2289.1447,-193.0817 2293.1268,-202.8997 2298.3802,-198.2735"/>
</g>
<!-- Node65&#45;&gt;Node3 -->
<g id="edge119" class="edge">
<title>Node65&#45;&gt;Node3</title>
<path fill="none" stroke="#191970" d="M2567.631,-240.8046C2555.7352,-224.8055 2530.5821,-192.2365 2505.7071,-168 2494.4107,-156.9937 2480.6165,-145.9689 2469.3151,-137.4727"/>
<polygon fill="#191970" stroke="#191970" points="2471.3649,-134.6355 2461.2413,-131.5106 2467.2065,-140.2665 2471.3649,-134.6355"/>
</g>
<!-- Node65&#45;&gt;Node7 -->
<g id="edge122" class="edge">
<title>Node65&#45;&gt;Node7</title>
<path fill="none" stroke="#191970" d="M2637.7633,-243.4952C2692.5245,-235.959 2765.7874,-221.8712 2783.7071,-199 2807.5545,-168.563 2801.3495,-146.4072 2783.7071,-112 2776.7741,-98.4789 2763.8134,-88.0326 2751.359,-80.5377"/>
<polygon fill="#191970" stroke="#191970" points="2752.9143,-77.3979 2742.4731,-75.6001 2749.5143,-83.5168 2752.9143,-77.3979"/>
</g>
<!-- Node65&#45;&gt;Node21 -->
<g id="edge120" class="edge">
<title>Node65&#45;&gt;Node21</title>
<path fill="none" stroke="#191970" d="M2572.5869,-240.6624C2566.2194,-213.8989 2544.4795,-139.9127 2493.7071,-112 2423.4937,-73.3994 1855.8512,-67.1735 1696.2914,-66.184"/>
<polygon fill="#191970" stroke="#191970" points="1695.9704,-62.6822 1685.9501,-66.1238 1695.9295,-69.6821 1695.9704,-62.6822"/>
</g>
<!-- Node65&#45;&gt;Node24 -->
<g id="edge123" class="edge">
<title>Node65&#45;&gt;Node24</title>
<path fill="none" stroke="#191970" d="M2511.5659,-243.52C2412.9238,-232.3513 2230.6065,-210.5492 2202.7071,-199 2181.5995,-190.2624 2183.0566,-176.1285 2161.7071,-168 2068.367,-132.4622 1812.8162,-144.357 1713.7071,-132 1712.4023,-131.8373 1711.0823,-131.6663 1709.7519,-131.4881"/>
<polygon fill="#191970" stroke="#191970" points="1709.8206,-127.9621 1699.4241,-130.0028 1708.824,-134.8908 1709.8206,-127.9621"/>
</g>
<!-- Node65&#45;&gt;Node60 -->
<g id="edge121" class="edge">
<title>Node65&#45;&gt;Node60</title>
<path fill="none" stroke="#191970" d="M2532.8963,-240.9717C2480.2539,-228.975 2389.8167,-208.3651 2332.7521,-195.3606"/>
<polygon fill="#191970" stroke="#191970" points="2333.3774,-191.9134 2322.8496,-193.1039 2331.822,-198.7385 2333.3774,-191.9134"/>
</g>
<!-- Node66&#45;&gt;Node6 -->
<g id="edge129" class="edge">
<title>Node66&#45;&gt;Node6</title>
<path fill="none" stroke="#191970" d="M2650.9918,-173.7963C2620.1294,-157.4641 2554.0246,-124.9952 2493.7071,-112 2279.5851,-65.8682 1727.5882,-84.2091 1508.7071,-76 1425.6132,-72.8836 1327.587,-69.0785 1279.0657,-67.1865"/>
<polygon fill="#191970" stroke="#191970" points="1279.0629,-63.6838 1268.934,-66.7911 1278.7899,-70.6785 1279.0629,-63.6838"/>
</g>
<!-- Node66&#45;&gt;Node7 -->
<g id="edge130" class="edge">
<title>Node66&#45;&gt;Node7</title>
<path fill="none" stroke="#191970" d="M2672.8806,-173.8845C2681.286,-154.5192 2700.3898,-110.5055 2711.4238,-85.084"/>
<polygon fill="#191970" stroke="#191970" points="2714.7049,-86.3151 2715.4759,-75.7484 2708.2836,-83.528 2714.7049,-86.3151"/>
</g>
<!-- Node66&#45;&gt;Node8 -->
<g id="edge128" class="edge">
<title>Node66&#45;&gt;Node8</title>
<path fill="none" stroke="#191970" d="M2651.7276,-173.773C2627.1827,-159.7845 2580.2791,-133.3239 2539.7071,-112 2477.617,-79.3666 2403.7277,-43.2607 2363.8026,-23.9728"/>
<polygon fill="#191970" stroke="#191970" points="2365.1728,-20.7479 2354.6452,-19.5562 2362.1319,-27.0529 2365.1728,-20.7479"/>
</g>
<!-- Node66&#45;&gt;Node24 -->
<g id="edge131" class="edge">
<title>Node66&#45;&gt;Node24</title>
<path fill="none" stroke="#191970" d="M2596.1896,-179.1018C2403.1818,-167.3957 1880.0429,-135.6668 1709.3658,-125.3151"/>
<polygon fill="#191970" stroke="#191970" points="1709.5465,-121.8197 1699.3529,-124.7078 1709.1226,-128.8069 1709.5465,-121.8197"/>
</g>
<!-- Node67&#45;&gt;Node65 -->
<g id="edge133" class="edge">
<title>Node67&#45;&gt;Node65</title>
<path fill="none" stroke="#191970" d="M2574.7071,-369.3416C2574.7071,-348.4114 2574.7071,-298.504 2574.7071,-270.4762"/>
<polygon fill="#191970" stroke="#191970" points="2578.2072,-270.2704 2574.7071,-260.2705 2571.2072,-270.2705 2578.2072,-270.2704"/>
</g>
</g>
</svg>
