<?xml version="1.0" encoding="UTF-8" standalone="no"?>
<!DOCTYPE svg PUBLIC "-//W3C//DTD SVG 1.1//EN"
 "http://www.w3.org/Graphics/SVG/1.1/DTD/svg11.dtd">
<!-- Generated by graphviz version 2.40.1 (20161225.0304)
 -->
<!-- Title: Logger.h Pages: 1 -->
<svg width="2160pt" height="364pt"
 viewBox="0.00 0.00 2159.50 364.00" xmlns="http://www.w3.org/2000/svg" xmlns:xlink="http://www.w3.org/1999/xlink">
<g id="graph0" class="graph" transform="scale(1 1) rotate(0) translate(4 360)">
<title>Logger.h</title>
<polygon fill="#ffffff" stroke="transparent" points="-4,4 -4,-360 2155.5,-360 2155.5,4 -4,4"/>
<!-- Node1 -->
<g id="node1" class="node">
<title>Node1</title>
<g id="a_node1"><a xlink:title="Define Logger namespace containing logging related declarations and convenience macros.">
<polygon fill="#bfbfbf" stroke="#000000" points="476.5,-336.5 476.5,-355.5 530.5,-355.5 530.5,-336.5 476.5,-336.5"/>
<text text-anchor="middle" x="503.5" y="-343.5" font-family="Helvetica,sans-Serif" font-size="10.00" fill="#000000">Logger.h</text>
</a>
</g>
</g>
<!-- Node2 -->
<g id="node2" class="node">
<title>Node2</title>
<g id="a_node2"><a xlink:title=" ">
<polygon fill="#ffffff" stroke="#bfbfbf" points="0,-280.5 0,-299.5 73,-299.5 73,-280.5 0,-280.5"/>
<text text-anchor="middle" x="36.5" y="-287.5" font-family="Helvetica,sans-Serif" font-size="10.00" fill="#000000">initializer_list</text>
</a>
</g>
</g>
<!-- Node1&#45;&gt;Node2 -->
<g id="edge1" class="edge">
<title>Node1&#45;&gt;Node2</title>
<path fill="none" stroke="#191970" d="M476.2769,-344.0242C410.5446,-339.0417 237.8147,-324.6863 83.2456,-299.9619"/>
<polygon fill="#191970" stroke="#191970" points="83.5227,-296.4613 73.0919,-298.3184 82.4042,-303.3714 83.5227,-296.4613"/>
</g>
<!-- Node3 -->
<g id="node3" class="node">
<title>Node3</title>
<g id="a_node3"><a xlink:title=" ">
<polygon fill="#ffffff" stroke="#bfbfbf" points="91.5,-280.5 91.5,-299.5 135.5,-299.5 135.5,-280.5 91.5,-280.5"/>
<text text-anchor="middle" x="113.5" y="-287.5" font-family="Helvetica,sans-Serif" font-size="10.00" fill="#000000">mutex</text>
</a>
</g>
</g>
<!-- Node1&#45;&gt;Node3 -->
<g id="edge2" class="edge">
<title>Node1&#45;&gt;Node3</title>
<path fill="none" stroke="#191970" d="M476.1929,-343.781C416.4962,-338.6402 270.0662,-324.4504 149.5,-300 148.2484,-299.7462 146.9764,-299.4723 145.6946,-299.1828"/>
<polygon fill="#191970" stroke="#191970" points="146.3985,-295.7514 135.8496,-296.7366 144.7105,-302.5448 146.3985,-295.7514"/>
</g>
<!-- Node4 -->
<g id="node4" class="node">
<title>Node4</title>
<g id="a_node4"><a xlink:title=" ">
<polygon fill="#ffffff" stroke="#bfbfbf" points="445,-56.5 445,-75.5 486,-75.5 486,-56.5 445,-56.5"/>
<text text-anchor="middle" x="465.5" y="-63.5" font-family="Helvetica,sans-Serif" font-size="10.00" fill="#000000">string</text>
</a>
</g>
</g>
<!-- Node1&#45;&gt;Node4 -->
<g id="edge3" class="edge">
<title>Node1&#45;&gt;Node4</title>
<path fill="none" stroke="#191970" d="M476.2511,-342.9815C395.5704,-333.2952 163.5,-299.7214 163.5,-234 163.5,-234 163.5,-234 163.5,-178 163.5,-120.5864 357.804,-83.2178 434.7031,-70.6768"/>
<polygon fill="#191970" stroke="#191970" points="435.42,-74.1067 444.7423,-69.0724 434.3153,-67.1944 435.42,-74.1067"/>
</g>
<!-- Node5 -->
<g id="node5" class="node">
<title>Node5</title>
<g id="a_node5"><a xlink:title=" ">
<polygon fill="#ffffff" stroke="#bfbfbf" points="836.5,-56.5 836.5,-75.5 876.5,-75.5 876.5,-56.5 836.5,-56.5"/>
<text text-anchor="middle" x="856.5" y="-63.5" font-family="Helvetica,sans-Serif" font-size="10.00" fill="#000000">utility</text>
</a>
</g>
</g>
<!-- Node1&#45;&gt;Node5 -->
<g id="edge4" class="edge">
<title>Node1&#45;&gt;Node5</title>
<path fill="none" stroke="#191970" d="M530.6932,-342.7429C584.2149,-334.9992 704.2839,-310.852 776.5,-244 824.2674,-199.7807 845.3956,-121.6781 852.9653,-85.456"/>
<polygon fill="#191970" stroke="#191970" points="856.3997,-86.1304 854.8937,-75.6431 849.5311,-84.7805 856.3997,-86.1304"/>
</g>
<!-- Node6 -->
<g id="node6" class="node">
<title>Node6</title>
<g id="a_node6"><a xlink:href="LibraryData_8h.html" target="_top" xlink:title=" ">
<polygon fill="#ffffff" stroke="#000000" points="1458.5,-56.5 1458.5,-75.5 1554.5,-75.5 1554.5,-56.5 1458.5,-56.5"/>
<text text-anchor="middle" x="1506.5" y="-63.5" font-family="Helvetica,sans-Serif" font-size="10.00" fill="#000000">LLU/LibraryData.h</text>
</a>
</g>
</g>
<!-- Node1&#45;&gt;Node6 -->
<g id="edge5" class="edge">
<title>Node1&#45;&gt;Node6</title>
<path fill="none" stroke="#191970" d="M530.5686,-344.4646C691.5051,-335.1622 1515.5,-285.0415 1515.5,-234 1515.5,-234 1515.5,-234 1515.5,-178 1515.5,-145.6075 1511.7133,-108.1141 1509.0523,-85.7662"/>
<polygon fill="#191970" stroke="#191970" points="1512.4919,-85.0616 1507.7895,-75.5676 1505.545,-85.9219 1512.4919,-85.0616"/>
</g>
<!-- Node15 -->
<g id="node15" class="node">
<title>Node15</title>
<g id="a_node15"><a xlink:href="WSStream_8hpp.html" target="_top" xlink:title="Header file for WSStream class.">
<polygon fill="#ffffff" stroke="#000000" points="937,-280.5 937,-299.5 1074,-299.5 1074,-280.5 937,-280.5"/>
<text text-anchor="middle" x="1005.5" y="-287.5" font-family="Helvetica,sans-Serif" font-size="10.00" fill="#000000">LLU/WSTP/WSStream.hpp</text>
</a>
</g>
</g>
<!-- Node1&#45;&gt;Node15 -->
<g id="edge14" class="edge">
<title>Node1&#45;&gt;Node15</title>
<path fill="none" stroke="#191970" d="M530.8462,-342.9494C605.0262,-334.6744 812.1572,-311.5681 926.7522,-298.7846"/>
<polygon fill="#191970" stroke="#191970" points="927.3186,-302.2432 936.8689,-297.6561 926.5425,-295.2864 927.3186,-302.2432"/>
</g>
<!-- Node7 -->
<g id="node7" class="node">
<title>Node7</title>
<g id="a_node7"><a xlink:title=" ">
<polygon fill="#ffffff" stroke="#bfbfbf" points="1301.5,-.5 1301.5,-19.5 1353.5,-19.5 1353.5,-.5 1301.5,-.5"/>
<text text-anchor="middle" x="1327.5" y="-7.5" font-family="Helvetica,sans-Serif" font-size="10.00" fill="#000000">memory</text>
</a>
</g>
</g>
<!-- Node6&#45;&gt;Node7 -->
<g id="edge6" class="edge">
<title>Node6&#45;&gt;Node7</title>
<path fill="none" stroke="#191970" d="M1475.7288,-56.3733C1444.4762,-46.5959 1396.118,-31.4671 1363.1997,-21.1686"/>
<polygon fill="#191970" stroke="#191970" points="1364.1043,-17.7844 1353.5154,-18.1389 1362.0142,-24.4651 1364.1043,-17.7844"/>
</g>
<!-- Node8 -->
<g id="node8" class="node">
<title>Node8</title>
<g id="a_node8"><a xlink:title=" ">
<polygon fill="#ffffff" stroke="#bfbfbf" points="1371.5,-.5 1371.5,-19.5 1433.5,-19.5 1433.5,-.5 1371.5,-.5"/>
<text text-anchor="middle" x="1402.5" y="-7.5" font-family="Helvetica,sans-Serif" font-size="10.00" fill="#000000">dllexport.h</text>
</a>
</g>
</g>
<!-- Node6&#45;&gt;Node8 -->
<g id="edge7" class="edge">
<title>Node6&#45;&gt;Node8</title>
<path fill="none" stroke="#191970" d="M1488.3846,-56.2455C1472.055,-47.4527 1447.829,-34.4079 1429.2661,-24.4125"/>
<polygon fill="#191970" stroke="#191970" points="1430.8719,-21.3021 1420.4078,-19.6427 1427.5532,-27.4654 1430.8719,-21.3021"/>
</g>
<!-- Node9 -->
<g id="node9" class="node">
<title>Node9</title>
<g id="a_node9"><a xlink:title=" ">
<polygon fill="#ffffff" stroke="#bfbfbf" points="716.5,-.5 716.5,-19.5 762.5,-19.5 762.5,-.5 716.5,-.5"/>
<text text-anchor="middle" x="739.5" y="-7.5" font-family="Helvetica,sans-Serif" font-size="10.00" fill="#000000">wstp.h</text>
</a>
</g>
</g>
<!-- Node6&#45;&gt;Node9 -->
<g id="edge8" class="edge">
<title>Node6&#45;&gt;Node9</title>
<path fill="none" stroke="#191970" d="M1458.2302,-62.4757C1314.9976,-52.0181 894.7971,-21.3385 772.9655,-12.4434"/>
<polygon fill="#191970" stroke="#191970" points="772.994,-8.9362 762.7657,-11.6987 772.4842,-15.9176 772.994,-8.9362"/>
</g>
<!-- Node10 -->
<g id="node10" class="node">
<title>Node10</title>
<g id="a_node10"><a xlink:title=" ">
<polygon fill="#ffffff" stroke="#bfbfbf" points="1452,-.5 1452,-19.5 1543,-19.5 1543,-.5 1452,-.5"/>
<text text-anchor="middle" x="1497.5" y="-7.5" font-family="Helvetica,sans-Serif" font-size="10.00" fill="#000000">WolframLibrary.h</text>
</a>
</g>
</g>
<!-- Node6&#45;&gt;Node10 -->
<g id="edge9" class="edge">
<title>Node6&#45;&gt;Node10</title>
<path fill="none" stroke="#191970" d="M1504.9323,-56.2455C1503.7579,-48.9382 1502.1116,-38.6944 1500.6668,-29.7046"/>
<polygon fill="#191970" stroke="#191970" points="1504.0922,-28.9606 1499.0497,-19.6427 1497.1809,-30.0714 1504.0922,-28.9606"/>
</g>
<!-- Node11 -->
<g id="node11" class="node">
<title>Node11</title>
<g id="a_node11"><a xlink:title=" ">
<polygon fill="#ffffff" stroke="#bfbfbf" points="1561.5,-.5 1561.5,-19.5 1705.5,-19.5 1705.5,-.5 1561.5,-.5"/>
<text text-anchor="middle" x="1633.5" y="-7.5" font-family="Helvetica,sans-Serif" font-size="10.00" fill="#000000">WolframIOLibraryFunctions.h</text>
</a>
</g>
</g>
<!-- Node6&#45;&gt;Node11 -->
<g id="edge10" class="edge">
<title>Node6&#45;&gt;Node11</title>
<path fill="none" stroke="#191970" d="M1528.3321,-56.3733C1548.8103,-47.3435 1579.6399,-33.7494 1602.6319,-23.6111"/>
<polygon fill="#191970" stroke="#191970" points="1604.215,-26.7383 1611.9528,-19.5011 1601.3907,-20.3333 1604.215,-26.7383"/>
</g>
<!-- Node12 -->
<g id="node12" class="node">
<title>Node12</title>
<g id="a_node12"><a xlink:title=" ">
<polygon fill="#ffffff" stroke="#bfbfbf" points="1723.5,-.5 1723.5,-19.5 1841.5,-19.5 1841.5,-.5 1723.5,-.5"/>
<text text-anchor="middle" x="1782.5" y="-7.5" font-family="Helvetica,sans-Serif" font-size="10.00" fill="#000000">WolframImageLibrary.h</text>
</a>
</g>
</g>
<!-- Node6&#45;&gt;Node12 -->
<g id="edge11" class="edge">
<title>Node6&#45;&gt;Node12</title>
<path fill="none" stroke="#191970" d="M1553.6325,-56.4369C1601.2647,-46.7724 1674.8967,-31.8326 1725.7166,-21.5213"/>
<polygon fill="#191970" stroke="#191970" points="1726.4576,-24.9423 1735.5619,-19.5237 1725.0656,-18.0821 1726.4576,-24.9423"/>
</g>
<!-- Node13 -->
<g id="node13" class="node">
<title>Node13</title>
<g id="a_node13"><a xlink:title=" ">
<polygon fill="#ffffff" stroke="#bfbfbf" points="1860,-.5 1860,-19.5 2011,-19.5 2011,-.5 1860,-.5"/>
<text text-anchor="middle" x="1935.5" y="-7.5" font-family="Helvetica,sans-Serif" font-size="10.00" fill="#000000">WolframNumericArrayLibrary.h</text>
</a>
</g>
</g>
<!-- Node6&#45;&gt;Node13 -->
<g id="edge12" class="edge">
<title>Node6&#45;&gt;Node13</title>
<path fill="none" stroke="#191970" d="M1554.8778,-59.6849C1627.1446,-50.2515 1764.2314,-32.3567 1852.6514,-20.8147"/>
<polygon fill="#191970" stroke="#191970" points="1853.1882,-24.2744 1862.651,-19.5094 1852.2821,-17.3333 1853.1882,-24.2744"/>
</g>
<!-- Node14 -->
<g id="node14" class="node">
<title>Node14</title>
<g id="a_node14"><a xlink:title=" ">
<polygon fill="#ffffff" stroke="#bfbfbf" points="2029.5,-.5 2029.5,-19.5 2151.5,-19.5 2151.5,-.5 2029.5,-.5"/>
<text text-anchor="middle" x="2090.5" y="-7.5" font-family="Helvetica,sans-Serif" font-size="10.00" fill="#000000">WolframSparseLibrary.h</text>
</a>
</g>
</g>
<!-- Node6&#45;&gt;Node14 -->
<g id="edge13" class="edge">
<title>Node6&#45;&gt;Node14</title>
<path fill="none" stroke="#191970" d="M1554.7743,-62.5319C1644.2482,-55.9186 1842.1095,-40.426 2019.4083,-20.0751"/>
<polygon fill="#191970" stroke="#191970" points="2019.9091,-23.5406 2029.4412,-18.9157 2019.1054,-16.5869 2019.9091,-23.5406"/>
</g>
<!-- Node15&#45;&gt;Node5 -->
<g id="edge20" class="edge">
<title>Node15&#45;&gt;Node5</title>
<path fill="none" stroke="#191970" d="M965.8928,-280.4506C944.2125,-273.4728 918.2325,-262.011 900.5,-244 862.6268,-205.5319 864.154,-184.9213 853.5,-132 851.7457,-123.2859 853.2106,-120.8842 853.5,-112 853.783,-103.3113 854.366,-93.714 854.9434,-85.5436"/>
<polygon fill="#191970" stroke="#191970" points="858.4384,-85.7404 855.6987,-75.5059 851.4582,-85.2151 858.4384,-85.7404"/>
</g>
<!-- Node15&#45;&gt;Node9 -->
<g id="edge22" class="edge">
<title>Node15&#45;&gt;Node9</title>
<path fill="none" stroke="#191970" d="M936.8144,-288.4553C729.708,-282.8947 125.5,-259.6735 125.5,-178 125.5,-178 125.5,-178 125.5,-122 125.5,-33.8643 226.5526,-75.5179 312.5,-56 456.3514,-23.3327 632.8891,-13.6837 705.6744,-10.9856"/>
<polygon fill="#191970" stroke="#191970" points="706.1734,-14.4704 716.0449,-10.6229 705.9286,-7.4747 706.1734,-14.4704"/>
</g>
<!-- Node16 -->
<g id="node16" class="node">
<title>Node16</title>
<g id="a_node16"><a xlink:title=" ">
<polygon fill="#ffffff" stroke="#bfbfbf" points="1393.5,-168.5 1393.5,-187.5 1449.5,-187.5 1449.5,-168.5 1393.5,-168.5"/>
<text text-anchor="middle" x="1421.5" y="-175.5" font-family="Helvetica,sans-Serif" font-size="10.00" fill="#000000">algorithm</text>
</a>
</g>
</g>
<!-- Node15&#45;&gt;Node16 -->
<g id="edge15" class="edge">
<title>Node15&#45;&gt;Node16</title>
<path fill="none" stroke="#191970" d="M1074.1488,-285.29C1158.8908,-278.6838 1297.5586,-265.0612 1344.5,-244 1369.4393,-232.8105 1392.4487,-210.9194 1406.6969,-195.4218"/>
<polygon fill="#191970" stroke="#191970" points="1409.6408,-197.3781 1413.6678,-187.5784 1404.4086,-192.7279 1409.6408,-197.3781"/>
</g>
<!-- Node17 -->
<g id="node17" class="node">
<title>Node17</title>
<g id="a_node17"><a xlink:title=" ">
<polygon fill="#ffffff" stroke="#bfbfbf" points="1114,-224.5 1114,-243.5 1161,-243.5 1161,-224.5 1114,-224.5"/>
<text text-anchor="middle" x="1137.5" y="-231.5" font-family="Helvetica,sans-Serif" font-size="10.00" fill="#000000">iterator</text>
</a>
</g>
</g>
<!-- Node15&#45;&gt;Node17 -->
<g id="edge16" class="edge">
<title>Node15&#45;&gt;Node17</title>
<path fill="none" stroke="#191970" d="M1028.1916,-280.3733C1049.5711,-271.3032 1081.8057,-257.6279 1105.7362,-247.4755"/>
<polygon fill="#191970" stroke="#191970" points="1107.2656,-250.6287 1115.1045,-243.5011 1104.5317,-244.1846 1107.2656,-250.6287"/>
</g>
<!-- Node18 -->
<g id="node18" class="node">
<title>Node18</title>
<g id="a_node18"><a xlink:title=" ">
<polygon fill="#ffffff" stroke="#bfbfbf" points="1179,-224.5 1179,-243.5 1214,-243.5 1214,-224.5 1179,-224.5"/>
<text text-anchor="middle" x="1196.5" y="-231.5" font-family="Helvetica,sans-Serif" font-size="10.00" fill="#000000">map</text>
</a>
</g>
</g>
<!-- Node15&#45;&gt;Node18 -->
<g id="edge17" class="edge">
<title>Node15&#45;&gt;Node18</title>
<path fill="none" stroke="#191970" d="M1042.8847,-280.4408C1074.2063,-272.2263 1120.2632,-259.6711 1169.0607,-243.9547"/>
<polygon fill="#191970" stroke="#191970" points="1170.4262,-247.1912 1178.8532,-240.7696 1168.261,-240.5344 1170.4262,-247.1912"/>
</g>
<!-- Node19 -->
<g id="node19" class="node">
<title>Node19</title>
<g id="a_node19"><a xlink:title=" ">
<polygon fill="#ffffff" stroke="#bfbfbf" points="1232,-224.5 1232,-243.5 1273,-243.5 1273,-224.5 1232,-224.5"/>
<text text-anchor="middle" x="1252.5" y="-231.5" font-family="Helvetica,sans-Serif" font-size="10.00" fill="#000000">stack</text>
</a>
</g>
</g>
<!-- Node15&#45;&gt;Node19 -->
<g id="edge18" class="edge">
<title>Node15&#45;&gt;Node19</title>
<path fill="none" stroke="#191970" d="M1058.5177,-280.4951C1100.4568,-272.584 1160.6357,-260.366 1222.0687,-243.8772"/>
<polygon fill="#191970" stroke="#191970" points="1223.2051,-247.1954 1231.9365,-241.1942 1221.3685,-240.4406 1223.2051,-247.1954"/>
</g>
<!-- Node20 -->
<g id="node20" class="node">
<title>Node20</title>
<g id="a_node20"><a xlink:title=" ">
<polygon fill="#ffffff" stroke="#bfbfbf" points="1187.5,-56.5 1187.5,-75.5 1249.5,-75.5 1249.5,-56.5 1187.5,-56.5"/>
<text text-anchor="middle" x="1218.5" y="-63.5" font-family="Helvetica,sans-Serif" font-size="10.00" fill="#000000">type_traits</text>
</a>
</g>
</g>
<!-- Node15&#45;&gt;Node20 -->
<g id="edge19" class="edge">
<title>Node15&#45;&gt;Node20</title>
<path fill="none" stroke="#191970" d="M1074.3191,-285.2214C1165.4911,-278.2397 1321.0241,-263.8854 1374.5,-244 1416.5555,-228.3614 1437.3282,-227.5599 1458.5,-188 1501.5592,-107.5431 1339.3549,-78.848 1259.9254,-69.7587"/>
<polygon fill="#191970" stroke="#191970" points="1260.0737,-66.2543 1249.7533,-68.6501 1259.3152,-73.213 1260.0737,-66.2543"/>
</g>
<!-- Node21 -->
<g id="node21" class="node">
<title>Node21</title>
<g id="a_node21"><a xlink:title=" ">
<polygon fill="#ffffff" stroke="#bfbfbf" points="1291.5,-224.5 1291.5,-243.5 1335.5,-243.5 1335.5,-224.5 1291.5,-224.5"/>
<text text-anchor="middle" x="1313.5" y="-231.5" font-family="Helvetica,sans-Serif" font-size="10.00" fill="#000000">vector</text>
</a>
</g>
</g>
<!-- Node15&#45;&gt;Node21 -->
<g id="edge21" class="edge">
<title>Node15&#45;&gt;Node21</title>
<path fill="none" stroke="#191970" d="M1074.0786,-281.2482C1130.2451,-273.4411 1211.5648,-260.6715 1281.5,-244 1281.5991,-243.9764 1281.6983,-243.9526 1281.7977,-243.9287"/>
<polygon fill="#191970" stroke="#191970" points="1282.4829,-247.3689 1291.2294,-241.3898 1280.6634,-240.6095 1282.4829,-247.3689"/>
</g>
<!-- Node22 -->
<g id="node22" class="node">
<title>Node22</title>
<g id="a_node22"><a xlink:href="Errors_8h.html" target="_top" xlink:title="Definitions of error names and error codes used across LLU.">
<polygon fill="#ffffff" stroke="#000000" points="273.5,-112.5 273.5,-131.5 385.5,-131.5 385.5,-112.5 273.5,-112.5"/>
<text text-anchor="middle" x="329.5" y="-119.5" font-family="Helvetica,sans-Serif" font-size="10.00" fill="#000000">LLU/ErrorLog/Errors.h</text>
</a>
</g>
</g>
<!-- Node15&#45;&gt;Node22 -->
<g id="edge23" class="edge">
<title>Node15&#45;&gt;Node22</title>
<path fill="none" stroke="#191970" d="M936.7728,-286.7144C808.3169,-280.1847 536.5011,-264.426 444.5,-244 374.6238,-228.4862 334.3771,-246.7573 293.5,-188 282.3681,-171.9989 296.4761,-152.2056 310.1638,-138.4902"/>
<polygon fill="#191970" stroke="#191970" points="312.6575,-140.9499 317.5618,-131.5585 307.8714,-135.8418 312.6575,-140.9499"/>
</g>
<!-- Node23 -->
<g id="node23" class="node">
<title>Node23</title>
<g id="a_node23"><a xlink:href="Utilities_8hpp.html" target="_top" xlink:title="Short but generally useful functions.">
<polygon fill="#ffffff" stroke="#000000" points="1073,-112.5 1073,-131.5 1162,-131.5 1162,-112.5 1073,-112.5"/>
<text text-anchor="middle" x="1117.5" y="-119.5" font-family="Helvetica,sans-Serif" font-size="10.00" fill="#000000">LLU/Utilities.hpp</text>
</a>
</g>
</g>
<!-- Node15&#45;&gt;Node23 -->
<g id="edge25" class="edge">
<title>Node15&#45;&gt;Node23</title>
<path fill="none" stroke="#191970" d="M1011.8425,-280.4862C1029.8537,-253.4695 1081.5397,-175.9405 1105.2932,-140.3102"/>
<polygon fill="#191970" stroke="#191970" points="1108.3132,-142.0899 1110.9481,-131.8279 1102.4889,-138.2069 1108.3132,-142.0899"/>
</g>
<!-- Node27 -->
<g id="node27" class="node">
<title>Node27</title>
<g id="a_node27"><a xlink:href="Get_8h.html" target="_top" xlink:title="Header file with classes related to reading data from WSTP.">
<polygon fill="#ffffff" stroke="#000000" points="673.5,-224.5 673.5,-243.5 767.5,-243.5 767.5,-224.5 673.5,-224.5"/>
<text text-anchor="middle" x="720.5" y="-231.5" font-family="Helvetica,sans-Serif" font-size="10.00" fill="#000000">LLU/WSTP/Get.h</text>
</a>
</g>
</g>
<!-- Node15&#45;&gt;Node27 -->
<g id="edge32" class="edge">
<title>Node15&#45;&gt;Node27</title>
<path fill="none" stroke="#191970" d="M956.8306,-280.4369C907.0946,-270.6642 829.9067,-255.4974 777.3818,-245.1768"/>
<polygon fill="#191970" stroke="#191970" points="778.0348,-241.7382 767.5476,-243.2444 776.6851,-248.6069 778.0348,-241.7382"/>
</g>
<!-- Node30 -->
<g id="node30" class="node">
<title>Node30</title>
<g id="a_node30"><a xlink:href="WSTP_2Utilities_8h.html" target="_top" xlink:title="Header file with miscellaneous utilities used throughout the WSTP&#45;related part of LibraryLinkUtilitie...">
<polygon fill="#ffffff" stroke="#000000" points="382,-168.5 382,-187.5 493,-187.5 493,-168.5 382,-168.5"/>
<text text-anchor="middle" x="437.5" y="-175.5" font-family="Helvetica,sans-Serif" font-size="10.00" fill="#000000">LLU/WSTP/Utilities.h</text>
</a>
</g>
</g>
<!-- Node15&#45;&gt;Node30 -->
<g id="edge68" class="edge">
<title>Node15&#45;&gt;Node30</title>
<path fill="none" stroke="#191970" d="M936.7792,-288.1747C799.3678,-283.9509 500.6604,-271.6731 463.5,-244 448.8753,-233.109 442.4702,-212.7384 439.669,-197.4967"/>
<polygon fill="#191970" stroke="#191970" points="443.1186,-196.8977 438.2002,-187.5137 436.1932,-197.9167 443.1186,-196.8977"/>
</g>
<!-- Node33 -->
<g id="node33" class="node">
<title>Node33</title>
<g id="a_node33"><a xlink:href="Put_8h.html" target="_top" xlink:title="Header file with classes related to sending data through WSTP.">
<polygon fill="#ffffff" stroke="#000000" points="473,-224.5 473,-243.5 566,-243.5 566,-224.5 473,-224.5"/>
<text text-anchor="middle" x="519.5" y="-231.5" font-family="Helvetica,sans-Serif" font-size="10.00" fill="#000000">LLU/WSTP/Put.h</text>
</a>
</g>
</g>
<!-- Node15&#45;&gt;Node33 -->
<g id="edge53" class="edge">
<title>Node15&#45;&gt;Node33</title>
<path fill="none" stroke="#191970" d="M936.8988,-282.0953C840.2787,-270.9622 665.9107,-250.8704 576.2015,-240.5335"/>
<polygon fill="#191970" stroke="#191970" points="576.5509,-237.0507 566.216,-239.3829 575.7496,-244.0047 576.5509,-237.0507"/>
</g>
<!-- Node34 -->
<g id="node34" class="node">
<title>Node34</title>
<g id="a_node34"><a xlink:href="Strings_8h.html" target="_top" xlink:title="Definitions of multiple structures and type aliases related to string handling in WSTP.">
<polygon fill="#ffffff" stroke="#000000" points="910,-224.5 910,-243.5 1019,-243.5 1019,-224.5 910,-224.5"/>
<text text-anchor="middle" x="964.5" y="-231.5" font-family="Helvetica,sans-Serif" font-size="10.00" fill="#000000">LLU/WSTP/Strings.h</text>
</a>
</g>
</g>
<!-- Node15&#45;&gt;Node34 -->
<g id="edge59" class="edge">
<title>Node15&#45;&gt;Node34</title>
<path fill="none" stroke="#191970" d="M998.3583,-280.2455C992.6556,-272.4564 984.51,-261.3308 977.6375,-251.9439"/>
<polygon fill="#191970" stroke="#191970" points="980.2913,-249.6437 971.5598,-243.6427 974.6432,-253.7789 980.2913,-249.6437"/>
</g>
<!-- Node35 -->
<g id="node35" class="node">
<title>Node35</title>
<g id="a_node35"><a xlink:href="UtilityTypeTraits_8hpp.html" target="_top" xlink:title="Type traits used by WSStream to identify types supported by WSTP.">
<polygon fill="#ffffff" stroke="#000000" points="1138,-168.5 1138,-187.5 1299,-187.5 1299,-168.5 1138,-168.5"/>
<text text-anchor="middle" x="1218.5" y="-175.5" font-family="Helvetica,sans-Serif" font-size="10.00" fill="#000000">LLU/WSTP/UtilityTypeTraits.hpp</text>
</a>
</g>
</g>
<!-- Node15&#45;&gt;Node35 -->
<g id="edge69" class="edge">
<title>Node15&#45;&gt;Node35</title>
<path fill="none" stroke="#191970" d="M1018.107,-280.3644C1036.4282,-266.6529 1071.8017,-241.2634 1104.5,-224 1128.9962,-211.067 1157.9571,-199.4237 1180.5586,-191.0868"/>
<polygon fill="#191970" stroke="#191970" points="1181.9337,-194.3112 1190.1396,-187.6095 1179.5455,-187.7312 1181.9337,-194.3112"/>
</g>
<!-- Node22&#45;&gt;Node4 -->
<g id="edge24" class="edge">
<title>Node22&#45;&gt;Node4</title>
<path fill="none" stroke="#191970" d="M352.8792,-112.3733C375.6749,-102.9868 410.4486,-88.6682 435.3217,-78.4263"/>
<polygon fill="#191970" stroke="#191970" points="436.7383,-81.6282 444.6525,-74.5843 434.073,-75.1555 436.7383,-81.6282"/>
</g>
<!-- Node23&#45;&gt;Node5 -->
<g id="edge29" class="edge">
<title>Node23&#45;&gt;Node5</title>
<path fill="none" stroke="#191970" d="M1072.9291,-112.4369C1019.7101,-101.0182 932.1692,-82.2355 886.4375,-72.4234"/>
<polygon fill="#191970" stroke="#191970" points="887.0594,-68.9772 876.5477,-70.3014 885.5909,-75.8215 887.0594,-68.9772"/>
</g>
<!-- Node23&#45;&gt;Node6 -->
<g id="edge31" class="edge">
<title>Node23&#45;&gt;Node6</title>
<path fill="none" stroke="#191970" d="M1162.1232,-115.5761C1232.6943,-105.4168 1370.0591,-85.6419 1448.2886,-74.3801"/>
<polygon fill="#191970" stroke="#191970" points="1449.0574,-77.8055 1458.4566,-72.9163 1448.0599,-70.877 1449.0574,-77.8055"/>
</g>
<!-- Node23&#45;&gt;Node20 -->
<g id="edge28" class="edge">
<title>Node23&#45;&gt;Node20</title>
<path fill="none" stroke="#191970" d="M1135.0929,-112.2455C1150.879,-103.4928 1174.2639,-90.527 1192.2587,-80.5496"/>
<polygon fill="#191970" stroke="#191970" points="1194.0603,-83.5528 1201.1087,-75.6427 1190.6659,-77.4308 1194.0603,-83.5528"/>
</g>
<!-- Node24 -->
<g id="node24" class="node">
<title>Node24</title>
<g id="a_node24"><a xlink:title=" ">
<polygon fill="#ffffff" stroke="#bfbfbf" points="1116,-56.5 1116,-75.5 1169,-75.5 1169,-56.5 1116,-56.5"/>
<text text-anchor="middle" x="1142.5" y="-63.5" font-family="Helvetica,sans-Serif" font-size="10.00" fill="#000000">complex</text>
</a>
</g>
</g>
<!-- Node23&#45;&gt;Node24 -->
<g id="edge26" class="edge">
<title>Node23&#45;&gt;Node24</title>
<path fill="none" stroke="#191970" d="M1121.8547,-112.2455C1125.2244,-104.6973 1129.993,-94.0158 1134.0983,-84.8197"/>
<polygon fill="#191970" stroke="#191970" points="1137.3147,-86.2009 1138.1952,-75.6427 1130.9227,-83.3473 1137.3147,-86.2009"/>
</g>
<!-- Node25 -->
<g id="node25" class="node">
<title>Node25</title>
<g id="a_node25"><a xlink:title=" ">
<polygon fill="#ffffff" stroke="#bfbfbf" points="932.5,-56.5 932.5,-75.5 978.5,-75.5 978.5,-56.5 932.5,-56.5"/>
<text text-anchor="middle" x="955.5" y="-63.5" font-family="Helvetica,sans-Serif" font-size="10.00" fill="#000000">cstdint</text>
</a>
</g>
</g>
<!-- Node23&#45;&gt;Node25 -->
<g id="edge27" class="edge">
<title>Node23&#45;&gt;Node25</title>
<path fill="none" stroke="#191970" d="M1089.6512,-112.3733C1061.448,-102.624 1017.8526,-87.554 988.0664,-77.2575"/>
<polygon fill="#191970" stroke="#191970" points="989.1314,-73.9225 978.5366,-73.9633 986.8443,-80.5384 989.1314,-73.9225"/>
</g>
<!-- Node26 -->
<g id="node26" class="node">
<title>Node26</title>
<g id="a_node26"><a xlink:title=" ">
<polygon fill="#ffffff" stroke="#bfbfbf" points="1051.5,-56.5 1051.5,-75.5 1097.5,-75.5 1097.5,-56.5 1051.5,-56.5"/>
<text text-anchor="middle" x="1074.5" y="-63.5" font-family="Helvetica,sans-Serif" font-size="10.00" fill="#000000">variant</text>
</a>
</g>
</g>
<!-- Node23&#45;&gt;Node26 -->
<g id="edge30" class="edge">
<title>Node23&#45;&gt;Node26</title>
<path fill="none" stroke="#191970" d="M1110.01,-112.2455C1103.9674,-104.3761 1095.3097,-93.101 1088.0559,-83.6542"/>
<polygon fill="#191970" stroke="#191970" points="1090.7705,-81.4426 1081.9042,-75.6427 1085.2185,-85.7058 1090.7705,-81.4426"/>
</g>
<!-- Node27&#45;&gt;Node4 -->
<g id="edge35" class="edge">
<title>Node27&#45;&gt;Node4</title>
<path fill="none" stroke="#191970" d="M689.5592,-224.4416C667.0403,-216.6497 636.4282,-204.2768 612.5,-188 573.2619,-161.3088 574.3922,-141.8499 537.5,-112 523.1217,-100.3664 505.6692,-89.1528 491.5481,-80.7099"/>
<polygon fill="#191970" stroke="#191970" points="493.2114,-77.6279 482.8153,-75.5853 489.6685,-83.6652 493.2114,-77.6279"/>
</g>
<!-- Node27&#45;&gt;Node7 -->
<g id="edge34" class="edge">
<title>Node27&#45;&gt;Node7</title>
<path fill="none" stroke="#191970" d="M767.6383,-231.1042C905.3223,-222.5437 1297.8086,-197.3703 1307.5,-188 1350.452,-146.471 1340.1987,-67.0206 1332.4081,-29.9585"/>
<polygon fill="#191970" stroke="#191970" points="1335.7538,-28.8858 1330.131,-19.9062 1328.9268,-30.4324 1335.7538,-28.8858"/>
</g>
<!-- Node27&#45;&gt;Node9 -->
<g id="edge36" class="edge">
<title>Node27&#45;&gt;Node9</title>
<path fill="none" stroke="#191970" d="M744.2859,-224.4178C759.3669,-216.9442 777.6462,-204.9629 786.5,-188 790.613,-180.1199 787.7806,-176.7962 786.5,-168 779.0093,-116.5462 758.4773,-58.5434 747.1884,-29.2046"/>
<polygon fill="#191970" stroke="#191970" points="750.3944,-27.7928 743.4888,-19.7577 743.8764,-30.3455 750.3944,-27.7928"/>
</g>
<!-- Node27&#45;&gt;Node22 -->
<g id="edge37" class="edge">
<title>Node27&#45;&gt;Node22</title>
<path fill="none" stroke="#191970" d="M673.2666,-229.8227C573.8988,-220.8279 351.3649,-199.5117 339.5,-188 327.4369,-176.296 325.8324,-156.6703 326.7081,-141.8551"/>
<polygon fill="#191970" stroke="#191970" points="330.2136,-141.9737 327.729,-131.6744 323.2486,-141.2752 330.2136,-141.9737"/>
</g>
<!-- Node27&#45;&gt;Node23 -->
<g id="edge38" class="edge">
<title>Node27&#45;&gt;Node23</title>
<path fill="none" stroke="#191970" d="M767.7091,-232.1085C826.1258,-228.5104 927.8667,-218.0946 1009.5,-188 1026.9287,-181.5748 1068.4411,-154.8504 1094.6252,-137.4409"/>
<polygon fill="#191970" stroke="#191970" points="1096.8147,-140.1874 1103.183,-131.72 1092.9243,-134.3679 1096.8147,-140.1874"/>
</g>
<!-- Node28 -->
<g id="node28" class="node">
<title>Node28</title>
<g id="a_node28"><a xlink:title=" ">
<polygon fill="#ffffff" stroke="#bfbfbf" points="597,-112.5 597,-131.5 656,-131.5 656,-112.5 597,-112.5"/>
<text text-anchor="middle" x="626.5" y="-119.5" font-family="Helvetica,sans-Serif" font-size="10.00" fill="#000000">functional</text>
</a>
</g>
</g>
<!-- Node27&#45;&gt;Node28 -->
<g id="edge33" class="edge">
<title>Node27&#45;&gt;Node28</title>
<path fill="none" stroke="#191970" d="M674.9264,-224.49C654.9454,-217.8122 633.376,-206.6135 621.5,-188 612.7329,-174.2591 615.2161,-155.4832 619.1741,-141.4702"/>
<polygon fill="#191970" stroke="#191970" points="622.54,-142.4379 622.3263,-131.8452 615.8877,-140.2592 622.54,-142.4379"/>
</g>
<!-- Node29 -->
<g id="node29" class="node">
<title>Node29</title>
<g id="a_node29"><a xlink:href="Release_8h.html" target="_top" xlink:title="Header file with classes responsible for releasing memory allocated by WSTP when receiving data.">
<polygon fill="#ffffff" stroke="#000000" points="663.5,-168.5 663.5,-187.5 777.5,-187.5 777.5,-168.5 663.5,-168.5"/>
<text text-anchor="middle" x="720.5" y="-175.5" font-family="Helvetica,sans-Serif" font-size="10.00" fill="#000000">LLU/WSTP/Release.h</text>
</a>
</g>
</g>
<!-- Node27&#45;&gt;Node29 -->
<g id="edge39" class="edge">
<title>Node27&#45;&gt;Node29</title>
<path fill="none" stroke="#191970" d="M720.5,-224.2455C720.5,-216.9382 720.5,-206.6944 720.5,-197.7046"/>
<polygon fill="#191970" stroke="#191970" points="724.0001,-197.6426 720.5,-187.6427 717.0001,-197.6427 724.0001,-197.6426"/>
</g>
<!-- Node27&#45;&gt;Node30 -->
<g id="edge43" class="edge">
<title>Node27&#45;&gt;Node30</title>
<path fill="none" stroke="#191970" d="M673.4506,-224.6899C624.5765,-215.0187 548.0353,-199.8727 495.4616,-189.4694"/>
<polygon fill="#191970" stroke="#191970" points="496.0984,-186.0276 485.6091,-187.5198 494.7395,-192.8945 496.0984,-186.0276"/>
</g>
<!-- Node29&#45;&gt;Node9 -->
<g id="edge41" class="edge">
<title>Node29&#45;&gt;Node9</title>
<path fill="none" stroke="#191970" d="M721.576,-168.4862C724.5794,-141.9293 733.1028,-66.5651 737.2194,-30.1655"/>
<polygon fill="#191970" stroke="#191970" points="740.7425,-30.1579 738.3885,-19.8279 733.7868,-29.3712 740.7425,-30.1579"/>
</g>
<!-- Node29&#45;&gt;Node23 -->
<g id="edge42" class="edge">
<title>Node29&#45;&gt;Node23</title>
<path fill="none" stroke="#191970" d="M777.8032,-169.9169C853.9917,-159.1699 987.7192,-140.3066 1062.6491,-129.7372"/>
<polygon fill="#191970" stroke="#191970" points="1063.4067,-133.165 1072.8197,-128.3025 1062.4289,-126.2337 1063.4067,-133.165"/>
</g>
<!-- Node29&#45;&gt;Node28 -->
<g id="edge40" class="edge">
<title>Node29&#45;&gt;Node28</title>
<path fill="none" stroke="#191970" d="M704.1264,-168.2455C689.5692,-159.5731 668.069,-146.7645 651.3848,-136.825"/>
<polygon fill="#191970" stroke="#191970" points="653.0683,-133.7539 642.6859,-131.6427 649.4856,-139.7676 653.0683,-133.7539"/>
</g>
<!-- Node30&#45;&gt;Node4 -->
<g id="edge45" class="edge">
<title>Node30&#45;&gt;Node4</title>
<path fill="none" stroke="#191970" d="M439.8873,-168.4509C444.4747,-150.1013 454.6023,-109.5908 460.6577,-85.3693"/>
<polygon fill="#191970" stroke="#191970" points="464.0888,-86.0752 463.1188,-75.5249 457.2978,-84.3774 464.0888,-86.0752"/>
</g>
<!-- Node30&#45;&gt;Node9 -->
<g id="edge46" class="edge">
<title>Node30&#45;&gt;Node9</title>
<path fill="none" stroke="#191970" d="M433.5461,-168.3355C424.9739,-145.6461 407.5977,-88.442 435.5,-56 452.9998,-35.653 630.6155,-18.886 705.9784,-12.6312"/>
<polygon fill="#191970" stroke="#191970" points="706.6428,-16.0887 716.3244,-11.7855 706.0724,-9.112 706.6428,-16.0887"/>
</g>
<!-- Node30&#45;&gt;Node22 -->
<g id="edge47" class="edge">
<title>Node30&#45;&gt;Node22</title>
<path fill="none" stroke="#191970" d="M418.6878,-168.2455C401.6527,-159.4125 376.3425,-146.2887 357.0319,-136.2758"/>
<polygon fill="#191970" stroke="#191970" points="358.5853,-133.1388 348.0966,-131.6427 355.363,-139.353 358.5853,-133.1388"/>
</g>
<!-- Node31 -->
<g id="node31" class="node">
<title>Node31</title>
<g id="a_node31"><a xlink:title=" ">
<polygon fill="#ffffff" stroke="#bfbfbf" points="482.5,-112.5 482.5,-131.5 528.5,-131.5 528.5,-112.5 482.5,-112.5"/>
<text text-anchor="middle" x="505.5" y="-119.5" font-family="Helvetica,sans-Serif" font-size="10.00" fill="#000000">cstring</text>
</a>
</g>
</g>
<!-- Node30&#45;&gt;Node31 -->
<g id="edge44" class="edge">
<title>Node30&#45;&gt;Node31</title>
<path fill="none" stroke="#191970" d="M449.3447,-168.2455C459.388,-159.9746 473.9995,-147.9416 485.8004,-138.2232"/>
<polygon fill="#191970" stroke="#191970" points="488.2967,-140.7015 493.791,-131.6427 483.8467,-135.298 488.2967,-140.7015"/>
</g>
<!-- Node32 -->
<g id="node32" class="node">
<title>Node32</title>
<g id="a_node32"><a xlink:href="EncodingTraits_8hpp.html" target="_top" xlink:title="Defines possible encodings together with their properties and related types.">
<polygon fill="#ffffff" stroke="#000000" points="862.5,-112.5 862.5,-131.5 1016.5,-131.5 1016.5,-112.5 862.5,-112.5"/>
<text text-anchor="middle" x="939.5" y="-119.5" font-family="Helvetica,sans-Serif" font-size="10.00" fill="#000000">LLU/WSTP/EncodingTraits.hpp</text>
</a>
</g>
</g>
<!-- Node30&#45;&gt;Node32 -->
<g id="edge48" class="edge">
<title>Node30&#45;&gt;Node32</title>
<path fill="none" stroke="#191970" d="M493.1408,-171.7931C580.1026,-162.0921 748.9409,-143.2576 852.2071,-131.7378"/>
<polygon fill="#191970" stroke="#191970" points="852.7495,-135.1992 862.2998,-130.612 851.9733,-128.2423 852.7495,-135.1992"/>
</g>
<!-- Node32&#45;&gt;Node4 -->
<g id="edge50" class="edge">
<title>Node32&#45;&gt;Node4</title>
<path fill="none" stroke="#191970" d="M862.2888,-112.878C756.0242,-100.3235 569.5371,-78.2913 496.2826,-69.6368"/>
<polygon fill="#191970" stroke="#191970" points="496.6607,-66.1572 486.3191,-68.4596 495.8394,-73.1088 496.6607,-66.1572"/>
</g>
<!-- Node32&#45;&gt;Node5 -->
<g id="edge52" class="edge">
<title>Node32&#45;&gt;Node5</title>
<path fill="none" stroke="#191970" d="M925.0425,-112.2455C912.4268,-103.7337 893.9056,-91.2375 879.2955,-81.3801"/>
<polygon fill="#191970" stroke="#191970" points="881.0391,-78.3343 870.7918,-75.6427 877.1239,-84.1371 881.0391,-78.3343"/>
</g>
<!-- Node32&#45;&gt;Node20 -->
<g id="edge51" class="edge">
<title>Node32&#45;&gt;Node20</title>
<path fill="none" stroke="#191970" d="M992.586,-112.499C1038.7468,-104.0653 1107.6515,-91.0649 1177.3579,-75.9468"/>
<polygon fill="#191970" stroke="#191970" points="1178.173,-79.3514 1187.1969,-73.7998 1176.6805,-72.5123 1178.173,-79.3514"/>
</g>
<!-- Node32&#45;&gt;Node25 -->
<g id="edge49" class="edge">
<title>Node32&#45;&gt;Node25</title>
<path fill="none" stroke="#191970" d="M942.287,-112.2455C944.3977,-104.8579 947.366,-94.4689 949.9547,-85.4087"/>
<polygon fill="#191970" stroke="#191970" points="953.363,-86.2195 952.745,-75.6427 946.6323,-84.2964 953.363,-86.2195"/>
</g>
<!-- Node33&#45;&gt;Node9 -->
<g id="edge55" class="edge">
<title>Node33&#45;&gt;Node9</title>
<path fill="none" stroke="#191970" d="M472.85,-229.2697C415.172,-222.6221 321.2176,-208.9349 293.5,-188 264.6508,-166.2104 243.6979,-141.5692 264.5,-112 315.8316,-39.0344 606.6737,-17.0082 706.1432,-11.5585"/>
<polygon fill="#191970" stroke="#191970" points="706.4312,-15.0483 716.2333,-11.0271 706.063,-8.058 706.4312,-15.0483"/>
</g>
<!-- Node33&#45;&gt;Node22 -->
<g id="edge56" class="edge">
<title>Node33&#45;&gt;Node22</title>
<path fill="none" stroke="#191970" d="M472.7566,-230.8671C415.2557,-225.9266 322.6364,-214.0618 301.5,-188 289.834,-173.6155 301.1889,-153.6554 312.7447,-139.4608"/>
<polygon fill="#191970" stroke="#191970" points="315.4484,-141.6858 319.3992,-131.8552 310.1802,-137.0764 315.4484,-141.6858"/>
</g>
<!-- Node33&#45;&gt;Node23 -->
<g id="edge57" class="edge">
<title>Node33&#45;&gt;Node23</title>
<path fill="none" stroke="#191970" d="M566.351,-226.3101C619.7178,-217.462 709.5012,-202.3069 786.5,-188 883.9759,-169.8883 997.1927,-146.887 1062.7628,-133.3712"/>
<polygon fill="#191970" stroke="#191970" points="1063.7815,-136.7348 1072.8675,-131.2857 1062.3665,-129.8793 1063.7815,-136.7348"/>
</g>
<!-- Node33&#45;&gt;Node28 -->
<g id="edge54" class="edge">
<title>Node33&#45;&gt;Node28</title>
<path fill="none" stroke="#191970" d="M528.6228,-224.4509C546.7849,-205.4401 587.672,-162.6423 610.4347,-138.816"/>
<polygon fill="#191970" stroke="#191970" points="613.0232,-141.1733 617.4003,-131.5249 607.9617,-136.3378 613.0232,-141.1733"/>
</g>
<!-- Node33&#45;&gt;Node30 -->
<g id="edge58" class="edge">
<title>Node33&#45;&gt;Node30</title>
<path fill="none" stroke="#191970" d="M505.2167,-224.2455C492.753,-215.7337 474.4549,-203.2375 460.0208,-193.3801"/>
<polygon fill="#191970" stroke="#191970" points="461.8515,-190.392 451.6196,-187.6427 457.9038,-196.1726 461.8515,-190.392"/>
</g>
<!-- Node34&#45;&gt;Node7 -->
<g id="edge62" class="edge">
<title>Node34&#45;&gt;Node7</title>
<path fill="none" stroke="#191970" d="M1019.0502,-229.2485C1120.9488,-220.1113 1330.9277,-199.9407 1341.5,-188 1381.1496,-143.2185 1353.0762,-64.8211 1336.8437,-28.9223"/>
<polygon fill="#191970" stroke="#191970" points="1339.8846,-27.1644 1332.4593,-19.6069 1333.5511,-30.1454 1339.8846,-27.1644"/>
</g>
<!-- Node34&#45;&gt;Node9 -->
<g id="edge63" class="edge">
<title>Node34&#45;&gt;Node9</title>
<path fill="none" stroke="#191970" d="M972.7143,-224.4214C986.8168,-207.2719 1015.1175,-169.5897 1025.5,-132 1035.5544,-95.5983 1019.1095,-76.6643 987.5,-56 952.5636,-33.1608 832.136,-18.8285 772.9154,-12.9984"/>
<polygon fill="#191970" stroke="#191970" points="772.893,-9.4803 762.6043,-12.0086 772.2241,-16.4482 772.893,-9.4803"/>
</g>
<!-- Node34&#45;&gt;Node16 -->
<g id="edge60" class="edge">
<title>Node34&#45;&gt;Node16</title>
<path fill="none" stroke="#191970" d="M1019.1844,-230.1003C1098.8504,-223.9307 1251.3022,-210.279 1379.5,-188 1380.7462,-187.7834 1382.0106,-187.552 1383.2854,-187.3085"/>
<polygon fill="#191970" stroke="#191970" points="1384.0568,-190.723 1393.1318,-185.2554 1382.6279,-183.8704 1384.0568,-190.723"/>
</g>
<!-- Node34&#45;&gt;Node22 -->
<g id="edge64" class="edge">
<title>Node34&#45;&gt;Node22</title>
<path fill="none" stroke="#191970" d="M909.7427,-231.0569C767.4454,-223.2336 395.4129,-201.5934 372.5,-188 354.9164,-177.5683 343.2053,-156.812 336.5044,-141.3475"/>
<polygon fill="#191970" stroke="#191970" points="339.6058,-139.675 332.6552,-131.6787 333.1022,-142.2641 339.6058,-139.675"/>
</g>
<!-- Node34&#45;&gt;Node23 -->
<g id="edge65" class="edge">
<title>Node34&#45;&gt;Node23</title>
<path fill="none" stroke="#191970" d="M985.1434,-224.3703C1002.4806,-215.8667 1027.547,-202.5797 1047.5,-188 1067.5669,-173.3371 1087.9552,-153.4222 1101.5118,-139.3143"/>
<polygon fill="#191970" stroke="#191970" points="1104.3244,-141.4339 1108.6503,-131.7624 1099.2374,-136.6253 1104.3244,-141.4339"/>
</g>
<!-- Node34&#45;&gt;Node28 -->
<g id="edge61" class="edge">
<title>Node34&#45;&gt;Node28</title>
<path fill="none" stroke="#191970" d="M909.9725,-232.2119C831.9036,-228.6198 693.3924,-218.0875 654.5,-188 640.082,-176.8461 632.9968,-156.8537 629.5731,-141.786"/>
<polygon fill="#191970" stroke="#191970" points="632.9947,-141.0439 627.6748,-131.8815 626.1198,-142.3616 632.9947,-141.0439"/>
</g>
<!-- Node34&#45;&gt;Node30 -->
<g id="edge67" class="edge">
<title>Node34&#45;&gt;Node30</title>
<path fill="none" stroke="#191970" d="M909.5932,-228.1655C811.8773,-217.782 608.2235,-196.1414 503.2289,-184.9845"/>
<polygon fill="#191970" stroke="#191970" points="503.3897,-181.4819 493.0758,-183.9056 502.6499,-188.4427 503.3897,-181.4819"/>
</g>
<!-- Node34&#45;&gt;Node32 -->
<g id="edge66" class="edge">
<title>Node34&#45;&gt;Node32</title>
<path fill="none" stroke="#191970" d="M958.7132,-224.1589C953.7063,-215.0996 946.7714,-201.1178 943.5,-188 939.7189,-172.8381 938.8279,-155.1393 938.8226,-141.8885"/>
<polygon fill="#191970" stroke="#191970" points="942.3274,-141.6217 938.9955,-131.5645 935.3284,-141.5044 942.3274,-141.6217"/>
</g>
<!-- Node35&#45;&gt;Node9 -->
<g id="edge71" class="edge">
<title>Node35&#45;&gt;Node9</title>
<path fill="none" stroke="#191970" d="M1227.1464,-168.4385C1246.4202,-145.9716 1288.9001,-89.2137 1258.5,-56 1225.6961,-20.1601 882.408,-12.0778 772.8825,-10.4055"/>
<polygon fill="#191970" stroke="#191970" points="772.7883,-6.9039 762.7387,-10.259 772.6871,-13.9031 772.7883,-6.9039"/>
</g>
<!-- Node35&#45;&gt;Node20 -->
<g id="edge70" class="edge">
<title>Node35&#45;&gt;Node20</title>
<path fill="none" stroke="#191970" d="M1218.5,-168.4509C1218.5,-150.184 1218.5,-109.9553 1218.5,-85.6976"/>
<polygon fill="#191970" stroke="#191970" points="1222.0001,-85.5249 1218.5,-75.5249 1215.0001,-85.5249 1222.0001,-85.5249"/>
</g>
<!-- Node35&#45;&gt;Node23 -->
<g id="edge72" class="edge">
<title>Node35&#45;&gt;Node23</title>
<path fill="none" stroke="#191970" d="M1200.9071,-168.2455C1185.121,-159.4928 1161.7361,-146.527 1143.7413,-136.5496"/>
<polygon fill="#191970" stroke="#191970" points="1145.3341,-133.4308 1134.8913,-131.6427 1141.9397,-139.5528 1145.3341,-133.4308"/>
</g>
</g>
</svg>
