<?xml version="1.0" encoding="UTF-8" standalone="no"?>
<!DOCTYPE svg PUBLIC "-//W3C//DTD SVG 1.1//EN"
 "http://www.w3.org/Graphics/SVG/1.1/DTD/svg11.dtd">
<!-- Generated by graphviz version 2.40.1 (20161225.0304)
 -->
<!-- Title: MArgument.cpp Pages: 1 -->
<svg width="1715pt" height="487pt"
 viewBox="0.00 0.00 1715.34 487.00" xmlns="http://www.w3.org/2000/svg" xmlns:xlink="http://www.w3.org/1999/xlink">
<g id="graph0" class="graph" transform="scale(1 1) rotate(0) translate(4 483)">
<title>MArgument.cpp</title>
<polygon fill="#ffffff" stroke="transparent" points="-4,4 -4,-483 1711.3441,-483 1711.3441,4 -4,4"/>
<!-- Node1 -->
<g id="node1" class="node">
<title>Node1</title>
<g id="a_node1"><a xlink:title="Specializations of PrimitiveWrapper class template members.">
<polygon fill="#bfbfbf" stroke="#000000" points="744,-459.5 744,-478.5 830,-478.5 830,-459.5 744,-459.5"/>
<text text-anchor="middle" x="787" y="-466.5" font-family="Helvetica,sans-Serif" font-size="10.00" fill="#000000">MArgument.cpp</text>
</a>
</g>
</g>
<!-- Node2 -->
<g id="node2" class="node">
<title>Node2</title>
<g id="a_node2"><a xlink:href="MArgument_8h.html" target="_top" xlink:title="Template class and utilities to work with MArgument in type&#45;safe manner.">
<polygon fill="#ffffff" stroke="#000000" points="217,-168.5 217,-187.5 313,-187.5 313,-168.5 217,-168.5"/>
<text text-anchor="middle" x="265" y="-175.5" font-family="Helvetica,sans-Serif" font-size="10.00" fill="#000000">LLU/MArgument.h</text>
</a>
</g>
</g>
<!-- Node1&#45;&gt;Node2 -->
<g id="edge1" class="edge">
<title>Node1&#45;&gt;Node2</title>
<path fill="none" stroke="#191970" d="M743.7852,-465.6092C600.6385,-453.8064 151,-411.9235 151,-351.5 151,-351.5 151,-351.5 151,-290 151,-243.4628 199.9383,-209.828 233.6864,-192.1659"/>
<polygon fill="#191970" stroke="#191970" points="235.3862,-195.2289 242.749,-187.6105 232.2424,-188.9746 235.3862,-195.2289"/>
</g>
<!-- Node19 -->
<g id="node19" class="node">
<title>Node19</title>
<g id="a_node19"><a xlink:href="ErrorManager_8h.html" target="_top" xlink:title="Definition of the ErrorManager class responsible for error registration and throwing.">
<polygon fill="#ffffff" stroke="#000000" points="1371,-403.5 1371,-422.5 1515,-422.5 1515,-403.5 1371,-403.5"/>
<text text-anchor="middle" x="1443" y="-410.5" font-family="Helvetica,sans-Serif" font-size="10.00" fill="#000000">LLU/ErrorLog/ErrorManager.h</text>
</a>
</g>
</g>
<!-- Node1&#45;&gt;Node19 -->
<g id="edge20" class="edge">
<title>Node1&#45;&gt;Node19</title>
<path fill="none" stroke="#191970" d="M830.042,-465.3257C937.6607,-456.1387 1219.8686,-432.0478 1360.66,-420.029"/>
<polygon fill="#191970" stroke="#191970" points="1361.2933,-423.4878 1370.9593,-419.1498 1360.6978,-416.5132 1361.2933,-423.4878"/>
</g>
<!-- Node3 -->
<g id="node3" class="node">
<title>Node3</title>
<g id="a_node3"><a xlink:title=" ">
<polygon fill="#ffffff" stroke="#bfbfbf" points="1276.5,-56.5 1276.5,-75.5 1317.5,-75.5 1317.5,-56.5 1276.5,-56.5"/>
<text text-anchor="middle" x="1297" y="-63.5" font-family="Helvetica,sans-Serif" font-size="10.00" fill="#000000">string</text>
</a>
</g>
</g>
<!-- Node2&#45;&gt;Node3 -->
<g id="edge2" class="edge">
<title>Node2&#45;&gt;Node3</title>
<path fill="none" stroke="#191970" d="M313.2787,-176.0963C479.6071,-169.4333 1022.8647,-146.7669 1100,-132 1160.8131,-120.3578 1228.6479,-94.6531 1266.7441,-78.9797"/>
<polygon fill="#191970" stroke="#191970" points="1268.3317,-82.11 1276.2184,-75.0354 1265.6413,-75.6477 1268.3317,-82.11"/>
</g>
<!-- Node4 -->
<g id="node4" class="node">
<title>Node4</title>
<g id="a_node4"><a xlink:title=" ">
<polygon fill="#ffffff" stroke="#bfbfbf" points="350,-56.5 350,-75.5 396,-75.5 396,-56.5 350,-56.5"/>
<text text-anchor="middle" x="373" y="-63.5" font-family="Helvetica,sans-Serif" font-size="10.00" fill="#000000">variant</text>
</a>
</g>
</g>
<!-- Node2&#45;&gt;Node4 -->
<g id="edge3" class="edge">
<title>Node2&#45;&gt;Node4</title>
<path fill="none" stroke="#191970" d="M274.1485,-168.0692C286.1611,-155.0739 307.9617,-131.6425 327,-112 336.3883,-102.3138 347.0292,-91.6529 355.7103,-83.0353"/>
<polygon fill="#191970" stroke="#191970" points="358.3937,-85.304 363.0397,-75.7821 353.4698,-80.3284 358.3937,-85.304"/>
</g>
<!-- Node5 -->
<g id="node5" class="node">
<title>Node5</title>
<g id="a_node5"><a xlink:href="LibraryData_8h.html" target="_top" xlink:title=" ">
<polygon fill="#ffffff" stroke="#000000" points="236,-56.5 236,-75.5 332,-75.5 332,-56.5 236,-56.5"/>
<text text-anchor="middle" x="284" y="-63.5" font-family="Helvetica,sans-Serif" font-size="10.00" fill="#000000">LLU/LibraryData.h</text>
</a>
</g>
</g>
<!-- Node2&#45;&gt;Node5 -->
<g id="edge4" class="edge">
<title>Node2&#45;&gt;Node5</title>
<path fill="none" stroke="#191970" d="M266.6199,-168.4509C269.7188,-150.184 276.5433,-109.9553 280.6584,-85.6976"/>
<polygon fill="#191970" stroke="#191970" points="284.1623,-85.9694 282.3842,-75.5249 277.2609,-84.7986 284.1623,-85.9694"/>
</g>
<!-- Node14 -->
<g id="node14" class="node">
<title>Node14</title>
<g id="a_node14"><a xlink:href="Utilities_8hpp.html" target="_top" xlink:title="Short but generally useful functions.">
<polygon fill="#ffffff" stroke="#000000" points="448.5,-112.5 448.5,-131.5 537.5,-131.5 537.5,-112.5 448.5,-112.5"/>
<text text-anchor="middle" x="493" y="-119.5" font-family="Helvetica,sans-Serif" font-size="10.00" fill="#000000">LLU/Utilities.hpp</text>
</a>
</g>
</g>
<!-- Node2&#45;&gt;Node14 -->
<g id="edge13" class="edge">
<title>Node2&#45;&gt;Node14</title>
<path fill="none" stroke="#191970" d="M303.9355,-168.4369C342.792,-158.8932 402.593,-144.2052 444.5089,-133.9101"/>
<polygon fill="#191970" stroke="#191970" points="445.3486,-137.308 454.2251,-131.5237 443.6788,-130.51 445.3486,-137.308"/>
</g>
<!-- Node6 -->
<g id="node6" class="node">
<title>Node6</title>
<g id="a_node6"><a xlink:title=" ">
<polygon fill="#ffffff" stroke="#bfbfbf" points="1477,-.5 1477,-19.5 1529,-19.5 1529,-.5 1477,-.5"/>
<text text-anchor="middle" x="1503" y="-7.5" font-family="Helvetica,sans-Serif" font-size="10.00" fill="#000000">memory</text>
</a>
</g>
</g>
<!-- Node5&#45;&gt;Node6 -->
<g id="edge5" class="edge">
<title>Node5&#45;&gt;Node6</title>
<path fill="none" stroke="#191970" d="M332.1377,-57.0873C335.1308,-56.6782 338.1029,-56.3101 341,-56 567.1254,-31.799 1295.1428,-14.569 1466.5933,-10.7826"/>
<polygon fill="#191970" stroke="#191970" points="1466.6999,-14.2812 1476.6207,-10.5625 1466.5463,-7.2829 1466.6999,-14.2812"/>
</g>
<!-- Node7 -->
<g id="node7" class="node">
<title>Node7</title>
<g id="a_node7"><a xlink:title=" ">
<polygon fill="#ffffff" stroke="#bfbfbf" points="0,-.5 0,-19.5 62,-19.5 62,-.5 0,-.5"/>
<text text-anchor="middle" x="31" y="-7.5" font-family="Helvetica,sans-Serif" font-size="10.00" fill="#000000">dllexport.h</text>
</a>
</g>
</g>
<!-- Node5&#45;&gt;Node7 -->
<g id="edge6" class="edge">
<title>Node5&#45;&gt;Node7</title>
<path fill="none" stroke="#191970" d="M237.7836,-56.4681C196.7683,-47.908 134.9667,-34.7644 72.4554,-20.2905"/>
<polygon fill="#191970" stroke="#191970" points="72.9526,-16.8128 62.4197,-17.9567 71.367,-23.6309 72.9526,-16.8128"/>
</g>
<!-- Node8 -->
<g id="node8" class="node">
<title>Node8</title>
<g id="a_node8"><a xlink:title=" ">
<polygon fill="#ffffff" stroke="#bfbfbf" points="842,-.5 842,-19.5 888,-19.5 888,-.5 842,-.5"/>
<text text-anchor="middle" x="865" y="-7.5" font-family="Helvetica,sans-Serif" font-size="10.00" fill="#000000">wstp.h</text>
</a>
</g>
</g>
<!-- Node5&#45;&gt;Node8 -->
<g id="edge7" class="edge">
<title>Node5&#45;&gt;Node8</title>
<path fill="none" stroke="#191970" d="M332.1539,-57.2259C335.143,-56.7824 338.1098,-56.3688 341,-56 539.146,-30.7138 590.3578,-41.0361 789,-20 802.9931,-18.5181 818.392,-16.5545 831.6484,-14.7598"/>
<polygon fill="#191970" stroke="#191970" points="832.3232,-18.2 841.7526,-13.3691 831.3687,-11.2654 832.3232,-18.2"/>
</g>
<!-- Node9 -->
<g id="node9" class="node">
<title>Node9</title>
<g id="a_node9"><a xlink:title=" ">
<polygon fill="#ffffff" stroke="#bfbfbf" points="80.5,-.5 80.5,-19.5 171.5,-19.5 171.5,-.5 80.5,-.5"/>
<text text-anchor="middle" x="126" y="-7.5" font-family="Helvetica,sans-Serif" font-size="10.00" fill="#000000">WolframLibrary.h</text>
</a>
</g>
</g>
<!-- Node5&#45;&gt;Node9 -->
<g id="edge8" class="edge">
<title>Node5&#45;&gt;Node9</title>
<path fill="none" stroke="#191970" d="M256.8388,-56.3733C230.7933,-47.1419 191.2884,-33.1402 162.5021,-22.9375"/>
<polygon fill="#191970" stroke="#191970" points="163.4015,-19.5429 152.8067,-19.5011 161.063,-26.1408 163.4015,-19.5429"/>
</g>
<!-- Node10 -->
<g id="node10" class="node">
<title>Node10</title>
<g id="a_node10"><a xlink:title=" ">
<polygon fill="#ffffff" stroke="#bfbfbf" points="190,-.5 190,-19.5 334,-19.5 334,-.5 190,-.5"/>
<text text-anchor="middle" x="262" y="-7.5" font-family="Helvetica,sans-Serif" font-size="10.00" fill="#000000">WolframIOLibraryFunctions.h</text>
</a>
</g>
</g>
<!-- Node5&#45;&gt;Node10 -->
<g id="edge9" class="edge">
<title>Node5&#45;&gt;Node10</title>
<path fill="none" stroke="#191970" d="M280.1679,-56.2455C277.2341,-48.7776 273.0953,-38.2427 269.509,-29.1137"/>
<polygon fill="#191970" stroke="#191970" points="272.7024,-27.6704 265.7882,-19.6427 266.1871,-30.23 272.7024,-27.6704"/>
</g>
<!-- Node11 -->
<g id="node11" class="node">
<title>Node11</title>
<g id="a_node11"><a xlink:title=" ">
<polygon fill="#ffffff" stroke="#bfbfbf" points="352,-.5 352,-19.5 470,-19.5 470,-.5 352,-.5"/>
<text text-anchor="middle" x="411" y="-7.5" font-family="Helvetica,sans-Serif" font-size="10.00" fill="#000000">WolframImageLibrary.h</text>
</a>
</g>
</g>
<!-- Node5&#45;&gt;Node11 -->
<g id="edge10" class="edge">
<title>Node5&#45;&gt;Node11</title>
<path fill="none" stroke="#191970" d="M305.8321,-56.3733C326.3103,-47.3435 357.1399,-33.7494 380.1319,-23.6111"/>
<polygon fill="#191970" stroke="#191970" points="381.715,-26.7383 389.4528,-19.5011 378.8907,-20.3333 381.715,-26.7383"/>
</g>
<!-- Node12 -->
<g id="node12" class="node">
<title>Node12</title>
<g id="a_node12"><a xlink:title=" ">
<polygon fill="#ffffff" stroke="#bfbfbf" points="488.5,-.5 488.5,-19.5 639.5,-19.5 639.5,-.5 488.5,-.5"/>
<text text-anchor="middle" x="564" y="-7.5" font-family="Helvetica,sans-Serif" font-size="10.00" fill="#000000">WolframNumericArrayLibrary.h</text>
</a>
</g>
</g>
<!-- Node5&#45;&gt;Node12 -->
<g id="edge11" class="edge">
<title>Node5&#45;&gt;Node12</title>
<path fill="none" stroke="#191970" d="M331.8156,-56.4369C380.1381,-46.7724 454.8372,-31.8326 506.3936,-21.5213"/>
<polygon fill="#191970" stroke="#191970" points="507.2623,-24.9169 516.3816,-19.5237 505.8894,-18.0529 507.2623,-24.9169"/>
</g>
<!-- Node13 -->
<g id="node13" class="node">
<title>Node13</title>
<g id="a_node13"><a xlink:title=" ">
<polygon fill="#ffffff" stroke="#bfbfbf" points="658,-.5 658,-19.5 780,-19.5 780,-.5 658,-.5"/>
<text text-anchor="middle" x="719" y="-7.5" font-family="Helvetica,sans-Serif" font-size="10.00" fill="#000000">WolframSparseLibrary.h</text>
</a>
</g>
</g>
<!-- Node5&#45;&gt;Node13 -->
<g id="edge12" class="edge">
<title>Node5&#45;&gt;Node13</title>
<path fill="none" stroke="#191970" d="M332.171,-57.3503C335.1558,-56.876 338.117,-56.4216 341,-56 473.7477,-36.5883 510.0627,-37.5246 647.7313,-20.0025"/>
<polygon fill="#191970" stroke="#191970" points="648.3478,-23.4522 657.8213,-18.7085 647.4573,-16.5091 648.3478,-23.4522"/>
</g>
<!-- Node14&#45;&gt;Node4 -->
<g id="edge18" class="edge">
<title>Node14&#45;&gt;Node4</title>
<path fill="none" stroke="#191970" d="M472.3713,-112.3733C453.1081,-103.3838 424.1514,-89.8706 402.4581,-79.7471"/>
<polygon fill="#191970" stroke="#191970" points="403.9015,-76.5584 393.3595,-75.5011 400.9413,-82.9017 403.9015,-76.5584"/>
</g>
<!-- Node14&#45;&gt;Node5 -->
<g id="edge19" class="edge">
<title>Node14&#45;&gt;Node5</title>
<path fill="none" stroke="#191970" d="M457.0716,-112.3733C421.7163,-102.9001 367.612,-88.4032 329.3212,-78.1435"/>
<polygon fill="#191970" stroke="#191970" points="330.0247,-74.7086 319.4595,-75.5011 328.213,-81.4701 330.0247,-74.7086"/>
</g>
<!-- Node15 -->
<g id="node15" class="node">
<title>Node15</title>
<g id="a_node15"><a xlink:title=" ">
<polygon fill="#ffffff" stroke="#bfbfbf" points="472.5,-56.5 472.5,-75.5 525.5,-75.5 525.5,-56.5 472.5,-56.5"/>
<text text-anchor="middle" x="499" y="-63.5" font-family="Helvetica,sans-Serif" font-size="10.00" fill="#000000">complex</text>
</a>
</g>
</g>
<!-- Node14&#45;&gt;Node15 -->
<g id="edge14" class="edge">
<title>Node14&#45;&gt;Node15</title>
<path fill="none" stroke="#191970" d="M494.0451,-112.2455C494.828,-104.9382 495.9256,-94.6944 496.8888,-85.7046"/>
<polygon fill="#191970" stroke="#191970" points="500.3815,-85.9587 497.9669,-75.6427 493.4214,-85.2129 500.3815,-85.9587"/>
</g>
<!-- Node16 -->
<g id="node16" class="node">
<title>Node16</title>
<g id="a_node16"><a xlink:title=" ">
<polygon fill="#ffffff" stroke="#bfbfbf" points="551,-56.5 551,-75.5 597,-75.5 597,-56.5 551,-56.5"/>
<text text-anchor="middle" x="574" y="-63.5" font-family="Helvetica,sans-Serif" font-size="10.00" fill="#000000">cstdint</text>
</a>
</g>
</g>
<!-- Node14&#45;&gt;Node16 -->
<g id="edge15" class="edge">
<title>Node14&#45;&gt;Node16</title>
<path fill="none" stroke="#191970" d="M507.1091,-112.2455C519.4209,-103.7337 537.4958,-91.2375 551.7538,-81.3801"/>
<polygon fill="#191970" stroke="#191970" points="553.8174,-84.2085 560.0526,-75.6427 549.8366,-78.4506 553.8174,-84.2085"/>
</g>
<!-- Node17 -->
<g id="node17" class="node">
<title>Node17</title>
<g id="a_node17"><a xlink:title=" ">
<polygon fill="#ffffff" stroke="#bfbfbf" points="665,-56.5 665,-75.5 727,-75.5 727,-56.5 665,-56.5"/>
<text text-anchor="middle" x="696" y="-63.5" font-family="Helvetica,sans-Serif" font-size="10.00" fill="#000000">type_traits</text>
</a>
</g>
</g>
<!-- Node14&#45;&gt;Node17 -->
<g id="edge16" class="edge">
<title>Node14&#45;&gt;Node17</title>
<path fill="none" stroke="#191970" d="M527.8969,-112.3733C563.1273,-102.6545 617.5247,-87.6484 654.8402,-77.3544"/>
<polygon fill="#191970" stroke="#191970" points="656.1728,-80.6176 664.882,-74.5843 654.3113,-73.8697 656.1728,-80.6176"/>
</g>
<!-- Node18 -->
<g id="node18" class="node">
<title>Node18</title>
<g id="a_node18"><a xlink:title=" ">
<polygon fill="#ffffff" stroke="#bfbfbf" points="414,-56.5 414,-75.5 454,-75.5 454,-56.5 414,-56.5"/>
<text text-anchor="middle" x="434" y="-63.5" font-family="Helvetica,sans-Serif" font-size="10.00" fill="#000000">utility</text>
</a>
</g>
</g>
<!-- Node14&#45;&gt;Node18 -->
<g id="edge17" class="edge">
<title>Node14&#45;&gt;Node18</title>
<path fill="none" stroke="#191970" d="M482.723,-112.2455C474.1782,-104.1352 461.8222,-92.4075 451.6915,-82.7919"/>
<polygon fill="#191970" stroke="#191970" points="453.8218,-79.9884 444.1592,-75.6427 449.0028,-85.0655 453.8218,-79.9884"/>
</g>
<!-- Node19&#45;&gt;Node3 -->
<g id="edge23" class="edge">
<title>Node19&#45;&gt;Node3</title>
<path fill="none" stroke="#191970" d="M1448.2144,-403.2745C1457.1587,-387.3691 1476.8198,-355.6048 1501,-336 1563.5238,-285.307 1620.0394,-315.5047 1657,-244 1663.8232,-230.7997 1671.1332,-191.9577 1655,-168 1617.7656,-112.7073 1408.0602,-80.2918 1328.0339,-69.7889"/>
<polygon fill="#191970" stroke="#191970" points="1327.9986,-66.2557 1317.634,-68.4523 1327.1062,-73.1986 1327.9986,-66.2557"/>
</g>
<!-- Node19&#45;&gt;Node5 -->
<g id="edge83" class="edge">
<title>Node19&#45;&gt;Node5</title>
<path fill="none" stroke="#191970" d="M1370.6966,-411.0472C1183.37,-405.7219 685.5156,-389.8046 522,-367 371.551,-346.0177 189,-441.9051 189,-290 189,-290 189,-290 189,-178 189,-134.9765 230.2735,-100.0102 258.4109,-81.1715"/>
<polygon fill="#191970" stroke="#191970" points="260.5021,-83.9879 267.0159,-75.632 256.713,-78.102 260.5021,-83.9879"/>
</g>
<!-- Node19&#45;&gt;Node18 -->
<g id="edge25" class="edge">
<title>Node19&#45;&gt;Node18</title>
<path fill="none" stroke="#191970" d="M1370.6947,-408.7365C1125.5293,-393.8082 341,-341.977 341,-290 341,-290 341,-290 341,-178 341,-135.3531 381.4045,-100.267 408.9496,-81.3028"/>
<polygon fill="#191970" stroke="#191970" points="410.9693,-84.1632 417.3735,-75.7229 407.1037,-78.3273 410.9693,-84.1632"/>
</g>
<!-- Node20 -->
<g id="node20" class="node">
<title>Node20</title>
<g id="a_node20"><a xlink:title=" ">
<polygon fill="#ffffff" stroke="#bfbfbf" points="1571,-168.5 1571,-187.5 1627,-187.5 1627,-168.5 1571,-168.5"/>
<text text-anchor="middle" x="1599" y="-175.5" font-family="Helvetica,sans-Serif" font-size="10.00" fill="#000000">algorithm</text>
</a>
</g>
</g>
<!-- Node19&#45;&gt;Node20 -->
<g id="edge21" class="edge">
<title>Node19&#45;&gt;Node20</title>
<path fill="none" stroke="#191970" d="M1515.0508,-409.7159C1580.6883,-405.0337 1670.6894,-393.7903 1693,-367 1739.4158,-311.2645 1657.8736,-228.7392 1618.486,-194.1632"/>
<polygon fill="#191970" stroke="#191970" points="1620.6467,-191.4051 1610.7821,-187.5397 1616.0831,-196.7131 1620.6467,-191.4051"/>
</g>
<!-- Node21 -->
<g id="node21" class="node">
<title>Node21</title>
<g id="a_node21"><a xlink:title=" ">
<polygon fill="#ffffff" stroke="#bfbfbf" points="1509.5,-342 1509.5,-361 1582.5,-361 1582.5,-342 1509.5,-342"/>
<text text-anchor="middle" x="1546" y="-349" font-family="Helvetica,sans-Serif" font-size="10.00" fill="#000000">initializer_list</text>
</a>
</g>
</g>
<!-- Node19&#45;&gt;Node21 -->
<g id="edge22" class="edge">
<title>Node19&#45;&gt;Node21</title>
<path fill="none" stroke="#191970" d="M1459.0938,-403.3906C1475.7228,-393.4616 1501.8976,-377.833 1521.1794,-366.3201"/>
<polygon fill="#191970" stroke="#191970" points="1523.2276,-369.1736 1530.0193,-361.0419 1519.639,-363.1634 1523.2276,-369.1736"/>
</g>
<!-- Node22 -->
<g id="node22" class="node">
<title>Node22</title>
<g id="a_node22"><a xlink:title=" ">
<polygon fill="#ffffff" stroke="#bfbfbf" points="1600.5,-342 1600.5,-361 1683.5,-361 1683.5,-342 1600.5,-342"/>
<text text-anchor="middle" x="1642" y="-349" font-family="Helvetica,sans-Serif" font-size="10.00" fill="#000000">unordered_map</text>
</a>
</g>
</g>
<!-- Node19&#45;&gt;Node22 -->
<g id="edge24" class="edge">
<title>Node19&#45;&gt;Node22</title>
<path fill="none" stroke="#191970" d="M1473.8228,-403.4957C1503.9562,-394.2012 1551.1358,-379.6418 1592,-367 1595.1256,-366.0331 1598.3608,-365.0316 1601.6131,-364.0243"/>
<polygon fill="#191970" stroke="#191970" points="1602.8123,-367.317 1611.3285,-361.0143 1600.7406,-360.6306 1602.8123,-367.317"/>
</g>
<!-- Node23 -->
<g id="node23" class="node">
<title>Node23</title>
<g id="a_node23"><a xlink:title=" ">
<polygon fill="#ffffff" stroke="#bfbfbf" points="1583,-224.5 1583,-243.5 1627,-243.5 1627,-224.5 1583,-224.5"/>
<text text-anchor="middle" x="1605" y="-231.5" font-family="Helvetica,sans-Serif" font-size="10.00" fill="#000000">vector</text>
</a>
</g>
</g>
<!-- Node19&#45;&gt;Node23 -->
<g id="edge26" class="edge">
<title>Node19&#45;&gt;Node23</title>
<path fill="none" stroke="#191970" d="M1444.0839,-403.136C1446.202,-387.5884 1452.0674,-356.9957 1467,-336 1495.48,-295.9561 1544.546,-265.1709 1575.8492,-248.3364"/>
<polygon fill="#191970" stroke="#191970" points="1577.7195,-251.3078 1584.9513,-243.565 1574.4694,-245.108 1577.7195,-251.3078"/>
</g>
<!-- Node24 -->
<g id="node24" class="node">
<title>Node24</title>
<g id="a_node24"><a xlink:href="LibraryLinkError_8h.html" target="_top" xlink:title="Error class and error codes used by LibraryLink Utilities classes.">
<polygon fill="#ffffff" stroke="#000000" points="1243.5,-336.5 1243.5,-366.5 1368.5,-366.5 1368.5,-336.5 1243.5,-336.5"/>
<text text-anchor="start" x="1251.5" y="-354.5" font-family="Helvetica,sans-Serif" font-size="10.00" fill="#000000">LLU/ErrorLog/LibraryLink</text>
<text text-anchor="middle" x="1306" y="-343.5" font-family="Helvetica,sans-Serif" font-size="10.00" fill="#000000">Error.h</text>
</a>
</g>
</g>
<!-- Node19&#45;&gt;Node24 -->
<g id="edge27" class="edge">
<title>Node19&#45;&gt;Node24</title>
<path fill="none" stroke="#191970" d="M1421.5938,-403.3906C1402.1941,-394.682 1373.0271,-381.5888 1348.8457,-370.7336"/>
<polygon fill="#191970" stroke="#191970" points="1350.0703,-367.447 1339.514,-366.5446 1347.2035,-373.833 1350.0703,-367.447"/>
</g>
<!-- Node24&#45;&gt;Node3 -->
<g id="edge29" class="edge">
<title>Node24&#45;&gt;Node3</title>
<path fill="none" stroke="#191970" d="M1368.9364,-342.2311C1484.4148,-322.544 1711.6768,-269.7982 1636,-168 1617.0503,-142.5094 1407.6598,-91.6769 1327.7446,-73.0506"/>
<polygon fill="#191970" stroke="#191970" points="1328.3248,-69.5923 1317.7925,-70.7417 1326.7428,-76.4112 1328.3248,-69.5923"/>
</g>
<!-- Node25 -->
<g id="node25" class="node">
<title>Node25</title>
<g id="a_node25"><a xlink:title=" ">
<polygon fill="#ffffff" stroke="#bfbfbf" points="1115.5,-280.5 1115.5,-299.5 1174.5,-299.5 1174.5,-280.5 1115.5,-280.5"/>
<text text-anchor="middle" x="1145" y="-287.5" font-family="Helvetica,sans-Serif" font-size="10.00" fill="#000000">stdexcept</text>
</a>
</g>
</g>
<!-- Node24&#45;&gt;Node25 -->
<g id="edge28" class="edge">
<title>Node24&#45;&gt;Node25</title>
<path fill="none" stroke="#191970" d="M1266.615,-336.4554C1239.9873,-326.284 1205.1556,-312.9787 1179.5966,-303.2155"/>
<polygon fill="#191970" stroke="#191970" points="1180.5399,-299.8292 1169.9493,-299.5303 1178.042,-306.3684 1180.5399,-299.8292"/>
</g>
<!-- Node26 -->
<g id="node26" class="node">
<title>Node26</title>
<g id="a_node26"><a xlink:href="WSStream_8hpp.html" target="_top" xlink:title="Header file for WSStream class.">
<polygon fill="#ffffff" stroke="#000000" points="1192.5,-280.5 1192.5,-299.5 1329.5,-299.5 1329.5,-280.5 1192.5,-280.5"/>
<text text-anchor="middle" x="1261" y="-287.5" font-family="Helvetica,sans-Serif" font-size="10.00" fill="#000000">LLU/WSTP/WSStream.hpp</text>
</a>
</g>
</g>
<!-- Node24&#45;&gt;Node26 -->
<g id="edge30" class="edge">
<title>Node24&#45;&gt;Node26</title>
<path fill="none" stroke="#191970" d="M1294.8764,-336.2977C1288.6299,-327.7609 1280.796,-317.0545 1274.2353,-308.0883"/>
<polygon fill="#191970" stroke="#191970" points="1276.9348,-305.8505 1268.2051,-299.8469 1271.2856,-309.984 1276.9348,-305.8505"/>
</g>
<!-- Node26&#45;&gt;Node8 -->
<g id="edge38" class="edge">
<title>Node26&#45;&gt;Node8</title>
<path fill="none" stroke="#191970" d="M1329.6281,-283.7799C1383.9552,-277.5092 1461.2052,-265.5718 1526,-244 1539.0127,-239.6677 1628.832,-199.6926 1636,-188 1640.6457,-180.4218 1640.86,-175.4427 1636,-168 1568.322,-64.3566 1500.8926,-86.79 1381,-56 1288.966,-32.3644 997.3228,-16.4075 898.2832,-11.5558"/>
<polygon fill="#191970" stroke="#191970" points="898.4007,-8.0574 888.2431,-11.0698 898.0622,-15.0493 898.4007,-8.0574"/>
</g>
<!-- Node26&#45;&gt;Node14 -->
<g id="edge41" class="edge">
<title>Node26&#45;&gt;Node14</title>
<path fill="none" stroke="#191970" d="M1192.175,-280.8688C1189.4153,-280.5638 1186.6822,-280.2727 1184,-280 967.196,-257.9586 910.2005,-278.3297 695,-244 592.81,-227.6982 532.7691,-269.4988 469,-188 457.9248,-173.8456 467.5612,-154.1091 477.7295,-139.9119"/>
<polygon fill="#191970" stroke="#191970" points="480.5893,-141.9354 483.949,-131.8873 475.0566,-137.6472 480.5893,-141.9354"/>
</g>
<!-- Node26&#45;&gt;Node17 -->
<g id="edge35" class="edge">
<title>Node26&#45;&gt;Node17</title>
<path fill="none" stroke="#191970" d="M1192.1562,-281.0339C1189.4017,-280.6832 1186.6749,-280.3375 1184,-280 1053.3926,-263.5229 1015.1177,-284.9309 890,-244 841.586,-228.1619 828.5503,-221.2962 790,-188 753.9342,-156.8497 722.5244,-109.939 706.769,-84.312"/>
<polygon fill="#191970" stroke="#191970" points="709.6819,-82.3648 701.52,-75.6095 703.6879,-85.9802 709.6819,-82.3648"/>
</g>
<!-- Node26&#45;&gt;Node18 -->
<g id="edge36" class="edge">
<title>Node26&#45;&gt;Node18</title>
<path fill="none" stroke="#191970" d="M1192.1818,-280.7989C1189.4202,-280.5132 1186.6849,-280.2453 1184,-280 1108.8734,-273.1372 573.1407,-278.3983 506,-244 454.3762,-217.5515 451.9397,-188.543 439,-132 435.5105,-116.7518 434.3183,-99.0585 433.9669,-85.8318"/>
<polygon fill="#191970" stroke="#191970" points="437.4629,-85.4872 433.8379,-75.5318 430.4635,-85.5749 437.4629,-85.4872"/>
</g>
<!-- Node26&#45;&gt;Node20 -->
<g id="edge31" class="edge">
<title>Node26&#45;&gt;Node20</title>
<path fill="none" stroke="#191970" d="M1329.5872,-282.9979C1376.7712,-276.6072 1440.2044,-264.8622 1493,-244 1524.9638,-231.3695 1557.9912,-209.0703 1578.506,-193.9221"/>
<polygon fill="#191970" stroke="#191970" points="1580.8608,-196.5305 1586.7474,-187.7214 1576.6523,-190.9368 1580.8608,-196.5305"/>
</g>
<!-- Node26&#45;&gt;Node23 -->
<g id="edge37" class="edge">
<title>Node26&#45;&gt;Node23</title>
<path fill="none" stroke="#191970" d="M1329.6327,-282.1996C1392.3374,-274.494 1487.4295,-261.3521 1569,-244 1570.2491,-243.7343 1571.519,-243.4503 1572.7991,-243.1524"/>
<polygon fill="#191970" stroke="#191970" points="1573.797,-246.5104 1582.6365,-240.6696 1572.084,-239.7232 1573.797,-246.5104"/>
</g>
<!-- Node27 -->
<g id="node27" class="node">
<title>Node27</title>
<g id="a_node27"><a xlink:title=" ">
<polygon fill="#ffffff" stroke="#bfbfbf" points="1122.5,-224.5 1122.5,-243.5 1169.5,-243.5 1169.5,-224.5 1122.5,-224.5"/>
<text text-anchor="middle" x="1146" y="-231.5" font-family="Helvetica,sans-Serif" font-size="10.00" fill="#000000">iterator</text>
</a>
</g>
</g>
<!-- Node26&#45;&gt;Node27 -->
<g id="edge32" class="edge">
<title>Node26&#45;&gt;Node27</title>
<path fill="none" stroke="#191970" d="M1241.2308,-280.3733C1222.8531,-271.4241 1195.2688,-257.9917 1174.5107,-247.8835"/>
<polygon fill="#191970" stroke="#191970" points="1176.0343,-244.7325 1165.5112,-243.5011 1172.9696,-251.026 1176.0343,-244.7325"/>
</g>
<!-- Node28 -->
<g id="node28" class="node">
<title>Node28</title>
<g id="a_node28"><a xlink:title=" ">
<polygon fill="#ffffff" stroke="#bfbfbf" points="1187.5,-224.5 1187.5,-243.5 1222.5,-243.5 1222.5,-224.5 1187.5,-224.5"/>
<text text-anchor="middle" x="1205" y="-231.5" font-family="Helvetica,sans-Serif" font-size="10.00" fill="#000000">map</text>
</a>
</g>
</g>
<!-- Node26&#45;&gt;Node28 -->
<g id="edge33" class="edge">
<title>Node26&#45;&gt;Node28</title>
<path fill="none" stroke="#191970" d="M1251.2455,-280.2455C1243.1352,-272.1352 1231.4075,-260.4075 1221.7919,-250.7919"/>
<polygon fill="#191970" stroke="#191970" points="1224.1887,-248.2389 1214.6427,-243.6427 1219.2389,-253.1887 1224.1887,-248.2389"/>
</g>
<!-- Node29 -->
<g id="node29" class="node">
<title>Node29</title>
<g id="a_node29"><a xlink:title=" ">
<polygon fill="#ffffff" stroke="#bfbfbf" points="1240.5,-224.5 1240.5,-243.5 1281.5,-243.5 1281.5,-224.5 1240.5,-224.5"/>
<text text-anchor="middle" x="1261" y="-231.5" font-family="Helvetica,sans-Serif" font-size="10.00" fill="#000000">stack</text>
</a>
</g>
</g>
<!-- Node26&#45;&gt;Node29 -->
<g id="edge34" class="edge">
<title>Node26&#45;&gt;Node29</title>
<path fill="none" stroke="#191970" d="M1261,-280.2455C1261,-272.9382 1261,-262.6944 1261,-253.7046"/>
<polygon fill="#191970" stroke="#191970" points="1264.5001,-253.6426 1261,-243.6427 1257.5001,-253.6427 1264.5001,-253.6426"/>
</g>
<!-- Node30 -->
<g id="node30" class="node">
<title>Node30</title>
<g id="a_node30"><a xlink:href="Errors_8h.html" target="_top" xlink:title="Definitions of error names and error codes used across LLU.">
<polygon fill="#ffffff" stroke="#000000" points="1325,-112.5 1325,-131.5 1437,-131.5 1437,-112.5 1325,-112.5"/>
<text text-anchor="middle" x="1381" y="-119.5" font-family="Helvetica,sans-Serif" font-size="10.00" fill="#000000">LLU/ErrorLog/Errors.h</text>
</a>
</g>
</g>
<!-- Node26&#45;&gt;Node30 -->
<g id="edge39" class="edge">
<title>Node26&#45;&gt;Node30</title>
<path fill="none" stroke="#191970" d="M1329.6866,-282.8959C1379.6309,-276.1469 1441.1527,-263.9972 1457,-244 1485.1922,-208.4253 1434.951,-161.8112 1403.5033,-137.8062"/>
<polygon fill="#191970" stroke="#191970" points="1405.331,-134.8044 1395.2126,-131.663 1401.1636,-140.4287 1405.331,-134.8044"/>
</g>
<!-- Node31 -->
<g id="node31" class="node">
<title>Node31</title>
<g id="a_node31"><a xlink:href="Get_8h.html" target="_top" xlink:title="Header file with classes related to reading data from WSTP.">
<polygon fill="#ffffff" stroke="#000000" points="1010,-224.5 1010,-243.5 1104,-243.5 1104,-224.5 1010,-224.5"/>
<text text-anchor="middle" x="1057" y="-231.5" font-family="Helvetica,sans-Serif" font-size="10.00" fill="#000000">LLU/WSTP/Get.h</text>
</a>
</g>
</g>
<!-- Node26&#45;&gt;Node31 -->
<g id="edge42" class="edge">
<title>Node26&#45;&gt;Node31</title>
<path fill="none" stroke="#191970" d="M1225.9311,-280.3733C1191.5685,-270.9404 1139.0608,-256.5265 1101.7149,-246.2747"/>
<polygon fill="#191970" stroke="#191970" points="1102.181,-242.7732 1091.6112,-243.5011 1100.328,-249.5235 1102.181,-242.7732"/>
</g>
<!-- Node34 -->
<g id="node34" class="node">
<title>Node34</title>
<g id="a_node34"><a xlink:href="WSTP_2Utilities_8h.html" target="_top" xlink:title="Header file with miscellaneous utilities used throughout the WSTP&#45;related part of LibraryLinkUtilitie...">
<polygon fill="#ffffff" stroke="#000000" points="1175.5,-168.5 1175.5,-187.5 1286.5,-187.5 1286.5,-168.5 1175.5,-168.5"/>
<text text-anchor="middle" x="1231" y="-175.5" font-family="Helvetica,sans-Serif" font-size="10.00" fill="#000000">LLU/WSTP/Utilities.h</text>
</a>
</g>
</g>
<!-- Node26&#45;&gt;Node34 -->
<g id="edge78" class="edge">
<title>Node26&#45;&gt;Node34</title>
<path fill="none" stroke="#191970" d="M1271.2449,-280.0684C1283.3487,-267.0722 1300.6904,-243.64 1291,-224 1284.5207,-210.8681 1272.2938,-200.4457 1260.5593,-192.8651"/>
<polygon fill="#191970" stroke="#191970" points="1262.1652,-189.7475 1251.7852,-187.6244 1258.5756,-195.7572 1262.1652,-189.7475"/>
</g>
<!-- Node37 -->
<g id="node37" class="node">
<title>Node37</title>
<g id="a_node37"><a xlink:href="Put_8h.html" target="_top" xlink:title="Header file with classes related to sending data through WSTP.">
<polygon fill="#ffffff" stroke="#000000" points="898.5,-224.5 898.5,-243.5 991.5,-243.5 991.5,-224.5 898.5,-224.5"/>
<text text-anchor="middle" x="945" y="-231.5" font-family="Helvetica,sans-Serif" font-size="10.00" fill="#000000">LLU/WSTP/Put.h</text>
</a>
</g>
</g>
<!-- Node26&#45;&gt;Node37 -->
<g id="edge63" class="edge">
<title>Node26&#45;&gt;Node37</title>
<path fill="none" stroke="#191970" d="M1206.9666,-280.4662C1156.5321,-271.5615 1078.8879,-257.8377 1001.6552,-244.1144"/>
<polygon fill="#191970" stroke="#191970" points="1002.2081,-240.6579 991.7499,-242.354 1000.9831,-247.5499 1002.2081,-240.6579"/>
</g>
<!-- Node38 -->
<g id="node38" class="node">
<title>Node38</title>
<g id="a_node38"><a xlink:href="Strings_8h.html" target="_top" xlink:title="Definitions of multiple structures and type aliases related to string handling in WSTP.">
<polygon fill="#ffffff" stroke="#000000" points="1338.5,-224.5 1338.5,-243.5 1447.5,-243.5 1447.5,-224.5 1338.5,-224.5"/>
<text text-anchor="middle" x="1393" y="-231.5" font-family="Helvetica,sans-Serif" font-size="10.00" fill="#000000">LLU/WSTP/Strings.h</text>
</a>
</g>
</g>
<!-- Node26&#45;&gt;Node38 -->
<g id="edge69" class="edge">
<title>Node26&#45;&gt;Node38</title>
<path fill="none" stroke="#191970" d="M1283.6916,-280.3733C1305.0711,-271.3032 1337.3057,-257.6279 1361.2362,-247.4755"/>
<polygon fill="#191970" stroke="#191970" points="1362.7656,-250.6287 1370.6045,-243.5011 1360.0317,-244.1846 1362.7656,-250.6287"/>
</g>
<!-- Node39 -->
<g id="node39" class="node">
<title>Node39</title>
<g id="a_node39"><a xlink:href="UtilityTypeTraits_8hpp.html" target="_top" xlink:title="Type traits used by WSStream to identify types supported by WSTP.">
<polygon fill="#ffffff" stroke="#000000" points="559.5,-168.5 559.5,-187.5 720.5,-187.5 720.5,-168.5 559.5,-168.5"/>
<text text-anchor="middle" x="640" y="-175.5" font-family="Helvetica,sans-Serif" font-size="10.00" fill="#000000">LLU/WSTP/UtilityTypeTraits.hpp</text>
</a>
</g>
</g>
<!-- Node26&#45;&gt;Node39 -->
<g id="edge79" class="edge">
<title>Node26&#45;&gt;Node39</title>
<path fill="none" stroke="#191970" d="M1192.1727,-280.8911C1189.4137,-280.5799 1186.6813,-280.2814 1184,-280 984.8978,-259.1022 923.4944,-311.441 735,-244 704.9379,-233.2441 675.5751,-210.3928 657.6375,-194.6177"/>
<polygon fill="#191970" stroke="#191970" points="659.5608,-191.638 649.7965,-187.5259 654.8653,-196.8296 659.5608,-191.638"/>
</g>
<!-- Node30&#45;&gt;Node3 -->
<g id="edge40" class="edge">
<title>Node30&#45;&gt;Node3</title>
<path fill="none" stroke="#191970" d="M1366.3683,-112.2455C1353.6006,-103.7337 1334.8562,-91.2375 1320.0701,-81.3801"/>
<polygon fill="#191970" stroke="#191970" points="1321.726,-78.2775 1311.464,-75.6427 1317.8431,-84.1019 1321.726,-78.2775"/>
</g>
<!-- Node31&#45;&gt;Node3 -->
<g id="edge45" class="edge">
<title>Node31&#45;&gt;Node3</title>
<path fill="none" stroke="#191970" d="M1067.9795,-224.4994C1092.9656,-203.0997 1156.379,-150.027 1214,-112 1231.5864,-100.3938 1252.3175,-88.9029 1268.6614,-80.3089"/>
<polygon fill="#191970" stroke="#191970" points="1270.4587,-83.3194 1277.7205,-75.6047 1267.2327,-77.1071 1270.4587,-83.3194"/>
</g>
<!-- Node31&#45;&gt;Node6 -->
<g id="edge44" class="edge">
<title>Node31&#45;&gt;Node6</title>
<path fill="none" stroke="#191970" d="M1104.2621,-225.6155C1107.5561,-225.0597 1110.8267,-224.5163 1114,-224 1220.4602,-206.6796 1252.5996,-224.766 1354,-188 1399.0014,-171.6833 1412.3947,-166.0888 1446,-132 1466.2811,-111.4271 1466.6784,-102.1294 1479,-76 1486.2219,-60.6852 1492.6711,-42.5635 1497.0607,-29.1873"/>
<polygon fill="#191970" stroke="#191970" points="1500.4075,-30.2122 1500.115,-19.6214 1493.7391,-28.0831 1500.4075,-30.2122"/>
</g>
<!-- Node31&#45;&gt;Node8 -->
<g id="edge46" class="edge">
<title>Node31&#45;&gt;Node8</title>
<path fill="none" stroke="#191970" d="M1047.5252,-224.4999C1034.0098,-211.1712 1008.1514,-186.4826 984,-168 960.503,-150.0182 947.9086,-153.8884 928,-132 899.7904,-100.9852 880.6064,-55.0033 871.3611,-29.2579"/>
<polygon fill="#191970" stroke="#191970" points="874.5857,-27.8731 868.01,-19.5658 867.97,-30.1606 874.5857,-27.8731"/>
</g>
<!-- Node31&#45;&gt;Node14 -->
<g id="edge48" class="edge">
<title>Node31&#45;&gt;Node14</title>
<path fill="none" stroke="#191970" d="M1009.9997,-225.2467C1006.9591,-224.792 1003.9395,-224.3708 1001,-224 947.4976,-217.2513 559.9907,-220.5553 517,-188 502.6084,-177.1018 496.8359,-156.7322 494.5265,-141.4928"/>
<polygon fill="#191970" stroke="#191970" points="497.9986,-141.0483 493.3833,-131.5115 491.0441,-141.8449 497.9986,-141.0483"/>
</g>
<!-- Node31&#45;&gt;Node30 -->
<g id="edge47" class="edge">
<title>Node31&#45;&gt;Node30</title>
<path fill="none" stroke="#191970" d="M1104.2724,-225.6775C1107.564,-225.1069 1110.8312,-224.5433 1114,-224 1209.4927,-207.629 1245.6372,-237.3711 1329,-188 1347.7388,-176.902 1362.3068,-156.3012 1371.1955,-141.056"/>
<polygon fill="#191970" stroke="#191970" points="1374.4441,-142.4125 1376.2032,-131.9648 1368.3127,-139.0352 1374.4441,-142.4125"/>
</g>
<!-- Node32 -->
<g id="node32" class="node">
<title>Node32</title>
<g id="a_node32"><a xlink:title=" ">
<polygon fill="#ffffff" stroke="#bfbfbf" points="821.5,-112.5 821.5,-131.5 880.5,-131.5 880.5,-112.5 821.5,-112.5"/>
<text text-anchor="middle" x="851" y="-119.5" font-family="Helvetica,sans-Serif" font-size="10.00" fill="#000000">functional</text>
</a>
</g>
</g>
<!-- Node31&#45;&gt;Node32 -->
<g id="edge43" class="edge">
<title>Node31&#45;&gt;Node32</title>
<path fill="none" stroke="#191970" d="M1043.5621,-224.3229C1024.4411,-210.7838 988.0309,-185.8469 955,-168 932.2078,-155.6852 905.4569,-143.9092 884.7937,-135.3552"/>
<polygon fill="#191970" stroke="#191970" points="886.0552,-132.0897 875.4744,-131.5441 883.4055,-138.5689 886.0552,-132.0897"/>
</g>
<!-- Node33 -->
<g id="node33" class="node">
<title>Node33</title>
<g id="a_node33"><a xlink:href="Release_8h.html" target="_top" xlink:title="Header file with classes responsible for releasing memory allocated by WSTP when receiving data.">
<polygon fill="#ffffff" stroke="#000000" points="815,-168.5 815,-187.5 929,-187.5 929,-168.5 815,-168.5"/>
<text text-anchor="middle" x="872" y="-175.5" font-family="Helvetica,sans-Serif" font-size="10.00" fill="#000000">LLU/WSTP/Release.h</text>
</a>
</g>
</g>
<!-- Node31&#45;&gt;Node33 -->
<g id="edge49" class="edge">
<title>Node31&#45;&gt;Node33</title>
<path fill="none" stroke="#191970" d="M1025.1974,-224.3733C994.1683,-214.9807 946.8246,-200.6496 912.9853,-190.4064"/>
<polygon fill="#191970" stroke="#191970" points="913.9728,-187.0485 903.3876,-187.5011 911.9447,-193.7483 913.9728,-187.0485"/>
</g>
<!-- Node31&#45;&gt;Node34 -->
<g id="edge53" class="edge">
<title>Node31&#45;&gt;Node34</title>
<path fill="none" stroke="#191970" d="M1086.9117,-224.3733C1115.8452,-215.0613 1159.8611,-200.8953 1191.6293,-190.671"/>
<polygon fill="#191970" stroke="#191970" points="1193.0318,-193.8965 1201.4787,-187.5011 1190.8872,-187.2331 1193.0318,-193.8965"/>
</g>
<!-- Node33&#45;&gt;Node8 -->
<g id="edge51" class="edge">
<title>Node33&#45;&gt;Node8</title>
<path fill="none" stroke="#191970" d="M851.2148,-168.3756C837.313,-160.6917 820.1309,-148.4793 812,-132 793.9021,-95.3203 826.2166,-50.9969 847.8495,-27.1643"/>
<polygon fill="#191970" stroke="#191970" points="850.6372,-29.3098 854.9557,-19.635 845.5465,-24.5051 850.6372,-29.3098"/>
</g>
<!-- Node33&#45;&gt;Node14 -->
<g id="edge52" class="edge">
<title>Node33&#45;&gt;Node14</title>
<path fill="none" stroke="#191970" d="M814.8495,-169.5556C742.5146,-158.8676 618.7918,-140.5866 547.6601,-130.0764"/>
<polygon fill="#191970" stroke="#191970" points="547.9635,-126.5833 537.5593,-128.584 546.9402,-133.5081 547.9635,-126.5833"/>
</g>
<!-- Node33&#45;&gt;Node32 -->
<g id="edge50" class="edge">
<title>Node33&#45;&gt;Node32</title>
<path fill="none" stroke="#191970" d="M868.3421,-168.2455C865.5416,-160.7776 861.591,-150.2427 858.1676,-141.1137"/>
<polygon fill="#191970" stroke="#191970" points="861.4045,-139.777 854.616,-131.6427 854.8501,-142.2349 861.4045,-139.777"/>
</g>
<!-- Node34&#45;&gt;Node3 -->
<g id="edge55" class="edge">
<title>Node34&#45;&gt;Node3</title>
<path fill="none" stroke="#191970" d="M1243.9856,-168.4347C1254.5936,-159.9704 1269.2209,-146.7049 1278,-132 1286.4998,-117.7629 1291.3717,-99.5181 1294.0491,-85.8207"/>
<polygon fill="#191970" stroke="#191970" points="1297.566,-86.0211 1295.8133,-75.5722 1290.6675,-84.8335 1297.566,-86.0211"/>
</g>
<!-- Node34&#45;&gt;Node8 -->
<g id="edge56" class="edge">
<title>Node34&#45;&gt;Node8</title>
<path fill="none" stroke="#191970" d="M1212.9356,-168.4865C1187.8163,-155.3527 1140.8186,-131.122 1100,-112 1028.5198,-78.5142 943.203,-42.4341 897.5898,-23.451"/>
<polygon fill="#191970" stroke="#191970" points="898.7893,-20.1593 888.2116,-19.5562 896.1045,-26.624 898.7893,-20.1593"/>
</g>
<!-- Node34&#45;&gt;Node30 -->
<g id="edge57" class="edge">
<title>Node34&#45;&gt;Node30</title>
<path fill="none" stroke="#191970" d="M1256.7859,-168.3733C1281.4047,-159.1822 1318.69,-145.2624 1345.9875,-135.0713"/>
<polygon fill="#191970" stroke="#191970" points="1347.4063,-138.2777 1355.5506,-131.5011 1344.958,-131.7198 1347.4063,-138.2777"/>
</g>
<!-- Node35 -->
<g id="node35" class="node">
<title>Node35</title>
<g id="a_node35"><a xlink:title=" ">
<polygon fill="#ffffff" stroke="#bfbfbf" points="1223,-112.5 1223,-131.5 1269,-131.5 1269,-112.5 1223,-112.5"/>
<text text-anchor="middle" x="1246" y="-119.5" font-family="Helvetica,sans-Serif" font-size="10.00" fill="#000000">cstring</text>
</a>
</g>
</g>
<!-- Node34&#45;&gt;Node35 -->
<g id="edge54" class="edge">
<title>Node34&#45;&gt;Node35</title>
<path fill="none" stroke="#191970" d="M1233.6128,-168.2455C1235.5916,-160.8579 1238.3744,-150.4689 1240.8012,-141.4087"/>
<polygon fill="#191970" stroke="#191970" points="1244.2105,-142.2078 1243.4171,-131.6427 1237.4489,-140.3966 1244.2105,-142.2078"/>
</g>
<!-- Node36 -->
<g id="node36" class="node">
<title>Node36</title>
<g id="a_node36"><a xlink:href="EncodingTraits_8hpp.html" target="_top" xlink:title="Defines possible encodings together with their properties and related types.">
<polygon fill="#ffffff" stroke="#000000" points="937,-112.5 937,-131.5 1091,-131.5 1091,-112.5 937,-112.5"/>
<text text-anchor="middle" x="1014" y="-119.5" font-family="Helvetica,sans-Serif" font-size="10.00" fill="#000000">LLU/WSTP/EncodingTraits.hpp</text>
</a>
</g>
</g>
<!-- Node34&#45;&gt;Node36 -->
<g id="edge58" class="edge">
<title>Node34&#45;&gt;Node36</title>
<path fill="none" stroke="#191970" d="M1193.6964,-168.3733C1156.8315,-158.8598 1100.334,-144.2797 1060.5494,-134.0127"/>
<polygon fill="#191970" stroke="#191970" points="1061.3742,-130.611 1050.8169,-131.5011 1059.625,-137.3889 1061.3742,-130.611"/>
</g>
<!-- Node36&#45;&gt;Node3 -->
<g id="edge60" class="edge">
<title>Node36&#45;&gt;Node3</title>
<path fill="none" stroke="#191970" d="M1062.3279,-112.4369C1120.717,-100.8829 1217.2087,-81.7891 1266.2836,-72.0782"/>
<polygon fill="#191970" stroke="#191970" points="1267.1563,-75.4734 1276.2866,-70.0988 1265.7974,-68.6066 1267.1563,-75.4734"/>
</g>
<!-- Node36&#45;&gt;Node16 -->
<g id="edge59" class="edge">
<title>Node36&#45;&gt;Node16</title>
<path fill="none" stroke="#191970" d="M938.8612,-112.4369C841.9741,-100.1058 677.6097,-79.1867 607.403,-70.2513"/>
<polygon fill="#191970" stroke="#191970" points="607.719,-66.7634 597.3571,-68.9727 606.8352,-73.7073 607.719,-66.7634"/>
</g>
<!-- Node36&#45;&gt;Node17 -->
<g id="edge61" class="edge">
<title>Node36&#45;&gt;Node17</title>
<path fill="none" stroke="#191970" d="M959.6952,-112.4369C896.737,-101.3499 794.3555,-83.3205 737.4575,-73.3007"/>
<polygon fill="#191970" stroke="#191970" points="737.8379,-69.8139 727.3824,-71.5265 736.6239,-76.7078 737.8379,-69.8139"/>
</g>
<!-- Node36&#45;&gt;Node18 -->
<g id="edge62" class="edge">
<title>Node36&#45;&gt;Node18</title>
<path fill="none" stroke="#191970" d="M936.8971,-115.6859C799.558,-104.4238 522.1376,-81.6019 464.2939,-75.0433"/>
<polygon fill="#191970" stroke="#191970" points="464.4828,-71.5366 454.1005,-73.6478 463.5333,-78.4719 464.4828,-71.5366"/>
</g>
<!-- Node37&#45;&gt;Node8 -->
<g id="edge65" class="edge">
<title>Node37&#45;&gt;Node8</title>
<path fill="none" stroke="#191970" d="M898.4751,-224.4962C862.6977,-216.1626 817.4961,-203.0485 806,-188 770.3599,-141.347 782.6702,-107.4212 811,-56 817.7994,-43.6585 829.3074,-33.1603 839.957,-25.3228"/>
<polygon fill="#191970" stroke="#191970" points="841.969,-28.1869 848.2074,-19.6234 837.9903,-22.4275 841.969,-28.1869"/>
</g>
<!-- Node37&#45;&gt;Node14 -->
<g id="edge67" class="edge">
<title>Node37&#45;&gt;Node14</title>
<path fill="none" stroke="#191970" d="M898.1621,-232.8684C785.5402,-229.665 506.806,-218.6859 479,-188 467.3865,-175.1837 473.8274,-155.1951 481.3594,-140.5716"/>
<polygon fill="#191970" stroke="#191970" points="484.407,-142.2925 486.2877,-131.8659 478.3154,-138.844 484.407,-142.2925"/>
</g>
<!-- Node37&#45;&gt;Node30 -->
<g id="edge66" class="edge">
<title>Node37&#45;&gt;Node30</title>
<path fill="none" stroke="#191970" d="M991.7191,-225.4581C994.8569,-224.9459 997.9724,-224.4547 1001,-224 1131.6189,-204.383 1173.8763,-238.3182 1296,-188 1310.4234,-182.0572 1342.1982,-155.7837 1362.55,-138.2322"/>
<polygon fill="#191970" stroke="#191970" points="1364.9856,-140.7525 1370.2363,-131.5503 1360.393,-135.4697 1364.9856,-140.7525"/>
</g>
<!-- Node37&#45;&gt;Node32 -->
<g id="edge64" class="edge">
<title>Node37&#45;&gt;Node32</title>
<path fill="none" stroke="#191970" d="M946.6484,-224.0828C948.3902,-210.2586 949.4969,-184.985 938,-168 926.7677,-151.406 907.5673,-140.3618 890.0571,-133.2651"/>
<polygon fill="#191970" stroke="#191970" points="891.157,-129.9398 880.5644,-129.7185 888.707,-136.4971 891.157,-129.9398"/>
</g>
<!-- Node37&#45;&gt;Node34 -->
<g id="edge68" class="edge">
<title>Node37&#45;&gt;Node34</title>
<path fill="none" stroke="#191970" d="M991.5874,-224.878C1040.8072,-215.2405 1118.5513,-200.0179 1172.0162,-189.5493"/>
<polygon fill="#191970" stroke="#191970" points="1172.8957,-192.9436 1182.0368,-187.5872 1171.5506,-186.0741 1172.8957,-192.9436"/>
</g>
<!-- Node38&#45;&gt;Node6 -->
<g id="edge72" class="edge">
<title>Node38&#45;&gt;Node6</title>
<path fill="none" stroke="#191970" d="M1419.4586,-224.4204C1438.1855,-216.6891 1463.0591,-204.4001 1481,-188 1502.8387,-168.0368 1508.6621,-160.389 1517,-132 1526.5185,-99.5911 1521.9715,-89.4099 1517,-56 1515.6673,-47.0439 1512.9506,-37.419 1510.2619,-29.3"/>
<polygon fill="#191970" stroke="#191970" points="1513.4936,-27.9402 1506.8624,-19.6772 1506.8933,-30.272 1513.4936,-27.9402"/>
</g>
<!-- Node38&#45;&gt;Node8 -->
<g id="edge73" class="edge">
<title>Node38&#45;&gt;Node8</title>
<path fill="none" stroke="#191970" d="M1403.3747,-224.3194C1424.9392,-202.9988 1470.6235,-150.8012 1446,-112 1414.6801,-62.6466 1383.3419,-71.5653 1327,-56 1245.912,-33.5983 989.9053,-17.1458 898.1377,-11.8342"/>
<polygon fill="#191970" stroke="#191970" points="898.2144,-8.333 888.0308,-11.256 897.8145,-15.3215 898.2144,-8.333"/>
</g>
<!-- Node38&#45;&gt;Node14 -->
<g id="edge75" class="edge">
<title>Node38&#45;&gt;Node14</title>
<path fill="none" stroke="#191970" d="M1338.2541,-228.1327C1322.9721,-226.631 1306.35,-225.1246 1291,-224 1208.7899,-217.9768 624.0986,-224.1134 550,-188 529.2622,-177.893 513.0173,-156.4352 503.2638,-140.7196"/>
<polygon fill="#191970" stroke="#191970" points="506.127,-138.6831 498.0476,-131.8292 500.0894,-142.2255 506.127,-138.6831"/>
</g>
<!-- Node38&#45;&gt;Node20 -->
<g id="edge70" class="edge">
<title>Node38&#45;&gt;Node20</title>
<path fill="none" stroke="#191970" d="M1428.4127,-224.3733C1465.3204,-214.3401 1522.9572,-198.6718 1560.8516,-188.3704"/>
<polygon fill="#191970" stroke="#191970" points="1562.2509,-191.6171 1570.9826,-185.6164 1560.4146,-184.8623 1562.2509,-191.6171"/>
</g>
<!-- Node38&#45;&gt;Node30 -->
<g id="edge74" class="edge">
<title>Node38&#45;&gt;Node30</title>
<path fill="none" stroke="#191970" d="M1391.9769,-224.4509C1390.0197,-206.184 1385.7095,-165.9553 1383.1105,-141.6976"/>
<polygon fill="#191970" stroke="#191970" points="1386.566,-141.0951 1382.0205,-131.5249 1379.6059,-141.8409 1386.566,-141.0951"/>
</g>
<!-- Node38&#45;&gt;Node32 -->
<g id="edge71" class="edge">
<title>Node38&#45;&gt;Node32</title>
<path fill="none" stroke="#191970" d="M1338.4919,-225.8495C1283.8104,-217.4066 1197.2795,-203.3202 1123,-188 1039.7904,-170.838 943.3635,-146.3319 890.5882,-132.5191"/>
<polygon fill="#191970" stroke="#191970" points="891.1931,-129.0593 880.632,-129.9044 889.415,-135.8297 891.1931,-129.0593"/>
</g>
<!-- Node38&#45;&gt;Node34 -->
<g id="edge77" class="edge">
<title>Node38&#45;&gt;Node34</title>
<path fill="none" stroke="#191970" d="M1365.1512,-224.3733C1338.3297,-215.1016 1297.5873,-201.0178 1268.0402,-190.804"/>
<polygon fill="#191970" stroke="#191970" points="1269.0802,-187.4603 1258.4854,-187.5011 1266.7931,-194.0762 1269.0802,-187.4603"/>
</g>
<!-- Node38&#45;&gt;Node36 -->
<g id="edge76" class="edge">
<title>Node38&#45;&gt;Node36</title>
<path fill="none" stroke="#191970" d="M1338.2302,-226.4043C1291.9014,-219.1416 1224.1296,-206.5343 1167,-188 1146.5674,-181.3711 1142.675,-176.6213 1123,-168 1097.3865,-156.7766 1068.1872,-144.4803 1046.4607,-135.4267"/>
<polygon fill="#191970" stroke="#191970" points="1047.6212,-132.1188 1037.0439,-131.5107 1044.9334,-138.5822 1047.6212,-132.1188"/>
</g>
<!-- Node39&#45;&gt;Node8 -->
<g id="edge81" class="edge">
<title>Node39&#45;&gt;Node8</title>
<path fill="none" stroke="#191970" d="M637.9418,-168.2497C633.7325,-145.3749 626.8312,-87.7993 656,-56 667.8559,-43.0749 775.9342,-24.1897 831.8337,-15.1692"/>
<polygon fill="#191970" stroke="#191970" points="832.6294,-18.5866 841.9518,-13.5523 831.5247,-11.6743 832.6294,-18.5866"/>
</g>
<!-- Node39&#45;&gt;Node14 -->
<g id="edge82" class="edge">
<title>Node39&#45;&gt;Node14</title>
<path fill="none" stroke="#191970" d="M614.7298,-168.3733C590.6034,-159.1822 554.0638,-145.2624 527.3123,-135.0713"/>
<polygon fill="#191970" stroke="#191970" points="528.5313,-131.7904 517.9404,-131.5011 526.0393,-138.3318 528.5313,-131.7904"/>
</g>
<!-- Node39&#45;&gt;Node17 -->
<g id="edge80" class="edge">
<title>Node39&#45;&gt;Node17</title>
<path fill="none" stroke="#191970" d="M644.7745,-168.4509C654.032,-149.936 674.5705,-108.8591 686.6407,-84.7187"/>
<polygon fill="#191970" stroke="#191970" points="689.8959,-86.0344 691.2376,-75.5249 683.6349,-82.9039 689.8959,-86.0344"/>
</g>
</g>
</svg>
