<?xml version="1.0" encoding="UTF-8" standalone="no"?>
<!DOCTYPE svg PUBLIC "-//W3C//DTD SVG 1.1//EN"
 "http://www.w3.org/Graphics/SVG/1.1/DTD/svg11.dtd">
<!-- Generated by graphviz version 2.40.1 (20161225.0304)
 -->
<!-- Title: MArgument.h Pages: 1 -->
<!--zoomable 196 -->
<svg id="main" version="1.1" xmlns="http://www.w3.org/2000/svg" xmlns:xlink="http://www.w3.org/1999/xlink" xml:space="preserve" onload="init(evt)">
<style type="text/css"><![CDATA[
.edge:hover path { stroke: red; }
.edge:hover polygon { stroke: red; fill: red; }
]]></style>
<script type="text/javascript"><![CDATA[
var edges = document.getElementsByTagName('g');
if (edges && edges.length) {
  for (var i=0;i<edges.length;i++) {
    if (edges[i].id.substr(0,4)=='edge') {
      edges[i].setAttribute('class','edge');
    }
  }
}
]]></script>
        <defs>
                <circle id="rim" cx="0" cy="0" r="7"/>
                <circle id="rim2" cx="0" cy="0" r="3.5"/>
                <g id="zoomPlus">
                        <use xlink:href="#rim" fill="#404040">
                                <set attributeName="fill" to="#808080" begin="zoomplus.mouseover" end="zoomplus.mouseout"/>
                        </use>
                        <path d="M-4,0h8M0,-4v8" fill="none" stroke="white" stroke-width="1.5" pointer-events="none"/>
                </g>
                <g id="zoomMin">
                        <use xlink:href="#rim" fill="#404040">
                                <set attributeName="fill" to="#808080" begin="zoomminus.mouseover" end="zoomminus.mouseout"/>
                        </use>
                        <path d="M-4,0h8" fill="none" stroke="white" stroke-width="1.5" pointer-events="none"/>
                </g>
                <g id="dirArrow">
                        <path fill="none" stroke="white" stroke-width="1.5" d="M0,-3.0v7 M-2.5,-0.5L0,-3.0L2.5,-0.5"/>
                </g>
               <g id="resetDef">
                       <use xlink:href="#rim2" fill="#404040">
                               <set attributeName="fill" to="#808080" begin="reset.mouseover" end="reset.mouseout"/>
                       </use>
               </g>
        </defs>

<script type="text/javascript">
var viewWidth = 922;
var viewHeight = 196;
var sectionId = 'dynsection-0';
</script>
<script xlink:href="svgpan.js"/>
<svg id="graph" class="graph">
<g id="viewport">
<title>MArgument.h</title>
<polygon fill="#ffffff" stroke="transparent" points="-4,4 -4,-192 918,-192 918,4 -4,4"/>
<!-- Node1 -->
<g id="node1" class="node">
<title>Node1</title>
<g id="a_node1"><a xlink:title="Template class and utilities to work with MArgument in type&#45;safe manner.">
<polygon fill="#bfbfbf" stroke="#000000" points="271.5,-168.5 271.5,-187.5 346.5,-187.5 346.5,-168.5 271.5,-168.5"/>
<text text-anchor="middle" x="309" y="-175.5" font-family="Helvetica,sans-Serif" font-size="10.00" fill="#000000">MArgument.h</text>
</a>
</g>
</g>
<!-- Node2 -->
<g id="node2" class="node">
<title>Node2</title>
<g id="a_node2"><a xlink:title=" ">
<polygon fill="#ffffff" stroke="#bfbfbf" points="220.5,-112.5 220.5,-131.5 261.5,-131.5 261.5,-112.5 220.5,-112.5"/>
<text text-anchor="middle" x="241" y="-119.5" font-family="Helvetica,sans-Serif" font-size="10.00" fill="#000000">string</text>
</a>
</g>
</g>
<!-- Node1&#45;&gt;Node2 -->
<g id="edge1" class="edge">
<title>Node1&#45;&gt;Node2</title>
<path fill="none" stroke="#191970" d="M297.1553,-168.2455C287.112,-159.9746 272.5005,-147.9416 260.6996,-138.2232"/>
<polygon fill="#191970" stroke="#191970" points="262.6533,-135.298 252.709,-131.6427 258.2033,-140.7015 262.6533,-135.298"/>
</g>
<!-- Node3 -->
<g id="node3" class="node">
<title>Node3</title>
<g id="a_node3"><a xlink:title=" ">
<polygon fill="#ffffff" stroke="#bfbfbf" points="216,-56.5 216,-75.5 262,-75.5 262,-56.5 216,-56.5"/>
<text text-anchor="middle" x="239" y="-63.5" font-family="Helvetica,sans-Serif" font-size="10.00" fill="#000000">variant</text>
</a>
</g>
</g>
<!-- Node1&#45;&gt;Node3 -->
<g id="edge2" class="edge">
<title>Node1&#45;&gt;Node3</title>
<path fill="none" stroke="#191970" d="M303.6194,-168.4945C296.2519,-155.5732 282.5092,-131.8046 270,-112 264.1082,-102.6722 257.2815,-92.4807 251.5365,-84.0667"/>
<polygon fill="#191970" stroke="#191970" points="254.3734,-82.015 245.8226,-75.7591 248.6058,-85.9819 254.3734,-82.015"/>
</g>
<!-- Node4 -->
<g id="node4" class="node">
<title>Node4</title>
<g id="a_node4"><a xlink:href="LibraryData_8h.html" target="_top" xlink:title=" ">
<polygon fill="#ffffff" stroke="#000000" points="280,-56.5 280,-75.5 376,-75.5 376,-56.5 280,-56.5"/>
<text text-anchor="middle" x="328" y="-63.5" font-family="Helvetica,sans-Serif" font-size="10.00" fill="#000000">LLU/LibraryData.h</text>
</a>
</g>
</g>
<!-- Node1&#45;&gt;Node4 -->
<g id="edge3" class="edge">
<title>Node1&#45;&gt;Node4</title>
<path fill="none" stroke="#191970" d="M310.6199,-168.4509C313.7188,-150.184 320.5433,-109.9553 324.6584,-85.6976"/>
<polygon fill="#191970" stroke="#191970" points="328.1623,-85.9694 326.3842,-75.5249 321.2609,-84.7986 328.1623,-85.9694"/>
</g>
<!-- Node13 -->
<g id="node13" class="node">
<title>Node13</title>
<g id="a_node13"><a xlink:href="Utilities_8hpp.html" target="_top" xlink:title="Short but generally useful functions.">
<polygon fill="#ffffff" stroke="#000000" points="380.5,-112.5 380.5,-131.5 469.5,-131.5 469.5,-112.5 380.5,-112.5"/>
<text text-anchor="middle" x="425" y="-119.5" font-family="Helvetica,sans-Serif" font-size="10.00" fill="#000000">LLU/Utilities.hpp</text>
</a>
</g>
</g>
<!-- Node1&#45;&gt;Node13 -->
<g id="edge12" class="edge">
<title>Node1&#45;&gt;Node13</title>
<path fill="none" stroke="#191970" d="M328.9411,-168.3733C347.4786,-159.4241 375.3028,-145.9917 396.2413,-135.8835"/>
<polygon fill="#191970" stroke="#191970" points="397.8352,-139.0006 405.3191,-131.5011 394.7919,-132.6967 397.8352,-139.0006"/>
</g>
<!-- Node5 -->
<g id="node5" class="node">
<title>Node5</title>
<g id="a_node5"><a xlink:title=" ">
<polygon fill="#ffffff" stroke="#bfbfbf" points="0,-.5 0,-19.5 52,-19.5 52,-.5 0,-.5"/>
<text text-anchor="middle" x="26" y="-7.5" font-family="Helvetica,sans-Serif" font-size="10.00" fill="#000000">memory</text>
</a>
</g>
</g>
<!-- Node4&#45;&gt;Node5 -->
<g id="edge4" class="edge">
<title>Node4&#45;&gt;Node5</title>
<path fill="none" stroke="#191970" d="M279.8003,-57.5303C276.8226,-57.0113 273.8708,-56.4979 271,-56 180.7959,-40.3556 155.0225,-40.9765 62.1099,-20.0748"/>
<polygon fill="#191970" stroke="#191970" points="62.8212,-16.6473 52.2941,-17.8436 61.2696,-23.4732 62.8212,-16.6473"/>
</g>
<!-- Node6 -->
<g id="node6" class="node">
<title>Node6</title>
<g id="a_node6"><a xlink:title=" ">
<polygon fill="#ffffff" stroke="#bfbfbf" points="70,-.5 70,-19.5 132,-19.5 132,-.5 70,-.5"/>
<text text-anchor="middle" x="101" y="-7.5" font-family="Helvetica,sans-Serif" font-size="10.00" fill="#000000">dllexport.h</text>
</a>
</g>
</g>
<!-- Node4&#45;&gt;Node6 -->
<g id="edge5" class="edge">
<title>Node4&#45;&gt;Node6</title>
<path fill="none" stroke="#191970" d="M288.9502,-56.4397C253.1812,-47.6724 198.4991,-34.244 141.8535,-20.2055"/>
<polygon fill="#191970" stroke="#191970" points="142.5544,-16.7734 132.006,-17.7638 140.8697,-23.5677 142.5544,-16.7734"/>
</g>
<!-- Node7 -->
<g id="node7" class="node">
<title>Node7</title>
<g id="a_node7"><a xlink:title=" ">
<polygon fill="#ffffff" stroke="#bfbfbf" points="150,-.5 150,-19.5 196,-19.5 196,-.5 150,-.5"/>
<text text-anchor="middle" x="173" y="-7.5" font-family="Helvetica,sans-Serif" font-size="10.00" fill="#000000">wstp.h</text>
</a>
</g>
</g>
<!-- Node4&#45;&gt;Node7 -->
<g id="edge6" class="edge">
<title>Node4&#45;&gt;Node7</title>
<path fill="none" stroke="#191970" d="M301.3546,-56.3733C274.8744,-46.8062 234.2128,-32.1156 205.7712,-21.8399"/>
<polygon fill="#191970" stroke="#191970" points="206.8583,-18.5113 196.264,-18.4051 204.4797,-25.0948 206.8583,-18.5113"/>
</g>
<!-- Node8 -->
<g id="node8" class="node">
<title>Node8</title>
<g id="a_node8"><a xlink:title=" ">
<polygon fill="#ffffff" stroke="#bfbfbf" points="214.5,-.5 214.5,-19.5 305.5,-19.5 305.5,-.5 214.5,-.5"/>
<text text-anchor="middle" x="260" y="-7.5" font-family="Helvetica,sans-Serif" font-size="10.00" fill="#000000">WolframLibrary.h</text>
</a>
</g>
</g>
<!-- Node4&#45;&gt;Node8 -->
<g id="edge7" class="edge">
<title>Node4&#45;&gt;Node8</title>
<path fill="none" stroke="#191970" d="M316.1553,-56.2455C306.112,-47.9746 291.5005,-35.9416 279.6996,-26.2232"/>
<polygon fill="#191970" stroke="#191970" points="281.6533,-23.298 271.709,-19.6427 277.2033,-28.7015 281.6533,-23.298"/>
</g>
<!-- Node9 -->
<g id="node9" class="node">
<title>Node9</title>
<g id="a_node9"><a xlink:title=" ">
<polygon fill="#ffffff" stroke="#bfbfbf" points="324,-.5 324,-19.5 468,-19.5 468,-.5 324,-.5"/>
<text text-anchor="middle" x="396" y="-7.5" font-family="Helvetica,sans-Serif" font-size="10.00" fill="#000000">WolframIOLibraryFunctions.h</text>
</a>
</g>
</g>
<!-- Node4&#45;&gt;Node9 -->
<g id="edge8" class="edge">
<title>Node4&#45;&gt;Node9</title>
<path fill="none" stroke="#191970" d="M339.8447,-56.2455C349.888,-47.9746 364.4995,-35.9416 376.3004,-26.2232"/>
<polygon fill="#191970" stroke="#191970" points="378.7967,-28.7015 384.291,-19.6427 374.3467,-23.298 378.7967,-28.7015"/>
</g>
<!-- Node10 -->
<g id="node10" class="node">
<title>Node10</title>
<g id="a_node10"><a xlink:title=" ">
<polygon fill="#ffffff" stroke="#bfbfbf" points="486,-.5 486,-19.5 604,-19.5 604,-.5 486,-.5"/>
<text text-anchor="middle" x="545" y="-7.5" font-family="Helvetica,sans-Serif" font-size="10.00" fill="#000000">WolframImageLibrary.h</text>
</a>
</g>
</g>
<!-- Node4&#45;&gt;Node10 -->
<g id="edge9" class="edge">
<title>Node4&#45;&gt;Node10</title>
<path fill="none" stroke="#191970" d="M365.3036,-56.3733C402.1685,-46.8598 458.666,-32.2797 498.4506,-22.0127"/>
<polygon fill="#191970" stroke="#191970" points="499.375,-25.3889 508.1831,-19.5011 497.6258,-18.611 499.375,-25.3889"/>
</g>
<!-- Node11 -->
<g id="node11" class="node">
<title>Node11</title>
<g id="a_node11"><a xlink:title=" ">
<polygon fill="#ffffff" stroke="#bfbfbf" points="622.5,-.5 622.5,-19.5 773.5,-19.5 773.5,-.5 622.5,-.5"/>
<text text-anchor="middle" x="698" y="-7.5" font-family="Helvetica,sans-Serif" font-size="10.00" fill="#000000">WolframNumericArrayLibrary.h</text>
</a>
</g>
</g>
<!-- Node4&#45;&gt;Node11 -->
<g id="edge10" class="edge">
<title>Node4&#45;&gt;Node11</title>
<path fill="none" stroke="#191970" d="M376.1862,-57.4495C379.1672,-56.9505 382.1235,-56.4636 385,-56 464.7795,-43.1419 556.2426,-29.8694 619.608,-20.906"/>
<polygon fill="#191970" stroke="#191970" points="620.1179,-24.3688 629.5304,-19.5051 619.1393,-17.4375 620.1179,-24.3688"/>
</g>
<!-- Node12 -->
<g id="node12" class="node">
<title>Node12</title>
<g id="a_node12"><a xlink:title=" ">
<polygon fill="#ffffff" stroke="#bfbfbf" points="792,-.5 792,-19.5 914,-19.5 914,-.5 792,-.5"/>
<text text-anchor="middle" x="853" y="-7.5" font-family="Helvetica,sans-Serif" font-size="10.00" fill="#000000">WolframSparseLibrary.h</text>
</a>
</g>
</g>
<!-- Node4&#45;&gt;Node12 -->
<g id="edge11" class="edge">
<title>Node4&#45;&gt;Node12</title>
<path fill="none" stroke="#191970" d="M376.1584,-57.2601C379.1463,-56.8081 382.1117,-56.3833 385,-56 557.8005,-33.0677 604.8496,-40.2823 781.7657,-20.0874"/>
<polygon fill="#191970" stroke="#191970" points="782.4084,-23.5365 791.9408,-18.9122 781.6052,-16.5828 782.4084,-23.5365"/>
</g>
<!-- Node13&#45;&gt;Node3 -->
<g id="edge17" class="edge">
<title>Node13&#45;&gt;Node3</title>
<path fill="none" stroke="#191970" d="M392.5169,-112.4267C363.3357,-103.7979 319.067,-90.6376 271.8567,-76.2376"/>
<polygon fill="#191970" stroke="#191970" points="272.6476,-72.8196 262.0613,-73.2448 270.6022,-79.5141 272.6476,-72.8196"/>
</g>
<!-- Node13&#45;&gt;Node4 -->
<g id="edge18" class="edge">
<title>Node13&#45;&gt;Node4</title>
<path fill="none" stroke="#191970" d="M408.1039,-112.2455C393.082,-103.5731 370.8957,-90.7645 353.679,-80.825"/>
<polygon fill="#191970" stroke="#191970" points="355.1128,-77.6114 344.7025,-75.6427 351.6129,-83.6737 355.1128,-77.6114"/>
</g>
<!-- Node14 -->
<g id="node14" class="node">
<title>Node14</title>
<g id="a_node14"><a xlink:title=" ">
<polygon fill="#ffffff" stroke="#bfbfbf" points="532.5,-56.5 532.5,-75.5 585.5,-75.5 585.5,-56.5 532.5,-56.5"/>
<text text-anchor="middle" x="559" y="-63.5" font-family="Helvetica,sans-Serif" font-size="10.00" fill="#000000">complex</text>
</a>
</g>
</g>
<!-- Node13&#45;&gt;Node14 -->
<g id="edge13" class="edge">
<title>Node13&#45;&gt;Node14</title>
<path fill="none" stroke="#191970" d="M448.0354,-112.3733C469.7388,-103.3032 502.4618,-89.6279 526.755,-79.4755"/>
<polygon fill="#191970" stroke="#191970" points="528.3881,-82.5865 536.2652,-75.5011 525.6889,-76.1278 528.3881,-82.5865"/>
</g>
<!-- Node15 -->
<g id="node15" class="node">
<title>Node15</title>
<g id="a_node15"><a xlink:title=" ">
<polygon fill="#ffffff" stroke="#bfbfbf" points="604,-56.5 604,-75.5 650,-75.5 650,-56.5 604,-56.5"/>
<text text-anchor="middle" x="627" y="-63.5" font-family="Helvetica,sans-Serif" font-size="10.00" fill="#000000">cstdint</text>
</a>
</g>
</g>
<!-- Node13&#45;&gt;Node15 -->
<g id="edge14" class="edge">
<title>Node13&#45;&gt;Node15</title>
<path fill="none" stroke="#191970" d="M461.9245,-112.4484C494.3479,-103.9635 543.0139,-90.9929 594.0638,-76.199"/>
<polygon fill="#191970" stroke="#191970" points="595.3378,-79.4734 603.9602,-73.3166 593.3803,-72.7527 595.3378,-79.4734"/>
</g>
<!-- Node16 -->
<g id="node16" class="node">
<title>Node16</title>
<g id="a_node16"><a xlink:title=" ">
<polygon fill="#ffffff" stroke="#bfbfbf" points="394,-56.5 394,-75.5 456,-75.5 456,-56.5 394,-56.5"/>
<text text-anchor="middle" x="425" y="-63.5" font-family="Helvetica,sans-Serif" font-size="10.00" fill="#000000">type_traits</text>
</a>
</g>
</g>
<!-- Node13&#45;&gt;Node16 -->
<g id="edge15" class="edge">
<title>Node13&#45;&gt;Node16</title>
<path fill="none" stroke="#191970" d="M425,-112.2455C425,-104.9382 425,-94.6944 425,-85.7046"/>
<polygon fill="#191970" stroke="#191970" points="428.5001,-85.6426 425,-75.6427 421.5001,-85.6427 428.5001,-85.6426"/>
</g>
<!-- Node17 -->
<g id="node17" class="node">
<title>Node17</title>
<g id="a_node17"><a xlink:title=" ">
<polygon fill="#ffffff" stroke="#bfbfbf" points="474,-56.5 474,-75.5 514,-75.5 514,-56.5 474,-56.5"/>
<text text-anchor="middle" x="494" y="-63.5" font-family="Helvetica,sans-Serif" font-size="10.00" fill="#000000">utility</text>
</a>
</g>
</g>
<!-- Node13&#45;&gt;Node17 -->
<g id="edge16" class="edge">
<title>Node13&#45;&gt;Node17</title>
<path fill="none" stroke="#191970" d="M437.0189,-112.2455C447.2098,-103.9746 462.0362,-91.9416 474.0107,-82.2232"/>
<polygon fill="#191970" stroke="#191970" points="476.5598,-84.662 482.1188,-75.6427 472.1486,-79.2268 476.5598,-84.662"/>
</g>
</g>
</svg>
        <g id="navigator" transform="translate(0 0)" fill="#404254">
                <rect fill="#f2f5e9" fill-opacity="0.5" stroke="#606060" stroke-width=".5" x="0" y="0" width="60" height="60"/>
                <use id="zoomplus" xlink:href="#zoomPlus" x="17" y="9" onmousedown="handleZoom(evt,'in')"/>
                <use id="zoomminus" xlink:href="#zoomMin" x="42" y="9" onmousedown="handleZoom(evt,'out')"/>
                <use id="reset" xlink:href="#resetDef" x="30" y="36" onmousedown="handleReset()"/>
                <g id="arrowUp" xlink:href="#dirArrow" transform="translate(30 24)" onmousedown="handlePan(0,-1)">
                  <use xlink:href="#rim" fill="#404040">
                        <set attributeName="fill" to="#808080" begin="arrowUp.mouseover" end="arrowUp.mouseout"/>
                  </use>
                  <path fill="none" stroke="white" stroke-width="1.5" d="M0,-3.0v7 M-2.5,-0.5L0,-3.0L2.5,-0.5"/>
                </g>
                <g id="arrowRight" xlink:href="#dirArrow" transform="rotate(90) translate(36 -43)" onmousedown="handlePan(1,0)">
                  <use xlink:href="#rim" fill="#404040">
                        <set attributeName="fill" to="#808080" begin="arrowRight.mouseover" end="arrowRight.mouseout"/>
                  </use>
                  <path fill="none" stroke="white" stroke-width="1.5" d="M0,-3.0v7 M-2.5,-0.5L0,-3.0L2.5,-0.5"/>
                </g>
                <g id="arrowDown" xlink:href="#dirArrow" transform="rotate(180) translate(-30 -48)" onmousedown="handlePan(0,1)">
                  <use xlink:href="#rim" fill="#404040">
                        <set attributeName="fill" to="#808080" begin="arrowDown.mouseover" end="arrowDown.mouseout"/>
                  </use>
                  <path fill="none" stroke="white" stroke-width="1.5" d="M0,-3.0v7 M-2.5,-0.5L0,-3.0L2.5,-0.5"/>
                </g>
                <g id="arrowLeft" xlink:href="#dirArrow" transform="rotate(270) translate(-36 17)" onmousedown="handlePan(-1,0)">
                  <use xlink:href="#rim" fill="#404040">
                        <set attributeName="fill" to="#808080" begin="arrowLeft.mouseover" end="arrowLeft.mouseout"/>
                  </use>
                  <path fill="none" stroke="white" stroke-width="1.5" d="M0,-3.0v7 M-2.5,-0.5L0,-3.0L2.5,-0.5"/>
                </g>
        </g>
        <svg viewBox="0 0 15 15" width="100%" height="30px" preserveAspectRatio="xMaxYMin meet">
         <g id="arrow_out" transform="scale(0.3 0.3)">
          <a xlink:href="MArgument_8h__incl_org.svg" target="_base">
           <rect id="button" ry="5" rx="5" y="6" x="6" height="38" width="38"
                fill="#f2f5e9" fill-opacity="0.5" stroke="#606060" stroke-width="1.0"/>
           <path id="arrow"
             d="M 11.500037,31.436501 C 11.940474,20.09759 22.043105,11.32322 32.158766,21.979434 L 37.068811,17.246167 C 37.068811,17.246167 37.088388,32 37.088388,32 L 22.160133,31.978069 C 22.160133,31.978069 26.997745,27.140456 26.997745,27.140456 C 18.528582,18.264221 13.291696,25.230495 11.500037,31.436501 z"
             style="fill:#404040;"/>
          </a>
         </g>
        </svg>
</svg>
