<?xml version="1.0" encoding="UTF-8" standalone="no"?>
<!DOCTYPE svg PUBLIC "-//W3C//DTD SVG 1.1//EN"
 "http://www.w3.org/Graphics/SVG/1.1/DTD/svg11.dtd">
<!-- Generated by graphviz version 2.43.0 (0)
 -->
<!-- Title: MArgument.h Pages: 1 -->
<svg width="1355pt" height="588pt"
 viewBox="0.00 0.00 1355.00 588.00" xmlns="http://www.w3.org/2000/svg" xmlns:xlink="http://www.w3.org/1999/xlink">
<g id="graph0" class="graph" transform="scale(1 1) rotate(0) translate(4 584)">
<title>MArgument.h</title>
<polygon fill="white" stroke="transparent" points="-4,4 -4,-584 1351,-584 1351,4 -4,4"/>
<!-- Node1 -->
<g id="node1" class="node">
<title>Node1</title>
<g id="a_node1"><a xlink:title="Template class and utilities to work with MArgument in type&#45;safe manner.">
<polygon fill="#bfbfbf" stroke="black" points="1014.5,-560.5 1014.5,-579.5 1089.5,-579.5 1089.5,-560.5 1014.5,-560.5"/>
<text text-anchor="middle" x="1052" y="-567.5" font-family="Helvetica,sans-Serif" font-size="10.00">MArgument.h</text>
</a>
</g>
</g>
<!-- Node2 -->
<g id="node2" class="node">
<title>Node2</title>
<g id="a_node2"><a xlink:href="DataList_8h.html" target="_top" xlink:title="Definition of templated DataStore wrapper called DataList.">
<polygon fill="white" stroke="black" points="774,-112.5 774,-131.5 836,-131.5 836,-112.5 774,-112.5"/>
<text text-anchor="middle" x="805" y="-119.5" font-family="Helvetica,sans-Serif" font-size="10.00">DataList.h</text>
</a>
</g>
</g>
<!-- Node1&#45;&gt;Node2 -->
<g id="edge1" class="edge">
<title>Node1&#45;&gt;Node2</title>
<path fill="none" stroke="midnightblue" d="M1099.52,-561.27C1153.14,-549.52 1233,-521.53 1233,-459 1233,-459 1233,-459 1233,-233 1233,-151.01 934.62,-129.25 836.13,-124.3"/>
<polygon fill="midnightblue" stroke="midnightblue" points="1098.59,-557.89 1089.5,-563.35 1100.01,-564.74 1098.59,-557.89"/>
</g>
<!-- Node4 -->
<g id="node4" class="node">
<title>Node4</title>
<g id="a_node4"><a xlink:href="MArgumentManager_8h.html" target="_top" xlink:title="Definition of MArgumentManager class.">
<polygon fill="white" stroke="black" points="136,-56.5 136,-75.5 248,-75.5 248,-56.5 136,-56.5"/>
<text text-anchor="middle" x="192" y="-63.5" font-family="Helvetica,sans-Serif" font-size="10.00">MArgumentManager.h</text>
</a>
</g>
</g>
<!-- Node1&#45;&gt;Node4 -->
<g id="edge56" class="edge">
<title>Node1&#45;&gt;Node4</title>
<path fill="none" stroke="midnightblue" d="M1004.15,-568.04C821.72,-563.77 180,-542.78 180,-459 180,-459 180,-459 180,-177 180,-138.96 187.18,-93.96 190.43,-75.52"/>
<polygon fill="midnightblue" stroke="midnightblue" points="1004.17,-571.54 1014.25,-568.27 1004.33,-564.55 1004.17,-571.54"/>
</g>
<!-- Node8 -->
<g id="node8" class="node">
<title>Node8</title>
<g id="a_node8"><a xlink:href="Base_8hpp.html" target="_top" xlink:title="Definitions of MContainerBase and MContainer class templates.">
<polygon fill="white" stroke="black" points="769,-504.5 769,-523.5 827,-523.5 827,-504.5 769,-504.5"/>
<text text-anchor="middle" x="798" y="-511.5" font-family="Helvetica,sans-Serif" font-size="10.00">Base.hpp</text>
</a>
</g>
</g>
<!-- Node1&#45;&gt;Node8 -->
<g id="edge8" class="edge">
<title>Node1&#45;&gt;Node8</title>
<path fill="none" stroke="midnightblue" d="M1004.25,-558.85C952.2,-547.78 870.55,-530.42 827.25,-521.22"/>
<polygon fill="midnightblue" stroke="midnightblue" points="1003.74,-562.32 1014.25,-560.97 1005.19,-555.47 1003.74,-562.32"/>
</g>
<!-- Node9 -->
<g id="node9" class="node">
<title>Node9</title>
<g id="a_node9"><a xlink:href="Generic_2DataStore_8hpp.html" target="_top" xlink:title="Definition and implementation of generic DataStore wrapper.">
<polygon fill="white" stroke="black" points="857,-280.5 857,-299.5 937,-299.5 937,-280.5 857,-280.5"/>
<text text-anchor="middle" x="897" y="-287.5" font-family="Helvetica,sans-Serif" font-size="10.00">DataStore.hpp</text>
</a>
</g>
</g>
<!-- Node1&#45;&gt;Node9 -->
<g id="edge53" class="edge">
<title>Node1&#45;&gt;Node9</title>
<path fill="none" stroke="midnightblue" d="M1044.1,-550.96C1026.3,-510.97 980.78,-412.39 932,-336 923.48,-322.65 911.94,-308.41 904.48,-299.61"/>
<polygon fill="midnightblue" stroke="midnightblue" points="1040.95,-552.49 1048.19,-560.22 1047.35,-549.66 1040.95,-552.49"/>
</g>
<!-- Node11 -->
<g id="node11" class="node">
<title>Node11</title>
<g id="a_node11"><a xlink:href="DataList_8hpp.html" target="_top" xlink:title="Special iterators for DataLists. Iteration over keys, values, reversed iteration.">
<polygon fill="white" stroke="black" points="988,-168.5 988,-187.5 1060,-187.5 1060,-168.5 988,-168.5"/>
<text text-anchor="middle" x="1024" y="-175.5" font-family="Helvetica,sans-Serif" font-size="10.00">DataList.hpp</text>
</a>
</g>
</g>
<!-- Node1&#45;&gt;Node11 -->
<g id="edge54" class="edge">
<title>Node1&#45;&gt;Node11</title>
<path fill="none" stroke="midnightblue" d="M1092.19,-557.2C1134.49,-542.01 1195,-511.16 1195,-459 1195,-459 1195,-459 1195,-289 1195,-225.46 1110.46,-196.89 1060.26,-185.53"/>
<polygon fill="midnightblue" stroke="midnightblue" points="1091,-553.91 1082.68,-560.46 1093.27,-560.53 1091,-553.91"/>
</g>
<!-- Node18 -->
<g id="node18" class="node">
<title>Node18</title>
<g id="a_node18"><a xlink:href="TypedMArgument_8h.html" target="_top" xlink:title=" ">
<polygon fill="white" stroke="black" points="668.5,-392.5 668.5,-411.5 769.5,-411.5 769.5,-392.5 668.5,-392.5"/>
<text text-anchor="middle" x="719" y="-399.5" font-family="Helvetica,sans-Serif" font-size="10.00">TypedMArgument.h</text>
</a>
</g>
</g>
<!-- Node1&#45;&gt;Node18 -->
<g id="edge57" class="edge">
<title>Node1&#45;&gt;Node18</title>
<path fill="none" stroke="midnightblue" d="M1003.93,-567.51C930.76,-564.29 796.08,-554.3 760,-524 725.01,-494.62 719.78,-434.17 719.08,-411.68"/>
<polygon fill="midnightblue" stroke="midnightblue" points="1004.13,-571.02 1014.27,-567.94 1004.42,-564.03 1004.13,-571.02"/>
</g>
<!-- Node19 -->
<g id="node19" class="node">
<title>Node19</title>
<g id="a_node19"><a xlink:href="Iterators_2DataStore_8hpp.html" target="_top" xlink:title=" ">
<polygon fill="white" stroke="black" points="1012,-336.5 1012,-355.5 1092,-355.5 1092,-336.5 1012,-336.5"/>
<text text-anchor="middle" x="1052" y="-343.5" font-family="Helvetica,sans-Serif" font-size="10.00">DataStore.hpp</text>
</a>
</g>
</g>
<!-- Node1&#45;&gt;Node19 -->
<g id="edge55" class="edge">
<title>Node1&#45;&gt;Node19</title>
<path fill="none" stroke="midnightblue" d="M1052,-550.3C1052,-504.64 1052,-388.85 1052,-355.88"/>
<polygon fill="midnightblue" stroke="midnightblue" points="1048.5,-550.3 1052,-560.3 1055.5,-550.3 1048.5,-550.3"/>
</g>
<!-- Node30 -->
<g id="node30" class="node">
<title>Node30</title>
<g id="a_node30"><a xlink:href="MArgument_8cpp.html" target="_top" xlink:title="Specializations of PrimitiveWrapper class template members.">
<polygon fill="white" stroke="black" points="1261,-504.5 1261,-523.5 1347,-523.5 1347,-504.5 1261,-504.5"/>
<text text-anchor="middle" x="1304" y="-511.5" font-family="Helvetica,sans-Serif" font-size="10.00">MArgument.cpp</text>
</a>
</g>
</g>
<!-- Node1&#45;&gt;Node30 -->
<g id="edge58" class="edge">
<title>Node1&#45;&gt;Node30</title>
<path fill="none" stroke="midnightblue" d="M1099.77,-558.76C1147.27,-548.59 1219.32,-533.15 1263.93,-523.59"/>
<polygon fill="midnightblue" stroke="midnightblue" points="1098.77,-555.4 1089.73,-560.92 1100.24,-562.24 1098.77,-555.4"/>
</g>
<!-- Node3 -->
<g id="node3" class="node">
<title>Node3</title>
<g id="a_node3"><a xlink:href="LLU_8h.html" target="_top" xlink:title="Header file which includes all major parts of LLU.">
<polygon fill="white" stroke="black" points="596.5,-0.5 596.5,-19.5 639.5,-19.5 639.5,-0.5 596.5,-0.5"/>
<text text-anchor="middle" x="618" y="-7.5" font-family="Helvetica,sans-Serif" font-size="10.00">LLU.h</text>
</a>
</g>
</g>
<!-- Node2&#45;&gt;Node3 -->
<g id="edge2" class="edge">
<title>Node2&#45;&gt;Node3</title>
<path fill="none" stroke="midnightblue" d="M783.56,-106.84C762.91,-93.36 730.68,-72.7 702,-56 679.13,-42.68 652.03,-28.43 634.93,-19.62"/>
<polygon fill="midnightblue" stroke="midnightblue" points="781.89,-109.94 792.17,-112.49 785.73,-104.08 781.89,-109.94"/>
</g>
<!-- Node2&#45;&gt;Node4 -->
<g id="edge3" class="edge">
<title>Node2&#45;&gt;Node4</title>
<path fill="none" stroke="midnightblue" d="M763.68,-117.36C656.68,-107.93 370.42,-82.72 248.38,-71.97"/>
<polygon fill="midnightblue" stroke="midnightblue" points="763.49,-120.86 773.76,-118.25 764.1,-113.88 763.49,-120.86"/>
</g>
<!-- Node4&#45;&gt;Node3 -->
<g id="edge4" class="edge">
<title>Node4&#45;&gt;Node3</title>
<path fill="none" stroke="midnightblue" d="M258.17,-56.49C259.46,-56.32 260.74,-56.16 262,-56 388.68,-39.85 540.76,-20.71 596.33,-13.72"/>
<polygon fill="midnightblue" stroke="midnightblue" points="257.64,-53.03 248.16,-57.77 258.53,-59.97 257.64,-53.03"/>
</g>
<!-- Node5 -->
<g id="node5" class="node">
<title>Node5</title>
<g id="a_node5"><a xlink:href="LibraryLinkError_8cpp.html" target="_top" xlink:title="Contains definitions of ErrorManager members and implementation of interface function sendRegisteredE...">
<polygon fill="white" stroke="black" points="140.5,-0.5 140.5,-19.5 243.5,-19.5 243.5,-0.5 140.5,-0.5"/>
<text text-anchor="middle" x="192" y="-7.5" font-family="Helvetica,sans-Serif" font-size="10.00">LibraryLinkError.cpp</text>
</a>
</g>
</g>
<!-- Node4&#45;&gt;Node5 -->
<g id="edge5" class="edge">
<title>Node4&#45;&gt;Node5</title>
<path fill="none" stroke="midnightblue" d="M192,-45.8C192,-36.91 192,-26.78 192,-19.75"/>
<polygon fill="midnightblue" stroke="midnightblue" points="188.5,-46.08 192,-56.08 195.5,-46.08 188.5,-46.08"/>
</g>
<!-- Node6 -->
<g id="node6" class="node">
<title>Node6</title>
<g id="a_node6"><a xlink:href="Logger_8cpp.html" target="_top" xlink:title="Implementation of functions defined in Logger.h.">
<polygon fill="white" stroke="black" points="262,-0.5 262,-19.5 326,-19.5 326,-0.5 262,-0.5"/>
<text text-anchor="middle" x="294" y="-7.5" font-family="Helvetica,sans-Serif" font-size="10.00">Logger.cpp</text>
</a>
</g>
</g>
<!-- Node4&#45;&gt;Node6 -->
<g id="edge6" class="edge">
<title>Node4&#45;&gt;Node6</title>
<path fill="none" stroke="midnightblue" d="M217.33,-51.59C236.19,-41.61 261.38,-28.27 277.65,-19.65"/>
<polygon fill="midnightblue" stroke="midnightblue" points="215.59,-48.55 208.39,-56.32 218.86,-54.74 215.59,-48.55"/>
</g>
<!-- Node7 -->
<g id="node7" class="node">
<title>Node7</title>
<g id="a_node7"><a xlink:href="MArgumentManager_8cpp.html" target="_top" xlink:title="Definitions of non&#45;template member functions and static data members from MArgumentManager class.">
<polygon fill="white" stroke="black" points="0,-0.5 0,-19.5 122,-19.5 122,-0.5 0,-0.5"/>
<text text-anchor="middle" x="61" y="-7.5" font-family="Helvetica,sans-Serif" font-size="10.00">MArgumentManager.cpp</text>
</a>
</g>
</g>
<!-- Node4&#45;&gt;Node7 -->
<g id="edge7" class="edge">
<title>Node4&#45;&gt;Node7</title>
<path fill="none" stroke="midnightblue" d="M161.68,-52.5C137.12,-42.38 103.18,-28.39 81.66,-19.52"/>
<polygon fill="midnightblue" stroke="midnightblue" points="160.66,-55.87 171.24,-56.44 163.33,-49.4 160.66,-55.87"/>
</g>
<!-- Node8&#45;&gt;Node9 -->
<g id="edge9" class="edge">
<title>Node8&#45;&gt;Node9</title>
<path fill="none" stroke="midnightblue" d="M827.74,-500.02C859.49,-484.33 908.04,-454.62 929,-412 948.37,-372.61 917.25,-320.05 903.26,-299.62"/>
<polygon fill="midnightblue" stroke="midnightblue" points="826,-496.97 818.48,-504.43 829.01,-503.29 826,-496.97"/>
</g>
<!-- Node14 -->
<g id="node14" class="node">
<title>Node14</title>
<g id="a_node14"><a xlink:href="Generic_2Image_8hpp.html" target="_top" xlink:title="GenericImage definition and implementation.">
<polygon fill="white" stroke="black" points="389,-448.5 389,-467.5 451,-467.5 451,-448.5 389,-448.5"/>
<text text-anchor="middle" x="420" y="-455.5" font-family="Helvetica,sans-Serif" font-size="10.00">Image.hpp</text>
</a>
</g>
</g>
<!-- Node8&#45;&gt;Node14 -->
<g id="edge16" class="edge">
<title>Node8&#45;&gt;Node14</title>
<path fill="none" stroke="midnightblue" d="M758.95,-507.42C683.68,-496.67 519.88,-473.27 451.24,-463.46"/>
<polygon fill="midnightblue" stroke="midnightblue" points="758.57,-510.9 768.97,-508.85 759.56,-503.97 758.57,-510.9"/>
</g>
<!-- Node20 -->
<g id="node20" class="node">
<title>Node20</title>
<g id="a_node20"><a xlink:href="Generic_2NumericArray_8hpp.html" target="_top" xlink:title="GenericNumericArray definition and implementation.">
<polygon fill="white" stroke="black" points="751,-448.5 751,-467.5 845,-467.5 845,-448.5 751,-448.5"/>
<text text-anchor="middle" x="798" y="-455.5" font-family="Helvetica,sans-Serif" font-size="10.00">NumericArray.hpp</text>
</a>
</g>
</g>
<!-- Node8&#45;&gt;Node20 -->
<g id="edge33" class="edge">
<title>Node8&#45;&gt;Node20</title>
<path fill="none" stroke="midnightblue" d="M798,-493.8C798,-484.91 798,-474.78 798,-467.75"/>
<polygon fill="midnightblue" stroke="midnightblue" points="794.5,-494.08 798,-504.08 801.5,-494.08 794.5,-494.08"/>
</g>
<!-- Node24 -->
<g id="node24" class="node">
<title>Node24</title>
<g id="a_node24"><a xlink:href="Generic_2Tensor_8hpp.html" target="_top" xlink:title="GenericTensor definition and implementation.">
<polygon fill="white" stroke="black" points="570,-448.5 570,-467.5 634,-467.5 634,-448.5 570,-448.5"/>
<text text-anchor="middle" x="602" y="-455.5" font-family="Helvetica,sans-Serif" font-size="10.00">Tensor.hpp</text>
</a>
</g>
</g>
<!-- Node8&#45;&gt;Node24 -->
<g id="edge42" class="edge">
<title>Node8&#45;&gt;Node24</title>
<path fill="none" stroke="midnightblue" d="M758.74,-502.18C721.79,-492 667.21,-476.97 633.17,-467.59"/>
<polygon fill="midnightblue" stroke="midnightblue" points="758.09,-505.63 768.66,-504.92 759.95,-498.89 758.09,-505.63"/>
</g>
<!-- Node9&#45;&gt;Node2 -->
<g id="edge10" class="edge">
<title>Node9&#45;&gt;Node2</title>
<path fill="none" stroke="midnightblue" d="M874.36,-274.68C863.51,-266.8 851.15,-256.16 843,-244 818.13,-206.86 808.81,-152.54 806.01,-131.64"/>
<polygon fill="midnightblue" stroke="midnightblue" points="872.4,-277.58 882.62,-280.38 876.37,-271.82 872.4,-277.58"/>
</g>
<!-- Node10 -->
<g id="node10" class="node">
<title>Node10</title>
<g id="a_node10"><a xlink:href="DataNode_8hpp.html" target="_top" xlink:title=" ">
<polygon fill="white" stroke="black" points="950,-224.5 950,-243.5 1030,-243.5 1030,-224.5 950,-224.5"/>
<text text-anchor="middle" x="990" y="-231.5" font-family="Helvetica,sans-Serif" font-size="10.00">DataNode.hpp</text>
</a>
</g>
</g>
<!-- Node9&#45;&gt;Node10 -->
<g id="edge11" class="edge">
<title>Node9&#45;&gt;Node10</title>
<path fill="none" stroke="midnightblue" d="M920.81,-275.18C937.92,-265.24 960.47,-252.15 975.1,-243.65"/>
<polygon fill="midnightblue" stroke="midnightblue" points="918.83,-272.28 911.94,-280.32 922.35,-278.33 918.83,-272.28"/>
</g>
<!-- Node12 -->
<g id="node12" class="node">
<title>Node12</title>
<g id="a_node12"><a xlink:href="DataStore_8cpp.html" target="_top" xlink:title=" ">
<polygon fill="white" stroke="black" points="852,-224.5 852,-243.5 932,-243.5 932,-224.5 852,-224.5"/>
<text text-anchor="middle" x="892" y="-231.5" font-family="Helvetica,sans-Serif" font-size="10.00">DataStore.cpp</text>
</a>
</g>
</g>
<!-- Node9&#45;&gt;Node12 -->
<g id="edge14" class="edge">
<title>Node9&#45;&gt;Node12</title>
<path fill="none" stroke="midnightblue" d="M895.25,-270.1C894.42,-261.14 893.47,-250.86 892.81,-243.75"/>
<polygon fill="midnightblue" stroke="midnightblue" points="891.77,-270.45 896.17,-280.08 898.74,-269.8 891.77,-270.45"/>
</g>
<!-- Node13 -->
<g id="node13" class="node">
<title>Node13</title>
<g id="a_node13"><a xlink:href="TypedMArgument_8cpp.html" target="_top" xlink:title=" ">
<polygon fill="white" stroke="black" points="646,-224.5 646,-243.5 758,-243.5 758,-224.5 646,-224.5"/>
<text text-anchor="middle" x="702" y="-231.5" font-family="Helvetica,sans-Serif" font-size="10.00">TypedMArgument.cpp</text>
</a>
</g>
</g>
<!-- Node9&#45;&gt;Node13 -->
<g id="edge15" class="edge">
<title>Node9&#45;&gt;Node13</title>
<path fill="none" stroke="midnightblue" d="M856.19,-277.7C819.39,-267.51 766.07,-252.74 732.75,-243.52"/>
<polygon fill="midnightblue" stroke="midnightblue" points="855.53,-281.15 866.1,-280.44 857.4,-274.4 855.53,-281.15"/>
</g>
<!-- Node10&#45;&gt;Node11 -->
<g id="edge12" class="edge">
<title>Node10&#45;&gt;Node11</title>
<path fill="none" stroke="midnightblue" d="M1000.98,-215.57C1006.83,-206.27 1013.77,-195.25 1018.49,-187.75"/>
<polygon fill="midnightblue" stroke="midnightblue" points="997.98,-213.76 995.61,-224.08 1003.9,-217.49 997.98,-213.76"/>
</g>
<!-- Node11&#45;&gt;Node2 -->
<g id="edge13" class="edge">
<title>Node11&#45;&gt;Node2</title>
<path fill="none" stroke="midnightblue" d="M979.48,-166.02C936.93,-155.53 873.86,-139.98 836.35,-130.73"/>
<polygon fill="midnightblue" stroke="midnightblue" points="978.75,-169.45 989.3,-168.44 980.43,-162.65 978.75,-169.45"/>
</g>
<!-- Node14&#45;&gt;Node13 -->
<g id="edge32" class="edge">
<title>Node14&#45;&gt;Node13</title>
<path fill="none" stroke="midnightblue" d="M430.43,-439.68C439.32,-425.8 453,-406.33 468,-392 539.79,-323.38 644.86,-264.86 685.29,-243.58"/>
<polygon fill="midnightblue" stroke="midnightblue" points="427.4,-437.93 425.09,-448.27 433.34,-441.63 427.4,-437.93"/>
</g>
<!-- Node15 -->
<g id="node15" class="node">
<title>Node15</title>
<g id="a_node15"><a xlink:href="Image_8h.html" target="_top" xlink:title="Templated C++ wrapper for MImage.">
<polygon fill="white" stroke="black" points="232,-392.5 232,-411.5 284,-411.5 284,-392.5 232,-392.5"/>
<text text-anchor="middle" x="258" y="-399.5" font-family="Helvetica,sans-Serif" font-size="10.00">Image.h</text>
</a>
</g>
</g>
<!-- Node14&#45;&gt;Node15 -->
<g id="edge17" class="edge">
<title>Node14&#45;&gt;Node15</title>
<path fill="none" stroke="midnightblue" d="M384.52,-445.17C354.01,-435 310.76,-420.59 283.55,-411.52"/>
<polygon fill="midnightblue" stroke="midnightblue" points="383.74,-448.6 394.33,-448.44 385.95,-441.96 383.74,-448.6"/>
</g>
<!-- Node16 -->
<g id="node16" class="node">
<title>Node16</title>
<g id="a_node16"><a xlink:href="Image_8cpp.html" target="_top" xlink:title="Template specializations of Image::type attribute for all data types that we want to support.">
<polygon fill="white" stroke="black" points="284,-336.5 284,-355.5 346,-355.5 346,-336.5 284,-336.5"/>
<text text-anchor="middle" x="315" y="-343.5" font-family="Helvetica,sans-Serif" font-size="10.00">Image.cpp</text>
</a>
</g>
</g>
<!-- Node14&#45;&gt;Node16 -->
<g id="edge31" class="edge">
<title>Node14&#45;&gt;Node16</title>
<path fill="none" stroke="midnightblue" d="M404.63,-440.9C382.06,-417.25 340.72,-373.95 323.2,-355.59"/>
<polygon fill="midnightblue" stroke="midnightblue" points="402.32,-443.55 411.76,-448.37 407.39,-438.72 402.32,-443.55"/>
</g>
<!-- Node17 -->
<g id="node17" class="node">
<title>Node17</title>
<g id="a_node17"><a xlink:href="Views_2Image_8hpp.html" target="_top" xlink:title="Definition and implementation of ImageView and ImageTypedView.">
<polygon fill="white" stroke="black" points="364,-336.5 364,-355.5 426,-355.5 426,-336.5 364,-336.5"/>
<text text-anchor="middle" x="395" y="-343.5" font-family="Helvetica,sans-Serif" font-size="10.00">Image.hpp</text>
</a>
</g>
</g>
<!-- Node14&#45;&gt;Node17 -->
<g id="edge21" class="edge">
<title>Node14&#45;&gt;Node17</title>
<path fill="none" stroke="midnightblue" d="M415.76,-438.35C410.28,-414.25 400.98,-373.31 396.95,-355.59"/>
<polygon fill="midnightblue" stroke="midnightblue" points="412.41,-439.39 418.04,-448.37 419.23,-437.84 412.41,-439.39"/>
</g>
<!-- Node14&#45;&gt;Node18 -->
<g id="edge23" class="edge">
<title>Node14&#45;&gt;Node18</title>
<path fill="none" stroke="midnightblue" d="M461.26,-449.55C516.37,-439.59 613.79,-422 671.78,-411.53"/>
<polygon fill="midnightblue" stroke="midnightblue" points="460.37,-446.15 451.15,-451.37 461.61,-453.04 460.37,-446.15"/>
</g>
<!-- Node15&#45;&gt;Node3 -->
<g id="edge18" class="edge">
<title>Node15&#45;&gt;Node3</title>
<path fill="none" stroke="midnightblue" d="M254.61,-382.42C244.8,-322.07 223.54,-131.16 331,-56 374.08,-25.86 537.37,-14.97 596.47,-11.96"/>
<polygon fill="midnightblue" stroke="midnightblue" points="251.18,-383.13 256.32,-392.39 258.08,-381.94 251.18,-383.13"/>
</g>
<!-- Node15&#45;&gt;Node4 -->
<g id="edge19" class="edge">
<title>Node15&#45;&gt;Node4</title>
<path fill="none" stroke="midnightblue" d="M247.32,-383.5C235.47,-362.37 218,-325.38 218,-291 218,-291 218,-291 218,-177 218,-138.34 202.6,-94.04 195.51,-75.68"/>
<polygon fill="midnightblue" stroke="midnightblue" points="244.38,-385.39 252.44,-392.27 250.42,-381.87 244.38,-385.39"/>
</g>
<!-- Node15&#45;&gt;Node16 -->
<g id="edge20" class="edge">
<title>Node15&#45;&gt;Node16</title>
<path fill="none" stroke="midnightblue" d="M274.62,-385.25C284.73,-375.67 297.28,-363.79 305.68,-355.83"/>
<polygon fill="midnightblue" stroke="midnightblue" points="272.01,-382.91 267.16,-392.32 276.82,-387.99 272.01,-382.91"/>
</g>
<!-- Node17&#45;&gt;Node3 -->
<g id="edge22" class="edge">
<title>Node17&#45;&gt;Node3</title>
<path fill="none" stroke="midnightblue" d="M374.14,-330.09C350.14,-311.01 314,-275.55 314,-235 314,-235 314,-235 314,-121 314,-84 334.2,-74.91 366,-56 405.06,-32.78 542.52,-17.94 596.25,-12.91"/>
<polygon fill="midnightblue" stroke="midnightblue" points="372.27,-333.06 382.34,-336.35 376.52,-327.5 372.27,-333.06"/>
</g>
<!-- Node18&#45;&gt;Node2 -->
<g id="edge24" class="edge">
<title>Node18&#45;&gt;Node2</title>
<path fill="none" stroke="midnightblue" d="M736.16,-385.41C756.01,-365.58 786,-329.3 786,-291 786,-291 786,-291 786,-233 786,-194.82 797.25,-150.26 802.44,-131.75"/>
<polygon fill="midnightblue" stroke="midnightblue" points="733.67,-382.95 728.89,-392.4 738.52,-388 733.67,-382.95"/>
</g>
<!-- Node18&#45;&gt;Node9 -->
<g id="edge25" class="edge">
<title>Node18&#45;&gt;Node9</title>
<path fill="none" stroke="midnightblue" d="M744.21,-387.69C760.36,-379 781.64,-367.22 800,-356 831.3,-336.86 866.83,-312.29 884.96,-299.54"/>
<polygon fill="midnightblue" stroke="midnightblue" points="742.53,-384.62 735.36,-392.43 745.83,-390.8 742.53,-384.62"/>
</g>
<!-- Node18&#45;&gt;Node10 -->
<g id="edge26" class="edge">
<title>Node18&#45;&gt;Node10</title>
<path fill="none" stroke="midnightblue" d="M763.24,-389.64C812.3,-375.28 891.65,-346.66 946,-300 965.02,-283.67 979.43,-257.23 986.03,-243.66"/>
<polygon fill="midnightblue" stroke="midnightblue" points="762.21,-386.29 753.56,-392.4 764.13,-393.02 762.21,-386.29"/>
</g>
<!-- Node18&#45;&gt;Node13 -->
<g id="edge30" class="edge">
<title>Node18&#45;&gt;Node13</title>
<path fill="none" stroke="midnightblue" d="M717.05,-381.93C713.36,-345.92 705.51,-269.23 702.88,-243.57"/>
<polygon fill="midnightblue" stroke="midnightblue" points="713.59,-382.48 718.09,-392.08 720.55,-381.77 713.59,-382.48"/>
</g>
<!-- Node18&#45;&gt;Node19 -->
<g id="edge27" class="edge">
<title>Node18&#45;&gt;Node19</title>
<path fill="none" stroke="midnightblue" d="M779.87,-391.28C836.4,-382.22 922.91,-368.31 998,-356 1002.5,-355.26 1007.21,-354.48 1011.9,-353.71"/>
<polygon fill="midnightblue" stroke="midnightblue" points="778.99,-387.87 769.67,-392.91 780.1,-394.78 778.99,-387.87"/>
</g>
<!-- Node19&#45;&gt;Node9 -->
<g id="edge28" class="edge">
<title>Node19&#45;&gt;Node9</title>
<path fill="none" stroke="midnightblue" d="M1017.67,-333.04C988.5,-322.88 947.36,-308.55 921.45,-299.52"/>
<polygon fill="midnightblue" stroke="midnightblue" points="1016.84,-336.46 1027.44,-336.44 1019.15,-329.85 1016.84,-336.46"/>
</g>
<!-- Node19&#45;&gt;Node11 -->
<g id="edge29" class="edge">
<title>Node19&#45;&gt;Node11</title>
<path fill="none" stroke="midnightblue" d="M1051.23,-326.24C1049.97,-302.29 1046.76,-259.66 1039,-224 1036.2,-211.13 1031.04,-196.77 1027.56,-187.81"/>
<polygon fill="midnightblue" stroke="midnightblue" points="1047.74,-326.57 1051.71,-336.39 1054.74,-326.24 1047.74,-326.57"/>
</g>
<!-- Node20&#45;&gt;Node13 -->
<g id="edge41" class="edge">
<title>Node20&#45;&gt;Node13</title>
<path fill="none" stroke="midnightblue" d="M793.55,-438.68C790.12,-425.51 784.98,-407.41 779,-392 756.26,-333.41 719.95,-266.92 706.88,-243.61"/>
<polygon fill="midnightblue" stroke="midnightblue" points="790.16,-439.59 795.99,-448.43 796.95,-437.88 790.16,-439.59"/>
</g>
<!-- Node20&#45;&gt;Node18 -->
<g id="edge39" class="edge">
<title>Node20&#45;&gt;Node18</title>
<path fill="none" stroke="midnightblue" d="M776.97,-442.62C762.53,-432.76 743.86,-419.99 731.66,-411.65"/>
<polygon fill="midnightblue" stroke="midnightblue" points="775.08,-445.57 785.31,-448.32 779.03,-439.79 775.08,-445.57"/>
</g>
<!-- Node21 -->
<g id="node21" class="node">
<title>Node21</title>
<g id="a_node21"><a xlink:href="NumericArray_8h.html" target="_top" xlink:title="Templated C++ wrapper for MNumericArray.">
<polygon fill="white" stroke="black" points="576.5,-112.5 576.5,-131.5 659.5,-131.5 659.5,-112.5 576.5,-112.5"/>
<text text-anchor="middle" x="618" y="-119.5" font-family="Helvetica,sans-Serif" font-size="10.00">NumericArray.h</text>
</a>
</g>
</g>
<!-- Node20&#45;&gt;Node21 -->
<g id="edge34" class="edge">
<title>Node20&#45;&gt;Node21</title>
<path fill="none" stroke="midnightblue" d="M740.98,-450.36C713.38,-444.44 681.63,-433.22 660,-412 619.37,-372.13 618,-347.93 618,-291 618,-291 618,-291 618,-233 618,-195.19 618,-150.06 618,-131.56"/>
<polygon fill="midnightblue" stroke="midnightblue" points="740.44,-453.82 750.93,-452.31 741.79,-446.95 740.44,-453.82"/>
</g>
<!-- Node22 -->
<g id="node22" class="node">
<title>Node22</title>
<g id="a_node22"><a xlink:href="Views_2NumericArray_8hpp.html" target="_top" xlink:title="Definition and implementation of NumericArrayView and NumericArrayTypedView.">
<polygon fill="white" stroke="black" points="1073,-280.5 1073,-299.5 1167,-299.5 1167,-280.5 1073,-280.5"/>
<text text-anchor="middle" x="1120" y="-287.5" font-family="Helvetica,sans-Serif" font-size="10.00">NumericArray.hpp</text>
</a>
</g>
</g>
<!-- Node20&#45;&gt;Node22 -->
<g id="edge37" class="edge">
<title>Node20&#45;&gt;Node22</title>
<path fill="none" stroke="midnightblue" d="M855.16,-453.48C923.1,-446.22 1035.5,-423.99 1101,-356 1116.01,-340.42 1119.26,-313.66 1119.9,-299.84"/>
<polygon fill="midnightblue" stroke="midnightblue" points="854.66,-450.01 845.06,-454.49 855.35,-456.98 854.66,-450.01"/>
</g>
<!-- Node23 -->
<g id="node23" class="node">
<title>Node23</title>
<g id="a_node23"><a xlink:href="NumericArray_8cpp.html" target="_top" xlink:title="Definitions of MContainer&lt;MArgumentType::NumericArray&gt; (GenericNumericArray) methods.">
<polygon fill="white" stroke="black" points="826,-392.5 826,-411.5 920,-411.5 920,-392.5 826,-392.5"/>
<text text-anchor="middle" x="873" y="-399.5" font-family="Helvetica,sans-Serif" font-size="10.00">NumericArray.cpp</text>
</a>
</g>
</g>
<!-- Node20&#45;&gt;Node23 -->
<g id="edge40" class="edge">
<title>Node20&#45;&gt;Node23</title>
<path fill="none" stroke="midnightblue" d="M818.31,-442.38C831.86,-432.62 849.24,-420.11 860.73,-411.83"/>
<polygon fill="midnightblue" stroke="midnightblue" points="816.12,-439.64 810.05,-448.32 820.21,-445.32 816.12,-439.64"/>
</g>
<!-- Node21&#45;&gt;Node3 -->
<g id="edge35" class="edge">
<title>Node21&#45;&gt;Node3</title>
<path fill="none" stroke="midnightblue" d="M618,-102.35C618,-78.25 618,-37.31 618,-19.59"/>
<polygon fill="midnightblue" stroke="midnightblue" points="614.5,-102.37 618,-112.37 621.5,-102.37 614.5,-102.37"/>
</g>
<!-- Node21&#45;&gt;Node4 -->
<g id="edge36" class="edge">
<title>Node21&#45;&gt;Node4</title>
<path fill="none" stroke="midnightblue" d="M566.24,-111.96C446.93,-94.48 319.45,-80.29 248.04,-72.75"/>
<polygon fill="midnightblue" stroke="midnightblue" points="565.88,-115.45 576.28,-113.44 566.9,-108.52 565.88,-115.45"/>
</g>
<!-- Node22&#45;&gt;Node3 -->
<g id="edge38" class="edge">
<title>Node22&#45;&gt;Node3</title>
<path fill="none" stroke="midnightblue" d="M1164.04,-277.35C1208.61,-262.58 1271,-232.37 1271,-179 1271,-179 1271,-179 1271,-121 1271,-55.47 753.03,-19.41 639.73,-12.31"/>
<polygon fill="midnightblue" stroke="midnightblue" points="1162.74,-274.09 1154.26,-280.44 1164.85,-280.76 1162.74,-274.09"/>
</g>
<!-- Node24&#45;&gt;Node13 -->
<g id="edge52" class="edge">
<title>Node24&#45;&gt;Node13</title>
<path fill="none" stroke="midnightblue" d="M610.04,-439.16C630.32,-394.12 683.05,-277.06 698,-243.88"/>
<polygon fill="midnightblue" stroke="midnightblue" points="606.84,-437.74 605.92,-448.3 613.22,-440.62 606.84,-437.74"/>
</g>
<!-- Node24&#45;&gt;Node18 -->
<g id="edge51" class="edge">
<title>Node24&#45;&gt;Node18</title>
<path fill="none" stroke="midnightblue" d="M629.66,-444.23C651.55,-434.13 681.5,-420.31 700.55,-411.52"/>
<polygon fill="midnightblue" stroke="midnightblue" points="628.15,-441.08 620.54,-448.44 631.09,-447.43 628.15,-441.08"/>
</g>
<!-- Node25 -->
<g id="node25" class="node">
<title>Node25</title>
<g id="a_node25"><a xlink:href="Tensor_8h.html" target="_top" xlink:title="Templated C++ wrapper for MTensor.">
<polygon fill="white" stroke="black" points="465.5,-168.5 465.5,-187.5 518.5,-187.5 518.5,-168.5 465.5,-168.5"/>
<text text-anchor="middle" x="492" y="-175.5" font-family="Helvetica,sans-Serif" font-size="10.00">Tensor.h</text>
</a>
</g>
</g>
<!-- Node24&#45;&gt;Node25 -->
<g id="edge43" class="edge">
<title>Node24&#45;&gt;Node25</title>
<path fill="none" stroke="midnightblue" d="M559.94,-449.21C538.58,-442.94 514.38,-431.76 501,-412 451.3,-338.59 480.05,-220.26 489.39,-187.59"/>
<polygon fill="midnightblue" stroke="midnightblue" points="559.25,-452.65 569.82,-451.84 561.05,-445.89 559.25,-452.65"/>
</g>
<!-- Node29 -->
<g id="node29" class="node">
<title>Node29</title>
<g id="a_node29"><a xlink:href="Views_2Tensor_8hpp.html" target="_top" xlink:title="Definition and implementation of TensorView and TensorTypedView.">
<polygon fill="white" stroke="black" points="510,-392.5 510,-411.5 574,-411.5 574,-392.5 510,-392.5"/>
<text text-anchor="middle" x="542" y="-399.5" font-family="Helvetica,sans-Serif" font-size="10.00">Tensor.hpp</text>
</a>
</g>
</g>
<!-- Node24&#45;&gt;Node29 -->
<g id="edge50" class="edge">
<title>Node24&#45;&gt;Node29</title>
<path fill="none" stroke="midnightblue" d="M584.82,-441.54C574.12,-431.91 560.74,-419.87 551.82,-411.83"/>
<polygon fill="midnightblue" stroke="midnightblue" points="582.59,-444.24 592.36,-448.32 587.27,-439.03 582.59,-444.24"/>
</g>
<!-- Node25&#45;&gt;Node3 -->
<g id="edge44" class="edge">
<title>Node25&#45;&gt;Node3</title>
<path fill="none" stroke="midnightblue" d="M528.64,-172.94C575.3,-166.92 651.95,-153.93 669,-132 697.41,-95.47 648.69,-40.79 627.31,-19.71"/>
<polygon fill="midnightblue" stroke="midnightblue" points="528.09,-169.48 518.6,-174.18 528.96,-176.43 528.09,-169.48"/>
</g>
<!-- Node25&#45;&gt;Node4 -->
<g id="edge45" class="edge">
<title>Node25&#45;&gt;Node4</title>
<path fill="none" stroke="midnightblue" d="M458.9,-164.86C397.75,-142.44 268.45,-95.03 215.43,-75.59"/>
<polygon fill="midnightblue" stroke="midnightblue" points="457.87,-168.21 468.46,-168.37 460.28,-161.64 457.87,-168.21"/>
</g>
<!-- Node26 -->
<g id="node26" class="node">
<title>Node26</title>
<g id="a_node26"><a xlink:href="ProgressMonitor_8h.html" target="_top" xlink:title="Definition of ProgressMonitor class.">
<polygon fill="white" stroke="black" points="380.5,-112.5 380.5,-131.5 475.5,-131.5 475.5,-112.5 380.5,-112.5"/>
<text text-anchor="middle" x="428" y="-119.5" font-family="Helvetica,sans-Serif" font-size="10.00">ProgressMonitor.h</text>
</a>
</g>
</g>
<!-- Node25&#45;&gt;Node26 -->
<g id="edge46" class="edge">
<title>Node25&#45;&gt;Node26</title>
<path fill="none" stroke="midnightblue" d="M474.01,-161.82C462.54,-152.15 448.09,-139.95 438.47,-131.83"/>
<polygon fill="midnightblue" stroke="midnightblue" points="471.82,-164.55 481.72,-168.32 476.33,-159.2 471.82,-164.55"/>
</g>
<!-- Node28 -->
<g id="node28" class="node">
<title>Node28</title>
<g id="a_node28"><a xlink:href="Tensor_8cpp.html" target="_top" xlink:title="Template specialization of certain methods from TypedTensor class for all underlying data types that ...">
<polygon fill="white" stroke="black" points="494,-112.5 494,-131.5 558,-131.5 558,-112.5 494,-112.5"/>
<text text-anchor="middle" x="526" y="-119.5" font-family="Helvetica,sans-Serif" font-size="10.00">Tensor.cpp</text>
</a>
</g>
</g>
<!-- Node25&#45;&gt;Node28 -->
<g id="edge49" class="edge">
<title>Node25&#45;&gt;Node28</title>
<path fill="none" stroke="midnightblue" d="M502.98,-159.57C508.83,-150.27 515.77,-139.25 520.49,-131.75"/>
<polygon fill="midnightblue" stroke="midnightblue" points="499.98,-157.76 497.61,-168.08 505.9,-161.49 499.98,-157.76"/>
</g>
<!-- Node26&#45;&gt;Node4 -->
<g id="edge47" class="edge">
<title>Node26&#45;&gt;Node4</title>
<path fill="none" stroke="midnightblue" d="M380.59,-110.15C336,-99.95 270.15,-84.88 229.22,-75.52"/>
<polygon fill="midnightblue" stroke="midnightblue" points="380.08,-113.62 390.61,-112.44 381.64,-106.8 380.08,-113.62"/>
</g>
<!-- Node27 -->
<g id="node27" class="node">
<title>Node27</title>
<g id="a_node27"><a xlink:href="ProgressMonitor_8cpp.html" target="_top" xlink:title="Implementation file for ProgressMonitor class.">
<polygon fill="white" stroke="black" points="375,-56.5 375,-75.5 481,-75.5 481,-56.5 375,-56.5"/>
<text text-anchor="middle" x="428" y="-63.5" font-family="Helvetica,sans-Serif" font-size="10.00">ProgressMonitor.cpp</text>
</a>
</g>
</g>
<!-- Node26&#45;&gt;Node27 -->
<g id="edge48" class="edge">
<title>Node26&#45;&gt;Node27</title>
<path fill="none" stroke="midnightblue" d="M428,-101.8C428,-92.91 428,-82.78 428,-75.75"/>
<polygon fill="midnightblue" stroke="midnightblue" points="424.5,-102.08 428,-112.08 431.5,-102.08 424.5,-102.08"/>
</g>
</g>
</svg>
