<?xml version="1.0" encoding="UTF-8" standalone="no"?>
<!DOCTYPE svg PUBLIC "-//W3C//DTD SVG 1.1//EN"
 "http://www.w3.org/Graphics/SVG/1.1/DTD/svg11.dtd">
<!-- Generated by graphviz version 2.40.1 (20161225.0304)
 -->
<!-- Title: MArgumentManager.h Pages: 1 -->
<svg width="2586pt" height="777pt"
 viewBox="0.00 0.00 2586.00 777.00" xmlns="http://www.w3.org/2000/svg" xmlns:xlink="http://www.w3.org/1999/xlink">
<g id="graph0" class="graph" transform="scale(1 1) rotate(0) translate(4 773)">
<title>MArgumentManager.h</title>
<polygon fill="#ffffff" stroke="transparent" points="-4,4 -4,-773 2582,-773 2582,4 -4,4"/>
<!-- Node1 -->
<g id="node1" class="node">
<title>Node1</title>
<g id="a_node1"><a xlink:title="Definition of MArgumentManager class.">
<polygon fill="#bfbfbf" stroke="#000000" points="1023.5,-749.5 1023.5,-768.5 1136.5,-768.5 1136.5,-749.5 1023.5,-749.5"/>
<text text-anchor="middle" x="1080" y="-756.5" font-family="Helvetica,sans-Serif" font-size="10.00" fill="#000000">MArgumentManager.h</text>
</a>
</g>
</g>
<!-- Node2 -->
<g id="node2" class="node">
<title>Node2</title>
<g id="a_node2"><a xlink:title=" ">
<polygon fill="#ffffff" stroke="#bfbfbf" points="847.5,-56.5 847.5,-75.5 900.5,-75.5 900.5,-56.5 847.5,-56.5"/>
<text text-anchor="middle" x="874" y="-63.5" font-family="Helvetica,sans-Serif" font-size="10.00" fill="#000000">complex</text>
</a>
</g>
</g>
<!-- Node1&#45;&gt;Node2 -->
<g id="edge1" class="edge">
<title>Node1&#45;&gt;Node2</title>
<path fill="none" stroke="#191970" d="M1023.1929,-757.7543C843.335,-753.5628 293.7759,-738.769 218,-713 164.8947,-694.9405 114,-697.5921 114,-641.5 114,-641.5 114,-641.5 114,-317.5 114,-283.4315 341.6997,-135.9155 409,-112 487.9279,-83.9526 742.1038,-71.2221 837.4315,-67.3482"/>
<polygon fill="#191970" stroke="#191970" points="837.6118,-70.8439 847.4649,-66.9495 837.3338,-63.8494 837.6118,-70.8439"/>
</g>
<!-- Node3 -->
<g id="node3" class="node">
<title>Node3</title>
<g id="a_node3"><a xlink:title=" ">
<polygon fill="#ffffff" stroke="#bfbfbf" points="230,-56.5 230,-75.5 276,-75.5 276,-56.5 230,-56.5"/>
<text text-anchor="middle" x="253" y="-63.5" font-family="Helvetica,sans-Serif" font-size="10.00" fill="#000000">cstdint</text>
</a>
</g>
</g>
<!-- Node1&#45;&gt;Node3 -->
<g id="edge2" class="edge">
<title>Node1&#45;&gt;Node3</title>
<path fill="none" stroke="#191970" d="M1023.1891,-757.526C820.797,-752.1192 144.7685,-732.6645 103,-713 64.1444,-694.7069 38,-684.4464 38,-641.5 38,-641.5 38,-641.5 38,-189 38,-106.2427 159.4991,-78.4005 219.826,-69.6768"/>
<polygon fill="#191970" stroke="#191970" points="220.5494,-73.111 229.9912,-68.3045 219.6128,-66.1739 220.5494,-73.111"/>
</g>
<!-- Node4 -->
<g id="node4" class="node">
<title>Node4</title>
<g id="a_node4"><a xlink:title=" ">
<polygon fill="#ffffff" stroke="#bfbfbf" points="2538,-693.5 2538,-712.5 2578,-712.5 2578,-693.5 2538,-693.5"/>
<text text-anchor="middle" x="2558" y="-700.5" font-family="Helvetica,sans-Serif" font-size="10.00" fill="#000000">limits</text>
</a>
</g>
</g>
<!-- Node1&#45;&gt;Node4 -->
<g id="edge3" class="edge">
<title>Node1&#45;&gt;Node4</title>
<path fill="none" stroke="#191970" d="M1136.7988,-758.0439C1387.1161,-753.7146 2385.5427,-735.1948 2524,-713 2525.2644,-712.7973 2526.5479,-712.5615 2527.8392,-712.2993"/>
<polygon fill="#191970" stroke="#191970" points="2528.8176,-715.6631 2537.6972,-709.8836 2527.1515,-708.8643 2528.8176,-715.6631"/>
</g>
<!-- Node5 -->
<g id="node5" class="node">
<title>Node5</title>
<g id="a_node5"><a xlink:title=" ">
<polygon fill="#ffffff" stroke="#bfbfbf" points="1182,-.5 1182,-19.5 1234,-19.5 1234,-.5 1182,-.5"/>
<text text-anchor="middle" x="1208" y="-7.5" font-family="Helvetica,sans-Serif" font-size="10.00" fill="#000000">memory</text>
</a>
</g>
</g>
<!-- Node1&#45;&gt;Node5 -->
<g id="edge4" class="edge">
<title>Node1&#45;&gt;Node5</title>
<path fill="none" stroke="#191970" d="M1023.2502,-757.6872C815.2461,-752.714 104.4263,-734.2347 61,-713 23.4747,-694.6508 0,-683.2713 0,-641.5 0,-641.5 0,-641.5 0,-127.5 0,-24.2652 119.4282,-74.4553 221,-56 408.69,-21.8972 1015.2471,-12.33 1171.18,-10.4066"/>
<polygon fill="#191970" stroke="#191970" points="1171.6594,-13.9012 1181.6165,-10.2811 1171.5751,-6.9017 1171.6594,-13.9012"/>
</g>
<!-- Node6 -->
<g id="node6" class="node">
<title>Node6</title>
<g id="a_node6"><a xlink:title=" ">
<polygon fill="#ffffff" stroke="#bfbfbf" points="2375.5,-56.5 2375.5,-75.5 2416.5,-75.5 2416.5,-56.5 2375.5,-56.5"/>
<text text-anchor="middle" x="2396" y="-63.5" font-family="Helvetica,sans-Serif" font-size="10.00" fill="#000000">string</text>
</a>
</g>
</g>
<!-- Node1&#45;&gt;Node6 -->
<g id="edge5" class="edge">
<title>Node1&#45;&gt;Node6</title>
<path fill="none" stroke="#191970" d="M1136.596,-757.5955C1329.5926,-752.6494 1961.0818,-735.1364 2163,-713 2319.5243,-695.8402 2510,-798.9621 2510,-641.5 2510,-641.5 2510,-641.5 2510,-189 2510,-138.7008 2458.0841,-100.2744 2424.3217,-80.6028"/>
<polygon fill="#191970" stroke="#191970" points="2425.7714,-77.4029 2415.3385,-75.5575 2422.3435,-83.5062 2425.7714,-77.4029"/>
</g>
<!-- Node7 -->
<g id="node7" class="node">
<title>Node7</title>
<g id="a_node7"><a xlink:title=" ">
<polygon fill="#ffffff" stroke="#bfbfbf" points="384,-56.5 384,-75.5 446,-75.5 446,-56.5 384,-56.5"/>
<text text-anchor="middle" x="415" y="-63.5" font-family="Helvetica,sans-Serif" font-size="10.00" fill="#000000">type_traits</text>
</a>
</g>
</g>
<!-- Node1&#45;&gt;Node7 -->
<g id="edge6" class="edge">
<title>Node1&#45;&gt;Node7</title>
<path fill="none" stroke="#191970" d="M1023.3271,-758.5799C833.3971,-756.8461 226.8112,-748.554 147,-713 106.0918,-694.7764 76,-686.2837 76,-641.5 76,-641.5 76,-641.5 76,-189 76,-126.3035 283.4915,-86.4235 373.8131,-72.0337"/>
<polygon fill="#191970" stroke="#191970" points="374.3769,-75.4882 383.7153,-70.4837 373.2943,-68.5724 374.3769,-75.4882"/>
</g>
<!-- Node8 -->
<g id="node8" class="node">
<title>Node8</title>
<g id="a_node8"><a xlink:title=" ">
<polygon fill="#ffffff" stroke="#bfbfbf" points="1057,-56.5 1057,-75.5 1097,-75.5 1097,-56.5 1057,-56.5"/>
<text text-anchor="middle" x="1077" y="-63.5" font-family="Helvetica,sans-Serif" font-size="10.00" fill="#000000">utility</text>
</a>
</g>
</g>
<!-- Node1&#45;&gt;Node8 -->
<g id="edge7" class="edge">
<title>Node1&#45;&gt;Node8</title>
<path fill="none" stroke="#191970" d="M1094.8617,-749.3325C1120.4242,-731.3978 1170,-690.322 1170,-641.5 1170,-641.5 1170,-641.5 1170,-317.5 1170,-314.4117 1106.0486,-143.5014 1084.2087,-85.2244"/>
<polygon fill="#191970" stroke="#191970" points="1087.4331,-83.8546 1080.6457,-75.7194 1080.8785,-86.3117 1087.4331,-83.8546"/>
</g>
<!-- Node9 -->
<g id="node9" class="node">
<title>Node9</title>
<g id="a_node9"><a xlink:title=" ">
<polygon fill="#ffffff" stroke="#bfbfbf" points="637,-118 637,-137 681,-137 681,-118 637,-118"/>
<text text-anchor="middle" x="659" y="-125" font-family="Helvetica,sans-Serif" font-size="10.00" fill="#000000">vector</text>
</a>
</g>
</g>
<!-- Node1&#45;&gt;Node9 -->
<g id="edge8" class="edge">
<title>Node1&#45;&gt;Node9</title>
<path fill="none" stroke="#191970" d="M1023.3878,-757.9884C875.2906,-754.9329 479.1054,-744.0204 352,-713 275.5431,-694.3405 190,-720.2009 190,-641.5 190,-641.5 190,-641.5 190,-317.5 190,-223.1165 520.4052,-153.3195 626.5722,-133.3283"/>
<polygon fill="#191970" stroke="#191970" points="627.5032,-136.7153 636.6947,-131.4459 626.2233,-129.8333 627.5032,-136.7153"/>
</g>
<!-- Node10 -->
<g id="node10" class="node">
<title>Node10</title>
<g id="a_node10"><a xlink:href="DataList_8h.html" target="_top" xlink:title="Definition of templated DataStore wrapper called DataList.">
<polygon fill="#ffffff" stroke="#000000" points="1312.5,-693.5 1312.5,-712.5 1445.5,-712.5 1445.5,-693.5 1312.5,-693.5"/>
<text text-anchor="middle" x="1379" y="-700.5" font-family="Helvetica,sans-Serif" font-size="10.00" fill="#000000">LLU/Containers/DataList.h</text>
</a>
</g>
</g>
<!-- Node1&#45;&gt;Node10 -->
<g id="edge9" class="edge">
<title>Node1&#45;&gt;Node10</title>
<path fill="none" stroke="#191970" d="M1131.0602,-749.4369C1182.8768,-739.7321 1263.095,-724.708 1318.1715,-714.3926"/>
<polygon fill="#191970" stroke="#191970" points="1318.9656,-717.8048 1328.1504,-712.5237 1317.677,-710.9245 1318.9656,-717.8048"/>
</g>
<!-- Node15 -->
<g id="node15" class="node">
<title>Node15</title>
<g id="a_node15"><a xlink:href="ErrorManager_8h.html" target="_top" xlink:title="Definition of the ErrorManager class responsible for error registration and throwing.">
<polygon fill="#ffffff" stroke="#000000" points="1478,-179.5 1478,-198.5 1622,-198.5 1622,-179.5 1478,-179.5"/>
<text text-anchor="middle" x="1550" y="-186.5" font-family="Helvetica,sans-Serif" font-size="10.00" fill="#000000">LLU/ErrorLog/ErrorManager.h</text>
</a>
</g>
</g>
<!-- Node1&#45;&gt;Node15 -->
<g id="edge123" class="edge">
<title>Node1&#45;&gt;Node15</title>
<path fill="none" stroke="#191970" d="M1128.8707,-749.431C1153.8074,-742.5971 1183.3595,-731.2788 1205,-713 1232.9848,-689.3625 1246,-678.1316 1246,-641.5 1246,-641.5 1246,-641.5 1246,-574.5 1246,-412.1194 1243.5528,-321.4623 1381,-235 1407.5932,-218.2713 1440.2489,-207.5529 1469.7417,-200.7184"/>
<polygon fill="#191970" stroke="#191970" points="1470.5953,-204.1143 1479.6091,-198.5464 1469.0904,-197.278 1470.5953,-204.1143"/>
</g>
<!-- Node28 -->
<g id="node20" class="node">
<title>Node28</title>
<g id="a_node20"><a xlink:href="LibraryData_8h.html" target="_top" xlink:title=" ">
<polygon fill="#ffffff" stroke="#000000" points="1602,-56.5 1602,-75.5 1698,-75.5 1698,-56.5 1602,-56.5"/>
<text text-anchor="middle" x="1650" y="-63.5" font-family="Helvetica,sans-Serif" font-size="10.00" fill="#000000">LLU/LibraryData.h</text>
</a>
</g>
</g>
<!-- Node1&#45;&gt;Node28 -->
<g id="edge124" class="edge">
<title>Node1&#45;&gt;Node28</title>
<path fill="none" stroke="#191970" d="M1136.7269,-757.2349C1397.9076,-748.7422 2472,-709.6726 2472,-641.5 2472,-641.5 2472,-641.5 2472,-379 2472,-250.4326 2375.5183,-241.203 2263,-179 2205.6426,-147.2914 2179.567,-170.3329 2120,-143 2098.258,-133.0235 2098.3826,-120.4419 2076,-112 2010.1387,-87.1594 1808.8435,-73.9069 1708.3496,-68.6848"/>
<polygon fill="#191970" stroke="#191970" points="1708.5274,-65.1894 1698.3619,-68.175 1708.1705,-72.1803 1708.5274,-65.1894"/>
</g>
<!-- Node44 -->
<g id="node28" class="node">
<title>Node44</title>
<g id="a_node28"><a xlink:href="MArgument_8h.html" target="_top" xlink:title="Template class and utilities to work with MArgument in type&#45;safe manner.">
<polygon fill="#ffffff" stroke="#000000" points="2158,-179.5 2158,-198.5 2254,-198.5 2254,-179.5 2158,-179.5"/>
<text text-anchor="middle" x="2206" y="-186.5" font-family="Helvetica,sans-Serif" font-size="10.00" fill="#000000">LLU/MArgument.h</text>
</a>
</g>
</g>
<!-- Node1&#45;&gt;Node44 -->
<g id="edge125" class="edge">
<title>Node1&#45;&gt;Node44</title>
<path fill="none" stroke="#191970" d="M1136.5932,-755.7053C1329.5399,-744.151 1960.5221,-703.6377 2158,-657 2238.2462,-638.0485 2278.5159,-653.5927 2331,-590 2373.978,-537.9255 2358,-508.0194 2358,-440.5 2358,-440.5 2358,-440.5 2358,-379 2358,-305.7866 2329.2658,-287.2687 2278,-235 2265.5603,-222.317 2249.0015,-211.4331 2234.9003,-203.4409"/>
<polygon fill="#191970" stroke="#191970" points="2236.5116,-200.333 2226.0568,-198.6166 2233.1594,-206.4781 2236.5116,-200.333"/>
</g>
<!-- Node54 -->
<g id="node41" class="node">
<title>Node54</title>
<g id="a_node41"><a xlink:href="Image_8h.html" target="_top" xlink:title="Templated C++ wrapper for MImage.">
<polygon fill="#ffffff" stroke="#000000" points="1018.5,-369.5 1018.5,-388.5 1141.5,-388.5 1141.5,-369.5 1018.5,-369.5"/>
<text text-anchor="middle" x="1080" y="-376.5" font-family="Helvetica,sans-Serif" font-size="10.00" fill="#000000">LLU/Containers/Image.h</text>
</a>
</g>
</g>
<!-- Node1&#45;&gt;Node54 -->
<g id="edge87" class="edge">
<title>Node1&#45;&gt;Node54</title>
<path fill="none" stroke="#191970" d="M1080,-749.2511C1080,-729.1182 1080,-681.4826 1080,-641.5 1080,-641.5 1080,-641.5 1080,-507.5 1080,-469.0012 1080,-424.0145 1080,-398.7812"/>
<polygon fill="#191970" stroke="#191970" points="1083.5001,-398.6718 1080,-388.6719 1076.5001,-398.6719 1083.5001,-398.6718"/>
</g>
<!-- Node60 -->
<g id="node47" class="node">
<title>Node60</title>
<g id="a_node47"><a xlink:href="NumericArray_8h.html" target="_top" xlink:title="Templated C++ wrapper for MNumericArray.">
<polygon fill="#ffffff" stroke="#000000" points="600,-369.5 600,-388.5 756,-388.5 756,-369.5 600,-369.5"/>
<text text-anchor="middle" x="678" y="-376.5" font-family="Helvetica,sans-Serif" font-size="10.00" fill="#000000">LLU/Containers/NumericArray.h</text>
</a>
</g>
</g>
<!-- Node1&#45;&gt;Node60 -->
<g id="edge109" class="edge">
<title>Node1&#45;&gt;Node60</title>
<path fill="none" stroke="#191970" d="M1023.2614,-753.9576C872.6135,-739.8119 474,-697.1268 474,-641.5 474,-641.5 474,-641.5 474,-507.5 474,-439.8968 555.1975,-406.448 615.1385,-390.9659"/>
<polygon fill="#191970" stroke="#191970" points="616.0661,-394.3421 624.9339,-388.5445 614.3862,-387.5466 616.0661,-394.3421"/>
</g>
<!-- Node61 -->
<g id="node48" class="node">
<title>Node61</title>
<g id="a_node48"><a xlink:href="Tensor_8h.html" target="_top" xlink:title="Templated C++ wrapper for MTensor.">
<polygon fill="#ffffff" stroke="#000000" points="346,-369.5 346,-388.5 472,-388.5 472,-369.5 346,-369.5"/>
<text text-anchor="middle" x="409" y="-376.5" font-family="Helvetica,sans-Serif" font-size="10.00" fill="#000000">LLU/Containers/Tensor.h</text>
</a>
</g>
</g>
<!-- Node1&#45;&gt;Node61 -->
<g id="edge116" class="edge">
<title>Node1&#45;&gt;Node61</title>
<path fill="none" stroke="#191970" d="M1023.4253,-757.9534C886.14,-754.9427 538.4502,-744.3662 427,-713 374.953,-698.3521 347.0868,-703.2016 319,-657 264.6587,-567.611 356.2579,-441.8508 393.9442,-396.3134"/>
<polygon fill="#191970" stroke="#191970" points="396.73,-398.4391 400.5054,-388.5397 391.3807,-393.9241 396.73,-398.4391"/>
</g>
<!-- Node62 -->
<g id="node49" class="node">
<title>Node62</title>
<g id="a_node49"><a xlink:href="ManagedExpression_8hpp.html" target="_top" xlink:title="Definition of the ManagedExpressionStore class template which provides C++ API for the Managed Expres...">
<polygon fill="#ffffff" stroke="#000000" points="1200.5,-179.5 1200.5,-198.5 1345.5,-198.5 1345.5,-179.5 1200.5,-179.5"/>
<text text-anchor="middle" x="1273" y="-186.5" font-family="Helvetica,sans-Serif" font-size="10.00" fill="#000000">LLU/ManagedExpression.hpp</text>
</a>
</g>
</g>
<!-- Node1&#45;&gt;Node62 -->
<g id="edge126" class="edge">
<title>Node1&#45;&gt;Node62</title>
<path fill="none" stroke="#191970" d="M1121.0257,-749.4369C1142.3921,-742.5428 1167.4424,-731.1663 1184,-713 1206.58,-688.2261 1208,-675.0202 1208,-641.5 1208,-641.5 1208,-641.5 1208,-317.5 1208,-273.8581 1238.2228,-229.9854 1257.4515,-206.4888"/>
<polygon fill="#191970" stroke="#191970" points="1260.1759,-208.6875 1263.962,-198.7922 1254.8315,-204.1666 1260.1759,-208.6875"/>
</g>
<!-- Node63 -->
<g id="node50" class="node">
<title>Node63</title>
<g id="a_node50"><a xlink:href="ProgressMonitor_8h.html" target="_top" xlink:title="Definition of ProgressMonitor class.">
<polygon fill="#ffffff" stroke="#000000" points="328.5,-632 328.5,-651 445.5,-651 445.5,-632 328.5,-632"/>
<text text-anchor="middle" x="387" y="-639" font-family="Helvetica,sans-Serif" font-size="10.00" fill="#000000">LLU/ProgressMonitor.h</text>
</a>
</g>
</g>
<!-- Node1&#45;&gt;Node63 -->
<g id="edge132" class="edge">
<title>Node1&#45;&gt;Node63</title>
<path fill="none" stroke="#191970" d="M1023.2997,-757.0123C879.9013,-751.6721 510.5597,-735.8543 460,-713 434.1205,-701.3018 412.0603,-676.2725 399.1635,-659.1607"/>
<polygon fill="#191970" stroke="#191970" points="401.9852,-657.0898 393.2829,-651.0466 396.3172,-661.1976 401.9852,-657.0898"/>
</g>
<!-- Node10&#45;&gt;Node6 -->
<g id="edge11" class="edge">
<title>Node10&#45;&gt;Node6</title>
<path fill="none" stroke="#191970" d="M1445.6448,-700.7245C1621.7301,-694.4777 2090.4944,-676.2437 2158,-657 2292.1614,-618.7549 2434,-647.0062 2434,-507.5 2434,-507.5 2434,-507.5 2434,-379 2434,-259.8549 2432.7992,-228.9434 2410,-112 2408.2673,-103.1126 2405.4896,-93.4982 2402.8634,-85.3685"/>
<polygon fill="#191970" stroke="#191970" points="2406.12,-84.0728 2399.599,-75.7224 2399.4893,-86.3167 2406.12,-84.0728"/>
</g>
<!-- Node10&#45;&gt;Node8 -->
<g id="edge13" class="edge">
<title>Node10&#45;&gt;Node8</title>
<path fill="none" stroke="#191970" d="M1364.3167,-693.279C1352.7117,-684.9095 1336.8748,-671.8562 1327,-657 1217.3779,-492.0776 1269.3466,-413.6962 1184,-235 1156.1954,-176.7836 1112.3951,-114.0592 1090.4588,-84.0296"/>
<polygon fill="#191970" stroke="#191970" points="1093.1449,-81.7748 1084.3949,-75.8009 1087.5098,-85.9275 1093.1449,-81.7748"/>
</g>
<!-- Node10&#45;&gt;Node9 -->
<g id="edge14" class="edge">
<title>Node10&#45;&gt;Node9</title>
<path fill="none" stroke="#191970" d="M1313.4317,-693.4651C1103.9495,-661.536 457.5073,-551.174 337,-389 245.423,-265.7593 529.7242,-166.4175 627.3358,-136.6479"/>
<polygon fill="#191970" stroke="#191970" points="628.4038,-139.9816 636.9727,-133.7507 626.3884,-133.278 628.4038,-139.9816"/>
</g>
<!-- Node11 -->
<g id="node11" class="node">
<title>Node11</title>
<g id="a_node11"><a xlink:title=" ">
<polygon fill="#ffffff" stroke="#bfbfbf" points="418.5,-118 418.5,-137 491.5,-137 491.5,-118 418.5,-118"/>
<text text-anchor="middle" x="455" y="-125" font-family="Helvetica,sans-Serif" font-size="10.00" fill="#000000">initializer_list</text>
</a>
</g>
</g>
<!-- Node10&#45;&gt;Node11 -->
<g id="edge10" class="edge">
<title>Node10&#45;&gt;Node11</title>
<path fill="none" stroke="#191970" d="M1312.1993,-698.8364C1226.7916,-692.8429 1074.5691,-679.9036 946,-657 680.3023,-609.6681 576.2024,-633.6073 373,-456 318.0491,-407.9707 292.2564,-371.012 316,-302 339.4812,-233.7508 402.4292,-172.3995 434.9447,-144.067"/>
<polygon fill="#191970" stroke="#191970" points="437.5558,-146.4395 442.8826,-137.2812 433.0072,-141.1187 437.5558,-146.4395"/>
</g>
<!-- Node12 -->
<g id="node12" class="node">
<title>Node12</title>
<g id="a_node12"><a xlink:title=" ">
<polygon fill="#ffffff" stroke="#bfbfbf" points="1464,-308 1464,-327 1530,-327 1530,-308 1464,-308"/>
<text text-anchor="middle" x="1497" y="-315" font-family="Helvetica,sans-Serif" font-size="10.00" fill="#000000">string_view</text>
</a>
</g>
</g>
<!-- Node10&#45;&gt;Node12 -->
<g id="edge12" class="edge">
<title>Node10&#45;&gt;Node12</title>
<path fill="none" stroke="#191970" d="M1381.9169,-693.4707C1397.3797,-642.9545 1469.8615,-406.1602 1491.1234,-336.6986"/>
<polygon fill="#191970" stroke="#191970" points="1494.4992,-337.6278 1494.0795,-327.0413 1487.8057,-335.5789 1494.4992,-337.6278"/>
</g>
<!-- Node13 -->
<g id="node13" class="node">
<title>Node13</title>
<g id="a_node13"><a xlink:href="Generic_2DataStore_8hpp.html" target="_top" xlink:title="Definition and implementation of generic DataStore wrapper.">
<polygon fill="#ffffff" stroke="#000000" points="1564,-492.5 1564,-522.5 1686,-522.5 1686,-492.5 1564,-492.5"/>
<text text-anchor="start" x="1572" y="-510.5" font-family="Helvetica,sans-Serif" font-size="10.00" fill="#000000">LLU/Containers/Generic</text>
<text text-anchor="middle" x="1625" y="-499.5" font-family="Helvetica,sans-Serif" font-size="10.00" fill="#000000">/DataStore.hpp</text>
</a>
</g>
</g>
<!-- Node10&#45;&gt;Node13 -->
<g id="edge15" class="edge">
<title>Node10&#45;&gt;Node13</title>
<path fill="none" stroke="#191970" d="M1422.0435,-693.4512C1473.7665,-679.675 1559.3927,-649.1155 1606,-590 1618.8109,-573.751 1623.2777,-550.4239 1624.7034,-532.7176"/>
<polygon fill="#191970" stroke="#191970" points="1628.2089,-532.7047 1625.2455,-522.5328 1621.2188,-532.3326 1628.2089,-532.7047"/>
</g>
<!-- Node10&#45;&gt;Node15 -->
<g id="edge83" class="edge">
<title>Node10&#45;&gt;Node15</title>
<path fill="none" stroke="#191970" d="M1370.6112,-693.394C1363.2176,-684.4929 1352.6204,-670.6114 1346,-657 1329.2974,-622.6599 1322,-612.6867 1322,-574.5 1322,-574.5 1322,-574.5 1322,-379 1322,-343.154 1323.3616,-329.7928 1346,-302 1388.4024,-249.9433 1461.4725,-217.9122 1507.6854,-201.8063"/>
<polygon fill="#191970" stroke="#191970" points="1509.0522,-205.0388 1517.4015,-198.5166 1506.8072,-198.4085 1509.0522,-205.0388"/>
</g>
<!-- Node10&#45;&gt;Node28 -->
<g id="edge84" class="edge">
<title>Node10&#45;&gt;Node28</title>
<path fill="none" stroke="#191970" d="M1376.5936,-693.3999C1371.481,-672.1324 1360,-619.3776 1360,-574.5 1360,-574.5 1360,-574.5 1360,-379 1360,-337.4545 1382.6464,-330.3669 1413,-302 1455.6579,-262.1341 1471.9465,-257.0728 1526,-235 1588.2721,-209.5711 1626.1337,-247.2493 1673,-199 1700.1961,-171.0013 1697.4713,-148.9868 1685,-112 1681.4305,-101.4138 1674.3465,-91.3356 1667.4798,-83.3256"/>
<polygon fill="#191970" stroke="#191970" points="1669.9019,-80.7886 1660.559,-75.7924 1664.747,-85.5244 1669.9019,-80.7886"/>
</g>
<!-- Node10&#45;&gt;Node44 -->
<g id="edge85" class="edge">
<title>Node10&#45;&gt;Node44</title>
<path fill="none" stroke="#191970" d="M1445.5442,-700.9217C1660.1306,-693.3464 2320,-662.8677 2320,-574.5 2320,-574.5 2320,-574.5 2320,-379 2320,-305.9467 2257.2659,-236.7216 2224.8727,-205.8462"/>
<polygon fill="#191970" stroke="#191970" points="2227.0526,-203.0937 2217.3475,-198.8438 2222.2841,-208.2183 2227.0526,-203.0937"/>
</g>
<!-- Node47 -->
<g id="node34" class="node">
<title>Node47</title>
<g id="a_node34"><a xlink:href="TypedMArgument_8h.html" target="_top" xlink:title=" ">
<polygon fill="#ffffff" stroke="#000000" points="1637.5,-369.5 1637.5,-388.5 1760.5,-388.5 1760.5,-369.5 1637.5,-369.5"/>
<text text-anchor="middle" x="1699" y="-376.5" font-family="Helvetica,sans-Serif" font-size="10.00" fill="#000000">LLU/TypedMArgument.h</text>
</a>
</g>
</g>
<!-- Node10&#45;&gt;Node47 -->
<g id="edge86" class="edge">
<title>Node10&#45;&gt;Node47</title>
<path fill="none" stroke="#191970" d="M1435.0715,-693.4399C1530.4378,-675.5746 1714,-633.5213 1714,-574.5 1714,-574.5 1714,-574.5 1714,-507.5 1714,-468.7398 1707.1838,-423.8441 1702.741,-398.6979"/>
<polygon fill="#191970" stroke="#191970" points="1706.1412,-397.8345 1700.8998,-388.627 1699.2554,-399.0935 1706.1412,-397.8345"/>
</g>
<!-- Node51 -->
<g id="node38" class="node">
<title>Node51</title>
<g id="a_node38"><a xlink:href="DataList_8hpp.html" target="_top" xlink:title="Special iterators for DataLists. Iteration over keys, values, reversed iteration.">
<polygon fill="#ffffff" stroke="#000000" points="1773,-626.5 1773,-656.5 1897,-656.5 1897,-626.5 1773,-626.5"/>
<text text-anchor="start" x="1781" y="-644.5" font-family="Helvetica,sans-Serif" font-size="10.00" fill="#000000">LLU/Containers/Iterators</text>
<text text-anchor="middle" x="1835" y="-633.5" font-family="Helvetica,sans-Serif" font-size="10.00" fill="#000000">/DataList.hpp</text>
</a>
</g>
</g>
<!-- Node10&#45;&gt;Node51 -->
<g id="edge73" class="edge">
<title>Node10&#45;&gt;Node51</title>
<path fill="none" stroke="#191970" d="M1445.6149,-694.4775C1515.8702,-685.429 1629.7773,-670.5868 1728,-657 1739.217,-655.4484 1751.0894,-653.7673 1762.6854,-652.1039"/>
<polygon fill="#191970" stroke="#191970" points="1763.382,-655.5398 1772.7812,-650.6504 1762.3845,-648.6112 1763.382,-655.5398"/>
</g>
<!-- Node14 -->
<g id="node14" class="node">
<title>Node14</title>
<g id="a_node14"><a xlink:href="Base_8hpp.html" target="_top" xlink:title="Definitions of MContainerBase and MContainer class templates.">
<polygon fill="#ffffff" stroke="#000000" points="1645,-235.5 1645,-265.5 1767,-265.5 1767,-235.5 1645,-235.5"/>
<text text-anchor="start" x="1653" y="-253.5" font-family="Helvetica,sans-Serif" font-size="10.00" fill="#000000">LLU/Containers/Generic</text>
<text text-anchor="middle" x="1706" y="-242.5" font-family="Helvetica,sans-Serif" font-size="10.00" fill="#000000">/Base.hpp</text>
</a>
</g>
</g>
<!-- Node13&#45;&gt;Node14 -->
<g id="edge16" class="edge">
<title>Node13&#45;&gt;Node14</title>
<path fill="none" stroke="#191970" d="M1595.2812,-492.349C1532.4697,-458.3976 1396.6141,-373.5818 1455,-302 1466.423,-287.9953 1564.488,-271.0181 1634.5918,-260.4857"/>
<polygon fill="#191970" stroke="#191970" points="1635.3422,-263.9127 1644.7185,-258.9796 1634.3124,-256.9888 1635.3422,-263.9127"/>
</g>
<!-- Node13&#45;&gt;Node44 -->
<g id="edge71" class="edge">
<title>Node13&#45;&gt;Node44</title>
<path fill="none" stroke="#191970" d="M1686.4349,-504.8665C1797.6499,-499.442 2027.7138,-485.0211 2102,-456 2155.5694,-435.0722 2206,-436.5122 2206,-379 2206,-379 2206,-379 2206,-317.5 2206,-279.0012 2206,-234.0145 2206,-208.7812"/>
<polygon fill="#191970" stroke="#191970" points="2209.5001,-208.6718 2206,-198.6719 2202.5001,-208.6719 2209.5001,-208.6718"/>
</g>
<!-- Node46 -->
<g id="node32" class="node">
<title>Node46</title>
<g id="a_node32"><a xlink:href="Iterators_2DataStore_8hpp.html" target="_top" xlink:title=" ">
<polygon fill="#ffffff" stroke="#000000" points="1969,-425.5 1969,-455.5 2093,-455.5 2093,-425.5 1969,-425.5"/>
<text text-anchor="start" x="1977" y="-443.5" font-family="Helvetica,sans-Serif" font-size="10.00" fill="#000000">LLU/Containers/Iterators</text>
<text text-anchor="middle" x="2031" y="-432.5" font-family="Helvetica,sans-Serif" font-size="10.00" fill="#000000">/DataStore.hpp</text>
</a>
</g>
</g>
<!-- Node13&#45;&gt;Node46 -->
<g id="edge52" class="edge">
<title>Node13&#45;&gt;Node46</title>
<path fill="none" stroke="#191970" d="M1686.2219,-497.3969C1759.2574,-485.3442 1881.1972,-465.2212 1958.7736,-452.4191"/>
<polygon fill="#191970" stroke="#191970" points="1959.6493,-455.822 1968.9459,-450.7404 1958.5095,-448.9155 1959.6493,-455.822"/>
</g>
<!-- Node13&#45;&gt;Node47 -->
<g id="edge72" class="edge">
<title>Node13&#45;&gt;Node47</title>
<path fill="none" stroke="#191970" d="M1633.7794,-492.2548C1647.4264,-468.5568 1673.6842,-422.9605 1688.3783,-397.4444"/>
<polygon fill="#191970" stroke="#191970" points="1691.436,-399.1482 1693.3934,-388.7358 1685.3699,-395.6549 1691.436,-399.1482"/>
</g>
<!-- Node14&#45;&gt;Node7 -->
<g id="edge17" class="edge">
<title>Node14&#45;&gt;Node7</title>
<path fill="none" stroke="#191970" d="M1644.6071,-247.1398C1540.9892,-240.9626 1324.9854,-225.9058 1144,-199 955.0124,-170.9045 911.1124,-145.4575 723,-112 627.8427,-95.0754 515.3925,-79.3568 456.2028,-71.4129"/>
<polygon fill="#191970" stroke="#191970" points="456.508,-67.9227 446.1326,-70.0675 455.581,-74.861 456.508,-67.9227"/>
</g>
<!-- Node14&#45;&gt;Node15 -->
<g id="edge18" class="edge">
<title>Node14&#45;&gt;Node15</title>
<path fill="none" stroke="#191970" d="M1667.8381,-235.4554C1642.0374,-225.284 1608.2874,-211.9787 1583.5222,-202.2155"/>
<polygon fill="#191970" stroke="#191970" points="1584.7613,-198.9419 1574.1745,-198.5303 1582.194,-205.4541 1584.7613,-198.9419"/>
</g>
<!-- Node14&#45;&gt;Node28 -->
<g id="edge37" class="edge">
<title>Node14&#45;&gt;Node28</title>
<path fill="none" stroke="#191970" d="M1763.4703,-235.4968C1793.8218,-224.1806 1822.6164,-205.9339 1811,-179 1788.761,-127.4364 1728.6618,-95.4912 1688.5174,-79.2366"/>
<polygon fill="#191970" stroke="#191970" points="1689.615,-75.9079 1679.0268,-75.5336 1687.0706,-82.4291 1689.615,-75.9079"/>
</g>
<!-- Node14&#45;&gt;Node44 -->
<g id="edge38" class="edge">
<title>Node14&#45;&gt;Node44</title>
<path fill="none" stroke="#191970" d="M1767.3098,-242.9589C1864.4284,-231.0133 2052.3753,-207.8958 2147.6265,-196.1799"/>
<polygon fill="#191970" stroke="#191970" points="2148.1626,-199.6405 2157.6605,-194.9458 2147.308,-192.6928 2148.1626,-199.6405"/>
</g>
<!-- Node26 -->
<g id="node30" class="node">
<title>Node26</title>
<g id="a_node30"><a xlink:href="Utilities_8hpp.html" target="_top" xlink:title="Short but generally useful functions.">
<polygon fill="#ffffff" stroke="#000000" points="940.5,-118 940.5,-137 1029.5,-137 1029.5,-118 940.5,-118"/>
<text text-anchor="middle" x="985" y="-125" font-family="Helvetica,sans-Serif" font-size="10.00" fill="#000000">LLU/Utilities.hpp</text>
</a>
</g>
</g>
<!-- Node14&#45;&gt;Node26 -->
<g id="edge49" class="edge">
<title>Node14&#45;&gt;Node26</title>
<path fill="none" stroke="#191970" d="M1644.9242,-245.5063C1518.1834,-234.9801 1234.8096,-210.5371 1192,-199 1171.259,-193.4103 1168.0557,-186.6942 1148,-179 1108.4507,-163.8272 1062.3316,-149.564 1029.2635,-139.9129"/>
<polygon fill="#191970" stroke="#191970" points="1030.0206,-136.4884 1019.4417,-137.0699 1028.0742,-143.2124 1030.0206,-136.4884"/>
</g>
<!-- Node45 -->
<g id="node31" class="node">
<title>Node45</title>
<g id="a_node31"><a xlink:href="Interfaces_8h.html" target="_top" xlink:title=" ">
<polygon fill="#ffffff" stroke="#000000" points="1858,-179.5 1858,-198.5 1998,-198.5 1998,-179.5 1858,-179.5"/>
<text text-anchor="middle" x="1928" y="-186.5" font-family="Helvetica,sans-Serif" font-size="10.00" fill="#000000">LLU/Containers/Interfaces.h</text>
</a>
</g>
</g>
<!-- Node14&#45;&gt;Node45 -->
<g id="edge50" class="edge">
<title>Node14&#45;&gt;Node45</title>
<path fill="none" stroke="#191970" d="M1760.3073,-235.4554C1798.1609,-224.9689 1848.0387,-211.1515 1883.5327,-201.3187"/>
<polygon fill="#191970" stroke="#191970" points="1884.8953,-204.5731 1893.5979,-198.5303 1883.0264,-197.8271 1884.8953,-204.5731"/>
</g>
<!-- Node15&#45;&gt;Node6 -->
<g id="edge21" class="edge">
<title>Node15&#45;&gt;Node6</title>
<path fill="none" stroke="#191970" d="M1622.2348,-185.2311C1797.4087,-175.9708 2232.7135,-152.1902 2263,-143 2306.4311,-129.8212 2350.8689,-100.1577 2375.7986,-81.7363"/>
<polygon fill="#191970" stroke="#191970" points="2378.1822,-84.3227 2384.0626,-75.5095 2373.9697,-78.732 2378.1822,-84.3227"/>
</g>
<!-- Node15&#45;&gt;Node8 -->
<g id="edge23" class="edge">
<title>Node15&#45;&gt;Node8</title>
<path fill="none" stroke="#191970" d="M1535.9322,-179.3545C1510.8549,-162.6722 1456.2407,-128.626 1405,-112 1299.1883,-77.6675 1165.9856,-68.9553 1107.2177,-66.7476"/>
<polygon fill="#191970" stroke="#191970" points="1107.2467,-63.2467 1097.134,-66.4064 1107.0099,-70.2427 1107.2467,-63.2467"/>
</g>
<!-- Node15&#45;&gt;Node9 -->
<g id="edge24" class="edge">
<title>Node15&#45;&gt;Node9</title>
<path fill="none" stroke="#191970" d="M1477.8405,-184.0193C1295.2808,-171.4184 820.4228,-138.642 691.6319,-129.7524"/>
<polygon fill="#191970" stroke="#191970" points="691.4858,-126.234 681.2685,-129.037 691.0037,-133.2174 691.4858,-126.234"/>
</g>
<!-- Node15&#45;&gt;Node11 -->
<g id="edge20" class="edge">
<title>Node15&#45;&gt;Node11</title>
<path fill="none" stroke="#191970" d="M1477.7692,-185.2655C1441.0127,-183.3728 1395.6268,-181.0476 1355,-179 1031.9031,-162.7158 950.7279,-165.439 628,-143 585.3347,-140.0335 536.8444,-135.5965 502.0788,-132.2289"/>
<polygon fill="#191970" stroke="#191970" points="502.0444,-128.709 491.7517,-131.2209 501.3644,-135.6759 502.0444,-128.709"/>
</g>
<!-- Node16 -->
<g id="node16" class="node">
<title>Node16</title>
<g id="a_node16"><a xlink:title=" ">
<polygon fill="#ffffff" stroke="#bfbfbf" points="1528,-118 1528,-137 1584,-137 1584,-118 1528,-118"/>
<text text-anchor="middle" x="1556" y="-125" font-family="Helvetica,sans-Serif" font-size="10.00" fill="#000000">algorithm</text>
</a>
</g>
</g>
<!-- Node15&#45;&gt;Node16 -->
<g id="edge19" class="edge">
<title>Node15&#45;&gt;Node16</title>
<path fill="none" stroke="#191970" d="M1550.9375,-179.3906C1551.7692,-170.8657 1553.0108,-158.1392 1554.0562,-147.4235"/>
<polygon fill="#191970" stroke="#191970" points="1557.5617,-147.5375 1555.0493,-137.2449 1550.5947,-146.8577 1557.5617,-147.5375"/>
</g>
<!-- Node17 -->
<g id="node17" class="node">
<title>Node17</title>
<g id="a_node17"><a xlink:title=" ">
<polygon fill="#ffffff" stroke="#bfbfbf" points="1312.5,-118 1312.5,-137 1395.5,-137 1395.5,-118 1312.5,-118"/>
<text text-anchor="middle" x="1354" y="-125" font-family="Helvetica,sans-Serif" font-size="10.00" fill="#000000">unordered_map</text>
</a>
</g>
</g>
<!-- Node15&#45;&gt;Node17 -->
<g id="edge22" class="edge">
<title>Node15&#45;&gt;Node17</title>
<path fill="none" stroke="#191970" d="M1519.375,-179.3906C1485.7176,-168.8298 1431.5101,-151.8208 1394.3941,-140.1747"/>
<polygon fill="#191970" stroke="#191970" points="1394.9991,-136.6963 1384.4099,-137.0419 1392.9034,-143.3753 1394.9991,-136.6963"/>
</g>
<!-- Node18 -->
<g id="node18" class="node">
<title>Node18</title>
<g id="a_node18"><a xlink:href="LibraryLinkError_8h.html" target="_top" xlink:title="Error class and error codes used by LibraryLink Utilities classes.">
<polygon fill="#ffffff" stroke="#ff0000" points="2128.5,-112.5 2128.5,-142.5 2253.5,-142.5 2253.5,-112.5 2128.5,-112.5"/>
<text text-anchor="start" x="2136.5" y="-130.5" font-family="Helvetica,sans-Serif" font-size="10.00" fill="#000000">LLU/ErrorLog/LibraryLink</text>
<text text-anchor="middle" x="2191" y="-119.5" font-family="Helvetica,sans-Serif" font-size="10.00" fill="#000000">Error.h</text>
</a>
</g>
</g>
<!-- Node15&#45;&gt;Node18 -->
<g id="edge25" class="edge">
<title>Node15&#45;&gt;Node18</title>
<path fill="none" stroke="#191970" d="M1622.2848,-182.0647C1745.3715,-170.2553 1994.3078,-146.3714 2117.9284,-134.5108"/>
<polygon fill="#191970" stroke="#191970" points="2118.4316,-137.9787 2128.0516,-133.5395 2117.763,-131.0107 2118.4316,-137.9787"/>
</g>
<!-- Node15&#45;&gt;Node28 -->
<g id="edge28" class="edge">
<title>Node15&#45;&gt;Node28</title>
<path fill="none" stroke="#191970" d="M1559.5617,-179.4251C1568.5058,-170.3191 1582.0859,-156.1041 1593,-143 1609.1943,-123.5563 1626.272,-100.0276 1637.4634,-84.1366"/>
<polygon fill="#191970" stroke="#191970" points="1640.4635,-85.9537 1643.3214,-75.7515 1634.7251,-81.9447 1640.4635,-85.9537"/>
</g>
<!-- Node18&#45;&gt;Node6 -->
<g id="edge27" class="edge">
<title>Node18&#45;&gt;Node6</title>
<path fill="none" stroke="#191970" d="M2241.1486,-112.4554C2280.0819,-100.7754 2332.7897,-84.9631 2365.5767,-75.127"/>
<polygon fill="#191970" stroke="#191970" points="2366.9067,-78.3822 2375.4792,-72.1562 2364.8952,-71.6774 2366.9067,-78.3822"/>
</g>
<!-- Node19 -->
<g id="node19" class="node">
<title>Node19</title>
<g id="a_node19"><a xlink:title=" ">
<polygon fill="#ffffff" stroke="#bfbfbf" points="2161.5,-56.5 2161.5,-75.5 2220.5,-75.5 2220.5,-56.5 2161.5,-56.5"/>
<text text-anchor="middle" x="2191" y="-63.5" font-family="Helvetica,sans-Serif" font-size="10.00" fill="#000000">stdexcept</text>
</a>
</g>
</g>
<!-- Node18&#45;&gt;Node19 -->
<g id="edge26" class="edge">
<title>Node18&#45;&gt;Node19</title>
<path fill="none" stroke="#191970" d="M2191,-112.2977C2191,-104.3834 2191,-94.6043 2191,-86.0759"/>
<polygon fill="#191970" stroke="#191970" points="2194.5001,-85.8469 2191,-75.8469 2187.5001,-85.847 2194.5001,-85.8469"/>
</g>
<!-- Node28&#45;&gt;Node5 -->
<g id="edge29" class="edge">
<title>Node28&#45;&gt;Node5</title>
<path fill="none" stroke="#191970" d="M1601.7799,-62.7655C1525.6879,-57.156 1373.3178,-43.8721 1246,-20 1245.3924,-19.8861 1244.7801,-19.7677 1244.1644,-19.6453"/>
<polygon fill="#191970" stroke="#191970" points="1244.5759,-16.1509 1234.0531,-17.3841 1243.0482,-22.9822 1244.5759,-16.1509"/>
</g>
<!-- Node29 -->
<g id="node21" class="node">
<title>Node29</title>
<g id="a_node21"><a xlink:title=" ">
<polygon fill="#ffffff" stroke="#bfbfbf" points="2037,-.5 2037,-19.5 2099,-19.5 2099,-.5 2037,-.5"/>
<text text-anchor="middle" x="2068" y="-7.5" font-family="Helvetica,sans-Serif" font-size="10.00" fill="#000000">dllexport.h</text>
</a>
</g>
</g>
<!-- Node28&#45;&gt;Node29 -->
<g id="edge30" class="edge">
<title>Node28&#45;&gt;Node29</title>
<path fill="none" stroke="#191970" d="M1698.0257,-62.0769C1768.1993,-55.9233 1902.9931,-42.5115 2026.6197,-20.0736"/>
<polygon fill="#191970" stroke="#191970" points="2027.4358,-23.4823 2036.6376,-18.2308 2026.1693,-16.5978 2027.4358,-23.4823"/>
</g>
<!-- Node24 -->
<g id="node22" class="node">
<title>Node24</title>
<g id="a_node22"><a xlink:title=" ">
<polygon fill="#ffffff" stroke="#bfbfbf" points="1255,-.5 1255,-19.5 1301,-19.5 1301,-.5 1255,-.5"/>
<text text-anchor="middle" x="1278" y="-7.5" font-family="Helvetica,sans-Serif" font-size="10.00" fill="#000000">wstp.h</text>
</a>
</g>
</g>
<!-- Node28&#45;&gt;Node24 -->
<g id="edge31" class="edge">
<title>Node28&#45;&gt;Node24</title>
<path fill="none" stroke="#191970" d="M1601.8603,-61.904C1537.6949,-55.9092 1420.5457,-43.0987 1311.1929,-19.7136"/>
<polygon fill="#191970" stroke="#191970" points="1311.8299,-16.2705 1301.3147,-17.5673 1310.3435,-23.1108 1311.8299,-16.2705"/>
</g>
<!-- Node30 -->
<g id="node23" class="node">
<title>Node30</title>
<g id="a_node23"><a xlink:title=" ">
<polygon fill="#ffffff" stroke="#bfbfbf" points="1319.5,-.5 1319.5,-19.5 1410.5,-19.5 1410.5,-.5 1319.5,-.5"/>
<text text-anchor="middle" x="1365" y="-7.5" font-family="Helvetica,sans-Serif" font-size="10.00" fill="#000000">WolframLibrary.h</text>
</a>
</g>
</g>
<!-- Node28&#45;&gt;Node30 -->
<g id="edge32" class="edge">
<title>Node28&#45;&gt;Node30</title>
<path fill="none" stroke="#191970" d="M1601.9759,-56.5637C1551.9007,-46.7244 1473.4972,-31.3187 1420.7282,-20.9501"/>
<polygon fill="#191970" stroke="#191970" points="1421.3466,-17.5048 1410.8594,-19.011 1419.9969,-24.3734 1421.3466,-17.5048"/>
</g>
<!-- Node31 -->
<g id="node24" class="node">
<title>Node31</title>
<g id="a_node24"><a xlink:title=" ">
<polygon fill="#ffffff" stroke="#bfbfbf" points="1429,-.5 1429,-19.5 1573,-19.5 1573,-.5 1429,-.5"/>
<text text-anchor="middle" x="1501" y="-7.5" font-family="Helvetica,sans-Serif" font-size="10.00" fill="#000000">WolframIOLibraryFunctions.h</text>
</a>
</g>
</g>
<!-- Node28&#45;&gt;Node31 -->
<g id="edge33" class="edge">
<title>Node28&#45;&gt;Node31</title>
<path fill="none" stroke="#191970" d="M1624.386,-56.3733C1599.9313,-47.1822 1562.8946,-33.2624 1535.7791,-23.0713"/>
<polygon fill="#191970" stroke="#191970" points="1536.8719,-19.7431 1526.2798,-19.5011 1534.4091,-26.2956 1536.8719,-19.7431"/>
</g>
<!-- Node32 -->
<g id="node25" class="node">
<title>Node32</title>
<g id="a_node25"><a xlink:title=" ">
<polygon fill="#ffffff" stroke="#bfbfbf" points="1591,-.5 1591,-19.5 1709,-19.5 1709,-.5 1591,-.5"/>
<text text-anchor="middle" x="1650" y="-7.5" font-family="Helvetica,sans-Serif" font-size="10.00" fill="#000000">WolframImageLibrary.h</text>
</a>
</g>
</g>
<!-- Node28&#45;&gt;Node32 -->
<g id="edge34" class="edge">
<title>Node28&#45;&gt;Node32</title>
<path fill="none" stroke="#191970" d="M1650,-56.2455C1650,-48.9382 1650,-38.6944 1650,-29.7046"/>
<polygon fill="#191970" stroke="#191970" points="1653.5001,-29.6426 1650,-19.6427 1646.5001,-29.6427 1653.5001,-29.6426"/>
</g>
<!-- Node33 -->
<g id="node26" class="node">
<title>Node33</title>
<g id="a_node26"><a xlink:title=" ">
<polygon fill="#ffffff" stroke="#bfbfbf" points="1727.5,-.5 1727.5,-19.5 1878.5,-19.5 1878.5,-.5 1727.5,-.5"/>
<text text-anchor="middle" x="1803" y="-7.5" font-family="Helvetica,sans-Serif" font-size="10.00" fill="#000000">WolframNumericArrayLibrary.h</text>
</a>
</g>
</g>
<!-- Node28&#45;&gt;Node33 -->
<g id="edge35" class="edge">
<title>Node28&#45;&gt;Node33</title>
<path fill="none" stroke="#191970" d="M1676.3016,-56.3733C1701.4128,-47.1822 1739.4438,-33.2624 1767.2872,-23.0713"/>
<polygon fill="#191970" stroke="#191970" points="1768.8538,-26.2251 1777.0416,-19.5011 1766.4478,-19.6516 1768.8538,-26.2251"/>
</g>
<!-- Node34 -->
<g id="node27" class="node">
<title>Node34</title>
<g id="a_node27"><a xlink:title=" ">
<polygon fill="#ffffff" stroke="#bfbfbf" points="1897,-.5 1897,-19.5 2019,-19.5 2019,-.5 1897,-.5"/>
<text text-anchor="middle" x="1958" y="-7.5" font-family="Helvetica,sans-Serif" font-size="10.00" fill="#000000">WolframSparseLibrary.h</text>
</a>
</g>
</g>
<!-- Node28&#45;&gt;Node34 -->
<g id="edge36" class="edge">
<title>Node28&#45;&gt;Node34</title>
<path fill="none" stroke="#191970" d="M1698.125,-57.25C1751.274,-47.5866 1837.0325,-31.9941 1895.3776,-21.3859"/>
<polygon fill="#191970" stroke="#191970" points="1896.365,-24.7638 1905.5775,-19.5314 1895.1127,-17.8767 1896.365,-24.7638"/>
</g>
<!-- Node44&#45;&gt;Node6 -->
<g id="edge39" class="edge">
<title>Node44&#45;&gt;Node6</title>
<path fill="none" stroke="#191970" d="M2250.3293,-179.4825C2276.3799,-172.3941 2308.997,-160.8102 2334,-143 2356.0563,-127.2888 2374.4762,-101.6946 2385.3638,-84.3679"/>
<polygon fill="#191970" stroke="#191970" points="2388.4225,-86.0738 2390.6128,-75.7078 2382.4363,-82.4455 2388.4225,-86.0738"/>
</g>
<!-- Node44&#45;&gt;Node28 -->
<g id="edge41" class="edge">
<title>Node44&#45;&gt;Node28</title>
<path fill="none" stroke="#191970" d="M2176.169,-179.4961C2151.4312,-171.1625 2115.6433,-158.0484 2086,-143 2063.3552,-131.5044 2061.893,-120.606 2038,-112 1978.7166,-90.6467 1801.1298,-76.0596 1708.1741,-69.6641"/>
<polygon fill="#191970" stroke="#191970" points="1708.3017,-66.1648 1698.0876,-68.9794 1707.8276,-73.1487 1708.3017,-66.1648"/>
</g>
<!-- Node27 -->
<g id="node29" class="node">
<title>Node27</title>
<g id="a_node29"><a xlink:title=" ">
<polygon fill="#ffffff" stroke="#bfbfbf" points="2259,-56.5 2259,-75.5 2305,-75.5 2305,-56.5 2259,-56.5"/>
<text text-anchor="middle" x="2282" y="-63.5" font-family="Helvetica,sans-Serif" font-size="10.00" fill="#000000">variant</text>
</a>
</g>
</g>
<!-- Node44&#45;&gt;Node27 -->
<g id="edge40" class="edge">
<title>Node44&#45;&gt;Node27</title>
<path fill="none" stroke="#191970" d="M2223.0058,-179.4947C2235.8928,-171.4214 2253.0305,-158.662 2263,-143 2274.0536,-125.6349 2278.6767,-102.2918 2280.6102,-85.8749"/>
<polygon fill="#191970" stroke="#191970" points="2284.1082,-86.0596 2281.565,-75.7746 2277.1393,-85.4008 2284.1082,-86.0596"/>
</g>
<!-- Node44&#45;&gt;Node26 -->
<g id="edge42" class="edge">
<title>Node44&#45;&gt;Node26</title>
<path fill="none" stroke="#191970" d="M2157.7593,-186.5702C1964.2236,-176.8221 1244.6944,-140.5804 1039.778,-130.2591"/>
<polygon fill="#191970" stroke="#191970" points="1039.725,-126.7521 1029.5615,-129.7445 1039.3728,-133.7432 1039.725,-126.7521"/>
</g>
<!-- Node26&#45;&gt;Node2 -->
<g id="edge43" class="edge">
<title>Node26&#45;&gt;Node2</title>
<path fill="none" stroke="#191970" d="M967.6563,-117.8906C949.5727,-107.8713 921.0141,-92.0483 900.1835,-80.5071"/>
<polygon fill="#191970" stroke="#191970" points="901.6654,-77.3268 891.222,-75.5419 898.2729,-83.4498 901.6654,-77.3268"/>
</g>
<!-- Node26&#45;&gt;Node3 -->
<g id="edge44" class="edge">
<title>Node26&#45;&gt;Node3</title>
<path fill="none" stroke="#191970" d="M940.312,-123.7455C805.4599,-112.4157 404.6104,-78.7378 286.2563,-68.7941"/>
<polygon fill="#191970" stroke="#191970" points="286.2724,-65.2832 276.0144,-67.9336 285.6862,-72.2586 286.2724,-65.2832"/>
</g>
<!-- Node26&#45;&gt;Node7 -->
<g id="edge45" class="edge">
<title>Node26&#45;&gt;Node7</title>
<path fill="none" stroke="#191970" d="M952.7552,-117.9892C944.1273,-115.7306 934.7628,-113.5344 926,-112 752.95,-81.6991 543.2314,-70.7837 456.0645,-67.369"/>
<polygon fill="#191970" stroke="#191970" points="456.1782,-63.8709 446.0526,-66.9889 455.9126,-70.8658 456.1782,-63.8709"/>
</g>
<!-- Node26&#45;&gt;Node8 -->
<g id="edge46" class="edge">
<title>Node26&#45;&gt;Node8</title>
<path fill="none" stroke="#191970" d="M999.375,-117.8906C1014.0931,-108.0519 1037.1832,-92.6167 1054.3589,-81.1351"/>
<polygon fill="#191970" stroke="#191970" points="1056.3575,-84.0091 1062.7259,-75.5419 1052.4673,-78.1896 1056.3575,-84.0091"/>
</g>
<!-- Node26&#45;&gt;Node28 -->
<g id="edge48" class="edge">
<title>Node26&#45;&gt;Node28</title>
<path fill="none" stroke="#191970" d="M1029.6651,-123.3693C1146.4815,-112.566 1461.0309,-83.4761 1591.7727,-71.3849"/>
<polygon fill="#191970" stroke="#191970" points="1592.3475,-74.8468 1601.9826,-70.4407 1591.7028,-67.8765 1592.3475,-74.8468"/>
</g>
<!-- Node26&#45;&gt;Node27 -->
<g id="edge47" class="edge">
<title>Node26&#45;&gt;Node27</title>
<path fill="none" stroke="#191970" d="M1029.6361,-125.1944C1091.3151,-122.0398 1206.0905,-116.2818 1304,-112 1715.4732,-94.0054 1820.8268,-123.0241 2230,-76 2236.0849,-75.3007 2242.5247,-74.2881 2248.7224,-73.1726"/>
<polygon fill="#191970" stroke="#191970" points="2249.6576,-76.557 2258.8189,-71.2353 2248.3385,-69.6824 2249.6576,-76.557"/>
</g>
<!-- Node45&#45;&gt;Node28 -->
<g id="edge51" class="edge">
<title>Node45&#45;&gt;Node28</title>
<path fill="none" stroke="#191970" d="M1920.3242,-179.2744C1906.7597,-162.7798 1876.862,-129.4178 1844,-112 1801.657,-89.557 1748.3724,-77.9349 1708.3653,-71.9937"/>
<polygon fill="#191970" stroke="#191970" points="1708.6256,-68.4959 1698.2354,-70.5679 1707.65,-75.4276 1708.6256,-68.4959"/>
</g>
<!-- Node46&#45;&gt;Node28 -->
<g id="edge54" class="edge">
<title>Node46&#45;&gt;Node28</title>
<path fill="none" stroke="#191970" d="M2042.7909,-425.2379C2049.5746,-415.4664 2057.4394,-402.1862 2061,-389 2063.3172,-380.4185 2061.4625,-377.8769 2061,-369 2056.4327,-281.3301 2065.4375,-244.5127 2007,-179 1963.9949,-130.7881 1938.9271,-133.4875 1878,-112 1821.9436,-92.2303 1754.97,-79.987 1708.1674,-73.1511"/>
<polygon fill="#191970" stroke="#191970" points="1708.5965,-69.677 1698.203,-71.7329 1707.61,-76.6072 1708.5965,-69.677"/>
</g>
<!-- Node46&#45;&gt;Node44 -->
<g id="edge55" class="edge">
<title>Node46&#45;&gt;Node44</title>
<path fill="none" stroke="#191970" d="M2087.5343,-425.3912C2107.7561,-417.4838 2129.1836,-405.8289 2144,-389 2145.5493,-387.2402 2184.8992,-258.322 2200.092,-208.4228"/>
<polygon fill="#191970" stroke="#191970" points="2203.5346,-209.1321 2203.0978,-198.5462 2196.8379,-207.094 2203.5346,-209.1321"/>
</g>
<!-- Node21 -->
<g id="node33" class="node">
<title>Node21</title>
<g id="a_node33"><a xlink:title=" ">
<polygon fill="#ffffff" stroke="#bfbfbf" points="1754.5,-179.5 1754.5,-198.5 1801.5,-198.5 1801.5,-179.5 1754.5,-179.5"/>
<text text-anchor="middle" x="1778" y="-186.5" font-family="Helvetica,sans-Serif" font-size="10.00" fill="#000000">iterator</text>
</a>
</g>
</g>
<!-- Node46&#45;&gt;Node21 -->
<g id="edge53" class="edge">
<title>Node46&#45;&gt;Node21</title>
<path fill="none" stroke="#191970" d="M2036.6418,-425.2614C2045.6776,-398.0264 2059.9814,-340.2735 2035,-302 2009.1965,-262.4668 1875.2863,-218.0597 1811.6537,-198.7915"/>
<polygon fill="#191970" stroke="#191970" points="1812.2944,-195.3298 1801.7105,-195.8125 1810.2853,-202.0354 1812.2944,-195.3298"/>
</g>
<!-- Node46&#45;&gt;Node47 -->
<g id="edge56" class="edge">
<title>Node46&#45;&gt;Node47</title>
<path fill="none" stroke="#191970" d="M1968.9428,-429.0045C1909.3305,-417.9618 1819.7935,-401.3759 1760.4018,-390.3741"/>
<polygon fill="#191970" stroke="#191970" points="1760.8787,-386.903 1750.4085,-388.523 1759.6036,-393.7859 1760.8787,-386.903"/>
</g>
<!-- Node47&#45;&gt;Node2 -->
<g id="edge57" class="edge">
<title>Node47&#45;&gt;Node2</title>
<path fill="none" stroke="#191970" d="M1660.5022,-369.4859C1634.3253,-361.9817 1599.5749,-349.9379 1572,-333 1554.8533,-322.4677 1557.1144,-310.764 1539,-302 1440.7197,-254.4502 1402.2302,-291.2022 1296,-266 1203.5566,-244.0686 1182.982,-229.4961 1093,-199 1021.2483,-174.6824 993.2175,-187.6326 932,-143 910.8601,-127.5872 893.9112,-102.2868 883.9174,-84.9209"/>
<polygon fill="#191970" stroke="#191970" points="886.7522,-82.8137 878.8577,-75.7477 880.6228,-86.1945 886.7522,-82.8137"/>
</g>
<!-- Node47&#45;&gt;Node12 -->
<g id="edge58" class="edge">
<title>Node47&#45;&gt;Node12</title>
<path fill="none" stroke="#191970" d="M1665.6527,-369.4176C1634.2036,-360.3064 1585.7872,-346.0879 1544,-333 1541.2328,-332.1333 1538.3783,-331.2257 1535.5076,-330.3031"/>
<polygon fill="#191970" stroke="#191970" points="1536.3809,-326.9068 1525.7887,-327.1459 1534.2181,-333.5643 1536.3809,-326.9068"/>
</g>
<!-- Node47&#45;&gt;Node44 -->
<g id="edge69" class="edge">
<title>Node47&#45;&gt;Node44</title>
<path fill="none" stroke="#191970" d="M1760.5825,-374.6874C1843.7783,-368.1615 1987.1774,-354.2403 2035,-333 2043.9369,-329.0307 2144.8081,-242.0426 2187.3038,-205.2267"/>
<polygon fill="#191970" stroke="#191970" points="2189.7167,-207.7669 2194.98,-198.5719 2185.1314,-202.4778 2189.7167,-207.7669"/>
</g>
<!-- Node47&#45;&gt;Node27 -->
<g id="edge59" class="edge">
<title>Node47&#45;&gt;Node27</title>
<path fill="none" stroke="#191970" d="M1760.6482,-374.8663C1850.6422,-368.2317 2013.232,-353.8055 2068,-333 2166.3027,-295.6564 2198.8697,-282.3384 2263,-199 2288.5043,-165.8567 2287.6034,-113.8986 2284.7739,-85.7385"/>
<polygon fill="#191970" stroke="#191970" points="2288.2202,-85.0798 2283.5585,-75.5656 2281.2696,-85.9103 2288.2202,-85.0798"/>
</g>
<!-- Node47&#45;&gt;Node26 -->
<g id="edge70" class="edge">
<title>Node47&#45;&gt;Node26</title>
<path fill="none" stroke="#191970" d="M1679.9346,-369.4183C1662.6546,-360.5336 1636.6557,-346.6624 1615,-333 1595.0743,-320.4291 1593.4005,-311.8529 1572,-302 1395.848,-220.899 1331.721,-261.0767 1148,-199 1099.4485,-182.5951 1045.3951,-157.4382 1013.3445,-141.7536"/>
<polygon fill="#191970" stroke="#191970" points="1014.6512,-138.4956 1004.1346,-137.2103 1011.5543,-144.7733 1014.6512,-138.4956"/>
</g>
<!-- Node48 -->
<g id="node35" class="node">
<title>Node48</title>
<g id="a_node35"><a xlink:href="Generic_2Image_8hpp.html" target="_top" xlink:title="GenericImage definition and implementation.">
<polygon fill="#ffffff" stroke="#000000" points="1904,-302.5 1904,-332.5 2026,-332.5 2026,-302.5 1904,-302.5"/>
<text text-anchor="start" x="1912" y="-320.5" font-family="Helvetica,sans-Serif" font-size="10.00" fill="#000000">LLU/Containers/Generic</text>
<text text-anchor="middle" x="1965" y="-309.5" font-family="Helvetica,sans-Serif" font-size="10.00" fill="#000000">/Image.hpp</text>
</a>
</g>
</g>
<!-- Node47&#45;&gt;Node48 -->
<g id="edge60" class="edge">
<title>Node47&#45;&gt;Node48</title>
<path fill="none" stroke="#191970" d="M1740.2706,-369.4581C1781.227,-359.9889 1844.8106,-345.2881 1893.9071,-333.9369"/>
<polygon fill="#191970" stroke="#191970" points="1894.8815,-337.304 1903.836,-331.6413 1893.3046,-330.4839 1894.8815,-337.304"/>
</g>
<!-- Node49 -->
<g id="node36" class="node">
<title>Node49</title>
<g id="a_node36"><a xlink:href="Generic_2NumericArray_8hpp.html" target="_top" xlink:title="GenericNumericArray definition and implementation.">
<polygon fill="#ffffff" stroke="#000000" points="1764,-302.5 1764,-332.5 1886,-332.5 1886,-302.5 1764,-302.5"/>
<text text-anchor="start" x="1772" y="-320.5" font-family="Helvetica,sans-Serif" font-size="10.00" fill="#000000">LLU/Containers/Generic</text>
<text text-anchor="middle" x="1825" y="-309.5" font-family="Helvetica,sans-Serif" font-size="10.00" fill="#000000">/NumericArray.hpp</text>
</a>
</g>
</g>
<!-- Node47&#45;&gt;Node49 -->
<g id="edge63" class="edge">
<title>Node47&#45;&gt;Node49</title>
<path fill="none" stroke="#191970" d="M1718.6875,-369.3906C1736.3716,-360.7591 1762.8806,-347.8202 1785.003,-337.0224"/>
<polygon fill="#191970" stroke="#191970" points="1786.7255,-340.0763 1794.1769,-332.5446 1783.655,-333.7857 1786.7255,-340.0763"/>
</g>
<!-- Node50 -->
<g id="node37" class="node">
<title>Node50</title>
<g id="a_node37"><a xlink:href="Generic_2Tensor_8hpp.html" target="_top" xlink:title="GenericTensor definition and implementation.">
<polygon fill="#ffffff" stroke="#000000" points="1624,-302.5 1624,-332.5 1746,-332.5 1746,-302.5 1624,-302.5"/>
<text text-anchor="start" x="1632" y="-320.5" font-family="Helvetica,sans-Serif" font-size="10.00" fill="#000000">LLU/Containers/Generic</text>
<text text-anchor="middle" x="1685" y="-309.5" font-family="Helvetica,sans-Serif" font-size="10.00" fill="#000000">/Tensor.hpp</text>
</a>
</g>
</g>
<!-- Node47&#45;&gt;Node50 -->
<g id="edge66" class="edge">
<title>Node47&#45;&gt;Node50</title>
<path fill="none" stroke="#191970" d="M1696.8125,-369.3906C1695.1634,-362.1463 1692.8236,-351.8679 1690.6609,-342.3676"/>
<polygon fill="#191970" stroke="#191970" points="1694.0572,-341.5182 1688.4248,-332.5446 1687.2318,-343.072 1694.0572,-341.5182"/>
</g>
<!-- Node48&#45;&gt;Node14 -->
<g id="edge61" class="edge">
<title>Node48&#45;&gt;Node14</title>
<path fill="none" stroke="#191970" d="M1906.8753,-302.4639C1867.524,-292.2842 1815.3854,-278.7966 1774.089,-268.1138"/>
<polygon fill="#191970" stroke="#191970" points="1774.9361,-264.7177 1764.3782,-265.6017 1773.1829,-271.4947 1774.9361,-264.7177"/>
</g>
<!-- Node48&#45;&gt;Node45 -->
<g id="edge62" class="edge">
<title>Node48&#45;&gt;Node45</title>
<path fill="none" stroke="#191970" d="M1960.6103,-302.2548C1953.877,-278.87 1941.0038,-234.1619 1933.6051,-208.4665"/>
<polygon fill="#191970" stroke="#191970" points="1936.9337,-207.3769 1930.8033,-198.7358 1930.207,-209.3138 1936.9337,-207.3769"/>
</g>
<!-- Node49&#45;&gt;Node14 -->
<g id="edge64" class="edge">
<title>Node49&#45;&gt;Node14</title>
<path fill="none" stroke="#191970" d="M1798.2941,-302.4639C1781.7216,-293.1332 1760.2129,-281.0232 1742.1289,-270.8415"/>
<polygon fill="#191970" stroke="#191970" points="1743.4595,-267.574 1733.0285,-265.7177 1740.0252,-273.6737 1743.4595,-267.574"/>
</g>
<!-- Node49&#45;&gt;Node45 -->
<g id="edge65" class="edge">
<title>Node49&#45;&gt;Node45</title>
<path fill="none" stroke="#191970" d="M1837.2199,-302.2548C1856.3825,-278.3481 1893.4085,-232.1554 1913.7526,-206.7747"/>
<polygon fill="#191970" stroke="#191970" points="1916.6728,-208.7276 1920.1962,-198.7358 1911.2109,-204.3495 1916.6728,-208.7276"/>
</g>
<!-- Node50&#45;&gt;Node14 -->
<g id="edge67" class="edge">
<title>Node50&#45;&gt;Node14</title>
<path fill="none" stroke="#191970" d="M1689.7652,-302.2967C1692.2623,-294.3299 1695.3835,-284.3718 1698.2202,-275.3213"/>
<polygon fill="#191970" stroke="#191970" points="1701.6025,-276.2323 1701.2536,-265.6432 1694.9229,-274.1386 1701.6025,-276.2323"/>
</g>
<!-- Node50&#45;&gt;Node45 -->
<g id="edge68" class="edge">
<title>Node50&#45;&gt;Node45</title>
<path fill="none" stroke="#191970" d="M1713.8295,-302.2548C1761.1299,-277.242 1854.5638,-227.8335 1900.788,-203.3899"/>
<polygon fill="#191970" stroke="#191970" points="1902.6976,-206.3394 1909.9015,-198.5706 1899.4253,-200.1513 1902.6976,-206.3394"/>
</g>
<!-- Node51&#45;&gt;Node6 -->
<g id="edge76" class="edge">
<title>Node51&#45;&gt;Node6</title>
<path fill="none" stroke="#191970" d="M1897.1669,-635.2641C1980.3577,-626.3611 2123.0975,-608.9721 2172,-590 2283.5886,-546.7084 2396,-560.192 2396,-440.5 2396,-440.5 2396,-440.5 2396,-379 2396,-268.3241 2396,-135.635 2396,-86.0142"/>
<polygon fill="#191970" stroke="#191970" points="2399.5001,-85.7358 2396,-75.7359 2392.5001,-85.7359 2399.5001,-85.7358"/>
</g>
<!-- Node51&#45;&gt;Node44 -->
<g id="edge82" class="edge">
<title>Node51&#45;&gt;Node44</title>
<path fill="none" stroke="#191970" d="M1897.1183,-634.2489C2011.5348,-619.1517 2244,-579.6056 2244,-507.5 2244,-507.5 2244,-507.5 2244,-317.5 2244,-277.195 2226.596,-232.5903 2215.3445,-207.9654"/>
<polygon fill="#191970" stroke="#191970" points="2218.4056,-206.2511 2210.9678,-198.7058 2212.0769,-209.2425 2218.4056,-206.2511"/>
</g>
<!-- Node51&#45;&gt;Node46 -->
<g id="edge81" class="edge">
<title>Node51&#45;&gt;Node46</title>
<path fill="none" stroke="#191970" d="M1849.7319,-626.3923C1883.9394,-591.3121 1968.8929,-504.1914 2009.1612,-462.8959"/>
<polygon fill="#191970" stroke="#191970" points="2011.8889,-465.1119 2016.3646,-455.5088 2006.8772,-460.2249 2011.8889,-465.1119"/>
</g>
<!-- Node51&#45;&gt;Node21 -->
<g id="edge74" class="edge">
<title>Node51&#45;&gt;Node21</title>
<path fill="none" stroke="#191970" d="M1772.8778,-637.0237C1672.8505,-629.212 1485.1076,-611.8215 1464,-590 1374.6176,-497.5944 1361.9861,-406.4074 1437,-302 1446.3447,-288.9937 1660.28,-224.0949 1744.4338,-198.9631"/>
<polygon fill="#191970" stroke="#191970" points="1745.6792,-202.2441 1754.2622,-196.0326 1743.679,-195.536 1745.6792,-202.2441"/>
</g>
<!-- Node52 -->
<g id="node39" class="node">
<title>Node52</title>
<g id="a_node39"><a xlink:title=" ">
<polygon fill="#ffffff" stroke="#bfbfbf" points="1820.5,-565 1820.5,-584 1849.5,-584 1849.5,-565 1820.5,-565"/>
<text text-anchor="middle" x="1835" y="-572" font-family="Helvetica,sans-Serif" font-size="10.00" fill="#000000">list</text>
</a>
</g>
</g>
<!-- Node51&#45;&gt;Node52 -->
<g id="edge75" class="edge">
<title>Node51&#45;&gt;Node52</title>
<path fill="none" stroke="#191970" d="M1835,-626.2967C1835,-616.7699 1835,-604.3954 1835,-594.1306"/>
<polygon fill="#191970" stroke="#191970" points="1838.5001,-594.0549 1835,-584.055 1831.5001,-594.055 1838.5001,-594.0549"/>
</g>
<!-- Node53 -->
<g id="node40" class="node">
<title>Node53</title>
<g id="a_node40"><a xlink:href="DataNode_8hpp.html" target="_top" xlink:title=" ">
<polygon fill="#ffffff" stroke="#000000" points="1473,-559.5 1473,-589.5 1597,-589.5 1597,-559.5 1473,-559.5"/>
<text text-anchor="start" x="1481" y="-577.5" font-family="Helvetica,sans-Serif" font-size="10.00" fill="#000000">LLU/Containers/Iterators</text>
<text text-anchor="middle" x="1535" y="-566.5" font-family="Helvetica,sans-Serif" font-size="10.00" fill="#000000">/DataNode.hpp</text>
</a>
</g>
</g>
<!-- Node51&#45;&gt;Node53 -->
<g id="edge77" class="edge">
<title>Node51&#45;&gt;Node53</title>
<path fill="none" stroke="#191970" d="M1772.8398,-627.6176C1724.5704,-616.8374 1657.5635,-601.8725 1606.97,-590.5733"/>
<polygon fill="#191970" stroke="#191970" points="1607.603,-587.1285 1597.0806,-588.3647 1606.0772,-593.9602 1607.603,-587.1285"/>
</g>
<!-- Node53&#45;&gt;Node7 -->
<g id="edge78" class="edge">
<title>Node53&#45;&gt;Node7</title>
<path fill="none" stroke="#191970" d="M1472.7485,-569.9762C1256.5246,-553.4822 540.1748,-492.0806 337,-389 258.8826,-349.3672 195.7189,-320.6673 214,-235 226.4974,-176.4356 224.2877,-151.8344 269,-112 298.0959,-86.0784 341.7596,-74.76 373.7573,-69.8202"/>
<polygon fill="#191970" stroke="#191970" points="374.2837,-73.2808 383.703,-68.4301 373.3147,-66.3481 374.2837,-73.2808"/>
</g>
<!-- Node53&#45;&gt;Node13 -->
<g id="edge79" class="edge">
<title>Node53&#45;&gt;Node13</title>
<path fill="none" stroke="#191970" d="M1555.4224,-559.2967C1567.5048,-550.302 1582.9972,-538.7687 1596.2948,-528.8694"/>
<polygon fill="#191970" stroke="#191970" points="1598.7271,-531.4221 1604.6584,-522.6432 1594.5471,-525.8072 1598.7271,-531.4221"/>
</g>
<!-- Node53&#45;&gt;Node47 -->
<g id="edge80" class="edge">
<title>Node53&#45;&gt;Node47</title>
<path fill="none" stroke="#191970" d="M1535.7166,-559.3381C1537.1776,-541.8457 1541.6049,-512.8231 1555,-492 1584.105,-446.7555 1637.6875,-411.9354 1670.6468,-393.538"/>
<polygon fill="#191970" stroke="#191970" points="1672.652,-396.4314 1679.761,-388.5756 1669.3047,-390.2835 1672.652,-396.4314"/>
</g>
<!-- Node54&#45;&gt;Node48 -->
<g id="edge89" class="edge">
<title>Node54&#45;&gt;Node48</title>
<path fill="none" stroke="#191970" d="M1141.5815,-376.8152C1301.9192,-370.9247 1730.571,-353.8337 1893.3121,-333.0488"/>
<polygon fill="#191970" stroke="#191970" points="1894.1904,-336.4629 1903.6414,-331.6744 1893.2671,-329.524 1894.1904,-336.4629"/>
</g>
<!-- Node55 -->
<g id="node42" class="node">
<title>Node55</title>
<g id="a_node42"><a xlink:title=" ">
<polygon fill="#ffffff" stroke="#bfbfbf" points="1104,-308 1104,-327 1142,-327 1142,-308 1104,-308"/>
<text text-anchor="middle" x="1123" y="-315" font-family="Helvetica,sans-Serif" font-size="10.00" fill="#000000">array</text>
</a>
</g>
</g>
<!-- Node54&#45;&gt;Node55 -->
<g id="edge88" class="edge">
<title>Node54&#45;&gt;Node55</title>
<path fill="none" stroke="#191970" d="M1086.7188,-369.3906C1092.993,-360.417 1102.5223,-346.7879 1110.2404,-335.7491"/>
<polygon fill="#191970" stroke="#191970" points="1113.3247,-337.4459 1116.1865,-327.2449 1107.5879,-333.4348 1113.3247,-337.4459"/>
</g>
<!-- Node56 -->
<g id="node43" class="node">
<title>Node56</title>
<g id="a_node43"><a xlink:href="MArray_8hpp.html" target="_top" xlink:title="Template base class for C++ wrappers of LibraryLink containers.">
<polygon fill="#ffffff" stroke="#000000" points="609,-308 609,-327 747,-327 747,-308 609,-308"/>
<text text-anchor="middle" x="678" y="-315" font-family="Helvetica,sans-Serif" font-size="10.00" fill="#000000">LLU/Containers/MArray.hpp</text>
</a>
</g>
</g>
<!-- Node54&#45;&gt;Node56 -->
<g id="edge90" class="edge">
<title>Node54&#45;&gt;Node56</title>
<path fill="none" stroke="#191970" d="M1018.0685,-369.5254C945.8767,-358.4811 826.7397,-340.2549 750.3546,-328.5692"/>
<polygon fill="#191970" stroke="#191970" points="750.747,-325.0886 740.3327,-327.036 749.6884,-332.0081 750.747,-325.0886"/>
</g>
<!-- Node56&#45;&gt;Node7 -->
<g id="edge93" class="edge">
<title>Node56&#45;&gt;Node7</title>
<path fill="none" stroke="#191970" d="M628.5526,-307.9855C602.3323,-300.596 571.4118,-287.7934 551,-266 501.7129,-213.3768 546.2978,-167.2714 500,-112 487.9308,-97.5915 470.1496,-86.9851 453.9658,-79.6121"/>
<polygon fill="#191970" stroke="#191970" points="455.2477,-76.3537 444.6769,-75.6403 452.4956,-82.79 455.2477,-76.3537"/>
</g>
<!-- Node56&#45;&gt;Node8 -->
<g id="edge94" class="edge">
<title>Node56&#45;&gt;Node8</title>
<path fill="none" stroke="#191970" d="M677.7352,-307.7592C677.7822,-291.1121 680.1135,-256.8717 697,-235 786.79,-118.7027 973.9373,-80.5098 1046.9309,-69.735"/>
<polygon fill="#191970" stroke="#191970" points="1047.433,-73.1989 1056.847,-68.3382 1046.4565,-66.2673 1047.433,-73.1989"/>
</g>
<!-- Node56&#45;&gt;Node9 -->
<g id="edge95" class="edge">
<title>Node56&#45;&gt;Node9</title>
<path fill="none" stroke="#191970" d="M674.6353,-307.7709C671.2618,-297.5212 666.2543,-280.8398 664,-266 657.6445,-224.163 657.6617,-174.4411 658.295,-147.4148"/>
<polygon fill="#191970" stroke="#191970" points="661.7966,-147.4078 658.5874,-137.3107 654.7995,-147.2053 661.7966,-147.4078"/>
</g>
<!-- Node56&#45;&gt;Node11 -->
<g id="edge91" class="edge">
<title>Node56&#45;&gt;Node11</title>
<path fill="none" stroke="#191970" d="M608.6605,-308.1539C577.8921,-300.9798 543.0594,-288.3203 518,-266 481.9681,-233.9066 465.281,-177.0984 458.6772,-147.1846"/>
<polygon fill="#191970" stroke="#191970" points="462.0562,-146.2385 456.6207,-137.1442 455.1986,-147.6432 462.0562,-146.2385"/>
</g>
<!-- Node56&#45;&gt;Node28 -->
<g id="edge107" class="edge">
<title>Node56&#45;&gt;Node28</title>
<path fill="none" stroke="#191970" d="M747.1439,-310.034C963.6529,-286.5116 1615.1356,-214.5785 1631,-199 1661.1188,-169.4241 1658.1487,-115.1964 1653.8212,-85.9525"/>
<polygon fill="#191970" stroke="#191970" points="1657.2139,-85.0226 1652.1003,-75.7435 1650.3113,-86.1862 1657.2139,-85.0226"/>
</g>
<!-- Node56&#45;&gt;Node26 -->
<g id="edge108" class="edge">
<title>Node56&#45;&gt;Node26</title>
<path fill="none" stroke="#191970" d="M747.2081,-308.1104C802.0358,-299.4171 872.953,-284.9754 895,-266 926.5893,-238.8117 906.454,-213.39 930,-179 939.1869,-165.5822 952.4207,-153.0518 963.6049,-143.7109"/>
<polygon fill="#191970" stroke="#191970" points="966.0628,-146.2253 971.6569,-137.2277 961.6728,-140.773 966.0628,-146.2253"/>
</g>
<!-- Node57 -->
<g id="node44" class="node">
<title>Node57</title>
<g id="a_node44"><a xlink:title=" ">
<polygon fill="#ffffff" stroke="#bfbfbf" points="560,-241 560,-260 612,-260 612,-241 560,-241"/>
<text text-anchor="middle" x="586" y="-248" font-family="Helvetica,sans-Serif" font-size="10.00" fill="#000000">ostream</text>
</a>
</g>
</g>
<!-- Node56&#45;&gt;Node57 -->
<g id="edge92" class="edge">
<title>Node56&#45;&gt;Node57</title>
<path fill="none" stroke="#191970" d="M664.8186,-307.9005C649.7889,-296.9549 625.0058,-278.9064 607.2407,-265.9688"/>
<polygon fill="#191970" stroke="#191970" points="609.3009,-263.1394 599.1569,-260.0817 605.18,-268.7979 609.3009,-263.1394"/>
</g>
<!-- Node58 -->
<g id="node45" class="node">
<title>Node58</title>
<g id="a_node45"><a xlink:href="IterableContainer_8hpp.html" target="_top" xlink:title="Implementation of the IterableContainer class.">
<polygon fill="#ffffff" stroke="#000000" points="942,-235.5 942,-265.5 1066,-265.5 1066,-235.5 942,-235.5"/>
<text text-anchor="start" x="950" y="-253.5" font-family="Helvetica,sans-Serif" font-size="10.00" fill="#000000">LLU/Containers/Iterators</text>
<text text-anchor="middle" x="1004" y="-242.5" font-family="Helvetica,sans-Serif" font-size="10.00" fill="#000000">/IterableContainer.hpp</text>
</a>
</g>
</g>
<!-- Node56&#45;&gt;Node58 -->
<g id="edge96" class="edge">
<title>Node56&#45;&gt;Node58</title>
<path fill="none" stroke="#191970" d="M724.3616,-307.9717C778.5077,-296.8435 868.7137,-278.3042 931.995,-265.2986"/>
<polygon fill="#191970" stroke="#191970" points="932.8198,-268.7023 941.9104,-263.2607 931.4105,-261.8456 932.8198,-268.7023"/>
</g>
<!-- Node59 -->
<g id="node46" class="node">
<title>Node59</title>
<g id="a_node46"><a xlink:href="MArrayDimensions_8h.html" target="_top" xlink:title=" ">
<polygon fill="#ffffff" stroke="#000000" points="706.5,-241 706.5,-260 885.5,-260 885.5,-241 706.5,-241"/>
<text text-anchor="middle" x="796" y="-248" font-family="Helvetica,sans-Serif" font-size="10.00" fill="#000000">LLU/Containers/MArrayDimensions.h</text>
</a>
</g>
</g>
<!-- Node56&#45;&gt;Node59 -->
<g id="edge100" class="edge">
<title>Node56&#45;&gt;Node59</title>
<path fill="none" stroke="#191970" d="M694.9065,-307.9005C714.622,-296.7062 747.4222,-278.0823 770.2959,-265.0947"/>
<polygon fill="#191970" stroke="#191970" points="772.157,-268.0629 779.1248,-260.0817 768.7007,-261.9757 772.157,-268.0629"/>
</g>
<!-- Node58&#45;&gt;Node9 -->
<g id="edge98" class="edge">
<title>Node58&#45;&gt;Node9</title>
<path fill="none" stroke="#191970" d="M961.6962,-235.4178C891.6442,-210.4427 753.105,-161.0505 690.7392,-138.8157"/>
<polygon fill="#191970" stroke="#191970" points="691.6513,-135.4252 681.0567,-135.3637 689.3006,-142.0187 691.6513,-135.4252"/>
</g>
<!-- Node58&#45;&gt;Node28 -->
<g id="edge99" class="edge">
<title>Node58&#45;&gt;Node28</title>
<path fill="none" stroke="#191970" d="M1066.12,-242.0242C1082.9538,-239.7355 1101.1741,-237.2656 1118,-235 1237.9792,-218.8449 1284.779,-262.2568 1388,-199 1428.0484,-174.4572 1409.114,-138.3458 1448,-112 1471.1699,-96.302 1540.8195,-82.6904 1591.8752,-74.4298"/>
<polygon fill="#191970" stroke="#191970" points="1592.4922,-77.8758 1601.8191,-72.85 1591.3938,-70.9625 1592.4922,-77.8758"/>
</g>
<!-- Node58&#45;&gt;Node21 -->
<g id="edge97" class="edge">
<title>Node58&#45;&gt;Node21</title>
<path fill="none" stroke="#191970" d="M1066.0313,-245.5712C1221.6837,-233.2034 1624.8538,-201.1686 1744.224,-191.6837"/>
<polygon fill="#191970" stroke="#191970" points="1744.5508,-195.1689 1754.2421,-190.8877 1743.9962,-188.1909 1744.5508,-195.1689"/>
</g>
<!-- Node59&#45;&gt;Node7 -->
<g id="edge102" class="edge">
<title>Node59&#45;&gt;Node7</title>
<path fill="none" stroke="#191970" d="M791.7391,-240.7716C779.8648,-214.9245 743.7064,-144.3133 690,-112 651.3177,-88.7262 523.0174,-74.9475 456.2252,-69.1827"/>
<polygon fill="#191970" stroke="#191970" points="456.3153,-65.678 446.0567,-68.3261 455.7276,-72.6533 456.3153,-65.678"/>
</g>
<!-- Node59&#45;&gt;Node9 -->
<g id="edge103" class="edge">
<title>Node59&#45;&gt;Node9</title>
<path fill="none" stroke="#191970" d="M770.5308,-240.9225C750.1758,-232.3099 721.8617,-218.0781 702,-199 686.4037,-184.019 674.3739,-162.1936 667.0551,-146.6022"/>
<polygon fill="#191970" stroke="#191970" points="670.2134,-145.091 662.9358,-137.3912 663.8233,-147.9488 670.2134,-145.091"/>
</g>
<!-- Node59&#45;&gt;Node11 -->
<g id="edge101" class="edge">
<title>Node59&#45;&gt;Node11</title>
<path fill="none" stroke="#191970" d="M769.5261,-240.9507C708.9719,-219.1086 560.2841,-165.4764 491.2756,-140.5848"/>
<polygon fill="#191970" stroke="#191970" points="492.2865,-137.2287 481.6922,-137.128 489.9114,-143.8135 492.2865,-137.2287"/>
</g>
<!-- Node59&#45;&gt;Node15 -->
<g id="edge104" class="edge">
<title>Node59&#45;&gt;Node15</title>
<path fill="none" stroke="#191970" d="M875.6344,-240.9692C894.4316,-238.864 914.4112,-236.7439 933,-235 1124.2074,-217.0625 1349.2833,-201.7432 1467.6581,-194.1341"/>
<polygon fill="#191970" stroke="#191970" points="1467.9774,-197.6209 1477.7331,-193.4885 1467.5297,-190.6352 1467.9774,-197.6209"/>
</g>
<!-- Node59&#45;&gt;Node28 -->
<g id="edge105" class="edge">
<title>Node59&#45;&gt;Node28</title>
<path fill="none" stroke="#191970" d="M876.734,-240.9914C895.2127,-238.9191 914.7781,-236.8077 933,-235 979.8293,-230.3543 1323.1697,-233.6613 1355,-199 1382.8006,-168.7269 1315.5119,-165.217 1304,-143 1297.6613,-130.7669 1294.9223,-122.3645 1304,-112 1322.6163,-90.7449 1497.7575,-76.0445 1591.4706,-69.6299"/>
<polygon fill="#191970" stroke="#191970" points="1591.912,-73.1081 1601.654,-68.9435 1591.4412,-66.124 1591.912,-73.1081"/>
</g>
<!-- Node59&#45;&gt;Node26 -->
<g id="edge106" class="edge">
<title>Node59&#45;&gt;Node26</title>
<path fill="none" stroke="#191970" d="M807.7526,-240.9357C825.4902,-226.6902 860.3924,-199.391 892,-179 913.2277,-165.3054 938.3418,-151.5326 957.118,-141.6801"/>
<polygon fill="#191970" stroke="#191970" points="958.7838,-144.7589 966.0427,-137.0414 955.5555,-138.5478 958.7838,-144.7589"/>
</g>
<!-- Node60&#45;&gt;Node7 -->
<g id="edge111" class="edge">
<title>Node60&#45;&gt;Node7</title>
<path fill="none" stroke="#191970" d="M618.2298,-369.4534C588.4296,-362.68 552.8962,-351.4095 525,-333 442.4223,-278.5045 431.2591,-239.4021 409,-143 404.582,-123.8661 407.1826,-101.4241 410.2173,-85.7212"/>
<polygon fill="#191970" stroke="#191970" points="413.7085,-86.1365 412.4095,-75.6216 406.8678,-84.6516 413.7085,-86.1365"/>
</g>
<!-- Node60&#45;&gt;Node11 -->
<g id="edge110" class="edge">
<title>Node60&#45;&gt;Node11</title>
<path fill="none" stroke="#191970" d="M651.107,-369.4548C610.7403,-353.8385 534.487,-319.1454 490,-266 461.1899,-231.5826 455.6221,-176.61 454.833,-147.3453"/>
<polygon fill="#191970" stroke="#191970" points="458.331,-147.1219 454.7282,-137.1584 451.3314,-147.1939 458.331,-147.1219"/>
</g>
<!-- Node60&#45;&gt;Node28 -->
<g id="edge114" class="edge">
<title>Node60&#45;&gt;Node28</title>
<path fill="none" stroke="#191970" d="M756.2721,-373.9636C849.6707,-367.1574 999.7702,-353.4691 1052,-333 1073.9354,-324.4034 1073.336,-311.2593 1095,-302 1123.8866,-289.6537 1627.4133,-219.7493 1651,-199 1680.6467,-172.9197 1676.6839,-150.7307 1669,-112 1667.1352,-102.6003 1663.3201,-92.7115 1659.5946,-84.5215"/>
<polygon fill="#191970" stroke="#191970" points="1662.7433,-82.993 1655.2318,-75.5212 1656.4443,-86.0464 1662.7433,-82.993"/>
</g>
<!-- Node60&#45;&gt;Node26 -->
<g id="edge115" class="edge">
<title>Node60&#45;&gt;Node26</title>
<path fill="none" stroke="#191970" d="M746.7958,-369.4399C849.5981,-353.5865 1035.4879,-318.328 1075,-266 1125.3059,-199.3772 995.4755,-237.233 968,-199 956.7776,-183.3836 964.662,-161.372 973.0451,-145.9084"/>
<polygon fill="#191970" stroke="#191970" points="976.0916,-147.6325 978.1628,-137.2421 970.0641,-144.0731 976.0916,-147.6325"/>
</g>
<!-- Node60&#45;&gt;Node49 -->
<g id="edge112" class="edge">
<title>Node60&#45;&gt;Node49</title>
<path fill="none" stroke="#191970" d="M756.2394,-376.4518C981.0382,-369.0222 1620.7063,-347.0869 1753.657,-332.9003"/>
<polygon fill="#191970" stroke="#191970" points="1754.1263,-336.3693 1763.6479,-331.7227 1753.3069,-329.4175 1754.1263,-336.3693"/>
</g>
<!-- Node60&#45;&gt;Node56 -->
<g id="edge113" class="edge">
<title>Node60&#45;&gt;Node56</title>
<path fill="none" stroke="#191970" d="M678,-369.3906C678,-360.8657 678,-348.1392 678,-337.4235"/>
<polygon fill="#191970" stroke="#191970" points="681.5001,-337.2448 678,-327.2449 674.5001,-337.2449 681.5001,-337.2448"/>
</g>
<!-- Node61&#45;&gt;Node7 -->
<g id="edge118" class="edge">
<title>Node61&#45;&gt;Node7</title>
<path fill="none" stroke="#191970" d="M392.3069,-369.4669C364.8291,-352.6841 311.0227,-314.9536 290,-266 262.9922,-203.1095 250.8416,-168.1361 290,-112 299.9813,-97.6912 341.6228,-84.2692 374.1348,-75.6596"/>
<polygon fill="#191970" stroke="#191970" points="375.0763,-79.0314 383.8864,-73.1465 373.3294,-72.2528 375.0763,-79.0314"/>
</g>
<!-- Node61&#45;&gt;Node11 -->
<g id="edge117" class="edge">
<title>Node61&#45;&gt;Node11</title>
<path fill="none" stroke="#191970" d="M407.0114,-369.4094C402.5249,-346.0598 392.8445,-284.5401 404,-235 411.5216,-201.5974 430.6828,-166.384 443.2581,-145.7071"/>
<polygon fill="#191970" stroke="#191970" points="446.3405,-147.3788 448.6649,-137.042 440.4018,-143.6731 446.3405,-147.3788"/>
</g>
<!-- Node61&#45;&gt;Node28 -->
<g id="edge121" class="edge">
<title>Node61&#45;&gt;Node28</title>
<path fill="none" stroke="#191970" d="M472.0002,-372.0633C664.5254,-350.188 1242.3,-279.3236 1412,-199 1467.3991,-172.7781 1465.5137,-141.9308 1519,-112 1545.0907,-97.3997 1576.6514,-86.1489 1602.2567,-78.4292"/>
<polygon fill="#191970" stroke="#191970" points="1603.4992,-81.7124 1612.1119,-75.5421 1601.5312,-74.9947 1603.4992,-81.7124"/>
</g>
<!-- Node61&#45;&gt;Node26 -->
<g id="edge122" class="edge">
<title>Node61&#45;&gt;Node26</title>
<path fill="none" stroke="#191970" d="M415.6738,-369.1451C433.979,-342.9171 487.8412,-270.9613 551,-235 674.8084,-164.5061 844.1712,-139.8365 930.1285,-131.5189"/>
<polygon fill="#191970" stroke="#191970" points="930.5559,-134.9943 940.189,-130.5836 929.9079,-128.0244 930.5559,-134.9943"/>
</g>
<!-- Node61&#45;&gt;Node50 -->
<g id="edge119" class="edge">
<title>Node61&#45;&gt;Node50</title>
<path fill="none" stroke="#191970" d="M472.1581,-375.2663C507.1682,-373.2629 551.4865,-370.8357 591,-369 1012.1828,-349.4333 1118.4512,-363.2737 1539,-333 1563.4705,-331.2385 1590.1786,-328.6105 1613.9827,-326.0165"/>
<polygon fill="#191970" stroke="#191970" points="1614.4371,-329.4877 1623.9917,-324.9096 1613.6675,-322.5302 1614.4371,-329.4877"/>
</g>
<!-- Node61&#45;&gt;Node56 -->
<g id="edge120" class="edge">
<title>Node61&#45;&gt;Node56</title>
<path fill="none" stroke="#191970" d="M450.7361,-369.4581C498.0515,-358.6406 575.2292,-340.9959 626.3136,-329.3168"/>
<polygon fill="#191970" stroke="#191970" points="627.1976,-332.7051 636.166,-327.0643 625.6374,-325.8811 627.1976,-332.7051"/>
</g>
<!-- Node62&#45;&gt;Node5 -->
<g id="edge127" class="edge">
<title>Node62&#45;&gt;Node5</title>
<path fill="none" stroke="#191970" d="M1269.4625,-179.493C1266.009,-170.1966 1260.6149,-155.6358 1256,-143 1241.2623,-102.648 1224.2434,-55.3138 1214.949,-29.3999"/>
<polygon fill="#191970" stroke="#191970" points="1218.1369,-27.9207 1211.4678,-19.6882 1211.5475,-30.2827 1218.1369,-27.9207"/>
</g>
<!-- Node62&#45;&gt;Node8 -->
<g id="edge129" class="edge">
<title>Node62&#45;&gt;Node8</title>
<path fill="none" stroke="#191970" d="M1255.8886,-179.3955C1239.7784,-170.2687 1215.0466,-156.0396 1194,-143 1160.7876,-122.4231 1123.1773,-97.344 1099.7723,-81.5197"/>
<polygon fill="#191970" stroke="#191970" points="1101.4873,-78.4539 1091.2462,-75.7394 1097.5592,-84.2479 1101.4873,-78.4539"/>
</g>
<!-- Node62&#45;&gt;Node17 -->
<g id="edge128" class="edge">
<title>Node62&#45;&gt;Node17</title>
<path fill="none" stroke="#191970" d="M1285.6563,-179.3906C1298.3768,-169.7324 1318.2004,-154.6812 1333.2284,-143.271"/>
<polygon fill="#191970" stroke="#191970" points="1335.5846,-145.8766 1341.4326,-137.0419 1331.3516,-140.3015 1335.5846,-145.8766"/>
</g>
<!-- Node62&#45;&gt;Node28 -->
<g id="edge130" class="edge">
<title>Node62&#45;&gt;Node28</title>
<path fill="none" stroke="#191970" d="M1268.8474,-179.3144C1262.6561,-163.1787 1253.4071,-130.7226 1270,-112 1290.9601,-88.3496 1490.5711,-74.4487 1591.7726,-68.8663"/>
<polygon fill="#191970" stroke="#191970" points="1592.0442,-72.3568 1601.84,-68.3205 1591.6652,-65.367 1592.0442,-72.3568"/>
</g>
<!-- Node62&#45;&gt;Node26 -->
<g id="edge131" class="edge">
<title>Node62&#45;&gt;Node26</title>
<path fill="none" stroke="#191970" d="M1228.316,-179.4581C1177.4475,-168.5956 1094.3405,-150.8488 1039.6549,-139.1711"/>
<polygon fill="#191970" stroke="#191970" points="1040.2993,-135.7299 1029.7888,-137.0643 1038.8374,-142.5755 1040.2993,-135.7299"/>
</g>
<!-- Node63&#45;&gt;Node61 -->
<g id="edge133" class="edge">
<title>Node63&#45;&gt;Node61</title>
<path fill="none" stroke="#191970" d="M387.8091,-631.8462C391.023,-593.4987 402.9261,-451.4727 407.3394,-398.8136"/>
<polygon fill="#191970" stroke="#191970" points="410.8361,-398.999 408.1836,-388.7416 403.8605,-398.4143 410.8361,-398.999"/>
</g>
</g>
</svg>
