<?xml version="1.0" encoding="UTF-8" standalone="no"?>
<!DOCTYPE svg PUBLIC "-//W3C//DTD SVG 1.1//EN"
 "http://www.w3.org/Graphics/SVG/1.1/DTD/svg11.dtd">
<!-- Generated by graphviz version 2.40.1 (20161225.0304)
 -->
<!-- Title: MArray.hpp Pages: 1 -->
<svg width="530pt" height="252pt"
 viewBox="0.00 0.00 529.50 252.00" xmlns="http://www.w3.org/2000/svg" xmlns:xlink="http://www.w3.org/1999/xlink">
<g id="graph0" class="graph" transform="scale(1 1) rotate(0) translate(4 248)">
<title>MArray.hpp</title>
<polygon fill="#ffffff" stroke="transparent" points="-4,4 -4,-248 525.5,-248 525.5,4 -4,4"/>
<!-- Node1 -->
<g id="node1" class="node">
<title>Node1</title>
<g id="a_node1"><a xlink:title="Template base class for C++ wrappers of LibraryLink containers.">
<polygon fill="#bfbfbf" stroke="#000000" points="164.5,-224.5 164.5,-243.5 231.5,-243.5 231.5,-224.5 164.5,-224.5"/>
<text text-anchor="middle" x="198" y="-231.5" font-family="Helvetica,sans-Serif" font-size="10.00" fill="#000000">MArray.hpp</text>
</a>
</g>
</g>
<!-- Node2 -->
<g id="node2" class="node">
<title>Node2</title>
<g id="a_node2"><a xlink:href="Image_8h.html" target="_top" xlink:title="Templated C++ wrapper for MImage.">
<polygon fill="#ffffff" stroke="#000000" points="5,-112.5 5,-131.5 57,-131.5 57,-112.5 5,-112.5"/>
<text text-anchor="middle" x="31" y="-119.5" font-family="Helvetica,sans-Serif" font-size="10.00" fill="#000000">Image.h</text>
</a>
</g>
</g>
<!-- Node1&#45;&gt;Node2 -->
<g id="edge1" class="edge">
<title>Node1&#45;&gt;Node2</title>
<path fill="none" stroke="#191970" d="M175.1587,-218.6813C140.1214,-195.1832 74.1344,-150.9284 45.2023,-131.5249"/>
<polygon fill="#191970" stroke="#191970" points="173.507,-221.7878 183.7617,-224.4509 177.406,-215.9742 173.507,-221.7878"/>
</g>
<!-- Node7 -->
<g id="node7" class="node">
<title>Node7</title>
<g id="a_node7"><a xlink:href="MArgumentManager_8cpp.html" target="_top" xlink:title="Definitions of non&#45;template member functions and static data members from MArgumentManager class.">
<polygon fill="#ffffff" stroke="#000000" points="398.5,-.5 398.5,-19.5 521.5,-19.5 521.5,-.5 398.5,-.5"/>
<text text-anchor="middle" x="460" y="-7.5" font-family="Helvetica,sans-Serif" font-size="10.00" fill="#000000">MArgumentManager.cpp</text>
</a>
</g>
</g>
<!-- Node1&#45;&gt;Node7 -->
<g id="edge19" class="edge">
<title>Node1&#45;&gt;Node7</title>
<path fill="none" stroke="#191970" d="M241.8711,-229.0565C298.301,-220.1963 394.8767,-196.0755 444,-132 470.1241,-97.9242 465.0887,-42.1487 461.7193,-19.7555"/>
<polygon fill="#191970" stroke="#191970" points="241.2039,-225.6169 231.822,-230.5395 242.2259,-232.5419 241.2039,-225.6169"/>
</g>
<!-- Node9 -->
<g id="node9" class="node">
<title>Node9</title>
<g id="a_node9"><a xlink:href="NumericArray_8h.html" target="_top" xlink:title="Templated C++ wrapper for MNumericArray.">
<polygon fill="#ffffff" stroke="#000000" points="75.5,-112.5 75.5,-131.5 160.5,-131.5 160.5,-112.5 75.5,-112.5"/>
<text text-anchor="middle" x="118" y="-119.5" font-family="Helvetica,sans-Serif" font-size="10.00" fill="#000000">NumericArray.h</text>
</a>
</g>
</g>
<!-- Node1&#45;&gt;Node9 -->
<g id="edge9" class="edge">
<title>Node1&#45;&gt;Node9</title>
<path fill="none" stroke="#191970" d="M185.2936,-216.2111C168.1421,-192.1989 138.1914,-150.2679 124.8035,-131.5249"/>
<polygon fill="#191970" stroke="#191970" points="182.5187,-218.3479 191.1792,-224.4509 188.2149,-214.2792 182.5187,-218.3479"/>
</g>
<!-- Node10 -->
<g id="node10" class="node">
<title>Node10</title>
<g id="a_node10"><a xlink:href="Tensor_8h.html" target="_top" xlink:title="Templated C++ wrapper for MTensor.">
<polygon fill="#ffffff" stroke="#000000" points="199.5,-168.5 199.5,-187.5 254.5,-187.5 254.5,-168.5 199.5,-168.5"/>
<text text-anchor="middle" x="227" y="-175.5" font-family="Helvetica,sans-Serif" font-size="10.00" fill="#000000">Tensor.h</text>
</a>
</g>
</g>
<!-- Node1&#45;&gt;Node10 -->
<g id="edge12" class="edge">
<title>Node1&#45;&gt;Node10</title>
<path fill="none" stroke="#191970" d="M207.6647,-215.3372C212.4687,-206.0605 218.0723,-195.2398 222.0065,-187.6427"/>
<polygon fill="#191970" stroke="#191970" points="204.542,-213.7561 203.0514,-224.2455 210.758,-216.9751 204.542,-213.7561"/>
</g>
<!-- Node3 -->
<g id="node3" class="node">
<title>Node3</title>
<g id="a_node3"><a xlink:href="LLU_8h.html" target="_top" xlink:title="Header file which includes all major parts of LLU.">
<polygon fill="#ffffff" stroke="#000000" points="121.5,-.5 121.5,-19.5 164.5,-19.5 164.5,-.5 121.5,-.5"/>
<text text-anchor="middle" x="143" y="-7.5" font-family="Helvetica,sans-Serif" font-size="10.00" fill="#000000">LLU.h</text>
</a>
</g>
</g>
<!-- Node2&#45;&gt;Node3 -->
<g id="edge2" class="edge">
<title>Node2&#45;&gt;Node3</title>
<path fill="none" stroke="#191970" d="M47.8464,-105.1536C71.6887,-81.3113 114.4844,-38.5156 133.4751,-19.5249"/>
<polygon fill="#191970" stroke="#191970" points="45.1453,-102.905 40.5491,-112.4509 50.095,-107.8547 45.1453,-102.905"/>
</g>
<!-- Node4 -->
<g id="node4" class="node">
<title>Node4</title>
<g id="a_node4"><a xlink:href="MArgumentManager_8h.html" target="_top" xlink:title="Definition of MArgumentManager class.">
<polygon fill="#ffffff" stroke="#000000" points="196.5,-56.5 196.5,-75.5 309.5,-75.5 309.5,-56.5 196.5,-56.5"/>
<text text-anchor="middle" x="253" y="-63.5" font-family="Helvetica,sans-Serif" font-size="10.00" fill="#000000">MArgumentManager.h</text>
</a>
</g>
</g>
<!-- Node2&#45;&gt;Node4 -->
<g id="edge3" class="edge">
<title>Node2&#45;&gt;Node4</title>
<path fill="none" stroke="#191970" d="M67.3425,-111.7061C122.7726,-97.066 176.5952,-84.0332 212.3989,-75.5283"/>
<polygon fill="#191970" stroke="#191970" points="66.1117,-108.4115 57.3443,-114.3598 67.9076,-115.1772 66.1117,-108.4115"/>
</g>
<!-- Node8 -->
<g id="node8" class="node">
<title>Node8</title>
<g id="a_node8"><a xlink:href="Image_8cpp.html" target="_top" xlink:title="Template specializations of Image::type attribute for all data types that we want to support.">
<polygon fill="#ffffff" stroke="#000000" points="0,-56.5 0,-75.5 62,-75.5 62,-56.5 0,-56.5"/>
<text text-anchor="middle" x="31" y="-63.5" font-family="Helvetica,sans-Serif" font-size="10.00" fill="#000000">Image.cpp</text>
</a>
</g>
</g>
<!-- Node2&#45;&gt;Node8 -->
<g id="edge8" class="edge">
<title>Node2&#45;&gt;Node8</title>
<path fill="none" stroke="#191970" d="M31,-102.1575C31,-93.155 31,-82.9199 31,-75.6427"/>
<polygon fill="#191970" stroke="#191970" points="27.5001,-102.2455 31,-112.2455 34.5001,-102.2456 27.5001,-102.2455"/>
</g>
<!-- Node4&#45;&gt;Node3 -->
<g id="edge4" class="edge">
<title>Node4&#45;&gt;Node3</title>
<path fill="none" stroke="#191970" d="M224.7086,-51.5971C204.9889,-41.558 179.22,-28.4393 161.941,-19.6427"/>
<polygon fill="#191970" stroke="#191970" points="223.3399,-54.8277 233.8395,-56.2455 226.5157,-48.5896 223.3399,-54.8277"/>
</g>
<!-- Node5 -->
<g id="node5" class="node">
<title>Node5</title>
<g id="a_node5"><a xlink:href="LibraryLinkError_8cpp.html" target="_top" xlink:title="Contains definitions of ErrorManager members and implementation of interface function sendRegisteredE...">
<polygon fill="#ffffff" stroke="#000000" points="190,-.5 190,-19.5 294,-19.5 294,-.5 190,-.5"/>
<text text-anchor="middle" x="242" y="-7.5" font-family="Helvetica,sans-Serif" font-size="10.00" fill="#000000">LibraryLinkError.cpp</text>
</a>
</g>
</g>
<!-- Node4&#45;&gt;Node5 -->
<g id="edge5" class="edge">
<title>Node4&#45;&gt;Node5</title>
<path fill="none" stroke="#191970" d="M249.1024,-46.1575C247.334,-37.155 245.3235,-26.9199 243.8941,-19.6427"/>
<polygon fill="#191970" stroke="#191970" points="245.722,-47.1077 251.0839,-56.2455 252.5908,-45.7584 245.722,-47.1077"/>
</g>
<!-- Node6 -->
<g id="node6" class="node">
<title>Node6</title>
<g id="a_node6"><a xlink:href="Logger_8cpp.html" target="_top" xlink:title="Implementation of functions defined in Logger.h.">
<polygon fill="#ffffff" stroke="#000000" points="312.5,-.5 312.5,-19.5 377.5,-19.5 377.5,-.5 312.5,-.5"/>
<text text-anchor="middle" x="345" y="-7.5" font-family="Helvetica,sans-Serif" font-size="10.00" fill="#000000">Logger.cpp</text>
</a>
</g>
</g>
<!-- Node4&#45;&gt;Node6 -->
<g id="edge6" class="edge">
<title>Node4&#45;&gt;Node6</title>
<path fill="none" stroke="#191970" d="M278.0224,-50.769C294.325,-40.8456 315.101,-28.1994 329.1585,-19.6427"/>
<polygon fill="#191970" stroke="#191970" points="275.7473,-48.0563 269.0252,-56.2455 279.387,-54.0357 275.7473,-48.0563"/>
</g>
<!-- Node4&#45;&gt;Node7 -->
<g id="edge7" class="edge">
<title>Node4&#45;&gt;Node7</title>
<path fill="none" stroke="#191970" d="M298.3925,-53.7199C336.455,-43.4228 390.028,-28.9296 424.8798,-19.5011"/>
<polygon fill="#191970" stroke="#191970" points="297.3235,-50.3832 288.5846,-56.3733 299.1516,-57.1403 297.3235,-50.3832"/>
</g>
<!-- Node9&#45;&gt;Node3 -->
<g id="edge10" class="edge">
<title>Node9&#45;&gt;Node3</title>
<path fill="none" stroke="#191970" d="M122.3306,-102.5987C127.7404,-78.363 136.7824,-37.8551 140.8739,-19.5249"/>
<polygon fill="#191970" stroke="#191970" points="118.8942,-101.9286 120.1315,-112.4509 125.726,-103.4536 118.8942,-101.9286"/>
</g>
<!-- Node9&#45;&gt;Node4 -->
<g id="edge11" class="edge">
<title>Node9&#45;&gt;Node4</title>
<path fill="none" stroke="#191970" d="M150.4991,-108.5189C175.0854,-98.3201 208.2366,-84.5685 230.0955,-75.5011"/>
<polygon fill="#191970" stroke="#191970" points="149.1031,-105.3087 141.2073,-112.3733 151.7852,-111.7745 149.1031,-105.3087"/>
</g>
<!-- Node10&#45;&gt;Node3 -->
<g id="edge13" class="edge">
<title>Node10&#45;&gt;Node3</title>
<path fill="none" stroke="#191970" d="M217.5944,-159.1887C199.7381,-123.4762 161.4994,-46.9988 147.9139,-19.8279"/>
<polygon fill="#191970" stroke="#191970" points="214.6404,-161.1072 222.2431,-168.4862 220.9014,-157.9767 214.6404,-161.1072"/>
</g>
<!-- Node10&#45;&gt;Node4 -->
<g id="edge14" class="edge">
<title>Node10&#45;&gt;Node4</title>
<path fill="none" stroke="#191970" d="M231.5039,-158.5987C237.13,-134.363 246.5336,-93.8551 250.7889,-75.5249"/>
<polygon fill="#191970" stroke="#191970" points="228.0688,-157.9185 229.2167,-168.4509 234.8875,-159.5014 228.0688,-157.9185"/>
</g>
<!-- Node11 -->
<g id="node11" class="node">
<title>Node11</title>
<g id="a_node11"><a xlink:href="ProgressMonitor_8h.html" target="_top" xlink:title="Definition of ProgressMonitor class.">
<polygon fill="#ffffff" stroke="#000000" points="255,-112.5 255,-131.5 351,-131.5 351,-112.5 255,-112.5"/>
<text text-anchor="middle" x="303" y="-119.5" font-family="Helvetica,sans-Serif" font-size="10.00" fill="#000000">ProgressMonitor.h</text>
</a>
</g>
</g>
<!-- Node10&#45;&gt;Node11 -->
<g id="edge15" class="edge">
<title>Node10&#45;&gt;Node11</title>
<path fill="none" stroke="#191970" d="M248.4297,-162.2097C261.7777,-152.3743 278.5179,-140.0394 289.9135,-131.6427"/>
<polygon fill="#191970" stroke="#191970" points="246.2126,-159.4958 240.2382,-168.2455 250.365,-165.1312 246.2126,-159.4958"/>
</g>
<!-- Node13 -->
<g id="node13" class="node">
<title>Node13</title>
<g id="a_node13"><a xlink:href="Tensor_8cpp.html" target="_top" xlink:title="Template specialization of certain methods from TypedTensor class for all underlying data types that ...">
<polygon fill="#ffffff" stroke="#000000" points="369.5,-112.5 369.5,-131.5 434.5,-131.5 434.5,-112.5 369.5,-112.5"/>
<text text-anchor="middle" x="402" y="-119.5" font-family="Helvetica,sans-Serif" font-size="10.00" fill="#000000">Tensor.cpp</text>
</a>
</g>
</g>
<!-- Node10&#45;&gt;Node13 -->
<g id="edge18" class="edge">
<title>Node10&#45;&gt;Node13</title>
<path fill="none" stroke="#191970" d="M264.6507,-165.9518C296.7795,-155.6706 342.3639,-141.0835 372.0563,-131.582"/>
<polygon fill="#191970" stroke="#191970" points="263.1868,-162.7453 254.7293,-169.1266 265.3203,-169.4123 263.1868,-162.7453"/>
</g>
<!-- Node11&#45;&gt;Node4 -->
<g id="edge16" class="edge">
<title>Node11&#45;&gt;Node4</title>
<path fill="none" stroke="#191970" d="M287.3753,-104.5004C278.8727,-94.9775 268.6782,-83.5596 261.6095,-75.6427"/>
<polygon fill="#191970" stroke="#191970" points="285.0197,-107.1172 294.2907,-112.2455 290.2413,-102.4551 285.0197,-107.1172"/>
</g>
<!-- Node12 -->
<g id="node12" class="node">
<title>Node12</title>
<g id="a_node12"><a xlink:href="ProgressMonitor_8cpp.html" target="_top" xlink:title="Implementation file for ProgressMonitor class.">
<polygon fill="#ffffff" stroke="#000000" points="327.5,-56.5 327.5,-75.5 434.5,-75.5 434.5,-56.5 327.5,-56.5"/>
<text text-anchor="middle" x="381" y="-63.5" font-family="Helvetica,sans-Serif" font-size="10.00" fill="#000000">ProgressMonitor.cpp</text>
</a>
</g>
</g>
<!-- Node11&#45;&gt;Node12 -->
<g id="edge17" class="edge">
<title>Node11&#45;&gt;Node12</title>
<path fill="none" stroke="#191970" d="M324.9936,-106.2097C338.6929,-96.3743 355.8736,-84.0394 367.5691,-75.6427"/>
<polygon fill="#191970" stroke="#191970" points="322.6686,-103.5703 316.5866,-112.2455 326.7511,-109.2566 322.6686,-103.5703"/>
</g>
</g>
</svg>
