<?xml version="1.0" encoding="UTF-8" standalone="no"?>
<!DOCTYPE svg PUBLIC "-//W3C//DTD SVG 1.1//EN"
 "http://www.w3.org/Graphics/SVG/1.1/DTD/svg11.dtd">
<!-- Generated by graphviz version 2.40.1 (20161225.0304)
 -->
<!-- Title: ProgressMonitor.h Pages: 1 -->
<svg width="398pt" height="140pt"
 viewBox="0.00 0.00 398.00 140.00" xmlns="http://www.w3.org/2000/svg" xmlns:xlink="http://www.w3.org/1999/xlink">
<g id="graph0" class="graph" transform="scale(1 1) rotate(0) translate(4 136)">
<title>ProgressMonitor.h</title>
<polygon fill="#ffffff" stroke="transparent" points="-4,4 -4,-136 394,-136 394,4 -4,4"/>
<!-- Node1 -->
<g id="node1" class="node">
<title>Node1</title>
<g id="a_node1"><a xlink:title="Definition of ProgressMonitor class.">
<polygon fill="#bfbfbf" stroke="#000000" points="180.5,-112.5 180.5,-131.5 276.5,-131.5 276.5,-112.5 180.5,-112.5"/>
<text text-anchor="middle" x="228.5" y="-119.5" font-family="Helvetica,sans-Serif" font-size="10.00" fill="#000000">ProgressMonitor.h</text>
</a>
</g>
</g>
<!-- Node2 -->
<g id="node2" class="node">
<title>Node2</title>
<g id="a_node2"><a xlink:href="MArgumentManager_8h.html" target="_top" xlink:title="Definition of MArgumentManager class.">
<polygon fill="#ffffff" stroke="#000000" points="108,-56.5 108,-75.5 221,-75.5 221,-56.5 108,-56.5"/>
<text text-anchor="middle" x="164.5" y="-63.5" font-family="Helvetica,sans-Serif" font-size="10.00" fill="#000000">MArgumentManager.h</text>
</a>
</g>
</g>
<!-- Node1&#45;&gt;Node2 -->
<g id="edge1" class="edge">
<title>Node1&#45;&gt;Node2</title>
<path fill="none" stroke="#191970" d="M209.8086,-105.645C198.6781,-95.9058 184.9337,-83.8795 175.5202,-75.6427"/>
<polygon fill="#191970" stroke="#191970" points="207.5215,-108.2945 217.3521,-112.2455 212.131,-103.0264 207.5215,-108.2945"/>
</g>
<!-- Node7 -->
<g id="node7" class="node">
<title>Node7</title>
<g id="a_node7"><a xlink:href="ProgressMonitor_8cpp.html" target="_top" xlink:title="Implementation file for ProgressMonitor class.">
<polygon fill="#ffffff" stroke="#000000" points="239,-56.5 239,-75.5 346,-75.5 346,-56.5 239,-56.5"/>
<text text-anchor="middle" x="292.5" y="-63.5" font-family="Helvetica,sans-Serif" font-size="10.00" fill="#000000">ProgressMonitor.cpp</text>
</a>
</g>
</g>
<!-- Node1&#45;&gt;Node7 -->
<g id="edge6" class="edge">
<title>Node1&#45;&gt;Node7</title>
<path fill="none" stroke="#191970" d="M247.1914,-105.645C258.3219,-95.9058 272.0663,-83.8795 281.4798,-75.6427"/>
<polygon fill="#191970" stroke="#191970" points="244.869,-103.0264 239.6479,-112.2455 249.4785,-108.2945 244.869,-103.0264"/>
</g>
<!-- Node3 -->
<g id="node3" class="node">
<title>Node3</title>
<g id="a_node3"><a xlink:href="LLU_8h.html" target="_top" xlink:title="Header file which includes all major parts of LLU.">
<polygon fill="#ffffff" stroke="#000000" points="0,-.5 0,-19.5 43,-19.5 43,-.5 0,-.5"/>
<text text-anchor="middle" x="21.5" y="-7.5" font-family="Helvetica,sans-Serif" font-size="10.00" fill="#000000">LLU.h</text>
</a>
</g>
</g>
<!-- Node2&#45;&gt;Node3 -->
<g id="edge2" class="edge">
<title>Node2&#45;&gt;Node3</title>
<path fill="none" stroke="#191970" d="M130.4724,-52.6745C103.4991,-42.1115 66.6083,-27.6648 43.4206,-18.5843"/>
<polygon fill="#191970" stroke="#191970" points="129.3297,-55.9858 139.9174,-56.3733 131.8822,-49.4677 129.3297,-55.9858"/>
</g>
<!-- Node4 -->
<g id="node4" class="node">
<title>Node4</title>
<g id="a_node4"><a xlink:href="LibraryLinkError_8cpp.html" target="_top" xlink:title="Contains definitions of ErrorManager members and implementation of interface function sendRegisteredE...">
<polygon fill="#ffffff" stroke="#000000" points="61.5,-.5 61.5,-19.5 165.5,-19.5 165.5,-.5 61.5,-.5"/>
<text text-anchor="middle" x="113.5" y="-7.5" font-family="Helvetica,sans-Serif" font-size="10.00" fill="#000000">LibraryLinkError.cpp</text>
</a>
</g>
</g>
<!-- Node2&#45;&gt;Node4 -->
<g id="edge3" class="edge">
<title>Node2&#45;&gt;Node4</title>
<path fill="none" stroke="#191970" d="M148.8251,-48.7884C140.1006,-39.2085 129.5646,-27.6396 122.2817,-19.6427"/>
<polygon fill="#191970" stroke="#191970" points="146.2954,-51.2088 155.6165,-56.2455 151.4709,-46.4954 146.2954,-51.2088"/>
</g>
<!-- Node5 -->
<g id="node5" class="node">
<title>Node5</title>
<g id="a_node5"><a xlink:href="Logger_8cpp.html" target="_top" xlink:title="Implementation of functions defined in Logger.h.">
<polygon fill="#ffffff" stroke="#000000" points="184,-.5 184,-19.5 249,-19.5 249,-.5 184,-.5"/>
<text text-anchor="middle" x="216.5" y="-7.5" font-family="Helvetica,sans-Serif" font-size="10.00" fill="#000000">Logger.cpp</text>
</a>
</g>
</g>
<!-- Node2&#45;&gt;Node5 -->
<g id="edge4" class="edge">
<title>Node2&#45;&gt;Node5</title>
<path fill="none" stroke="#191970" d="M180.4822,-48.7884C189.3778,-39.2085 200.1204,-27.6396 207.5461,-19.6427"/>
<polygon fill="#191970" stroke="#191970" points="177.7975,-46.536 173.5577,-56.2455 182.927,-51.2992 177.7975,-46.536"/>
</g>
<!-- Node6 -->
<g id="node6" class="node">
<title>Node6</title>
<g id="a_node6"><a xlink:href="MArgumentManager_8cpp.html" target="_top" xlink:title="Definitions of non&#45;template member functions and static data members from MArgumentManager class.">
<polygon fill="#ffffff" stroke="#000000" points="267,-.5 267,-19.5 390,-19.5 390,-.5 267,-.5"/>
<text text-anchor="middle" x="328.5" y="-7.5" font-family="Helvetica,sans-Serif" font-size="10.00" fill="#000000">MArgumentManager.cpp</text>
</a>
</g>
</g>
<!-- Node2&#45;&gt;Node6 -->
<g id="edge5" class="edge">
<title>Node2&#45;&gt;Node6</title>
<path fill="none" stroke="#191970" d="M202.4044,-53.057C232.4184,-42.8084 273.6507,-28.729 300.6753,-19.5011"/>
<polygon fill="#191970" stroke="#191970" points="201.0251,-49.8295 192.6926,-56.3733 203.2871,-56.454 201.0251,-49.8295"/>
</g>
</g>
</svg>
