<?xml version="1.0" encoding="UTF-8" standalone="no"?>
<!DOCTYPE svg PUBLIC "-//W3C//DTD SVG 1.1//EN"
 "http://www.w3.org/Graphics/SVG/1.1/DTD/svg11.dtd">
<!-- Generated by graphviz version 2.40.1 (20161225.0304)
 -->
<!-- Title: Put.h Pages: 1 -->
<!--zoomable 196 -->
<svg id="main" version="1.1" xmlns="http://www.w3.org/2000/svg" xmlns:xlink="http://www.w3.org/1999/xlink" xml:space="preserve" onload="init(evt)">
<style type="text/css"><![CDATA[
.edge:hover path { stroke: red; }
.edge:hover polygon { stroke: red; fill: red; }
]]></style>
<script type="text/javascript"><![CDATA[
var edges = document.getElementsByTagName('g');
if (edges && edges.length) {
  for (var i=0;i<edges.length;i++) {
    if (edges[i].id.substr(0,4)=='edge') {
      edges[i].setAttribute('class','edge');
    }
  }
}
]]></script>
        <defs>
                <circle id="rim" cx="0" cy="0" r="7"/>
                <circle id="rim2" cx="0" cy="0" r="3.5"/>
                <g id="zoomPlus">
                        <use xlink:href="#rim" fill="#404040">
                                <set attributeName="fill" to="#808080" begin="zoomplus.mouseover" end="zoomplus.mouseout"/>
                        </use>
                        <path d="M-4,0h8M0,-4v8" fill="none" stroke="white" stroke-width="1.5" pointer-events="none"/>
                </g>
                <g id="zoomMin">
                        <use xlink:href="#rim" fill="#404040">
                                <set attributeName="fill" to="#808080" begin="zoomminus.mouseover" end="zoomminus.mouseout"/>
                        </use>
                        <path d="M-4,0h8" fill="none" stroke="white" stroke-width="1.5" pointer-events="none"/>
                </g>
                <g id="dirArrow">
                        <path fill="none" stroke="white" stroke-width="1.5" d="M0,-3.0v7 M-2.5,-0.5L0,-3.0L2.5,-0.5"/>
                </g>
               <g id="resetDef">
                       <use xlink:href="#rim2" fill="#404040">
                               <set attributeName="fill" to="#808080" begin="reset.mouseover" end="reset.mouseout"/>
                       </use>
               </g>
        </defs>

<script type="text/javascript">
var viewWidth = 1376;
var viewHeight = 196;
var sectionId = 'dynsection-0';
</script>
<script xlink:href="svgpan.js"/>
<svg id="graph" class="graph">
<g id="viewport">
<title>Put.h</title>
<polygon fill="#ffffff" stroke="transparent" points="-4,4 -4,-192 1372,-192 1372,4 -4,4"/>
<!-- Node1 -->
<g id="node1" class="node">
<title>Node1</title>
<g id="a_node1"><a xlink:title="Header file with classes related to sending data through WSTP.">
<polygon fill="#bfbfbf" stroke="#000000" points="249,-168.5 249,-187.5 289,-187.5 289,-168.5 249,-168.5"/>
<text text-anchor="middle" x="269" y="-175.5" font-family="Helvetica,sans-Serif" font-size="10.00" fill="#000000">Put.h</text>
</a>
</g>
</g>
<!-- Node2 -->
<g id="node2" class="node">
<title>Node2</title>
<g id="a_node2"><a xlink:title=" ">
<polygon fill="#ffffff" stroke="#bfbfbf" points="97.5,-112.5 97.5,-131.5 156.5,-131.5 156.5,-112.5 97.5,-112.5"/>
<text text-anchor="middle" x="127" y="-119.5" font-family="Helvetica,sans-Serif" font-size="10.00" fill="#000000">functional</text>
</a>
</g>
</g>
<!-- Node1&#45;&gt;Node2 -->
<g id="edge1" class="edge">
<title>Node1&#45;&gt;Node2</title>
<path fill="none" stroke="#191970" d="M248.956,-170.0953C226.0784,-161.0732 188.2823,-146.1677 160.8217,-135.3382"/>
<polygon fill="#191970" stroke="#191970" points="161.8059,-131.964 151.2191,-131.5512 159.2378,-138.4759 161.8059,-131.964"/>
</g>
<!-- Node3 -->
<g id="node3" class="node">
<title>Node3</title>
<g id="a_node3"><a xlink:title=" ">
<polygon fill="#ffffff" stroke="#bfbfbf" points="454,-.5 454,-19.5 500,-19.5 500,-.5 454,-.5"/>
<text text-anchor="middle" x="477" y="-7.5" font-family="Helvetica,sans-Serif" font-size="10.00" fill="#000000">wstp.h</text>
</a>
</g>
</g>
<!-- Node1&#45;&gt;Node3 -->
<g id="edge2" class="edge">
<title>Node1&#45;&gt;Node3</title>
<path fill="none" stroke="#191970" d="M289.3585,-177.5199C340.1224,-175.7918 475.8596,-167.8925 582,-132 630.6223,-115.5579 656.952,-120.2264 683,-76 737.5209,16.57 752.3397,-81.8019 510,-20 509.8985,-19.9741 509.7968,-19.9481 509.695,-19.922"/>
<polygon fill="#191970" stroke="#191970" points="510.5757,-16.5343 500.0055,-17.2569 508.7192,-23.2837 510.5757,-16.5343"/>
</g>
<!-- Node4 -->
<g id="node4" class="node">
<title>Node4</title>
<g id="a_node4"><a xlink:href="Errors_8h.html" target="_top" xlink:title="Definitions of error names and error codes used across LLU.">
<polygon fill="#ffffff" stroke="#000000" points="0,-56.5 0,-75.5 112,-75.5 112,-56.5 0,-56.5"/>
<text text-anchor="middle" x="56" y="-63.5" font-family="Helvetica,sans-Serif" font-size="10.00" fill="#000000">LLU/ErrorLog/Errors.h</text>
</a>
</g>
</g>
<!-- Node1&#45;&gt;Node4 -->
<g id="edge3" class="edge">
<title>Node1&#45;&gt;Node4</title>
<path fill="none" stroke="#191970" d="M255.637,-168.4986C236.2452,-154.9504 198.9099,-129.758 165,-112 141.1736,-99.5225 113.2033,-87.7743 91.5623,-79.2739"/>
<polygon fill="#191970" stroke="#191970" points="92.6912,-75.9577 82.1022,-75.6059 90.1606,-82.4843 92.6912,-75.9577"/>
</g>
<!-- Node6 -->
<g id="node6" class="node">
<title>Node6</title>
<g id="a_node6"><a xlink:href="Utilities_8hpp.html" target="_top" xlink:title="Short but generally useful functions.">
<polygon fill="#ffffff" stroke="#000000" points="483.5,-112.5 483.5,-131.5 572.5,-131.5 572.5,-112.5 483.5,-112.5"/>
<text text-anchor="middle" x="528" y="-119.5" font-family="Helvetica,sans-Serif" font-size="10.00" fill="#000000">LLU/Utilities.hpp</text>
</a>
</g>
</g>
<!-- Node1&#45;&gt;Node6 -->
<g id="edge5" class="edge">
<title>Node1&#45;&gt;Node6</title>
<path fill="none" stroke="#191970" d="M289.3233,-173.6058C328.6973,-165.0925 416.5456,-146.0983 473.9743,-133.6812"/>
<polygon fill="#191970" stroke="#191970" points="474.9381,-137.0538 483.9725,-131.5195 473.4587,-130.2119 474.9381,-137.0538"/>
</g>
<!-- Node20 -->
<g id="node20" class="node">
<title>Node20</title>
<g id="a_node20"><a xlink:href="WSTP_2Utilities_8h.html" target="_top" xlink:title="Header file with miscellaneous utilities used throughout the WSTP&#45;related part of LibraryLinkUtilitie...">
<polygon fill="#ffffff" stroke="#000000" points="213.5,-112.5 213.5,-131.5 324.5,-131.5 324.5,-112.5 213.5,-112.5"/>
<text text-anchor="middle" x="269" y="-119.5" font-family="Helvetica,sans-Serif" font-size="10.00" fill="#000000">LLU/WSTP/Utilities.h</text>
</a>
</g>
</g>
<!-- Node1&#45;&gt;Node20 -->
<g id="edge20" class="edge">
<title>Node1&#45;&gt;Node20</title>
<path fill="none" stroke="#191970" d="M269,-168.2455C269,-160.9382 269,-150.6944 269,-141.7046"/>
<polygon fill="#191970" stroke="#191970" points="272.5001,-141.6426 269,-131.6427 265.5001,-141.6427 272.5001,-141.6426"/>
</g>
<!-- Node5 -->
<g id="node5" class="node">
<title>Node5</title>
<g id="a_node5"><a xlink:title=" ">
<polygon fill="#ffffff" stroke="#bfbfbf" points="119.5,-.5 119.5,-19.5 160.5,-19.5 160.5,-.5 119.5,-.5"/>
<text text-anchor="middle" x="140" y="-7.5" font-family="Helvetica,sans-Serif" font-size="10.00" fill="#000000">string</text>
</a>
</g>
</g>
<!-- Node4&#45;&gt;Node5 -->
<g id="edge4" class="edge">
<title>Node4&#45;&gt;Node5</title>
<path fill="none" stroke="#191970" d="M70.6317,-56.2455C83.3994,-47.7337 102.1438,-35.2375 116.9299,-25.3801"/>
<polygon fill="#191970" stroke="#191970" points="119.1569,-28.1019 125.536,-19.6427 115.274,-22.2775 119.1569,-28.1019"/>
</g>
<!-- Node7 -->
<g id="node7" class="node">
<title>Node7</title>
<g id="a_node7"><a xlink:title=" ">
<polygon fill="#ffffff" stroke="#bfbfbf" points="620.5,-56.5 620.5,-75.5 673.5,-75.5 673.5,-56.5 620.5,-56.5"/>
<text text-anchor="middle" x="647" y="-63.5" font-family="Helvetica,sans-Serif" font-size="10.00" fill="#000000">complex</text>
</a>
</g>
</g>
<!-- Node6&#45;&gt;Node7 -->
<g id="edge6" class="edge">
<title>Node6&#45;&gt;Node7</title>
<path fill="none" stroke="#191970" d="M548.4568,-112.3733C567.4738,-103.4241 596.0175,-89.9917 617.4976,-79.8835"/>
<polygon fill="#191970" stroke="#191970" points="619.2522,-82.926 626.8101,-75.5011 616.2716,-76.5923 619.2522,-82.926"/>
</g>
<!-- Node8 -->
<g id="node8" class="node">
<title>Node8</title>
<g id="a_node8"><a xlink:title=" ">
<polygon fill="#ffffff" stroke="#bfbfbf" points="235,-.5 235,-19.5 281,-19.5 281,-.5 235,-.5"/>
<text text-anchor="middle" x="258" y="-7.5" font-family="Helvetica,sans-Serif" font-size="10.00" fill="#000000">cstdint</text>
</a>
</g>
</g>
<!-- Node6&#45;&gt;Node8 -->
<g id="edge7" class="edge">
<title>Node6&#45;&gt;Node8</title>
<path fill="none" stroke="#191970" d="M483.3127,-120.8321C415.0344,-118.0188 289.6254,-108.4536 261,-76 250.1168,-63.6614 250.4876,-44.4295 252.9177,-29.9026"/>
<polygon fill="#191970" stroke="#191970" points="256.3876,-30.4098 255.0252,-19.9029 249.5381,-28.9662 256.3876,-30.4098"/>
</g>
<!-- Node9 -->
<g id="node9" class="node">
<title>Node9</title>
<g id="a_node9"><a xlink:title=" ">
<polygon fill="#ffffff" stroke="#bfbfbf" points="316,-.5 316,-19.5 378,-19.5 378,-.5 316,-.5"/>
<text text-anchor="middle" x="347" y="-7.5" font-family="Helvetica,sans-Serif" font-size="10.00" fill="#000000">type_traits</text>
</a>
</g>
</g>
<!-- Node6&#45;&gt;Node9 -->
<g id="edge8" class="edge">
<title>Node6&#45;&gt;Node9</title>
<path fill="none" stroke="#191970" d="M515.105,-112.3244C497.1268,-99.0025 463.3195,-74.5546 433,-56 414.4076,-44.622 392.7669,-33.055 375.8452,-24.3662"/>
<polygon fill="#191970" stroke="#191970" points="376.9861,-21.0199 366.486,-19.6062 373.8128,-27.2593 376.9861,-21.0199"/>
</g>
<!-- Node10 -->
<g id="node10" class="node">
<title>Node10</title>
<g id="a_node10"><a xlink:title=" ">
<polygon fill="#ffffff" stroke="#bfbfbf" points="396,-.5 396,-19.5 436,-19.5 436,-.5 396,-.5"/>
<text text-anchor="middle" x="416" y="-7.5" font-family="Helvetica,sans-Serif" font-size="10.00" fill="#000000">utility</text>
</a>
</g>
</g>
<!-- Node6&#45;&gt;Node10 -->
<g id="edge9" class="edge">
<title>Node6&#45;&gt;Node10</title>
<path fill="none" stroke="#191970" d="M526.7319,-112.3696C524.4472,-98.4349 518.4538,-72.5145 504,-56 495.6429,-46.4513 467.7965,-32.6729 445.6395,-22.6871"/>
<polygon fill="#191970" stroke="#191970" points="446.8188,-19.3815 436.2583,-18.5291 443.9823,-25.7811 446.8188,-19.3815"/>
</g>
<!-- Node11 -->
<g id="node11" class="node">
<title>Node11</title>
<g id="a_node11"><a xlink:title=" ">
<polygon fill="#ffffff" stroke="#bfbfbf" points="556,-56.5 556,-75.5 602,-75.5 602,-56.5 556,-56.5"/>
<text text-anchor="middle" x="579" y="-63.5" font-family="Helvetica,sans-Serif" font-size="10.00" fill="#000000">variant</text>
</a>
</g>
</g>
<!-- Node6&#45;&gt;Node11 -->
<g id="edge10" class="edge">
<title>Node6&#45;&gt;Node11</title>
<path fill="none" stroke="#191970" d="M536.8835,-112.2455C544.1966,-104.2155 554.7391,-92.6394 563.4467,-83.0781"/>
<polygon fill="#191970" stroke="#191970" points="566.0727,-85.3928 570.2183,-75.6427 560.8972,-80.6795 566.0727,-85.3928"/>
</g>
<!-- Node12 -->
<g id="node12" class="node">
<title>Node12</title>
<g id="a_node12"><a xlink:href="LibraryData_8h.html" target="_top" xlink:title=" ">
<polygon fill="#ffffff" stroke="#000000" points="801,-56.5 801,-75.5 897,-75.5 897,-56.5 801,-56.5"/>
<text text-anchor="middle" x="849" y="-63.5" font-family="Helvetica,sans-Serif" font-size="10.00" fill="#000000">LLU/LibraryData.h</text>
</a>
</g>
</g>
<!-- Node6&#45;&gt;Node12 -->
<g id="edge11" class="edge">
<title>Node6&#45;&gt;Node12</title>
<path fill="none" stroke="#191970" d="M572.6337,-114.2134C629.5037,-104.2922 727.9308,-87.1211 790.683,-76.1737"/>
<polygon fill="#191970" stroke="#191970" points="791.5686,-79.5721 800.8183,-74.4055 790.3655,-72.6763 791.5686,-79.5721"/>
</g>
<!-- Node12&#45;&gt;Node3 -->
<g id="edge14" class="edge">
<title>Node12&#45;&gt;Node3</title>
<path fill="none" stroke="#191970" d="M800.8603,-61.904C736.6949,-55.9092 619.5457,-43.0987 510.1929,-19.7136"/>
<polygon fill="#191970" stroke="#191970" points="510.8299,-16.2705 500.3147,-17.5673 509.3435,-23.1108 510.8299,-16.2705"/>
</g>
<!-- Node13 -->
<g id="node13" class="node">
<title>Node13</title>
<g id="a_node13"><a xlink:title=" ">
<polygon fill="#ffffff" stroke="#bfbfbf" points="1236,-.5 1236,-19.5 1288,-19.5 1288,-.5 1236,-.5"/>
<text text-anchor="middle" x="1262" y="-7.5" font-family="Helvetica,sans-Serif" font-size="10.00" fill="#000000">memory</text>
</a>
</g>
</g>
<!-- Node12&#45;&gt;Node13 -->
<g id="edge12" class="edge">
<title>Node12&#45;&gt;Node13</title>
<path fill="none" stroke="#191970" d="M897.1233,-62.5808C967.4182,-57.0532 1102.3641,-44.4261 1225.7394,-19.9943"/>
<polygon fill="#191970" stroke="#191970" points="1226.6226,-23.3868 1235.7359,-17.9833 1225.242,-16.5243 1226.6226,-23.3868"/>
</g>
<!-- Node14 -->
<g id="node14" class="node">
<title>Node14</title>
<g id="a_node14"><a xlink:title=" ">
<polygon fill="#ffffff" stroke="#bfbfbf" points="1306,-.5 1306,-19.5 1368,-19.5 1368,-.5 1306,-.5"/>
<text text-anchor="middle" x="1337" y="-7.5" font-family="Helvetica,sans-Serif" font-size="10.00" fill="#000000">dllexport.h</text>
</a>
</g>
</g>
<!-- Node12&#45;&gt;Node14 -->
<g id="edge13" class="edge">
<title>Node12&#45;&gt;Node14</title>
<path fill="none" stroke="#191970" d="M897.0469,-63.3226C977.6307,-58.3408 1145.2042,-45.88 1295.7568,-20.0107"/>
<polygon fill="#191970" stroke="#191970" points="1296.397,-23.452 1305.6477,-18.2873 1295.1953,-16.5559 1296.397,-23.452"/>
</g>
<!-- Node15 -->
<g id="node15" class="node">
<title>Node15</title>
<g id="a_node15"><a xlink:title=" ">
<polygon fill="#ffffff" stroke="#bfbfbf" points="518.5,-.5 518.5,-19.5 609.5,-19.5 609.5,-.5 518.5,-.5"/>
<text text-anchor="middle" x="564" y="-7.5" font-family="Helvetica,sans-Serif" font-size="10.00" fill="#000000">WolframLibrary.h</text>
</a>
</g>
</g>
<!-- Node12&#45;&gt;Node15 -->
<g id="edge15" class="edge">
<title>Node12&#45;&gt;Node15</title>
<path fill="none" stroke="#191970" d="M800.9759,-56.5637C750.9007,-46.7244 672.4972,-31.3187 619.7282,-20.9501"/>
<polygon fill="#191970" stroke="#191970" points="620.3466,-17.5048 609.8594,-19.011 618.9969,-24.3734 620.3466,-17.5048"/>
</g>
<!-- Node16 -->
<g id="node16" class="node">
<title>Node16</title>
<g id="a_node16"><a xlink:title=" ">
<polygon fill="#ffffff" stroke="#bfbfbf" points="628,-.5 628,-19.5 772,-19.5 772,-.5 628,-.5"/>
<text text-anchor="middle" x="700" y="-7.5" font-family="Helvetica,sans-Serif" font-size="10.00" fill="#000000">WolframIOLibraryFunctions.h</text>
</a>
</g>
</g>
<!-- Node12&#45;&gt;Node16 -->
<g id="edge16" class="edge">
<title>Node12&#45;&gt;Node16</title>
<path fill="none" stroke="#191970" d="M823.386,-56.3733C798.9313,-47.1822 761.8946,-33.2624 734.7791,-23.0713"/>
<polygon fill="#191970" stroke="#191970" points="735.8719,-19.7431 725.2798,-19.5011 733.4091,-26.2956 735.8719,-19.7431"/>
</g>
<!-- Node17 -->
<g id="node17" class="node">
<title>Node17</title>
<g id="a_node17"><a xlink:title=" ">
<polygon fill="#ffffff" stroke="#bfbfbf" points="790,-.5 790,-19.5 908,-19.5 908,-.5 790,-.5"/>
<text text-anchor="middle" x="849" y="-7.5" font-family="Helvetica,sans-Serif" font-size="10.00" fill="#000000">WolframImageLibrary.h</text>
</a>
</g>
</g>
<!-- Node12&#45;&gt;Node17 -->
<g id="edge17" class="edge">
<title>Node12&#45;&gt;Node17</title>
<path fill="none" stroke="#191970" d="M849,-56.2455C849,-48.9382 849,-38.6944 849,-29.7046"/>
<polygon fill="#191970" stroke="#191970" points="852.5001,-29.6426 849,-19.6427 845.5001,-29.6427 852.5001,-29.6426"/>
</g>
<!-- Node18 -->
<g id="node18" class="node">
<title>Node18</title>
<g id="a_node18"><a xlink:title=" ">
<polygon fill="#ffffff" stroke="#bfbfbf" points="926.5,-.5 926.5,-19.5 1077.5,-19.5 1077.5,-.5 926.5,-.5"/>
<text text-anchor="middle" x="1002" y="-7.5" font-family="Helvetica,sans-Serif" font-size="10.00" fill="#000000">WolframNumericArrayLibrary.h</text>
</a>
</g>
</g>
<!-- Node12&#45;&gt;Node18 -->
<g id="edge18" class="edge">
<title>Node12&#45;&gt;Node18</title>
<path fill="none" stroke="#191970" d="M875.3016,-56.3733C900.4128,-47.1822 938.4438,-33.2624 966.2872,-23.0713"/>
<polygon fill="#191970" stroke="#191970" points="967.8538,-26.2251 976.0416,-19.5011 965.4478,-19.6516 967.8538,-26.2251"/>
</g>
<!-- Node19 -->
<g id="node19" class="node">
<title>Node19</title>
<g id="a_node19"><a xlink:title=" ">
<polygon fill="#ffffff" stroke="#bfbfbf" points="1096,-.5 1096,-19.5 1218,-19.5 1218,-.5 1096,-.5"/>
<text text-anchor="middle" x="1157" y="-7.5" font-family="Helvetica,sans-Serif" font-size="10.00" fill="#000000">WolframSparseLibrary.h</text>
</a>
</g>
</g>
<!-- Node12&#45;&gt;Node19 -->
<g id="edge19" class="edge">
<title>Node12&#45;&gt;Node19</title>
<path fill="none" stroke="#191970" d="M897.125,-57.25C950.274,-47.5866 1036.0325,-31.9941 1094.3776,-21.3859"/>
<polygon fill="#191970" stroke="#191970" points="1095.365,-24.7638 1104.5775,-19.5314 1094.1127,-17.8767 1095.365,-24.7638"/>
</g>
<!-- Node20&#45;&gt;Node3 -->
<g id="edge23" class="edge">
<title>Node20&#45;&gt;Node3</title>
<path fill="none" stroke="#191970" d="M324.5428,-116.2878C358.4781,-110.5377 401.297,-99.0243 433,-76 449.4772,-64.0334 461.6,-43.8697 468.901,-28.9715"/>
<polygon fill="#191970" stroke="#191970" points="472.1828,-30.212 473.1795,-19.6642 465.8226,-27.2883 472.1828,-30.212"/>
</g>
<!-- Node20&#45;&gt;Node4 -->
<g id="edge24" class="edge">
<title>Node20&#45;&gt;Node4</title>
<path fill="none" stroke="#191970" d="M232.384,-112.3733C196.352,-102.9001 141.2122,-88.4032 102.1886,-78.1435"/>
<polygon fill="#191970" stroke="#191970" points="102.6995,-74.6589 92.1382,-75.5011 100.9196,-81.4289 102.6995,-74.6589"/>
</g>
<!-- Node20&#45;&gt;Node5 -->
<g id="edge22" class="edge">
<title>Node20&#45;&gt;Node5</title>
<path fill="none" stroke="#191970" d="M222.5599,-112.469C200.5112,-105.724 175.4499,-94.4739 159,-76 147.7378,-63.3521 143.1239,-44.4228 141.2479,-30.0753"/>
<polygon fill="#191970" stroke="#191970" points="144.697,-29.3777 140.2556,-19.7588 137.7292,-30.0479 144.697,-29.3777"/>
</g>
<!-- Node21 -->
<g id="node21" class="node">
<title>Node21</title>
<g id="a_node21"><a xlink:title=" ">
<polygon fill="#ffffff" stroke="#bfbfbf" points="168,-56.5 168,-75.5 214,-75.5 214,-56.5 168,-56.5"/>
<text text-anchor="middle" x="191" y="-63.5" font-family="Helvetica,sans-Serif" font-size="10.00" fill="#000000">cstring</text>
</a>
</g>
</g>
<!-- Node20&#45;&gt;Node21 -->
<g id="edge21" class="edge">
<title>Node20&#45;&gt;Node21</title>
<path fill="none" stroke="#191970" d="M255.4134,-112.2455C243.6695,-103.814 226.4801,-91.4729 212.8118,-81.6598"/>
<polygon fill="#191970" stroke="#191970" points="214.5954,-78.6316 204.4309,-75.6427 210.5129,-84.3179 214.5954,-78.6316"/>
</g>
<!-- Node22 -->
<g id="node22" class="node">
<title>Node22</title>
<g id="a_node22"><a xlink:href="EncodingTraits_8hpp.html" target="_top" xlink:title="Defines possible encodings together with their properties and related types.">
<polygon fill="#ffffff" stroke="#000000" points="270,-56.5 270,-75.5 424,-75.5 424,-56.5 270,-56.5"/>
<text text-anchor="middle" x="347" y="-63.5" font-family="Helvetica,sans-Serif" font-size="10.00" fill="#000000">LLU/WSTP/EncodingTraits.hpp</text>
</a>
</g>
</g>
<!-- Node20&#45;&gt;Node22 -->
<g id="edge25" class="edge">
<title>Node20&#45;&gt;Node22</title>
<path fill="none" stroke="#191970" d="M282.5866,-112.2455C294.3305,-103.814 311.5199,-91.4729 325.1882,-81.6598"/>
<polygon fill="#191970" stroke="#191970" points="327.4871,-84.3179 333.5691,-75.6427 323.4046,-78.6316 327.4871,-84.3179"/>
</g>
<!-- Node22&#45;&gt;Node5 -->
<g id="edge27" class="edge">
<title>Node22&#45;&gt;Node5</title>
<path fill="none" stroke="#191970" d="M311.4154,-56.3733C271.6871,-45.6255 208.056,-28.4113 170.5138,-18.255"/>
<polygon fill="#191970" stroke="#191970" points="171.2254,-14.8217 160.6584,-15.5887 169.3973,-21.5788 171.2254,-14.8217"/>
</g>
<!-- Node22&#45;&gt;Node8 -->
<g id="edge26" class="edge">
<title>Node22&#45;&gt;Node8</title>
<path fill="none" stroke="#191970" d="M331.4974,-56.2455C317.842,-47.6534 297.7343,-35.0014 282.0011,-25.1018"/>
<polygon fill="#191970" stroke="#191970" points="283.6529,-22.006 273.325,-19.6427 279.9249,-27.9307 283.6529,-22.006"/>
</g>
<!-- Node22&#45;&gt;Node9 -->
<g id="edge28" class="edge">
<title>Node22&#45;&gt;Node9</title>
<path fill="none" stroke="#191970" d="M347,-56.2455C347,-48.9382 347,-38.6944 347,-29.7046"/>
<polygon fill="#191970" stroke="#191970" points="350.5001,-29.6426 347,-19.6427 343.5001,-29.6427 350.5001,-29.6426"/>
</g>
<!-- Node22&#45;&gt;Node10 -->
<g id="edge29" class="edge">
<title>Node22&#45;&gt;Node10</title>
<path fill="none" stroke="#191970" d="M359.0189,-56.2455C369.2098,-47.9746 384.0362,-35.9416 396.0107,-26.2232"/>
<polygon fill="#191970" stroke="#191970" points="398.5598,-28.662 404.1188,-19.6427 394.1486,-23.2268 398.5598,-28.662"/>
</g>
</g>
</svg>
        <g id="navigator" transform="translate(0 0)" fill="#404254">
                <rect fill="#f2f5e9" fill-opacity="0.5" stroke="#606060" stroke-width=".5" x="0" y="0" width="60" height="60"/>
                <use id="zoomplus" xlink:href="#zoomPlus" x="17" y="9" onmousedown="handleZoom(evt,'in')"/>
                <use id="zoomminus" xlink:href="#zoomMin" x="42" y="9" onmousedown="handleZoom(evt,'out')"/>
                <use id="reset" xlink:href="#resetDef" x="30" y="36" onmousedown="handleReset()"/>
                <g id="arrowUp" xlink:href="#dirArrow" transform="translate(30 24)" onmousedown="handlePan(0,-1)">
                  <use xlink:href="#rim" fill="#404040">
                        <set attributeName="fill" to="#808080" begin="arrowUp.mouseover" end="arrowUp.mouseout"/>
                  </use>
                  <path fill="none" stroke="white" stroke-width="1.5" d="M0,-3.0v7 M-2.5,-0.5L0,-3.0L2.5,-0.5"/>
                </g>
                <g id="arrowRight" xlink:href="#dirArrow" transform="rotate(90) translate(36 -43)" onmousedown="handlePan(1,0)">
                  <use xlink:href="#rim" fill="#404040">
                        <set attributeName="fill" to="#808080" begin="arrowRight.mouseover" end="arrowRight.mouseout"/>
                  </use>
                  <path fill="none" stroke="white" stroke-width="1.5" d="M0,-3.0v7 M-2.5,-0.5L0,-3.0L2.5,-0.5"/>
                </g>
                <g id="arrowDown" xlink:href="#dirArrow" transform="rotate(180) translate(-30 -48)" onmousedown="handlePan(0,1)">
                  <use xlink:href="#rim" fill="#404040">
                        <set attributeName="fill" to="#808080" begin="arrowDown.mouseover" end="arrowDown.mouseout"/>
                  </use>
                  <path fill="none" stroke="white" stroke-width="1.5" d="M0,-3.0v7 M-2.5,-0.5L0,-3.0L2.5,-0.5"/>
                </g>
                <g id="arrowLeft" xlink:href="#dirArrow" transform="rotate(270) translate(-36 17)" onmousedown="handlePan(-1,0)">
                  <use xlink:href="#rim" fill="#404040">
                        <set attributeName="fill" to="#808080" begin="arrowLeft.mouseover" end="arrowLeft.mouseout"/>
                  </use>
                  <path fill="none" stroke="white" stroke-width="1.5" d="M0,-3.0v7 M-2.5,-0.5L0,-3.0L2.5,-0.5"/>
                </g>
        </g>
        <svg viewBox="0 0 15 15" width="100%" height="30px" preserveAspectRatio="xMaxYMin meet">
         <g id="arrow_out" transform="scale(0.3 0.3)">
          <a xlink:href="Put_8h__incl_org.svg" target="_base">
           <rect id="button" ry="5" rx="5" y="6" x="6" height="38" width="38"
                fill="#f2f5e9" fill-opacity="0.5" stroke="#606060" stroke-width="1.0"/>
           <path id="arrow"
             d="M 11.500037,31.436501 C 11.940474,20.09759 22.043105,11.32322 32.158766,21.979434 L 37.068811,17.246167 C 37.068811,17.246167 37.088388,32 37.088388,32 L 22.160133,31.978069 C 22.160133,31.978069 26.997745,27.140456 26.997745,27.140456 C 18.528582,18.264221 13.291696,25.230495 11.500037,31.436501 z"
             style="fill:#404040;"/>
          </a>
         </g>
        </svg>
</svg>
