<?xml version="1.0" encoding="UTF-8" standalone="no"?>
<!DOCTYPE svg PUBLIC "-//W3C//DTD SVG 1.1//EN"
 "http://www.w3.org/Graphics/SVG/1.1/DTD/svg11.dtd">
<!-- Generated by graphviz version 2.40.1 (20161225.0304)
 -->
<!-- Title: Put.cpp Pages: 1 -->
<svg width="1387pt" height="252pt"
 viewBox="0.00 0.00 1387.00 252.00" xmlns="http://www.w3.org/2000/svg" xmlns:xlink="http://www.w3.org/1999/xlink">
<g id="graph0" class="graph" transform="scale(1 1) rotate(0) translate(4 248)">
<title>Put.cpp</title>
<polygon fill="#ffffff" stroke="transparent" points="-4,4 -4,-248 1383,-248 1383,4 -4,4"/>
<!-- Node1 -->
<g id="node1" class="node">
<title>Node1</title>
<g id="a_node1"><a xlink:title="Implementation file with classes related to sending data through WSTP.">
<polygon fill="#bfbfbf" stroke="#000000" points="541,-224.5 541,-243.5 591,-243.5 591,-224.5 541,-224.5"/>
<text text-anchor="middle" x="566" y="-231.5" font-family="Helvetica,sans-Serif" font-size="10.00" fill="#000000">Put.cpp</text>
</a>
</g>
</g>
<!-- Node2 -->
<g id="node2" class="node">
<title>Node2</title>
<g id="a_node2"><a xlink:href="Put_8h.html" target="_top" xlink:title="Header file with classes related to sending data through WSTP.">
<polygon fill="#ffffff" stroke="#000000" points="372.5,-168.5 372.5,-187.5 465.5,-187.5 465.5,-168.5 372.5,-168.5"/>
<text text-anchor="middle" x="419" y="-175.5" font-family="Helvetica,sans-Serif" font-size="10.00" fill="#000000">LLU/WSTP/Put.h</text>
</a>
</g>
</g>
<!-- Node1&#45;&gt;Node2 -->
<g id="edge1" class="edge">
<title>Node1&#45;&gt;Node2</title>
<path fill="none" stroke="#191970" d="M540.7298,-224.3733C516.6034,-215.1822 480.0638,-201.2624 453.3123,-191.0713"/>
<polygon fill="#191970" stroke="#191970" points="454.5313,-187.7904 443.9404,-187.5011 452.0393,-194.3318 454.5313,-187.7904"/>
</g>
<!-- Node4 -->
<g id="node4" class="node">
<title>Node4</title>
<g id="a_node4"><a xlink:title=" ">
<polygon fill="#ffffff" stroke="#bfbfbf" points="465,-.5 465,-19.5 511,-19.5 511,-.5 465,-.5"/>
<text text-anchor="middle" x="488" y="-7.5" font-family="Helvetica,sans-Serif" font-size="10.00" fill="#000000">wstp.h</text>
</a>
</g>
</g>
<!-- Node1&#45;&gt;Node4 -->
<g id="edge31" class="edge">
<title>Node1&#45;&gt;Node4</title>
<path fill="none" stroke="#191970" d="M585.9619,-224.4506C638.7802,-197.9606 774.518,-121.2074 720,-56 692.7314,-23.3848 578.4253,-29.8053 521.2927,-19.7421"/>
<polygon fill="#191970" stroke="#191970" points="521.8287,-16.2785 511.3241,-17.6581 520.3962,-23.1304 521.8287,-16.2785"/>
</g>
<!-- Node7 -->
<g id="node7" class="node">
<title>Node7</title>
<g id="a_node7"><a xlink:href="Utilities_8hpp.html" target="_top" xlink:title="Short but generally useful functions.">
<polygon fill="#ffffff" stroke="#000000" points="521.5,-112.5 521.5,-131.5 610.5,-131.5 610.5,-112.5 521.5,-112.5"/>
<text text-anchor="middle" x="566" y="-119.5" font-family="Helvetica,sans-Serif" font-size="10.00" fill="#000000">LLU/Utilities.hpp</text>
</a>
</g>
</g>
<!-- Node1&#45;&gt;Node7 -->
<g id="edge32" class="edge">
<title>Node1&#45;&gt;Node7</title>
<path fill="none" stroke="#191970" d="M566,-224.4509C566,-206.184 566,-165.9553 566,-141.6976"/>
<polygon fill="#191970" stroke="#191970" points="569.5001,-141.5249 566,-131.5249 562.5001,-141.5249 569.5001,-141.5249"/>
</g>
<!-- Node3 -->
<g id="node3" class="node">
<title>Node3</title>
<g id="a_node3"><a xlink:title=" ">
<polygon fill="#ffffff" stroke="#bfbfbf" points="214.5,-112.5 214.5,-131.5 273.5,-131.5 273.5,-112.5 214.5,-112.5"/>
<text text-anchor="middle" x="244" y="-119.5" font-family="Helvetica,sans-Serif" font-size="10.00" fill="#000000">functional</text>
</a>
</g>
</g>
<!-- Node2&#45;&gt;Node3 -->
<g id="edge2" class="edge">
<title>Node2&#45;&gt;Node3</title>
<path fill="none" stroke="#191970" d="M388.9164,-168.3733C359.8166,-159.0613 315.5477,-144.8953 283.597,-134.671"/>
<polygon fill="#191970" stroke="#191970" points="284.282,-131.2155 273.691,-131.5011 282.1485,-137.8824 284.282,-131.2155"/>
</g>
<!-- Node2&#45;&gt;Node4 -->
<g id="edge3" class="edge">
<title>Node2&#45;&gt;Node4</title>
<path fill="none" stroke="#191970" d="M422.9074,-168.4862C433.9092,-141.6994 465.3054,-65.2565 480.1024,-29.2289"/>
<polygon fill="#191970" stroke="#191970" points="483.4019,-30.4078 483.9635,-19.8279 476.9267,-27.7484 483.4019,-30.4078"/>
</g>
<!-- Node5 -->
<g id="node5" class="node">
<title>Node5</title>
<g id="a_node5"><a xlink:href="Errors_8h.html" target="_top" xlink:title="Definitions of error names and error codes used across LLU.">
<polygon fill="#ffffff" stroke="#000000" points="0,-56.5 0,-75.5 112,-75.5 112,-56.5 0,-56.5"/>
<text text-anchor="middle" x="56" y="-63.5" font-family="Helvetica,sans-Serif" font-size="10.00" fill="#000000">LLU/ErrorLog/Errors.h</text>
</a>
</g>
</g>
<!-- Node2&#45;&gt;Node5 -->
<g id="edge4" class="edge">
<title>Node2&#45;&gt;Node5</title>
<path fill="none" stroke="#191970" d="M372.3568,-170.8174C328.5109,-163.402 261.3771,-150.3302 205,-132 161.2466,-117.7742 112.9567,-94.9899 83.5487,-80.2605"/>
<polygon fill="#191970" stroke="#191970" points="84.8362,-76.9895 74.3332,-75.5981 81.6761,-83.2357 84.8362,-76.9895"/>
</g>
<!-- Node2&#45;&gt;Node7 -->
<g id="edge6" class="edge">
<title>Node2&#45;&gt;Node7</title>
<path fill="none" stroke="#191970" d="M444.2702,-168.3733C468.3966,-159.1822 504.9362,-145.2624 531.6877,-135.0713"/>
<polygon fill="#191970" stroke="#191970" points="532.9607,-138.3318 541.0596,-131.5011 530.4687,-131.7904 532.9607,-138.3318"/>
</g>
<!-- Node21 -->
<g id="node21" class="node">
<title>Node21</title>
<g id="a_node21"><a xlink:href="WSTP_2Utilities_8h.html" target="_top" xlink:title="Header file with miscellaneous utilities used throughout the WSTP&#45;related part of LibraryLinkUtilitie...">
<polygon fill="#ffffff" stroke="#000000" points="291.5,-112.5 291.5,-131.5 402.5,-131.5 402.5,-112.5 291.5,-112.5"/>
<text text-anchor="middle" x="347" y="-119.5" font-family="Helvetica,sans-Serif" font-size="10.00" fill="#000000">LLU/WSTP/Utilities.h</text>
</a>
</g>
</g>
<!-- Node2&#45;&gt;Node21 -->
<g id="edge21" class="edge">
<title>Node2&#45;&gt;Node21</title>
<path fill="none" stroke="#191970" d="M406.4586,-168.2455C395.7213,-159.8943 380.0527,-147.7076 367.4953,-137.9408"/>
<polygon fill="#191970" stroke="#191970" points="369.4401,-135.0194 359.3977,-131.6427 365.1425,-140.5449 369.4401,-135.0194"/>
</g>
<!-- Node6 -->
<g id="node6" class="node">
<title>Node6</title>
<g id="a_node6"><a xlink:title=" ">
<polygon fill="#ffffff" stroke="#bfbfbf" points="119.5,-.5 119.5,-19.5 160.5,-19.5 160.5,-.5 119.5,-.5"/>
<text text-anchor="middle" x="140" y="-7.5" font-family="Helvetica,sans-Serif" font-size="10.00" fill="#000000">string</text>
</a>
</g>
</g>
<!-- Node5&#45;&gt;Node6 -->
<g id="edge5" class="edge">
<title>Node5&#45;&gt;Node6</title>
<path fill="none" stroke="#191970" d="M70.6317,-56.2455C83.3994,-47.7337 102.1438,-35.2375 116.9299,-25.3801"/>
<polygon fill="#191970" stroke="#191970" points="119.1569,-28.1019 125.536,-19.6427 115.274,-22.2775 119.1569,-28.1019"/>
</g>
<!-- Node8 -->
<g id="node8" class="node">
<title>Node8</title>
<g id="a_node8"><a xlink:title=" ">
<polygon fill="#ffffff" stroke="#bfbfbf" points="658.5,-56.5 658.5,-75.5 711.5,-75.5 711.5,-56.5 658.5,-56.5"/>
<text text-anchor="middle" x="685" y="-63.5" font-family="Helvetica,sans-Serif" font-size="10.00" fill="#000000">complex</text>
</a>
</g>
</g>
<!-- Node7&#45;&gt;Node8 -->
<g id="edge7" class="edge">
<title>Node7&#45;&gt;Node8</title>
<path fill="none" stroke="#191970" d="M586.4568,-112.3733C605.4738,-103.4241 634.0175,-89.9917 655.4976,-79.8835"/>
<polygon fill="#191970" stroke="#191970" points="657.2522,-82.926 664.8101,-75.5011 654.2716,-76.5923 657.2522,-82.926"/>
</g>
<!-- Node9 -->
<g id="node9" class="node">
<title>Node9</title>
<g id="a_node9"><a xlink:title=" ">
<polygon fill="#ffffff" stroke="#bfbfbf" points="235,-.5 235,-19.5 281,-19.5 281,-.5 235,-.5"/>
<text text-anchor="middle" x="258" y="-7.5" font-family="Helvetica,sans-Serif" font-size="10.00" fill="#000000">cstdint</text>
</a>
</g>
</g>
<!-- Node7&#45;&gt;Node9 -->
<g id="edge8" class="edge">
<title>Node7&#45;&gt;Node9</title>
<path fill="none" stroke="#191970" d="M521.2549,-118.3661C440.7402,-111.3815 278.1813,-95.0731 261,-76 249.9884,-63.7759 250.3746,-44.5302 252.8432,-29.969"/>
<polygon fill="#191970" stroke="#191970" points="256.319,-30.4511 254.9825,-19.9409 249.4731,-28.9906 256.319,-30.4511"/>
</g>
<!-- Node10 -->
<g id="node10" class="node">
<title>Node10</title>
<g id="a_node10"><a xlink:title=" ">
<polygon fill="#ffffff" stroke="#bfbfbf" points="318,-.5 318,-19.5 380,-19.5 380,-.5 318,-.5"/>
<text text-anchor="middle" x="349" y="-7.5" font-family="Helvetica,sans-Serif" font-size="10.00" fill="#000000">type_traits</text>
</a>
</g>
</g>
<!-- Node7&#45;&gt;Node10 -->
<g id="edge9" class="edge">
<title>Node7&#45;&gt;Node10</title>
<path fill="none" stroke="#191970" d="M547.4987,-112.4509C509.3039,-92.7375 421.5527,-47.4465 376.6178,-24.2543"/>
<polygon fill="#191970" stroke="#191970" points="377.946,-21.0012 367.4545,-19.5249 374.7354,-27.2215 377.946,-21.0012"/>
</g>
<!-- Node11 -->
<g id="node11" class="node">
<title>Node11</title>
<g id="a_node11"><a xlink:title=" ">
<polygon fill="#ffffff" stroke="#bfbfbf" points="404,-.5 404,-19.5 444,-19.5 444,-.5 404,-.5"/>
<text text-anchor="middle" x="424" y="-7.5" font-family="Helvetica,sans-Serif" font-size="10.00" fill="#000000">utility</text>
</a>
</g>
</g>
<!-- Node7&#45;&gt;Node11 -->
<g id="edge10" class="edge">
<title>Node7&#45;&gt;Node11</title>
<path fill="none" stroke="#191970" d="M564.966,-112.153C562.973,-97.9485 557.3394,-71.6953 542,-56 535.5237,-49.3734 486.4168,-31.5299 453.6271,-20.114"/>
<polygon fill="#191970" stroke="#191970" points="454.6349,-16.7591 444.0401,-16.797 452.346,-23.3744 454.6349,-16.7591"/>
</g>
<!-- Node12 -->
<g id="node12" class="node">
<title>Node12</title>
<g id="a_node12"><a xlink:title=" ">
<polygon fill="#ffffff" stroke="#bfbfbf" points="594,-56.5 594,-75.5 640,-75.5 640,-56.5 594,-56.5"/>
<text text-anchor="middle" x="617" y="-63.5" font-family="Helvetica,sans-Serif" font-size="10.00" fill="#000000">variant</text>
</a>
</g>
</g>
<!-- Node7&#45;&gt;Node12 -->
<g id="edge11" class="edge">
<title>Node7&#45;&gt;Node12</title>
<path fill="none" stroke="#191970" d="M574.8835,-112.2455C582.1966,-104.2155 592.7391,-92.6394 601.4467,-83.0781"/>
<polygon fill="#191970" stroke="#191970" points="604.0727,-85.3928 608.2183,-75.6427 598.8972,-80.6795 604.0727,-85.3928"/>
</g>
<!-- Node13 -->
<g id="node13" class="node">
<title>Node13</title>
<g id="a_node13"><a xlink:href="LibraryData_8h.html" target="_top" xlink:title=" ">
<polygon fill="#ffffff" stroke="#000000" points="817,-56.5 817,-75.5 913,-75.5 913,-56.5 817,-56.5"/>
<text text-anchor="middle" x="865" y="-63.5" font-family="Helvetica,sans-Serif" font-size="10.00" fill="#000000">LLU/LibraryData.h</text>
</a>
</g>
</g>
<!-- Node7&#45;&gt;Node13 -->
<g id="edge12" class="edge">
<title>Node7&#45;&gt;Node13</title>
<path fill="none" stroke="#191970" d="M610.7633,-113.6162C663.0161,-103.8298 749.5738,-87.6183 806.9498,-76.8723"/>
<polygon fill="#191970" stroke="#191970" points="807.7705,-80.2795 816.9553,-74.9983 806.4819,-73.3991 807.7705,-80.2795"/>
</g>
<!-- Node13&#45;&gt;Node4 -->
<g id="edge15" class="edge">
<title>Node13&#45;&gt;Node4</title>
<path fill="none" stroke="#191970" d="M816.9679,-60.6213C739.9055,-51.8281 591.0096,-34.1262 521.3722,-19.9389"/>
<polygon fill="#191970" stroke="#191970" points="521.8057,-16.4525 511.2948,-17.7835 520.3416,-23.2977 521.8057,-16.4525"/>
</g>
<!-- Node14 -->
<g id="node14" class="node">
<title>Node14</title>
<g id="a_node14"><a xlink:title=" ">
<polygon fill="#ffffff" stroke="#bfbfbf" points="839,-.5 839,-19.5 891,-19.5 891,-.5 839,-.5"/>
<text text-anchor="middle" x="865" y="-7.5" font-family="Helvetica,sans-Serif" font-size="10.00" fill="#000000">memory</text>
</a>
</g>
</g>
<!-- Node13&#45;&gt;Node14 -->
<g id="edge13" class="edge">
<title>Node13&#45;&gt;Node14</title>
<path fill="none" stroke="#191970" d="M865,-56.2455C865,-48.9382 865,-38.6944 865,-29.7046"/>
<polygon fill="#191970" stroke="#191970" points="868.5001,-29.6426 865,-19.6427 861.5001,-29.6427 868.5001,-29.6426"/>
</g>
<!-- Node15 -->
<g id="node15" class="node">
<title>Node15</title>
<g id="a_node15"><a xlink:title=" ">
<polygon fill="#ffffff" stroke="#bfbfbf" points="909,-.5 909,-19.5 971,-19.5 971,-.5 909,-.5"/>
<text text-anchor="middle" x="940" y="-7.5" font-family="Helvetica,sans-Serif" font-size="10.00" fill="#000000">dllexport.h</text>
</a>
</g>
</g>
<!-- Node13&#45;&gt;Node15 -->
<g id="edge14" class="edge">
<title>Node13&#45;&gt;Node15</title>
<path fill="none" stroke="#191970" d="M878.064,-56.2455C889.3562,-47.814 905.8845,-35.4729 919.0271,-25.6598"/>
<polygon fill="#191970" stroke="#191970" points="921.1669,-28.4301 927.0857,-19.6427 916.9789,-22.8211 921.1669,-28.4301"/>
</g>
<!-- Node16 -->
<g id="node16" class="node">
<title>Node16</title>
<g id="a_node16"><a xlink:title=" ">
<polygon fill="#ffffff" stroke="#bfbfbf" points="989.5,-.5 989.5,-19.5 1080.5,-19.5 1080.5,-.5 989.5,-.5"/>
<text text-anchor="middle" x="1035" y="-7.5" font-family="Helvetica,sans-Serif" font-size="10.00" fill="#000000">WolframLibrary.h</text>
</a>
</g>
</g>
<!-- Node13&#45;&gt;Node16 -->
<g id="edge16" class="edge">
<title>Node13&#45;&gt;Node16</title>
<path fill="none" stroke="#191970" d="M894.224,-56.3733C922.4925,-47.0613 965.4965,-32.8953 996.5344,-22.671"/>
<polygon fill="#191970" stroke="#191970" points="997.7544,-25.9542 1006.1573,-19.5011 995.5643,-19.3056 997.7544,-25.9542"/>
</g>
<!-- Node17 -->
<g id="node17" class="node">
<title>Node17</title>
<g id="a_node17"><a xlink:title=" ">
<polygon fill="#ffffff" stroke="#bfbfbf" points="1099,-.5 1099,-19.5 1243,-19.5 1243,-.5 1099,-.5"/>
<text text-anchor="middle" x="1171" y="-7.5" font-family="Helvetica,sans-Serif" font-size="10.00" fill="#000000">WolframIOLibraryFunctions.h</text>
</a>
</g>
</g>
<!-- Node13&#45;&gt;Node17 -->
<g id="edge17" class="edge">
<title>Node13&#45;&gt;Node17</title>
<path fill="none" stroke="#191970" d="M913.1491,-57.1884C966.0213,-47.5125 1051.0807,-31.946 1108.9268,-21.3598"/>
<polygon fill="#191970" stroke="#191970" points="1109.8326,-24.7522 1119.0392,-19.5092 1108.5724,-17.8666 1109.8326,-24.7522"/>
</g>
<!-- Node18 -->
<g id="node18" class="node">
<title>Node18</title>
<g id="a_node18"><a xlink:title=" ">
<polygon fill="#ffffff" stroke="#bfbfbf" points="1261,-.5 1261,-19.5 1379,-19.5 1379,-.5 1261,-.5"/>
<text text-anchor="middle" x="1320" y="-7.5" font-family="Helvetica,sans-Serif" font-size="10.00" fill="#000000">WolframImageLibrary.h</text>
</a>
</g>
</g>
<!-- Node13&#45;&gt;Node18 -->
<g id="edge18" class="edge">
<title>Node13&#45;&gt;Node18</title>
<path fill="none" stroke="#191970" d="M913.0179,-60.7254C984.3642,-52.7928 1122.8388,-37.0314 1250.7049,-20.1449"/>
<polygon fill="#191970" stroke="#191970" points="1251.2222,-23.6071 1260.6754,-18.823 1250.3021,-16.6678 1251.2222,-23.6071"/>
</g>
<!-- Node19 -->
<g id="node19" class="node">
<title>Node19</title>
<g id="a_node19"><a xlink:title=" ">
<polygon fill="#ffffff" stroke="#bfbfbf" points="529.5,-.5 529.5,-19.5 680.5,-19.5 680.5,-.5 529.5,-.5"/>
<text text-anchor="middle" x="605" y="-7.5" font-family="Helvetica,sans-Serif" font-size="10.00" fill="#000000">WolframNumericArrayLibrary.h</text>
</a>
</g>
</g>
<!-- Node13&#45;&gt;Node19 -->
<g id="edge19" class="edge">
<title>Node13&#45;&gt;Node19</title>
<path fill="none" stroke="#191970" d="M820.5998,-56.4369C775.9159,-46.8127 706.943,-31.957 659.0912,-21.6504"/>
<polygon fill="#191970" stroke="#191970" points="659.7298,-18.2078 649.217,-19.5237 658.2559,-25.0508 659.7298,-18.2078"/>
</g>
<!-- Node20 -->
<g id="node20" class="node">
<title>Node20</title>
<g id="a_node20"><a xlink:title=" ">
<polygon fill="#ffffff" stroke="#bfbfbf" points="699,-.5 699,-19.5 821,-19.5 821,-.5 699,-.5"/>
<text text-anchor="middle" x="760" y="-7.5" font-family="Helvetica,sans-Serif" font-size="10.00" fill="#000000">WolframSparseLibrary.h</text>
</a>
</g>
</g>
<!-- Node13&#45;&gt;Node20 -->
<g id="edge20" class="edge">
<title>Node13&#45;&gt;Node20</title>
<path fill="none" stroke="#191970" d="M846.7104,-56.2455C830.2238,-47.4527 805.7648,-34.4079 787.0235,-24.4125"/>
<polygon fill="#191970" stroke="#191970" points="788.5506,-21.2604 778.08,-19.6427 785.2565,-27.4368 788.5506,-21.2604"/>
</g>
<!-- Node21&#45;&gt;Node4 -->
<g id="edge24" class="edge">
<title>Node21&#45;&gt;Node4</title>
<path fill="none" stroke="#191970" d="M370.3735,-112.4679C388.5571,-104.3798 413.8339,-91.6137 433,-76 450.0748,-62.09 465.75,-42.2694 475.9597,-27.9839"/>
<polygon fill="#191970" stroke="#191970" points="479.0123,-29.7241 481.8395,-19.5134 473.2619,-25.7325 479.0123,-29.7241"/>
</g>
<!-- Node21&#45;&gt;Node5 -->
<g id="edge25" class="edge">
<title>Node21&#45;&gt;Node5</title>
<path fill="none" stroke="#191970" d="M297.306,-112.4369C246.9804,-102.7522 169.1277,-87.7703 115.5349,-77.4569"/>
<polygon fill="#191970" stroke="#191970" points="115.9703,-73.9765 105.4891,-75.5237 114.6475,-80.8504 115.9703,-73.9765"/>
</g>
<!-- Node21&#45;&gt;Node6 -->
<g id="edge23" class="edge">
<title>Node21&#45;&gt;Node6</title>
<path fill="none" stroke="#191970" d="M296.886,-112.4289C244.6625,-102.0344 169.0269,-85.6305 159,-76 146.5279,-64.021 142.0892,-44.4319 140.5847,-29.7001"/>
<polygon fill="#191970" stroke="#191970" points="144.0685,-29.3374 139.9216,-19.5879 137.0835,-29.7955 144.0685,-29.3374"/>
</g>
<!-- Node22 -->
<g id="node22" class="node">
<title>Node22</title>
<g id="a_node22"><a xlink:title=" ">
<polygon fill="#ffffff" stroke="#bfbfbf" points="168,-56.5 168,-75.5 214,-75.5 214,-56.5 168,-56.5"/>
<text text-anchor="middle" x="191" y="-63.5" font-family="Helvetica,sans-Serif" font-size="10.00" fill="#000000">cstring</text>
</a>
</g>
</g>
<!-- Node21&#45;&gt;Node22 -->
<g id="edge22" class="edge">
<title>Node21&#45;&gt;Node22</title>
<path fill="none" stroke="#191970" d="M320.1826,-112.3733C293.5317,-102.8062 252.6077,-88.1156 223.9827,-77.8399"/>
<polygon fill="#191970" stroke="#191970" points="225.0086,-74.4896 214.4141,-74.4051 222.6435,-81.078 225.0086,-74.4896"/>
</g>
<!-- Node23 -->
<g id="node23" class="node">
<title>Node23</title>
<g id="a_node23"><a xlink:href="EncodingTraits_8hpp.html" target="_top" xlink:title="Defines possible encodings together with their properties and related types.">
<polygon fill="#ffffff" stroke="#000000" points="270,-56.5 270,-75.5 424,-75.5 424,-56.5 270,-56.5"/>
<text text-anchor="middle" x="347" y="-63.5" font-family="Helvetica,sans-Serif" font-size="10.00" fill="#000000">LLU/WSTP/EncodingTraits.hpp</text>
</a>
</g>
</g>
<!-- Node21&#45;&gt;Node23 -->
<g id="edge26" class="edge">
<title>Node21&#45;&gt;Node23</title>
<path fill="none" stroke="#191970" d="M347,-112.2455C347,-104.9382 347,-94.6944 347,-85.7046"/>
<polygon fill="#191970" stroke="#191970" points="350.5001,-85.6426 347,-75.6427 343.5001,-85.6427 350.5001,-85.6426"/>
</g>
<!-- Node23&#45;&gt;Node6 -->
<g id="edge28" class="edge">
<title>Node23&#45;&gt;Node6</title>
<path fill="none" stroke="#191970" d="M311.4154,-56.3733C271.6871,-45.6255 208.056,-28.4113 170.5138,-18.255"/>
<polygon fill="#191970" stroke="#191970" points="171.2254,-14.8217 160.6584,-15.5887 169.3973,-21.5788 171.2254,-14.8217"/>
</g>
<!-- Node23&#45;&gt;Node9 -->
<g id="edge27" class="edge">
<title>Node23&#45;&gt;Node9</title>
<path fill="none" stroke="#191970" d="M331.4974,-56.2455C317.842,-47.6534 297.7343,-35.0014 282.0011,-25.1018"/>
<polygon fill="#191970" stroke="#191970" points="283.6529,-22.006 273.325,-19.6427 279.9249,-27.9307 283.6529,-22.006"/>
</g>
<!-- Node23&#45;&gt;Node10 -->
<g id="edge29" class="edge">
<title>Node23&#45;&gt;Node10</title>
<path fill="none" stroke="#191970" d="M347.3484,-56.2455C347.6093,-48.9382 347.9752,-38.6944 348.2963,-29.7046"/>
<polygon fill="#191970" stroke="#191970" points="351.7964,-29.7613 348.6556,-19.6427 344.8008,-29.5113 351.7964,-29.7613"/>
</g>
<!-- Node23&#45;&gt;Node11 -->
<g id="edge30" class="edge">
<title>Node23&#45;&gt;Node11</title>
<path fill="none" stroke="#191970" d="M360.4124,-56.2455C372.0057,-47.814 388.9748,-35.4729 402.4678,-25.6598"/>
<polygon fill="#191970" stroke="#191970" points="404.7126,-28.355 410.7413,-19.6427 400.5953,-22.6938 404.7126,-28.355"/>
</g>
</g>
</svg>
