<?xml version="1.0" encoding="UTF-8" standalone="no"?>
<!DOCTYPE svg PUBLIC "-//W3C//DTD SVG 1.1//EN"
 "http://www.w3.org/Graphics/SVG/1.1/DTD/svg11.dtd">
<!-- Generated by graphviz version 2.40.1 (20161225.0304)
 -->
<!-- Title: Release.cpp Pages: 1 -->
<!--zoomable 252 -->
<svg id="main" version="1.1" xmlns="http://www.w3.org/2000/svg" xmlns:xlink="http://www.w3.org/1999/xlink" xml:space="preserve" onload="init(evt)">
<style type="text/css"><![CDATA[
.edge:hover path { stroke: red; }
.edge:hover polygon { stroke: red; fill: red; }
]]></style>
<script type="text/javascript"><![CDATA[
var edges = document.getElementsByTagName('g');
if (edges && edges.length) {
  for (var i=0;i<edges.length;i++) {
    if (edges[i].id.substr(0,4)=='edge') {
      edges[i].setAttribute('class','edge');
    }
  }
}
]]></script>
        <defs>
                <circle id="rim" cx="0" cy="0" r="7"/>
                <circle id="rim2" cx="0" cy="0" r="3.5"/>
                <g id="zoomPlus">
                        <use xlink:href="#rim" fill="#404040">
                                <set attributeName="fill" to="#808080" begin="zoomplus.mouseover" end="zoomplus.mouseout"/>
                        </use>
                        <path d="M-4,0h8M0,-4v8" fill="none" stroke="white" stroke-width="1.5" pointer-events="none"/>
                </g>
                <g id="zoomMin">
                        <use xlink:href="#rim" fill="#404040">
                                <set attributeName="fill" to="#808080" begin="zoomminus.mouseover" end="zoomminus.mouseout"/>
                        </use>
                        <path d="M-4,0h8" fill="none" stroke="white" stroke-width="1.5" pointer-events="none"/>
                </g>
                <g id="dirArrow">
                        <path fill="none" stroke="white" stroke-width="1.5" d="M0,-3.0v7 M-2.5,-0.5L0,-3.0L2.5,-0.5"/>
                </g>
               <g id="resetDef">
                       <use xlink:href="#rim2" fill="#404040">
                               <set attributeName="fill" to="#808080" begin="reset.mouseover" end="reset.mouseout"/>
                       </use>
               </g>
        </defs>

<script type="text/javascript">
var viewWidth = 1028;
var viewHeight = 252;
var sectionId = 'dynsection-0';
</script>
<script xlink:href="svgpan.js"/>
<svg id="graph" class="graph">
<g id="viewport">
<title>Release.cpp</title>
<polygon fill="#ffffff" stroke="transparent" points="-4,4 -4,-248 1023.5,-248 1023.5,4 -4,4"/>
<!-- Node1 -->
<g id="node1" class="node">
<title>Node1</title>
<g id="a_node1"><a xlink:title="Implementation file with classes responsible for releasing memory allocated by WSTP when receiving da...">
<polygon fill="#bfbfbf" stroke="#000000" points="52,-224.5 52,-243.5 123,-243.5 123,-224.5 52,-224.5"/>
<text text-anchor="middle" x="87.5" y="-231.5" font-family="Helvetica,sans-Serif" font-size="10.00" fill="#000000">Release.cpp</text>
</a>
</g>
</g>
<!-- Node2 -->
<g id="node2" class="node">
<title>Node2</title>
<g id="a_node2"><a xlink:href="Release_8h.html" target="_top" xlink:title="Header file with classes responsible for releasing memory allocated by WSTP when receiving data.">
<polygon fill="#ffffff" stroke="#000000" points="30.5,-168.5 30.5,-187.5 144.5,-187.5 144.5,-168.5 30.5,-168.5"/>
<text text-anchor="middle" x="87.5" y="-175.5" font-family="Helvetica,sans-Serif" font-size="10.00" fill="#000000">LLU/WSTP/Release.h</text>
</a>
</g>
</g>
<!-- Node1&#45;&gt;Node2 -->
<g id="edge1" class="edge">
<title>Node1&#45;&gt;Node2</title>
<path fill="none" stroke="#191970" d="M87.5,-224.2455C87.5,-216.9382 87.5,-206.6944 87.5,-197.7046"/>
<polygon fill="#191970" stroke="#191970" points="91.0001,-197.6426 87.5,-187.6427 84.0001,-197.6427 91.0001,-197.6426"/>
</g>
<!-- Node3 -->
<g id="node3" class="node">
<title>Node3</title>
<g id="a_node3"><a xlink:title=" ">
<polygon fill="#ffffff" stroke="#bfbfbf" points="0,-112.5 0,-131.5 59,-131.5 59,-112.5 0,-112.5"/>
<text text-anchor="middle" x="29.5" y="-119.5" font-family="Helvetica,sans-Serif" font-size="10.00" fill="#000000">functional</text>
</a>
</g>
</g>
<!-- Node2&#45;&gt;Node3 -->
<g id="edge2" class="edge">
<title>Node2&#45;&gt;Node3</title>
<path fill="none" stroke="#191970" d="M77.3972,-168.2455C68.9972,-160.1352 56.8506,-148.4075 46.8916,-138.7919"/>
<polygon fill="#191970" stroke="#191970" points="49.1122,-136.0707 39.4871,-131.6427 44.25,-141.1066 49.1122,-136.0707"/>
</g>
<!-- Node4 -->
<g id="node4" class="node">
<title>Node4</title>
<g id="a_node4"><a xlink:title=" ">
<polygon fill="#ffffff" stroke="#bfbfbf" points="85.5,-.5 85.5,-19.5 131.5,-19.5 131.5,-.5 85.5,-.5"/>
<text text-anchor="middle" x="108.5" y="-7.5" font-family="Helvetica,sans-Serif" font-size="10.00" fill="#000000">wstp.h</text>
</a>
</g>
</g>
<!-- Node2&#45;&gt;Node4 -->
<g id="edge3" class="edge">
<title>Node2&#45;&gt;Node4</title>
<path fill="none" stroke="#191970" d="M88.6892,-168.4862C92.0088,-141.9293 101.4294,-66.5651 105.9793,-30.1655"/>
<polygon fill="#191970" stroke="#191970" points="109.5041,-30.1848 107.2715,-19.8279 102.5581,-29.3165 109.5041,-30.1848"/>
</g>
<!-- Node5 -->
<g id="node5" class="node">
<title>Node5</title>
<g id="a_node5"><a xlink:href="Utilities_8hpp.html" target="_top" xlink:title="Short but generally useful functions.">
<polygon fill="#ffffff" stroke="#000000" points="238,-112.5 238,-131.5 327,-131.5 327,-112.5 238,-112.5"/>
<text text-anchor="middle" x="282.5" y="-119.5" font-family="Helvetica,sans-Serif" font-size="10.00" fill="#000000">LLU/Utilities.hpp</text>
</a>
</g>
</g>
<!-- Node2&#45;&gt;Node5 -->
<g id="edge4" class="edge">
<title>Node2&#45;&gt;Node5</title>
<path fill="none" stroke="#191970" d="M121.0217,-168.3733C153.8683,-158.9404 204.0595,-144.5265 239.7578,-134.2747"/>
<polygon fill="#191970" stroke="#191970" points="240.7703,-137.6255 249.4157,-131.5011 238.8381,-130.8974 240.7703,-137.6255"/>
</g>
<!-- Node6 -->
<g id="node6" class="node">
<title>Node6</title>
<g id="a_node6"><a xlink:title=" ">
<polygon fill="#ffffff" stroke="#bfbfbf" points="116,-56.5 116,-75.5 169,-75.5 169,-56.5 116,-56.5"/>
<text text-anchor="middle" x="142.5" y="-63.5" font-family="Helvetica,sans-Serif" font-size="10.00" fill="#000000">complex</text>
</a>
</g>
</g>
<!-- Node5&#45;&gt;Node6 -->
<g id="edge5" class="edge">
<title>Node5&#45;&gt;Node6</title>
<path fill="none" stroke="#191970" d="M258.4331,-112.3733C235.6572,-103.2629 201.2656,-89.5062 175.851,-79.3404"/>
<polygon fill="#191970" stroke="#191970" points="176.8375,-75.9654 166.2528,-75.5011 174.2377,-82.4648 176.8375,-75.9654"/>
</g>
<!-- Node7 -->
<g id="node7" class="node">
<title>Node7</title>
<g id="a_node7"><a xlink:title=" ">
<polygon fill="#ffffff" stroke="#bfbfbf" points="187.5,-56.5 187.5,-75.5 233.5,-75.5 233.5,-56.5 187.5,-56.5"/>
<text text-anchor="middle" x="210.5" y="-63.5" font-family="Helvetica,sans-Serif" font-size="10.00" fill="#000000">cstdint</text>
</a>
</g>
</g>
<!-- Node5&#45;&gt;Node7 -->
<g id="edge6" class="edge">
<title>Node5&#45;&gt;Node7</title>
<path fill="none" stroke="#191970" d="M269.9586,-112.2455C259.2213,-103.8943 243.5527,-91.7076 230.9953,-81.9408"/>
<polygon fill="#191970" stroke="#191970" points="232.9401,-79.0194 222.8977,-75.6427 228.6425,-84.5449 232.9401,-79.0194"/>
</g>
<!-- Node8 -->
<g id="node8" class="node">
<title>Node8</title>
<g id="a_node8"><a xlink:title=" ">
<polygon fill="#ffffff" stroke="#bfbfbf" points="251.5,-56.5 251.5,-75.5 313.5,-75.5 313.5,-56.5 251.5,-56.5"/>
<text text-anchor="middle" x="282.5" y="-63.5" font-family="Helvetica,sans-Serif" font-size="10.00" fill="#000000">type_traits</text>
</a>
</g>
</g>
<!-- Node5&#45;&gt;Node8 -->
<g id="edge7" class="edge">
<title>Node5&#45;&gt;Node8</title>
<path fill="none" stroke="#191970" d="M282.5,-112.2455C282.5,-104.9382 282.5,-94.6944 282.5,-85.7046"/>
<polygon fill="#191970" stroke="#191970" points="286.0001,-85.6426 282.5,-75.6427 279.0001,-85.6427 286.0001,-85.6426"/>
</g>
<!-- Node9 -->
<g id="node9" class="node">
<title>Node9</title>
<g id="a_node9"><a xlink:title=" ">
<polygon fill="#ffffff" stroke="#bfbfbf" points="331.5,-56.5 331.5,-75.5 371.5,-75.5 371.5,-56.5 331.5,-56.5"/>
<text text-anchor="middle" x="351.5" y="-63.5" font-family="Helvetica,sans-Serif" font-size="10.00" fill="#000000">utility</text>
</a>
</g>
</g>
<!-- Node5&#45;&gt;Node9 -->
<g id="edge8" class="edge">
<title>Node5&#45;&gt;Node9</title>
<path fill="none" stroke="#191970" d="M294.5189,-112.2455C304.7098,-103.9746 319.5362,-91.9416 331.5107,-82.2232"/>
<polygon fill="#191970" stroke="#191970" points="334.0598,-84.662 339.6188,-75.6427 329.6486,-79.2268 334.0598,-84.662"/>
</g>
<!-- Node10 -->
<g id="node10" class="node">
<title>Node10</title>
<g id="a_node10"><a xlink:title=" ">
<polygon fill="#ffffff" stroke="#bfbfbf" points="389.5,-56.5 389.5,-75.5 435.5,-75.5 435.5,-56.5 389.5,-56.5"/>
<text text-anchor="middle" x="412.5" y="-63.5" font-family="Helvetica,sans-Serif" font-size="10.00" fill="#000000">variant</text>
</a>
</g>
</g>
<!-- Node5&#45;&gt;Node10 -->
<g id="edge9" class="edge">
<title>Node5&#45;&gt;Node10</title>
<path fill="none" stroke="#191970" d="M304.8478,-112.3733C325.9033,-103.3032 357.6495,-89.6279 381.2175,-79.4755"/>
<polygon fill="#191970" stroke="#191970" points="382.6444,-82.6719 390.4438,-75.5011 379.875,-76.243 382.6444,-82.6719"/>
</g>
<!-- Node11 -->
<g id="node11" class="node">
<title>Node11</title>
<g id="a_node11"><a xlink:href="LibraryData_8h.html" target="_top" xlink:title=" ">
<polygon fill="#ffffff" stroke="#000000" points="453.5,-56.5 453.5,-75.5 549.5,-75.5 549.5,-56.5 453.5,-56.5"/>
<text text-anchor="middle" x="501.5" y="-63.5" font-family="Helvetica,sans-Serif" font-size="10.00" fill="#000000">LLU/LibraryData.h</text>
</a>
</g>
</g>
<!-- Node5&#45;&gt;Node11 -->
<g id="edge10" class="edge">
<title>Node5&#45;&gt;Node11</title>
<path fill="none" stroke="#191970" d="M320.1474,-112.3733C357.352,-102.8598 414.3703,-88.2797 454.5216,-78.0127"/>
<polygon fill="#191970" stroke="#191970" points="455.5227,-81.3695 464.3438,-75.5011 453.7884,-74.5877 455.5227,-81.3695"/>
</g>
<!-- Node11&#45;&gt;Node4 -->
<g id="edge13" class="edge">
<title>Node11&#45;&gt;Node4</title>
<path fill="none" stroke="#191970" d="M453.3243,-57.3821C450.3407,-56.8999 447.381,-56.4351 444.5,-56 318.6941,-37.0018 286.1467,-40.024 160.5,-20 154.4514,-19.036 148.029,-17.8965 141.8372,-16.7381"/>
<polygon fill="#191970" stroke="#191970" points="142.2218,-13.2481 131.741,-14.7984 140.901,-20.1223 142.2218,-13.2481"/>
</g>
<!-- Node12 -->
<g id="node12" class="node">
<title>Node12</title>
<g id="a_node12"><a xlink:title=" ">
<polygon fill="#ffffff" stroke="#bfbfbf" points="169.5,-.5 169.5,-19.5 221.5,-19.5 221.5,-.5 169.5,-.5"/>
<text text-anchor="middle" x="195.5" y="-7.5" font-family="Helvetica,sans-Serif" font-size="10.00" fill="#000000">memory</text>
</a>
</g>
</g>
<!-- Node11&#45;&gt;Node12 -->
<g id="edge11" class="edge">
<title>Node11&#45;&gt;Node12</title>
<path fill="none" stroke="#191970" d="M453.3021,-57.5198C450.324,-57.0034 447.3715,-56.4934 444.5,-56 352.6016,-40.2092 326.2996,-41.1938 231.7776,-20.105"/>
<polygon fill="#191970" stroke="#191970" points="232.3172,-16.6388 221.7921,-17.8525 230.7768,-23.4673 232.3172,-16.6388"/>
</g>
<!-- Node13 -->
<g id="node13" class="node">
<title>Node13</title>
<g id="a_node13"><a xlink:title=" ">
<polygon fill="#ffffff" stroke="#bfbfbf" points="239.5,-.5 239.5,-19.5 301.5,-19.5 301.5,-.5 239.5,-.5"/>
<text text-anchor="middle" x="270.5" y="-7.5" font-family="Helvetica,sans-Serif" font-size="10.00" fill="#000000">dllexport.h</text>
</a>
</g>
</g>
<!-- Node11&#45;&gt;Node13 -->
<g id="edge12" class="edge">
<title>Node11&#45;&gt;Node13</title>
<path fill="none" stroke="#191970" d="M461.8297,-56.4163C425.416,-47.6148 369.7051,-34.1373 311.5672,-20.0133"/>
<polygon fill="#191970" stroke="#191970" points="312.3816,-16.6095 301.8379,-17.6492 310.7287,-23.4115 312.3816,-16.6095"/>
</g>
<!-- Node14 -->
<g id="node14" class="node">
<title>Node14</title>
<g id="a_node14"><a xlink:title=" ">
<polygon fill="#ffffff" stroke="#bfbfbf" points="320,-.5 320,-19.5 411,-19.5 411,-.5 320,-.5"/>
<text text-anchor="middle" x="365.5" y="-7.5" font-family="Helvetica,sans-Serif" font-size="10.00" fill="#000000">WolframLibrary.h</text>
</a>
</g>
</g>
<!-- Node11&#45;&gt;Node14 -->
<g id="edge14" class="edge">
<title>Node11&#45;&gt;Node14</title>
<path fill="none" stroke="#191970" d="M478.1208,-56.3733C455.9955,-47.2629 422.5866,-33.5062 397.8981,-23.3404"/>
<polygon fill="#191970" stroke="#191970" points="399.1536,-20.0723 388.5742,-19.5011 396.4883,-26.5451 399.1536,-20.0723"/>
</g>
<!-- Node15 -->
<g id="node15" class="node">
<title>Node15</title>
<g id="a_node15"><a xlink:title=" ">
<polygon fill="#ffffff" stroke="#bfbfbf" points="429.5,-.5 429.5,-19.5 573.5,-19.5 573.5,-.5 429.5,-.5"/>
<text text-anchor="middle" x="501.5" y="-7.5" font-family="Helvetica,sans-Serif" font-size="10.00" fill="#000000">WolframIOLibraryFunctions.h</text>
</a>
</g>
</g>
<!-- Node11&#45;&gt;Node15 -->
<g id="edge15" class="edge">
<title>Node11&#45;&gt;Node15</title>
<path fill="none" stroke="#191970" d="M501.5,-56.2455C501.5,-48.9382 501.5,-38.6944 501.5,-29.7046"/>
<polygon fill="#191970" stroke="#191970" points="505.0001,-29.6426 501.5,-19.6427 498.0001,-29.6427 505.0001,-29.6426"/>
</g>
<!-- Node16 -->
<g id="node16" class="node">
<title>Node16</title>
<g id="a_node16"><a xlink:title=" ">
<polygon fill="#ffffff" stroke="#bfbfbf" points="591.5,-.5 591.5,-19.5 709.5,-19.5 709.5,-.5 591.5,-.5"/>
<text text-anchor="middle" x="650.5" y="-7.5" font-family="Helvetica,sans-Serif" font-size="10.00" fill="#000000">WolframImageLibrary.h</text>
</a>
</g>
</g>
<!-- Node11&#45;&gt;Node16 -->
<g id="edge16" class="edge">
<title>Node11&#45;&gt;Node16</title>
<path fill="none" stroke="#191970" d="M527.114,-56.3733C551.5687,-47.1822 588.6054,-33.2624 615.7209,-23.0713"/>
<polygon fill="#191970" stroke="#191970" points="617.0909,-26.2956 625.2202,-19.5011 614.6281,-19.7431 617.0909,-26.2956"/>
</g>
<!-- Node17 -->
<g id="node17" class="node">
<title>Node17</title>
<g id="a_node17"><a xlink:title=" ">
<polygon fill="#ffffff" stroke="#bfbfbf" points="728,-.5 728,-19.5 879,-19.5 879,-.5 728,-.5"/>
<text text-anchor="middle" x="803.5" y="-7.5" font-family="Helvetica,sans-Serif" font-size="10.00" fill="#000000">WolframNumericArrayLibrary.h</text>
</a>
</g>
</g>
<!-- Node11&#45;&gt;Node17 -->
<g id="edge17" class="edge">
<title>Node11&#45;&gt;Node17</title>
<path fill="none" stroke="#191970" d="M549.6867,-57.0647C601.9214,-47.3788 685.4152,-31.8965 742.2631,-21.3552"/>
<polygon fill="#191970" stroke="#191970" points="743.0078,-24.7768 752.202,-19.5122 741.7315,-17.8942 743.0078,-24.7768"/>
</g>
<!-- Node18 -->
<g id="node18" class="node">
<title>Node18</title>
<g id="a_node18"><a xlink:title=" ">
<polygon fill="#ffffff" stroke="#bfbfbf" points="897.5,-.5 897.5,-19.5 1019.5,-19.5 1019.5,-.5 897.5,-.5"/>
<text text-anchor="middle" x="958.5" y="-7.5" font-family="Helvetica,sans-Serif" font-size="10.00" fill="#000000">WolframSparseLibrary.h</text>
</a>
</g>
</g>
<!-- Node11&#45;&gt;Node18 -->
<g id="edge18" class="edge">
<title>Node11&#45;&gt;Node18</title>
<path fill="none" stroke="#191970" d="M549.5096,-60.662C620.8453,-52.6494 759.3064,-36.7859 887.4365,-20.1154"/>
<polygon fill="#191970" stroke="#191970" points="887.9655,-23.5762 897.4282,-18.811 887.0593,-16.6351 887.9655,-23.5762"/>
</g>
</g>
</svg>
        <g id="navigator" transform="translate(0 0)" fill="#404254">
                <rect fill="#f2f5e9" fill-opacity="0.5" stroke="#606060" stroke-width=".5" x="0" y="0" width="60" height="60"/>
                <use id="zoomplus" xlink:href="#zoomPlus" x="17" y="9" onmousedown="handleZoom(evt,'in')"/>
                <use id="zoomminus" xlink:href="#zoomMin" x="42" y="9" onmousedown="handleZoom(evt,'out')"/>
                <use id="reset" xlink:href="#resetDef" x="30" y="36" onmousedown="handleReset()"/>
                <g id="arrowUp" xlink:href="#dirArrow" transform="translate(30 24)" onmousedown="handlePan(0,-1)">
                  <use xlink:href="#rim" fill="#404040">
                        <set attributeName="fill" to="#808080" begin="arrowUp.mouseover" end="arrowUp.mouseout"/>
                  </use>
                  <path fill="none" stroke="white" stroke-width="1.5" d="M0,-3.0v7 M-2.5,-0.5L0,-3.0L2.5,-0.5"/>
                </g>
                <g id="arrowRight" xlink:href="#dirArrow" transform="rotate(90) translate(36 -43)" onmousedown="handlePan(1,0)">
                  <use xlink:href="#rim" fill="#404040">
                        <set attributeName="fill" to="#808080" begin="arrowRight.mouseover" end="arrowRight.mouseout"/>
                  </use>
                  <path fill="none" stroke="white" stroke-width="1.5" d="M0,-3.0v7 M-2.5,-0.5L0,-3.0L2.5,-0.5"/>
                </g>
                <g id="arrowDown" xlink:href="#dirArrow" transform="rotate(180) translate(-30 -48)" onmousedown="handlePan(0,1)">
                  <use xlink:href="#rim" fill="#404040">
                        <set attributeName="fill" to="#808080" begin="arrowDown.mouseover" end="arrowDown.mouseout"/>
                  </use>
                  <path fill="none" stroke="white" stroke-width="1.5" d="M0,-3.0v7 M-2.5,-0.5L0,-3.0L2.5,-0.5"/>
                </g>
                <g id="arrowLeft" xlink:href="#dirArrow" transform="rotate(270) translate(-36 17)" onmousedown="handlePan(-1,0)">
                  <use xlink:href="#rim" fill="#404040">
                        <set attributeName="fill" to="#808080" begin="arrowLeft.mouseover" end="arrowLeft.mouseout"/>
                  </use>
                  <path fill="none" stroke="white" stroke-width="1.5" d="M0,-3.0v7 M-2.5,-0.5L0,-3.0L2.5,-0.5"/>
                </g>
        </g>
        <svg viewBox="0 0 15 15" width="100%" height="30px" preserveAspectRatio="xMaxYMin meet">
         <g id="arrow_out" transform="scale(0.3 0.3)">
          <a xlink:href="Release_8cpp__incl_org.svg" target="_base">
           <rect id="button" ry="5" rx="5" y="6" x="6" height="38" width="38"
                fill="#f2f5e9" fill-opacity="0.5" stroke="#606060" stroke-width="1.0"/>
           <path id="arrow"
             d="M 11.500037,31.436501 C 11.940474,20.09759 22.043105,11.32322 32.158766,21.979434 L 37.068811,17.246167 C 37.068811,17.246167 37.088388,32 37.088388,32 L 22.160133,31.978069 C 22.160133,31.978069 26.997745,27.140456 26.997745,27.140456 C 18.528582,18.264221 13.291696,25.230495 11.500037,31.436501 z"
             style="fill:#404040;"/>
          </a>
         </g>
        </svg>
</svg>
