<?xml version="1.0" encoding="UTF-8" standalone="no"?>
<!DOCTYPE svg PUBLIC "-//W3C//DTD SVG 1.1//EN"
 "http://www.w3.org/Graphics/SVG/1.1/DTD/svg11.dtd">
<!-- Generated by graphviz version 2.40.1 (20161225.0304)
 -->
<!-- Title: Strings.cpp Pages: 1 -->
<!--zoomable 252 -->
<svg id="main" version="1.1" xmlns="http://www.w3.org/2000/svg" xmlns:xlink="http://www.w3.org/1999/xlink" xml:space="preserve" onload="init(evt)">
<style type="text/css"><![CDATA[
.edge:hover path { stroke: red; }
.edge:hover polygon { stroke: red; fill: red; }
]]></style>
<script type="text/javascript"><![CDATA[
var edges = document.getElementsByTagName('g');
if (edges && edges.length) {
  for (var i=0;i<edges.length;i++) {
    if (edges[i].id.substr(0,4)=='edge') {
      edges[i].setAttribute('class','edge');
    }
  }
}
]]></script>
        <defs>
                <circle id="rim" cx="0" cy="0" r="7"/>
                <circle id="rim2" cx="0" cy="0" r="3.5"/>
                <g id="zoomPlus">
                        <use xlink:href="#rim" fill="#404040">
                                <set attributeName="fill" to="#808080" begin="zoomplus.mouseover" end="zoomplus.mouseout"/>
                        </use>
                        <path d="M-4,0h8M0,-4v8" fill="none" stroke="white" stroke-width="1.5" pointer-events="none"/>
                </g>
                <g id="zoomMin">
                        <use xlink:href="#rim" fill="#404040">
                                <set attributeName="fill" to="#808080" begin="zoomminus.mouseover" end="zoomminus.mouseout"/>
                        </use>
                        <path d="M-4,0h8" fill="none" stroke="white" stroke-width="1.5" pointer-events="none"/>
                </g>
                <g id="dirArrow">
                        <path fill="none" stroke="white" stroke-width="1.5" d="M0,-3.0v7 M-2.5,-0.5L0,-3.0L2.5,-0.5"/>
                </g>
               <g id="resetDef">
                       <use xlink:href="#rim2" fill="#404040">
                               <set attributeName="fill" to="#808080" begin="reset.mouseover" end="reset.mouseout"/>
                       </use>
               </g>
        </defs>

<script type="text/javascript">
var viewWidth = 1389;
var viewHeight = 252;
var sectionId = 'dynsection-0';
</script>
<script xlink:href="svgpan.js"/>
<svg id="graph" class="graph">
<g id="viewport">
<title>Strings.cpp</title>
<polygon fill="#ffffff" stroke="transparent" points="-4,4 -4,-248 1385,-248 1385,4 -4,4"/>
<!-- Node1 -->
<g id="node1" class="node">
<title>Node1</title>
<g id="a_node1"><a xlink:title="Implementation file for all the functionality related to Strings in WSTP.">
<polygon fill="#bfbfbf" stroke="#000000" points="620,-224.5 620,-243.5 686,-243.5 686,-224.5 620,-224.5"/>
<text text-anchor="middle" x="653" y="-231.5" font-family="Helvetica,sans-Serif" font-size="10.00" fill="#000000">Strings.cpp</text>
</a>
</g>
</g>
<!-- Node2 -->
<g id="node2" class="node">
<title>Node2</title>
<g id="a_node2"><a xlink:href="Strings_8h.html" target="_top" xlink:title="Definitions of multiple structures and type aliases related to string handling in WSTP.">
<polygon fill="#ffffff" stroke="#000000" points="747.5,-168.5 747.5,-187.5 856.5,-187.5 856.5,-168.5 747.5,-168.5"/>
<text text-anchor="middle" x="802" y="-175.5" font-family="Helvetica,sans-Serif" font-size="10.00" fill="#000000">LLU/WSTP/Strings.h</text>
</a>
</g>
</g>
<!-- Node1&#45;&gt;Node2 -->
<g id="edge1" class="edge">
<title>Node1&#45;&gt;Node2</title>
<path fill="none" stroke="#191970" d="M678.614,-224.3733C703.0687,-215.1822 740.1054,-201.2624 767.2209,-191.0713"/>
<polygon fill="#191970" stroke="#191970" points="768.5909,-194.2956 776.7202,-187.5011 766.1281,-187.7431 768.5909,-194.2956"/>
</g>
<!-- Node3 -->
<g id="node3" class="node">
<title>Node3</title>
<g id="a_node3"><a xlink:title=" ">
<polygon fill="#ffffff" stroke="#bfbfbf" points="443,-112.5 443,-131.5 499,-131.5 499,-112.5 443,-112.5"/>
<text text-anchor="middle" x="471" y="-119.5" font-family="Helvetica,sans-Serif" font-size="10.00" fill="#000000">algorithm</text>
</a>
</g>
</g>
<!-- Node1&#45;&gt;Node3 -->
<g id="edge34" class="edge">
<title>Node1&#45;&gt;Node3</title>
<path fill="none" stroke="#191970" d="M637.4828,-224.4509C605.7842,-204.9441 533.389,-160.3932 495.3602,-136.9909"/>
<polygon fill="#191970" stroke="#191970" points="496.8289,-133.7851 486.4779,-131.5249 493.1602,-139.7467 496.8289,-133.7851"/>
</g>
<!-- Node2&#45;&gt;Node3 -->
<g id="edge2" class="edge">
<title>Node2&#45;&gt;Node3</title>
<path fill="none" stroke="#191970" d="M747.4511,-170.5771C689.1825,-162.3544 594.2302,-148.1108 513,-132 511.7593,-131.7539 510.4997,-131.4968 509.229,-131.2313"/>
<polygon fill="#191970" stroke="#191970" points="509.9208,-127.7998 499.4025,-129.0709 508.4177,-134.6366 509.9208,-127.7998"/>
</g>
<!-- Node4 -->
<g id="node4" class="node">
<title>Node4</title>
<g id="a_node4"><a xlink:title=" ">
<polygon fill="#ffffff" stroke="#bfbfbf" points="1184.5,-112.5 1184.5,-131.5 1243.5,-131.5 1243.5,-112.5 1184.5,-112.5"/>
<text text-anchor="middle" x="1214" y="-119.5" font-family="Helvetica,sans-Serif" font-size="10.00" fill="#000000">functional</text>
</a>
</g>
</g>
<!-- Node2&#45;&gt;Node4 -->
<g id="edge3" class="edge">
<title>Node2&#45;&gt;Node4</title>
<path fill="none" stroke="#191970" d="M856.8085,-172.8625C928.9309,-165.7111 1059.4997,-151.4139 1170,-132 1171.4467,-131.7458 1172.9174,-131.4753 1174.401,-131.192"/>
<polygon fill="#191970" stroke="#191970" points="1175.1612,-134.6091 1184.2589,-129.1793 1173.7608,-127.7506 1175.1612,-134.6091"/>
</g>
<!-- Node5 -->
<g id="node5" class="node">
<title>Node5</title>
<g id="a_node5"><a xlink:title=" ">
<polygon fill="#ffffff" stroke="#bfbfbf" points="0,-.5 0,-19.5 52,-19.5 52,-.5 0,-.5"/>
<text text-anchor="middle" x="26" y="-7.5" font-family="Helvetica,sans-Serif" font-size="10.00" fill="#000000">memory</text>
</a>
</g>
</g>
<!-- Node2&#45;&gt;Node5 -->
<g id="edge4" class="edge">
<title>Node2&#45;&gt;Node5</title>
<path fill="none" stroke="#191970" d="M760.6659,-168.4766C703.8149,-155.434 598.2654,-131.4193 508,-112 312.9013,-70.0274 259.6912,-68.3827 62.14,-20.1561"/>
<polygon fill="#191970" stroke="#191970" points="62.8623,-16.7296 52.3166,-17.7488 61.1961,-23.5285 62.8623,-16.7296"/>
</g>
<!-- Node6 -->
<g id="node6" class="node">
<title>Node6</title>
<g id="a_node6"><a xlink:title=" ">
<polygon fill="#ffffff" stroke="#bfbfbf" points="868,-.5 868,-19.5 914,-19.5 914,-.5 868,-.5"/>
<text text-anchor="middle" x="891" y="-7.5" font-family="Helvetica,sans-Serif" font-size="10.00" fill="#000000">wstp.h</text>
</a>
</g>
</g>
<!-- Node2&#45;&gt;Node6 -->
<g id="edge5" class="edge">
<title>Node2&#45;&gt;Node6</title>
<path fill="none" stroke="#191970" d="M788.1831,-168.3796C759.4073,-147.1788 698.1151,-95.2055 728,-56 762.7454,-10.4181 797.3608,-34.2581 857.9977,-19.9467"/>
<polygon fill="#191970" stroke="#191970" points="859.1882,-23.252 867.957,-17.3057 857.3939,-16.4859 859.1882,-23.252"/>
</g>
<!-- Node7 -->
<g id="node7" class="node">
<title>Node7</title>
<g id="a_node7"><a xlink:href="Errors_8h.html" target="_top" xlink:title="Definitions of error names and error codes used across LLU.">
<polygon fill="#ffffff" stroke="#000000" points="1269,-56.5 1269,-75.5 1381,-75.5 1381,-56.5 1269,-56.5"/>
<text text-anchor="middle" x="1325" y="-63.5" font-family="Helvetica,sans-Serif" font-size="10.00" fill="#000000">LLU/ErrorLog/Errors.h</text>
</a>
</g>
</g>
<!-- Node2&#45;&gt;Node7 -->
<g id="edge6" class="edge">
<title>Node2&#45;&gt;Node7</title>
<path fill="none" stroke="#191970" d="M856.7356,-176.0902C923.9244,-172.4763 1040.6776,-162.0471 1136,-132 1154.5785,-126.1438 1156.9515,-119.3285 1175,-112 1208.558,-98.3739 1247.7233,-86.4927 1277.6173,-78.2199"/>
<polygon fill="#191970" stroke="#191970" points="1278.6531,-81.5653 1287.3784,-75.5554 1276.8097,-74.8124 1278.6531,-81.5653"/>
</g>
<!-- Node9 -->
<g id="node9" class="node">
<title>Node9</title>
<g id="a_node9"><a xlink:href="Utilities_8hpp.html" target="_top" xlink:title="Short but generally useful functions.">
<polygon fill="#ffffff" stroke="#000000" points="757.5,-112.5 757.5,-131.5 846.5,-131.5 846.5,-112.5 757.5,-112.5"/>
<text text-anchor="middle" x="802" y="-119.5" font-family="Helvetica,sans-Serif" font-size="10.00" fill="#000000">LLU/Utilities.hpp</text>
</a>
</g>
</g>
<!-- Node2&#45;&gt;Node9 -->
<g id="edge8" class="edge">
<title>Node2&#45;&gt;Node9</title>
<path fill="none" stroke="#191970" d="M802,-168.2455C802,-160.9382 802,-150.6944 802,-141.7046"/>
<polygon fill="#191970" stroke="#191970" points="805.5001,-141.6426 802,-131.6427 798.5001,-141.6427 805.5001,-141.6426"/>
</g>
<!-- Node22 -->
<g id="node22" class="node">
<title>Node22</title>
<g id="a_node22"><a xlink:href="EncodingTraits_8hpp.html" target="_top" xlink:title="Defines possible encodings together with their properties and related types.">
<polygon fill="#ffffff" stroke="#000000" points="995,-56.5 995,-75.5 1149,-75.5 1149,-56.5 995,-56.5"/>
<text text-anchor="middle" x="1072" y="-63.5" font-family="Helvetica,sans-Serif" font-size="10.00" fill="#000000">LLU/WSTP/EncodingTraits.hpp</text>
</a>
</g>
</g>
<!-- Node2&#45;&gt;Node22 -->
<g id="edge23" class="edge">
<title>Node2&#45;&gt;Node22</title>
<path fill="none" stroke="#191970" d="M825.02,-168.4509C873.1414,-148.4895 984.4836,-102.3031 1039.7212,-79.3897"/>
<polygon fill="#191970" stroke="#191970" points="1041.1425,-82.5894 1049.0382,-75.5249 1038.4603,-76.1236 1041.1425,-82.5894"/>
</g>
<!-- Node23 -->
<g id="node23" class="node">
<title>Node23</title>
<g id="a_node23"><a xlink:href="WSTP_2Utilities_8h.html" target="_top" xlink:title="Header file with miscellaneous utilities used throughout the WSTP&#45;related part of LibraryLinkUtilitie...">
<polygon fill="#ffffff" stroke="#000000" points="1016.5,-112.5 1016.5,-131.5 1127.5,-131.5 1127.5,-112.5 1016.5,-112.5"/>
<text text-anchor="middle" x="1072" y="-119.5" font-family="Helvetica,sans-Serif" font-size="10.00" fill="#000000">LLU/WSTP/Utilities.h</text>
</a>
</g>
</g>
<!-- Node2&#45;&gt;Node23 -->
<g id="edge28" class="edge">
<title>Node2&#45;&gt;Node23</title>
<path fill="none" stroke="#191970" d="M848.1079,-168.4369C894.6075,-158.7925 966.4359,-143.8948 1016.14,-133.5858"/>
<polygon fill="#191970" stroke="#191970" points="1017.0015,-136.9817 1026.0823,-131.5237 1015.5799,-130.1275 1017.0015,-136.9817"/>
</g>
<!-- Node8 -->
<g id="node8" class="node">
<title>Node8</title>
<g id="a_node8"><a xlink:title=" ">
<polygon fill="#ffffff" stroke="#bfbfbf" points="1156.5,-.5 1156.5,-19.5 1197.5,-19.5 1197.5,-.5 1156.5,-.5"/>
<text text-anchor="middle" x="1177" y="-7.5" font-family="Helvetica,sans-Serif" font-size="10.00" fill="#000000">string</text>
</a>
</g>
</g>
<!-- Node7&#45;&gt;Node8 -->
<g id="edge7" class="edge">
<title>Node7&#45;&gt;Node8</title>
<path fill="none" stroke="#191970" d="M1299.5579,-56.3733C1273.9424,-46.6809 1234.4287,-31.7298 1207.23,-21.4384"/>
<polygon fill="#191970" stroke="#191970" points="1208.4066,-18.1415 1197.8151,-17.876 1205.9294,-24.6885 1208.4066,-18.1415"/>
</g>
<!-- Node10 -->
<g id="node10" class="node">
<title>Node10</title>
<g id="a_node10"><a xlink:title=" ">
<polygon fill="#ffffff" stroke="#bfbfbf" points="809.5,-56.5 809.5,-75.5 862.5,-75.5 862.5,-56.5 809.5,-56.5"/>
<text text-anchor="middle" x="836" y="-63.5" font-family="Helvetica,sans-Serif" font-size="10.00" fill="#000000">complex</text>
</a>
</g>
</g>
<!-- Node9&#45;&gt;Node10 -->
<g id="edge9" class="edge">
<title>Node9&#45;&gt;Node10</title>
<path fill="none" stroke="#191970" d="M807.9223,-112.2455C812.6027,-104.5367 819.2673,-93.5598 824.9289,-84.2348"/>
<polygon fill="#191970" stroke="#191970" points="827.9475,-86.007 830.1455,-75.6427 821.9639,-82.3741 827.9475,-86.007"/>
</g>
<!-- Node11 -->
<g id="node11" class="node">
<title>Node11</title>
<g id="a_node11"><a xlink:title=" ">
<polygon fill="#ffffff" stroke="#bfbfbf" points="932,-.5 932,-19.5 978,-19.5 978,-.5 932,-.5"/>
<text text-anchor="middle" x="955" y="-7.5" font-family="Helvetica,sans-Serif" font-size="10.00" fill="#000000">cstdint</text>
</a>
</g>
</g>
<!-- Node9&#45;&gt;Node11 -->
<g id="edge10" class="edge">
<title>Node9&#45;&gt;Node11</title>
<path fill="none" stroke="#191970" d="M779.6128,-112.2868C754.1463,-99.8967 718.252,-77.4906 736,-56 787.8946,6.8379 837.1308,-37.1093 921.727,-19.8971"/>
<polygon fill="#191970" stroke="#191970" points="922.699,-23.2653 931.6677,-17.6249 921.1392,-16.4413 922.699,-23.2653"/>
</g>
<!-- Node12 -->
<g id="node12" class="node">
<title>Node12</title>
<g id="a_node12"><a xlink:title=" ">
<polygon fill="#ffffff" stroke="#bfbfbf" points="996,-.5 996,-19.5 1058,-19.5 1058,-.5 996,-.5"/>
<text text-anchor="middle" x="1027" y="-7.5" font-family="Helvetica,sans-Serif" font-size="10.00" fill="#000000">type_traits</text>
</a>
</g>
</g>
<!-- Node9&#45;&gt;Node12 -->
<g id="edge11" class="edge">
<title>Node9&#45;&gt;Node12</title>
<path fill="none" stroke="#191970" d="M821.1834,-112.4509C860.8693,-92.6961 952.1543,-47.2565 998.6565,-24.1088"/>
<polygon fill="#191970" stroke="#191970" points="1000.4727,-27.1144 1007.8652,-19.5249 997.3533,-20.8479 1000.4727,-27.1144"/>
</g>
<!-- Node13 -->
<g id="node13" class="node">
<title>Node13</title>
<g id="a_node13"><a xlink:title=" ">
<polygon fill="#ffffff" stroke="#bfbfbf" points="1076,-.5 1076,-19.5 1116,-19.5 1116,-.5 1076,-.5"/>
<text text-anchor="middle" x="1096" y="-7.5" font-family="Helvetica,sans-Serif" font-size="10.00" fill="#000000">utility</text>
</a>
</g>
</g>
<!-- Node9&#45;&gt;Node13 -->
<g id="edge12" class="edge">
<title>Node9&#45;&gt;Node13</title>
<path fill="none" stroke="#191970" d="M829.3352,-112.3561C855.1116,-103.2014 894.7875,-88.9534 929,-76 977.2203,-57.743 1032.8386,-35.5284 1066.1691,-22.0902"/>
<polygon fill="#191970" stroke="#191970" points="1067.8026,-25.2052 1075.7647,-18.2155 1065.1816,-18.7144 1067.8026,-25.2052"/>
</g>
<!-- Node14 -->
<g id="node14" class="node">
<title>Node14</title>
<g id="a_node14"><a xlink:title=" ">
<polygon fill="#ffffff" stroke="#bfbfbf" points="745,-56.5 745,-75.5 791,-75.5 791,-56.5 745,-56.5"/>
<text text-anchor="middle" x="768" y="-63.5" font-family="Helvetica,sans-Serif" font-size="10.00" fill="#000000">variant</text>
</a>
</g>
</g>
<!-- Node9&#45;&gt;Node14 -->
<g id="edge13" class="edge">
<title>Node9&#45;&gt;Node14</title>
<path fill="none" stroke="#191970" d="M796.0777,-112.2455C791.3973,-104.5367 784.7327,-93.5598 779.0711,-84.2348"/>
<polygon fill="#191970" stroke="#191970" points="782.0361,-82.3741 773.8545,-75.6427 776.0525,-86.007 782.0361,-82.3741"/>
</g>
<!-- Node15 -->
<g id="node15" class="node">
<title>Node15</title>
<g id="a_node15"><a xlink:href="LibraryData_8h.html" target="_top" xlink:title=" ">
<polygon fill="#ffffff" stroke="#000000" points="555,-56.5 555,-75.5 651,-75.5 651,-56.5 555,-56.5"/>
<text text-anchor="middle" x="603" y="-63.5" font-family="Helvetica,sans-Serif" font-size="10.00" fill="#000000">LLU/LibraryData.h</text>
</a>
</g>
</g>
<!-- Node9&#45;&gt;Node15 -->
<g id="edge14" class="edge">
<title>Node9&#45;&gt;Node15</title>
<path fill="none" stroke="#191970" d="M767.7907,-112.3733C734.2703,-102.9404 683.0495,-88.5265 646.619,-78.2747"/>
<polygon fill="#191970" stroke="#191970" points="647.3372,-74.8409 636.7629,-75.5011 645.4409,-81.5792 647.3372,-74.8409"/>
</g>
<!-- Node15&#45;&gt;Node5 -->
<g id="edge15" class="edge">
<title>Node15&#45;&gt;Node5</title>
<path fill="none" stroke="#191970" d="M554.9927,-57.8435C550.2721,-57.1658 545.5477,-56.5363 541,-56 331.7557,-31.3241 273.3651,-56.7856 62.0897,-19.8636"/>
<polygon fill="#191970" stroke="#191970" points="62.6963,-16.4166 52.2387,-18.1165 61.4739,-23.3091 62.6963,-16.4166"/>
</g>
<!-- Node15&#45;&gt;Node6 -->
<g id="edge17" class="edge">
<title>Node15&#45;&gt;Node6</title>
<path fill="none" stroke="#191970" d="M651.0678,-58.1022C709.8296,-48.3273 806.8543,-31.772 857.8248,-20.0165"/>
<polygon fill="#191970" stroke="#191970" points="858.7654,-23.3903 867.6761,-17.6589 857.1361,-16.5825 858.7654,-23.3903"/>
</g>
<!-- Node16 -->
<g id="node16" class="node">
<title>Node16</title>
<g id="a_node16"><a xlink:title=" ">
<polygon fill="#ffffff" stroke="#bfbfbf" points="70,-.5 70,-19.5 132,-19.5 132,-.5 70,-.5"/>
<text text-anchor="middle" x="101" y="-7.5" font-family="Helvetica,sans-Serif" font-size="10.00" fill="#000000">dllexport.h</text>
</a>
</g>
</g>
<!-- Node15&#45;&gt;Node16 -->
<g id="edge16" class="edge">
<title>Node15&#45;&gt;Node16</title>
<path fill="none" stroke="#191970" d="M554.984,-57.9145C550.2652,-57.2224 545.5436,-56.5702 541,-56 367.0924,-34.1766 318.7389,-49.1711 142.2207,-19.9817"/>
<polygon fill="#191970" stroke="#191970" points="142.787,-16.5279 132.3457,-18.3252 141.6289,-23.4314 142.787,-16.5279"/>
</g>
<!-- Node17 -->
<g id="node17" class="node">
<title>Node17</title>
<g id="a_node17"><a xlink:title=" ">
<polygon fill="#ffffff" stroke="#bfbfbf" points="150.5,-.5 150.5,-19.5 241.5,-19.5 241.5,-.5 150.5,-.5"/>
<text text-anchor="middle" x="196" y="-7.5" font-family="Helvetica,sans-Serif" font-size="10.00" fill="#000000">WolframLibrary.h</text>
</a>
</g>
</g>
<!-- Node15&#45;&gt;Node17 -->
<g id="edge18" class="edge">
<title>Node15&#45;&gt;Node17</title>
<path fill="none" stroke="#191970" d="M554.9625,-58.075C550.248,-57.3505 545.5334,-56.6468 541,-56 415.5628,-38.1044 381.0571,-39.5405 251.4938,-19.9996"/>
<polygon fill="#191970" stroke="#191970" points="251.998,-16.5361 241.5853,-18.4925 250.9453,-23.4565 251.998,-16.5361"/>
</g>
<!-- Node18 -->
<g id="node18" class="node">
<title>Node18</title>
<g id="a_node18"><a xlink:title=" ">
<polygon fill="#ffffff" stroke="#bfbfbf" points="260,-.5 260,-19.5 404,-19.5 404,-.5 260,-.5"/>
<text text-anchor="middle" x="332" y="-7.5" font-family="Helvetica,sans-Serif" font-size="10.00" fill="#000000">WolframIOLibraryFunctions.h</text>
</a>
</g>
</g>
<!-- Node15&#45;&gt;Node18 -->
<g id="edge19" class="edge">
<title>Node15&#45;&gt;Node18</title>
<path fill="none" stroke="#191970" d="M556.7214,-56.4369C510.0495,-46.7925 437.9551,-31.8948 388.0669,-21.5858"/>
<polygon fill="#191970" stroke="#191970" points="388.5892,-18.1198 378.0878,-19.5237 387.1726,-24.975 388.5892,-18.1198"/>
</g>
<!-- Node19 -->
<g id="node19" class="node">
<title>Node19</title>
<g id="a_node19"><a xlink:title=" ">
<polygon fill="#ffffff" stroke="#bfbfbf" points="422,-.5 422,-19.5 540,-19.5 540,-.5 422,-.5"/>
<text text-anchor="middle" x="481" y="-7.5" font-family="Helvetica,sans-Serif" font-size="10.00" fill="#000000">WolframImageLibrary.h</text>
</a>
</g>
</g>
<!-- Node15&#45;&gt;Node19 -->
<g id="edge20" class="edge">
<title>Node15&#45;&gt;Node19</title>
<path fill="none" stroke="#191970" d="M582.0275,-56.3733C562.4433,-47.3838 533.0039,-33.8706 510.949,-23.7471"/>
<polygon fill="#191970" stroke="#191970" points="512.2473,-20.4919 501.6989,-19.5011 509.3271,-26.8538 512.2473,-20.4919"/>
</g>
<!-- Node20 -->
<g id="node20" class="node">
<title>Node20</title>
<g id="a_node20"><a xlink:title=" ">
<polygon fill="#ffffff" stroke="#bfbfbf" points="558.5,-.5 558.5,-19.5 709.5,-19.5 709.5,-.5 558.5,-.5"/>
<text text-anchor="middle" x="634" y="-7.5" font-family="Helvetica,sans-Serif" font-size="10.00" fill="#000000">WolframNumericArrayLibrary.h</text>
</a>
</g>
</g>
<!-- Node15&#45;&gt;Node20 -->
<g id="edge21" class="edge">
<title>Node15&#45;&gt;Node20</title>
<path fill="none" stroke="#191970" d="M608.3998,-56.2455C612.6227,-48.617 618.6173,-37.7881 623.7441,-28.5267"/>
<polygon fill="#191970" stroke="#191970" points="626.881,-30.0867 628.6621,-19.6427 620.7568,-26.6965 626.881,-30.0867"/>
</g>
<!-- Node21 -->
<g id="node21" class="node">
<title>Node21</title>
<g id="a_node21"><a xlink:title=" ">
<polygon fill="#ffffff" stroke="#bfbfbf" points="728,-.5 728,-19.5 850,-19.5 850,-.5 728,-.5"/>
<text text-anchor="middle" x="789" y="-7.5" font-family="Helvetica,sans-Serif" font-size="10.00" fill="#000000">WolframSparseLibrary.h</text>
</a>
</g>
</g>
<!-- Node15&#45;&gt;Node21 -->
<g id="edge22" class="edge">
<title>Node15&#45;&gt;Node21</title>
<path fill="none" stroke="#191970" d="M634.9745,-56.3733C666.1713,-46.9807 713.771,-32.6496 747.7932,-22.4064"/>
<polygon fill="#191970" stroke="#191970" points="748.8763,-25.7355 757.4427,-19.5011 746.8582,-19.0327 748.8763,-25.7355"/>
</g>
<!-- Node22&#45;&gt;Node8 -->
<g id="edge25" class="edge">
<title>Node22&#45;&gt;Node8</title>
<path fill="none" stroke="#191970" d="M1090.2896,-56.2455C1106.7762,-47.4527 1131.2352,-34.4079 1149.9765,-24.4125"/>
<polygon fill="#191970" stroke="#191970" points="1151.7435,-27.4368 1158.92,-19.6427 1148.4494,-21.2604 1151.7435,-27.4368"/>
</g>
<!-- Node22&#45;&gt;Node11 -->
<g id="edge24" class="edge">
<title>Node22&#45;&gt;Node11</title>
<path fill="none" stroke="#191970" d="M1051.887,-56.3733C1033.1897,-47.4241 1005.1256,-33.9917 984.0066,-23.8835"/>
<polygon fill="#191970" stroke="#191970" points="985.3817,-20.6614 974.8506,-19.5011 982.3595,-26.9755 985.3817,-20.6614"/>
</g>
<!-- Node22&#45;&gt;Node12 -->
<g id="edge26" class="edge">
<title>Node22&#45;&gt;Node12</title>
<path fill="none" stroke="#191970" d="M1064.1616,-56.2455C1057.838,-48.3761 1048.7776,-37.101 1041.1864,-27.6542"/>
<polygon fill="#191970" stroke="#191970" points="1043.7408,-25.2454 1034.7486,-19.6427 1038.2842,-29.6302 1043.7408,-25.2454"/>
</g>
<!-- Node22&#45;&gt;Node13 -->
<g id="edge27" class="edge">
<title>Node22&#45;&gt;Node13</title>
<path fill="none" stroke="#191970" d="M1076.1805,-56.2455C1079.381,-48.7776 1083.896,-38.2427 1087.8084,-29.1137"/>
<polygon fill="#191970" stroke="#191970" points="1091.1452,-30.2129 1091.8674,-19.6427 1084.7112,-27.4554 1091.1452,-30.2129"/>
</g>
<!-- Node23&#45;&gt;Node6 -->
<g id="edge31" class="edge">
<title>Node23&#45;&gt;Node6</title>
<path fill="none" stroke="#191970" d="M1052.514,-112.3938C1034.845,-103.4926 1008.2413,-89.611 986,-76 959.8258,-59.9822 931.0522,-39.5723 912.1071,-25.72"/>
<polygon fill="#191970" stroke="#191970" points="914.0234,-22.7846 903.895,-19.6756 909.8739,-28.4222 914.0234,-22.7846"/>
</g>
<!-- Node23&#45;&gt;Node7 -->
<g id="edge32" class="edge">
<title>Node23&#45;&gt;Node7</title>
<path fill="none" stroke="#191970" d="M1115.2048,-112.4369C1158.5947,-102.8328 1225.5209,-88.0191 1272.0726,-77.7152"/>
<polygon fill="#191970" stroke="#191970" points="1272.9662,-81.1022 1281.9734,-75.5237 1271.4533,-74.2676 1272.9662,-81.1022"/>
</g>
<!-- Node23&#45;&gt;Node8 -->
<g id="edge30" class="edge">
<title>Node23&#45;&gt;Node8</title>
<path fill="none" stroke="#191970" d="M1102.6754,-112.4744C1121.1809,-105.2432 1143.8403,-93.5113 1158,-76 1168.6484,-62.8312 1173.3296,-43.959 1175.3872,-29.7656"/>
<polygon fill="#191970" stroke="#191970" points="1178.8926,-29.9142 1176.5387,-19.5842 1171.9369,-29.1275 1178.8926,-29.9142"/>
</g>
<!-- Node23&#45;&gt;Node22 -->
<g id="edge33" class="edge">
<title>Node23&#45;&gt;Node22</title>
<path fill="none" stroke="#191970" d="M1072,-112.2455C1072,-104.9382 1072,-94.6944 1072,-85.7046"/>
<polygon fill="#191970" stroke="#191970" points="1075.5001,-85.6426 1072,-75.6427 1068.5001,-85.6427 1075.5001,-85.6426"/>
</g>
<!-- Node24 -->
<g id="node24" class="node">
<title>Node24</title>
<g id="a_node24"><a xlink:title=" ">
<polygon fill="#ffffff" stroke="#bfbfbf" points="1205,-56.5 1205,-75.5 1251,-75.5 1251,-56.5 1205,-56.5"/>
<text text-anchor="middle" x="1228" y="-63.5" font-family="Helvetica,sans-Serif" font-size="10.00" fill="#000000">cstring</text>
</a>
</g>
</g>
<!-- Node23&#45;&gt;Node24 -->
<g id="edge29" class="edge">
<title>Node23&#45;&gt;Node24</title>
<path fill="none" stroke="#191970" d="M1098.8174,-112.3733C1125.4683,-102.8062 1166.3923,-88.1156 1195.0173,-77.8399"/>
<polygon fill="#191970" stroke="#191970" points="1196.3565,-81.078 1204.5859,-74.4051 1193.9914,-74.4896 1196.3565,-81.078"/>
</g>
</g>
</svg>
        <g id="navigator" transform="translate(0 0)" fill="#404254">
                <rect fill="#f2f5e9" fill-opacity="0.5" stroke="#606060" stroke-width=".5" x="0" y="0" width="60" height="60"/>
                <use id="zoomplus" xlink:href="#zoomPlus" x="17" y="9" onmousedown="handleZoom(evt,'in')"/>
                <use id="zoomminus" xlink:href="#zoomMin" x="42" y="9" onmousedown="handleZoom(evt,'out')"/>
                <use id="reset" xlink:href="#resetDef" x="30" y="36" onmousedown="handleReset()"/>
                <g id="arrowUp" xlink:href="#dirArrow" transform="translate(30 24)" onmousedown="handlePan(0,-1)">
                  <use xlink:href="#rim" fill="#404040">
                        <set attributeName="fill" to="#808080" begin="arrowUp.mouseover" end="arrowUp.mouseout"/>
                  </use>
                  <path fill="none" stroke="white" stroke-width="1.5" d="M0,-3.0v7 M-2.5,-0.5L0,-3.0L2.5,-0.5"/>
                </g>
                <g id="arrowRight" xlink:href="#dirArrow" transform="rotate(90) translate(36 -43)" onmousedown="handlePan(1,0)">
                  <use xlink:href="#rim" fill="#404040">
                        <set attributeName="fill" to="#808080" begin="arrowRight.mouseover" end="arrowRight.mouseout"/>
                  </use>
                  <path fill="none" stroke="white" stroke-width="1.5" d="M0,-3.0v7 M-2.5,-0.5L0,-3.0L2.5,-0.5"/>
                </g>
                <g id="arrowDown" xlink:href="#dirArrow" transform="rotate(180) translate(-30 -48)" onmousedown="handlePan(0,1)">
                  <use xlink:href="#rim" fill="#404040">
                        <set attributeName="fill" to="#808080" begin="arrowDown.mouseover" end="arrowDown.mouseout"/>
                  </use>
                  <path fill="none" stroke="white" stroke-width="1.5" d="M0,-3.0v7 M-2.5,-0.5L0,-3.0L2.5,-0.5"/>
                </g>
                <g id="arrowLeft" xlink:href="#dirArrow" transform="rotate(270) translate(-36 17)" onmousedown="handlePan(-1,0)">
                  <use xlink:href="#rim" fill="#404040">
                        <set attributeName="fill" to="#808080" begin="arrowLeft.mouseover" end="arrowLeft.mouseout"/>
                  </use>
                  <path fill="none" stroke="white" stroke-width="1.5" d="M0,-3.0v7 M-2.5,-0.5L0,-3.0L2.5,-0.5"/>
                </g>
        </g>
        <svg viewBox="0 0 15 15" width="100%" height="30px" preserveAspectRatio="xMaxYMin meet">
         <g id="arrow_out" transform="scale(0.3 0.3)">
          <a xlink:href="Strings_8cpp__incl_org.svg" target="_base">
           <rect id="button" ry="5" rx="5" y="6" x="6" height="38" width="38"
                fill="#f2f5e9" fill-opacity="0.5" stroke="#606060" stroke-width="1.0"/>
           <path id="arrow"
             d="M 11.500037,31.436501 C 11.940474,20.09759 22.043105,11.32322 32.158766,21.979434 L 37.068811,17.246167 C 37.068811,17.246167 37.088388,32 37.088388,32 L 22.160133,31.978069 C 22.160133,31.978069 26.997745,27.140456 26.997745,27.140456 C 18.528582,18.264221 13.291696,25.230495 11.500037,31.436501 z"
             style="fill:#404040;"/>
          </a>
         </g>
        </svg>
</svg>
