<?xml version="1.0" encoding="UTF-8" standalone="no"?>
<!DOCTYPE svg PUBLIC "-//W3C//DTD SVG 1.1//EN"
 "http://www.w3.org/Graphics/SVG/1.1/DTD/svg11.dtd">
<!-- Generated by graphviz version 2.40.1 (20161225.0304)
 -->
<!-- Title: Strings.h Pages: 1 -->
<!--zoomable 196 -->
<svg id="main" version="1.1" xmlns="http://www.w3.org/2000/svg" xmlns:xlink="http://www.w3.org/1999/xlink" xml:space="preserve" onload="init(evt)">
<style type="text/css"><![CDATA[
.edge:hover path { stroke: red; }
.edge:hover polygon { stroke: red; fill: red; }
]]></style>
<script type="text/javascript"><![CDATA[
var edges = document.getElementsByTagName('g');
if (edges && edges.length) {
  for (var i=0;i<edges.length;i++) {
    if (edges[i].id.substr(0,4)=='edge') {
      edges[i].setAttribute('class','edge');
    }
  }
}
]]></script>
        <defs>
                <circle id="rim" cx="0" cy="0" r="7"/>
                <circle id="rim2" cx="0" cy="0" r="3.5"/>
                <g id="zoomPlus">
                        <use xlink:href="#rim" fill="#404040">
                                <set attributeName="fill" to="#808080" begin="zoomplus.mouseover" end="zoomplus.mouseout"/>
                        </use>
                        <path d="M-4,0h8M0,-4v8" fill="none" stroke="white" stroke-width="1.5" pointer-events="none"/>
                </g>
                <g id="zoomMin">
                        <use xlink:href="#rim" fill="#404040">
                                <set attributeName="fill" to="#808080" begin="zoomminus.mouseover" end="zoomminus.mouseout"/>
                        </use>
                        <path d="M-4,0h8" fill="none" stroke="white" stroke-width="1.5" pointer-events="none"/>
                </g>
                <g id="dirArrow">
                        <path fill="none" stroke="white" stroke-width="1.5" d="M0,-3.0v7 M-2.5,-0.5L0,-3.0L2.5,-0.5"/>
                </g>
               <g id="resetDef">
                       <use xlink:href="#rim2" fill="#404040">
                               <set attributeName="fill" to="#808080" begin="reset.mouseover" end="reset.mouseout"/>
                       </use>
               </g>
        </defs>

<script type="text/javascript">
var viewWidth = 1344;
var viewHeight = 196;
var sectionId = 'dynsection-0';
</script>
<script xlink:href="svgpan.js"/>
<svg id="graph" class="graph">
<g id="viewport">
<title>Strings.h</title>
<polygon fill="#ffffff" stroke="transparent" points="-4,4 -4,-192 1340,-192 1340,4 -4,4"/>
<!-- Node1 -->
<g id="node1" class="node">
<title>Node1</title>
<g id="a_node1"><a xlink:title="Definitions of multiple structures and type aliases related to string handling in WSTP.">
<polygon fill="#bfbfbf" stroke="#000000" points="665,-168.5 665,-187.5 721,-187.5 721,-168.5 665,-168.5"/>
<text text-anchor="middle" x="693" y="-175.5" font-family="Helvetica,sans-Serif" font-size="10.00" fill="#000000">Strings.h</text>
</a>
</g>
</g>
<!-- Node2 -->
<g id="node2" class="node">
<title>Node2</title>
<g id="a_node2"><a xlink:title=" ">
<polygon fill="#ffffff" stroke="#bfbfbf" points="320,-112.5 320,-131.5 376,-131.5 376,-112.5 320,-112.5"/>
<text text-anchor="middle" x="348" y="-119.5" font-family="Helvetica,sans-Serif" font-size="10.00" fill="#000000">algorithm</text>
</a>
</g>
</g>
<!-- Node1&#45;&gt;Node2 -->
<g id="edge1" class="edge">
<title>Node1&#45;&gt;Node2</title>
<path fill="none" stroke="#191970" d="M664.7784,-174.8935C611.9785,-168.8446 494.5334,-154.2729 386.3074,-132.083"/>
<polygon fill="#191970" stroke="#191970" points="386.7036,-128.5907 376.2006,-129.9826 385.2792,-135.4442 386.7036,-128.5907"/>
</g>
<!-- Node3 -->
<g id="node3" class="node">
<title>Node3</title>
<g id="a_node3"><a xlink:title=" ">
<polygon fill="#ffffff" stroke="#bfbfbf" points="394.5,-112.5 394.5,-131.5 453.5,-131.5 453.5,-112.5 394.5,-112.5"/>
<text text-anchor="middle" x="424" y="-119.5" font-family="Helvetica,sans-Serif" font-size="10.00" fill="#000000">functional</text>
</a>
</g>
</g>
<!-- Node1&#45;&gt;Node3 -->
<g id="edge2" class="edge">
<title>Node1&#45;&gt;Node3</title>
<path fill="none" stroke="#191970" d="M664.8969,-172.4591C622.2689,-164.0082 538.7362,-147.2671 468,-132 466.5642,-131.6901 465.1028,-131.372 463.627,-131.0485"/>
<polygon fill="#191970" stroke="#191970" points="464.3236,-127.618 453.8025,-128.8657 462.8054,-134.4513 464.3236,-127.618"/>
</g>
<!-- Node4 -->
<g id="node4" class="node">
<title>Node4</title>
<g id="a_node4"><a xlink:title=" ">
<polygon fill="#ffffff" stroke="#bfbfbf" points="0,-.5 0,-19.5 52,-19.5 52,-.5 0,-.5"/>
<text text-anchor="middle" x="26" y="-7.5" font-family="Helvetica,sans-Serif" font-size="10.00" fill="#000000">memory</text>
</a>
</g>
</g>
<!-- Node1&#45;&gt;Node4 -->
<g id="edge3" class="edge">
<title>Node1&#45;&gt;Node4</title>
<path fill="none" stroke="#191970" d="M664.6817,-169.3869C621.2553,-156.2973 535.5144,-130.9211 462,-112 288.1179,-67.2464 239.8162,-65.6222 62.2657,-20.2349"/>
<polygon fill="#191970" stroke="#191970" points="62.889,-16.7814 52.3327,-17.6847 61.1482,-23.5615 62.889,-16.7814"/>
</g>
<!-- Node5 -->
<g id="node5" class="node">
<title>Node5</title>
<g id="a_node5"><a xlink:title=" ">
<polygon fill="#ffffff" stroke="#bfbfbf" points="868,-.5 868,-19.5 914,-19.5 914,-.5 868,-.5"/>
<text text-anchor="middle" x="891" y="-7.5" font-family="Helvetica,sans-Serif" font-size="10.00" fill="#000000">wstp.h</text>
</a>
</g>
</g>
<!-- Node1&#45;&gt;Node5 -->
<g id="edge4" class="edge">
<title>Node1&#45;&gt;Node5</title>
<path fill="none" stroke="#191970" d="M684.2629,-168.2754C665.2732,-145.9472 624.1752,-90.299 653,-56 681.205,-22.4386 799.329,-29.9088 857.8208,-19.7124"/>
<polygon fill="#191970" stroke="#191970" points="858.5962,-23.1262 867.6793,-17.6721 857.1775,-16.2715 858.5962,-23.1262"/>
</g>
<!-- Node6 -->
<g id="node6" class="node">
<title>Node6</title>
<g id="a_node6"><a xlink:href="Errors_8h.html" target="_top" xlink:title="Definitions of error names and error codes used across LLU.">
<polygon fill="#ffffff" stroke="#000000" points="1224,-56.5 1224,-75.5 1336,-75.5 1336,-56.5 1224,-56.5"/>
<text text-anchor="middle" x="1280" y="-63.5" font-family="Helvetica,sans-Serif" font-size="10.00" fill="#000000">LLU/ErrorLog/Errors.h</text>
</a>
</g>
</g>
<!-- Node1&#45;&gt;Node6 -->
<g id="edge5" class="edge">
<title>Node1&#45;&gt;Node6</title>
<path fill="none" stroke="#191970" d="M721.154,-176.2281C805.408,-170.7412 1054.5732,-153.1226 1133,-132 1177.6551,-119.9731 1225.9363,-95.9573 1254.5395,-80.4514"/>
<polygon fill="#191970" stroke="#191970" points="1256.3769,-83.4354 1263.4517,-75.5488 1253.0029,-77.3021 1256.3769,-83.4354"/>
</g>
<!-- Node8 -->
<g id="node8" class="node">
<title>Node8</title>
<g id="a_node8"><a xlink:href="Utilities_8hpp.html" target="_top" xlink:title="Short but generally useful functions.">
<polygon fill="#ffffff" stroke="#000000" points="708.5,-112.5 708.5,-131.5 797.5,-131.5 797.5,-112.5 708.5,-112.5"/>
<text text-anchor="middle" x="753" y="-119.5" font-family="Helvetica,sans-Serif" font-size="10.00" fill="#000000">LLU/Utilities.hpp</text>
</a>
</g>
</g>
<!-- Node1&#45;&gt;Node8 -->
<g id="edge7" class="edge">
<title>Node1&#45;&gt;Node8</title>
<path fill="none" stroke="#191970" d="M703.4512,-168.2455C712.2269,-160.0549 724.9554,-148.1749 735.314,-138.5069"/>
<polygon fill="#191970" stroke="#191970" points="737.7461,-141.0246 742.6686,-131.6427 732.9699,-135.9072 737.7461,-141.0246"/>
</g>
<!-- Node21 -->
<g id="node21" class="node">
<title>Node21</title>
<g id="a_node21"><a xlink:href="EncodingTraits_8hpp.html" target="_top" xlink:title="Defines possible encodings together with their properties and related types.">
<polygon fill="#ffffff" stroke="#000000" points="950,-56.5 950,-75.5 1104,-75.5 1104,-56.5 950,-56.5"/>
<text text-anchor="middle" x="1027" y="-63.5" font-family="Helvetica,sans-Serif" font-size="10.00" fill="#000000">LLU/WSTP/EncodingTraits.hpp</text>
</a>
</g>
</g>
<!-- Node1&#45;&gt;Node21 -->
<g id="edge22" class="edge">
<title>Node1&#45;&gt;Node21</title>
<path fill="none" stroke="#191970" d="M721.1888,-168.5475C781.0256,-148.4824 920.8022,-101.6112 988.6695,-78.8533"/>
<polygon fill="#191970" stroke="#191970" points="990.164,-82.0438 998.5324,-75.546 987.9384,-75.407 990.164,-82.0438"/>
</g>
<!-- Node22 -->
<g id="node22" class="node">
<title>Node22</title>
<g id="a_node22"><a xlink:href="WSTP_2Utilities_8h.html" target="_top" xlink:title="Header file with miscellaneous utilities used throughout the WSTP&#45;related part of LibraryLinkUtilitie...">
<polygon fill="#ffffff" stroke="#000000" points="1013.5,-112.5 1013.5,-131.5 1124.5,-131.5 1124.5,-112.5 1013.5,-112.5"/>
<text text-anchor="middle" x="1069" y="-119.5" font-family="Helvetica,sans-Serif" font-size="10.00" fill="#000000">LLU/WSTP/Utilities.h</text>
</a>
</g>
</g>
<!-- Node1&#45;&gt;Node22 -->
<g id="edge27" class="edge">
<title>Node1&#45;&gt;Node22</title>
<path fill="none" stroke="#191970" d="M721.2611,-173.7909C780.6927,-164.9394 919.9714,-144.1958 1003.1058,-131.814"/>
<polygon fill="#191970" stroke="#191970" points="1003.83,-135.2449 1013.2053,-130.3099 1002.7987,-128.3212 1003.83,-135.2449"/>
</g>
<!-- Node7 -->
<g id="node7" class="node">
<title>Node7</title>
<g id="a_node7"><a xlink:title=" ">
<polygon fill="#ffffff" stroke="#bfbfbf" points="1175.5,-.5 1175.5,-19.5 1216.5,-19.5 1216.5,-.5 1175.5,-.5"/>
<text text-anchor="middle" x="1196" y="-7.5" font-family="Helvetica,sans-Serif" font-size="10.00" fill="#000000">string</text>
</a>
</g>
</g>
<!-- Node6&#45;&gt;Node7 -->
<g id="edge6" class="edge">
<title>Node6&#45;&gt;Node7</title>
<path fill="none" stroke="#191970" d="M1265.3683,-56.2455C1252.6006,-47.7337 1233.8562,-35.2375 1219.0701,-25.3801"/>
<polygon fill="#191970" stroke="#191970" points="1220.726,-22.2775 1210.464,-19.6427 1216.8431,-28.1019 1220.726,-22.2775"/>
</g>
<!-- Node9 -->
<g id="node9" class="node">
<title>Node9</title>
<g id="a_node9"><a xlink:title=" ">
<polygon fill="#ffffff" stroke="#bfbfbf" points="726.5,-56.5 726.5,-75.5 779.5,-75.5 779.5,-56.5 726.5,-56.5"/>
<text text-anchor="middle" x="753" y="-63.5" font-family="Helvetica,sans-Serif" font-size="10.00" fill="#000000">complex</text>
</a>
</g>
</g>
<!-- Node8&#45;&gt;Node9 -->
<g id="edge8" class="edge">
<title>Node8&#45;&gt;Node9</title>
<path fill="none" stroke="#191970" d="M753,-112.2455C753,-104.9382 753,-94.6944 753,-85.7046"/>
<polygon fill="#191970" stroke="#191970" points="756.5001,-85.6426 753,-75.6427 749.5001,-85.6427 756.5001,-85.6426"/>
</g>
<!-- Node10 -->
<g id="node10" class="node">
<title>Node10</title>
<g id="a_node10"><a xlink:title=" ">
<polygon fill="#ffffff" stroke="#bfbfbf" points="932,-.5 932,-19.5 978,-19.5 978,-.5 932,-.5"/>
<text text-anchor="middle" x="955" y="-7.5" font-family="Helvetica,sans-Serif" font-size="10.00" fill="#000000">cstdint</text>
</a>
</g>
</g>
<!-- Node8&#45;&gt;Node10 -->
<g id="edge9" class="edge">
<title>Node8&#45;&gt;Node10</title>
<path fill="none" stroke="#191970" d="M762.4019,-112.2805C776.434,-98.2347 804.1943,-72.1774 832,-56 847.6923,-46.8702 891.4652,-31.2964 922.3059,-20.8301"/>
<polygon fill="#191970" stroke="#191970" points="923.4543,-24.1365 931.8127,-17.626 921.2186,-17.5031 923.4543,-24.1365"/>
</g>
<!-- Node11 -->
<g id="node11" class="node">
<title>Node11</title>
<g id="a_node11"><a xlink:title=" ">
<polygon fill="#ffffff" stroke="#bfbfbf" points="996,-.5 996,-19.5 1058,-19.5 1058,-.5 996,-.5"/>
<text text-anchor="middle" x="1027" y="-7.5" font-family="Helvetica,sans-Serif" font-size="10.00" fill="#000000">type_traits</text>
</a>
</g>
</g>
<!-- Node8&#45;&gt;Node11 -->
<g id="edge10" class="edge">
<title>Node8&#45;&gt;Node11</title>
<path fill="none" stroke="#191970" d="M769.8138,-112.2333C799.6611,-94.9379 859.7401,-60.3295 870,-56 890.8832,-47.1877 946.7534,-31.4832 985.867,-20.906"/>
<polygon fill="#191970" stroke="#191970" points="986.9198,-24.2473 995.6663,-18.2683 985.1003,-17.4878 986.9198,-24.2473"/>
</g>
<!-- Node12 -->
<g id="node12" class="node">
<title>Node12</title>
<g id="a_node12"><a xlink:title=" ">
<polygon fill="#ffffff" stroke="#bfbfbf" points="1076,-.5 1076,-19.5 1116,-19.5 1116,-.5 1076,-.5"/>
<text text-anchor="middle" x="1096" y="-7.5" font-family="Helvetica,sans-Serif" font-size="10.00" fill="#000000">utility</text>
</a>
</g>
</g>
<!-- Node8&#45;&gt;Node12 -->
<g id="edge11" class="edge">
<title>Node8&#45;&gt;Node12</title>
<path fill="none" stroke="#191970" d="M778.6856,-112.4383C814.7354,-99.1434 882.4883,-74.6114 941,-56 993.5741,-39.2772 1009.7608,-37.6354 1065.9884,-20.1975"/>
<polygon fill="#191970" stroke="#191970" points="1067.2693,-23.464 1075.7645,-17.133 1065.1754,-16.7845 1067.2693,-23.464"/>
</g>
<!-- Node13 -->
<g id="node13" class="node">
<title>Node13</title>
<g id="a_node13"><a xlink:title=" ">
<polygon fill="#ffffff" stroke="#bfbfbf" points="662,-56.5 662,-75.5 708,-75.5 708,-56.5 662,-56.5"/>
<text text-anchor="middle" x="685" y="-63.5" font-family="Helvetica,sans-Serif" font-size="10.00" fill="#000000">variant</text>
</a>
</g>
</g>
<!-- Node8&#45;&gt;Node13 -->
<g id="edge12" class="edge">
<title>Node8&#45;&gt;Node13</title>
<path fill="none" stroke="#191970" d="M741.1553,-112.2455C731.112,-103.9746 716.5005,-91.9416 704.6996,-82.2232"/>
<polygon fill="#191970" stroke="#191970" points="706.6533,-79.298 696.709,-75.6427 702.2033,-84.7015 706.6533,-79.298"/>
</g>
<!-- Node14 -->
<g id="node14" class="node">
<title>Node14</title>
<g id="a_node14"><a xlink:href="LibraryData_8h.html" target="_top" xlink:title=" ">
<polygon fill="#ffffff" stroke="#000000" points="510,-56.5 510,-75.5 606,-75.5 606,-56.5 510,-56.5"/>
<text text-anchor="middle" x="558" y="-63.5" font-family="Helvetica,sans-Serif" font-size="10.00" fill="#000000">LLU/LibraryData.h</text>
</a>
</g>
</g>
<!-- Node8&#45;&gt;Node14 -->
<g id="edge13" class="edge">
<title>Node8&#45;&gt;Node14</title>
<path fill="none" stroke="#191970" d="M719.4783,-112.3733C686.6317,-102.9404 636.4405,-88.5265 600.7422,-78.2747"/>
<polygon fill="#191970" stroke="#191970" points="601.6619,-74.8974 591.0843,-75.5011 599.7297,-81.6255 601.6619,-74.8974"/>
</g>
<!-- Node14&#45;&gt;Node4 -->
<g id="edge14" class="edge">
<title>Node14&#45;&gt;Node4</title>
<path fill="none" stroke="#191970" d="M509.9883,-57.8802C505.2686,-57.1951 500.5456,-56.5538 496,-56 306.7208,-32.9383 253.6492,-54.0657 62.348,-19.9257"/>
<polygon fill="#191970" stroke="#191970" points="62.7066,-16.4337 52.2427,-18.0943 61.4583,-23.3215 62.7066,-16.4337"/>
</g>
<!-- Node14&#45;&gt;Node5 -->
<g id="edge16" class="edge">
<title>Node14&#45;&gt;Node5</title>
<path fill="none" stroke="#191970" d="M606.0559,-58.1984C610.7667,-57.4489 615.4754,-56.7056 620,-56 723.028,-39.9323 752.5979,-43.8373 857.945,-19.9745"/>
<polygon fill="#191970" stroke="#191970" points="858.7311,-23.3852 867.6946,-17.7367 857.165,-16.5626 858.7311,-23.3852"/>
</g>
<!-- Node15 -->
<g id="node15" class="node">
<title>Node15</title>
<g id="a_node15"><a xlink:title=" ">
<polygon fill="#ffffff" stroke="#bfbfbf" points="380,-.5 380,-19.5 442,-19.5 442,-.5 380,-.5"/>
<text text-anchor="middle" x="411" y="-7.5" font-family="Helvetica,sans-Serif" font-size="10.00" fill="#000000">dllexport.h</text>
</a>
</g>
</g>
<!-- Node14&#45;&gt;Node15 -->
<g id="edge15" class="edge">
<title>Node14&#45;&gt;Node15</title>
<path fill="none" stroke="#191970" d="M532.7298,-56.3733C508.6034,-47.1822 472.0638,-33.2624 445.3123,-23.0713"/>
<polygon fill="#191970" stroke="#191970" points="446.5313,-19.7904 435.9404,-19.5011 444.0393,-26.3318 446.5313,-19.7904"/>
</g>
<!-- Node16 -->
<g id="node16" class="node">
<title>Node16</title>
<g id="a_node16"><a xlink:title=" ">
<polygon fill="#ffffff" stroke="#bfbfbf" points="460.5,-.5 460.5,-19.5 551.5,-19.5 551.5,-.5 460.5,-.5"/>
<text text-anchor="middle" x="506" y="-7.5" font-family="Helvetica,sans-Serif" font-size="10.00" fill="#000000">WolframLibrary.h</text>
</a>
</g>
</g>
<!-- Node14&#45;&gt;Node16 -->
<g id="edge17" class="edge">
<title>Node14&#45;&gt;Node16</title>
<path fill="none" stroke="#191970" d="M548.9423,-56.2455C541.4858,-48.2155 530.7366,-36.6394 521.8583,-27.0781"/>
<polygon fill="#191970" stroke="#191970" points="524.3232,-24.589 514.9539,-19.6427 519.1937,-29.3522 524.3232,-24.589"/>
</g>
<!-- Node17 -->
<g id="node17" class="node">
<title>Node17</title>
<g id="a_node17"><a xlink:title=" ">
<polygon fill="#ffffff" stroke="#bfbfbf" points="570,-.5 570,-19.5 714,-19.5 714,-.5 570,-.5"/>
<text text-anchor="middle" x="642" y="-7.5" font-family="Helvetica,sans-Serif" font-size="10.00" fill="#000000">WolframIOLibraryFunctions.h</text>
</a>
</g>
</g>
<!-- Node14&#45;&gt;Node17 -->
<g id="edge18" class="edge">
<title>Node14&#45;&gt;Node17</title>
<path fill="none" stroke="#191970" d="M572.6317,-56.2455C585.3994,-47.7337 604.1438,-35.2375 618.9299,-25.3801"/>
<polygon fill="#191970" stroke="#191970" points="621.1569,-28.1019 627.536,-19.6427 617.274,-22.2775 621.1569,-28.1019"/>
</g>
<!-- Node18 -->
<g id="node18" class="node">
<title>Node18</title>
<g id="a_node18"><a xlink:title=" ">
<polygon fill="#ffffff" stroke="#bfbfbf" points="732,-.5 732,-19.5 850,-19.5 850,-.5 732,-.5"/>
<text text-anchor="middle" x="791" y="-7.5" font-family="Helvetica,sans-Serif" font-size="10.00" fill="#000000">WolframImageLibrary.h</text>
</a>
</g>
</g>
<!-- Node14&#45;&gt;Node18 -->
<g id="edge19" class="edge">
<title>Node14&#45;&gt;Node18</title>
<path fill="none" stroke="#191970" d="M597.7894,-56.4369C637.498,-46.8932 698.6104,-32.2052 741.4455,-21.9101"/>
<polygon fill="#191970" stroke="#191970" points="742.4695,-25.2637 751.3747,-19.5237 740.8337,-18.4575 742.4695,-25.2637"/>
</g>
<!-- Node19 -->
<g id="node19" class="node">
<title>Node19</title>
<g id="a_node19"><a xlink:title=" ">
<polygon fill="#ffffff" stroke="#bfbfbf" points="70.5,-.5 70.5,-19.5 221.5,-19.5 221.5,-.5 70.5,-.5"/>
<text text-anchor="middle" x="146" y="-7.5" font-family="Helvetica,sans-Serif" font-size="10.00" fill="#000000">WolframNumericArrayLibrary.h</text>
</a>
</g>
</g>
<!-- Node14&#45;&gt;Node19 -->
<g id="edge20" class="edge">
<title>Node14&#45;&gt;Node19</title>
<path fill="none" stroke="#191970" d="M509.9576,-58.1091C505.2441,-57.3776 500.531,-56.663 496,-56 405.9794,-42.8275 302.6699,-29.464 231.7537,-20.5603"/>
<polygon fill="#191970" stroke="#191970" points="231.8887,-17.0499 221.5312,-19.2796 231.0185,-23.9956 231.8887,-17.0499"/>
</g>
<!-- Node20 -->
<g id="node20" class="node">
<title>Node20</title>
<g id="a_node20"><a xlink:title=" ">
<polygon fill="#ffffff" stroke="#bfbfbf" points="240,-.5 240,-19.5 362,-19.5 362,-.5 240,-.5"/>
<text text-anchor="middle" x="301" y="-7.5" font-family="Helvetica,sans-Serif" font-size="10.00" fill="#000000">WolframSparseLibrary.h</text>
</a>
</g>
</g>
<!-- Node14&#45;&gt;Node20 -->
<g id="edge21" class="edge">
<title>Node14&#45;&gt;Node20</title>
<path fill="none" stroke="#191970" d="M514.1121,-56.4369C470.0362,-46.8328 402.0519,-32.0191 354.7642,-21.7152"/>
<polygon fill="#191970" stroke="#191970" points="355.2228,-18.233 344.7068,-19.5237 353.7324,-25.0725 355.2228,-18.233"/>
</g>
<!-- Node21&#45;&gt;Node7 -->
<g id="edge24" class="edge">
<title>Node21&#45;&gt;Node7</title>
<path fill="none" stroke="#191970" d="M1056.0521,-56.3733C1086.5763,-46.2587 1134.3833,-30.4174 1165.4565,-20.1209"/>
<polygon fill="#191970" stroke="#191970" points="1166.9122,-23.3258 1175.3037,-16.8579 1164.7104,-16.6811 1166.9122,-23.3258"/>
</g>
<!-- Node21&#45;&gt;Node10 -->
<g id="edge23" class="edge">
<title>Node21&#45;&gt;Node10</title>
<path fill="none" stroke="#191970" d="M1014.4586,-56.2455C1003.7213,-47.8943 988.0527,-35.7076 975.4953,-25.9408"/>
<polygon fill="#191970" stroke="#191970" points="977.4401,-23.0194 967.3977,-19.6427 973.1425,-28.5449 977.4401,-23.0194"/>
</g>
<!-- Node21&#45;&gt;Node11 -->
<g id="edge25" class="edge">
<title>Node21&#45;&gt;Node11</title>
<path fill="none" stroke="#191970" d="M1027,-56.2455C1027,-48.9382 1027,-38.6944 1027,-29.7046"/>
<polygon fill="#191970" stroke="#191970" points="1030.5001,-29.6426 1027,-19.6427 1023.5001,-29.6427 1030.5001,-29.6426"/>
</g>
<!-- Node21&#45;&gt;Node12 -->
<g id="edge26" class="edge">
<title>Node21&#45;&gt;Node12</title>
<path fill="none" stroke="#191970" d="M1039.0189,-56.2455C1049.2098,-47.9746 1064.0362,-35.9416 1076.0107,-26.2232"/>
<polygon fill="#191970" stroke="#191970" points="1078.5598,-28.662 1084.1188,-19.6427 1074.1486,-23.2268 1078.5598,-28.662"/>
</g>
<!-- Node22&#45;&gt;Node5 -->
<g id="edge30" class="edge">
<title>Node22&#45;&gt;Node5</title>
<path fill="none" stroke="#191970" d="M1023.2673,-112.4237C997.3564,-105.3982 965.3564,-93.8982 941,-76 923.8957,-63.431 909.8885,-43.4044 901.0958,-28.7045"/>
<polygon fill="#191970" stroke="#191970" points="904.091,-26.8915 896.0906,-19.9456 898.0133,-30.3646 904.091,-26.8915"/>
</g>
<!-- Node22&#45;&gt;Node6 -->
<g id="edge31" class="edge">
<title>Node22&#45;&gt;Node6</title>
<path fill="none" stroke="#191970" d="M1105.2722,-112.3733C1140.9658,-102.9001 1195.5879,-88.4032 1234.2451,-78.1435"/>
<polygon fill="#191970" stroke="#191970" points="1235.4336,-81.4493 1244.2011,-75.5011 1233.6379,-74.6835 1235.4336,-81.4493"/>
</g>
<!-- Node22&#45;&gt;Node7 -->
<g id="edge29" class="edge">
<title>Node22&#45;&gt;Node7</title>
<path fill="none" stroke="#191970" d="M1114.0656,-112.4405C1135.8472,-105.6638 1160.7292,-94.3942 1177,-76 1188.2206,-63.3151 1192.839,-44.3899 1194.7274,-30.0534"/>
<polygon fill="#191970" stroke="#191970" points="1198.2453,-30.0384 1195.7304,-19.7464 1191.2782,-29.3603 1198.2453,-30.0384"/>
</g>
<!-- Node22&#45;&gt;Node21 -->
<g id="edge32" class="edge">
<title>Node22&#45;&gt;Node21</title>
<path fill="none" stroke="#191970" d="M1061.6842,-112.2455C1055.7821,-104.3761 1047.3258,-93.101 1040.2406,-83.6542"/>
<polygon fill="#191970" stroke="#191970" points="1043.0321,-81.5427 1034.232,-75.6427 1037.432,-85.7427 1043.0321,-81.5427"/>
</g>
<!-- Node23 -->
<g id="node23" class="node">
<title>Node23</title>
<g id="a_node23"><a xlink:title=" ">
<polygon fill="#ffffff" stroke="#bfbfbf" points="1122,-56.5 1122,-75.5 1168,-75.5 1168,-56.5 1122,-56.5"/>
<text text-anchor="middle" x="1145" y="-63.5" font-family="Helvetica,sans-Serif" font-size="10.00" fill="#000000">cstring</text>
</a>
</g>
</g>
<!-- Node22&#45;&gt;Node23 -->
<g id="edge28" class="edge">
<title>Node22&#45;&gt;Node23</title>
<path fill="none" stroke="#191970" d="M1082.2382,-112.2455C1093.681,-103.814 1110.4296,-91.4729 1123.7475,-81.6598"/>
<polygon fill="#191970" stroke="#191970" points="1125.9391,-84.3924 1131.9135,-75.6427 1121.7867,-78.757 1125.9391,-84.3924"/>
</g>
</g>
</svg>
        <g id="navigator" transform="translate(0 0)" fill="#404254">
                <rect fill="#f2f5e9" fill-opacity="0.5" stroke="#606060" stroke-width=".5" x="0" y="0" width="60" height="60"/>
                <use id="zoomplus" xlink:href="#zoomPlus" x="17" y="9" onmousedown="handleZoom(evt,'in')"/>
                <use id="zoomminus" xlink:href="#zoomMin" x="42" y="9" onmousedown="handleZoom(evt,'out')"/>
                <use id="reset" xlink:href="#resetDef" x="30" y="36" onmousedown="handleReset()"/>
                <g id="arrowUp" xlink:href="#dirArrow" transform="translate(30 24)" onmousedown="handlePan(0,-1)">
                  <use xlink:href="#rim" fill="#404040">
                        <set attributeName="fill" to="#808080" begin="arrowUp.mouseover" end="arrowUp.mouseout"/>
                  </use>
                  <path fill="none" stroke="white" stroke-width="1.5" d="M0,-3.0v7 M-2.5,-0.5L0,-3.0L2.5,-0.5"/>
                </g>
                <g id="arrowRight" xlink:href="#dirArrow" transform="rotate(90) translate(36 -43)" onmousedown="handlePan(1,0)">
                  <use xlink:href="#rim" fill="#404040">
                        <set attributeName="fill" to="#808080" begin="arrowRight.mouseover" end="arrowRight.mouseout"/>
                  </use>
                  <path fill="none" stroke="white" stroke-width="1.5" d="M0,-3.0v7 M-2.5,-0.5L0,-3.0L2.5,-0.5"/>
                </g>
                <g id="arrowDown" xlink:href="#dirArrow" transform="rotate(180) translate(-30 -48)" onmousedown="handlePan(0,1)">
                  <use xlink:href="#rim" fill="#404040">
                        <set attributeName="fill" to="#808080" begin="arrowDown.mouseover" end="arrowDown.mouseout"/>
                  </use>
                  <path fill="none" stroke="white" stroke-width="1.5" d="M0,-3.0v7 M-2.5,-0.5L0,-3.0L2.5,-0.5"/>
                </g>
                <g id="arrowLeft" xlink:href="#dirArrow" transform="rotate(270) translate(-36 17)" onmousedown="handlePan(-1,0)">
                  <use xlink:href="#rim" fill="#404040">
                        <set attributeName="fill" to="#808080" begin="arrowLeft.mouseover" end="arrowLeft.mouseout"/>
                  </use>
                  <path fill="none" stroke="white" stroke-width="1.5" d="M0,-3.0v7 M-2.5,-0.5L0,-3.0L2.5,-0.5"/>
                </g>
        </g>
        <svg viewBox="0 0 15 15" width="100%" height="30px" preserveAspectRatio="xMaxYMin meet">
         <g id="arrow_out" transform="scale(0.3 0.3)">
          <a xlink:href="Strings_8h__incl_org.svg" target="_base">
           <rect id="button" ry="5" rx="5" y="6" x="6" height="38" width="38"
                fill="#f2f5e9" fill-opacity="0.5" stroke="#606060" stroke-width="1.0"/>
           <path id="arrow"
             d="M 11.500037,31.436501 C 11.940474,20.09759 22.043105,11.32322 32.158766,21.979434 L 37.068811,17.246167 C 37.068811,17.246167 37.088388,32 37.088388,32 L 22.160133,31.978069 C 22.160133,31.978069 26.997745,27.140456 26.997745,27.140456 C 18.528582,18.264221 13.291696,25.230495 11.500037,31.436501 z"
             style="fill:#404040;"/>
          </a>
         </g>
        </svg>
</svg>
