<?xml version="1.0" encoding="UTF-8" standalone="no"?>
<!DOCTYPE svg PUBLIC "-//W3C//DTD SVG 1.1//EN"
 "http://www.w3.org/Graphics/SVG/1.1/DTD/svg11.dtd">
<!-- Generated by graphviz version 2.40.1 (20161225.0304)
 -->
<!-- Title: LLU::WS::Symbol Pages: 1 -->
<svg width="340pt" height="140pt"
 viewBox="0.00 0.00 339.50 140.00" xmlns="http://www.w3.org/2000/svg" xmlns:xlink="http://www.w3.org/1999/xlink">
<g id="graph0" class="graph" transform="scale(1 1) rotate(0) translate(4 136)">
<title>LLU::WS::Symbol</title>
<polygon fill="#ffffff" stroke="transparent" points="-4,4 -4,-136 335.5,-136 335.5,4 -4,4"/>
<!-- Node1 -->
<g id="node1" class="node">
<title>Node1</title>
<g id="a_node1"><a xlink:title="Structure representing any symbol in Wolfram Language.">
<polygon fill="#bfbfbf" stroke="#000000" points="67,-112.5 67,-131.5 163,-131.5 163,-112.5 67,-112.5"/>
<text text-anchor="middle" x="115" y="-119.5" font-family="Helvetica,sans-Serif" font-size="10.00" fill="#000000">LLU::WS::Symbol</text>
</a>
</g>
</g>
<!-- Node2 -->
<g id="node2" class="node">
<title>Node2</title>
<g id="a_node2"><a xlink:href="structLLU_1_1WS_1_1BeginExpr.html" target="_top" xlink:title=" ">
<polygon fill="#ffffff" stroke="#000000" points="0,-56.5 0,-75.5 108,-75.5 108,-56.5 0,-56.5"/>
<text text-anchor="middle" x="54" y="-63.5" font-family="Helvetica,sans-Serif" font-size="10.00" fill="#000000">LLU::WS::BeginExpr</text>
</a>
</g>
</g>
<!-- Node1&#45;&gt;Node2 -->
<g id="edge1" class="edge">
<title>Node1&#45;&gt;Node2</title>
<path fill="none" stroke="#191970" d="M96.8751,-105.3607C86.322,-95.6727 73.3888,-83.7995 64.5036,-75.6427"/>
<polygon fill="#191970" stroke="#191970" points="94.6411,-108.0611 104.3746,-112.2455 99.375,-102.9045 94.6411,-108.0611"/>
</g>
<!-- Node3 -->
<g id="node3" class="node">
<title>Node3</title>
<g id="a_node3"><a xlink:href="structLLU_1_1WS_1_1Function.html" target="_top" xlink:title="Structure representing any function in Wolfram Language, i.e. a head plus number of arguments.">
<polygon fill="#ffffff" stroke="#000000" points="126.5,-56.5 126.5,-75.5 227.5,-75.5 227.5,-56.5 126.5,-56.5"/>
<text text-anchor="middle" x="177" y="-63.5" font-family="Helvetica,sans-Serif" font-size="10.00" fill="#000000">LLU::WS::Function</text>
</a>
</g>
</g>
<!-- Node1&#45;&gt;Node3 -->
<g id="edge2" class="edge">
<title>Node1&#45;&gt;Node3</title>
<path fill="none" stroke="#191970" d="M133.4221,-105.3607C144.1481,-95.6727 157.2934,-83.7995 166.3242,-75.6427"/>
<polygon fill="#191970" stroke="#191970" points="130.8746,-102.9453 125.7996,-112.2455 135.5666,-108.14 130.8746,-102.9453"/>
</g>
<!-- Node4 -->
<g id="node4" class="node">
<title>Node4</title>
<g id="a_node4"><a xlink:href="structLLU_1_1WS_1_1Association.html" target="_top" xlink:title="Special type of a Function which corresponds to the Association expression when exchanged with the Ke...">
<polygon fill="#ffffff" stroke="#000000" points="5,-.5 5,-19.5 119,-19.5 119,-.5 5,-.5"/>
<text text-anchor="middle" x="62" y="-7.5" font-family="Helvetica,sans-Serif" font-size="10.00" fill="#000000">LLU::WS::Association</text>
</a>
</g>
</g>
<!-- Node3&#45;&gt;Node4 -->
<g id="edge3" class="edge">
<title>Node3&#45;&gt;Node4</title>
<path fill="none" stroke="#191970" d="M148.1967,-51.9741C127.375,-41.8348 99.8022,-28.408 81.5112,-19.5011"/>
<polygon fill="#191970" stroke="#191970" points="146.7078,-55.1419 157.2308,-56.3733 149.7724,-48.8484 146.7078,-55.1419"/>
</g>
<!-- Node5 -->
<g id="node5" class="node">
<title>Node5</title>
<g id="a_node5"><a xlink:href="structLLU_1_1WS_1_1List.html" target="_top" xlink:title="Special type of a Function which corresponds to the List expression when exchanged with the Kernel vi...">
<polygon fill="#ffffff" stroke="#000000" points="137.5,-.5 137.5,-19.5 216.5,-19.5 216.5,-.5 137.5,-.5"/>
<text text-anchor="middle" x="177" y="-7.5" font-family="Helvetica,sans-Serif" font-size="10.00" fill="#000000">LLU::WS::List</text>
</a>
</g>
</g>
<!-- Node3&#45;&gt;Node5 -->
<g id="edge4" class="edge">
<title>Node3&#45;&gt;Node5</title>
<path fill="none" stroke="#191970" d="M177,-46.1575C177,-37.155 177,-26.9199 177,-19.6427"/>
<polygon fill="#191970" stroke="#191970" points="173.5001,-46.2455 177,-56.2455 180.5001,-46.2456 173.5001,-46.2455"/>
</g>
<!-- Node6 -->
<g id="node6" class="node">
<title>Node6</title>
<g id="a_node6"><a xlink:href="structLLU_1_1WS_1_1Missing.html" target="_top" xlink:title="Special type of a Function which corresponds to the Missing expression when exchanged with the Kernel...">
<polygon fill="#ffffff" stroke="#000000" points="234.5,-.5 234.5,-19.5 331.5,-19.5 331.5,-.5 234.5,-.5"/>
<text text-anchor="middle" x="283" y="-7.5" font-family="Helvetica,sans-Serif" font-size="10.00" fill="#000000">LLU::WS::Missing</text>
</a>
</g>
</g>
<!-- Node3&#45;&gt;Node6 -->
<g id="edge5" class="edge">
<title>Node3&#45;&gt;Node6</title>
<path fill="none" stroke="#191970" d="M204.5222,-51.46C223.4908,-41.4388 248.1727,-28.3993 264.7478,-19.6427"/>
<polygon fill="#191970" stroke="#191970" points="202.6708,-48.4796 195.4638,-56.2455 205.9407,-54.669 202.6708,-48.4796"/>
</g>
</g>
</svg>
