<?xml version="1.0" encoding="UTF-8" standalone="no"?>
<!DOCTYPE svg PUBLIC "-//W3C//DTD SVG 1.1//EN"
 "http://www.w3.org/Graphics/SVG/1.1/DTD/svg11.dtd">
<!-- Generated by graphviz version 2.40.1 (20161225.0304)
 -->
<!-- Title: LLU::WS::Function Pages: 1 -->
<svg width="335pt" height="140pt"
 viewBox="0.00 0.00 334.50 140.00" xmlns="http://www.w3.org/2000/svg" xmlns:xlink="http://www.w3.org/1999/xlink">
<g id="graph0" class="graph" transform="scale(1 1) rotate(0) translate(4 136)">
<title>LLU::WS::Function</title>
<polygon fill="#ffffff" stroke="transparent" points="-4,4 -4,-136 330.5,-136 330.5,4 -4,4"/>
<!-- Node1 -->
<g id="node1" class="node">
<title>Node1</title>
<g id="a_node1"><a xlink:title="Structure representing any function in Wolfram Language, i.e. a head plus number of arguments.">
<polygon fill="#bfbfbf" stroke="#000000" points="121.5,-56.5 121.5,-75.5 222.5,-75.5 222.5,-56.5 121.5,-56.5"/>
<text text-anchor="middle" x="172" y="-63.5" font-family="Helvetica,sans-Serif" font-size="10.00" fill="#000000">LLU::WS::Function</text>
</a>
</g>
</g>
<!-- Node3 -->
<g id="node3" class="node">
<title>Node3</title>
<g id="a_node3"><a xlink:href="structLLU_1_1WS_1_1Association.html" target="_top" xlink:title="Special type of a Function which corresponds to the Association expression when exchanged with the Ke...">
<polygon fill="#ffffff" stroke="#000000" points="0,-.5 0,-19.5 114,-19.5 114,-.5 0,-.5"/>
<text text-anchor="middle" x="57" y="-7.5" font-family="Helvetica,sans-Serif" font-size="10.00" fill="#000000">LLU::WS::Association</text>
</a>
</g>
</g>
<!-- Node1&#45;&gt;Node3 -->
<g id="edge2" class="edge">
<title>Node1&#45;&gt;Node3</title>
<path fill="none" stroke="#191970" d="M143.1967,-51.9741C122.375,-41.8348 94.8022,-28.408 76.5112,-19.5011"/>
<polygon fill="#191970" stroke="#191970" points="141.7078,-55.1419 152.2308,-56.3733 144.7724,-48.8484 141.7078,-55.1419"/>
</g>
<!-- Node4 -->
<g id="node4" class="node">
<title>Node4</title>
<g id="a_node4"><a xlink:href="structLLU_1_1WS_1_1List.html" target="_top" xlink:title="Special type of a Function which corresponds to the List expression when exchanged with the Kernel vi...">
<polygon fill="#ffffff" stroke="#000000" points="132.5,-.5 132.5,-19.5 211.5,-19.5 211.5,-.5 132.5,-.5"/>
<text text-anchor="middle" x="172" y="-7.5" font-family="Helvetica,sans-Serif" font-size="10.00" fill="#000000">LLU::WS::List</text>
</a>
</g>
</g>
<!-- Node1&#45;&gt;Node4 -->
<g id="edge3" class="edge">
<title>Node1&#45;&gt;Node4</title>
<path fill="none" stroke="#191970" d="M172,-46.1575C172,-37.155 172,-26.9199 172,-19.6427"/>
<polygon fill="#191970" stroke="#191970" points="168.5001,-46.2455 172,-56.2455 175.5001,-46.2456 168.5001,-46.2455"/>
</g>
<!-- Node5 -->
<g id="node5" class="node">
<title>Node5</title>
<g id="a_node5"><a xlink:href="structLLU_1_1WS_1_1Missing.html" target="_top" xlink:title="Special type of a Function which corresponds to the Missing expression when exchanged with the Kernel...">
<polygon fill="#ffffff" stroke="#000000" points="229.5,-.5 229.5,-19.5 326.5,-19.5 326.5,-.5 229.5,-.5"/>
<text text-anchor="middle" x="278" y="-7.5" font-family="Helvetica,sans-Serif" font-size="10.00" fill="#000000">LLU::WS::Missing</text>
</a>
</g>
</g>
<!-- Node1&#45;&gt;Node5 -->
<g id="edge4" class="edge">
<title>Node1&#45;&gt;Node5</title>
<path fill="none" stroke="#191970" d="M199.5222,-51.46C218.4908,-41.4388 243.1727,-28.3993 259.7478,-19.6427"/>
<polygon fill="#191970" stroke="#191970" points="197.6708,-48.4796 190.4638,-56.2455 200.9407,-54.669 197.6708,-48.4796"/>
</g>
<!-- Node2 -->
<g id="node2" class="node">
<title>Node2</title>
<g id="a_node2"><a xlink:href="structLLU_1_1WS_1_1Symbol.html" target="_top" xlink:title="Structure representing any symbol in Wolfram Language.">
<polygon fill="#ffffff" stroke="#000000" points="124,-112.5 124,-131.5 220,-131.5 220,-112.5 124,-112.5"/>
<text text-anchor="middle" x="172" y="-119.5" font-family="Helvetica,sans-Serif" font-size="10.00" fill="#000000">LLU::WS::Symbol</text>
</a>
</g>
</g>
<!-- Node2&#45;&gt;Node1 -->
<g id="edge1" class="edge">
<title>Node2&#45;&gt;Node1</title>
<path fill="none" stroke="#191970" d="M172,-102.1575C172,-93.155 172,-82.9199 172,-75.6427"/>
<polygon fill="#191970" stroke="#191970" points="168.5001,-102.2455 172,-112.2455 175.5001,-102.2456 168.5001,-102.2455"/>
</g>
</g>
</svg>
