<?xml version="1.0" encoding="UTF-8" standalone="no"?>
<!DOCTYPE svg PUBLIC "-//W3C//DTD SVG 1.1//EN"
 "http://www.w3.org/Graphics/SVG/1.1/DTD/svg11.dtd">
<!-- Generated by graphviz version 2.40.1 (20161225.0304)
 -->
<!-- Title: LLU::NumericArrayInterface Pages: 1 -->
<svg width="334pt" height="151pt"
 viewBox="0.00 0.00 333.50 151.00" xmlns="http://www.w3.org/2000/svg" xmlns:xlink="http://www.w3.org/1999/xlink">
<g id="graph0" class="graph" transform="scale(1 1) rotate(0) translate(4 147)">
<title>LLU::NumericArrayInterface</title>
<polygon fill="#ffffff" stroke="transparent" points="-4,4 -4,-147 329.5,-147 329.5,4 -4,4"/>
<!-- Node1 -->
<g id="node1" class="node">
<title>Node1</title>
<g id="a_node1"><a xlink:title="Abstract class that defines a basic set of operations on a numeric array.">
<polygon fill="#bfbfbf" stroke="#000000" points="85.5,-123.5 85.5,-142.5 224.5,-142.5 224.5,-123.5 85.5,-123.5"/>
<text text-anchor="middle" x="155" y="-130.5" font-family="Helvetica,sans-Serif" font-size="10.00" fill="#000000">LLU::NumericArrayInterface</text>
</a>
</g>
</g>
<!-- Node2 -->
<g id="node2" class="node">
<title>Node2</title>
<g id="a_node2"><a xlink:href="classLLU_1_1MContainer_3_01MArgumentType_1_1NumericArray_01_4.html" target="_top" xlink:title="MContainer specialization for MNumericArray.">
<polygon fill="#ffffff" stroke="#000000" points="0,-56.5 0,-86.5 150,-86.5 150,-56.5 0,-56.5"/>
<text text-anchor="start" x="8" y="-74.5" font-family="Helvetica,sans-Serif" font-size="10.00" fill="#000000">LLU::MContainer&lt; MArgument</text>
<text text-anchor="middle" x="75" y="-63.5" font-family="Helvetica,sans-Serif" font-size="10.00" fill="#000000">Type::NumericArray &gt;</text>
</a>
</g>
</g>
<!-- Node1&#45;&gt;Node2 -->
<g id="edge1" class="edge">
<title>Node1&#45;&gt;Node2</title>
<path fill="none" stroke="#191970" d="M134.237,-117.0385C121.9952,-107.6276 106.5982,-95.7911 94.5702,-86.5446"/>
<polygon fill="#191970" stroke="#191970" points="132.4387,-120.0707 142.5,-123.3906 136.7051,-114.521 132.4387,-120.0707"/>
</g>
<!-- Node4 -->
<g id="node4" class="node">
<title>Node4</title>
<g id="a_node4"><a xlink:href="classLLU_1_1NumericArrayView.html" target="_top" xlink:title="Simple, light&#45;weight, non&#45;owning, data&#45;type&#45;agnostic wrappper over MNumericArray.">
<polygon fill="#ffffff" stroke="#000000" points="174,-62 174,-81 296,-81 296,-62 174,-62"/>
<text text-anchor="middle" x="235" y="-69" font-family="Helvetica,sans-Serif" font-size="10.00" fill="#000000">LLU::NumericArrayView</text>
</a>
</g>
</g>
<!-- Node1&#45;&gt;Node4 -->
<g id="edge3" class="edge">
<title>Node1&#45;&gt;Node4</title>
<path fill="none" stroke="#191970" d="M175.619,-117.1491C190.4836,-105.722 210.057,-90.6749 222.5878,-81.0419"/>
<polygon fill="#191970" stroke="#191970" points="173.2949,-114.521 167.5,-123.3906 177.5613,-120.0707 173.2949,-114.521"/>
</g>
<!-- Node3 -->
<g id="node3" class="node">
<title>Node3</title>
<g id="a_node3"><a xlink:href="classLLU_1_1NumericArray.html" target="_top" xlink:title="This is a class template, where template parameter T is the type of data elements....">
<polygon fill="#ffffff" stroke="#000000" points="9.5,-.5 9.5,-19.5 134.5,-19.5 134.5,-.5 9.5,-.5"/>
<text text-anchor="middle" x="72" y="-7.5" font-family="Helvetica,sans-Serif" font-size="10.00" fill="#000000">LLU::NumericArray&lt; T &gt;</text>
</a>
</g>
</g>
<!-- Node2&#45;&gt;Node3 -->
<g id="edge2" class="edge">
<title>Node2&#45;&gt;Node3</title>
<path fill="none" stroke="#191970" d="M73.77,-46.2849C73.3164,-36.9858 72.8287,-26.9883 72.4803,-19.8469"/>
<polygon fill="#191970" stroke="#191970" points="70.2753,-46.4802 74.2584,-56.2977 77.2669,-46.1391 70.2753,-46.4802"/>
</g>
<!-- Node5 -->
<g id="node5" class="node">
<title>Node5</title>
<g id="a_node5"><a xlink:href="classLLU_1_1NumericArrayTypedView.html" target="_top" xlink:title="Simple, light&#45;weight, non&#45;owning wrappper over MNumericArray.">
<polygon fill="#ffffff" stroke="#000000" points="152.5,-.5 152.5,-19.5 325.5,-19.5 325.5,-.5 152.5,-.5"/>
<text text-anchor="middle" x="239" y="-7.5" font-family="Helvetica,sans-Serif" font-size="10.00" fill="#000000">LLU::NumericArrayTypedView&lt; T &gt;</text>
</a>
</g>
</g>
<!-- Node4&#45;&gt;Node5 -->
<g id="edge4" class="edge">
<title>Node4&#45;&gt;Node5</title>
<path fill="none" stroke="#191970" d="M236.2848,-51.7462C236.9804,-41.0519 237.8088,-28.314 238.3662,-19.7449"/>
<polygon fill="#191970" stroke="#191970" points="232.7815,-51.6845 235.625,-61.8906 239.7667,-52.1389 232.7815,-51.6845"/>
</g>
</g>
</svg>
