<?xml version="1.0" encoding="UTF-8" standalone="no"?>
<!DOCTYPE svg PUBLIC "-//W3C//DTD SVG 1.1//EN"
 "http://www.w3.org/Graphics/SVG/1.1/DTD/svg11.dtd">
<!-- Generated by graphviz version 2.40.1 (20161225.0304)
 -->
<!-- Title: LLU::TensorInterface Pages: 1 -->
<svg width="303pt" height="151pt"
 viewBox="0.00 0.00 302.50 151.00" xmlns="http://www.w3.org/2000/svg" xmlns:xlink="http://www.w3.org/1999/xlink">
<g id="graph0" class="graph" transform="scale(1 1) rotate(0) translate(4 147)">
<title>LLU::TensorInterface</title>
<polygon fill="#ffffff" stroke="transparent" points="-4,4 -4,-147 298.5,-147 298.5,4 -4,4"/>
<!-- Node1 -->
<g id="node1" class="node">
<title>Node1</title>
<g id="a_node1"><a xlink:title="Abstract class that defines a basic set of operations on a tensor.">
<polygon fill="#bfbfbf" stroke="#000000" points="124,-123.5 124,-142.5 233,-142.5 233,-123.5 124,-123.5"/>
<text text-anchor="middle" x="178.5" y="-130.5" font-family="Helvetica,sans-Serif" font-size="10.00" fill="#000000">LLU::TensorInterface</text>
</a>
</g>
</g>
<!-- Node2 -->
<g id="node2" class="node">
<title>Node2</title>
<g id="a_node2"><a xlink:href="classLLU_1_1MContainer_3_01MArgumentType_1_1Tensor_01_4.html" target="_top" xlink:title="MContainer specialization for MTensor.">
<polygon fill="#ffffff" stroke="#000000" points="34.5,-56.5 34.5,-86.5 184.5,-86.5 184.5,-56.5 34.5,-56.5"/>
<text text-anchor="start" x="42.5" y="-74.5" font-family="Helvetica,sans-Serif" font-size="10.00" fill="#000000">LLU::MContainer&lt; MArgument</text>
<text text-anchor="middle" x="109.5" y="-63.5" font-family="Helvetica,sans-Serif" font-size="10.00" fill="#000000">Type::Tensor &gt;</text>
</a>
</g>
</g>
<!-- Node1&#45;&gt;Node2 -->
<g id="edge1" class="edge">
<title>Node1&#45;&gt;Node2</title>
<path fill="none" stroke="#191970" d="M159.9738,-116.4875C149.5188,-107.1689 136.552,-95.6116 126.3793,-86.5446"/>
<polygon fill="#191970" stroke="#191970" points="157.9248,-119.3497 167.7188,-123.3906 162.5824,-114.1241 157.9248,-119.3497"/>
</g>
<!-- Node5 -->
<g id="node5" class="node">
<title>Node5</title>
<g id="a_node5"><a xlink:href="classLLU_1_1TensorView.html" target="_top" xlink:title="Simple, light&#45;weight, non&#45;owning wrappper over MTensor.">
<polygon fill="#ffffff" stroke="#000000" points="202.5,-62 202.5,-81 294.5,-81 294.5,-62 202.5,-62"/>
<text text-anchor="middle" x="248.5" y="-69" font-family="Helvetica,sans-Serif" font-size="10.00" fill="#000000">LLU::TensorView</text>
</a>
</g>
</g>
<!-- Node1&#45;&gt;Node5 -->
<g id="edge4" class="edge">
<title>Node1&#45;&gt;Node5</title>
<path fill="none" stroke="#191970" d="M197.2257,-116.5482C210.0515,-105.2798 226.6281,-90.716 237.4083,-81.2449"/>
<polygon fill="#191970" stroke="#191970" points="194.6399,-114.161 189.4375,-123.3906 199.2601,-119.4197 194.6399,-114.161"/>
</g>
<!-- Node3 -->
<g id="node3" class="node">
<title>Node3</title>
<g id="a_node3"><a xlink:href="classLLU_1_1Tensor.html" target="_top" xlink:title="This is a class template, where template parameter T is the type of data elements....">
<polygon fill="#ffffff" stroke="#000000" points="0,-.5 0,-19.5 95,-19.5 95,-.5 0,-.5"/>
<text text-anchor="middle" x="47.5" y="-7.5" font-family="Helvetica,sans-Serif" font-size="10.00" fill="#000000">LLU::Tensor&lt; T &gt;</text>
</a>
</g>
</g>
<!-- Node2&#45;&gt;Node3 -->
<g id="edge2" class="edge">
<title>Node2&#45;&gt;Node3</title>
<path fill="none" stroke="#191970" d="M86.7786,-48.9618C76.6829,-38.9475 65.3231,-27.6794 57.427,-19.8469"/>
<polygon fill="#191970" stroke="#191970" points="84.6096,-51.7402 94.1742,-56.2977 89.5393,-46.7705 84.6096,-51.7402"/>
</g>
<!-- Node4 -->
<g id="node4" class="node">
<title>Node4</title>
<g id="a_node4"><a xlink:href="classLLU_1_1Tensor.html" target="_top" xlink:title=" ">
<polygon fill="#ffffff" stroke="#000000" points="113,-.5 113,-19.5 230,-19.5 230,-.5 113,-.5"/>
<text text-anchor="middle" x="171.5" y="-7.5" font-family="Helvetica,sans-Serif" font-size="10.00" fill="#000000">LLU::Tensor&lt; double &gt;</text>
</a>
</g>
</g>
<!-- Node2&#45;&gt;Node4 -->
<g id="edge3" class="edge">
<title>Node2&#45;&gt;Node4</title>
<path fill="none" stroke="#191970" d="M132.2214,-48.9618C142.3171,-38.9475 153.6769,-27.6794 161.573,-19.8469"/>
<polygon fill="#191970" stroke="#191970" points="129.4607,-46.7705 124.8258,-56.2977 134.3904,-51.7402 129.4607,-46.7705"/>
</g>
</g>
</svg>
