<?xml version="1.0" encoding="UTF-8" standalone="no"?>
<!DOCTYPE svg PUBLIC "-//W3C//DTD SVG 1.1//EN"
 "http://www.w3.org/Graphics/SVG/1.1/DTD/svg11.dtd">
<!-- Generated by graphviz version 2.40.1 (20161225.0304)
 -->
<!-- Title: LLU::ImageInterface Pages: 1 -->
<svg width="265pt" height="151pt"
 viewBox="0.00 0.00 264.50 151.00" xmlns="http://www.w3.org/2000/svg" xmlns:xlink="http://www.w3.org/1999/xlink">
<g id="graph0" class="graph" transform="scale(1 1) rotate(0) translate(4 147)">
<title>LLU::ImageInterface</title>
<polygon fill="#ffffff" stroke="transparent" points="-4,4 -4,-147 260.5,-147 260.5,4 -4,4"/>
<!-- Node1 -->
<g id="node1" class="node">
<title>Node1</title>
<g id="a_node1"><a xlink:title="Abstract class that defines a basic set of operations on an image.">
<polygon fill="#bfbfbf" stroke="#000000" points="59.5,-123.5 59.5,-142.5 165.5,-142.5 165.5,-123.5 59.5,-123.5"/>
<text text-anchor="middle" x="112.5" y="-130.5" font-family="Helvetica,sans-Serif" font-size="10.00" fill="#000000">LLU::ImageInterface</text>
</a>
</g>
</g>
<!-- Node2 -->
<g id="node2" class="node">
<title>Node2</title>
<g id="a_node2"><a xlink:href="classLLU_1_1ImageView.html" target="_top" xlink:title="Simple, light&#45;weight, non&#45;owning wrappper over MImage.">
<polygon fill="#ffffff" stroke="#000000" points="0,-62 0,-81 89,-81 89,-62 0,-62"/>
<text text-anchor="middle" x="44.5" y="-69" font-family="Helvetica,sans-Serif" font-size="10.00" fill="#000000">LLU::ImageView</text>
</a>
</g>
</g>
<!-- Node1&#45;&gt;Node2 -->
<g id="edge1" class="edge">
<title>Node1&#45;&gt;Node2</title>
<path fill="none" stroke="#191970" d="M94.3094,-116.5482C81.85,-105.2798 65.747,-90.716 55.2748,-81.2449"/>
<polygon fill="#191970" stroke="#191970" points="92.1106,-119.2787 101.875,-123.3906 96.806,-114.0871 92.1106,-119.2787"/>
</g>
<!-- Node3 -->
<g id="node3" class="node">
<title>Node3</title>
<g id="a_node3"><a xlink:href="classLLU_1_1MContainer_3_01MArgumentType_1_1Image_01_4.html" target="_top" xlink:title="MContainer specialization for MImage.">
<polygon fill="#ffffff" stroke="#000000" points="106.5,-56.5 106.5,-86.5 256.5,-86.5 256.5,-56.5 106.5,-56.5"/>
<text text-anchor="start" x="114.5" y="-74.5" font-family="Helvetica,sans-Serif" font-size="10.00" fill="#000000">LLU::MContainer&lt; MArgument</text>
<text text-anchor="middle" x="181.5" y="-63.5" font-family="Helvetica,sans-Serif" font-size="10.00" fill="#000000">Type::Image &gt;</text>
</a>
</g>
</g>
<!-- Node1&#45;&gt;Node3 -->
<g id="edge2" class="edge">
<title>Node1&#45;&gt;Node3</title>
<path fill="none" stroke="#191970" d="M131.0262,-116.4875C141.4812,-107.1689 154.448,-95.6116 164.6207,-86.5446"/>
<polygon fill="#191970" stroke="#191970" points="128.4176,-114.1241 123.2813,-123.3906 133.0752,-119.3497 128.4176,-114.1241"/>
</g>
<!-- Node4 -->
<g id="node4" class="node">
<title>Node4</title>
<g id="a_node4"><a xlink:href="classLLU_1_1Image.html" target="_top" xlink:title="This is a class template, where template parameter T is the type of data elements....">
<polygon fill="#ffffff" stroke="#000000" points="135.5,-.5 135.5,-19.5 227.5,-19.5 227.5,-.5 135.5,-.5"/>
<text text-anchor="middle" x="181.5" y="-7.5" font-family="Helvetica,sans-Serif" font-size="10.00" fill="#000000">LLU::Image&lt; T &gt;</text>
</a>
</g>
</g>
<!-- Node3&#45;&gt;Node4 -->
<g id="edge3" class="edge">
<title>Node3&#45;&gt;Node4</title>
<path fill="none" stroke="#191970" d="M181.5,-46.2849C181.5,-36.9858 181.5,-26.9883 181.5,-19.8469"/>
<polygon fill="#191970" stroke="#191970" points="178.0001,-46.2977 181.5,-56.2977 185.0001,-46.2978 178.0001,-46.2977"/>
</g>
</g>
</svg>
