<?xml version="1.0" encoding="UTF-8" standalone="no"?>
<!DOCTYPE svg PUBLIC "-//W3C//DTD SVG 1.1//EN"
 "http://www.w3.org/Graphics/SVG/1.1/DTD/svg11.dtd">
<!-- Generated by graphviz version 2.40.1 (20161225.0304)
 -->
<!-- Title: Tensor.h Pages: 1 -->
<svg width="398pt" height="196pt"
 viewBox="0.00 0.00 398.00 196.00" xmlns="http://www.w3.org/2000/svg" xmlns:xlink="http://www.w3.org/1999/xlink">
<g id="graph0" class="graph" transform="scale(1 1) rotate(0) translate(4 192)">
<title>Tensor.h</title>
<polygon fill="#ffffff" stroke="transparent" points="-4,4 -4,-192 394,-192 394,4 -4,4"/>
<!-- Node1 -->
<g id="node1" class="node">
<title>Node1</title>
<g id="a_node1"><a xlink:title="Templated C++ wrapper for MTensor.">
<polygon fill="#bfbfbf" stroke="#000000" points="97,-168.5 97,-187.5 152,-187.5 152,-168.5 97,-168.5"/>
<text text-anchor="middle" x="124.5" y="-175.5" font-family="Helvetica,sans-Serif" font-size="10.00" fill="#000000">Tensor.h</text>
</a>
</g>
</g>
<!-- Node2 -->
<g id="node2" class="node">
<title>Node2</title>
<g id="a_node2"><a xlink:href="LLU_8h.html" target="_top" xlink:title="Header file which includes all major parts of LLU.">
<polygon fill="#ffffff" stroke="#000000" points="0,-.5 0,-19.5 43,-19.5 43,-.5 0,-.5"/>
<text text-anchor="middle" x="21.5" y="-7.5" font-family="Helvetica,sans-Serif" font-size="10.00" fill="#000000">LLU.h</text>
</a>
</g>
</g>
<!-- Node1&#45;&gt;Node2 -->
<g id="edge1" class="edge">
<title>Node1&#45;&gt;Node2</title>
<path fill="none" stroke="#191970" d="M109.1695,-160.7825C92.3799,-141.2798 65.4574,-108.0321 47.5,-76 36.9007,-57.0933 28.5864,-32.988 24.425,-19.7685"/>
<polygon fill="#191970" stroke="#191970" points="106.6832,-163.2565 115.8956,-168.4892 111.9571,-158.6537 106.6832,-163.2565"/>
</g>
<!-- Node3 -->
<g id="node3" class="node">
<title>Node3</title>
<g id="a_node3"><a xlink:href="MArgumentManager_8h.html" target="_top" xlink:title="Definition of MArgumentManager class.">
<polygon fill="#ffffff" stroke="#000000" points="57,-56.5 57,-75.5 170,-75.5 170,-56.5 57,-56.5"/>
<text text-anchor="middle" x="113.5" y="-63.5" font-family="Helvetica,sans-Serif" font-size="10.00" fill="#000000">MArgumentManager.h</text>
</a>
</g>
</g>
<!-- Node1&#45;&gt;Node3 -->
<g id="edge2" class="edge">
<title>Node1&#45;&gt;Node3</title>
<path fill="none" stroke="#191970" d="M114.9054,-159.4785C111.1799,-151.2885 107.3648,-141.3997 105.5,-132 101.5918,-112.3005 106.6921,-88.8897 110.3605,-75.9133"/>
<polygon fill="#191970" stroke="#191970" points="111.7567,-161.007 119.2682,-168.4788 118.0557,-157.9536 111.7567,-161.007"/>
</g>
<!-- Node7 -->
<g id="node7" class="node">
<title>Node7</title>
<g id="a_node7"><a xlink:href="ProgressMonitor_8h.html" target="_top" xlink:title="Definition of ProgressMonitor class.">
<polygon fill="#ffffff" stroke="#000000" points="114.5,-112.5 114.5,-131.5 210.5,-131.5 210.5,-112.5 114.5,-112.5"/>
<text text-anchor="middle" x="162.5" y="-119.5" font-family="Helvetica,sans-Serif" font-size="10.00" fill="#000000">ProgressMonitor.h</text>
</a>
</g>
</g>
<!-- Node1&#45;&gt;Node7 -->
<g id="edge7" class="edge">
<title>Node1&#45;&gt;Node7</title>
<path fill="none" stroke="#191970" d="M136.7679,-159.9209C143.1488,-150.5176 150.6931,-139.3997 155.9568,-131.6427"/>
<polygon fill="#191970" stroke="#191970" points="133.838,-158.0055 131.1191,-168.2455 139.6303,-161.936 133.838,-158.0055"/>
</g>
<!-- Node9 -->
<g id="node9" class="node">
<title>Node9</title>
<g id="a_node9"><a xlink:href="Tensor_8cpp.html" target="_top" xlink:title="Template specialization of certain methods from TypedTensor class for all underlying data types that ...">
<polygon fill="#ffffff" stroke="#000000" points="229,-112.5 229,-131.5 294,-131.5 294,-112.5 229,-112.5"/>
<text text-anchor="middle" x="261.5" y="-119.5" font-family="Helvetica,sans-Serif" font-size="10.00" fill="#000000">Tensor.cpp</text>
</a>
</g>
</g>
<!-- Node1&#45;&gt;Node9 -->
<g id="edge10" class="edge">
<title>Node1&#45;&gt;Node9</title>
<path fill="none" stroke="#191970" d="M157.4806,-164.5189C182.4311,-154.3201 216.0734,-140.5685 238.2562,-131.5011"/>
<polygon fill="#191970" stroke="#191970" points="155.9834,-161.3497 148.0511,-168.3733 158.632,-167.8293 155.9834,-161.3497"/>
</g>
<!-- Node3&#45;&gt;Node2 -->
<g id="edge3" class="edge">
<title>Node3&#45;&gt;Node2</title>
<path fill="none" stroke="#191970" d="M88.4776,-50.769C72.175,-40.8456 51.399,-28.1994 37.3415,-19.6427"/>
<polygon fill="#191970" stroke="#191970" points="87.113,-54.0357 97.4748,-56.2455 90.7527,-48.0563 87.113,-54.0357"/>
</g>
<!-- Node4 -->
<g id="node4" class="node">
<title>Node4</title>
<g id="a_node4"><a xlink:href="LibraryLinkError_8cpp.html" target="_top" xlink:title="Contains definitions of ErrorManager members and implementation of interface function sendRegisteredE...">
<polygon fill="#ffffff" stroke="#000000" points="61.5,-.5 61.5,-19.5 165.5,-19.5 165.5,-.5 61.5,-.5"/>
<text text-anchor="middle" x="113.5" y="-7.5" font-family="Helvetica,sans-Serif" font-size="10.00" fill="#000000">LibraryLinkError.cpp</text>
</a>
</g>
</g>
<!-- Node3&#45;&gt;Node4 -->
<g id="edge4" class="edge">
<title>Node3&#45;&gt;Node4</title>
<path fill="none" stroke="#191970" d="M113.5,-46.1575C113.5,-37.155 113.5,-26.9199 113.5,-19.6427"/>
<polygon fill="#191970" stroke="#191970" points="110.0001,-46.2455 113.5,-56.2455 117.0001,-46.2456 110.0001,-46.2455"/>
</g>
<!-- Node5 -->
<g id="node5" class="node">
<title>Node5</title>
<g id="a_node5"><a xlink:href="Logger_8cpp.html" target="_top" xlink:title="Implementation of functions defined in Logger.h.">
<polygon fill="#ffffff" stroke="#000000" points="184,-.5 184,-19.5 249,-19.5 249,-.5 184,-.5"/>
<text text-anchor="middle" x="216.5" y="-7.5" font-family="Helvetica,sans-Serif" font-size="10.00" fill="#000000">Logger.cpp</text>
</a>
</g>
</g>
<!-- Node3&#45;&gt;Node5 -->
<g id="edge5" class="edge">
<title>Node3&#45;&gt;Node5</title>
<path fill="none" stroke="#191970" d="M140.2432,-51.46C158.675,-41.4388 182.6584,-28.3993 198.7644,-19.6427"/>
<polygon fill="#191970" stroke="#191970" points="138.5549,-48.394 131.4412,-56.2455 141.8985,-54.5438 138.5549,-48.394"/>
</g>
<!-- Node6 -->
<g id="node6" class="node">
<title>Node6</title>
<g id="a_node6"><a xlink:href="MArgumentManager_8cpp.html" target="_top" xlink:title="Definitions of non&#45;template member functions and static data members from MArgumentManager class.">
<polygon fill="#ffffff" stroke="#000000" points="267,-.5 267,-19.5 390,-19.5 390,-.5 267,-.5"/>
<text text-anchor="middle" x="328.5" y="-7.5" font-family="Helvetica,sans-Serif" font-size="10.00" fill="#000000">MArgumentManager.cpp</text>
</a>
</g>
</g>
<!-- Node3&#45;&gt;Node6 -->
<g id="edge6" class="edge">
<title>Node3&#45;&gt;Node6</title>
<path fill="none" stroke="#191970" d="M160.143,-53.8511C199.7064,-43.5462 255.6697,-28.9697 292.0225,-19.5011"/>
<polygon fill="#191970" stroke="#191970" points="159.2547,-50.4656 150.4598,-56.3733 161.0192,-57.2396 159.2547,-50.4656"/>
</g>
<!-- Node7&#45;&gt;Node3 -->
<g id="edge8" class="edge">
<title>Node7&#45;&gt;Node3</title>
<path fill="none" stroke="#191970" d="M147.1878,-104.5004C138.8553,-94.9775 128.8647,-83.5596 121.9373,-75.6427"/>
<polygon fill="#191970" stroke="#191970" points="144.7457,-107.0245 153.9649,-112.2455 150.0138,-102.415 144.7457,-107.0245"/>
</g>
<!-- Node8 -->
<g id="node8" class="node">
<title>Node8</title>
<g id="a_node8"><a xlink:href="ProgressMonitor_8cpp.html" target="_top" xlink:title="Implementation file for ProgressMonitor class.">
<polygon fill="#ffffff" stroke="#000000" points="188,-56.5 188,-75.5 295,-75.5 295,-56.5 188,-56.5"/>
<text text-anchor="middle" x="241.5" y="-63.5" font-family="Helvetica,sans-Serif" font-size="10.00" fill="#000000">ProgressMonitor.cpp</text>
</a>
</g>
</g>
<!-- Node7&#45;&gt;Node8 -->
<g id="edge9" class="edge">
<title>Node7&#45;&gt;Node8</title>
<path fill="none" stroke="#191970" d="M184.7756,-106.2097C198.6505,-96.3743 216.0515,-84.0394 227.8969,-75.6427"/>
<polygon fill="#191970" stroke="#191970" points="182.3949,-103.6071 176.2607,-112.2455 186.4431,-109.3178 182.3949,-103.6071"/>
</g>
</g>
</svg>
