<?xml version="1.0" encoding="UTF-8" standalone="no"?>
<!DOCTYPE svg PUBLIC "-//W3C//DTD SVG 1.1//EN"
 "http://www.w3.org/Graphics/SVG/1.1/DTD/svg11.dtd">
<!-- Generated by graphviz version 2.40.1 (20161225.0304)
 -->
<!-- Title: Tensor.cpp Pages: 1 -->
<svg width="2635pt" height="688pt"
 viewBox="0.00 0.00 2635.00 688.00" xmlns="http://www.w3.org/2000/svg" xmlns:xlink="http://www.w3.org/1999/xlink">
<g id="graph0" class="graph" transform="scale(1 1) rotate(0) translate(4 684)">
<title>Tensor.cpp</title>
<polygon fill="#ffffff" stroke="transparent" points="-4,4 -4,-684 2631,-684 2631,4 -4,4"/>
<!-- Node1 -->
<g id="node1" class="node">
<title>Node1</title>
<g id="a_node1"><a xlink:title="Template specialization of certain methods from TypedTensor class for all underlying data types that ...">
<polygon fill="#bfbfbf" stroke="#000000" points="2444.5,-660.5 2444.5,-679.5 2509.5,-679.5 2509.5,-660.5 2444.5,-660.5"/>
<text text-anchor="middle" x="2477" y="-667.5" font-family="Helvetica,sans-Serif" font-size="10.00" fill="#000000">Tensor.cpp</text>
</a>
</g>
</g>
<!-- Node2 -->
<g id="node2" class="node">
<title>Node2</title>
<g id="a_node2"><a xlink:href="Tensor_8h.html" target="_top" xlink:title="Templated C++ wrapper for MTensor.">
<polygon fill="#ffffff" stroke="#000000" points="2263,-604.5 2263,-623.5 2389,-623.5 2389,-604.5 2263,-604.5"/>
<text text-anchor="middle" x="2326" y="-611.5" font-family="Helvetica,sans-Serif" font-size="10.00" fill="#000000">LLU/Containers/Tensor.h</text>
</a>
</g>
</g>
<!-- Node1&#45;&gt;Node2 -->
<g id="edge1" class="edge">
<title>Node1&#45;&gt;Node2</title>
<path fill="none" stroke="#191970" d="M2451.0422,-660.3733C2426.2593,-651.1822 2388.7254,-637.2624 2361.246,-627.0713"/>
<polygon fill="#191970" stroke="#191970" points="2362.2121,-623.6968 2351.6191,-623.5011 2359.7781,-630.26 2362.2121,-623.6968"/>
</g>
<!-- Node22 -->
<g id="node22" class="node">
<title>Node22</title>
<g id="a_node22"><a xlink:title=" ">
<polygon fill="#ffffff" stroke="#bfbfbf" points="2421.5,-56.5 2421.5,-75.5 2474.5,-75.5 2474.5,-56.5 2421.5,-56.5"/>
<text text-anchor="middle" x="2448" y="-63.5" font-family="Helvetica,sans-Serif" font-size="10.00" fill="#000000">complex</text>
</a>
</g>
</g>
<!-- Node1&#45;&gt;Node22 -->
<g id="edge116" class="edge">
<title>Node1&#45;&gt;Node22</title>
<path fill="none" stroke="#191970" d="M2509.5478,-660.5753C2553.664,-645.5672 2627,-611.7136 2627,-552.5 2627,-552.5 2627,-552.5 2627,-178 2627,-111.4996 2537.117,-83.0063 2484.7364,-72.0476"/>
<polygon fill="#191970" stroke="#191970" points="2485.287,-68.5888 2474.7981,-70.0836 2483.9298,-75.456 2485.287,-68.5888"/>
</g>
<!-- Node3 -->
<g id="node3" class="node">
<title>Node3</title>
<g id="a_node3"><a xlink:title=" ">
<polygon fill="#ffffff" stroke="#bfbfbf" points="2199.5,-353 2199.5,-372 2272.5,-372 2272.5,-353 2199.5,-353"/>
<text text-anchor="middle" x="2236" y="-360" font-family="Helvetica,sans-Serif" font-size="10.00" fill="#000000">initializer_list</text>
</a>
</g>
</g>
<!-- Node2&#45;&gt;Node3 -->
<g id="edge2" class="edge">
<title>Node2&#45;&gt;Node3</title>
<path fill="none" stroke="#191970" d="M2351.0538,-604.3375C2367.9766,-596.7027 2389.7473,-584.5647 2404,-568 2433.4664,-533.7536 2445.7672,-512.6968 2431,-470 2409.8987,-408.9895 2333.3494,-381.8321 2282.6714,-370.323"/>
<polygon fill="#191970" stroke="#191970" points="2283.1039,-366.8363 2272.5922,-368.1612 2281.6358,-373.6806 2283.1039,-366.8363"/>
</g>
<!-- Node4 -->
<g id="node4" class="node">
<title>Node4</title>
<g id="a_node4"><a xlink:title=" ">
<polygon fill="#ffffff" stroke="#bfbfbf" points="2273,-56.5 2273,-75.5 2335,-75.5 2335,-56.5 2273,-56.5"/>
<text text-anchor="middle" x="2304" y="-63.5" font-family="Helvetica,sans-Serif" font-size="10.00" fill="#000000">type_traits</text>
</a>
</g>
</g>
<!-- Node2&#45;&gt;Node4 -->
<g id="edge3" class="edge">
<title>Node2&#45;&gt;Node4</title>
<path fill="none" stroke="#191970" d="M2359.1888,-604.391C2380.7458,-596.9648 2408.5361,-585.0479 2429,-568 2484.5042,-521.761 2496.5444,-501.9757 2521,-434 2561.0317,-322.7297 2588.4276,-269.0458 2527,-168 2488.3332,-104.3948 2398.462,-80.0926 2345.3666,-71.0765"/>
<polygon fill="#191970" stroke="#191970" points="2345.6896,-67.584 2335.264,-69.47 2344.5902,-74.4971 2345.6896,-67.584"/>
</g>
<!-- Node5 -->
<g id="node5" class="node">
<title>Node5</title>
<g id="a_node5"><a xlink:href="Generic_2Tensor_8hpp.html" target="_top" xlink:title="GenericTensor definition and implementation.">
<polygon fill="#ffffff" stroke="#000000" points="1123,-537.5 1123,-567.5 1245,-567.5 1245,-537.5 1123,-537.5"/>
<text text-anchor="start" x="1131" y="-555.5" font-family="Helvetica,sans-Serif" font-size="10.00" fill="#000000">LLU/Containers/Generic</text>
<text text-anchor="middle" x="1184" y="-544.5" font-family="Helvetica,sans-Serif" font-size="10.00" fill="#000000">/Tensor.hpp</text>
</a>
</g>
</g>
<!-- Node2&#45;&gt;Node5 -->
<g id="edge4" class="edge">
<title>Node2&#45;&gt;Node5</title>
<path fill="none" stroke="#191970" d="M2262.9744,-610.6059C2066.0521,-600.0011 1463.0791,-567.5292 1255.2732,-556.3383"/>
<polygon fill="#191970" stroke="#191970" points="1255.2642,-552.8328 1245.0904,-555.7899 1254.8877,-559.8227 1255.2642,-552.8328"/>
</g>
<!-- Node21 -->
<g id="node21" class="node">
<title>Node21</title>
<g id="a_node21"><a xlink:href="Utilities_8hpp.html" target="_top" xlink:title="Short but generally useful functions.">
<polygon fill="#ffffff" stroke="#000000" points="1905.5,-112.5 1905.5,-131.5 1994.5,-131.5 1994.5,-112.5 1905.5,-112.5"/>
<text text-anchor="middle" x="1950" y="-119.5" font-family="Helvetica,sans-Serif" font-size="10.00" fill="#000000">LLU/Utilities.hpp</text>
</a>
</g>
</g>
<!-- Node2&#45;&gt;Node21 -->
<g id="edge115" class="edge">
<title>Node2&#45;&gt;Node21</title>
<path fill="none" stroke="#191970" d="M2265.2924,-604.4916C2205.9492,-591.7827 2118.0134,-563.1673 2072,-501 1998.2087,-401.3028 2100.6662,-331.0404 2038,-224 2024.3469,-200.6791 2007.1304,-208.039 1989,-188 1976.2101,-173.8637 1965.5234,-154.8848 1958.5902,-140.9077"/>
<polygon fill="#191970" stroke="#191970" points="1961.6902,-139.2768 1954.2288,-131.7549 1955.3709,-142.288 1961.6902,-139.2768"/>
</g>
<!-- Node25 -->
<g id="node25" class="node">
<title>Node25</title>
<g id="a_node25"><a xlink:href="LibraryData_8h.html" target="_top" xlink:title=" ">
<polygon fill="#ffffff" stroke="#000000" points="524,-56.5 524,-75.5 620,-75.5 620,-56.5 524,-56.5"/>
<text text-anchor="middle" x="572" y="-63.5" font-family="Helvetica,sans-Serif" font-size="10.00" fill="#000000">LLU/LibraryData.h</text>
</a>
</g>
</g>
<!-- Node2&#45;&gt;Node25 -->
<g id="edge114" class="edge">
<title>Node2&#45;&gt;Node25</title>
<path fill="none" stroke="#191970" d="M2262.899,-613.3389C1922.3448,-609.3667 319,-585.3626 319,-485.5 319,-485.5 319,-485.5 319,-178 319,-134.5313 445.4552,-96.5456 519.5626,-78.0167"/>
<polygon fill="#191970" stroke="#191970" points="520.7799,-81.3217 529.6535,-75.5328 519.1067,-74.5245 520.7799,-81.3217"/>
</g>
<!-- Node44 -->
<g id="node44" class="node">
<title>Node44</title>
<g id="a_node44"><a xlink:href="MArray_8hpp.html" target="_top" xlink:title="Template base class for C++ wrappers of LibraryLink containers.">
<polygon fill="#ffffff" stroke="#000000" points="2257,-543 2257,-562 2395,-562 2395,-543 2257,-543"/>
<text text-anchor="middle" x="2326" y="-550" font-family="Helvetica,sans-Serif" font-size="10.00" fill="#000000">LLU/Containers/MArray.hpp</text>
</a>
</g>
</g>
<!-- Node2&#45;&gt;Node44 -->
<g id="edge95" class="edge">
<title>Node2&#45;&gt;Node44</title>
<path fill="none" stroke="#191970" d="M2326,-604.3906C2326,-595.8657 2326,-583.1392 2326,-572.4235"/>
<polygon fill="#191970" stroke="#191970" points="2329.5001,-572.2448 2326,-562.2449 2322.5001,-572.2449 2329.5001,-572.2448"/>
</g>
<!-- Node6 -->
<g id="node6" class="node">
<title>Node6</title>
<g id="a_node6"><a xlink:href="Base_8hpp.html" target="_top" xlink:title="Definitions of MContainerBase and MContainer class templates.">
<polygon fill="#ffffff" stroke="#000000" points="1123,-470.5 1123,-500.5 1245,-500.5 1245,-470.5 1123,-470.5"/>
<text text-anchor="start" x="1131" y="-488.5" font-family="Helvetica,sans-Serif" font-size="10.00" fill="#000000">LLU/Containers/Generic</text>
<text text-anchor="middle" x="1184" y="-477.5" font-family="Helvetica,sans-Serif" font-size="10.00" fill="#000000">/Base.hpp</text>
</a>
</g>
</g>
<!-- Node5&#45;&gt;Node6 -->
<g id="edge5" class="edge">
<title>Node5&#45;&gt;Node6</title>
<path fill="none" stroke="#191970" d="M1184,-537.2967C1184,-529.5013 1184,-519.7991 1184,-510.9064"/>
<polygon fill="#191970" stroke="#191970" points="1187.5001,-510.6431 1184,-500.6432 1180.5001,-510.6432 1187.5001,-510.6431"/>
</g>
<!-- Node43 -->
<g id="node43" class="node">
<title>Node43</title>
<g id="a_node43"><a xlink:href="Interfaces_8h.html" target="_top" xlink:title=" ">
<polygon fill="#ffffff" stroke="#000000" points="347,-414.5 347,-433.5 487,-433.5 487,-414.5 347,-414.5"/>
<text text-anchor="middle" x="417" y="-421.5" font-family="Helvetica,sans-Serif" font-size="10.00" fill="#000000">LLU/Containers/Interfaces.h</text>
</a>
</g>
</g>
<!-- Node5&#45;&gt;Node43 -->
<g id="edge94" class="edge">
<title>Node5&#45;&gt;Node43</title>
<path fill="none" stroke="#191970" d="M1122.7317,-550.1698C965.7054,-543.8747 557.2328,-525.3472 501,-501 471.2221,-488.107 445.1191,-460.1257 430.2062,-441.6835"/>
<polygon fill="#191970" stroke="#191970" points="432.9097,-439.4588 423.9928,-433.7369 427.3952,-443.7706 432.9097,-439.4588"/>
</g>
<!-- Node6&#45;&gt;Node4 -->
<g id="edge6" class="edge">
<title>Node6&#45;&gt;Node4</title>
<path fill="none" stroke="#191970" d="M1245.2505,-484.7147C1401.789,-482.1714 1813.3559,-471.9668 1944,-434 2118.6416,-383.2469 2152.9368,-326.3353 2271,-188 2289.902,-165.8524 2297.1543,-160.0401 2305,-132 2309.2458,-116.8258 2308.6422,-98.9119 2307.1737,-85.5789"/>
<polygon fill="#191970" stroke="#191970" points="2310.635,-85.0569 2305.8241,-75.6173 2303.6984,-85.9967 2310.635,-85.0569"/>
</g>
<!-- Node7 -->
<g id="node7" class="node">
<title>Node7</title>
<g id="a_node7"><a xlink:href="ErrorManager_8h.html" target="_top" xlink:title="Definition of the ErrorManager class responsible for error registration and throwing.">
<polygon fill="#ffffff" stroke="#000000" points="1791,-414.5 1791,-433.5 1935,-433.5 1935,-414.5 1791,-414.5"/>
<text text-anchor="middle" x="1863" y="-421.5" font-family="Helvetica,sans-Serif" font-size="10.00" fill="#000000">LLU/ErrorLog/ErrorManager.h</text>
</a>
</g>
</g>
<!-- Node6&#45;&gt;Node7 -->
<g id="edge7" class="edge">
<title>Node6&#45;&gt;Node7</title>
<path fill="none" stroke="#191970" d="M1245.0922,-480.7847C1352.6801,-472.3489 1582.9457,-453.7045 1777,-434 1778.1216,-433.8861 1779.2512,-433.7703 1780.3876,-433.6528"/>
<polygon fill="#191970" stroke="#191970" points="1781.1796,-437.0886 1790.7555,-432.5551 1780.4426,-430.1275 1781.1796,-437.0886"/>
</g>
<!-- Node6&#45;&gt;Node21 -->
<g id="edge91" class="edge">
<title>Node6&#45;&gt;Node21</title>
<path fill="none" stroke="#191970" d="M1245.0346,-477.959C1364.5483,-462.3671 1624.4512,-424.1511 1701,-378 1749.3927,-348.8241 1735.0235,-311.4053 1782,-280 1827.2295,-249.7627 1858.701,-280.5512 1899,-244 1914.8193,-229.6519 1934.5841,-171.7141 1944.2027,-141.1286"/>
<polygon fill="#191970" stroke="#191970" points="1947.5488,-142.1547 1947.1586,-131.5671 1940.8611,-140.0872 1947.5488,-142.1547"/>
</g>
<!-- Node6&#45;&gt;Node25 -->
<g id="edge85" class="edge">
<title>Node6&#45;&gt;Node25</title>
<path fill="none" stroke="#191970" d="M1122.8857,-481.3268C1012.787,-473.4021 785.4695,-455.0714 709,-434 635.4716,-413.739 553,-438.7689 553,-362.5 553,-362.5 553,-362.5 553,-178 553,-145.2688 560.9852,-107.9052 566.6022,-85.6716"/>
<polygon fill="#191970" stroke="#191970" points="570.0415,-86.3545 569.1965,-75.7934 563.2711,-84.5763 570.0415,-86.3545"/>
</g>
<!-- Node42 -->
<g id="node42" class="node">
<title>Node42</title>
<g id="a_node42"><a xlink:href="MArgument_8h.html" target="_top" xlink:title="Template class and utilities to work with MArgument in type&#45;safe manner.">
<polygon fill="#ffffff" stroke="#000000" points="771,-168.5 771,-187.5 867,-187.5 867,-168.5 771,-168.5"/>
<text text-anchor="middle" x="819" y="-175.5" font-family="Helvetica,sans-Serif" font-size="10.00" fill="#000000">LLU/MArgument.h</text>
</a>
</g>
</g>
<!-- Node6&#45;&gt;Node42 -->
<g id="edge86" class="edge">
<title>Node6&#45;&gt;Node42</title>
<path fill="none" stroke="#191970" d="M1122.6991,-482.4884C995.9191,-474.8427 711.8016,-449.8988 653,-378 595.7842,-308.0402 729.703,-225.1298 790.7042,-192.3549"/>
<polygon fill="#191970" stroke="#191970" points="792.621,-195.3007 799.828,-187.5348 789.3511,-189.1113 792.621,-195.3007"/>
</g>
<!-- Node6&#45;&gt;Node43 -->
<g id="edge92" class="edge">
<title>Node6&#45;&gt;Node43</title>
<path fill="none" stroke="#191970" d="M1122.6326,-480.6434C1007.9739,-471.5598 753.4219,-451.348 539,-434 525.5343,-432.9105 511.2333,-431.7455 497.3422,-430.6096"/>
<polygon fill="#191970" stroke="#191970" points="497.5697,-427.1167 487.3175,-429.7892 496.9987,-434.0933 497.5697,-427.1167"/>
</g>
<!-- Node7&#45;&gt;Node3 -->
<g id="edge9" class="edge">
<title>Node7&#45;&gt;Node3</title>
<path fill="none" stroke="#191970" d="M1920.872,-414.4581C1994.8333,-402.2634 2121.4169,-381.3924 2189.4661,-370.1725"/>
<polygon fill="#191970" stroke="#191970" points="2190.1708,-373.6036 2199.4681,-368.5234 2189.0319,-366.6969 2190.1708,-373.6036"/>
</g>
<!-- Node8 -->
<g id="node8" class="node">
<title>Node8</title>
<g id="a_node8"><a xlink:title=" ">
<polygon fill="#ffffff" stroke="#bfbfbf" points="999,-168.5 999,-187.5 1055,-187.5 1055,-168.5 999,-168.5"/>
<text text-anchor="middle" x="1027" y="-175.5" font-family="Helvetica,sans-Serif" font-size="10.00" fill="#000000">algorithm</text>
</a>
</g>
</g>
<!-- Node7&#45;&gt;Node8 -->
<g id="edge8" class="edge">
<title>Node7&#45;&gt;Node8</title>
<path fill="none" stroke="#191970" d="M1790.8538,-417.0808C1653.857,-401.712 1349.2709,-356.7487 1120,-244 1092.3649,-230.4099 1063.9781,-208.9685 1045.9556,-194.234"/>
<polygon fill="#191970" stroke="#191970" points="1047.9144,-191.3107 1037.9894,-187.6033 1043.4362,-196.6908 1047.9144,-191.3107"/>
</g>
<!-- Node9 -->
<g id="node9" class="node">
<title>Node9</title>
<g id="a_node9"><a xlink:title=" ">
<polygon fill="#ffffff" stroke="#bfbfbf" points="1024.5,-56.5 1024.5,-75.5 1065.5,-75.5 1065.5,-56.5 1024.5,-56.5"/>
<text text-anchor="middle" x="1045" y="-63.5" font-family="Helvetica,sans-Serif" font-size="10.00" fill="#000000">string</text>
</a>
</g>
</g>
<!-- Node7&#45;&gt;Node9 -->
<g id="edge10" class="edge">
<title>Node7&#45;&gt;Node9</title>
<path fill="none" stroke="#191970" d="M1790.667,-421.2601C1700.8257,-416.8021 1543.2458,-405.5146 1411,-378 1181.5088,-330.2529 1047.4111,-384.1035 919,-188 902.3098,-162.5116 938.1273,-121.533 948,-112 966.666,-93.9763 993.7172,-81.9518 1014.513,-74.7319"/>
<polygon fill="#191970" stroke="#191970" points="1015.7447,-78.0114 1024.1552,-71.5683 1013.5624,-71.3603 1015.7447,-78.0114"/>
</g>
<!-- Node10 -->
<g id="node10" class="node">
<title>Node10</title>
<g id="a_node10"><a xlink:title=" ">
<polygon fill="#ffffff" stroke="#bfbfbf" points="1793.5,-353 1793.5,-372 1876.5,-372 1876.5,-353 1793.5,-353"/>
<text text-anchor="middle" x="1835" y="-360" font-family="Helvetica,sans-Serif" font-size="10.00" fill="#000000">unordered_map</text>
</a>
</g>
</g>
<!-- Node7&#45;&gt;Node10 -->
<g id="edge11" class="edge">
<title>Node7&#45;&gt;Node10</title>
<path fill="none" stroke="#191970" d="M1858.625,-414.3906C1854.6212,-405.5965 1848.5817,-392.3312 1843.6115,-381.4145"/>
<polygon fill="#191970" stroke="#191970" points="1846.7657,-379.8957 1839.4367,-372.2449 1840.3949,-382.7963 1846.7657,-379.8957"/>
</g>
<!-- Node11 -->
<g id="node11" class="node">
<title>Node11</title>
<g id="a_node11"><a xlink:title=" ">
<polygon fill="#ffffff" stroke="#bfbfbf" points="2189,-56.5 2189,-75.5 2229,-75.5 2229,-56.5 2189,-56.5"/>
<text text-anchor="middle" x="2209" y="-63.5" font-family="Helvetica,sans-Serif" font-size="10.00" fill="#000000">utility</text>
</a>
</g>
</g>
<!-- Node7&#45;&gt;Node11 -->
<g id="edge12" class="edge">
<title>Node7&#45;&gt;Node11</title>
<path fill="none" stroke="#191970" d="M1898.7728,-414.472C1978.1468,-391.1979 2168.1927,-323.2112 2247,-188 2264.0149,-158.8072 2260.8358,-143.6487 2249,-112 2244.8851,-100.9969 2236.8185,-90.8874 2229.0006,-82.9652"/>
<polygon fill="#191970" stroke="#191970" points="2231.0985,-80.1329 2221.4212,-75.82 2226.2968,-85.2264 2231.0985,-80.1329"/>
</g>
<!-- Node12 -->
<g id="node12" class="node">
<title>Node12</title>
<g id="a_node12"><a xlink:title=" ">
<polygon fill="#ffffff" stroke="#bfbfbf" points="1985,-224.5 1985,-243.5 2029,-243.5 2029,-224.5 1985,-224.5"/>
<text text-anchor="middle" x="2007" y="-231.5" font-family="Helvetica,sans-Serif" font-size="10.00" fill="#000000">vector</text>
</a>
</g>
</g>
<!-- Node7&#45;&gt;Node12 -->
<g id="edge13" class="edge">
<title>Node7&#45;&gt;Node12</title>
<path fill="none" stroke="#191970" d="M1869.5246,-414.3457C1885.4958,-390.8547 1928.095,-329.0448 1967,-280 1974.7754,-270.1982 1983.8996,-259.6396 1991.4688,-251.1134"/>
<polygon fill="#191970" stroke="#191970" points="1994.0874,-253.4357 1998.1546,-243.6526 1988.8743,-248.7641 1994.0874,-253.4357"/>
</g>
<!-- Node13 -->
<g id="node13" class="node">
<title>Node13</title>
<g id="a_node13"><a xlink:href="LibraryLinkError_8h.html" target="_top" xlink:title="Error class and error codes used by LibraryLink Utilities classes.">
<polygon fill="#ffffff" stroke="#000000" points="1567.5,-347.5 1567.5,-377.5 1692.5,-377.5 1692.5,-347.5 1567.5,-347.5"/>
<text text-anchor="start" x="1575.5" y="-365.5" font-family="Helvetica,sans-Serif" font-size="10.00" fill="#000000">LLU/ErrorLog/LibraryLink</text>
<text text-anchor="middle" x="1630" y="-354.5" font-family="Helvetica,sans-Serif" font-size="10.00" fill="#000000">Error.h</text>
</a>
</g>
</g>
<!-- Node7&#45;&gt;Node13 -->
<g id="edge14" class="edge">
<title>Node7&#45;&gt;Node13</title>
<path fill="none" stroke="#191970" d="M1826.8494,-414.4581C1792.2224,-405.3183 1739.1305,-391.3048 1696.8069,-380.1336"/>
<polygon fill="#191970" stroke="#191970" points="1697.6885,-376.7465 1687.1264,-377.5784 1695.902,-383.5147 1697.6885,-376.7465"/>
</g>
<!-- Node7&#45;&gt;Node25 -->
<g id="edge84" class="edge">
<title>Node7&#45;&gt;Node25</title>
<path fill="none" stroke="#191970" d="M1790.7132,-421.8204C1638.946,-416.8099 1291.6074,-402.9441 1176,-378 1092.965,-360.0839 1076.3435,-341.3383 997,-311 856.6178,-257.3225 805.6455,-273.4414 682,-188 659.8985,-172.7274 610.7501,-113.8571 586.3355,-83.8322"/>
<polygon fill="#191970" stroke="#191970" points="588.89,-81.425 579.8783,-75.8536 583.4487,-85.8287 588.89,-81.425"/>
</g>
<!-- Node13&#45;&gt;Node9 -->
<g id="edge16" class="edge">
<title>Node13&#45;&gt;Node9</title>
<path fill="none" stroke="#191970" d="M1567.2249,-354.2234C1395.8983,-331.217 933,-266.0881 933,-234 933,-234 933,-234 933,-178 933,-131.4479 981.9774,-97.4868 1015.1562,-79.8214"/>
<polygon fill="#191970" stroke="#191970" points="1017.1444,-82.7361 1024.4575,-75.07 1013.9599,-76.5023 1017.1444,-82.7361"/>
</g>
<!-- Node14 -->
<g id="node14" class="node">
<title>Node14</title>
<g id="a_node14"><a xlink:title=" ">
<polygon fill="#ffffff" stroke="#bfbfbf" points="1675.5,-286 1675.5,-305 1734.5,-305 1734.5,-286 1675.5,-286"/>
<text text-anchor="middle" x="1705" y="-293" font-family="Helvetica,sans-Serif" font-size="10.00" fill="#000000">stdexcept</text>
</a>
</g>
</g>
<!-- Node13&#45;&gt;Node14 -->
<g id="edge15" class="edge">
<title>Node13&#45;&gt;Node14</title>
<path fill="none" stroke="#191970" d="M1647.0187,-347.2967C1658.8175,-336.7564 1674.5184,-322.7303 1686.6057,-311.9323"/>
<polygon fill="#191970" stroke="#191970" points="1689.1783,-314.3273 1694.3041,-305.055 1684.5147,-309.107 1689.1783,-314.3273"/>
</g>
<!-- Node15 -->
<g id="node15" class="node">
<title>Node15</title>
<g id="a_node15"><a xlink:href="WSStream_8hpp.html" target="_top" xlink:title="Header file for WSStream class.">
<polygon fill="#ffffff" stroke="#000000" points="1520.5,-286 1520.5,-305 1657.5,-305 1657.5,-286 1520.5,-286"/>
<text text-anchor="middle" x="1589" y="-293" font-family="Helvetica,sans-Serif" font-size="10.00" fill="#000000">LLU/WSTP/WSStream.hpp</text>
</a>
</g>
</g>
<!-- Node13&#45;&gt;Node15 -->
<g id="edge17" class="edge">
<title>Node13&#45;&gt;Node15</title>
<path fill="none" stroke="#191970" d="M1620.6965,-347.2967C1614.6186,-337.3645 1606.6466,-324.3371 1600.2181,-313.8321"/>
<polygon fill="#191970" stroke="#191970" points="1603.0522,-311.7578 1594.8471,-305.055 1597.0814,-315.4115 1603.0522,-311.7578"/>
</g>
<!-- Node15&#45;&gt;Node4 -->
<g id="edge22" class="edge">
<title>Node15&#45;&gt;Node4</title>
<path fill="none" stroke="#191970" d="M1636.6811,-285.9665C1678.0913,-277.0697 1739.3547,-262.4138 1791,-244 1810.853,-236.9215 1813.6375,-229.442 1834,-224 1923.0021,-200.2139 2171.5069,-240.8011 2247,-188 2281.3488,-163.9759 2295.5435,-113.7591 2300.966,-85.8237"/>
<polygon fill="#191970" stroke="#191970" points="2304.4661,-86.1256 2302.7375,-75.6727 2297.5703,-84.9221 2304.4661,-86.1256"/>
</g>
<!-- Node15&#45;&gt;Node8 -->
<g id="edge18" class="edge">
<title>Node15&#45;&gt;Node8</title>
<path fill="none" stroke="#191970" d="M1520.3738,-292.8348C1437.9956,-288.2817 1296.2808,-276.1179 1179,-244 1133.1808,-231.4522 1083.2289,-207.6313 1053.5398,-192.3012"/>
<polygon fill="#191970" stroke="#191970" points="1055.1266,-189.1813 1044.6434,-187.6473 1051.8819,-195.3839 1055.1266,-189.1813"/>
</g>
<!-- Node15&#45;&gt;Node11 -->
<g id="edge23" class="edge">
<title>Node15&#45;&gt;Node11</title>
<path fill="none" stroke="#191970" d="M1622.5918,-285.9205C1655.9515,-276.1808 1708.4187,-260.2498 1753,-244 1774.7137,-236.0854 1778.5483,-229.4812 1801,-224 1847.2543,-212.7077 2195.7779,-223.053 2228,-188 2253.9842,-159.733 2234.3059,-111.2967 2220.1426,-84.7532"/>
<polygon fill="#191970" stroke="#191970" points="2223.0333,-82.752 2215.0911,-75.7397 2216.9269,-86.1743 2223.0333,-82.752"/>
</g>
<!-- Node15&#45;&gt;Node12 -->
<g id="edge24" class="edge">
<title>Node15&#45;&gt;Node12</title>
<path fill="none" stroke="#191970" d="M1633.2708,-285.9491C1643.9565,-283.8209 1655.3617,-281.6957 1666,-280 1800.7949,-258.5142 1837.0697,-270.3437 1971,-244 1972.253,-243.7535 1973.5263,-243.4858 1974.8092,-243.2016"/>
<polygon fill="#191970" stroke="#191970" points="1975.7846,-246.5661 1984.6587,-240.778 1974.112,-239.7688 1975.7846,-246.5661"/>
</g>
<!-- Node16 -->
<g id="node16" class="node">
<title>Node16</title>
<g id="a_node16"><a xlink:title=" ">
<polygon fill="#ffffff" stroke="#bfbfbf" points="1843.5,-224.5 1843.5,-243.5 1890.5,-243.5 1890.5,-224.5 1843.5,-224.5"/>
<text text-anchor="middle" x="1867" y="-231.5" font-family="Helvetica,sans-Serif" font-size="10.00" fill="#000000">iterator</text>
</a>
</g>
</g>
<!-- Node15&#45;&gt;Node16 -->
<g id="edge19" class="edge">
<title>Node15&#45;&gt;Node16</title>
<path fill="none" stroke="#191970" d="M1636.5042,-285.9773C1685.0272,-276.0931 1762.4723,-259.8827 1829,-244 1830.4515,-243.6535 1831.9324,-243.2932 1833.427,-242.9239"/>
<polygon fill="#191970" stroke="#191970" points="1834.495,-246.2639 1843.3256,-240.4097 1832.7717,-239.4793 1834.495,-246.2639"/>
</g>
<!-- Node17 -->
<g id="node17" class="node">
<title>Node17</title>
<g id="a_node17"><a xlink:title=" ">
<polygon fill="#ffffff" stroke="#bfbfbf" points="1429.5,-224.5 1429.5,-243.5 1464.5,-243.5 1464.5,-224.5 1429.5,-224.5"/>
<text text-anchor="middle" x="1447" y="-231.5" font-family="Helvetica,sans-Serif" font-size="10.00" fill="#000000">map</text>
</a>
</g>
</g>
<!-- Node15&#45;&gt;Node17 -->
<g id="edge20" class="edge">
<title>Node15&#45;&gt;Node17</title>
<path fill="none" stroke="#191970" d="M1566.8125,-285.8906C1541.6639,-274.9988 1500.6791,-257.2484 1473.7743,-245.5959"/>
<polygon fill="#191970" stroke="#191970" points="1475.1218,-242.3654 1464.5544,-241.6028 1472.3397,-248.7888 1475.1218,-242.3654"/>
</g>
<!-- Node18 -->
<g id="node18" class="node">
<title>Node18</title>
<g id="a_node18"><a xlink:title=" ">
<polygon fill="#ffffff" stroke="#bfbfbf" points="1482.5,-224.5 1482.5,-243.5 1523.5,-243.5 1523.5,-224.5 1482.5,-224.5"/>
<text text-anchor="middle" x="1503" y="-231.5" font-family="Helvetica,sans-Serif" font-size="10.00" fill="#000000">stack</text>
</a>
</g>
</g>
<!-- Node15&#45;&gt;Node18 -->
<g id="edge21" class="edge">
<title>Node15&#45;&gt;Node18</title>
<path fill="none" stroke="#191970" d="M1575.5625,-285.8906C1561.9305,-276.1421 1540.6154,-260.8994 1524.6078,-249.4521"/>
<polygon fill="#191970" stroke="#191970" points="1526.5132,-246.5118 1516.3431,-243.5419 1522.4414,-252.2057 1526.5132,-246.5118"/>
</g>
<!-- Node19 -->
<g id="node19" class="node">
<title>Node19</title>
<g id="a_node19"><a xlink:title=" ">
<polygon fill="#ffffff" stroke="#bfbfbf" points="1534,-.5 1534,-19.5 1580,-19.5 1580,-.5 1534,-.5"/>
<text text-anchor="middle" x="1557" y="-7.5" font-family="Helvetica,sans-Serif" font-size="10.00" fill="#000000">wstp.h</text>
</a>
</g>
</g>
<!-- Node15&#45;&gt;Node19 -->
<g id="edge25" class="edge">
<title>Node15&#45;&gt;Node19</title>
<path fill="none" stroke="#191970" d="M1634.5369,-285.978C1644.865,-283.9174 1655.7965,-281.8143 1666,-280 1769.1662,-261.6562 1796.3823,-265.1982 1899,-244 1933.6267,-236.847 1941.2638,-230.6005 1976,-224 2105.7619,-199.3429 2144.9238,-227.3818 2271,-188 2377.3057,-154.7938 2560.7751,-136.6793 2484,-56 2452.612,-23.0158 1753.8349,-12.4155 1590.7936,-10.387"/>
<polygon fill="#191970" stroke="#191970" points="1590.4601,-6.8828 1580.4181,-10.2606 1590.3747,-13.8823 1590.4601,-6.8828"/>
</g>
<!-- Node20 -->
<g id="node20" class="node">
<title>Node20</title>
<g id="a_node20"><a xlink:href="Errors_8h.html" target="_top" xlink:title="Definitions of error names and error codes used across LLU.">
<polygon fill="#ffffff" stroke="#000000" points="1149,-112.5 1149,-131.5 1261,-131.5 1261,-112.5 1149,-112.5"/>
<text text-anchor="middle" x="1205" y="-119.5" font-family="Helvetica,sans-Serif" font-size="10.00" fill="#000000">LLU/ErrorLog/Errors.h</text>
</a>
</g>
</g>
<!-- Node15&#45;&gt;Node20 -->
<g id="edge26" class="edge">
<title>Node15&#45;&gt;Node20</title>
<path fill="none" stroke="#191970" d="M1520.3977,-290.484C1409.0155,-281.9172 1193.8546,-263.4935 1120,-244 1059.1727,-227.945 1024.5829,-240.5524 990,-188 985.1136,-180.5747 984.4107,-174.9117 990,-168 999.4728,-156.286 1079.0227,-141.5264 1138.6187,-131.9321"/>
<polygon fill="#191970" stroke="#191970" points="1139.4186,-135.3489 1148.744,-130.3204 1138.3181,-128.436 1139.4186,-135.3489"/>
</g>
<!-- Node15&#45;&gt;Node21 -->
<g id="edge28" class="edge">
<title>Node15&#45;&gt;Node21</title>
<path fill="none" stroke="#191970" d="M1603.1259,-285.8636C1625.806,-270.7729 1672.1516,-241.486 1715,-224 1772.8913,-200.3752 1793.9947,-213.6889 1851,-188 1880.5602,-174.6789 1911.0888,-152.8818 1930.2857,-138.0101"/>
<polygon fill="#191970" stroke="#191970" points="1932.5783,-140.6596 1938.2644,-131.7199 1928.2445,-135.1625 1932.5783,-140.6596"/>
</g>
<!-- Node33 -->
<g id="node33" class="node">
<title>Node33</title>
<g id="a_node33"><a xlink:href="Get_8h.html" target="_top" xlink:title="Header file with classes related to reading data from WSTP.">
<polygon fill="#ffffff" stroke="#000000" points="1188,-224.5 1188,-243.5 1282,-243.5 1282,-224.5 1188,-224.5"/>
<text text-anchor="middle" x="1235" y="-231.5" font-family="Helvetica,sans-Serif" font-size="10.00" fill="#000000">LLU/WSTP/Get.h</text>
</a>
</g>
</g>
<!-- Node15&#45;&gt;Node33 -->
<g id="edge43" class="edge">
<title>Node15&#45;&gt;Node33</title>
<path fill="none" stroke="#191970" d="M1534.0759,-285.9581C1468.3154,-274.5336 1358.7223,-255.4941 1292.0385,-243.9092"/>
<polygon fill="#191970" stroke="#191970" points="1292.5715,-240.4495 1282.1199,-242.1861 1291.3733,-247.3462 1292.5715,-240.4495"/>
</g>
<!-- Node36 -->
<g id="node36" class="node">
<title>Node36</title>
<g id="a_node36"><a xlink:href="WSTP_2Utilities_8h.html" target="_top" xlink:title="Header file with miscellaneous utilities used throughout the WSTP&#45;related part of LibraryLinkUtilitie...">
<polygon fill="#ffffff" stroke="#000000" points="1547.5,-168.5 1547.5,-187.5 1658.5,-187.5 1658.5,-168.5 1547.5,-168.5"/>
<text text-anchor="middle" x="1603" y="-175.5" font-family="Helvetica,sans-Serif" font-size="10.00" fill="#000000">LLU/WSTP/Utilities.h</text>
</a>
</g>
</g>
<!-- Node15&#45;&gt;Node36 -->
<g id="edge79" class="edge">
<title>Node15&#45;&gt;Node36</title>
<path fill="none" stroke="#191970" d="M1604.6578,-285.87C1617.6655,-276.8637 1635.2494,-262.1021 1643,-244 1650.6266,-226.1876 1636.8715,-207.4378 1623.4584,-194.4941"/>
<polygon fill="#191970" stroke="#191970" points="1625.5465,-191.6654 1615.7647,-187.595 1620.8731,-196.8769 1625.5465,-191.6654"/>
</g>
<!-- Node39 -->
<g id="node39" class="node">
<title>Node39</title>
<g id="a_node39"><a xlink:href="Put_8h.html" target="_top" xlink:title="Header file with classes related to sending data through WSTP.">
<polygon fill="#ffffff" stroke="#000000" points="1541.5,-224.5 1541.5,-243.5 1634.5,-243.5 1634.5,-224.5 1541.5,-224.5"/>
<text text-anchor="middle" x="1588" y="-231.5" font-family="Helvetica,sans-Serif" font-size="10.00" fill="#000000">LLU/WSTP/Put.h</text>
</a>
</g>
</g>
<!-- Node15&#45;&gt;Node39 -->
<g id="edge64" class="edge">
<title>Node15&#45;&gt;Node39</title>
<path fill="none" stroke="#191970" d="M1588.8438,-285.8906C1588.7051,-277.3657 1588.4982,-264.6392 1588.324,-253.9235"/>
<polygon fill="#191970" stroke="#191970" points="1591.8207,-253.6866 1588.1585,-243.7449 1584.8216,-253.8005 1591.8207,-253.6866"/>
</g>
<!-- Node40 -->
<g id="node40" class="node">
<title>Node40</title>
<g id="a_node40"><a xlink:href="Strings_8h.html" target="_top" xlink:title="Definitions of multiple structures and type aliases related to string handling in WSTP.">
<polygon fill="#ffffff" stroke="#000000" points="1302.5,-224.5 1302.5,-243.5 1411.5,-243.5 1411.5,-224.5 1302.5,-224.5"/>
<text text-anchor="middle" x="1357" y="-231.5" font-family="Helvetica,sans-Serif" font-size="10.00" fill="#000000">LLU/WSTP/Strings.h</text>
</a>
</g>
</g>
<!-- Node15&#45;&gt;Node40 -->
<g id="edge70" class="edge">
<title>Node15&#45;&gt;Node40</title>
<path fill="none" stroke="#191970" d="M1553.0046,-285.9581C1512.6223,-275.2533 1447.0189,-257.8628 1402.9612,-246.1837"/>
<polygon fill="#191970" stroke="#191970" points="1403.6429,-242.7436 1393.0799,-243.5643 1401.8492,-249.5099 1403.6429,-242.7436"/>
</g>
<!-- Node41 -->
<g id="node41" class="node">
<title>Node41</title>
<g id="a_node41"><a xlink:href="UtilityTypeTraits_8hpp.html" target="_top" xlink:title="Type traits used by WSStream to identify types supported by WSTP.">
<polygon fill="#ffffff" stroke="#000000" points="2057.5,-168.5 2057.5,-187.5 2218.5,-187.5 2218.5,-168.5 2057.5,-168.5"/>
<text text-anchor="middle" x="2138" y="-175.5" font-family="Helvetica,sans-Serif" font-size="10.00" fill="#000000">LLU/WSTP/UtilityTypeTraits.hpp</text>
</a>
</g>
</g>
<!-- Node15&#45;&gt;Node41 -->
<g id="edge80" class="edge">
<title>Node15&#45;&gt;Node41</title>
<path fill="none" stroke="#191970" d="M1612.7068,-285.8662C1638.0478,-275.5552 1679.3934,-258.6946 1715,-244 1736.3634,-235.1835 1740.6563,-229.9062 1763,-224 1858.1304,-198.8537 1970.5402,-187.3827 2047.3113,-182.1946"/>
<polygon fill="#191970" stroke="#191970" points="2047.6811,-185.678 2057.4315,-181.5332 2047.2245,-178.6929 2047.6811,-185.678"/>
</g>
<!-- Node20&#45;&gt;Node9 -->
<g id="edge27" class="edge">
<title>Node20&#45;&gt;Node9</title>
<path fill="none" stroke="#191970" d="M1177.495,-112.3733C1149.0418,-102.4146 1104.7264,-86.9043 1075.2882,-76.6009"/>
<polygon fill="#191970" stroke="#191970" points="1076.1411,-73.1913 1065.5463,-73.1912 1073.8286,-79.7983 1076.1411,-73.1913"/>
</g>
<!-- Node21&#45;&gt;Node4 -->
<g id="edge31" class="edge">
<title>Node21&#45;&gt;Node4</title>
<path fill="none" stroke="#191970" d="M1994.8343,-114.9076C2063.8849,-103.9843 2195.2838,-83.198 2262.3555,-72.5878"/>
<polygon fill="#191970" stroke="#191970" points="2263.2181,-75.995 2272.5484,-70.9754 2262.1243,-69.081 2263.2181,-75.995"/>
</g>
<!-- Node21&#45;&gt;Node11 -->
<g id="edge32" class="edge">
<title>Node21&#45;&gt;Node11</title>
<path fill="none" stroke="#191970" d="M1994.2294,-112.4369C2046.9066,-101.0472 2133.4699,-82.3308 2178.9456,-72.4982"/>
<polygon fill="#191970" stroke="#191970" points="2179.7548,-75.9043 2188.7892,-70.3699 2178.2754,-69.0624 2179.7548,-75.9043"/>
</g>
<!-- Node21&#45;&gt;Node22 -->
<g id="edge29" class="edge">
<title>Node21&#45;&gt;Node22</title>
<path fill="none" stroke="#191970" d="M1994.6324,-116.9811C2092.0027,-106.0318 2321.929,-80.1767 2411.4409,-70.1111"/>
<polygon fill="#191970" stroke="#191970" points="2411.8497,-73.5872 2421.3959,-68.9916 2411.0674,-66.6311 2411.8497,-73.5872"/>
</g>
<!-- Node23 -->
<g id="node23" class="node">
<title>Node23</title>
<g id="a_node23"><a xlink:title=" ">
<polygon fill="#ffffff" stroke="#bfbfbf" points="1857,-56.5 1857,-75.5 1903,-75.5 1903,-56.5 1857,-56.5"/>
<text text-anchor="middle" x="1880" y="-63.5" font-family="Helvetica,sans-Serif" font-size="10.00" fill="#000000">cstdint</text>
</a>
</g>
</g>
<!-- Node21&#45;&gt;Node23 -->
<g id="edge30" class="edge">
<title>Node21&#45;&gt;Node23</title>
<path fill="none" stroke="#191970" d="M1937.8069,-112.2455C1927.3679,-103.8943 1912.1345,-91.7076 1899.926,-81.9408"/>
<polygon fill="#191970" stroke="#191970" points="1902.0485,-79.1566 1892.0533,-75.6427 1897.6756,-84.6227 1902.0485,-79.1566"/>
</g>
<!-- Node24 -->
<g id="node24" class="node">
<title>Node24</title>
<g id="a_node24"><a xlink:title=" ">
<polygon fill="#ffffff" stroke="#bfbfbf" points="1626,-56.5 1626,-75.5 1672,-75.5 1672,-56.5 1626,-56.5"/>
<text text-anchor="middle" x="1649" y="-63.5" font-family="Helvetica,sans-Serif" font-size="10.00" fill="#000000">variant</text>
</a>
</g>
</g>
<!-- Node21&#45;&gt;Node24 -->
<g id="edge33" class="edge">
<title>Node21&#45;&gt;Node24</title>
<path fill="none" stroke="#191970" d="M1905.2623,-113.6767C1844.3098,-102.3367 1736.5581,-82.2899 1682.2553,-72.187"/>
<polygon fill="#191970" stroke="#191970" points="1682.6087,-68.6928 1672.1371,-70.3046 1681.3282,-75.5747 1682.6087,-68.6928"/>
</g>
<!-- Node21&#45;&gt;Node25 -->
<g id="edge34" class="edge">
<title>Node21&#45;&gt;Node25</title>
<path fill="none" stroke="#191970" d="M1905.2866,-113.1915C1902.1514,-112.7367 1899.0329,-112.3317 1896,-112 1769.3461,-98.15 870.0316,-73.8136 630.4964,-67.5199"/>
<polygon fill="#191970" stroke="#191970" points="630.344,-64.0148 620.2556,-67.2513 630.1603,-71.0124 630.344,-64.0148"/>
</g>
<!-- Node25&#45;&gt;Node19 -->
<g id="edge37" class="edge">
<title>Node25&#45;&gt;Node19</title>
<path fill="none" stroke="#191970" d="M620.1754,-63.2611C792.7573,-53.4493 1377.5951,-20.1997 1523.707,-11.8928"/>
<polygon fill="#191970" stroke="#191970" points="1524.0536,-15.3788 1533.8388,-11.3168 1523.6562,-8.3901 1524.0536,-15.3788"/>
</g>
<!-- Node26 -->
<g id="node26" class="node">
<title>Node26</title>
<g id="a_node26"><a xlink:title=" ">
<polygon fill="#ffffff" stroke="#bfbfbf" points="798,-.5 798,-19.5 850,-19.5 850,-.5 798,-.5"/>
<text text-anchor="middle" x="824" y="-7.5" font-family="Helvetica,sans-Serif" font-size="10.00" fill="#000000">memory</text>
</a>
</g>
</g>
<!-- Node25&#45;&gt;Node26 -->
<g id="edge35" class="edge">
<title>Node25&#45;&gt;Node26</title>
<path fill="none" stroke="#191970" d="M620.0557,-56.8083C662.0196,-48.5579 724.7611,-35.6846 787.9475,-20.1458"/>
<polygon fill="#191970" stroke="#191970" points="788.816,-23.5366 797.6793,-17.732 787.1308,-16.7424 788.816,-23.5366"/>
</g>
<!-- Node27 -->
<g id="node27" class="node">
<title>Node27</title>
<g id="a_node27"><a xlink:title=" ">
<polygon fill="#ffffff" stroke="#bfbfbf" points="446,-.5 446,-19.5 508,-19.5 508,-.5 446,-.5"/>
<text text-anchor="middle" x="477" y="-7.5" font-family="Helvetica,sans-Serif" font-size="10.00" fill="#000000">dllexport.h</text>
</a>
</g>
</g>
<!-- Node25&#45;&gt;Node27 -->
<g id="edge36" class="edge">
<title>Node25&#45;&gt;Node27</title>
<path fill="none" stroke="#191970" d="M555.4523,-56.2455C540.7401,-47.5731 519.0112,-34.7645 502.1495,-24.825"/>
<polygon fill="#191970" stroke="#191970" points="503.7502,-21.7057 493.3581,-19.6427 500.1954,-27.736 503.7502,-21.7057"/>
</g>
<!-- Node28 -->
<g id="node28" class="node">
<title>Node28</title>
<g id="a_node28"><a xlink:title=" ">
<polygon fill="#ffffff" stroke="#bfbfbf" points="526.5,-.5 526.5,-19.5 617.5,-19.5 617.5,-.5 526.5,-.5"/>
<text text-anchor="middle" x="572" y="-7.5" font-family="Helvetica,sans-Serif" font-size="10.00" fill="#000000">WolframLibrary.h</text>
</a>
</g>
</g>
<!-- Node25&#45;&gt;Node28 -->
<g id="edge38" class="edge">
<title>Node25&#45;&gt;Node28</title>
<path fill="none" stroke="#191970" d="M572,-56.2455C572,-48.9382 572,-38.6944 572,-29.7046"/>
<polygon fill="#191970" stroke="#191970" points="575.5001,-29.6426 572,-19.6427 568.5001,-29.6427 575.5001,-29.6426"/>
</g>
<!-- Node29 -->
<g id="node29" class="node">
<title>Node29</title>
<g id="a_node29"><a xlink:title=" ">
<polygon fill="#ffffff" stroke="#bfbfbf" points="636,-.5 636,-19.5 780,-19.5 780,-.5 636,-.5"/>
<text text-anchor="middle" x="708" y="-7.5" font-family="Helvetica,sans-Serif" font-size="10.00" fill="#000000">WolframIOLibraryFunctions.h</text>
</a>
</g>
</g>
<!-- Node25&#45;&gt;Node29 -->
<g id="edge39" class="edge">
<title>Node25&#45;&gt;Node29</title>
<path fill="none" stroke="#191970" d="M595.3792,-56.3733C617.5045,-47.2629 650.9134,-33.5062 675.6019,-23.3404"/>
<polygon fill="#191970" stroke="#191970" points="677.0117,-26.5451 684.9258,-19.5011 674.3464,-20.0723 677.0117,-26.5451"/>
</g>
<!-- Node30 -->
<g id="node30" class="node">
<title>Node30</title>
<g id="a_node30"><a xlink:title=" ">
<polygon fill="#ffffff" stroke="#bfbfbf" points="0,-.5 0,-19.5 118,-19.5 118,-.5 0,-.5"/>
<text text-anchor="middle" x="59" y="-7.5" font-family="Helvetica,sans-Serif" font-size="10.00" fill="#000000">WolframImageLibrary.h</text>
</a>
</g>
</g>
<!-- Node25&#45;&gt;Node30 -->
<g id="edge40" class="edge">
<title>Node25&#45;&gt;Node30</title>
<path fill="none" stroke="#191970" d="M523.8517,-61.7071C443.9681,-54.435 278.7533,-38.7617 128.64,-20.1631"/>
<polygon fill="#191970" stroke="#191970" points="128.6738,-16.6403 118.3177,-18.8765 127.808,-23.5866 128.6738,-16.6403"/>
</g>
<!-- Node31 -->
<g id="node31" class="node">
<title>Node31</title>
<g id="a_node31"><a xlink:title=" ">
<polygon fill="#ffffff" stroke="#bfbfbf" points="136.5,-.5 136.5,-19.5 287.5,-19.5 287.5,-.5 136.5,-.5"/>
<text text-anchor="middle" x="212" y="-7.5" font-family="Helvetica,sans-Serif" font-size="10.00" fill="#000000">WolframNumericArrayLibrary.h</text>
</a>
</g>
</g>
<!-- Node25&#45;&gt;Node31 -->
<g id="edge41" class="edge">
<title>Node25&#45;&gt;Node31</title>
<path fill="none" stroke="#191970" d="M523.8223,-58.5057C462.0988,-48.9043 354.5969,-32.1817 283.362,-21.1008"/>
<polygon fill="#191970" stroke="#191970" points="283.544,-17.587 273.1248,-19.5083 282.468,-24.5039 283.544,-17.587"/>
</g>
<!-- Node32 -->
<g id="node32" class="node">
<title>Node32</title>
<g id="a_node32"><a xlink:title=" ">
<polygon fill="#ffffff" stroke="#bfbfbf" points="306,-.5 306,-19.5 428,-19.5 428,-.5 306,-.5"/>
<text text-anchor="middle" x="367" y="-7.5" font-family="Helvetica,sans-Serif" font-size="10.00" fill="#000000">WolframSparseLibrary.h</text>
</a>
</g>
</g>
<!-- Node25&#45;&gt;Node32 -->
<g id="edge42" class="edge">
<title>Node25&#45;&gt;Node32</title>
<path fill="none" stroke="#191970" d="M536.7592,-56.3733C502.0806,-46.9001 449.0117,-32.4032 411.4538,-22.1435"/>
<polygon fill="#191970" stroke="#191970" points="412.3498,-18.7601 401.7809,-19.5011 410.5051,-25.5126 412.3498,-18.7601"/>
</g>
<!-- Node33&#45;&gt;Node9 -->
<g id="edge46" class="edge">
<title>Node33&#45;&gt;Node9</title>
<path fill="none" stroke="#191970" d="M1187.6919,-225.919C1161.4178,-219.404 1129.5791,-207.9158 1107,-188 1075.3663,-160.0976 1057.7898,-112.2195 1049.9874,-85.4924"/>
<polygon fill="#191970" stroke="#191970" points="1053.3362,-84.4699 1047.3078,-75.7573 1046.5872,-86.3276 1053.3362,-84.4699"/>
</g>
<!-- Node33&#45;&gt;Node19 -->
<g id="edge47" class="edge">
<title>Node33&#45;&gt;Node19</title>
<path fill="none" stroke="#191970" d="M1217.5269,-224.4893C1181.9593,-203.927 1107.1829,-153.8118 1140,-112 1187.8665,-51.014 1433.3328,-21.787 1523.6204,-12.9768"/>
<polygon fill="#191970" stroke="#191970" points="1524.2154,-16.4361 1533.8381,-12.0029 1523.5511,-9.4677 1524.2154,-16.4361"/>
</g>
<!-- Node33&#45;&gt;Node20 -->
<g id="edge48" class="edge">
<title>Node33&#45;&gt;Node20</title>
<path fill="none" stroke="#191970" d="M1217.9433,-224.377C1205.6911,-216.4014 1190.1292,-203.8248 1183,-188 1175.9057,-172.2525 1183.6016,-153.5041 1191.778,-140.0211"/>
<polygon fill="#191970" stroke="#191970" points="1194.7325,-141.8986 1197.3394,-131.6294 1188.8976,-138.0315 1194.7325,-141.8986"/>
</g>
<!-- Node33&#45;&gt;Node21 -->
<g id="edge49" class="edge">
<title>Node33&#45;&gt;Node21</title>
<path fill="none" stroke="#191970" d="M1282.1192,-225.5727C1285.796,-225.0079 1289.4554,-224.4755 1293,-224 1458.508,-201.7981 1502.8117,-218.4635 1667,-188 1699.6543,-181.9413 1706.7625,-175.9848 1739,-168 1791.8959,-154.8985 1852.7442,-141.8457 1895.4633,-133.0097"/>
<polygon fill="#191970" stroke="#191970" points="1896.2864,-136.4137 1905.3746,-130.968 1894.874,-129.5577 1896.2864,-136.4137"/>
</g>
<!-- Node33&#45;&gt;Node26 -->
<g id="edge45" class="edge">
<title>Node33&#45;&gt;Node26</title>
<path fill="none" stroke="#191970" d="M1187.7026,-233.2514C1067.8629,-230.8668 759.5966,-221.5043 729,-188 689.4388,-144.6792 697.8406,-105.7078 729,-56 735.8861,-45.0147 764.1852,-32.1192 788.1213,-22.7815"/>
<polygon fill="#191970" stroke="#191970" points="789.5964,-25.9652 797.699,-19.1389 787.108,-19.4224 789.5964,-25.9652"/>
</g>
<!-- Node34 -->
<g id="node34" class="node">
<title>Node34</title>
<g id="a_node34"><a xlink:title=" ">
<polygon fill="#ffffff" stroke="#bfbfbf" points="1299.5,-112.5 1299.5,-131.5 1358.5,-131.5 1358.5,-112.5 1299.5,-112.5"/>
<text text-anchor="middle" x="1329" y="-119.5" font-family="Helvetica,sans-Serif" font-size="10.00" fill="#000000">functional</text>
</a>
</g>
</g>
<!-- Node33&#45;&gt;Node34 -->
<g id="edge44" class="edge">
<title>Node33&#45;&gt;Node34</title>
<path fill="none" stroke="#191970" d="M1243.0144,-224.4509C1258.8312,-205.6054 1294.2663,-163.3849 1314.3613,-139.4419"/>
<polygon fill="#191970" stroke="#191970" points="1317.2581,-141.4347 1321.0059,-131.5249 1311.8962,-136.9346 1317.2581,-141.4347"/>
</g>
<!-- Node35 -->
<g id="node35" class="node">
<title>Node35</title>
<g id="a_node35"><a xlink:href="Release_8h.html" target="_top" xlink:title="Header file with classes responsible for releasing memory allocated by WSTP when receiving data.">
<polygon fill="#ffffff" stroke="#000000" points="1377,-168.5 1377,-187.5 1491,-187.5 1491,-168.5 1377,-168.5"/>
<text text-anchor="middle" x="1434" y="-175.5" font-family="Helvetica,sans-Serif" font-size="10.00" fill="#000000">LLU/WSTP/Release.h</text>
</a>
</g>
</g>
<!-- Node33&#45;&gt;Node35 -->
<g id="edge50" class="edge">
<title>Node33&#45;&gt;Node35</title>
<path fill="none" stroke="#191970" d="M1269.2093,-224.3733C1302.7297,-214.9404 1353.9505,-200.5265 1390.381,-190.2747"/>
<polygon fill="#191970" stroke="#191970" points="1391.5591,-193.5792 1400.2371,-187.5011 1389.6628,-186.8409 1391.5591,-193.5792"/>
</g>
<!-- Node33&#45;&gt;Node36 -->
<g id="edge54" class="edge">
<title>Node33&#45;&gt;Node36</title>
<path fill="none" stroke="#191970" d="M1282.1491,-225.7758C1285.8191,-225.1647 1289.4688,-224.5663 1293,-224 1377.0944,-210.5131 1474.2535,-196.3208 1537.0577,-187.3283"/>
<polygon fill="#191970" stroke="#191970" points="1537.815,-190.7557 1547.2191,-185.8759 1536.8244,-183.8262 1537.815,-190.7557"/>
</g>
<!-- Node35&#45;&gt;Node19 -->
<g id="edge52" class="edge">
<title>Node35&#45;&gt;Node19</title>
<path fill="none" stroke="#191970" d="M1438.2447,-168.4812C1448.0688,-147.0443 1473.9228,-93.9003 1505,-56 1514.0755,-44.932 1525.9203,-34.2342 1536.0125,-25.9447"/>
<polygon fill="#191970" stroke="#191970" points="1538.3419,-28.5638 1543.9784,-19.5927 1533.9777,-23.0907 1538.3419,-28.5638"/>
</g>
<!-- Node35&#45;&gt;Node21 -->
<g id="edge53" class="edge">
<title>Node35&#45;&gt;Node21</title>
<path fill="none" stroke="#191970" d="M1491.3569,-172.4186C1601.8233,-161.6525 1837.6339,-138.5848 1895.0465,-131.8693"/>
<polygon fill="#191970" stroke="#191970" points="1895.7736,-135.3055 1905.2584,-130.5843 1894.8996,-128.3603 1895.7736,-135.3055"/>
</g>
<!-- Node35&#45;&gt;Node34 -->
<g id="edge51" class="edge">
<title>Node35&#45;&gt;Node34</title>
<path fill="none" stroke="#191970" d="M1415.7104,-168.2455C1399.2238,-159.4527 1374.7648,-146.4079 1356.0235,-136.4125"/>
<polygon fill="#191970" stroke="#191970" points="1357.5506,-133.2604 1347.08,-131.6427 1354.2565,-139.4368 1357.5506,-133.2604"/>
</g>
<!-- Node36&#45;&gt;Node9 -->
<g id="edge56" class="edge">
<title>Node36&#45;&gt;Node9</title>
<path fill="none" stroke="#191970" d="M1573.5044,-168.4057C1529.129,-154.2793 1442.3566,-127.8488 1367,-112 1261.0925,-89.7259 1133.293,-75.0214 1075.7345,-69.0363"/>
<polygon fill="#191970" stroke="#191970" points="1075.8103,-65.5258 1065.5056,-67.988 1075.0967,-72.4893 1075.8103,-65.5258"/>
</g>
<!-- Node36&#45;&gt;Node19 -->
<g id="edge57" class="edge">
<title>Node36&#45;&gt;Node19</title>
<path fill="none" stroke="#191970" d="M1600.395,-168.4862C1593.092,-141.8144 1572.3092,-65.9117 1562.3927,-29.695"/>
<polygon fill="#191970" stroke="#191970" points="1565.7077,-28.5485 1559.691,-19.8279 1558.9562,-30.3972 1565.7077,-28.5485"/>
</g>
<!-- Node36&#45;&gt;Node20 -->
<g id="edge58" class="edge">
<title>Node36&#45;&gt;Node20</title>
<path fill="none" stroke="#191970" d="M1547.2407,-170.1545C1474.7616,-159.9564 1348.3531,-142.1703 1271.1196,-131.3033"/>
<polygon fill="#191970" stroke="#191970" points="1271.4136,-127.8102 1261.0234,-129.8827 1270.4382,-134.742 1271.4136,-127.8102"/>
</g>
<!-- Node37 -->
<g id="node37" class="node">
<title>Node37</title>
<g id="a_node37"><a xlink:title=" ">
<polygon fill="#ffffff" stroke="#bfbfbf" points="1623,-112.5 1623,-131.5 1669,-131.5 1669,-112.5 1623,-112.5"/>
<text text-anchor="middle" x="1646" y="-119.5" font-family="Helvetica,sans-Serif" font-size="10.00" fill="#000000">cstring</text>
</a>
</g>
</g>
<!-- Node36&#45;&gt;Node37 -->
<g id="edge55" class="edge">
<title>Node36&#45;&gt;Node37</title>
<path fill="none" stroke="#191970" d="M1610.49,-168.2455C1616.5326,-160.3761 1625.1903,-149.101 1632.4441,-139.6542"/>
<polygon fill="#191970" stroke="#191970" points="1635.2815,-141.7058 1638.5958,-131.6427 1629.7295,-137.4426 1635.2815,-141.7058"/>
</g>
<!-- Node38 -->
<g id="node38" class="node">
<title>Node38</title>
<g id="a_node38"><a xlink:href="EncodingTraits_8hpp.html" target="_top" xlink:title="Defines possible encodings together with their properties and related types.">
<polygon fill="#ffffff" stroke="#000000" points="1733,-112.5 1733,-131.5 1887,-131.5 1887,-112.5 1733,-112.5"/>
<text text-anchor="middle" x="1810" y="-119.5" font-family="Helvetica,sans-Serif" font-size="10.00" fill="#000000">LLU/WSTP/EncodingTraits.hpp</text>
</a>
</g>
</g>
<!-- Node36&#45;&gt;Node38 -->
<g id="edge59" class="edge">
<title>Node36&#45;&gt;Node38</title>
<path fill="none" stroke="#191970" d="M1638.5846,-168.3733C1673.6016,-158.9001 1727.1881,-144.4032 1765.1125,-134.1435"/>
<polygon fill="#191970" stroke="#191970" points="1766.1408,-137.4912 1774.8798,-131.5011 1764.3127,-130.7341 1766.1408,-137.4912"/>
</g>
<!-- Node38&#45;&gt;Node4 -->
<g id="edge62" class="edge">
<title>Node38&#45;&gt;Node4</title>
<path fill="none" stroke="#191970" d="M1887.3506,-112.9655C1890.2705,-112.6373 1893.1614,-112.3144 1896,-112 2047.9107,-95.1732 2086.4032,-95.4531 2238,-76 2246.0015,-74.9732 2254.5314,-73.7655 2262.7107,-72.5511"/>
<polygon fill="#191970" stroke="#191970" points="2263.4534,-75.9787 2272.8175,-71.0224 2262.4065,-69.0574 2263.4534,-75.9787"/>
</g>
<!-- Node38&#45;&gt;Node9 -->
<g id="edge61" class="edge">
<title>Node38&#45;&gt;Node9</title>
<path fill="none" stroke="#191970" d="M1732.8752,-116.1172C1714.8679,-114.7548 1695.7625,-113.3182 1678,-112 1446.5204,-94.8211 1167.3722,-74.7662 1075.7521,-68.2011"/>
<polygon fill="#191970" stroke="#191970" points="1075.9904,-64.7093 1065.7658,-67.4858 1075.4901,-71.6914 1075.9904,-64.7093"/>
</g>
<!-- Node38&#45;&gt;Node11 -->
<g id="edge63" class="edge">
<title>Node38&#45;&gt;Node11</title>
<path fill="none" stroke="#191970" d="M1878.1372,-112.4369C1965.8758,-100.1227 2114.6364,-79.244 2178.4473,-70.2881"/>
<polygon fill="#191970" stroke="#191970" points="2179.2243,-73.7134 2188.6407,-68.8574 2178.2513,-66.7814 2179.2243,-73.7134"/>
</g>
<!-- Node38&#45;&gt;Node23 -->
<g id="edge60" class="edge">
<title>Node38&#45;&gt;Node23</title>
<path fill="none" stroke="#191970" d="M1822.1931,-112.2455C1832.6321,-103.8943 1847.8655,-91.7076 1860.074,-81.9408"/>
<polygon fill="#191970" stroke="#191970" points="1862.3244,-84.6227 1867.9467,-75.6427 1857.9515,-79.1566 1862.3244,-84.6227"/>
</g>
<!-- Node39&#45;&gt;Node19 -->
<g id="edge66" class="edge">
<title>Node39&#45;&gt;Node19</title>
<path fill="none" stroke="#191970" d="M1616.3204,-224.4198C1633.5983,-217.1157 1654.665,-205.3244 1667,-188 1701.2178,-139.9413 1714.6894,-104.4305 1681,-56 1670.3055,-40.626 1622.8921,-26.1673 1589.8973,-17.6998"/>
<polygon fill="#191970" stroke="#191970" points="1590.7273,-14.2997 1580.177,-15.27 1589.0296,-21.0907 1590.7273,-14.2997"/>
</g>
<!-- Node39&#45;&gt;Node20 -->
<g id="edge67" class="edge">
<title>Node39&#45;&gt;Node20</title>
<path fill="none" stroke="#191970" d="M1541.3482,-225.4417C1473.6664,-212.9808 1355.2571,-190.9941 1346,-188 1323.7863,-180.8153 1267.342,-153.271 1232.9833,-136.1178"/>
<polygon fill="#191970" stroke="#191970" points="1234.4335,-132.9297 1223.9249,-131.5808 1231.2987,-139.1886 1234.4335,-132.9297"/>
</g>
<!-- Node39&#45;&gt;Node21 -->
<g id="edge68" class="edge">
<title>Node39&#45;&gt;Node21</title>
<path fill="none" stroke="#191970" d="M1634.5599,-228.109C1681.0961,-221.4027 1754.2692,-208.6206 1815,-188 1836.2473,-180.7857 1889.8953,-153.4665 1922.8071,-136.3188"/>
<polygon fill="#191970" stroke="#191970" points="1924.6556,-139.3019 1931.8962,-131.5672 1921.4126,-133.0984 1924.6556,-139.3019"/>
</g>
<!-- Node39&#45;&gt;Node34 -->
<g id="edge65" class="edge">
<title>Node39&#45;&gt;Node34</title>
<path fill="none" stroke="#191970" d="M1541.4036,-225.2492C1478.9533,-213.377 1375.0679,-193.063 1368,-188 1352.0003,-176.5389 1341.4717,-156.2967 1335.4322,-141.2421"/>
<polygon fill="#191970" stroke="#191970" points="1338.7011,-139.9905 1331.956,-131.8201 1332.1338,-142.4135 1338.7011,-139.9905"/>
</g>
<!-- Node39&#45;&gt;Node36 -->
<g id="edge69" class="edge">
<title>Node39&#45;&gt;Node36</title>
<path fill="none" stroke="#191970" d="M1590.6128,-224.2455C1592.5916,-216.8579 1595.3744,-206.4689 1597.8012,-197.4087"/>
<polygon fill="#191970" stroke="#191970" points="1601.2105,-198.2078 1600.4171,-187.6427 1594.4489,-196.3966 1601.2105,-198.2078"/>
</g>
<!-- Node40&#45;&gt;Node8 -->
<g id="edge71" class="edge">
<title>Node40&#45;&gt;Node8</title>
<path fill="none" stroke="#191970" d="M1302.1368,-224.6899C1235.0538,-213.3061 1123.2713,-194.3369 1064.9836,-184.4457"/>
<polygon fill="#191970" stroke="#191970" points="1065.5291,-180.9883 1055.0844,-182.7658 1064.3579,-187.8896 1065.5291,-180.9883"/>
</g>
<!-- Node40&#45;&gt;Node19 -->
<g id="edge74" class="edge">
<title>Node40&#45;&gt;Node19</title>
<path fill="none" stroke="#191970" d="M1401.3318,-224.4225C1437.8925,-215.7009 1485.9481,-202.0704 1500,-188 1543.8634,-144.0788 1554.0007,-66.4051 1556.3231,-29.9473"/>
<polygon fill="#191970" stroke="#191970" points="1559.8339,-29.8153 1556.8353,-19.6537 1552.8425,-29.4673 1559.8339,-29.8153"/>
</g>
<!-- Node40&#45;&gt;Node20 -->
<g id="edge75" class="edge">
<title>Node40&#45;&gt;Node20</title>
<path fill="none" stroke="#191970" d="M1344.0406,-224.4509C1317.7914,-205.1094 1258.1274,-161.1465 1226.1584,-137.5904"/>
<polygon fill="#191970" stroke="#191970" points="1228.0534,-134.6392 1217.9266,-131.5249 1223.901,-140.2746 1228.0534,-134.6392"/>
</g>
<!-- Node40&#45;&gt;Node21 -->
<g id="edge76" class="edge">
<title>Node40&#45;&gt;Node21</title>
<path fill="none" stroke="#191970" d="M1411.6135,-225.177C1414.4481,-224.7673 1417.2565,-224.3723 1420,-224 1561.3815,-204.8115 1599.3907,-217.4308 1739,-188 1772.361,-180.9672 1861.0353,-151.9103 1912.1849,-134.7844"/>
<polygon fill="#191970" stroke="#191970" points="1913.5202,-138.0282 1921.887,-131.5283 1911.293,-131.3919 1913.5202,-138.0282"/>
</g>
<!-- Node40&#45;&gt;Node26 -->
<g id="edge73" class="edge">
<title>Node40&#45;&gt;Node26</title>
<path fill="none" stroke="#191970" d="M1302.3032,-225.3577C1298.4825,-224.8633 1294.6864,-224.404 1291,-224 1232.4369,-217.5818 802.2192,-231.0493 762,-188 718.3614,-141.2907 777.4182,-62.2255 807.8558,-27.3785"/>
<polygon fill="#191970" stroke="#191970" points="810.4969,-29.6757 814.5568,-19.8896 805.2803,-25.0079 810.4969,-29.6757"/>
</g>
<!-- Node40&#45;&gt;Node34 -->
<g id="edge72" class="edge">
<title>Node40&#45;&gt;Node34</title>
<path fill="none" stroke="#191970" d="M1351.0272,-224.1717C1345.842,-215.1211 1338.615,-201.1448 1335,-188 1330.8469,-172.8987 1329.414,-155.1961 1328.9828,-141.9284"/>
<polygon fill="#191970" stroke="#191970" points="1332.477,-141.5305 1328.8184,-131.5874 1325.4779,-141.6418 1332.477,-141.5305"/>
</g>
<!-- Node40&#45;&gt;Node36 -->
<g id="edge78" class="edge">
<title>Node40&#45;&gt;Node36</title>
<path fill="none" stroke="#191970" d="M1399.0094,-224.4369C1441.1104,-214.8529 1506.0005,-200.0812 1551.2521,-189.78"/>
<polygon fill="#191970" stroke="#191970" points="1552.1902,-193.1561 1561.1639,-187.5237 1550.6364,-186.3307 1552.1902,-193.1561"/>
</g>
<!-- Node40&#45;&gt;Node38 -->
<g id="edge77" class="edge">
<title>Node40&#45;&gt;Node38</title>
<path fill="none" stroke="#191970" d="M1411.6291,-225.2853C1414.4596,-224.8473 1417.2629,-224.4167 1420,-224 1529.6741,-207.304 1560.6494,-219.5707 1667,-188 1709.9096,-175.2621 1756.4143,-151.8275 1784.3707,-136.5847"/>
<polygon fill="#191970" stroke="#191970" points="1786.3911,-139.4671 1793.4494,-131.5658 1783.0044,-133.3409 1786.3911,-139.4671"/>
</g>
<!-- Node41&#45;&gt;Node4 -->
<g id="edge81" class="edge">
<title>Node41&#45;&gt;Node4</title>
<path fill="none" stroke="#191970" d="M2152.1531,-168.4509C2180.9425,-149.0268 2246.5368,-104.7703 2281.3388,-81.2895"/>
<polygon fill="#191970" stroke="#191970" points="2283.5507,-84.0193 2289.8828,-75.5249 2279.6355,-78.2166 2283.5507,-84.0193"/>
</g>
<!-- Node41&#45;&gt;Node19 -->
<g id="edge82" class="edge">
<title>Node41&#45;&gt;Node19</title>
<path fill="none" stroke="#191970" d="M2124.5296,-168.3992C2090.6813,-144.8116 1998.5701,-83.9149 1912,-56 1852.4018,-36.7823 1666.6502,-19.3157 1590.2908,-12.752"/>
<polygon fill="#191970" stroke="#191970" points="1590.5275,-9.2596 1580.2667,-11.8992 1589.934,-16.2344 1590.5275,-9.2596"/>
</g>
<!-- Node41&#45;&gt;Node21 -->
<g id="edge83" class="edge">
<title>Node41&#45;&gt;Node21</title>
<path fill="none" stroke="#191970" d="M2105.6816,-168.3733C2074.1494,-158.9807 2026.0379,-144.6496 1991.6499,-134.4064"/>
<polygon fill="#191970" stroke="#191970" points="1992.4797,-131.0016 1981.8966,-131.5011 1990.4813,-137.7103 1992.4797,-131.0016"/>
</g>
<!-- Node42&#45;&gt;Node9 -->
<g id="edge87" class="edge">
<title>Node42&#45;&gt;Node9</title>
<path fill="none" stroke="#191970" d="M825.4135,-168.3625C835.5185,-153.9347 856.5334,-126.8344 881,-112 923.1648,-86.4349 979.9818,-74.6575 1014.4735,-69.5528"/>
<polygon fill="#191970" stroke="#191970" points="1014.995,-73.0141 1024.4201,-68.1749 1014.0344,-66.0803 1014.995,-73.0141"/>
</g>
<!-- Node42&#45;&gt;Node21 -->
<g id="edge90" class="edge">
<title>Node42&#45;&gt;Node21</title>
<path fill="none" stroke="#191970" d="M867.2655,-174.9361C901.5111,-172.8212 948.5651,-170.0346 990,-168 1389.1584,-148.4001 1493.7832,-176.3337 1895.1435,-131.9217"/>
<polygon fill="#191970" stroke="#191970" points="1895.734,-135.3776 1905.2846,-130.7912 1894.9584,-128.4207 1895.734,-135.3776"/>
</g>
<!-- Node42&#45;&gt;Node24 -->
<g id="edge88" class="edge">
<title>Node42&#45;&gt;Node24</title>
<path fill="none" stroke="#191970" d="M858.2803,-168.4318C918.533,-154.0946 1037.5598,-127.1111 1140,-112 1318.304,-85.6982 1534.1167,-72.1743 1615.6526,-67.7101"/>
<polygon fill="#191970" stroke="#191970" points="1616.0101,-71.196 1625.8074,-67.1633 1615.6336,-64.2061 1616.0101,-71.196"/>
</g>
<!-- Node42&#45;&gt;Node25 -->
<g id="edge89" class="edge">
<title>Node42&#45;&gt;Node25</title>
<path fill="none" stroke="#191970" d="M799.4814,-168.3102C772.8682,-155.1799 723.6266,-131.1753 681,-112 655.6595,-100.6007 626.6626,-88.4036 604.95,-79.4351"/>
<polygon fill="#191970" stroke="#191970" points="606.1054,-76.1259 595.5259,-75.5561 603.441,-82.599 606.1054,-76.1259"/>
</g>
<!-- Node43&#45;&gt;Node25 -->
<g id="edge93" class="edge">
<title>Node43&#45;&gt;Node25</title>
<path fill="none" stroke="#191970" d="M420.922,-414.1859C429.0538,-392.923 447,-340.8597 447,-295.5 447,-295.5 447,-295.5 447,-178 447,-140.0995 472.757,-137.274 501,-112 514.4673,-99.9484 531.3913,-88.8549 545.3377,-80.5826"/>
<polygon fill="#191970" stroke="#191970" points="547.0999,-83.6067 554.0063,-75.5723 543.597,-77.5462 547.0999,-83.6067"/>
</g>
<!-- Node44&#45;&gt;Node3 -->
<g id="edge96" class="edge">
<title>Node44&#45;&gt;Node3</title>
<path fill="none" stroke="#191970" d="M2358.784,-542.8522C2378.8685,-535.057 2402.9602,-521.877 2415,-501 2421.8831,-489.0647 2421.7858,-481.9908 2415,-470 2386.5106,-419.6582 2323.9905,-390.3077 2280.9328,-375.3391"/>
<polygon fill="#191970" stroke="#191970" points="2281.8443,-371.9535 2271.2505,-372.0999 2279.6234,-378.5918 2281.8443,-371.9535"/>
</g>
<!-- Node44&#45;&gt;Node4 -->
<g id="edge98" class="edge">
<title>Node44&#45;&gt;Node4</title>
<path fill="none" stroke="#191970" d="M2361.7033,-542.9504C2384.4684,-535.1463 2412.9757,-521.9191 2431,-501 2473.1589,-452.0701 2475,-427.0872 2475,-362.5 2475,-362.5 2475,-362.5 2475,-178 2475,-116.2458 2395.9916,-86.6962 2345.3841,-74.1029"/>
<polygon fill="#191970" stroke="#191970" points="2345.9008,-70.6287 2335.364,-71.7365 2344.2919,-77.4413 2345.9008,-70.6287"/>
</g>
<!-- Node44&#45;&gt;Node11 -->
<g id="edge99" class="edge">
<title>Node44&#45;&gt;Node11</title>
<path fill="none" stroke="#191970" d="M2374.2651,-542.9691C2401.1868,-535.5005 2433.6868,-522.6255 2456,-501 2503.7993,-454.674 2513,-429.0647 2513,-362.5 2513,-362.5 2513,-362.5 2513,-178 2513,-149.0589 2316.4984,-94.2587 2239.4627,-73.8871"/>
<polygon fill="#191970" stroke="#191970" points="2239.9796,-70.4041 2229.4183,-71.2473 2238.2003,-77.1742 2239.9796,-70.4041"/>
</g>
<!-- Node44&#45;&gt;Node12 -->
<g id="edge100" class="edge">
<title>Node44&#45;&gt;Node12</title>
<path fill="none" stroke="#191970" d="M2323.1012,-542.6813C2320.1076,-532.3587 2315.4061,-515.6185 2312,-501 2296.1767,-433.088 2326.2064,-400.9278 2282,-347 2219.6193,-270.9012 2097.6488,-245.4772 2039.4296,-237.4552"/>
<polygon fill="#191970" stroke="#191970" points="2039.6952,-233.9606 2029.3294,-236.1516 2038.799,-240.903 2039.6952,-233.9606"/>
</g>
<!-- Node44&#45;&gt;Node21 -->
<g id="edge113" class="edge">
<title>Node44&#45;&gt;Node21</title>
<path fill="none" stroke="#191970" d="M2328.0968,-542.7603C2334.3319,-511.079 2349.6697,-409.4072 2305,-347 2227.043,-238.0878 2162.4377,-259.2113 2049,-188 2022.2979,-171.2376 1992.246,-151.0031 1972.3296,-137.3946"/>
<polygon fill="#191970" stroke="#191970" points="1974.1677,-134.4113 1963.9405,-131.6446 1970.2102,-140.1852 1974.1677,-134.4113"/>
</g>
<!-- Node44&#45;&gt;Node25 -->
<g id="edge112" class="edge">
<title>Node44&#45;&gt;Node25</title>
<path fill="none" stroke="#191970" d="M2256.9434,-551.2829C1925.6366,-544.9995 515,-513.0194 515,-424 515,-424 515,-424 515,-178 515,-141.1826 539.7675,-104.2377 556.6501,-83.3313"/>
<polygon fill="#191970" stroke="#191970" points="559.3511,-85.5574 563.0938,-75.6456 553.9869,-81.06 559.3511,-85.5574"/>
</g>
<!-- Node45 -->
<g id="node45" class="node">
<title>Node45</title>
<g id="a_node45"><a xlink:title=" ">
<polygon fill="#ffffff" stroke="#bfbfbf" points="2354,-476 2354,-495 2406,-495 2406,-476 2354,-476"/>
<text text-anchor="middle" x="2380" y="-483" font-family="Helvetica,sans-Serif" font-size="10.00" fill="#000000">ostream</text>
</a>
</g>
</g>
<!-- Node44&#45;&gt;Node45 -->
<g id="edge97" class="edge">
<title>Node44&#45;&gt;Node45</title>
<path fill="none" stroke="#191970" d="M2333.7369,-542.9005C2342.0775,-532.552 2355.5354,-515.8542 2365.7912,-503.1295"/>
<polygon fill="#191970" stroke="#191970" points="2368.7273,-505.064 2372.2775,-495.0817 2363.2771,-500.6713 2368.7273,-505.064"/>
</g>
<!-- Node46 -->
<g id="node46" class="node">
<title>Node46</title>
<g id="a_node46"><a xlink:href="IterableContainer_8hpp.html" target="_top" xlink:title="Implementation of the IterableContainer class.">
<polygon fill="#ffffff" stroke="#000000" points="1791,-280.5 1791,-310.5 1915,-310.5 1915,-280.5 1791,-280.5"/>
<text text-anchor="start" x="1799" y="-298.5" font-family="Helvetica,sans-Serif" font-size="10.00" fill="#000000">LLU/Containers/Iterators</text>
<text text-anchor="middle" x="1853" y="-287.5" font-family="Helvetica,sans-Serif" font-size="10.00" fill="#000000">/IterableContainer.hpp</text>
</a>
</g>
</g>
<!-- Node44&#45;&gt;Node46 -->
<g id="edge101" class="edge">
<title>Node44&#45;&gt;Node46</title>
<path fill="none" stroke="#191970" d="M2257.9229,-542.9927C2194.0662,-533.3078 2103.7807,-517.4173 2072,-501 1982.756,-454.8981 1903.8045,-361.8001 1870.1975,-318.551"/>
<polygon fill="#191970" stroke="#191970" points="1872.956,-316.3966 1864.0911,-310.5945 1867.4029,-320.6585 1872.956,-316.3966"/>
</g>
<!-- Node47 -->
<g id="node47" class="node">
<title>Node47</title>
<g id="a_node47"><a xlink:href="MArrayDimensions_8h.html" target="_top" xlink:title=" ">
<polygon fill="#ffffff" stroke="#000000" points="2080.5,-476 2080.5,-495 2259.5,-495 2259.5,-476 2080.5,-476"/>
<text text-anchor="middle" x="2170" y="-483" font-family="Helvetica,sans-Serif" font-size="10.00" fill="#000000">LLU/Containers/MArrayDimensions.h</text>
</a>
</g>
</g>
<!-- Node44&#45;&gt;Node47 -->
<g id="edge105" class="edge">
<title>Node44&#45;&gt;Node47</title>
<path fill="none" stroke="#191970" d="M2303.649,-542.9005C2276.8895,-531.4077 2231.8965,-512.0838 2201.5911,-499.068"/>
<polygon fill="#191970" stroke="#191970" points="2202.8792,-495.8121 2192.3095,-495.0817 2200.1167,-502.244 2202.8792,-495.8121"/>
</g>
<!-- Node46&#45;&gt;Node12 -->
<g id="edge103" class="edge">
<title>Node46&#45;&gt;Node12</title>
<path fill="none" stroke="#191970" d="M1890.6726,-280.4554C1916.6559,-270.079 1950.8062,-256.441 1975.3751,-246.6294"/>
<polygon fill="#191970" stroke="#191970" points="1976.9493,-249.7696 1984.9381,-242.8104 1974.3532,-243.2688 1976.9493,-249.7696"/>
</g>
<!-- Node46&#45;&gt;Node16 -->
<g id="edge102" class="edge">
<title>Node46&#45;&gt;Node16</title>
<path fill="none" stroke="#191970" d="M1856.4607,-280.2977C1858.2826,-272.2945 1860.5385,-262.3843 1862.4952,-253.7889"/>
<polygon fill="#191970" stroke="#191970" points="1865.9514,-254.3744 1864.7584,-243.8469 1859.126,-252.8206 1865.9514,-254.3744"/>
</g>
<!-- Node46&#45;&gt;Node25 -->
<g id="edge104" class="edge">
<title>Node46&#45;&gt;Node25</title>
<path fill="none" stroke="#191970" d="M1790.8548,-285.9003C1775.2593,-283.7236 1758.5406,-281.5885 1743,-280 1513.7305,-256.5643 914.0418,-295.1478 710,-188 670.1331,-167.0648 677.1025,-141.4053 643,-112 629.2219,-100.1197 612.1548,-88.9667 598.2071,-80.6186"/>
<polygon fill="#191970" stroke="#191970" points="599.9566,-77.5872 589.5579,-75.5583 596.4217,-83.6291 599.9566,-77.5872"/>
</g>
<!-- Node47&#45;&gt;Node3 -->
<g id="edge106" class="edge">
<title>Node47&#45;&gt;Node3</title>
<path fill="none" stroke="#191970" d="M2175.1789,-475.8484C2186.119,-455.4601 2211.7446,-407.7033 2225.9949,-381.1459"/>
<polygon fill="#191970" stroke="#191970" points="2229.201,-382.5733 2230.8451,-372.1068 2223.0329,-379.2635 2229.201,-382.5733"/>
</g>
<!-- Node47&#45;&gt;Node4 -->
<g id="edge107" class="edge">
<title>Node47&#45;&gt;Node4</title>
<path fill="none" stroke="#191970" d="M2168.8476,-475.7921C2166.5065,-451.7335 2163.5334,-388.3159 2191,-347 2208.0062,-321.4189 2232.1533,-336.002 2250,-311 2300.5148,-240.2324 2305.0838,-130.8578 2304.6464,-86.1164"/>
<polygon fill="#191970" stroke="#191970" points="2308.1429,-85.8984 2304.4454,-75.9697 2301.1442,-86.0371 2308.1429,-85.8984"/>
</g>
<!-- Node47&#45;&gt;Node7 -->
<g id="edge109" class="edge">
<title>Node47&#45;&gt;Node7</title>
<path fill="none" stroke="#191970" d="M2122.3681,-475.9581C2067.9518,-465.0571 1978.9264,-447.223 1920.6427,-435.5473"/>
<polygon fill="#191970" stroke="#191970" points="1920.9838,-432.0462 1910.4911,-433.5137 1919.6087,-438.9098 1920.9838,-432.0462"/>
</g>
<!-- Node47&#45;&gt;Node12 -->
<g id="edge108" class="edge">
<title>Node47&#45;&gt;Node12</title>
<path fill="none" stroke="#191970" d="M2159.1177,-475.8784C2148.2631,-465.9809 2131.4549,-449.8183 2119,-434 2071.4972,-373.6692 2031.9753,-290.6641 2015.3898,-253.4389"/>
<polygon fill="#191970" stroke="#191970" points="2018.3901,-251.5665 2011.163,-243.8192 2011.9814,-254.3824 2018.3901,-251.5665"/>
</g>
<!-- Node47&#45;&gt;Node21 -->
<g id="edge111" class="edge">
<title>Node47&#45;&gt;Node21</title>
<path fill="none" stroke="#191970" d="M2165.01,-475.9118C2154.9106,-455.5868 2133,-406.4298 2133,-362.5 2133,-362.5 2133,-362.5 2133,-295.5 2133,-224.5554 2070.067,-232.7299 2015,-188 1996.5993,-173.0535 1977.8382,-153.4371 1965.2325,-139.4843"/>
<polygon fill="#191970" stroke="#191970" points="1967.499,-136.7661 1958.2373,-131.6209 1962.2689,-141.4188 1967.499,-136.7661"/>
</g>
<!-- Node47&#45;&gt;Node25 -->
<g id="edge110" class="edge">
<title>Node47&#45;&gt;Node25</title>
<path fill="none" stroke="#191970" d="M2080.2958,-480.7658C1745.895,-461.9425 591,-385.9358 591,-234 591,-234 591,-234 591,-178 591,-145.2688 583.0148,-107.9052 577.3978,-85.6716"/>
<polygon fill="#191970" stroke="#191970" points="580.7289,-84.5763 574.8035,-75.7934 573.9585,-86.3545 580.7289,-84.5763"/>
</g>
</g>
</svg>
