<?xml version="1.0" encoding="UTF-8" standalone="no"?>
<!DOCTYPE svg PUBLIC "-//W3C//DTD SVG 1.1//EN"
 "http://www.w3.org/Graphics/SVG/1.1/DTD/svg11.dtd">
<!-- Generated by graphviz version 2.40.1 (20161225.0304)
 -->
<!-- Title: ThreadPool.h Pages: 1 -->
<svg width="782pt" height="140pt"
 viewBox="0.00 0.00 782.00 140.00" xmlns="http://www.w3.org/2000/svg" xmlns:xlink="http://www.w3.org/1999/xlink">
<g id="graph0" class="graph" transform="scale(1 1) rotate(0) translate(4 136)">
<title>ThreadPool.h</title>
<polygon fill="#ffffff" stroke="transparent" points="-4,4 -4,-136 778,-136 778,4 -4,4"/>
<!-- Node1 -->
<g id="node1" class="node">
<title>Node1</title>
<g id="a_node1"><a xlink:title="Definitions of two thread pool classes: basic with a single queue for all threads and more advanced o...">
<polygon fill="#bfbfbf" stroke="#000000" points="261,-112.5 261,-131.5 335,-131.5 335,-112.5 261,-112.5"/>
<text text-anchor="middle" x="298" y="-119.5" font-family="Helvetica,sans-Serif" font-size="10.00" fill="#000000">ThreadPool.h</text>
</a>
</g>
</g>
<!-- Node2 -->
<g id="node2" class="node">
<title>Node2</title>
<g id="a_node2"><a xlink:title=" ">
<polygon fill="#ffffff" stroke="#bfbfbf" points="0,-56.5 0,-75.5 46,-75.5 46,-56.5 0,-56.5"/>
<text text-anchor="middle" x="23" y="-63.5" font-family="Helvetica,sans-Serif" font-size="10.00" fill="#000000">atomic</text>
</a>
</g>
</g>
<!-- Node1&#45;&gt;Node2 -->
<g id="edge1" class="edge">
<title>Node1&#45;&gt;Node2</title>
<path fill="none" stroke="#191970" d="M260.6578,-116.3107C214.6684,-109.0022 134.0243,-95.208 56.2859,-76.1126"/>
<polygon fill="#191970" stroke="#191970" points="56.8796,-72.6536 46.3302,-73.6334 55.1881,-79.4462 56.8796,-72.6536"/>
</g>
<!-- Node3 -->
<g id="node3" class="node">
<title>Node3</title>
<g id="a_node3"><a xlink:title=" ">
<polygon fill="#ffffff" stroke="#bfbfbf" points="64.5,-56.5 64.5,-75.5 107.5,-75.5 107.5,-56.5 64.5,-56.5"/>
<text text-anchor="middle" x="86" y="-63.5" font-family="Helvetica,sans-Serif" font-size="10.00" fill="#000000">deque</text>
</a>
</g>
</g>
<!-- Node1&#45;&gt;Node3 -->
<g id="edge2" class="edge">
<title>Node1&#45;&gt;Node3</title>
<path fill="none" stroke="#191970" d="M260.8738,-112.4725C225.2243,-103.2823 169.8749,-88.9049 122,-76 120.5517,-75.6096 119.0712,-75.2081 117.5763,-74.8008"/>
<polygon fill="#191970" stroke="#191970" points="118.2574,-71.3582 107.6873,-72.082 116.4017,-78.1078 118.2574,-71.3582"/>
</g>
<!-- Node4 -->
<g id="node4" class="node">
<title>Node4</title>
<g id="a_node4"><a xlink:title=" ">
<polygon fill="#ffffff" stroke="#bfbfbf" points="106.5,-.5 106.5,-19.5 165.5,-19.5 165.5,-.5 106.5,-.5"/>
<text text-anchor="middle" x="136" y="-7.5" font-family="Helvetica,sans-Serif" font-size="10.00" fill="#000000">functional</text>
</a>
</g>
</g>
<!-- Node1&#45;&gt;Node4 -->
<g id="edge3" class="edge">
<title>Node1&#45;&gt;Node4</title>
<path fill="none" stroke="#191970" d="M260.8932,-112.7663C237.1726,-105.5506 206.7123,-93.7279 184,-76 167.6658,-63.2504 154.3288,-43.5277 145.8956,-28.9604"/>
<polygon fill="#191970" stroke="#191970" points="148.7618,-26.9103 140.8641,-19.8479 142.6339,-30.2939 148.7618,-26.9103"/>
</g>
<!-- Node5 -->
<g id="node5" class="node">
<title>Node5</title>
<g id="a_node5"><a xlink:title=" ">
<polygon fill="#ffffff" stroke="#bfbfbf" points="183.5,-.5 183.5,-19.5 224.5,-19.5 224.5,-.5 183.5,-.5"/>
<text text-anchor="middle" x="204" y="-7.5" font-family="Helvetica,sans-Serif" font-size="10.00" fill="#000000">future</text>
</a>
</g>
</g>
<!-- Node1&#45;&gt;Node5 -->
<g id="edge4" class="edge">
<title>Node1&#45;&gt;Node5</title>
<path fill="none" stroke="#191970" d="M260.9583,-116.2796C237.1523,-110.4759 207.9724,-98.9056 193,-76 183.8963,-62.0728 188.4234,-43.069 194.1781,-29.0294"/>
<polygon fill="#191970" stroke="#191970" points="197.4115,-30.3752 198.408,-19.8273 191.0512,-27.4516 197.4115,-30.3752"/>
</g>
<!-- Node6 -->
<g id="node6" class="node">
<title>Node6</title>
<g id="a_node6"><a xlink:title=" ">
<polygon fill="#ffffff" stroke="#bfbfbf" points="243,-.5 243,-19.5 287,-19.5 287,-.5 243,-.5"/>
<text text-anchor="middle" x="265" y="-7.5" font-family="Helvetica,sans-Serif" font-size="10.00" fill="#000000">thread</text>
</a>
</g>
</g>
<!-- Node1&#45;&gt;Node6 -->
<g id="edge5" class="edge">
<title>Node1&#45;&gt;Node6</title>
<path fill="none" stroke="#191970" d="M306.0083,-112.349C315.833,-99.2627 330.1266,-75.3078 321,-56 314.9754,-43.2547 303.4968,-32.8542 292.4926,-25.1874"/>
<polygon fill="#191970" stroke="#191970" points="294.1828,-22.1127 283.8824,-19.6324 290.3879,-27.9948 294.1828,-22.1127"/>
</g>
<!-- Node7 -->
<g id="node7" class="node">
<title>Node7</title>
<g id="a_node7"><a xlink:title=" ">
<polygon fill="#ffffff" stroke="#bfbfbf" points="712,-56.5 712,-75.5 774,-75.5 774,-56.5 712,-56.5"/>
<text text-anchor="middle" x="743" y="-63.5" font-family="Helvetica,sans-Serif" font-size="10.00" fill="#000000">type_traits</text>
</a>
</g>
</g>
<!-- Node1&#45;&gt;Node7 -->
<g id="edge6" class="edge">
<title>Node1&#45;&gt;Node7</title>
<path fill="none" stroke="#191970" d="M335.0935,-119.4325C404.9845,-114.2407 561.0659,-100.9636 701.5551,-76.0675"/>
<polygon fill="#191970" stroke="#191970" points="702.4187,-79.4685 711.642,-74.2549 701.1805,-72.5788 702.4187,-79.4685"/>
</g>
<!-- Node8 -->
<g id="node8" class="node">
<title>Node8</title>
<g id="a_node8"><a xlink:title=" ">
<polygon fill="#ffffff" stroke="#bfbfbf" points="305,-.5 305,-19.5 349,-19.5 349,-.5 305,-.5"/>
<text text-anchor="middle" x="327" y="-7.5" font-family="Helvetica,sans-Serif" font-size="10.00" fill="#000000">vector</text>
</a>
</g>
</g>
<!-- Node1&#45;&gt;Node8 -->
<g id="edge7" class="edge">
<title>Node1&#45;&gt;Node8</title>
<path fill="none" stroke="#191970" d="M316.8824,-112.3676C329.97,-104.5389 346.3649,-92.1524 354,-76 361.6384,-59.8406 352.0737,-40.9162 342.2803,-27.485"/>
<polygon fill="#191970" stroke="#191970" points="344.9403,-25.2062 335.9902,-19.5364 339.4511,-29.55 344.9403,-25.2062"/>
</g>
<!-- Node9 -->
<g id="node9" class="node">
<title>Node9</title>
<g id="a_node9"><a xlink:href="Queue_8h.html" target="_top" xlink:title="Definition and implementation of a thread&#45;safe queue, taken from A. Williams &quot;C++ Concurrency in Acti...">
<polygon fill="#ffffff" stroke="#000000" points="406.5,-56.5 406.5,-75.5 511.5,-75.5 511.5,-56.5 406.5,-56.5"/>
<text text-anchor="middle" x="459" y="-63.5" font-family="Helvetica,sans-Serif" font-size="10.00" fill="#000000">LLU/Async/Queue.h</text>
</a>
</g>
</g>
<!-- Node1&#45;&gt;Node9 -->
<g id="edge8" class="edge">
<title>Node1&#45;&gt;Node9</title>
<path fill="none" stroke="#191970" d="M325.6769,-112.3733C352.3328,-103.1016 392.8238,-89.0178 422.1884,-78.804"/>
<polygon fill="#191970" stroke="#191970" points="423.3891,-82.0921 431.6843,-75.5011 421.0895,-75.4807 423.3891,-82.0921"/>
</g>
<!-- Node13 -->
<g id="node13" class="node">
<title>Node13</title>
<g id="a_node13"><a xlink:href="Async_2Utilities_8h.html" target="_top" xlink:title="Set of small utility classes and functions used in the Async part of LLU.">
<polygon fill="#ffffff" stroke="#000000" points="202,-56.5 202,-75.5 312,-75.5 312,-56.5 202,-56.5"/>
<text text-anchor="middle" x="257" y="-63.5" font-family="Helvetica,sans-Serif" font-size="10.00" fill="#000000">LLU/Async/Utilities.h</text>
</a>
</g>
</g>
<!-- Node1&#45;&gt;Node13 -->
<g id="edge12" class="edge">
<title>Node1&#45;&gt;Node13</title>
<path fill="none" stroke="#191970" d="M290.8583,-112.2455C285.1556,-104.4564 277.01,-93.3308 270.1375,-83.9439"/>
<polygon fill="#191970" stroke="#191970" points="272.7913,-81.6437 264.0598,-75.6427 267.1432,-85.7789 272.7913,-81.6437"/>
</g>
<!-- Node14 -->
<g id="node14" class="node">
<title>Node14</title>
<g id="a_node14"><a xlink:href="WorkStealingQueue_8h.html" target="_top" xlink:title="Definition and implementation of a thread&#45;safe queue, taken from A. Williams &quot;C++ Concurrency in Acti...">
<polygon fill="#ffffff" stroke="#000000" points="530,-56.5 530,-75.5 694,-75.5 694,-56.5 530,-56.5"/>
<text text-anchor="middle" x="612" y="-63.5" font-family="Helvetica,sans-Serif" font-size="10.00" fill="#000000">LLU/Async/WorkStealingQueue.h</text>
</a>
</g>
</g>
<!-- Node1&#45;&gt;Node14 -->
<g id="edge18" class="edge">
<title>Node1&#45;&gt;Node14</title>
<path fill="none" stroke="#191970" d="M335.253,-115.3562C387.836,-105.9783 484.5411,-88.7315 548.5649,-77.3133"/>
<polygon fill="#191970" stroke="#191970" points="549.3179,-80.7343 558.548,-75.5328 548.0888,-73.843 549.3179,-80.7343"/>
</g>
<!-- Node10 -->
<g id="node10" class="node">
<title>Node10</title>
<g id="a_node10"><a xlink:title=" ">
<polygon fill="#ffffff" stroke="#bfbfbf" points="437.5,-.5 437.5,-19.5 532.5,-19.5 532.5,-.5 437.5,-.5"/>
<text text-anchor="middle" x="485" y="-7.5" font-family="Helvetica,sans-Serif" font-size="10.00" fill="#000000">condition_variable</text>
</a>
</g>
</g>
<!-- Node9&#45;&gt;Node10 -->
<g id="edge9" class="edge">
<title>Node9&#45;&gt;Node10</title>
<path fill="none" stroke="#191970" d="M463.5289,-56.2455C467.0334,-48.6973 471.9927,-38.0158 476.2623,-28.8197"/>
<polygon fill="#191970" stroke="#191970" points="479.4864,-30.1867 480.523,-19.6427 473.1373,-27.2389 479.4864,-30.1867"/>
</g>
<!-- Node11 -->
<g id="node11" class="node">
<title>Node11</title>
<g id="a_node11"><a xlink:title=" ">
<polygon fill="#ffffff" stroke="#bfbfbf" points="367,-.5 367,-19.5 419,-19.5 419,-.5 367,-.5"/>
<text text-anchor="middle" x="393" y="-7.5" font-family="Helvetica,sans-Serif" font-size="10.00" fill="#000000">memory</text>
</a>
</g>
</g>
<!-- Node9&#45;&gt;Node11 -->
<g id="edge10" class="edge">
<title>Node9&#45;&gt;Node11</title>
<path fill="none" stroke="#191970" d="M447.5037,-56.2455C437.7558,-47.9746 423.5741,-35.9416 412.1202,-26.2232"/>
<polygon fill="#191970" stroke="#191970" points="414.2541,-23.4437 404.3646,-19.6427 409.7253,-28.7813 414.2541,-23.4437"/>
</g>
<!-- Node12 -->
<g id="node12" class="node">
<title>Node12</title>
<g id="a_node12"><a xlink:title=" ">
<polygon fill="#ffffff" stroke="#bfbfbf" points="570,-.5 570,-19.5 614,-19.5 614,-.5 570,-.5"/>
<text text-anchor="middle" x="592" y="-7.5" font-family="Helvetica,sans-Serif" font-size="10.00" fill="#000000">mutex</text>
</a>
</g>
</g>
<!-- Node9&#45;&gt;Node12 -->
<g id="edge11" class="edge">
<title>Node9&#45;&gt;Node12</title>
<path fill="none" stroke="#191970" d="M481.8635,-56.3733C503.5355,-47.2482 536.2779,-33.462 560.4331,-23.2913"/>
<polygon fill="#191970" stroke="#191970" points="562.0186,-26.4214 569.8768,-19.315 559.3022,-19.9699 562.0186,-26.4214"/>
</g>
<!-- Node13&#45;&gt;Node4 -->
<g id="edge13" class="edge">
<title>Node13&#45;&gt;Node4</title>
<path fill="none" stroke="#191970" d="M236.1994,-56.3733C216.7757,-47.3838 187.5776,-33.8706 165.7036,-23.7471"/>
<polygon fill="#191970" stroke="#191970" points="167.0745,-20.5249 156.5292,-19.5011 164.1344,-26.8776 167.0745,-20.5249"/>
</g>
<!-- Node13&#45;&gt;Node5 -->
<g id="edge14" class="edge">
<title>Node13&#45;&gt;Node5</title>
<path fill="none" stroke="#191970" d="M247.7681,-56.2455C240.1683,-48.2155 229.2123,-36.6394 220.1632,-27.0781"/>
<polygon fill="#191970" stroke="#191970" points="222.542,-24.4998 213.1261,-19.6427 217.4579,-29.3115 222.542,-24.4998"/>
</g>
<!-- Node13&#45;&gt;Node6 -->
<g id="edge16" class="edge">
<title>Node13&#45;&gt;Node6</title>
<path fill="none" stroke="#191970" d="M258.3935,-56.2455C259.4374,-48.9382 260.9008,-38.6944 262.1851,-29.7046"/>
<polygon fill="#191970" stroke="#191970" points="265.673,-30.0372 263.6225,-19.6427 258.7434,-29.0472 265.673,-30.0372"/>
</g>
<!-- Node13&#45;&gt;Node8 -->
<g id="edge17" class="edge">
<title>Node13&#45;&gt;Node8</title>
<path fill="none" stroke="#191970" d="M269.1931,-56.2455C279.6321,-47.8943 294.8655,-35.7076 307.074,-25.9408"/>
<polygon fill="#191970" stroke="#191970" points="309.3244,-28.6227 314.9467,-19.6427 304.9515,-23.1566 309.3244,-28.6227"/>
</g>
<!-- Node13&#45;&gt;Node11 -->
<g id="edge15" class="edge">
<title>Node13&#45;&gt;Node11</title>
<path fill="none" stroke="#191970" d="M280.3792,-56.3733C302.5045,-47.2629 335.9134,-33.5062 360.6019,-23.3404"/>
<polygon fill="#191970" stroke="#191970" points="362.0117,-26.5451 369.9258,-19.5011 359.3464,-20.0723 362.0117,-26.5451"/>
</g>
<!-- Node14&#45;&gt;Node12 -->
<g id="edge19" class="edge">
<title>Node14&#45;&gt;Node12</title>
<path fill="none" stroke="#191970" d="M608.5163,-56.2455C605.8492,-48.7776 602.0867,-38.2427 598.8263,-29.1137"/>
<polygon fill="#191970" stroke="#191970" points="602.1033,-27.8829 595.4438,-19.6427 595.5111,-30.2373 602.1033,-27.8829"/>
</g>
</g>
</svg>
