<?xml version="1.0" encoding="UTF-8" standalone="no"?>
<!DOCTYPE svg PUBLIC "-//W3C//DTD SVG 1.1//EN"
 "http://www.w3.org/Graphics/SVG/1.1/DTD/svg11.dtd">
<!-- Generated by graphviz version 2.40.1 (20161225.0304)
 -->
<!-- Title: TypedMArgument.h Pages: 1 -->
<!--zoomable 420 -->
<svg id="main" version="1.1" xmlns="http://www.w3.org/2000/svg" xmlns:xlink="http://www.w3.org/1999/xlink" xml:space="preserve" onload="init(evt)">
<style type="text/css"><![CDATA[
.edge:hover path { stroke: red; }
.edge:hover polygon { stroke: red; fill: red; }
]]></style>
<script type="text/javascript"><![CDATA[
var edges = document.getElementsByTagName('g');
if (edges && edges.length) {
  for (var i=0;i<edges.length;i++) {
    if (edges[i].id.substr(0,4)=='edge') {
      edges[i].setAttribute('class','edge');
    }
  }
}
]]></script>
        <defs>
                <circle id="rim" cx="0" cy="0" r="7"/>
                <circle id="rim2" cx="0" cy="0" r="3.5"/>
                <g id="zoomPlus">
                        <use xlink:href="#rim" fill="#404040">
                                <set attributeName="fill" to="#808080" begin="zoomplus.mouseover" end="zoomplus.mouseout"/>
                        </use>
                        <path d="M-4,0h8M0,-4v8" fill="none" stroke="white" stroke-width="1.5" pointer-events="none"/>
                </g>
                <g id="zoomMin">
                        <use xlink:href="#rim" fill="#404040">
                                <set attributeName="fill" to="#808080" begin="zoomminus.mouseover" end="zoomminus.mouseout"/>
                        </use>
                        <path d="M-4,0h8" fill="none" stroke="white" stroke-width="1.5" pointer-events="none"/>
                </g>
                <g id="dirArrow">
                        <path fill="none" stroke="white" stroke-width="1.5" d="M0,-3.0v7 M-2.5,-0.5L0,-3.0L2.5,-0.5"/>
                </g>
               <g id="resetDef">
                       <use xlink:href="#rim2" fill="#404040">
                               <set attributeName="fill" to="#808080" begin="reset.mouseover" end="reset.mouseout"/>
                       </use>
               </g>
        </defs>

<script type="text/javascript">
var viewWidth = 504;
var viewHeight = 420;
var sectionId = 'dynsection-1';
</script>
<script xlink:href="svgpan.js"/>
<svg id="graph" class="graph">
<g id="viewport">
<title>TypedMArgument.h</title>
<polygon fill="#ffffff" stroke="transparent" points="-4,4 -4,-416 500,-416 500,4 -4,4"/>
<!-- Node1 -->
<g id="node1" class="node">
<title>Node1</title>
<g id="a_node1"><a xlink:title=" ">
<polygon fill="#bfbfbf" stroke="#000000" points="108,-392.5 108,-411.5 210,-411.5 210,-392.5 108,-392.5"/>
<text text-anchor="middle" x="159" y="-399.5" font-family="Helvetica,sans-Serif" font-size="10.00" fill="#000000">TypedMArgument.h</text>
</a>
</g>
</g>
<!-- Node2 -->
<g id="node2" class="node">
<title>Node2</title>
<g id="a_node2"><a xlink:href="DataList_8h.html" target="_top" xlink:title="Definition of templated DataStore wrapper called DataList.">
<polygon fill="#ffffff" stroke="#000000" points="139,-112.5 139,-131.5 201,-131.5 201,-112.5 139,-112.5"/>
<text text-anchor="middle" x="170" y="-119.5" font-family="Helvetica,sans-Serif" font-size="10.00" fill="#000000">DataList.h</text>
</a>
</g>
</g>
<!-- Node1&#45;&gt;Node2 -->
<g id="edge1" class="edge">
<title>Node1&#45;&gt;Node2</title>
<path fill="none" stroke="#191970" d="M109.1957,-389.5168C62.559,-374.4863 0,-344.2192 0,-290 0,-290 0,-290 0,-234 0,-168.2613 89.7418,-138.9251 138.8194,-127.7971"/>
<polygon fill="#191970" stroke="#191970" points="108.2905,-392.9002 118.8776,-392.4961 110.3492,-386.2097 108.2905,-392.9002"/>
</g>
<!-- Node8 -->
<g id="node8" class="node">
<title>Node8</title>
<g id="a_node8"><a xlink:href="Generic_2DataStore_8hpp.html" target="_top" xlink:title="Definition and implementation of generic DataStore wrapper.">
<polygon fill="#ffffff" stroke="#000000" points="165,-280.5 165,-299.5 245,-299.5 245,-280.5 165,-280.5"/>
<text text-anchor="middle" x="205" y="-287.5" font-family="Helvetica,sans-Serif" font-size="10.00" fill="#000000">DataStore.hpp</text>
</a>
</g>
</g>
<!-- Node1&#45;&gt;Node8 -->
<g id="edge8" class="edge">
<title>Node1&#45;&gt;Node8</title>
<path fill="none" stroke="#191970" d="M163.2866,-382.3511C166.5308,-368.9873 171.532,-351.0653 178,-336 183.626,-322.896 192.2539,-308.9114 198.2361,-299.8477"/>
<polygon fill="#191970" stroke="#191970" points="159.8194,-381.8109 160.9812,-392.3419 166.6401,-383.3849 159.8194,-381.8109"/>
</g>
<!-- Node9 -->
<g id="node9" class="node">
<title>Node9</title>
<g id="a_node9"><a xlink:href="DataNode_8hpp.html" target="_top" xlink:title=" ">
<polygon fill="#ffffff" stroke="#000000" points="296,-224.5 296,-243.5 376,-243.5 376,-224.5 296,-224.5"/>
<text text-anchor="middle" x="336" y="-231.5" font-family="Helvetica,sans-Serif" font-size="10.00" fill="#000000">DataNode.hpp</text>
</a>
</g>
</g>
<!-- Node1&#45;&gt;Node9 -->
<g id="edge15" class="edge">
<title>Node1&#45;&gt;Node9</title>
<path fill="none" stroke="#191970" d="M214.249,-389.4863C235.5188,-382.4697 258.8039,-371.8333 276,-356 311.0753,-323.7044 328.1546,-266.4157 333.7992,-243.684"/>
<polygon fill="#191970" stroke="#191970" points="213.1636,-386.1583 204.6473,-392.461 215.2352,-392.8448 213.1636,-386.1583"/>
</g>
<!-- Node12 -->
<g id="node12" class="node">
<title>Node12</title>
<g id="a_node12"><a xlink:href="TypedMArgument_8cpp.html" target="_top" xlink:title=" ">
<polygon fill="#ffffff" stroke="#000000" points="28.5,-224.5 28.5,-243.5 141.5,-243.5 141.5,-224.5 28.5,-224.5"/>
<text text-anchor="middle" x="85" y="-231.5" font-family="Helvetica,sans-Serif" font-size="10.00" fill="#000000">TypedMArgument.cpp</text>
</a>
</g>
</g>
<!-- Node1&#45;&gt;Node12 -->
<g id="edge19" class="edge">
<title>Node1&#45;&gt;Node12</title>
<path fill="none" stroke="#191970" d="M150.7141,-383.1887C134.9836,-347.4762 101.2971,-270.9988 89.3289,-243.8279"/>
<polygon fill="#191970" stroke="#191970" points="147.5753,-384.7456 154.8094,-392.4862 153.9814,-381.9238 147.5753,-384.7456"/>
</g>
<!-- Node13 -->
<g id="node13" class="node">
<title>Node13</title>
<g id="a_node13"><a xlink:href="Iterators_2DataStore_8hpp.html" target="_top" xlink:title=" ">
<polygon fill="#ffffff" stroke="#000000" points="187,-336.5 187,-355.5 267,-355.5 267,-336.5 187,-336.5"/>
<text text-anchor="middle" x="227" y="-343.5" font-family="Helvetica,sans-Serif" font-size="10.00" fill="#000000">DataStore.hpp</text>
</a>
</g>
</g>
<!-- Node1&#45;&gt;Node13 -->
<g id="edge16" class="edge">
<title>Node1&#45;&gt;Node13</title>
<path fill="none" stroke="#191970" d="M178.8596,-385.645C190.6858,-375.9058 205.2892,-363.8795 215.291,-355.6427"/>
<polygon fill="#191970" stroke="#191970" points="176.339,-383.1867 170.8447,-392.2455 180.789,-388.5902 176.339,-383.1867"/>
</g>
<!-- Node3 -->
<g id="node3" class="node">
<title>Node3</title>
<g id="a_node3"><a xlink:href="LLU_8h.html" target="_top" xlink:title="Header file which includes all major parts of LLU.">
<polygon fill="#ffffff" stroke="#000000" points="106.5,-.5 106.5,-19.5 149.5,-19.5 149.5,-.5 106.5,-.5"/>
<text text-anchor="middle" x="128" y="-7.5" font-family="Helvetica,sans-Serif" font-size="10.00" fill="#000000">LLU.h</text>
</a>
</g>
</g>
<!-- Node2&#45;&gt;Node3 -->
<g id="edge2" class="edge">
<title>Node2&#45;&gt;Node3</title>
<path fill="none" stroke="#191970" d="M160.2325,-103.2407C156.1553,-95.0088 151.5519,-85.1529 148,-76 140.3766,-56.3551 133.7823,-32.5266 130.4053,-19.5523"/>
<polygon fill="#191970" stroke="#191970" points="157.193,-104.9856 164.8388,-112.32 163.4356,-101.8184 157.193,-104.9856"/>
</g>
<!-- Node4 -->
<g id="node4" class="node">
<title>Node4</title>
<g id="a_node4"><a xlink:href="MArgumentManager_8h.html" target="_top" xlink:title="Definition of MArgumentManager class.">
<polygon fill="#ffffff" stroke="#000000" points="156.5,-56.5 156.5,-75.5 269.5,-75.5 269.5,-56.5 156.5,-56.5"/>
<text text-anchor="middle" x="213" y="-63.5" font-family="Helvetica,sans-Serif" font-size="10.00" fill="#000000">MArgumentManager.h</text>
</a>
</g>
</g>
<!-- Node2&#45;&gt;Node4 -->
<g id="edge3" class="edge">
<title>Node2&#45;&gt;Node4</title>
<path fill="none" stroke="#191970" d="M183.6592,-104.2112C190.9263,-94.7472 199.5781,-83.4797 205.5958,-75.6427"/>
<polygon fill="#191970" stroke="#191970" points="180.8043,-102.1824 177.49,-112.2455 186.3564,-106.4456 180.8043,-102.1824"/>
</g>
<!-- Node4&#45;&gt;Node3 -->
<g id="edge4" class="edge">
<title>Node4&#45;&gt;Node3</title>
<path fill="none" stroke="#191970" d="M189.4581,-50.49C174.461,-40.6096 155.5027,-28.1194 142.6362,-19.6427"/>
<polygon fill="#191970" stroke="#191970" points="187.9179,-53.6666 198.1941,-56.2455 191.7691,-47.8212 187.9179,-53.6666"/>
</g>
<!-- Node5 -->
<g id="node5" class="node">
<title>Node5</title>
<g id="a_node5"><a xlink:href="LibraryLinkError_8cpp.html" target="_top" xlink:title="Contains definitions of ErrorManager members and implementation of interface function sendRegisteredE...">
<polygon fill="#ffffff" stroke="#000000" points="392,-.5 392,-19.5 496,-19.5 496,-.5 392,-.5"/>
<text text-anchor="middle" x="444" y="-7.5" font-family="Helvetica,sans-Serif" font-size="10.00" fill="#000000">LibraryLinkError.cpp</text>
</a>
</g>
</g>
<!-- Node4&#45;&gt;Node5 -->
<g id="edge5" class="edge">
<title>Node4&#45;&gt;Node5</title>
<path fill="none" stroke="#191970" d="M262.3049,-54.0473C304.8222,-43.7401 365.4057,-29.0532 404.7149,-19.5237"/>
<polygon fill="#191970" stroke="#191970" points="261.3417,-50.6793 252.4478,-56.4369 262.991,-57.4823 261.3417,-50.6793"/>
</g>
<!-- Node6 -->
<g id="node6" class="node">
<title>Node6</title>
<g id="a_node6"><a xlink:href="Logger_8cpp.html" target="_top" xlink:title="Implementation of functions defined in Logger.h.">
<polygon fill="#ffffff" stroke="#000000" points="167.5,-.5 167.5,-19.5 232.5,-19.5 232.5,-.5 167.5,-.5"/>
<text text-anchor="middle" x="200" y="-7.5" font-family="Helvetica,sans-Serif" font-size="10.00" fill="#000000">Logger.cpp</text>
</a>
</g>
</g>
<!-- Node4&#45;&gt;Node6 -->
<g id="edge6" class="edge">
<title>Node4&#45;&gt;Node6</title>
<path fill="none" stroke="#191970" d="M208.4625,-46.4538C206.3561,-37.3803 203.9464,-26.9998 202.2385,-19.6427"/>
<polygon fill="#191970" stroke="#191970" points="205.0649,-47.2961 210.7356,-56.2455 211.8835,-45.7131 205.0649,-47.2961"/>
</g>
<!-- Node7 -->
<g id="node7" class="node">
<title>Node7</title>
<g id="a_node7"><a xlink:href="MArgumentManager_8cpp.html" target="_top" xlink:title="Definitions of non&#45;template member functions and static data members from MArgumentManager class.">
<polygon fill="#ffffff" stroke="#000000" points="250.5,-.5 250.5,-19.5 373.5,-19.5 373.5,-.5 250.5,-.5"/>
<text text-anchor="middle" x="312" y="-7.5" font-family="Helvetica,sans-Serif" font-size="10.00" fill="#000000">MArgumentManager.cpp</text>
</a>
</g>
</g>
<!-- Node4&#45;&gt;Node7 -->
<g id="edge7" class="edge">
<title>Node4&#45;&gt;Node7</title>
<path fill="none" stroke="#191970" d="M239.4357,-51.0465C257.0508,-41.0824 279.6847,-28.2794 294.9531,-19.6427"/>
<polygon fill="#191970" stroke="#191970" points="237.2253,-48.2756 230.2445,-56.2455 240.6717,-54.3684 237.2253,-48.2756"/>
</g>
<!-- Node8&#45;&gt;Node2 -->
<g id="edge9" class="edge">
<title>Node8&#45;&gt;Node2</title>
<path fill="none" stroke="#191970" d="M197.496,-270.9159C194.5048,-262.7307 191.2461,-252.9984 189,-244 178.721,-202.8205 172.9764,-152.3595 170.901,-131.6081"/>
<polygon fill="#191970" stroke="#191970" points="194.2296,-272.1734 201.0455,-280.2849 200.7756,-269.6934 194.2296,-272.1734"/>
</g>
<!-- Node8&#45;&gt;Node9 -->
<g id="edge10" class="edge">
<title>Node8&#45;&gt;Node9</title>
<path fill="none" stroke="#191970" d="M236.8534,-276.3833C260.6785,-266.1985 292.6568,-252.5284 313.7742,-243.5011"/>
<polygon fill="#191970" stroke="#191970" points="235.339,-273.2242 227.5197,-280.3733 238.0906,-279.6608 235.339,-273.2242"/>
</g>
<!-- Node11 -->
<g id="node11" class="node">
<title>Node11</title>
<g id="a_node11"><a xlink:href="DataStore_8cpp.html" target="_top" xlink:title=" ">
<polygon fill="#ffffff" stroke="#000000" points="198,-224.5 198,-243.5 278,-243.5 278,-224.5 198,-224.5"/>
<text text-anchor="middle" x="238" y="-231.5" font-family="Helvetica,sans-Serif" font-size="10.00" fill="#000000">DataStore.cpp</text>
</a>
</g>
</g>
<!-- Node8&#45;&gt;Node11 -->
<g id="edge13" class="edge">
<title>Node8&#45;&gt;Node11</title>
<path fill="none" stroke="#191970" d="M215.8254,-271.6296C221.3299,-262.2887 227.7937,-251.3197 232.3177,-243.6427"/>
<polygon fill="#191970" stroke="#191970" points="212.8097,-269.8532 210.7482,-280.2455 218.8405,-273.4071 212.8097,-269.8532"/>
</g>
<!-- Node8&#45;&gt;Node12 -->
<g id="edge14" class="edge">
<title>Node8&#45;&gt;Node12</title>
<path fill="none" stroke="#191970" d="M175.2376,-276.1109C153.4768,-265.9559 124.5318,-252.4482 105.3595,-243.5011"/>
<polygon fill="#191970" stroke="#191970" points="173.8293,-279.316 184.3713,-280.3733 176.7895,-272.9727 173.8293,-279.316"/>
</g>
<!-- Node10 -->
<g id="node10" class="node">
<title>Node10</title>
<g id="a_node10"><a xlink:href="DataList_8hpp.html" target="_top" xlink:title="Special iterators for DataLists. Iteration over keys, values, reversed iteration.">
<polygon fill="#ffffff" stroke="#000000" points="300,-168.5 300,-187.5 372,-187.5 372,-168.5 300,-168.5"/>
<text text-anchor="middle" x="336" y="-175.5" font-family="Helvetica,sans-Serif" font-size="10.00" fill="#000000">DataList.hpp</text>
</a>
</g>
</g>
<!-- Node9&#45;&gt;Node10 -->
<g id="edge11" class="edge">
<title>Node9&#45;&gt;Node10</title>
<path fill="none" stroke="#191970" d="M336,-214.1575C336,-205.155 336,-194.9199 336,-187.6427"/>
<polygon fill="#191970" stroke="#191970" points="332.5001,-214.2455 336,-224.2455 339.5001,-214.2456 332.5001,-214.2455"/>
</g>
<!-- Node10&#45;&gt;Node2 -->
<g id="edge12" class="edge">
<title>Node10&#45;&gt;Node2</title>
<path fill="none" stroke="#191970" d="M297.6333,-165.057C267.2534,-154.8084 225.5181,-140.729 198.164,-131.5011"/>
<polygon fill="#191970" stroke="#191970" points="296.8694,-168.4931 307.4636,-168.3733 299.107,-161.8603 296.8694,-168.4931"/>
</g>
<!-- Node13&#45;&gt;Node8 -->
<g id="edge17" class="edge">
<title>Node13&#45;&gt;Node8</title>
<path fill="none" stroke="#191970" d="M219.4372,-326.7493C215.8454,-317.6064 211.7099,-307.0798 208.7882,-299.6427"/>
<polygon fill="#191970" stroke="#191970" points="216.2537,-328.2178 223.1679,-336.2455 222.7689,-325.6582 216.2537,-328.2178"/>
</g>
<!-- Node13&#45;&gt;Node10 -->
<g id="edge18" class="edge">
<title>Node13&#45;&gt;Node10</title>
<path fill="none" stroke="#191970" d="M267.3038,-332.7468C305.3641,-317.8269 360.1973,-289.534 385,-244 396.7416,-222.4443 370.586,-200.0606 352.1573,-187.6921"/>
<polygon fill="#191970" stroke="#191970" points="265.6583,-329.6266 257.5356,-336.429 268.1274,-336.1767 265.6583,-329.6266"/>
</g>
</g>
</svg>
        <g id="navigator" transform="translate(0 0)" fill="#404254">
                <rect fill="#f2f5e9" fill-opacity="0.5" stroke="#606060" stroke-width=".5" x="0" y="0" width="60" height="60"/>
                <use id="zoomplus" xlink:href="#zoomPlus" x="17" y="9" onmousedown="handleZoom(evt,'in')"/>
                <use id="zoomminus" xlink:href="#zoomMin" x="42" y="9" onmousedown="handleZoom(evt,'out')"/>
                <use id="reset" xlink:href="#resetDef" x="30" y="36" onmousedown="handleReset()"/>
                <g id="arrowUp" xlink:href="#dirArrow" transform="translate(30 24)" onmousedown="handlePan(0,-1)">
                  <use xlink:href="#rim" fill="#404040">
                        <set attributeName="fill" to="#808080" begin="arrowUp.mouseover" end="arrowUp.mouseout"/>
                  </use>
                  <path fill="none" stroke="white" stroke-width="1.5" d="M0,-3.0v7 M-2.5,-0.5L0,-3.0L2.5,-0.5"/>
                </g>
                <g id="arrowRight" xlink:href="#dirArrow" transform="rotate(90) translate(36 -43)" onmousedown="handlePan(1,0)">
                  <use xlink:href="#rim" fill="#404040">
                        <set attributeName="fill" to="#808080" begin="arrowRight.mouseover" end="arrowRight.mouseout"/>
                  </use>
                  <path fill="none" stroke="white" stroke-width="1.5" d="M0,-3.0v7 M-2.5,-0.5L0,-3.0L2.5,-0.5"/>
                </g>
                <g id="arrowDown" xlink:href="#dirArrow" transform="rotate(180) translate(-30 -48)" onmousedown="handlePan(0,1)">
                  <use xlink:href="#rim" fill="#404040">
                        <set attributeName="fill" to="#808080" begin="arrowDown.mouseover" end="arrowDown.mouseout"/>
                  </use>
                  <path fill="none" stroke="white" stroke-width="1.5" d="M0,-3.0v7 M-2.5,-0.5L0,-3.0L2.5,-0.5"/>
                </g>
                <g id="arrowLeft" xlink:href="#dirArrow" transform="rotate(270) translate(-36 17)" onmousedown="handlePan(-1,0)">
                  <use xlink:href="#rim" fill="#404040">
                        <set attributeName="fill" to="#808080" begin="arrowLeft.mouseover" end="arrowLeft.mouseout"/>
                  </use>
                  <path fill="none" stroke="white" stroke-width="1.5" d="M0,-3.0v7 M-2.5,-0.5L0,-3.0L2.5,-0.5"/>
                </g>
        </g>
        <svg viewBox="0 0 15 15" width="100%" height="30px" preserveAspectRatio="xMaxYMin meet">
         <g id="arrow_out" transform="scale(0.3 0.3)">
          <a xlink:href="TypedMArgument_8h__dep__incl_org.svg" target="_base">
           <rect id="button" ry="5" rx="5" y="6" x="6" height="38" width="38"
                fill="#f2f5e9" fill-opacity="0.5" stroke="#606060" stroke-width="1.0"/>
           <path id="arrow"
             d="M 11.500037,31.436501 C 11.940474,20.09759 22.043105,11.32322 32.158766,21.979434 L 37.068811,17.246167 C 37.068811,17.246167 37.088388,32 37.088388,32 L 22.160133,31.978069 C 22.160133,31.978069 26.997745,27.140456 26.997745,27.140456 C 18.528582,18.264221 13.291696,25.230495 11.500037,31.436501 z"
             style="fill:#404040;"/>
          </a>
         </g>
        </svg>
</svg>
