<?xml version="1.0" encoding="UTF-8" standalone="no"?>
<!DOCTYPE svg PUBLIC "-//W3C//DTD SVG 1.1//EN"
 "http://www.w3.org/Graphics/SVG/1.1/DTD/svg11.dtd">
<!-- Generated by graphviz version 2.40.1 (20161225.0304)
 -->
<!-- Title: UtilityTypeTraits.hpp Pages: 1 -->
<svg width="922pt" height="196pt"
 viewBox="0.00 0.00 922.00 196.00" xmlns="http://www.w3.org/2000/svg" xmlns:xlink="http://www.w3.org/1999/xlink">
<g id="graph0" class="graph" transform="scale(1 1) rotate(0) translate(4 192)">
<title>UtilityTypeTraits.hpp</title>
<polygon fill="#ffffff" stroke="transparent" points="-4,4 -4,-192 918,-192 918,4 -4,4"/>
<!-- Node1 -->
<g id="node1" class="node">
<title>Node1</title>
<g id="a_node1"><a xlink:title="Type traits used by WSStream to identify types supported by WSTP.">
<polygon fill="#bfbfbf" stroke="#000000" points="53.5,-168.5 53.5,-187.5 160.5,-187.5 160.5,-168.5 53.5,-168.5"/>
<text text-anchor="middle" x="107" y="-175.5" font-family="Helvetica,sans-Serif" font-size="10.00" fill="#000000">UtilityTypeTraits.hpp</text>
</a>
</g>
</g>
<!-- Node2 -->
<g id="node2" class="node">
<title>Node2</title>
<g id="a_node2"><a xlink:title=" ">
<polygon fill="#ffffff" stroke="#bfbfbf" points="76,-56.5 76,-75.5 138,-75.5 138,-56.5 76,-56.5"/>
<text text-anchor="middle" x="107" y="-63.5" font-family="Helvetica,sans-Serif" font-size="10.00" fill="#000000">type_traits</text>
</a>
</g>
</g>
<!-- Node1&#45;&gt;Node2 -->
<g id="edge1" class="edge">
<title>Node1&#45;&gt;Node2</title>
<path fill="none" stroke="#191970" d="M107,-168.4509C107,-150.184 107,-109.9553 107,-85.6976"/>
<polygon fill="#191970" stroke="#191970" points="110.5001,-85.5249 107,-75.5249 103.5001,-85.5249 110.5001,-85.5249"/>
</g>
<!-- Node3 -->
<g id="node3" class="node">
<title>Node3</title>
<g id="a_node3"><a xlink:title=" ">
<polygon fill="#ffffff" stroke="#bfbfbf" points="0,-.5 0,-19.5 46,-19.5 46,-.5 0,-.5"/>
<text text-anchor="middle" x="23" y="-7.5" font-family="Helvetica,sans-Serif" font-size="10.00" fill="#000000">wstp.h</text>
</a>
</g>
</g>
<!-- Node1&#45;&gt;Node3 -->
<g id="edge2" class="edge">
<title>Node1&#45;&gt;Node3</title>
<path fill="none" stroke="#191970" d="M102.2431,-168.4862C88.8497,-141.6994 50.6282,-65.2565 32.6145,-29.2289"/>
<polygon fill="#191970" stroke="#191970" points="35.5166,-27.2069 27.9139,-19.8279 29.2556,-30.3374 35.5166,-27.2069"/>
</g>
<!-- Node4 -->
<g id="node4" class="node">
<title>Node4</title>
<g id="a_node4"><a xlink:href="Utilities_8hpp.html" target="_top" xlink:title="Short but generally useful functions.">
<polygon fill="#ffffff" stroke="#000000" points="192.5,-112.5 192.5,-131.5 281.5,-131.5 281.5,-112.5 192.5,-112.5"/>
<text text-anchor="middle" x="237" y="-119.5" font-family="Helvetica,sans-Serif" font-size="10.00" fill="#000000">LLU/Utilities.hpp</text>
</a>
</g>
</g>
<!-- Node1&#45;&gt;Node4 -->
<g id="edge3" class="edge">
<title>Node1&#45;&gt;Node4</title>
<path fill="none" stroke="#191970" d="M129.3478,-168.3733C150.4033,-159.3032 182.1495,-145.6279 205.7175,-135.4755"/>
<polygon fill="#191970" stroke="#191970" points="207.1444,-138.6719 214.9438,-131.5011 204.375,-132.243 207.1444,-138.6719"/>
</g>
<!-- Node4&#45;&gt;Node2 -->
<g id="edge6" class="edge">
<title>Node4&#45;&gt;Node2</title>
<path fill="none" stroke="#191970" d="M214.6522,-112.3733C193.5967,-103.3032 161.8505,-89.6279 138.2825,-79.4755"/>
<polygon fill="#191970" stroke="#191970" points="139.625,-76.243 129.0562,-75.5011 136.8556,-82.6719 139.625,-76.243"/>
</g>
<!-- Node5 -->
<g id="node5" class="node">
<title>Node5</title>
<g id="a_node5"><a xlink:title=" ">
<polygon fill="#ffffff" stroke="#bfbfbf" points="392.5,-56.5 392.5,-75.5 445.5,-75.5 445.5,-56.5 392.5,-56.5"/>
<text text-anchor="middle" x="419" y="-63.5" font-family="Helvetica,sans-Serif" font-size="10.00" fill="#000000">complex</text>
</a>
</g>
</g>
<!-- Node4&#45;&gt;Node5 -->
<g id="edge4" class="edge">
<title>Node4&#45;&gt;Node5</title>
<path fill="none" stroke="#191970" d="M268.2869,-112.3733C299.9712,-102.6242 348.9471,-87.5547 382.4105,-77.2583"/>
<polygon fill="#191970" stroke="#191970" points="383.7329,-80.5134 392.2614,-74.2273 381.6743,-73.823 383.7329,-80.5134"/>
</g>
<!-- Node6 -->
<g id="node6" class="node">
<title>Node6</title>
<g id="a_node6"><a xlink:title=" ">
<polygon fill="#ffffff" stroke="#bfbfbf" points="464,-56.5 464,-75.5 510,-75.5 510,-56.5 464,-56.5"/>
<text text-anchor="middle" x="487" y="-63.5" font-family="Helvetica,sans-Serif" font-size="10.00" fill="#000000">cstdint</text>
</a>
</g>
</g>
<!-- Node4&#45;&gt;Node6 -->
<g id="edge5" class="edge">
<title>Node4&#45;&gt;Node6</title>
<path fill="none" stroke="#191970" d="M281.5464,-113.8848C323.6485,-105.9287 388.7487,-92.8907 453.6628,-76.1788"/>
<polygon fill="#191970" stroke="#191970" points="454.8602,-79.4838 463.6552,-73.5763 453.0959,-72.7098 454.8602,-79.4838"/>
</g>
<!-- Node7 -->
<g id="node7" class="node">
<title>Node7</title>
<g id="a_node7"><a xlink:title=" ">
<polygon fill="#ffffff" stroke="#bfbfbf" points="156,-56.5 156,-75.5 196,-75.5 196,-56.5 156,-56.5"/>
<text text-anchor="middle" x="176" y="-63.5" font-family="Helvetica,sans-Serif" font-size="10.00" fill="#000000">utility</text>
</a>
</g>
</g>
<!-- Node4&#45;&gt;Node7 -->
<g id="edge7" class="edge">
<title>Node4&#45;&gt;Node7</title>
<path fill="none" stroke="#191970" d="M226.3746,-112.2455C217.4527,-104.0549 204.512,-92.1749 193.9808,-82.5069"/>
<polygon fill="#191970" stroke="#191970" points="196.2371,-79.8271 186.5036,-75.6427 191.5032,-84.9837 196.2371,-79.8271"/>
</g>
<!-- Node8 -->
<g id="node8" class="node">
<title>Node8</title>
<g id="a_node8"><a xlink:title=" ">
<polygon fill="#ffffff" stroke="#bfbfbf" points="214,-56.5 214,-75.5 260,-75.5 260,-56.5 214,-56.5"/>
<text text-anchor="middle" x="237" y="-63.5" font-family="Helvetica,sans-Serif" font-size="10.00" fill="#000000">variant</text>
</a>
</g>
</g>
<!-- Node4&#45;&gt;Node8 -->
<g id="edge8" class="edge">
<title>Node4&#45;&gt;Node8</title>
<path fill="none" stroke="#191970" d="M237,-112.2455C237,-104.9382 237,-94.6944 237,-85.7046"/>
<polygon fill="#191970" stroke="#191970" points="240.5001,-85.6426 237,-75.6427 233.5001,-85.6427 240.5001,-85.6426"/>
</g>
<!-- Node9 -->
<g id="node9" class="node">
<title>Node9</title>
<g id="a_node9"><a xlink:href="LibraryData_8h.html" target="_top" xlink:title=" ">
<polygon fill="#ffffff" stroke="#000000" points="278,-56.5 278,-75.5 374,-75.5 374,-56.5 278,-56.5"/>
<text text-anchor="middle" x="326" y="-63.5" font-family="Helvetica,sans-Serif" font-size="10.00" fill="#000000">LLU/LibraryData.h</text>
</a>
</g>
</g>
<!-- Node4&#45;&gt;Node9 -->
<g id="edge9" class="edge">
<title>Node4&#45;&gt;Node9</title>
<path fill="none" stroke="#191970" d="M252.5026,-112.2455C266.158,-103.6534 286.2657,-91.0014 301.9989,-81.1018"/>
<polygon fill="#191970" stroke="#191970" points="304.0751,-83.9307 310.675,-75.6427 300.3471,-78.006 304.0751,-83.9307"/>
</g>
<!-- Node9&#45;&gt;Node3 -->
<g id="edge12" class="edge">
<title>Node9&#45;&gt;Node3</title>
<path fill="none" stroke="#191970" d="M277.8021,-57.5198C274.824,-57.0034 271.8715,-56.4934 269,-56 177.1016,-40.2092 150.5484,-42.2731 56.2745,-20.0652"/>
<polygon fill="#191970" stroke="#191970" points="56.8557,-16.6057 46.3165,-17.6895 55.2313,-23.4146 56.8557,-16.6057"/>
</g>
<!-- Node10 -->
<g id="node10" class="node">
<title>Node10</title>
<g id="a_node10"><a xlink:title=" ">
<polygon fill="#ffffff" stroke="#bfbfbf" points="862,-.5 862,-19.5 914,-19.5 914,-.5 862,-.5"/>
<text text-anchor="middle" x="888" y="-7.5" font-family="Helvetica,sans-Serif" font-size="10.00" fill="#000000">memory</text>
</a>
</g>
</g>
<!-- Node9&#45;&gt;Node10 -->
<g id="edge10" class="edge">
<title>Node9&#45;&gt;Node10</title>
<path fill="none" stroke="#191970" d="M374.0549,-57.3561C377.4154,-56.8621 380.7552,-56.4033 384,-56 588.2193,-30.6142 645.4457,-56.0824 851.8191,-19.8824"/>
<polygon fill="#191970" stroke="#191970" points="852.5292,-23.3111 861.7604,-18.1115 851.3015,-16.4195 852.5292,-23.3111"/>
</g>
<!-- Node11 -->
<g id="node11" class="node">
<title>Node11</title>
<g id="a_node11"><a xlink:title=" ">
<polygon fill="#ffffff" stroke="#bfbfbf" points="64,-.5 64,-19.5 126,-19.5 126,-.5 64,-.5"/>
<text text-anchor="middle" x="95" y="-7.5" font-family="Helvetica,sans-Serif" font-size="10.00" fill="#000000">dllexport.h</text>
</a>
</g>
</g>
<!-- Node9&#45;&gt;Node11 -->
<g id="edge11" class="edge">
<title>Node9&#45;&gt;Node11</title>
<path fill="none" stroke="#191970" d="M286.1013,-56.4969C249.5579,-47.7693 193.6993,-34.3697 136.0265,-20.2379"/>
<polygon fill="#191970" stroke="#191970" points="136.5483,-16.7622 126.0023,-17.7787 134.8804,-23.5606 136.5483,-16.7622"/>
</g>
<!-- Node12 -->
<g id="node12" class="node">
<title>Node12</title>
<g id="a_node12"><a xlink:title=" ">
<polygon fill="#ffffff" stroke="#bfbfbf" points="144.5,-.5 144.5,-19.5 235.5,-19.5 235.5,-.5 144.5,-.5"/>
<text text-anchor="middle" x="190" y="-7.5" font-family="Helvetica,sans-Serif" font-size="10.00" fill="#000000">WolframLibrary.h</text>
</a>
</g>
</g>
<!-- Node9&#45;&gt;Node12 -->
<g id="edge13" class="edge">
<title>Node9&#45;&gt;Node12</title>
<path fill="none" stroke="#191970" d="M302.6208,-56.3733C280.4955,-47.2629 247.0866,-33.5062 222.3981,-23.3404"/>
<polygon fill="#191970" stroke="#191970" points="223.6536,-20.0723 213.0742,-19.5011 220.9883,-26.5451 223.6536,-20.0723"/>
</g>
<!-- Node13 -->
<g id="node13" class="node">
<title>Node13</title>
<g id="a_node13"><a xlink:title=" ">
<polygon fill="#ffffff" stroke="#bfbfbf" points="254,-.5 254,-19.5 398,-19.5 398,-.5 254,-.5"/>
<text text-anchor="middle" x="326" y="-7.5" font-family="Helvetica,sans-Serif" font-size="10.00" fill="#000000">WolframIOLibraryFunctions.h</text>
</a>
</g>
</g>
<!-- Node9&#45;&gt;Node13 -->
<g id="edge14" class="edge">
<title>Node9&#45;&gt;Node13</title>
<path fill="none" stroke="#191970" d="M326,-56.2455C326,-48.9382 326,-38.6944 326,-29.7046"/>
<polygon fill="#191970" stroke="#191970" points="329.5001,-29.6426 326,-19.6427 322.5001,-29.6427 329.5001,-29.6426"/>
</g>
<!-- Node14 -->
<g id="node14" class="node">
<title>Node14</title>
<g id="a_node14"><a xlink:title=" ">
<polygon fill="#ffffff" stroke="#bfbfbf" points="416,-.5 416,-19.5 534,-19.5 534,-.5 416,-.5"/>
<text text-anchor="middle" x="475" y="-7.5" font-family="Helvetica,sans-Serif" font-size="10.00" fill="#000000">WolframImageLibrary.h</text>
</a>
</g>
</g>
<!-- Node9&#45;&gt;Node14 -->
<g id="edge15" class="edge">
<title>Node9&#45;&gt;Node14</title>
<path fill="none" stroke="#191970" d="M351.614,-56.3733C376.0687,-47.1822 413.1054,-33.2624 440.2209,-23.0713"/>
<polygon fill="#191970" stroke="#191970" points="441.5909,-26.2956 449.7202,-19.5011 439.1281,-19.7431 441.5909,-26.2956"/>
</g>
<!-- Node15 -->
<g id="node15" class="node">
<title>Node15</title>
<g id="a_node15"><a xlink:title=" ">
<polygon fill="#ffffff" stroke="#bfbfbf" points="552.5,-.5 552.5,-19.5 703.5,-19.5 703.5,-.5 552.5,-.5"/>
<text text-anchor="middle" x="628" y="-7.5" font-family="Helvetica,sans-Serif" font-size="10.00" fill="#000000">WolframNumericArrayLibrary.h</text>
</a>
</g>
</g>
<!-- Node9&#45;&gt;Node15 -->
<g id="edge16" class="edge">
<title>Node9&#45;&gt;Node15</title>
<path fill="none" stroke="#191970" d="M374.1867,-57.0647C426.4214,-47.3788 509.9152,-31.8965 566.7631,-21.3552"/>
<polygon fill="#191970" stroke="#191970" points="567.5078,-24.7768 576.702,-19.5122 566.2315,-17.8942 567.5078,-24.7768"/>
</g>
<!-- Node16 -->
<g id="node16" class="node">
<title>Node16</title>
<g id="a_node16"><a xlink:title=" ">
<polygon fill="#ffffff" stroke="#bfbfbf" points="722,-.5 722,-19.5 844,-19.5 844,-.5 722,-.5"/>
<text text-anchor="middle" x="783" y="-7.5" font-family="Helvetica,sans-Serif" font-size="10.00" fill="#000000">WolframSparseLibrary.h</text>
</a>
</g>
</g>
<!-- Node9&#45;&gt;Node16 -->
<g id="edge17" class="edge">
<title>Node9&#45;&gt;Node16</title>
<path fill="none" stroke="#191970" d="M374.0709,-57.4767C377.4275,-56.9539 380.7622,-56.4558 384,-56 526.387,-35.9546 565.326,-38.2848 711.6721,-20.129"/>
<polygon fill="#191970" stroke="#191970" points="712.4448,-23.5597 721.9325,-18.8446 711.5752,-16.6139 712.4448,-23.5597"/>
</g>
</g>
</svg>
