<?xml version="1.0" encoding="UTF-8" standalone="no"?>
<!DOCTYPE svg PUBLIC "-//W3C//DTD SVG 1.1//EN"
 "http://www.w3.org/Graphics/SVG/1.1/DTD/svg11.dtd">
<!-- Generated by graphviz version 2.40.1 (20161225.0304)
 -->
<!-- Title: WSStream.hpp Pages: 1 -->
<svg width="2002pt" height="308pt"
 viewBox="0.00 0.00 2001.50 308.00" xmlns="http://www.w3.org/2000/svg" xmlns:xlink="http://www.w3.org/1999/xlink">
<g id="graph0" class="graph" transform="scale(1 1) rotate(0) translate(4 304)">
<title>WSStream.hpp</title>
<polygon fill="#ffffff" stroke="transparent" points="-4,4 -4,-304 1997.5,-304 1997.5,4 -4,4"/>
<!-- Node1 -->
<g id="node1" class="node">
<title>Node1</title>
<g id="a_node1"><a xlink:title="Header file for WSStream class.">
<polygon fill="#bfbfbf" stroke="#000000" points="1570,-280.5 1570,-299.5 1653,-299.5 1653,-280.5 1570,-280.5"/>
<text text-anchor="middle" x="1611.5" y="-287.5" font-family="Helvetica,sans-Serif" font-size="10.00" fill="#000000">WSStream.hpp</text>
</a>
</g>
</g>
<!-- Node2 -->
<g id="node2" class="node">
<title>Node2</title>
<g id="a_node2"><a xlink:title=" ">
<polygon fill="#ffffff" stroke="#bfbfbf" points="1583.5,-168.5 1583.5,-187.5 1639.5,-187.5 1639.5,-168.5 1583.5,-168.5"/>
<text text-anchor="middle" x="1611.5" y="-175.5" font-family="Helvetica,sans-Serif" font-size="10.00" fill="#000000">algorithm</text>
</a>
</g>
</g>
<!-- Node1&#45;&gt;Node2 -->
<g id="edge1" class="edge">
<title>Node1&#45;&gt;Node2</title>
<path fill="none" stroke="#191970" d="M1611.5,-280.4509C1611.5,-262.184 1611.5,-221.9553 1611.5,-197.6976"/>
<polygon fill="#191970" stroke="#191970" points="1615.0001,-197.5249 1611.5,-187.5249 1608.0001,-197.5249 1615.0001,-197.5249"/>
</g>
<!-- Node3 -->
<g id="node3" class="node">
<title>Node3</title>
<g id="a_node3"><a xlink:title=" ">
<polygon fill="#ffffff" stroke="#bfbfbf" points="1772,-224.5 1772,-243.5 1819,-243.5 1819,-224.5 1772,-224.5"/>
<text text-anchor="middle" x="1795.5" y="-231.5" font-family="Helvetica,sans-Serif" font-size="10.00" fill="#000000">iterator</text>
</a>
</g>
</g>
<!-- Node1&#45;&gt;Node3 -->
<g id="edge2" class="edge">
<title>Node1&#45;&gt;Node3</title>
<path fill="none" stroke="#191970" d="M1643.1307,-280.3733C1676.2806,-270.2842 1728.153,-254.4969 1761.9902,-244.1986"/>
<polygon fill="#191970" stroke="#191970" points="1763.3241,-247.4512 1771.8718,-241.1912 1761.2859,-240.7545 1763.3241,-247.4512"/>
</g>
<!-- Node4 -->
<g id="node4" class="node">
<title>Node4</title>
<g id="a_node4"><a xlink:title=" ">
<polygon fill="#ffffff" stroke="#bfbfbf" points="1837,-224.5 1837,-243.5 1872,-243.5 1872,-224.5 1837,-224.5"/>
<text text-anchor="middle" x="1854.5" y="-231.5" font-family="Helvetica,sans-Serif" font-size="10.00" fill="#000000">map</text>
</a>
</g>
</g>
<!-- Node1&#45;&gt;Node4 -->
<g id="edge3" class="edge">
<title>Node1&#45;&gt;Node4</title>
<path fill="none" stroke="#191970" d="M1653.1839,-283.1877C1695.1703,-275.8795 1761.8769,-263.0519 1827.1142,-244.1029"/>
<polygon fill="#191970" stroke="#191970" points="1828.1275,-247.4532 1836.7256,-241.2627 1826.1437,-240.7402 1828.1275,-247.4532"/>
</g>
<!-- Node5 -->
<g id="node5" class="node">
<title>Node5</title>
<g id="a_node5"><a xlink:title=" ">
<polygon fill="#ffffff" stroke="#bfbfbf" points="1890,-224.5 1890,-243.5 1931,-243.5 1931,-224.5 1890,-224.5"/>
<text text-anchor="middle" x="1910.5" y="-231.5" font-family="Helvetica,sans-Serif" font-size="10.00" fill="#000000">stack</text>
</a>
</g>
</g>
<!-- Node1&#45;&gt;Node5 -->
<g id="edge4" class="edge">
<title>Node1&#45;&gt;Node5</title>
<path fill="none" stroke="#191970" d="M1653.109,-285.0575C1704.536,-278.4788 1794.789,-265.4019 1879.8997,-244.1198"/>
<polygon fill="#191970" stroke="#191970" points="1880.8865,-247.4803 1889.7146,-241.6225 1879.1604,-240.6965 1880.8865,-247.4803"/>
</g>
<!-- Node6 -->
<g id="node6" class="node">
<title>Node6</title>
<g id="a_node6"><a xlink:title=" ">
<polygon fill="#ffffff" stroke="#bfbfbf" points="611.5,-56.5 611.5,-75.5 673.5,-75.5 673.5,-56.5 611.5,-56.5"/>
<text text-anchor="middle" x="642.5" y="-63.5" font-family="Helvetica,sans-Serif" font-size="10.00" fill="#000000">type_traits</text>
</a>
</g>
</g>
<!-- Node1&#45;&gt;Node6 -->
<g id="edge5" class="edge">
<title>Node1&#45;&gt;Node6</title>
<path fill="none" stroke="#191970" d="M1569.7792,-289.4312C1414.6756,-287.0691 876.6698,-276.5821 807.5,-244 732.6149,-208.7258 675.4982,-122.7729 652.9761,-84.6906"/>
<polygon fill="#191970" stroke="#191970" points="655.8134,-82.605 647.7791,-75.6984 649.7527,-86.1078 655.8134,-82.605"/>
</g>
<!-- Node7 -->
<g id="node7" class="node">
<title>Node7</title>
<g id="a_node7"><a xlink:title=" ">
<polygon fill="#ffffff" stroke="#bfbfbf" points="1263.5,-56.5 1263.5,-75.5 1303.5,-75.5 1303.5,-56.5 1263.5,-56.5"/>
<text text-anchor="middle" x="1283.5" y="-63.5" font-family="Helvetica,sans-Serif" font-size="10.00" fill="#000000">utility</text>
</a>
</g>
</g>
<!-- Node1&#45;&gt;Node7 -->
<g id="edge6" class="edge">
<title>Node1&#45;&gt;Node7</title>
<path fill="none" stroke="#191970" d="M1627.0433,-280.375C1638.6929,-272.2357 1653.8849,-259.446 1661.5,-244 1676.4687,-213.6386 1685.0685,-196.3035 1666.5,-168 1582.9794,-40.6921 1486.2489,-103.537 1336.5,-76 1329.1138,-74.6418 1321.1536,-73.1531 1313.7041,-71.7489"/>
<polygon fill="#191970" stroke="#191970" points="1314.102,-68.2622 1303.6257,-69.8427 1312.801,-75.1403 1314.102,-68.2622"/>
</g>
<!-- Node8 -->
<g id="node8" class="node">
<title>Node8</title>
<g id="a_node8"><a xlink:title=" ">
<polygon fill="#ffffff" stroke="#bfbfbf" points="1949.5,-224.5 1949.5,-243.5 1993.5,-243.5 1993.5,-224.5 1949.5,-224.5"/>
<text text-anchor="middle" x="1971.5" y="-231.5" font-family="Helvetica,sans-Serif" font-size="10.00" fill="#000000">vector</text>
</a>
</g>
</g>
<!-- Node1&#45;&gt;Node8 -->
<g id="edge7" class="edge">
<title>Node1&#45;&gt;Node8</title>
<path fill="none" stroke="#191970" d="M1653.2095,-286.5023C1714.2379,-280.8767 1831.4841,-268.1459 1939.5225,-243.9039"/>
<polygon fill="#191970" stroke="#191970" points="1940.3073,-247.3149 1949.2777,-241.6774 1938.7496,-240.4904 1940.3073,-247.3149"/>
</g>
<!-- Node9 -->
<g id="node9" class="node">
<title>Node9</title>
<g id="a_node9"><a xlink:title=" ">
<polygon fill="#ffffff" stroke="#bfbfbf" points="966.5,-.5 966.5,-19.5 1012.5,-19.5 1012.5,-.5 966.5,-.5"/>
<text text-anchor="middle" x="989.5" y="-7.5" font-family="Helvetica,sans-Serif" font-size="10.00" fill="#000000">wstp.h</text>
</a>
</g>
</g>
<!-- Node1&#45;&gt;Node9 -->
<g id="edge8" class="edge">
<title>Node1&#45;&gt;Node9</title>
<path fill="none" stroke="#191970" d="M1639.8173,-280.4254C1678.6033,-265.3059 1743.5,-231.9474 1743.5,-178 1743.5,-178 1743.5,-178 1743.5,-122 1743.5,-47.943 1662.4022,-73.7347 1590.5,-56 1481.3577,-29.0801 1132.1092,-14.9458 1022.6401,-11.0971"/>
<polygon fill="#191970" stroke="#191970" points="1022.6348,-7.5949 1012.5196,-10.7467 1022.3925,-14.5907 1022.6348,-7.5949"/>
</g>
<!-- Node10 -->
<g id="node10" class="node">
<title>Node10</title>
<g id="a_node10"><a xlink:href="Errors_8h.html" target="_top" xlink:title="Definitions of error names and error codes used across LLU.">
<polygon fill="#ffffff" stroke="#000000" points="1416.5,-112.5 1416.5,-131.5 1528.5,-131.5 1528.5,-112.5 1416.5,-112.5"/>
<text text-anchor="middle" x="1472.5" y="-119.5" font-family="Helvetica,sans-Serif" font-size="10.00" fill="#000000">LLU/ErrorLog/Errors.h</text>
</a>
</g>
</g>
<!-- Node1&#45;&gt;Node10 -->
<g id="edge9" class="edge">
<title>Node1&#45;&gt;Node10</title>
<path fill="none" stroke="#191970" d="M1619.6549,-280.4017C1637.3742,-258.3391 1675.6909,-203.211 1648.5,-168 1634.89,-150.3756 1582.8707,-138.2101 1538.8867,-130.8372"/>
<polygon fill="#191970" stroke="#191970" points="1539.2073,-127.3436 1528.7766,-129.2012 1538.089,-134.2537 1539.2073,-127.3436"/>
</g>
<!-- Node12 -->
<g id="node12" class="node">
<title>Node12</title>
<g id="a_node12"><a xlink:href="Utilities_8hpp.html" target="_top" xlink:title="Short but generally useful functions.">
<polygon fill="#ffffff" stroke="#000000" points="718,-112.5 718,-131.5 807,-131.5 807,-112.5 718,-112.5"/>
<text text-anchor="middle" x="762.5" y="-119.5" font-family="Helvetica,sans-Serif" font-size="10.00" fill="#000000">LLU/Utilities.hpp</text>
</a>
</g>
</g>
<!-- Node1&#45;&gt;Node12 -->
<g id="edge11" class="edge">
<title>Node1&#45;&gt;Node12</title>
<path fill="none" stroke="#191970" d="M1569.8624,-288.0837C1446.9938,-282.2583 1087.3213,-263.9363 971.5,-244 879.2642,-228.1235 828.5173,-259.8152 768.5,-188 757.917,-175.3367 757.3097,-156.1439 758.8218,-141.7142"/>
<polygon fill="#191970" stroke="#191970" points="762.2887,-142.1942 760.261,-131.7952 755.3612,-141.1889 762.2887,-142.1942"/>
</g>
<!-- Node24 -->
<g id="node24" class="node">
<title>Node24</title>
<g id="a_node24"><a xlink:href="Get_8h.html" target="_top" xlink:title="Header file with classes related to reading data from WSTP.">
<polygon fill="#ffffff" stroke="#000000" points="1112.5,-224.5 1112.5,-243.5 1206.5,-243.5 1206.5,-224.5 1112.5,-224.5"/>
<text text-anchor="middle" x="1159.5" y="-231.5" font-family="Helvetica,sans-Serif" font-size="10.00" fill="#000000">LLU/WSTP/Get.h</text>
</a>
</g>
</g>
<!-- Node1&#45;&gt;Node24 -->
<g id="edge26" class="edge">
<title>Node1&#45;&gt;Node24</title>
<path fill="none" stroke="#191970" d="M1569.7871,-284.832C1488.5811,-274.7711 1309.1532,-252.5411 1216.8366,-241.1037"/>
<polygon fill="#191970" stroke="#191970" points="1217.1861,-237.6203 1206.8316,-239.8641 1216.3253,-244.5672 1217.1861,-237.6203"/>
</g>
<!-- Node27 -->
<g id="node27" class="node">
<title>Node27</title>
<g id="a_node27"><a xlink:href="WSTP_2Utilities_8h.html" target="_top" xlink:title="Header file with miscellaneous utilities used throughout the WSTP&#45;related part of LibraryLinkUtilitie...">
<polygon fill="#ffffff" stroke="#000000" points="1226,-168.5 1226,-187.5 1337,-187.5 1337,-168.5 1226,-168.5"/>
<text text-anchor="middle" x="1281.5" y="-175.5" font-family="Helvetica,sans-Serif" font-size="10.00" fill="#000000">LLU/WSTP/Utilities.h</text>
</a>
</g>
</g>
<!-- Node1&#45;&gt;Node27 -->
<g id="edge62" class="edge">
<title>Node1&#45;&gt;Node27</title>
<path fill="none" stroke="#191970" d="M1569.64,-282.9271C1529.6165,-275.5138 1467.9254,-262.3759 1416.5,-244 1376.897,-229.8486 1333.6395,-207.349 1307.0335,-192.6263"/>
<polygon fill="#191970" stroke="#191970" points="1308.4581,-189.4128 1298.0223,-187.5839 1305.0398,-195.5215 1308.4581,-189.4128"/>
</g>
<!-- Node30 -->
<g id="node30" class="node">
<title>Node30</title>
<g id="a_node30"><a xlink:href="Put_8h.html" target="_top" xlink:title="Header file with classes related to sending data through WSTP.">
<polygon fill="#ffffff" stroke="#000000" points="981,-224.5 981,-243.5 1074,-243.5 1074,-224.5 981,-224.5"/>
<text text-anchor="middle" x="1027.5" y="-231.5" font-family="Helvetica,sans-Serif" font-size="10.00" fill="#000000">LLU/WSTP/Put.h</text>
</a>
</g>
</g>
<!-- Node1&#45;&gt;Node30 -->
<g id="edge47" class="edge">
<title>Node1&#45;&gt;Node30</title>
<path fill="none" stroke="#191970" d="M1569.9579,-286.812C1483.1956,-280.0274 1276.4486,-263.2006 1103.5,-244 1097.2503,-243.3062 1090.7186,-242.5278 1084.2218,-241.7197"/>
<polygon fill="#191970" stroke="#191970" points="1084.4482,-238.2205 1074.0871,-240.4333 1083.5667,-245.1647 1084.4482,-238.2205"/>
</g>
<!-- Node31 -->
<g id="node31" class="node">
<title>Node31</title>
<g id="a_node31"><a xlink:href="Strings_8h.html" target="_top" xlink:title="Definitions of multiple structures and type aliases related to string handling in WSTP.">
<polygon fill="#ffffff" stroke="#000000" points="1425,-224.5 1425,-243.5 1534,-243.5 1534,-224.5 1425,-224.5"/>
<text text-anchor="middle" x="1479.5" y="-231.5" font-family="Helvetica,sans-Serif" font-size="10.00" fill="#000000">LLU/WSTP/Strings.h</text>
</a>
</g>
</g>
<!-- Node1&#45;&gt;Node31 -->
<g id="edge53" class="edge">
<title>Node1&#45;&gt;Node31</title>
<path fill="none" stroke="#191970" d="M1588.8084,-280.3733C1567.4289,-271.3032 1535.1943,-257.6279 1511.2638,-247.4755"/>
<polygon fill="#191970" stroke="#191970" points="1512.4683,-244.1846 1501.8955,-243.5011 1509.7344,-250.6287 1512.4683,-244.1846"/>
</g>
<!-- Node32 -->
<g id="node32" class="node">
<title>Node32</title>
<g id="a_node32"><a xlink:href="UtilityTypeTraits_8hpp.html" target="_top" xlink:title="Type traits used by WSStream to identify types supported by WSTP.">
<polygon fill="#ffffff" stroke="#000000" points="496,-168.5 496,-187.5 657,-187.5 657,-168.5 496,-168.5"/>
<text text-anchor="middle" x="576.5" y="-175.5" font-family="Helvetica,sans-Serif" font-size="10.00" fill="#000000">LLU/WSTP/UtilityTypeTraits.hpp</text>
</a>
</g>
</g>
<!-- Node1&#45;&gt;Node32 -->
<g id="edge63" class="edge">
<title>Node1&#45;&gt;Node32</title>
<path fill="none" stroke="#191970" d="M1569.8415,-289.3122C1399.0225,-286.3089 757.2007,-273.1672 671.5,-244 641.2742,-233.713 611.9511,-210.7482 594.067,-194.8197"/>
<polygon fill="#191970" stroke="#191970" points="595.9878,-191.8322 586.2526,-187.6518 591.2561,-196.9908 595.9878,-191.8322"/>
</g>
<!-- Node11 -->
<g id="node11" class="node">
<title>Node11</title>
<g id="a_node11"><a xlink:title=" ">
<polygon fill="#ffffff" stroke="#bfbfbf" points="1345,-56.5 1345,-75.5 1386,-75.5 1386,-56.5 1345,-56.5"/>
<text text-anchor="middle" x="1365.5" y="-63.5" font-family="Helvetica,sans-Serif" font-size="10.00" fill="#000000">string</text>
</a>
</g>
</g>
<!-- Node10&#45;&gt;Node11 -->
<g id="edge10" class="edge">
<title>Node10&#45;&gt;Node11</title>
<path fill="none" stroke="#191970" d="M1453.862,-112.2455C1437.0614,-103.4527 1412.1366,-90.4079 1393.0382,-80.4125"/>
<polygon fill="#191970" stroke="#191970" points="1394.4073,-77.1787 1383.9244,-75.6427 1391.1614,-83.3807 1394.4073,-77.1787"/>
</g>
<!-- Node12&#45;&gt;Node6 -->
<g id="edge14" class="edge">
<title>Node12&#45;&gt;Node6</title>
<path fill="none" stroke="#191970" d="M741.8713,-112.3733C722.6081,-103.3838 693.6514,-89.8706 671.9581,-79.7471"/>
<polygon fill="#191970" stroke="#191970" points="673.4015,-76.5584 662.8595,-75.5011 670.4413,-82.9017 673.4015,-76.5584"/>
</g>
<!-- Node12&#45;&gt;Node7 -->
<g id="edge15" class="edge">
<title>Node12&#45;&gt;Node7</title>
<path fill="none" stroke="#191970" d="M807.3711,-117.177C911.1529,-106.022 1165.5798,-78.6747 1253.2372,-69.2528"/>
<polygon fill="#191970" stroke="#191970" points="1253.7434,-72.7187 1263.3121,-68.1699 1252.9953,-65.7587 1253.7434,-72.7187"/>
</g>
<!-- Node13 -->
<g id="node13" class="node">
<title>Node13</title>
<g id="a_node13"><a xlink:title=" ">
<polygon fill="#ffffff" stroke="#bfbfbf" points="692,-56.5 692,-75.5 745,-75.5 745,-56.5 692,-56.5"/>
<text text-anchor="middle" x="718.5" y="-63.5" font-family="Helvetica,sans-Serif" font-size="10.00" fill="#000000">complex</text>
</a>
</g>
</g>
<!-- Node12&#45;&gt;Node13 -->
<g id="edge12" class="edge">
<title>Node12&#45;&gt;Node13</title>
<path fill="none" stroke="#191970" d="M754.8358,-112.2455C748.6527,-104.3761 739.7937,-93.101 732.3711,-83.6542"/>
<polygon fill="#191970" stroke="#191970" points="735.0068,-81.3435 726.0764,-75.6427 729.5025,-85.6683 735.0068,-81.3435"/>
</g>
<!-- Node14 -->
<g id="node14" class="node">
<title>Node14</title>
<g id="a_node14"><a xlink:title=" ">
<polygon fill="#ffffff" stroke="#bfbfbf" points="865.5,-56.5 865.5,-75.5 911.5,-75.5 911.5,-56.5 865.5,-56.5"/>
<text text-anchor="middle" x="888.5" y="-63.5" font-family="Helvetica,sans-Serif" font-size="10.00" fill="#000000">cstdint</text>
</a>
</g>
</g>
<!-- Node12&#45;&gt;Node14 -->
<g id="edge13" class="edge">
<title>Node12&#45;&gt;Node14</title>
<path fill="none" stroke="#191970" d="M784.1602,-112.3733C804.4772,-103.3435 835.064,-89.7494 857.875,-79.6111"/>
<polygon fill="#191970" stroke="#191970" points="859.4059,-82.7609 867.1225,-75.5011 856.5628,-76.3642 859.4059,-82.7609"/>
</g>
<!-- Node15 -->
<g id="node15" class="node">
<title>Node15</title>
<g id="a_node15"><a xlink:title=" ">
<polygon fill="#ffffff" stroke="#bfbfbf" points="763.5,-56.5 763.5,-75.5 809.5,-75.5 809.5,-56.5 763.5,-56.5"/>
<text text-anchor="middle" x="786.5" y="-63.5" font-family="Helvetica,sans-Serif" font-size="10.00" fill="#000000">variant</text>
</a>
</g>
</g>
<!-- Node12&#45;&gt;Node15 -->
<g id="edge16" class="edge">
<title>Node12&#45;&gt;Node15</title>
<path fill="none" stroke="#191970" d="M766.6805,-112.2455C769.881,-104.7776 774.396,-94.2427 778.3084,-85.1137"/>
<polygon fill="#191970" stroke="#191970" points="781.6452,-86.2129 782.3674,-75.6427 775.2112,-83.4554 781.6452,-86.2129"/>
</g>
<!-- Node16 -->
<g id="node16" class="node">
<title>Node16</title>
<g id="a_node16"><a xlink:href="LibraryData_8h.html" target="_top" xlink:title=" ">
<polygon fill="#ffffff" stroke="#000000" points="379.5,-56.5 379.5,-75.5 475.5,-75.5 475.5,-56.5 379.5,-56.5"/>
<text text-anchor="middle" x="427.5" y="-63.5" font-family="Helvetica,sans-Serif" font-size="10.00" fill="#000000">LLU/LibraryData.h</text>
</a>
</g>
</g>
<!-- Node12&#45;&gt;Node16 -->
<g id="edge17" class="edge">
<title>Node12&#45;&gt;Node16</title>
<path fill="none" stroke="#191970" d="M717.668,-114.5057C657.843,-104.5051 551.8033,-86.7791 485.8196,-75.749"/>
<polygon fill="#191970" stroke="#191970" points="486.027,-72.2351 475.5868,-74.0384 484.8728,-79.1393 486.027,-72.2351"/>
</g>
<!-- Node16&#45;&gt;Node9 -->
<g id="edge20" class="edge">
<title>Node16&#45;&gt;Node9</title>
<path fill="none" stroke="#191970" d="M475.5172,-57.9239C480.2358,-57.23 484.9569,-56.5747 489.5,-56 535.5965,-50.169 851.7158,-22.1445 956.1181,-12.9378"/>
<polygon fill="#191970" stroke="#191970" points="956.7314,-16.3974 966.3855,-12.0329 956.1168,-9.4245 956.7314,-16.3974"/>
</g>
<!-- Node17 -->
<g id="node17" class="node">
<title>Node17</title>
<g id="a_node17"><a xlink:title=" ">
<polygon fill="#ffffff" stroke="#bfbfbf" points="811.5,-.5 811.5,-19.5 863.5,-19.5 863.5,-.5 811.5,-.5"/>
<text text-anchor="middle" x="837.5" y="-7.5" font-family="Helvetica,sans-Serif" font-size="10.00" fill="#000000">memory</text>
</a>
</g>
</g>
<!-- Node16&#45;&gt;Node17 -->
<g id="edge18" class="edge">
<title>Node16&#45;&gt;Node17</title>
<path fill="none" stroke="#191970" d="M475.535,-58.0575C480.25,-57.3365 484.9655,-56.6384 489.5,-56 622.0415,-37.3397 656.3732,-41.3999 788.5,-20 792.6942,-19.3207 797.0755,-18.5356 801.4191,-17.7102"/>
<polygon fill="#191970" stroke="#191970" points="802.2483,-21.114 811.3798,-15.7412 800.8909,-14.2469 802.2483,-21.114"/>
</g>
<!-- Node18 -->
<g id="node18" class="node">
<title>Node18</title>
<g id="a_node18"><a xlink:title=" ">
<polygon fill="#ffffff" stroke="#bfbfbf" points="717.5,-.5 717.5,-19.5 779.5,-19.5 779.5,-.5 717.5,-.5"/>
<text text-anchor="middle" x="748.5" y="-7.5" font-family="Helvetica,sans-Serif" font-size="10.00" fill="#000000">dllexport.h</text>
</a>
</g>
</g>
<!-- Node16&#45;&gt;Node18 -->
<g id="edge19" class="edge">
<title>Node16&#45;&gt;Node18</title>
<path fill="none" stroke="#191970" d="M475.5808,-58.2353C544.8507,-47.0351 668.0326,-27.0628 707.1412,-20.003"/>
<polygon fill="#191970" stroke="#191970" points="707.943,-23.4133 717.1134,-18.1073 706.6356,-16.5365 707.943,-23.4133"/>
</g>
<!-- Node19 -->
<g id="node19" class="node">
<title>Node19</title>
<g id="a_node19"><a xlink:title=" ">
<polygon fill="#ffffff" stroke="#bfbfbf" points="0,-.5 0,-19.5 91,-19.5 91,-.5 0,-.5"/>
<text text-anchor="middle" x="45.5" y="-7.5" font-family="Helvetica,sans-Serif" font-size="10.00" fill="#000000">WolframLibrary.h</text>
</a>
</g>
</g>
<!-- Node16&#45;&gt;Node19 -->
<g id="edge21" class="edge">
<title>Node16&#45;&gt;Node19</title>
<path fill="none" stroke="#191970" d="M379.4802,-59.8578C317.6485,-51.8132 206.6215,-36.9104 101.2701,-20.0707"/>
<polygon fill="#191970" stroke="#191970" points="101.523,-16.5666 91.0943,-18.4352 100.4122,-23.4779 101.523,-16.5666"/>
</g>
<!-- Node20 -->
<g id="node20" class="node">
<title>Node20</title>
<g id="a_node20"><a xlink:title=" ">
<polygon fill="#ffffff" stroke="#bfbfbf" points="109.5,-.5 109.5,-19.5 253.5,-19.5 253.5,-.5 109.5,-.5"/>
<text text-anchor="middle" x="181.5" y="-7.5" font-family="Helvetica,sans-Serif" font-size="10.00" fill="#000000">WolframIOLibraryFunctions.h</text>
</a>
</g>
</g>
<!-- Node16&#45;&gt;Node20 -->
<g id="edge22" class="edge">
<title>Node16&#45;&gt;Node20</title>
<path fill="none" stroke="#191970" d="M385.4906,-56.4369C343.3896,-46.8529 278.4995,-32.0812 233.2479,-21.78"/>
<polygon fill="#191970" stroke="#191970" points="233.8636,-18.3307 223.3361,-19.5237 232.3098,-25.1561 233.8636,-18.3307"/>
</g>
<!-- Node21 -->
<g id="node21" class="node">
<title>Node21</title>
<g id="a_node21"><a xlink:title=" ">
<polygon fill="#ffffff" stroke="#bfbfbf" points="271.5,-.5 271.5,-19.5 389.5,-19.5 389.5,-.5 271.5,-.5"/>
<text text-anchor="middle" x="330.5" y="-7.5" font-family="Helvetica,sans-Serif" font-size="10.00" fill="#000000">WolframImageLibrary.h</text>
</a>
</g>
</g>
<!-- Node16&#45;&gt;Node21 -->
<g id="edge23" class="edge">
<title>Node16&#45;&gt;Node21</title>
<path fill="none" stroke="#191970" d="M410.6039,-56.2455C395.582,-47.5731 373.3957,-34.7645 356.179,-24.825"/>
<polygon fill="#191970" stroke="#191970" points="357.6128,-21.6114 347.2025,-19.6427 354.1129,-27.6737 357.6128,-21.6114"/>
</g>
<!-- Node22 -->
<g id="node22" class="node">
<title>Node22</title>
<g id="a_node22"><a xlink:title=" ">
<polygon fill="#ffffff" stroke="#bfbfbf" points="408,-.5 408,-19.5 559,-19.5 559,-.5 408,-.5"/>
<text text-anchor="middle" x="483.5" y="-7.5" font-family="Helvetica,sans-Serif" font-size="10.00" fill="#000000">WolframNumericArrayLibrary.h</text>
</a>
</g>
</g>
<!-- Node16&#45;&gt;Node22 -->
<g id="edge24" class="edge">
<title>Node16&#45;&gt;Node22</title>
<path fill="none" stroke="#191970" d="M437.2545,-56.2455C445.3648,-48.1352 457.0925,-36.4075 466.7081,-26.7919"/>
<polygon fill="#191970" stroke="#191970" points="469.2611,-29.1887 473.8573,-19.6427 464.3113,-24.2389 469.2611,-29.1887"/>
</g>
<!-- Node23 -->
<g id="node23" class="node">
<title>Node23</title>
<g id="a_node23"><a xlink:title=" ">
<polygon fill="#ffffff" stroke="#bfbfbf" points="577.5,-.5 577.5,-19.5 699.5,-19.5 699.5,-.5 577.5,-.5"/>
<text text-anchor="middle" x="638.5" y="-7.5" font-family="Helvetica,sans-Serif" font-size="10.00" fill="#000000">WolframSparseLibrary.h</text>
</a>
</g>
</g>
<!-- Node16&#45;&gt;Node23 -->
<g id="edge25" class="edge">
<title>Node16&#45;&gt;Node23</title>
<path fill="none" stroke="#191970" d="M463.7722,-56.3733C499.4658,-46.9001 554.0879,-32.4032 592.7451,-22.1435"/>
<polygon fill="#191970" stroke="#191970" points="593.9336,-25.4493 602.7011,-19.5011 592.1379,-18.6835 593.9336,-25.4493"/>
</g>
<!-- Node24&#45;&gt;Node9 -->
<g id="edge30" class="edge">
<title>Node24&#45;&gt;Node9</title>
<path fill="none" stroke="#191970" d="M1152.1953,-224.375C1126.0938,-189.9825 1037.1798,-72.8251 1003.0196,-27.8141"/>
<polygon fill="#191970" stroke="#191970" points="1005.6109,-25.439 996.7775,-19.5891 1000.0349,-29.6708 1005.6109,-25.439"/>
</g>
<!-- Node24&#45;&gt;Node10 -->
<g id="edge31" class="edge">
<title>Node24&#45;&gt;Node10</title>
<path fill="none" stroke="#191970" d="M1206.696,-229.7832C1252.4383,-224.4094 1322.9982,-212.6688 1379.5,-188 1408.0351,-175.5415 1436.608,-153.4824 1454.4034,-138.32"/>
<polygon fill="#191970" stroke="#191970" points="1456.9865,-140.7115 1462.2262,-131.503 1452.3876,-135.4342 1456.9865,-140.7115"/>
</g>
<!-- Node24&#45;&gt;Node11 -->
<g id="edge29" class="edge">
<title>Node24&#45;&gt;Node11</title>
<path fill="none" stroke="#191970" d="M1165.2042,-224.2096C1172.1248,-210.9654 1181.8871,-186.8321 1173.5,-168 1163.7694,-146.1513 1143.2306,-153.8487 1133.5,-132 1129.8837,-123.88 1127.8588,-118.8695 1133.5,-112 1135.1051,-110.0455 1271.7602,-83.8333 1334.5605,-71.8747"/>
<polygon fill="#191970" stroke="#191970" points="1335.5082,-75.2572 1344.6777,-69.9498 1334.1998,-68.3806 1335.5082,-75.2572"/>
</g>
<!-- Node24&#45;&gt;Node12 -->
<g id="edge32" class="edge">
<title>Node24&#45;&gt;Node12</title>
<path fill="none" stroke="#191970" d="M1112.2544,-227.7386C1020.4646,-215.5463 826.6858,-189.6602 823.5,-188 802.4163,-177.0128 784.8202,-155.7226 774.0294,-140.2869"/>
<polygon fill="#191970" stroke="#191970" points="776.6805,-137.954 768.2197,-131.577 770.8571,-141.8383 776.6805,-137.954"/>
</g>
<!-- Node24&#45;&gt;Node17 -->
<g id="edge28" class="edge">
<title>Node24&#45;&gt;Node17</title>
<path fill="none" stroke="#191970" d="M1112.3271,-227.5875C1028.2692,-216.0592 860.9021,-192.6017 856.5,-188 815.2252,-144.8539 825.2015,-66.2137 832.7495,-29.6565"/>
<polygon fill="#191970" stroke="#191970" points="836.1986,-30.2696 834.9546,-19.7481 829.3658,-28.7489 836.1986,-30.2696"/>
</g>
<!-- Node25 -->
<g id="node25" class="node">
<title>Node25</title>
<g id="a_node25"><a xlink:title=" ">
<polygon fill="#ffffff" stroke="#bfbfbf" points="951,-112.5 951,-131.5 1010,-131.5 1010,-112.5 951,-112.5"/>
<text text-anchor="middle" x="980.5" y="-119.5" font-family="Helvetica,sans-Serif" font-size="10.00" fill="#000000">functional</text>
</a>
</g>
</g>
<!-- Node24&#45;&gt;Node25 -->
<g id="edge27" class="edge">
<title>Node24&#45;&gt;Node25</title>
<path fill="none" stroke="#191970" d="M1144.2386,-224.4509C1113.0625,-204.9441 1041.8606,-160.3932 1004.4586,-136.9909"/>
<polygon fill="#191970" stroke="#191970" points="1006.0566,-133.8621 995.7228,-131.5249 1002.3436,-139.7962 1006.0566,-133.8621"/>
</g>
<!-- Node26 -->
<g id="node26" class="node">
<title>Node26</title>
<g id="a_node26"><a xlink:href="Release_8h.html" target="_top" xlink:title="Header file with classes responsible for releasing memory allocated by WSTP when receiving data.">
<polygon fill="#ffffff" stroke="#000000" points="865.5,-168.5 865.5,-187.5 979.5,-187.5 979.5,-168.5 865.5,-168.5"/>
<text text-anchor="middle" x="922.5" y="-175.5" font-family="Helvetica,sans-Serif" font-size="10.00" fill="#000000">LLU/WSTP/Release.h</text>
</a>
</g>
</g>
<!-- Node24&#45;&gt;Node26 -->
<g id="edge33" class="edge">
<title>Node24&#45;&gt;Node26</title>
<path fill="none" stroke="#191970" d="M1119.0275,-224.4369C1078.552,-214.8731 1016.2133,-200.1432 972.6297,-189.845"/>
<polygon fill="#191970" stroke="#191970" points="973.3424,-186.4171 962.8055,-187.5237 971.7327,-193.2295 973.3424,-186.4171"/>
</g>
<!-- Node24&#45;&gt;Node27 -->
<g id="edge37" class="edge">
<title>Node24&#45;&gt;Node27</title>
<path fill="none" stroke="#191970" d="M1180.4725,-224.3733C1200.0567,-215.3838 1229.4961,-201.8706 1251.551,-191.7471"/>
<polygon fill="#191970" stroke="#191970" points="1253.1729,-194.8538 1260.8011,-187.5011 1250.2527,-188.4919 1253.1729,-194.8538"/>
</g>
<!-- Node26&#45;&gt;Node9 -->
<g id="edge35" class="edge">
<title>Node26&#45;&gt;Node9</title>
<path fill="none" stroke="#191970" d="M924.7405,-168.4463C927.8982,-155.4703 934.1059,-131.6399 941.5,-112 952.7672,-82.0725 969.2056,-48.7957 979.6241,-28.6368"/>
<polygon fill="#191970" stroke="#191970" points="982.8055,-30.1059 984.3353,-19.622 976.6016,-26.8637 982.8055,-30.1059"/>
</g>
<!-- Node26&#45;&gt;Node12 -->
<g id="edge36" class="edge">
<title>Node26&#45;&gt;Node12</title>
<path fill="none" stroke="#191970" d="M894.995,-168.3733C868.6198,-159.1419 828.6149,-145.1402 799.4642,-134.9375"/>
<polygon fill="#191970" stroke="#191970" points="800.2409,-131.5012 789.6461,-131.5011 797.9284,-138.1082 800.2409,-131.5012"/>
</g>
<!-- Node26&#45;&gt;Node25 -->
<g id="edge34" class="edge">
<title>Node26&#45;&gt;Node25</title>
<path fill="none" stroke="#191970" d="M932.6028,-168.2455C941.0028,-160.1352 953.1494,-148.4075 963.1084,-138.7919"/>
<polygon fill="#191970" stroke="#191970" points="965.75,-141.1066 970.5129,-131.6427 960.8878,-136.0707 965.75,-141.1066"/>
</g>
<!-- Node27&#45;&gt;Node9 -->
<g id="edge40" class="edge">
<title>Node27&#45;&gt;Node9</title>
<path fill="none" stroke="#191970" d="M1231.886,-168.4982C1201.9984,-161.3711 1163.9576,-149.7416 1133.5,-132 1090.8438,-107.1527 1090.5061,-87.5036 1052.5,-56 1039.4954,-45.2204 1024.2081,-34.0254 1011.9494,-25.3786"/>
<polygon fill="#191970" stroke="#191970" points="1013.8378,-22.4284 1003.6344,-19.5751 1009.8314,-28.1686 1013.8378,-22.4284"/>
</g>
<!-- Node27&#45;&gt;Node10 -->
<g id="edge41" class="edge">
<title>Node27&#45;&gt;Node10</title>
<path fill="none" stroke="#191970" d="M1314.3341,-168.3733C1346.3695,-158.9807 1395.2487,-144.6496 1430.1855,-134.4064"/>
<polygon fill="#191970" stroke="#191970" points="1431.4831,-137.6733 1440.0944,-131.5011 1429.5136,-130.9561 1431.4831,-137.6733"/>
</g>
<!-- Node27&#45;&gt;Node11 -->
<g id="edge39" class="edge">
<title>Node27&#45;&gt;Node11</title>
<path fill="none" stroke="#191970" d="M1319.182,-168.3393C1337.7713,-161.4646 1358.5152,-150.137 1369.5,-132 1377.9352,-118.0725 1375.7949,-99.3167 1372.2088,-85.3589"/>
<polygon fill="#191970" stroke="#191970" points="1375.5612,-84.3529 1369.3358,-75.78 1368.8562,-86.3639 1375.5612,-84.3529"/>
</g>
<!-- Node28 -->
<g id="node28" class="node">
<title>Node28</title>
<g id="a_node28"><a xlink:title=" ">
<polygon fill="#ffffff" stroke="#bfbfbf" points="1142.5,-112.5 1142.5,-131.5 1188.5,-131.5 1188.5,-112.5 1142.5,-112.5"/>
<text text-anchor="middle" x="1165.5" y="-119.5" font-family="Helvetica,sans-Serif" font-size="10.00" fill="#000000">cstring</text>
</a>
</g>
</g>
<!-- Node27&#45;&gt;Node28 -->
<g id="edge38" class="edge">
<title>Node27&#45;&gt;Node28</title>
<path fill="none" stroke="#191970" d="M1261.5589,-168.3733C1243.0214,-159.4241 1215.1972,-145.9917 1194.2587,-135.8835"/>
<polygon fill="#191970" stroke="#191970" points="1195.7081,-132.6967 1185.1809,-131.5011 1192.6648,-139.0006 1195.7081,-132.6967"/>
</g>
<!-- Node29 -->
<g id="node29" class="node">
<title>Node29</title>
<g id="a_node29"><a xlink:href="EncodingTraits_8hpp.html" target="_top" xlink:title="Defines possible encodings together with their properties and related types.">
<polygon fill="#ffffff" stroke="#000000" points="1206.5,-112.5 1206.5,-131.5 1360.5,-131.5 1360.5,-112.5 1206.5,-112.5"/>
<text text-anchor="middle" x="1283.5" y="-119.5" font-family="Helvetica,sans-Serif" font-size="10.00" fill="#000000">LLU/WSTP/EncodingTraits.hpp</text>
</a>
</g>
</g>
<!-- Node27&#45;&gt;Node29 -->
<g id="edge42" class="edge">
<title>Node27&#45;&gt;Node29</title>
<path fill="none" stroke="#191970" d="M1281.8484,-168.2455C1282.1093,-160.9382 1282.4752,-150.6944 1282.7963,-141.7046"/>
<polygon fill="#191970" stroke="#191970" points="1286.2964,-141.7613 1283.1556,-131.6427 1279.3008,-141.5113 1286.2964,-141.7613"/>
</g>
<!-- Node29&#45;&gt;Node6 -->
<g id="edge45" class="edge">
<title>Node29&#45;&gt;Node6</title>
<path fill="none" stroke="#191970" d="M1206.1625,-112.8374C1203.2389,-112.545 1200.3436,-112.2646 1197.5,-112 972.2743,-91.0447 910.8426,-111.3701 683.726,-75.9466"/>
<polygon fill="#191970" stroke="#191970" points="684.2593,-72.4875 673.8359,-74.3854 683.1678,-79.4019 684.2593,-72.4875"/>
</g>
<!-- Node29&#45;&gt;Node7 -->
<g id="edge46" class="edge">
<title>Node29&#45;&gt;Node7</title>
<path fill="none" stroke="#191970" d="M1283.5,-112.2455C1283.5,-104.9382 1283.5,-94.6944 1283.5,-85.7046"/>
<polygon fill="#191970" stroke="#191970" points="1287.0001,-85.6426 1283.5,-75.6427 1280.0001,-85.6427 1287.0001,-85.6426"/>
</g>
<!-- Node29&#45;&gt;Node11 -->
<g id="edge44" class="edge">
<title>Node29&#45;&gt;Node11</title>
<path fill="none" stroke="#191970" d="M1297.7833,-112.2455C1310.247,-103.7337 1328.5451,-91.2375 1342.9792,-81.3801"/>
<polygon fill="#191970" stroke="#191970" points="1345.0962,-84.1726 1351.3804,-75.6427 1341.1485,-78.392 1345.0962,-84.1726"/>
</g>
<!-- Node29&#45;&gt;Node14 -->
<g id="edge43" class="edge">
<title>Node29&#45;&gt;Node14</title>
<path fill="none" stroke="#191970" d="M1216.0459,-112.4369C1130.4685,-100.3044 986.2505,-79.8583 921.5972,-70.6923"/>
<polygon fill="#191970" stroke="#191970" points="921.9553,-67.2081 911.563,-69.2697 920.9727,-74.1388 921.9553,-67.2081"/>
</g>
<!-- Node30&#45;&gt;Node9 -->
<g id="edge49" class="edge">
<title>Node30&#45;&gt;Node9</title>
<path fill="none" stroke="#191970" d="M980.6194,-233.5561C855.271,-231.8852 519.6193,-224.0549 486.5,-188 435.9857,-133.0083 345.138,-181.3855 584.5,-56 600.9289,-47.394 862.1188,-22.0284 956.1204,-13.129"/>
<polygon fill="#191970" stroke="#191970" points="956.5935,-16.6 966.2202,-12.1753 955.9354,-9.631 956.5935,-16.6"/>
</g>
<!-- Node30&#45;&gt;Node10 -->
<g id="edge50" class="edge">
<title>Node30&#45;&gt;Node10</title>
<path fill="none" stroke="#191970" d="M1074.1529,-227.7342C1159.4093,-216.2161 1332.8353,-192.4471 1345.5,-188 1362.0415,-182.1916 1364.0771,-176.3363 1379.5,-168 1400.4158,-156.6947 1424.4864,-144.8188 1442.8984,-135.966"/>
<polygon fill="#191970" stroke="#191970" points="1444.4522,-139.1026 1451.9641,-131.6312 1441.4326,-132.7874 1444.4522,-139.1026"/>
</g>
<!-- Node30&#45;&gt;Node12 -->
<g id="edge51" class="edge">
<title>Node30&#45;&gt;Node12</title>
<path fill="none" stroke="#191970" d="M980.7748,-230.6236C918.8759,-225.2457 814.1616,-212.7182 785.5,-188 772.1731,-176.5067 766.5644,-156.853 764.206,-141.9739"/>
<polygon fill="#191970" stroke="#191970" points="767.6433,-141.2452 762.9622,-131.7407 760.6945,-142.09 767.6433,-141.2452"/>
</g>
<!-- Node30&#45;&gt;Node25 -->
<g id="edge48" class="edge">
<title>Node30&#45;&gt;Node25</title>
<path fill="none" stroke="#191970" d="M1023.4928,-224.4509C1015.7578,-206.0186 998.6392,-165.2254 988.4913,-141.043"/>
<polygon fill="#191970" stroke="#191970" points="991.594,-139.3915 984.4971,-131.5249 985.1393,-142.1002 991.594,-139.3915"/>
</g>
<!-- Node30&#45;&gt;Node27 -->
<g id="edge52" class="edge">
<title>Node30&#45;&gt;Node27</title>
<path fill="none" stroke="#191970" d="M1070.8756,-224.4369C1114.437,-214.8328 1181.6277,-200.0191 1228.3634,-189.7152"/>
<polygon fill="#191970" stroke="#191970" points="1229.2915,-193.0947 1238.3034,-187.5237 1227.7843,-186.2588 1229.2915,-193.0947"/>
</g>
<!-- Node31&#45;&gt;Node2 -->
<g id="edge54" class="edge">
<title>Node31&#45;&gt;Node2</title>
<path fill="none" stroke="#191970" d="M1502.1916,-224.3733C1523.5711,-215.3032 1555.8057,-201.6279 1579.7362,-191.4755"/>
<polygon fill="#191970" stroke="#191970" points="1581.2656,-194.6287 1589.1045,-187.5011 1578.5317,-188.1846 1581.2656,-194.6287"/>
</g>
<!-- Node31&#45;&gt;Node9 -->
<g id="edge57" class="edge">
<title>Node31&#45;&gt;Node9</title>
<path fill="none" stroke="#191970" d="M1492.2414,-224.1679C1503.2697,-215.3346 1519.3175,-201.6835 1531.5,-188 1572.1779,-142.3105 1612.0142,-100.931 1570.5,-56 1551.7951,-35.7556 1143.9167,-16.6441 1022.9957,-11.4067"/>
<polygon fill="#191970" stroke="#191970" points="1022.991,-7.9033 1012.8499,-10.9707 1022.6904,-14.8969 1022.991,-7.9033"/>
</g>
<!-- Node31&#45;&gt;Node10 -->
<g id="edge58" class="edge">
<title>Node31&#45;&gt;Node10</title>
<path fill="none" stroke="#191970" d="M1478.9032,-224.4509C1477.7615,-206.184 1475.2472,-165.9553 1473.7311,-141.6976"/>
<polygon fill="#191970" stroke="#191970" points="1477.2124,-141.2871 1473.0953,-131.5249 1470.226,-141.7238 1477.2124,-141.2871"/>
</g>
<!-- Node31&#45;&gt;Node12 -->
<g id="edge59" class="edge">
<title>Node31&#45;&gt;Node12</title>
<path fill="none" stroke="#191970" d="M1424.722,-227.4349C1356.5863,-219.0989 1236.7536,-203.8803 1134.5,-188 1021.4486,-170.4428 889.7599,-146.1719 817.311,-132.4862"/>
<polygon fill="#191970" stroke="#191970" points="817.5374,-128.967 807.0609,-130.5459 816.2354,-135.8449 817.5374,-128.967"/>
</g>
<!-- Node31&#45;&gt;Node17 -->
<g id="edge56" class="edge">
<title>Node31&#45;&gt;Node17</title>
<path fill="none" stroke="#191970" d="M1486.8287,-224.1415C1505.2527,-198.7983 1551.0911,-131.9697 1537.5,-112 1454.0229,10.6545 1133.8033,-34.5913 957.5,-20 929.3696,-17.6719 897.5317,-15.0178 873.7221,-13.0293"/>
<polygon fill="#191970" stroke="#191970" points="873.9741,-9.5382 863.7174,-12.1934 873.3913,-16.5139 873.9741,-9.5382"/>
</g>
<!-- Node31&#45;&gt;Node25 -->
<g id="edge55" class="edge">
<title>Node31&#45;&gt;Node25</title>
<path fill="none" stroke="#191970" d="M1424.7851,-226.0563C1371.367,-217.919 1287.9253,-204.1915 1216.5,-188 1146.5341,-172.1393 1066.3444,-148.5371 1019.7569,-134.2737"/>
<polygon fill="#191970" stroke="#191970" points="1020.6489,-130.8863 1010.0618,-131.2916 1018.5908,-137.577 1020.6489,-130.8863"/>
</g>
<!-- Node31&#45;&gt;Node27 -->
<g id="edge61" class="edge">
<title>Node31&#45;&gt;Node27</title>
<path fill="none" stroke="#191970" d="M1445.4626,-224.3733C1412.1106,-214.9404 1361.1473,-200.5265 1324.8998,-190.2747"/>
<polygon fill="#191970" stroke="#191970" points="1325.6684,-186.8548 1315.0933,-187.5011 1323.7632,-193.5906 1325.6684,-186.8548"/>
</g>
<!-- Node31&#45;&gt;Node29 -->
<g id="edge60" class="edge">
<title>Node31&#45;&gt;Node29</title>
<path fill="none" stroke="#191970" d="M1462.7892,-224.4509C1428.4352,-204.8201 1349.6953,-159.8259 1308.9576,-136.5472"/>
<polygon fill="#191970" stroke="#191970" points="1310.5875,-133.4475 1300.1686,-131.5249 1307.1145,-139.5252 1310.5875,-133.4475"/>
</g>
<!-- Node32&#45;&gt;Node6 -->
<g id="edge64" class="edge">
<title>Node32&#45;&gt;Node6</title>
<path fill="none" stroke="#191970" d="M582.1271,-168.4509C593.0864,-149.8533 617.4601,-108.4919 631.6593,-84.3964"/>
<polygon fill="#191970" stroke="#191970" points="634.8255,-85.9172 636.8871,-75.5249 628.7948,-82.3633 634.8255,-85.9172"/>
</g>
<!-- Node32&#45;&gt;Node9 -->
<g id="edge65" class="edge">
<title>Node32&#45;&gt;Node9</title>
<path fill="none" stroke="#191970" d="M575.2056,-168.2876C572.7035,-144.9818 570.0225,-85.629 602.5,-56 615.542,-44.1018 864.6059,-21.0243 956.1295,-12.9083"/>
<polygon fill="#191970" stroke="#191970" points="956.5819,-16.3821 966.2354,-12.0163 955.9664,-9.4092 956.5819,-16.3821"/>
</g>
<!-- Node32&#45;&gt;Node12 -->
<g id="edge66" class="edge">
<title>Node32&#45;&gt;Node12</title>
<path fill="none" stroke="#191970" d="M608.4745,-168.3733C639.6713,-158.9807 687.271,-144.6496 721.2932,-134.4064"/>
<polygon fill="#191970" stroke="#191970" points="722.3763,-137.7355 730.9427,-131.5011 720.3582,-131.0327 722.3763,-137.7355"/>
</g>
</g>
</svg>
