<?xml version="1.0" encoding="UTF-8" standalone="no"?>
<!DOCTYPE svg PUBLIC "-//W3C//DTD SVG 1.1//EN"
 "http://www.w3.org/Graphics/SVG/1.1/DTD/svg11.dtd">
<!-- Generated by graphviz version 2.40.1 (20161225.0304)
 -->
<!-- Title: Utilities.h Pages: 1 -->
<svg width="470pt" height="140pt"
 viewBox="0.00 0.00 470.00 140.00" xmlns="http://www.w3.org/2000/svg" xmlns:xlink="http://www.w3.org/1999/xlink">
<g id="graph0" class="graph" transform="scale(1 1) rotate(0) translate(4 136)">
<title>Utilities.h</title>
<polygon fill="#ffffff" stroke="transparent" points="-4,4 -4,-136 466,-136 466,4 -4,4"/>
<!-- Node1 -->
<g id="node1" class="node">
<title>Node1</title>
<g id="a_node1"><a xlink:title="Header file with miscellaneous utilities used throughout the WSTP&#45;related part of LibraryLinkUtilitie...">
<polygon fill="#bfbfbf" stroke="#000000" points="96,-112.5 96,-131.5 154,-131.5 154,-112.5 96,-112.5"/>
<text text-anchor="middle" x="125" y="-119.5" font-family="Helvetica,sans-Serif" font-size="10.00" fill="#000000">Utilities.h</text>
</a>
</g>
</g>
<!-- Node2 -->
<g id="node2" class="node">
<title>Node2</title>
<g id="a_node2"><a xlink:title=" ">
<polygon fill="#ffffff" stroke="#bfbfbf" points="0,-56.5 0,-75.5 46,-75.5 46,-56.5 0,-56.5"/>
<text text-anchor="middle" x="23" y="-63.5" font-family="Helvetica,sans-Serif" font-size="10.00" fill="#000000">cstring</text>
</a>
</g>
</g>
<!-- Node1&#45;&gt;Node2 -->
<g id="edge1" class="edge">
<title>Node1&#45;&gt;Node2</title>
<path fill="none" stroke="#191970" d="M107.233,-112.2455C91.2905,-103.4928 67.6741,-90.527 49.5011,-80.5496"/>
<polygon fill="#191970" stroke="#191970" points="51.0137,-77.3873 40.5634,-75.6427 47.6448,-83.5233 51.0137,-77.3873"/>
</g>
<!-- Node3 -->
<g id="node3" class="node">
<title>Node3</title>
<g id="a_node3"><a xlink:title=" ">
<polygon fill="#ffffff" stroke="#bfbfbf" points="201.5,-.5 201.5,-19.5 242.5,-19.5 242.5,-.5 201.5,-.5"/>
<text text-anchor="middle" x="222" y="-7.5" font-family="Helvetica,sans-Serif" font-size="10.00" fill="#000000">string</text>
</a>
</g>
</g>
<!-- Node1&#45;&gt;Node3 -->
<g id="edge2" class="edge">
<title>Node1&#45;&gt;Node3</title>
<path fill="none" stroke="#191970" d="M113.7945,-112.0586C100.0532,-98.6433 80.0851,-74.3168 93,-56 104.5789,-39.5781 157.098,-24.7894 191.4514,-16.6355"/>
<polygon fill="#191970" stroke="#191970" points="192.508,-19.9837 201.4641,-14.3236 190.933,-13.1632 192.508,-19.9837"/>
</g>
<!-- Node4 -->
<g id="node4" class="node">
<title>Node4</title>
<g id="a_node4"><a xlink:title=" ">
<polygon fill="#ffffff" stroke="#bfbfbf" points="102,-56.5 102,-75.5 148,-75.5 148,-56.5 102,-56.5"/>
<text text-anchor="middle" x="125" y="-63.5" font-family="Helvetica,sans-Serif" font-size="10.00" fill="#000000">wstp.h</text>
</a>
</g>
</g>
<!-- Node1&#45;&gt;Node4 -->
<g id="edge3" class="edge">
<title>Node1&#45;&gt;Node4</title>
<path fill="none" stroke="#191970" d="M125,-112.2455C125,-104.9382 125,-94.6944 125,-85.7046"/>
<polygon fill="#191970" stroke="#191970" points="128.5001,-85.6426 125,-75.6427 121.5001,-85.6427 128.5001,-85.6426"/>
</g>
<!-- Node5 -->
<g id="node5" class="node">
<title>Node5</title>
<g id="a_node5"><a xlink:href="Errors_8h.html" target="_top" xlink:title="Definitions of error names and error codes used across LLU.">
<polygon fill="#ffffff" stroke="#000000" points="166,-56.5 166,-75.5 278,-75.5 278,-56.5 166,-56.5"/>
<text text-anchor="middle" x="222" y="-63.5" font-family="Helvetica,sans-Serif" font-size="10.00" fill="#000000">LLU/ErrorLog/Errors.h</text>
</a>
</g>
</g>
<!-- Node1&#45;&gt;Node5 -->
<g id="edge4" class="edge">
<title>Node1&#45;&gt;Node5</title>
<path fill="none" stroke="#191970" d="M141.8961,-112.2455C156.918,-103.5731 179.1043,-90.7645 196.321,-80.825"/>
<polygon fill="#191970" stroke="#191970" points="198.3871,-83.6737 205.2975,-75.6427 194.8872,-77.6114 198.3871,-83.6737"/>
</g>
<!-- Node6 -->
<g id="node6" class="node">
<title>Node6</title>
<g id="a_node6"><a xlink:href="EncodingTraits_8hpp.html" target="_top" xlink:title="Defines possible encodings together with their properties and related types.">
<polygon fill="#ffffff" stroke="#000000" points="296,-56.5 296,-75.5 450,-75.5 450,-56.5 296,-56.5"/>
<text text-anchor="middle" x="373" y="-63.5" font-family="Helvetica,sans-Serif" font-size="10.00" fill="#000000">LLU/WSTP/EncodingTraits.hpp</text>
</a>
</g>
</g>
<!-- Node1&#45;&gt;Node6 -->
<g id="edge6" class="edge">
<title>Node1&#45;&gt;Node6</title>
<path fill="none" stroke="#191970" d="M154.4227,-115.3562C195.4405,-106.0941 270.4512,-89.1562 321.0139,-77.7388"/>
<polygon fill="#191970" stroke="#191970" points="321.7996,-81.1496 330.7831,-75.5328 320.2578,-74.3215 321.7996,-81.1496"/>
</g>
<!-- Node5&#45;&gt;Node3 -->
<g id="edge5" class="edge">
<title>Node5&#45;&gt;Node3</title>
<path fill="none" stroke="#191970" d="M222,-56.2455C222,-48.9382 222,-38.6944 222,-29.7046"/>
<polygon fill="#191970" stroke="#191970" points="225.5001,-29.6426 222,-19.6427 218.5001,-29.6427 225.5001,-29.6426"/>
</g>
<!-- Node6&#45;&gt;Node3 -->
<g id="edge8" class="edge">
<title>Node6&#45;&gt;Node3</title>
<path fill="none" stroke="#191970" d="M347.0422,-56.3733C320.7573,-46.6252 280.129,-31.5578 252.3656,-21.2614"/>
<polygon fill="#191970" stroke="#191970" points="253.3624,-17.8982 242.7694,-17.7026 250.9283,-24.4614 253.3624,-17.8982"/>
</g>
<!-- Node7 -->
<g id="node7" class="node">
<title>Node7</title>
<g id="a_node7"><a xlink:title=" ">
<polygon fill="#ffffff" stroke="#bfbfbf" points="278,-.5 278,-19.5 324,-19.5 324,-.5 278,-.5"/>
<text text-anchor="middle" x="301" y="-7.5" font-family="Helvetica,sans-Serif" font-size="10.00" fill="#000000">cstdint</text>
</a>
</g>
</g>
<!-- Node6&#45;&gt;Node7 -->
<g id="edge7" class="edge">
<title>Node6&#45;&gt;Node7</title>
<path fill="none" stroke="#191970" d="M360.4586,-56.2455C349.7213,-47.8943 334.0527,-35.7076 321.4953,-25.9408"/>
<polygon fill="#191970" stroke="#191970" points="323.4401,-23.0194 313.3977,-19.6427 319.1425,-28.5449 323.4401,-23.0194"/>
</g>
<!-- Node8 -->
<g id="node8" class="node">
<title>Node8</title>
<g id="a_node8"><a xlink:title=" ">
<polygon fill="#ffffff" stroke="#bfbfbf" points="342,-.5 342,-19.5 404,-19.5 404,-.5 342,-.5"/>
<text text-anchor="middle" x="373" y="-7.5" font-family="Helvetica,sans-Serif" font-size="10.00" fill="#000000">type_traits</text>
</a>
</g>
</g>
<!-- Node6&#45;&gt;Node8 -->
<g id="edge9" class="edge">
<title>Node6&#45;&gt;Node8</title>
<path fill="none" stroke="#191970" d="M373,-56.2455C373,-48.9382 373,-38.6944 373,-29.7046"/>
<polygon fill="#191970" stroke="#191970" points="376.5001,-29.6426 373,-19.6427 369.5001,-29.6427 376.5001,-29.6426"/>
</g>
<!-- Node9 -->
<g id="node9" class="node">
<title>Node9</title>
<g id="a_node9"><a xlink:title=" ">
<polygon fill="#ffffff" stroke="#bfbfbf" points="422,-.5 422,-19.5 462,-19.5 462,-.5 422,-.5"/>
<text text-anchor="middle" x="442" y="-7.5" font-family="Helvetica,sans-Serif" font-size="10.00" fill="#000000">utility</text>
</a>
</g>
</g>
<!-- Node6&#45;&gt;Node9 -->
<g id="edge10" class="edge">
<title>Node6&#45;&gt;Node9</title>
<path fill="none" stroke="#191970" d="M385.0189,-56.2455C395.2098,-47.9746 410.0362,-35.9416 422.0107,-26.2232"/>
<polygon fill="#191970" stroke="#191970" points="424.5598,-28.662 430.1188,-19.6427 420.1486,-23.2268 424.5598,-28.662"/>
</g>
</g>
</svg>
